<svg version="1.1" baseProfile="full" xmlns="http://www.w3.org/2000/svg" width="214" height="62">
	<line x1="1" y1="31" x2="213" y2="31" style="stroke:rgb(50,50,50); stroke-width:3 "/>
	<g>
		<polygon class="NoName" points="3,16 12,16 12,1 42,31 12,61 12,46 3,46" fill="rgb(255,255,255)" fill-opacity="1.0" stroke="rgb(50,50,50)" stroke-width="1" />
		<g>
			<title>PF05834</title>
			<polygon class="PF05834" points="4,18 26,18 39,31 26,44 4,44" stroke-linejoin="round" width="37" height="26" fill="rgb(212,80,200)" stroke="rgb(169,64,160)" stroke-width="1" opacity="0.75" />
		</g>
	</g>
	<g>
		<polygon class="NoName" points="42,16 47,16 47,1 77,31 47,61 47,46 42,46" fill="rgb(255,255,255)" fill-opacity="1.0" stroke="rgb(50,50,50)" stroke-width="1" />
		<g>
			<title>PF00348</title>
			<polygon class="PF00348" points="46,18 61,18 66,23 66,39 61,44 46,44" stroke-linejoin="round" width="20" height="26" fill="rgb(61,206,65)" stroke="rgb(48,164,52)" stroke-width="1" opacity="0.75" />
		</g>
	</g>
	<g>
		<polygon class="NoName" points="77,16 97,16 97,1 127,31 97,61 97,46 77,46" fill="rgb(255,255,255)" fill-opacity="1.0" stroke="rgb(50,50,50)" stroke-width="1" />
		<g>
			<title>PF01593</title>
			<polygon class="PF01593" points="78,18 111,18 124,31 111,44 78,44" stroke-linejoin="round" width="47" height="26" fill="rgb(184,74,52)" stroke="rgb(147,59,41)" stroke-width="1" opacity="0.75" />
		</g>
	</g>
	<g>
		<polygon class="NoName" points="127,16 128,16 128,1 158,31 128,61 128,46 127,46" fill="rgb(255,255,255)" fill-opacity="1.0" stroke="rgb(50,50,50)" stroke-width="1" />
		<g>
			<title>PF00494</title>
			<polygon class="PF00494" points="128,18 142,18 155,31 155,31 142,44 128,44" stroke-linejoin="round" width="27" height="26" fill="rgb(178,91,49)" stroke="rgb(142,72,39)" stroke-width="1" opacity="0.75" />
		</g>
	</g>
	<g>
		<polygon class="NoName" points="158,16 158,16 158,1 177,31 158,61 158,46 158,46" fill="rgb(255,255,255)" fill-opacity="1.0" stroke="rgb(50,50,50)" stroke-width="1" />
	</g>
	<g>
		<polygon class="NoName" points="177,16 183,16 183,1 213,31 183,61 183,46 177,46" fill="rgb(255,255,255)" fill-opacity="1.0" stroke="rgb(50,50,50)" stroke-width="1" />
	</g>
</svg>
