<svg version="1.1" baseProfile="full" xmlns="http://www.w3.org/2000/svg" width="1473" height="62">
	<line x1="1" y1="31" x2="1472" y2="31" style="stroke:rgb(50,50,50); stroke-width:3 "/>
	<g>
		<title>sprC</title>
		<polygon class="sprC" points="443,16 443,16 443,1 453,31 443,61 443,46 443,46" fill="rgb(178,182,253)" fill-opacity="1.0" stroke="rgb(71,72,101)" stroke-width="1" />
		<g>
			<title>PF04673</title>
			<polygon class="PF04673" points="443,18 446,18 450,31 446,44 443,44" stroke-linejoin="round" width="10" height="26" fill="rgb(49,187,78)" stroke="rgb(39,149,62)" stroke-width="1" opacity="0.75" />
		</g>
	</g>
	<g>
		<title>sprD</title>
		<polygon class="sprD" points="453,16 465,16 465,1 495,31 465,61 465,46 453,46" fill="rgb(250,249,212)" fill-opacity="1.0" stroke="rgb(100,99,84)" stroke-width="1" />
		<g>
			<title>PF00109</title>
			<rect class="PF00109" x="453" y="18" stroke-linejoin="round" width="25" height="26" fill="rgb(112,116,228)" stroke="rgb(89,92,182)" stroke-width="1" opacity="0.75" />
		</g>
		<g>
			<title>PF02801</title>
			<polygon class="PF02801" points="479,18 479,18 490,29 490,33 479,44 479,44" stroke-linejoin="round" width="11" height="26" fill="rgb(215,78,102)" stroke="rgb(172,62,81)" stroke-width="1" opacity="0.75" />
		</g>
	</g>
	<g>
		<title>sprE</title>
		<polygon class="sprE" points="496,16 507,16 507,1 537,31 507,61 507,46 496,46" fill="rgb(222,176,250)" fill-opacity="1.0" stroke="rgb(88,70,100)" stroke-width="1" />
		<g>
			<title>PF00109</title>
			<rect class="PF00109" x="496" y="18" stroke-linejoin="round" width="24" height="26" fill="rgb(112,116,228)" stroke="rgb(89,92,182)" stroke-width="1" opacity="0.75" />
		</g>
		<g>
			<title>PF02801</title>
			<polygon class="PF02801" points="521,18 521,18 532,29 532,33 521,44 521,44" stroke-linejoin="round" width="11" height="26" fill="rgb(215,78,102)" stroke="rgb(172,62,81)" stroke-width="1" opacity="0.75" />
		</g>
	</g>
	<g>
		<title>sprF</title>
		<polygon class="sprF" points="537,16 537,16 537,1 549,31 537,61 537,46 537,46" fill="rgb(231,249,198)" fill-opacity="1.0" stroke="rgb(92,99,79)" stroke-width="1" />
		<g>
			<title>PF00550</title>
			<polygon class="PF00550" points="541,18 541,18 546,31 541,44 541,44" stroke-linejoin="round" width="7" height="26" fill="rgb(103,191,88)" stroke="rgb(82,152,70)" stroke-width="1" opacity="0.75" />
		</g>
	</g>
	<g>
		<title>sprG</title>
		<polygon class="sprG" points="555,16 555,16 555,1 581,31 555,61 555,46 555,46" fill="rgb(213,252,216)" fill-opacity="1.0" stroke="rgb(85,100,86)" stroke-width="1" />
		<g>
			<title>PF00106</title>
			<polygon class="PF00106" points="555,18 567,18 574,26 574,36 567,44 555,44" stroke-linejoin="round" width="19" height="26" fill="rgb(182,219,73)" stroke="rgb(145,175,58)" stroke-width="1" opacity="0.75" />
		</g>
	</g>
	<g>
		<title>sprH</title>
		<polygon class="sprH" points="583,16 584,16 584,1 614,31 584,61 584,46 583,46" fill="rgb(210,253,234)" fill-opacity="1.0" stroke="rgb(84,101,93)" stroke-width="1" />
		<g>
			<title>PF10604</title>
			<rect class="PF10604" x="583" y="18" stroke-linejoin="round" width="14" height="26" fill="rgb(105,204,74)" stroke="rgb(84,163,59)" stroke-width="1" opacity="0.75" />
		</g>
	</g>
	<g>
		<title>sprI</title>
		<polygon class="sprI" points="614,16 650,16 650,1 680,31 650,61 650,46 614,46" fill="rgb(196,239,254)" fill-opacity="1.0" stroke="rgb(78,95,101)" stroke-width="1" />
		<g>
			<title>PF01494</title>
			<rect class="PF01494" x="614" y="18" stroke-linejoin="round" width="33" height="26" fill="rgb(182,175,59)" stroke="rgb(145,140,47)" stroke-width="1" opacity="0.75" />
		</g>
		<g>
			<title>PF13561</title>
			<polygon class="PF13561" points="656,18 664,18 677,31 664,44 656,44" stroke-linejoin="round" width="23" height="26" fill="rgb(73,205,127)" stroke="rgb(58,164,101)" stroke-width="1" opacity="0.75" />
		</g>
	</g>
	<g>
		<title>sprJ</title>
		<polygon class="sprJ" points="681,16 691,16 691,1 721,31 691,61 691,46 681,46" fill="rgb(191,254,184)" fill-opacity="1.0" stroke="rgb(76,101,73)" stroke-width="1" />
		<g>
			<title>PF07690</title>
			<polygon class="PF07690" points="683,18 705,18 716,29 716,33 705,44 683,44" stroke-linejoin="round" width="33" height="26" fill="rgb(193,224,74)" stroke="rgb(154,179,59)" stroke-width="1" opacity="0.75" />
		</g>
	</g>
	<g>
		<title>sprGT1</title>
		<polygon class="sprGT1" points="723,16 736,16 736,1 766,31 736,61 736,46 723,46" fill="rgb(235,249,208)" fill-opacity="1.0" stroke="rgb(94,99,83)" stroke-width="1" />
		<g>
			<title>PF06722</title>
			<polygon class="PF06722" points="744,18 750,18 753,21 753,41 750,44 744,44" stroke-linejoin="round" width="9" height="26" fill="rgb(200,129,88)" stroke="rgb(160,103,70)" stroke-width="1" opacity="0.75" />
		</g>
	</g>
	<g>
		<title>sprGT2</title>
		<polygon class="sprGT2" points="767,16 777,16 777,1 807,31 777,61 777,46 767,46" fill="rgb(239,212,250)" fill-opacity="1.0" stroke="rgb(95,84,100)" stroke-width="1" />
		<g>
			<title>PF06722</title>
			<polygon class="PF06722" points="784,18 791,18 793,20 793,42 791,44 784,44" stroke-linejoin="round" width="9" height="26" fill="rgb(200,129,88)" stroke="rgb(160,103,70)" stroke-width="1" opacity="0.75" />
		</g>
	</g>
	<g>
		<title>spr1</title>
		<polygon class="spr1" points="132,16 113,16 113,1 83,31 113,61 113,46 132,46" fill="rgb(254,218,195)" fill-opacity="1.0" stroke="rgb(101,87,77)" stroke-width="1" />
		<g>
			<title>PF00550</title>
			<polygon class="PF00550" points="85,31 90,26 90,35" stroke-linejoin="round" width="6" height="26" fill="rgb(103,191,88)" stroke="rgb(82,152,70)" stroke-width="1" opacity="0.75" />
		</g>
		<g>
			<title>PF00698</title>
			<rect class="PF00698" x="101" y="18" stroke-linejoin="round" width="29" height="26" fill="rgb(59,176,209)" stroke="rgb(47,140,167)" stroke-width="1" opacity="0.75" />
		</g>
	</g>
	<g>
		<title>sprK</title>
		<polygon class="sprK" points="808,16 808,16 808,1 826,31 808,61 808,46 808,46" fill="rgb(179,251,179)" fill-opacity="1.0" stroke="rgb(71,100,71)" stroke-width="1" />
		<g>
			<title>PF00908</title>
			<polygon class="PF00908" points="808,18 815,18 823,31 815,44 808,44" stroke-linejoin="round" width="17" height="26" fill="rgb(184,89,121)" stroke="rgb(147,71,96)" stroke-width="1" opacity="0.75" />
		</g>
	</g>
	<g>
		<title>sprGT3</title>
		<polygon class="sprGT3" points="827,16 834,16 834,1 864,31 834,61 834,46 827,46" fill="rgb(213,192,253)" fill-opacity="1.0" stroke="rgb(85,76,101)" stroke-width="1" />
		<g>
			<title>PF06722</title>
			<polygon class="PF06722" points="843,18 848,18 852,22 852,40 848,44 843,44" stroke-linejoin="round" width="9" height="26" fill="rgb(200,129,88)" stroke="rgb(160,103,70)" stroke-width="1" opacity="0.75" />
		</g>
	</g>
	<g>
		<title>sprL</title>
		<polygon class="sprL" points="865,16 870,16 870,1 900,31 870,61 870,46 865,46" fill="rgb(183,205,253)" fill-opacity="1.0" stroke="rgb(73,82,101)" stroke-width="1" />
		<g>
			<title>PF00483</title>
			<polygon class="PF00483" points="865,18 884,18 888,22 888,40 884,44 865,44" stroke-linejoin="round" width="23" height="26" fill="rgb(198,101,87)" stroke="rgb(158,80,69)" stroke-width="1" opacity="0.75" />
		</g>
	</g>
	<g>
		<title>sprM</title>
		<polygon class="sprM" points="901,16 903,16 903,1 933,31 903,61 903,46 901,46" fill="rgb(251,177,219)" fill-opacity="1.0" stroke="rgb(100,70,87)" stroke-width="1" />
		<g>
			<title>PF16363</title>
			<polygon class="PF16363" points="901,18 917,18 930,31 917,44 901,44" stroke-linejoin="round" width="30" height="26" fill="rgb(162,221,65)" stroke="rgb(129,176,51)" stroke-width="1" opacity="0.75" />
		</g>
	</g>
	<g>
		<title>sprN</title>
		<polygon class="sprN" points="934,16 940,16 940,1 970,31 940,61 940,46 934,46" fill="rgb(180,254,249)" fill-opacity="1.0" stroke="rgb(72,101,99)" stroke-width="1" />
		<g>
			<title>PF01370</title>
			<polygon class="PF01370" points="934,18 954,18 960,24 960,38 954,44 934,44" stroke-linejoin="round" width="26" height="26" fill="rgb(98,102,214)" stroke="rgb(78,81,171)" stroke-width="1" opacity="0.75" />
		</g>
	</g>
	<g>
		<title>sprO</title>
		<polygon class="sprO" points="971,16 984,16 984,1 1014,31 984,61 984,46 971,46" fill="rgb(187,254,214)" fill-opacity="1.0" stroke="rgb(74,101,85)" stroke-width="1" />
		<g>
			<title>PF01041</title>
			<polygon class="PF01041" points="975,18 998,18 1011,31 998,44 975,44" stroke-linejoin="round" width="38" height="26" fill="rgb(59,139,191)" stroke="rgb(47,111,152)" stroke-width="1" opacity="0.75" />
		</g>
	</g>
	<g>
		<title>sprP</title>
		<polygon class="sprP" points="1016,16 1016,16 1016,1 1041,31 1016,61 1016,46 1016,46" fill="rgb(198,202,249)" fill-opacity="1.0" stroke="rgb(79,80,99)" stroke-width="1" />
		<g>
			<title>PF01370</title>
			<polygon class="PF01370" points="1017,18 1027,18 1033,25 1033,37 1027,44 1017,44" stroke-linejoin="round" width="16" height="26" fill="rgb(98,102,214)" stroke="rgb(78,81,171)" stroke-width="1" opacity="0.75" />
		</g>
	</g>
	<g>
		<title>sprQ</title>
		<polygon class="sprQ" points="1043,16 1049,16 1049,1 1079,31 1049,61 1049,46 1043,46" fill="rgb(192,228,253)" fill-opacity="1.0" stroke="rgb(76,91,101)" stroke-width="1" />
	</g>
	<g>
		<title>sprR</title>
		<polygon class="sprR" points="1082,16 1098,16 1098,1 1128,31 1098,61 1098,46 1082,46" fill="rgb(251,179,240)" fill-opacity="1.0" stroke="rgb(100,71,96)" stroke-width="1" />
		<g>
			<title>PF03559</title>
			<rect class="PF03559" x="1085" y="18" stroke-linejoin="round" width="20" height="26" fill="rgb(74,201,66)" stroke="rgb(59,160,52)" stroke-width="1" opacity="0.75" />
		</g>
		<g>
			<title>PF03559</title>
			<polygon class="PF03559" points="1107,18 1112,18 1125,31 1112,44 1107,44" stroke-linejoin="round" width="20" height="26" fill="rgb(74,201,66)" stroke="rgb(59,160,52)" stroke-width="1" opacity="0.75" />
		</g>
	</g>
	<g>
		<title>sprS</title>
		<polygon class="sprS" points="1129,16 1130,16 1130,1 1160,31 1130,61 1130,46 1129,46" fill="rgb(219,206,254)" fill-opacity="1.0" stroke="rgb(87,82,101)" stroke-width="1" />
		<g>
			<title>PF01408</title>
			<rect class="PF01408" x="1129" y="18" stroke-linejoin="round" width="11" height="26" fill="rgb(76,117,190)" stroke="rgb(60,93,152)" stroke-width="1" opacity="0.75" />
		</g>
	</g>
	<g>
		<title>sprR1</title>
		<polygon class="sprR1" points="148,16 148,16 148,1 137,31 148,61 148,46 148,46" fill="rgb(228,198,251)" fill-opacity="1.0" stroke="rgb(91,79,100)" stroke-width="1" />
		<g>
			<title>PF00196</title>
			<polygon class="PF00196" points="139,31 143,20 143,41" stroke-linejoin="round" width="5" height="26" fill="rgb(219,94,82)" stroke="rgb(175,75,65)" stroke-width="1" opacity="0.75" />
		</g>
	</g>
	<g>
		<title>sprT</title>
		<polygon class="sprT" points="1161,16 1161,16 1161,1 1186,31 1161,61 1161,46 1161,46" fill="rgb(189,253,197)" fill-opacity="1.0" stroke="rgb(75,101,78)" stroke-width="1" />
		<g>
			<title>PF01648</title>
			<polygon class="PF01648" points="1172,18 1172,18 1178,25 1178,37 1172,44 1172,44" stroke-linejoin="round" width="6" height="26" fill="rgb(85,184,135)" stroke="rgb(68,147,108)" stroke-width="1" opacity="0.75" />
		</g>
	</g>
	<g>
		<title>sprU</title>
		<polygon class="sprU" points="1187,16 1210,16 1210,1 1240,31 1210,61 1210,46 1187,46" fill="rgb(251,204,212)" fill-opacity="1.0" stroke="rgb(100,81,84)" stroke-width="1" />
		<g>
			<title>PF01039</title>
			<polygon class="PF01039" points="1191,18 1224,18 1237,31 1224,44 1191,44" stroke-linejoin="round" width="48" height="26" fill="rgb(180,136,60)" stroke="rgb(144,108,48)" stroke-width="1" opacity="0.75" />
		</g>
	</g>
	<g>
		<title>sprX</title>
		<polygon class="sprX" points="1241,16 1241,16 1241,1 1263,31 1241,61 1241,46 1241,46" fill="rgb(254,206,248)" fill-opacity="1.0" stroke="rgb(101,82,99)" stroke-width="1" />
		<g>
			<title>PF01323</title>
			<polygon class="PF01323" points="1242,18 1250,18 1260,31 1250,44 1242,44" stroke-linejoin="round" width="20" height="26" fill="rgb(221,114,99)" stroke="rgb(176,91,79)" stroke-width="1" opacity="0.75" />
		</g>
	</g>
	<g>
		<title>sprY</title>
		<polygon class="sprY" points="1268,16 1292,16 1292,1 1322,31 1292,61 1292,46 1268,46" fill="rgb(250,201,250)" fill-opacity="1.0" stroke="rgb(100,80,100)" stroke-width="1" />
		<g>
			<title>PF01565</title>
			<rect class="PF01565" x="1275" y="18" stroke-linejoin="round" width="13" height="26" fill="rgb(226,88,136)" stroke="rgb(180,70,108)" stroke-width="1" opacity="0.75" />
		</g>
		<g>
			<title>PF08031</title>
			<polygon class="PF08031" points="1316,28 1319,31 1316,34" stroke-linejoin="round" width="5" height="26" fill="rgb(210,73,83)" stroke="rgb(168,58,66)" stroke-width="1" opacity="0.75" />
		</g>
	</g>
	<g>
		<title>sprZ</title>
		<polygon class="sprZ" points="1326,16 1326,16 1326,1 1340,31 1326,61 1326,46 1326,46" fill="rgb(180,251,186)" fill-opacity="1.0" stroke="rgb(72,100,74)" stroke-width="1" />
	</g>
	<g>
		<title>sprR3</title>
		<polygon class="sprR3" points="1386,16 1386,16 1386,1 1360,31 1386,61 1386,46 1386,46" fill="rgb(211,232,251)" fill-opacity="1.0" stroke="rgb(84,92,100)" stroke-width="1" />
		<g>
			<title>PF00486</title>
			<polygon class="PF00486" points="1362,31 1367,25 1367,36" stroke-linejoin="round" width="7" height="26" fill="rgb(204,153,57)" stroke="rgb(163,122,45)" stroke-width="1" opacity="0.75" />
		</g>
		<g>
			<title>PF00072</title>
			<polygon class="PF00072" points="1371,21 1373,18 1381,18 1381,44 1373,44 1371,40" stroke-linejoin="round" width="10" height="26" fill="rgb(100,107,203)" stroke="rgb(80,85,162)" stroke-width="1" opacity="0.75" />
		</g>
	</g>
	<g>
		<title>spr6</title>
		<polygon class="spr6" points="1404,16 1437,16 1437,1 1467,31 1437,61 1437,46 1404,46" fill="rgb(251,195,207)" fill-opacity="1.0" stroke="rgb(100,78,82)" stroke-width="1" />
		<g>
			<title>PF01558</title>
			<rect class="PF01558" x="1406" y="18" stroke-linejoin="round" width="19" height="26" fill="rgb(89,196,208)" stroke="rgb(71,156,166)" stroke-width="1" opacity="0.75" />
		</g>
		<g>
			<title>PF01855</title>
			<polygon class="PF01855" points="1430,18 1451,18 1453,20 1453,42 1451,44 1430,44" stroke-linejoin="round" width="23" height="26" fill="rgb(146,196,83)" stroke="rgb(116,156,66)" stroke-width="1" opacity="0.75" />
		</g>
		<g>
			<title>PF17147</title>
			<polygon class="PF17147" points="1456,23 1464,31 1456,39" stroke-linejoin="round" width="9" height="26" fill="rgb(179,47,158)" stroke="rgb(143,37,126)" stroke-width="1" opacity="0.75" />
		</g>
	</g>
	<g>
		<title>spr2</title>
		<polygon class="spr2" points="207,16 189,16 189,1 159,31 189,61 189,46 207,46" fill="rgb(251,233,212)" fill-opacity="1.0" stroke="rgb(100,93,84)" stroke-width="1" />
		<g>
			<title>PF07690</title>
			<polygon class="PF07690" points="167,25 174,18 198,18 198,44 174,44 167,36" stroke-linejoin="round" width="31" height="26" fill="rgb(193,224,74)" stroke="rgb(154,179,59)" stroke-width="1" opacity="0.75" />
		</g>
	</g>
	<g>
		<title>spr3</title>
		<polygon class="spr3" points="242,16 235,16 235,1 205,31 235,61 235,46 242,46" fill="rgb(206,204,251)" fill-opacity="1.0" stroke="rgb(82,81,100)" stroke-width="1" />
		<g>
			<title>PF00724</title>
			<polygon class="PF00724" points="207,31 220,18 240,18 240,44 220,44" stroke-linejoin="round" width="34" height="26" fill="rgb(157,188,65)" stroke="rgb(125,150,52)" stroke-width="1" opacity="0.75" />
		</g>
	</g>
	<g>
		<title>spr4</title>
		<polygon class="spr4" points="298,16 276,16 276,1 246,31 276,61 276,46 298,46" fill="rgb(252,242,206)" fill-opacity="1.0" stroke="rgb(100,96,82)" stroke-width="1" />
		<g>
			<title>PF07690</title>
			<polygon class="PF07690" points="257,22 261,18 278,18 278,44 261,44 257,39" stroke-linejoin="round" width="21" height="26" fill="rgb(193,224,74)" stroke="rgb(154,179,59)" stroke-width="1" opacity="0.75" />
		</g>
		<g>
			<title>PF07690</title>
			<rect class="PF07690" x="278" y="18" stroke-linejoin="round" width="18" height="26" fill="rgb(193,224,74)" stroke="rgb(154,179,59)" stroke-width="1" opacity="0.75" />
		</g>
	</g>
	<g>
		<title>spr5</title>
		<polygon class="spr5" points="320,16 320,16 320,1 300,31 320,61 320,46 320,46" fill="rgb(251,228,193)" fill-opacity="1.0" stroke="rgb(100,91,77)" stroke-width="1" />
		<g>
			<title>PF03358</title>
			<polygon class="PF03358" points="304,28 311,18 318,18 318,44 311,44 304,33" stroke-linejoin="round" width="14" height="26" fill="rgb(90,228,61)" stroke="rgb(72,182,48)" stroke-width="1" opacity="0.75" />
		</g>
	</g>
	<g>
		<title>sprR2</title>
		<polygon class="sprR2" points="324,16 324,16 324,1 348,31 324,61 324,46 324,46" fill="rgb(248,250,184)" fill-opacity="1.0" stroke="rgb(99,100,73)" stroke-width="1" />
		<g>
			<title>PF00440</title>
			<rect class="PF00440" x="327" y="18" stroke-linejoin="round" width="4" height="26" fill="rgb(73,212,190)" stroke="rgb(58,169,152)" stroke-width="1" opacity="0.75" />
		</g>
		<g>
			<title>PF02909</title>
			<polygon class="PF02909" points="333,18 335,18 345,31 335,44 333,44" stroke-linejoin="round" width="14" height="26" fill="rgb(151,203,75)" stroke="rgb(120,162,60)" stroke-width="1" opacity="0.75" />
		</g>
	</g>
	<g>
		<title>sprA</title>
		<polygon class="sprA" points="350,16 351,16 351,1 381,31 351,61 351,46 350,46" fill="rgb(253,229,182)" fill-opacity="1.0" stroke="rgb(101,91,72)" stroke-width="1" />
	</g>
	<g>
		<title>sprB</title>
		<polygon class="sprB" points="393,16 412,16 412,1 442,31 412,61 412,46 393,46" fill="rgb(211,250,229)" fill-opacity="1.0" stroke="rgb(84,100,91)" stroke-width="1" />
		<g>
			<title>PF01494</title>
			<rect class="PF01494" x="393" y="18" stroke-linejoin="round" width="33" height="26" fill="rgb(182,175,59)" stroke="rgb(145,140,47)" stroke-width="1" opacity="0.75" />
		</g>
	</g>
</svg>
