<svg version="1.1" baseProfile="full" xmlns="http://www.w3.org/2000/svg" width="1975" height="62">
	<line x1="1" y1="31" x2="1974" y2="31" style="stroke:rgb(50,50,50); stroke-width:3 "/>
	<g>
		<title>dutD</title>
		<polygon class="dutD" points="342,16 343,16 343,1 373,31 343,61 343,46 342,46" fill="rgb(252,232,209)" fill-opacity="1.0" stroke="rgb(100,92,83)" stroke-width="1" />
		<g>
			<title>PF10604</title>
			<rect class="PF10604" x="342" y="18" stroke-linejoin="round" width="13" height="26" fill="rgb(105,204,74)" stroke="rgb(84,163,59)" stroke-width="1" opacity="0.75" />
		</g>
	</g>
	<g>
		<title>dutL</title>
		<polygon class="dutL" points="373,16 392,16 392,1 422,31 392,61 392,46 373,46" fill="rgb(251,223,213)" fill-opacity="1.0" stroke="rgb(100,89,85)" stroke-width="1" />
		<g>
			<title>PF00501</title>
			<polygon class="PF00501" points="374,18 406,18 412,24 412,38 406,44 374,44" stroke-linejoin="round" width="38" height="26" fill="rgb(60,217,223)" stroke="rgb(48,173,178)" stroke-width="1" opacity="0.75" />
		</g>
		<g>
			<title>PF13193</title>
			<polygon class="PF13193" points="413,25 419,31 413,37" stroke-linejoin="round" width="7" height="26" fill="rgb(182,50,118)" stroke="rgb(145,39,94)" stroke-width="1" opacity="0.75" />
		</g>
	</g>
	<g>
		<title>dutO3</title>
		<polygon class="dutO3" points="423,16 423,16 423,1 432,31 423,61 423,46 423,46" fill="rgb(247,201,250)" fill-opacity="1.0" stroke="rgb(98,80,100)" stroke-width="1" />
		<g>
			<title>PF03992</title>
			<polygon class="PF03992" points="423,18 425,18 429,31 425,44 423,44" stroke-linejoin="round" width="7" height="26" fill="rgb(193,84,127)" stroke="rgb(154,67,101)" stroke-width="1" opacity="0.75" />
		</g>
	</g>
	<g>
		<title>dutE</title>
		<polygon class="dutE" points="450,16 450,16 450,1 435,31 450,61 450,46 450,46" fill="rgb(217,254,190)" fill-opacity="1.0" stroke="rgb(86,101,76)" stroke-width="1" />
		<g>
			<title>PF13577</title>
			<polygon class="PF13577" points="437,31 444,18 448,18 448,44 444,44" stroke-linejoin="round" width="12" height="26" fill="rgb(68,223,209)" stroke="rgb(54,178,167)" stroke-width="1" opacity="0.75" />
		</g>
	</g>
	<g>
		<title>dutMT2</title>
		<polygon class="dutMT2" points="489,16 484,16 484,1 454,31 484,61 484,46 489,46" fill="rgb(201,206,253)" fill-opacity="1.0" stroke="rgb(80,82,101)" stroke-width="1" />
		<g>
			<title>PF00891</title>
			<polygon class="PF00891" points="456,31 469,18 477,18 477,44 469,44" stroke-linejoin="round" width="23" height="26" fill="rgb(50,51,190)" stroke="rgb(39,40,152)" stroke-width="1" opacity="0.75" />
		</g>
	</g>
	<g>
		<title>dutF</title>
		<polygon class="dutF" points="515,16 515,16 515,1 489,31 515,61 515,46 515,46" fill="rgb(213,254,246)" fill-opacity="1.0" stroke="rgb(85,101,98)" stroke-width="1" />
		<g>
			<title>PF04199</title>
			<polygon class="PF04199" points="496,25 502,18 514,18 514,44 502,44 496,36" stroke-linejoin="round" width="18" height="26" fill="rgb(140,47,181)" stroke="rgb(112,37,144)" stroke-width="1" opacity="0.75" />
		</g>
	</g>
	<g>
		<title>dutO1</title>
		<polygon class="dutO1" points="555,16 545,16 545,1 515,31 545,61 545,46 555,46" fill="rgb(243,251,196)" fill-opacity="1.0" stroke="rgb(97,100,78)" stroke-width="1" />
		<g>
			<title>PF01494</title>
			<polygon class="PF01494" points="520,28 530,18 554,18 554,44 530,44 520,33" stroke-linejoin="round" width="34" height="26" fill="rgb(182,175,59)" stroke="rgb(145,140,47)" stroke-width="1" opacity="0.75" />
		</g>
	</g>
	<g>
		<title>dutI</title>
		<polygon class="dutI" points="582,16 582,16 582,1 556,31 582,61 582,46 582,46" fill="rgb(246,184,254)" fill-opacity="1.0" stroke="rgb(98,73,101)" stroke-width="1" />
		<g>
			<title>PF13561</title>
			<polygon class="PF13561" points="558,31 569,18 579,18 579,44 569,44" stroke-linejoin="round" width="23" height="26" fill="rgb(73,205,127)" stroke="rgb(58,164,101)" stroke-width="1" opacity="0.75" />
		</g>
	</g>
	<g>
		<title>dutMT1</title>
		<polygon class="dutMT1" points="592,16 595,16 595,1 625,31 595,61 595,46 592,46" fill="rgb(185,253,195)" fill-opacity="1.0" stroke="rgb(74,101,78)" stroke-width="1" />
		<g>
			<title>PF00891</title>
			<polygon class="PF00891" points="601,18 609,18 622,31 609,44 601,44" stroke-linejoin="round" width="22" height="26" fill="rgb(50,51,190)" stroke="rgb(39,40,152)" stroke-width="1" opacity="0.75" />
		</g>
	</g>
	<g>
		<title>dutK</title>
		<polygon class="dutK" points="658,16 658,16 658,1 631,31 658,61 658,46 658,46" fill="rgb(187,233,250)" fill-opacity="1.0" stroke="rgb(74,93,100)" stroke-width="1" />
		<g>
			<title>PF03704</title>
			<polygon class="PF03704" points="633,31 645,18 647,18 647,44 645,44" stroke-linejoin="round" width="14" height="26" fill="rgb(217,89,196)" stroke="rgb(173,71,156)" stroke-width="1" opacity="0.75" />
		</g>
		<g>
			<title>PF00486</title>
			<rect class="PF00486" x="648" y="18" stroke-linejoin="round" width="8" height="26" fill="rgb(204,153,57)" stroke="rgb(163,122,45)" stroke-width="1" opacity="0.75" />
		</g>
	</g>
	<g>
		<polygon class="NoName" points="28,16 28,16 28,1 15,31 28,61 28,46 28,46" fill="rgb(255,255,255)" fill-opacity="1.0" stroke="rgb(50,50,50)" stroke-width="1" />
		<g>
			<title>PF13577</title>
			<polygon class="PF13577" points="17,31 23,18 27,18 27,44 23,44" stroke-linejoin="round" width="12" height="26" fill="rgb(68,223,209)" stroke="rgb(54,178,167)" stroke-width="1" opacity="0.75" />
		</g>
	</g>
	<g>
		<title>dutS2</title>
		<polygon class="dutS2" points="697,16 695,16 695,1 665,31 695,61 695,46 697,46" fill="rgb(191,238,251)" fill-opacity="1.0" stroke="rgb(76,95,100)" stroke-width="1" />
		<g>
			<title>PF16363</title>
			<polygon class="PF16363" points="667,31 680,18 696,18 696,44 680,44" stroke-linejoin="round" width="29" height="26" fill="rgb(162,221,65)" stroke="rgb(129,176,51)" stroke-width="1" opacity="0.75" />
		</g>
	</g>
	<g>
		<title>dutS1</title>
		<polygon class="dutS1" points="732,16 727,16 727,1 697,31 727,61 727,46 732,46" fill="rgb(242,250,191)" fill-opacity="1.0" stroke="rgb(96,100,76)" stroke-width="1" />
		<g>
			<title>PF00483</title>
			<polygon class="PF00483" points="708,22 712,18 731,18 731,44 712,44 708,39" stroke-linejoin="round" width="23" height="26" fill="rgb(198,101,87)" stroke="rgb(158,80,69)" stroke-width="1" opacity="0.75" />
		</g>
	</g>
	<g>
		<title>dutP</title>
		<polygon class="dutP" points="780,16 763,16 763,1 733,31 763,61 763,46 780,46" fill="rgb(235,186,254)" fill-opacity="1.0" stroke="rgb(94,74,101)" stroke-width="1" />
		<g>
			<title>PF02785</title>
			<polygon class="PF02785" points="735,31 745,21 745,40" stroke-linejoin="round" width="10" height="26" fill="rgb(82,186,211)" stroke="rgb(65,148,168)" stroke-width="1" opacity="0.75" />
		</g>
		<g>
			<title>PF02786</title>
			<polygon class="PF02786" points="747,19 748,18 767,18 767,44 748,44 747,42" stroke-linejoin="round" width="20" height="26" fill="rgb(190,97,205)" stroke="rgb(151,77,164)" stroke-width="1" opacity="0.75" />
		</g>
		<g>
			<title>PF00289</title>
			<rect class="PF00289" x="769" y="18" stroke-linejoin="round" width="10" height="26" fill="rgb(59,114,187)" stroke="rgb(47,91,149)" stroke-width="1" opacity="0.75" />
		</g>
	</g>
	<g>
		<title>dutN</title>
		<polygon class="dutN" points="798,16 798,16 798,1 781,31 798,61 798,46 798,46" fill="rgb(250,198,182)" fill-opacity="1.0" stroke="rgb(100,79,72)" stroke-width="1" />
		<g>
			<title>PF00364</title>
			<polygon class="PF00364" points="783,31 788,22 788,39" stroke-linejoin="round" width="7" height="26" fill="rgb(67,214,213)" stroke="rgb(53,171,170)" stroke-width="1" opacity="0.75" />
		</g>
	</g>
	<g>
		<title>dutM</title>
		<polygon class="dutM" points="854,16 828,16 828,1 798,31 828,61 828,46 854,46" fill="rgb(218,207,250)" fill-opacity="1.0" stroke="rgb(87,82,100)" stroke-width="1" />
		<g>
			<title>PF01039</title>
			<polygon class="PF01039" points="804,27 813,18 850,18 850,44 813,44 804,34" stroke-linejoin="round" width="46" height="26" fill="rgb(180,136,60)" stroke="rgb(144,108,48)" stroke-width="1" opacity="0.75" />
		</g>
	</g>
	<g>
		<title>dutC</title>
		<polygon class="dutC" points="863,16 863,16 863,1 855,31 863,61 863,46 863,46" fill="rgb(252,184,239)" fill-opacity="1.0" stroke="rgb(100,73,95)" stroke-width="1" />
		<g>
			<title>PF00550</title>
			<polygon class="PF00550" points="857,31 860,18 862,18 862,44 860,44" stroke-linejoin="round" width="7" height="26" fill="rgb(103,191,88)" stroke="rgb(82,152,70)" stroke-width="1" opacity="0.75" />
		</g>
	</g>
	<g>
		<title>dutB</title>
		<polygon class="dutB" points="905,16 895,16 895,1 865,31 895,61 895,46 905,46" fill="rgb(253,181,235)" fill-opacity="1.0" stroke="rgb(101,72,94)" stroke-width="1" />
		<g>
			<title>PF02801</title>
			<polygon class="PF02801" points="869,29 880,18 880,43 869,32" stroke-linejoin="round" width="11" height="26" fill="rgb(215,78,102)" stroke="rgb(172,62,81)" stroke-width="1" opacity="0.75" />
		</g>
		<g>
			<title>PF00109</title>
			<rect class="PF00109" x="881" y="18" stroke-linejoin="round" width="24" height="26" fill="rgb(112,116,228)" stroke="rgb(89,92,182)" stroke-width="1" opacity="0.75" />
		</g>
	</g>
	<g>
		<title>dutA</title>
		<polygon class="dutA" points="946,16 935,16 935,1 905,31 935,61 935,46 946,46" fill="rgb(188,252,178)" fill-opacity="1.0" stroke="rgb(75,100,71)" stroke-width="1" />
		<g>
			<title>PF02801</title>
			<polygon class="PF02801" points="909,29 920,18 920,43 909,32" stroke-linejoin="round" width="11" height="26" fill="rgb(215,78,102)" stroke="rgb(172,62,81)" stroke-width="1" opacity="0.75" />
		</g>
		<g>
			<title>PF00109</title>
			<rect class="PF00109" x="922" y="18" stroke-linejoin="round" width="24" height="26" fill="rgb(112,116,228)" stroke="rgb(89,92,182)" stroke-width="1" opacity="0.75" />
		</g>
	</g>
	<g>
		<title>dutS3</title>
		<polygon class="dutS3" points="955,16 972,16 972,1 1002,31 972,61 972,46 955,46" fill="rgb(219,204,253)" fill-opacity="1.0" stroke="rgb(87,81,101)" stroke-width="1" />
		<g>
			<title>PF03559</title>
			<rect class="PF03559" x="958" y="18" stroke-linejoin="round" width="20" height="26" fill="rgb(74,201,66)" stroke="rgb(59,160,52)" stroke-width="1" opacity="0.75" />
		</g>
		<g>
			<title>PF03559</title>
			<polygon class="PF03559" points="981,18 986,18 999,31 986,44 981,44" stroke-linejoin="round" width="20" height="26" fill="rgb(74,201,66)" stroke="rgb(59,160,52)" stroke-width="1" opacity="0.75" />
		</g>
	</g>
	<g>
		<title>dutS4</title>
		<polygon class="dutS4" points="1002,16 1005,16 1005,1 1035,31 1005,61 1005,46 1002,46" fill="rgb(218,210,253)" fill-opacity="1.0" stroke="rgb(87,84,101)" stroke-width="1" />
		<g>
			<title>PF01408</title>
			<rect class="PF01408" x="1002" y="18" stroke-linejoin="round" width="11" height="26" fill="rgb(76,117,190)" stroke="rgb(60,93,152)" stroke-width="1" opacity="0.75" />
		</g>
	</g>
	<g>
		<polygon class="NoName" points="62,16 58,16 58,1 28,31 58,61 58,46 62,46" fill="rgb(255,255,255)" fill-opacity="1.0" stroke="rgb(50,50,50)" stroke-width="1" />
		<g>
			<title>PF13602</title>
			<polygon class="PF13602" points="30,31 40,21 40,40" stroke-linejoin="round" width="12" height="26" fill="rgb(101,131,226)" stroke="rgb(80,104,180)" stroke-width="1" opacity="0.75" />
		</g>
		<g>
			<title>PF08240</title>
			<rect class="PF08240" x="48" y="18" stroke-linejoin="round" width="9" height="26" fill="rgb(211,65,138)" stroke="rgb(168,51,110)" stroke-width="1" opacity="0.75" />
		</g>
	</g>
	<g>
		<title>dutQ</title>
		<polygon class="dutQ" points="1035,16 1035,16 1035,1 1055,31 1035,61 1035,46 1035,46" fill="rgb(225,252,211)" fill-opacity="1.0" stroke="rgb(90,100,84)" stroke-width="1" />
		<g>
			<title>PF01613</title>
			<polygon class="PF01613" points="1036,18 1043,18 1050,28 1050,34 1043,44 1036,44" stroke-linejoin="round" width="14" height="26" fill="rgb(107,197,222)" stroke="rgb(85,157,177)" stroke-width="1" opacity="0.75" />
		</g>
	</g>
	<g>
		<title>dutR</title>
		<polygon class="dutR" points="1053,16 1061,16 1061,1 1091,31 1061,61 1061,46 1053,46" fill="rgb(254,198,238)" fill-opacity="1.0" stroke="rgb(101,79,95)" stroke-width="1" />
		<g>
			<title>PF08028</title>
			<polygon class="PF08028" points="1077,20 1088,31 1077,42" stroke-linejoin="round" width="12" height="26" fill="rgb(106,185,56)" stroke="rgb(84,148,44)" stroke-width="1" opacity="0.75" />
		</g>
	</g>
	<g>
		<title>dutS5</title>
		<polygon class="dutS5" points="1137,16 1124,16 1124,1 1094,31 1124,61 1124,46 1137,46" fill="rgb(200,219,251)" fill-opacity="1.0" stroke="rgb(80,87,100)" stroke-width="1" />
		<g>
			<title>PF01041</title>
			<polygon class="PF01041" points="1096,31 1109,18 1132,18 1132,44 1109,44" stroke-linejoin="round" width="38" height="26" fill="rgb(59,139,191)" stroke="rgb(47,111,152)" stroke-width="1" opacity="0.75" />
		</g>
	</g>
	<g>
		<title>dutS6</title>
		<polygon class="dutS6" points="1168,16 1167,16 1167,1 1137,31 1167,61 1167,46 1168,46" fill="rgb(225,203,251)" fill-opacity="1.0" stroke="rgb(90,81,100)" stroke-width="1" />
		<g>
			<title>PF01370</title>
			<polygon class="PF01370" points="1145,25 1152,18 1167,18 1167,44 1152,44 1145,36" stroke-linejoin="round" width="22" height="26" fill="rgb(98,102,214)" stroke="rgb(78,81,171)" stroke-width="1" opacity="0.75" />
		</g>
	</g>
	<g>
		<title>dutGT1</title>
		<polygon class="dutGT1" points="1207,16 1198,16 1198,1 1168,31 1198,61 1198,46 1207,46" fill="rgb(179,237,253)" fill-opacity="1.0" stroke="rgb(71,94,101)" stroke-width="1" />
		<g>
			<title>PF06722</title>
			<polygon class="PF06722" points="1179,22 1183,18 1188,18 1188,44 1183,44 1179,39" stroke-linejoin="round" width="9" height="26" fill="rgb(200,129,88)" stroke="rgb(160,103,70)" stroke-width="1" opacity="0.75" />
		</g>
	</g>
	<g>
		<title>dutG</title>
		<polygon class="dutG" points="1426,16 1239,16 1239,1 1209,31 1239,61 1239,46 1426,46" fill="rgb(223,211,251)" fill-opacity="1.0" stroke="rgb(89,84,100)" stroke-width="1" />
		<g>
			<title>PF00550</title>
			<polygon class="PF00550" points="1211,31 1216,26 1216,35" stroke-linejoin="round" width="6" height="26" fill="rgb(103,191,88)" stroke="rgb(82,152,70)" stroke-width="1" opacity="0.75" />
		</g>
		<g>
			<title>PF08659</title>
			<rect class="PF08659" x="1228" y="18" stroke-linejoin="round" width="18" height="26" fill="rgb(66,209,188)" stroke="rgb(52,167,150)" stroke-width="1" opacity="0.75" />
		</g>
		<g>
			<title>PF13602</title>
			<rect class="PF13602" x="1250" y="18" stroke-linejoin="round" width="14" height="26" fill="rgb(101,131,226)" stroke="rgb(80,104,180)" stroke-width="1" opacity="0.75" />
		</g>
		<g>
			<title>PF14765</title>
			<rect class="PF14765" x="1306" y="18" stroke-linejoin="round" width="28" height="26" fill="rgb(173,56,182)" stroke="rgb(138,44,145)" stroke-width="1" opacity="0.75" />
		</g>
		<g>
			<title>PF00698</title>
			<rect class="PF00698" x="1339" y="18" stroke-linejoin="round" width="31" height="26" fill="rgb(59,176,209)" stroke="rgb(47,140,167)" stroke-width="1" opacity="0.75" />
		</g>
		<g>
			<title>PF16197</title>
			<rect class="PF16197" x="1375" y="18" stroke-linejoin="round" width="12" height="26" fill="rgb(68,179,89)" stroke="rgb(54,143,71)" stroke-width="1" opacity="0.75" />
		</g>
		<g>
			<title>PF02801</title>
			<rect class="PF02801" x="1388" y="18" stroke-linejoin="round" width="11" height="26" fill="rgb(215,78,102)" stroke="rgb(172,62,81)" stroke-width="1" opacity="0.75" />
		</g>
		<g>
			<title>PF00109</title>
			<rect class="PF00109" x="1400" y="18" stroke-linejoin="round" width="24" height="26" fill="rgb(112,116,228)" stroke="rgb(89,92,182)" stroke-width="1" opacity="0.75" />
		</g>
	</g>
	<g>
		<title>dutH</title>
		<polygon class="dutH" points="1463,16 1459,16 1459,1 1429,31 1459,61 1459,46 1463,46" fill="rgb(236,191,254)" fill-opacity="1.0" stroke="rgb(94,76,101)" stroke-width="1" />
		<g>
			<title>PF08541</title>
			<polygon class="PF08541" points="1431,31 1438,24 1438,37" stroke-linejoin="round" width="9" height="26" fill="rgb(146,207,81)" stroke="rgb(116,165,64)" stroke-width="1" opacity="0.75" />
		</g>
		<g>
			<title>PF08545</title>
			<rect class="PF08545" x="1445" y="18" stroke-linejoin="round" width="7" height="26" fill="rgb(189,102,84)" stroke="rgb(151,81,67)" stroke-width="1" opacity="0.75" />
		</g>
	</g>
	<g>
		<title>dutT</title>
		<polygon class="dutT" points="1470,16 1471,16 1471,1 1501,31 1471,61 1471,46 1470,46" fill="rgb(240,252,202)" fill-opacity="1.0" stroke="rgb(96,100,80)" stroke-width="1" />
		<g>
			<title>PF00005</title>
			<polygon class="PF00005" points="1472,18 1485,18 1486,19 1486,43 1485,44 1472,44" stroke-linejoin="round" width="14" height="26" fill="rgb(129,201,63)" stroke="rgb(103,160,50)" stroke-width="1" opacity="0.75" />
		</g>
		<g>
			<title>PF13732</title>
			<polygon class="PF13732" points="1491,24 1498,31 1491,38" stroke-linejoin="round" width="8" height="26" fill="rgb(100,223,143)" stroke="rgb(80,178,114)" stroke-width="1" opacity="0.75" />
		</g>
	</g>
	<g>
		<title>dutU</title>
		<polygon class="dutU" points="1501,16 1501,16 1501,1 1527,31 1501,61 1501,46 1501,46" fill="rgb(206,250,191)" fill-opacity="1.0" stroke="rgb(82,100,76)" stroke-width="1" />
		<g>
			<title>PF01061</title>
			<polygon class="PF01061" points="1503,18 1513,18 1524,31 1524,31 1513,44 1503,44" stroke-linejoin="round" width="21" height="26" fill="rgb(139,217,106)" stroke="rgb(111,173,84)" stroke-width="1" opacity="0.75" />
		</g>
	</g>
	<g>
		<title>dutGT2</title>
		<polygon class="dutGT2" points="1529,16 1537,16 1537,1 1567,31 1537,61 1537,46 1529,46" fill="rgb(254,222,185)" fill-opacity="1.0" stroke="rgb(101,88,74)" stroke-width="1" />
		<g>
			<title>PF06722</title>
			<polygon class="PF06722" points="1545,18 1551,18 1554,21 1554,41 1551,44 1545,44" stroke-linejoin="round" width="9" height="26" fill="rgb(200,129,88)" stroke="rgb(160,103,70)" stroke-width="1" opacity="0.75" />
		</g>
	</g>
	<g>
		<polygon class="NoName" points="63,16 64,16 64,1 94,31 64,61 64,46 63,46" fill="rgb(255,255,255)" fill-opacity="1.0" stroke="rgb(50,50,50)" stroke-width="1" />
		<g>
			<title>PF00126</title>
			<rect class="PF00126" x="66" y="18" stroke-linejoin="round" width="5" height="26" fill="rgb(125,227,79)" stroke="rgb(99,181,63)" stroke-width="1" opacity="0.75" />
		</g>
		<g>
			<title>PF03466</title>
			<polygon class="PF03466" points="74,18 78,18 91,31 78,44 74,44" stroke-linejoin="round" width="19" height="26" fill="rgb(55,136,195)" stroke="rgb(44,108,156)" stroke-width="1" opacity="0.75" />
		</g>
	</g>
	<g>
		<title>dutV</title>
		<polygon class="dutV" points="1674,16 1598,16 1598,1 1568,31 1598,61 1598,46 1674,46" fill="rgb(230,251,176)" fill-opacity="1.0" stroke="rgb(92,100,70)" stroke-width="1" />
		<g>
			<title>PF13401</title>
			<rect class="PF13401" x="1633" y="18" stroke-linejoin="round" width="13" height="26" fill="rgb(174,224,73)" stroke="rgb(139,179,58)" stroke-width="1" opacity="0.75" />
		</g>
		<g>
			<title>PF03704</title>
			<rect class="PF03704" x="1650" y="18" stroke-linejoin="round" width="14" height="26" fill="rgb(217,89,196)" stroke="rgb(173,71,156)" stroke-width="1" opacity="0.75" />
		</g>
		<g>
			<title>PF00486</title>
			<rect class="PF00486" x="1665" y="18" stroke-linejoin="round" width="6" height="26" fill="rgb(204,153,57)" stroke="rgb(163,122,45)" stroke-width="1" opacity="0.75" />
		</g>
	</g>
	<g>
		<title>dutS8</title>
		<polygon class="dutS8" points="1717,16 1706,16 1706,1 1676,31 1706,61 1706,46 1717,46" fill="rgb(212,249,230)" fill-opacity="1.0" stroke="rgb(84,99,92)" stroke-width="1" />
		<g>
			<title>PF08484</title>
			<polygon class="PF08484" points="1678,31 1691,18 1691,43" stroke-linejoin="round" width="15" height="26" fill="rgb(229,72,107)" stroke="rgb(183,57,85)" stroke-width="1" opacity="0.75" />
		</g>
		<g>
			<title>PF13489</title>
			<rect class="PF13489" x="1692" y="18" stroke-linejoin="round" width="16" height="26" fill="rgb(188,189,66)" stroke="rgb(150,151,52)" stroke-width="1" opacity="0.75" />
		</g>
		<g>
			<title>PF08421</title>
			<rect class="PF08421" x="1710" y="18" stroke-linejoin="round" width="6" height="26" fill="rgb(209,96,160)" stroke="rgb(167,76,128)" stroke-width="1" opacity="0.75" />
		</g>
	</g>
	<g>
		<title>dutW</title>
		<polygon class="dutW" points="1749,16 1747,16 1747,1 1717,31 1747,61 1747,46 1749,46" fill="rgb(196,217,251)" fill-opacity="1.0" stroke="rgb(78,86,100)" stroke-width="1" />
		<g>
			<title>PF00294</title>
			<polygon class="PF00294" points="1719,31 1732,18 1748,18 1748,44 1732,44" stroke-linejoin="round" width="29" height="26" fill="rgb(153,96,212)" stroke="rgb(122,76,169)" stroke-width="1" opacity="0.75" />
		</g>
	</g>
	<g>
		<title>dutX</title>
		<polygon class="dutX" points="1789,16 1781,16 1781,1 1751,31 1781,61 1781,46 1789,46" fill="rgb(249,253,204)" fill-opacity="1.0" stroke="rgb(99,101,81)" stroke-width="1" />
		<g>
			<title>PF02773</title>
			<polygon class="PF02773" points="1753,31 1765,19 1765,42" stroke-linejoin="round" width="13" height="26" fill="rgb(192,53,113)" stroke="rgb(153,42,90)" stroke-width="1" opacity="0.75" />
		</g>
		<g>
			<title>PF02772</title>
			<polygon class="PF02772" points="1766,18 1766,18 1778,18 1778,44 1766,44 1766,43" stroke-linejoin="round" width="12" height="26" fill="rgb(81,223,98)" stroke="rgb(64,178,78)" stroke-width="1" opacity="0.75" />
		</g>
		<g>
			<title>PF00438</title>
			<rect class="PF00438" x="1779" y="18" stroke-linejoin="round" width="9" height="26" fill="rgb(202,217,80)" stroke="rgb(161,173,64)" stroke-width="1" opacity="0.75" />
		</g>
	</g>
	<g>
		<polygon class="NoName" points="1846,16 1825,16 1825,1 1795,31 1825,61 1825,46 1846,46" fill="rgb(255,255,255)" fill-opacity="1.0" stroke="rgb(50,50,50)" stroke-width="1" />
		<g>
			<title>PF07731</title>
			<polygon class="PF07731" points="1797,31 1807,21 1807,40" stroke-linejoin="round" width="12" height="26" fill="rgb(183,55,192)" stroke="rgb(146,44,153)" stroke-width="1" opacity="0.75" />
		</g>
		<g>
			<title>PF07732</title>
			<rect class="PF07732" x="1826" y="18" stroke-linejoin="round" width="4" height="26" fill="rgb(80,81,179)" stroke="rgb(63,64,143)" stroke-width="1" opacity="0.75" />
		</g>
		<g>
			<title>PF07732</title>
			<rect class="PF07732" x="1831" y="18" stroke-linejoin="round" width="8" height="26" fill="rgb(80,81,179)" stroke="rgb(63,64,143)" stroke-width="1" opacity="0.75" />
		</g>
	</g>
	<g>
		<polygon class="NoName" points="1862,16 1862,16 1862,1 1847,31 1862,61 1862,46 1862,46" fill="rgb(255,255,255)" fill-opacity="1.0" stroke="rgb(50,50,50)" stroke-width="1" />
	</g>
	<g>
		<polygon class="NoName" points="1865,16 1866,16 1866,1 1896,31 1866,61 1866,46 1865,46" fill="rgb(255,255,255)" fill-opacity="1.0" stroke="rgb(50,50,50)" stroke-width="1" />
		<g>
			<title>PF12697</title>
			<polygon class="PF12697" points="1868,18 1880,18 1893,31 1880,44 1868,44" stroke-linejoin="round" width="26" height="26" fill="rgb(113,71,219)" stroke="rgb(90,56,175)" stroke-width="1" opacity="0.75" />
		</g>
	</g>
	<g>
		<polygon class="NoName" points="1896,16 1896,16 1896,1 1917,31 1896,61 1896,46 1896,46" fill="rgb(255,255,255)" fill-opacity="1.0" stroke="rgb(50,50,50)" stroke-width="1" />
		<g>
			<title>PF00440</title>
			<rect class="PF00440" x="1898" y="18" stroke-linejoin="round" width="4" height="26" fill="rgb(73,212,190)" stroke="rgb(58,169,152)" stroke-width="1" opacity="0.75" />
		</g>
		<g>
			<title>PF02909</title>
			<polygon class="PF02909" points="1904,18 1905,18 1914,31 1905,44 1904,44" stroke-linejoin="round" width="13" height="26" fill="rgb(151,203,75)" stroke="rgb(120,162,60)" stroke-width="1" opacity="0.75" />
		</g>
	</g>
	<g>
		<polygon class="NoName" points="1944,16 1944,16 1944,1 1920,31 1944,61 1944,46 1944,46" fill="rgb(255,255,255)" fill-opacity="1.0" stroke="rgb(50,50,50)" stroke-width="1" />
		<g>
			<title>PF09490</title>
			<polygon class="PF09490" points="1922,31 1932,18 1943,18 1943,44 1932,44" stroke-linejoin="round" width="21" height="26" fill="rgb(181,124,50)" stroke="rgb(144,99,40)" stroke-width="1" opacity="0.75" />
		</g>
	</g>
	<g>
		<polygon class="NoName" points="1953,16 1953,16 1953,1 1946,31 1953,61 1953,46 1953,46" fill="rgb(255,255,255)" fill-opacity="1.0" stroke="rgb(50,50,50)" stroke-width="1" />
		<g>
			<title>PF09489</title>
			<polygon class="PF09489" points="1948,31 1951,18 1951,43" stroke-linejoin="round" width="5" height="26" fill="rgb(84,178,152)" stroke="rgb(67,142,121)" stroke-width="1" opacity="0.75" />
		</g>
	</g>
	<g>
		<polygon class="NoName" points="141,16 132,16 132,1 102,31 132,61 132,46 141,46" fill="rgb(255,255,255)" fill-opacity="1.0" stroke="rgb(50,50,50)" stroke-width="1" />
		<g>
			<title>PF00441</title>
			<polygon class="PF00441" points="104,31 117,18 118,18 118,44 117,44" stroke-linejoin="round" width="15" height="26" fill="rgb(85,191,117)" stroke="rgb(68,152,93)" stroke-width="1" opacity="0.75" />
		</g>
		<g>
			<title>PF02770</title>
			<rect class="PF02770" x="120" y="18" stroke-linejoin="round" width="9" height="26" fill="rgb(225,186,97)" stroke="rgb(180,148,77)" stroke-width="1" opacity="0.75" />
		</g>
		<g>
			<title>PF02771</title>
			<rect class="PF02771" x="129" y="18" stroke-linejoin="round" width="11" height="26" fill="rgb(105,135,218)" stroke="rgb(84,108,174)" stroke-width="1" opacity="0.75" />
		</g>
	</g>
	<g>
		<title>dutS9</title>
		<polygon class="dutS9" points="177,16 176,16 176,1 146,31 176,61 176,46 177,46" fill="rgb(189,251,195)" fill-opacity="1.0" stroke="rgb(75,100,78)" stroke-width="1" />
		<g>
			<title>PF01370</title>
			<polygon class="PF01370" points="154,25 161,18 176,18 176,44 161,44 154,36" stroke-linejoin="round" width="22" height="26" fill="rgb(98,102,214)" stroke="rgb(78,81,171)" stroke-width="1" opacity="0.75" />
		</g>
	</g>
	<g>
		<title>dutS7</title>
		<polygon class="dutS7" points="197,16 197,16 197,1 177,31 197,61 197,46 197,46" fill="rgb(201,231,254)" fill-opacity="1.0" stroke="rgb(80,92,101)" stroke-width="1" />
		<g>
			<title>PF00908</title>
			<polygon class="PF00908" points="179,31 188,18 196,18 196,44 188,44" stroke-linejoin="round" width="17" height="26" fill="rgb(184,89,121)" stroke="rgb(147,71,96)" stroke-width="1" opacity="0.75" />
		</g>
	</g>
	<g>
		<title>dutO4</title>
		<polygon class="dutO4" points="248,16 228,16 228,1 198,31 228,61 228,46 248,46" fill="rgb(223,212,251)" fill-opacity="1.0" stroke="rgb(89,84,100)" stroke-width="1" />
		<g>
			<title>PF01494</title>
			<rect class="PF01494" x="214" y="18" stroke-linejoin="round" width="33" height="26" fill="rgb(182,175,59)" stroke="rgb(145,140,47)" stroke-width="1" opacity="0.75" />
		</g>
	</g>
	<g>
		<title>dutO2</title>
		<polygon class="dutO2" points="260,16 284,16 284,1 314,31 284,61 284,46 260,46" fill="rgb(253,250,207)" fill-opacity="1.0" stroke="rgb(101,100,82)" stroke-width="1" />
		<g>
			<title>PF01494</title>
			<rect class="PF01494" x="260" y="18" stroke-linejoin="round" width="33" height="26" fill="rgb(182,175,59)" stroke="rgb(145,140,47)" stroke-width="1" opacity="0.75" />
		</g>
	</g>
	<g>
		<title>dutJ</title>
		<polygon class="dutJ" points="314,16 314,16 314,1 339,31 314,61 314,46 314,46" fill="rgb(245,191,252)" fill-opacity="1.0" stroke="rgb(97,76,100)" stroke-width="1" />
		<g>
			<title>PF13561</title>
			<polygon class="PF13561" points="315,18 325,18 336,31 325,44 315,44" stroke-linejoin="round" width="23" height="26" fill="rgb(73,205,127)" stroke="rgb(58,164,101)" stroke-width="1" opacity="0.75" />
		</g>
	</g>
</svg>
