<svg version="1.1" baseProfile="full" xmlns="http://www.w3.org/2000/svg" width="215" height="62">
	<line x1="1" y1="31" x2="214" y2="31" style="stroke:rgb(50,50,50); stroke-width:3 "/>
	<g>
		<polygon class="NoName" points="1,16 2,16 2,1 32,31 2,61 2,46 1,46" fill="rgb(255,255,255)" fill-opacity="1.0" stroke="rgb(50,50,50)" stroke-width="1" />
		<g>
			<title>PF05368</title>
			<polygon class="PF05368" points="1,18 16,18 26,28 26,34 16,44 1,44" stroke-linejoin="round" width="25" height="26" fill="rgb(97,49,192)" stroke="rgb(77,39,153)" stroke-width="1" opacity="0.75" />
		</g>
	</g>
	<g>
		<polygon class="NoName" points="89,16 68,16 68,1 38,31 68,61 68,46 89,46" fill="rgb(255,255,255)" fill-opacity="1.0" stroke="rgb(50,50,50)" stroke-width="1" />
		<g>
			<title>PF07690</title>
			<polygon class="PF07690" points="45,26 53,18 78,18 78,44 53,44 45,35" stroke-linejoin="round" width="33" height="26" fill="rgb(193,224,74)" stroke="rgb(154,179,59)" stroke-width="1" opacity="0.75" />
		</g>
	</g>
	<g>
		<polygon class="NoName" points="147,16 139,16 139,1 109,31 139,61 139,46 147,46" fill="rgb(255,255,255)" fill-opacity="1.0" stroke="rgb(50,50,50)" stroke-width="1" />
		<g>
			<title>PF11807</title>
			<polygon class="PF11807" points="119,23 124,18 141,18 141,44 124,44 119,38" stroke-linejoin="round" width="22" height="26" fill="rgb(215,82,196)" stroke="rgb(172,65,156)" stroke-width="1" opacity="0.75" />
		</g>
	</g>
	<g>
		<polygon class="NoName" points="186,16 186,16 186,1 213,31 186,61 186,46 186,46" fill="rgb(255,255,255)" fill-opacity="1.0" stroke="rgb(50,50,50)" stroke-width="1" />
	</g>
</svg>
