<svg version="1.1" baseProfile="full" xmlns="http://www.w3.org/2000/svg" width="58" height="62">
	<line x1="1" y1="31" x2="57" y2="31" style="stroke:rgb(50,50,50); stroke-width:3 "/>
	<g>
		<title>queC</title>
		<polygon class="queC" points="1,16 1,16 1,1 24,31 1,61 1,46 1,46" fill="rgb(254,212,254)" fill-opacity="1.0" stroke="rgb(101,84,101)" stroke-width="1" />
		<g>
			<title>PF06508</title>
			<polygon class="PF06508" points="1,18 11,18 21,31 11,44 1,44" stroke-linejoin="round" width="21" height="26" fill="rgb(217,93,123)" stroke="rgb(173,74,98)" stroke-width="1" opacity="0.75" />
		</g>
	</g>
	<g>
		<title>queE</title>
		<polygon class="queE" points="24,16 24,16 24,1 45,31 24,61 24,46 24,46" fill="rgb(214,192,254)" fill-opacity="1.0" stroke="rgb(85,76,101)" stroke-width="1" />
		<g>
			<title>PF04055</title>
			<polygon class="PF04055" points="28,18 33,18 38,25 38,37 33,44 28,44" stroke-linejoin="round" width="10" height="26" fill="rgb(149,56,222)" stroke="rgb(119,44,177)" stroke-width="1" opacity="0.75" />
		</g>
	</g>
	<g>
		<title>queD</title>
		<polygon class="queD" points="45,16 45,16 45,1 56,31 45,61 45,46 45,46" fill="rgb(252,186,223)" fill-opacity="1.0" stroke="rgb(100,74,89)" stroke-width="1" />
		<g>
			<title>PF01242</title>
			<polygon class="PF01242" points="45,18 48,18 53,31 48,44 45,44" stroke-linejoin="round" width="11" height="26" fill="rgb(179,224,60)" stroke="rgb(143,179,48)" stroke-width="1" opacity="0.75" />
		</g>
	</g>
</svg>
