<svg version="1.1" baseProfile="full" xmlns="http://www.w3.org/2000/svg" width="428" height="62">
	<line x1="1" y1="31" x2="427" y2="31" style="stroke:rgb(50,50,50); stroke-width:3 "/>
	<g>
		<title>rumA2</title>
		<polygon class="rumA2" points="203,16 203,16 203,1 207,31 203,61 203,46 203,46" fill="rgb(200,253,198)" fill-opacity="1.0" stroke="rgb(80,101,79)" stroke-width="1" />
		<g>
			<title>PF04604</title>
			<polygon class="PF04604" points="203,17 204,31 203,45" stroke-linejoin="round" width="4" height="26" fill="rgb(206,129,75)" stroke="rgb(164,103,60)" stroke-width="1" opacity="0.75" />
		</g>
	</g>
	<g>
		<title>rumA3</title>
		<polygon class="rumA3" points="209,16 209,16 209,1 213,31 209,61 209,46 209,46" fill="rgb(212,221,254)" fill-opacity="1.0" stroke="rgb(84,88,101)" stroke-width="1" />
		<g>
			<title>PF04604</title>
			<polygon class="PF04604" points="209,17 210,31 209,45" stroke-linejoin="round" width="4" height="26" fill="rgb(206,129,75)" stroke="rgb(164,103,60)" stroke-width="1" opacity="0.75" />
		</g>
	</g>
	<g>
		<title>rumM</title>
		<polygon class="rumM" points="219,16 280,16 280,1 310,31 280,61 280,46 219,46" fill="rgb(201,237,252)" fill-opacity="1.0" stroke="rgb(80,94,100)" stroke-width="1" />
		<g>
			<title>PF13575</title>
			<rect class="PF13575" x="228" y="18" stroke-linejoin="round" width="36" height="26" fill="rgb(228,84,217)" stroke="rgb(182,67,173)" stroke-width="1" opacity="0.75" />
		</g>
		<g>
			<title>PF05147</title>
			<polygon class="PF05147" points="275,18 294,18 307,31 294,44 275,44" stroke-linejoin="round" width="34" height="26" fill="rgb(129,182,79)" stroke="rgb(103,145,63)" stroke-width="1" opacity="0.75" />
		</g>
	</g>
	<g>
		<title>rumT</title>
		<polygon class="rumT" points="311,16 349,16 349,1 379,31 349,61 349,46 311,46" fill="rgb(213,251,214)" fill-opacity="1.0" stroke="rgb(85,100,85)" stroke-width="1" />
		<g>
			<title>PF03412</title>
			<rect class="PF03412" x="311" y="18" stroke-linejoin="round" width="12" height="26" fill="rgb(214,226,77)" stroke="rgb(171,180,61)" stroke-width="1" opacity="0.75" />
		</g>
		<g>
			<title>PF00664</title>
			<rect class="PF00664" x="326" y="18" stroke-linejoin="round" width="26" height="26" fill="rgb(149,226,73)" stroke="rgb(119,180,58)" stroke-width="1" opacity="0.75" />
		</g>
		<g>
			<title>PF00005</title>
			<polygon class="PF00005" points="358,18 363,18 371,26 371,36 363,44 358,44" stroke-linejoin="round" width="13" height="26" fill="rgb(129,201,63)" stroke="rgb(103,160,50)" stroke-width="1" opacity="0.75" />
		</g>
	</g>
	<g>
		<polygon class="NoName" points="397,16 397,16 397,1 419,31 397,61 397,46 397,46" fill="rgb(255,255,255)" fill-opacity="1.0" stroke="rgb(50,50,50)" stroke-width="1" />
	</g>
	<g>
		<polygon class="NoName" points="1,16 1,16 1,1 10,31 1,61 1,46 1,46" fill="rgb(255,255,255)" fill-opacity="1.0" stroke="rgb(50,50,50)" stroke-width="1" />
		<g>
			<title>PF04203</title>
			<polygon class="PF04203" points="1,18 3,18 7,31 3,44 1,44" stroke-linejoin="round" width="9" height="26" fill="rgb(213,184,62)" stroke="rgb(170,147,49)" stroke-width="1" opacity="0.75" />
		</g>
	</g>
	<g>
		<title>rumR2</title>
		<polygon class="rumR2" points="30,16 30,16 30,1 19,31 30,61 30,46 30,46" fill="rgb(225,182,250)" fill-opacity="1.0" stroke="rgb(90,72,100)" stroke-width="1" />
		<g>
			<title>PF00072</title>
			<polygon class="PF00072" points="21,31 26,18 29,18 29,44 26,44" stroke-linejoin="round" width="10" height="26" fill="rgb(100,107,203)" stroke="rgb(80,85,162)" stroke-width="1" opacity="0.75" />
		</g>
	</g>
	<g>
		<title>rumH</title>
		<polygon class="rumH" points="41,16 41,16 41,1 32,31 41,61 41,46 41,46" fill="rgb(214,209,253)" fill-opacity="1.0" stroke="rgb(85,83,101)" stroke-width="1" />
	</g>
	<g>
		<title>rumG</title>
		<polygon class="rumG" points="68,16 68,16 68,1 43,31 68,61 68,46 68,46" fill="rgb(189,251,231)" fill-opacity="1.0" stroke="rgb(75,100,92)" stroke-width="1" />
		<g>
			<title>PF12730</title>
			<polygon class="PF12730" points="49,26 56,18 67,18 67,44 56,44 49,35" stroke-linejoin="round" width="18" height="26" fill="rgb(203,161,59)" stroke="rgb(162,128,47)" stroke-width="1" opacity="0.75" />
		</g>
	</g>
	<g>
		<title>rumE</title>
		<polygon class="rumE" points="92,16 92,16 92,1 70,31 92,61 92,46 92,46" fill="rgb(213,254,205)" fill-opacity="1.0" stroke="rgb(85,101,82)" stroke-width="1" />
		<g>
			<title>PF12730</title>
			<polygon class="PF12730" points="74,28 82,18 91,18 91,44 82,44 74,33" stroke-linejoin="round" width="17" height="26" fill="rgb(203,161,59)" stroke="rgb(162,128,47)" stroke-width="1" opacity="0.75" />
		</g>
	</g>
	<g>
		<title>rumF</title>
		<polygon class="rumF" points="118,16 118,16 118,1 93,31 118,61 118,46 118,46" fill="rgb(245,207,252)" fill-opacity="1.0" stroke="rgb(98,82,100)" stroke-width="1" />
		<g>
			<title>PF00005</title>
			<polygon class="PF00005" points="102,23 106,18 116,18 116,44 106,44 102,38" stroke-linejoin="round" width="14" height="26" fill="rgb(129,201,63)" stroke="rgb(103,160,50)" stroke-width="1" opacity="0.75" />
		</g>
	</g>
	<g>
		<title>rumR</title>
		<polygon class="rumR" points="123,16 123,16 123,1 146,31 123,61 123,46 123,46" fill="rgb(254,189,196)" fill-opacity="1.0" stroke="rgb(101,75,78)" stroke-width="1" />
		<g>
			<title>PF00072</title>
			<polygon class="PF00072" points="124,18 133,18 134,19 134,43 133,44 124,44" stroke-linejoin="round" width="10" height="26" fill="rgb(100,107,203)" stroke="rgb(80,85,162)" stroke-width="1" opacity="0.75" />
		</g>
		<g>
			<title>PF00486</title>
			<polygon class="PF00486" points="138,24 143,31 138,38" stroke-linejoin="round" width="7" height="26" fill="rgb(204,153,57)" stroke="rgb(163,122,45)" stroke-width="1" opacity="0.75" />
		</g>
	</g>
	<g>
		<title>rumK</title>
		<polygon class="rumK" points="146,16 162,16 162,1 192,31 162,61 162,46 146,46" fill="rgb(210,218,250)" fill-opacity="1.0" stroke="rgb(84,87,100)" stroke-width="1" />
		<g>
			<title>PF00512</title>
			<rect class="PF00512" x="168" y="18" stroke-linejoin="round" width="6" height="26" fill="rgb(193,125,62)" stroke="rgb(154,100,49)" stroke-width="1" opacity="0.75" />
		</g>
		<g>
			<title>PF02518</title>
			<polygon class="PF02518" points="180,22 189,31 180,40" stroke-linejoin="round" width="11" height="26" fill="rgb(80,94,225)" stroke="rgb(64,75,180)" stroke-width="1" opacity="0.75" />
		</g>
	</g>
	<g>
		<title>rumA1</title>
		<polygon class="rumA1" points="198,16 198,16 198,1 202,31 198,61 198,46 198,46" fill="rgb(253,207,237)" fill-opacity="1.0" stroke="rgb(101,82,94)" stroke-width="1" />
		<g>
			<title>PF04604</title>
			<polygon class="PF04604" points="198,17 199,31 198,45" stroke-linejoin="round" width="4" height="26" fill="rgb(206,129,75)" stroke="rgb(164,103,60)" stroke-width="1" opacity="0.75" />
		</g>
	</g>
</svg>
