<svg version="1.1" baseProfile="full" xmlns="http://www.w3.org/2000/svg" width="423" height="62">
	<line x1="1" y1="31" x2="422" y2="31" style="stroke:rgb(50,50,50); stroke-width:3 "/>
	<g>
		<title>snoN</title>
		<polygon class="snoN" points="421,16 421,16 421,1 411,31 421,61 421,46 421,46" fill="rgb(251,239,195)" fill-opacity="1.0" stroke="rgb(100,95,78)" stroke-width="1" />
		<g>
			<title>PF05721</title>
			<polygon class="PF05721" points="417,19 417,18 420,18 420,44 417,44 417,42" stroke-linejoin="round" width="3" height="26" fill="rgb(72,132,214)" stroke="rgb(57,105,171)" stroke-width="1" opacity="0.75" />
		</g>
	</g>
	<g>
		<polygon class="NoName" points="13,16 13,16 13,1 1,31 13,61 13,46 13,46" fill="rgb(255,255,255)" fill-opacity="1.0" stroke="rgb(50,50,50)" stroke-width="1" />
		<g>
			<title>PF12833</title>
			<polygon class="PF12833" points="3,31 7,21 7,40" stroke-linejoin="round" width="6" height="26" fill="rgb(216,58,224)" stroke="rgb(172,46,179)" stroke-width="1" opacity="0.75" />
		</g>
		<g>
			<title>PF02805</title>
			<rect class="PF02805" x="11" y="18" stroke-linejoin="round" width="2" height="26" fill="rgb(176,85,197)" stroke="rgb(140,68,157)" stroke-width="1" opacity="0.75" />
		</g>
	</g>
	<g>
		<polygon class="NoName" points="49,16 49,16 49,1 21,31 49,61 49,46 49,46" fill="rgb(255,255,255)" fill-opacity="1.0" stroke="rgb(50,50,50)" stroke-width="1" />
		<g>
			<title>PF02219</title>
			<polygon class="PF02219" points="23,31 35,18 47,18 47,44 35,44" stroke-linejoin="round" width="25" height="26" fill="rgb(209,76,219)" stroke="rgb(167,60,175)" stroke-width="1" opacity="0.75" />
		</g>
	</g>
	<g>
		<polygon class="NoName" points="95,16 95,16 95,1 119,31 95,61 95,46 95,46" fill="rgb(255,255,255)" fill-opacity="1.0" stroke="rgb(50,50,50)" stroke-width="1" />
		<g>
			<title>PF06314</title>
			<polygon class="PF06314" points="95,18 106,18 116,31 106,44 95,44" stroke-linejoin="round" width="23" height="26" fill="rgb(80,180,156)" stroke="rgb(64,144,124)" stroke-width="1" opacity="0.75" />
		</g>
	</g>
	<g>
		<polygon class="NoName" points="148,16 148,16 148,1 130,31 148,61 148,46 148,46" fill="rgb(255,255,255)" fill-opacity="1.0" stroke="rgb(50,50,50)" stroke-width="1" />
		<g>
			<title>PF01661</title>
			<polygon class="PF01661" points="134,28 140,18 145,18 145,44 140,44 134,33" stroke-linejoin="round" width="11" height="26" fill="rgb(65,211,62)" stroke="rgb(51,168,49)" stroke-width="1" opacity="0.75" />
		</g>
	</g>
	<g>
		<polygon class="NoName" points="196,16 179,16 179,1 149,31 179,61 179,46 196,46" fill="rgb(255,255,255)" fill-opacity="1.0" stroke="rgb(50,50,50)" stroke-width="1" />
		<g>
			<title>PF13450</title>
			<rect class="PF13450" x="188" y="18" stroke-linejoin="round" width="6" height="26" fill="rgb(91,180,227)" stroke="rgb(72,144,181)" stroke-width="1" opacity="0.75" />
		</g>
	</g>
	<g>
		<polygon class="NoName" points="228,16 228,16 228,1 200,31 228,61 228,46 228,46" fill="rgb(255,255,255)" fill-opacity="1.0" stroke="rgb(50,50,50)" stroke-width="1" />
		<g>
			<title>PF00459</title>
			<polygon class="PF00459" points="202,31 214,18 226,18 226,44 214,44" stroke-linejoin="round" width="26" height="26" fill="rgb(67,210,137)" stroke="rgb(53,168,109)" stroke-width="1" opacity="0.75" />
		</g>
	</g>
	<g>
		<polygon class="NoName" points="299,16 267,16 267,1 237,31 267,61 267,46 299,46" fill="rgb(255,255,255)" fill-opacity="1.0" stroke="rgb(50,50,50)" stroke-width="1" />
		<g>
			<title>PF01019</title>
			<polygon class="PF01019" points="239,31 252,18 295,18 295,44 252,44" stroke-linejoin="round" width="58" height="26" fill="rgb(117,205,100)" stroke="rgb(93,164,80)" stroke-width="1" opacity="0.75" />
		</g>
	</g>
	<g>
		<title>snogM</title>
		<polygon class="snogM" points="310,16 310,16 310,1 337,31 310,61 310,46 310,46" fill="rgb(198,253,200)" fill-opacity="1.0" stroke="rgb(79,101,80)" stroke-width="1" />
		<g>
			<title>PF08241</title>
			<polygon class="PF08241" points="316,18 322,18 325,21 325,41 322,44 316,44" stroke-linejoin="round" width="9" height="26" fill="rgb(106,219,159)" stroke="rgb(84,175,127)" stroke-width="1" opacity="0.75" />
		</g>
	</g>
	<g>
		<title>snogL</title>
		<polygon class="snogL" points="341,16 341,16 341,1 368,31 341,61 341,46 341,46" fill="rgb(238,253,203)" fill-opacity="1.0" stroke="rgb(95,101,81)" stroke-width="1" />
		<g>
			<title>PF05711</title>
			<polygon class="PF05711" points="341,18 353,18 365,31 353,44 341,44" stroke-linejoin="round" width="26" height="26" fill="rgb(175,228,98)" stroke="rgb(139,182,78)" stroke-width="1" opacity="0.75" />
		</g>
	</g>
</svg>
