<svg version="1.1" baseProfile="full" xmlns="http://www.w3.org/2000/svg" width="802" height="62">
	<line x1="1" y1="31" x2="801" y2="31" style="stroke:rgb(50,50,50); stroke-width:3 "/>
	<g>
		<polygon class="NoName" points="383,16 383,16 383,1 409,31 383,61 383,46 383,46" fill="rgb(255,255,255)" fill-opacity="1.0" stroke="rgb(50,50,50)" stroke-width="1" />
		<g>
			<title>PF13614</title>
			<polygon class="PF13614" points="383,18 395,18 401,25 401,37 395,44 383,44" stroke-linejoin="round" width="18" height="26" fill="rgb(144,187,62)" stroke="rgb(115,149,49)" stroke-width="1" opacity="0.75" />
		</g>
	</g>
	<g>
		<polygon class="NoName" points="409,16 409,16 409,1 415,31 409,61 409,46 409,46" fill="rgb(255,255,255)" fill-opacity="1.0" stroke="rgb(50,50,50)" stroke-width="1" />
	</g>
	<g>
		<polygon class="NoName" points="420,16 420,16 420,1 427,31 420,61 420,46 420,46" fill="rgb(255,255,255)" fill-opacity="1.0" stroke="rgb(50,50,50)" stroke-width="1" />
	</g>
	<g>
		<title>tclE</title>
		<polygon class="tclE" points="440,16 440,16 440,1 445,31 440,61 440,46 440,46" fill="rgb(245,197,253)" fill-opacity="1.0" stroke="rgb(98,78,101)" stroke-width="1" />
	</g>
	<g>
		<title>tclS</title>
		<polygon class="tclS" points="469,16 469,16 469,1 447,31 469,61 469,46 469,46" fill="rgb(220,250,178)" fill-opacity="1.0" stroke="rgb(88,100,71)" stroke-width="1" />
		<g>
			<title>PF00106</title>
			<polygon class="PF00106" points="450,30 459,18 469,18 469,44 459,44 450,31" stroke-linejoin="round" width="19" height="26" fill="rgb(182,219,73)" stroke="rgb(145,175,58)" stroke-width="1" opacity="0.75" />
		</g>
	</g>
	<g>
		<polygon class="NoName" points="485,16 485,16 485,1 469,31 485,61 485,46 485,46" fill="rgb(255,255,255)" fill-opacity="1.0" stroke="rgb(50,50,50)" stroke-width="1" />
	</g>
	<g>
		<title>tclQ</title>
		<polygon class="tclQ" points="500,16 500,16 500,1 486,31 500,61 500,46 500,46" fill="rgb(211,185,251)" fill-opacity="1.0" stroke="rgb(84,74,100)" stroke-width="1" />
		<g>
			<title>PF00298</title>
			<polygon class="PF00298" points="488,31 492,22 492,39" stroke-linejoin="round" width="6" height="26" fill="rgb(227,212,100)" stroke="rgb(181,169,80)" stroke-width="1" opacity="0.75" />
		</g>
		<g>
			<title>PF03946</title>
			<polygon class="PF03946" points="493,20 494,18 498,18 498,44 494,44 493,41" stroke-linejoin="round" width="5" height="26" fill="rgb(46,118,184)" stroke="rgb(36,94,147)" stroke-width="1" opacity="0.75" />
		</g>
	</g>
	<g>
		<title>tclI</title>
		<polygon class="tclI" points="504,16 504,16 504,1 528,31 504,61 504,46 504,46" fill="rgb(225,254,199)" fill-opacity="1.0" stroke="rgb(90,101,79)" stroke-width="1" />
	</g>
	<g>
		<title>tclJ</title>
		<polygon class="tclJ" points="528,16 554,16 554,1 584,31 554,61 554,46 528,46" fill="rgb(205,253,201)" fill-opacity="1.0" stroke="rgb(82,101,80)" stroke-width="1" />
		<g>
			<title>PF02624</title>
			<polygon class="PF02624" points="546,18 568,18 580,30 580,32 568,44 546,44" stroke-linejoin="round" width="34" height="26" fill="rgb(76,84,185)" stroke="rgb(60,67,148)" stroke-width="1" opacity="0.75" />
		</g>
	</g>
	<g>
		<title>tclK</title>
		<polygon class="tclK" points="585,16 639,16 639,1 669,31 639,61 639,46 585,46" fill="rgb(252,242,183)" fill-opacity="1.0" stroke="rgb(100,96,73)" stroke-width="1" />
	</g>
	<g>
		<polygon class="NoName" points="4,16 4,16 4,1 22,31 4,61 4,46 4,46" fill="rgb(255,255,255)" fill-opacity="1.0" stroke="rgb(50,50,50)" stroke-width="1" />
		<g>
			<title>PF00589</title>
			<polygon class="PF00589" points="4,18 11,18 19,31 11,44 4,44" stroke-linejoin="round" width="16" height="26" fill="rgb(91,96,195)" stroke="rgb(72,76,156)" stroke-width="1" opacity="0.75" />
		</g>
	</g>
	<g>
		<title>tclL</title>
		<polygon class="tclL" points="669,16 669,16 669,1 695,31 669,61 669,46 669,46" fill="rgb(206,254,248)" fill-opacity="1.0" stroke="rgb(82,101,99)" stroke-width="1" />
		<g>
			<title>PF14028</title>
			<polygon class="PF14028" points="669,18 681,18 691,30 691,32 681,44 669,44" stroke-linejoin="round" width="22" height="26" fill="rgb(107,223,113)" stroke="rgb(85,178,90)" stroke-width="1" opacity="0.75" />
		</g>
	</g>
	<g>
		<title>tclM</title>
		<polygon class="tclM" points="695,16 695,16 695,1 721,31 695,61 695,46 695,46" fill="rgb(215,199,254)" fill-opacity="1.0" stroke="rgb(86,79,101)" stroke-width="1" />
	</g>
	<g>
		<title>tclN</title>
		<polygon class="tclN" points="722,16 736,16 736,1 766,31 736,61 736,46 722,46" fill="rgb(240,183,254)" fill-opacity="1.0" stroke="rgb(96,73,101)" stroke-width="1" />
	</g>
	<g>
		<title>tclP</title>
		<polygon class="tclP" points="766,16 766,16 766,1 789,31 766,61 766,46 766,46" fill="rgb(185,184,252)" fill-opacity="1.0" stroke="rgb(74,73,100)" stroke-width="1" />
		<g>
			<title>PF13561</title>
			<polygon class="PF13561" points="768,18 776,18 786,31 776,44 768,44" stroke-linejoin="round" width="20" height="26" fill="rgb(73,205,127)" stroke="rgb(58,164,101)" stroke-width="1" opacity="0.75" />
		</g>
	</g>
	<g>
		<title>tclU</title>
		<polygon class="tclU" points="789,16 789,16 789,1 800,31 789,61 789,46 789,46" fill="rgb(189,215,252)" fill-opacity="1.0" stroke="rgb(75,86,100)" stroke-width="1" />
		<g>
			<title>PF13411</title>
			<polygon class="PF13411" points="789,18 792,18 795,24 795,38 792,44 789,44" stroke-linejoin="round" width="6" height="26" fill="rgb(100,202,107)" stroke="rgb(80,161,85)" stroke-width="1" opacity="0.75" />
		</g>
	</g>
	<g>
		<polygon class="NoName" points="53,16 53,16 53,1 24,31 53,61 53,46 53,46" fill="rgb(255,255,255)" fill-opacity="1.0" stroke="rgb(50,50,50)" stroke-width="1" />
	</g>
	<g>
		<polygon class="NoName" points="66,16 77,16 77,1 107,31 77,61 77,46 66,46" fill="rgb(255,255,255)" fill-opacity="1.0" stroke="rgb(50,50,50)" stroke-width="1" />
		<g>
			<title>PF13518</title>
			<rect class="PF13518" x="67" y="18" stroke-linejoin="round" width="4" height="26" fill="rgb(61,197,72)" stroke="rgb(48,157,57)" stroke-width="1" opacity="0.75" />
		</g>
		<g>
			<title>PF00665</title>
			<rect class="PF00665" x="78" y="18" stroke-linejoin="round" width="13" height="26" fill="rgb(93,64,200)" stroke="rgb(74,51,160)" stroke-width="1" opacity="0.75" />
		</g>
	</g>
	<g>
		<polygon class="NoName" points="109,16 109,16 109,1 134,31 109,61 109,46 109,46" fill="rgb(255,255,255)" fill-opacity="1.0" stroke="rgb(50,50,50)" stroke-width="1" />
		<g>
			<title>PF01695</title>
			<polygon class="PF01695" points="114,18 120,18 131,31 131,31 120,44 114,44" stroke-linejoin="round" width="17" height="26" fill="rgb(205,68,192)" stroke="rgb(164,54,153)" stroke-width="1" opacity="0.75" />
		</g>
	</g>
	<g>
		<polygon class="NoName" points="139,16 139,16 139,1 158,31 139,61 139,46 139,46" fill="rgb(255,255,255)" fill-opacity="1.0" stroke="rgb(50,50,50)" stroke-width="1" />
		<g>
			<title>PF00665</title>
			<polygon class="PF00665" points="142,18 147,18 153,27 153,35 147,44 142,44" stroke-linejoin="round" width="11" height="26" fill="rgb(93,64,200)" stroke="rgb(74,51,160)" stroke-width="1" opacity="0.75" />
		</g>
	</g>
	<g>
		<polygon class="NoName" points="169,16 169,16 169,1 181,31 169,61 169,46 169,46" fill="rgb(255,255,255)" fill-opacity="1.0" stroke="rgb(50,50,50)" stroke-width="1" />
	</g>
	<g>
		<polygon class="NoName" points="249,16 249,16 249,1 255,31 249,61 249,46 249,46" fill="rgb(255,255,255)" fill-opacity="1.0" stroke="rgb(50,50,50)" stroke-width="1" />
	</g>
	<g>
		<polygon class="NoName" points="255,16 255,16 255,1 275,31 255,61 255,46 255,46" fill="rgb(255,255,255)" fill-opacity="1.0" stroke="rgb(50,50,50)" stroke-width="1" />
	</g>
	<g>
		<polygon class="NoName" points="367,16 347,16 347,1 317,31 347,61 347,46 367,46" fill="rgb(255,255,255)" fill-opacity="1.0" stroke="rgb(50,50,50)" stroke-width="1" />
		<g>
			<title>PF08708</title>
			<rect class="PF08708" x="334" y="18" stroke-linejoin="round" width="6" height="26" fill="rgb(74,114,216)" stroke="rgb(59,91,172)" stroke-width="1" opacity="0.75" />
		</g>
	</g>
</svg>
