<svg version="1.1" baseProfile="full" xmlns="http://www.w3.org/2000/svg" width="507" height="62">
	<line x1="1" y1="31" x2="506" y2="31" style="stroke:rgb(50,50,50); stroke-width:3 "/>
	<g>
		<title>aknE2</title>
		<polygon class="aknE2" points="278,16 284,16 284,1 314,31 284,61 284,46 278,46" fill="rgb(191,254,232)" fill-opacity="1.0" stroke="rgb(76,101,92)" stroke-width="1" />
		<g>
			<title>PF08541</title>
			<polygon class="PF08541" points="304,24 311,31 304,38" stroke-linejoin="round" width="9" height="26" fill="rgb(146,207,81)" stroke="rgb(116,165,64)" stroke-width="1" opacity="0.75" />
		</g>
	</g>
	<g>
		<title>aknF</title>
		<polygon class="aknF" points="314,16 318,16 318,1 348,31 318,61 318,46 314,46" fill="rgb(251,193,235)" fill-opacity="1.0" stroke="rgb(100,77,94)" stroke-width="1" />
		<g>
			<title>PF00698</title>
			<polygon class="PF00698" points="315,18 332,18 345,31 332,44 315,44" stroke-linejoin="round" width="31" height="26" fill="rgb(59,176,209)" stroke="rgb(47,140,167)" stroke-width="1" opacity="0.75" />
		</g>
	</g>
	<g>
		<title>aknG</title>
		<polygon class="aknG" points="379,16 379,16 379,1 351,31 379,61 379,46 379,46" fill="rgb(226,250,180)" fill-opacity="1.0" stroke="rgb(90,100,72)" stroke-width="1" />
		<g>
			<title>PF13649</title>
			<polygon class="PF13649" points="365,18 365,18 374,18 374,44 365,44 365,43" stroke-linejoin="round" width="9" height="26" fill="rgb(227,135,74)" stroke="rgb(181,108,59)" stroke-width="1" opacity="0.75" />
		</g>
	</g>
	<g>
		<title>aknH</title>
		<polygon class="aknH" points="386,16 386,16 386,1 400,31 386,61 386,46 386,46" fill="rgb(250,198,212)" fill-opacity="1.0" stroke="rgb(100,79,84)" stroke-width="1" />
		<g>
			<title>PF07366</title>
			<polygon class="PF07366" points="386,18 391,18 397,31 391,44 386,44" stroke-linejoin="round" width="12" height="26" fill="rgb(206,89,111)" stroke="rgb(164,71,88)" stroke-width="1" opacity="0.75" />
		</g>
	</g>
	<g>
		<title>aknI</title>
		<polygon class="aknI" points="402,16 402,16 402,1 430,31 402,61 402,46 402,46" fill="rgb(253,193,191)" fill-opacity="1.0" stroke="rgb(101,77,76)" stroke-width="1" />
		<g>
			<title>PF00486</title>
			<rect class="PF00486" x="403" y="18" stroke-linejoin="round" width="8" height="26" fill="rgb(204,153,57)" stroke="rgb(163,122,45)" stroke-width="1" opacity="0.75" />
		</g>
		<g>
			<title>PF03704</title>
			<polygon class="PF03704" points="412,18 415,18 426,30 426,32 415,44 412,44" stroke-linejoin="round" width="14" height="26" fill="rgb(217,89,196)" stroke="rgb(173,71,156)" stroke-width="1" opacity="0.75" />
		</g>
	</g>
	<g>
		<title>aknOx</title>
		<polygon class="aknOx" points="451,16 475,16 475,1 505,31 475,61 475,46 451,46" fill="rgb(225,253,207)" fill-opacity="1.0" stroke="rgb(90,101,82)" stroke-width="1" />
		<g>
			<title>PF01565</title>
			<rect class="PF01565" x="459" y="18" stroke-linejoin="round" width="13" height="26" fill="rgb(226,88,136)" stroke="rgb(180,70,108)" stroke-width="1" opacity="0.75" />
		</g>
		<g>
			<title>PF08031</title>
			<polygon class="PF08031" points="499,28 502,31 499,34" stroke-linejoin="round" width="5" height="26" fill="rgb(210,73,83)" stroke="rgb(168,58,66)" stroke-width="1" opacity="0.75" />
		</g>
	</g>
	<g>
		<title>aknM</title>
		<polygon class="aknM" points="21,16 21,16 21,1 1,31 21,61 21,46 21,46" fill="rgb(212,253,234)" fill-opacity="1.0" stroke="rgb(84,101,93)" stroke-width="1" />
		<g>
			<title>PF01370</title>
			<polygon class="PF01370" points="3,31 12,18 20,18 20,44 12,44" stroke-linejoin="round" width="20" height="26" fill="rgb(98,102,214)" stroke="rgb(78,81,171)" stroke-width="1" opacity="0.75" />
		</g>
	</g>
	<g>
		<title>aknL</title>
		<polygon class="aknL" points="42,16 42,16 42,1 22,31 42,61 42,46 42,46" fill="rgb(209,254,229)" fill-opacity="1.0" stroke="rgb(83,101,91)" stroke-width="1" />
		<g>
			<title>PF00908</title>
			<polygon class="PF00908" points="24,31 33,18 41,18 41,44 33,44" stroke-linejoin="round" width="17" height="26" fill="rgb(184,89,121)" stroke="rgb(147,71,96)" stroke-width="1" opacity="0.75" />
		</g>
	</g>
	<g>
		<title>aknK</title>
		<polygon class="aknK" points="87,16 73,16 73,1 43,31 73,61 73,46 87,46" fill="rgb(253,196,233)" fill-opacity="1.0" stroke="rgb(101,78,93)" stroke-width="1" />
		<g>
			<title>PF06722</title>
			<polygon class="PF06722" points="56,20 58,18 65,18 65,44 58,44 56,41" stroke-linejoin="round" width="9" height="26" fill="rgb(200,129,88)" stroke="rgb(160,103,70)" stroke-width="1" opacity="0.75" />
		</g>
	</g>
	<g>
		<title>aknE1</title>
		<polygon class="aknE1" points="135,16 120,16 120,1 90,31 120,61 120,46 135,46" fill="rgb(187,199,253)" fill-opacity="1.0" stroke="rgb(74,79,101)" stroke-width="1" />
		<g>
			<title>PF13577</title>
			<polygon class="PF13577" points="92,31 102,21 102,40" stroke-linejoin="round" width="12" height="26" fill="rgb(68,223,209)" stroke="rgb(54,178,167)" stroke-width="1" opacity="0.75" />
		</g>
		<g>
			<title>PF10604</title>
			<polygon class="PF10604" points="104,19 105,18 119,18 119,44 105,44 104,42" stroke-linejoin="round" width="15" height="26" fill="rgb(105,204,74)" stroke="rgb(84,163,59)" stroke-width="1" opacity="0.75" />
		</g>
		<g>
			<title>PF10604</title>
			<rect class="PF10604" x="120" y="18" stroke-linejoin="round" width="14" height="26" fill="rgb(105,204,74)" stroke="rgb(84,163,59)" stroke-width="1" opacity="0.75" />
		</g>
	</g>
	<g>
		<title>aknA</title>
		<polygon class="aknA" points="163,16 163,16 163,1 137,31 163,61 163,46 163,46" fill="rgb(249,189,250)" fill-opacity="1.0" stroke="rgb(99,75,100)" stroke-width="1" />
		<g>
			<title>PF00106</title>
			<polygon class="PF00106" points="142,28 150,18 161,18 161,44 150,44 142,33" stroke-linejoin="round" width="19" height="26" fill="rgb(182,219,73)" stroke="rgb(145,175,58)" stroke-width="1" opacity="0.75" />
		</g>
	</g>
	<g>
		<title>aknX</title>
		<polygon class="aknX" points="170,16 170,16 170,1 182,31 170,61 170,46 170,46" fill="rgb(254,244,182)" fill-opacity="1.0" stroke="rgb(101,97,72)" stroke-width="1" />
		<g>
			<title>PF03992</title>
			<polygon class="PF03992" points="171,18 174,18 178,27 178,35 174,44 171,44" stroke-linejoin="round" width="7" height="26" fill="rgb(193,84,127)" stroke="rgb(154,67,101)" stroke-width="1" opacity="0.75" />
		</g>
	</g>
	<g>
		<title>aknB</title>
		<polygon class="aknB" points="182,16 194,16 194,1 224,31 194,61 194,46 182,46" fill="rgb(176,192,251)" fill-opacity="1.0" stroke="rgb(70,76,100)" stroke-width="1" />
		<g>
			<title>PF00109</title>
			<rect class="PF00109" x="182" y="18" stroke-linejoin="round" width="25" height="26" fill="rgb(112,116,228)" stroke="rgb(89,92,182)" stroke-width="1" opacity="0.75" />
		</g>
		<g>
			<title>PF02801</title>
			<polygon class="PF02801" points="208,18 208,18 219,29 219,33 208,44 208,44" stroke-linejoin="round" width="11" height="26" fill="rgb(215,78,102)" stroke="rgb(172,62,81)" stroke-width="1" opacity="0.75" />
		</g>
	</g>
	<g>
		<title>aknC</title>
		<polygon class="aknC" points="224,16 234,16 234,1 264,31 234,61 234,46 224,46" fill="rgb(248,204,251)" fill-opacity="1.0" stroke="rgb(99,81,100)" stroke-width="1" />
		<g>
			<title>PF00109</title>
			<rect class="PF00109" x="224" y="18" stroke-linejoin="round" width="24" height="26" fill="rgb(112,116,228)" stroke="rgb(89,92,182)" stroke-width="1" opacity="0.75" />
		</g>
		<g>
			<title>PF02801</title>
			<polygon class="PF02801" points="249,19 260,30 260,32 249,43" stroke-linejoin="round" width="11" height="26" fill="rgb(215,78,102)" stroke="rgb(172,62,81)" stroke-width="1" opacity="0.75" />
		</g>
	</g>
	<g>
		<title>aknD</title>
		<polygon class="aknD" points="268,16 268,16 268,1 277,31 268,61 268,46 268,46" fill="rgb(253,205,231)" fill-opacity="1.0" stroke="rgb(101,82,92)" stroke-width="1" />
		<g>
			<title>PF00550</title>
			<polygon class="PF00550" points="268,18 270,18 274,31 270,44 268,44" stroke-linejoin="round" width="7" height="26" fill="rgb(103,191,88)" stroke="rgb(82,152,70)" stroke-width="1" opacity="0.75" />
		</g>
	</g>
</svg>
