<svg version="1.1" baseProfile="full" xmlns="http://www.w3.org/2000/svg" width="92" height="62">
	<line x1="1" y1="31" x2="91" y2="31" style="stroke:rgb(50,50,50); stroke-width:3 "/>
	<g>
		<title>p-mel</title>
		<polygon class="p-mel" points="1,16 16,16 16,1 46,31 16,61 16,46 1,46" fill="rgb(250,203,207)" fill-opacity="1.0" stroke="rgb(100,81,82)" stroke-width="1" />
		<g>
			<title>PF00067</title>
			<polygon class="PF00067" points="33,21 43,31 33,41" stroke-linejoin="round" width="11" height="26" fill="rgb(85,216,107)" stroke="rgb(68,172,85)" stroke-width="1" opacity="0.75" />
		</g>
	</g>
	<g>
		<title>rppA</title>
		<polygon class="rppA" points="55,16 60,16 60,1 90,31 60,61 60,46 55,46" fill="rgb(214,219,252)" fill-opacity="1.0" stroke="rgb(85,87,100)" stroke-width="1" />
		<g>
			<title>PF00195</title>
			<polygon class="PF00195" points="55,18 74,18 75,19 75,43 74,44 55,44" stroke-linejoin="round" width="20" height="26" fill="rgb(60,181,161)" stroke="rgb(47,144,128)" stroke-width="1" opacity="0.75" />
		</g>
		<g>
			<title>PF02797</title>
			<polygon class="PF02797" points="75,19 87,31 75,43" stroke-linejoin="round" width="13" height="26" fill="rgb(139,212,63)" stroke="rgb(111,169,50)" stroke-width="1" opacity="0.75" />
		</g>
	</g>
</svg>
