<svg version="1.1" baseProfile="full" xmlns="http://www.w3.org/2000/svg" width="955" height="124">
	<line x1="1" y1="31" x2="954" y2="31" style="stroke:rgb(50,50,50); stroke-width:3 "/>
	<line x1="1" y1="93" x2="251" y2="93" style="stroke:rgb(50,50,50); stroke-width:3 "/>
	<g>
		<title>dst8</title>
		<polygon class="dst8" points="408,16 421,16 421,1 451,31 421,61 421,46 408,46" fill="rgb(252,181,200)" fill-opacity="1.0" stroke="rgb(100,72,80)" stroke-width="1" />
		<g>
			<title>PF03721</title>
			<rect class="PF03721" x="409" y="18" stroke-linejoin="round" width="18" height="26" fill="rgb(156,194,58)" stroke="rgb(124,155,46)" stroke-width="1" opacity="0.75" />
		</g>
		<g>
			<title>PF00984</title>
			<polygon class="PF00984" points="428,18 435,18 437,20 437,42 435,44 428,44" stroke-linejoin="round" width="9" height="26" fill="rgb(69,189,184)" stroke="rgb(55,151,147)" stroke-width="1" opacity="0.75" />
		</g>
		<g>
			<title>PF03720</title>
			<polygon class="PF03720" points="440,23 448,31 440,39" stroke-linejoin="round" width="10" height="26" fill="rgb(221,130,74)" stroke="rgb(176,103,59)" stroke-width="1" opacity="0.75" />
		</g>
	</g>
	<g>
		<title>dst9</title>
		<polygon class="dst9" points="451,16 453,16 453,1 483,31 453,61 453,46 451,46" fill="rgb(254,203,184)" fill-opacity="1.0" stroke="rgb(101,81,73)" stroke-width="1" />
		<g>
			<title>PF01370</title>
			<polygon class="PF01370" points="451,18 467,18 475,26 475,36 467,44 451,44" stroke-linejoin="round" width="24" height="26" fill="rgb(98,102,214)" stroke="rgb(78,81,171)" stroke-width="1" opacity="0.75" />
		</g>
	</g>
	<g>
		<title>dst10</title>
		<polygon class="dst10" points="484,16 489,16 489,1 519,31 489,61 489,46 484,46" fill="rgb(202,253,236)" fill-opacity="1.0" stroke="rgb(80,101,94)" stroke-width="1" />
		<g>
			<title>PF13579</title>
			<rect class="PF13579" x="485" y="18" stroke-linejoin="round" width="13" height="26" fill="rgb(143,60,202)" stroke="rgb(114,47,161)" stroke-width="1" opacity="0.75" />
		</g>
		<g>
			<title>PF00534</title>
			<polygon class="PF00534" points="500,18 503,18 516,31 516,31 503,44 500,44" stroke-linejoin="round" width="16" height="26" fill="rgb(228,92,150)" stroke="rgb(182,73,119)" stroke-width="1" opacity="0.75" />
		</g>
	</g>
	<g>
		<title>dst11</title>
		<polygon class="dst11" points="520,16 520,16 520,1 545,31 520,61 520,46 520,46" fill="rgb(213,250,196)" fill-opacity="1.0" stroke="rgb(85,100,78)" stroke-width="1" />
		<g>
			<title>PF00483</title>
			<polygon class="PF00483" points="520,18 531,18 542,31 542,31 531,44 520,44" stroke-linejoin="round" width="22" height="26" fill="rgb(198,101,87)" stroke="rgb(158,80,69)" stroke-width="1" opacity="0.75" />
		</g>
	</g>
	<g>
		<title>dst12</title>
		<polygon class="dst12" points="545,16 553,16 553,1 583,31 553,61 553,46 545,46" fill="rgb(250,201,238)" fill-opacity="1.0" stroke="rgb(100,80,95)" stroke-width="1" />
		<g>
			<title>PF01041</title>
			<polygon class="PF01041" points="546,18 567,18 580,31 567,44 546,44" stroke-linejoin="round" width="36" height="26" fill="rgb(59,139,191)" stroke="rgb(47,111,152)" stroke-width="1" opacity="0.75" />
		</g>
	</g>
	<g>
		<title>dst13</title>
		<polygon class="dst13" points="583,16 616,16 616,1 646,31 616,61 616,46 583,46" fill="rgb(203,187,252)" fill-opacity="1.0" stroke="rgb(81,74,100)" stroke-width="1" />
		<g>
			<title>PF01301</title>
			<rect class="PF01301" x="584" y="18" stroke-linejoin="round" width="8" height="26" fill="rgb(66,191,195)" stroke="rgb(52,152,156)" stroke-width="1" opacity="0.75" />
		</g>
		<g>
			<title>PF08532</title>
			<polygon class="PF08532" points="620,18 630,18 637,25 637,37 630,44 620,44" stroke-linejoin="round" width="17" height="26" fill="rgb(190,215,94)" stroke="rgb(152,172,75)" stroke-width="1" opacity="0.75" />
		</g>
	</g>
	<g>
		<title>dst15</title>
		<polygon class="dst15" points="649,16 649,16 649,1 674,31 649,61 649,46 649,46" fill="rgb(205,252,235)" fill-opacity="1.0" stroke="rgb(82,100,93)" stroke-width="1" />
		<g>
			<title>PF13649</title>
			<rect class="PF13649" x="651" y="18" stroke-linejoin="round" width="9" height="26" fill="rgb(227,135,74)" stroke="rgb(181,108,59)" stroke-width="1" opacity="0.75" />
		</g>
	</g>
	<g>
		<title>dst16</title>
		<polygon class="dst16" points="674,16 691,16 691,1 721,31 691,61 691,46 674,46" fill="rgb(251,177,203)" fill-opacity="1.0" stroke="rgb(100,70,81)" stroke-width="1" />
		<g>
			<title>PF00668</title>
			<polygon class="PF00668" points="676,18 705,18 718,31 705,44 676,44" stroke-linejoin="round" width="44" height="26" fill="rgb(224,184,98)" stroke="rgb(179,147,78)" stroke-width="1" opacity="0.75" />
		</g>
	</g>
	<g>
		<title>dst17</title>
		<polygon class="dst17" points="721,16 725,16 725,1 755,31 725,61 725,46 721,46" fill="rgb(202,252,223)" fill-opacity="1.0" stroke="rgb(80,100,89)" stroke-width="1" />
		<g>
			<title>PF08240</title>
			<rect class="PF08240" x="723" y="18" stroke-linejoin="round" width="11" height="26" fill="rgb(211,65,138)" stroke="rgb(168,51,110)" stroke-width="1" opacity="0.75" />
		</g>
		<g>
			<title>PF00107</title>
			<polygon class="PF00107" points="739,18 739,18 751,30 751,32 739,44 739,44" stroke-linejoin="round" width="12" height="26" fill="rgb(81,108,215)" stroke="rgb(64,86,172)" stroke-width="1" opacity="0.75" />
		</g>
	</g>
	<g>
		<title>dst18</title>
		<polygon class="dst18" points="756,16 832,16 832,1 862,31 832,61 832,46 756,46" fill="rgb(211,217,254)" fill-opacity="1.0" stroke="rgb(84,86,101)" stroke-width="1" />
		<g>
			<title>PF00501</title>
			<rect class="PF00501" x="758" y="18" stroke-linejoin="round" width="41" height="26" fill="rgb(60,217,223)" stroke="rgb(48,173,178)" stroke-width="1" opacity="0.75" />
		</g>
		<g>
			<title>PF13193</title>
			<rect class="PF13193" x="800" y="18" stroke-linejoin="round" width="7" height="26" fill="rgb(182,50,118)" stroke="rgb(145,39,94)" stroke-width="1" opacity="0.75" />
		</g>
		<g>
			<title>PF00550</title>
			<rect class="PF00550" x="810" y="18" stroke-linejoin="round" width="6" height="26" fill="rgb(103,191,88)" stroke="rgb(82,152,70)" stroke-width="1" opacity="0.75" />
		</g>
		<g>
			<title>PF00668</title>
			<polygon class="PF00668" points="818,18 846,18 859,31 846,44 818,44" stroke-linejoin="round" width="43" height="26" fill="rgb(224,184,98)" stroke="rgb(179,147,78)" stroke-width="1" opacity="0.75" />
		</g>
	</g>
	<g>
		<title>dst22</title>
		<polygon class="dst22" points="56,16 34,16 34,1 4,31 34,61 34,46 56,46" fill="rgb(212,253,194)" fill-opacity="1.0" stroke="rgb(84,101,77)" stroke-width="1" />
		<g>
			<title>PF13193</title>
			<polygon class="PF13193" points="6,31 13,24 13,37" stroke-linejoin="round" width="7" height="26" fill="rgb(182,50,118)" stroke="rgb(145,39,94)" stroke-width="1" opacity="0.75" />
		</g>
		<g>
			<title>PF00501</title>
			<polygon class="PF00501" points="15,22 19,18 54,18 54,44 19,44 15,39" stroke-linejoin="round" width="39" height="26" fill="rgb(60,217,223)" stroke="rgb(48,173,178)" stroke-width="1" opacity="0.75" />
		</g>
	</g>
	<g>
		<polygon class="NoName" points="912,16 895,16 895,1 865,31 895,61 895,46 912,46" fill="rgb(255,255,255)" fill-opacity="1.0" stroke="rgb(50,50,50)" stroke-width="1" />
		<g>
			<title>PF00171</title>
			<polygon class="PF00171" points="867,31 880,18 910,18 910,44 880,44" stroke-linejoin="round" width="45" height="26" fill="rgb(105,213,139)" stroke="rgb(84,170,111)" stroke-width="1" opacity="0.75" />
		</g>
	</g>
	<g>
		<title>dst19</title>
		<polygon class="dst19" points="925,16 925,16 925,1 937,31 925,61 925,46 925,46" fill="rgb(209,251,219)" fill-opacity="1.0" stroke="rgb(83,100,87)" stroke-width="1" />
		<g>
			<title>PF00550</title>
			<polygon class="PF00550" points="927,18 929,18 933,27 933,35 929,44 927,44" stroke-linejoin="round" width="6" height="26" fill="rgb(103,191,88)" stroke="rgb(82,152,70)" stroke-width="1" opacity="0.75" />
		</g>
	</g>
	<g>
		<title>dst23</title>
		<polygon class="dst23" points="24,78 24,78 24,63 35,93 24,123 24,108 24,108" fill="rgb(254,204,199)" fill-opacity="1.0" stroke="rgb(101,81,79)" stroke-width="1" />
		<g>
			<title>PF00550</title>
			<polygon class="PF00550" points="27,80 27,80 32,93 27,106 27,106" stroke-linejoin="round" width="7" height="26" fill="rgb(103,191,88)" stroke="rgb(82,152,70)" stroke-width="1" opacity="0.75" />
		</g>
	</g>
	<g>
		<title>dst24</title>
		<polygon class="dst24" points="36,78 53,78 53,63 83,93 53,123 53,108 36,108" fill="rgb(240,250,205)" fill-opacity="1.0" stroke="rgb(96,100,82)" stroke-width="1" />
		<g>
			<title>PF00668</title>
			<polygon class="PF00668" points="38,80 67,80 80,93 67,106 38,106" stroke-linejoin="round" width="44" height="26" fill="rgb(224,184,98)" stroke="rgb(179,147,78)" stroke-width="1" opacity="0.75" />
		</g>
	</g>
	<g>
		<title>dst25</title>
		<polygon class="dst25" points="103,78 123,78 123,63 153,93 123,123 123,108 103,108" fill="rgb(253,237,200)" fill-opacity="1.0" stroke="rgb(101,94,80)" stroke-width="1" />
		<g>
			<title>PF00668</title>
			<rect class="PF00668" x="104" y="80" stroke-linejoin="round" width="33" height="26" fill="rgb(224,184,98)" stroke="rgb(179,147,78)" stroke-width="1" opacity="0.75" />
		</g>
	</g>
	<g>
		<title>dst14</title>
		<polygon class="dst14" points="159,78 159,78 159,63 189,93 159,123 159,108 159,108" fill="rgb(250,212,207)" fill-opacity="1.0" stroke="rgb(100,84,82)" stroke-width="1" />
		<g>
			<title>PF04909</title>
			<polygon class="PF04909" points="159,80 173,80 186,93 173,106 159,106" stroke-linejoin="round" width="28" height="26" fill="rgb(95,225,123)" stroke="rgb(76,180,98)" stroke-width="1" opacity="0.75" />
		</g>
	</g>
	<g>
		<title>dst26</title>
		<polygon class="dst26" points="194,78 216,78 216,63 246,93 216,123 216,108 194,108" fill="rgb(178,252,193)" fill-opacity="1.0" stroke="rgb(71,100,77)" stroke-width="1" />
		<g>
			<title>PF00551</title>
			<rect class="PF00551" x="199" y="80" stroke-linejoin="round" width="11" height="26" fill="rgb(111,183,66)" stroke="rgb(88,146,52)" stroke-width="1" opacity="0.75" />
		</g>
	</g>
	<g>
		<title>dst21</title>
		<polygon class="dst21" points="119,16 86,16 86,1 56,31 86,61 86,46 119,46" fill="rgb(209,214,251)" fill-opacity="1.0" stroke="rgb(83,85,100)" stroke-width="1" />
		<g>
			<title>PF00005</title>
			<polygon class="PF00005" points="67,22 71,18 81,18 81,44 71,44 67,39" stroke-linejoin="round" width="14" height="26" fill="rgb(129,201,63)" stroke="rgb(103,160,50)" stroke-width="1" opacity="0.75" />
		</g>
		<g>
			<title>PF00664</title>
			<rect class="PF00664" x="88" y="18" stroke-linejoin="round" width="27" height="26" fill="rgb(149,226,73)" stroke="rgb(119,180,58)" stroke-width="1" opacity="0.75" />
		</g>
	</g>
	<g>
		<title>dst20</title>
		<polygon class="dst20" points="180,16 149,16 149,1 119,31 149,61 149,46 180,46" fill="rgb(213,187,250)" fill-opacity="1.0" stroke="rgb(85,74,100)" stroke-width="1" />
		<g>
			<title>PF00005</title>
			<polygon class="PF00005" points="128,24 134,18 143,18 143,44 134,44 128,37" stroke-linejoin="round" width="15" height="26" fill="rgb(129,201,63)" stroke="rgb(103,160,50)" stroke-width="1" opacity="0.75" />
		</g>
		<g>
			<title>PF00664</title>
			<rect class="PF00664" x="149" y="18" stroke-linejoin="round" width="27" height="26" fill="rgb(149,226,73)" stroke="rgb(119,180,58)" stroke-width="1" opacity="0.75" />
		</g>
	</g>
	<g>
		<title>dst1</title>
		<polygon class="dst1" points="200,16 200,16 200,1 222,31 200,61 200,46 200,46" fill="rgb(254,189,206)" fill-opacity="1.0" stroke="rgb(101,75,82)" stroke-width="1" />
		<g>
			<title>PF00196</title>
			<polygon class="PF00196" points="216,27 219,31 216,35" stroke-linejoin="round" width="5" height="26" fill="rgb(219,94,82)" stroke="rgb(175,75,65)" stroke-width="1" opacity="0.75" />
		</g>
	</g>
	<g>
		<title>dst2</title>
		<polygon class="dst2" points="233,16 249,16 249,1 279,31 249,61 249,46 233,46" fill="rgb(191,182,254)" fill-opacity="1.0" stroke="rgb(76,72,101)" stroke-width="1" />
		<g>
			<title>PF00668</title>
			<polygon class="PF00668" points="234,18 263,18 265,20 265,42 263,44 234,44" stroke-linejoin="round" width="31" height="26" fill="rgb(224,184,98)" stroke="rgb(179,147,78)" stroke-width="1" opacity="0.75" />
		</g>
	</g>
	<g>
		<title>dst4</title>
		<polygon class="dst4" points="292,16 292,16 292,1 310,31 292,61 292,46 292,46" fill="rgb(222,199,252)" fill-opacity="1.0" stroke="rgb(88,79,100)" stroke-width="1" />
	</g>
	<g>
		<title>dst5</title>
		<polygon class="dst5" points="310,16 310,16 310,1 340,31 310,61 310,46 310,46" fill="rgb(252,214,193)" fill-opacity="1.0" stroke="rgb(100,85,77)" stroke-width="1" />
		<g>
			<title>PF01180</title>
			<polygon class="PF01180" points="310,18 324,18 337,31 337,31 324,44 310,44" stroke-linejoin="round" width="27" height="26" fill="rgb(127,188,80)" stroke="rgb(101,150,64)" stroke-width="1" opacity="0.75" />
		</g>
	</g>
	<g>
		<title>dst6</title>
		<polygon class="dst6" points="340,16 340,16 340,1 366,31 340,61 340,46 340,46" fill="rgb(176,215,250)" fill-opacity="1.0" stroke="rgb(70,86,100)" stroke-width="1" />
		<g>
			<title>PF02633</title>
			<polygon class="PF02633" points="341,18 352,18 363,31 352,44 341,44" stroke-linejoin="round" width="23" height="26" fill="rgb(216,60,128)" stroke="rgb(172,47,102)" stroke-width="1" opacity="0.75" />
		</g>
	</g>
	<g>
		<title>dst7</title>
		<polygon class="dst7" points="369,16 376,16 376,1 406,31 376,61 376,46 369,46" fill="rgb(197,251,254)" fill-opacity="1.0" stroke="rgb(78,100,101)" stroke-width="1" />
	</g>
</svg>
