<svg version="1.1" baseProfile="full" xmlns="http://www.w3.org/2000/svg" width="557" height="62">
	<line x1="1" y1="31" x2="556" y2="31" style="stroke:rgb(50,50,50); stroke-width:3 "/>
	<g>
		<polygon class="NoName" points="427,16 441,16 441,1 471,31 441,61 441,46 427,46" fill="rgb(255,255,255)" fill-opacity="1.0" stroke="rgb(50,50,50)" stroke-width="1" />
		<g>
			<title>PF01719</title>
			<rect class="PF01719" x="427" y="18" stroke-linejoin="round" width="22" height="26" fill="rgb(85,228,225)" stroke="rgb(68,182,179)" stroke-width="1" opacity="0.75" />
		</g>
		<g>
			<title>PF00910</title>
			<polygon class="PF00910" points="450,18 455,18 459,22 459,40 455,44 450,44" stroke-linejoin="round" width="9" height="26" fill="rgb(186,65,156)" stroke="rgb(148,52,124)" stroke-width="1" opacity="0.75" />
		</g>
	</g>
	<g>
		<polygon class="NoName" points="485,16 492,16 492,1 522,31 492,61 492,46 485,46" fill="rgb(255,255,255)" fill-opacity="1.0" stroke="rgb(50,50,50)" stroke-width="1" />
		<g>
			<title>PF00589</title>
			<polygon class="PF00589" points="502,18 506,18 519,31 506,44 502,44" stroke-linejoin="round" width="18" height="26" fill="rgb(91,96,195)" stroke="rgb(72,76,156)" stroke-width="1" opacity="0.75" />
		</g>
	</g>
	<g>
		<polygon class="NoName" points="552,16 552,16 552,1 524,31 552,61 552,46 552,46" fill="rgb(255,255,255)" fill-opacity="1.0" stroke="rgb(50,50,50)" stroke-width="1" />
		<g>
			<title>PF09848</title>
			<polygon class="PF09848" points="526,31 538,18 551,18 551,44 538,44" stroke-linejoin="round" width="26" height="26" fill="rgb(173,201,69)" stroke="rgb(138,160,55)" stroke-width="1" opacity="0.75" />
		</g>
	</g>
	<g>
		<polygon class="NoName" points="34,16 66,16 66,1 96,31 66,61 66,46 34,46" fill="rgb(255,255,255)" fill-opacity="1.0" stroke="rgb(50,50,50)" stroke-width="1" />
		<g>
			<title>PF00746</title>
			<polygon class="PF00746" points="92,30 93,31 92,32" stroke-linejoin="round" width="3" height="26" fill="rgb(45,94,179)" stroke="rgb(36,75,143)" stroke-width="1" opacity="0.75" />
		</g>
	</g>
	<g>
		<polygon class="NoName" points="147,16 147,16 147,1 128,31 147,61 147,46 147,46" fill="rgb(255,255,255)" fill-opacity="1.0" stroke="rgb(50,50,50)" stroke-width="1" />
	</g>
	<g>
		<title>lnqQ</title>
		<polygon class="lnqQ" points="162,16 162,16 162,1 167,31 162,61 162,46 162,46" fill="rgb(243,204,253)" fill-opacity="1.0" stroke="rgb(97,81,101)" stroke-width="1" />
		<g>
			<title>PF11758</title>
			<polygon class="PF11758" points="162,18 162,18 164,31 162,44 162,44" stroke-linejoin="round" width="5" height="26" fill="rgb(114,178,85)" stroke="rgb(91,142,68)" stroke-width="1" opacity="0.75" />
		</g>
	</g>
	<g>
		<polygon class="NoName" points="170,16 170,16 170,1 178,31 170,61 170,46 170,46" fill="rgb(255,255,255)" fill-opacity="1.0" stroke="rgb(50,50,50)" stroke-width="1" />
	</g>
	<g>
		<polygon class="NoName" points="177,16 177,16 177,1 193,31 177,61 177,46 177,46" fill="rgb(255,255,255)" fill-opacity="1.0" stroke="rgb(50,50,50)" stroke-width="1" />
		<g>
			<title>PF03703</title>
			<polygon class="PF03703" points="184,19 190,31 184,43" stroke-linejoin="round" width="7" height="26" fill="rgb(228,219,97)" stroke="rgb(182,175,77)" stroke-width="1" opacity="0.75" />
		</g>
	</g>
	<g>
		<polygon class="NoName" points="193,16 206,16 206,1 236,31 206,61 206,46 193,46" fill="rgb(255,255,255)" fill-opacity="1.0" stroke="rgb(50,50,50)" stroke-width="1" />
		<g>
			<title>PF03703</title>
			<rect class="PF03703" x="199" y="18" stroke-linejoin="round" width="7" height="26" fill="rgb(228,219,97)" stroke="rgb(182,175,77)" stroke-width="1" opacity="0.75" />
		</g>
	</g>
	<g>
		<polygon class="NoName" points="236,16 236,16 236,1 258,31 236,61 236,46 236,46" fill="rgb(255,255,255)" fill-opacity="1.0" stroke="rgb(50,50,50)" stroke-width="1" />
	</g>
	<g>
		<polygon class="NoName" points="261,16 261,16 261,1 287,31 261,61 261,46 261,46" fill="rgb(255,255,255)" fill-opacity="1.0" stroke="rgb(50,50,50)" stroke-width="1" />
		<g>
			<title>PF00005</title>
			<rect class="PF00005" x="261" y="18" stroke-linejoin="round" width="12" height="26" fill="rgb(129,201,63)" stroke="rgb(103,160,50)" stroke-width="1" opacity="0.75" />
		</g>
	</g>
	<g>
		<polygon class="NoName" points="362,16 362,16 362,1 340,31 362,61 362,46 362,46" fill="rgb(255,255,255)" fill-opacity="1.0" stroke="rgb(50,50,50)" stroke-width="1" />
		<g>
			<title>PF01381</title>
			<rect class="PF01381" x="356" y="18" stroke-linejoin="round" width="5" height="26" fill="rgb(105,79,202)" stroke="rgb(83,63,161)" stroke-width="1" opacity="0.75" />
		</g>
	</g>
</svg>
