<svg version="1.1" baseProfile="full" xmlns="http://www.w3.org/2000/svg" width="2562" height="62">
	<line x1="1" y1="31" x2="2561" y2="31" style="stroke:rgb(50,50,50); stroke-width:3 "/>
	<g>
		<polygon class="NoName" points="479,16 244,16 244,1 214,31 244,61 244,46 479,46" fill="rgb(255,255,255)" fill-opacity="1.0" stroke="rgb(50,50,50)" stroke-width="1" />
		<g>
			<title>PF05199</title>
			<rect class="PF05199" x="406" y="18" stroke-linejoin="round" width="14" height="26" fill="rgb(186,52,106)" stroke="rgb(148,41,84)" stroke-width="1" opacity="0.75" />
		</g>
		<g>
			<title>PF00732</title>
			<rect class="PF00732" x="429" y="18" stroke-linejoin="round" width="26" height="26" fill="rgb(180,89,214)" stroke="rgb(143,71,171)" stroke-width="1" opacity="0.75" />
		</g>
	</g>
	<g>
		<polygon class="NoName" points="884,16 935,16 935,1 965,31 935,61 935,46 884,46" fill="rgb(255,255,255)" fill-opacity="1.0" stroke="rgb(50,50,50)" stroke-width="1" />
	</g>
	<g>
		<polygon class="NoName" points="1009,16 1013,16 1013,1 1043,31 1013,61 1013,46 1009,46" fill="rgb(255,255,255)" fill-opacity="1.0" stroke="rgb(50,50,50)" stroke-width="1" />
		<g>
			<title>PF01255</title>
			<rect class="PF01255" x="1009" y="18" stroke-linejoin="round" width="15" height="26" fill="rgb(129,224,60)" stroke="rgb(103,179,48)" stroke-width="1" opacity="0.75" />
		</g>
	</g>
	<g>
		<polygon class="NoName" points="1356,16 1276,16 1276,1 1246,31 1276,61 1276,46 1356,46" fill="rgb(255,255,255)" fill-opacity="1.0" stroke="rgb(50,50,50)" stroke-width="1" />
		<g>
			<title>PF01255</title>
			<rect class="PF01255" x="1326" y="18" stroke-linejoin="round" width="21" height="26" fill="rgb(129,224,60)" stroke="rgb(103,179,48)" stroke-width="1" opacity="0.75" />
		</g>
	</g>
	<g>
		<polygon class="NoName" points="1487,16 1693,16 1693,1 1723,31 1693,61 1693,46 1487,46" fill="rgb(255,255,255)" fill-opacity="1.0" stroke="rgb(50,50,50)" stroke-width="1" />
		<g>
			<title>PF01397</title>
			<rect class="PF01397" x="1508" y="18" stroke-linejoin="round" width="19" height="26" fill="rgb(74,159,219)" stroke="rgb(59,127,175)" stroke-width="1" opacity="0.75" />
		</g>
		<g>
			<title>PF03936</title>
			<rect class="PF03936" x="1532" y="18" stroke-linejoin="round" width="26" height="26" fill="rgb(219,91,215)" stroke="rgb(175,72,171)" stroke-width="1" opacity="0.75" />
		</g>
	</g>
	<g>
		<polygon class="NoName" points="1823,16 1767,16 1767,1 1737,31 1767,61 1767,46 1823,46" fill="rgb(255,255,255)" fill-opacity="1.0" stroke="rgb(50,50,50)" stroke-width="1" />
		<g>
			<title>PF01255</title>
			<rect class="PF01255" x="1791" y="18" stroke-linejoin="round" width="21" height="26" fill="rgb(129,224,60)" stroke="rgb(103,179,48)" stroke-width="1" opacity="0.75" />
		</g>
	</g>
	<g>
		<polygon class="NoName" points="2081,16 2299,16 2299,1 2329,31 2299,61 2299,46 2081,46" fill="rgb(255,255,255)" fill-opacity="1.0" stroke="rgb(50,50,50)" stroke-width="1" />
		<g>
			<title>PF01397</title>
			<rect class="PF01397" x="2101" y="18" stroke-linejoin="round" width="19" height="26" fill="rgb(74,159,219)" stroke="rgb(59,127,175)" stroke-width="1" opacity="0.75" />
		</g>
		<g>
			<title>PF03936</title>
			<rect class="PF03936" x="2125" y="18" stroke-linejoin="round" width="26" height="26" fill="rgb(219,91,215)" stroke="rgb(175,72,171)" stroke-width="1" opacity="0.75" />
		</g>
	</g>
	<g>
		<polygon class="NoName" points="2404,16 2440,16 2440,1 2470,31 2440,61 2440,46 2404,46" fill="rgb(255,255,255)" fill-opacity="1.0" stroke="rgb(50,50,50)" stroke-width="1" />
		<g>
			<title>PF00067</title>
			<rect class="PF00067" x="2407" y="18" stroke-linejoin="round" width="46" height="26" fill="rgb(85,216,107)" stroke="rgb(68,172,85)" stroke-width="1" opacity="0.75" />
		</g>
	</g>
	<g>
		<polygon class="NoName" points="2484,16 2484,16 2484,1 2493,31 2484,61 2484,46 2484,46" fill="rgb(255,255,255)" fill-opacity="1.0" stroke="rgb(50,50,50)" stroke-width="1" />
	</g>
</svg>
