<svg version="1.1" baseProfile="full" xmlns="http://www.w3.org/2000/svg" width="515" height="62">
	<line x1="1" y1="31" x2="514" y2="31" style="stroke:rgb(50,50,50); stroke-width:3 "/>
	<g>
		<polygon class="NoName" points="91,16 91,16 91,1 85,31 91,61 91,46 91,46" fill="rgb(255,255,255)" fill-opacity="1.0" stroke="rgb(50,50,50)" stroke-width="1" />
	</g>
	<g>
		<polygon class="NoName" points="100,16 100,16 100,1 94,31 100,61 100,46 100,46" fill="rgb(255,255,255)" fill-opacity="1.0" stroke="rgb(50,50,50)" stroke-width="1" />
	</g>
	<g>
		<polygon class="NoName" points="112,16 112,16 112,1 106,31 112,61 112,46 112,46" fill="rgb(255,255,255)" fill-opacity="1.0" stroke="rgb(50,50,50)" stroke-width="1" />
	</g>
	<g>
		<polygon class="NoName" points="190,16 149,16 149,1 119,31 149,61 149,46 190,46" fill="rgb(255,255,255)" fill-opacity="1.0" stroke="rgb(50,50,50)" stroke-width="1" />
		<g>
			<title>PF00005</title>
			<polygon class="PF00005" points="126,26 134,18 140,18 140,44 134,44 126,35" stroke-linejoin="round" width="14" height="26" fill="rgb(129,201,63)" stroke="rgb(103,160,50)" stroke-width="1" opacity="0.75" />
		</g>
		<g>
			<title>PF00664</title>
			<rect class="PF00664" x="147" y="18" stroke-linejoin="round" width="27" height="26" fill="rgb(149,226,73)" stroke="rgb(119,180,58)" stroke-width="1" opacity="0.75" />
		</g>
		<g>
			<title>PF03412</title>
			<rect class="PF03412" x="176" y="18" stroke-linejoin="round" width="13" height="26" fill="rgb(214,226,77)" stroke="rgb(171,180,61)" stroke-width="1" opacity="0.75" />
		</g>
	</g>
	<g>
		<polygon class="NoName" points="293,16 221,16 221,1 191,31 221,61 221,46 293,46" fill="rgb(255,255,255)" fill-opacity="1.0" stroke="rgb(50,50,50)" stroke-width="1" />
		<g>
			<title>PF05147</title>
			<polygon class="PF05147" points="193,31 206,18 226,18 226,44 206,44" stroke-linejoin="round" width="35" height="26" fill="rgb(129,182,79)" stroke="rgb(103,145,63)" stroke-width="1" opacity="0.75" />
		</g>
		<g>
			<title>PF13575</title>
			<rect class="PF13575" x="238" y="18" stroke-linejoin="round" width="37" height="26" fill="rgb(228,84,217)" stroke="rgb(182,67,173)" stroke-width="1" opacity="0.75" />
		</g>
	</g>
	<g>
		<polygon class="NoName" points="389,16 322,16 322,1 292,31 322,61 322,46 389,46" fill="rgb(255,255,255)" fill-opacity="1.0" stroke="rgb(50,50,50)" stroke-width="1" />
		<g>
			<title>PF05147</title>
			<polygon class="PF05147" points="294,31 307,18 328,18 328,44 307,44" stroke-linejoin="round" width="34" height="26" fill="rgb(129,182,79)" stroke="rgb(103,145,63)" stroke-width="1" opacity="0.75" />
		</g>
		<g>
			<title>PF13575</title>
			<rect class="PF13575" x="340" y="18" stroke-linejoin="round" width="37" height="26" fill="rgb(228,84,217)" stroke="rgb(182,67,173)" stroke-width="1" opacity="0.75" />
		</g>
	</g>
	<g>
		<polygon class="NoName" points="399,16 399,16 399,1 389,31 399,61 399,46 399,46" fill="rgb(255,255,255)" fill-opacity="1.0" stroke="rgb(50,50,50)" stroke-width="1" />
	</g>
	<g>
		<polygon class="NoName" points="424,16 424,16 424,1 399,31 424,61 424,46 424,46" fill="rgb(255,255,255)" fill-opacity="1.0" stroke="rgb(50,50,50)" stroke-width="1" />
		<g>
			<title>PF12730</title>
			<polygon class="PF12730" points="406,25 412,18 423,18 423,44 412,44 406,36" stroke-linejoin="round" width="17" height="26" fill="rgb(203,161,59)" stroke="rgb(162,128,47)" stroke-width="1" opacity="0.75" />
		</g>
	</g>
	<g>
		<polygon class="NoName" points="448,16 448,16 448,1 424,31 448,61 448,46 448,46" fill="rgb(255,255,255)" fill-opacity="1.0" stroke="rgb(50,50,50)" stroke-width="1" />
	</g>
	<g>
		<polygon class="NoName" points="479,16 479,16 479,1 449,31 479,61 479,46 479,46" fill="rgb(255,255,255)" fill-opacity="1.0" stroke="rgb(50,50,50)" stroke-width="1" />
		<g>
			<title>PF00005</title>
			<polygon class="PF00005" points="463,19 464,18 477,18 477,44 464,44 463,42" stroke-linejoin="round" width="14" height="26" fill="rgb(129,201,63)" stroke="rgb(103,160,50)" stroke-width="1" opacity="0.75" />
		</g>
	</g>
	<g>
		<polygon class="NoName" points="10,16 10,16 10,1 4,31 10,61 10,46 10,46" fill="rgb(255,255,255)" fill-opacity="1.0" stroke="rgb(50,50,50)" stroke-width="1" />
	</g>
	<g>
		<polygon class="NoName" points="513,16 513,16 513,1 489,31 513,61 513,46 513,46" fill="rgb(255,255,255)" fill-opacity="1.0" stroke="rgb(50,50,50)" stroke-width="1" />
		<g>
			<title>PF13483</title>
			<polygon class="PF13483" points="495,26 501,18 512,18 512,44 501,44 495,35" stroke-linejoin="round" width="17" height="26" fill="rgb(89,224,69)" stroke="rgb(71,179,55)" stroke-width="1" opacity="0.75" />
		</g>
	</g>
	<g>
		<polygon class="NoName" points="17,16 17,16 17,1 11,31 17,61 17,46 17,46" fill="rgb(255,255,255)" fill-opacity="1.0" stroke="rgb(50,50,50)" stroke-width="1" />
	</g>
	<g>
		<polygon class="NoName" points="33,16 33,16 33,1 26,31 33,61 33,46 33,46" fill="rgb(255,255,255)" fill-opacity="1.0" stroke="rgb(50,50,50)" stroke-width="1" />
	</g>
	<g>
		<polygon class="NoName" points="40,16 40,16 40,1 34,31 40,61 40,46 40,46" fill="rgb(255,255,255)" fill-opacity="1.0" stroke="rgb(50,50,50)" stroke-width="1" />
	</g>
	<g>
		<polygon class="NoName" points="48,16 48,16 48,1 41,31 48,61 48,46 48,46" fill="rgb(255,255,255)" fill-opacity="1.0" stroke="rgb(50,50,50)" stroke-width="1" />
	</g>
	<g>
		<polygon class="NoName" points="57,16 57,16 57,1 51,31 57,61 57,46 57,46" fill="rgb(255,255,255)" fill-opacity="1.0" stroke="rgb(50,50,50)" stroke-width="1" />
	</g>
	<g>
		<polygon class="NoName" points="64,16 64,16 64,1 57,31 64,61 64,46 64,46" fill="rgb(255,255,255)" fill-opacity="1.0" stroke="rgb(50,50,50)" stroke-width="1" />
	</g>
	<g>
		<polygon class="NoName" points="71,16 71,16 71,1 65,31 71,61 71,46 71,46" fill="rgb(255,255,255)" fill-opacity="1.0" stroke="rgb(50,50,50)" stroke-width="1" />
	</g>
	<g>
		<polygon class="NoName" points="81,16 81,16 81,1 75,31 81,61 81,46 81,46" fill="rgb(255,255,255)" fill-opacity="1.0" stroke="rgb(50,50,50)" stroke-width="1" />
	</g>
</svg>
