<svg version="1.1" baseProfile="full" xmlns="http://www.w3.org/2000/svg" width="2246" height="62">
	<line x1="1" y1="31" x2="2245" y2="31" style="stroke:rgb(50,50,50); stroke-width:3 "/>
	<g>
		<title>jerC</title>
		<polygon class="jerC" points="1003,16 1338,16 1338,1 1368,31 1338,61 1338,46 1003,46" fill="rgb(181,218,251)" fill-opacity="1.0" stroke="rgb(72,87,100)" stroke-width="1" />
		<g>
			<title>PF00109</title>
			<rect class="PF00109" x="1006" y="18" stroke-linejoin="round" width="25" height="26" fill="rgb(112,116,228)" stroke="rgb(89,92,182)" stroke-width="1" opacity="0.75" />
		</g>
		<g>
			<title>PF02801</title>
			<rect class="PF02801" x="1032" y="18" stroke-linejoin="round" width="11" height="26" fill="rgb(215,78,102)" stroke="rgb(172,62,81)" stroke-width="1" opacity="0.75" />
		</g>
		<g>
			<title>PF16197</title>
			<rect class="PF16197" x="1044" y="18" stroke-linejoin="round" width="12" height="26" fill="rgb(68,179,89)" stroke="rgb(54,143,71)" stroke-width="1" opacity="0.75" />
		</g>
		<g>
			<title>PF00698</title>
			<rect class="PF00698" x="1060" y="18" stroke-linejoin="round" width="31" height="26" fill="rgb(59,176,209)" stroke="rgb(47,140,167)" stroke-width="1" opacity="0.75" />
		</g>
		<g>
			<title>PF14765</title>
			<rect class="PF14765" x="1096" y="18" stroke-linejoin="round" width="28" height="26" fill="rgb(173,56,182)" stroke="rgb(138,44,145)" stroke-width="1" opacity="0.75" />
		</g>
		<g>
			<title>PF08659</title>
			<rect class="PF08659" x="1145" y="18" stroke-linejoin="round" width="18" height="26" fill="rgb(66,209,188)" stroke="rgb(52,167,150)" stroke-width="1" opacity="0.75" />
		</g>
		<g>
			<title>PF00550</title>
			<rect class="PF00550" x="1174" y="18" stroke-linejoin="round" width="6" height="26" fill="rgb(103,191,88)" stroke="rgb(82,152,70)" stroke-width="1" opacity="0.75" />
		</g>
		<g>
			<title>PF00109</title>
			<rect class="PF00109" x="1184" y="18" stroke-linejoin="round" width="25" height="26" fill="rgb(112,116,228)" stroke="rgb(89,92,182)" stroke-width="1" opacity="0.75" />
		</g>
		<g>
			<title>PF02801</title>
			<rect class="PF02801" x="1210" y="18" stroke-linejoin="round" width="11" height="26" fill="rgb(215,78,102)" stroke="rgb(172,62,81)" stroke-width="1" opacity="0.75" />
		</g>
		<g>
			<title>PF16197</title>
			<rect class="PF16197" x="1222" y="18" stroke-linejoin="round" width="11" height="26" fill="rgb(68,179,89)" stroke="rgb(54,143,71)" stroke-width="1" opacity="0.75" />
		</g>
		<g>
			<title>PF00698</title>
			<rect class="PF00698" x="1238" y="18" stroke-linejoin="round" width="32" height="26" fill="rgb(59,176,209)" stroke="rgb(47,140,167)" stroke-width="1" opacity="0.75" />
		</g>
		<g>
			<title>PF14765</title>
			<rect class="PF14765" x="1275" y="18" stroke-linejoin="round" width="28" height="26" fill="rgb(173,56,182)" stroke="rgb(138,44,145)" stroke-width="1" opacity="0.75" />
		</g>
		<g>
			<title>PF08659</title>
			<rect class="PF08659" x="1324" y="18" stroke-linejoin="round" width="18" height="26" fill="rgb(66,209,188)" stroke="rgb(52,167,150)" stroke-width="1" opacity="0.75" />
		</g>
		<g>
			<title>PF00550</title>
			<polygon class="PF00550" points="1353,19 1359,25 1359,37 1353,43" stroke-linejoin="round" width="6" height="26" fill="rgb(103,191,88)" stroke="rgb(82,152,70)" stroke-width="1" opacity="0.75" />
		</g>
	</g>
	<g>
		<title>jerD</title>
		<polygon class="jerD" points="1368,16 1526,16 1526,1 1556,31 1526,61 1526,46 1368,46" fill="rgb(195,185,253)" fill-opacity="1.0" stroke="rgb(77,74,101)" stroke-width="1" />
		<g>
			<title>PF00109</title>
			<rect class="PF00109" x="1371" y="18" stroke-linejoin="round" width="25" height="26" fill="rgb(112,116,228)" stroke="rgb(89,92,182)" stroke-width="1" opacity="0.75" />
		</g>
		<g>
			<title>PF02801</title>
			<rect class="PF02801" x="1397" y="18" stroke-linejoin="round" width="11" height="26" fill="rgb(215,78,102)" stroke="rgb(172,62,81)" stroke-width="1" opacity="0.75" />
		</g>
		<g>
			<title>PF16197</title>
			<rect class="PF16197" x="1409" y="18" stroke-linejoin="round" width="11" height="26" fill="rgb(68,179,89)" stroke="rgb(54,143,71)" stroke-width="1" opacity="0.75" />
		</g>
		<g>
			<title>PF00698</title>
			<rect class="PF00698" x="1425" y="18" stroke-linejoin="round" width="32" height="26" fill="rgb(59,176,209)" stroke="rgb(47,140,167)" stroke-width="1" opacity="0.75" />
		</g>
		<g>
			<title>PF14765</title>
			<rect class="PF14765" x="1462" y="18" stroke-linejoin="round" width="28" height="26" fill="rgb(173,56,182)" stroke="rgb(138,44,145)" stroke-width="1" opacity="0.75" />
		</g>
		<g>
			<title>PF08659</title>
			<rect class="PF08659" x="1510" y="18" stroke-linejoin="round" width="18" height="26" fill="rgb(66,209,188)" stroke="rgb(52,167,150)" stroke-width="1" opacity="0.75" />
		</g>
		<g>
			<title>PF00550</title>
			<polygon class="PF00550" points="1540,18 1540,18 1546,24 1546,38 1540,44 1540,44" stroke-linejoin="round" width="6" height="26" fill="rgb(103,191,88)" stroke="rgb(82,152,70)" stroke-width="1" opacity="0.75" />
		</g>
	</g>
	<g>
		<title>jerE</title>
		<polygon class="jerE" points="1556,16 1813,16 1813,1 1843,31 1813,61 1813,46 1556,46" fill="rgb(181,254,207)" fill-opacity="1.0" stroke="rgb(72,101,82)" stroke-width="1" />
		<g>
			<title>PF00109</title>
			<rect class="PF00109" x="1559" y="18" stroke-linejoin="round" width="25" height="26" fill="rgb(112,116,228)" stroke="rgb(89,92,182)" stroke-width="1" opacity="0.75" />
		</g>
		<g>
			<title>PF02801</title>
			<rect class="PF02801" x="1585" y="18" stroke-linejoin="round" width="11" height="26" fill="rgb(215,78,102)" stroke="rgb(172,62,81)" stroke-width="1" opacity="0.75" />
		</g>
		<g>
			<title>PF16197</title>
			<rect class="PF16197" x="1597" y="18" stroke-linejoin="round" width="11" height="26" fill="rgb(68,179,89)" stroke="rgb(54,143,71)" stroke-width="1" opacity="0.75" />
		</g>
		<g>
			<title>PF00698</title>
			<rect class="PF00698" x="1613" y="18" stroke-linejoin="round" width="32" height="26" fill="rgb(59,176,209)" stroke="rgb(47,140,167)" stroke-width="1" opacity="0.75" />
		</g>
		<g>
			<title>PF08659</title>
			<rect class="PF08659" x="1677" y="18" stroke-linejoin="round" width="17" height="26" fill="rgb(66,209,188)" stroke="rgb(52,167,150)" stroke-width="1" opacity="0.75" />
		</g>
		<g>
			<title>PF00550</title>
			<rect class="PF00550" x="1706" y="18" stroke-linejoin="round" width="6" height="26" fill="rgb(103,191,88)" stroke="rgb(82,152,70)" stroke-width="1" opacity="0.75" />
		</g>
		<g>
			<title>PF00109</title>
			<rect class="PF00109" x="1715" y="18" stroke-linejoin="round" width="25" height="26" fill="rgb(112,116,228)" stroke="rgb(89,92,182)" stroke-width="1" opacity="0.75" />
		</g>
		<g>
			<title>PF02801</title>
			<rect class="PF02801" x="1741" y="18" stroke-linejoin="round" width="11" height="26" fill="rgb(215,78,102)" stroke="rgb(172,62,81)" stroke-width="1" opacity="0.75" />
		</g>
		<g>
			<title>PF16197</title>
			<rect class="PF16197" x="1753" y="18" stroke-linejoin="round" width="11" height="26" fill="rgb(68,179,89)" stroke="rgb(54,143,71)" stroke-width="1" opacity="0.75" />
		</g>
		<g>
			<title>PF00698</title>
			<rect class="PF00698" x="1769" y="18" stroke-linejoin="round" width="31" height="26" fill="rgb(59,176,209)" stroke="rgb(47,140,167)" stroke-width="1" opacity="0.75" />
		</g>
		<g>
			<title>PF00550</title>
			<rect class="PF00550" x="1808" y="18" stroke-linejoin="round" width="6" height="26" fill="rgb(103,191,88)" stroke="rgb(82,152,70)" stroke-width="1" opacity="0.75" />
		</g>
		<g>
			<title>PF00975</title>
			<polygon class="PF00975" points="1819,18 1827,18 1840,31 1827,44 1819,44" stroke-linejoin="round" width="23" height="26" fill="rgb(207,80,138)" stroke="rgb(165,63,110)" stroke-width="1" opacity="0.75" />
		</g>
	</g>
	<g>
		<title>jerF</title>
		<polygon class="jerF" points="1850,16 1850,16 1850,1 1872,31 1850,61 1850,46 1850,46" fill="rgb(254,203,239)" fill-opacity="1.0" stroke="rgb(101,81,95)" stroke-width="1" />
		<g>
			<title>PF08242</title>
			<polygon class="PF08242" points="1855,18 1859,18 1864,24 1864,38 1859,44 1855,44" stroke-linejoin="round" width="9" height="26" fill="rgb(187,59,115)" stroke="rgb(149,47,92)" stroke-width="1" opacity="0.75" />
		</g>
	</g>
	<g>
		<title>jerP</title>
		<polygon class="jerP" points="1908,16 1903,16 1903,1 1873,31 1903,61 1903,46 1908,46" fill="rgb(200,250,207)" fill-opacity="1.0" stroke="rgb(80,100,82)" stroke-width="1" />
		<g>
			<title>PF00355</title>
			<rect class="PF00355" x="1898" y="18" stroke-linejoin="round" width="9" height="26" fill="rgb(186,77,145)" stroke="rgb(148,61,115)" stroke-width="1" opacity="0.75" />
		</g>
	</g>
	<g>
		<title>jerO</title>
		<polygon class="jerO" points="1946,16 1939,16 1939,1 1909,31 1939,61 1939,46 1946,46" fill="rgb(206,251,214)" fill-opacity="1.0" stroke="rgb(82,100,85)" stroke-width="1" />
		<g>
			<title>PF13738</title>
			<rect class="PF13738" x="1926" y="18" stroke-linejoin="round" width="19" height="26" fill="rgb(213,91,84)" stroke="rgb(170,72,67)" stroke-width="1" opacity="0.75" />
		</g>
	</g>
	<g>
		<title>jerL</title>
		<polygon class="jerL" points="1988,16 1983,16 1983,1 1953,31 1983,61 1983,46 1988,46" fill="rgb(253,193,241)" fill-opacity="1.0" stroke="rgb(101,77,96)" stroke-width="1" />
		<g>
			<title>PF00355</title>
			<rect class="PF00355" x="1977" y="18" stroke-linejoin="round" width="9" height="26" fill="rgb(186,77,145)" stroke="rgb(148,61,115)" stroke-width="1" opacity="0.75" />
		</g>
	</g>
	<g>
		<title>jerM</title>
		<polygon class="jerM" points="2031,16 2022,16 2022,1 1992,31 2022,61 2022,46 2031,46" fill="rgb(185,218,252)" fill-opacity="1.0" stroke="rgb(74,87,100)" stroke-width="1" />
		<g>
			<title>PF13489</title>
			<polygon class="PF13489" points="1994,31 2007,18 2013,18 2013,44 2007,44" stroke-linejoin="round" width="19" height="26" fill="rgb(188,189,66)" stroke="rgb(150,151,52)" stroke-width="1" opacity="0.75" />
		</g>
	</g>
	<g>
		<polygon class="NoName" points="2043,16 2043,16 2043,1 2035,31 2043,61 2043,46 2043,46" fill="rgb(255,255,255)" fill-opacity="1.0" stroke="rgb(50,50,50)" stroke-width="1" />
	</g>
	<g>
		<polygon class="NoName" points="2053,16 2053,16 2053,1 2045,31 2053,61 2053,46 2053,46" fill="rgb(255,255,255)" fill-opacity="1.0" stroke="rgb(50,50,50)" stroke-width="1" />
	</g>
	<g>
		<polygon class="NoName" points="1,16 1,16 1,1 31,31 1,61 1,46 1,46" fill="rgb(255,255,255)" fill-opacity="1.0" stroke="rgb(50,50,50)" stroke-width="1" />
	</g>
	<g>
		<polygon class="NoName" points="2067,16 2067,16 2067,1 2054,31 2067,61 2067,46 2067,46" fill="rgb(255,255,255)" fill-opacity="1.0" stroke="rgb(50,50,50)" stroke-width="1" />
	</g>
	<g>
		<title>jer7</title>
		<polygon class="jer7" points="2244,16 2098,16 2098,1 2068,31 2098,61 2098,46 2244,46" fill="rgb(252,229,210)" fill-opacity="1.0" stroke="rgb(100,91,84)" stroke-width="1" />
		<g>
			<title>PF00072</title>
			<polygon class="PF00072" points="2070,31 2079,22 2079,39" stroke-linejoin="round" width="11" height="26" fill="rgb(100,107,203)" stroke="rgb(80,85,162)" stroke-width="1" opacity="0.75" />
		</g>
		<g>
			<title>PF00072</title>
			<polygon class="PF00072" points="2083,18 2083,18 2093,18 2093,44 2083,44 2083,43" stroke-linejoin="round" width="10" height="26" fill="rgb(100,107,203)" stroke="rgb(80,85,162)" stroke-width="1" opacity="0.75" />
		</g>
		<g>
			<title>PF00072</title>
			<rect class="PF00072" x="2095" y="18" stroke-linejoin="round" width="10" height="26" fill="rgb(100,107,203)" stroke="rgb(80,85,162)" stroke-width="1" opacity="0.75" />
		</g>
		<g>
			<title>PF02518</title>
			<rect class="PF02518" x="2112" y="18" stroke-linejoin="round" width="12" height="26" fill="rgb(80,94,225)" stroke="rgb(64,75,180)" stroke-width="1" opacity="0.75" />
		</g>
		<g>
			<title>PF00512</title>
			<rect class="PF00512" x="2129" y="18" stroke-linejoin="round" width="6" height="26" fill="rgb(193,125,62)" stroke="rgb(154,100,49)" stroke-width="1" opacity="0.75" />
		</g>
		<g>
			<title>PF13185</title>
			<rect class="PF13185" x="2144" y="18" stroke-linejoin="round" width="13" height="26" fill="rgb(158,189,90)" stroke="rgb(126,151,72)" stroke-width="1" opacity="0.75" />
		</g>
		<g>
			<title>PF00672</title>
			<rect class="PF00672" x="2233" y="18" stroke-linejoin="round" width="5" height="26" fill="rgb(124,89,195)" stroke="rgb(99,71,156)" stroke-width="1" opacity="0.75" />
		</g>
	</g>
	<g>
		<title>jer1</title>
		<polygon class="jer1" points="189,16 189,16 189,1 159,31 189,61 189,46 189,46" fill="rgb(252,185,228)" fill-opacity="1.0" stroke="rgb(100,74,91)" stroke-width="1" />
		<g>
			<title>PF03466</title>
			<polygon class="PF03466" points="161,31 174,18 180,18 180,44 174,44" stroke-linejoin="round" width="20" height="26" fill="rgb(55,136,195)" stroke="rgb(44,108,156)" stroke-width="1" opacity="0.75" />
		</g>
		<g>
			<title>PF00126</title>
			<rect class="PF00126" x="183" y="18" stroke-linejoin="round" width="5" height="26" fill="rgb(125,227,79)" stroke="rgb(99,181,63)" stroke-width="1" opacity="0.75" />
		</g>
	</g>
	<g>
		<title>jer2</title>
		<polygon class="jer2" points="196,16 196,16 196,1 206,31 196,61 196,46 196,46" fill="rgb(210,253,240)" fill-opacity="1.0" stroke="rgb(84,101,96)" stroke-width="1" />
		<g>
			<title>PF03992</title>
			<polygon class="PF03992" points="196,18 199,18 203,29 203,33 199,44 196,44" stroke-linejoin="round" width="7" height="26" fill="rgb(193,84,127)" stroke="rgb(154,67,101)" stroke-width="1" opacity="0.75" />
		</g>
	</g>
	<g>
		<title>jer3</title>
		<polygon class="jer3" points="240,16 258,16 258,1 288,31 258,61 258,46 240,46" fill="rgb(252,194,188)" fill-opacity="1.0" stroke="rgb(100,77,75)" stroke-width="1" />
		<g>
			<title>PF00672</title>
			<rect class="PF00672" x="256" y="18" stroke-linejoin="round" width="6" height="26" fill="rgb(124,89,195)" stroke="rgb(99,71,156)" stroke-width="1" opacity="0.75" />
		</g>
		<g>
			<title>PF00512</title>
			<rect class="PF00512" x="265" y="18" stroke-linejoin="round" width="6" height="26" fill="rgb(193,125,62)" stroke="rgb(154,100,49)" stroke-width="1" opacity="0.75" />
		</g>
		<g>
			<title>PF02518</title>
			<polygon class="PF02518" points="276,22 285,31 276,40" stroke-linejoin="round" width="12" height="26" fill="rgb(80,94,225)" stroke="rgb(64,75,180)" stroke-width="1" opacity="0.75" />
		</g>
	</g>
	<g>
		<title>jer4</title>
		<polygon class="jer4" points="288,16 304,16 304,1 334,31 304,61 304,46 288,46" fill="rgb(201,199,251)" fill-opacity="1.0" stroke="rgb(80,79,100)" stroke-width="1" />
		<g>
			<title>PF00072</title>
			<rect class="PF00072" x="288" y="18" stroke-linejoin="round" width="11" height="26" fill="rgb(100,107,203)" stroke="rgb(80,85,162)" stroke-width="1" opacity="0.75" />
		</g>
		<g>
			<title>PF00158</title>
			<rect class="PF00158" x="302" y="18" stroke-linejoin="round" width="16" height="26" fill="rgb(101,145,216)" stroke="rgb(80,115,172)" stroke-width="1" opacity="0.75" />
		</g>
		<g>
			<title>PF02954</title>
			<polygon class="PF02954" points="328,28 331,31 328,34" stroke-linejoin="round" width="4" height="26" fill="rgb(168,63,200)" stroke="rgb(134,50,160)" stroke-width="1" opacity="0.75" />
		</g>
	</g>
	<g>
		<title>jer5</title>
		<polygon class="jer5" points="411,16 391,16 391,1 361,31 391,61 391,46 411,46" fill="rgb(250,204,203)" fill-opacity="1.0" stroke="rgb(100,81,81)" stroke-width="1" />
		<g>
			<title>PF02518</title>
			<polygon class="PF02518" points="363,31 373,21 373,40" stroke-linejoin="round" width="11" height="26" fill="rgb(80,94,225)" stroke="rgb(64,75,180)" stroke-width="1" opacity="0.75" />
		</g>
		<g>
			<title>PF00512</title>
			<rect class="PF00512" x="378" y="18" stroke-linejoin="round" width="6" height="26" fill="rgb(193,125,62)" stroke="rgb(154,100,49)" stroke-width="1" opacity="0.75" />
		</g>
		<g>
			<title>PF00672</title>
			<rect class="PF00672" x="385" y="18" stroke-linejoin="round" width="7" height="26" fill="rgb(124,89,195)" stroke="rgb(99,71,156)" stroke-width="1" opacity="0.75" />
		</g>
	</g>
	<g>
		<title>jer6</title>
		<polygon class="jer6" points="419,16 430,16 430,1 460,31 430,61 430,46 419,46" fill="rgb(210,178,251)" fill-opacity="1.0" stroke="rgb(84,71,100)" stroke-width="1" />
		<g>
			<title>PF05762</title>
			<polygon class="PF05762" points="436,18 444,18 457,31 444,44 436,44" stroke-linejoin="round" width="22" height="26" fill="rgb(222,87,201)" stroke="rgb(177,69,160)" stroke-width="1" opacity="0.75" />
		</g>
	</g>
	<g>
		<title>jerA</title>
		<polygon class="jerA" points="526,16 603,16 603,1 633,31 603,61 603,46 526,46" fill="rgb(202,231,250)" fill-opacity="1.0" stroke="rgb(80,92,100)" stroke-width="1" />
		<g>
			<title>PF00109</title>
			<rect class="PF00109" x="529" y="18" stroke-linejoin="round" width="24" height="26" fill="rgb(112,116,228)" stroke="rgb(89,92,182)" stroke-width="1" opacity="0.75" />
		</g>
		<g>
			<title>PF02801</title>
			<rect class="PF02801" x="555" y="18" stroke-linejoin="round" width="11" height="26" fill="rgb(215,78,102)" stroke="rgb(172,62,81)" stroke-width="1" opacity="0.75" />
		</g>
		<g>
			<title>PF16197</title>
			<rect class="PF16197" x="567" y="18" stroke-linejoin="round" width="12" height="26" fill="rgb(68,179,89)" stroke="rgb(54,143,71)" stroke-width="1" opacity="0.75" />
		</g>
		<g>
			<title>PF00698</title>
			<rect class="PF00698" x="583" y="18" stroke-linejoin="round" width="31" height="26" fill="rgb(59,176,209)" stroke="rgb(47,140,167)" stroke-width="1" opacity="0.75" />
		</g>
		<g>
			<title>PF00550</title>
			<polygon class="PF00550" points="621,22 627,28 627,34 621,40" stroke-linejoin="round" width="6" height="26" fill="rgb(103,191,88)" stroke="rgb(82,152,70)" stroke-width="1" opacity="0.75" />
		</g>
	</g>
	<g>
		<title>jerB</title>
		<polygon class="jerB" points="635,16 973,16 973,1 1003,31 973,61 973,46 635,46" fill="rgb(253,227,180)" fill-opacity="1.0" stroke="rgb(101,90,72)" stroke-width="1" />
		<g>
			<title>PF00109</title>
			<rect class="PF00109" x="638" y="18" stroke-linejoin="round" width="25" height="26" fill="rgb(112,116,228)" stroke="rgb(89,92,182)" stroke-width="1" opacity="0.75" />
		</g>
		<g>
			<title>PF02801</title>
			<rect class="PF02801" x="664" y="18" stroke-linejoin="round" width="11" height="26" fill="rgb(215,78,102)" stroke="rgb(172,62,81)" stroke-width="1" opacity="0.75" />
		</g>
		<g>
			<title>PF16197</title>
			<rect class="PF16197" x="676" y="18" stroke-linejoin="round" width="11" height="26" fill="rgb(68,179,89)" stroke="rgb(54,143,71)" stroke-width="1" opacity="0.75" />
		</g>
		<g>
			<title>PF00698</title>
			<rect class="PF00698" x="691" y="18" stroke-linejoin="round" width="31" height="26" fill="rgb(59,176,209)" stroke="rgb(47,140,167)" stroke-width="1" opacity="0.75" />
		</g>
		<g>
			<title>PF08659</title>
			<rect class="PF08659" x="747" y="18" stroke-linejoin="round" width="18" height="26" fill="rgb(66,209,188)" stroke="rgb(52,167,150)" stroke-width="1" opacity="0.75" />
		</g>
		<g>
			<title>PF00550</title>
			<rect class="PF00550" x="777" y="18" stroke-linejoin="round" width="6" height="26" fill="rgb(103,191,88)" stroke="rgb(82,152,70)" stroke-width="1" opacity="0.75" />
		</g>
		<g>
			<title>PF00109</title>
			<rect class="PF00109" x="785" y="18" stroke-linejoin="round" width="25" height="26" fill="rgb(112,116,228)" stroke="rgb(89,92,182)" stroke-width="1" opacity="0.75" />
		</g>
		<g>
			<title>PF02801</title>
			<rect class="PF02801" x="811" y="18" stroke-linejoin="round" width="11" height="26" fill="rgb(215,78,102)" stroke="rgb(172,62,81)" stroke-width="1" opacity="0.75" />
		</g>
		<g>
			<title>PF16197</title>
			<rect class="PF16197" x="823" y="18" stroke-linejoin="round" width="11" height="26" fill="rgb(68,179,89)" stroke="rgb(54,143,71)" stroke-width="1" opacity="0.75" />
		</g>
		<g>
			<title>PF00698</title>
			<rect class="PF00698" x="839" y="18" stroke-linejoin="round" width="32" height="26" fill="rgb(59,176,209)" stroke="rgb(47,140,167)" stroke-width="1" opacity="0.75" />
		</g>
		<g>
			<title>PF14765</title>
			<rect class="PF14765" x="876" y="18" stroke-linejoin="round" width="28" height="26" fill="rgb(173,56,182)" stroke="rgb(138,44,145)" stroke-width="1" opacity="0.75" />
		</g>
		<g>
			<title>PF13602</title>
			<rect class="PF13602" x="943" y="18" stroke-linejoin="round" width="13" height="26" fill="rgb(101,131,226)" stroke="rgb(80,104,180)" stroke-width="1" opacity="0.75" />
		</g>
		<g>
			<title>PF08659</title>
			<rect class="PF08659" x="958" y="18" stroke-linejoin="round" width="18" height="26" fill="rgb(66,209,188)" stroke="rgb(52,167,150)" stroke-width="1" opacity="0.75" />
		</g>
		<g>
			<title>PF00550</title>
			<polygon class="PF00550" points="987,18 987,18 993,24 993,38 987,44 987,44" stroke-linejoin="round" width="6" height="26" fill="rgb(103,191,88)" stroke="rgb(82,152,70)" stroke-width="1" opacity="0.75" />
		</g>
	</g>
</svg>
