<svg version="1.1" baseProfile="full" xmlns="http://www.w3.org/2000/svg" width="557" height="62">
	<line x1="1" y1="31" x2="556" y2="31" style="stroke:rgb(50,50,50); stroke-width:3 "/>
	<g>
		<title>remI</title>
		<polygon class="remI" points="244,16 244,16 244,1 259,31 244,61 244,46 244,46" fill="rgb(248,249,194)" fill-opacity="1.0" stroke="rgb(99,99,77)" stroke-width="1" />
		<g>
			<title>PF03364</title>
			<polygon class="PF03364" points="245,18 250,18 256,31 250,44 245,44" stroke-linejoin="round" width="13" height="26" fill="rgb(221,94,106)" stroke="rgb(176,75,84)" stroke-width="1" opacity="0.75" />
		</g>
	</g>
	<g>
		<title>remJ</title>
		<polygon class="remJ" points="261,16 264,16 264,1 294,31 264,61 264,46 261,46" fill="rgb(200,251,197)" fill-opacity="1.0" stroke="rgb(80,100,78)" stroke-width="1" />
		<g>
			<title>PF00294</title>
			<polygon class="PF00294" points="262,18 278,18 290,30 290,32 278,44 262,44" stroke-linejoin="round" width="28" height="26" fill="rgb(153,96,212)" stroke="rgb(122,76,169)" stroke-width="1" opacity="0.75" />
		</g>
	</g>
	<g>
		<title>remK</title>
		<polygon class="remK" points="300,16 300,16 300,1 316,31 300,61 300,46 300,46" fill="rgb(185,206,251)" fill-opacity="1.0" stroke="rgb(74,82,100)" stroke-width="1" />
		<g>
			<title>PF04191</title>
			<polygon class="PF04191" points="301,18 306,18 311,26 311,36 306,44 301,44" stroke-linejoin="round" width="10" height="26" fill="rgb(82,89,182)" stroke="rgb(65,71,145)" stroke-width="1" opacity="0.75" />
		</g>
	</g>
	<g>
		<title>remL</title>
		<polygon class="remL" points="316,16 316,16 316,1 343,31 316,61 316,46 316,46" fill="rgb(201,251,247)" fill-opacity="1.0" stroke="rgb(80,100,98)" stroke-width="1" />
		<g>
			<title>PF04199</title>
			<polygon class="PF04199" points="316,18 328,18 335,26 335,36 328,44 316,44" stroke-linejoin="round" width="19" height="26" fill="rgb(140,47,181)" stroke="rgb(112,37,144)" stroke-width="1" opacity="0.75" />
		</g>
	</g>
	<g>
		<title>remE</title>
		<polygon class="remE" points="347,16 359,16 359,1 389,31 359,61 359,46 347,46" fill="rgb(194,254,211)" fill-opacity="1.0" stroke="rgb(77,101,84)" stroke-width="1" />
		<g>
			<title>PF00698</title>
			<polygon class="PF00698" points="356,18 373,18 386,31 386,31 373,44 356,44" stroke-linejoin="round" width="30" height="26" fill="rgb(59,176,209)" stroke="rgb(47,140,167)" stroke-width="1" opacity="0.75" />
		</g>
	</g>
	<g>
		<title>remM</title>
		<polygon class="remM" points="391,16 391,16 391,1 410,31 391,61 391,46 391,46" fill="rgb(212,251,240)" fill-opacity="1.0" stroke="rgb(84,100,96)" stroke-width="1" />
		<g>
			<title>PF00440</title>
			<rect class="PF00440" x="393" y="18" stroke-linejoin="round" width="4" height="26" fill="rgb(73,212,190)" stroke="rgb(58,169,152)" stroke-width="1" opacity="0.75" />
		</g>
		<g>
			<title>PF16859</title>
			<polygon class="PF16859" points="399,18 399,18 407,31 399,44 399,44" stroke-linejoin="round" width="10" height="26" fill="rgb(219,77,198)" stroke="rgb(175,61,158)" stroke-width="1" opacity="0.75" />
		</g>
	</g>
	<g>
		<title>remO</title>
		<polygon class="remO" points="451,16 441,16 441,1 411,31 441,61 441,46 451,46" fill="rgb(214,187,251)" fill-opacity="1.0" stroke="rgb(85,74,100)" stroke-width="1" />
		<g>
			<title>PF01494</title>
			<polygon class="PF01494" points="416,28 426,18 450,18 450,44 426,44 416,33" stroke-linejoin="round" width="34" height="26" fill="rgb(182,175,59)" stroke="rgb(145,140,47)" stroke-width="1" opacity="0.75" />
		</g>
	</g>
	<g>
		<title>remN</title>
		<polygon class="remN" points="504,16 483,16 483,1 453,31 483,61 483,46 504,46" fill="rgb(187,250,201)" fill-opacity="1.0" stroke="rgb(74,100,80)" stroke-width="1" />
		<g>
			<title>PF07690</title>
			<polygon class="PF07690" points="463,23 468,18 503,18 503,44 468,44 463,38" stroke-linejoin="round" width="40" height="26" fill="rgb(193,224,74)" stroke="rgb(154,179,59)" stroke-width="1" opacity="0.75" />
		</g>
	</g>
	<g>
		<title>remP</title>
		<polygon class="remP" points="529,16 529,16 529,1 507,31 529,61 529,46 529,46" fill="rgb(221,212,250)" fill-opacity="1.0" stroke="rgb(88,84,100)" stroke-width="1" />
		<g>
			<title>PF00196</title>
			<polygon class="PF00196" points="509,31 513,26 513,35" stroke-linejoin="round" width="5" height="26" fill="rgb(219,94,82)" stroke="rgb(175,75,65)" stroke-width="1" opacity="0.75" />
		</g>
		<g>
			<title>PF00072</title>
			<polygon class="PF00072" points="517,20 519,18 528,18 528,44 519,44 517,41" stroke-linejoin="round" width="11" height="26" fill="rgb(100,107,203)" stroke="rgb(80,85,162)" stroke-width="1" opacity="0.75" />
		</g>
	</g>
	<g>
		<title>remQ</title>
		<polygon class="remQ" points="28,16 28,16 28,1 9,31 28,61 28,46 28,46" fill="rgb(235,253,179)" fill-opacity="1.0" stroke="rgb(94,101,71)" stroke-width="1" />
		<g>
			<title>PF00440</title>
			<rect class="PF00440" x="22" y="18" stroke-linejoin="round" width="4" height="26" fill="rgb(73,212,190)" stroke="rgb(58,169,152)" stroke-width="1" opacity="0.75" />
		</g>
	</g>
	<g>
		<title>remR</title>
		<polygon class="remR" points="43,16 43,16 43,1 28,31 43,61 43,46 43,46" fill="rgb(250,193,226)" fill-opacity="1.0" stroke="rgb(100,77,90)" stroke-width="1" />
		<g>
			<title>PF00440</title>
			<polygon class="PF00440" points="37,17 37,18 41,18 41,44 37,44 37,44" stroke-linejoin="round" width="4" height="26" fill="rgb(73,212,190)" stroke="rgb(58,169,152)" stroke-width="1" opacity="0.75" />
		</g>
	</g>
	<g>
		<title>remF</title>
		<polygon class="remF" points="52,16 52,16 52,1 66,31 52,61 52,46 52,46" fill="rgb(197,251,191)" fill-opacity="1.0" stroke="rgb(78,100,76)" stroke-width="1" />
		<g>
			<title>PF07883</title>
			<polygon class="PF07883" points="56,18 57,18 63,30 63,32 57,44 56,44" stroke-linejoin="round" width="7" height="26" fill="rgb(211,192,74)" stroke="rgb(168,153,59)" stroke-width="1" opacity="0.75" />
		</g>
	</g>
	<g>
		<title>remG</title>
		<polygon class="remG" points="66,16 71,16 71,1 101,31 71,61 71,46 66,46" fill="rgb(230,178,253)" fill-opacity="1.0" stroke="rgb(92,71,101)" stroke-width="1" />
		<g>
			<title>PF16864</title>
			<rect class="PF16864" x="68" y="18" stroke-linejoin="round" width="8" height="26" fill="rgb(84,199,85)" stroke="rgb(67,159,68)" stroke-width="1" opacity="0.75" />
		</g>
		<g>
			<title>PF00891</title>
			<polygon class="PF00891" points="77,18 85,18 98,31 85,44 77,44" stroke-linejoin="round" width="22" height="26" fill="rgb(50,51,190)" stroke="rgb(39,40,152)" stroke-width="1" opacity="0.75" />
		</g>
	</g>
	<g>
		<title>remH</title>
		<polygon class="remH" points="101,16 105,16 105,1 135,31 105,61 105,46 101,46" fill="rgb(251,202,181)" fill-opacity="1.0" stroke="rgb(100,80,72)" stroke-width="1" />
		<g>
			<title>PF16864</title>
			<rect class="PF16864" x="103" y="18" stroke-linejoin="round" width="8" height="26" fill="rgb(84,199,85)" stroke="rgb(67,159,68)" stroke-width="1" opacity="0.75" />
		</g>
		<g>
			<title>PF13649</title>
			<polygon class="PF13649" points="119,18 119,18 128,27 128,35 119,44 119,44" stroke-linejoin="round" width="9" height="26" fill="rgb(227,135,74)" stroke="rgb(181,108,59)" stroke-width="1" opacity="0.75" />
		</g>
	</g>
	<g>
		<title>remA</title>
		<polygon class="remA" points="136,16 148,16 148,1 178,31 148,61 148,46 136,46" fill="rgb(221,181,252)" fill-opacity="1.0" stroke="rgb(88,72,100)" stroke-width="1" />
		<g>
			<title>PF00109</title>
			<rect class="PF00109" x="136" y="18" stroke-linejoin="round" width="25" height="26" fill="rgb(112,116,228)" stroke="rgb(89,92,182)" stroke-width="1" opacity="0.75" />
		</g>
		<g>
			<title>PF02801</title>
			<polygon class="PF02801" points="162,18 162,18 173,29 173,33 162,44 162,44" stroke-linejoin="round" width="11" height="26" fill="rgb(215,78,102)" stroke="rgb(172,62,81)" stroke-width="1" opacity="0.75" />
		</g>
	</g>
	<g>
		<title>remB</title>
		<polygon class="remB" points="179,16 190,16 190,1 220,31 190,61 190,46 179,46" fill="rgb(251,214,206)" fill-opacity="1.0" stroke="rgb(100,85,82)" stroke-width="1" />
		<g>
			<title>PF00109</title>
			<rect class="PF00109" x="179" y="18" stroke-linejoin="round" width="24" height="26" fill="rgb(112,116,228)" stroke="rgb(89,92,182)" stroke-width="1" opacity="0.75" />
		</g>
		<g>
			<title>PF02801</title>
			<polygon class="PF02801" points="204,18 204,18 215,29 215,33 204,44 204,44" stroke-linejoin="round" width="11" height="26" fill="rgb(215,78,102)" stroke="rgb(172,62,81)" stroke-width="1" opacity="0.75" />
		</g>
	</g>
	<g>
		<title>remD</title>
		<polygon class="remD" points="219,16 219,16 219,1 233,31 219,61 219,46 219,46" fill="rgb(254,242,187)" fill-opacity="1.0" stroke="rgb(101,96,74)" stroke-width="1" />
		<g>
			<title>PF01648</title>
			<polygon class="PF01648" points="221,18 224,18 230,31 224,44 221,44" stroke-linejoin="round" width="11" height="26" fill="rgb(85,184,135)" stroke="rgb(68,147,108)" stroke-width="1" opacity="0.75" />
		</g>
	</g>
	<g>
		<title>remC</title>
		<polygon class="remC" points="235,16 235,16 235,1 243,31 235,61 235,46 235,46" fill="rgb(179,208,251)" fill-opacity="1.0" stroke="rgb(71,83,100)" stroke-width="1" />
		<g>
			<title>PF00550</title>
			<polygon class="PF00550" points="235,18 237,18 240,31 237,44 235,44" stroke-linejoin="round" width="6" height="26" fill="rgb(103,191,88)" stroke="rgb(82,152,70)" stroke-width="1" opacity="0.75" />
		</g>
	</g>
</svg>
