<svg version="1.1" baseProfile="full" xmlns="http://www.w3.org/2000/svg" width="2052" height="62">
	<line x1="1" y1="31" x2="2051" y2="31" style="stroke:rgb(50,50,50); stroke-width:3 "/>
	<g>
		<title>lct10</title>
		<polygon class="lct10" points="251,16 265,16 265,1 295,31 265,61 265,46 251,46" fill="rgb(222,252,180)" fill-opacity="1.0" stroke="rgb(88,100,72)" stroke-width="1" />
		<g>
			<title>PF00067</title>
			<polygon class="PF00067" points="280,19 291,30 291,32 280,43" stroke-linejoin="round" width="11" height="26" fill="rgb(85,216,107)" stroke="rgb(68,172,85)" stroke-width="1" opacity="0.75" />
		</g>
	</g>
	<g>
		<title>lct11</title>
		<polygon class="lct11" points="295,16 295,16 295,1 320,31 295,61 295,46 295,46" fill="rgb(251,232,189)" fill-opacity="1.0" stroke="rgb(100,92,75)" stroke-width="1" />
	</g>
	<g>
		<title>lct12</title>
		<polygon class="lct12" points="321,16 321,16 321,1 346,31 321,61 321,46 321,46" fill="rgb(249,185,209)" fill-opacity="1.0" stroke="rgb(99,74,83)" stroke-width="1" />
		<g>
			<title>PF13561</title>
			<polygon class="PF13561" points="322,18 332,18 343,31 332,44 322,44" stroke-linejoin="round" width="23" height="26" fill="rgb(73,205,127)" stroke="rgb(58,164,101)" stroke-width="1" opacity="0.75" />
		</g>
	</g>
	<g>
		<title>lct13</title>
		<polygon class="lct13" points="349,16 349,16 349,1 371,31 349,61 349,46 349,46" fill="rgb(198,188,254)" fill-opacity="1.0" stroke="rgb(79,75,101)" stroke-width="1" />
		<g>
			<title>PF00440</title>
			<rect class="PF00440" x="350" y="18" stroke-linejoin="round" width="4" height="26" fill="rgb(73,212,190)" stroke="rgb(58,169,152)" stroke-width="1" opacity="0.75" />
		</g>
	</g>
	<g>
		<title>lct14</title>
		<polygon class="lct14" points="380,16 380,16 380,1 396,31 380,61 380,46 380,46" fill="rgb(253,250,214)" fill-opacity="1.0" stroke="rgb(101,100,85)" stroke-width="1" />
		<g>
			<title>PF00440</title>
			<rect class="PF00440" x="381" y="18" stroke-linejoin="round" width="4" height="26" fill="rgb(73,212,190)" stroke="rgb(58,169,152)" stroke-width="1" opacity="0.75" />
		</g>
	</g>
	<g>
		<title>lct15</title>
		<polygon class="lct15" points="411,16 411,16 411,1 438,31 411,61 411,46 411,46" fill="rgb(251,200,234)" fill-opacity="1.0" stroke="rgb(100,80,93)" stroke-width="1" />
		<g>
			<title>PF00486</title>
			<rect class="PF00486" x="412" y="18" stroke-linejoin="round" width="6" height="26" fill="rgb(204,153,57)" stroke="rgb(163,122,45)" stroke-width="1" opacity="0.75" />
		</g>
		<g>
			<title>PF03704</title>
			<polygon class="PF03704" points="421,18 423,18 435,31 435,31 423,44 421,44" stroke-linejoin="round" width="14" height="26" fill="rgb(217,89,196)" stroke="rgb(173,71,156)" stroke-width="1" opacity="0.75" />
		</g>
	</g>
	<g>
		<title>lct16</title>
		<polygon class="lct16" points="446,16 466,16 466,1 496,31 466,61 466,46 446,46" fill="rgb(253,232,191)" fill-opacity="1.0" stroke="rgb(101,92,76)" stroke-width="1" />
		<g>
			<title>PF01494</title>
			<rect class="PF01494" x="446" y="18" stroke-linejoin="round" width="34" height="26" fill="rgb(182,175,59)" stroke="rgb(145,140,47)" stroke-width="1" opacity="0.75" />
		</g>
	</g>
	<g>
		<title>lct17</title>
		<polygon class="lct17" points="504,16 506,16 506,1 536,31 506,61 506,46 504,46" fill="rgb(253,201,236)" fill-opacity="1.0" stroke="rgb(101,80,94)" stroke-width="1" />
		<g>
			<title>PF00294</title>
			<polygon class="PF00294" points="504,18 520,18 533,31 533,31 520,44 504,44" stroke-linejoin="round" width="29" height="26" fill="rgb(153,96,212)" stroke="rgb(122,76,169)" stroke-width="1" opacity="0.75" />
		</g>
	</g>
	<g>
		<title>lct18</title>
		<polygon class="lct18" points="539,16 622,16 622,1 652,31 622,61 622,46 539,46" fill="rgb(254,196,228)" fill-opacity="1.0" stroke="rgb(101,78,91)" stroke-width="1" />
		<g>
			<title>PF02574</title>
			<rect class="PF02574" x="539" y="18" stroke-linejoin="round" width="28" height="26" fill="rgb(130,111,228)" stroke="rgb(103,88,182)" stroke-width="1" opacity="0.75" />
		</g>
		<g>
			<title>PF00809</title>
			<rect class="PF00809" x="571" y="18" stroke-linejoin="round" width="23" height="26" fill="rgb(192,119,62)" stroke="rgb(153,95,49)" stroke-width="1" opacity="0.75" />
		</g>
		<g>
			<title>PF02607</title>
			<rect class="PF02607" x="600" y="18" stroke-linejoin="round" width="7" height="26" fill="rgb(190,55,206)" stroke="rgb(152,44,164)" stroke-width="1" opacity="0.75" />
		</g>
		<g>
			<title>PF02310</title>
			<rect class="PF02310" x="609" y="18" stroke-linejoin="round" width="12" height="26" fill="rgb(145,190,60)" stroke="rgb(115,152,48)" stroke-width="1" opacity="0.75" />
		</g>
		<g>
			<title>PF02965</title>
			<polygon class="PF02965" points="630,18 636,18 649,31 636,44 630,44" stroke-linejoin="round" width="21" height="26" fill="rgb(60,212,227)" stroke="rgb(48,169,181)" stroke-width="1" opacity="0.75" />
		</g>
	</g>
	<g>
		<title>lct19</title>
		<polygon class="lct19" points="652,16 652,16 652,1 680,31 652,61 652,46 652,46" fill="rgb(252,192,204)" fill-opacity="1.0" stroke="rgb(100,76,81)" stroke-width="1" />
		<g>
			<title>PF02219</title>
			<polygon class="PF02219" points="652,18 665,18 677,31 665,44 652,44" stroke-linejoin="round" width="27" height="26" fill="rgb(209,76,219)" stroke="rgb(167,60,175)" stroke-width="1" opacity="0.75" />
		</g>
	</g>
	<g>
		<polygon class="NoName" points="1,16 1,16 1,1 29,31 1,61 1,46 1,46" fill="rgb(255,255,255)" fill-opacity="1.0" stroke="rgb(50,50,50)" stroke-width="1" />
		<g>
			<title>PF00264</title>
			<polygon class="PF00264" points="3,18 14,18 24,29 24,33 14,44 3,44" stroke-linejoin="round" width="21" height="26" fill="rgb(87,199,223)" stroke="rgb(69,159,178)" stroke-width="1" opacity="0.75" />
		</g>
	</g>
	<g>
		<title>lct20</title>
		<polygon class="lct20" points="682,16 699,16 699,1 729,31 699,61 699,46 682,46" fill="rgb(211,254,252)" fill-opacity="1.0" stroke="rgb(84,101,100)" stroke-width="1" />
		<g>
			<title>PF05221</title>
			<polygon class="PF05221" points="682,18 713,18 726,31 713,44 682,44" stroke-linejoin="round" width="46" height="26" fill="rgb(55,203,152)" stroke="rgb(44,162,121)" stroke-width="1" opacity="0.75" />
		</g>
	</g>
	<g>
		<title>lct21</title>
		<polygon class="lct21" points="742,16 742,16 742,1 764,31 742,61 742,46 742,46" fill="rgb(189,252,207)" fill-opacity="1.0" stroke="rgb(75,100,82)" stroke-width="1" />
		<g>
			<title>PF00486</title>
			<rect class="PF00486" x="743" y="18" stroke-linejoin="round" width="8" height="26" fill="rgb(204,153,57)" stroke="rgb(163,122,45)" stroke-width="1" opacity="0.75" />
		</g>
		<g>
			<title>PF03704</title>
			<polygon class="PF03704" points="751,18 751,18 761,31 761,31 751,44 751,44" stroke-linejoin="round" width="10" height="26" fill="rgb(217,89,196)" stroke="rgb(173,71,156)" stroke-width="1" opacity="0.75" />
		</g>
	</g>
	<g>
		<title>lct22</title>
		<polygon class="lct22" points="764,16 785,16 785,1 815,31 785,61 785,46 764,46" fill="rgb(199,251,234)" fill-opacity="1.0" stroke="rgb(79,100,93)" stroke-width="1" />
		<g>
			<title>PF00486</title>
			<rect class="PF00486" x="766" y="18" stroke-linejoin="round" width="7" height="26" fill="rgb(204,153,57)" stroke="rgb(163,122,45)" stroke-width="1" opacity="0.75" />
		</g>
		<g>
			<title>PF03704</title>
			<rect class="PF03704" x="774" y="18" stroke-linejoin="round" width="14" height="26" fill="rgb(217,89,196)" stroke="rgb(173,71,156)" stroke-width="1" opacity="0.75" />
		</g>
	</g>
	<g>
		<title>lct23</title>
		<polygon class="lct23" points="831,16 863,16 863,1 893,31 863,61 863,46 831,46" fill="rgb(253,192,227)" fill-opacity="1.0" stroke="rgb(101,76,90)" stroke-width="1" />
		<g>
			<title>PF00486</title>
			<rect class="PF00486" x="832" y="18" stroke-linejoin="round" width="7" height="26" fill="rgb(204,153,57)" stroke="rgb(163,122,45)" stroke-width="1" opacity="0.75" />
		</g>
		<g>
			<title>PF03704</title>
			<rect class="PF03704" x="841" y="18" stroke-linejoin="round" width="14" height="26" fill="rgb(217,89,196)" stroke="rgb(173,71,156)" stroke-width="1" opacity="0.75" />
		</g>
		<g>
			<title>PF00931</title>
			<polygon class="PF00931" points="859,18 877,18 883,24 883,38 877,44 859,44" stroke-linejoin="round" width="24" height="26" fill="rgb(165,94,211)" stroke="rgb(132,75,168)" stroke-width="1" opacity="0.75" />
		</g>
	</g>
	<g>
		<title>lct24</title>
		<polygon class="lct24" points="896,16 896,16 896,1 905,31 896,61 896,46 896,46" fill="rgb(229,254,200)" fill-opacity="1.0" stroke="rgb(91,101,80)" stroke-width="1" />
		<g>
			<title>PF00550</title>
			<polygon class="PF00550" points="896,18 898,18 902,31 898,44 896,44" stroke-linejoin="round" width="7" height="26" fill="rgb(103,191,88)" stroke="rgb(82,152,70)" stroke-width="1" opacity="0.75" />
		</g>
	</g>
	<g>
		<title>lct25</title>
		<polygon class="lct25" points="906,16 911,16 911,1 941,31 911,61 911,46 906,46" fill="rgb(197,243,250)" fill-opacity="1.0" stroke="rgb(78,97,100)" stroke-width="1" />
		<g>
			<title>PF00891</title>
			<polygon class="PF00891" points="917,18 925,18 938,31 925,44 917,44" stroke-linejoin="round" width="23" height="26" fill="rgb(50,51,190)" stroke="rgb(39,40,152)" stroke-width="1" opacity="0.75" />
		</g>
	</g>
	<g>
		<title>lct26</title>
		<polygon class="lct26" points="942,16 942,16 942,1 950,31 942,61 942,46 942,46" fill="rgb(249,250,208)" fill-opacity="1.0" stroke="rgb(99,100,83)" stroke-width="1" />
		<g>
			<title>PF00550</title>
			<polygon class="PF00550" points="942,18 944,18 947,31 944,44 942,44" stroke-linejoin="round" width="6" height="26" fill="rgb(103,191,88)" stroke="rgb(82,152,70)" stroke-width="1" opacity="0.75" />
		</g>
	</g>
	<g>
		<title>lct27</title>
		<polygon class="lct27" points="950,16 950,16 950,1 965,31 950,61 950,46 950,46" fill="rgb(244,254,180)" fill-opacity="1.0" stroke="rgb(97,101,72)" stroke-width="1" />
		<g>
			<title>PF10604</title>
			<polygon class="PF10604" points="950,18 956,18 962,31 956,44 950,44" stroke-linejoin="round" width="14" height="26" fill="rgb(105,204,74)" stroke="rgb(84,163,59)" stroke-width="1" opacity="0.75" />
		</g>
	</g>
	<g>
		<title>lct28</title>
		<polygon class="lct28" points="967,16 988,16 988,1 1018,31 988,61 988,46 967,46" fill="rgb(241,253,187)" fill-opacity="1.0" stroke="rgb(96,101,74)" stroke-width="1" />
		<g>
			<title>PF00501</title>
			<polygon class="PF00501" points="968,18 1002,18 1008,24 1008,38 1002,44 968,44" stroke-linejoin="round" width="40" height="26" fill="rgb(60,217,223)" stroke="rgb(48,173,178)" stroke-width="1" opacity="0.75" />
		</g>
		<g>
			<title>PF13193</title>
			<polygon class="PF13193" points="1009,25 1015,31 1009,37" stroke-linejoin="round" width="7" height="26" fill="rgb(182,50,118)" stroke="rgb(145,39,94)" stroke-width="1" opacity="0.75" />
		</g>
	</g>
	<g>
		<title>lct29</title>
		<polygon class="lct29" points="1020,16 1020,16 1020,1 1031,31 1020,61 1020,46 1020,46" fill="rgb(228,251,185)" fill-opacity="1.0" stroke="rgb(91,100,74)" stroke-width="1" />
		<g>
			<title>PF04673</title>
			<polygon class="PF04673" points="1020,18 1023,18 1028,31 1023,44 1020,44" stroke-linejoin="round" width="10" height="26" fill="rgb(49,187,78)" stroke="rgb(39,149,62)" stroke-width="1" opacity="0.75" />
		</g>
	</g>
	<g>
		<polygon class="NoName" points="42,16 42,16 42,1 33,31 42,61 42,46 42,46" fill="rgb(255,255,255)" fill-opacity="1.0" stroke="rgb(50,50,50)" stroke-width="1" />
		<g>
			<title>PF03777</title>
			<polygon class="PF03777" points="35,31 39,18 40,18 40,44 39,44" stroke-linejoin="round" width="5" height="26" fill="rgb(97,98,208)" stroke="rgb(77,78,166)" stroke-width="1" opacity="0.75" />
		</g>
	</g>
	<g>
		<title>lct30</title>
		<polygon class="lct30" points="1034,16 1034,16 1034,1 1047,31 1034,61 1034,46 1034,46" fill="rgb(183,253,181)" fill-opacity="1.0" stroke="rgb(73,101,72)" stroke-width="1" />
		<g>
			<title>PF07883</title>
			<polygon class="PF07883" points="1037,18 1038,18 1044,30 1044,32 1038,44 1037,44" stroke-linejoin="round" width="7" height="26" fill="rgb(211,192,74)" stroke="rgb(168,153,59)" stroke-width="1" opacity="0.75" />
		</g>
	</g>
	<g>
		<title>lct31</title>
		<polygon class="lct31" points="1048,16 1060,16 1060,1 1090,31 1060,61 1060,46 1048,46" fill="rgb(254,192,239)" fill-opacity="1.0" stroke="rgb(101,76,95)" stroke-width="1" />
		<g>
			<title>PF00109</title>
			<rect class="PF00109" x="1048" y="18" stroke-linejoin="round" width="25" height="26" fill="rgb(112,116,228)" stroke="rgb(89,92,182)" stroke-width="1" opacity="0.75" />
		</g>
		<g>
			<title>PF02801</title>
			<polygon class="PF02801" points="1073,18 1074,18 1084,28 1084,34 1074,44 1073,44" stroke-linejoin="round" width="11" height="26" fill="rgb(215,78,102)" stroke="rgb(172,62,81)" stroke-width="1" opacity="0.75" />
		</g>
	</g>
	<g>
		<title>lct32</title>
		<polygon class="lct32" points="1090,16 1100,16 1100,1 1130,31 1100,61 1100,46 1090,46" fill="rgb(254,210,200)" fill-opacity="1.0" stroke="rgb(101,84,80)" stroke-width="1" />
		<g>
			<title>PF00109</title>
			<rect class="PF00109" x="1090" y="18" stroke-linejoin="round" width="24" height="26" fill="rgb(112,116,228)" stroke="rgb(89,92,182)" stroke-width="1" opacity="0.75" />
		</g>
		<g>
			<title>PF02801</title>
			<polygon class="PF02801" points="1115,19 1126,30 1126,32 1115,43" stroke-linejoin="round" width="11" height="26" fill="rgb(215,78,102)" stroke="rgb(172,62,81)" stroke-width="1" opacity="0.75" />
		</g>
	</g>
	<g>
		<title>lct33</title>
		<polygon class="lct33" points="1131,16 1131,16 1131,1 1142,31 1131,61 1131,46 1131,46" fill="rgb(253,213,219)" fill-opacity="1.0" stroke="rgb(101,85,87)" stroke-width="1" />
		<g>
			<title>PF03992</title>
			<polygon class="PF03992" points="1132,18 1134,18 1139,29 1139,33 1134,44 1132,44" stroke-linejoin="round" width="7" height="26" fill="rgb(193,84,127)" stroke="rgb(154,67,101)" stroke-width="1" opacity="0.75" />
		</g>
	</g>
	<g>
		<title>lct34</title>
		<polygon class="lct34" points="1144,16 1144,16 1144,1 1168,31 1144,61 1144,46 1144,46" fill="rgb(254,208,229)" fill-opacity="1.0" stroke="rgb(101,83,91)" stroke-width="1" />
		<g>
			<title>PF00975</title>
			<polygon class="PF00975" points="1145,18 1155,18 1165,31 1155,44 1145,44" stroke-linejoin="round" width="22" height="26" fill="rgb(207,80,138)" stroke="rgb(165,63,110)" stroke-width="1" opacity="0.75" />
		</g>
	</g>
	<g>
		<title>lct35</title>
		<polygon class="lct35" points="1169,16 1171,16 1171,1 1201,31 1171,61 1171,46 1169,46" fill="rgb(251,246,187)" fill-opacity="1.0" stroke="rgb(100,98,74)" stroke-width="1" />
		<g>
			<title>PF16864</title>
			<rect class="PF16864" x="1169" y="18" stroke-linejoin="round" width="8" height="26" fill="rgb(84,199,85)" stroke="rgb(67,159,68)" stroke-width="1" opacity="0.75" />
		</g>
		<g>
			<title>PF00891</title>
			<polygon class="PF00891" points="1177,18 1185,18 1198,31 1185,44 1177,44" stroke-linejoin="round" width="22" height="26" fill="rgb(50,51,190)" stroke="rgb(39,40,152)" stroke-width="1" opacity="0.75" />
		</g>
	</g>
	<g>
		<title>lct36</title>
		<polygon class="lct36" points="1250,16 1237,16 1237,1 1207,31 1237,61 1237,46 1250,46" fill="rgb(191,253,190)" fill-opacity="1.0" stroke="rgb(76,101,76)" stroke-width="1" />
		<g>
			<title>PF06722</title>
			<polygon class="PF06722" points="1219,21 1222,18 1228,18 1228,44 1222,44 1219,40" stroke-linejoin="round" width="9" height="26" fill="rgb(200,129,88)" stroke="rgb(160,103,70)" stroke-width="1" opacity="0.75" />
		</g>
	</g>
	<g>
		<title>lct37</title>
		<polygon class="lct37" points="1256,16 1256,16 1256,1 1270,31 1256,61 1256,46 1256,46" fill="rgb(196,224,254)" fill-opacity="1.0" stroke="rgb(78,89,101)" stroke-width="1" />
		<g>
			<title>PF07366</title>
			<polygon class="PF07366" points="1256,18 1261,18 1267,31 1261,44 1256,44" stroke-linejoin="round" width="12" height="26" fill="rgb(206,89,111)" stroke="rgb(164,71,88)" stroke-width="1" opacity="0.75" />
		</g>
	</g>
	<g>
		<title>lct38</title>
		<polygon class="lct38" points="1323,16 1304,16 1304,1 1274,31 1304,61 1304,46 1323,46" fill="rgb(236,254,189)" fill-opacity="1.0" stroke="rgb(94,101,75)" stroke-width="1" />
		<g>
			<title>PF07690</title>
			<polygon class="PF07690" points="1283,24 1289,18 1322,18 1322,44 1289,44 1283,37" stroke-linejoin="round" width="39" height="26" fill="rgb(193,224,74)" stroke="rgb(154,179,59)" stroke-width="1" opacity="0.75" />
		</g>
	</g>
	<g>
		<title>lct39</title>
		<polygon class="lct39" points="1361,16 1358,16 1358,1 1328,31 1358,61 1358,46 1361,46" fill="rgb(198,250,234)" fill-opacity="1.0" stroke="rgb(79,100,93)" stroke-width="1" />
		<g>
			<title>PF01037</title>
			<polygon class="PF01037" points="1330,31 1337,24 1337,37" stroke-linejoin="round" width="7" height="26" fill="rgb(134,72,182)" stroke="rgb(107,57,145)" stroke-width="1" opacity="0.75" />
		</g>
		<g>
			<title>PF13404</title>
			<polygon class="PF13404" points="1339,22 1343,18 1343,43 1339,39" stroke-linejoin="round" width="4" height="26" fill="rgb(190,195,86)" stroke="rgb(152,156,68)" stroke-width="1" opacity="0.75" />
		</g>
		<g>
			<title>PF13404</title>
			<rect class="PF13404" x="1356" y="18" stroke-linejoin="round" width="4" height="26" fill="rgb(190,195,86)" stroke="rgb(152,156,68)" stroke-width="1" opacity="0.75" />
		</g>
	</g>
	<g>
		<polygon class="NoName" points="56,16 56,16 56,1 47,31 56,61 56,46 56,46" fill="rgb(255,255,255)" fill-opacity="1.0" stroke="rgb(50,50,50)" stroke-width="1" />
		<g>
			<title>PF00550</title>
			<polygon class="PF00550" points="49,31 53,18 54,18 54,44 53,44" stroke-linejoin="round" width="7" height="26" fill="rgb(103,191,88)" stroke="rgb(82,152,70)" stroke-width="1" opacity="0.75" />
		</g>
	</g>
	<g>
		<title>lct40</title>
		<polygon class="lct40" points="1390,16 1390,16 1390,1 1365,31 1390,61 1390,46 1390,46" fill="rgb(219,252,207)" fill-opacity="1.0" stroke="rgb(87,100,82)" stroke-width="1" />
		<g>
			<title>PF13561</title>
			<polygon class="PF13561" points="1367,31 1378,18 1388,18 1388,44 1378,44" stroke-linejoin="round" width="23" height="26" fill="rgb(73,205,127)" stroke="rgb(58,164,101)" stroke-width="1" opacity="0.75" />
		</g>
	</g>
	<g>
		<title>lct41</title>
		<polygon class="lct41" points="1398,16 1423,16 1423,1 1453,31 1423,61 1423,46 1398,46" fill="rgb(200,247,253)" fill-opacity="1.0" stroke="rgb(80,98,101)" stroke-width="1" />
		<g>
			<title>PF01494</title>
			<rect class="PF01494" x="1398" y="18" stroke-linejoin="round" width="36" height="26" fill="rgb(182,175,59)" stroke="rgb(145,140,47)" stroke-width="1" opacity="0.75" />
		</g>
	</g>
	<g>
		<title>lct42</title>
		<polygon class="lct42" points="1457,16 1457,16 1457,1 1467,31 1457,61 1457,46 1457,46" fill="rgb(206,184,250)" fill-opacity="1.0" stroke="rgb(82,73,100)" stroke-width="1" />
		<g>
			<title>PF03992</title>
			<polygon class="PF03992" points="1458,18 1460,18 1464,31 1460,44 1458,44" stroke-linejoin="round" width="7" height="26" fill="rgb(193,84,127)" stroke="rgb(154,67,101)" stroke-width="1" opacity="0.75" />
		</g>
	</g>
	<g>
		<title>lct43</title>
		<polygon class="lct43" points="1469,16 1469,16 1469,1 1499,31 1469,61 1469,46 1469,46" fill="rgb(250,226,211)" fill-opacity="1.0" stroke="rgb(100,90,84)" stroke-width="1" />
		<g>
			<title>PF08240</title>
			<rect class="PF08240" x="1471" y="18" stroke-linejoin="round" width="7" height="26" fill="rgb(211,65,138)" stroke="rgb(168,51,110)" stroke-width="1" opacity="0.75" />
		</g>
		<g>
			<title>PF13602</title>
			<polygon class="PF13602" points="1487,22 1496,31 1487,40" stroke-linejoin="round" width="11" height="26" fill="rgb(101,131,226)" stroke="rgb(80,104,180)" stroke-width="1" opacity="0.75" />
		</g>
	</g>
	<g>
		<title>lct44</title>
		<polygon class="lct44" points="1541,16 1538,16 1538,1 1508,31 1538,61 1538,46 1541,46" fill="rgb(253,199,190)" fill-opacity="1.0" stroke="rgb(101,79,76)" stroke-width="1" />
		<g>
			<title>PF01408</title>
			<rect class="PF01408" x="1529" y="18" stroke-linejoin="round" width="11" height="26" fill="rgb(76,117,190)" stroke="rgb(60,93,152)" stroke-width="1" opacity="0.75" />
		</g>
	</g>
	<g>
		<title>lct45</title>
		<polygon class="lct45" points="1588,16 1572,16 1572,1 1542,31 1572,61 1572,46 1588,46" fill="rgb(203,235,251)" fill-opacity="1.0" stroke="rgb(81,94,100)" stroke-width="1" />
		<g>
			<title>PF03559</title>
			<polygon class="PF03559" points="1544,31 1557,18 1562,18 1562,44 1557,44" stroke-linejoin="round" width="20" height="26" fill="rgb(74,201,66)" stroke="rgb(59,160,52)" stroke-width="1" opacity="0.75" />
		</g>
		<g>
			<title>PF03559</title>
			<rect class="PF03559" x="1564" y="18" stroke-linejoin="round" width="20" height="26" fill="rgb(74,201,66)" stroke="rgb(59,160,52)" stroke-width="1" opacity="0.75" />
		</g>
	</g>
	<g>
		<title>lct46</title>
		<polygon class="lct46" points="1630,16 1618,16 1618,1 1588,31 1618,61 1618,46 1630,46" fill="rgb(189,250,235)" fill-opacity="1.0" stroke="rgb(75,100,93)" stroke-width="1" />
		<g>
			<title>PF01041</title>
			<polygon class="PF01041" points="1590,31 1603,18 1626,18 1626,44 1603,44" stroke-linejoin="round" width="38" height="26" fill="rgb(59,139,191)" stroke="rgb(47,111,152)" stroke-width="1" opacity="0.75" />
		</g>
	</g>
	<g>
		<title>lct47</title>
		<polygon class="lct47" points="1663,16 1662,16 1662,1 1632,31 1662,61 1662,46 1663,46" fill="rgb(215,250,210)" fill-opacity="1.0" stroke="rgb(85,100,84)" stroke-width="1" />
		<g>
			<title>PF01370</title>
			<polygon class="PF01370" points="1640,25 1647,18 1662,18 1662,44 1647,44 1640,36" stroke-linejoin="round" width="22" height="26" fill="rgb(98,102,214)" stroke="rgb(78,81,171)" stroke-width="1" opacity="0.75" />
		</g>
	</g>
	<g>
		<title>lct48</title>
		<polygon class="lct48" points="1695,16 1693,16 1693,1 1663,31 1693,61 1693,46 1695,46" fill="rgb(251,196,189)" fill-opacity="1.0" stroke="rgb(100,78,75)" stroke-width="1" />
		<g>
			<title>PF16363</title>
			<polygon class="PF16363" points="1665,31 1678,18 1695,18 1695,44 1678,44" stroke-linejoin="round" width="30" height="26" fill="rgb(162,221,65)" stroke="rgb(129,176,51)" stroke-width="1" opacity="0.75" />
		</g>
	</g>
	<g>
		<title>lct49</title>
		<polygon class="lct49" points="1731,16 1726,16 1726,1 1696,31 1726,61 1726,46 1731,46" fill="rgb(210,252,241)" fill-opacity="1.0" stroke="rgb(84,100,96)" stroke-width="1" />
		<g>
			<title>PF00483</title>
			<polygon class="PF00483" points="1707,22 1711,18 1730,18 1730,44 1711,44 1707,39" stroke-linejoin="round" width="23" height="26" fill="rgb(198,101,87)" stroke="rgb(158,80,69)" stroke-width="1" opacity="0.75" />
		</g>
	</g>
	<g>
		<polygon class="NoName" points="93,16 87,16 87,1 57,31 87,61 87,46 93,46" fill="rgb(255,255,255)" fill-opacity="1.0" stroke="rgb(50,50,50)" stroke-width="1" />
	</g>
	<g>
		<title>lct50</title>
		<polygon class="lct50" points="1750,16 1750,16 1750,1 1734,31 1750,61 1750,46 1750,46" fill="rgb(253,232,210)" fill-opacity="1.0" stroke="rgb(101,92,84)" stroke-width="1" />
		<g>
			<title>PF00908</title>
			<polygon class="PF00908" points="1736,31 1743,18 1749,18 1749,44 1743,44" stroke-linejoin="round" width="15" height="26" fill="rgb(184,89,121)" stroke="rgb(147,71,96)" stroke-width="1" opacity="0.75" />
		</g>
	</g>
	<g>
		<title>lct51</title>
		<polygon class="lct51" points="1754,16 1754,16 1754,1 1769,31 1754,61 1754,46 1754,46" fill="rgb(251,204,202)" fill-opacity="1.0" stroke="rgb(100,81,80)" stroke-width="1" />
		<g>
			<title>PF07366</title>
			<polygon class="PF07366" points="1757,18 1760,18 1766,31 1760,44 1757,44" stroke-linejoin="round" width="12" height="26" fill="rgb(206,89,111)" stroke="rgb(164,71,88)" stroke-width="1" opacity="0.75" />
		</g>
	</g>
	<g>
		<title>lct52</title>
		<polygon class="lct52" points="1773,16 1783,16 1783,1 1813,31 1783,61 1783,46 1773,46" fill="rgb(212,250,179)" fill-opacity="1.0" stroke="rgb(84,100,71)" stroke-width="1" />
		<g>
			<title>PF00438</title>
			<rect class="PF00438" x="1773" y="18" stroke-linejoin="round" width="9" height="26" fill="rgb(202,217,80)" stroke="rgb(161,173,64)" stroke-width="1" opacity="0.75" />
		</g>
		<g>
			<title>PF02772</title>
			<rect class="PF02772" x="1785" y="18" stroke-linejoin="round" width="12" height="26" fill="rgb(81,223,98)" stroke="rgb(64,178,78)" stroke-width="1" opacity="0.75" />
		</g>
		<g>
			<title>PF02773</title>
			<polygon class="PF02773" points="1798,19 1810,31 1798,43" stroke-linejoin="round" width="13" height="26" fill="rgb(192,53,113)" stroke="rgb(153,42,90)" stroke-width="1" opacity="0.75" />
		</g>
	</g>
	<g>
		<title>lct53</title>
		<polygon class="lct53" points="1814,16 1838,16 1838,1 1868,31 1838,61 1838,46 1814,46" fill="rgb(221,184,250)" fill-opacity="1.0" stroke="rgb(88,73,100)" stroke-width="1" />
		<g>
			<title>PF01039</title>
			<polygon class="PF01039" points="1819,18 1852,18 1865,31 1852,44 1819,44" stroke-linejoin="round" width="48" height="26" fill="rgb(180,136,60)" stroke="rgb(144,108,48)" stroke-width="1" opacity="0.75" />
		</g>
	</g>
	<g>
		<title>lct54</title>
		<polygon class="lct54" points="1899,16 1899,16 1899,1 1880,31 1899,61 1899,46 1899,46" fill="rgb(196,209,251)" fill-opacity="1.0" stroke="rgb(78,83,100)" stroke-width="1" />
		<g>
			<title>PF12840</title>
			<rect class="PF12840" x="1892" y="18" stroke-linejoin="round" width="6" height="26" fill="rgb(157,225,93)" stroke="rgb(125,180,74)" stroke-width="1" opacity="0.75" />
		</g>
	</g>
	<g>
		<title>lct55</title>
		<polygon class="lct55" points="1925,16 1932,16 1932,1 1962,31 1932,61 1932,46 1925,46" fill="rgb(229,254,208)" fill-opacity="1.0" stroke="rgb(91,101,83)" stroke-width="1" />
		<g>
			<title>PF01757</title>
			<polygon class="PF01757" points="1928,18 1946,18 1959,31 1946,44 1928,44" stroke-linejoin="round" width="32" height="26" fill="rgb(50,152,200)" stroke="rgb(40,121,160)" stroke-width="1" opacity="0.75" />
		</g>
	</g>
	<g>
		<title>lct56</title>
		<polygon class="lct56" points="1986,16 1986,16 1986,1 2015,31 1986,61 1986,46 1986,46" fill="rgb(254,198,248)" fill-opacity="1.0" stroke="rgb(101,79,99)" stroke-width="1" />
		<g>
			<title>PF13649</title>
			<polygon class="PF13649" points="1999,18 1999,18 2007,26 2007,36 1999,44 1999,44" stroke-linejoin="round" width="8" height="26" fill="rgb(227,135,74)" stroke="rgb(181,108,59)" stroke-width="1" opacity="0.75" />
		</g>
	</g>
	<g>
		<polygon class="NoName" points="2018,16 2020,16 2020,1 2050,31 2020,61 2020,46 2018,46" fill="rgb(255,255,255)" fill-opacity="1.0" stroke="rgb(50,50,50)" stroke-width="1" />
	</g>
	<g>
		<polygon class="NoName" points="112,16 112,16 112,1 93,31 112,61 112,46 112,46" fill="rgb(255,255,255)" fill-opacity="1.0" stroke="rgb(50,50,50)" stroke-width="1" />
		<g>
			<title>PF00583</title>
			<polygon class="PF00583" points="95,31 103,18 107,18 107,44 103,44" stroke-linejoin="round" width="12" height="26" fill="rgb(121,183,50)" stroke="rgb(96,146,39)" stroke-width="1" opacity="0.75" />
		</g>
	</g>
	<g>
		<polygon class="NoName" points="156,16 145,16 145,1 115,31 145,61 145,46 156,46" fill="rgb(255,255,255)" fill-opacity="1.0" stroke="rgb(50,50,50)" stroke-width="1" />
		<g>
			<title>PF01861</title>
			<polygon class="PF01861" points="121,27 130,18 142,18 142,44 130,44 121,34" stroke-linejoin="round" width="21" height="26" fill="rgb(179,207,90)" stroke="rgb(143,165,72)" stroke-width="1" opacity="0.75" />
		</g>
	</g>
	<g>
		<polygon class="NoName" points="168,16 168,16 168,1 180,31 168,61 168,46 168,46" fill="rgb(255,255,255)" fill-opacity="1.0" stroke="rgb(50,50,50)" stroke-width="1" />
		<g>
			<title>PF02675</title>
			<polygon class="PF02675" points="169,18 172,18 177,31 172,44 169,44" stroke-linejoin="round" width="10" height="26" fill="rgb(104,90,186)" stroke="rgb(83,72,148)" stroke-width="1" opacity="0.75" />
		</g>
	</g>
	<g>
		<title>lct8</title>
		<polygon class="lct8" points="182,16 182,16 182,1 211,31 182,61 182,46 182,46" fill="rgb(234,178,253)" fill-opacity="1.0" stroke="rgb(93,71,101)" stroke-width="1" />
		<g>
			<title>PF01648</title>
			<polygon class="PF01648" points="195,18 195,18 206,29 206,33 195,44 195,44" stroke-linejoin="round" width="11" height="26" fill="rgb(85,184,135)" stroke="rgb(68,147,108)" stroke-width="1" opacity="0.75" />
		</g>
	</g>
	<g>
		<title>lct9</title>
		<polygon class="lct9" points="244,16 243,16 243,1 213,31 243,61 243,46 244,46" fill="rgb(224,250,196)" fill-opacity="1.0" stroke="rgb(89,100,78)" stroke-width="1" />
		<g>
			<title>PF03756</title>
			<polygon class="PF03756" points="215,31 225,21 225,40" stroke-linejoin="round" width="12" height="26" fill="rgb(178,81,93)" stroke="rgb(142,64,74)" stroke-width="1" opacity="0.75" />
		</g>
		<g>
			<title>PF03756</title>
			<polygon class="PF03756" points="228,18 228,18 241,18 241,44 228,44 228,43" stroke-linejoin="round" width="13" height="26" fill="rgb(178,81,93)" stroke="rgb(142,64,74)" stroke-width="1" opacity="0.75" />
		</g>
	</g>
</svg>
