<svg version="1.1" baseProfile="full" xmlns="http://www.w3.org/2000/svg" width="1705" height="62">
	<line x1="1" y1="31" x2="1704" y2="31" style="stroke:rgb(50,50,50); stroke-width:3 "/>
	<g>
		<title>gdnE</title>
		<polygon class="gdnE" points="358,16 573,16 573,1 603,31 573,61 573,46 358,46" fill="rgb(191,212,254)" fill-opacity="1.0" stroke="rgb(76,84,101)" stroke-width="1" />
		<g>
			<title>PF00501</title>
			<rect class="PF00501" x="361" y="18" stroke-linejoin="round" width="40" height="26" fill="rgb(60,217,223)" stroke="rgb(48,173,178)" stroke-width="1" opacity="0.75" />
		</g>
		<g>
			<title>PF13193</title>
			<rect class="PF13193" x="402" y="18" stroke-linejoin="round" width="7" height="26" fill="rgb(182,50,118)" stroke="rgb(145,39,94)" stroke-width="1" opacity="0.75" />
		</g>
		<g>
			<title>PF00550</title>
			<rect class="PF00550" x="413" y="18" stroke-linejoin="round" width="6" height="26" fill="rgb(103,191,88)" stroke="rgb(82,152,70)" stroke-width="1" opacity="0.75" />
		</g>
		<g>
			<title>PF00109</title>
			<rect class="PF00109" x="421" y="18" stroke-linejoin="round" width="25" height="26" fill="rgb(112,116,228)" stroke="rgb(89,92,182)" stroke-width="1" opacity="0.75" />
		</g>
		<g>
			<title>PF02801</title>
			<rect class="PF02801" x="448" y="18" stroke-linejoin="round" width="12" height="26" fill="rgb(215,78,102)" stroke="rgb(172,62,81)" stroke-width="1" opacity="0.75" />
		</g>
		<g>
			<title>PF16197</title>
			<rect class="PF16197" x="460" y="18" stroke-linejoin="round" width="11" height="26" fill="rgb(68,179,89)" stroke="rgb(54,143,71)" stroke-width="1" opacity="0.75" />
		</g>
		<g>
			<title>PF00698</title>
			<rect class="PF00698" x="474" y="18" stroke-linejoin="round" width="31" height="26" fill="rgb(59,176,209)" stroke="rgb(47,140,167)" stroke-width="1" opacity="0.75" />
		</g>
		<g>
			<title>PF14765</title>
			<rect class="PF14765" x="511" y="18" stroke-linejoin="round" width="28" height="26" fill="rgb(173,56,182)" stroke="rgb(138,44,145)" stroke-width="1" opacity="0.75" />
		</g>
		<g>
			<title>PF08659</title>
			<rect class="PF08659" x="563" y="18" stroke-linejoin="round" width="18" height="26" fill="rgb(66,209,188)" stroke="rgb(52,167,150)" stroke-width="1" opacity="0.75" />
		</g>
		<g>
			<title>PF00550</title>
			<polygon class="PF00550" points="592,23 598,29 598,33 592,39" stroke-linejoin="round" width="6" height="26" fill="rgb(103,191,88)" stroke="rgb(82,152,70)" stroke-width="1" opacity="0.75" />
		</g>
	</g>
	<g>
		<title>gdnF</title>
		<polygon class="gdnF" points="608,16 725,16 725,1 755,31 725,61 725,46 608,46" fill="rgb(225,209,252)" fill-opacity="1.0" stroke="rgb(90,83,100)" stroke-width="1" />
		<g>
			<title>PF00109</title>
			<rect class="PF00109" x="608" y="18" stroke-linejoin="round" width="24" height="26" fill="rgb(112,116,228)" stroke="rgb(89,92,182)" stroke-width="1" opacity="0.75" />
		</g>
		<g>
			<title>PF02801</title>
			<rect class="PF02801" x="633" y="18" stroke-linejoin="round" width="11" height="26" fill="rgb(215,78,102)" stroke="rgb(172,62,81)" stroke-width="1" opacity="0.75" />
		</g>
		<g>
			<title>PF16197</title>
			<rect class="PF16197" x="644" y="18" stroke-linejoin="round" width="11" height="26" fill="rgb(68,179,89)" stroke="rgb(54,143,71)" stroke-width="1" opacity="0.75" />
		</g>
		<g>
			<title>PF00698</title>
			<rect class="PF00698" x="659" y="18" stroke-linejoin="round" width="32" height="26" fill="rgb(59,176,209)" stroke="rgb(47,140,167)" stroke-width="1" opacity="0.75" />
		</g>
		<g>
			<title>PF08659</title>
			<rect class="PF08659" x="714" y="18" stroke-linejoin="round" width="18" height="26" fill="rgb(66,209,188)" stroke="rgb(52,167,150)" stroke-width="1" opacity="0.75" />
		</g>
		<g>
			<title>PF00550</title>
			<polygon class="PF00550" points="743,22 749,28 749,34 743,40" stroke-linejoin="round" width="6" height="26" fill="rgb(103,191,88)" stroke="rgb(82,152,70)" stroke-width="1" opacity="0.75" />
		</g>
	</g>
	<g>
		<title>gdnG</title>
		<polygon class="gdnG" points="784,16 964,16 964,1 994,31 964,61 964,46 784,46" fill="rgb(198,250,231)" fill-opacity="1.0" stroke="rgb(79,100,92)" stroke-width="1" />
		<g>
			<title>PF00109</title>
			<rect class="PF00109" x="787" y="18" stroke-linejoin="round" width="25" height="26" fill="rgb(112,116,228)" stroke="rgb(89,92,182)" stroke-width="1" opacity="0.75" />
		</g>
		<g>
			<title>PF02801</title>
			<rect class="PF02801" x="813" y="18" stroke-linejoin="round" width="11" height="26" fill="rgb(215,78,102)" stroke="rgb(172,62,81)" stroke-width="1" opacity="0.75" />
		</g>
		<g>
			<title>PF16197</title>
			<rect class="PF16197" x="824" y="18" stroke-linejoin="round" width="12" height="26" fill="rgb(68,179,89)" stroke="rgb(54,143,71)" stroke-width="1" opacity="0.75" />
		</g>
		<g>
			<title>PF00698</title>
			<rect class="PF00698" x="840" y="18" stroke-linejoin="round" width="32" height="26" fill="rgb(59,176,209)" stroke="rgb(47,140,167)" stroke-width="1" opacity="0.75" />
		</g>
		<g>
			<title>PF14765</title>
			<rect class="PF14765" x="876" y="18" stroke-linejoin="round" width="28" height="26" fill="rgb(173,56,182)" stroke="rgb(138,44,145)" stroke-width="1" opacity="0.75" />
		</g>
		<g>
			<title>PF08240</title>
			<rect class="PF08240" x="925" y="18" stroke-linejoin="round" width="8" height="26" fill="rgb(211,65,138)" stroke="rgb(168,51,110)" stroke-width="1" opacity="0.75" />
		</g>
		<g>
			<title>PF13602</title>
			<rect class="PF13602" x="941" y="18" stroke-linejoin="round" width="13" height="26" fill="rgb(101,131,226)" stroke="rgb(80,104,180)" stroke-width="1" opacity="0.75" />
		</g>
		<g>
			<title>PF08659</title>
			<rect class="PF08659" x="956" y="18" stroke-linejoin="round" width="18" height="26" fill="rgb(66,209,188)" stroke="rgb(52,167,150)" stroke-width="1" opacity="0.75" />
		</g>
		<g>
			<title>PF00550</title>
			<polygon class="PF00550" points="982,22 988,28 988,34 982,40" stroke-linejoin="round" width="6" height="26" fill="rgb(103,191,88)" stroke="rgb(82,152,70)" stroke-width="1" opacity="0.75" />
		</g>
	</g>
	<g>
		<title>gdnH</title>
		<polygon class="gdnH" points="998,16 1169,16 1169,1 1199,31 1169,61 1169,46 998,46" fill="rgb(213,254,208)" fill-opacity="1.0" stroke="rgb(85,101,83)" stroke-width="1" />
		<g>
			<title>PF00109</title>
			<rect class="PF00109" x="998" y="18" stroke-linejoin="round" width="24" height="26" fill="rgb(112,116,228)" stroke="rgb(89,92,182)" stroke-width="1" opacity="0.75" />
		</g>
		<g>
			<title>PF02801</title>
			<rect class="PF02801" x="1023" y="18" stroke-linejoin="round" width="11" height="26" fill="rgb(215,78,102)" stroke="rgb(172,62,81)" stroke-width="1" opacity="0.75" />
		</g>
		<g>
			<title>PF16197</title>
			<rect class="PF16197" x="1035" y="18" stroke-linejoin="round" width="12" height="26" fill="rgb(68,179,89)" stroke="rgb(54,143,71)" stroke-width="1" opacity="0.75" />
		</g>
		<g>
			<title>PF00698</title>
			<rect class="PF00698" x="1050" y="18" stroke-linejoin="round" width="32" height="26" fill="rgb(59,176,209)" stroke="rgb(47,140,167)" stroke-width="1" opacity="0.75" />
		</g>
		<g>
			<title>PF00550</title>
			<rect class="PF00550" x="1089" y="18" stroke-linejoin="round" width="6" height="26" fill="rgb(103,191,88)" stroke="rgb(82,152,70)" stroke-width="1" opacity="0.75" />
		</g>
		<g>
			<title>PF00202</title>
			<rect class="PF00202" x="1112" y="18" stroke-linejoin="round" width="33" height="26" fill="rgb(49,163,189)" stroke="rgb(39,130,151)" stroke-width="1" opacity="0.75" />
		</g>
		<g>
			<title>PF00668</title>
			<polygon class="PF00668" points="1154,18 1183,18 1196,31 1183,44 1154,44" stroke-linejoin="round" width="43" height="26" fill="rgb(224,184,98)" stroke="rgb(179,147,78)" stroke-width="1" opacity="0.75" />
		</g>
	</g>
	<g>
		<title>gdnI</title>
		<polygon class="gdnI" points="1207,16 1207,16 1207,1 1233,31 1207,61 1207,46 1207,46" fill="rgb(251,222,209)" fill-opacity="1.0" stroke="rgb(100,88,83)" stroke-width="1" />
		<g>
			<title>PF03171</title>
			<polygon class="PF03171" points="1218,18 1219,18 1229,30 1229,32 1219,44 1218,44" stroke-linejoin="round" width="11" height="26" fill="rgb(184,68,180)" stroke="rgb(147,54,144)" stroke-width="1" opacity="0.75" />
		</g>
	</g>
	<g>
		<title>gdnJ</title>
		<polygon class="gdnJ" points="1237,16 1243,16 1243,1 1273,31 1243,61 1243,46 1237,46" fill="rgb(253,205,248)" fill-opacity="1.0" stroke="rgb(101,82,99)" stroke-width="1" />
		<g>
			<title>PF02274</title>
			<polygon class="PF02274" points="1254,18 1257,18 1270,31 1257,44 1254,44" stroke-linejoin="round" width="17" height="26" fill="rgb(194,129,75)" stroke="rgb(155,103,60)" stroke-width="1" opacity="0.75" />
		</g>
	</g>
	<g>
		<title>gdnK</title>
		<polygon class="gdnK" points="1274,16 1301,16 1301,1 1331,31 1301,61 1301,46 1274,46" fill="rgb(198,221,252)" fill-opacity="1.0" stroke="rgb(79,88,100)" stroke-width="1" />
		<g>
			<title>PF02543</title>
			<rect class="PF02543" x="1274" y="18" stroke-linejoin="round" width="34" height="26" fill="rgb(146,218,61)" stroke="rgb(116,174,48)" stroke-width="1" opacity="0.75" />
		</g>
		<g>
			<title>PF16861</title>
			<polygon class="PF16861" points="1313,18 1315,18 1328,31 1315,44 1313,44" stroke-linejoin="round" width="17" height="26" fill="rgb(183,87,154)" stroke="rgb(146,69,123)" stroke-width="1" opacity="0.75" />
		</g>
	</g>
	<g>
		<title>gdnL</title>
		<polygon class="gdnL" points="1340,16 1342,16 1342,1 1372,31 1342,61 1342,46 1340,46" fill="rgb(249,199,194)" fill-opacity="1.0" stroke="rgb(99,79,77)" stroke-width="1" />
		<g>
			<title>PF08892</title>
			<polygon class="PF08892" points="1351,18 1356,18 1369,31 1369,31 1356,44 1351,44" stroke-linejoin="round" width="18" height="26" fill="rgb(58,210,225)" stroke="rgb(46,168,180)" stroke-width="1" opacity="0.75" />
		</g>
	</g>
	<g>
		<title>gdnM</title>
		<polygon class="gdnM" points="1406,16 1406,16 1406,1 1377,31 1406,61 1406,46 1406,46" fill="rgb(205,217,253)" fill-opacity="1.0" stroke="rgb(82,86,101)" stroke-width="1" />
		<g>
			<title>PF01061</title>
			<polygon class="PF01061" points="1380,30 1392,18 1401,18 1401,44 1392,44 1380,31" stroke-linejoin="round" width="21" height="26" fill="rgb(139,217,106)" stroke="rgb(111,173,84)" stroke-width="1" opacity="0.75" />
		</g>
	</g>
	<g>
		<title>gdnN</title>
		<polygon class="gdnN" points="1432,16 1432,16 1432,1 1407,31 1432,61 1432,46 1432,46" fill="rgb(248,212,250)" fill-opacity="1.0" stroke="rgb(99,84,100)" stroke-width="1" />
		<g>
			<title>PF01061</title>
			<polygon class="PF01061" points="1410,30 1420,18 1431,18 1431,44 1420,44 1410,31" stroke-linejoin="round" width="21" height="26" fill="rgb(139,217,106)" stroke="rgb(111,173,84)" stroke-width="1" opacity="0.75" />
		</g>
	</g>
	<g>
		<title>gdnV</title>
		<polygon class="gdnV" points="1,16 20,16 20,1 50,31 20,61 20,46 1,46" fill="rgb(176,179,251)" fill-opacity="1.0" stroke="rgb(70,71,100)" stroke-width="1" />
		<g>
			<title>PF01590</title>
			<rect class="PF01590" x="1" y="18" stroke-linejoin="round" width="11" height="26" fill="rgb(86,203,59)" stroke="rgb(68,162,47)" stroke-width="1" opacity="0.75" />
		</g>
		<g>
			<title>PF07228</title>
			<polygon class="PF07228" points="18,18 34,18 36,20 36,42 34,44 18,44" stroke-linejoin="round" width="18" height="26" fill="rgb(85,195,217)" stroke="rgb(68,155,173)" stroke-width="1" opacity="0.75" />
		</g>
		<g>
			<title>PF13581</title>
			<polygon class="PF13581" points="38,22 47,31 38,40" stroke-linejoin="round" width="11" height="26" fill="rgb(86,179,88)" stroke="rgb(68,143,70)" stroke-width="1" opacity="0.75" />
		</g>
	</g>
	<g>
		<title>gdnO</title>
		<polygon class="gdnO" points="1466,16 1465,16 1465,1 1435,31 1465,61 1465,46 1466,46" fill="rgb(198,237,252)" fill-opacity="1.0" stroke="rgb(79,94,100)" stroke-width="1" />
		<g>
			<title>PF00005</title>
			<polygon class="PF00005" points="1449,19 1450,18 1463,18 1463,44 1450,44 1449,42" stroke-linejoin="round" width="14" height="26" fill="rgb(129,201,63)" stroke="rgb(103,160,50)" stroke-width="1" opacity="0.75" />
		</g>
	</g>
	<g>
		<title>gdnP</title>
		<polygon class="gdnP" points="1480,16 1492,16 1492,1 1522,31 1492,61 1492,46 1480,46" fill="rgb(254,224,203)" fill-opacity="1.0" stroke="rgb(101,89,81)" stroke-width="1" />
		<g>
			<title>PF13535</title>
			<polygon class="PF13535" points="1493,18 1506,18 1509,21 1509,41 1506,44 1493,44" stroke-linejoin="round" width="16" height="26" fill="rgb(197,156,74)" stroke="rgb(157,124,59)" stroke-width="1" opacity="0.75" />
		</g>
	</g>
	<g>
		<title>gdnQ</title>
		<polygon class="gdnQ" points="1532,16 1532,16 1532,1 1562,31 1532,61 1532,46 1532,46" fill="rgb(254,250,214)" fill-opacity="1.0" stroke="rgb(101,100,85)" stroke-width="1" />
		<g>
			<title>PF01189</title>
			<polygon class="PF01189" points="1541,18 1546,18 1559,31 1546,44 1541,44" stroke-linejoin="round" width="20" height="26" fill="rgb(185,52,86)" stroke="rgb(148,41,68)" stroke-width="1" opacity="0.75" />
		</g>
	</g>
	<g>
		<title>gdnR</title>
		<polygon class="gdnR" points="1605,16 1594,16 1594,1 1564,31 1594,61 1594,46 1605,46" fill="rgb(189,252,218)" fill-opacity="1.0" stroke="rgb(75,100,87)" stroke-width="1" />
		<g>
			<title>PF13535</title>
			<polygon class="PF13535" points="1576,21 1579,18 1590,18 1590,44 1579,44 1576,40" stroke-linejoin="round" width="14" height="26" fill="rgb(197,156,74)" stroke="rgb(157,124,59)" stroke-width="1" opacity="0.75" />
		</g>
	</g>
	<g>
		<title>gdnS</title>
		<polygon class="gdnS" points="1628,16 1628,16 1628,1 1606,31 1628,61 1628,46 1628,46" fill="rgb(199,254,183)" fill-opacity="1.0" stroke="rgb(79,101,73)" stroke-width="1" />
		<g>
			<title>PF01648</title>
			<polygon class="PF01648" points="1611,27 1618,18 1619,18 1619,44 1618,44 1611,34" stroke-linejoin="round" width="8" height="26" fill="rgb(85,184,135)" stroke="rgb(68,147,108)" stroke-width="1" opacity="0.75" />
		</g>
	</g>
	<g>
		<title>gdnT</title>
		<polygon class="gdnT" points="1658,16 1658,16 1658,1 1632,31 1658,61 1658,46 1658,46" fill="rgb(197,252,209)" fill-opacity="1.0" stroke="rgb(78,100,83)" stroke-width="1" />
		<g>
			<title>PF00975</title>
			<polygon class="PF00975" points="1634,31 1645,18 1655,18 1655,44 1645,44" stroke-linejoin="round" width="22" height="26" fill="rgb(207,80,138)" stroke="rgb(165,63,110)" stroke-width="1" opacity="0.75" />
		</g>
	</g>
	<g>
		<title>gdnU</title>
		<polygon class="gdnU" points="1662,16 1673,16 1673,1 1703,31 1673,61 1673,46 1662,46" fill="rgb(211,253,178)" fill-opacity="1.0" stroke="rgb(84,101,71)" stroke-width="1" />
	</g>
	<g>
		<title>gdnW</title>
		<polygon class="gdnW" points="73,16 73,16 73,1 51,31 73,61 73,46 73,46" fill="rgb(245,185,250)" fill-opacity="1.0" stroke="rgb(98,73,100)" stroke-width="1" />
	</g>
	<g>
		<title>gdnX</title>
		<polygon class="gdnX" points="138,16 114,16 114,1 84,31 114,61 114,46 138,46" fill="rgb(251,213,202)" fill-opacity="1.0" stroke="rgb(100,85,80)" stroke-width="1" />
		<g>
			<title>PF09924</title>
			<polygon class="PF09924" points="89,28 99,18 118,18 118,44 99,44 89,33" stroke-linejoin="round" width="29" height="26" fill="rgb(212,197,83)" stroke="rgb(169,157,66)" stroke-width="1" opacity="0.75" />
		</g>
		<g>
			<title>PF16995</title>
			<rect class="PF16995" x="121" y="18" stroke-linejoin="round" width="16" height="26" fill="rgb(228,108,208)" stroke="rgb(182,86,166)" stroke-width="1" opacity="0.75" />
		</g>
	</g>
	<g>
		<title>gdnY</title>
		<polygon class="gdnY" points="155,16 155,16 155,1 180,31 155,61 155,46 155,46" fill="rgb(241,189,253)" fill-opacity="1.0" stroke="rgb(96,75,101)" stroke-width="1" />
		<g>
			<title>PF00072</title>
			<polygon class="PF00072" points="158,18 166,18 169,21 169,41 166,44 158,44" stroke-linejoin="round" width="11" height="26" fill="rgb(100,107,203)" stroke="rgb(80,85,162)" stroke-width="1" opacity="0.75" />
		</g>
		<g>
			<title>PF00196</title>
			<polygon class="PF00196" points="173,26 177,31 173,36" stroke-linejoin="round" width="5" height="26" fill="rgb(219,94,82)" stroke="rgb(175,75,65)" stroke-width="1" opacity="0.75" />
		</g>
	</g>
	<g>
		<title>gdnZ</title>
		<polygon class="gdnZ" points="182,16 188,16 188,1 218,31 188,61 188,46 182,46" fill="rgb(251,207,216)" fill-opacity="1.0" stroke="rgb(100,82,86)" stroke-width="1" />
		<g>
			<title>PF07730</title>
			<polygon class="PF07730" points="198,18 202,18 204,20 204,42 202,44 198,44" stroke-linejoin="round" width="6" height="26" fill="rgb(190,53,146)" stroke="rgb(152,42,116)" stroke-width="1" opacity="0.75" />
		</g>
	</g>
	<g>
		<title>gdnA</title>
		<polygon class="gdnA" points="258,16 251,16 251,1 221,31 251,61 251,46 258,46" fill="rgb(187,235,253)" fill-opacity="1.0" stroke="rgb(74,93,101)" stroke-width="1" />
		<g>
			<title>PF00441</title>
			<polygon class="PF00441" points="223,31 235,19 235,42" stroke-linejoin="round" width="14" height="26" fill="rgb(85,191,117)" stroke="rgb(68,152,93)" stroke-width="1" opacity="0.75" />
		</g>
		<g>
			<title>PF02770</title>
			<rect class="PF02770" x="237" y="18" stroke-linejoin="round" width="9" height="26" fill="rgb(225,186,97)" stroke="rgb(180,148,77)" stroke-width="1" opacity="0.75" />
		</g>
		<g>
			<title>PF02771</title>
			<rect class="PF02771" x="246" y="18" stroke-linejoin="round" width="11" height="26" fill="rgb(105,135,218)" stroke="rgb(84,108,174)" stroke-width="1" opacity="0.75" />
		</g>
	</g>
	<g>
		<title>gdnB</title>
		<polygon class="gdnB" points="298,16 289,16 289,1 259,31 289,61 289,46 298,46" fill="rgb(214,251,211)" fill-opacity="1.0" stroke="rgb(85,100,84)" stroke-width="1" />
	</g>
	<g>
		<title>gdnC</title>
		<polygon class="gdnC" points="307,16 307,16 307,1 299,31 307,61 307,46 307,46" fill="rgb(194,253,207)" fill-opacity="1.0" stroke="rgb(77,101,82)" stroke-width="1" />
	</g>
	<g>
		<title>gdnD</title>
		<polygon class="gdnD" points="337,16 337,16 337,1 308,31 337,61 337,46 337,46" fill="rgb(250,245,206)" fill-opacity="1.0" stroke="rgb(100,98,82)" stroke-width="1" />
		<g>
			<title>PF00725</title>
			<polygon class="PF00725" points="310,31 317,24 317,37" stroke-linejoin="round" width="9" height="26" fill="rgb(180,78,60)" stroke="rgb(144,62,48)" stroke-width="1" opacity="0.75" />
		</g>
		<g>
			<title>PF02737</title>
			<polygon class="PF02737" points="318,23 323,18 335,18 335,44 323,44 318,38" stroke-linejoin="round" width="17" height="26" fill="rgb(212,65,199)" stroke="rgb(169,52,159)" stroke-width="1" opacity="0.75" />
		</g>
	</g>
</svg>
