<svg version="1.1" baseProfile="full" xmlns="http://www.w3.org/2000/svg" width="819" height="62">
	<line x1="1" y1="31" x2="818" y2="31" style="stroke:rgb(50,50,50); stroke-width:3 "/>
	<g>
		<title>cnq729</title>
		<polygon class="cnq729" points="311,16 311,16 311,1 291,31 311,61 311,46 311,46" fill="rgb(186,199,254)" fill-opacity="1.0" stroke="rgb(74,79,101)" stroke-width="1" />
		<g>
			<title>PF00857</title>
			<polygon class="PF00857" points="293,31 302,18 308,18 308,44 302,44" stroke-linejoin="round" width="17" height="26" fill="rgb(144,224,70)" stroke="rgb(115,179,56)" stroke-width="1" opacity="0.75" />
		</g>
	</g>
	<g>
		<title>cnq730</title>
		<polygon class="cnq730" points="354,16 345,16 345,1 315,31 345,61 345,46 354,46" fill="rgb(210,225,250)" fill-opacity="1.0" stroke="rgb(84,90,100)" stroke-width="1" />
		<g>
			<title>PF01474</title>
			<polygon class="PF01474" points="317,31 330,18 337,18 337,44 330,44" stroke-linejoin="round" width="22" height="26" fill="rgb(126,217,84)" stroke="rgb(100,173,67)" stroke-width="1" opacity="0.75" />
		</g>
		<g>
			<title>PF01474</title>
			<rect class="PF01474" x="336" y="18" stroke-linejoin="round" width="17" height="26" fill="rgb(126,217,84)" stroke="rgb(100,173,67)" stroke-width="1" opacity="0.75" />
		</g>
	</g>
	<g>
		<title>cnq731</title>
		<polygon class="cnq731" points="371,16 371,16 371,1 356,31 371,61 371,46 371,46" fill="rgb(235,252,186)" fill-opacity="1.0" stroke="rgb(93,100,74)" stroke-width="1" />
		<g>
			<title>PF03284</title>
			<polygon class="PF03284" points="358,31 365,18 371,18 371,44 365,44" stroke-linejoin="round" width="15" height="26" fill="rgb(179,85,75)" stroke="rgb(143,68,60)" stroke-width="1" opacity="0.75" />
		</g>
	</g>
	<g>
		<title>cnq732</title>
		<polygon class="cnq732" points="397,16 397,16 397,1 426,31 397,61 397,46 397,46" fill="rgb(239,249,196)" fill-opacity="1.0" stroke="rgb(95,99,78)" stroke-width="1" />
		<g>
			<title>PF02983</title>
			<rect class="PF02983" x="401" y="18" stroke-linejoin="round" width="5" height="26" fill="rgb(180,74,226)" stroke="rgb(144,59,180)" stroke-width="1" opacity="0.75" />
		</g>
		<g>
			<title>PF00089</title>
			<polygon class="PF00089" points="408,18 410,18 423,31 410,44 408,44" stroke-linejoin="round" width="17" height="26" fill="rgb(207,127,78)" stroke="rgb(165,101,62)" stroke-width="1" opacity="0.75" />
		</g>
	</g>
	<g>
		<title>cnq733</title>
		<polygon class="cnq733" points="442,16 442,16 442,1 431,31 442,61 442,46 442,46" fill="rgb(207,230,253)" fill-opacity="1.0" stroke="rgb(82,92,101)" stroke-width="1" />
		<g>
			<title>PF07045</title>
			<polygon class="PF07045" points="433,31 438,18 442,18 442,44 438,44" stroke-linejoin="round" width="9" height="26" fill="rgb(195,84,105)" stroke="rgb(156,67,84)" stroke-width="1" opacity="0.75" />
		</g>
	</g>
	<g>
		<title>cnq734</title>
		<polygon class="cnq734" points="463,16 463,16 463,1 447,31 463,61 463,46 463,46" fill="rgb(231,254,191)" fill-opacity="1.0" stroke="rgb(92,101,76)" stroke-width="1" />
		<g>
			<title>PF03284</title>
			<polygon class="PF03284" points="449,31 456,18 462,18 462,44 456,44" stroke-linejoin="round" width="15" height="26" fill="rgb(179,85,75)" stroke="rgb(143,68,60)" stroke-width="1" opacity="0.75" />
		</g>
	</g>
	<g>
		<title>cnq735</title>
		<polygon class="cnq735" points="513,16 503,16 503,1 473,31 503,61 503,46 513,46" fill="rgb(189,218,249)" fill-opacity="1.0" stroke="rgb(75,87,99)" stroke-width="1" />
		<g>
			<title>PF01494</title>
			<polygon class="PF01494" points="477,29 485,21 485,40 477,32" stroke-linejoin="round" width="8" height="26" fill="rgb(182,175,59)" stroke="rgb(145,140,47)" stroke-width="1" opacity="0.75" />
		</g>
		<g>
			<title>PF01494</title>
			<rect class="PF01494" x="490" y="18" stroke-linejoin="round" width="23" height="26" fill="rgb(182,175,59)" stroke="rgb(145,140,47)" stroke-width="1" opacity="0.75" />
		</g>
	</g>
	<g>
		<title>cnq737</title>
		<polygon class="cnq737" points="518,16 518,16 518,1 514,31 518,61 518,46 518,46" fill="rgb(251,179,200)" fill-opacity="1.0" stroke="rgb(100,71,80)" stroke-width="1" />
	</g>
	<g>
		<title>cnq738</title>
		<polygon class="cnq738" points="550,16 550,16 550,1 520,31 550,61 550,46 550,46" fill="rgb(251,225,207)" fill-opacity="1.0" stroke="rgb(100,90,82)" stroke-width="1" />
		<g>
			<title>PF11468</title>
			<polygon class="PF11468" points="522,31 535,18 549,18 549,44 535,44" stroke-linejoin="round" width="29" height="26" fill="rgb(121,52,185)" stroke="rgb(96,41,148)" stroke-width="1" opacity="0.75" />
		</g>
	</g>
	<g>
		<title>cnq739</title>
		<polygon class="cnq739" points="588,16 588,16 588,1 563,31 588,61 588,46 588,46" fill="rgb(250,188,175)" fill-opacity="1.0" stroke="rgb(100,75,69)" stroke-width="1" />
		<g>
			<title>PF04672</title>
			<polygon class="PF04672" points="565,31 576,18 588,18 588,44 576,44" stroke-linejoin="round" width="25" height="26" fill="rgb(125,181,73)" stroke="rgb(99,144,58)" stroke-width="1" opacity="0.75" />
		</g>
	</g>
	<g>
		<title>cnq720</title>
		<polygon class="cnq720" points="1,16 2,16 2,1 32,31 2,61 2,46 1,46" fill="rgb(215,251,190)" fill-opacity="1.0" stroke="rgb(86,100,76)" stroke-width="1" />
		<g>
			<title>PF00480</title>
			<polygon class="PF00480" points="1,18 16,18 29,31 16,44 1,44" stroke-linejoin="round" width="30" height="26" fill="rgb(205,99,210)" stroke="rgb(163,79,168)" stroke-width="1" opacity="0.75" />
		</g>
	</g>
	<g>
		<title>cnq740</title>
		<polygon class="cnq740" points="630,16 621,16 621,1 591,31 621,61 621,46 630,46" fill="rgb(197,238,254)" fill-opacity="1.0" stroke="rgb(78,95,101)" stroke-width="1" />
	</g>
	<g>
		<title>cnq741</title>
		<polygon class="cnq741" points="646,16 646,16 646,1 637,31 646,61 646,46 646,46" fill="rgb(199,220,250)" fill-opacity="1.0" stroke="rgb(79,88,100)" stroke-width="1" />
	</g>
	<g>
		<title>cnq742</title>
		<polygon class="cnq742" points="675,16 675,16 675,1 658,31 675,61 675,46 675,46" fill="rgb(183,250,230)" fill-opacity="1.0" stroke="rgb(73,100,92)" stroke-width="1" />
		<g>
			<title>PF00392</title>
			<polygon class="PF00392" points="665,22 667,18 671,18 671,44 667,44 665,39" stroke-linejoin="round" width="6" height="26" fill="rgb(160,85,194)" stroke="rgb(127,68,155)" stroke-width="1" opacity="0.75" />
		</g>
	</g>
	<g>
		<title>cnq743</title>
		<polygon class="cnq743" points="702,16 702,16 702,1 680,31 702,61 702,46 702,46" fill="rgb(209,201,251)" fill-opacity="1.0" stroke="rgb(83,80,100)" stroke-width="1" />
		<g>
			<title>PF03067</title>
			<polygon class="PF03067" points="682,31 692,18 698,18 698,44 692,44" stroke-linejoin="round" width="18" height="26" fill="rgb(131,60,198)" stroke="rgb(104,47,158)" stroke-width="1" opacity="0.75" />
		</g>
	</g>
	<g>
		<title>cnq744</title>
		<polygon class="cnq744" points="708,16 708,16 708,1 727,31 708,61 708,46 708,46" fill="rgb(253,241,210)" fill-opacity="1.0" stroke="rgb(101,96,84)" stroke-width="1" />
		<g>
			<title>PF01872</title>
			<polygon class="PF01872" points="708,18 716,18 724,31 716,44 708,44" stroke-linejoin="round" width="17" height="26" fill="rgb(225,80,120)" stroke="rgb(180,64,95)" stroke-width="1" opacity="0.75" />
		</g>
	</g>
	<g>
		<title>cnq745</title>
		<polygon class="cnq745" points="779,16 758,16 758,1 728,31 758,61 758,46 779,46" fill="rgb(254,215,186)" fill-opacity="1.0" stroke="rgb(101,86,74)" stroke-width="1" />
		<g>
			<title>PF00083</title>
			<polygon class="PF00083" points="730,31 743,18 774,18 774,44 743,44" stroke-linejoin="round" width="44" height="26" fill="rgb(48,186,105)" stroke="rgb(38,148,84)" stroke-width="1" opacity="0.75" />
		</g>
	</g>
	<g>
		<title>cnq746</title>
		<polygon class="cnq746" points="817,16 813,16 813,1 783,31 813,61 813,46 817,46" fill="rgb(254,248,206)" fill-opacity="1.0" stroke="rgb(101,99,82)" stroke-width="1" />
		<g>
			<title>PF02541</title>
			<polygon class="PF02541" points="787,29 798,18 816,18 816,44 798,44 787,32" stroke-linejoin="round" width="29" height="26" fill="rgb(195,138,51)" stroke="rgb(156,110,40)" stroke-width="1" opacity="0.75" />
		</g>
	</g>
	<g>
		<title>cnq721</title>
		<polygon class="cnq721" points="32,16 32,16 32,1 55,31 32,61 32,46 32,46" fill="rgb(179,249,228)" fill-opacity="1.0" stroke="rgb(71,99,91)" stroke-width="1" />
		<g>
			<title>PF04131</title>
			<polygon class="PF04131" points="36,18 42,18 52,31 42,44 36,44" stroke-linejoin="round" width="19" height="26" fill="rgb(94,199,217)" stroke="rgb(75,159,173)" stroke-width="1" opacity="0.75" />
		</g>
	</g>
	<g>
		<title>cnq722</title>
		<polygon class="cnq722" points="74,16 74,16 74,1 58,31 74,61 74,46 74,46" fill="rgb(178,251,251)" fill-opacity="1.0" stroke="rgb(71,100,100)" stroke-width="1" />
		<g>
			<title>PF00932</title>
			<polygon class="PF00932" points="60,31 67,18 71,18 71,44 67,44" stroke-linejoin="round" width="12" height="26" fill="rgb(71,205,221)" stroke="rgb(56,164,176)" stroke-width="1" opacity="0.75" />
		</g>
	</g>
	<g>
		<title>cnq723</title>
		<polygon class="cnq723" points="95,16 95,16 95,1 78,31 95,61 95,46 95,46" fill="rgb(254,226,203)" fill-opacity="1.0" stroke="rgb(101,90,81)" stroke-width="1" />
		<g>
			<title>PF01243</title>
			<polygon class="PF01243" points="83,26 87,18 91,18 91,44 87,44 83,35" stroke-linejoin="round" width="8" height="26" fill="rgb(177,193,67)" stroke="rgb(141,154,53)" stroke-width="1" opacity="0.75" />
		</g>
	</g>
	<g>
		<title>cnq724</title>
		<polygon class="cnq724" points="99,16 100,16 100,1 130,31 100,61 100,46 99,46" fill="rgb(252,223,214)" fill-opacity="1.0" stroke="rgb(100,89,85)" stroke-width="1" />
		<g>
			<title>PF04542</title>
			<rect class="PF04542" x="100" y="18" stroke-linejoin="round" width="6" height="26" fill="rgb(184,59,197)" stroke="rgb(147,47,157)" stroke-width="1" opacity="0.75" />
		</g>
		<g>
			<title>PF08281</title>
			<polygon class="PF08281" points="110,18 114,18 115,19 115,43 114,44 110,44" stroke-linejoin="round" width="5" height="26" fill="rgb(222,103,144)" stroke="rgb(177,82,115)" stroke-width="1" opacity="0.75" />
		</g>
	</g>
	<g>
		<title>cnq725</title>
		<polygon class="cnq725" points="133,16 136,16 136,1 166,31 136,61 136,46 133,46" fill="rgb(250,237,177)" fill-opacity="1.0" stroke="rgb(100,94,70)" stroke-width="1" />
		<g>
			<title>PF16864</title>
			<rect class="PF16864" x="134" y="18" stroke-linejoin="round" width="8" height="26" fill="rgb(84,199,85)" stroke="rgb(67,159,68)" stroke-width="1" opacity="0.75" />
		</g>
		<g>
			<title>PF00891</title>
			<polygon class="PF00891" points="142,18 150,18 163,31 150,44 142,44" stroke-linejoin="round" width="22" height="26" fill="rgb(50,51,190)" stroke="rgb(39,40,152)" stroke-width="1" opacity="0.75" />
		</g>
	</g>
	<g>
		<title>cnq726</title>
		<polygon class="cnq726" points="192,16 192,16 192,1 171,31 192,61 192,46 192,46" fill="rgb(226,253,205)" fill-opacity="1.0" stroke="rgb(90,101,82)" stroke-width="1" />
		<g>
			<title>PF10590</title>
			<polygon class="PF10590" points="173,31 175,28 175,33" stroke-linejoin="round" width="4" height="26" fill="rgb(86,221,142)" stroke="rgb(68,176,113)" stroke-width="1" opacity="0.75" />
		</g>
		<g>
			<title>PF01243</title>
			<polygon class="PF01243" points="180,21 182,18 188,18 188,44 182,44 180,40" stroke-linejoin="round" width="8" height="26" fill="rgb(177,193,67)" stroke="rgb(141,154,53)" stroke-width="1" opacity="0.75" />
		</g>
	</g>
	<g>
		<title>cnq727</title>
		<polygon class="cnq727" points="222,16 222,16 222,1 194,31 222,61 222,46 222,46" fill="rgb(203,194,250)" fill-opacity="1.0" stroke="rgb(81,77,100)" stroke-width="1" />
		<g>
			<title>PF02567</title>
			<polygon class="PF02567" points="196,31 208,18 220,18 220,44 208,44" stroke-linejoin="round" width="26" height="26" fill="rgb(223,91,96)" stroke="rgb(178,72,76)" stroke-width="1" opacity="0.75" />
		</g>
	</g>
	<g>
		<title>cnq728</title>
		<polygon class="cnq728" points="291,16 254,16 254,1 224,31 254,61 254,46 291,46" fill="rgb(212,234,254)" fill-opacity="1.0" stroke="rgb(84,93,101)" stroke-width="1" />
		<g>
			<title>PF00117</title>
			<polygon class="PF00117" points="226,31 239,18 242,18 242,44 239,44" stroke-linejoin="round" width="18" height="26" fill="rgb(159,201,96)" stroke="rgb(127,160,76)" stroke-width="1" opacity="0.75" />
		</g>
		<g>
			<title>PF00425</title>
			<rect class="PF00425" x="251" y="18" stroke-linejoin="round" width="26" height="26" fill="rgb(188,116,88)" stroke="rgb(150,92,70)" stroke-width="1" opacity="0.75" />
		</g>
	</g>
</svg>
