<svg version="1.1" baseProfile="full" xmlns="http://www.w3.org/2000/svg" width="1537" height="62">
	<line x1="1" y1="31" x2="1536" y2="31" style="stroke:rgb(50,50,50); stroke-width:3 "/>
	<g>
		<polygon class="NoName" points="327,16 327,16 327,1 347,31 327,61 327,46 327,46" fill="rgb(255,255,255)" fill-opacity="1.0" stroke="rgb(50,50,50)" stroke-width="1" />
		<g>
			<title>PF06314</title>
			<polygon class="PF06314" points="327,18 335,18 344,31 335,44 327,44" stroke-linejoin="round" width="19" height="26" fill="rgb(80,180,156)" stroke="rgb(64,144,124)" stroke-width="1" opacity="0.75" />
		</g>
	</g>
	<g>
		<polygon class="NoName" points="358,16 359,16 359,1 389,31 359,61 359,46 358,46" fill="rgb(255,255,255)" fill-opacity="1.0" stroke="rgb(50,50,50)" stroke-width="1" />
		<g>
			<title>PF12740</title>
			<polygon class="PF12740" points="365,18 373,18 380,25 380,37 373,44 365,44" stroke-linejoin="round" width="15" height="26" fill="rgb(225,187,68)" stroke="rgb(180,149,54)" stroke-width="1" opacity="0.75" />
		</g>
	</g>
	<g>
		<title>polB</title>
		<polygon class="polB" points="400,16 400,16 400,1 425,31 400,61 400,46 400,46" fill="rgb(179,254,200)" fill-opacity="1.0" stroke="rgb(71,101,80)" stroke-width="1" />
		<g>
			<title>PF02511</title>
			<polygon class="PF02511" points="403,18 411,18 422,31 411,44 403,44" stroke-linejoin="round" width="21" height="26" fill="rgb(50,175,182)" stroke="rgb(39,140,145)" stroke-width="1" opacity="0.75" />
		</g>
	</g>
	<g>
		<title>polA</title>
		<polygon class="polA" points="428,16 442,16 442,1 472,31 442,61 442,46 428,46" fill="rgb(203,250,234)" fill-opacity="1.0" stroke="rgb(81,100,93)" stroke-width="1" />
		<g>
			<title>PF00275</title>
			<polygon class="PF00275" points="428,18 456,18 469,31 456,44 428,44" stroke-linejoin="round" width="42" height="26" fill="rgb(217,213,85)" stroke="rgb(173,170,68)" stroke-width="1" opacity="0.75" />
		</g>
	</g>
	<g>
		<title>polQ2</title>
		<polygon class="polQ2" points="493,16 493,16 493,1 475,31 493,61 493,46 493,46" fill="rgb(254,212,244)" fill-opacity="1.0" stroke="rgb(101,84,97)" stroke-width="1" />
	</g>
	<g>
		<title>polQ1</title>
		<polygon class="polQ1" points="536,16 524,16 524,1 494,31 524,61 524,46 536,46" fill="rgb(254,189,246)" fill-opacity="1.0" stroke="rgb(101,75,98)" stroke-width="1" />
		<g>
			<title>PF07690</title>
			<polygon class="PF07690" points="503,24 509,18 533,18 533,44 509,44 503,37" stroke-linejoin="round" width="30" height="26" fill="rgb(193,224,74)" stroke="rgb(154,179,59)" stroke-width="1" opacity="0.75" />
		</g>
	</g>
	<g>
		<title>polP</title>
		<polygon class="polP" points="569,16 569,16 569,1 541,31 569,61 569,46 569,46" fill="rgb(242,186,253)" fill-opacity="1.0" stroke="rgb(96,74,101)" stroke-width="1" />
		<g>
			<title>PF00696</title>
			<polygon class="PF00696" points="543,31 555,18 567,18 567,44 555,44" stroke-linejoin="round" width="24" height="26" fill="rgb(148,78,224)" stroke="rgb(118,62,179)" stroke-width="1" opacity="0.75" />
		</g>
	</g>
	<g>
		<title>polO</title>
		<polygon class="polO" points="626,16 599,16 599,1 569,31 599,61 599,46 626,46" fill="rgb(197,253,250)" fill-opacity="1.0" stroke="rgb(78,101,100)" stroke-width="1" />
		<g>
			<title>PF16861</title>
			<polygon class="PF16861" points="571,31 584,18 585,18 585,44 584,44" stroke-linejoin="round" width="16" height="26" fill="rgb(183,87,154)" stroke="rgb(146,69,123)" stroke-width="1" opacity="0.75" />
		</g>
		<g>
			<title>PF02543</title>
			<rect class="PF02543" x="590" y="18" stroke-linejoin="round" width="35" height="26" fill="rgb(146,218,61)" stroke="rgb(116,174,48)" stroke-width="1" opacity="0.75" />
		</g>
	</g>
	<g>
		<title>polN</title>
		<polygon class="polN" points="642,16 642,16 642,1 626,31 642,61 642,46 642,46" fill="rgb(250,180,242)" fill-opacity="1.0" stroke="rgb(100,72,96)" stroke-width="1" />
		<g>
			<title>PF13508</title>
			<polygon class="PF13508" points="630,27 635,18 639,18 639,44 635,44 630,34" stroke-linejoin="round" width="9" height="26" fill="rgb(183,210,60)" stroke="rgb(146,168,48)" stroke-width="1" opacity="0.75" />
		</g>
	</g>
	<g>
		<title>polM</title>
		<polygon class="polM" points="668,16 668,16 668,1 643,31 668,61 668,46 668,46" fill="rgb(184,217,254)" fill-opacity="1.0" stroke="rgb(73,86,101)" stroke-width="1" />
		<g>
			<title>PF00106</title>
			<polygon class="PF00106" points="648,28 656,18 667,18 667,44 656,44 648,33" stroke-linejoin="round" width="19" height="26" fill="rgb(182,219,73)" stroke="rgb(145,175,58)" stroke-width="1" opacity="0.75" />
		</g>
	</g>
	<g>
		<polygon class="NoName" points="15,16 15,16 15,1 40,31 15,61 15,46 15,46" fill="rgb(255,255,255)" fill-opacity="1.0" stroke="rgb(50,50,50)" stroke-width="1" />
	</g>
	<g>
		<title>polL</title>
		<polygon class="polL" points="694,16 694,16 694,1 670,31 694,61 694,46 694,46" fill="rgb(254,249,202)" fill-opacity="1.0" stroke="rgb(101,99,80)" stroke-width="1" />
		<g>
			<title>PF10014</title>
			<polygon class="PF10014" points="672,31 682,18 689,18 689,44 682,44" stroke-linejoin="round" width="19" height="26" fill="rgb(201,88,89)" stroke="rgb(160,70,71)" stroke-width="1" opacity="0.75" />
		</g>
	</g>
	<g>
		<title>polK</title>
		<polygon class="polK" points="718,16 718,16 718,1 697,31 718,61 718,46 718,46" fill="rgb(176,242,251)" fill-opacity="1.0" stroke="rgb(70,96,100)" stroke-width="1" />
		<g>
			<title>PF13640</title>
			<polygon class="PF13640" points="699,31 706,21 706,40" stroke-linejoin="round" width="9" height="26" fill="rgb(163,67,223)" stroke="rgb(130,53,178)" stroke-width="1" opacity="0.75" />
		</g>
	</g>
	<g>
		<title>polJ</title>
		<polygon class="polJ" points="745,16 745,16 745,1 718,31 745,61 745,46 745,46" fill="rgb(191,222,252)" fill-opacity="1.0" stroke="rgb(76,88,100)" stroke-width="1" />
		<g>
			<title>PF13350</title>
			<polygon class="PF13350" points="720,31 732,18 742,18 742,44 732,44" stroke-linejoin="round" width="23" height="26" fill="rgb(96,226,59)" stroke="rgb(76,180,47)" stroke-width="1" opacity="0.75" />
		</g>
	</g>
	<g>
		<title>polI</title>
		<polygon class="polI" points="783,16 775,16 775,1 745,31 775,61 775,46 783,46" fill="rgb(250,191,239)" fill-opacity="1.0" stroke="rgb(100,76,95)" stroke-width="1" />
		<g>
			<title>PF00155</title>
			<polygon class="PF00155" points="747,31 760,18 778,18 778,44 760,44" stroke-linejoin="round" width="32" height="26" fill="rgb(89,113,198)" stroke="rgb(71,90,158)" stroke-width="1" opacity="0.75" />
		</g>
	</g>
	<g>
		<title>polH</title>
		<polygon class="polH" points="830,16 813,16 813,1 783,31 813,61 813,46 830,46" fill="rgb(244,254,192)" fill-opacity="1.0" stroke="rgb(97,101,76)" stroke-width="1" />
		<g>
			<title>PF04055</title>
			<polygon class="PF04055" points="791,25 798,18 807,18 807,44 798,44 791,36" stroke-linejoin="round" width="16" height="26" fill="rgb(149,56,222)" stroke="rgb(119,44,177)" stroke-width="1" opacity="0.75" />
		</g>
	</g>
	<g>
		<title>polG</title>
		<polygon class="polG" points="873,16 860,16 860,1 830,31 860,61 860,46 873,46" fill="rgb(193,200,252)" fill-opacity="1.0" stroke="rgb(77,79,100)" stroke-width="1" />
		<g>
			<title>PF02786</title>
			<rect class="PF02786" x="853" y="18" stroke-linejoin="round" width="8" height="26" fill="rgb(190,97,205)" stroke="rgb(151,77,164)" stroke-width="1" opacity="0.75" />
		</g>
	</g>
	<g>
		<title>polF</title>
		<polygon class="polF" points="901,16 901,16 901,1 874,31 901,61 901,46 901,46" fill="rgb(210,250,226)" fill-opacity="1.0" stroke="rgb(84,100,90)" stroke-width="1" />
	</g>
	<g>
		<title>polE</title>
		<polygon class="polE" points="940,16 933,16 933,1 903,31 933,61 933,46 940,46" fill="rgb(252,202,251)" fill-opacity="1.0" stroke="rgb(100,80,100)" stroke-width="1" />
	</g>
	<g>
		<title>polD</title>
		<polygon class="polD" points="962,16 962,16 962,1 941,31 962,61 962,46 962,46" fill="rgb(196,199,253)" fill-opacity="1.0" stroke="rgb(78,79,101)" stroke-width="1" />
		<g>
			<title>PF13640</title>
			<polygon class="PF13640" points="943,31 950,21 950,40" stroke-linejoin="round" width="9" height="26" fill="rgb(163,67,223)" stroke="rgb(130,53,178)" stroke-width="1" opacity="0.75" />
		</g>
	</g>
	<g>
		<title>polC</title>
		<polygon class="polC" points="983,16 983,16 983,1 963,31 983,61 983,46 983,46" fill="rgb(233,187,251)" fill-opacity="1.0" stroke="rgb(93,74,100)" stroke-width="1" />
	</g>
	<g>
		<polygon class="NoName" points="46,16 46,16 46,1 68,31 46,61 46,46 46,46" fill="rgb(255,255,255)" fill-opacity="1.0" stroke="rgb(50,50,50)" stroke-width="1" />
	</g>
	<g>
		<title>polY</title>
		<polygon class="polY" points="1086,16 1020,16 1020,1 990,31 1020,61 1020,46 1086,46" fill="rgb(195,252,244)" fill-opacity="1.0" stroke="rgb(77,100,97)" stroke-width="1" />
		<g>
			<title>PF13424</title>
			<polygon class="PF13424" points="996,27 1003,20 1003,41 996,34" stroke-linejoin="round" width="7" height="26" fill="rgb(147,215,101)" stroke="rgb(117,172,80)" stroke-width="1" opacity="0.75" />
		</g>
		<g>
			<title>PF00931</title>
			<rect class="PF00931" x="1035" y="18" stroke-linejoin="round" width="20" height="26" fill="rgb(165,94,211)" stroke="rgb(132,75,168)" stroke-width="1" opacity="0.75" />
		</g>
		<g>
			<title>PF03704</title>
			<rect class="PF03704" x="1061" y="18" stroke-linejoin="round" width="14" height="26" fill="rgb(217,89,196)" stroke="rgb(173,71,156)" stroke-width="1" opacity="0.75" />
		</g>
		<g>
			<title>PF00486</title>
			<rect class="PF00486" x="1076" y="18" stroke-linejoin="round" width="7" height="26" fill="rgb(204,153,57)" stroke="rgb(163,122,45)" stroke-width="1" opacity="0.75" />
		</g>
	</g>
	<g>
		<title>polR</title>
		<polygon class="polR" points="1093,16 1174,16 1174,1 1204,31 1174,61 1174,46 1093,46" fill="rgb(250,247,195)" fill-opacity="1.0" stroke="rgb(100,98,78)" stroke-width="1" />
		<g>
			<title>PF00486</title>
			<rect class="PF00486" x="1096" y="18" stroke-linejoin="round" width="8" height="26" fill="rgb(204,153,57)" stroke="rgb(163,122,45)" stroke-width="1" opacity="0.75" />
		</g>
		<g>
			<title>PF03704</title>
			<rect class="PF03704" x="1104" y="18" stroke-linejoin="round" width="14" height="26" fill="rgb(217,89,196)" stroke="rgb(173,71,156)" stroke-width="1" opacity="0.75" />
		</g>
		<g>
			<title>PF13191</title>
			<rect class="PF13191" x="1126" y="18" stroke-linejoin="round" width="17" height="26" fill="rgb(186,102,77)" stroke="rgb(148,81,61)" stroke-width="1" opacity="0.75" />
		</g>
	</g>
	<g>
		<polygon class="NoName" points="1209,16 1209,16 1209,1 1237,31 1209,61 1209,46 1209,46" fill="rgb(255,255,255)" fill-opacity="1.0" stroke="rgb(50,50,50)" stroke-width="1" />
		<g>
			<title>PF04199</title>
			<polygon class="PF04199" points="1214,18 1222,18 1230,27 1230,35 1222,44 1214,44" stroke-linejoin="round" width="16" height="26" fill="rgb(140,47,181)" stroke="rgb(112,37,144)" stroke-width="1" opacity="0.75" />
		</g>
	</g>
	<g>
		<polygon class="NoName" points="1271,16 1271,16 1271,1 1245,31 1271,61 1271,46 1271,46" fill="rgb(255,255,255)" fill-opacity="1.0" stroke="rgb(50,50,50)" stroke-width="1" />
		<g>
			<title>PF04972</title>
			<polygon class="PF04972" points="1247,31 1253,24 1253,37" stroke-linejoin="round" width="6" height="26" fill="rgb(62,222,71)" stroke="rgb(49,177,56)" stroke-width="1" opacity="0.75" />
		</g>
		<g>
			<title>PF00571</title>
			<polygon class="PF00571" points="1254,23 1258,18 1259,18 1259,44 1258,44 1254,38" stroke-linejoin="round" width="5" height="26" fill="rgb(220,56,105)" stroke="rgb(176,44,84)" stroke-width="1" opacity="0.75" />
		</g>
		<g>
			<title>PF00571</title>
			<rect class="PF00571" x="1262" y="18" stroke-linejoin="round" width="5" height="26" fill="rgb(220,56,105)" stroke="rgb(176,44,84)" stroke-width="1" opacity="0.75" />
		</g>
	</g>
	<g>
		<polygon class="NoName" points="1278,16 1341,16 1341,1 1371,31 1341,61 1341,46 1278,46" fill="rgb(255,255,255)" fill-opacity="1.0" stroke="rgb(50,50,50)" stroke-width="1" />
		<g>
			<title>PF00690</title>
			<rect class="PF00690" x="1279" y="18" stroke-linejoin="round" width="6" height="26" fill="rgb(174,102,225)" stroke="rgb(139,81,180)" stroke-width="1" opacity="0.75" />
		</g>
		<g>
			<title>PF00122</title>
			<rect class="PF00122" x="1288" y="18" stroke-linejoin="round" width="23" height="26" fill="rgb(149,204,70)" stroke="rgb(119,163,56)" stroke-width="1" opacity="0.75" />
		</g>
		<g>
			<title>PF13246</title>
			<rect class="PF13246" x="1317" y="18" stroke-linejoin="round" width="8" height="26" fill="rgb(200,58,79)" stroke="rgb(160,46,63)" stroke-width="1" opacity="0.75" />
		</g>
		<g>
			<title>PF00689</title>
			<polygon class="PF00689" points="1351,18 1355,18 1368,31 1355,44 1351,44" stroke-linejoin="round" width="18" height="26" fill="rgb(76,203,161)" stroke="rgb(60,162,128)" stroke-width="1" opacity="0.75" />
		</g>
	</g>
	<g>
		<polygon class="NoName" points="1371,16 1371,16 1371,1 1393,31 1371,61 1371,46 1371,46" fill="rgb(255,255,255)" fill-opacity="1.0" stroke="rgb(50,50,50)" stroke-width="1" />
		<g>
			<title>PF02254</title>
			<polygon class="PF02254" points="1371,18 1380,18 1382,20 1382,42 1380,44 1371,44" stroke-linejoin="round" width="11" height="26" fill="rgb(120,217,104)" stroke="rgb(96,173,83)" stroke-width="1" opacity="0.75" />
		</g>
	</g>
	<g>
		<polygon class="NoName" points="1393,16 1393,16 1393,1 1414,31 1393,61 1393,46 1393,46" fill="rgb(255,255,255)" fill-opacity="1.0" stroke="rgb(50,50,50)" stroke-width="1" />
		<g>
			<title>PF02254</title>
			<polygon class="PF02254" points="1393,18 1402,18 1404,21 1404,41 1402,44 1393,44" stroke-linejoin="round" width="11" height="26" fill="rgb(120,217,104)" stroke="rgb(96,173,83)" stroke-width="1" opacity="0.75" />
		</g>
		<g>
			<title>PF02080</title>
			<polygon class="PF02080" points="1408,26 1411,31 1408,36" stroke-linejoin="round" width="6" height="26" fill="rgb(76,186,211)" stroke="rgb(60,148,168)" stroke-width="1" opacity="0.75" />
		</g>
	</g>
	<g>
		<polygon class="NoName" points="1455,16 1447,16 1447,1 1417,31 1447,61 1447,46 1455,46" fill="rgb(255,255,255)" fill-opacity="1.0" stroke="rgb(50,50,50)" stroke-width="1" />
		<g>
			<title>PF01814</title>
			<polygon class="PF01814" points="1419,31 1430,20 1430,41" stroke-linejoin="round" width="13" height="26" fill="rgb(120,91,227)" stroke="rgb(95,72,181)" stroke-width="1" opacity="0.75" />
		</g>
		<g>
			<title>PF00702</title>
			<rect class="PF00702" x="1441" y="18" stroke-linejoin="round" width="11" height="26" fill="rgb(68,220,102)" stroke="rgb(54,176,81)" stroke-width="1" opacity="0.75" />
		</g>
	</g>
	<g>
		<polygon class="NoName" points="1458,16 1458,16 1458,1 1475,31 1458,61 1458,46 1458,46" fill="rgb(255,255,255)" fill-opacity="1.0" stroke="rgb(50,50,50)" stroke-width="1" />
	</g>
	<g>
		<polygon class="NoName" points="1534,16 1515,16 1515,1 1485,31 1515,61 1515,46 1534,46" fill="rgb(255,255,255)" fill-opacity="1.0" stroke="rgb(50,50,50)" stroke-width="1" />
		<g>
			<title>PF10589</title>
			<polygon class="PF10589" points="1487,31 1495,23 1495,38" stroke-linejoin="round" width="8" height="26" fill="rgb(95,196,140)" stroke="rgb(76,156,112)" stroke-width="1" opacity="0.75" />
		</g>
		<g>
			<title>PF01512</title>
			<rect class="PF01512" x="1506" y="18" stroke-linejoin="round" width="16" height="26" fill="rgb(84,180,118)" stroke="rgb(67,144,94)" stroke-width="1" opacity="0.75" />
		</g>
	</g>
	<g>
		<polygon class="NoName" points="74,16 96,16 96,1 126,31 96,61 96,46 74,46" fill="rgb(255,255,255)" fill-opacity="1.0" stroke="rgb(50,50,50)" stroke-width="1" />
		<g>
			<title>PF04055</title>
			<polygon class="PF04055" points="97,18 110,18 113,21 113,41 110,44 97,44" stroke-linejoin="round" width="16" height="26" fill="rgb(149,56,222)" stroke="rgb(119,44,177)" stroke-width="1" opacity="0.75" />
		</g>
	</g>
	<g>
		<polygon class="NoName" points="126,16 128,16 128,1 158,31 128,61 128,46 126,46" fill="rgb(255,255,255)" fill-opacity="1.0" stroke="rgb(50,50,50)" stroke-width="1" />
		<g>
			<title>PF00155</title>
			<polygon class="PF00155" points="128,18 142,18 155,31 142,44 128,44" stroke-linejoin="round" width="29" height="26" fill="rgb(89,113,198)" stroke="rgb(71,90,158)" stroke-width="1" opacity="0.75" />
		</g>
	</g>
	<g>
		<polygon class="NoName" points="176,16 176,16 176,1 159,31 176,61 176,46 176,46" fill="rgb(255,255,255)" fill-opacity="1.0" stroke="rgb(50,50,50)" stroke-width="1" />
		<g>
			<title>PF00583</title>
			<polygon class="PF00583" points="161,31 168,18 172,18 172,44 168,44" stroke-linejoin="round" width="11" height="26" fill="rgb(121,183,50)" stroke="rgb(96,146,39)" stroke-width="1" opacity="0.75" />
		</g>
	</g>
	<g>
		<polygon class="NoName" points="180,16 180,16 180,1 197,31 180,61 180,46 180,46" fill="rgb(255,255,255)" fill-opacity="1.0" stroke="rgb(50,50,50)" stroke-width="1" />
		<g>
			<title>PF13302</title>
			<polygon class="PF13302" points="182,18 187,18 194,31 187,44 182,44" stroke-linejoin="round" width="13" height="26" fill="rgb(105,146,215)" stroke="rgb(84,116,172)" stroke-width="1" opacity="0.75" />
		</g>
	</g>
	<g>
		<polygon class="NoName" points="241,16 226,16 226,1 196,31 226,61 226,46 241,46" fill="rgb(255,255,255)" fill-opacity="1.0" stroke="rgb(50,50,50)" stroke-width="1" />
		<g>
			<title>PF00743</title>
			<polygon class="PF00743" points="198,31 211,18 241,18 241,44 211,44" stroke-linejoin="round" width="43" height="26" fill="rgb(203,74,151)" stroke="rgb(162,59,120)" stroke-width="1" opacity="0.75" />
		</g>
	</g>
	<g>
		<polygon class="NoName" points="248,16 248,16 248,1 269,31 248,61 248,46 248,46" fill="rgb(255,255,255)" fill-opacity="1.0" stroke="rgb(50,50,50)" stroke-width="1" />
		<g>
			<title>PF00440</title>
			<rect class="PF00440" x="249" y="18" stroke-linejoin="round" width="4" height="26" fill="rgb(73,212,190)" stroke="rgb(58,169,152)" stroke-width="1" opacity="0.75" />
		</g>
		<g>
			<title>PF16859</title>
			<polygon class="PF16859" points="256,18 257,18 266,31 266,31 257,44 256,44" stroke-linejoin="round" width="10" height="26" fill="rgb(219,77,198)" stroke="rgb(175,61,158)" stroke-width="1" opacity="0.75" />
		</g>
	</g>
	<g>
		<polygon class="NoName" points="270,16 297,16 297,1 327,31 297,61 297,46 270,46" fill="rgb(255,255,255)" fill-opacity="1.0" stroke="rgb(50,50,50)" stroke-width="1" />
		<g>
			<title>PF00890</title>
			<rect class="PF00890" x="270" y="18" stroke-linejoin="round" width="3" height="26" fill="rgb(63,199,116)" stroke="rgb(50,159,92)" stroke-width="1" opacity="0.75" />
		</g>
		<g>
			<title>PF00732</title>
			<rect class="PF00732" x="288" y="18" stroke-linejoin="round" width="9" height="26" fill="rgb(180,89,214)" stroke="rgb(143,71,171)" stroke-width="1" opacity="0.75" />
		</g>
		<g>
			<title>PF05199</title>
			<polygon class="PF05199" points="306,18 311,18 321,28 321,34 311,44 306,44" stroke-linejoin="round" width="15" height="26" fill="rgb(186,52,106)" stroke="rgb(148,41,84)" stroke-width="1" opacity="0.75" />
		</g>
	</g>
</svg>
