<svg version="1.1" baseProfile="full" xmlns="http://www.w3.org/2000/svg" width="855" height="62">
	<line x1="1" y1="31" x2="854" y2="31" style="stroke:rgb(50,50,50); stroke-width:3 "/>
	<g>
		<title>ifnI</title>
		<polygon class="ifnI" points="298,16 298,16 298,1 314,31 298,61 298,46 298,46" fill="rgb(185,252,220)" fill-opacity="1.0" stroke="rgb(74,100,88)" stroke-width="1" />
	</g>
	<g>
		<title>ifnJ</title>
		<polygon class="ifnJ" points="318,16 318,16 318,1 346,31 318,61 318,46 318,46" fill="rgb(183,246,254)" fill-opacity="1.0" stroke="rgb(73,98,101)" stroke-width="1" />
		<g>
			<title>PF03364</title>
			<polygon class="PF03364" points="331,18 331,18 343,31 343,31 331,44 331,44" stroke-linejoin="round" width="12" height="26" fill="rgb(221,94,106)" stroke="rgb(176,75,84)" stroke-width="1" opacity="0.75" />
		</g>
	</g>
	<g>
		<title>ifnK</title>
		<polygon class="ifnK" points="346,16 346,16 346,1 372,31 346,61 346,46 346,46" fill="rgb(195,232,252)" fill-opacity="1.0" stroke="rgb(77,92,100)" stroke-width="1" />
		<g>
			<title>PF04199</title>
			<polygon class="PF04199" points="346,18 358,18 363,24 363,38 358,44 346,44" stroke-linejoin="round" width="17" height="26" fill="rgb(140,47,181)" stroke="rgb(112,37,144)" stroke-width="1" opacity="0.75" />
		</g>
	</g>
	<g>
		<title>ifnL</title>
		<polygon class="ifnL" points="372,16 372,16 372,1 385,31 372,61 372,46 372,46" fill="rgb(252,190,236)" fill-opacity="1.0" stroke="rgb(100,76,94)" stroke-width="1" />
		<g>
			<title>PF13924</title>
			<polygon class="PF13924" points="372,18 376,18 377,18 377,44 376,44 372,44" stroke-linejoin="round" width="5" height="26" fill="rgb(187,88,47)" stroke="rgb(149,70,37)" stroke-width="1" opacity="0.75" />
		</g>
		<g>
			<title>PF13924</title>
			<polygon class="PF13924" points="377,18 382,31 377,44" stroke-linejoin="round" width="6" height="26" fill="rgb(187,88,47)" stroke="rgb(149,70,37)" stroke-width="1" opacity="0.75" />
		</g>
	</g>
	<g>
		<title>ifnM</title>
		<polygon class="ifnM" points="433,16 420,16 420,1 390,31 420,61 420,46 433,46" fill="rgb(239,183,252)" fill-opacity="1.0" stroke="rgb(95,73,100)" stroke-width="1" />
		<g>
			<title>PF00196</title>
			<polygon class="PF00196" points="392,31 396,27 396,34" stroke-linejoin="round" width="5" height="26" fill="rgb(219,94,82)" stroke="rgb(175,75,65)" stroke-width="1" opacity="0.75" />
		</g>
	</g>
	<g>
		<title>ifnN</title>
		<polygon class="ifnN" points="443,16 455,16 455,1 485,31 455,61 455,46 443,46" fill="rgb(232,200,253)" fill-opacity="1.0" stroke="rgb(92,80,101)" stroke-width="1" />
		<g>
			<title>PF00109</title>
			<rect class="PF00109" x="443" y="18" stroke-linejoin="round" width="25" height="26" fill="rgb(112,116,228)" stroke="rgb(89,92,182)" stroke-width="1" opacity="0.75" />
		</g>
		<g>
			<title>PF02801</title>
			<polygon class="PF02801" points="469,18 469,18 480,29 480,33 469,44 469,44" stroke-linejoin="round" width="11" height="26" fill="rgb(215,78,102)" stroke="rgb(172,62,81)" stroke-width="1" opacity="0.75" />
		</g>
	</g>
	<g>
		<title>ifnO</title>
		<polygon class="ifnO" points="485,16 496,16 496,1 526,31 496,61 496,46 485,46" fill="rgb(194,254,186)" fill-opacity="1.0" stroke="rgb(77,101,74)" stroke-width="1" />
		<g>
			<title>PF00109</title>
			<rect class="PF00109" x="485" y="18" stroke-linejoin="round" width="24" height="26" fill="rgb(112,116,228)" stroke="rgb(89,92,182)" stroke-width="1" opacity="0.75" />
		</g>
		<g>
			<title>PF02801</title>
			<polygon class="PF02801" points="510,18 510,18 521,29 521,33 510,44 510,44" stroke-linejoin="round" width="11" height="26" fill="rgb(215,78,102)" stroke="rgb(172,62,81)" stroke-width="1" opacity="0.75" />
		</g>
	</g>
	<g>
		<title>ifnP</title>
		<polygon class="ifnP" points="526,16 526,16 526,1 543,31 526,61 526,46 526,46" fill="rgb(251,188,206)" fill-opacity="1.0" stroke="rgb(100,75,82)" stroke-width="1" />
		<g>
			<title>PF01613</title>
			<polygon class="PF01613" points="528,18 533,18 540,31 533,44 528,44" stroke-linejoin="round" width="14" height="26" fill="rgb(107,197,222)" stroke="rgb(85,157,177)" stroke-width="1" opacity="0.75" />
		</g>
	</g>
	<g>
		<title>ifnQ</title>
		<polygon class="ifnQ" points="545,16 578,16 578,1 608,31 578,61 578,46 545,46" fill="rgb(242,204,252)" fill-opacity="1.0" stroke="rgb(96,81,100)" stroke-width="1" />
		<g>
			<title>PF00743</title>
			<rect class="PF00743" x="559" y="18" stroke-linejoin="round" width="20" height="26" fill="rgb(203,74,151)" stroke="rgb(162,59,120)" stroke-width="1" opacity="0.75" />
		</g>
	</g>
	<g>
		<title>ifnR</title>
		<polygon class="ifnR" points="612,16 620,16 620,1 650,31 620,61 620,46 612,46" fill="rgb(183,251,206)" fill-opacity="1.0" stroke="rgb(73,100,82)" stroke-width="1" />
		<g>
			<title>PF02771</title>
			<rect class="PF02771" x="612" y="18" stroke-linejoin="round" width="9" height="26" fill="rgb(105,135,218)" stroke="rgb(84,108,174)" stroke-width="1" opacity="0.75" />
		</g>
		<g>
			<title>PF08028</title>
			<polygon class="PF08028" points="635,19 647,31 635,43" stroke-linejoin="round" width="13" height="26" fill="rgb(106,185,56)" stroke="rgb(84,148,44)" stroke-width="1" opacity="0.75" />
		</g>
	</g>
	<g>
		<polygon class="NoName" points="7,16 7,16 7,1 31,31 7,61 7,46 7,46" fill="rgb(255,255,255)" fill-opacity="1.0" stroke="rgb(50,50,50)" stroke-width="1" />
		<g>
			<title>PF00106</title>
			<polygon class="PF00106" points="7,18 18,18 27,30 27,32 18,44 7,44" stroke-linejoin="round" width="20" height="26" fill="rgb(182,219,73)" stroke="rgb(145,175,58)" stroke-width="1" opacity="0.75" />
		</g>
	</g>
	<g>
		<title>ifnS</title>
		<polygon class="ifnS" points="651,16 656,16 656,1 686,31 656,61 656,46 651,46" fill="rgb(232,254,195)" fill-opacity="1.0" stroke="rgb(92,101,77)" stroke-width="1" />
		<g>
			<title>PF16864</title>
			<rect class="PF16864" x="653" y="18" stroke-linejoin="round" width="8" height="26" fill="rgb(84,199,85)" stroke="rgb(67,159,68)" stroke-width="1" opacity="0.75" />
		</g>
		<g>
			<title>PF00891</title>
			<polygon class="PF00891" points="662,18 670,18 683,31 670,44 662,44" stroke-linejoin="round" width="23" height="26" fill="rgb(50,51,190)" stroke="rgb(39,40,152)" stroke-width="1" opacity="0.75" />
		</g>
	</g>
	<g>
		<title>ifnT</title>
		<polygon class="ifnT" points="687,16 687,16 687,1 701,31 687,61 687,46 687,46" fill="rgb(200,253,216)" fill-opacity="1.0" stroke="rgb(80,101,86)" stroke-width="1" />
		<g>
			<title>PF12680</title>
			<polygon class="PF12680" points="688,18 692,18 697,28 697,34 692,44 688,44" stroke-linejoin="round" width="9" height="26" fill="rgb(184,69,155)" stroke="rgb(147,55,124)" stroke-width="1" opacity="0.75" />
		</g>
	</g>
	<g>
		<title>ifnU</title>
		<polygon class="ifnU" points="701,16 702,16 702,1 732,31 702,61 702,46 701,46" fill="rgb(254,244,212)" fill-opacity="1.0" stroke="rgb(101,97,84)" stroke-width="1" />
		<g>
			<title>PF08240</title>
			<rect class="PF08240" x="704" y="18" stroke-linejoin="round" width="10" height="26" fill="rgb(211,65,138)" stroke="rgb(168,51,110)" stroke-width="1" opacity="0.75" />
		</g>
		<g>
			<title>PF13602</title>
			<polygon class="PF13602" points="720,22 729,31 720,40" stroke-linejoin="round" width="12" height="26" fill="rgb(101,131,226)" stroke="rgb(80,104,180)" stroke-width="1" opacity="0.75" />
		</g>
	</g>
	<g>
		<polygon class="NoName" points="745,16 761,16 761,1 791,31 761,61 761,46 745,46" fill="rgb(255,255,255)" fill-opacity="1.0" stroke="rgb(50,50,50)" stroke-width="1" />
	</g>
	<g>
		<polygon class="NoName" points="794,16 794,16 794,1 813,31 794,61 794,46 794,46" fill="rgb(255,255,255)" fill-opacity="1.0" stroke="rgb(50,50,50)" stroke-width="1" />
		<g>
			<title>PF01381</title>
			<rect class="PF01381" x="794" y="18" stroke-linejoin="round" width="5" height="26" fill="rgb(105,79,202)" stroke="rgb(83,63,161)" stroke-width="1" opacity="0.75" />
		</g>
		<g>
			<title>PF07883</title>
			<polygon class="PF07883" points="804,21 810,31 804,41" stroke-linejoin="round" width="7" height="26" fill="rgb(211,192,74)" stroke="rgb(168,153,59)" stroke-width="1" opacity="0.75" />
		</g>
	</g>
	<g>
		<polygon class="NoName" points="840,16 840,16 840,1 814,31 840,61 840,46 840,46" fill="rgb(255,255,255)" fill-opacity="1.0" stroke="rgb(50,50,50)" stroke-width="1" />
		<g>
			<title>PF01614</title>
			<polygon class="PF01614" points="816,31 827,19 827,42" stroke-linejoin="round" width="12" height="26" fill="rgb(58,93,180)" stroke="rgb(46,74,144)" stroke-width="1" opacity="0.75" />
		</g>
		<g>
			<title>PF09339</title>
			<rect class="PF09339" x="834" y="18" stroke-linejoin="round" width="5" height="26" fill="rgb(135,102,222)" stroke="rgb(108,81,177)" stroke-width="1" opacity="0.75" />
		</g>
	</g>
	<g>
		<title>ifnA</title>
		<polygon class="ifnA" points="45,16 45,16 45,1 36,31 45,61 45,46 45,46" fill="rgb(183,254,253)" fill-opacity="1.0" stroke="rgb(73,101,101)" stroke-width="1" />
		<g>
			<title>PF00550</title>
			<polygon class="PF00550" points="38,31 42,18 43,18 43,44 42,44" stroke-linejoin="round" width="7" height="26" fill="rgb(103,191,88)" stroke="rgb(82,152,70)" stroke-width="1" opacity="0.75" />
		</g>
	</g>
	<g>
		<title>ifnB</title>
		<polygon class="ifnB" points="55,16 58,16 58,1 88,31 58,61 58,46 55,46" fill="rgb(246,253,206)" fill-opacity="1.0" stroke="rgb(98,101,82)" stroke-width="1" />
	</g>
	<g>
		<title>ifnC</title>
		<polygon class="ifnC" points="89,16 89,16 89,1 113,31 89,61 89,46 89,46" fill="rgb(254,244,211)" fill-opacity="1.0" stroke="rgb(101,97,84)" stroke-width="1" />
		<g>
			<title>PF01648</title>
			<polygon class="PF01648" points="101,20 110,31 101,42" stroke-linejoin="round" width="10" height="26" fill="rgb(85,184,135)" stroke="rgb(68,147,108)" stroke-width="1" opacity="0.75" />
		</g>
	</g>
	<g>
		<title>ifnD</title>
		<polygon class="ifnD" points="125,16 125,16 125,1 150,31 125,61 125,46 125,46" fill="rgb(202,250,192)" fill-opacity="1.0" stroke="rgb(80,100,76)" stroke-width="1" />
		<g>
			<title>PF00486</title>
			<rect class="PF00486" x="126" y="18" stroke-linejoin="round" width="7" height="26" fill="rgb(204,153,57)" stroke="rgb(163,122,45)" stroke-width="1" opacity="0.75" />
		</g>
		<g>
			<title>PF03704</title>
			<polygon class="PF03704" points="134,18 136,18 147,31 136,44 134,44" stroke-linejoin="round" width="14" height="26" fill="rgb(217,89,196)" stroke="rgb(173,71,156)" stroke-width="1" opacity="0.75" />
		</g>
	</g>
	<g>
		<title>ifnE</title>
		<polygon class="ifnE" points="155,16 155,16 155,1 174,31 155,61 155,46 155,46" fill="rgb(253,181,209)" fill-opacity="1.0" stroke="rgb(101,72,83)" stroke-width="1" />
		<g>
			<title>PF03358</title>
			<polygon class="PF03358" points="155,18 163,18 168,26 168,36 163,44 155,44" stroke-linejoin="round" width="13" height="26" fill="rgb(90,228,61)" stroke="rgb(72,182,48)" stroke-width="1" opacity="0.75" />
		</g>
	</g>
	<g>
		<title>ifnF</title>
		<polygon class="ifnF" points="211,16 209,16 209,1 179,31 209,61 209,46 211,46" fill="rgb(208,232,252)" fill-opacity="1.0" stroke="rgb(83,92,100)" stroke-width="1" />
		<g>
			<title>PF07859</title>
			<polygon class="PF07859" points="182,30 194,18 202,18 202,44 194,44 182,31" stroke-linejoin="round" width="20" height="26" fill="rgb(183,51,179)" stroke="rgb(146,40,143)" stroke-width="1" opacity="0.75" />
		</g>
	</g>
	<g>
		<title>ifnG</title>
		<polygon class="ifnG" points="251,16 245,16 245,1 215,31 245,61 245,46 251,46" fill="rgb(250,193,202)" fill-opacity="1.0" stroke="rgb(100,77,80)" stroke-width="1" />
	</g>
	<g>
		<title>ifnH</title>
		<polygon class="ifnH" points="296,16 289,16 289,1 259,31 289,61 289,46 296,46" fill="rgb(206,221,252)" fill-opacity="1.0" stroke="rgb(82,88,100)" stroke-width="1" />
		<g>
			<title>PF08028</title>
			<polygon class="PF08028" points="261,31 273,19 273,42" stroke-linejoin="round" width="13" height="26" fill="rgb(106,185,56)" stroke="rgb(84,148,44)" stroke-width="1" opacity="0.75" />
		</g>
		<g>
			<title>PF02771</title>
			<rect class="PF02771" x="287" y="18" stroke-linejoin="round" width="9" height="26" fill="rgb(105,135,218)" stroke="rgb(84,108,174)" stroke-width="1" opacity="0.75" />
		</g>
	</g>
</svg>
