<svg version="1.1" baseProfile="full" xmlns="http://www.w3.org/2000/svg" width="1520" height="62">
	<line x1="1" y1="31" x2="1519" y2="31" style="stroke:rgb(50,50,50); stroke-width:3 "/>
	<g>
		<title>noc-2</title>
		<polygon class="noc-2" points="292,16 299,16 299,1 329,31 299,61 299,46 292,46" fill="rgb(252,184,191)" fill-opacity="1.0" stroke="rgb(100,73,76)" stroke-width="1" />
		<g>
			<title>PF04542</title>
			<rect class="PF04542" x="292" y="18" stroke-linejoin="round" width="7" height="26" fill="rgb(184,59,197)" stroke="rgb(147,47,157)" stroke-width="1" opacity="0.75" />
		</g>
		<g>
			<title>PF08281</title>
			<rect class="PF08281" x="301" y="18" stroke-linejoin="round" width="5" height="26" fill="rgb(222,103,144)" stroke="rgb(177,82,115)" stroke-width="1" opacity="0.75" />
		</g>
	</g>
	<g>
		<title>noc-1</title>
		<polygon class="noc-1" points="333,16 333,16 333,1 347,31 333,61 333,46 333,46" fill="rgb(208,254,253)" fill-opacity="1.0" stroke="rgb(83,101,101)" stroke-width="1" />
	</g>
	<g>
		<title>nocP</title>
		<polygon class="nocP" points="377,16 377,16 377,1 347,31 377,61 377,46 377,46" fill="rgb(251,189,240)" fill-opacity="1.0" stroke="rgb(100,75,96)" stroke-width="1" />
		<g>
			<title>PF03704</title>
			<polygon class="PF03704" points="351,29 362,18 365,18 365,44 362,44 351,32" stroke-linejoin="round" width="14" height="26" fill="rgb(217,89,196)" stroke="rgb(173,71,156)" stroke-width="1" opacity="0.75" />
		</g>
		<g>
			<title>PF00486</title>
			<rect class="PF00486" x="366" y="18" stroke-linejoin="round" width="8" height="26" fill="rgb(204,153,57)" stroke="rgb(163,122,45)" stroke-width="1" opacity="0.75" />
		</g>
	</g>
	<g>
		<title>nocS1</title>
		<polygon class="nocS1" points="423,16 414,16 414,1 384,31 414,61 414,46 423,46" fill="rgb(217,186,250)" fill-opacity="1.0" stroke="rgb(86,74,100)" stroke-width="1" />
		<g>
			<title>PF00201</title>
			<polygon class="PF00201" points="386,31 399,18 405,18 405,44 399,44" stroke-linejoin="round" width="19" height="26" fill="rgb(225,150,107)" stroke="rgb(180,120,85)" stroke-width="1" opacity="0.75" />
		</g>
		<g>
			<title>PF13579</title>
			<rect class="PF13579" x="405" y="18" stroke-linejoin="round" width="17" height="26" fill="rgb(143,60,202)" stroke="rgb(114,47,161)" stroke-width="1" opacity="0.75" />
		</g>
	</g>
	<g>
		<title>nocB</title>
		<polygon class="nocB" points="464,16 454,16 454,1 424,31 454,61 454,46 464,46" fill="rgb(221,253,214)" fill-opacity="1.0" stroke="rgb(88,101,85)" stroke-width="1" />
		<g>
			<title>PF00067</title>
			<polygon class="PF00067" points="427,30 437,20 437,41 427,31" stroke-linejoin="round" width="10" height="26" fill="rgb(85,216,107)" stroke="rgb(68,172,85)" stroke-width="1" opacity="0.75" />
		</g>
	</g>
	<g>
		<title>nocQ</title>
		<polygon class="nocQ" points="484,16 484,16 484,1 464,31 484,61 484,46 484,46" fill="rgb(250,222,186)" fill-opacity="1.0" stroke="rgb(100,88,74)" stroke-width="1" />
		<g>
			<title>PF13649</title>
			<polygon class="PF13649" points="469,27 475,18 478,18 478,44 475,44 469,34" stroke-linejoin="round" width="9" height="26" fill="rgb(227,135,74)" stroke="rgb(181,108,59)" stroke-width="1" opacity="0.75" />
		</g>
	</g>
	<g>
		<title>nocA</title>
		<polygon class="nocA" points="500,16 500,16 500,1 485,31 500,61 500,46 500,46" fill="rgb(251,212,207)" fill-opacity="1.0" stroke="rgb(100,84,82)" stroke-width="1" />
	</g>
	<g>
		<title>nocS2</title>
		<polygon class="nocS2" points="523,16 523,16 523,1 500,31 523,61 523,46 523,46" fill="rgb(205,250,217)" fill-opacity="1.0" stroke="rgb(82,100,86)" stroke-width="1" />
		<g>
			<title>PF13649</title>
			<polygon class="PF13649" points="510,21 512,18 519,18 519,44 512,44 510,40" stroke-linejoin="round" width="9" height="26" fill="rgb(227,135,74)" stroke="rgb(181,108,59)" stroke-width="1" opacity="0.75" />
		</g>
	</g>
	<g>
		<title>nocS3</title>
		<polygon class="nocS3" points="566,16 555,16 555,1 525,31 555,61 555,46 566,46" fill="rgb(220,199,251)" fill-opacity="1.0" stroke="rgb(88,79,100)" stroke-width="1" />
		<g>
			<title>PF08484</title>
			<polygon class="PF08484" points="527,31 540,18 540,43" stroke-linejoin="round" width="15" height="26" fill="rgb(229,72,107)" stroke="rgb(183,57,85)" stroke-width="1" opacity="0.75" />
		</g>
		<g>
			<title>PF13489</title>
			<rect class="PF13489" x="541" y="18" stroke-linejoin="round" width="16" height="26" fill="rgb(188,189,66)" stroke="rgb(150,151,52)" stroke-width="1" opacity="0.75" />
		</g>
		<g>
			<title>PF08421</title>
			<rect class="PF08421" x="559" y="18" stroke-linejoin="round" width="5" height="26" fill="rgb(209,96,160)" stroke="rgb(167,76,128)" stroke-width="1" opacity="0.75" />
		</g>
	</g>
	<g>
		<title>nocS4</title>
		<polygon class="nocS4" points="599,16 597,16 597,1 567,31 597,61 597,46 599,46" fill="rgb(194,187,252)" fill-opacity="1.0" stroke="rgb(77,74,100)" stroke-width="1" />
		<g>
			<title>PF01408</title>
			<rect class="PF01408" x="588" y="18" stroke-linejoin="round" width="11" height="26" fill="rgb(76,117,190)" stroke="rgb(60,93,152)" stroke-width="1" opacity="0.75" />
		</g>
	</g>
	<g>
		<title>noc-11</title>
		<polygon class="noc-11" points="45,16 31,16 31,1 1,31 31,61 31,46 45,46" fill="rgb(245,250,181)" fill-opacity="1.0" stroke="rgb(98,100,72)" stroke-width="1" />
		<g>
			<title>PF02801</title>
			<polygon class="PF02801" points="5,29 16,18 16,43 5,32" stroke-linejoin="round" width="11" height="26" fill="rgb(215,78,102)" stroke="rgb(172,62,81)" stroke-width="1" opacity="0.75" />
		</g>
		<g>
			<title>PF00109</title>
			<rect class="PF00109" x="17" y="18" stroke-linejoin="round" width="25" height="26" fill="rgb(112,116,228)" stroke="rgb(89,92,182)" stroke-width="1" opacity="0.75" />
		</g>
		<g>
			<title>PF08990</title>
			<rect class="PF08990" x="42" y="18" stroke-linejoin="round" width="2" height="26" fill="rgb(180,75,55)" stroke="rgb(144,60,44)" stroke-width="1" opacity="0.75" />
		</g>
	</g>
	<g>
		<title>nocS5</title>
		<polygon class="nocS5" points="647,16 630,16 630,1 600,31 630,61 630,46 647,46" fill="rgb(223,196,254)" fill-opacity="1.0" stroke="rgb(89,78,101)" stroke-width="1" />
		<g>
			<title>PF03559</title>
			<polygon class="PF03559" points="602,31 615,18 620,18 620,44 615,44" stroke-linejoin="round" width="20" height="26" fill="rgb(74,201,66)" stroke="rgb(59,160,52)" stroke-width="1" opacity="0.75" />
		</g>
		<g>
			<title>PF03559</title>
			<rect class="PF03559" x="623" y="18" stroke-linejoin="round" width="4" height="26" fill="rgb(74,201,66)" stroke="rgb(59,160,52)" stroke-width="1" opacity="0.75" />
		</g>
		<g>
			<title>PF03559</title>
			<rect class="PF03559" x="627" y="18" stroke-linejoin="round" width="17" height="26" fill="rgb(74,201,66)" stroke="rgb(59,160,52)" stroke-width="1" opacity="0.75" />
		</g>
	</g>
	<g>
		<title>nocS6</title>
		<polygon class="nocS6" points="685,16 678,16 678,1 648,31 678,61 678,46 685,46" fill="rgb(192,252,221)" fill-opacity="1.0" stroke="rgb(76,100,88)" stroke-width="1" />
		<g>
			<title>PF01041</title>
			<polygon class="PF01041" points="650,31 663,18 685,18 685,44 663,44" stroke-linejoin="round" width="36" height="26" fill="rgb(59,139,191)" stroke="rgb(47,111,152)" stroke-width="1" opacity="0.75" />
		</g>
	</g>
	<g>
		<title>nocT</title>
		<polygon class="nocT" points="724,16 717,16 717,1 687,31 717,61 717,46 724,46" fill="rgb(217,213,252)" fill-opacity="1.0" stroke="rgb(86,85,100)" stroke-width="1" />
	</g>
	<g>
		<title>nocU</title>
		<polygon class="nocU" points="765,16 754,16 754,1 724,31 754,61 754,46 765,46" fill="rgb(230,178,251)" fill-opacity="1.0" stroke="rgb(92,71,100)" stroke-width="1" />
		<g>
			<title>PF00067</title>
			<polygon class="PF00067" points="726,31 738,19 738,42" stroke-linejoin="round" width="13" height="26" fill="rgb(85,216,107)" stroke="rgb(68,172,85)" stroke-width="1" opacity="0.75" />
		</g>
	</g>
	<g>
		<title>nocR</title>
		<polygon class="nocR" points="783,16 783,16 783,1 766,31 783,61 783,46 783,46" fill="rgb(180,251,250)" fill-opacity="1.0" stroke="rgb(72,100,100)" stroke-width="1" />
		<g>
			<title>PF00903</title>
			<polygon class="PF00903" points="768,31 775,18 780,18 780,44 775,44" stroke-linejoin="round" width="12" height="26" fill="rgb(50,162,189)" stroke="rgb(40,129,151)" stroke-width="1" opacity="0.75" />
		</g>
	</g>
	<g>
		<title>nocV</title>
		<polygon class="nocV" points="822,16 814,16 814,1 784,31 814,61 814,46 822,46" fill="rgb(212,254,220)" fill-opacity="1.0" stroke="rgb(84,101,88)" stroke-width="1" />
	</g>
	<g>
		<title>nocC</title>
		<polygon class="nocC" points="864,16 852,16 852,1 822,31 852,61 852,46 864,46" fill="rgb(204,254,215)" fill-opacity="1.0" stroke="rgb(81,101,86)" stroke-width="1" />
		<g>
			<title>PF00067</title>
			<polygon class="PF00067" points="824,31 837,18 860,18 860,44 837,44" stroke-linejoin="round" width="36" height="26" fill="rgb(85,216,107)" stroke="rgb(68,172,85)" stroke-width="1" opacity="0.75" />
		</g>
	</g>
	<g>
		<title>nocD</title>
		<polygon class="nocD" points="899,16 896,16 896,1 866,31 896,61 896,46 899,46" fill="rgb(180,183,251)" fill-opacity="1.0" stroke="rgb(72,73,100)" stroke-width="1" />
		<g>
			<title>PF14028</title>
			<polygon class="PF14028" points="868,31 881,18 898,18 898,44 881,44" stroke-linejoin="round" width="30" height="26" fill="rgb(107,223,113)" stroke="rgb(85,178,90)" stroke-width="1" opacity="0.75" />
		</g>
	</g>
	<g>
		<title>nocE</title>
		<polygon class="nocE" points="984,16 929,16 929,1 899,31 929,61 929,46 984,46" fill="rgb(197,251,208)" fill-opacity="1.0" stroke="rgb(78,100,83)" stroke-width="1" />
		<g>
			<title>PF04738</title>
			<polygon class="PF04738" points="907,25 914,18 971,18 971,44 914,44 907,36" stroke-linejoin="round" width="64" height="26" fill="rgb(219,60,229)" stroke="rgb(175,47,183)" stroke-width="1" opacity="0.75" />
		</g>
	</g>
	<g>
		<title>nocF</title>
		<polygon class="nocF" points="1033,16 1015,16 1015,1 985,31 1015,61 1015,46 1033,46" fill="rgb(220,211,250)" fill-opacity="1.0" stroke="rgb(88,84,100)" stroke-width="1" />
		<g>
			<title>PF00881</title>
			<rect class="PF00881" x="1010" y="18" stroke-linejoin="round" width="15" height="26" fill="rgb(79,118,187)" stroke="rgb(63,94,149)" stroke-width="1" opacity="0.75" />
		</g>
	</g>
	<g>
		<title>noc-10</title>
		<polygon class="noc-10" points="118,16 81,16 81,1 51,31 81,61 81,46 118,46" fill="rgb(253,182,196)" fill-opacity="1.0" stroke="rgb(101,72,78)" stroke-width="1" />
		<g>
			<title>PF13191</title>
			<polygon class="PF13191" points="55,29 66,18 72,18 72,44 66,44 55,32" stroke-linejoin="round" width="17" height="26" fill="rgb(186,102,77)" stroke="rgb(148,81,61)" stroke-width="1" opacity="0.75" />
		</g>
		<g>
			<title>PF03704</title>
			<rect class="PF03704" x="91" y="18" stroke-linejoin="round" width="14" height="26" fill="rgb(217,89,196)" stroke="rgb(173,71,156)" stroke-width="1" opacity="0.75" />
		</g>
	</g>
	<g>
		<title>nocG</title>
		<polygon class="nocG" points="1096,16 1063,16 1063,1 1033,31 1063,61 1063,46 1096,46" fill="rgb(200,253,204)" fill-opacity="1.0" stroke="rgb(80,101,81)" stroke-width="1" />
		<g>
			<title>PF02624</title>
			<polygon class="PF02624" points="1037,29 1048,18 1071,18 1071,44 1048,44 1037,32" stroke-linejoin="round" width="34" height="26" fill="rgb(76,84,185)" stroke="rgb(60,67,148)" stroke-width="1" opacity="0.75" />
		</g>
	</g>
	<g>
		<title>nocH</title>
		<polygon class="nocH" points="1156,16 1127,16 1127,1 1097,31 1127,61 1127,46 1156,46" fill="rgb(194,249,210)" fill-opacity="1.0" stroke="rgb(77,99,84)" stroke-width="1" />
	</g>
	<g>
		<title>nocI</title>
		<polygon class="nocI" points="1197,16 1186,16 1186,1 1156,31 1186,61 1186,46 1197,46" fill="rgb(252,188,202)" fill-opacity="1.0" stroke="rgb(100,75,80)" stroke-width="1" />
		<g>
			<title>PF00501</title>
			<polygon class="PF00501" points="1165,24 1171,18 1192,18 1192,44 1171,44 1165,37" stroke-linejoin="round" width="27" height="26" fill="rgb(60,217,223)" stroke="rgb(48,173,178)" stroke-width="1" opacity="0.75" />
		</g>
	</g>
	<g>
		<title>nocK</title>
		<polygon class="nocK" points="1227,16 1227,16 1227,1 1198,31 1227,61 1227,46 1227,46" fill="rgb(253,187,205)" fill-opacity="1.0" stroke="rgb(101,74,82)" stroke-width="1" />
		<g>
			<title>PF12697</title>
			<polygon class="PF12697" points="1204,27 1213,18 1225,18 1225,44 1213,44 1204,34" stroke-linejoin="round" width="21" height="26" fill="rgb(113,71,219)" stroke="rgb(90,56,175)" stroke-width="1" opacity="0.75" />
		</g>
	</g>
	<g>
		<title>nocL</title>
		<polygon class="nocL" points="1266,16 1259,16 1259,1 1229,31 1259,61 1259,46 1266,46" fill="rgb(213,206,250)" fill-opacity="1.0" stroke="rgb(85,82,100)" stroke-width="1" />
		<g>
			<title>PF06968</title>
			<polygon class="PF06968" points="1231,31 1240,22 1240,39" stroke-linejoin="round" width="10" height="26" fill="rgb(91,179,207)" stroke="rgb(72,143,165)" stroke-width="1" opacity="0.75" />
		</g>
	</g>
	<g>
		<title>nocM</title>
		<polygon class="nocM" points="1282,16 1282,16 1282,1 1287,31 1282,61 1282,46 1282,46" fill="rgb(182,186,250)" fill-opacity="1.0" stroke="rgb(72,74,100)" stroke-width="1" />
	</g>
	<g>
		<title>nocN</title>
		<polygon class="nocN" points="1291,16 1303,16 1303,1 1333,31 1303,61 1303,46 1291,46" fill="rgb(183,250,238)" fill-opacity="1.0" stroke="rgb(73,100,95)" stroke-width="1" />
		<g>
			<title>PF04055</title>
			<rect class="PF04055" x="1294" y="18" stroke-linejoin="round" width="18" height="26" fill="rgb(149,56,222)" stroke="rgb(119,44,177)" stroke-width="1" opacity="0.75" />
		</g>
	</g>
	<g>
		<title>nocO</title>
		<polygon class="nocO" points="1333,16 1334,16 1334,1 1364,31 1334,61 1334,46 1333,46" fill="rgb(212,244,254)" fill-opacity="1.0" stroke="rgb(84,97,101)" stroke-width="1" />
		<g>
			<title>PF14028</title>
			<polygon class="PF14028" points="1341,18 1348,18 1361,31 1348,44 1341,44" stroke-linejoin="round" width="21" height="26" fill="rgb(107,223,113)" stroke="rgb(85,178,90)" stroke-width="1" opacity="0.75" />
		</g>
	</g>
	<g>
		<title>noc1</title>
		<polygon class="noc1" points="1380,16 1380,16 1380,1 1367,31 1380,61 1380,46 1380,46" fill="rgb(202,252,247)" fill-opacity="1.0" stroke="rgb(80,100,98)" stroke-width="1" />
		<g>
			<title>PF03860</title>
			<polygon class="PF03860" points="1369,31 1368,33 1368,28" stroke-linejoin="round" width="1" height="26" fill="rgb(196,97,124)" stroke="rgb(156,77,99)" stroke-width="1" opacity="0.75" />
		</g>
	</g>
	<g>
		<title>noc2</title>
		<polygon class="noc2" points="1399,16 1399,16 1399,1 1384,31 1399,61 1399,46 1399,46" fill="rgb(188,191,250)" fill-opacity="1.0" stroke="rgb(75,76,100)" stroke-width="1" />
	</g>
	<g>
		<title>noc-9</title>
		<polygon class="noc-9" points="154,16 148,16 148,1 118,31 148,61 148,46 154,46" fill="rgb(187,183,251)" fill-opacity="1.0" stroke="rgb(74,73,100)" stroke-width="1" />
	</g>
	<g>
		<title>noc3</title>
		<polygon class="noc3" points="1416,16 1416,16 1416,1 1402,31 1416,61 1416,46 1416,46" fill="rgb(254,211,214)" fill-opacity="1.0" stroke="rgb(101,84,85)" stroke-width="1" />
		<g>
			<title>PF00011</title>
			<polygon class="PF00011" points="1404,31 1410,18 1413,18 1413,44 1410,44" stroke-linejoin="round" width="10" height="26" fill="rgb(148,223,75)" stroke="rgb(118,178,60)" stroke-width="1" opacity="0.75" />
		</g>
	</g>
	<g>
		<title>noc4</title>
		<polygon class="noc4" points="1419,16 1419,16 1419,1 1439,31 1419,61 1419,46 1419,46" fill="rgb(252,247,207)" fill-opacity="1.0" stroke="rgb(100,98,82)" stroke-width="1" />
	</g>
	<g>
		<title>noc5</title>
		<polygon class="noc5" points="1441,16 1441,16 1441,1 1458,31 1441,61 1441,46 1441,46" fill="rgb(195,252,205)" fill-opacity="1.0" stroke="rgb(77,100,82)" stroke-width="1" />
		<g>
			<title>PF04239</title>
			<polygon class="PF04239" points="1450,21 1455,31 1450,41" stroke-linejoin="round" width="7" height="26" fill="rgb(165,197,85)" stroke="rgb(132,157,68)" stroke-width="1" opacity="0.75" />
		</g>
	</g>
	<g>
		<title>noc6</title>
		<polygon class="noc6" points="1467,16 1467,16 1467,1 1493,31 1467,61 1467,46 1467,46" fill="rgb(218,249,203)" fill-opacity="1.0" stroke="rgb(87,99,81)" stroke-width="1" />
		<g>
			<title>PF13847</title>
			<polygon class="PF13847" points="1470,18 1479,18 1486,26 1486,36 1479,44 1470,44" stroke-linejoin="round" width="16" height="26" fill="rgb(214,74,181)" stroke="rgb(171,59,144)" stroke-width="1" opacity="0.75" />
		</g>
	</g>
	<g>
		<title>noc7</title>
		<polygon class="noc7" points="1498,16 1498,16 1498,1 1515,31 1498,61 1498,46 1498,46" fill="rgb(179,249,216)" fill-opacity="1.0" stroke="rgb(71,99,86)" stroke-width="1" />
		<g>
			<title>PF12849</title>
			<polygon class="PF12849" points="1502,18 1505,18 1512,31 1505,44 1502,44" stroke-linejoin="round" width="12" height="26" fill="rgb(160,200,96)" stroke="rgb(128,160,76)" stroke-width="1" opacity="0.75" />
		</g>
	</g>
	<g>
		<title>noc-8</title>
		<polygon class="noc-8" points="192,16 186,16 186,1 156,31 186,61 186,46 192,46" fill="rgb(253,193,189)" fill-opacity="1.0" stroke="rgb(101,77,75)" stroke-width="1" />
		<g>
			<title>PF00441</title>
			<polygon class="PF00441" points="158,31 171,18 171,43" stroke-linejoin="round" width="15" height="26" fill="rgb(85,191,117)" stroke="rgb(68,152,93)" stroke-width="1" opacity="0.75" />
		</g>
		<g>
			<title>PF02770</title>
			<rect class="PF02770" x="172" y="18" stroke-linejoin="round" width="9" height="26" fill="rgb(225,186,97)" stroke="rgb(180,148,77)" stroke-width="1" opacity="0.75" />
		</g>
		<g>
			<title>PF02771</title>
			<rect class="PF02771" x="181" y="18" stroke-linejoin="round" width="10" height="26" fill="rgb(105,135,218)" stroke="rgb(84,108,174)" stroke-width="1" opacity="0.75" />
		</g>
	</g>
	<g>
		<title>noc-7</title>
		<polygon class="noc-7" points="200,16 200,16 200,1 192,31 200,61 200,46 200,46" fill="rgb(220,249,210)" fill-opacity="1.0" stroke="rgb(88,99,84)" stroke-width="1" />
		<g>
			<title>PF00550</title>
			<polygon class="PF00550" points="194,31 197,18 199,18 199,44 197,44" stroke-linejoin="round" width="6" height="26" fill="rgb(103,191,88)" stroke="rgb(82,152,70)" stroke-width="1" opacity="0.75" />
		</g>
	</g>
	<g>
		<title>noc-6</title>
		<polygon class="noc-6" points="223,16 223,16 223,1 201,31 223,61 223,46 223,46" fill="rgb(212,251,248)" fill-opacity="1.0" stroke="rgb(84,100,99)" stroke-width="1" />
		<g>
			<title>PF01596</title>
			<polygon class="PF01596" points="203,31 213,18 221,18 221,44 213,44" stroke-linejoin="round" width="20" height="26" fill="rgb(168,187,48)" stroke="rgb(134,149,38)" stroke-width="1" opacity="0.75" />
		</g>
	</g>
	<g>
		<title>noc-5</title>
		<polygon class="noc-5" points="250,16 250,16 250,1 223,31 250,61 250,46 250,46" fill="rgb(189,206,250)" fill-opacity="1.0" stroke="rgb(75,82,100)" stroke-width="1" />
		<g>
			<title>PF00725</title>
			<polygon class="PF00725" points="225,31 232,23 232,38" stroke-linejoin="round" width="9" height="26" fill="rgb(180,78,60)" stroke="rgb(144,62,48)" stroke-width="1" opacity="0.75" />
		</g>
		<g>
			<title>PF02737</title>
			<polygon class="PF02737" points="233,22 237,18 250,18 250,44 237,44 233,39" stroke-linejoin="round" width="17" height="26" fill="rgb(212,65,199)" stroke="rgb(169,52,159)" stroke-width="1" opacity="0.75" />
		</g>
	</g>
	<g>
		<title>noc-4</title>
		<polygon class="noc-4" points="269,16 269,16 269,1 258,31 269,61 269,46 269,46" fill="rgb(195,253,242)" fill-opacity="1.0" stroke="rgb(78,101,96)" stroke-width="1" />
	</g>
	<g>
		<title>noc-3</title>
		<polygon class="noc-3" points="277,16 277,16 277,1 291,31 277,61 277,46 277,46" fill="rgb(195,238,251)" fill-opacity="1.0" stroke="rgb(78,95,100)" stroke-width="1" />
		<g>
			<title>PF03795</title>
			<polygon class="PF03795" points="278,18 282,18 288,31 282,44 278,44" stroke-linejoin="round" width="11" height="26" fill="rgb(54,71,186)" stroke="rgb(43,56,148)" stroke-width="1" opacity="0.75" />
		</g>
	</g>
</svg>
