<svg version="1.1" baseProfile="full" xmlns="http://www.w3.org/2000/svg" width="454" height="124">
	<line x1="1" y1="31" x2="453" y2="31" style="stroke:rgb(50,50,50); stroke-width:3 "/>
	<line x1="1" y1="93" x2="75" y2="93" style="stroke:rgb(50,50,50); stroke-width:3 "/>
	<g>
		<title>tlmB</title>
		<polygon class="tlmB" points="298,16 31,16 31,1 1,31 31,61 31,46 298,46" fill="rgb(207,250,220)" fill-opacity="1.0" stroke="rgb(82,100,88)" stroke-width="1" />
		<g>
			<title>PF00975</title>
			<polygon class="PF00975" points="3,31 16,18 24,18 24,44 16,44" stroke-linejoin="round" width="23" height="26" fill="rgb(207,80,138)" stroke="rgb(165,63,110)" stroke-width="1" opacity="0.75" />
		</g>
		<g>
			<title>PF00550</title>
			<rect class="PF00550" x="26" y="18" stroke-linejoin="round" width="6" height="26" fill="rgb(103,191,88)" stroke="rgb(82,152,70)" stroke-width="1" opacity="0.75" />
		</g>
		<g>
			<title>PF13193</title>
			<rect class="PF13193" x="35" y="18" stroke-linejoin="round" width="6" height="26" fill="rgb(182,50,118)" stroke="rgb(145,39,94)" stroke-width="1" opacity="0.75" />
		</g>
		<g>
			<title>PF00501</title>
			<rect class="PF00501" x="43" y="18" stroke-linejoin="round" width="39" height="26" fill="rgb(60,217,223)" stroke="rgb(48,173,178)" stroke-width="1" opacity="0.75" />
		</g>
		<g>
			<title>PF00668</title>
			<rect class="PF00668" x="94" y="18" stroke-linejoin="round" width="34" height="26" fill="rgb(224,184,98)" stroke="rgb(179,147,78)" stroke-width="1" opacity="0.75" />
		</g>
		<g>
			<title>PF00550</title>
			<rect class="PF00550" x="131" y="18" stroke-linejoin="round" width="6" height="26" fill="rgb(103,191,88)" stroke="rgb(82,152,70)" stroke-width="1" opacity="0.75" />
		</g>
		<g>
			<title>PF08659</title>
			<rect class="PF08659" x="147" y="18" stroke-linejoin="round" width="17" height="26" fill="rgb(66,209,188)" stroke="rgb(52,167,150)" stroke-width="1" opacity="0.75" />
		</g>
		<g>
			<title>PF14765</title>
			<rect class="PF14765" x="183" y="18" stroke-linejoin="round" width="26" height="26" fill="rgb(173,56,182)" stroke="rgb(138,44,145)" stroke-width="1" opacity="0.75" />
		</g>
		<g>
			<title>PF00698</title>
			<rect class="PF00698" x="214" y="18" stroke-linejoin="round" width="31" height="26" fill="rgb(59,176,209)" stroke="rgb(47,140,167)" stroke-width="1" opacity="0.75" />
		</g>
		<g>
			<title>PF16197</title>
			<rect class="PF16197" x="249" y="18" stroke-linejoin="round" width="10" height="26" fill="rgb(68,179,89)" stroke="rgb(54,143,71)" stroke-width="1" opacity="0.75" />
		</g>
		<g>
			<title>PF02801</title>
			<rect class="PF02801" x="260" y="18" stroke-linejoin="round" width="11" height="26" fill="rgb(215,78,102)" stroke="rgb(172,62,81)" stroke-width="1" opacity="0.75" />
		</g>
		<g>
			<title>PF00109</title>
			<rect class="PF00109" x="273" y="18" stroke-linejoin="round" width="25" height="26" fill="rgb(112,116,228)" stroke="rgb(89,92,182)" stroke-width="1" opacity="0.75" />
		</g>
	</g>
	<g>
		<title>tlmA</title>
		<polygon class="tlmA" points="362,16 328,16 328,1 298,31 328,61 328,46 362,46" fill="rgb(253,205,232)" fill-opacity="1.0" stroke="rgb(101,82,92)" stroke-width="1" />
		<g>
			<title>PF00550</title>
			<polygon class="PF00550" points="300,31 305,26 305,35" stroke-linejoin="round" width="6" height="26" fill="rgb(103,191,88)" stroke="rgb(82,152,70)" stroke-width="1" opacity="0.75" />
		</g>
		<g>
			<title>PF16197</title>
			<rect class="PF16197" x="316" y="18" stroke-linejoin="round" width="10" height="26" fill="rgb(68,179,89)" stroke="rgb(54,143,71)" stroke-width="1" opacity="0.75" />
		</g>
		<g>
			<title>PF02801</title>
			<rect class="PF02801" x="327" y="18" stroke-linejoin="round" width="11" height="26" fill="rgb(215,78,102)" stroke="rgb(172,62,81)" stroke-width="1" opacity="0.75" />
		</g>
		<g>
			<title>PF00109</title>
			<rect class="PF00109" x="339" y="18" stroke-linejoin="round" width="23" height="26" fill="rgb(112,116,228)" stroke="rgb(89,92,182)" stroke-width="1" opacity="0.75" />
		</g>
	</g>
	<g>
		<title>tlmD1</title>
		<polygon class="tlmD1" points="401,16 393,16 393,1 363,31 393,61 393,46 401,46" fill="rgb(219,254,209)" fill-opacity="1.0" stroke="rgb(87,101,83)" stroke-width="1" />
		<g>
			<title>PF00067</title>
			<polygon class="PF00067" points="365,31 378,18 384,18 384,44 378,44" stroke-linejoin="round" width="19" height="26" fill="rgb(85,216,107)" stroke="rgb(68,172,85)" stroke-width="1" opacity="0.75" />
		</g>
	</g>
	<g>
		<title>tlmF1</title>
		<polygon class="tlmF1" points="452,16 442,16 442,1 412,31 442,61 442,46 452,46" fill="rgb(206,251,228)" fill-opacity="1.0" stroke="rgb(82,100,91)" stroke-width="1" />
		<g>
			<title>PF02801</title>
			<polygon class="PF02801" points="416,29 427,18 427,43 416,32" stroke-linejoin="round" width="11" height="26" fill="rgb(215,78,102)" stroke="rgb(172,62,81)" stroke-width="1" opacity="0.75" />
		</g>
		<g>
			<title>PF00109</title>
			<rect class="PF00109" x="428" y="18" stroke-linejoin="round" width="24" height="26" fill="rgb(112,116,228)" stroke="rgb(89,92,182)" stroke-width="1" opacity="0.75" />
		</g>
	</g>
	<g>
		<title>tlmS</title>
		<polygon class="tlmS" points="2,78 9,78 9,63 39,93 9,123 9,108 2,108" fill="rgb(191,251,186)" fill-opacity="1.0" stroke="rgb(76,100,74)" stroke-width="1" />
		<g>
			<title>PF00266</title>
			<polygon class="PF00266" points="2,80 23,80 36,93 36,93 23,106 2,106" stroke-linejoin="round" width="34" height="26" fill="rgb(214,54,122)" stroke="rgb(171,43,97)" stroke-width="1" opacity="0.75" />
		</g>
	</g>
	<g>
		<title>tlmJ</title>
		<polygon class="tlmJ" points="40,78 45,78 45,63 75,93 45,123 45,108 40,108" fill="rgb(251,194,199)" fill-opacity="1.0" stroke="rgb(100,77,79)" stroke-width="1" />
		<g>
			<title>PF03054</title>
			<polygon class="PF03054" points="40,80 59,80 72,93 59,106 40,106" stroke-linejoin="round" width="34" height="26" fill="rgb(197,86,150)" stroke="rgb(157,68,120)" stroke-width="1" opacity="0.75" />
		</g>
	</g>
</svg>
