<svg version="1.1" baseProfile="full" xmlns="http://www.w3.org/2000/svg" width="1346" height="62">
	<line x1="1" y1="31" x2="1345" y2="31" style="stroke:rgb(50,50,50); stroke-width:3 "/>
	<g>
		<title>scatB</title>
		<polygon class="scatB" points="622,16 620,16 620,1 590,31 620,61 620,46 622,46" fill="rgb(204,254,224)" fill-opacity="1.0" stroke="rgb(81,101,89)" stroke-width="1" />
		<g>
			<title>PF16363</title>
			<polygon class="PF16363" points="592,31 605,18 621,18 621,44 605,44" stroke-linejoin="round" width="30" height="26" fill="rgb(162,221,65)" stroke="rgb(129,176,51)" stroke-width="1" opacity="0.75" />
		</g>
	</g>
	<g>
		<title>scatA</title>
		<polygon class="scatA" points="660,16 655,16 655,1 625,31 655,61 655,46 660,46" fill="rgb(250,210,246)" fill-opacity="1.0" stroke="rgb(100,84,98)" stroke-width="1" />
		<g>
			<title>PF00483</title>
			<polygon class="PF00483" points="636,22 640,18 659,18 659,44 640,44 636,39" stroke-linejoin="round" width="23" height="26" fill="rgb(198,101,87)" stroke="rgb(158,80,69)" stroke-width="1" opacity="0.75" />
		</g>
	</g>
	<g>
		<title>scatV</title>
		<polygon class="scatV" points="668,16 681,16 681,1 711,31 681,61 681,46 668,46" fill="rgb(191,218,252)" fill-opacity="1.0" stroke="rgb(76,87,100)" stroke-width="1" />
		<g>
			<title>PF00202</title>
			<polygon class="PF00202" points="670,18 695,18 708,31 695,44 670,44" stroke-linejoin="round" width="40" height="26" fill="rgb(49,163,189)" stroke="rgb(39,130,151)" stroke-width="1" opacity="0.75" />
		</g>
	</g>
	<g>
		<title>scatW</title>
		<polygon class="scatW" points="711,16 715,16 715,1 745,31 715,61 715,46 711,46" fill="rgb(249,178,253)" fill-opacity="1.0" stroke="rgb(99,71,101)" stroke-width="1" />
		<g>
			<title>PF00005</title>
			<rect class="PF00005" x="714" y="18" stroke-linejoin="round" width="14" height="26" fill="rgb(129,201,63)" stroke="rgb(103,160,50)" stroke-width="1" opacity="0.75" />
		</g>
	</g>
	<g>
		<title>scatX</title>
		<polygon class="scatX" points="746,16 746,16 746,1 773,31 746,61 746,46 746,46" fill="rgb(197,216,252)" fill-opacity="1.0" stroke="rgb(78,86,100)" stroke-width="1" />
		<g>
			<title>PF06182</title>
			<polygon class="PF06182" points="749,18 758,18 770,31 758,44 749,44" stroke-linejoin="round" width="23" height="26" fill="rgb(223,99,59)" stroke="rgb(178,79,47)" stroke-width="1" opacity="0.75" />
		</g>
	</g>
	<g>
		<title>scatY</title>
		<polygon class="scatY" points="773,16 773,16 773,1 799,31 773,61 773,46 773,46" fill="rgb(215,240,254)" fill-opacity="1.0" stroke="rgb(86,95,101)" stroke-width="1" />
		<g>
			<title>PF06182</title>
			<polygon class="PF06182" points="777,18 785,18 796,31 785,44 777,44" stroke-linejoin="round" width="22" height="26" fill="rgb(223,99,59)" stroke="rgb(178,79,47)" stroke-width="1" opacity="0.75" />
		</g>
	</g>
	<g>
		<title>scatU</title>
		<polygon class="scatU" points="800,16 818,16 818,1 848,31 818,61 818,46 800,46" fill="rgb(226,252,206)" fill-opacity="1.0" stroke="rgb(90,100,82)" stroke-width="1" />
	</g>
	<g>
		<title>scatS</title>
		<polygon class="scatS" points="849,16 888,16 888,1 918,31 888,61 888,46 849,46" fill="rgb(249,197,221)" fill-opacity="1.0" stroke="rgb(99,78,88)" stroke-width="1" />
		<g>
			<title>PF08323</title>
			<rect class="PF08323" x="849" y="18" stroke-linejoin="round" width="18" height="26" fill="rgb(85,134,200)" stroke="rgb(67,107,160)" stroke-width="1" opacity="0.75" />
		</g>
	</g>
	<g>
		<title>scatR</title>
		<polygon class="scatR" points="920,16 925,16 925,1 955,31 925,61 925,46 920,46" fill="rgb(250,199,175)" fill-opacity="1.0" stroke="rgb(100,79,69)" stroke-width="1" />
		<g>
			<title>PF00483</title>
			<polygon class="PF00483" points="920,18 939,18 945,24 945,38 939,44 920,44" stroke-linejoin="round" width="25" height="26" fill="rgb(198,101,87)" stroke="rgb(158,80,69)" stroke-width="1" opacity="0.75" />
		</g>
	</g>
	<g>
		<title>scatK</title>
		<polygon class="scatK" points="956,16 956,16 956,1 986,31 956,61 956,46 956,46" fill="rgb(254,198,217)" fill-opacity="1.0" stroke="rgb(101,79,86)" stroke-width="1" />
		<g>
			<title>PF00294</title>
			<polygon class="PF00294" points="957,18 970,18 971,19 971,43 970,44 957,44" stroke-linejoin="round" width="14" height="26" fill="rgb(153,96,212)" stroke="rgb(122,76,169)" stroke-width="1" opacity="0.75" />
		</g>
		<g>
			<title>PF00294</title>
			<polygon class="PF00294" points="973,21 983,31 973,41" stroke-linejoin="round" width="11" height="26" fill="rgb(153,96,212)" stroke="rgb(122,76,169)" stroke-width="1" opacity="0.75" />
		</g>
	</g>
	<g>
		<title>scatZ2</title>
		<polygon class="scatZ2" points="163,16 31,16 31,1 1,31 31,61 31,46 163,46" fill="rgb(252,186,187)" fill-opacity="1.0" stroke="rgb(100,74,74)" stroke-width="1" />
		<g>
			<title>PF02922</title>
			<rect class="PF02922" x="49" y="18" stroke-linejoin="round" width="8" height="26" fill="rgb(166,223,94)" stroke="rgb(132,178,75)" stroke-width="1" opacity="0.75" />
		</g>
		<g>
			<title>PF03714</title>
			<rect class="PF03714" x="71" y="18" stroke-linejoin="round" width="9" height="26" fill="rgb(229,95,205)" stroke="rgb(183,76,164)" stroke-width="1" opacity="0.75" />
		</g>
		<g>
			<title>PF03714</title>
			<rect class="PF03714" x="82" y="18" stroke-linejoin="round" width="8" height="26" fill="rgb(229,95,205)" stroke="rgb(183,76,164)" stroke-width="1" opacity="0.75" />
		</g>
		<g>
			<title>PF02806</title>
			<rect class="PF02806" x="102" y="18" stroke-linejoin="round" width="7" height="26" fill="rgb(60,49,183)" stroke="rgb(47,39,146)" stroke-width="1" opacity="0.75" />
		</g>
		<g>
			<title>PF00128</title>
			<rect class="PF00128" x="115" y="18" stroke-linejoin="round" width="36" height="26" fill="rgb(72,189,149)" stroke="rgb(57,151,119)" stroke-width="1" opacity="0.75" />
		</g>
	</g>
	<g>
		<title>scatI</title>
		<polygon class="scatI" points="987,16 1059,16 1059,1 1089,31 1059,61 1059,46 987,46" fill="rgb(203,253,211)" fill-opacity="1.0" stroke="rgb(81,101,84)" stroke-width="1" />
		<g>
			<title>PF08323</title>
			<rect class="PF08323" x="987" y="18" stroke-linejoin="round" width="16" height="26" fill="rgb(85,134,200)" stroke="rgb(67,107,160)" stroke-width="1" opacity="0.75" />
		</g>
		<g>
			<title>PF08282</title>
			<polygon class="PF08282" points="1062,18 1073,18 1086,31 1073,44 1062,44" stroke-linejoin="round" width="25" height="26" fill="rgb(195,74,128)" stroke="rgb(156,59,102)" stroke-width="1" opacity="0.75" />
		</g>
	</g>
	<g>
		<title>scatQ</title>
		<polygon class="scatQ" points="1090,16 1130,16 1130,1 1160,31 1130,61 1130,46 1090,46" fill="rgb(219,253,199)" fill-opacity="1.0" stroke="rgb(87,101,79)" stroke-width="1" />
		<g>
			<title>PF02446</title>
			<polygon class="PF02446" points="1105,18 1144,18 1156,30 1156,32 1144,44 1105,44" stroke-linejoin="round" width="51" height="26" fill="rgb(223,71,228)" stroke="rgb(178,56,182)" stroke-width="1" opacity="0.75" />
		</g>
	</g>
	<g>
		<title>scatC</title>
		<polygon class="scatC" points="1160,16 1169,16 1169,1 1199,31 1169,61 1169,46 1160,46" fill="rgb(211,243,252)" fill-opacity="1.0" stroke="rgb(84,97,100)" stroke-width="1" />
		<g>
			<title>PF01761</title>
			<polygon class="PF01761" points="1168,18 1183,18 1193,28 1193,34 1183,44 1168,44" stroke-linejoin="round" width="25" height="26" fill="rgb(150,62,180)" stroke="rgb(120,49,144)" stroke-width="1" opacity="0.75" />
		</g>
	</g>
	<g>
		<title>scatJ</title>
		<polygon class="scatJ" points="1200,16 1200,16 1200,1 1213,31 1200,61 1200,46 1200,46" fill="rgb(226,187,251)" fill-opacity="1.0" stroke="rgb(90,74,100)" stroke-width="1" />
		<g>
			<title>PF07883</title>
			<polygon class="PF07883" points="1204,18 1204,18 1210,31 1204,44 1204,44" stroke-linejoin="round" width="7" height="26" fill="rgb(211,192,74)" stroke="rgb(168,153,59)" stroke-width="1" opacity="0.75" />
		</g>
	</g>
	<g>
		<title>scatM</title>
		<polygon class="scatM" points="1213,16 1218,16 1218,1 1248,31 1218,61 1218,46 1213,46" fill="rgb(203,199,251)" fill-opacity="1.0" stroke="rgb(81,79,100)" stroke-width="1" />
		<g>
			<title>PF00480</title>
			<polygon class="PF00480" points="1214,18 1232,18 1245,31 1232,44 1214,44" stroke-linejoin="round" width="32" height="26" fill="rgb(205,99,210)" stroke="rgb(163,79,168)" stroke-width="1" opacity="0.75" />
		</g>
	</g>
	<g>
		<title>scatO</title>
		<polygon class="scatO" points="1248,16 1250,16 1250,1 1280,31 1250,61 1250,46 1248,46" fill="rgb(209,230,252)" fill-opacity="1.0" stroke="rgb(83,92,100)" stroke-width="1" />
		<g>
			<title>PF04321</title>
			<polygon class="PF04321" points="1248,18 1264,18 1276,30 1276,32 1264,44 1248,44" stroke-linejoin="round" width="28" height="26" fill="rgb(196,203,60)" stroke="rgb(156,162,47)" stroke-width="1" opacity="0.75" />
		</g>
	</g>
	<g>
		<title>scatT</title>
		<polygon class="scatT" points="1325,16 1309,16 1309,1 1279,31 1309,61 1309,46 1325,46" fill="rgb(254,215,198)" fill-opacity="1.0" stroke="rgb(101,86,79)" stroke-width="1" />
		<g>
			<title>PF00144</title>
			<polygon class="PF00144" points="1291,21 1294,18 1322,18 1322,44 1294,44 1291,40" stroke-linejoin="round" width="31" height="26" fill="rgb(92,159,200)" stroke="rgb(73,127,160)" stroke-width="1" opacity="0.75" />
		</g>
	</g>
	<g>
		<title>scaim</title>
		<polygon class="scaim" points="1334,16 1334,16 1334,1 1345,31 1334,61 1334,46 1334,46" fill="rgb(206,218,252)" fill-opacity="1.0" stroke="rgb(82,87,100)" stroke-width="1" />
		<g>
			<title>PF01356</title>
			<polygon class="PF01356" points="1337,18 1337,18 1342,31 1337,44 1337,44" stroke-linejoin="round" width="6" height="26" fill="rgb(92,208,181)" stroke="rgb(73,166,144)" stroke-width="1" opacity="0.75" />
		</g>
	</g>
	<g>
		<title>scatZ1</title>
		<polygon class="scatZ1" points="266,16 192,16 192,1 162,31 192,61 192,46 266,46" fill="rgb(254,245,212)" fill-opacity="1.0" stroke="rgb(101,98,84)" stroke-width="1" />
		<g>
			<title>PF03714</title>
			<polygon class="PF03714" points="175,20 177,18 184,18 184,44 177,44 175,41" stroke-linejoin="round" width="9" height="26" fill="rgb(229,95,205)" stroke="rgb(183,76,164)" stroke-width="1" opacity="0.75" />
		</g>
		<g>
			<title>PF03714</title>
			<rect class="PF03714" x="186" y="18" stroke-linejoin="round" width="8" height="26" fill="rgb(229,95,205)" stroke="rgb(183,76,164)" stroke-width="1" opacity="0.75" />
		</g>
		<g>
			<title>PF02806</title>
			<rect class="PF02806" x="206" y="18" stroke-linejoin="round" width="7" height="26" fill="rgb(60,49,183)" stroke="rgb(47,39,146)" stroke-width="1" opacity="0.75" />
		</g>
		<g>
			<title>PF00128</title>
			<rect class="PF00128" x="220" y="18" stroke-linejoin="round" width="36" height="26" fill="rgb(72,189,149)" stroke="rgb(57,151,119)" stroke-width="1" opacity="0.75" />
		</g>
	</g>
	<g>
		<title>scatE2</title>
		<polygon class="scatE2" points="326,16 300,16 300,1 270,31 300,61 300,46 326,46" fill="rgb(185,251,215)" fill-opacity="1.0" stroke="rgb(74,100,86)" stroke-width="1" />
		<g>
			<title>PF00686</title>
			<polygon class="PF00686" points="272,31 278,25 278,36" stroke-linejoin="round" width="8" height="26" fill="rgb(189,66,101)" stroke="rgb(151,52,80)" stroke-width="1" opacity="0.75" />
		</g>
		<g>
			<title>PF02806</title>
			<polygon class="PF02806" points="281,22 285,18 288,18 288,44 285,44 281,39" stroke-linejoin="round" width="7" height="26" fill="rgb(60,49,183)" stroke="rgb(47,39,146)" stroke-width="1" opacity="0.75" />
		</g>
		<g>
			<title>PF00128</title>
			<rect class="PF00128" x="293" y="18" stroke-linejoin="round" width="25" height="26" fill="rgb(72,189,149)" stroke="rgb(57,151,119)" stroke-width="1" opacity="0.75" />
		</g>
	</g>
	<g>
		<title>scarC2</title>
		<polygon class="scarC2" points="373,16 368,16 368,1 338,31 368,61 368,46 373,46" fill="rgb(178,253,217)" fill-opacity="1.0" stroke="rgb(71,101,86)" stroke-width="1" />
		<g>
			<title>PF13377</title>
			<polygon class="PF13377" points="340,31 353,18 355,18 355,44 353,44" stroke-linejoin="round" width="16" height="26" fill="rgb(101,208,189)" stroke="rgb(80,166,151)" stroke-width="1" opacity="0.75" />
		</g>
		<g>
			<title>PF00356</title>
			<rect class="PF00356" x="367" y="18" stroke-linejoin="round" width="4" height="26" fill="rgb(66,188,63)" stroke="rgb(52,150,50)" stroke-width="1" opacity="0.75" />
		</g>
	</g>
	<g>
		<title>scatE1</title>
		<polygon class="scatE1" points="428,16 403,16 403,1 373,31 403,61 403,46 428,46" fill="rgb(203,211,254)" fill-opacity="1.0" stroke="rgb(81,84,101)" stroke-width="1" />
		<g>
			<title>PF11941</title>
			<polygon class="PF11941" points="375,31 381,25 381,36" stroke-linejoin="round" width="8" height="26" fill="rgb(55,147,193)" stroke="rgb(44,117,154)" stroke-width="1" opacity="0.75" />
		</g>
		<g>
			<title>PF00128</title>
			<polygon class="PF00128" points="388,18 388,18 423,18 423,44 388,44 388,43" stroke-linejoin="round" width="35" height="26" fill="rgb(72,189,149)" stroke="rgb(57,151,119)" stroke-width="1" opacity="0.75" />
		</g>
	</g>
	<g>
		<title>scatG</title>
		<polygon class="scatG" points="460,16 460,16 460,1 430,31 460,61 460,46 460,46" fill="rgb(254,179,182)" fill-opacity="1.0" stroke="rgb(101,71,72)" stroke-width="1" />
		<g>
			<title>PF00528</title>
			<polygon class="PF00528" points="432,31 445,18 449,18 449,44 445,44" stroke-linejoin="round" width="19" height="26" fill="rgb(77,208,225)" stroke="rgb(61,166,180)" stroke-width="1" opacity="0.75" />
		</g>
	</g>
	<g>
		<title>scatF</title>
		<polygon class="scatF" points="494,16 491,16 491,1 461,31 491,61 491,46 494,46" fill="rgb(222,254,211)" fill-opacity="1.0" stroke="rgb(88,101,84)" stroke-width="1" />
		<g>
			<title>PF00528</title>
			<polygon class="PF00528" points="463,31 476,18 481,18 481,44 476,44" stroke-linejoin="round" width="20" height="26" fill="rgb(77,208,225)" stroke="rgb(61,166,180)" stroke-width="1" opacity="0.75" />
		</g>
	</g>
	<g>
		<title>scatH</title>
		<polygon class="scatH" points="541,16 529,16 529,1 499,31 529,61 529,46 541,46" fill="rgb(213,250,208)" fill-opacity="1.0" stroke="rgb(85,100,83)" stroke-width="1" />
		<g>
			<title>PF01547</title>
			<polygon class="PF01547" points="507,25 514,18 536,18 536,44 514,44 507,36" stroke-linejoin="round" width="29" height="26" fill="rgb(195,119,75)" stroke="rgb(156,95,60)" stroke-width="1" opacity="0.75" />
		</g>
	</g>
	<g>
		<title>scarC1</title>
		<polygon class="scarC1" points="555,16 559,16 559,1 589,31 559,61 559,46 555,46" fill="rgb(218,205,253)" fill-opacity="1.0" stroke="rgb(87,82,101)" stroke-width="1" />
		<g>
			<title>PF00356</title>
			<rect class="PF00356" x="555" y="18" stroke-linejoin="round" width="4" height="26" fill="rgb(66,188,63)" stroke="rgb(52,150,50)" stroke-width="1" opacity="0.75" />
		</g>
		<g>
			<title>PF13377</title>
			<polygon class="PF13377" points="572,18 573,18 586,31 573,44 572,44" stroke-linejoin="round" width="16" height="26" fill="rgb(101,208,189)" stroke="rgb(80,166,151)" stroke-width="1" opacity="0.75" />
		</g>
	</g>
</svg>
