<svg version="1.1" baseProfile="full" xmlns="http://www.w3.org/2000/svg" width="1176" height="62">
	<line x1="1" y1="31" x2="1175" y2="31" style="stroke:rgb(50,50,50); stroke-width:3 "/>
	<g>
		<polygon class="NoName" points="929,16 929,16 929,1 903,31 929,61 929,46 929,46" fill="rgb(255,255,255)" fill-opacity="1.0" stroke="rgb(50,50,50)" stroke-width="1" />
		<g>
			<title>PF12697</title>
			<polygon class="PF12697" points="905,31 916,18 927,18 927,44 916,44" stroke-linejoin="round" width="23" height="26" fill="rgb(113,71,219)" stroke="rgb(90,56,175)" stroke-width="1" opacity="0.75" />
		</g>
	</g>
	<g>
		<polygon class="NoName" points="968,16 959,16 959,1 929,31 959,61 959,46 968,46" fill="rgb(255,255,255)" fill-opacity="1.0" stroke="rgb(50,50,50)" stroke-width="1" />
		<g>
			<title>PF05977</title>
			<polygon class="PF05977" points="931,31 944,18 967,18 967,44 944,44" stroke-linejoin="round" width="38" height="26" fill="rgb(80,62,217)" stroke="rgb(64,49,173)" stroke-width="1" opacity="0.75" />
		</g>
	</g>
	<g>
		<polygon class="NoName" points="973,16 994,16 994,1 1024,31 994,61 994,46 973,46" fill="rgb(255,255,255)" fill-opacity="1.0" stroke="rgb(50,50,50)" stroke-width="1" />
		<g>
			<title>PF00501</title>
			<polygon class="PF00501" points="976,18 1008,18 1014,24 1014,38 1008,44 976,44" stroke-linejoin="round" width="38" height="26" fill="rgb(60,217,223)" stroke="rgb(48,173,178)" stroke-width="1" opacity="0.75" />
		</g>
		<g>
			<title>PF13193</title>
			<polygon class="PF13193" points="1015,25 1021,31 1015,37" stroke-linejoin="round" width="7" height="26" fill="rgb(182,50,118)" stroke="rgb(145,39,94)" stroke-width="1" opacity="0.75" />
		</g>
	</g>
	<g>
		<polygon class="NoName" points="1024,16 1026,16 1026,1 1056,31 1026,61 1026,46 1024,46" fill="rgb(255,255,255)" fill-opacity="1.0" stroke="rgb(50,50,50)" stroke-width="1" />
		<g>
			<title>PF01032</title>
			<polygon class="PF01032" points="1025,18 1040,18 1053,31 1040,44 1025,44" stroke-linejoin="round" width="30" height="26" fill="rgb(210,177,70)" stroke="rgb(168,141,56)" stroke-width="1" opacity="0.75" />
		</g>
	</g>
	<g>
		<polygon class="NoName" points="1057,16 1059,16 1059,1 1089,31 1059,61 1059,46 1057,46" fill="rgb(255,255,255)" fill-opacity="1.0" stroke="rgb(50,50,50)" stroke-width="1" />
		<g>
			<title>PF01032</title>
			<polygon class="PF01032" points="1058,18 1073,18 1086,31 1073,44 1058,44" stroke-linejoin="round" width="30" height="26" fill="rgb(210,177,70)" stroke="rgb(168,141,56)" stroke-width="1" opacity="0.75" />
		</g>
	</g>
	<g>
		<polygon class="NoName" points="1133,16 1120,16 1120,1 1090,31 1120,61 1120,46 1133,46" fill="rgb(255,255,255)" fill-opacity="1.0" stroke="rgb(50,50,50)" stroke-width="1" />
		<g>
			<title>PF00425</title>
			<polygon class="PF00425" points="1092,31 1105,18 1116,18 1116,44 1105,44" stroke-linejoin="round" width="25" height="26" fill="rgb(188,116,88)" stroke="rgb(150,92,70)" stroke-width="1" opacity="0.75" />
		</g>
	</g>
	<g>
		<polygon class="NoName" points="1174,16 1162,16 1162,1 1132,31 1162,61 1162,46 1174,46" fill="rgb(255,255,255)" fill-opacity="1.0" stroke="rgb(50,50,50)" stroke-width="1" />
		<g>
			<title>PF13434</title>
			<polygon class="PF13434" points="1141,24 1147,18 1174,18 1174,44 1147,44 1141,37" stroke-linejoin="round" width="33" height="26" fill="rgb(81,213,119)" stroke="rgb(64,170,95)" stroke-width="1" opacity="0.75" />
		</g>
	</g>
	<g>
		<polygon class="NoName" points="20,16 20,16 20,1 1,31 20,61 20,46 20,46" fill="rgb(255,255,255)" fill-opacity="1.0" stroke="rgb(50,50,50)" stroke-width="1" />
		<g>
			<title>PF00440</title>
			<rect class="PF00440" x="15" y="18" stroke-linejoin="round" width="4" height="26" fill="rgb(73,212,190)" stroke="rgb(58,169,152)" stroke-width="1" opacity="0.75" />
		</g>
	</g>
	<g>
		<polygon class="NoName" points="23,16 42,16 42,1 72,31 42,61 42,46 23,46" fill="rgb(255,255,255)" fill-opacity="1.0" stroke="rgb(50,50,50)" stroke-width="1" />
		<g>
			<title>PF13520</title>
			<polygon class="PF13520" points="26,18 56,18 69,31 69,31 56,44 26,44" stroke-linejoin="round" width="43" height="26" fill="rgb(180,217,107)" stroke="rgb(144,173,85)" stroke-width="1" opacity="0.75" />
		</g>
	</g>
	<g>
		<polygon class="NoName" points="74,16 89,16 89,1 119,31 89,61 89,46 74,46" fill="rgb(255,255,255)" fill-opacity="1.0" stroke="rgb(50,50,50)" stroke-width="1" />
		<g>
			<title>PF01593</title>
			<polygon class="PF01593" points="75,18 103,18 116,31 103,44 75,44" stroke-linejoin="round" width="43" height="26" fill="rgb(184,74,52)" stroke="rgb(147,59,41)" stroke-width="1" opacity="0.75" />
		</g>
	</g>
	<g>
		<polygon class="NoName" points="130,16 141,16 141,1 171,31 141,61 141,46 130,46" fill="rgb(255,255,255)" fill-opacity="1.0" stroke="rgb(50,50,50)" stroke-width="1" />
		<g>
			<title>PF01497</title>
			<polygon class="PF01497" points="144,18 155,18 167,30 167,32 155,44 144,44" stroke-linejoin="round" width="23" height="26" fill="rgb(183,226,104)" stroke="rgb(146,180,83)" stroke-width="1" opacity="0.75" />
		</g>
	</g>
	<g>
		<polygon class="NoName" points="284,16 203,16 203,1 173,31 203,61 203,46 284,46" fill="rgb(255,255,255)" fill-opacity="1.0" stroke="rgb(50,50,50)" stroke-width="1" />
		<g>
			<title>PF00550</title>
			<polygon class="PF00550" points="176,30 182,24 182,37 176,31" stroke-linejoin="round" width="6" height="26" fill="rgb(103,191,88)" stroke="rgb(82,152,70)" stroke-width="1" opacity="0.75" />
		</g>
		<g>
			<title>PF13193</title>
			<polygon class="PF13193" points="185,21 188,18 191,18 191,44 188,44 185,40" stroke-linejoin="round" width="6" height="26" fill="rgb(182,50,118)" stroke="rgb(145,39,94)" stroke-width="1" opacity="0.75" />
		</g>
		<g>
			<title>PF00501</title>
			<rect class="PF00501" x="192" y="18" stroke-linejoin="round" width="27" height="26" fill="rgb(60,217,223)" stroke="rgb(48,173,178)" stroke-width="1" opacity="0.75" />
		</g>
		<g>
			<title>PF00501</title>
			<rect class="PF00501" x="219" y="18" stroke-linejoin="round" width="10" height="26" fill="rgb(60,217,223)" stroke="rgb(48,173,178)" stroke-width="1" opacity="0.75" />
		</g>
		<g>
			<title>PF00668</title>
			<rect class="PF00668" x="233" y="18" stroke-linejoin="round" width="42" height="26" fill="rgb(224,184,98)" stroke="rgb(179,147,78)" stroke-width="1" opacity="0.75" />
		</g>
		<g>
			<title>PF00550</title>
			<rect class="PF00550" x="277" y="18" stroke-linejoin="round" width="6" height="26" fill="rgb(103,191,88)" stroke="rgb(82,152,70)" stroke-width="1" opacity="0.75" />
		</g>
	</g>
	<g>
		<polygon class="NoName" points="521,16 315,16 315,1 285,31 315,61 315,46 521,46" fill="rgb(255,255,255)" fill-opacity="1.0" stroke="rgb(50,50,50)" stroke-width="1" />
		<g>
			<title>PF00668</title>
			<rect class="PF00668" x="303" y="18" stroke-linejoin="round" width="17" height="26" fill="rgb(224,184,98)" stroke="rgb(179,147,78)" stroke-width="1" opacity="0.75" />
		</g>
		<g>
			<title>PF00550</title>
			<rect class="PF00550" x="322" y="18" stroke-linejoin="round" width="6" height="26" fill="rgb(103,191,88)" stroke="rgb(82,152,70)" stroke-width="1" opacity="0.75" />
		</g>
		<g>
			<title>PF13193</title>
			<rect class="PF13193" x="331" y="18" stroke-linejoin="round" width="6" height="26" fill="rgb(182,50,118)" stroke="rgb(145,39,94)" stroke-width="1" opacity="0.75" />
		</g>
		<g>
			<title>PF00501</title>
			<rect class="PF00501" x="338" y="18" stroke-linejoin="round" width="25" height="26" fill="rgb(60,217,223)" stroke="rgb(48,173,178)" stroke-width="1" opacity="0.75" />
		</g>
		<g>
			<title>PF00668</title>
			<rect class="PF00668" x="375" y="18" stroke-linejoin="round" width="43" height="26" fill="rgb(224,184,98)" stroke="rgb(179,147,78)" stroke-width="1" opacity="0.75" />
		</g>
		<g>
			<title>PF00550</title>
			<rect class="PF00550" x="420" y="18" stroke-linejoin="round" width="6" height="26" fill="rgb(103,191,88)" stroke="rgb(82,152,70)" stroke-width="1" opacity="0.75" />
		</g>
		<g>
			<title>PF13193</title>
			<rect class="PF13193" x="428" y="18" stroke-linejoin="round" width="6" height="26" fill="rgb(182,50,118)" stroke="rgb(145,39,94)" stroke-width="1" opacity="0.75" />
		</g>
		<g>
			<title>PF00501</title>
			<rect class="PF00501" x="436" y="18" stroke-linejoin="round" width="26" height="26" fill="rgb(60,217,223)" stroke="rgb(48,173,178)" stroke-width="1" opacity="0.75" />
		</g>
		<g>
			<title>PF00501</title>
			<rect class="PF00501" x="461" y="18" stroke-linejoin="round" width="10" height="26" fill="rgb(60,217,223)" stroke="rgb(48,173,178)" stroke-width="1" opacity="0.75" />
		</g>
		<g>
			<title>PF00668</title>
			<rect class="PF00668" x="473" y="18" stroke-linejoin="round" width="44" height="26" fill="rgb(224,184,98)" stroke="rgb(179,147,78)" stroke-width="1" opacity="0.75" />
		</g>
	</g>
	<g>
		<polygon class="NoName" points="661,16 551,16 551,1 521,31 551,61 551,46 661,46" fill="rgb(255,255,255)" fill-opacity="1.0" stroke="rgb(50,50,50)" stroke-width="1" />
		<g>
			<title>PF00668</title>
			<polygon class="PF00668" points="523,31 536,18 561,18 561,44 536,44" stroke-linejoin="round" width="40" height="26" fill="rgb(224,184,98)" stroke="rgb(179,147,78)" stroke-width="1" opacity="0.75" />
		</g>
		<g>
			<title>PF00550</title>
			<rect class="PF00550" x="563" y="18" stroke-linejoin="round" width="6" height="26" fill="rgb(103,191,88)" stroke="rgb(82,152,70)" stroke-width="1" opacity="0.75" />
		</g>
		<g>
			<title>PF13193</title>
			<rect class="PF13193" x="572" y="18" stroke-linejoin="round" width="7" height="26" fill="rgb(182,50,118)" stroke="rgb(145,39,94)" stroke-width="1" opacity="0.75" />
		</g>
		<g>
			<title>PF00501</title>
			<rect class="PF00501" x="580" y="18" stroke-linejoin="round" width="37" height="26" fill="rgb(60,217,223)" stroke="rgb(48,173,178)" stroke-width="1" opacity="0.75" />
		</g>
		<g>
			<title>PF00668</title>
			<rect class="PF00668" x="619" y="18" stroke-linejoin="round" width="41" height="26" fill="rgb(224,184,98)" stroke="rgb(179,147,78)" stroke-width="1" opacity="0.75" />
		</g>
	</g>
	<g>
		<polygon class="NoName" points="894,16 691,16 691,1 661,31 691,61 691,46 894,46" fill="rgb(255,255,255)" fill-opacity="1.0" stroke="rgb(50,50,50)" stroke-width="1" />
		<g>
			<title>PF00668</title>
			<polygon class="PF00668" points="672,22 676,18 682,18 682,44 676,44 672,39" stroke-linejoin="round" width="10" height="26" fill="rgb(224,184,98)" stroke="rgb(179,147,78)" stroke-width="1" opacity="0.75" />
		</g>
		<g>
			<title>PF00668</title>
			<rect class="PF00668" x="681" y="18" stroke-linejoin="round" width="16" height="26" fill="rgb(224,184,98)" stroke="rgb(179,147,78)" stroke-width="1" opacity="0.75" />
		</g>
		<g>
			<title>PF00550</title>
			<rect class="PF00550" x="699" y="18" stroke-linejoin="round" width="6" height="26" fill="rgb(103,191,88)" stroke="rgb(82,152,70)" stroke-width="1" opacity="0.75" />
		</g>
		<g>
			<title>PF13193</title>
			<rect class="PF13193" x="708" y="18" stroke-linejoin="round" width="6" height="26" fill="rgb(182,50,118)" stroke="rgb(145,39,94)" stroke-width="1" opacity="0.75" />
		</g>
		<g>
			<title>PF00501</title>
			<rect class="PF00501" x="716" y="18" stroke-linejoin="round" width="39" height="26" fill="rgb(60,217,223)" stroke="rgb(48,173,178)" stroke-width="1" opacity="0.75" />
		</g>
		<g>
			<title>PF00668</title>
			<rect class="PF00668" x="757" y="18" stroke-linejoin="round" width="40" height="26" fill="rgb(224,184,98)" stroke="rgb(179,147,78)" stroke-width="1" opacity="0.75" />
		</g>
		<g>
			<title>PF00550</title>
			<rect class="PF00550" x="799" y="18" stroke-linejoin="round" width="6" height="26" fill="rgb(103,191,88)" stroke="rgb(82,152,70)" stroke-width="1" opacity="0.75" />
		</g>
		<g>
			<title>PF00501</title>
			<rect class="PF00501" x="815" y="18" stroke-linejoin="round" width="26" height="26" fill="rgb(60,217,223)" stroke="rgb(48,173,178)" stroke-width="1" opacity="0.75" />
		</g>
		<g>
			<title>PF00501</title>
			<rect class="PF00501" x="841" y="18" stroke-linejoin="round" width="10" height="26" fill="rgb(60,217,223)" stroke="rgb(48,173,178)" stroke-width="1" opacity="0.75" />
		</g>
		<g>
			<title>PF00668</title>
			<rect class="PF00668" x="853" y="18" stroke-linejoin="round" width="40" height="26" fill="rgb(224,184,98)" stroke="rgb(179,147,78)" stroke-width="1" opacity="0.75" />
		</g>
	</g>
	<g>
		<polygon class="NoName" points="901,16 901,16 901,1 894,31 901,61 901,46 901,46" fill="rgb(255,255,255)" fill-opacity="1.0" stroke="rgb(50,50,50)" stroke-width="1" />
		<g>
			<title>PF03621</title>
			<polygon class="PF03621" points="896,31 899,18 901,18 901,44 899,44" stroke-linejoin="round" width="5" height="26" fill="rgb(212,165,97)" stroke="rgb(169,132,77)" stroke-width="1" opacity="0.75" />
		</g>
	</g>
</svg>
