<svg version="1.1" baseProfile="full" xmlns="http://www.w3.org/2000/svg" width="817" height="62">
	<line x1="1" y1="31" x2="816" y2="31" style="stroke:rgb(50,50,50); stroke-width:3 "/>
	<g>
		<title>wcfC</title>
		<polygon class="wcfC" points="270,16 278,16 278,1 308,31 278,61 278,46 270,46" fill="rgb(251,227,183)" fill-opacity="1.0" stroke="rgb(100,90,73)" stroke-width="1" />
		<g>
			<title>PF00534</title>
			<polygon class="PF00534" points="289,18 292,18 305,31 292,44 289,44" stroke-linejoin="round" width="17" height="26" fill="rgb(228,92,150)" stroke="rgb(182,73,119)" stroke-width="1" opacity="0.75" />
		</g>
	</g>
	<g>
		<title>wcfD</title>
		<polygon class="wcfD" points="309,16 309,16 309,1 330,31 309,61 309,46 309,46" fill="rgb(180,254,244)" fill-opacity="1.0" stroke="rgb(72,101,97)" stroke-width="1" />
		<g>
			<title>PF00132</title>
			<polygon class="PF00132" points="325,28 327,31 325,34" stroke-linejoin="round" width="3" height="26" fill="rgb(89,131,202)" stroke="rgb(71,104,161)" stroke-width="1" opacity="0.75" />
		</g>
	</g>
	<g>
		<title>wzy</title>
		<polygon class="wzy" points="331,16 337,16 337,1 367,31 337,61 337,46 331,46" fill="rgb(252,220,203)" fill-opacity="1.0" stroke="rgb(100,88,81)" stroke-width="1" />
		<g>
			<title>PF14897</title>
			<polygon class="PF14897" points="333,18 351,18 364,31 351,44 333,44" stroke-linejoin="round" width="33" height="26" fill="rgb(148,193,88)" stroke="rgb(118,154,70)" stroke-width="1" opacity="0.75" />
		</g>
	</g>
	<g>
		<title>wcfE</title>
		<polygon class="wcfE" points="367,16 367,16 367,1 396,31 367,61 367,46 367,46" fill="rgb(254,249,197)" fill-opacity="1.0" stroke="rgb(101,99,78)" stroke-width="1" />
		<g>
			<title>PF00535</title>
			<polygon class="PF00535" points="368,18 380,18 385,23 385,39 380,44 368,44" stroke-linejoin="round" width="17" height="26" fill="rgb(224,122,96)" stroke="rgb(179,97,76)" stroke-width="1" opacity="0.75" />
		</g>
	</g>
	<g>
		<title>wcfF</title>
		<polygon class="wcfF" points="397,16 409,16 409,1 439,31 409,61 409,46 397,46" fill="rgb(246,203,252)" fill-opacity="1.0" stroke="rgb(98,81,100)" stroke-width="1" />
		<g>
			<title>PF03721</title>
			<rect class="PF03721" x="397" y="18" stroke-linejoin="round" width="18" height="26" fill="rgb(156,194,58)" stroke="rgb(124,155,46)" stroke-width="1" opacity="0.75" />
		</g>
		<g>
			<title>PF00984</title>
			<polygon class="PF00984" points="417,18 423,18 426,21 426,41 423,44 417,44" stroke-linejoin="round" width="9" height="26" fill="rgb(69,189,184)" stroke="rgb(55,151,147)" stroke-width="1" opacity="0.75" />
		</g>
		<g>
			<title>PF03720</title>
			<polygon class="PF03720" points="428,23 436,31 428,39" stroke-linejoin="round" width="10" height="26" fill="rgb(221,130,74)" stroke="rgb(176,103,59)" stroke-width="1" opacity="0.75" />
		</g>
	</g>
	<g>
		<title>wcfG</title>
		<polygon class="wcfG" points="439,16 446,16 446,1 476,31 446,61 446,46 439,46" fill="rgb(235,250,204)" fill-opacity="1.0" stroke="rgb(94,100,81)" stroke-width="1" />
		<g>
			<title>PF00534</title>
			<polygon class="PF00534" points="457,18 460,18 473,31 460,44 457,44" stroke-linejoin="round" width="17" height="26" fill="rgb(228,92,150)" stroke="rgb(182,73,119)" stroke-width="1" opacity="0.75" />
		</g>
	</g>
	<g>
		<title>wcfH</title>
		<polygon class="wcfH" points="477,16 477,16 477,1 503,31 477,61 477,46 477,46" fill="rgb(202,200,254)" fill-opacity="1.0" stroke="rgb(80,80,101)" stroke-width="1" />
		<g>
			<title>PF01522</title>
			<polygon class="PF01522" points="484,18 489,18 498,29 498,33 489,44 484,44" stroke-linejoin="round" width="14" height="26" fill="rgb(56,221,58)" stroke="rgb(44,176,46)" stroke-width="1" opacity="0.75" />
		</g>
	</g>
	<g>
		<title>wcfI</title>
		<polygon class="wcfI" points="504,16 514,16 514,1 544,31 514,61 514,46 504,46" fill="rgb(200,215,252)" fill-opacity="1.0" stroke="rgb(80,86,100)" stroke-width="1" />
		<g>
			<title>PF13439</title>
			<rect class="PF13439" x="505" y="18" stroke-linejoin="round" width="20" height="26" fill="rgb(162,57,186)" stroke="rgb(129,45,148)" stroke-width="1" opacity="0.75" />
		</g>
		<g>
			<title>PF00534</title>
			<polygon class="PF00534" points="526,18 528,18 541,31 541,31 528,44 526,44" stroke-linejoin="round" width="15" height="26" fill="rgb(228,92,150)" stroke="rgb(182,73,119)" stroke-width="1" opacity="0.75" />
		</g>
	</g>
	<g>
		<title>wcfJ</title>
		<polygon class="wcfJ" points="546,16 546,16 546,1 571,31 546,61 546,46 546,46" fill="rgb(189,236,252)" fill-opacity="1.0" stroke="rgb(75,94,100)" stroke-width="1" />
		<g>
			<title>PF00535</title>
			<polygon class="PF00535" points="546,18 557,18 564,26 564,36 557,44 546,44" stroke-linejoin="round" width="18" height="26" fill="rgb(224,122,96)" stroke="rgb(179,97,76)" stroke-width="1" opacity="0.75" />
		</g>
	</g>
	<g>
		<title>wcfK</title>
		<polygon class="wcfK" points="571,16 575,16 575,1 605,31 575,61 575,46 571,46" fill="rgb(220,251,213)" fill-opacity="1.0" stroke="rgb(88,100,85)" stroke-width="1" />
		<g>
			<title>PF01370</title>
			<rect class="PF01370" x="571" y="18" stroke-linejoin="round" width="14" height="26" fill="rgb(98,102,214)" stroke="rgb(78,81,171)" stroke-width="1" opacity="0.75" />
		</g>
	</g>
	<g>
		<polygon class="NoName" points="33,16 31,16 31,1 1,31 31,61 31,46 33,46" fill="rgb(255,255,255)" fill-opacity="1.0" stroke="rgb(50,50,50)" stroke-width="1" />
	</g>
	<g>
		<title>wcfL</title>
		<polygon class="wcfL" points="605,16 606,16 606,1 636,31 606,61 606,46 605,46" fill="rgb(219,206,250)" fill-opacity="1.0" stroke="rgb(87,82,100)" stroke-width="1" />
		<g>
			<title>PF00953</title>
			<polygon class="PF00953" points="611,18 620,18 625,23 625,39 620,44 611,44" stroke-linejoin="round" width="14" height="26" fill="rgb(179,46,82)" stroke="rgb(143,36,65)" stroke-width="1" opacity="0.75" />
		</g>
	</g>
	<g>
		<polygon class="NoName" points="690,16 670,16 670,1 640,31 670,61 670,46 690,46" fill="rgb(255,255,255)" fill-opacity="1.0" stroke="rgb(50,50,50)" stroke-width="1" />
		<g>
			<title>PF03929</title>
			<polygon class="PF03929" points="642,31 655,18 667,18 667,44 655,44" stroke-linejoin="round" width="26" height="26" fill="rgb(68,227,157)" stroke="rgb(54,181,125)" stroke-width="1" opacity="0.75" />
		</g>
		<g>
			<title>PF03929</title>
			<rect class="PF03929" x="667" y="18" stroke-linejoin="round" width="22" height="26" fill="rgb(68,227,157)" stroke="rgb(54,181,125)" stroke-width="1" opacity="0.75" />
		</g>
	</g>
	<g>
		<polygon class="NoName" points="712,16 712,16 712,1 691,31 712,61 712,46 712,46" fill="rgb(255,255,255)" fill-opacity="1.0" stroke="rgb(50,50,50)" stroke-width="1" />
		<g>
			<title>PF14064</title>
			<polygon class="PF14064" points="693,31 702,18 706,18 706,44 702,44" stroke-linejoin="round" width="14" height="26" fill="rgb(192,65,149)" stroke="rgb(153,52,119)" stroke-width="1" opacity="0.75" />
		</g>
	</g>
	<g>
		<polygon class="NoName" points="781,16 743,16 743,1 713,31 743,61 743,46 781,46" fill="rgb(255,255,255)" fill-opacity="1.0" stroke="rgb(50,50,50)" stroke-width="1" />
		<g>
			<title>PF00593</title>
			<polygon class="PF00593" points="715,31 728,18 764,18 764,44 728,44" stroke-linejoin="round" width="51" height="26" fill="rgb(171,200,51)" stroke="rgb(136,160,40)" stroke-width="1" opacity="0.75" />
		</g>
		<g>
			<title>PF07715</title>
			<rect class="PF07715" x="766" y="18" stroke-linejoin="round" width="10" height="26" fill="rgb(99,133,214)" stroke="rgb(79,106,171)" stroke-width="1" opacity="0.75" />
		</g>
	</g>
	<g>
		<title>hgpT</title>
		<polygon class="hgpT" points="790,16 790,16 790,1 807,31 790,61 790,46 790,46" fill="rgb(212,241,251)" fill-opacity="1.0" stroke="rgb(84,96,100)" stroke-width="1" />
		<g>
			<title>PF00156</title>
			<polygon class="PF00156" points="791,18 797,18 804,31 797,44 791,44" stroke-linejoin="round" width="15" height="26" fill="rgb(210,210,74)" stroke="rgb(168,168,59)" stroke-width="1" opacity="0.75" />
		</g>
	</g>
	<g>
		<title>adk</title>
		<polygon class="adk" points="810,16 810,16 810,1 815,31 810,61 810,46 810,46" fill="rgb(226,184,252)" fill-opacity="1.0" stroke="rgb(90,73,100)" stroke-width="1" />
		<g>
			<title>PF00406</title>
			<polygon class="PF00406" points="810,18 810,18 812,31 810,44 810,44" stroke-linejoin="round" width="4" height="26" fill="rgb(200,63,145)" stroke="rgb(160,50,116)" stroke-width="1" opacity="0.75" />
		</g>
	</g>
	<g>
		<polygon class="NoName" points="43,16 43,16 43,1 64,31 43,61 43,46 43,46" fill="rgb(255,255,255)" fill-opacity="1.0" stroke="rgb(50,50,50)" stroke-width="1" />
		<g>
			<title>PF13649</title>
			<polygon class="PF13649" points="48,18 52,18 57,25 57,37 52,44 48,44" stroke-linejoin="round" width="9" height="26" fill="rgb(227,135,74)" stroke="rgb(181,108,59)" stroke-width="1" opacity="0.75" />
		</g>
	</g>
	<g>
		<title>upcY</title>
		<polygon class="upcY" points="94,16 94,16 94,1 105,31 94,61 94,46 94,46" fill="rgb(253,209,240)" fill-opacity="1.0" stroke="rgb(101,83,96)" stroke-width="1" />
	</g>
	<g>
		<title>upcZ</title>
		<polygon class="upcZ" points="111,16 111,16 111,1 124,31 111,61 111,46 111,46" fill="rgb(210,250,190)" fill-opacity="1.0" stroke="rgb(84,100,76)" stroke-width="1" />
		<g>
			<title>PF06603</title>
			<polygon class="PF06603" points="111,18 115,18 121,30 121,32 115,44 111,44" stroke-linejoin="round" width="10" height="26" fill="rgb(214,82,223)" stroke="rgb(171,65,178)" stroke-width="1" opacity="0.75" />
		</g>
	</g>
	<g>
		<title>rmlA</title>
		<polygon class="rmlA" points="124,16 124,16 124,1 153,31 124,61 124,46 124,46" fill="rgb(192,178,253)" fill-opacity="1.0" stroke="rgb(76,71,101)" stroke-width="1" />
		<g>
			<title>PF00483</title>
			<polygon class="PF00483" points="124,18 137,18 148,29 148,33 137,44 124,44" stroke-linejoin="round" width="24" height="26" fill="rgb(198,101,87)" stroke="rgb(158,80,69)" stroke-width="1" opacity="0.75" />
		</g>
	</g>
	<g>
		<title>rmlC</title>
		<polygon class="rmlC" points="154,16 154,16 154,1 172,31 154,61 154,46 154,46" fill="rgb(202,200,253)" fill-opacity="1.0" stroke="rgb(80,80,101)" stroke-width="1" />
		<g>
			<title>PF00908</title>
			<polygon class="PF00908" points="154,18 161,18 169,31 161,44 154,44" stroke-linejoin="round" width="17" height="26" fill="rgb(184,89,121)" stroke="rgb(147,71,96)" stroke-width="1" opacity="0.75" />
		</g>
	</g>
	<g>
		<title>wcfA</title>
		<polygon class="wcfA" points="173,16 173,16 173,1 190,31 173,61 173,46 173,46" fill="rgb(250,227,192)" fill-opacity="1.0" stroke="rgb(100,90,76)" stroke-width="1" />
		<g>
			<title>PF00132</title>
			<polygon class="PF00132" points="184,25 187,30 187,32 184,37" stroke-linejoin="round" width="3" height="26" fill="rgb(89,131,202)" stroke="rgb(71,104,161)" stroke-width="1" opacity="0.75" />
		</g>
	</g>
	<g>
		<title>wzx</title>
		<polygon class="wzx" points="191,16 212,16 212,1 242,31 212,61 212,46 191,46" fill="rgb(235,180,250)" fill-opacity="1.0" stroke="rgb(93,72,100)" stroke-width="1" />
	</g>
	<g>
		<title>wcfB</title>
		<polygon class="wcfB" points="242,16 242,16 242,1 270,31 242,61 242,46 242,46" fill="rgb(248,250,187)" fill-opacity="1.0" stroke="rgb(99,100,74)" stroke-width="1" />
		<g>
			<title>PF01531</title>
			<polygon class="PF01531" points="248,18 255,18 265,29 265,33 255,44 248,44" stroke-linejoin="round" width="17" height="26" fill="rgb(101,92,208)" stroke="rgb(80,73,166)" stroke-width="1" opacity="0.75" />
		</g>
	</g>
</svg>
