<svg version="1.1" baseProfile="full" xmlns="http://www.w3.org/2000/svg" width="1819" height="62">
	<line x1="1" y1="31" x2="1818" y2="31" style="stroke:rgb(50,50,50); stroke-width:3 "/>
	<g>
		<polygon class="NoName" points="366,16 348,16 348,1 318,31 348,61 348,46 366,46" fill="rgb(255,255,255)" fill-opacity="1.0" stroke="rgb(50,50,50)" stroke-width="1" />
		<g>
			<title>PF01593</title>
			<polygon class="PF01593" points="320,31 333,18 361,18 361,44 333,44" stroke-linejoin="round" width="43" height="26" fill="rgb(184,74,52)" stroke="rgb(147,59,41)" stroke-width="1" opacity="0.75" />
		</g>
	</g>
	<g>
		<polygon class="NoName" points="408,16 398,16 398,1 368,31 398,61 398,46 408,46" fill="rgb(255,255,255)" fill-opacity="1.0" stroke="rgb(50,50,50)" stroke-width="1" />
		<g>
			<title>PF07690</title>
			<polygon class="PF07690" points="370,31 383,18 385,18 385,44 383,44" stroke-linejoin="round" width="17" height="26" fill="rgb(193,224,74)" stroke="rgb(154,179,59)" stroke-width="1" opacity="0.75" />
		</g>
		<g>
			<title>PF07690</title>
			<rect class="PF07690" x="384" y="18" stroke-linejoin="round" width="22" height="26" fill="rgb(193,224,74)" stroke="rgb(154,179,59)" stroke-width="1" opacity="0.75" />
		</g>
	</g>
	<g>
		<polygon class="NoName" points="434,16 434,16 434,1 409,31 434,61 434,46 434,46" fill="rgb(255,255,255)" fill-opacity="1.0" stroke="rgb(50,50,50)" stroke-width="1" />
	</g>
	<g>
		<polygon class="NoName" points="499,16 467,16 467,1 437,31 467,61 467,46 499,46" fill="rgb(255,255,255)" fill-opacity="1.0" stroke="rgb(50,50,50)" stroke-width="1" />
		<g>
			<title>PF00733</title>
			<polygon class="PF00733" points="439,31 452,18 474,18 474,44 452,44" stroke-linejoin="round" width="36" height="26" fill="rgb(97,201,176)" stroke="rgb(77,160,140)" stroke-width="1" opacity="0.75" />
		</g>
		<g>
			<title>PF13537</title>
			<rect class="PF13537" x="482" y="18" stroke-linejoin="round" width="12" height="26" fill="rgb(200,63,57)" stroke="rgb(160,50,45)" stroke-width="1" opacity="0.75" />
		</g>
	</g>
	<g>
		<polygon class="NoName" points="541,16 532,16 532,1 502,31 532,61 532,46 541,46" fill="rgb(255,255,255)" fill-opacity="1.0" stroke="rgb(50,50,50)" stroke-width="1" />
		<g>
			<title>PF00067</title>
			<polygon class="PF00067" points="504,31 514,21 514,40" stroke-linejoin="round" width="12" height="26" fill="rgb(85,216,107)" stroke="rgb(68,172,85)" stroke-width="1" opacity="0.75" />
		</g>
	</g>
	<g>
		<polygon class="NoName" points="578,16 573,16 573,1 543,31 573,61 573,46 578,46" fill="rgb(255,255,255)" fill-opacity="1.0" stroke="rgb(50,50,50)" stroke-width="1" />
		<g>
			<title>PF13847</title>
			<polygon class="PF13847" points="549,27 558,18 560,18 560,44 558,44 549,34" stroke-linejoin="round" width="11" height="26" fill="rgb(214,74,181)" stroke="rgb(171,59,144)" stroke-width="1" opacity="0.75" />
		</g>
	</g>
	<g>
		<polygon class="NoName" points="639,16 609,16 609,1 579,31 609,61 609,46 639,46" fill="rgb(255,255,255)" fill-opacity="1.0" stroke="rgb(50,50,50)" stroke-width="1" />
		<g>
			<title>PF01019</title>
			<polygon class="PF01019" points="581,31 594,18 635,18 635,44 594,44" stroke-linejoin="round" width="56" height="26" fill="rgb(117,205,100)" stroke="rgb(93,164,80)" stroke-width="1" opacity="0.75" />
		</g>
	</g>
	<g>
		<polygon class="NoName" points="688,16 671,16 671,1 641,31 671,61 671,46 688,46" fill="rgb(255,255,255)" fill-opacity="1.0" stroke="rgb(50,50,50)" stroke-width="1" />
		<g>
			<title>PF09265</title>
			<polygon class="PF09265" points="643,31 656,18 659,18 659,44 656,44" stroke-linejoin="round" width="18" height="26" fill="rgb(67,184,162)" stroke="rgb(53,147,129)" stroke-width="1" opacity="0.75" />
		</g>
		<g>
			<title>PF01565</title>
			<rect class="PF01565" x="669" y="18" stroke-linejoin="round" width="13" height="26" fill="rgb(226,88,136)" stroke="rgb(180,70,108)" stroke-width="1" opacity="0.75" />
		</g>
	</g>
	<g>
		<polygon class="NoName" points="706,16 706,16 706,1 721,31 706,61 706,46 706,46" fill="rgb(255,255,255)" fill-opacity="1.0" stroke="rgb(50,50,50)" stroke-width="1" />
		<g>
			<title>PF00903</title>
			<polygon class="PF00903" points="706,18 712,18 718,31 712,44 706,44" stroke-linejoin="round" width="13" height="26" fill="rgb(50,162,189)" stroke="rgb(40,129,151)" stroke-width="1" opacity="0.75" />
		</g>
	</g>
	<g>
		<polygon class="NoName" points="722,16 722,16 722,1 752,31 722,61 722,46 722,46" fill="rgb(255,255,255)" fill-opacity="1.0" stroke="rgb(50,50,50)" stroke-width="1" />
	</g>
	<g>
		<polygon class="NoName" points="48,16 48,16 48,1 31,31 48,61 48,46 48,46" fill="rgb(255,255,255)" fill-opacity="1.0" stroke="rgb(50,50,50)" stroke-width="1" />
		<g>
			<title>PF02371</title>
			<polygon class="PF02371" points="36,26 40,18 42,18 42,44 40,44 36,35" stroke-linejoin="round" width="6" height="26" fill="rgb(104,204,65)" stroke="rgb(83,163,52)" stroke-width="1" opacity="0.75" />
		</g>
	</g>
	<g>
		<polygon class="NoName" points="752,16 752,16 752,1 781,31 752,61 752,46 752,46" fill="rgb(255,255,255)" fill-opacity="1.0" stroke="rgb(50,50,50)" stroke-width="1" />
		<g>
			<title>PF00296</title>
			<polygon class="PF00296" points="752,18 765,18 776,29 776,33 765,44 752,44" stroke-linejoin="round" width="24" height="26" fill="rgb(180,112,78)" stroke="rgb(144,89,62)" stroke-width="1" opacity="0.75" />
		</g>
	</g>
	<g>
		<polygon class="NoName" points="782,16 782,16 782,1 811,31 782,61 782,46 782,46" fill="rgb(255,255,255)" fill-opacity="1.0" stroke="rgb(50,50,50)" stroke-width="1" />
	</g>
	<g>
		<polygon class="NoName" points="811,16 822,16 822,1 852,31 822,61 822,46 811,46" fill="rgb(255,255,255)" fill-opacity="1.0" stroke="rgb(50,50,50)" stroke-width="1" />
		<g>
			<title>PF00266</title>
			<polygon class="PF00266" points="826,18 836,18 848,30 848,32 836,44 826,44" stroke-linejoin="round" width="22" height="26" fill="rgb(214,54,122)" stroke="rgb(171,43,97)" stroke-width="1" opacity="0.75" />
		</g>
	</g>
	<g>
		<polygon class="NoName" points="860,16 864,16 864,1 894,31 864,61 864,46 860,46" fill="rgb(255,255,255)" fill-opacity="1.0" stroke="rgb(50,50,50)" stroke-width="1" />
		<g>
			<title>PF16864</title>
			<rect class="PF16864" x="860" y="18" stroke-linejoin="round" width="7" height="26" fill="rgb(84,199,85)" stroke="rgb(67,159,68)" stroke-width="1" opacity="0.75" />
		</g>
		<g>
			<title>PF00891</title>
			<polygon class="PF00891" points="869,18 878,18 891,31 878,44 869,44" stroke-linejoin="round" width="23" height="26" fill="rgb(50,51,190)" stroke="rgb(39,40,152)" stroke-width="1" opacity="0.75" />
		</g>
	</g>
	<g>
		<polygon class="NoName" points="894,16 894,16 894,1 922,31 894,61 894,46 894,46" fill="rgb(255,255,255)" fill-opacity="1.0" stroke="rgb(50,50,50)" stroke-width="1" />
		<g>
			<title>PF07859</title>
			<polygon class="PF07859" points="901,18 907,18 919,31 919,31 907,44 901,44" stroke-linejoin="round" width="18" height="26" fill="rgb(183,51,179)" stroke="rgb(146,40,143)" stroke-width="1" opacity="0.75" />
		</g>
	</g>
	<g>
		<polygon class="NoName" points="924,16 954,16 954,1 984,31 954,61 954,46 924,46" fill="rgb(255,255,255)" fill-opacity="1.0" stroke="rgb(50,50,50)" stroke-width="1" />
		<g>
			<title>PF00501</title>
			<rect class="PF00501" x="927" y="18" stroke-linejoin="round" width="39" height="26" fill="rgb(60,217,223)" stroke="rgb(48,173,178)" stroke-width="1" opacity="0.75" />
		</g>
		<g>
			<title>PF13193</title>
			<polygon class="PF13193" points="967,18 968,18 974,24 974,38 968,44 967,44" stroke-linejoin="round" width="7" height="26" fill="rgb(182,50,118)" stroke="rgb(145,39,94)" stroke-width="1" opacity="0.75" />
		</g>
		<g>
			<title>PF00550</title>
			<polygon class="PF00550" points="977,27 981,31 977,35" stroke-linejoin="round" width="6" height="26" fill="rgb(103,191,88)" stroke="rgb(82,152,70)" stroke-width="1" opacity="0.75" />
		</g>
	</g>
	<g>
		<polygon class="NoName" points="984,16 1147,16 1147,1 1177,31 1147,61 1147,46 984,46" fill="rgb(255,255,255)" fill-opacity="1.0" stroke="rgb(50,50,50)" stroke-width="1" />
		<g>
			<title>PF00668</title>
			<rect class="PF00668" x="985" y="18" stroke-linejoin="round" width="44" height="26" fill="rgb(224,184,98)" stroke="rgb(179,147,78)" stroke-width="1" opacity="0.75" />
		</g>
		<g>
			<title>PF00501</title>
			<rect class="PF00501" x="1031" y="18" stroke-linejoin="round" width="40" height="26" fill="rgb(60,217,223)" stroke="rgb(48,173,178)" stroke-width="1" opacity="0.75" />
		</g>
		<g>
			<title>PF00550</title>
			<rect class="PF00550" x="1082" y="18" stroke-linejoin="round" width="6" height="26" fill="rgb(103,191,88)" stroke="rgb(82,152,70)" stroke-width="1" opacity="0.75" />
		</g>
		<g>
			<title>PF07993</title>
			<rect class="PF07993" x="1092" y="18" stroke-linejoin="round" width="23" height="26" fill="rgb(100,212,204)" stroke="rgb(80,169,163)" stroke-width="1" opacity="0.75" />
		</g>
		<g>
			<title>PF01494</title>
			<polygon class="PF01494" points="1132,18 1161,18 1165,22 1165,40 1161,44 1132,44" stroke-linejoin="round" width="33" height="26" fill="rgb(182,175,59)" stroke="rgb(145,140,47)" stroke-width="1" opacity="0.75" />
		</g>
	</g>
	<g>
		<polygon class="NoName" points="1180,16 1180,16 1180,1 1209,31 1180,61 1180,46 1180,46" fill="rgb(255,255,255)" fill-opacity="1.0" stroke="rgb(50,50,50)" stroke-width="1" />
		<g>
			<title>PF13460</title>
			<polygon class="PF13460" points="1180,18 1193,18 1198,23 1198,39 1193,44 1180,44" stroke-linejoin="round" width="18" height="26" fill="rgb(188,201,78)" stroke="rgb(150,160,62)" stroke-width="1" opacity="0.75" />
		</g>
	</g>
	<g>
		<polygon class="NoName" points="1211,16 1228,16 1228,1 1258,31 1228,61 1228,46 1211,46" fill="rgb(255,255,255)" fill-opacity="1.0" stroke="rgb(50,50,50)" stroke-width="1" />
		<g>
			<title>PF00296</title>
			<polygon class="PF00296" points="1212,18 1242,18 1249,25 1249,37 1242,44 1212,44" stroke-linejoin="round" width="37" height="26" fill="rgb(180,112,78)" stroke="rgb(144,89,62)" stroke-width="1" opacity="0.75" />
		</g>
	</g>
	<g>
		<polygon class="NoName" points="1263,16 1277,16 1277,1 1307,31 1277,61 1277,46 1263,46" fill="rgb(255,255,255)" fill-opacity="1.0" stroke="rgb(50,50,50)" stroke-width="1" />
		<g>
			<title>PF00120</title>
			<polygon class="PF00120" points="1274,18 1291,18 1304,31 1291,44 1274,44" stroke-linejoin="round" width="33" height="26" fill="rgb(195,227,89)" stroke="rgb(155,181,71)" stroke-width="1" opacity="0.75" />
		</g>
	</g>
	<g>
		<polygon class="NoName" points="65,16 65,16 65,1 57,31 65,61 65,46 65,46" fill="rgb(255,255,255)" fill-opacity="1.0" stroke="rgb(50,50,50)" stroke-width="1" />
		<g>
			<title>PF01548</title>
			<polygon class="PF01548" points="59,31 62,18 63,18 63,44 62,44" stroke-linejoin="round" width="6" height="26" fill="rgb(59,200,207)" stroke="rgb(47,160,165)" stroke-width="1" opacity="0.75" />
		</g>
	</g>
	<g>
		<polygon class="NoName" points="1309,16 1359,16 1359,1 1389,31 1359,61 1359,46 1309,46" fill="rgb(255,255,255)" fill-opacity="1.0" stroke="rgb(50,50,50)" stroke-width="1" />
		<g>
			<title>PF09347</title>
			<rect class="PF09347" x="1329" y="18" stroke-linejoin="round" width="16" height="26" fill="rgb(190,52,203)" stroke="rgb(151,41,162)" stroke-width="1" opacity="0.75" />
		</g>
		<g>
			<title>PF01571</title>
			<polygon class="PF01571" points="1352,18 1373,18 1378,23 1378,39 1373,44 1352,44" stroke-linejoin="round" width="26" height="26" fill="rgb(112,228,161)" stroke="rgb(89,182,128)" stroke-width="1" opacity="0.75" />
		</g>
		<g>
			<title>PF08669</title>
			<polygon class="PF08669" points="1379,24 1386,31 1379,38" stroke-linejoin="round" width="9" height="26" fill="rgb(184,178,54)" stroke="rgb(147,142,43)" stroke-width="1" opacity="0.75" />
		</g>
	</g>
	<g>
		<polygon class="NoName" points="1392,16 1397,16 1397,1 1427,31 1397,61 1397,46 1392,46" fill="rgb(255,255,255)" fill-opacity="1.0" stroke="rgb(50,50,50)" stroke-width="1" />
		<g>
			<title>PF00891</title>
			<polygon class="PF00891" points="1403,18 1411,18 1424,31 1424,31 1411,44 1403,44" stroke-linejoin="round" width="21" height="26" fill="rgb(50,51,190)" stroke="rgb(39,40,152)" stroke-width="1" opacity="0.75" />
		</g>
	</g>
	<g>
		<polygon class="NoName" points="1430,16 1444,16 1444,1 1474,31 1444,61 1444,46 1430,46" fill="rgb(255,255,255)" fill-opacity="1.0" stroke="rgb(50,50,50)" stroke-width="1" />
		<g>
			<title>PF00743</title>
			<rect class="PF00743" x="1430" y="18" stroke-linejoin="round" width="23" height="26" fill="rgb(203,74,151)" stroke="rgb(162,59,120)" stroke-width="1" opacity="0.75" />
		</g>
		<g>
			<title>PF00743</title>
			<polygon class="PF00743" points="1454,18 1458,18 1468,28 1468,34 1458,44 1454,44" stroke-linejoin="round" width="14" height="26" fill="rgb(203,74,151)" stroke="rgb(162,59,120)" stroke-width="1" opacity="0.75" />
		</g>
	</g>
	<g>
		<polygon class="NoName" points="1481,16 1498,16 1498,1 1528,31 1498,61 1498,46 1481,46" fill="rgb(255,255,255)" fill-opacity="1.0" stroke="rgb(50,50,50)" stroke-width="1" />
		<g>
			<title>PF00150</title>
			<polygon class="PF00150" points="1485,18 1512,18 1517,23 1517,39 1512,44 1485,44" stroke-linejoin="round" width="32" height="26" fill="rgb(189,82,188)" stroke="rgb(151,65,150)" stroke-width="1" opacity="0.75" />
		</g>
	</g>
	<g>
		<polygon class="NoName" points="1568,16 1568,16 1568,1 1538,31 1568,61 1568,46 1568,46" fill="rgb(255,255,255)" fill-opacity="1.0" stroke="rgb(50,50,50)" stroke-width="1" />
		<g>
			<title>PF00583</title>
			<polygon class="PF00583" points="1540,31 1550,21 1550,40" stroke-linejoin="round" width="11" height="26" fill="rgb(121,183,50)" stroke="rgb(96,146,39)" stroke-width="1" opacity="0.75" />
		</g>
	</g>
	<g>
		<polygon class="NoName" points="81,16 81,16 81,1 72,31 81,61 81,46 81,46" fill="rgb(255,255,255)" fill-opacity="1.0" stroke="rgb(50,50,50)" stroke-width="1" />
		<g>
			<title>PF02371</title>
			<polygon class="PF02371" points="76,24 78,18 80,18 80,44 78,44 76,37" stroke-linejoin="round" width="4" height="26" fill="rgb(104,204,65)" stroke="rgb(83,163,52)" stroke-width="1" opacity="0.75" />
		</g>
	</g>
	<g>
		<polygon class="NoName" points="92,16 92,16 92,1 97,31 92,61 92,46 92,46" fill="rgb(255,255,255)" fill-opacity="1.0" stroke="rgb(50,50,50)" stroke-width="1" />
		<g>
			<title>PF00884</title>
			<polygon class="PF00884" points="92,18 92,18 94,31 92,44 92,44" stroke-linejoin="round" width="5" height="26" fill="rgb(61,103,198)" stroke="rgb(48,82,158)" stroke-width="1" opacity="0.75" />
		</g>
	</g>
	<g>
		<polygon class="NoName" points="128,16 128,16 128,1 112,31 128,61 128,46 128,46" fill="rgb(255,255,255)" fill-opacity="1.0" stroke="rgb(50,50,50)" stroke-width="1" />
	</g>
	<g>
		<polygon class="NoName" points="151,16 151,16 151,1 168,31 151,61 151,46 151,46" fill="rgb(255,255,255)" fill-opacity="1.0" stroke="rgb(50,50,50)" stroke-width="1" />
		<g>
			<title>PF03358</title>
			<polygon class="PF03358" points="152,18 158,18 165,30 165,32 158,44 152,44" stroke-linejoin="round" width="13" height="26" fill="rgb(90,228,61)" stroke="rgb(72,182,48)" stroke-width="1" opacity="0.75" />
		</g>
	</g>
	<g>
		<polygon class="NoName" points="185,16 185,16 185,1 207,31 185,61 185,46 185,46" fill="rgb(255,255,255)" fill-opacity="1.0" stroke="rgb(50,50,50)" stroke-width="1" />
		<g>
			<title>PF00072</title>
			<rect class="PF00072" x="185" y="18" stroke-linejoin="round" width="9" height="26" fill="rgb(100,107,203)" stroke="rgb(80,85,162)" stroke-width="1" opacity="0.75" />
		</g>
		<g>
			<title>PF00486</title>
			<polygon class="PF00486" points="197,21 204,31 204,31 197,41" stroke-linejoin="round" width="7" height="26" fill="rgb(204,153,57)" stroke="rgb(163,122,45)" stroke-width="1" opacity="0.75" />
		</g>
	</g>
	<g>
		<polygon class="NoName" points="283,16 239,16 239,1 209,31 239,61 239,46 283,46" fill="rgb(255,255,255)" fill-opacity="1.0" stroke="rgb(50,50,50)" stroke-width="1" />
		<g>
			<title>PF00005</title>
			<polygon class="PF00005" points="216,26 224,18 236,18 236,44 224,44 216,35" stroke-linejoin="round" width="20" height="26" fill="rgb(129,201,63)" stroke="rgb(103,160,50)" stroke-width="1" opacity="0.75" />
		</g>
	</g>
	<g>
		<polygon class="NoName" points="286,16 287,16 287,1 317,31 287,61 287,46 286,46" fill="rgb(255,255,255)" fill-opacity="1.0" stroke="rgb(50,50,50)" stroke-width="1" />
		<g>
			<title>PF08279</title>
			<rect class="PF08279" x="286" y="18" stroke-linejoin="round" width="5" height="26" fill="rgb(188,106,60)" stroke="rgb(150,84,48)" stroke-width="1" opacity="0.75" />
		</g>
		<g>
			<title>PF13280</title>
			<polygon class="PF13280" points="300,18 301,18 314,31 301,44 300,44" stroke-linejoin="round" width="17" height="26" fill="rgb(186,47,188)" stroke="rgb(148,37,150)" stroke-width="1" opacity="0.75" />
		</g>
	</g>
</svg>
