<svg version="1.1" baseProfile="full" xmlns="http://www.w3.org/2000/svg" width="400" height="62">
	<line x1="1" y1="31" x2="399" y2="31" style="stroke:rgb(50,50,50); stroke-width:3 "/>
	<g>
		<title>arsD</title>
		<polygon class="arsD" points="64,16 31,16 31,1 1,31 31,61 31,46 64,46" fill="rgb(213,220,251)" fill-opacity="1.0" stroke="rgb(85,88,100)" stroke-width="1" />
		<g>
			<title>PF01648</title>
			<polygon class="PF01648" points="3,31 12,22 12,39" stroke-linejoin="round" width="10" height="26" fill="rgb(85,184,135)" stroke="rgb(68,147,108)" stroke-width="1" opacity="0.75" />
		</g>
		<g>
			<title>PF14765</title>
			<rect class="PF14765" x="26" y="18" stroke-linejoin="round" width="29" height="26" fill="rgb(173,56,182)" stroke="rgb(138,44,145)" stroke-width="1" opacity="0.75" />
		</g>
	</g>
	<g>
		<title>arsC</title>
		<polygon class="arsC" points="105,16 94,16 94,1 64,31 94,61 94,46 105,46" fill="rgb(249,185,228)" fill-opacity="1.0" stroke="rgb(99,74,91)" stroke-width="1" />
		<g>
			<title>PF02797</title>
			<polygon class="PF02797" points="66,31 78,19 78,42" stroke-linejoin="round" width="14" height="26" fill="rgb(139,212,63)" stroke="rgb(111,169,50)" stroke-width="1" opacity="0.75" />
		</g>
	</g>
	<g>
		<title>arsB</title>
		<polygon class="arsB" points="145,16 135,16 135,1 105,31 135,61 135,46 145,46" fill="rgb(219,253,212)" fill-opacity="1.0" stroke="rgb(87,101,84)" stroke-width="1" />
		<g>
			<title>PF02797</title>
			<polygon class="PF02797" points="107,31 119,19 119,42" stroke-linejoin="round" width="14" height="26" fill="rgb(139,212,63)" stroke="rgb(111,169,50)" stroke-width="1" opacity="0.75" />
		</g>
	</g>
	<g>
		<title>arsA</title>
		<polygon class="arsA" points="398,16 178,16 178,1 148,31 178,61 178,46 398,46" fill="rgb(206,252,230)" fill-opacity="1.0" stroke="rgb(82,100,92)" stroke-width="1" />
		<g>
			<title>PF08659</title>
			<polygon class="PF08659" points="154,27 163,18 176,18 176,44 163,44 154,34" stroke-linejoin="round" width="22" height="26" fill="rgb(66,209,188)" stroke="rgb(52,167,150)" stroke-width="1" opacity="0.75" />
		</g>
		<g>
			<title>PF00550</title>
			<rect class="PF00550" x="205" y="18" stroke-linejoin="round" width="7" height="26" fill="rgb(103,191,88)" stroke="rgb(82,152,70)" stroke-width="1" opacity="0.75" />
		</g>
		<g>
			<title>PF00698</title>
			<rect class="PF00698" x="241" y="18" stroke-linejoin="round" width="30" height="26" fill="rgb(59,176,209)" stroke="rgb(47,140,167)" stroke-width="1" opacity="0.75" />
		</g>
		<g>
			<title>PF16197</title>
			<rect class="PF16197" x="277" y="18" stroke-linejoin="round" width="11" height="26" fill="rgb(68,179,89)" stroke="rgb(54,143,71)" stroke-width="1" opacity="0.75" />
		</g>
		<g>
			<title>PF02801</title>
			<rect class="PF02801" x="288" y="18" stroke-linejoin="round" width="11" height="26" fill="rgb(215,78,102)" stroke="rgb(172,62,81)" stroke-width="1" opacity="0.75" />
		</g>
		<g>
			<title>PF00109</title>
			<rect class="PF00109" x="301" y="18" stroke-linejoin="round" width="27" height="26" fill="rgb(112,116,228)" stroke="rgb(89,92,182)" stroke-width="1" opacity="0.75" />
		</g>
	</g>
</svg>
