<svg version="1.1" baseProfile="full" xmlns="http://www.w3.org/2000/svg" width="1555" height="124">
	<line x1="1" y1="31" x2="1554" y2="31" style="stroke:rgb(50,50,50); stroke-width:3 "/>
	<line x1="1" y1="93" x2="112" y2="93" style="stroke:rgb(50,50,50); stroke-width:3 "/>
	<g>
		<polygon class="NoName" points="310,16 304,16 304,1 274,31 304,61 304,46 310,46" fill="rgb(255,255,255)" fill-opacity="1.0" stroke="rgb(50,50,50)" stroke-width="1" />
		<g>
			<title>PF01471</title>
			<rect class="PF01471" x="292" y="18" stroke-linejoin="round" width="5" height="26" fill="rgb(186,74,131)" stroke="rgb(148,59,104)" stroke-width="1" opacity="0.75" />
		</g>
	</g>
	<g>
		<polygon class="NoName" points="332,16 332,16 332,1 310,31 332,61 332,46 332,46" fill="rgb(255,255,255)" fill-opacity="1.0" stroke="rgb(50,50,50)" stroke-width="1" />
	</g>
	<g>
		<polygon class="NoName" points="338,16 338,16 338,1 361,31 338,61 338,46 338,46" fill="rgb(255,255,255)" fill-opacity="1.0" stroke="rgb(50,50,50)" stroke-width="1" />
		<g>
			<title>PF00072</title>
			<polygon class="PF00072" points="338,18 348,18 349,19 349,43 348,44 338,44" stroke-linejoin="round" width="11" height="26" fill="rgb(100,107,203)" stroke="rgb(80,85,162)" stroke-width="1" opacity="0.75" />
		</g>
		<g>
			<title>PF00486</title>
			<polygon class="PF00486" points="353,24 358,31 353,38" stroke-linejoin="round" width="7" height="26" fill="rgb(204,153,57)" stroke="rgb(163,122,45)" stroke-width="1" opacity="0.75" />
		</g>
	</g>
	<g>
		<polygon class="NoName" points="364,16 383,16 383,1 413,31 383,61 383,46 364,46" fill="rgb(255,255,255)" fill-opacity="1.0" stroke="rgb(50,50,50)" stroke-width="1" />
		<g>
			<title>PF00672</title>
			<rect class="PF00672" x="380" y="18" stroke-linejoin="round" width="6" height="26" fill="rgb(124,89,195)" stroke="rgb(99,71,156)" stroke-width="1" opacity="0.75" />
		</g>
		<g>
			<title>PF00512</title>
			<rect class="PF00512" x="388" y="18" stroke-linejoin="round" width="6" height="26" fill="rgb(193,125,62)" stroke="rgb(154,100,49)" stroke-width="1" opacity="0.75" />
		</g>
		<g>
			<title>PF02518</title>
			<polygon class="PF02518" points="399,20 410,31 399,42" stroke-linejoin="round" width="13" height="26" fill="rgb(80,94,225)" stroke="rgb(64,75,180)" stroke-width="1" opacity="0.75" />
		</g>
	</g>
	<g>
		<polygon class="NoName" points="415,16 415,16 415,1 430,31 415,61 415,46 415,46" fill="rgb(255,255,255)" fill-opacity="1.0" stroke="rgb(50,50,50)" stroke-width="1" />
	</g>
	<g>
		<title>thrS2</title>
		<polygon class="thrS2" points="440,16 450,16 450,1 480,31 450,61 450,46 440,46" fill="rgb(250,195,229)" fill-opacity="1.0" stroke="rgb(100,78,91)" stroke-width="1" />
		<g>
			<title>PF00587</title>
			<polygon class="PF00587" points="448,18 464,18 469,23 469,39 464,44 448,44" stroke-linejoin="round" width="21" height="26" fill="rgb(228,96,220)" stroke="rgb(182,76,176)" stroke-width="1" opacity="0.75" />
		</g>
		<g>
			<title>PF03129</title>
			<polygon class="PF03129" points="470,24 477,31 470,38" stroke-linejoin="round" width="8" height="26" fill="rgb(115,202,95)" stroke="rgb(92,161,76)" stroke-width="1" opacity="0.75" />
		</g>
	</g>
	<g>
		<polygon class="NoName" points="483,16 483,16 483,1 509,31 483,61 483,46 483,46" fill="rgb(255,255,255)" fill-opacity="1.0" stroke="rgb(50,50,50)" stroke-width="1" />
		<g>
			<title>PF07070</title>
			<polygon class="PF07070" points="484,18 495,18 504,29 504,33 495,44 484,44" stroke-linejoin="round" width="20" height="26" fill="rgb(83,70,187)" stroke="rgb(66,56,149)" stroke-width="1" opacity="0.75" />
		</g>
	</g>
	<g>
		<polygon class="NoName" points="529,16 529,16 529,1 513,31 529,61 529,46 529,46" fill="rgb(255,255,255)" fill-opacity="1.0" stroke="rgb(50,50,50)" stroke-width="1" />
	</g>
	<g>
		<polygon class="NoName" points="571,16 562,16 562,1 532,31 562,61 562,46 571,46" fill="rgb(255,255,255)" fill-opacity="1.0" stroke="rgb(50,50,50)" stroke-width="1" />
		<g>
			<title>PF01494</title>
			<polygon class="PF01494" points="535,30 547,18 570,18 570,44 547,44 535,31" stroke-linejoin="round" width="35" height="26" fill="rgb(182,175,59)" stroke="rgb(145,140,47)" stroke-width="1" opacity="0.75" />
		</g>
	</g>
	<g>
		<polygon class="NoName" points="579,16 579,16 579,1 601,31 579,61 579,46 579,46" fill="rgb(255,255,255)" fill-opacity="1.0" stroke="rgb(50,50,50)" stroke-width="1" />
		<g>
			<title>PF00440</title>
			<rect class="PF00440" x="583" y="18" stroke-linejoin="round" width="4" height="26" fill="rgb(73,212,190)" stroke="rgb(58,169,152)" stroke-width="1" opacity="0.75" />
		</g>
	</g>
	<g>
		<polygon class="NoName" points="28,16 28,16 28,1 2,31 28,61 28,46 28,46" fill="rgb(255,255,255)" fill-opacity="1.0" stroke="rgb(50,50,50)" stroke-width="1" />
		<g>
			<title>PF07702</title>
			<polygon class="PF07702" points="4,31 15,19 15,42" stroke-linejoin="round" width="13" height="26" fill="rgb(170,184,91)" stroke="rgb(136,147,72)" stroke-width="1" opacity="0.75" />
		</g>
		<g>
			<title>PF00392</title>
			<rect class="PF00392" x="18" y="18" stroke-linejoin="round" width="6" height="26" fill="rgb(160,85,194)" stroke="rgb(127,68,155)" stroke-width="1" opacity="0.75" />
		</g>
	</g>
	<g>
		<polygon class="NoName" points="607,16 620,16 620,1 650,31 620,61 620,46 607,46" fill="rgb(255,255,255)" fill-opacity="1.0" stroke="rgb(50,50,50)" stroke-width="1" />
	</g>
	<g>
		<polygon class="NoName" points="651,16 651,16 651,1 679,31 651,61 651,46 651,46" fill="rgb(255,255,255)" fill-opacity="1.0" stroke="rgb(50,50,50)" stroke-width="1" />
	</g>
	<g>
		<polygon class="NoName" points="689,16 689,16 689,1 682,31 689,61 689,46 689,46" fill="rgb(255,255,255)" fill-opacity="1.0" stroke="rgb(50,50,50)" stroke-width="1" />
	</g>
	<g>
		<polygon class="NoName" points="701,16 720,16 720,1 750,31 720,61 720,46 701,46" fill="rgb(255,255,255)" fill-opacity="1.0" stroke="rgb(50,50,50)" stroke-width="1" />
		<g>
			<title>PF10756</title>
			<rect class="PF10756" x="705" y="18" stroke-linejoin="round" width="8" height="26" fill="rgb(126,80,191)" stroke="rgb(100,64,152)" stroke-width="1" opacity="0.75" />
		</g>
	</g>
	<g>
		<title>tueC</title>
		<polygon class="tueC" points="818,16 791,16 791,1 761,31 791,61 791,46 818,46" fill="rgb(182,230,253)" fill-opacity="1.0" stroke="rgb(72,92,101)" stroke-width="1" />
		<g>
			<title>PF00550</title>
			<polygon class="PF00550" points="763,31 767,27 767,34" stroke-linejoin="round" width="6" height="26" fill="rgb(103,191,88)" stroke="rgb(82,152,70)" stroke-width="1" opacity="0.75" />
		</g>
		<g>
			<title>PF13193</title>
			<polygon class="PF13193" points="771,23 776,18 778,18 778,44 776,44 771,38" stroke-linejoin="round" width="7" height="26" fill="rgb(182,50,118)" stroke="rgb(145,39,94)" stroke-width="1" opacity="0.75" />
		</g>
		<g>
			<title>PF00501</title>
			<rect class="PF00501" x="779" y="18" stroke-linejoin="round" width="39" height="26" fill="rgb(60,217,223)" stroke="rgb(48,173,178)" stroke-width="1" opacity="0.75" />
		</g>
	</g>
	<g>
		<title>tueB</title>
		<polygon class="tueB" points="1050,16 854,16 854,1 824,31 854,61 854,46 1050,46" fill="rgb(185,251,223)" fill-opacity="1.0" stroke="rgb(74,100,89)" stroke-width="1" />
		<g>
			<title>PF00668</title>
			<polygon class="PF00668" points="826,31 839,18 867,18 867,44 839,44" stroke-linejoin="round" width="43" height="26" fill="rgb(224,184,98)" stroke="rgb(179,147,78)" stroke-width="1" opacity="0.75" />
		</g>
		<g>
			<title>PF00550</title>
			<rect class="PF00550" x="871" y="18" stroke-linejoin="round" width="6" height="26" fill="rgb(103,191,88)" stroke="rgb(82,152,70)" stroke-width="1" opacity="0.75" />
		</g>
		<g>
			<title>PF08659</title>
			<rect class="PF08659" x="894" y="18" stroke-linejoin="round" width="17" height="26" fill="rgb(66,209,188)" stroke="rgb(52,167,150)" stroke-width="1" opacity="0.75" />
		</g>
		<g>
			<title>PF14765</title>
			<rect class="PF14765" x="932" y="18" stroke-linejoin="round" width="27" height="26" fill="rgb(173,56,182)" stroke="rgb(138,44,145)" stroke-width="1" opacity="0.75" />
		</g>
		<g>
			<title>PF00698</title>
			<rect class="PF00698" x="966" y="18" stroke-linejoin="round" width="31" height="26" fill="rgb(59,176,209)" stroke="rgb(47,140,167)" stroke-width="1" opacity="0.75" />
		</g>
		<g>
			<title>PF16197</title>
			<rect class="PF16197" x="1001" y="18" stroke-linejoin="round" width="11" height="26" fill="rgb(68,179,89)" stroke="rgb(54,143,71)" stroke-width="1" opacity="0.75" />
		</g>
		<g>
			<title>PF02801</title>
			<rect class="PF02801" x="1013" y="18" stroke-linejoin="round" width="11" height="26" fill="rgb(215,78,102)" stroke="rgb(172,62,81)" stroke-width="1" opacity="0.75" />
		</g>
		<g>
			<title>PF00109</title>
			<rect class="PF00109" x="1026" y="18" stroke-linejoin="round" width="23" height="26" fill="rgb(112,116,228)" stroke="rgb(89,92,182)" stroke-width="1" opacity="0.75" />
		</g>
	</g>
	<g>
		<title>tueA</title>
		<polygon class="tueA" points="1120,16 1081,16 1081,1 1051,31 1081,61 1081,46 1120,46" fill="rgb(252,253,196)" fill-opacity="1.0" stroke="rgb(100,101,78)" stroke-width="1" />
		<g>
			<title>PF00550</title>
			<polygon class="PF00550" points="1053,31 1058,26 1058,35" stroke-linejoin="round" width="6" height="26" fill="rgb(103,191,88)" stroke="rgb(82,152,70)" stroke-width="1" opacity="0.75" />
		</g>
		<g>
			<title>PF16197</title>
			<rect class="PF16197" x="1071" y="18" stroke-linejoin="round" width="11" height="26" fill="rgb(68,179,89)" stroke="rgb(54,143,71)" stroke-width="1" opacity="0.75" />
		</g>
		<g>
			<title>PF02801</title>
			<rect class="PF02801" x="1083" y="18" stroke-linejoin="round" width="11" height="26" fill="rgb(215,78,102)" stroke="rgb(172,62,81)" stroke-width="1" opacity="0.75" />
		</g>
		<g>
			<title>PF00109</title>
			<rect class="PF00109" x="1095" y="18" stroke-linejoin="round" width="24" height="26" fill="rgb(112,116,228)" stroke="rgb(89,92,182)" stroke-width="1" opacity="0.75" />
		</g>
	</g>
	<g>
		<title>tueD1</title>
		<polygon class="tueD1" points="1156,16 1152,16 1152,1 1122,31 1152,61 1152,46 1156,46" fill="rgb(186,228,254)" fill-opacity="1.0" stroke="rgb(74,91,101)" stroke-width="1" />
		<g>
			<title>PF00067</title>
			<polygon class="PF00067" points="1124,31 1137,18 1149,18 1149,44 1137,44" stroke-linejoin="round" width="25" height="26" fill="rgb(85,216,107)" stroke="rgb(68,172,85)" stroke-width="1" opacity="0.75" />
		</g>
	</g>
	<g>
		<title>infB</title>
		<polygon class="infB" points="1182,16 1182,16 1182,1 1167,31 1182,61 1182,46 1182,46" fill="rgb(178,251,195)" fill-opacity="1.0" stroke="rgb(71,100,78)" stroke-width="1" />
	</g>
	<g>
		<title>tueR</title>
		<polygon class="tueR" points="1201,16 1251,16 1251,1 1281,31 1251,61 1251,46 1201,46" fill="rgb(223,254,202)" fill-opacity="1.0" stroke="rgb(89,101,80)" stroke-width="1" />
		<g>
			<title>PF00196</title>
			<polygon class="PF00196" points="1274,27 1278,31 1274,35" stroke-linejoin="round" width="5" height="26" fill="rgb(219,94,82)" stroke="rgb(175,75,65)" stroke-width="1" opacity="0.75" />
		</g>
	</g>
	<g>
		<title>tueF1</title>
		<polygon class="tueF1" points="36,16 45,16 45,1 75,31 45,61 45,46 36,46" fill="rgb(246,252,198)" fill-opacity="1.0" stroke="rgb(98,100,79)" stroke-width="1" />
		<g>
			<title>PF00109</title>
			<rect class="PF00109" x="36" y="18" stroke-linejoin="round" width="23" height="26" fill="rgb(112,116,228)" stroke="rgb(89,92,182)" stroke-width="1" opacity="0.75" />
		</g>
		<g>
			<title>PF02801</title>
			<polygon class="PF02801" points="59,18 59,18 70,29 70,33 59,44 59,44" stroke-linejoin="round" width="11" height="26" fill="rgb(215,78,102)" stroke="rgb(172,62,81)" stroke-width="1" opacity="0.75" />
		</g>
	</g>
	<g>
		<title>tueI</title>
		<polygon class="tueI" points="1340,16 1312,16 1312,1 1282,31 1312,61 1312,46 1340,46" fill="rgb(185,252,239)" fill-opacity="1.0" stroke="rgb(74,100,95)" stroke-width="1" />
		<g>
			<title>PF00725</title>
			<polygon class="PF00725" points="1284,31 1291,24 1291,37" stroke-linejoin="round" width="9" height="26" fill="rgb(180,78,60)" stroke="rgb(144,62,48)" stroke-width="1" opacity="0.75" />
		</g>
		<g>
			<title>PF02737</title>
			<polygon class="PF02737" points="1291,24 1297,18 1308,18 1308,44 1297,44 1291,37" stroke-linejoin="round" width="17" height="26" fill="rgb(212,65,199)" stroke="rgb(169,52,159)" stroke-width="1" opacity="0.75" />
		</g>
		<g>
			<title>PF00725</title>
			<rect class="PF00725" x="1312" y="18" stroke-linejoin="round" width="9" height="26" fill="rgb(180,78,60)" stroke="rgb(144,62,48)" stroke-width="1" opacity="0.75" />
		</g>
		<g>
			<title>PF02737</title>
			<rect class="PF02737" x="1322" y="18" stroke-linejoin="round" width="16" height="26" fill="rgb(212,65,199)" stroke="rgb(169,52,159)" stroke-width="1" opacity="0.75" />
		</g>
	</g>
	<g>
		<title>tueH</title>
		<polygon class="tueH" points="1385,16 1371,16 1371,1 1341,31 1371,61 1371,46 1385,46" fill="rgb(202,220,254)" fill-opacity="1.0" stroke="rgb(80,88,101)" stroke-width="1" />
		<g>
			<title>PF00107</title>
			<polygon class="PF00107" points="1347,27 1356,18 1361,18 1361,44 1356,44 1347,34" stroke-linejoin="round" width="14" height="26" fill="rgb(81,108,215)" stroke="rgb(64,86,172)" stroke-width="1" opacity="0.75" />
		</g>
		<g>
			<title>PF08240</title>
			<rect class="PF08240" x="1366" y="18" stroke-linejoin="round" width="12" height="26" fill="rgb(211,65,138)" stroke="rgb(168,51,110)" stroke-width="1" opacity="0.75" />
		</g>
	</g>
	<g>
		<title>tueT</title>
		<polygon class="tueT" points="1395,16 1395,16 1395,1 1419,31 1395,61 1395,46 1395,46" fill="rgb(252,211,206)" fill-opacity="1.0" stroke="rgb(100,84,82)" stroke-width="1" />
		<g>
			<title>PF00975</title>
			<polygon class="PF00975" points="1396,18 1406,18 1416,31 1406,44 1396,44" stroke-linejoin="round" width="22" height="26" fill="rgb(207,80,138)" stroke="rgb(165,63,110)" stroke-width="1" opacity="0.75" />
		</g>
	</g>
	<g>
		<title>tueD2</title>
		<polygon class="tueD2" points="1434,16 1441,16 1441,1 1471,31 1441,61 1441,46 1434,46" fill="rgb(197,250,227)" fill-opacity="1.0" stroke="rgb(78,100,90)" stroke-width="1" />
		<g>
			<title>PF00067</title>
			<polygon class="PF00067" points="1434,18 1455,18 1467,30 1467,32 1455,44 1434,44" stroke-linejoin="round" width="33" height="26" fill="rgb(85,216,107)" stroke="rgb(68,172,85)" stroke-width="1" opacity="0.75" />
		</g>
	</g>
	<g>
		<title>tueG</title>
		<polygon class="tueG" points="1472,16 1472,16 1472,1 1478,31 1472,61 1472,46 1472,46" fill="rgb(208,250,224)" fill-opacity="1.0" stroke="rgb(83,100,89)" stroke-width="1" />
		<g>
			<title>PF13370</title>
			<polygon class="PF13370" points="1472,18 1472,18 1475,31 1472,44 1472,44" stroke-linejoin="round" width="5" height="26" fill="rgb(220,216,65)" stroke="rgb(176,172,52)" stroke-width="1" opacity="0.75" />
		</g>
	</g>
	<g>
		<title>tueE</title>
		<polygon class="tueE" points="1481,16 1512,16 1512,1 1542,31 1512,61 1512,46 1481,46" fill="rgb(190,180,251)" fill-opacity="1.0" stroke="rgb(76,72,100)" stroke-width="1" />
		<g>
			<title>PF13537</title>
			<rect class="PF13537" x="1485" y="18" stroke-linejoin="round" width="12" height="26" fill="rgb(200,63,57)" stroke="rgb(160,50,45)" stroke-width="1" opacity="0.75" />
		</g>
		<g>
			<title>PF00733</title>
			<polygon class="PF00733" points="1504,18 1526,18 1539,31 1526,44 1504,44" stroke-linejoin="round" width="36" height="26" fill="rgb(97,201,176)" stroke="rgb(77,160,140)" stroke-width="1" opacity="0.75" />
		</g>
	</g>
	<g>
		<title>tueJ</title>
		<polygon class="tueJ" points="37,78 31,78 31,63 1,93 31,123 31,108 37,108" fill="rgb(177,223,251)" fill-opacity="1.0" stroke="rgb(70,89,100)" stroke-width="1" />
		<g>
			<title>PF03054</title>
			<polygon class="PF03054" points="3,93 16,80 37,80 37,106 16,106" stroke-linejoin="round" width="35" height="26" fill="rgb(197,86,150)" stroke="rgb(157,68,120)" stroke-width="1" opacity="0.75" />
		</g>
	</g>
	<g>
		<title>tueK</title>
		<polygon class="tueK" points="40,78 40,78 40,63 62,93 40,123 40,108 40,108" fill="rgb(236,251,201)" fill-opacity="1.0" stroke="rgb(94,100,80)" stroke-width="1" />
		<g>
			<title>PF01510</title>
			<polygon class="PF01510" points="48,80 49,80 59,93 49,106 48,106" stroke-linejoin="round" width="12" height="26" fill="rgb(122,192,71)" stroke="rgb(97,153,56)" stroke-width="1" opacity="0.75" />
		</g>
	</g>
	<g>
		<title>tueS</title>
		<polygon class="tueS" points="112,78 103,78 103,63 73,93 103,123 103,108 112,108" fill="rgb(251,254,189)" fill-opacity="1.0" stroke="rgb(100,101,75)" stroke-width="1" />
		<g>
			<title>PF00266</title>
			<polygon class="PF00266" points="75,93 88,80 111,80 111,106 88,106" stroke-linejoin="round" width="37" height="26" fill="rgb(214,54,122)" stroke="rgb(171,43,97)" stroke-width="1" opacity="0.75" />
		</g>
	</g>
	<g>
		<title>ephB</title>
		<polygon class="ephB" points="107,16 107,16 107,1 78,31 107,61 107,46 107,46" fill="rgb(225,250,177)" fill-opacity="1.0" stroke="rgb(90,100,70)" stroke-width="1" />
		<g>
			<title>PF00561</title>
			<polygon class="PF00561" points="80,31 93,18 106,18 106,44 93,44" stroke-linejoin="round" width="27" height="26" fill="rgb(86,180,151)" stroke="rgb(68,144,120)" stroke-width="1" opacity="0.75" />
		</g>
	</g>
	<g>
		<polygon class="NoName" points="120,16 120,16 120,1 141,31 120,61 120,46 120,46" fill="rgb(255,255,255)" fill-opacity="1.0" stroke="rgb(50,50,50)" stroke-width="1" />
		<g>
			<title>PF11716</title>
			<polygon class="PF11716" points="120,18 129,18 134,25 134,37 129,44 120,44" stroke-linejoin="round" width="14" height="26" fill="rgb(214,107,221)" stroke="rgb(171,85,176)" stroke-width="1" opacity="0.75" />
		</g>
	</g>
	<g>
		<polygon class="NoName" points="148,16 148,16 148,1 161,31 148,61 148,46 148,46" fill="rgb(255,255,255)" fill-opacity="1.0" stroke="rgb(50,50,50)" stroke-width="1" />
	</g>
	<g>
		<polygon class="NoName" points="165,16 165,16 165,1 184,31 165,61 165,46 165,46" fill="rgb(255,255,255)" fill-opacity="1.0" stroke="rgb(50,50,50)" stroke-width="1" />
		<g>
			<title>PF09346</title>
			<polygon class="PF09346" points="168,18 173,18 181,31 181,31 173,44 168,44" stroke-linejoin="round" width="13" height="26" fill="rgb(197,180,87)" stroke="rgb(157,144,69)" stroke-width="1" opacity="0.75" />
		</g>
	</g>
	<g>
		<polygon class="NoName" points="186,16 186,16 186,1 205,31 186,61 186,46 186,46" fill="rgb(255,255,255)" fill-opacity="1.0" stroke="rgb(50,50,50)" stroke-width="1" />
		<g>
			<title>PF14568</title>
			<polygon class="PF14568" points="188,18 194,18 200,27 200,35 194,44 188,44" stroke-linejoin="round" width="12" height="26" fill="rgb(87,162,215)" stroke="rgb(69,129,172)" stroke-width="1" opacity="0.75" />
		</g>
	</g>
	<g>
		<polygon class="NoName" points="247,16 238,16 238,1 208,31 238,61 238,46 247,46" fill="rgb(255,255,255)" fill-opacity="1.0" stroke="rgb(50,50,50)" stroke-width="1" />
		<g>
			<title>PF02687</title>
			<polygon class="PF02687" points="210,31 219,22 219,39" stroke-linejoin="round" width="11" height="26" fill="rgb(126,55,214)" stroke="rgb(100,44,171)" stroke-width="1" opacity="0.75" />
		</g>
		<g>
			<title>PF12704</title>
			<polygon class="PF12704" points="221,20 223,18 244,18 244,44 223,44 221,41" stroke-linejoin="round" width="23" height="26" fill="rgb(79,76,190)" stroke="rgb(63,60,152)" stroke-width="1" opacity="0.75" />
		</g>
	</g>
	<g>
		<polygon class="NoName" points="273,16 273,16 273,1 247,31 273,61 273,46 273,46" fill="rgb(255,255,255)" fill-opacity="1.0" stroke="rgb(50,50,50)" stroke-width="1" />
		<g>
			<title>PF00005</title>
			<polygon class="PF00005" points="256,23 260,18 270,18 270,44 260,44 256,38" stroke-linejoin="round" width="14" height="26" fill="rgb(129,201,63)" stroke="rgb(103,160,50)" stroke-width="1" opacity="0.75" />
		</g>
	</g>
</svg>
