<svg version="1.1" baseProfile="full" xmlns="http://www.w3.org/2000/svg" width="1702" height="62">
	<line x1="1" y1="31" x2="1701" y2="31" style="stroke:rgb(50,50,50); stroke-width:3 "/>
	<g>
		<title>dkxL</title>
		<polygon class="dkxL" points="1164,16 1172,16 1172,1 1202,31 1172,61 1172,46 1164,46" fill="rgb(180,217,250)" fill-opacity="1.0" stroke="rgb(72,86,100)" stroke-width="1" />
		<g>
			<title>PF02374</title>
			<polygon class="PF02374" points="1164,18 1186,18 1193,25 1193,37 1186,44 1164,44" stroke-linejoin="round" width="29" height="26" fill="rgb(210,53,214)" stroke="rgb(167,42,171)" stroke-width="1" opacity="0.75" />
		</g>
	</g>
	<g>
		<title>dkxP</title>
		<polygon class="dkxP" points="1205,16 1205,16 1205,1 1218,31 1205,61 1205,46 1205,46" fill="rgb(233,251,191)" fill-opacity="1.0" stroke="rgb(93,100,76)" stroke-width="1" />
	</g>
	<g>
		<title>dkxQ</title>
		<polygon class="dkxQ" points="1220,16 1267,16 1267,1 1297,31 1267,61 1267,46 1220,46" fill="rgb(190,253,231)" fill-opacity="1.0" stroke="rgb(76,101,92)" stroke-width="1" />
		<g>
			<title>PF13649</title>
			<rect class="PF13649" x="1230" y="18" stroke-linejoin="round" width="9" height="26" fill="rgb(227,135,74)" stroke="rgb(181,108,59)" stroke-width="1" opacity="0.75" />
		</g>
		<g>
			<title>PF08659</title>
			<polygon class="PF08659" points="1278,18 1281,18 1293,30 1293,32 1281,44 1278,44" stroke-linejoin="round" width="15" height="26" fill="rgb(66,209,188)" stroke="rgb(52,167,150)" stroke-width="1" opacity="0.75" />
		</g>
	</g>
	<g>
		<title>dkxR</title>
		<polygon class="dkxR" points="1298,16 1298,16 1298,1 1314,31 1298,61 1298,46 1298,46" fill="rgb(176,180,251)" fill-opacity="1.0" stroke="rgb(70,72,100)" stroke-width="1" />
		<g>
			<title>PF00550</title>
			<polygon class="PF00550" points="1306,21 1311,31 1306,41" stroke-linejoin="round" width="6" height="26" fill="rgb(103,191,88)" stroke="rgb(82,152,70)" stroke-width="1" opacity="0.75" />
		</g>
	</g>
	<g>
		<title>dkxS</title>
		<polygon class="dkxS" points="1319,16 1351,16 1351,1 1381,31 1351,61 1351,46 1319,46" fill="rgb(252,214,227)" fill-opacity="1.0" stroke="rgb(100,85,90)" stroke-width="1" />
		<g>
			<title>PF04055</title>
			<rect class="PF04055" x="1342" y="18" stroke-linejoin="round" width="16" height="26" fill="rgb(149,56,222)" stroke="rgb(119,44,177)" stroke-width="1" opacity="0.75" />
		</g>
	</g>
	<g>
		<title>dkxN</title>
		<polygon class="dkxN" points="1382,16 1538,16 1538,1 1568,31 1538,61 1538,46 1382,46" fill="rgb(201,249,252)" fill-opacity="1.0" stroke="rgb(80,99,100)" stroke-width="1" />
		<g>
			<title>PF00109</title>
			<rect class="PF00109" x="1385" y="18" stroke-linejoin="round" width="25" height="26" fill="rgb(112,116,228)" stroke="rgb(89,92,182)" stroke-width="1" opacity="0.75" />
		</g>
		<g>
			<title>PF02801</title>
			<rect class="PF02801" x="1411" y="18" stroke-linejoin="round" width="11" height="26" fill="rgb(215,78,102)" stroke="rgb(172,62,81)" stroke-width="1" opacity="0.75" />
		</g>
		<g>
			<title>PF16197</title>
			<rect class="PF16197" x="1423" y="18" stroke-linejoin="round" width="11" height="26" fill="rgb(68,179,89)" stroke="rgb(54,143,71)" stroke-width="1" opacity="0.75" />
		</g>
		<g>
			<title>PF00698</title>
			<rect class="PF00698" x="1439" y="18" stroke-linejoin="round" width="27" height="26" fill="rgb(59,176,209)" stroke="rgb(47,140,167)" stroke-width="1" opacity="0.75" />
		</g>
		<g>
			<title>PF14765</title>
			<rect class="PF14765" x="1476" y="18" stroke-linejoin="round" width="28" height="26" fill="rgb(173,56,182)" stroke="rgb(138,44,145)" stroke-width="1" opacity="0.75" />
		</g>
		<g>
			<title>PF08659</title>
			<rect class="PF08659" x="1529" y="18" stroke-linejoin="round" width="17" height="26" fill="rgb(66,209,188)" stroke="rgb(52,167,150)" stroke-width="1" opacity="0.75" />
		</g>
		<g>
			<title>PF00550</title>
			<polygon class="PF00550" points="1556,22 1562,28 1562,34 1556,40" stroke-linejoin="round" width="6" height="26" fill="rgb(103,191,88)" stroke="rgb(82,152,70)" stroke-width="1" opacity="0.75" />
		</g>
	</g>
	<g>
		<title>dkxT</title>
		<polygon class="dkxT" points="1569,16 1634,16 1634,1 1664,31 1634,61 1634,46 1569,46" fill="rgb(182,234,253)" fill-opacity="1.0" stroke="rgb(72,93,101)" stroke-width="1" />
		<g>
			<title>PF00109</title>
			<rect class="PF00109" x="1572" y="18" stroke-linejoin="round" width="24" height="26" fill="rgb(112,116,228)" stroke="rgb(89,92,182)" stroke-width="1" opacity="0.75" />
		</g>
		<g>
			<title>PF02801</title>
			<rect class="PF02801" x="1597" y="18" stroke-linejoin="round" width="11" height="26" fill="rgb(215,78,102)" stroke="rgb(172,62,81)" stroke-width="1" opacity="0.75" />
		</g>
		<g>
			<title>PF16197</title>
			<rect class="PF16197" x="1609" y="18" stroke-linejoin="round" width="11" height="26" fill="rgb(68,179,89)" stroke="rgb(54,143,71)" stroke-width="1" opacity="0.75" />
		</g>
		<g>
			<title>PF00698</title>
			<polygon class="PF00698" points="1625,18 1648,18 1655,25 1655,37 1648,44 1625,44" stroke-linejoin="round" width="30" height="26" fill="rgb(59,176,209)" stroke="rgb(47,140,167)" stroke-width="1" opacity="0.75" />
		</g>
	</g>
	<g>
		<title>dkxO</title>
		<polygon class="dkxO" points="1700,16 1700,16 1700,1 1674,31 1700,61 1700,46 1700,46" fill="rgb(254,250,180)" fill-opacity="1.0" stroke="rgb(101,100,72)" stroke-width="1" />
		<g>
			<title>PF00975</title>
			<polygon class="PF00975" points="1676,31 1687,18 1696,18 1696,44 1687,44" stroke-linejoin="round" width="22" height="26" fill="rgb(207,80,138)" stroke="rgb(165,63,110)" stroke-width="1" opacity="0.75" />
		</g>
	</g>
	<g>
		<title>dkxA</title>
		<polygon class="dkxA" points="51,16 31,16 31,1 1,31 31,61 31,46 51,46" fill="rgb(198,189,251)" fill-opacity="1.0" stroke="rgb(79,75,100)" stroke-width="1" />
		<g>
			<title>PF13193</title>
			<polygon class="PF13193" points="3,31 9,25 9,36" stroke-linejoin="round" width="7" height="26" fill="rgb(182,50,118)" stroke="rgb(145,39,94)" stroke-width="1" opacity="0.75" />
		</g>
		<g>
			<title>PF00501</title>
			<polygon class="PF00501" points="10,24 16,18 50,18 50,44 16,44 10,37" stroke-linejoin="round" width="40" height="26" fill="rgb(60,217,223)" stroke="rgb(48,173,178)" stroke-width="1" opacity="0.75" />
		</g>
	</g>
	<g>
		<title>dkxB</title>
		<polygon class="dkxB" points="89,16 81,16 81,1 51,31 81,61 81,46 89,46" fill="rgb(251,191,192)" fill-opacity="1.0" stroke="rgb(100,76,76)" stroke-width="1" />
		<g>
			<title>PF00441</title>
			<polygon class="PF00441" points="53,31 65,19 65,42" stroke-linejoin="round" width="14" height="26" fill="rgb(85,191,117)" stroke="rgb(68,152,93)" stroke-width="1" opacity="0.75" />
		</g>
		<g>
			<title>PF02770</title>
			<rect class="PF02770" x="67" y="18" stroke-linejoin="round" width="9" height="26" fill="rgb(225,186,97)" stroke="rgb(180,148,77)" stroke-width="1" opacity="0.75" />
		</g>
		<g>
			<title>PF02771</title>
			<rect class="PF02771" x="77" y="18" stroke-linejoin="round" width="11" height="26" fill="rgb(105,135,218)" stroke="rgb(84,108,174)" stroke-width="1" opacity="0.75" />
		</g>
	</g>
	<g>
		<title>dkxE</title>
		<polygon class="dkxE" points="95,16 139,16 139,1 169,31 139,61 139,46 95,46" fill="rgb(254,224,184)" fill-opacity="1.0" stroke="rgb(101,89,73)" stroke-width="1" />
		<g>
			<title>PF00109</title>
			<rect class="PF00109" x="95" y="18" stroke-linejoin="round" width="24" height="26" fill="rgb(112,116,228)" stroke="rgb(89,92,182)" stroke-width="1" opacity="0.75" />
		</g>
		<g>
			<title>PF02801</title>
			<rect class="PF02801" x="120" y="18" stroke-linejoin="round" width="11" height="26" fill="rgb(215,78,102)" stroke="rgb(172,62,81)" stroke-width="1" opacity="0.75" />
		</g>
		<g>
			<title>PF16197</title>
			<rect class="PF16197" x="132" y="18" stroke-linejoin="round" width="12" height="26" fill="rgb(68,179,89)" stroke="rgb(54,143,71)" stroke-width="1" opacity="0.75" />
		</g>
		<g>
			<title>PF00550</title>
			<polygon class="PF00550" points="156,21 162,27 162,35 156,41" stroke-linejoin="round" width="6" height="26" fill="rgb(103,191,88)" stroke="rgb(82,152,70)" stroke-width="1" opacity="0.75" />
		</g>
	</g>
	<g>
		<title>dkxF</title>
		<polygon class="dkxF" points="168,16 284,16 284,1 314,31 284,61 284,46 168,46" fill="rgb(232,252,211)" fill-opacity="1.0" stroke="rgb(92,100,84)" stroke-width="1" />
		<g>
			<title>PF00109</title>
			<rect class="PF00109" x="171" y="18" stroke-linejoin="round" width="25" height="26" fill="rgb(112,116,228)" stroke="rgb(89,92,182)" stroke-width="1" opacity="0.75" />
		</g>
		<g>
			<title>PF02801</title>
			<rect class="PF02801" x="197" y="18" stroke-linejoin="round" width="11" height="26" fill="rgb(215,78,102)" stroke="rgb(172,62,81)" stroke-width="1" opacity="0.75" />
		</g>
		<g>
			<title>PF16197</title>
			<rect class="PF16197" x="209" y="18" stroke-linejoin="round" width="11" height="26" fill="rgb(68,179,89)" stroke="rgb(54,143,71)" stroke-width="1" opacity="0.75" />
		</g>
		<g>
			<title>PF00698</title>
			<rect class="PF00698" x="224" y="18" stroke-linejoin="round" width="12" height="26" fill="rgb(59,176,209)" stroke="rgb(47,140,167)" stroke-width="1" opacity="0.75" />
		</g>
		<g>
			<title>PF08659</title>
			<rect class="PF08659" x="277" y="18" stroke-linejoin="round" width="17" height="26" fill="rgb(66,209,188)" stroke="rgb(52,167,150)" stroke-width="1" opacity="0.75" />
		</g>
		<g>
			<title>PF00550</title>
			<polygon class="PF00550" points="305,25 311,31 311,31 305,37" stroke-linejoin="round" width="6" height="26" fill="rgb(103,191,88)" stroke="rgb(82,152,70)" stroke-width="1" opacity="0.75" />
		</g>
	</g>
	<g>
		<title>dkxG</title>
		<polygon class="dkxG" points="315,16 582,16 582,1 612,31 582,61 582,46 315,46" fill="rgb(189,216,253)" fill-opacity="1.0" stroke="rgb(75,86,101)" stroke-width="1" />
		<g>
			<title>PF00668</title>
			<rect class="PF00668" x="322" y="18" stroke-linejoin="round" width="44" height="26" fill="rgb(224,184,98)" stroke="rgb(179,147,78)" stroke-width="1" opacity="0.75" />
		</g>
		<g>
			<title>PF00501</title>
			<rect class="PF00501" x="369" y="18" stroke-linejoin="round" width="39" height="26" fill="rgb(60,217,223)" stroke="rgb(48,173,178)" stroke-width="1" opacity="0.75" />
		</g>
		<g>
			<title>PF13193</title>
			<rect class="PF13193" x="409" y="18" stroke-linejoin="round" width="7" height="26" fill="rgb(182,50,118)" stroke="rgb(145,39,94)" stroke-width="1" opacity="0.75" />
		</g>
		<g>
			<title>PF00550</title>
			<rect class="PF00550" x="421" y="18" stroke-linejoin="round" width="6" height="26" fill="rgb(103,191,88)" stroke="rgb(82,152,70)" stroke-width="1" opacity="0.75" />
		</g>
		<g>
			<title>PF00109</title>
			<rect class="PF00109" x="430" y="18" stroke-linejoin="round" width="24" height="26" fill="rgb(112,116,228)" stroke="rgb(89,92,182)" stroke-width="1" opacity="0.75" />
		</g>
		<g>
			<title>PF02801</title>
			<rect class="PF02801" x="455" y="18" stroke-linejoin="round" width="11" height="26" fill="rgb(215,78,102)" stroke="rgb(172,62,81)" stroke-width="1" opacity="0.75" />
		</g>
		<g>
			<title>PF16197</title>
			<rect class="PF16197" x="467" y="18" stroke-linejoin="round" width="11" height="26" fill="rgb(68,179,89)" stroke="rgb(54,143,71)" stroke-width="1" opacity="0.75" />
		</g>
		<g>
			<title>PF00698</title>
			<rect class="PF00698" x="482" y="18" stroke-linejoin="round" width="31" height="26" fill="rgb(59,176,209)" stroke="rgb(47,140,167)" stroke-width="1" opacity="0.75" />
		</g>
		<g>
			<title>PF14765</title>
			<rect class="PF14765" x="519" y="18" stroke-linejoin="round" width="28" height="26" fill="rgb(173,56,182)" stroke="rgb(138,44,145)" stroke-width="1" opacity="0.75" />
		</g>
		<g>
			<title>PF08659</title>
			<rect class="PF08659" x="573" y="18" stroke-linejoin="round" width="17" height="26" fill="rgb(66,209,188)" stroke="rgb(52,167,150)" stroke-width="1" opacity="0.75" />
		</g>
		<g>
			<title>PF00550</title>
			<polygon class="PF00550" points="600,22 606,28 606,34 600,40" stroke-linejoin="round" width="6" height="26" fill="rgb(103,191,88)" stroke="rgb(82,152,70)" stroke-width="1" opacity="0.75" />
		</g>
	</g>
	<g>
		<title>dkxH</title>
		<polygon class="dkxH" points="612,16 767,16 767,1 797,31 767,61 767,46 612,46" fill="rgb(252,228,209)" fill-opacity="1.0" stroke="rgb(100,91,83)" stroke-width="1" />
		<g>
			<title>PF00109</title>
			<rect class="PF00109" x="615" y="18" stroke-linejoin="round" width="25" height="26" fill="rgb(112,116,228)" stroke="rgb(89,92,182)" stroke-width="1" opacity="0.75" />
		</g>
		<g>
			<title>PF02801</title>
			<rect class="PF02801" x="641" y="18" stroke-linejoin="round" width="11" height="26" fill="rgb(215,78,102)" stroke="rgb(172,62,81)" stroke-width="1" opacity="0.75" />
		</g>
		<g>
			<title>PF16197</title>
			<rect class="PF16197" x="653" y="18" stroke-linejoin="round" width="11" height="26" fill="rgb(68,179,89)" stroke="rgb(54,143,71)" stroke-width="1" opacity="0.75" />
		</g>
		<g>
			<title>PF00698</title>
			<rect class="PF00698" x="668" y="18" stroke-linejoin="round" width="31" height="26" fill="rgb(59,176,209)" stroke="rgb(47,140,167)" stroke-width="1" opacity="0.75" />
		</g>
		<g>
			<title>PF14765</title>
			<rect class="PF14765" x="704" y="18" stroke-linejoin="round" width="28" height="26" fill="rgb(173,56,182)" stroke="rgb(138,44,145)" stroke-width="1" opacity="0.75" />
		</g>
		<g>
			<title>PF08659</title>
			<rect class="PF08659" x="758" y="18" stroke-linejoin="round" width="17" height="26" fill="rgb(66,209,188)" stroke="rgb(52,167,150)" stroke-width="1" opacity="0.75" />
		</g>
		<g>
			<title>PF00550</title>
			<polygon class="PF00550" points="785,22 791,28 791,34 785,40" stroke-linejoin="round" width="6" height="26" fill="rgb(103,191,88)" stroke="rgb(82,152,70)" stroke-width="1" opacity="0.75" />
		</g>
	</g>
	<g>
		<title>dkxI</title>
		<polygon class="dkxI" points="798,16 951,16 951,1 981,31 951,61 951,46 798,46" fill="rgb(225,250,191)" fill-opacity="1.0" stroke="rgb(89,100,76)" stroke-width="1" />
		<g>
			<title>PF00109</title>
			<rect class="PF00109" x="801" y="18" stroke-linejoin="round" width="24" height="26" fill="rgb(112,116,228)" stroke="rgb(89,92,182)" stroke-width="1" opacity="0.75" />
		</g>
		<g>
			<title>PF02801</title>
			<rect class="PF02801" x="826" y="18" stroke-linejoin="round" width="11" height="26" fill="rgb(215,78,102)" stroke="rgb(172,62,81)" stroke-width="1" opacity="0.75" />
		</g>
		<g>
			<title>PF16197</title>
			<rect class="PF16197" x="838" y="18" stroke-linejoin="round" width="13" height="26" fill="rgb(68,179,89)" stroke="rgb(54,143,71)" stroke-width="1" opacity="0.75" />
		</g>
		<g>
			<title>PF00698</title>
			<rect class="PF00698" x="853" y="18" stroke-linejoin="round" width="31" height="26" fill="rgb(59,176,209)" stroke="rgb(47,140,167)" stroke-width="1" opacity="0.75" />
		</g>
		<g>
			<title>PF14765</title>
			<rect class="PF14765" x="890" y="18" stroke-linejoin="round" width="29" height="26" fill="rgb(173,56,182)" stroke="rgb(138,44,145)" stroke-width="1" opacity="0.75" />
		</g>
		<g>
			<title>PF08659</title>
			<rect class="PF08659" x="944" y="18" stroke-linejoin="round" width="17" height="26" fill="rgb(66,209,188)" stroke="rgb(52,167,150)" stroke-width="1" opacity="0.75" />
		</g>
		<g>
			<title>PF00550</title>
			<polygon class="PF00550" points="972,25 978,31 978,31 972,37" stroke-linejoin="round" width="6" height="26" fill="rgb(103,191,88)" stroke="rgb(82,152,70)" stroke-width="1" opacity="0.75" />
		</g>
	</g>
	<g>
		<title>dkxJ</title>
		<polygon class="dkxJ" points="981,16 1095,16 1095,1 1125,31 1095,61 1095,46 981,46" fill="rgb(200,234,251)" fill-opacity="1.0" stroke="rgb(80,93,100)" stroke-width="1" />
		<g>
			<title>PF00668</title>
			<rect class="PF00668" x="988" y="18" stroke-linejoin="round" width="44" height="26" fill="rgb(224,184,98)" stroke="rgb(179,147,78)" stroke-width="1" opacity="0.75" />
		</g>
		<g>
			<title>PF00501</title>
			<rect class="PF00501" x="1034" y="18" stroke-linejoin="round" width="40" height="26" fill="rgb(60,217,223)" stroke="rgb(48,173,178)" stroke-width="1" opacity="0.75" />
		</g>
		<g>
			<title>PF13193</title>
			<rect class="PF13193" x="1076" y="18" stroke-linejoin="round" width="7" height="26" fill="rgb(182,50,118)" stroke="rgb(145,39,94)" stroke-width="1" opacity="0.75" />
		</g>
		<g>
			<title>PF00550</title>
			<rect class="PF00550" x="1087" y="18" stroke-linejoin="round" width="6" height="26" fill="rgb(103,191,88)" stroke="rgb(82,152,70)" stroke-width="1" opacity="0.75" />
		</g>
		<g>
			<title>PF00975</title>
			<polygon class="PF00975" points="1096,18 1109,18 1121,30 1121,32 1109,44 1096,44" stroke-linejoin="round" width="25" height="26" fill="rgb(207,80,138)" stroke="rgb(165,63,110)" stroke-width="1" opacity="0.75" />
		</g>
	</g>
	<g>
		<title>dkxK</title>
		<polygon class="dkxK" points="1126,16 1132,16 1132,1 1162,31 1132,61 1132,46 1126,46" fill="rgb(248,250,176)" fill-opacity="1.0" stroke="rgb(99,100,70)" stroke-width="1" />
		<g>
			<title>PF01734</title>
			<rect class="PF01734" x="1126" y="18" stroke-linejoin="round" width="20" height="26" fill="rgb(200,132,98)" stroke="rgb(160,105,78)" stroke-width="1" opacity="0.75" />
		</g>
	</g>
</svg>
