<svg version="1.1" baseProfile="full" xmlns="http://www.w3.org/2000/svg" width="218" height="62">
	<line x1="1" y1="31" x2="217" y2="31" style="stroke:rgb(50,50,50); stroke-width:3 "/>
	<g>
		<polygon class="NoName" points="17,16 17,16 17,1 1,31 17,61 17,46 17,46" fill="rgb(255,255,255)" fill-opacity="1.0" stroke="rgb(50,50,50)" stroke-width="1" />
	</g>
	<g>
		<polygon class="NoName" points="24,16 24,16 24,1 47,31 24,61 24,46 24,46" fill="rgb(255,255,255)" fill-opacity="1.0" stroke="rgb(50,50,50)" stroke-width="1" />
		<g>
			<title>PF00075</title>
			<polygon class="PF00075" points="24,18 34,18 38,23 38,39 34,44 24,44" stroke-linejoin="round" width="14" height="26" fill="rgb(225,86,224)" stroke="rgb(180,68,179)" stroke-width="1" opacity="0.75" />
		</g>
	</g>
	<g>
		<title>melC2</title>
		<polygon class="melC2" points="79,16 79,16 79,1 52,31 79,61 79,46 79,46" fill="rgb(250,208,179)" fill-opacity="1.0" stroke="rgb(100,83,71)" stroke-width="1" />
		<g>
			<title>PF00264</title>
			<polygon class="PF00264" points="56,29 66,18 76,18 76,44 66,44 56,32" stroke-linejoin="round" width="20" height="26" fill="rgb(87,199,223)" stroke="rgb(69,159,178)" stroke-width="1" opacity="0.75" />
		</g>
	</g>
	<g>
		<title>melC1</title>
		<polygon class="melC1" points="92,16 92,16 92,1 81,31 92,61 92,46 92,46" fill="rgb(252,207,204)" fill-opacity="1.0" stroke="rgb(100,82,81)" stroke-width="1" />
		<g>
			<title>PF06236</title>
			<polygon class="PF06236" points="83,31 88,18 92,18 92,44 88,44" stroke-linejoin="round" width="11" height="26" fill="rgb(182,64,58)" stroke="rgb(145,51,46)" stroke-width="1" opacity="0.75" />
		</g>
	</g>
	<g>
		<polygon class="NoName" points="117,16 117,16 117,1 102,31 117,61 117,46 117,46" fill="rgb(255,255,255)" fill-opacity="1.0" stroke="rgb(50,50,50)" stroke-width="1" />
	</g>
	<g>
		<polygon class="NoName" points="123,16 133,16 133,1 163,31 133,61 133,46 123,46" fill="rgb(255,255,255)" fill-opacity="1.0" stroke="rgb(50,50,50)" stroke-width="1" />
		<g>
			<title>PF01494</title>
			<polygon class="PF01494" points="135,18 147,18 154,25 154,37 147,44 135,44" stroke-linejoin="round" width="19" height="26" fill="rgb(182,175,59)" stroke="rgb(145,140,47)" stroke-width="1" opacity="0.75" />
		</g>
	</g>
	<g>
		<polygon class="NoName" points="165,16 186,16 186,1 216,31 186,61 186,46 165,46" fill="rgb(255,255,255)" fill-opacity="1.0" stroke="rgb(50,50,50)" stroke-width="1" />
		<g>
			<title>PF07690</title>
			<polygon class="PF07690" points="170,18 200,18 209,27 209,35 200,44 170,44" stroke-linejoin="round" width="39" height="26" fill="rgb(193,224,74)" stroke="rgb(154,179,59)" stroke-width="1" opacity="0.75" />
		</g>
	</g>
</svg>
