<svg version="1.1" baseProfile="full" xmlns="http://www.w3.org/2000/svg" width="1223" height="62">
	<line x1="1" y1="31" x2="1222" y2="31" style="stroke:rgb(50,50,50); stroke-width:3 "/>
	<g>
		<title>saqL</title>
		<polygon class="saqL" points="303,16 304,16 304,1 334,31 304,61 304,46 303,46" fill="rgb(205,249,232)" fill-opacity="1.0" stroke="rgb(82,99,92)" stroke-width="1" />
		<g>
			<title>PF10604</title>
			<rect class="PF10604" x="303" y="18" stroke-linejoin="round" width="14" height="26" fill="rgb(105,204,74)" stroke="rgb(84,163,59)" stroke-width="1" opacity="0.75" />
		</g>
		<g>
			<title>PF03364</title>
			<polygon class="PF03364" points="319,19 331,31 331,31 319,43" stroke-linejoin="round" width="12" height="26" fill="rgb(221,94,106)" stroke="rgb(176,75,84)" stroke-width="1" opacity="0.75" />
		</g>
	</g>
	<g>
		<title>saqM</title>
		<polygon class="saqM" points="337,16 356,16 356,1 386,31 356,61 356,46 337,46" fill="rgb(190,252,202)" fill-opacity="1.0" stroke="rgb(76,100,80)" stroke-width="1" />
		<g>
			<title>PF01494</title>
			<rect class="PF01494" x="337" y="18" stroke-linejoin="round" width="32" height="26" fill="rgb(182,175,59)" stroke="rgb(145,140,47)" stroke-width="1" opacity="0.75" />
		</g>
	</g>
	<g>
		<title>saqN</title>
		<polygon class="saqN" points="387,16 387,16 387,1 412,31 387,61 387,46 387,46" fill="rgb(241,207,252)" fill-opacity="1.0" stroke="rgb(96,82,100)" stroke-width="1" />
		<g>
			<title>PF13561</title>
			<polygon class="PF13561" points="388,18 398,18 409,31 398,44 388,44" stroke-linejoin="round" width="23" height="26" fill="rgb(73,205,127)" stroke="rgb(58,164,101)" stroke-width="1" opacity="0.75" />
		</g>
	</g>
	<g>
		<title>saqO</title>
		<polygon class="saqO" points="416,16 416,16 416,1 435,31 416,61 416,46 416,46" fill="rgb(213,252,226)" fill-opacity="1.0" stroke="rgb(85,100,90)" stroke-width="1" />
		<g>
			<title>PF03358</title>
			<polygon class="PF03358" points="416,18 424,18 430,27 430,35 424,44 416,44" stroke-linejoin="round" width="14" height="26" fill="rgb(90,228,61)" stroke="rgb(72,182,48)" stroke-width="1" opacity="0.75" />
		</g>
	</g>
	<g>
		<title>saqGT1</title>
		<polygon class="saqGT1" points="437,16 449,16 449,1 479,31 449,61 449,46 437,46" fill="rgb(252,250,205)" fill-opacity="1.0" stroke="rgb(100,100,82)" stroke-width="1" />
		<g>
			<title>PF06722</title>
			<polygon class="PF06722" points="457,18 463,18 466,21 466,41 463,44 457,44" stroke-linejoin="round" width="9" height="26" fill="rgb(200,129,88)" stroke="rgb(160,103,70)" stroke-width="1" opacity="0.75" />
		</g>
	</g>
	<g>
		<title>saqJ</title>
		<polygon class="saqJ" points="480,16 497,16 497,1 527,31 497,61 497,46 480,46" fill="rgb(252,204,236)" fill-opacity="1.0" stroke="rgb(100,81,94)" stroke-width="1" />
		<g>
			<title>PF07690</title>
			<polygon class="PF07690" points="482,18 511,18 521,28 521,34 511,44 482,44" stroke-linejoin="round" width="39" height="26" fill="rgb(193,224,74)" stroke="rgb(154,179,59)" stroke-width="1" opacity="0.75" />
		</g>
	</g>
	<g>
		<title>saqGT2</title>
		<polygon class="saqGT2" points="527,16 541,16 541,1 571,31 541,61 541,46 527,46" fill="rgb(202,251,189)" fill-opacity="1.0" stroke="rgb(80,100,75)" stroke-width="1" />
		<g>
			<title>PF06722</title>
			<polygon class="PF06722" points="548,18 555,18 557,20 557,42 555,44 548,44" stroke-linejoin="round" width="9" height="26" fill="rgb(200,129,88)" stroke="rgb(160,103,70)" stroke-width="1" opacity="0.75" />
		</g>
	</g>
	<g>
		<title>saqGT3</title>
		<polygon class="saqGT3" points="571,16 581,16 581,1 611,31 581,61 581,46 571,46" fill="rgb(191,252,227)" fill-opacity="1.0" stroke="rgb(76,100,90)" stroke-width="1" />
		<g>
			<title>PF06722</title>
			<polygon class="PF06722" points="588,18 595,18 598,21 598,41 595,44 588,44" stroke-linejoin="round" width="10" height="26" fill="rgb(200,129,88)" stroke="rgb(160,103,70)" stroke-width="1" opacity="0.75" />
		</g>
	</g>
	<g>
		<title>saqGT4</title>
		<polygon class="saqGT4" points="612,16 621,16 621,1 651,31 621,61 621,46 612,46" fill="rgb(253,230,188)" fill-opacity="1.0" stroke="rgb(101,92,75)" stroke-width="1" />
		<g>
			<title>PF06722</title>
			<polygon class="PF06722" points="629,18 635,18 639,22 639,40 635,44 629,44" stroke-linejoin="round" width="10" height="26" fill="rgb(200,129,88)" stroke="rgb(160,103,70)" stroke-width="1" opacity="0.75" />
		</g>
	</g>
	<g>
		<title>saqZ1</title>
		<polygon class="saqZ1" points="651,16 651,16 651,1 671,31 651,61 651,46 651,46" fill="rgb(249,189,251)" fill-opacity="1.0" stroke="rgb(99,75,100)" stroke-width="1" />
		<g>
			<title>PF00908</title>
			<polygon class="PF00908" points="651,18 659,18 668,31 668,31 659,44 651,44" stroke-linejoin="round" width="17" height="26" fill="rgb(184,89,121)" stroke="rgb(147,71,96)" stroke-width="1" opacity="0.75" />
		</g>
	</g>
	<g>
		<polygon class="NoName" points="15,16 15,16 15,1 1,31 15,61 15,46 15,46" fill="rgb(255,255,255)" fill-opacity="1.0" stroke="rgb(50,50,50)" stroke-width="1" />
	</g>
	<g>
		<title>saqR1</title>
		<polygon class="saqR1" points="687,16 687,16 687,1 671,31 687,61 687,46 687,46" fill="rgb(211,237,253)" fill-opacity="1.0" stroke="rgb(84,94,101)" stroke-width="1" />
		<g>
			<title>PF09278</title>
			<polygon class="PF09278" points="675,27 680,18 681,18 681,44 680,44 675,34" stroke-linejoin="round" width="6" height="26" fill="rgb(152,80,196)" stroke="rgb(121,64,156)" stroke-width="1" opacity="0.75" />
		</g>
	</g>
	<g>
		<title>saqK</title>
		<polygon class="saqK" points="707,16 707,16 707,1 687,31 707,61 707,46 707,46" fill="rgb(188,250,192)" fill-opacity="1.0" stroke="rgb(75,100,76)" stroke-width="1" />
		<g>
			<title>PF00440</title>
			<rect class="PF00440" x="701" y="18" stroke-linejoin="round" width="4" height="26" fill="rgb(73,212,190)" stroke="rgb(58,169,152)" stroke-width="1" opacity="0.75" />
		</g>
	</g>
	<g>
		<title>saqJ1</title>
		<polygon class="saqJ1" points="712,16 733,16 733,1 763,31 733,61 733,46 712,46" fill="rgb(252,186,215)" fill-opacity="1.0" stroke="rgb(100,74,86)" stroke-width="1" />
		<g>
			<title>PF07690</title>
			<polygon class="PF07690" points="715,18 747,18 754,25 754,37 747,44 715,44" stroke-linejoin="round" width="39" height="26" fill="rgb(193,224,74)" stroke="rgb(154,179,59)" stroke-width="1" opacity="0.75" />
		</g>
	</g>
	<g>
		<title>saqGT5</title>
		<polygon class="saqGT5" points="775,16 783,16 783,1 813,31 783,61 783,46 775,46" fill="rgb(203,195,251)" fill-opacity="1.0" stroke="rgb(81,78,100)" stroke-width="1" />
		<g>
			<title>PF06722</title>
			<polygon class="PF06722" points="792,18 797,18 801,22 801,40 797,44 792,44" stroke-linejoin="round" width="9" height="26" fill="rgb(200,129,88)" stroke="rgb(160,103,70)" stroke-width="1" opacity="0.75" />
		</g>
		<g>
			<title>PF00201</title>
			<polygon class="PF00201" points="801,22 810,31 801,40" stroke-linejoin="round" width="10" height="26" fill="rgb(225,150,107)" stroke="rgb(180,120,85)" stroke-width="1" opacity="0.75" />
		</g>
	</g>
	<g>
		<title>saqG</title>
		<polygon class="saqG" points="813,16 818,16 818,1 848,31 818,61 818,46 813,46" fill="rgb(254,207,225)" fill-opacity="1.0" stroke="rgb(101,82,90)" stroke-width="1" />
		<g>
			<title>PF00483</title>
			<polygon class="PF00483" points="813,18 832,18 836,22 836,40 832,44 813,44" stroke-linejoin="round" width="23" height="26" fill="rgb(198,101,87)" stroke="rgb(158,80,69)" stroke-width="1" opacity="0.75" />
		</g>
	</g>
	<g>
		<title>saqH</title>
		<polygon class="saqH" points="849,16 851,16 851,1 881,31 851,61 851,46 849,46" fill="rgb(230,251,202)" fill-opacity="1.0" stroke="rgb(92,100,80)" stroke-width="1" />
		<g>
			<title>PF16363</title>
			<polygon class="PF16363" points="849,18 865,18 878,31 865,44 849,44" stroke-linejoin="round" width="30" height="26" fill="rgb(162,221,65)" stroke="rgb(129,176,51)" stroke-width="1" opacity="0.75" />
		</g>
	</g>
	<g>
		<title>saqZ3</title>
		<polygon class="saqZ3" points="884,16 886,16 886,1 916,31 886,61 886,46 884,46" fill="rgb(254,189,244)" fill-opacity="1.0" stroke="rgb(101,75,97)" stroke-width="1" />
		<g>
			<title>PF01370</title>
			<polygon class="PF01370" points="884,18 900,18 907,25 907,37 900,44 884,44" stroke-linejoin="round" width="23" height="26" fill="rgb(98,102,214)" stroke="rgb(78,81,171)" stroke-width="1" opacity="0.75" />
		</g>
	</g>
	<g>
		<title>saqQ</title>
		<polygon class="saqQ" points="916,16 929,16 929,1 959,31 929,61 929,46 916,46" fill="rgb(253,199,232)" fill-opacity="1.0" stroke="rgb(101,79,92)" stroke-width="1" />
		<g>
			<title>PF01041</title>
			<polygon class="PF01041" points="920,18 943,18 956,31 943,44 920,44" stroke-linejoin="round" width="38" height="26" fill="rgb(59,139,191)" stroke="rgb(47,111,152)" stroke-width="1" opacity="0.75" />
		</g>
	</g>
	<g>
		<title>saqGT6</title>
		<polygon class="saqGT6" points="960,16 971,16 971,1 1001,31 971,61 971,46 960,46" fill="rgb(197,254,192)" fill-opacity="1.0" stroke="rgb(78,101,76)" stroke-width="1" />
		<g>
			<title>PF06722</title>
			<polygon class="PF06722" points="980,18 985,18 989,22 989,40 985,44 980,44" stroke-linejoin="round" width="9" height="26" fill="rgb(200,129,88)" stroke="rgb(160,103,70)" stroke-width="1" opacity="0.75" />
		</g>
	</g>
	<g>
		<title>saqR</title>
		<polygon class="saqR" points="1003,16 1003,16 1003,1 1028,31 1003,61 1003,46 1003,46" fill="rgb(178,225,253)" fill-opacity="1.0" stroke="rgb(71,90,101)" stroke-width="1" />
		<g>
			<title>PF01370</title>
			<polygon class="PF01370" points="1003,18 1014,18 1019,24 1019,38 1014,44 1003,44" stroke-linejoin="round" width="16" height="26" fill="rgb(98,102,214)" stroke="rgb(78,81,171)" stroke-width="1" opacity="0.75" />
		</g>
	</g>
	<g>
		<title>saqI</title>
		<polygon class="saqI" points="38,16 46,16 46,1 76,31 46,61 46,46 38,46" fill="rgb(254,222,190)" fill-opacity="1.0" stroke="rgb(101,88,76)" stroke-width="1" />
		<g>
			<title>PF02195</title>
			<rect class="PF02195" x="43" y="18" stroke-linejoin="round" width="8" height="26" fill="rgb(55,214,209)" stroke="rgb(44,171,167)" stroke-width="1" opacity="0.75" />
		</g>
	</g>
	<g>
		<title>saqS</title>
		<polygon class="saqS" points="1029,16 1045,16 1045,1 1075,31 1045,61 1045,46 1029,46" fill="rgb(189,237,254)" fill-opacity="1.0" stroke="rgb(75,94,101)" stroke-width="1" />
		<g>
			<title>PF03559</title>
			<rect class="PF03559" x="1033" y="18" stroke-linejoin="round" width="20" height="26" fill="rgb(74,201,66)" stroke="rgb(59,160,52)" stroke-width="1" opacity="0.75" />
		</g>
		<g>
			<title>PF03559</title>
			<polygon class="PF03559" points="1054,18 1059,18 1072,31 1059,44 1054,44" stroke-linejoin="round" width="20" height="26" fill="rgb(74,201,66)" stroke="rgb(59,160,52)" stroke-width="1" opacity="0.75" />
		</g>
	</g>
	<g>
		<title>saqT</title>
		<polygon class="saqT" points="1076,16 1079,16 1079,1 1109,31 1079,61 1079,46 1076,46" fill="rgb(250,192,198)" fill-opacity="1.0" stroke="rgb(100,76,79)" stroke-width="1" />
		<g>
			<title>PF01408</title>
			<rect class="PF01408" x="1076" y="18" stroke-linejoin="round" width="11" height="26" fill="rgb(76,117,190)" stroke="rgb(60,93,152)" stroke-width="1" opacity="0.75" />
		</g>
	</g>
	<g>
		<title>saqW</title>
		<polygon class="saqW" points="1120,16 1139,16 1139,1 1169,31 1139,61 1139,46 1120,46" fill="rgb(252,247,207)" fill-opacity="1.0" stroke="rgb(100,98,82)" stroke-width="1" />
		<g>
			<title>PF01565</title>
			<rect class="PF01565" x="1122" y="18" stroke-linejoin="round" width="13" height="26" fill="rgb(226,88,136)" stroke="rgb(180,70,108)" stroke-width="1" opacity="0.75" />
		</g>
		<g>
			<title>PF08031</title>
			<polygon class="PF08031" points="1163,28 1166,31 1163,34" stroke-linejoin="round" width="5" height="26" fill="rgb(210,73,83)" stroke="rgb(168,58,66)" stroke-width="1" opacity="0.75" />
		</g>
	</g>
	<g>
		<polygon class="NoName" points="1187,16 1187,16 1187,1 1172,31 1187,61 1187,46 1187,46" fill="rgb(255,255,255)" fill-opacity="1.0" stroke="rgb(50,50,50)" stroke-width="1" />
		<g>
			<title>PF04075</title>
			<polygon class="PF04075" points="1174,31 1181,18 1184,18 1184,44 1181,44" stroke-linejoin="round" width="12" height="26" fill="rgb(184,92,208)" stroke="rgb(147,73,166)" stroke-width="1" opacity="0.75" />
		</g>
	</g>
	<g>
		<polygon class="NoName" points="1207,16 1202,16 1202,1 1172,31 1202,61 1202,46 1207,46" fill="rgb(255,255,255)" fill-opacity="1.0" stroke="rgb(50,50,50)" stroke-width="1" />
		<g>
			<title>PF04075</title>
			<polygon class="PF04075" points="1174,31 1184,21 1184,40" stroke-linejoin="round" width="12" height="26" fill="rgb(184,92,208)" stroke="rgb(147,73,166)" stroke-width="1" opacity="0.75" />
		</g>
		<g>
			<title>PF01323</title>
			<polygon class="PF01323" points="1187,18 1187,18 1206,18 1206,44 1187,44 1187,43" stroke-linejoin="round" width="19" height="26" fill="rgb(221,114,99)" stroke="rgb(176,91,79)" stroke-width="1" opacity="0.75" />
		</g>
	</g>
	<g>
		<title>saqP</title>
		<polygon class="saqP" points="82,16 82,16 82,1 112,31 82,61 82,46 82,46" fill="rgb(252,187,205)" fill-opacity="1.0" stroke="rgb(100,74,82)" stroke-width="1" />
	</g>
	<g>
		<title>saqE</title>
		<polygon class="saqE" points="121,16 140,16 140,1 170,31 140,61 140,46 121,46" fill="rgb(234,250,210)" fill-opacity="1.0" stroke="rgb(93,100,84)" stroke-width="1" />
		<g>
			<title>PF01494</title>
			<rect class="PF01494" x="121" y="18" stroke-linejoin="round" width="33" height="26" fill="rgb(182,175,59)" stroke="rgb(145,140,47)" stroke-width="1" opacity="0.75" />
		</g>
	</g>
	<g>
		<title>saqF</title>
		<polygon class="saqF" points="171,16 171,16 171,1 182,31 171,61 171,46 171,46" fill="rgb(223,191,251)" fill-opacity="1.0" stroke="rgb(89,76,100)" stroke-width="1" />
		<g>
			<title>PF04673</title>
			<polygon class="PF04673" points="171,18 174,18 179,31 174,44 171,44" stroke-linejoin="round" width="10" height="26" fill="rgb(49,187,78)" stroke="rgb(39,149,62)" stroke-width="1" opacity="0.75" />
		</g>
	</g>
	<g>
		<title>saqA</title>
		<polygon class="saqA" points="182,16 194,16 194,1 224,31 194,61 194,46 182,46" fill="rgb(211,251,243)" fill-opacity="1.0" stroke="rgb(84,100,97)" stroke-width="1" />
		<g>
			<title>PF00109</title>
			<rect class="PF00109" x="182" y="18" stroke-linejoin="round" width="25" height="26" fill="rgb(112,116,228)" stroke="rgb(89,92,182)" stroke-width="1" opacity="0.75" />
		</g>
		<g>
			<title>PF02801</title>
			<polygon class="PF02801" points="208,18 208,18 219,29 219,33 208,44 208,44" stroke-linejoin="round" width="11" height="26" fill="rgb(215,78,102)" stroke="rgb(172,62,81)" stroke-width="1" opacity="0.75" />
		</g>
	</g>
	<g>
		<title>saqB</title>
		<polygon class="saqB" points="224,16 234,16 234,1 264,31 234,61 234,46 224,46" fill="rgb(251,250,185)" fill-opacity="1.0" stroke="rgb(100,100,74)" stroke-width="1" />
		<g>
			<title>PF00109</title>
			<rect class="PF00109" x="224" y="18" stroke-linejoin="round" width="24" height="26" fill="rgb(112,116,228)" stroke="rgb(89,92,182)" stroke-width="1" opacity="0.75" />
		</g>
		<g>
			<title>PF02801</title>
			<polygon class="PF02801" points="249,19 260,30 260,32 249,43" stroke-linejoin="round" width="11" height="26" fill="rgb(215,78,102)" stroke="rgb(172,62,81)" stroke-width="1" opacity="0.75" />
		</g>
	</g>
	<g>
		<title>saqC</title>
		<polygon class="saqC" points="266,16 266,16 266,1 275,31 266,61 266,46 266,46" fill="rgb(178,250,223)" fill-opacity="1.0" stroke="rgb(71,100,89)" stroke-width="1" />
		<g>
			<title>PF00550</title>
			<polygon class="PF00550" points="266,18 268,18 272,31 268,44 266,44" stroke-linejoin="round" width="7" height="26" fill="rgb(103,191,88)" stroke="rgb(82,152,70)" stroke-width="1" opacity="0.75" />
		</g>
	</g>
	<g>
		<title>saqD</title>
		<polygon class="saqD" points="276,16 276,16 276,1 301,31 276,61 276,46 276,46" fill="rgb(236,251,212)" fill-opacity="1.0" stroke="rgb(94,100,84)" stroke-width="1" />
		<g>
			<title>PF00106</title>
			<polygon class="PF00106" points="276,18 287,18 295,27 295,35 287,44 276,44" stroke-linejoin="round" width="19" height="26" fill="rgb(182,219,73)" stroke="rgb(145,175,58)" stroke-width="1" opacity="0.75" />
		</g>
	</g>
</svg>
