<svg version="1.1" baseProfile="full" xmlns="http://www.w3.org/2000/svg" width="1260" height="62">
	<line x1="1" y1="31" x2="1259" y2="31" style="stroke:rgb(50,50,50); stroke-width:3 "/>
	<g>
		<title>etfS</title>
		<polygon class="etfS" points="306,16 306,16 306,1 330,31 306,61 306,46 306,46" fill="rgb(209,250,209)" fill-opacity="1.0" stroke="rgb(83,100,83)" stroke-width="1" />
		<g>
			<title>PF01012</title>
			<polygon class="PF01012" points="308,18 317,18 326,30 326,32 317,44 308,44" stroke-linejoin="round" width="18" height="26" fill="rgb(218,56,91)" stroke="rgb(174,44,72)" stroke-width="1" opacity="0.75" />
		</g>
	</g>
	<g>
		<title>etfL</title>
		<polygon class="etfL" points="331,16 332,16 332,1 362,31 332,61 332,46 331,46" fill="rgb(250,230,177)" fill-opacity="1.0" stroke="rgb(100,92,70)" stroke-width="1" />
		<g>
			<title>PF01012</title>
			<polygon class="PF01012" points="331,18 346,18 348,20 348,42 346,44 331,44" stroke-linejoin="round" width="17" height="26" fill="rgb(218,56,91)" stroke="rgb(174,44,72)" stroke-width="1" opacity="0.75" />
		</g>
		<g>
			<title>PF00766</title>
			<polygon class="PF00766" points="350,22 358,30 358,32 350,40" stroke-linejoin="round" width="8" height="26" fill="rgb(59,72,212)" stroke="rgb(47,57,169)" stroke-width="1" opacity="0.75" />
		</g>
	</g>
	<g>
		<title>wxcH</title>
		<polygon class="wxcH" points="364,16 364,16 364,1 375,31 364,61 364,46 364,46" fill="rgb(205,250,205)" fill-opacity="1.0" stroke="rgb(82,100,82)" stroke-width="1" />
		<g>
			<title>PF01050</title>
			<polygon class="PF01050" points="370,24 372,31 370,38" stroke-linejoin="round" width="4" height="26" fill="rgb(53,184,51)" stroke="rgb(42,147,40)" stroke-width="1" opacity="0.75" />
		</g>
	</g>
	<g>
		<title>wxcK</title>
		<polygon class="wxcK" points="378,16 384,16 384,1 414,31 384,61 384,46 378,46" fill="rgb(251,232,208)" fill-opacity="1.0" stroke="rgb(100,92,83)" stroke-width="1" />
		<g>
			<title>PF01041</title>
			<polygon class="PF01041" points="379,18 398,18 411,31 398,44 379,44" stroke-linejoin="round" width="34" height="26" fill="rgb(59,139,191)" stroke="rgb(47,111,152)" stroke-width="1" opacity="0.75" />
		</g>
	</g>
	<g>
		<title>wxcL</title>
		<polygon class="wxcL" points="414,16 416,16 416,1 446,31 416,61 416,46 414,46" fill="rgb(243,254,199)" fill-opacity="1.0" stroke="rgb(97,101,79)" stroke-width="1" />
		<g>
			<title>PF00535</title>
			<polygon class="PF00535" points="415,18 430,18 431,19 431,43 430,44 415,44" stroke-linejoin="round" width="16" height="26" fill="rgb(224,122,96)" stroke="rgb(179,97,76)" stroke-width="1" opacity="0.75" />
		</g>
	</g>
	<g>
		<title>wxcM</title>
		<polygon class="wxcM" points="446,16 447,16 447,1 477,31 447,61 447,46 446,46" fill="rgb(191,253,205)" fill-opacity="1.0" stroke="rgb(76,101,82)" stroke-width="1" />
		<g>
			<title>PF00132</title>
			<rect class="PF00132" x="447" y="18" stroke-linejoin="round" width="3" height="26" fill="rgb(89,131,202)" stroke="rgb(71,104,161)" stroke-width="1" opacity="0.75" />
		</g>
		<g>
			<title>PF00132</title>
			<rect class="PF00132" x="450" y="18" stroke-linejoin="round" width="3" height="26" fill="rgb(89,131,202)" stroke="rgb(71,104,161)" stroke-width="1" opacity="0.75" />
		</g>
		<g>
			<title>PF00132</title>
			<rect class="PF00132" x="455" y="18" stroke-linejoin="round" width="3" height="26" fill="rgb(89,131,202)" stroke="rgb(71,104,161)" stroke-width="1" opacity="0.75" />
		</g>
		<g>
			<title>PF05523</title>
			<polygon class="PF05523" points="463,20 474,31 463,42" stroke-linejoin="round" width="13" height="26" fill="rgb(91,72,180)" stroke="rgb(72,57,144)" stroke-width="1" opacity="0.75" />
		</g>
	</g>
	<g>
		<title>wxcN</title>
		<polygon class="wxcN" points="477,16 477,16 477,1 491,31 477,61 477,46 477,46" fill="rgb(186,254,238)" fill-opacity="1.0" stroke="rgb(74,101,95)" stroke-width="1" />
		<g>
			<title>PF04138</title>
			<polygon class="PF04138" points="479,18 482,18 488,31 482,44 479,44" stroke-linejoin="round" width="11" height="26" fill="rgb(72,221,86)" stroke="rgb(57,176,68)" stroke-width="1" opacity="0.75" />
		</g>
	</g>
	<g>
		<title>wxcO</title>
		<polygon class="wxcO" points="494,16 539,16 539,1 569,31 539,61 539,46 494,46" fill="rgb(254,225,178)" fill-opacity="1.0" stroke="rgb(101,90,71)" stroke-width="1" />
	</g>
	<g>
		<title>rmd</title>
		<polygon class="rmd" points="604,16 603,16 603,1 573,31 603,61 603,46 604,46" fill="rgb(227,250,208)" fill-opacity="1.0" stroke="rgb(90,100,83)" stroke-width="1" />
		<g>
			<title>PF01370</title>
			<polygon class="PF01370" points="580,26 588,18 602,18 602,44 588,44 580,35" stroke-linejoin="round" width="22" height="26" fill="rgb(98,102,214)" stroke="rgb(78,81,171)" stroke-width="1" opacity="0.75" />
		</g>
	</g>
	<g>
		<title>gmd</title>
		<polygon class="gmd" points="638,16 634,16 634,1 604,31 634,61 634,46 638,46" fill="rgb(197,187,251)" fill-opacity="1.0" stroke="rgb(78,74,100)" stroke-width="1" />
		<g>
			<title>PF16363</title>
			<polygon class="PF16363" points="606,31 619,18 637,18 637,44 619,44" stroke-linejoin="round" width="32" height="26" fill="rgb(162,221,65)" stroke="rgb(129,176,51)" stroke-width="1" opacity="0.75" />
		</g>
	</g>
	<g>
		<title>wxcX</title>
		<polygon class="wxcX" points="5,16 5,16 5,1 26,31 5,61 5,46 5,46" fill="rgb(230,253,198)" fill-opacity="1.0" stroke="rgb(92,101,79)" stroke-width="1" />
		<g>
			<title>PF14307</title>
			<rect class="PF14307" x="5" y="18" stroke-linejoin="round" width="2" height="26" fill="rgb(154,50,178)" stroke="rgb(123,40,142)" stroke-width="1" opacity="0.75" />
		</g>
		<g>
			<title>PF05045</title>
			<polygon class="PF05045" points="8,18 14,18 23,31 23,31 14,44 8,44" stroke-linejoin="round" width="15" height="26" fill="rgb(109,228,177)" stroke="rgb(87,182,141)" stroke-width="1" opacity="0.75" />
		</g>
	</g>
	<g>
		<title>wxcE</title>
		<polygon class="wxcE" points="662,16 662,16 662,1 641,31 662,61 662,46 662,46" fill="rgb(232,196,250)" fill-opacity="1.0" stroke="rgb(92,78,100)" stroke-width="1" />
	</g>
	<g>
		<title>wxcD</title>
		<polygon class="wxcD" points="720,16 692,16 692,1 662,31 692,61 692,46 720,46" fill="rgb(196,253,203)" fill-opacity="1.0" stroke="rgb(78,101,81)" stroke-width="1" />
		<g>
			<title>PF13692</title>
			<rect class="PF13692" x="686" y="18" stroke-linejoin="round" width="14" height="26" fill="rgb(85,182,142)" stroke="rgb(68,145,113)" stroke-width="1" opacity="0.75" />
		</g>
	</g>
	<g>
		<title>wxcC</title>
		<polygon class="wxcC" points="756,16 751,16 751,1 721,31 751,61 751,46 756,46" fill="rgb(197,249,251)" fill-opacity="1.0" stroke="rgb(78,99,100)" stroke-width="1" />
		<g>
			<title>PF00534</title>
			<polygon class="PF00534" points="723,31 736,18 738,18 738,44 736,44" stroke-linejoin="round" width="16" height="26" fill="rgb(228,92,150)" stroke="rgb(182,73,119)" stroke-width="1" opacity="0.75" />
		</g>
	</g>
	<g>
		<title>wxcB</title>
		<polygon class="wxcB" points="834,16 788,16 788,1 758,31 788,61 788,46 834,46" fill="rgb(250,221,207)" fill-opacity="1.0" stroke="rgb(100,88,82)" stroke-width="1" />
		<g>
			<title>PF13847</title>
			<rect class="PF13847" x="818" y="18" stroke-linejoin="round" width="10" height="26" fill="rgb(214,74,181)" stroke="rgb(171,59,144)" stroke-width="1" opacity="0.75" />
		</g>
	</g>
	<g>
		<title>wzt</title>
		<polygon class="wzt" points="878,16 866,16 866,1 836,31 866,61 866,46 878,46" fill="rgb(254,204,209)" fill-opacity="1.0" stroke="rgb(101,81,83)" stroke-width="1" />
		<g>
			<title>PF14524</title>
			<polygon class="PF14524" points="838,31 851,18 851,43" stroke-linejoin="round" width="14" height="26" fill="rgb(91,192,197)" stroke="rgb(72,153,157)" stroke-width="1" opacity="0.75" />
		</g>
		<g>
			<title>PF00005</title>
			<rect class="PF00005" x="861" y="18" stroke-linejoin="round" width="13" height="26" fill="rgb(129,201,63)" stroke="rgb(103,160,50)" stroke-width="1" opacity="0.75" />
		</g>
	</g>
	<g>
		<title>wzm</title>
		<polygon class="wzm" points="905,16 905,16 905,1 879,31 905,61 905,46 905,46" fill="rgb(234,201,254)" fill-opacity="1.0" stroke="rgb(93,80,101)" stroke-width="1" />
		<g>
			<title>PF01061</title>
			<polygon class="PF01061" points="883,29 892,18 904,18 904,44 892,44 883,32" stroke-linejoin="round" width="21" height="26" fill="rgb(139,217,106)" stroke="rgb(111,173,84)" stroke-width="1" opacity="0.75" />
		</g>
	</g>
	<g>
		<title>wxcA</title>
		<polygon class="wxcA" points="954,16 938,16 938,1 908,31 938,61 938,46 954,46" fill="rgb(252,194,191)" fill-opacity="1.0" stroke="rgb(100,77,76)" stroke-width="1" />
		<g>
			<title>PF00534</title>
			<polygon class="PF00534" points="910,31 923,18 929,18 929,44 923,44" stroke-linejoin="round" width="19" height="26" fill="rgb(228,92,150)" stroke="rgb(182,73,119)" stroke-width="1" opacity="0.75" />
		</g>
	</g>
	<g>
		<title>uptH</title>
		<polygon class="uptH" points="994,16 984,16 984,1 954,31 984,61 984,46 994,46" fill="rgb(195,217,250)" fill-opacity="1.0" stroke="rgb(78,86,100)" stroke-width="1" />
		<g>
			<title>PF01053</title>
			<polygon class="PF01053" points="956,31 969,18 991,18 991,44 969,44" stroke-linejoin="round" width="37" height="26" fill="rgb(142,222,85)" stroke="rgb(113,177,67)" stroke-width="1" opacity="0.75" />
		</g>
	</g>
	<g>
		<title>uptG</title>
		<polygon class="uptG" points="1042,16 1027,16 1027,1 997,31 1027,61 1027,46 1042,46" fill="rgb(209,250,232)" fill-opacity="1.0" stroke="rgb(83,100,92)" stroke-width="1" />
		<g>
			<title>PF00571</title>
			<polygon class="PF00571" points="1003,27 1009,21 1009,40 1003,34" stroke-linejoin="round" width="6" height="26" fill="rgb(220,56,105)" stroke="rgb(176,44,84)" stroke-width="1" opacity="0.75" />
		</g>
		<g>
			<title>PF00291</title>
			<polygon class="PF00291" points="1012,18 1012,18 1041,18 1041,44 1012,44 1012,43" stroke-linejoin="round" width="29" height="26" fill="rgb(180,55,145)" stroke="rgb(144,44,116)" stroke-width="1" opacity="0.75" />
		</g>
	</g>
	<g>
		<title>uptF</title>
		<polygon class="uptF" points="1066,16 1066,16 1066,1 1050,31 1066,61 1066,46 1066,46" fill="rgb(196,192,250)" fill-opacity="1.0" stroke="rgb(78,76,100)" stroke-width="1" />
		<g>
			<title>PF04325</title>
			<polygon class="PF04325" points="1052,31 1054,27 1054,34" stroke-linejoin="round" width="4" height="26" fill="rgb(83,221,164)" stroke="rgb(66,176,131)" stroke-width="1" opacity="0.75" />
		</g>
	</g>
	<g>
		<title>lpsJ</title>
		<polygon class="lpsJ" points="57,16 57,16 57,1 36,31 57,61 57,46 57,46" fill="rgb(252,225,185)" fill-opacity="1.0" stroke="rgb(100,90,74)" stroke-width="1" />
		<g>
			<title>PF01144</title>
			<polygon class="PF01144" points="38,31 47,18 56,18 56,44 47,44" stroke-linejoin="round" width="19" height="26" fill="rgb(106,96,228)" stroke="rgb(84,76,182)" stroke-width="1" opacity="0.75" />
		</g>
	</g>
	<g>
		<title>uptE</title>
		<polygon class="uptE" points="1098,16 1098,16 1098,1 1069,31 1098,61 1098,46 1098,46" fill="rgb(193,250,247)" fill-opacity="1.0" stroke="rgb(77,100,98)" stroke-width="1" />
	</g>
	<g>
		<title>uptD</title>
		<polygon class="uptD" points="1110,16 1110,16 1110,1 1098,31 1110,61 1110,46 1110,46" fill="rgb(213,253,242)" fill-opacity="1.0" stroke="rgb(85,101,96)" stroke-width="1" />
		<g>
			<title>PF14346</title>
			<polygon class="PF14346" points="1100,31 1105,18 1108,18 1108,44 1105,44" stroke-linejoin="round" width="9" height="26" fill="rgb(97,187,81)" stroke="rgb(77,149,64)" stroke-width="1" opacity="0.75" />
		</g>
	</g>
	<g>
		<title>uptC</title>
		<polygon class="uptC" points="1114,16 1121,16 1121,1 1151,31 1121,61 1121,46 1114,46" fill="rgb(254,208,246)" fill-opacity="1.0" stroke="rgb(101,83,98)" stroke-width="1" />
		<g>
			<title>PF00437</title>
			<polygon class="PF00437" points="1114,18 1135,18 1140,23 1140,39 1135,44 1114,44" stroke-linejoin="round" width="26" height="26" fill="rgb(201,94,126)" stroke="rgb(160,75,100)" stroke-width="1" opacity="0.75" />
		</g>
	</g>
	<g>
		<title>uptB</title>
		<polygon class="uptB" points="1192,16 1192,16 1192,1 1170,31 1192,61 1192,46 1192,46" fill="rgb(253,253,209)" fill-opacity="1.0" stroke="rgb(101,101,83)" stroke-width="1" />
		<g>
			<title>PF13410</title>
			<polygon class="PF13410" points="1172,31 1178,23 1178,38" stroke-linejoin="round" width="8" height="26" fill="rgb(228,199,74)" stroke="rgb(182,159,59)" stroke-width="1" opacity="0.75" />
		</g>
		<g>
			<title>PF13417</title>
			<rect class="PF13417" x="1183" y="18" stroke-linejoin="round" width="7" height="26" fill="rgb(220,154,91)" stroke="rgb(176,123,72)" stroke-width="1" opacity="0.75" />
		</g>
	</g>
	<g>
		<title>uptA</title>
		<polygon class="uptA" points="1226,16 1223,16 1223,1 1193,31 1223,61 1223,46 1226,46" fill="rgb(206,206,250)" fill-opacity="1.0" stroke="rgb(82,82,100)" stroke-width="1" />
		<g>
			<title>PF01557</title>
			<polygon class="PF01557" points="1195,31 1208,18 1217,18 1217,44 1208,44" stroke-linejoin="round" width="24" height="26" fill="rgb(71,203,125)" stroke="rgb(56,162,100)" stroke-width="1" opacity="0.75" />
		</g>
	</g>
	<g>
		<title>rhlE</title>
		<polygon class="rhlE" points="1239,16 1239,16 1239,1 1259,31 1239,61 1239,46 1239,46" fill="rgb(187,254,243)" fill-opacity="1.0" stroke="rgb(74,101,97)" stroke-width="1" />
		<g>
			<title>PF00270</title>
			<polygon class="PF00270" points="1241,18 1247,18 1256,31 1247,44 1241,44" stroke-linejoin="round" width="17" height="26" fill="rgb(195,100,62)" stroke="rgb(156,80,49)" stroke-width="1" opacity="0.75" />
		</g>
	</g>
	<g>
		<title>lpsI</title>
		<polygon class="lpsI" points="81,16 81,16 81,1 57,31 81,61 81,46 81,46" fill="rgb(193,224,253)" fill-opacity="1.0" stroke="rgb(77,89,101)" stroke-width="1" />
		<g>
			<title>PF01144</title>
			<polygon class="PF01144" points="59,31 69,18 79,18 79,44 69,44" stroke-linejoin="round" width="21" height="26" fill="rgb(106,96,228)" stroke="rgb(84,76,182)" stroke-width="1" opacity="0.75" />
		</g>
	</g>
	<g>
		<title>xanA</title>
		<polygon class="xanA" points="86,16 100,16 100,1 130,31 100,61 100,46 86,46" fill="rgb(199,236,252)" fill-opacity="1.0" stroke="rgb(79,94,100)" stroke-width="1" />
		<g>
			<title>PF02878</title>
			<rect class="PF02878" x="86" y="18" stroke-linejoin="round" width="13" height="26" fill="rgb(217,133,102)" stroke="rgb(173,106,81)" stroke-width="1" opacity="0.75" />
		</g>
		<g>
			<title>PF02879</title>
			<rect class="PF02879" x="101" y="18" stroke-linejoin="round" width="10" height="26" fill="rgb(192,221,60)" stroke="rgb(153,176,48)" stroke-width="1" opacity="0.75" />
		</g>
		<g>
			<title>PF02880</title>
			<polygon class="PF02880" points="111,18 114,18 122,26 122,36 114,44 111,44" stroke-linejoin="round" width="11" height="26" fill="rgb(67,204,90)" stroke="rgb(53,163,72)" stroke-width="1" opacity="0.75" />
		</g>
		<g>
			<title>PF00408</title>
			<polygon class="PF00408" points="123,27 127,31 123,35" stroke-linejoin="round" width="7" height="26" fill="rgb(74,205,143)" stroke="rgb(59,164,114)" stroke-width="1" opacity="0.75" />
		</g>
	</g>
	<g>
		<title>xanB</title>
		<polygon class="xanB" points="132,16 148,16 148,1 178,31 148,61 148,46 132,46" fill="rgb(209,253,212)" fill-opacity="1.0" stroke="rgb(83,101,84)" stroke-width="1" />
		<g>
			<title>PF00483</title>
			<rect class="PF00483" x="132" y="18" stroke-linejoin="round" width="28" height="26" fill="rgb(198,101,87)" stroke="rgb(158,80,69)" stroke-width="1" opacity="0.75" />
		</g>
		<g>
			<title>PF01050</title>
			<polygon class="PF01050" points="163,19 175,31 163,43" stroke-linejoin="round" width="15" height="26" fill="rgb(53,184,51)" stroke="rgb(42,147,40)" stroke-width="1" opacity="0.75" />
		</g>
	</g>
	<g>
		<title>rmlD</title>
		<polygon class="rmlD" points="213,16 213,16 213,1 183,31 213,61 213,46 213,46" fill="rgb(251,250,178)" fill-opacity="1.0" stroke="rgb(100,100,71)" stroke-width="1" />
		<g>
			<title>PF04321</title>
			<polygon class="PF04321" points="185,31 198,18 212,18 212,44 198,44" stroke-linejoin="round" width="29" height="26" fill="rgb(196,203,60)" stroke="rgb(156,162,47)" stroke-width="1" opacity="0.75" />
		</g>
	</g>
	<g>
		<title>rmlC</title>
		<polygon class="rmlC" points="231,16 231,16 231,1 213,31 231,61 231,46 231,46" fill="rgb(202,200,253)" fill-opacity="1.0" stroke="rgb(80,80,101)" stroke-width="1" />
		<g>
			<title>PF00908</title>
			<polygon class="PF00908" points="215,31 223,18 230,18 230,44 223,44" stroke-linejoin="round" width="16" height="26" fill="rgb(184,89,121)" stroke="rgb(147,71,96)" stroke-width="1" opacity="0.75" />
		</g>
	</g>
	<g>
		<title>rmlA</title>
		<polygon class="rmlA" points="261,16 261,16 261,1 232,31 261,61 261,46 261,46" fill="rgb(192,178,253)" fill-opacity="1.0" stroke="rgb(76,71,101)" stroke-width="1" />
		<g>
			<title>PF00483</title>
			<polygon class="PF00483" points="237,28 247,18 260,18 260,44 247,44 237,33" stroke-linejoin="round" width="23" height="26" fill="rgb(198,101,87)" stroke="rgb(158,80,69)" stroke-width="1" opacity="0.75" />
		</g>
	</g>
	<g>
		<title>rmlB</title>
		<polygon class="rmlB" points="298,16 293,16 293,1 263,31 293,61 293,46 298,46" fill="rgb(178,254,197)" fill-opacity="1.0" stroke="rgb(71,101,78)" stroke-width="1" />
		<g>
			<title>PF16363</title>
			<polygon class="PF16363" points="265,31 278,18 296,18 296,44 278,44" stroke-linejoin="round" width="31" height="26" fill="rgb(162,221,65)" stroke="rgb(129,176,51)" stroke-width="1" opacity="0.75" />
		</g>
	</g>
</svg>
