<svg version="1.1" baseProfile="full" xmlns="http://www.w3.org/2000/svg" width="191" height="62">
	<line x1="1" y1="31" x2="190" y2="31" style="stroke:rgb(50,50,50); stroke-width:3 "/>
	<g>
		<title>prnA</title>
		<polygon class="prnA" points="5,16 28,16 28,1 58,31 28,61 28,46 5,46" fill="rgb(202,253,246)" fill-opacity="1.0" stroke="rgb(80,101,98)" stroke-width="1" />
		<g>
			<title>PF04820</title>
			<polygon class="PF04820" points="5,18 42,18 52,28 52,34 42,44 5,44" stroke-linejoin="round" width="47" height="26" fill="rgb(179,74,194)" stroke="rgb(143,59,155)" stroke-width="1" opacity="0.75" />
		</g>
	</g>
	<g>
		<title>prnB</title>
		<polygon class="prnB" points="59,16 65,16 65,1 95,31 65,61 65,46 59,46" fill="rgb(238,253,188)" fill-opacity="1.0" stroke="rgb(95,101,75)" stroke-width="1" />
		<g>
			<title>PF08933</title>
			<polygon class="PF08933" points="60,18 79,18 92,31 79,44 60,44" stroke-linejoin="round" width="34" height="26" fill="rgb(86,178,181)" stroke="rgb(68,142,144)" stroke-width="1" opacity="0.75" />
		</g>
	</g>
	<g>
		<title>prnC</title>
		<polygon class="prnC" points="96,16 122,16 122,1 152,31 122,61 122,46 96,46" fill="rgb(213,254,230)" fill-opacity="1.0" stroke="rgb(85,101,92)" stroke-width="1" />
		<g>
			<title>PF04820</title>
			<rect class="PF04820" x="97" y="18" stroke-linejoin="round" width="10" height="26" fill="rgb(179,74,194)" stroke="rgb(143,59,155)" stroke-width="1" opacity="0.75" />
		</g>
		<g>
			<title>PF04820</title>
			<polygon class="PF04820" points="108,18 136,18 139,21 139,41 136,44 108,44" stroke-linejoin="round" width="31" height="26" fill="rgb(179,74,194)" stroke="rgb(143,59,155)" stroke-width="1" opacity="0.75" />
		</g>
	</g>
	<g>
		<title>prnD</title>
		<polygon class="prnD" points="154,16 160,16 160,1 190,31 160,61 160,46 154,46" fill="rgb(184,176,250)" fill-opacity="1.0" stroke="rgb(73,70,100)" stroke-width="1" />
		<g>
			<title>PF00355</title>
			<rect class="PF00355" x="156" y="18" stroke-linejoin="round" width="9" height="26" fill="rgb(186,77,145)" stroke="rgb(148,61,115)" stroke-width="1" opacity="0.75" />
		</g>
	</g>
</svg>
