<svg version="1.1" baseProfile="full" xmlns="http://www.w3.org/2000/svg" width="561" height="62">
	<line x1="1" y1="31" x2="560" y2="31" style="stroke:rgb(50,50,50); stroke-width:3 "/>
	<g>
		<title>wcfQ</title>
		<polygon class="wcfQ" points="347,16 347,16 347,1 373,31 347,61 347,46 347,46" fill="rgb(209,251,218)" fill-opacity="1.0" stroke="rgb(83,100,87)" stroke-width="1" />
		<g>
			<title>PF00535</title>
			<polygon class="PF00535" points="347,18 359,18 363,23 363,39 359,44 347,44" stroke-linejoin="round" width="16" height="26" fill="rgb(224,122,96)" stroke="rgb(179,97,76)" stroke-width="1" opacity="0.75" />
		</g>
	</g>
	<g>
		<title>wcfR</title>
		<polygon class="wcfR" points="375,16 385,16 385,1 415,31 385,61 385,46 375,46" fill="rgb(253,213,246)" fill-opacity="1.0" stroke="rgb(101,85,98)" stroke-width="1" />
		<g>
			<title>PF01041</title>
			<rect class="PF01041" x="375" y="18" stroke-linejoin="round" width="14" height="26" fill="rgb(59,139,191)" stroke="rgb(47,111,152)" stroke-width="1" opacity="0.75" />
		</g>
		<g>
			<title>PF01041</title>
			<polygon class="PF01041" points="390,18 399,18 412,31 399,44 390,44" stroke-linejoin="round" width="23" height="26" fill="rgb(59,139,191)" stroke="rgb(47,111,152)" stroke-width="1" opacity="0.75" />
		</g>
	</g>
	<g>
		<title>wcfS</title>
		<polygon class="wcfS" points="417,16 417,16 417,1 436,31 417,61 417,46 417,46" fill="rgb(254,209,249)" fill-opacity="1.0" stroke="rgb(101,83,99)" stroke-width="1" />
		<g>
			<title>PF02397</title>
			<polygon class="PF02397" points="417,18 425,18 433,31 425,44 417,44" stroke-linejoin="round" width="19" height="26" fill="rgb(57,165,209)" stroke="rgb(45,131,167)" stroke-width="1" opacity="0.75" />
		</g>
	</g>
	<g>
		<title>pdiA</title>
		<polygon class="pdiA" points="449,16 449,16 449,1 468,31 449,61 449,46 449,46" fill="rgb(207,249,232)" fill-opacity="1.0" stroke="rgb(82,99,92)" stroke-width="1" />
		<g>
			<title>PF08534</title>
			<polygon class="PF08534" points="454,18 457,18 465,31 457,44 454,44" stroke-linejoin="round" width="14" height="26" fill="rgb(145,195,92)" stroke="rgb(116,156,73)" stroke-width="1" opacity="0.75" />
		</g>
	</g>
	<g>
		<title>trnA</title>
		<polygon class="trnA" points="471,16 503,16 503,1 533,31 503,61 503,46 471,46" fill="rgb(204,250,252)" fill-opacity="1.0" stroke="rgb(81,100,100)" stroke-width="1" />
		<g>
			<title>PF03600</title>
			<polygon class="PF03600" points="472,18 517,18 527,28 527,34 517,44 472,44" stroke-linejoin="round" width="55" height="26" fill="rgb(75,203,220)" stroke="rgb(60,162,176)" stroke-width="1" opacity="0.75" />
		</g>
	</g>
	<g>
		<title>mtfA</title>
		<polygon class="mtfA" points="559,16 559,16 559,1 534,31 559,61 559,46 559,46" fill="rgb(253,199,208)" fill-opacity="1.0" stroke="rgb(101,79,83)" stroke-width="1" />
		<g>
			<title>PF08241</title>
			<polygon class="PF08241" points="542,24 547,18 551,18 551,44 547,44 542,37" stroke-linejoin="round" width="9" height="26" fill="rgb(106,219,159)" stroke="rgb(84,175,127)" stroke-width="1" opacity="0.75" />
		</g>
	</g>
	<g>
		<polygon class="NoName" points="4,16 7,16 7,1 37,31 7,61 7,46 4,46" fill="rgb(255,255,255)" fill-opacity="1.0" stroke="rgb(50,50,50)" stroke-width="1" />
	</g>
	<g>
		<title>upaY</title>
		<polygon class="upaY" points="81,16 81,16 81,1 98,31 81,61 81,46 81,46" fill="rgb(204,252,216)" fill-opacity="1.0" stroke="rgb(81,100,86)" stroke-width="1" />
		<g>
			<title>PF02357</title>
			<polygon class="PF02357" points="81,18 88,18 90,21 90,41 88,44 81,44" stroke-linejoin="round" width="9" height="26" fill="rgb(166,222,79)" stroke="rgb(132,177,63)" stroke-width="1" opacity="0.75" />
		</g>
	</g>
	<g>
		<title>upaZ</title>
		<polygon class="upaZ" points="99,16 99,16 99,1 114,31 99,61 99,46 99,46" fill="rgb(245,252,214)" fill-opacity="1.0" stroke="rgb(98,100,85)" stroke-width="1" />
		<g>
			<title>PF06603</title>
			<polygon class="PF06603" points="99,18 105,18 109,26 109,36 105,44 99,44" stroke-linejoin="round" width="10" height="26" fill="rgb(214,82,223)" stroke="rgb(171,65,178)" stroke-width="1" opacity="0.75" />
		</g>
	</g>
	<g>
		<title>wzx</title>
		<polygon class="wzx" points="117,16 135,16 135,1 165,31 135,61 135,46 117,46" fill="rgb(235,180,250)" fill-opacity="1.0" stroke="rgb(93,72,100)" stroke-width="1" />
		<g>
			<title>PF01943</title>
			<rect class="PF01943" x="117" y="18" stroke-linejoin="round" width="27" height="26" fill="rgb(71,213,101)" stroke="rgb(56,170,80)" stroke-width="1" opacity="0.75" />
		</g>
		<g>
			<title>PF14667</title>
			<polygon class="PF14667" points="149,18 149,18 162,31 162,31 149,44 149,44" stroke-linejoin="round" width="13" height="26" fill="rgb(222,92,150)" stroke="rgb(177,73,120)" stroke-width="1" opacity="0.75" />
		</g>
	</g>
	<g>
		<title>wcfM</title>
		<polygon class="wcfM" points="165,16 171,16 171,1 201,31 171,61 171,46 165,46" fill="rgb(211,254,207)" fill-opacity="1.0" stroke="rgb(84,101,82)" stroke-width="1" />
		<g>
			<title>PF13450</title>
			<rect class="PF13450" x="165" y="18" stroke-linejoin="round" width="6" height="26" fill="rgb(91,180,227)" stroke="rgb(72,144,181)" stroke-width="1" opacity="0.75" />
		</g>
		<g>
			<title>PF03275</title>
			<polygon class="PF03275" points="179,18 185,18 198,31 185,44 179,44" stroke-linejoin="round" width="20" height="26" fill="rgb(169,187,61)" stroke="rgb(135,149,48)" stroke-width="1" opacity="0.75" />
		</g>
	</g>
	<g>
		<title>wcfN</title>
		<polygon class="wcfN" points="202,16 202,16 202,1 231,31 202,61 202,46 202,46" fill="rgb(200,228,250)" fill-opacity="1.0" stroke="rgb(80,91,100)" stroke-width="1" />
		<g>
			<title>PF00535</title>
			<polygon class="PF00535" points="202,18 215,18 218,21 218,41 215,44 202,44" stroke-linejoin="round" width="16" height="26" fill="rgb(224,122,96)" stroke="rgb(179,97,76)" stroke-width="1" opacity="0.75" />
		</g>
	</g>
	<g>
		<title>wzy</title>
		<polygon class="wzy" points="231,16 244,16 244,1 274,31 244,61 244,46 231,46" fill="rgb(252,220,203)" fill-opacity="1.0" stroke="rgb(100,88,81)" stroke-width="1" />
	</g>
	<g>
		<title>wcfO</title>
		<polygon class="wcfO" points="275,16 279,16 279,1 309,31 279,61 279,46 275,46" fill="rgb(182,228,250)" fill-opacity="1.0" stroke="rgb(72,91,100)" stroke-width="1" />
		<g>
			<title>PF04230</title>
			<polygon class="PF04230" points="276,18 293,18 302,27 302,35 293,44 276,44" stroke-linejoin="round" width="26" height="26" fill="rgb(211,93,213)" stroke="rgb(168,74,170)" stroke-width="1" opacity="0.75" />
		</g>
	</g>
	<g>
		<title>wcfP</title>
		<polygon class="wcfP" points="310,16 317,16 317,1 347,31 317,61 317,46 310,46" fill="rgb(254,206,247)" fill-opacity="1.0" stroke="rgb(101,82,98)" stroke-width="1" />
		<g>
			<title>PF13692</title>
			<polygon class="PF13692" points="330,18 331,18 343,30 343,32 331,44 330,44" stroke-linejoin="round" width="13" height="26" fill="rgb(85,182,142)" stroke="rgb(68,145,113)" stroke-width="1" opacity="0.75" />
		</g>
	</g>
</svg>
