<svg version="1.1" baseProfile="full" xmlns="http://www.w3.org/2000/svg" width="1257" height="62">
	<line x1="1" y1="31" x2="1256" y2="31" style="stroke:rgb(50,50,50); stroke-width:3 "/>
	<g>
		<polygon class="NoName" points="1202,16 1226,16 1226,1 1256,31 1226,61 1226,46 1202,46" fill="rgb(255,255,255)" fill-opacity="1.0" stroke="rgb(50,50,50)" stroke-width="1" />
		<g>
			<title>PF17046</title>
			<rect class="PF17046" x="1202" y="18" stroke-linejoin="round" width="2" height="26" fill="rgb(66,107,224)" stroke="rgb(52,85,179)" stroke-width="1" opacity="0.75" />
		</g>
	</g>
	<g>
		<polygon class="NoName" points="9,16 67,16 67,1 97,31 67,61 67,46 9,46" fill="rgb(255,255,255)" fill-opacity="1.0" stroke="rgb(50,50,50)" stroke-width="1" />
	</g>
	<g>
		<polygon class="NoName" points="156,16 154,16 154,1 124,31 154,61 154,46 156,46" fill="rgb(255,255,255)" fill-opacity="1.0" stroke="rgb(50,50,50)" stroke-width="1" />
		<g>
			<title>PF12146</title>
			<polygon class="PF12146" points="128,29 139,18 152,18 152,44 139,44 128,32" stroke-linejoin="round" width="24" height="26" fill="rgb(140,98,205)" stroke="rgb(112,78,164)" stroke-width="1" opacity="0.75" />
		</g>
	</g>
	<g>
		<polygon class="NoName" points="185,16 212,16 212,1 242,31 212,61 212,46 185,46" fill="rgb(255,255,255)" fill-opacity="1.0" stroke="rgb(50,50,50)" stroke-width="1" />
		<g>
			<title>PF00067</title>
			<polygon class="PF00067" points="189,18 226,18 233,25 233,37 226,44 189,44" stroke-linejoin="round" width="44" height="26" fill="rgb(85,216,107)" stroke="rgb(68,172,85)" stroke-width="1" opacity="0.75" />
		</g>
	</g>
	<g>
		<polygon class="NoName" points="262,16 286,16 286,1 316,31 286,61 286,46 262,46" fill="rgb(255,255,255)" fill-opacity="1.0" stroke="rgb(50,50,50)" stroke-width="1" />
		<g>
			<title>PF00067</title>
			<polygon class="PF00067" points="265,18 300,18 309,27 309,35 300,44 265,44" stroke-linejoin="round" width="44" height="26" fill="rgb(85,216,107)" stroke="rgb(68,172,85)" stroke-width="1" opacity="0.75" />
		</g>
	</g>
	<g>
		<polygon class="NoName" points="351,16 377,16 377,1 407,31 377,61 377,46 351,46" fill="rgb(255,255,255)" fill-opacity="1.0" stroke="rgb(50,50,50)" stroke-width="1" />
		<g>
			<title>PF00067</title>
			<polygon class="PF00067" points="355,18 391,18 398,25 398,37 391,44 355,44" stroke-linejoin="round" width="43" height="26" fill="rgb(85,216,107)" stroke="rgb(68,172,85)" stroke-width="1" opacity="0.75" />
		</g>
	</g>
	<g>
		<polygon class="NoName" points="483,16 463,16 463,1 433,31 463,61 463,46 483,46" fill="rgb(255,255,255)" fill-opacity="1.0" stroke="rgb(50,50,50)" stroke-width="1" />
		<g>
			<title>PF00067</title>
			<polygon class="PF00067" points="435,31 448,18 479,18 479,44 448,44" stroke-linejoin="round" width="44" height="26" fill="rgb(85,216,107)" stroke="rgb(68,172,85)" stroke-width="1" opacity="0.75" />
		</g>
	</g>
	<g>
		<polygon class="NoName" points="540,16 753,16 753,1 783,31 753,61 753,46 540,46" fill="rgb(255,255,255)" fill-opacity="1.0" stroke="rgb(50,50,50)" stroke-width="1" />
		<g>
			<title>PF00109</title>
			<rect class="PF00109" x="541" y="18" stroke-linejoin="round" width="25" height="26" fill="rgb(112,116,228)" stroke="rgb(89,92,182)" stroke-width="1" opacity="0.75" />
		</g>
		<g>
			<title>PF02801</title>
			<rect class="PF02801" x="567" y="18" stroke-linejoin="round" width="11" height="26" fill="rgb(215,78,102)" stroke="rgb(172,62,81)" stroke-width="1" opacity="0.75" />
		</g>
		<g>
			<title>PF16197</title>
			<rect class="PF16197" x="580" y="18" stroke-linejoin="round" width="13" height="26" fill="rgb(68,179,89)" stroke="rgb(54,143,71)" stroke-width="1" opacity="0.75" />
		</g>
		<g>
			<title>PF00698</title>
			<rect class="PF00698" x="595" y="18" stroke-linejoin="round" width="33" height="26" fill="rgb(59,176,209)" stroke="rgb(47,140,167)" stroke-width="1" opacity="0.75" />
		</g>
		<g>
			<title>PF14765</title>
			<rect class="PF14765" x="634" y="18" stroke-linejoin="round" width="30" height="26" fill="rgb(173,56,182)" stroke="rgb(138,44,145)" stroke-width="1" opacity="0.75" />
		</g>
		<g>
			<title>PF08240</title>
			<rect class="PF08240" x="708" y="18" stroke-linejoin="round" width="7" height="26" fill="rgb(211,65,138)" stroke="rgb(168,51,110)" stroke-width="1" opacity="0.75" />
		</g>
		<g>
			<title>PF13602</title>
			<rect class="PF13602" x="724" y="18" stroke-linejoin="round" width="13" height="26" fill="rgb(101,131,226)" stroke="rgb(80,104,180)" stroke-width="1" opacity="0.75" />
		</g>
		<g>
			<title>PF08659</title>
			<rect class="PF08659" x="740" y="18" stroke-linejoin="round" width="17" height="26" fill="rgb(66,209,188)" stroke="rgb(52,167,150)" stroke-width="1" opacity="0.75" />
		</g>
	</g>
	<g>
		<polygon class="NoName" points="840,16 837,16 837,1 807,31 837,61 837,46 840,46" fill="rgb(255,255,255)" fill-opacity="1.0" stroke="rgb(50,50,50)" stroke-width="1" />
	</g>
	<g>
		<polygon class="NoName" points="1151,16 1020,16 1020,1 990,31 1020,61 1020,46 1151,46" fill="rgb(255,255,255)" fill-opacity="1.0" stroke="rgb(50,50,50)" stroke-width="1" />
		<g>
			<title>PF00400</title>
			<polygon class="PF00400" points="1003,20 1005,18 1006,18 1006,44 1005,44 1003,41" stroke-linejoin="round" width="3" height="26" fill="rgb(190,108,62)" stroke="rgb(152,86,49)" stroke-width="1" opacity="0.75" />
		</g>
		<g>
			<title>PF00400</title>
			<rect class="PF00400" x="1015" y="18" stroke-linejoin="round" width="4" height="26" fill="rgb(190,108,62)" stroke="rgb(152,86,49)" stroke-width="1" opacity="0.75" />
		</g>
		<g>
			<title>PF00400</title>
			<rect class="PF00400" x="1020" y="18" stroke-linejoin="round" width="4" height="26" fill="rgb(190,108,62)" stroke="rgb(152,86,49)" stroke-width="1" opacity="0.75" />
		</g>
		<g>
			<title>PF00400</title>
			<rect class="PF00400" x="1024" y="18" stroke-linejoin="round" width="3" height="26" fill="rgb(190,108,62)" stroke="rgb(152,86,49)" stroke-width="1" opacity="0.75" />
		</g>
		<g>
			<title>PF00400</title>
			<rect class="PF00400" x="1029" y="18" stroke-linejoin="round" width="3" height="26" fill="rgb(190,108,62)" stroke="rgb(152,86,49)" stroke-width="1" opacity="0.75" />
		</g>
		<g>
			<title>PF00400</title>
			<rect class="PF00400" x="1033" y="18" stroke-linejoin="round" width="3" height="26" fill="rgb(190,108,62)" stroke="rgb(152,86,49)" stroke-width="1" opacity="0.75" />
		</g>
		<g>
			<title>PF00400</title>
			<rect class="PF00400" x="1037" y="18" stroke-linejoin="round" width="3" height="26" fill="rgb(190,108,62)" stroke="rgb(152,86,49)" stroke-width="1" opacity="0.75" />
		</g>
		<g>
			<title>PF00400</title>
			<rect class="PF00400" x="1045" y="18" stroke-linejoin="round" width="3" height="26" fill="rgb(190,108,62)" stroke="rgb(152,86,49)" stroke-width="1" opacity="0.75" />
		</g>
		<g>
			<title>PF00400</title>
			<rect class="PF00400" x="1050" y="18" stroke-linejoin="round" width="3" height="26" fill="rgb(190,108,62)" stroke="rgb(152,86,49)" stroke-width="1" opacity="0.75" />
		</g>
		<g>
			<title>PF00400</title>
			<rect class="PF00400" x="1054" y="18" stroke-linejoin="round" width="3" height="26" fill="rgb(190,108,62)" stroke="rgb(152,86,49)" stroke-width="1" opacity="0.75" />
		</g>
	</g>
</svg>
