<svg version="1.1" baseProfile="full" xmlns="http://www.w3.org/2000/svg" width="626" height="62">
	<line x1="1" y1="31" x2="625" y2="31" style="stroke:rgb(50,50,50); stroke-width:3 "/>
	<g>
		<title>echA</title>
		<polygon class="echA" points="341,16 407,16 407,1 437,31 407,61 407,46 341,46" fill="rgb(200,229,250)" fill-opacity="1.0" stroke="rgb(80,91,100)" stroke-width="1" />
		<g>
			<title>PF00501</title>
			<rect class="PF00501" x="345" y="18" stroke-linejoin="round" width="42" height="26" fill="rgb(60,217,223)" stroke="rgb(48,173,178)" stroke-width="1" opacity="0.75" />
		</g>
		<g>
			<title>PF00550</title>
			<rect class="PF00550" x="401" y="18" stroke-linejoin="round" width="6" height="26" fill="rgb(103,191,88)" stroke="rgb(82,152,70)" stroke-width="1" opacity="0.75" />
		</g>
		<g>
			<title>PF00975</title>
			<polygon class="PF00975" points="410,18 421,18 434,31 421,44 410,44" stroke-linejoin="round" width="25" height="26" fill="rgb(207,80,138)" stroke="rgb(165,63,110)" stroke-width="1" opacity="0.75" />
		</g>
	</g>
	<g>
		<title>echB</title>
		<polygon class="echB" points="441,16 441,16 441,1 471,31 441,61 441,46 441,46" fill="rgb(191,204,253)" fill-opacity="1.0" stroke="rgb(76,81,101)" stroke-width="1" />
		<g>
			<title>PF01370</title>
			<polygon class="PF01370" points="441,18 455,18 464,27 464,35 455,44 441,44" stroke-linejoin="round" width="23" height="26" fill="rgb(98,102,214)" stroke="rgb(78,81,171)" stroke-width="1" opacity="0.75" />
		</g>
	</g>
	<g>
		<title>echC</title>
		<polygon class="echC" points="473,16 473,16 473,1 486,31 473,61 473,46 473,46" fill="rgb(250,184,195)" fill-opacity="1.0" stroke="rgb(100,73,78)" stroke-width="1" />
		<g>
			<title>PF12680</title>
			<polygon class="PF12680" points="474,18 477,18 483,31 477,44 474,44" stroke-linejoin="round" width="10" height="26" fill="rgb(184,69,155)" stroke="rgb(147,55,124)" stroke-width="1" opacity="0.75" />
		</g>
	</g>
	<g>
		<polygon class="NoName" points="509,16 509,16 509,1 489,31 509,61 509,46 509,46" fill="rgb(255,255,255)" fill-opacity="1.0" stroke="rgb(50,50,50)" stroke-width="1" />
		<g>
			<title>PF00881</title>
			<polygon class="PF00881" points="491,31 500,18 507,18 507,44 500,44" stroke-linejoin="round" width="16" height="26" fill="rgb(79,118,187)" stroke="rgb(63,94,149)" stroke-width="1" opacity="0.75" />
		</g>
	</g>
	<g>
		<polygon class="NoName" points="514,16 514,16 514,1 536,31 514,61 514,46 514,46" fill="rgb(255,255,255)" fill-opacity="1.0" stroke="rgb(50,50,50)" stroke-width="1" />
		<g>
			<title>PF00440</title>
			<rect class="PF00440" x="516" y="18" stroke-linejoin="round" width="4" height="26" fill="rgb(73,212,190)" stroke="rgb(58,169,152)" stroke-width="1" opacity="0.75" />
		</g>
		<g>
			<title>PF16859</title>
			<polygon class="PF16859" points="524,19 533,31 524,43" stroke-linejoin="round" width="11" height="26" fill="rgb(219,77,198)" stroke="rgb(175,61,158)" stroke-width="1" opacity="0.75" />
		</g>
	</g>
	<g>
		<polygon class="NoName" points="538,16 538,16 538,1 565,31 538,61 538,46 538,46" fill="rgb(255,255,255)" fill-opacity="1.0" stroke="rgb(50,50,50)" stroke-width="1" />
		<g>
			<title>PF00486</title>
			<rect class="PF00486" x="539" y="18" stroke-linejoin="round" width="9" height="26" fill="rgb(204,153,57)" stroke="rgb(163,122,45)" stroke-width="1" opacity="0.75" />
		</g>
		<g>
			<title>PF03704</title>
			<polygon class="PF03704" points="548,18 550,18 562,31 562,31 550,44 548,44" stroke-linejoin="round" width="14" height="26" fill="rgb(217,89,196)" stroke="rgb(173,71,156)" stroke-width="1" opacity="0.75" />
		</g>
	</g>
	<g>
		<polygon class="NoName" points="579,16 579,16 579,1 603,31 579,61 579,46 579,46" fill="rgb(255,255,255)" fill-opacity="1.0" stroke="rgb(50,50,50)" stroke-width="1" />
		<g>
			<title>PF13561</title>
			<polygon class="PF13561" points="579,18 590,18 600,31 590,44 579,44" stroke-linejoin="round" width="23" height="26" fill="rgb(73,205,127)" stroke="rgb(58,164,101)" stroke-width="1" opacity="0.75" />
		</g>
	</g>
	<g>
		<polygon class="NoName" points="606,16 606,16 606,1 618,31 606,61 606,46 606,46" fill="rgb(255,255,255)" fill-opacity="1.0" stroke="rgb(50,50,50)" stroke-width="1" />
		<g>
			<title>PF13411</title>
			<polygon class="PF13411" points="606,18 610,18 612,22 612,40 610,44 606,44" stroke-linejoin="round" width="6" height="26" fill="rgb(100,202,107)" stroke="rgb(80,161,85)" stroke-width="1" opacity="0.75" />
		</g>
	</g>
	<g>
		<title>echD</title>
		<polygon class="echD" points="7,16 7,16 7,1 32,31 7,61 7,46 7,46" fill="rgb(209,252,194)" fill-opacity="1.0" stroke="rgb(83,100,77)" stroke-width="1" />
		<g>
			<title>PF13649</title>
			<polygon class="PF13649" points="11,18 18,18 20,20 20,42 18,44 11,44" stroke-linejoin="round" width="9" height="26" fill="rgb(227,135,74)" stroke="rgb(181,108,59)" stroke-width="1" opacity="0.75" />
		</g>
	</g>
	<g>
		<polygon class="NoName" points="66,16 66,16 66,1 41,31 66,61 66,46 66,46" fill="rgb(255,255,255)" fill-opacity="1.0" stroke="rgb(50,50,50)" stroke-width="1" />
		<g>
			<title>PF00005</title>
			<polygon class="PF00005" points="48,25 54,18 63,18 63,44 54,44 48,36" stroke-linejoin="round" width="15" height="26" fill="rgb(129,201,63)" stroke="rgb(103,160,50)" stroke-width="1" opacity="0.75" />
		</g>
	</g>
	<g>
		<polygon class="NoName" points="97,16 96,16 96,1 66,31 96,61 96,46 97,46" fill="rgb(255,255,255)" fill-opacity="1.0" stroke="rgb(50,50,50)" stroke-width="1" />
		<g>
			<title>PF00528</title>
			<polygon class="PF00528" points="69,30 81,18 88,18 88,44 81,44 69,31" stroke-linejoin="round" width="19" height="26" fill="rgb(77,208,225)" stroke="rgb(61,166,180)" stroke-width="1" opacity="0.75" />
		</g>
	</g>
	<g>
		<polygon class="NoName" points="130,16 129,16 129,1 99,31 129,61 129,46 130,46" fill="rgb(255,255,255)" fill-opacity="1.0" stroke="rgb(50,50,50)" stroke-width="1" />
		<g>
			<title>PF00497</title>
			<polygon class="PF00497" points="101,31 114,18 123,18 123,44 114,44" stroke-linejoin="round" width="23" height="26" fill="rgb(186,76,141)" stroke="rgb(148,60,112)" stroke-width="1" opacity="0.75" />
		</g>
	</g>
	<g>
		<polygon class="NoName" points="148,16 159,16 159,1 189,31 159,61 159,46 148,46" fill="rgb(255,255,255)" fill-opacity="1.0" stroke="rgb(50,50,50)" stroke-width="1" />
		<g>
			<title>PF00390</title>
			<rect class="PF00390" x="151" y="18" stroke-linejoin="round" width="13" height="26" fill="rgb(127,46,186)" stroke="rgb(101,36,148)" stroke-width="1" opacity="0.75" />
		</g>
		<g>
			<title>PF03949</title>
			<polygon class="PF03949" points="166,18 173,18 186,31 173,44 166,44" stroke-linejoin="round" width="22" height="26" fill="rgb(222,99,188)" stroke="rgb(177,79,150)" stroke-width="1" opacity="0.75" />
		</g>
	</g>
	<g>
		<polygon class="NoName" points="189,16 195,16 195,1 225,31 195,61 195,46 189,46" fill="rgb(255,255,255)" fill-opacity="1.0" stroke="rgb(50,50,50)" stroke-width="1" />
		<g>
			<title>PF00107</title>
			<polygon class="PF00107" points="209,18 209,18 220,29 220,33 209,44 209,44" stroke-linejoin="round" width="11" height="26" fill="rgb(81,108,215)" stroke="rgb(64,86,172)" stroke-width="1" opacity="0.75" />
		</g>
	</g>
	<g>
		<polygon class="NoName" points="256,16 256,16 256,1 231,31 256,61 256,46 256,46" fill="rgb(255,255,255)" fill-opacity="1.0" stroke="rgb(50,50,50)" stroke-width="1" />
		<g>
			<title>PF03992</title>
			<polygon class="PF03992" points="235,29 243,19 243,42 235,32" stroke-linejoin="round" width="8" height="26" fill="rgb(193,84,127)" stroke="rgb(154,67,101)" stroke-width="1" opacity="0.75" />
		</g>
	</g>
	<g>
		<polygon class="NoName" points="299,16 293,16 293,1 263,31 293,61 293,46 299,46" fill="rgb(255,255,255)" fill-opacity="1.0" stroke="rgb(50,50,50)" stroke-width="1" />
		<g>
			<title>PF03551</title>
			<rect class="PF03551" x="291" y="18" stroke-linejoin="round" width="6" height="26" fill="rgb(210,176,95)" stroke="rgb(168,140,76)" stroke-width="1" opacity="0.75" />
		</g>
	</g>
	<g>
		<polygon class="NoName" points="328,16 328,16 328,1 300,31 328,61 328,46 328,46" fill="rgb(255,255,255)" fill-opacity="1.0" stroke="rgb(50,50,50)" stroke-width="1" />
		<g>
			<title>PF13349</title>
			<polygon class="PF13349" points="302,31 314,18 324,18 324,44 314,44" stroke-linejoin="round" width="22" height="26" fill="rgb(173,193,81)" stroke="rgb(138,154,64)" stroke-width="1" opacity="0.75" />
		</g>
	</g>
</svg>
