<svg version="1.1" baseProfile="full" xmlns="http://www.w3.org/2000/svg" width="1117" height="62">
	<line x1="1" y1="31" x2="1116" y2="31" style="stroke:rgb(50,50,50); stroke-width:3 "/>
	<g>
		<polygon class="NoName" points="1055,16 1086,16 1086,1 1116,31 1086,61 1086,46 1055,46" fill="rgb(255,255,255)" fill-opacity="1.0" stroke="rgb(50,50,50)" stroke-width="1" />
	</g>
	<g>
		<polygon class="NoName" points="91,16 31,16 31,1 1,31 31,61 31,46 91,46" fill="rgb(255,255,255)" fill-opacity="1.0" stroke="rgb(50,50,50)" stroke-width="1" />
		<g>
			<title>PF11951</title>
			<polygon class="PF11951" points="16,18 16,18 53,18 53,44 16,44 16,43" stroke-linejoin="round" width="37" height="26" fill="rgb(102,165,217)" stroke="rgb(81,132,173)" stroke-width="1" opacity="0.75" />
		</g>
		<g>
			<title>PF00172</title>
			<rect class="PF00172" x="85" y="18" stroke-linejoin="round" width="3" height="26" fill="rgb(121,178,76)" stroke="rgb(96,142,60)" stroke-width="1" opacity="0.75" />
		</g>
	</g>
	<g>
		<polygon class="NoName" points="187,16 148,16 148,1 118,31 148,61 148,46 187,46" fill="rgb(255,255,255)" fill-opacity="1.0" stroke="rgb(50,50,50)" stroke-width="1" />
		<g>
			<title>PF00160</title>
			<polygon class="PF00160" points="125,26 133,18 139,18 139,44 133,44 125,35" stroke-linejoin="round" width="14" height="26" fill="rgb(130,221,72)" stroke="rgb(103,176,57)" stroke-width="1" opacity="0.75" />
		</g>
		<g>
			<title>PF00400</title>
			<rect class="PF00400" x="173" y="18" stroke-linejoin="round" width="3" height="26" fill="rgb(190,108,62)" stroke="rgb(152,86,49)" stroke-width="1" opacity="0.75" />
		</g>
	</g>
	<g>
		<polygon class="NoName" points="208,16 208,16 208,1 232,31 208,61 208,46 208,46" fill="rgb(255,255,255)" fill-opacity="1.0" stroke="rgb(50,50,50)" stroke-width="1" />
		<g>
			<title>PF04750</title>
			<polygon class="PF04750" points="209,18 219,18 228,30 228,32 219,44 209,44" stroke-linejoin="round" width="19" height="26" fill="rgb(171,206,94)" stroke="rgb(136,164,75)" stroke-width="1" opacity="0.75" />
		</g>
	</g>
	<g>
		<title>glycolate_oxidase_L-lactate_2-monooxygenase</title>
		<polygon class="glycolate_oxidase_L-lactate_2-monooxygenase" points="258,16 258,16 258,1 235,31 258,61 258,46 258,46" fill="rgb(241,252,179)" fill-opacity="1.0" stroke="rgb(96,100,71)" stroke-width="1" />
		<g>
			<title>PF01070</title>
			<rect class="PF01070" x="253" y="18" stroke-linejoin="round" width="4" height="26" fill="rgb(59,82,204)" stroke="rgb(47,65,163)" stroke-width="1" opacity="0.75" />
		</g>
	</g>
	<g>
		<title>kivr</title>
		<polygon class="kivr" points="309,16 293,16 293,1 263,31 293,61 293,46 309,46" fill="rgb(240,251,203)" fill-opacity="1.0" stroke="rgb(96,100,81)" stroke-width="1" />
		<g>
			<title>PF08546</title>
			<polygon class="PF08546" points="265,31 278,18 280,18 280,44 278,44" stroke-linejoin="round" width="16" height="26" fill="rgb(188,163,68)" stroke="rgb(150,130,54)" stroke-width="1" opacity="0.75" />
		</g>
		<g>
			<title>PF02558</title>
			<rect class="PF02558" x="285" y="18" stroke-linejoin="round" width="17" height="26" fill="rgb(91,128,221)" stroke="rgb(72,102,176)" stroke-width="1" opacity="0.75" />
		</g>
	</g>
	<g>
		<title>Beas</title>
		<polygon class="Beas" points="384,16 673,16 673,1 703,31 673,61 673,46 384,46" fill="rgb(250,225,181)" fill-opacity="1.0" stroke="rgb(100,90,72)" stroke-width="1" />
		<g>
			<title>PF00668</title>
			<rect class="PF00668" x="388" y="18" stroke-linejoin="round" width="43" height="26" fill="rgb(224,184,98)" stroke="rgb(179,147,78)" stroke-width="1" opacity="0.75" />
		</g>
		<g>
			<title>PF00501</title>
			<rect class="PF00501" x="434" y="18" stroke-linejoin="round" width="39" height="26" fill="rgb(60,217,223)" stroke="rgb(48,173,178)" stroke-width="1" opacity="0.75" />
		</g>
		<g>
			<title>PF00550</title>
			<rect class="PF00550" x="488" y="18" stroke-linejoin="round" width="6" height="26" fill="rgb(103,191,88)" stroke="rgb(82,152,70)" stroke-width="1" opacity="0.75" />
		</g>
		<g>
			<title>PF00668</title>
			<rect class="PF00668" x="497" y="18" stroke-linejoin="round" width="44" height="26" fill="rgb(224,184,98)" stroke="rgb(179,147,78)" stroke-width="1" opacity="0.75" />
		</g>
		<g>
			<title>PF00501</title>
			<rect class="PF00501" x="543" y="18" stroke-linejoin="round" width="40" height="26" fill="rgb(60,217,223)" stroke="rgb(48,173,178)" stroke-width="1" opacity="0.75" />
		</g>
		<g>
			<title>PF00550</title>
			<rect class="PF00550" x="640" y="18" stroke-linejoin="round" width="6" height="26" fill="rgb(103,191,88)" stroke="rgb(82,152,70)" stroke-width="1" opacity="0.75" />
		</g>
		<g>
			<title>PF00550</title>
			<rect class="PF00550" x="650" y="18" stroke-linejoin="round" width="6" height="26" fill="rgb(103,191,88)" stroke="rgb(82,152,70)" stroke-width="1" opacity="0.75" />
		</g>
		<g>
			<title>PF00668</title>
			<polygon class="PF00668" points="661,18 687,18 700,31 687,44 661,44" stroke-linejoin="round" width="41" height="26" fill="rgb(224,184,98)" stroke="rgb(179,147,78)" stroke-width="1" opacity="0.75" />
		</g>
	</g>
	<g>
		<polygon class="NoName" points="776,16 776,16 776,1 803,31 776,61 776,46 776,46" fill="rgb(255,255,255)" fill-opacity="1.0" stroke="rgb(50,50,50)" stroke-width="1" />
	</g>
	<g>
		<polygon class="NoName" points="861,16 893,16 893,1 923,31 893,61 893,46 861,46" fill="rgb(255,255,255)" fill-opacity="1.0" stroke="rgb(50,50,50)" stroke-width="1" />
		<g>
			<title>PF00262</title>
			<rect class="PF00262" x="865" y="18" stroke-linejoin="round" width="37" height="26" fill="rgb(56,221,109)" stroke="rgb(44,176,87)" stroke-width="1" opacity="0.75" />
		</g>
	</g>
	<g>
		<polygon class="NoName" points="954,16 984,16 984,1 1014,31 984,61 984,46 954,46" fill="rgb(255,255,255)" fill-opacity="1.0" stroke="rgb(50,50,50)" stroke-width="1" />
		<g>
			<title>PF00171</title>
			<polygon class="PF00171" points="963,18 998,18 1009,29 1009,33 998,44 963,44" stroke-linejoin="round" width="46" height="26" fill="rgb(105,213,139)" stroke="rgb(84,170,111)" stroke-width="1" opacity="0.75" />
		</g>
	</g>
</svg>
