<svg version="1.1" baseProfile="full" xmlns="http://www.w3.org/2000/svg" width="384" height="62">
	<line x1="1" y1="31" x2="383" y2="31" style="stroke:rgb(50,50,50); stroke-width:3 "/>
	<g>
		<title>taC</title>
		<polygon class="taC" points="355,16 343,16 343,1 313,31 343,61 343,46 355,46" fill="rgb(252,206,217)" fill-opacity="1.0" stroke="rgb(100,82,86)" stroke-width="1" />
		<g>
			<title>PF08540</title>
			<polygon class="PF08540" points="316,30 326,20 326,41 316,31" stroke-linejoin="round" width="10" height="26" fill="rgb(49,194,86)" stroke="rgb(39,155,68)" stroke-width="1" opacity="0.75" />
		</g>
		<g>
			<title>PF01154</title>
			<rect class="PF01154" x="337" y="18" stroke-linejoin="round" width="17" height="26" fill="rgb(88,216,218)" stroke="rgb(70,172,174)" stroke-width="1" opacity="0.75" />
		</g>
	</g>
	<g>
		<polygon class="NoName" points="364,16 364,16 364,1 356,31 364,61 364,46 364,46" fill="rgb(255,255,255)" fill-opacity="1.0" stroke="rgb(50,50,50)" stroke-width="1" />
		<g>
			<title>PF00550</title>
			<polygon class="PF00550" points="358,31 361,18 362,18 362,44 361,44" stroke-linejoin="round" width="6" height="26" fill="rgb(103,191,88)" stroke="rgb(82,152,70)" stroke-width="1" opacity="0.75" />
		</g>
	</g>
	<g>
		<title>taA</title>
		<polygon class="taA" points="382,16 382,16 382,1 366,31 382,61 382,46 382,46" fill="rgb(211,254,239)" fill-opacity="1.0" stroke="rgb(84,101,95)" stroke-width="1" />
		<g>
			<title>PF02357</title>
			<polygon class="PF02357" points="373,22 375,18 382,18 382,44 375,44 373,39" stroke-linejoin="round" width="9" height="26" fill="rgb(166,222,79)" stroke="rgb(132,177,63)" stroke-width="1" opacity="0.75" />
		</g>
	</g>
	<g>
		<polygon class="NoName" points="25,16 25,16 25,1 1,31 25,61 25,46 25,46" fill="rgb(255,255,255)" fill-opacity="1.0" stroke="rgb(50,50,50)" stroke-width="1" />
		<g>
			<title>PF00378</title>
			<polygon class="PF00378" points="3,31 13,18 24,18 24,44 13,44" stroke-linejoin="round" width="23" height="26" fill="rgb(218,72,181)" stroke="rgb(174,57,144)" stroke-width="1" opacity="0.75" />
		</g>
	</g>
	<g>
		<polygon class="NoName" points="52,16 52,16 52,1 26,31 52,61 52,46 52,46" fill="rgb(255,255,255)" fill-opacity="1.0" stroke="rgb(50,50,50)" stroke-width="1" />
		<g>
			<title>PF00378</title>
			<polygon class="PF00378" points="28,31 39,18 50,18 50,44 39,44" stroke-linejoin="round" width="24" height="26" fill="rgb(218,72,181)" stroke="rgb(174,57,144)" stroke-width="1" opacity="0.75" />
		</g>
	</g>
	<g>
		<polygon class="NoName" points="93,16 82,16 82,1 52,31 82,61 82,46 93,46" fill="rgb(255,255,255)" fill-opacity="1.0" stroke="rgb(50,50,50)" stroke-width="1" />
		<g>
			<title>PF02801</title>
			<polygon class="PF02801" points="56,29 67,18 67,43 56,32" stroke-linejoin="round" width="11" height="26" fill="rgb(215,78,102)" stroke="rgb(172,62,81)" stroke-width="1" opacity="0.75" />
		</g>
		<g>
			<title>PF00109</title>
			<rect class="PF00109" x="68" y="18" stroke-linejoin="round" width="24" height="26" fill="rgb(112,116,228)" stroke="rgb(89,92,182)" stroke-width="1" opacity="0.75" />
		</g>
	</g>
	<g>
		<title>fabD</title>
		<polygon class="fabD" points="161,16 126,16 126,1 96,31 126,61 126,46 161,46" fill="rgb(250,244,184)" fill-opacity="1.0" stroke="rgb(100,97,73)" stroke-width="1" />
		<g>
			<title>PF00698</title>
			<polygon class="PF00698" points="98,31 111,18 124,18 124,44 111,44" stroke-linejoin="round" width="28" height="26" fill="rgb(59,176,209)" stroke="rgb(47,140,167)" stroke-width="1" opacity="0.75" />
		</g>
		<g>
			<title>PF00698</title>
			<rect class="PF00698" x="130" y="18" stroke-linejoin="round" width="29" height="26" fill="rgb(59,176,209)" stroke="rgb(47,140,167)" stroke-width="1" opacity="0.75" />
		</g>
	</g>
	<g>
		<polygon class="NoName" points="211,16 193,16 193,1 163,31 193,61 193,46 211,46" fill="rgb(255,255,255)" fill-opacity="1.0" stroke="rgb(50,50,50)" stroke-width="1" />
		<g>
			<title>PF00067</title>
			<polygon class="PF00067" points="165,31 178,18 207,18 207,44 178,44" stroke-linejoin="round" width="43" height="26" fill="rgb(85,216,107)" stroke="rgb(68,172,85)" stroke-width="1" opacity="0.75" />
		</g>
	</g>
	<g>
		<title>lspA</title>
		<polygon class="lspA" points="229,16 229,16 229,1 212,31 229,61 229,46 229,46" fill="rgb(244,193,253)" fill-opacity="1.0" stroke="rgb(97,77,101)" stroke-width="1" />
		<g>
			<title>PF01252</title>
			<polygon class="PF01252" points="214,31 221,18 227,18 227,44 221,44" stroke-linejoin="round" width="14" height="26" fill="rgb(79,62,214)" stroke="rgb(63,49,171)" stroke-width="1" opacity="0.75" />
		</g>
	</g>
	<g>
		<title>taF</title>
		<polygon class="taF" points="271,16 260,16 260,1 230,31 260,61 260,46 271,46" fill="rgb(251,234,197)" fill-opacity="1.0" stroke="rgb(100,93,78)" stroke-width="1" />
		<g>
			<title>PF08540</title>
			<polygon class="PF08540" points="233,30 244,19 244,42 233,31" stroke-linejoin="round" width="11" height="26" fill="rgb(49,194,86)" stroke="rgb(39,155,68)" stroke-width="1" opacity="0.75" />
		</g>
		<g>
			<title>PF01154</title>
			<rect class="PF01154" x="253" y="18" stroke-linejoin="round" width="17" height="26" fill="rgb(88,216,218)" stroke="rgb(70,172,174)" stroke-width="1" opacity="0.75" />
		</g>
	</g>
	<g>
		<polygon class="NoName" points="280,16 280,16 280,1 272,31 280,61 280,46 280,46" fill="rgb(255,255,255)" fill-opacity="1.0" stroke="rgb(50,50,50)" stroke-width="1" />
		<g>
			<title>PF00550</title>
			<polygon class="PF00550" points="274,31 277,18 278,18 278,44 277,44" stroke-linejoin="round" width="6" height="26" fill="rgb(103,191,88)" stroke="rgb(82,152,70)" stroke-width="1" opacity="0.75" />
		</g>
	</g>
	<g>
		<polygon class="NoName" points="312,16 310,16 310,1 280,31 310,61 310,46 312,46" fill="rgb(255,255,255)" fill-opacity="1.0" stroke="rgb(50,50,50)" stroke-width="1" />
	</g>
</svg>
