<svg version="1.1" baseProfile="full" xmlns="http://www.w3.org/2000/svg" width="1107" height="62">
	<line x1="1" y1="31" x2="1106" y2="31" style="stroke:rgb(50,50,50); stroke-width:3 "/>
	<g>
		<polygon class="NoName" points="456,16 465,16 465,1 495,31 465,61 465,46 456,46" fill="rgb(255,255,255)" fill-opacity="1.0" stroke="rgb(50,50,50)" stroke-width="1" />
		<g>
			<title>PF07690</title>
			<rect class="PF07690" x="456" y="18" stroke-linejoin="round" width="22" height="26" fill="rgb(193,224,74)" stroke="rgb(154,179,59)" stroke-width="1" opacity="0.75" />
		</g>
	</g>
	<g>
		<polygon class="NoName" points="499,16 499,16 499,1 508,31 499,61 499,46 499,46" fill="rgb(255,255,255)" fill-opacity="1.0" stroke="rgb(50,50,50)" stroke-width="1" />
	</g>
	<g>
		<polygon class="NoName" points="511,16 511,16 511,1 528,31 511,61 511,46 511,46" fill="rgb(255,255,255)" fill-opacity="1.0" stroke="rgb(50,50,50)" stroke-width="1" />
		<g>
			<title>PF00903</title>
			<polygon class="PF00903" points="513,18 518,18 525,31 518,44 513,44" stroke-linejoin="round" width="13" height="26" fill="rgb(50,162,189)" stroke="rgb(40,129,151)" stroke-width="1" opacity="0.75" />
		</g>
	</g>
	<g>
		<polygon class="NoName" points="528,16 528,16 528,1 558,31 528,61 528,46 528,46" fill="rgb(255,255,255)" fill-opacity="1.0" stroke="rgb(50,50,50)" stroke-width="1" />
	</g>
	<g>
		<polygon class="NoName" points="558,16 558,16 558,1 587,31 558,61 558,46 558,46" fill="rgb(255,255,255)" fill-opacity="1.0" stroke="rgb(50,50,50)" stroke-width="1" />
		<g>
			<title>PF00296</title>
			<polygon class="PF00296" points="558,18 571,18 583,30 583,32 571,44 558,44" stroke-linejoin="round" width="25" height="26" fill="rgb(180,112,78)" stroke="rgb(144,89,62)" stroke-width="1" opacity="0.75" />
		</g>
	</g>
	<g>
		<polygon class="NoName" points="588,16 588,16 588,1 615,31 588,61 588,46 588,46" fill="rgb(255,255,255)" fill-opacity="1.0" stroke="rgb(50,50,50)" stroke-width="1" />
	</g>
	<g>
		<polygon class="NoName" points="615,16 626,16 626,1 656,31 626,61 626,46 615,46" fill="rgb(255,255,255)" fill-opacity="1.0" stroke="rgb(50,50,50)" stroke-width="1" />
		<g>
			<title>PF00266</title>
			<polygon class="PF00266" points="623,18 640,18 652,30 652,32 640,44 623,44" stroke-linejoin="round" width="29" height="26" fill="rgb(214,54,122)" stroke="rgb(171,43,97)" stroke-width="1" opacity="0.75" />
		</g>
	</g>
	<g>
		<polygon class="NoName" points="657,16 657,16 657,1 683,31 657,61 657,46 657,46" fill="rgb(255,255,255)" fill-opacity="1.0" stroke="rgb(50,50,50)" stroke-width="1" />
		<g>
			<title>PF03301</title>
			<polygon class="PF03301" points="657,18 669,18 672,22 672,40 669,44 657,44" stroke-linejoin="round" width="15" height="26" fill="rgb(50,195,197)" stroke="rgb(40,155,157)" stroke-width="1" opacity="0.75" />
		</g>
		<g>
			<title>PF03301</title>
			<polygon class="PF03301" points="675,25 680,31 675,37" stroke-linejoin="round" width="8" height="26" fill="rgb(50,195,197)" stroke="rgb(40,155,157)" stroke-width="1" opacity="0.75" />
		</g>
	</g>
	<g>
		<polygon class="NoName" points="684,16 684,16 684,1 689,31 684,61 684,46 684,46" fill="rgb(255,255,255)" fill-opacity="1.0" stroke="rgb(50,50,50)" stroke-width="1" />
	</g>
	<g>
		<polygon class="NoName" points="690,16 694,16 694,1 724,31 694,61 694,46 690,46" fill="rgb(255,255,255)" fill-opacity="1.0" stroke="rgb(50,50,50)" stroke-width="1" />
		<g>
			<title>PF16864</title>
			<rect class="PF16864" x="690" y="18" stroke-linejoin="round" width="7" height="26" fill="rgb(84,199,85)" stroke="rgb(67,159,68)" stroke-width="1" opacity="0.75" />
		</g>
		<g>
			<title>PF00891</title>
			<polygon class="PF00891" points="699,18 708,18 721,31 708,44 699,44" stroke-linejoin="round" width="23" height="26" fill="rgb(50,51,190)" stroke="rgb(39,40,152)" stroke-width="1" opacity="0.75" />
		</g>
	</g>
	<g>
		<polygon class="NoName" points="63,16 31,16 31,1 1,31 31,61 31,46 63,46" fill="rgb(255,255,255)" fill-opacity="1.0" stroke="rgb(50,50,50)" stroke-width="1" />
		<g>
			<title>PF00733</title>
			<polygon class="PF00733" points="3,31 16,18 37,18 37,44 16,44" stroke-linejoin="round" width="36" height="26" fill="rgb(97,201,176)" stroke="rgb(77,160,140)" stroke-width="1" opacity="0.75" />
		</g>
		<g>
			<title>PF13537</title>
			<rect class="PF13537" x="45" y="18" stroke-linejoin="round" width="12" height="26" fill="rgb(200,63,57)" stroke="rgb(160,50,45)" stroke-width="1" opacity="0.75" />
		</g>
	</g>
	<g>
		<polygon class="NoName" points="725,16 725,16 725,1 754,31 725,61 725,46 725,46" fill="rgb(255,255,255)" fill-opacity="1.0" stroke="rgb(50,50,50)" stroke-width="1" />
		<g>
			<title>PF07859</title>
			<polygon class="PF07859" points="732,18 738,18 750,30 750,32 738,44 732,44" stroke-linejoin="round" width="18" height="26" fill="rgb(183,51,179)" stroke="rgb(146,40,143)" stroke-width="1" opacity="0.75" />
		</g>
	</g>
	<g>
		<polygon class="NoName" points="754,16 784,16 784,1 814,31 784,61 784,46 754,46" fill="rgb(255,255,255)" fill-opacity="1.0" stroke="rgb(50,50,50)" stroke-width="1" />
		<g>
			<title>PF00501</title>
			<rect class="PF00501" x="756" y="18" stroke-linejoin="round" width="39" height="26" fill="rgb(60,217,223)" stroke="rgb(48,173,178)" stroke-width="1" opacity="0.75" />
		</g>
		<g>
			<title>PF13193</title>
			<polygon class="PF13193" points="796,18 798,18 803,23 803,39 798,44 796,44" stroke-linejoin="round" width="7" height="26" fill="rgb(182,50,118)" stroke="rgb(145,39,94)" stroke-width="1" opacity="0.75" />
		</g>
		<g>
			<title>PF00550</title>
			<polygon class="PF00550" points="806,26 811,31 806,36" stroke-linejoin="round" width="6" height="26" fill="rgb(103,191,88)" stroke="rgb(82,152,70)" stroke-width="1" opacity="0.75" />
		</g>
	</g>
	<g>
		<polygon class="NoName" points="814,16 928,16 928,1 958,31 928,61 928,46 814,46" fill="rgb(255,255,255)" fill-opacity="1.0" stroke="rgb(50,50,50)" stroke-width="1" />
		<g>
			<title>PF00668</title>
			<rect class="PF00668" x="815" y="18" stroke-linejoin="round" width="44" height="26" fill="rgb(224,184,98)" stroke="rgb(179,147,78)" stroke-width="1" opacity="0.75" />
		</g>
		<g>
			<title>PF00501</title>
			<rect class="PF00501" x="861" y="18" stroke-linejoin="round" width="39" height="26" fill="rgb(60,217,223)" stroke="rgb(48,173,178)" stroke-width="1" opacity="0.75" />
		</g>
		<g>
			<title>PF13193</title>
			<rect class="PF13193" x="902" y="18" stroke-linejoin="round" width="7" height="26" fill="rgb(182,50,118)" stroke="rgb(145,39,94)" stroke-width="1" opacity="0.75" />
		</g>
		<g>
			<title>PF00550</title>
			<rect class="PF00550" x="912" y="18" stroke-linejoin="round" width="6" height="26" fill="rgb(103,191,88)" stroke="rgb(82,152,70)" stroke-width="1" opacity="0.75" />
		</g>
		<g>
			<title>PF07993</title>
			<polygon class="PF07993" points="922,18 942,18 945,21 945,41 942,44 922,44" stroke-linejoin="round" width="23" height="26" fill="rgb(100,212,204)" stroke="rgb(80,169,163)" stroke-width="1" opacity="0.75" />
		</g>
	</g>
	<g>
		<polygon class="NoName" points="955,16 975,16 975,1 1005,31 975,61 975,46 955,46" fill="rgb(255,255,255)" fill-opacity="1.0" stroke="rgb(50,50,50)" stroke-width="1" />
		<g>
			<title>PF01494</title>
			<polygon class="PF01494" points="959,18 989,18 994,23 994,39 989,44 959,44" stroke-linejoin="round" width="35" height="26" fill="rgb(182,175,59)" stroke="rgb(145,140,47)" stroke-width="1" opacity="0.75" />
		</g>
	</g>
	<g>
		<polygon class="NoName" points="1056,16 1039,16 1039,1 1009,31 1039,61 1039,46 1056,46" fill="rgb(255,255,255)" fill-opacity="1.0" stroke="rgb(50,50,50)" stroke-width="1" />
		<g>
			<title>PF01593</title>
			<polygon class="PF01593" points="1011,31 1024,18 1053,18 1053,44 1024,44" stroke-linejoin="round" width="44" height="26" fill="rgb(184,74,52)" stroke="rgb(147,59,41)" stroke-width="1" opacity="0.75" />
		</g>
	</g>
	<g>
		<polygon class="NoName" points="1085,16 1085,16 1085,1 1058,31 1085,61 1085,46 1085,46" fill="rgb(255,255,255)" fill-opacity="1.0" stroke="rgb(50,50,50)" stroke-width="1" />
		<g>
			<title>PF00486</title>
			<polygon class="PF00486" points="1062,29 1069,21 1069,40 1062,32" stroke-linejoin="round" width="7" height="26" fill="rgb(204,153,57)" stroke="rgb(163,122,45)" stroke-width="1" opacity="0.75" />
		</g>
		<g>
			<title>PF00072</title>
			<rect class="PF00072" x="1073" y="18" stroke-linejoin="round" width="10" height="26" fill="rgb(100,107,203)" stroke="rgb(80,85,162)" stroke-width="1" opacity="0.75" />
		</g>
	</g>
	<g>
		<polygon class="NoName" points="113,16 93,16 93,1 63,31 93,61 93,46 113,46" fill="rgb(255,255,255)" fill-opacity="1.0" stroke="rgb(50,50,50)" stroke-width="1" />
		<g>
			<title>PF00171</title>
			<polygon class="PF00171" points="65,31 78,18 109,18 109,44 78,44" stroke-linejoin="round" width="46" height="26" fill="rgb(105,213,139)" stroke="rgb(84,170,111)" stroke-width="1" opacity="0.75" />
		</g>
	</g>
	<g>
		<polygon class="NoName" points="148,16 143,16 143,1 113,31 143,61 143,46 148,46" fill="rgb(255,255,255)" fill-opacity="1.0" stroke="rgb(50,50,50)" stroke-width="1" />
		<g>
			<title>PF00107</title>
			<polygon class="PF00107" points="117,29 128,18 130,18 130,44 128,44 117,32" stroke-linejoin="round" width="13" height="26" fill="rgb(81,108,215)" stroke="rgb(64,86,172)" stroke-width="1" opacity="0.75" />
		</g>
		<g>
			<title>PF08240</title>
			<rect class="PF08240" x="134" y="18" stroke-linejoin="round" width="11" height="26" fill="rgb(211,65,138)" stroke="rgb(168,51,110)" stroke-width="1" opacity="0.75" />
		</g>
	</g>
	<g>
		<polygon class="NoName" points="190,16 179,16 179,1 149,31 179,61 179,46 190,46" fill="rgb(255,255,255)" fill-opacity="1.0" stroke="rgb(50,50,50)" stroke-width="1" />
		<g>
			<title>PF00067</title>
			<polygon class="PF00067" points="151,31 164,18 168,18 168,44 164,44" stroke-linejoin="round" width="18" height="26" fill="rgb(85,216,107)" stroke="rgb(68,172,85)" stroke-width="1" opacity="0.75" />
		</g>
	</g>
	<g>
		<polygon class="NoName" points="225,16 220,16 220,1 190,31 220,61 220,46 225,46" fill="rgb(255,255,255)" fill-opacity="1.0" stroke="rgb(50,50,50)" stroke-width="1" />
		<g>
			<title>PF13847</title>
			<polygon class="PF13847" points="193,30 205,18 207,18 207,44 205,44 193,31" stroke-linejoin="round" width="14" height="26" fill="rgb(214,74,181)" stroke="rgb(171,59,144)" stroke-width="1" opacity="0.75" />
		</g>
	</g>
	<g>
		<polygon class="NoName" points="289,16 257,16 257,1 227,31 257,61 257,46 289,46" fill="rgb(255,255,255)" fill-opacity="1.0" stroke="rgb(50,50,50)" stroke-width="1" />
		<g>
			<title>PF01019</title>
			<polygon class="PF01019" points="229,31 242,18 283,18 283,44 242,44" stroke-linejoin="round" width="56" height="26" fill="rgb(117,205,100)" stroke="rgb(93,164,80)" stroke-width="1" opacity="0.75" />
		</g>
	</g>
	<g>
		<polygon class="NoName" points="337,16 319,16 319,1 289,31 319,61 319,46 337,46" fill="rgb(255,255,255)" fill-opacity="1.0" stroke="rgb(50,50,50)" stroke-width="1" />
		<g>
			<title>PF09265</title>
			<polygon class="PF09265" points="291,31 304,18 307,18 307,44 304,44" stroke-linejoin="round" width="18" height="26" fill="rgb(67,184,162)" stroke="rgb(53,147,129)" stroke-width="1" opacity="0.75" />
		</g>
		<g>
			<title>PF01565</title>
			<rect class="PF01565" x="317" y="18" stroke-linejoin="round" width="13" height="26" fill="rgb(226,88,136)" stroke="rgb(180,70,108)" stroke-width="1" opacity="0.75" />
		</g>
	</g>
	<g>
		<polygon class="NoName" points="351,16 397,16 397,1 427,31 397,61 397,46 351,46" fill="rgb(255,255,255)" fill-opacity="1.0" stroke="rgb(50,50,50)" stroke-width="1" />
		<g>
			<title>PF00005</title>
			<polygon class="PF00005" points="398,18 411,18 418,25 418,37 411,44 398,44" stroke-linejoin="round" width="20" height="26" fill="rgb(129,201,63)" stroke="rgb(103,160,50)" stroke-width="1" opacity="0.75" />
		</g>
	</g>
	<g>
		<polygon class="NoName" points="429,16 429,16 429,1 454,31 429,61 429,46 429,46" fill="rgb(255,255,255)" fill-opacity="1.0" stroke="rgb(50,50,50)" stroke-width="1" />
		<g>
			<title>PF00903</title>
			<rect class="PF00903" x="430" y="18" stroke-linejoin="round" width="10" height="26" fill="rgb(50,162,189)" stroke="rgb(40,129,151)" stroke-width="1" opacity="0.75" />
		</g>
		<g>
			<title>PF00903</title>
			<polygon class="PF00903" points="442,20 451,31 442,42" stroke-linejoin="round" width="11" height="26" fill="rgb(50,162,189)" stroke="rgb(40,129,151)" stroke-width="1" opacity="0.75" />
		</g>
	</g>
</svg>
