<svg version="1.1" baseProfile="full" xmlns="http://www.w3.org/2000/svg" width="425" height="62">
	<line x1="1" y1="31" x2="424" y2="31" style="stroke:rgb(50,50,50); stroke-width:3 "/>
	<g>
		<title>lcz33</title>
		<polygon class="lcz33" points="233,16 233,16 233,1 244,31 233,61 233,46 233,46" fill="rgb(209,227,251)" fill-opacity="1.0" stroke="rgb(83,90,100)" stroke-width="1" />
		<g>
			<title>PF03992</title>
			<polygon class="PF03992" points="234,18 236,18 241,29 241,33 236,44 234,44" stroke-linejoin="round" width="7" height="26" fill="rgb(193,84,127)" stroke="rgb(154,67,101)" stroke-width="1" opacity="0.75" />
		</g>
	</g>
	<g>
		<title>lcz34</title>
		<polygon class="lcz34" points="245,16 245,16 245,1 269,31 245,61 245,46 245,46" fill="rgb(188,245,251)" fill-opacity="1.0" stroke="rgb(75,98,100)" stroke-width="1" />
		<g>
			<title>PF00975</title>
			<polygon class="PF00975" points="246,18 256,18 266,31 256,44 246,44" stroke-linejoin="round" width="22" height="26" fill="rgb(207,80,138)" stroke="rgb(165,63,110)" stroke-width="1" opacity="0.75" />
		</g>
	</g>
	<g>
		<title>lcz35</title>
		<polygon class="lcz35" points="271,16 273,16 273,1 303,31 273,61 273,46 271,46" fill="rgb(254,198,234)" fill-opacity="1.0" stroke="rgb(101,79,93)" stroke-width="1" />
		<g>
			<title>PF16864</title>
			<rect class="PF16864" x="271" y="18" stroke-linejoin="round" width="8" height="26" fill="rgb(84,199,85)" stroke="rgb(67,159,68)" stroke-width="1" opacity="0.75" />
		</g>
		<g>
			<title>PF00891</title>
			<polygon class="PF00891" points="279,18 287,18 300,31 287,44 279,44" stroke-linejoin="round" width="22" height="26" fill="rgb(50,51,190)" stroke="rgb(39,40,152)" stroke-width="1" opacity="0.75" />
		</g>
	</g>
	<g>
		<title>lcz36</title>
		<polygon class="lcz36" points="351,16 339,16 339,1 309,31 339,61 339,46 351,46" fill="rgb(192,234,250)" fill-opacity="1.0" stroke="rgb(76,93,100)" stroke-width="1" />
		<g>
			<title>PF06722</title>
			<polygon class="PF06722" points="321,21 324,18 330,18 330,44 324,44 321,40" stroke-linejoin="round" width="9" height="26" fill="rgb(200,129,88)" stroke="rgb(160,103,70)" stroke-width="1" opacity="0.75" />
		</g>
	</g>
	<g>
		<title>lcz37</title>
		<polygon class="lcz37" points="358,16 358,16 358,1 371,31 358,61 358,46 358,46" fill="rgb(211,224,251)" fill-opacity="1.0" stroke="rgb(84,89,100)" stroke-width="1" />
		<g>
			<title>PF07366</title>
			<polygon class="PF07366" points="358,18 362,18 368,31 362,44 358,44" stroke-linejoin="round" width="12" height="26" fill="rgb(206,89,111)" stroke="rgb(164,71,88)" stroke-width="1" opacity="0.75" />
		</g>
	</g>
	<g>
		<title>lcz38</title>
		<polygon class="lcz38" points="424,16 405,16 405,1 375,31 405,61 405,46 424,46" fill="rgb(242,178,253)" fill-opacity="1.0" stroke="rgb(96,71,101)" stroke-width="1" />
		<g>
			<title>PF07690</title>
			<polygon class="PF07690" points="384,24 390,18 423,18 423,44 390,44 384,37" stroke-linejoin="round" width="39" height="26" fill="rgb(193,224,74)" stroke="rgb(154,179,59)" stroke-width="1" opacity="0.75" />
		</g>
	</g>
	<g>
		<title>lcz24</title>
		<polygon class="lcz24" points="1,16 1,16 1,1 10,31 1,61 1,46 1,46" fill="rgb(202,254,204)" fill-opacity="1.0" stroke="rgb(80,101,81)" stroke-width="1" />
		<g>
			<title>PF00550</title>
			<polygon class="PF00550" points="1,18 3,18 7,31 3,44 1,44" stroke-linejoin="round" width="7" height="26" fill="rgb(103,191,88)" stroke="rgb(82,152,70)" stroke-width="1" opacity="0.75" />
		</g>
	</g>
	<g>
		<title>lcz25</title>
		<polygon class="lcz25" points="10,16 13,16 13,1 43,31 13,61 13,46 10,46" fill="rgb(214,186,254)" fill-opacity="1.0" stroke="rgb(85,74,101)" stroke-width="1" />
		<g>
			<title>PF00891</title>
			<polygon class="PF00891" points="19,18 27,18 40,31 27,44 19,44" stroke-linejoin="round" width="23" height="26" fill="rgb(50,51,190)" stroke="rgb(39,40,152)" stroke-width="1" opacity="0.75" />
		</g>
	</g>
	<g>
		<title>lcz26</title>
		<polygon class="lcz26" points="45,16 45,16 45,1 53,31 45,61 45,46 45,46" fill="rgb(212,250,186)" fill-opacity="1.0" stroke="rgb(84,100,74)" stroke-width="1" />
		<g>
			<title>PF00550</title>
			<polygon class="PF00550" points="45,18 47,18 50,31 47,44 45,44" stroke-linejoin="round" width="6" height="26" fill="rgb(103,191,88)" stroke="rgb(82,152,70)" stroke-width="1" opacity="0.75" />
		</g>
	</g>
	<g>
		<title>lcz27</title>
		<polygon class="lcz27" points="53,16 53,16 53,1 68,31 53,61 53,46 53,46" fill="rgb(198,252,253)" fill-opacity="1.0" stroke="rgb(79,100,101)" stroke-width="1" />
		<g>
			<title>PF10604</title>
			<polygon class="PF10604" points="53,18 59,18 65,31 59,44 53,44" stroke-linejoin="round" width="14" height="26" fill="rgb(105,204,74)" stroke="rgb(84,163,59)" stroke-width="1" opacity="0.75" />
		</g>
	</g>
	<g>
		<title>lcz28</title>
		<polygon class="lcz28" points="70,16 92,16 92,1 122,31 92,61 92,46 70,46" fill="rgb(184,227,251)" fill-opacity="1.0" stroke="rgb(73,90,100)" stroke-width="1" />
		<g>
			<title>PF00501</title>
			<polygon class="PF00501" points="71,18 106,18 112,24 112,38 106,44 71,44" stroke-linejoin="round" width="41" height="26" fill="rgb(60,217,223)" stroke="rgb(48,173,178)" stroke-width="1" opacity="0.75" />
		</g>
		<g>
			<title>PF13193</title>
			<polygon class="PF13193" points="112,24 119,31 119,31 112,38" stroke-linejoin="round" width="7" height="26" fill="rgb(182,50,118)" stroke="rgb(145,39,94)" stroke-width="1" opacity="0.75" />
		</g>
	</g>
	<g>
		<title>lcz29</title>
		<polygon class="lcz29" points="123,16 123,16 123,1 134,31 123,61 123,46 123,46" fill="rgb(252,197,191)" fill-opacity="1.0" stroke="rgb(100,78,76)" stroke-width="1" />
		<g>
			<title>PF04673</title>
			<polygon class="PF04673" points="123,18 126,18 131,31 126,44 123,44" stroke-linejoin="round" width="10" height="26" fill="rgb(49,187,78)" stroke="rgb(39,149,62)" stroke-width="1" opacity="0.75" />
		</g>
	</g>
	<g>
		<title>lcz30</title>
		<polygon class="lcz30" points="135,16 135,16 135,1 149,31 135,61 135,46 135,46" fill="rgb(184,253,235)" fill-opacity="1.0" stroke="rgb(73,101,94)" stroke-width="1" />
		<g>
			<title>PF07883</title>
			<polygon class="PF07883" points="139,18 140,18 146,30 146,32 140,44 139,44" stroke-linejoin="round" width="7" height="26" fill="rgb(211,192,74)" stroke="rgb(168,153,59)" stroke-width="1" opacity="0.75" />
		</g>
	</g>
	<g>
		<title>lcz31</title>
		<polygon class="lcz31" points="150,16 162,16 162,1 192,31 162,61 162,46 150,46" fill="rgb(223,253,197)" fill-opacity="1.0" stroke="rgb(89,101,78)" stroke-width="1" />
		<g>
			<title>PF00109</title>
			<rect class="PF00109" x="150" y="18" stroke-linejoin="round" width="25" height="26" fill="rgb(112,116,228)" stroke="rgb(89,92,182)" stroke-width="1" opacity="0.75" />
		</g>
		<g>
			<title>PF02801</title>
			<polygon class="PF02801" points="175,18 176,18 186,28 186,34 176,44 175,44" stroke-linejoin="round" width="11" height="26" fill="rgb(215,78,102)" stroke="rgb(172,62,81)" stroke-width="1" opacity="0.75" />
		</g>
	</g>
	<g>
		<title>lcz32</title>
		<polygon class="lcz32" points="192,16 202,16 202,1 232,31 202,61 202,46 192,46" fill="rgb(190,186,254)" fill-opacity="1.0" stroke="rgb(76,74,101)" stroke-width="1" />
		<g>
			<title>PF00109</title>
			<rect class="PF00109" x="192" y="18" stroke-linejoin="round" width="24" height="26" fill="rgb(112,116,228)" stroke="rgb(89,92,182)" stroke-width="1" opacity="0.75" />
		</g>
		<g>
			<title>PF02801</title>
			<polygon class="PF02801" points="217,19 228,30 228,32 217,43" stroke-linejoin="round" width="11" height="26" fill="rgb(215,78,102)" stroke="rgb(172,62,81)" stroke-width="1" opacity="0.75" />
		</g>
	</g>
</svg>
