<svg version="1.1" baseProfile="full" xmlns="http://www.w3.org/2000/svg" width="850" height="62">
	<line x1="1" y1="31" x2="849" y2="31" style="stroke:rgb(50,50,50); stroke-width:3 "/>
	<g>
		<polygon class="NoName" points="325,16 337,16 337,1 367,31 337,61 337,46 325,46" fill="rgb(255,255,255)" fill-opacity="1.0" stroke="rgb(50,50,50)" stroke-width="1" />
		<g>
			<title>PF01041</title>
			<polygon class="PF01041" points="327,18 351,18 364,31 351,44 327,44" stroke-linejoin="round" width="39" height="26" fill="rgb(59,139,191)" stroke="rgb(47,111,152)" stroke-width="1" opacity="0.75" />
		</g>
	</g>
	<g>
		<polygon class="NoName" points="369,16 378,16 378,1 408,31 378,61 378,46 369,46" fill="rgb(255,255,255)" fill-opacity="1.0" stroke="rgb(50,50,50)" stroke-width="1" />
		<g>
			<title>PF01761</title>
			<polygon class="PF01761" points="375,18 392,18 400,26 400,36 392,44 375,44" stroke-linejoin="round" width="25" height="26" fill="rgb(150,62,180)" stroke="rgb(120,49,144)" stroke-width="1" opacity="0.75" />
		</g>
	</g>
	<g>
		<polygon class="NoName" points="408,16 415,16 415,1 445,31 415,61 415,46 408,46" fill="rgb(255,255,255)" fill-opacity="1.0" stroke="rgb(50,50,50)" stroke-width="1" />
		<g>
			<title>PF01408</title>
			<rect class="PF01408" x="408" y="18" stroke-linejoin="round" width="11" height="26" fill="rgb(76,117,190)" stroke="rgb(60,93,152)" stroke-width="1" opacity="0.75" />
		</g>
		<g>
			<title>PF02894</title>
			<polygon class="PF02894" points="421,18 429,18 433,22 433,40 429,44 421,44" stroke-linejoin="round" width="12" height="26" fill="rgb(195,223,82)" stroke="rgb(155,178,65)" stroke-width="1" opacity="0.75" />
		</g>
	</g>
	<g>
		<polygon class="NoName" points="445,16 445,16 445,1 450,31 445,61 445,46 445,46" fill="rgb(255,255,255)" fill-opacity="1.0" stroke="rgb(50,50,50)" stroke-width="1" />
	</g>
	<g>
		<polygon class="NoName" points="450,16 461,16 461,1 491,31 461,61 461,46 450,46" fill="rgb(255,255,255)" fill-opacity="1.0" stroke="rgb(50,50,50)" stroke-width="1" />
		<g>
			<title>PF13579</title>
			<rect class="PF13579" x="453" y="18" stroke-linejoin="round" width="18" height="26" fill="rgb(143,60,202)" stroke="rgb(114,47,161)" stroke-width="1" opacity="0.75" />
		</g>
		<g>
			<title>PF00534</title>
			<polygon class="PF00534" points="472,18 475,18 488,31 488,31 475,44 472,44" stroke-linejoin="round" width="16" height="26" fill="rgb(228,92,150)" stroke="rgb(182,73,119)" stroke-width="1" opacity="0.75" />
		</g>
	</g>
	<g>
		<polygon class="NoName" points="492,16 492,16 492,1 517,31 492,61 492,46 492,46" fill="rgb(255,255,255)" fill-opacity="1.0" stroke="rgb(50,50,50)" stroke-width="1" />
		<g>
			<title>PF02585</title>
			<polygon class="PF02585" points="492,18 503,18 506,21 506,41 503,44 492,44" stroke-linejoin="round" width="14" height="26" fill="rgb(97,215,95)" stroke="rgb(77,172,76)" stroke-width="1" opacity="0.75" />
		</g>
	</g>
	<g>
		<polygon class="NoName" points="517,16 529,16 529,1 559,31 529,61 529,46 517,46" fill="rgb(255,255,255)" fill-opacity="1.0" stroke="rgb(50,50,50)" stroke-width="1" />
		<g>
			<title>PF01041</title>
			<polygon class="PF01041" points="519,18 543,18 556,31 543,44 519,44" stroke-linejoin="round" width="38" height="26" fill="rgb(59,139,191)" stroke="rgb(47,111,152)" stroke-width="1" opacity="0.75" />
		</g>
	</g>
	<g>
		<polygon class="NoName" points="564,16 564,16 564,1 592,31 564,61 564,46 564,46" fill="rgb(255,255,255)" fill-opacity="1.0" stroke="rgb(50,50,50)" stroke-width="1" />
		<g>
			<title>PF05721</title>
			<polygon class="PF05721" points="567,18 577,18 586,28 586,34 577,44 567,44" stroke-linejoin="round" width="19" height="26" fill="rgb(72,132,214)" stroke="rgb(57,105,171)" stroke-width="1" opacity="0.75" />
		</g>
	</g>
	<g>
		<polygon class="NoName" points="594,16 599,16 599,1 629,31 599,61 599,46 594,46" fill="rgb(255,255,255)" fill-opacity="1.0" stroke="rgb(50,50,50)" stroke-width="1" />
		<g>
			<title>PF01370</title>
			<polygon class="PF01370" points="596,18 613,18 617,22 617,40 613,44 596,44" stroke-linejoin="round" width="21" height="26" fill="rgb(98,102,214)" stroke="rgb(78,81,171)" stroke-width="1" opacity="0.75" />
		</g>
	</g>
	<g>
		<title>kmr</title>
		<polygon class="kmr" points="633,16 633,16 633,1 660,31 633,61 633,46 633,46" fill="rgb(183,185,253)" fill-opacity="1.0" stroke="rgb(73,74,101)" stroke-width="1" />
		<g>
			<title>PF07091</title>
			<polygon class="PF07091" points="635,18 645,18 657,31 645,44 635,44" stroke-linejoin="round" width="25" height="26" fill="rgb(91,151,191)" stroke="rgb(72,120,152)" stroke-width="1" opacity="0.75" />
		</g>
	</g>
	<g>
		<title>kac</title>
		<polygon class="kac" points="1,16 1,16 1,1 18,31 1,61 1,46 1,46" fill="rgb(210,250,218)" fill-opacity="1.0" stroke="rgb(84,100,87)" stroke-width="1" />
		<g>
			<title>PF00583</title>
			<polygon class="PF00583" points="3,18 8,18 14,28 14,34 8,44 3,44" stroke-linejoin="round" width="11" height="26" fill="rgb(121,183,50)" stroke="rgb(96,146,39)" stroke-width="1" opacity="0.75" />
		</g>
	</g>
	<g>
		<polygon class="NoName" points="664,16 675,16 675,1 705,31 675,61 675,46 664,46" fill="rgb(255,255,255)" fill-opacity="1.0" stroke="rgb(50,50,50)" stroke-width="1" />
		<g>
			<title>PF13579</title>
			<rect class="PF13579" x="666" y="18" stroke-linejoin="round" width="17" height="26" fill="rgb(143,60,202)" stroke="rgb(114,47,161)" stroke-width="1" opacity="0.75" />
		</g>
		<g>
			<title>PF00534</title>
			<polygon class="PF00534" points="685,18 689,18 701,30 701,32 689,44 685,44" stroke-linejoin="round" width="16" height="26" fill="rgb(228,92,150)" stroke="rgb(182,73,119)" stroke-width="1" opacity="0.75" />
		</g>
	</g>
	<g>
		<polygon class="NoName" points="707,16 710,16 710,1 740,31 710,61 710,46 707,46" fill="rgb(255,255,255)" fill-opacity="1.0" stroke="rgb(50,50,50)" stroke-width="1" />
		<g>
			<title>PF03193</title>
			<polygon class="PF03193" points="716,18 724,18 732,26 732,36 724,44 716,44" stroke-linejoin="round" width="16" height="26" fill="rgb(89,182,98)" stroke="rgb(71,145,78)" stroke-width="1" opacity="0.75" />
		</g>
	</g>
	<g>
		<polygon class="NoName" points="742,16 742,16 742,1 755,31 742,61 742,46 742,46" fill="rgb(255,255,255)" fill-opacity="1.0" stroke="rgb(50,50,50)" stroke-width="1" />
		<g>
			<title>PF01042</title>
			<polygon class="PF01042" points="742,18 746,18 752,31 746,44 742,44" stroke-linejoin="round" width="12" height="26" fill="rgb(93,120,208)" stroke="rgb(74,96,166)" stroke-width="1" opacity="0.75" />
		</g>
	</g>
	<g>
		<polygon class="NoName" points="778,16 778,16 778,1 756,31 778,61 778,46 778,46" fill="rgb(255,255,255)" fill-opacity="1.0" stroke="rgb(50,50,50)" stroke-width="1" />
	</g>
	<g>
		<polygon class="NoName" points="787,16 816,16 816,1 846,31 816,61 816,46 787,46" fill="rgb(255,255,255)" fill-opacity="1.0" stroke="rgb(50,50,50)" stroke-width="1" />
		<g>
			<title>PF02737</title>
			<rect class="PF02737" x="787" y="18" stroke-linejoin="round" width="17" height="26" fill="rgb(212,65,199)" stroke="rgb(169,52,159)" stroke-width="1" opacity="0.75" />
		</g>
		<g>
			<title>PF00725</title>
			<rect class="PF00725" x="805" y="18" stroke-linejoin="round" width="9" height="26" fill="rgb(180,78,60)" stroke="rgb(144,62,48)" stroke-width="1" opacity="0.75" />
		</g>
		<g>
			<title>PF02737</title>
			<polygon class="PF02737" points="818,18 830,18 835,23 835,39 830,44 818,44" stroke-linejoin="round" width="17" height="26" fill="rgb(212,65,199)" stroke="rgb(169,52,159)" stroke-width="1" opacity="0.75" />
		</g>
		<g>
			<title>PF00725</title>
			<polygon class="PF00725" points="836,24 843,31 836,38" stroke-linejoin="round" width="9" height="26" fill="rgb(180,78,60)" stroke="rgb(144,62,48)" stroke-width="1" opacity="0.75" />
		</g>
	</g>
	<g>
		<polygon class="NoName" points="58,16 50,16 50,1 20,31 50,61 50,46 58,46" fill="rgb(255,255,255)" fill-opacity="1.0" stroke="rgb(50,50,50)" stroke-width="1" />
	</g>
	<g>
		<polygon class="NoName" points="78,16 78,16 78,1 59,31 78,61 78,46 78,46" fill="rgb(255,255,255)" fill-opacity="1.0" stroke="rgb(50,50,50)" stroke-width="1" />
	</g>
	<g>
		<polygon class="NoName" points="80,16 80,16 80,1 87,31 80,61 80,46 80,46" fill="rgb(255,255,255)" fill-opacity="1.0" stroke="rgb(50,50,50)" stroke-width="1" />
	</g>
	<g>
		<polygon class="NoName" points="111,16 118,16 118,1 148,31 118,61 118,46 111,46" fill="rgb(255,255,255)" fill-opacity="1.0" stroke="rgb(50,50,50)" stroke-width="1" />
		<g>
			<title>PF02195</title>
			<rect class="PF02195" x="116" y="18" stroke-linejoin="round" width="8" height="26" fill="rgb(55,214,209)" stroke="rgb(44,171,167)" stroke-width="1" opacity="0.75" />
		</g>
	</g>
	<g>
		<polygon class="NoName" points="151,16 155,16 155,1 185,31 155,61 155,46 151,46" fill="rgb(255,255,255)" fill-opacity="1.0" stroke="rgb(50,50,50)" stroke-width="1" />
		<g>
			<title>PF08240</title>
			<rect class="PF08240" x="153" y="18" stroke-linejoin="round" width="10" height="26" fill="rgb(211,65,138)" stroke="rgb(168,51,110)" stroke-width="1" opacity="0.75" />
		</g>
		<g>
			<title>PF00107</title>
			<polygon class="PF00107" points="168,18 169,18 180,29 180,33 169,44 168,44" stroke-linejoin="round" width="12" height="26" fill="rgb(81,108,215)" stroke="rgb(64,86,172)" stroke-width="1" opacity="0.75" />
		</g>
	</g>
	<g>
		<polygon class="NoName" points="189,16 200,16 200,1 230,31 200,61 200,46 189,46" fill="rgb(255,255,255)" fill-opacity="1.0" stroke="rgb(50,50,50)" stroke-width="1" />
		<g>
			<title>PF07690</title>
			<polygon class="PF07690" points="190,18 214,18 223,27 223,35 214,44 190,44" stroke-linejoin="round" width="33" height="26" fill="rgb(193,224,74)" stroke="rgb(154,179,59)" stroke-width="1" opacity="0.75" />
		</g>
	</g>
	<g>
		<polygon class="NoName" points="231,16 240,16 240,1 270,31 240,61 240,46 231,46" fill="rgb(255,255,255)" fill-opacity="1.0" stroke="rgb(50,50,50)" stroke-width="1" />
		<g>
			<title>PF00202</title>
			<polygon class="PF00202" points="233,18 254,18 267,31 254,44 233,44" stroke-linejoin="round" width="36" height="26" fill="rgb(49,163,189)" stroke="rgb(39,130,151)" stroke-width="1" opacity="0.75" />
		</g>
	</g>
	<g>
		<polygon class="NoName" points="270,16 290,16 290,1 320,31 290,61 290,46 270,46" fill="rgb(255,255,255)" fill-opacity="1.0" stroke="rgb(50,50,50)" stroke-width="1" />
		<g>
			<title>PF00732</title>
			<rect class="PF00732" x="271" y="18" stroke-linejoin="round" width="27" height="26" fill="rgb(180,89,214)" stroke="rgb(143,71,171)" stroke-width="1" opacity="0.75" />
		</g>
		<g>
			<title>PF05199</title>
			<polygon class="PF05199" points="308,22 317,31 308,40" stroke-linejoin="round" width="12" height="26" fill="rgb(186,52,106)" stroke="rgb(148,41,84)" stroke-width="1" opacity="0.75" />
		</g>
	</g>
</svg>
