<svg version="1.1" baseProfile="full" xmlns="http://www.w3.org/2000/svg" width="595" height="62">
	<line x1="1" y1="31" x2="594" y2="31" style="stroke:rgb(50,50,50); stroke-width:3 "/>
	<g>
		<title>ppzV</title>
		<polygon class="ppzV" points="337,16 337,16 337,1 317,31 337,61 337,46 337,46" fill="rgb(250,228,204)" fill-opacity="1.0" stroke="rgb(100,91,81)" stroke-width="1" />
	</g>
	<g>
		<title>ppzM</title>
		<polygon class="ppzM" points="375,16 371,16 371,1 341,31 371,61 371,46 375,46" fill="rgb(251,229,206)" fill-opacity="1.0" stroke="rgb(100,91,82)" stroke-width="1" />
		<g>
			<title>PF00891</title>
			<polygon class="PF00891" points="343,31 356,18 364,18 364,44 356,44" stroke-linejoin="round" width="22" height="26" fill="rgb(50,51,190)" stroke="rgb(39,40,152)" stroke-width="1" opacity="0.75" />
		</g>
		<g>
			<title>PF16864</title>
			<rect class="PF16864" x="366" y="18" stroke-linejoin="round" width="7" height="26" fill="rgb(84,199,85)" stroke="rgb(67,159,68)" stroke-width="1" opacity="0.75" />
		</g>
	</g>
	<g>
		<title>ppzB</title>
		<polygon class="ppzB" points="393,16 393,16 393,1 377,31 393,61 393,46 393,46" fill="rgb(250,206,190)" fill-opacity="1.0" stroke="rgb(100,82,76)" stroke-width="1" />
		<g>
			<title>PF03284</title>
			<polygon class="PF03284" points="379,31 386,18 392,18 392,44 386,44" stroke-linejoin="round" width="15" height="26" fill="rgb(179,85,75)" stroke="rgb(143,68,60)" stroke-width="1" opacity="0.75" />
		</g>
	</g>
	<g>
		<title>ppzG</title>
		<polygon class="ppzG" points="418,16 418,16 418,1 395,31 418,61 418,46 418,46" fill="rgb(253,190,206)" fill-opacity="1.0" stroke="rgb(101,76,82)" stroke-width="1" />
		<g>
			<title>PF10590</title>
			<polygon class="PF10590" points="397,31 399,29 399,32" stroke-linejoin="round" width="4" height="26" fill="rgb(86,221,142)" stroke="rgb(68,176,113)" stroke-width="1" opacity="0.75" />
		</g>
		<g>
			<title>PF01243</title>
			<polygon class="PF01243" points="404,22 407,18 413,18 413,44 407,44 404,39" stroke-linejoin="round" width="9" height="26" fill="rgb(177,193,67)" stroke="rgb(141,154,53)" stroke-width="1" opacity="0.75" />
		</g>
	</g>
	<g>
		<title>ppzF</title>
		<polygon class="ppzF" points="446,16 446,16 446,1 418,31 446,61 446,46 446,46" fill="rgb(180,214,250)" fill-opacity="1.0" stroke="rgb(72,85,100)" stroke-width="1" />
		<g>
			<title>PF02567</title>
			<polygon class="PF02567" points="420,31 432,18 444,18 444,44 432,44" stroke-linejoin="round" width="26" height="26" fill="rgb(223,91,96)" stroke="rgb(178,72,76)" stroke-width="1" opacity="0.75" />
		</g>
	</g>
	<g>
		<title>ppzE</title>
		<polygon class="ppzE" points="513,16 479,16 479,1 449,31 479,61 479,46 513,46" fill="rgb(230,197,252)" fill-opacity="1.0" stroke="rgb(92,78,100)" stroke-width="1" />
		<g>
			<title>PF00117</title>
			<polygon class="PF00117" points="451,31 464,18 468,18 468,44 464,44" stroke-linejoin="round" width="18" height="26" fill="rgb(159,201,96)" stroke="rgb(127,160,76)" stroke-width="1" opacity="0.75" />
		</g>
		<g>
			<title>PF00425</title>
			<rect class="PF00425" x="474" y="18" stroke-linejoin="round" width="26" height="26" fill="rgb(188,116,88)" stroke="rgb(150,92,70)" stroke-width="1" opacity="0.75" />
		</g>
	</g>
	<g>
		<title>ppzD</title>
		<polygon class="ppzD" points="534,16 534,16 534,1 514,31 534,61 534,46 534,46" fill="rgb(198,199,252)" fill-opacity="1.0" stroke="rgb(79,79,100)" stroke-width="1" />
		<g>
			<title>PF00857</title>
			<polygon class="PF00857" points="516,31 525,18 531,18 531,44 525,44" stroke-linejoin="round" width="17" height="26" fill="rgb(144,224,70)" stroke="rgb(115,179,56)" stroke-width="1" opacity="0.75" />
		</g>
	</g>
	<g>
		<title>ppzC</title>
		<polygon class="ppzC" points="576,16 567,16 567,1 537,31 567,61 567,46 576,46" fill="rgb(250,212,187)" fill-opacity="1.0" stroke="rgb(100,84,74)" stroke-width="1" />
		<g>
			<title>PF01474</title>
			<polygon class="PF01474" points="539,31 552,18 560,18 560,44 552,44" stroke-linejoin="round" width="23" height="26" fill="rgb(126,217,84)" stroke="rgb(100,173,67)" stroke-width="1" opacity="0.75" />
		</g>
		<g>
			<title>PF01474</title>
			<rect class="PF01474" x="559" y="18" stroke-linejoin="round" width="16" height="26" fill="rgb(126,217,84)" stroke="rgb(100,173,67)" stroke-width="1" opacity="0.75" />
		</g>
	</g>
	<g>
		<title>ppzA</title>
		<polygon class="ppzA" points="594,16 594,16 594,1 578,31 594,61 594,46 594,46" fill="rgb(227,195,254)" fill-opacity="1.0" stroke="rgb(90,77,101)" stroke-width="1" />
		<g>
			<title>PF03284</title>
			<polygon class="PF03284" points="580,31 587,18 593,18 593,44 587,44" stroke-linejoin="round" width="15" height="26" fill="rgb(179,85,75)" stroke="rgb(143,68,60)" stroke-width="1" opacity="0.75" />
		</g>
	</g>
	<g>
		<title>ppzP</title>
		<polygon class="ppzP" points="1,16 1,16 1,1 31,31 1,61 1,46 1,46" fill="rgb(250,226,213)" fill-opacity="1.0" stroke="rgb(100,90,85)" stroke-width="1" />
		<g>
			<title>PF11468</title>
			<polygon class="PF11468" points="1,18 15,18 28,31 15,44 1,44" stroke-linejoin="round" width="29" height="26" fill="rgb(121,52,185)" stroke="rgb(96,41,148)" stroke-width="1" opacity="0.75" />
		</g>
	</g>
	<g>
		<title>mk</title>
		<polygon class="mk" points="34,16 38,16 38,1 68,31 38,61 38,46 34,46" fill="rgb(183,197,250)" fill-opacity="1.0" stroke="rgb(73,78,100)" stroke-width="1" />
		<g>
			<title>PF00288</title>
			<rect class="PF00288" x="45" y="18" stroke-linejoin="round" width="6" height="26" fill="rgb(190,54,91)" stroke="rgb(152,43,72)" stroke-width="1" opacity="0.75" />
		</g>
		<g>
			<title>PF08544</title>
			<polygon class="PF08544" points="58,24 65,31 58,38" stroke-linejoin="round" width="8" height="26" fill="rgb(95,112,219)" stroke="rgb(76,89,175)" stroke-width="1" opacity="0.75" />
		</g>
	</g>
	<g>
		<title>mdpd</title>
		<polygon class="mdpd" points="68,16 73,16 73,1 103,31 73,61 73,46 68,46" fill="rgb(254,240,203)" fill-opacity="1.0" stroke="rgb(101,96,81)" stroke-width="1" />
		<g>
			<title>PF00288</title>
			<rect class="PF00288" x="78" y="18" stroke-linejoin="round" width="6" height="26" fill="rgb(190,54,91)" stroke="rgb(152,43,72)" stroke-width="1" opacity="0.75" />
		</g>
	</g>
	<g>
		<title>pmk</title>
		<polygon class="pmk" points="103,16 110,16 110,1 140,31 110,61 110,46 103,46" fill="rgb(251,225,199)" fill-opacity="1.0" stroke="rgb(100,90,79)" stroke-width="1" />
		<g>
			<title>PF00288</title>
			<rect class="PF00288" x="114" y="18" stroke-linejoin="round" width="7" height="26" fill="rgb(190,54,91)" stroke="rgb(152,43,72)" stroke-width="1" opacity="0.75" />
		</g>
		<g>
			<title>PF08544</title>
			<polygon class="PF08544" points="129,23 137,31 137,31 129,39" stroke-linejoin="round" width="8" height="26" fill="rgb(95,112,219)" stroke="rgb(76,89,175)" stroke-width="1" opacity="0.75" />
		</g>
	</g>
	<g>
		<title>ippi</title>
		<polygon class="ippi" points="140,16 146,16 146,1 176,31 146,61 146,46 140,46" fill="rgb(202,252,252)" fill-opacity="1.0" stroke="rgb(80,100,100)" stroke-width="1" />
		<g>
			<title>PF01070</title>
			<rect class="PF01070" x="140" y="18" stroke-linejoin="round" width="11" height="26" fill="rgb(59,82,204)" stroke="rgb(47,65,163)" stroke-width="1" opacity="0.75" />
		</g>
		<g>
			<title>PF01070</title>
			<polygon class="PF01070" points="150,18 160,18 171,29 171,33 160,44 150,44" stroke-linejoin="round" width="21" height="26" fill="rgb(59,82,204)" stroke="rgb(47,65,163)" stroke-width="1" opacity="0.75" />
		</g>
	</g>
	<g>
		<title>hmgr</title>
		<polygon class="hmgr" points="177,16 182,16 182,1 212,31 182,61 182,46 177,46" fill="rgb(253,209,220)" fill-opacity="1.0" stroke="rgb(101,83,88)" stroke-width="1" />
		<g>
			<title>PF00368</title>
			<polygon class="PF00368" points="177,18 196,18 209,31 196,44 177,44" stroke-linejoin="round" width="33" height="26" fill="rgb(67,203,137)" stroke="rgb(53,162,109)" stroke-width="1" opacity="0.75" />
		</g>
	</g>
	<g>
		<title>hmgs</title>
		<polygon class="hmgs" points="212,16 221,16 221,1 251,31 221,61 221,46 212,46" fill="rgb(195,231,251)" fill-opacity="1.0" stroke="rgb(78,92,100)" stroke-width="1" />
		<g>
			<title>PF01154</title>
			<rect class="PF01154" x="212" y="18" stroke-linejoin="round" width="16" height="26" fill="rgb(88,216,218)" stroke="rgb(70,172,174)" stroke-width="1" opacity="0.75" />
		</g>
		<g>
			<title>PF08540</title>
			<polygon class="PF08540" points="238,21 247,30 247,32 238,41" stroke-linejoin="round" width="9" height="26" fill="rgb(49,194,86)" stroke="rgb(39,155,68)" stroke-width="1" opacity="0.75" />
		</g>
	</g>
	<g>
		<title>ppzT</title>
		<polygon class="ppzT" points="253,16 255,16 255,1 285,31 255,61 255,46 253,46" fill="rgb(177,250,201)" fill-opacity="1.0" stroke="rgb(70,100,80)" stroke-width="1" />
		<g>
			<title>PF08545</title>
			<polygon class="PF08545" points="263,18 269,18 270,19 270,43 269,44 263,44" stroke-linejoin="round" width="7" height="26" fill="rgb(189,102,84)" stroke="rgb(151,81,67)" stroke-width="1" opacity="0.75" />
		</g>
		<g>
			<title>PF08541</title>
			<polygon class="PF08541" points="276,25 282,31 276,37" stroke-linejoin="round" width="8" height="26" fill="rgb(146,207,81)" stroke="rgb(116,165,64)" stroke-width="1" opacity="0.75" />
		</g>
	</g>
	<g>
		<title>ppzU</title>
		<polygon class="ppzU" points="288,16 288,16 288,1 312,31 288,61 288,46 288,46" fill="rgb(207,216,251)" fill-opacity="1.0" stroke="rgb(82,86,100)" stroke-width="1" />
		<g>
			<title>PF03358</title>
			<polygon class="PF03358" points="290,18 299,18 305,26 305,36 299,44 290,44" stroke-linejoin="round" width="15" height="26" fill="rgb(90,228,61)" stroke="rgb(72,182,48)" stroke-width="1" opacity="0.75" />
		</g>
	</g>
</svg>
