<svg version="1.1" baseProfile="full" xmlns="http://www.w3.org/2000/svg" width="617" height="62">
	<line x1="1" y1="31" x2="616" y2="31" style="stroke:rgb(50,50,50); stroke-width:3 "/>
	<g>
		<polygon class="NoName" points="483,16 508,16 508,1 538,31 508,61 508,46 483,46" fill="rgb(255,255,255)" fill-opacity="1.0" stroke="rgb(50,50,50)" stroke-width="1" />
		<g>
			<title>PF00282</title>
			<rect class="PF00282" x="487" y="18" stroke-linejoin="round" width="23" height="26" fill="rgb(100,218,166)" stroke="rgb(80,174,132)" stroke-width="1" opacity="0.75" />
		</g>
		<g>
			<title>PF00282</title>
			<polygon class="PF00282" points="512,18 522,18 524,20 524,42 522,44 512,44" stroke-linejoin="round" width="12" height="26" fill="rgb(100,218,166)" stroke="rgb(80,174,132)" stroke-width="1" opacity="0.75" />
		</g>
	</g>
	<g>
		<polygon class="NoName" points="575,16 575,16 575,1 546,31 575,61 575,46 575,46" fill="rgb(255,255,255)" fill-opacity="1.0" stroke="rgb(50,50,50)" stroke-width="1" />
		<g>
			<title>PF05368</title>
			<polygon class="PF05368" points="552,27 561,18 573,18 573,44 561,44 552,34" stroke-linejoin="round" width="21" height="26" fill="rgb(97,49,192)" stroke="rgb(77,39,153)" stroke-width="1" opacity="0.75" />
		</g>
	</g>
	<g>
		<polygon class="NoName" points="596,16 596,16 596,1 575,31 596,61 596,46 596,46" fill="rgb(255,255,255)" fill-opacity="1.0" stroke="rgb(50,50,50)" stroke-width="1" />
	</g>
	<g>
		<polygon class="NoName" points="616,16 616,16 616,1 598,31 616,61 616,46 616,46" fill="rgb(255,255,255)" fill-opacity="1.0" stroke="rgb(50,50,50)" stroke-width="1" />
		<g>
			<title>PF00440</title>
			<rect class="PF00440" x="609" y="18" stroke-linejoin="round" width="4" height="26" fill="rgb(73,212,190)" stroke="rgb(58,169,152)" stroke-width="1" opacity="0.75" />
		</g>
	</g>
	<g>
		<polygon class="NoName" points="1,16 95,16 95,1 125,31 95,61 95,46 1,46" fill="rgb(255,255,255)" fill-opacity="1.0" stroke="rgb(50,50,50)" stroke-width="1" />
		<g>
			<title>PF00384</title>
			<rect class="PF00384" x="13" y="18" stroke-linejoin="round" width="72" height="26" fill="rgb(65,194,78)" stroke="rgb(52,155,62)" stroke-width="1" opacity="0.75" />
		</g>
		<g>
			<title>PF01568</title>
			<polygon class="PF01568" points="111,20 122,31 122,31 111,42" stroke-linejoin="round" width="11" height="26" fill="rgb(184,132,64)" stroke="rgb(147,105,51)" stroke-width="1" opacity="0.75" />
		</g>
	</g>
	<g>
		<polygon class="NoName" points="130,16 157,16 157,1 187,31 157,61 157,46 130,46" fill="rgb(255,255,255)" fill-opacity="1.0" stroke="rgb(50,50,50)" stroke-width="1" />
		<g>
			<title>PF13247</title>
			<rect class="PF13247" x="148" y="18" stroke-linejoin="round" width="9" height="26" fill="rgb(61,193,49)" stroke="rgb(48,154,39)" stroke-width="1" opacity="0.75" />
		</g>
		<g>
			<title>PF14711</title>
			<polygon class="PF14711" points="166,18 171,18 174,21 174,41 171,44 166,44" stroke-linejoin="round" width="8" height="26" fill="rgb(203,122,62)" stroke="rgb(162,97,49)" stroke-width="1" opacity="0.75" />
		</g>
	</g>
	<g>
		<polygon class="NoName" points="195,16 195,16 195,1 211,31 195,61 195,46 195,46" fill="rgb(255,255,255)" fill-opacity="1.0" stroke="rgb(50,50,50)" stroke-width="1" />
		<g>
			<title>PF02613</title>
			<polygon class="PF02613" points="195,18 201,18 205,25 205,37 201,44 195,44" stroke-linejoin="round" width="10" height="26" fill="rgb(193,50,184)" stroke="rgb(154,39,147)" stroke-width="1" opacity="0.75" />
		</g>
	</g>
	<g>
		<polygon class="NoName" points="211,16 211,16 211,1 235,31 211,61 211,46 211,46" fill="rgb(255,255,255)" fill-opacity="1.0" stroke="rgb(50,50,50)" stroke-width="1" />
		<g>
			<title>PF02665</title>
			<polygon class="PF02665" points="211,18 222,18 232,31 222,44 211,44" stroke-linejoin="round" width="22" height="26" fill="rgb(227,87,116)" stroke="rgb(181,69,92)" stroke-width="1" opacity="0.75" />
		</g>
	</g>
	<g>
		<polygon class="NoName" points="242,16 263,16 263,1 293,31 263,61 263,46 242,46" fill="rgb(255,255,255)" fill-opacity="1.0" stroke="rgb(50,50,50)" stroke-width="1" />
		<g>
			<title>PF13450</title>
			<rect class="PF13450" x="245" y="18" stroke-linejoin="round" width="6" height="26" fill="rgb(91,180,227)" stroke="rgb(72,144,181)" stroke-width="1" opacity="0.75" />
		</g>
	</g>
	<g>
		<polygon class="NoName" points="359,16 325,16 325,1 295,31 325,61 325,46 359,46" fill="rgb(255,255,255)" fill-opacity="1.0" stroke="rgb(50,50,50)" stroke-width="1" />
		<g>
			<title>PF00144</title>
			<rect class="PF00144" x="320" y="18" stroke-linejoin="round" width="32" height="26" fill="rgb(92,159,200)" stroke="rgb(73,127,160)" stroke-width="1" opacity="0.75" />
		</g>
	</g>
	<g>
		<polygon class="NoName" points="362,16 362,16 362,1 385,31 362,61 362,46 362,46" fill="rgb(255,255,255)" fill-opacity="1.0" stroke="rgb(50,50,50)" stroke-width="1" />
		<g>
			<title>PF00440</title>
			<rect class="PF00440" x="363" y="18" stroke-linejoin="round" width="4" height="26" fill="rgb(73,212,190)" stroke="rgb(58,169,152)" stroke-width="1" opacity="0.75" />
		</g>
		<g>
			<title>PF13977</title>
			<polygon class="PF13977" points="370,18 372,18 379,27 379,35 372,44 370,44" stroke-linejoin="round" width="9" height="26" fill="rgb(99,210,174)" stroke="rgb(79,168,139)" stroke-width="1" opacity="0.75" />
		</g>
		<g>
			<title>PF13977</title>
			<polygon class="PF13977" points="378,26 382,31 378,36" stroke-linejoin="round" width="6" height="26" fill="rgb(99,210,174)" stroke="rgb(79,168,139)" stroke-width="1" opacity="0.75" />
		</g>
	</g>
	<g>
		<polygon class="NoName" points="397,16 416,16 416,1 446,31 416,61 416,46 397,46" fill="rgb(255,255,255)" fill-opacity="1.0" stroke="rgb(50,50,50)" stroke-width="1" />
		<g>
			<title>PF00501</title>
			<polygon class="PF00501" points="397,18 430,18 436,24 436,38 430,44 397,44" stroke-linejoin="round" width="39" height="26" fill="rgb(60,217,223)" stroke="rgb(48,173,178)" stroke-width="1" opacity="0.75" />
		</g>
		<g>
			<title>PF13193</title>
			<polygon class="PF13193" points="437,25 443,31 437,37" stroke-linejoin="round" width="7" height="26" fill="rgb(182,50,118)" stroke="rgb(145,39,94)" stroke-width="1" opacity="0.75" />
		</g>
	</g>
	<g>
		<polygon class="NoName" points="449,16 450,16 450,1 480,31 450,61 450,46 449,46" fill="rgb(255,255,255)" fill-opacity="1.0" stroke="rgb(50,50,50)" stroke-width="1" />
	</g>
</svg>
