<svg version="1.1" baseProfile="full" xmlns="http://www.w3.org/2000/svg" width="866" height="62">
	<line x1="1" y1="31" x2="865" y2="31" style="stroke:rgb(50,50,50); stroke-width:3 "/>
	<g>
		<title>cheC</title>
		<polygon class="cheC" points="1,16 44,16 44,1 74,31 44,61 44,46 1,46" fill="rgb(222,254,185)" fill-opacity="1.0" stroke="rgb(88,101,74)" stroke-width="1" />
		<g>
			<title>PF04082</title>
			<rect class="PF04082" x="24" y="18" stroke-linejoin="round" width="25" height="26" fill="rgb(51,172,200)" stroke="rgb(40,137,160)" stroke-width="1" opacity="0.75" />
		</g>
	</g>
	<g>
		<title>cheB</title>
		<polygon class="cheB" points="122,16 113,16 113,1 83,31 113,61 113,46 122,46" fill="rgb(252,182,187)" fill-opacity="1.0" stroke="rgb(100,72,74)" stroke-width="1" />
		<g>
			<title>PF08240</title>
			<rect class="PF08240" x="112" y="18" stroke-linejoin="round" width="6" height="26" fill="rgb(211,65,138)" stroke="rgb(168,51,110)" stroke-width="1" opacity="0.75" />
		</g>
	</g>
	<g>
		<title>cheA</title>
		<polygon class="cheA" points="140,16 511,16 511,1 541,31 511,61 511,46 140,46" fill="rgb(252,204,198)" fill-opacity="1.0" stroke="rgb(100,81,79)" stroke-width="1" />
		<g>
			<title>PF00109</title>
			<rect class="PF00109" x="140" y="18" stroke-linejoin="round" width="25" height="26" fill="rgb(112,116,228)" stroke="rgb(89,92,182)" stroke-width="1" opacity="0.75" />
		</g>
		<g>
			<title>PF02801</title>
			<rect class="PF02801" x="166" y="18" stroke-linejoin="round" width="12" height="26" fill="rgb(215,78,102)" stroke="rgb(172,62,81)" stroke-width="1" opacity="0.75" />
		</g>
		<g>
			<title>PF16197</title>
			<rect class="PF16197" x="179" y="18" stroke-linejoin="round" width="11" height="26" fill="rgb(68,179,89)" stroke="rgb(54,143,71)" stroke-width="1" opacity="0.75" />
		</g>
		<g>
			<title>PF00698</title>
			<rect class="PF00698" x="195" y="18" stroke-linejoin="round" width="33" height="26" fill="rgb(59,176,209)" stroke="rgb(47,140,167)" stroke-width="1" opacity="0.75" />
		</g>
		<g>
			<title>PF14765</title>
			<rect class="PF14765" x="234" y="18" stroke-linejoin="round" width="29" height="26" fill="rgb(173,56,182)" stroke="rgb(138,44,145)" stroke-width="1" opacity="0.75" />
		</g>
		<g>
			<title>PF08242</title>
			<rect class="PF08242" x="282" y="18" stroke-linejoin="round" width="10" height="26" fill="rgb(187,59,115)" stroke="rgb(149,47,92)" stroke-width="1" opacity="0.75" />
		</g>
		<g>
			<title>PF08659</title>
			<rect class="PF08659" x="350" y="18" stroke-linejoin="round" width="17" height="26" fill="rgb(66,209,188)" stroke="rgb(52,167,150)" stroke-width="1" opacity="0.75" />
		</g>
		<g>
			<title>PF00550</title>
			<rect class="PF00550" x="379" y="18" stroke-linejoin="round" width="6" height="26" fill="rgb(103,191,88)" stroke="rgb(82,152,70)" stroke-width="1" opacity="0.75" />
		</g>
		<g>
			<title>PF00668</title>
			<rect class="PF00668" x="396" y="18" stroke-linejoin="round" width="44" height="26" fill="rgb(224,184,98)" stroke="rgb(179,147,78)" stroke-width="1" opacity="0.75" />
		</g>
		<g>
			<title>PF00501</title>
			<rect class="PF00501" x="443" y="18" stroke-linejoin="round" width="41" height="26" fill="rgb(60,217,223)" stroke="rgb(48,173,178)" stroke-width="1" opacity="0.75" />
		</g>
		<g>
			<title>PF00550</title>
			<rect class="PF00550" x="496" y="18" stroke-linejoin="round" width="6" height="26" fill="rgb(103,191,88)" stroke="rgb(82,152,70)" stroke-width="1" opacity="0.75" />
		</g>
		<g>
			<title>PF07993</title>
			<polygon class="PF07993" points="508,18 525,18 530,23 530,39 525,44 508,44" stroke-linejoin="round" width="22" height="26" fill="rgb(100,212,204)" stroke="rgb(80,169,163)" stroke-width="1" opacity="0.75" />
		</g>
	</g>
	<g>
		<title>cheD</title>
		<polygon class="cheD" points="626,16 592,16 592,1 562,31 592,61 592,46 626,46" fill="rgb(178,215,252)" fill-opacity="1.0" stroke="rgb(71,86,100)" stroke-width="1" />
		<g>
			<title>PF00067</title>
			<rect class="PF00067" x="584" y="18" stroke-linejoin="round" width="25" height="26" fill="rgb(85,216,107)" stroke="rgb(68,172,85)" stroke-width="1" opacity="0.75" />
		</g>
	</g>
	<g>
		<title>cheE</title>
		<polygon class="cheE" points="642,16 677,16 677,1 707,31 677,61 677,46 642,46" fill="rgb(235,208,251)" fill-opacity="1.0" stroke="rgb(94,83,100)" stroke-width="1" />
		<g>
			<title>PF01494</title>
			<rect class="PF01494" x="643" y="18" stroke-linejoin="round" width="37" height="26" fill="rgb(182,175,59)" stroke="rgb(145,140,47)" stroke-width="1" opacity="0.75" />
		</g>
	</g>
	<g>
		<title>cheF</title>
		<polygon class="cheF" points="792,16 741,16 741,1 711,31 741,61 741,46 792,46" fill="rgb(180,252,253)" fill-opacity="1.0" stroke="rgb(72,100,101)" stroke-width="1" />
		<g>
			<title>PF04082</title>
			<rect class="PF04082" x="738" y="18" stroke-linejoin="round" width="26" height="26" fill="rgb(51,172,200)" stroke="rgb(40,137,160)" stroke-width="1" opacity="0.75" />
		</g>
		<g>
			<title>PF00172</title>
			<rect class="PF00172" x="785" y="18" stroke-linejoin="round" width="3" height="26" fill="rgb(121,178,76)" stroke="rgb(96,142,60)" stroke-width="1" opacity="0.75" />
		</g>
	</g>
	<g>
		<title>cheG</title>
		<polygon class="cheG" points="864,16 840,16 840,1 810,31 840,61 840,46 864,46" fill="rgb(237,254,192)" fill-opacity="1.0" stroke="rgb(94,101,76)" stroke-width="1" />
		<g>
			<title>PF00067</title>
			<polygon class="PF00067" points="814,29 825,18 857,18 857,44 825,44 814,32" stroke-linejoin="round" width="43" height="26" fill="rgb(85,216,107)" stroke="rgb(68,172,85)" stroke-width="1" opacity="0.75" />
		</g>
	</g>
</svg>
