<svg version="1.1" baseProfile="full" xmlns="http://www.w3.org/2000/svg" width="535" height="62">
	<line x1="1" y1="31" x2="534" y2="31" style="stroke:rgb(50,50,50); stroke-width:3 "/>
	<g>
		<title>cerM</title>
		<polygon class="cerM" points="458,16 383,16 383,1 353,31 383,61 383,46 458,46" fill="rgb(247,254,191)" fill-opacity="1.0" stroke="rgb(98,101,76)" stroke-width="1" />
		<g>
			<title>PF05147</title>
			<polygon class="PF05147" points="355,31 368,18 387,18 387,44 368,44" stroke-linejoin="round" width="34" height="26" fill="rgb(129,182,79)" stroke="rgb(103,145,63)" stroke-width="1" opacity="0.75" />
		</g>
		<g>
			<title>PF13575</title>
			<rect class="PF13575" x="399" y="18" stroke-linejoin="round" width="37" height="26" fill="rgb(228,84,217)" stroke="rgb(182,67,173)" stroke-width="1" opacity="0.75" />
		</g>
	</g>
	<g>
		<title>cerA7</title>
		<polygon class="cerA7" points="471,16 471,16 471,1 464,31 471,61 471,46 471,46" fill="rgb(208,231,250)" fill-opacity="1.0" stroke="rgb(83,92,100)" stroke-width="1" />
		<g>
			<title>PF16934</title>
			<polygon class="PF16934" points="466,31 469,18 469,43" stroke-linejoin="round" width="5" height="26" fill="rgb(112,97,225)" stroke="rgb(89,77,180)" stroke-width="1" opacity="0.75" />
		</g>
	</g>
	<g>
		<title>cerA6</title>
		<polygon class="cerA6" points="480,16 480,16 480,1 473,31 480,61 480,46 480,46" fill="rgb(195,186,250)" fill-opacity="1.0" stroke="rgb(78,74,100)" stroke-width="1" />
		<g>
			<title>PF16934</title>
			<polygon class="PF16934" points="475,31 478,18 478,43" stroke-linejoin="round" width="5" height="26" fill="rgb(112,97,225)" stroke="rgb(89,77,180)" stroke-width="1" opacity="0.75" />
		</g>
	</g>
	<g>
		<title>cerA5</title>
		<polygon class="cerA5" points="489,16 489,16 489,1 482,31 489,61 489,46 489,46" fill="rgb(183,220,254)" fill-opacity="1.0" stroke="rgb(73,87,101)" stroke-width="1" />
		<g>
			<title>PF16934</title>
			<polygon class="PF16934" points="484,31 487,18 487,43" stroke-linejoin="round" width="5" height="26" fill="rgb(112,97,225)" stroke="rgb(89,77,180)" stroke-width="1" opacity="0.75" />
		</g>
	</g>
	<g>
		<title>cerA4</title>
		<polygon class="cerA4" points="497,16 497,16 497,1 490,31 497,61 497,46 497,46" fill="rgb(252,201,247)" fill-opacity="1.0" stroke="rgb(100,80,98)" stroke-width="1" />
		<g>
			<title>PF16934</title>
			<polygon class="PF16934" points="492,31 495,18 495,43" stroke-linejoin="round" width="5" height="26" fill="rgb(112,97,225)" stroke="rgb(89,77,180)" stroke-width="1" opacity="0.75" />
		</g>
	</g>
	<g>
		<title>cerA3</title>
		<polygon class="cerA3" points="506,16 506,16 506,1 499,31 506,61 506,46 506,46" fill="rgb(180,188,250)" fill-opacity="1.0" stroke="rgb(72,75,100)" stroke-width="1" />
		<g>
			<title>PF16934</title>
			<polygon class="PF16934" points="501,31 504,18 504,43" stroke-linejoin="round" width="5" height="26" fill="rgb(112,97,225)" stroke="rgb(89,77,180)" stroke-width="1" opacity="0.75" />
		</g>
	</g>
	<g>
		<title>cerA2</title>
		<polygon class="cerA2" points="515,16 515,16 515,1 508,31 515,61 515,46 515,46" fill="rgb(193,251,178)" fill-opacity="1.0" stroke="rgb(77,100,71)" stroke-width="1" />
		<g>
			<title>PF16934</title>
			<polygon class="PF16934" points="510,31 513,18 513,43" stroke-linejoin="round" width="5" height="26" fill="rgb(112,97,225)" stroke="rgb(89,77,180)" stroke-width="1" opacity="0.75" />
		</g>
	</g>
	<g>
		<title>cerA1</title>
		<polygon class="cerA1" points="524,16 524,16 524,1 517,31 524,61 524,46 524,46" fill="rgb(254,205,248)" fill-opacity="1.0" stroke="rgb(101,82,99)" stroke-width="1" />
		<g>
			<title>PF16934</title>
			<polygon class="PF16934" points="519,31 522,18 522,43" stroke-linejoin="round" width="5" height="26" fill="rgb(112,97,225)" stroke="rgb(89,77,180)" stroke-width="1" opacity="0.75" />
		</g>
	</g>
	<g>
		<title>cerE</title>
		<polygon class="cerE" points="41,16 31,16 31,1 1,31 31,61 31,46 41,46" fill="rgb(247,251,180)" fill-opacity="1.0" stroke="rgb(98,100,72)" stroke-width="1" />
		<g>
			<title>PF12698</title>
			<polygon class="PF12698" points="3,31 16,18 39,18 39,44 16,44" stroke-linejoin="round" width="36" height="26" fill="rgb(151,189,55)" stroke="rgb(120,151,44)" stroke-width="1" opacity="0.75" />
		</g>
	</g>
	<g>
		<title>cerF</title>
		<polygon class="cerF" points="70,16 70,16 70,1 41,31 70,61 70,46 70,46" fill="rgb(251,210,204)" fill-opacity="1.0" stroke="rgb(100,84,81)" stroke-width="1" />
		<g>
			<title>PF13732</title>
			<polygon class="PF13732" points="43,31 49,25 49,36" stroke-linejoin="round" width="8" height="26" fill="rgb(100,223,143)" stroke="rgb(80,178,114)" stroke-width="1" opacity="0.75" />
		</g>
		<g>
			<title>PF00005</title>
			<polygon class="PF00005" points="54,20 56,18 68,18 68,44 56,44 54,41" stroke-linejoin="round" width="14" height="26" fill="rgb(129,201,63)" stroke="rgb(103,160,50)" stroke-width="1" opacity="0.75" />
		</g>
	</g>
	<g>
		<title>cerP</title>
		<polygon class="cerP" points="123,16 104,16 104,1 74,31 104,61 104,46 123,46" fill="rgb(185,219,250)" fill-opacity="1.0" stroke="rgb(73,87,100)" stroke-width="1" />
		<g>
			<title>PF00082</title>
			<polygon class="PF00082" points="76,31 89,18 106,18 106,44 89,44" stroke-linejoin="round" width="31" height="26" fill="rgb(193,159,94)" stroke="rgb(154,127,75)" stroke-width="1" opacity="0.75" />
		</g>
	</g>
	<g>
		<title>cerT</title>
		<polygon class="cerT" points="194,16 153,16 153,1 123,31 153,61 153,46 194,46" fill="rgb(209,252,223)" fill-opacity="1.0" stroke="rgb(83,100,89)" stroke-width="1" />
		<g>
			<title>PF00005</title>
			<polygon class="PF00005" points="131,25 138,18 145,18 145,44 138,44 131,36" stroke-linejoin="round" width="14" height="26" fill="rgb(129,201,63)" stroke="rgb(103,160,50)" stroke-width="1" opacity="0.75" />
		</g>
		<g>
			<title>PF00664</title>
			<rect class="PF00664" x="152" y="18" stroke-linejoin="round" width="27" height="26" fill="rgb(149,226,73)" stroke="rgb(119,180,58)" stroke-width="1" opacity="0.75" />
		</g>
		<g>
			<title>PF03412</title>
			<rect class="PF03412" x="181" y="18" stroke-linejoin="round" width="13" height="26" fill="rgb(214,226,77)" stroke="rgb(171,180,61)" stroke-width="1" opacity="0.75" />
		</g>
	</g>
	<g>
		<title>cerR</title>
		<polygon class="cerR" points="203,16 203,16 203,1 195,31 203,61 203,46 203,46" fill="rgb(253,236,187)" fill-opacity="1.0" stroke="rgb(101,94,74)" stroke-width="1" />
		<g>
			<title>PF00196</title>
			<polygon class="PF00196" points="197,31 200,18 202,18 202,44 200,44" stroke-linejoin="round" width="5" height="26" fill="rgb(219,94,82)" stroke="rgb(175,75,65)" stroke-width="1" opacity="0.75" />
		</g>
	</g>
	<g>
		<title>comQ</title>
		<polygon class="comQ" points="213,16 214,16 214,1 244,31 214,61 214,46 213,46" fill="rgb(213,241,254)" fill-opacity="1.0" stroke="rgb(85,96,101)" stroke-width="1" />
		<g>
			<title>PF00348</title>
			<polygon class="PF00348" points="216,18 228,18 239,29 239,33 228,44 216,44" stroke-linejoin="round" width="23" height="26" fill="rgb(61,206,65)" stroke="rgb(48,164,52)" stroke-width="1" opacity="0.75" />
		</g>
	</g>
	<g>
		<title>comX</title>
		<polygon class="comX" points="249,16 249,16 249,1 244,31 249,61 249,46 249,46" fill="rgb(191,251,253)" fill-opacity="1.0" stroke="rgb(76,100,101)" stroke-width="1" />
	</g>
	<g>
		<title>comP</title>
		<polygon class="comP" points="253,16 300,16 300,1 330,31 300,61 300,46 253,46" fill="rgb(212,245,252)" fill-opacity="1.0" stroke="rgb(84,98,100)" stroke-width="1" />
		<g>
			<title>PF07730</title>
			<polygon class="PF07730" points="310,18 314,18 316,20 316,42 314,44 310,44" stroke-linejoin="round" width="6" height="26" fill="rgb(190,53,146)" stroke="rgb(152,42,116)" stroke-width="1" opacity="0.75" />
		</g>
		<g>
			<title>PF02518</title>
			<polygon class="PF02518" points="320,24 327,31 320,38" stroke-linejoin="round" width="9" height="26" fill="rgb(80,94,225)" stroke="rgb(64,75,180)" stroke-width="1" opacity="0.75" />
		</g>
	</g>
	<g>
		<title>comA</title>
		<polygon class="comA" points="330,16 330,16 330,1 351,31 330,61 330,46 330,46" fill="rgb(250,220,196)" fill-opacity="1.0" stroke="rgb(100,88,78)" stroke-width="1" />
		<g>
			<title>PF00072</title>
			<polygon class="PF00072" points="330,18 339,18 341,21 341,41 339,44 330,44" stroke-linejoin="round" width="11" height="26" fill="rgb(100,107,203)" stroke="rgb(80,85,162)" stroke-width="1" opacity="0.75" />
		</g>
		<g>
			<title>PF00196</title>
			<polygon class="PF00196" points="345,26 348,31 345,36" stroke-linejoin="round" width="5" height="26" fill="rgb(219,94,82)" stroke="rgb(175,75,65)" stroke-width="1" opacity="0.75" />
		</g>
	</g>
</svg>
