<svg version="1.1" baseProfile="full" xmlns="http://www.w3.org/2000/svg" width="1991" height="62">
	<line x1="1" y1="31" x2="1990" y2="31" style="stroke:rgb(50,50,50); stroke-width:3 "/>
	<g>
		<polygon class="NoName" points="709,16 728,16 728,1 758,31 728,61 728,46 709,46" fill="rgb(255,255,255)" fill-opacity="1.0" stroke="rgb(50,50,50)" stroke-width="1" />
	</g>
	<g>
		<polygon class="NoName" points="778,16 785,16 785,1 815,31 785,61 785,46 778,46" fill="rgb(255,255,255)" fill-opacity="1.0" stroke="rgb(50,50,50)" stroke-width="1" />
		<g>
			<title>PF10014</title>
			<polygon class="PF10014" points="789,18 799,18 810,29 810,33 799,44 789,44" stroke-linejoin="round" width="21" height="26" fill="rgb(201,88,89)" stroke="rgb(160,70,71)" stroke-width="1" opacity="0.75" />
		</g>
	</g>
	<g>
		<polygon class="NoName" points="908,16 881,16 881,1 851,31 881,61 881,46 908,46" fill="rgb(255,255,255)" fill-opacity="1.0" stroke="rgb(50,50,50)" stroke-width="1" />
		<g>
			<title>PF08031</title>
			<polygon class="PF08031" points="859,25 863,21 863,40 859,36" stroke-linejoin="round" width="4" height="26" fill="rgb(210,73,83)" stroke="rgb(168,58,66)" stroke-width="1" opacity="0.75" />
		</g>
		<g>
			<title>PF01565</title>
			<rect class="PF01565" x="888" y="18" stroke-linejoin="round" width="13" height="26" fill="rgb(226,88,136)" stroke="rgb(180,70,108)" stroke-width="1" opacity="0.75" />
		</g>
	</g>
	<g>
		<polygon class="NoName" points="986,16 965,16 965,1 935,31 965,61 965,46 986,46" fill="rgb(255,255,255)" fill-opacity="1.0" stroke="rgb(50,50,50)" stroke-width="1" />
		<g>
			<title>PF01494</title>
			<polygon class="PF01494" points="948,20 950,18 984,18 984,44 950,44 948,41" stroke-linejoin="round" width="36" height="26" fill="rgb(182,175,59)" stroke="rgb(145,140,47)" stroke-width="1" opacity="0.75" />
		</g>
	</g>
	<g>
		<polygon class="NoName" points="1020,16 1400,16 1400,1 1430,31 1400,61 1400,46 1020,46" fill="rgb(255,255,255)" fill-opacity="1.0" stroke="rgb(50,50,50)" stroke-width="1" />
		<g>
			<title>PF00501</title>
			<rect class="PF00501" x="1048" y="18" stroke-linejoin="round" width="41" height="26" fill="rgb(60,217,223)" stroke="rgb(48,173,178)" stroke-width="1" opacity="0.75" />
		</g>
		<g>
			<title>PF00550</title>
			<rect class="PF00550" x="1103" y="18" stroke-linejoin="round" width="6" height="26" fill="rgb(103,191,88)" stroke="rgb(82,152,70)" stroke-width="1" opacity="0.75" />
		</g>
		<g>
			<title>PF00668</title>
			<rect class="PF00668" x="1114" y="18" stroke-linejoin="round" width="42" height="26" fill="rgb(224,184,98)" stroke="rgb(179,147,78)" stroke-width="1" opacity="0.75" />
		</g>
		<g>
			<title>PF00501</title>
			<rect class="PF00501" x="1159" y="18" stroke-linejoin="round" width="40" height="26" fill="rgb(60,217,223)" stroke="rgb(48,173,178)" stroke-width="1" opacity="0.75" />
		</g>
		<g>
			<title>PF00550</title>
			<rect class="PF00550" x="1214" y="18" stroke-linejoin="round" width="6" height="26" fill="rgb(103,191,88)" stroke="rgb(82,152,70)" stroke-width="1" opacity="0.75" />
		</g>
		<g>
			<title>PF00668</title>
			<rect class="PF00668" x="1223" y="18" stroke-linejoin="round" width="45" height="26" fill="rgb(224,184,98)" stroke="rgb(179,147,78)" stroke-width="1" opacity="0.75" />
		</g>
		<g>
			<title>PF00668</title>
			<rect class="PF00668" x="1271" y="18" stroke-linejoin="round" width="44" height="26" fill="rgb(224,184,98)" stroke="rgb(179,147,78)" stroke-width="1" opacity="0.75" />
		</g>
		<g>
			<title>PF00501</title>
			<rect class="PF00501" x="1317" y="18" stroke-linejoin="round" width="40" height="26" fill="rgb(60,217,223)" stroke="rgb(48,173,178)" stroke-width="1" opacity="0.75" />
		</g>
		<g>
			<title>PF00550</title>
			<rect class="PF00550" x="1373" y="18" stroke-linejoin="round" width="6" height="26" fill="rgb(103,191,88)" stroke="rgb(82,152,70)" stroke-width="1" opacity="0.75" />
		</g>
		<g>
			<title>PF00668</title>
			<polygon class="PF00668" points="1383,18 1414,18 1426,30 1426,32 1414,44 1383,44" stroke-linejoin="round" width="43" height="26" fill="rgb(224,184,98)" stroke="rgb(179,147,78)" stroke-width="1" opacity="0.75" />
		</g>
	</g>
	<g>
		<polygon class="NoName" points="1461,16 1461,16 1461,1 1488,31 1461,61 1461,46 1461,46" fill="rgb(255,255,255)" fill-opacity="1.0" stroke="rgb(50,50,50)" stroke-width="1" />
		<g>
			<title>PF00089</title>
			<polygon class="PF00089" points="1465,18 1473,18 1485,31 1473,44 1465,44" stroke-linejoin="round" width="22" height="26" fill="rgb(207,127,78)" stroke="rgb(165,101,62)" stroke-width="1" opacity="0.75" />
		</g>
	</g>
	<g>
		<polygon class="NoName" points="1583,16 1552,16 1552,1 1522,31 1552,61 1552,46 1583,46" fill="rgb(255,255,255)" fill-opacity="1.0" stroke="rgb(50,50,50)" stroke-width="1" />
		<g>
			<title>PF07690</title>
			<polygon class="PF07690" points="1537,18 1537,18 1577,18 1577,44 1537,44 1537,43" stroke-linejoin="round" width="40" height="26" fill="rgb(193,224,74)" stroke="rgb(154,179,59)" stroke-width="1" opacity="0.75" />
		</g>
	</g>
	<g>
		<polygon class="NoName" points="1675,16 1662,16 1662,1 1632,31 1662,61 1662,46 1675,46" fill="rgb(255,255,255)" fill-opacity="1.0" stroke="rgb(50,50,50)" stroke-width="1" />
	</g>
	<g>
		<polygon class="NoName" points="1771,16 1771,16 1771,1 1744,31 1771,61 1771,46 1771,46" fill="rgb(255,255,255)" fill-opacity="1.0" stroke="rgb(50,50,50)" stroke-width="1" />
		<g>
			<title>PF04479</title>
			<polygon class="PF04479" points="1747,30 1758,18 1768,18 1768,44 1758,44 1747,31" stroke-linejoin="round" width="21" height="26" fill="rgb(197,116,61)" stroke="rgb(157,92,48)" stroke-width="1" opacity="0.75" />
		</g>
	</g>
	<g>
		<polygon class="NoName" points="1796,16 1812,16 1812,1 1842,31 1812,61 1812,46 1796,46" fill="rgb(255,255,255)" fill-opacity="1.0" stroke="rgb(50,50,50)" stroke-width="1" />
	</g>
	<g>
		<polygon class="NoName" points="54,16 40,16 40,1 10,31 40,61 40,46 54,46" fill="rgb(255,255,255)" fill-opacity="1.0" stroke="rgb(50,50,50)" stroke-width="1" />
		<g>
			<title>PF00724</title>
			<polygon class="PF00724" points="15,28 25,18 50,18 50,44 25,44 15,33" stroke-linejoin="round" width="35" height="26" fill="rgb(157,188,65)" stroke="rgb(125,150,52)" stroke-width="1" opacity="0.75" />
		</g>
	</g>
	<g>
		<polygon class="NoName" points="1914,16 1879,16 1879,1 1849,31 1879,61 1879,46 1914,46" fill="rgb(255,255,255)" fill-opacity="1.0" stroke="rgb(50,50,50)" stroke-width="1" />
		<g>
			<title>PF08030</title>
			<polygon class="PF08030" points="1851,31 1864,18 1868,18 1868,44 1864,44" stroke-linejoin="round" width="17" height="26" fill="rgb(73,143,203)" stroke="rgb(58,114,162)" stroke-width="1" opacity="0.75" />
		</g>
		<g>
			<title>PF08022</title>
			<rect class="PF08022" x="1869" y="18" stroke-linejoin="round" width="10" height="26" fill="rgb(208,115,56)" stroke="rgb(166,92,44)" stroke-width="1" opacity="0.75" />
		</g>
		<g>
			<title>PF01794</title>
			<rect class="PF01794" x="1884" y="18" stroke-linejoin="round" width="12" height="26" fill="rgb(64,69,204)" stroke="rgb(51,55,163)" stroke-width="1" opacity="0.75" />
		</g>
	</g>
	<g>
		<polygon class="NoName" points="1928,16 1928,16 1928,1 1947,31 1928,61 1928,46 1928,46" fill="rgb(255,255,255)" fill-opacity="1.0" stroke="rgb(50,50,50)" stroke-width="1" />
		<g>
			<title>PF04145</title>
			<polygon class="PF04145" points="1929,18 1936,18 1941,26 1941,36 1936,44 1929,44" stroke-linejoin="round" width="12" height="26" fill="rgb(68,211,69)" stroke="rgb(54,168,55)" stroke-width="1" opacity="0.75" />
		</g>
	</g>
	<g>
		<polygon class="NoName" points="1958,16 1958,16 1958,1 1978,31 1958,61 1958,46 1958,46" fill="rgb(255,255,255)" fill-opacity="1.0" stroke="rgb(50,50,50)" stroke-width="1" />
	</g>
	<g>
		<polygon class="NoName" points="114,16 149,16 149,1 179,31 149,61 149,46 114,46" fill="rgb(255,255,255)" fill-opacity="1.0" stroke="rgb(50,50,50)" stroke-width="1" />
		<g>
			<title>PF13641</title>
			<rect class="PF13641" x="126" y="18" stroke-linejoin="round" width="23" height="26" fill="rgb(140,74,190)" stroke="rgb(111,59,152)" stroke-width="1" opacity="0.75" />
		</g>
	</g>
	<g>
		<polygon class="NoName" points="209,16 237,16 237,1 267,31 237,61 237,46 209,46" fill="rgb(255,255,255)" fill-opacity="1.0" stroke="rgb(50,50,50)" stroke-width="1" />
		<g>
			<title>PF03765</title>
			<rect class="PF03765" x="223" y="18" stroke-linejoin="round" width="7" height="26" fill="rgb(78,214,98)" stroke="rgb(62,171,78)" stroke-width="1" opacity="0.75" />
		</g>
		<g>
			<title>PF00650</title>
			<rect class="PF00650" x="235" y="18" stroke-linejoin="round" width="15" height="26" fill="rgb(86,127,210)" stroke="rgb(68,101,168)" stroke-width="1" opacity="0.75" />
		</g>
	</g>
	<g>
		<polygon class="NoName" points="326,16 320,16 320,1 290,31 320,61 320,46 326,46" fill="rgb(255,255,255)" fill-opacity="1.0" stroke="rgb(50,50,50)" stroke-width="1" />
		<g>
			<title>PF00106</title>
			<rect class="PF00106" x="306" y="18" stroke-linejoin="round" width="15" height="26" fill="rgb(182,219,73)" stroke="rgb(145,175,58)" stroke-width="1" opacity="0.75" />
		</g>
	</g>
	<g>
		<polygon class="NoName" points="342,16 363,16 363,1 393,31 363,61 363,46 342,46" fill="rgb(255,255,255)" fill-opacity="1.0" stroke="rgb(50,50,50)" stroke-width="1" />
		<g>
			<title>PF02458</title>
			<polygon class="PF02458" points="353,18 377,18 390,31 377,44 353,44" stroke-linejoin="round" width="38" height="26" fill="rgb(57,117,190)" stroke="rgb(45,93,152)" stroke-width="1" opacity="0.75" />
		</g>
	</g>
	<g>
		<polygon class="NoName" points="428,16 508,16 508,1 538,31 508,61 508,46 428,46" fill="rgb(255,255,255)" fill-opacity="1.0" stroke="rgb(50,50,50)" stroke-width="1" />
		<g>
			<title>PF00501</title>
			<rect class="PF00501" x="433" y="18" stroke-linejoin="round" width="39" height="26" fill="rgb(60,217,223)" stroke="rgb(48,173,178)" stroke-width="1" opacity="0.75" />
		</g>
		<g>
			<title>PF00550</title>
			<rect class="PF00550" x="486" y="18" stroke-linejoin="round" width="6" height="26" fill="rgb(103,191,88)" stroke="rgb(82,152,70)" stroke-width="1" opacity="0.75" />
		</g>
		<g>
			<title>PF00668</title>
			<polygon class="PF00668" points="498,18 522,18 535,31 522,44 498,44" stroke-linejoin="round" width="40" height="26" fill="rgb(224,184,98)" stroke="rgb(179,147,78)" stroke-width="1" opacity="0.75" />
		</g>
	</g>
	<g>
		<polygon class="NoName" points="603,16 579,16 579,1 549,31 579,61 579,46 603,46" fill="rgb(255,255,255)" fill-opacity="1.0" stroke="rgb(50,50,50)" stroke-width="1" />
		<g>
			<title>PF01494</title>
			<rect class="PF01494" x="567" y="18" stroke-linejoin="round" width="34" height="26" fill="rgb(182,175,59)" stroke="rgb(145,140,47)" stroke-width="1" opacity="0.75" />
		</g>
	</g>
	<g>
		<polygon class="NoName" points="620,16 625,16 625,1 655,31 625,61 625,46 620,46" fill="rgb(255,255,255)" fill-opacity="1.0" stroke="rgb(50,50,50)" stroke-width="1" />
		<g>
			<title>PF00596</title>
			<polygon class="PF00596" points="625,18 639,18 643,22 643,40 639,44 625,44" stroke-linejoin="round" width="18" height="26" fill="rgb(208,130,90)" stroke="rgb(166,104,72)" stroke-width="1" opacity="0.75" />
		</g>
	</g>
	<g>
		<polygon class="NoName" points="681,16 681,16 681,1 658,31 681,61 681,46 681,46" fill="rgb(255,255,255)" fill-opacity="1.0" stroke="rgb(50,50,50)" stroke-width="1" />
		<g>
			<title>PF13419</title>
			<polygon class="PF13419" points="661,30 670,18 680,18 680,44 670,44 661,31" stroke-linejoin="round" width="19" height="26" fill="rgb(60,223,188)" stroke="rgb(48,178,150)" stroke-width="1" opacity="0.75" />
		</g>
	</g>
</svg>
