<svg version="1.1" baseProfile="full" xmlns="http://www.w3.org/2000/svg" width="118" height="62">
	<line x1="1" y1="31" x2="117" y2="31" style="stroke:rgb(50,50,50); stroke-width:3 "/>
	<g>
		<title>mutA</title>
		<polygon class="mutA" points="17,16 17,16 17,1 22,31 17,61 17,46 17,46" fill="rgb(194,203,252)" fill-opacity="1.0" stroke="rgb(77,81,100)" stroke-width="1" />
		<g>
			<title>PF04604</title>
			<polygon class="PF04604" points="17,18 17,18 19,31 17,44 17,44" stroke-linejoin="round" width="5" height="26" fill="rgb(206,129,75)" stroke="rgb(164,103,60)" stroke-width="1" opacity="0.75" />
		</g>
	</g>
	<g>
		<title>mutM</title>
		<polygon class="mutM" points="25,16 84,16 84,1 114,31 84,61 84,46 25,46" fill="rgb(178,184,250)" fill-opacity="1.0" stroke="rgb(71,73,100)" stroke-width="1" />
		<g>
			<title>PF13575</title>
			<rect class="PF13575" x="34" y="18" stroke-linejoin="round" width="34" height="26" fill="rgb(228,84,217)" stroke="rgb(182,67,173)" stroke-width="1" opacity="0.75" />
		</g>
		<g>
			<title>PF05147</title>
			<polygon class="PF05147" points="81,18 98,18 111,31 98,44 81,44" stroke-linejoin="round" width="33" height="26" fill="rgb(129,182,79)" stroke="rgb(103,145,63)" stroke-width="1" opacity="0.75" />
		</g>
	</g>
</svg>
