<svg version="1.1" baseProfile="full" xmlns="http://www.w3.org/2000/svg" width="232" height="62">
	<line x1="1" y1="31" x2="231" y2="31" style="stroke:rgb(50,50,50); stroke-width:3 "/>
	<g>
		<title>crtE</title>
		<polygon class="crtE" points="8,16 8,16 8,1 38,31 8,61 8,46 8,46" fill="rgb(254,225,185)" fill-opacity="1.0" stroke="rgb(101,90,74)" stroke-width="1" />
		<g>
			<title>PF00348</title>
			<polygon class="PF00348" points="11,18 22,18 35,31 35,31 22,44 11,44" stroke-linejoin="round" width="24" height="26" fill="rgb(61,206,65)" stroke="rgb(48,164,52)" stroke-width="1" opacity="0.75" />
		</g>
	</g>
	<g>
		<title>crtX</title>
		<polygon class="crtX" points="39,16 52,16 52,1 82,31 52,61 52,46 39,46" fill="rgb(211,211,251)" fill-opacity="1.0" stroke="rgb(84,84,100)" stroke-width="1" />
		<g>
			<title>PF00201</title>
			<polygon class="PF00201" points="57,18 66,18 78,30 78,32 66,44 57,44" stroke-linejoin="round" width="21" height="26" fill="rgb(225,150,107)" stroke="rgb(180,120,85)" stroke-width="1" opacity="0.75" />
		</g>
	</g>
	<g>
		<title>crtY</title>
		<polygon class="crtY" points="81,16 89,16 89,1 119,31 89,61 89,46 81,46" fill="rgb(248,250,209)" fill-opacity="1.0" stroke="rgb(99,100,83)" stroke-width="1" />
		<g>
			<title>PF05834</title>
			<polygon class="PF05834" points="81,18 103,18 116,31 103,44 81,44" stroke-linejoin="round" width="36" height="26" fill="rgb(212,80,200)" stroke="rgb(169,64,160)" stroke-width="1" opacity="0.75" />
		</g>
	</g>
	<g>
		<title>crtI</title>
		<polygon class="crtI" points="120,16 139,16 139,1 169,31 139,61 139,46 120,46" fill="rgb(212,252,247)" fill-opacity="1.0" stroke="rgb(84,100,98)" stroke-width="1" />
		<g>
			<title>PF01593</title>
			<polygon class="PF01593" points="121,18 153,18 166,31 153,44 121,44" stroke-linejoin="round" width="47" height="26" fill="rgb(184,74,52)" stroke="rgb(147,59,41)" stroke-width="1" opacity="0.75" />
		</g>
	</g>
	<g>
		<title>crtB</title>
		<polygon class="crtB" points="169,16 170,16 170,1 200,31 170,61 170,46 169,46" fill="rgb(203,237,254)" fill-opacity="1.0" stroke="rgb(81,94,101)" stroke-width="1" />
		<g>
			<title>PF00494</title>
			<polygon class="PF00494" points="170,18 184,18 196,30 196,32 184,44 170,44" stroke-linejoin="round" width="26" height="26" fill="rgb(178,91,49)" stroke="rgb(142,72,39)" stroke-width="1" opacity="0.75" />
		</g>
	</g>
	<g>
		<title>crtZ</title>
		<polygon class="crtZ" points="215,16 215,16 215,1 198,31 215,61 215,46 215,46" fill="rgb(249,175,206)" fill-opacity="1.0" stroke="rgb(99,70,82)" stroke-width="1" />
		<g>
			<title>PF04116</title>
			<polygon class="PF04116" points="201,29 207,18 214,18 214,44 207,44 201,32" stroke-linejoin="round" width="13" height="26" fill="rgb(171,60,209)" stroke="rgb(136,48,167)" stroke-width="1" opacity="0.75" />
		</g>
	</g>
</svg>
