<svg version="1.1" baseProfile="full" xmlns="http://www.w3.org/2000/svg" width="2132" height="62">
	<line x1="1" y1="31" x2="2131" y2="31" style="stroke:rgb(50,50,50); stroke-width:3 "/>
	<g>
		<polygon class="NoName" points="292,16 292,16 292,1 306,31 292,61 292,46 292,46" fill="rgb(255,255,255)" fill-opacity="1.0" stroke="rgb(50,50,50)" stroke-width="1" />
		<g>
			<title>PF13577</title>
			<polygon class="PF13577" points="292,18 297,18 303,31 297,44 292,44" stroke-linejoin="round" width="12" height="26" fill="rgb(68,223,209)" stroke="rgb(54,178,167)" stroke-width="1" opacity="0.75" />
		</g>
	</g>
	<g>
		<polygon class="NoName" points="347,16 339,16 339,1 309,31 339,61 339,46 347,46" fill="rgb(255,255,255)" fill-opacity="1.0" stroke="rgb(50,50,50)" stroke-width="1" />
		<g>
			<title>PF00107</title>
			<polygon class="PF00107" points="313,29 324,18 325,18 325,44 324,44 313,32" stroke-linejoin="round" width="12" height="26" fill="rgb(81,108,215)" stroke="rgb(64,86,172)" stroke-width="1" opacity="0.75" />
		</g>
		<g>
			<title>PF08240</title>
			<rect class="PF08240" x="330" y="18" stroke-linejoin="round" width="12" height="26" fill="rgb(211,65,138)" stroke="rgb(168,51,110)" stroke-width="1" opacity="0.75" />
		</g>
	</g>
	<g>
		<polygon class="NoName" points="357,16 357,16 357,1 347,31 357,61 357,46 357,46" fill="rgb(255,255,255)" fill-opacity="1.0" stroke="rgb(50,50,50)" stroke-width="1" />
		<g>
			<title>PF03992</title>
			<polygon class="PF03992" points="349,31 353,18 356,18 356,44 353,44" stroke-linejoin="round" width="7" height="26" fill="rgb(193,84,127)" stroke="rgb(154,67,101)" stroke-width="1" opacity="0.75" />
		</g>
	</g>
	<g>
		<polygon class="NoName" points="381,16 381,16 381,1 357,31 381,61 381,46 381,46" fill="rgb(255,255,255)" fill-opacity="1.0" stroke="rgb(50,50,50)" stroke-width="1" />
		<g>
			<title>PF04309</title>
			<polygon class="PF04309" points="359,31 369,18 376,18 376,44 369,44" stroke-linejoin="round" width="17" height="26" fill="rgb(99,123,216)" stroke="rgb(79,98,172)" stroke-width="1" opacity="0.75" />
		</g>
	</g>
	<g>
		<polygon class="NoName" points="434,16 413,16 413,1 383,31 413,61 413,46 434,46" fill="rgb(255,255,255)" fill-opacity="1.0" stroke="rgb(50,50,50)" stroke-width="1" />
		<g>
			<title>PF02913</title>
			<polygon class="PF02913" points="385,31 398,18 407,18 407,44 398,44" stroke-linejoin="round" width="23" height="26" fill="rgb(111,69,188)" stroke="rgb(88,55,150)" stroke-width="1" opacity="0.75" />
		</g>
		<g>
			<title>PF01565</title>
			<rect class="PF01565" x="411" y="18" stroke-linejoin="round" width="14" height="26" fill="rgb(226,88,136)" stroke="rgb(180,70,108)" stroke-width="1" opacity="0.75" />
		</g>
	</g>
	<g>
		<polygon class="NoName" points="489,16 464,16 464,1 434,31 464,61 464,46 489,46" fill="rgb(255,255,255)" fill-opacity="1.0" stroke="rgb(50,50,50)" stroke-width="1" />
		<g>
			<title>PF16901</title>
			<polygon class="PF16901" points="436,31 447,20 447,41" stroke-linejoin="round" width="11" height="26" fill="rgb(196,60,59)" stroke="rgb(156,47,47)" stroke-width="1" opacity="0.75" />
		</g>
		<g>
			<title>PF01266</title>
			<polygon class="PF01266" points="449,18 449,18 485,18 485,44 449,44 449,43" stroke-linejoin="round" width="36" height="26" fill="rgb(123,179,59)" stroke="rgb(98,143,47)" stroke-width="1" opacity="0.75" />
		</g>
	</g>
	<g>
		<polygon class="NoName" points="545,16 523,16 523,1 493,31 523,61 523,46 545,46" fill="rgb(255,255,255)" fill-opacity="1.0" stroke="rgb(50,50,50)" stroke-width="1" />
		<g>
			<title>PF02782</title>
			<polygon class="PF02782" points="499,27 508,18 518,18 518,44 508,44 499,34" stroke-linejoin="round" width="19" height="26" fill="rgb(204,103,85)" stroke="rgb(163,82,68)" stroke-width="1" opacity="0.75" />
		</g>
		<g>
			<title>PF00370</title>
			<rect class="PF00370" x="519" y="18" stroke-linejoin="round" width="24" height="26" fill="rgb(83,186,105)" stroke="rgb(66,148,83)" stroke-width="1" opacity="0.75" />
		</g>
	</g>
	<g>
		<polygon class="NoName" points="596,16 578,16 578,1 548,31 578,61 578,46 596,46" fill="rgb(255,255,255)" fill-opacity="1.0" stroke="rgb(50,50,50)" stroke-width="1" />
		<g>
			<title>PF00083</title>
			<polygon class="PF00083" points="551,30 563,18 593,18 593,44 563,44 551,31" stroke-linejoin="round" width="42" height="26" fill="rgb(48,186,105)" stroke="rgb(38,148,84)" stroke-width="1" opacity="0.75" />
		</g>
	</g>
	<g>
		<polygon class="NoName" points="662,16 637,16 637,1 607,31 637,61 637,46 662,46" fill="rgb(255,255,255)" fill-opacity="1.0" stroke="rgb(50,50,50)" stroke-width="1" />
		<g>
			<title>PF01471</title>
			<polygon class="PF01471" points="609,31 612,28 612,33" stroke-linejoin="round" width="5" height="26" fill="rgb(186,74,131)" stroke="rgb(148,59,104)" stroke-width="1" opacity="0.75" />
		</g>
		<g>
			<title>PF01471</title>
			<polygon class="PF01471" points="614,26 619,21 619,40 614,35" stroke-linejoin="round" width="5" height="26" fill="rgb(186,74,131)" stroke="rgb(148,59,104)" stroke-width="1" opacity="0.75" />
		</g>
		<g>
			<title>PF01510</title>
			<rect class="PF01510" x="623" y="18" stroke-linejoin="round" width="12" height="26" fill="rgb(122,192,71)" stroke="rgb(97,153,56)" stroke-width="1" opacity="0.75" />
		</g>
	</g>
	<g>
		<polygon class="NoName" points="692,16 692,16 692,1 666,31 692,61 692,46 692,46" fill="rgb(255,255,255)" fill-opacity="1.0" stroke="rgb(50,50,50)" stroke-width="1" />
		<g>
			<title>PF00881</title>
			<polygon class="PF00881" points="668,31 679,18 687,18 687,44 679,44" stroke-linejoin="round" width="19" height="26" fill="rgb(79,118,187)" stroke="rgb(63,94,149)" stroke-width="1" opacity="0.75" />
		</g>
	</g>
	<g>
		<polygon class="NoName" points="1,16 6,16 6,1 36,31 6,61 6,46 1,46" fill="rgb(255,255,255)" fill-opacity="1.0" stroke="rgb(50,50,50)" stroke-width="1" />
	</g>
	<g>
		<polygon class="NoName" points="695,16 695,16 695,1 704,31 695,61 695,46 695,46" fill="rgb(255,255,255)" fill-opacity="1.0" stroke="rgb(50,50,50)" stroke-width="1" />
		<g>
			<title>PF00550</title>
			<polygon class="PF00550" points="697,18 697,18 701,31 697,44 697,44" stroke-linejoin="round" width="6" height="26" fill="rgb(103,191,88)" stroke="rgb(82,152,70)" stroke-width="1" opacity="0.75" />
		</g>
	</g>
	<g>
		<polygon class="NoName" points="705,16 716,16 716,1 746,31 716,61 716,46 705,46" fill="rgb(255,255,255)" fill-opacity="1.0" stroke="rgb(50,50,50)" stroke-width="1" />
		<g>
			<title>PF00109</title>
			<rect class="PF00109" x="706" y="18" stroke-linejoin="round" width="24" height="26" fill="rgb(112,116,228)" stroke="rgb(89,92,182)" stroke-width="1" opacity="0.75" />
		</g>
		<g>
			<title>PF02801</title>
			<polygon class="PF02801" points="731,19 742,30 742,32 731,43" stroke-linejoin="round" width="11" height="26" fill="rgb(215,78,102)" stroke="rgb(172,62,81)" stroke-width="1" opacity="0.75" />
		</g>
	</g>
	<g>
		<polygon class="NoName" points="748,16 749,16 749,1 779,31 749,61 749,46 748,46" fill="rgb(255,255,255)" fill-opacity="1.0" stroke="rgb(50,50,50)" stroke-width="1" />
		<g>
			<title>PF00561</title>
			<polygon class="PF00561" points="750,18 763,18 773,28 773,34 763,44 750,44" stroke-linejoin="round" width="23" height="26" fill="rgb(86,180,151)" stroke="rgb(68,144,120)" stroke-width="1" opacity="0.75" />
		</g>
	</g>
	<g>
		<polygon class="NoName" points="779,16 779,16 779,1 796,31 779,61 779,46 779,46" fill="rgb(255,255,255)" fill-opacity="1.0" stroke="rgb(50,50,50)" stroke-width="1" />
		<g>
			<title>PF08327</title>
			<polygon class="PF08327" points="780,18 786,18 793,31 786,44 780,44" stroke-linejoin="round" width="14" height="26" fill="rgb(81,199,171)" stroke="rgb(64,159,136)" stroke-width="1" opacity="0.75" />
		</g>
	</g>
	<g>
		<polygon class="NoName" points="810,16 810,16 810,1 798,31 810,61 810,46 810,46" fill="rgb(255,255,255)" fill-opacity="1.0" stroke="rgb(50,50,50)" stroke-width="1" />
		<g>
			<title>PF12680</title>
			<polygon class="PF12680" points="800,31 805,18 809,18 809,44 805,44" stroke-linejoin="round" width="10" height="26" fill="rgb(184,69,155)" stroke="rgb(147,55,124)" stroke-width="1" opacity="0.75" />
		</g>
	</g>
	<g>
		<polygon class="NoName" points="830,16 830,16 830,1 815,31 830,61 830,46 830,46" fill="rgb(255,255,255)" fill-opacity="1.0" stroke="rgb(50,50,50)" stroke-width="1" />
	</g>
	<g>
		<polygon class="NoName" points="839,16 839,16 839,1 846,31 839,61 839,46 839,46" fill="rgb(255,255,255)" fill-opacity="1.0" stroke="rgb(50,50,50)" stroke-width="1" />
	</g>
	<g>
		<title>asuR4</title>
		<polygon class="asuR4" points="862,16 862,16 862,1 848,31 862,61 862,46 862,46" fill="rgb(195,227,251)" fill-opacity="1.0" stroke="rgb(78,90,100)" stroke-width="1" />
		<g>
			<title>PF00313</title>
			<polygon class="PF00313" points="855,20 856,18 861,18 861,44 856,44 855,41" stroke-linejoin="round" width="6" height="26" fill="rgb(87,72,181)" stroke="rgb(69,57,144)" stroke-width="1" opacity="0.75" />
		</g>
	</g>
	<g>
		<title>asuR3</title>
		<polygon class="asuR3" points="896,16 896,16 896,1 866,31 896,61 896,46 896,46" fill="rgb(252,204,226)" fill-opacity="1.0" stroke="rgb(100,81,90)" stroke-width="1" />
	</g>
	<g>
		<title>asuR2</title>
		<polygon class="asuR2" points="918,16 918,16 918,1 899,31 918,61 918,46 918,46" fill="rgb(206,251,181)" fill-opacity="1.0" stroke="rgb(82,100,72)" stroke-width="1" />
		<g>
			<title>PF14278</title>
			<polygon class="PF14278" points="901,31 908,20 908,41" stroke-linejoin="round" width="7" height="26" fill="rgb(192,229,97)" stroke="rgb(153,183,77)" stroke-width="1" opacity="0.75" />
		</g>
		<g>
			<title>PF00440</title>
			<rect class="PF00440" x="912" y="18" stroke-linejoin="round" width="4" height="26" fill="rgb(73,212,190)" stroke="rgb(58,169,152)" stroke-width="1" opacity="0.75" />
		</g>
	</g>
	<g>
		<polygon class="NoName" points="45,16 45,16 45,1 55,31 45,61 45,46 45,46" fill="rgb(255,255,255)" fill-opacity="1.0" stroke="rgb(50,50,50)" stroke-width="1" />
		<g>
			<title>PF00547</title>
			<polygon class="PF00547" points="45,18 48,18 52,31 48,44 45,44" stroke-linejoin="round" width="9" height="26" fill="rgb(222,104,199)" stroke="rgb(177,83,159)" stroke-width="1" opacity="0.75" />
		</g>
	</g>
	<g>
		<title>asuR1</title>
		<polygon class="asuR1" points="940,16 940,16 940,1 919,31 940,61 940,46 940,46" fill="rgb(204,252,215)" fill-opacity="1.0" stroke="rgb(81,100,86)" stroke-width="1" />
		<g>
			<title>PF00196</title>
			<polygon class="PF00196" points="921,31 926,24 926,37" stroke-linejoin="round" width="5" height="26" fill="rgb(219,94,82)" stroke="rgb(175,75,65)" stroke-width="1" opacity="0.75" />
		</g>
	</g>
	<g>
		<title>asuC1</title>
		<polygon class="asuC1" points="966,16 966,16 966,1 944,31 966,61 966,46 966,46" fill="rgb(211,254,209)" fill-opacity="1.0" stroke="rgb(84,101,83)" stroke-width="1" />
		<g>
			<title>PF01648</title>
			<polygon class="PF01648" points="946,31 955,19 955,42" stroke-linejoin="round" width="10" height="26" fill="rgb(85,184,135)" stroke="rgb(68,147,108)" stroke-width="1" opacity="0.75" />
		</g>
	</g>
	<g>
		<title>asuE1</title>
		<polygon class="asuE1" points="978,16 988,16 988,1 1018,31 988,61 988,46 978,46" fill="rgb(246,252,198)" fill-opacity="1.0" stroke="rgb(98,100,79)" stroke-width="1" />
		<g>
			<title>PF01494</title>
			<polygon class="PF01494" points="979,18 1002,18 1014,30 1014,32 1002,44 979,44" stroke-linejoin="round" width="35" height="26" fill="rgb(182,175,59)" stroke="rgb(145,140,47)" stroke-width="1" opacity="0.75" />
		</g>
	</g>
	<g>
		<title>asuB4</title>
		<polygon class="asuB4" points="1087,16 1051,16 1051,1 1021,31 1051,61 1051,46 1087,46" fill="rgb(254,254,188)" fill-opacity="1.0" stroke="rgb(101,101,75)" stroke-width="1" />
		<g>
			<title>PF07992</title>
			<polygon class="PF07992" points="1025,29 1036,18 1049,18 1049,44 1036,44 1025,32" stroke-linejoin="round" width="24" height="26" fill="rgb(83,223,167)" stroke="rgb(66,178,133)" stroke-width="1" opacity="0.75" />
		</g>
		<g>
			<title>PF00724</title>
			<rect class="PF00724" x="1054" y="18" stroke-linejoin="round" width="32" height="26" fill="rgb(157,188,65)" stroke="rgb(125,150,52)" stroke-width="1" opacity="0.75" />
		</g>
	</g>
	<g>
		<title>asuB3</title>
		<polygon class="asuB3" points="1116,16 1116,16 1116,1 1089,31 1116,61 1116,46 1116,46" fill="rgb(253,234,180)" fill-opacity="1.0" stroke="rgb(101,93,72)" stroke-width="1" />
		<g>
			<title>PF13561</title>
			<polygon class="PF13561" points="1091,31 1103,18 1114,18 1114,44 1103,44" stroke-linejoin="round" width="23" height="26" fill="rgb(73,205,127)" stroke="rgb(58,164,101)" stroke-width="1" opacity="0.75" />
		</g>
	</g>
	<g>
		<title>AsuB2</title>
		<polygon class="AsuB2" points="1156,16 1147,16 1147,1 1117,31 1147,61 1147,46 1156,46" fill="rgb(220,202,254)" fill-opacity="1.0" stroke="rgb(88,80,101)" stroke-width="1" />
		<g>
			<title>PF00441</title>
			<polygon class="PF00441" points="1119,31 1132,18 1132,43" stroke-linejoin="round" width="15" height="26" fill="rgb(85,191,117)" stroke="rgb(68,152,93)" stroke-width="1" opacity="0.75" />
		</g>
		<g>
			<title>PF02770</title>
			<rect class="PF02770" x="1134" y="18" stroke-linejoin="round" width="9" height="26" fill="rgb(225,186,97)" stroke="rgb(180,148,77)" stroke-width="1" opacity="0.75" />
		</g>
		<g>
			<title>PF02771</title>
			<rect class="PF02771" x="1143" y="18" stroke-linejoin="round" width="10" height="26" fill="rgb(105,135,218)" stroke="rgb(84,108,174)" stroke-width="1" opacity="0.75" />
		</g>
	</g>
	<g>
		<title>asuB1</title>
		<polygon class="asuB1" points="1254,16 1186,16 1186,1 1156,31 1186,61 1186,46 1254,46" fill="rgb(197,232,254)" fill-opacity="1.0" stroke="rgb(78,92,101)" stroke-width="1" />
		<g>
			<title>PF13193</title>
			<polygon class="PF13193" points="1158,31 1165,24 1165,37" stroke-linejoin="round" width="7" height="26" fill="rgb(182,50,118)" stroke="rgb(145,39,94)" stroke-width="1" opacity="0.75" />
		</g>
		<g>
			<title>PF00501</title>
			<polygon class="PF00501" points="1166,23 1171,18 1209,18 1209,44 1171,44 1166,38" stroke-linejoin="round" width="43" height="26" fill="rgb(60,217,223)" stroke="rgb(48,173,178)" stroke-width="1" opacity="0.75" />
		</g>
		<g>
			<title>PF00275</title>
			<rect class="PF00275" x="1212" y="18" stroke-linejoin="round" width="41" height="26" fill="rgb(217,213,85)" stroke="rgb(173,170,68)" stroke-width="1" opacity="0.75" />
		</g>
	</g>
	<g>
		<title>asuC5</title>
		<polygon class="asuC5" points="1264,16 1264,16 1264,1 1256,31 1264,61 1264,46 1264,46" fill="rgb(251,205,190)" fill-opacity="1.0" stroke="rgb(100,82,76)" stroke-width="1" />
		<g>
			<title>PF00550</title>
			<polygon class="PF00550" points="1258,31 1261,18 1262,18 1262,44 1261,44" stroke-linejoin="round" width="6" height="26" fill="rgb(103,191,88)" stroke="rgb(82,152,70)" stroke-width="1" opacity="0.75" />
		</g>
	</g>
	<g>
		<title>asuC4</title>
		<polygon class="asuC4" points="1301,16 1295,16 1295,1 1265,31 1295,61 1295,46 1301,46" fill="rgb(185,252,194)" fill-opacity="1.0" stroke="rgb(74,100,77)" stroke-width="1" />
		<g>
			<title>PF08541</title>
			<polygon class="PF08541" points="1267,31 1276,22 1276,39" stroke-linejoin="round" width="9" height="26" fill="rgb(146,207,81)" stroke="rgb(116,165,64)" stroke-width="1" opacity="0.75" />
		</g>
		<g>
			<title>PF08545</title>
			<rect class="PF08545" x="1281" y="18" stroke-linejoin="round" width="7" height="26" fill="rgb(189,102,84)" stroke="rgb(151,81,67)" stroke-width="1" opacity="0.75" />
		</g>
	</g>
	<g>
		<title>asuC3</title>
		<polygon class="asuC3" points="1334,16 1331,16 1331,1 1301,31 1331,61 1331,46 1334,46" fill="rgb(207,234,253)" fill-opacity="1.0" stroke="rgb(82,93,101)" stroke-width="1" />
		<g>
			<title>PF08541</title>
			<polygon class="PF08541" points="1303,31 1310,24 1310,37" stroke-linejoin="round" width="8" height="26" fill="rgb(146,207,81)" stroke="rgb(116,165,64)" stroke-width="1" opacity="0.75" />
		</g>
		<g>
			<title>PF08545</title>
			<polygon class="PF08545" points="1316,18 1316,18 1323,18 1323,44 1316,44 1316,43" stroke-linejoin="round" width="7" height="26" fill="rgb(189,102,84)" stroke="rgb(151,81,67)" stroke-width="1" opacity="0.75" />
		</g>
	</g>
	<g>
		<polygon class="NoName" points="63,16 93,16 93,1 123,31 93,61 93,46 63,46" fill="rgb(255,255,255)" fill-opacity="1.0" stroke="rgb(50,50,50)" stroke-width="1" />
		<g>
			<title>PF00449</title>
			<rect class="PF00449" x="67" y="18" stroke-linejoin="round" width="12" height="26" fill="rgb(76,190,108)" stroke="rgb(60,152,86)" stroke-width="1" opacity="0.75" />
		</g>
		<g>
			<title>PF01979</title>
			<polygon class="PF01979" points="79,18 107,18 114,25 114,37 107,44 79,44" stroke-linejoin="round" width="35" height="26" fill="rgb(210,93,184)" stroke="rgb(168,74,147)" stroke-width="1" opacity="0.75" />
		</g>
	</g>
	<g>
		<title>AsuC2</title>
		<polygon class="AsuC2" points="1364,16 1364,16 1364,1 1337,31 1364,61 1364,46 1364,46" fill="rgb(227,253,205)" fill-opacity="1.0" stroke="rgb(90,101,82)" stroke-width="1" />
		<g>
			<title>PF00797</title>
			<polygon class="PF00797" points="1339,31 1351,18 1361,18 1361,44 1351,44" stroke-linejoin="round" width="22" height="26" fill="rgb(68,124,226)" stroke="rgb(54,99,180)" stroke-width="1" opacity="0.75" />
		</g>
	</g>
	<g>
		<title>asuC6</title>
		<polygon class="asuC6" points="1376,16 1376,16 1376,1 1391,31 1376,61 1376,46 1376,46" fill="rgb(253,229,201)" fill-opacity="1.0" stroke="rgb(101,91,80)" stroke-width="1" />
		<g>
			<title>PF03061</title>
			<polygon class="PF03061" points="1382,18 1382,18 1388,31 1382,44 1382,44" stroke-linejoin="round" width="7" height="26" fill="rgb(143,103,215)" stroke="rgb(114,82,172)" stroke-width="1" opacity="0.75" />
		</g>
	</g>
	<g>
		<title>asuE2</title>
		<polygon class="asuE2" points="1392,16 1392,16 1392,1 1410,31 1392,61 1392,46 1392,46" fill="rgb(205,229,254)" fill-opacity="1.0" stroke="rgb(82,91,101)" stroke-width="1" />
		<g>
			<title>PF01613</title>
			<polygon class="PF01613" points="1395,18 1399,18 1407,31 1399,44 1395,44" stroke-linejoin="round" width="15" height="26" fill="rgb(107,197,222)" stroke="rgb(85,157,177)" stroke-width="1" opacity="0.75" />
		</g>
	</g>
	<g>
		<title>asuC7</title>
		<polygon class="asuC7" points="1413,16 1413,16 1413,1 1436,31 1413,61 1413,46 1413,46" fill="rgb(253,216,188)" fill-opacity="1.0" stroke="rgb(101,86,75)" stroke-width="1" />
		<g>
			<title>PF13561</title>
			<polygon class="PF13561" points="1413,18 1423,18 1433,31 1423,44 1413,44" stroke-linejoin="round" width="22" height="26" fill="rgb(73,205,127)" stroke="rgb(58,164,101)" stroke-width="1" opacity="0.75" />
		</g>
	</g>
	<g>
		<title>asuC10</title>
		<polygon class="asuC10" points="1448,16 1448,16 1448,1 1439,31 1448,61 1448,46 1448,46" fill="rgb(253,247,182)" fill-opacity="1.0" stroke="rgb(101,98,72)" stroke-width="1" />
		<g>
			<title>PF01817</title>
			<polygon class="PF01817" points="1441,31 1445,17 1445,44" stroke-linejoin="round" width="5" height="26" fill="rgb(118,210,66)" stroke="rgb(94,168,52)" stroke-width="1" opacity="0.75" />
		</g>
	</g>
	<g>
		<title>asuC9</title>
		<polygon class="asuC9" points="1463,16 1463,16 1463,1 1448,31 1463,61 1463,46 1463,46" fill="rgb(224,250,191)" fill-opacity="1.0" stroke="rgb(89,100,76)" stroke-width="1" />
		<g>
			<title>PF01575</title>
			<polygon class="PF01575" points="1450,31 1457,18 1461,18 1461,44 1457,44" stroke-linejoin="round" width="11" height="26" fill="rgb(218,129,86)" stroke="rgb(174,103,68)" stroke-width="1" opacity="0.75" />
		</g>
	</g>
	<g>
		<title>asuC8</title>
		<polygon class="asuC8" points="1478,16 1478,16 1478,1 1463,31 1478,61 1478,46 1478,46" fill="rgb(254,205,201)" fill-opacity="1.0" stroke="rgb(101,82,80)" stroke-width="1" />
		<g>
			<title>PF13452</title>
			<polygon class="PF13452" points="1465,31 1472,18 1477,18 1477,44 1472,44" stroke-linejoin="round" width="13" height="26" fill="rgb(215,186,64)" stroke="rgb(172,148,51)" stroke-width="1" opacity="0.75" />
		</g>
	</g>
	<g>
		<title>asuA2</title>
		<polygon class="asuA2" points="1525,16 1508,16 1508,1 1478,31 1508,61 1508,46 1525,46" fill="rgb(254,208,241)" fill-opacity="1.0" stroke="rgb(101,83,96)" stroke-width="1" />
		<g>
			<title>PF13193</title>
			<polygon class="PF13193" points="1480,31 1486,25 1486,36" stroke-linejoin="round" width="6" height="26" fill="rgb(182,50,118)" stroke="rgb(145,39,94)" stroke-width="1" opacity="0.75" />
		</g>
		<g>
			<title>PF00501</title>
			<polygon class="PF00501" points="1487,24 1493,18 1522,18 1522,44 1493,44 1487,37" stroke-linejoin="round" width="35" height="26" fill="rgb(60,217,223)" stroke="rgb(48,173,178)" stroke-width="1" opacity="0.75" />
		</g>
	</g>
	<g>
		<title>asuA1</title>
		<polygon class="asuA1" points="1566,16 1559,16 1559,1 1529,31 1559,61 1559,46 1566,46" fill="rgb(207,254,232)" fill-opacity="1.0" stroke="rgb(82,101,92)" stroke-width="1" />
		<g>
			<title>PF01959</title>
			<polygon class="PF01959" points="1531,31 1544,18 1565,18 1565,44 1544,44" stroke-linejoin="round" width="36" height="26" fill="rgb(199,181,86)" stroke="rgb(159,144,68)" stroke-width="1" opacity="0.75" />
		</g>
	</g>
	<g>
		<title>asuD1</title>
		<polygon class="asuD1" points="1582,16 1605,16 1605,1 1635,31 1605,61 1605,46 1582,46" fill="rgb(218,210,253)" fill-opacity="1.0" stroke="rgb(87,84,101)" stroke-width="1" />
		<g>
			<title>PF00501</title>
			<polygon class="PF00501" points="1584,18 1619,18 1624,23 1624,39 1619,44 1584,44" stroke-linejoin="round" width="40" height="26" fill="rgb(60,217,223)" stroke="rgb(48,173,178)" stroke-width="1" opacity="0.75" />
		</g>
		<g>
			<title>PF13193</title>
			<polygon class="PF13193" points="1625,24 1632,31 1632,31 1625,38" stroke-linejoin="round" width="7" height="26" fill="rgb(182,50,118)" stroke="rgb(145,39,94)" stroke-width="1" opacity="0.75" />
		</g>
	</g>
	<g>
		<polygon class="NoName" points="123,16 123,16 123,1 145,31 123,61 123,46 123,46" fill="rgb(255,255,255)" fill-opacity="1.0" stroke="rgb(50,50,50)" stroke-width="1" />
		<g>
			<title>PF01730</title>
			<polygon class="PF01730" points="126,18 132,18 140,28 140,34 132,44 126,44" stroke-linejoin="round" width="14" height="26" fill="rgb(149,214,61)" stroke="rgb(119,171,48)" stroke-width="1" opacity="0.75" />
		</g>
	</g>
	<g>
		<title>asuD2</title>
		<polygon class="asuD2" points="1635,16 1646,16 1646,1 1676,31 1646,61 1646,46 1635,46" fill="rgb(209,250,241)" fill-opacity="1.0" stroke="rgb(83,100,96)" stroke-width="1" />
		<g>
			<title>PF00155</title>
			<polygon class="PF00155" points="1639,18 1660,18 1673,31 1673,31 1660,44 1639,44" stroke-linejoin="round" width="34" height="26" fill="rgb(89,113,198)" stroke="rgb(71,90,158)" stroke-width="1" opacity="0.75" />
		</g>
	</g>
	<g>
		<title>asuD3</title>
		<polygon class="asuD3" points="1684,16 1700,16 1700,1 1730,31 1700,61 1700,46 1684,46" fill="rgb(234,254,210)" fill-opacity="1.0" stroke="rgb(93,101,84)" stroke-width="1" />
		<g>
			<title>PF00501</title>
			<polygon class="PF00501" points="1684,18 1714,18 1720,24 1720,38 1714,44 1684,44" stroke-linejoin="round" width="36" height="26" fill="rgb(60,217,223)" stroke="rgb(48,173,178)" stroke-width="1" opacity="0.75" />
		</g>
		<g>
			<title>PF13193</title>
			<polygon class="PF13193" points="1721,25 1727,31 1721,37" stroke-linejoin="round" width="7" height="26" fill="rgb(182,50,118)" stroke="rgb(145,39,94)" stroke-width="1" opacity="0.75" />
		</g>
	</g>
	<g>
		<title>asuE3</title>
		<polygon class="asuE3" points="1771,16 1764,16 1764,1 1734,31 1764,61 1764,46 1771,46" fill="rgb(252,244,177)" fill-opacity="1.0" stroke="rgb(100,97,70)" stroke-width="1" />
		<g>
			<title>PF00296</title>
			<polygon class="PF00296" points="1739,28 1749,18 1769,18 1769,44 1749,44 1739,33" stroke-linejoin="round" width="30" height="26" fill="rgb(180,112,78)" stroke="rgb(144,89,62)" stroke-width="1" opacity="0.75" />
		</g>
	</g>
	<g>
		<title>asuC14</title>
		<polygon class="asuC14" points="1796,16 1796,16 1796,1 1772,31 1796,61 1796,46 1796,46" fill="rgb(193,187,251)" fill-opacity="1.0" stroke="rgb(77,74,100)" stroke-width="1" />
	</g>
	<g>
		<title>asuC13</title>
		<polygon class="asuC13" points="1837,16 1828,16 1828,1 1798,31 1828,61 1828,46 1837,46" fill="rgb(238,210,254)" fill-opacity="1.0" stroke="rgb(95,84,101)" stroke-width="1" />
		<g>
			<title>PF02801</title>
			<polygon class="PF02801" points="1802,29 1813,18 1813,43 1802,32" stroke-linejoin="round" width="11" height="26" fill="rgb(215,78,102)" stroke="rgb(172,62,81)" stroke-width="1" opacity="0.75" />
		</g>
		<g>
			<title>PF00109</title>
			<rect class="PF00109" x="1814" y="18" stroke-linejoin="round" width="22" height="26" fill="rgb(112,116,228)" stroke="rgb(89,92,182)" stroke-width="1" opacity="0.75" />
		</g>
	</g>
	<g>
		<title>asuC12</title>
		<polygon class="asuC12" points="1846,16 1846,16 1846,1 1838,31 1846,61 1846,46 1846,46" fill="rgb(247,251,199)" fill-opacity="1.0" stroke="rgb(98,100,79)" stroke-width="1" />
	</g>
	<g>
		<title>asuC11</title>
		<polygon class="asuC11" points="1855,16 1855,16 1855,1 1846,31 1855,61 1855,46 1855,46" fill="rgb(252,212,220)" fill-opacity="1.0" stroke="rgb(100,84,88)" stroke-width="1" />
		<g>
			<title>PF00550</title>
			<polygon class="PF00550" points="1848,31 1852,18 1854,18 1854,44 1852,44" stroke-linejoin="round" width="7" height="26" fill="rgb(103,191,88)" stroke="rgb(82,152,70)" stroke-width="1" opacity="0.75" />
		</g>
	</g>
	<g>
		<title>asuA3</title>
		<polygon class="asuA3" points="1885,16 1885,16 1885,1 1858,31 1885,61 1885,46 1885,46" fill="rgb(219,183,252)" fill-opacity="1.0" stroke="rgb(87,73,100)" stroke-width="1" />
		<g>
			<title>PF01791</title>
			<polygon class="PF01791" points="1862,29 1872,18 1883,18 1883,44 1872,44 1862,32" stroke-linejoin="round" width="21" height="26" fill="rgb(151,59,198)" stroke="rgb(120,47,158)" stroke-width="1" opacity="0.75" />
		</g>
	</g>
	<g>
		<title>asuC15</title>
		<polygon class="asuC15" points="1895,16 1895,16 1895,1 1921,31 1895,61 1895,46 1895,46" fill="rgb(203,250,253)" fill-opacity="1.0" stroke="rgb(81,100,101)" stroke-width="1" />
		<g>
			<title>PF00975</title>
			<polygon class="PF00975" points="1897,18 1907,18 1918,31 1907,44 1897,44" stroke-linejoin="round" width="23" height="26" fill="rgb(207,80,138)" stroke="rgb(165,63,110)" stroke-width="1" opacity="0.75" />
		</g>
	</g>
	<g>
		<title>asuM1</title>
		<polygon class="asuM1" points="1925,16 1946,16 1946,1 1976,31 1946,61 1946,46 1925,46" fill="rgb(215,252,184)" fill-opacity="1.0" stroke="rgb(86,100,73)" stroke-width="1" />
		<g>
			<title>PF07690</title>
			<polygon class="PF07690" points="1927,18 1960,18 1966,24 1966,38 1960,44 1927,44" stroke-linejoin="round" width="39" height="26" fill="rgb(193,224,74)" stroke="rgb(154,179,59)" stroke-width="1" opacity="0.75" />
		</g>
	</g>
	<g>
		<polygon class="NoName" points="145,16 145,16 145,1 170,31 145,61 145,46 145,46" fill="rgb(255,255,255)" fill-opacity="1.0" stroke="rgb(50,50,50)" stroke-width="1" />
		<g>
			<title>PF02492</title>
			<polygon class="PF02492" points="147,18 156,18 164,27 164,35 156,44 147,44" stroke-linejoin="round" width="17" height="26" fill="rgb(79,112,178)" stroke="rgb(63,89,142)" stroke-width="1" opacity="0.75" />
		</g>
	</g>
	<g>
		<title>asuR5</title>
		<polygon class="asuR5" points="1985,16 1985,16 1985,1 2010,31 1985,61 1985,46 1985,46" fill="rgb(250,199,203)" fill-opacity="1.0" stroke="rgb(100,79,81)" stroke-width="1" />
		<g>
			<title>PF00486</title>
			<rect class="PF00486" x="1987" y="18" stroke-linejoin="round" width="7" height="26" fill="rgb(204,153,57)" stroke="rgb(163,122,45)" stroke-width="1" opacity="0.75" />
		</g>
		<g>
			<title>PF03704</title>
			<polygon class="PF03704" points="1995,18 1996,18 2007,31 1996,44 1995,44" stroke-linejoin="round" width="14" height="26" fill="rgb(217,89,196)" stroke="rgb(173,71,156)" stroke-width="1" opacity="0.75" />
		</g>
	</g>
	<g>
		<title>asuH1</title>
		<polygon class="asuH1" points="2015,16 2023,16 2023,1 2053,31 2023,61 2023,46 2015,46" fill="rgb(251,215,201)" fill-opacity="1.0" stroke="rgb(100,86,80)" stroke-width="1" />
		<g>
			<title>PF06224</title>
			<polygon class="PF06224" points="2019,18 2037,18 2050,31 2037,44 2019,44" stroke-linejoin="round" width="32" height="26" fill="rgb(116,78,194)" stroke="rgb(92,62,155)" stroke-width="1" opacity="0.75" />
		</g>
	</g>
	<g>
		<title>asuR6</title>
		<polygon class="asuR6" points="2081,16 2081,16 2081,1 2053,31 2081,61 2081,46 2081,46" fill="rgb(193,251,232)" fill-opacity="1.0" stroke="rgb(77,100,92)" stroke-width="1" />
		<g>
			<title>PF00196</title>
			<polygon class="PF00196" points="2055,31 2058,28 2058,33" stroke-linejoin="round" width="5" height="26" fill="rgb(219,94,82)" stroke="rgb(175,75,65)" stroke-width="1" opacity="0.75" />
		</g>
		<g>
			<title>PF01590</title>
			<polygon class="PF01590" points="2066,20 2067,18 2079,18 2079,44 2067,44 2066,41" stroke-linejoin="round" width="13" height="26" fill="rgb(86,203,59)" stroke="rgb(68,162,47)" stroke-width="1" opacity="0.75" />
		</g>
	</g>
	<g>
		<polygon class="NoName" points="170,16 170,16 170,1 195,31 170,61 170,46 170,46" fill="rgb(255,255,255)" fill-opacity="1.0" stroke="rgb(50,50,50)" stroke-width="1" />
		<g>
			<title>PF01774</title>
			<polygon class="PF01774" points="174,18 181,18 192,31 181,44 174,44" stroke-linejoin="round" width="19" height="26" fill="rgb(188,47,117)" stroke="rgb(150,37,93)" stroke-width="1" opacity="0.75" />
		</g>
	</g>
	<g>
		<polygon class="NoName" points="238,16 226,16 226,1 196,31 226,61 226,46 238,46" fill="rgb(255,255,255)" fill-opacity="1.0" stroke="rgb(50,50,50)" stroke-width="1" />
		<g>
			<title>PF07690</title>
			<polygon class="PF07690" points="211,18 211,18 234,18 234,44 211,44 211,43" stroke-linejoin="round" width="23" height="26" fill="rgb(193,224,74)" stroke="rgb(154,179,59)" stroke-width="1" opacity="0.75" />
		</g>
	</g>
	<g>
		<polygon class="NoName" points="246,16 246,16 246,1 264,31 246,61 246,46 246,46" fill="rgb(255,255,255)" fill-opacity="1.0" stroke="rgb(50,50,50)" stroke-width="1" />
		<g>
			<title>PF04978</title>
			<polygon class="PF04978" points="249,18 253,18 261,31 253,44 249,44" stroke-linejoin="round" width="14" height="26" fill="rgb(102,82,189)" stroke="rgb(81,65,151)" stroke-width="1" opacity="0.75" />
		</g>
	</g>
	<g>
		<polygon class="NoName" points="269,16 269,16 269,1 288,31 269,61 269,46 269,46" fill="rgb(255,255,255)" fill-opacity="1.0" stroke="rgb(50,50,50)" stroke-width="1" />
		<g>
			<title>PF01872</title>
			<polygon class="PF01872" points="269,18 277,18 285,31 277,44 269,44" stroke-linejoin="round" width="17" height="26" fill="rgb(225,80,120)" stroke="rgb(180,64,95)" stroke-width="1" opacity="0.75" />
		</g>
	</g>
</svg>
