<svg version="1.1" baseProfile="full" xmlns="http://www.w3.org/2000/svg" width="848" height="62">
	<line x1="1" y1="31" x2="847" y2="31" style="stroke:rgb(50,50,50); stroke-width:3 "/>
	<g>
		<title>aerG2</title>
		<polygon class="aerG2" points="636,16 663,16 663,1 693,31 663,61 663,46 636,46" fill="rgb(197,177,252)" fill-opacity="1.0" stroke="rgb(78,70,100)" stroke-width="1" />
		<g>
			<title>PF00668</title>
			<polygon class="PF00668" points="639,18 677,18 683,24 683,38 677,44 639,44" stroke-linejoin="round" width="44" height="26" fill="rgb(224,184,98)" stroke="rgb(179,147,78)" stroke-width="1" opacity="0.75" />
		</g>
		<g>
			<title>PF00550</title>
			<polygon class="PF00550" points="687,28 690,31 687,34" stroke-linejoin="round" width="6" height="26" fill="rgb(103,191,88)" stroke="rgb(82,152,70)" stroke-width="1" opacity="0.75" />
		</g>
	</g>
	<g>
		<polygon class="NoName" points="696,16 696,16 696,1 721,31 696,61 696,46 696,46" fill="rgb(255,255,255)" fill-opacity="1.0" stroke="rgb(50,50,50)" stroke-width="1" />
		<g>
			<title>PF13561</title>
			<polygon class="PF13561" points="697,18 707,18 718,31 707,44 697,44" stroke-linejoin="round" width="23" height="26" fill="rgb(73,205,127)" stroke="rgb(58,164,101)" stroke-width="1" opacity="0.75" />
		</g>
	</g>
	<g>
		<title>aerM_</title>
		<polygon class="aerM_" points="725,16 725,16 725,1 742,31 725,61 725,46 725,46" fill="rgb(210,252,240)" fill-opacity="1.0" stroke="rgb(84,100,96)" stroke-width="1" />
		<g>
			<title>PF00668</title>
			<polygon class="PF00668" points="728,18 732,18 739,31 732,44 728,44" stroke-linejoin="round" width="12" height="26" fill="rgb(224,184,98)" stroke="rgb(179,147,78)" stroke-width="1" opacity="0.75" />
		</g>
	</g>
	<g>
		<polygon class="NoName" points="744,16 744,16 744,1 764,31 744,61 744,46 744,46" fill="rgb(255,255,255)" fill-opacity="1.0" stroke="rgb(50,50,50)" stroke-width="1" />
		<g>
			<title>PF00132</title>
			<polygon class="PF00132" points="758,26 761,31 761,31 758,36" stroke-linejoin="round" width="3" height="26" fill="rgb(89,131,202)" stroke="rgb(71,104,161)" stroke-width="1" opacity="0.75" />
		</g>
	</g>
	<g>
		<title>aerN</title>
		<polygon class="aerN" points="770,16 806,16 806,1 836,31 806,61 806,46 770,46" fill="rgb(198,251,251)" fill-opacity="1.0" stroke="rgb(79,100,100)" stroke-width="1" />
		<g>
			<title>PF06472</title>
			<rect class="PF06472" x="774" y="18" stroke-linejoin="round" width="26" height="26" fill="rgb(120,179,45)" stroke="rgb(96,143,36)" stroke-width="1" opacity="0.75" />
		</g>
		<g>
			<title>PF00005</title>
			<polygon class="PF00005" points="809,18 820,18 822,20 822,42 820,44 809,44" stroke-linejoin="round" width="13" height="26" fill="rgb(129,201,63)" stroke="rgb(103,160,50)" stroke-width="1" opacity="0.75" />
		</g>
	</g>
	<g>
		<title>aerA</title>
		<polygon class="aerA" points="4,16 116,16 116,1 146,31 116,61 116,46 4,46" fill="rgb(254,232,192)" fill-opacity="1.0" stroke="rgb(101,92,76)" stroke-width="1" />
		<g>
			<title>PF00501</title>
			<rect class="PF00501" x="22" y="18" stroke-linejoin="round" width="44" height="26" fill="rgb(60,217,223)" stroke="rgb(48,173,178)" stroke-width="1" opacity="0.75" />
		</g>
		<g>
			<title>PF08659</title>
			<rect class="PF08659" x="103" y="18" stroke-linejoin="round" width="19" height="26" fill="rgb(66,209,188)" stroke="rgb(52,167,150)" stroke-width="1" opacity="0.75" />
		</g>
		<g>
			<title>PF00550</title>
			<polygon class="PF00550" points="136,24 142,30 142,32 136,38" stroke-linejoin="round" width="6" height="26" fill="rgb(103,191,88)" stroke="rgb(82,152,70)" stroke-width="1" opacity="0.75" />
		</g>
	</g>
	<g>
		<title>aerJ</title>
		<polygon class="aerJ" points="154,16 186,16 186,1 216,31 186,61 186,46 154,46" fill="rgb(223,252,198)" fill-opacity="1.0" stroke="rgb(89,100,79)" stroke-width="1" />
		<g>
			<title>PF01494</title>
			<rect class="PF01494" x="160" y="18" stroke-linejoin="round" width="24" height="26" fill="rgb(182,175,59)" stroke="rgb(145,140,47)" stroke-width="1" opacity="0.75" />
		</g>
	</g>
	<g>
		<title>aerB</title>
		<polygon class="aerB" points="221,16 350,16 350,1 380,31 350,61 350,46 221,46" fill="rgb(252,252,210)" fill-opacity="1.0" stroke="rgb(100,100,84)" stroke-width="1" />
		<g>
			<title>PF00668</title>
			<rect class="PF00668" x="228" y="18" stroke-linejoin="round" width="44" height="26" fill="rgb(224,184,98)" stroke="rgb(179,147,78)" stroke-width="1" opacity="0.75" />
		</g>
		<g>
			<title>PF00501</title>
			<rect class="PF00501" x="274" y="18" stroke-linejoin="round" width="39" height="26" fill="rgb(60,217,223)" stroke="rgb(48,173,178)" stroke-width="1" opacity="0.75" />
		</g>
		<g>
			<title>PF13193</title>
			<rect class="PF13193" x="315" y="18" stroke-linejoin="round" width="7" height="26" fill="rgb(182,50,118)" stroke="rgb(145,39,94)" stroke-width="1" opacity="0.75" />
		</g>
		<g>
			<title>PF00550</title>
			<rect class="PF00550" x="325" y="18" stroke-linejoin="round" width="6" height="26" fill="rgb(103,191,88)" stroke="rgb(82,152,70)" stroke-width="1" opacity="0.75" />
		</g>
		<g>
			<title>PF00668</title>
			<polygon class="PF00668" points="333,18 364,18 377,31 364,44 333,44" stroke-linejoin="round" width="45" height="26" fill="rgb(224,184,98)" stroke="rgb(179,147,78)" stroke-width="1" opacity="0.75" />
		</g>
	</g>
	<g>
		<title>aerK</title>
		<polygon class="aerK" points="382,16 386,16 386,1 416,31 386,61 386,46 382,46" fill="rgb(208,183,254)" fill-opacity="1.0" stroke="rgb(83,73,101)" stroke-width="1" />
		<g>
			<title>PF01070</title>
			<rect class="PF01070" x="382" y="18" stroke-linejoin="round" width="10" height="26" fill="rgb(59,82,204)" stroke="rgb(47,65,163)" stroke-width="1" opacity="0.75" />
		</g>
		<g>
			<title>PF01070</title>
			<polygon class="PF01070" points="397,18 400,18 413,31 400,44 397,44" stroke-linejoin="round" width="19" height="26" fill="rgb(59,82,204)" stroke="rgb(47,65,163)" stroke-width="1" opacity="0.75" />
		</g>
	</g>
	<g>
		<title>aerD</title>
		<polygon class="aerD" points="416,16 416,16 416,1 437,31 416,61 416,46 416,46" fill="rgb(178,224,253)" fill-opacity="1.0" stroke="rgb(71,89,101)" stroke-width="1" />
	</g>
	<g>
		<title>aerE</title>
		<polygon class="aerE" points="441,16 441,16 441,1 461,31 441,61 441,46 441,46" fill="rgb(253,188,212)" fill-opacity="1.0" stroke="rgb(101,75,84)" stroke-width="1" />
		<g>
			<title>PF07883</title>
			<polygon class="PF07883" points="454,25 458,31 454,37" stroke-linejoin="round" width="6" height="26" fill="rgb(211,192,74)" stroke="rgb(168,153,59)" stroke-width="1" opacity="0.75" />
		</g>
	</g>
	<g>
		<title>aerF</title>
		<polygon class="aerF" points="463,16 463,16 463,1 489,31 463,61 463,46 463,46" fill="rgb(185,237,251)" fill-opacity="1.0" stroke="rgb(74,94,100)" stroke-width="1" />
		<g>
			<title>PF13561</title>
			<polygon class="PF13561" points="464,18 475,18 486,31 475,44 464,44" stroke-linejoin="round" width="24" height="26" fill="rgb(73,205,127)" stroke="rgb(58,164,101)" stroke-width="1" opacity="0.75" />
		</g>
	</g>
	<g>
		<title>aerL</title>
		<polygon class="aerL" points="491,16 492,16 492,1 522,31 492,61 492,46 491,46" fill="rgb(204,252,231)" fill-opacity="1.0" stroke="rgb(81,100,92)" stroke-width="1" />
		<g>
			<title>PF10364</title>
			<polygon class="PF10364" points="507,19 519,31 507,43" stroke-linejoin="round" width="13" height="26" fill="rgb(162,59,200)" stroke="rgb(129,47,160)" stroke-width="1" opacity="0.75" />
		</g>
	</g>
	<g>
		<title>aerG1</title>
		<polygon class="aerG1" points="526,16 605,16 605,1 635,31 605,61 605,46 526,46" fill="rgb(201,251,234)" fill-opacity="1.0" stroke="rgb(80,100,93)" stroke-width="1" />
		<g>
			<title>PF00668</title>
			<rect class="PF00668" x="527" y="18" stroke-linejoin="round" width="44" height="26" fill="rgb(224,184,98)" stroke="rgb(179,147,78)" stroke-width="1" opacity="0.75" />
		</g>
		<g>
			<title>PF00501</title>
			<rect class="PF00501" x="574" y="18" stroke-linejoin="round" width="40" height="26" fill="rgb(60,217,223)" stroke="rgb(48,173,178)" stroke-width="1" opacity="0.75" />
		</g>
		<g>
			<title>PF13193</title>
			<polygon class="PF13193" points="614,18 619,18 621,20 621,42 619,44 614,44" stroke-linejoin="round" width="7" height="26" fill="rgb(182,50,118)" stroke="rgb(145,39,94)" stroke-width="1" opacity="0.75" />
		</g>
		<g>
			<title>PF00550</title>
			<polygon class="PF00550" points="625,24 631,30 631,32 625,38" stroke-linejoin="round" width="6" height="26" fill="rgb(103,191,88)" stroke="rgb(82,152,70)" stroke-width="1" opacity="0.75" />
		</g>
	</g>
</svg>
