<svg version="1.1" baseProfile="full" xmlns="http://www.w3.org/2000/svg" width="274" height="62">
	<line x1="1" y1="31" x2="273" y2="31" style="stroke:rgb(50,50,50); stroke-width:3 "/>
	<g>
		<title>clvE</title>
		<polygon class="clvE" points="25,16 25,16 25,1 1,31 25,61 25,46 25,46" fill="rgb(231,254,203)" fill-opacity="1.0" stroke="rgb(92,101,81)" stroke-width="1" />
		<g>
			<title>PF12730</title>
			<polygon class="PF12730" points="8,25 13,18 25,18 25,44 13,44 8,36" stroke-linejoin="round" width="17" height="26" fill="rgb(203,161,59)" stroke="rgb(162,128,47)" stroke-width="1" opacity="0.75" />
		</g>
	</g>
	<g>
		<title>clvG</title>
		<polygon class="clvG" points="51,16 51,16 51,1 26,31 51,61 51,46 51,46" fill="rgb(236,185,252)" fill-opacity="1.0" stroke="rgb(94,74,100)" stroke-width="1" />
		<g>
			<title>PF12730</title>
			<polygon class="PF12730" points="32,26 39,18 50,18 50,44 39,44 32,35" stroke-linejoin="round" width="18" height="26" fill="rgb(203,161,59)" stroke="rgb(162,128,47)" stroke-width="1" opacity="0.75" />
		</g>
	</g>
	<g>
		<title>clvF</title>
		<polygon class="clvF" points="81,16 81,16 81,1 51,31 81,61 81,46 81,46" fill="rgb(242,180,251)" fill-opacity="1.0" stroke="rgb(96,72,100)" stroke-width="1" />
		<g>
			<title>PF00005</title>
			<polygon class="PF00005" points="64,20 66,18 78,18 78,44 66,44 64,41" stroke-linejoin="round" width="14" height="26" fill="rgb(129,201,63)" stroke="rgb(103,160,50)" stroke-width="1" opacity="0.75" />
		</g>
	</g>
	<g>
		<title>clvR</title>
		<polygon class="clvR" points="108,16 108,16 108,1 86,31 108,61 108,46 108,46" fill="rgb(231,254,202)" fill-opacity="1.0" stroke="rgb(92,101,80)" stroke-width="1" />
		<g>
			<title>PF00196</title>
			<polygon class="PF00196" points="88,31 91,27 91,34" stroke-linejoin="round" width="5" height="26" fill="rgb(219,94,82)" stroke="rgb(175,75,65)" stroke-width="1" opacity="0.75" />
		</g>
		<g>
			<title>PF00072</title>
			<polygon class="PF00072" points="96,20 98,18 107,18 107,44 98,44 96,41" stroke-linejoin="round" width="11" height="26" fill="rgb(100,107,203)" stroke="rgb(80,85,162)" stroke-width="1" opacity="0.75" />
		</g>
	</g>
	<g>
		<title>clvK</title>
		<polygon class="clvK" points="145,16 138,16 138,1 108,31 138,61 138,46 145,46" fill="rgb(237,194,250)" fill-opacity="1.0" stroke="rgb(94,77,100)" stroke-width="1" />
		<g>
			<title>PF07730</title>
			<polygon class="PF07730" points="122,19 123,18 128,18 128,44 123,44 122,42" stroke-linejoin="round" width="6" height="26" fill="rgb(190,53,146)" stroke="rgb(152,42,116)" stroke-width="1" opacity="0.75" />
		</g>
	</g>
	<g>
		<title>clvA</title>
		<polygon class="clvA" points="158,16 158,16 158,1 164,31 158,61 158,46 158,46" fill="rgb(221,189,253)" fill-opacity="1.0" stroke="rgb(88,75,101)" stroke-width="1" />
	</g>
	<g>
		<title>clvM</title>
		<polygon class="clvM" points="168,16 243,16 243,1 273,31 243,61 243,46 168,46" fill="rgb(238,204,253)" fill-opacity="1.0" stroke="rgb(95,81,101)" stroke-width="1" />
		<g>
			<title>PF13575</title>
			<rect class="PF13575" x="187" y="18" stroke-linejoin="round" width="37" height="26" fill="rgb(228,84,217)" stroke="rgb(182,67,173)" stroke-width="1" opacity="0.75" />
		</g>
		<g>
			<title>PF05147</title>
			<polygon class="PF05147" points="237,18 257,18 270,31 257,44 237,44" stroke-linejoin="round" width="34" height="26" fill="rgb(129,182,79)" stroke="rgb(103,145,63)" stroke-width="1" opacity="0.75" />
		</g>
	</g>
</svg>
