<svg version="1.1" baseProfile="full" xmlns="http://www.w3.org/2000/svg" width="993" height="62">
	<line x1="1" y1="31" x2="992" y2="31" style="stroke:rgb(50,50,50); stroke-width:3 "/>
	<g>
		<title>nucN</title>
		<polygon class="nucN" points="407,16 410,16 410,1 440,31 410,61 410,46 407,46" fill="rgb(243,207,252)" fill-opacity="1.0" stroke="rgb(97,82,100)" stroke-width="1" />
		<g>
			<title>PF02274</title>
			<polygon class="PF02274" points="412,18 424,18 437,31 424,44 412,44" stroke-linejoin="round" width="26" height="26" fill="rgb(194,129,75)" stroke="rgb(155,103,60)" stroke-width="1" opacity="0.75" />
		</g>
	</g>
	<g>
		<title>nucI</title>
		<polygon class="nucI" points="485,16 476,16 476,1 446,31 476,61 476,46 485,46" fill="rgb(221,215,254)" fill-opacity="1.0" stroke="rgb(88,86,101)" stroke-width="1" />
		<g>
			<title>PF00884</title>
			<polygon class="PF00884" points="456,23 461,18 484,18 484,44 461,44 456,38" stroke-linejoin="round" width="28" height="26" fill="rgb(61,103,198)" stroke="rgb(48,82,158)" stroke-width="1" opacity="0.75" />
		</g>
	</g>
	<g>
		<polygon class="NoName" points="489,16 493,16 493,1 523,31 493,61 493,46 489,46" fill="rgb(255,255,255)" fill-opacity="1.0" stroke="rgb(50,50,50)" stroke-width="1" />
		<g>
			<title>PF02195</title>
			<rect class="PF02195" x="490" y="18" stroke-linejoin="round" width="8" height="26" fill="rgb(55,214,209)" stroke="rgb(44,171,167)" stroke-width="1" opacity="0.75" />
		</g>
	</g>
	<g>
		<title>nucJ</title>
		<polygon class="nucJ" points="525,16 551,16 551,1 581,31 551,61 551,46 525,46" fill="rgb(194,199,251)" fill-opacity="1.0" stroke="rgb(77,79,100)" stroke-width="1" />
		<g>
			<title>PF02310</title>
			<rect class="PF02310" x="531" y="18" stroke-linejoin="round" width="10" height="26" fill="rgb(145,190,60)" stroke="rgb(115,152,48)" stroke-width="1" opacity="0.75" />
		</g>
		<g>
			<title>PF04055</title>
			<rect class="PF04055" x="548" y="18" stroke-linejoin="round" width="15" height="26" fill="rgb(149,56,222)" stroke="rgb(119,44,177)" stroke-width="1" opacity="0.75" />
		</g>
	</g>
	<g>
		<title>nucK</title>
		<polygon class="nucK" points="581,16 587,16 587,1 617,31 587,61 587,46 581,46" fill="rgb(251,245,211)" fill-opacity="1.0" stroke="rgb(100,98,84)" stroke-width="1" />
		<g>
			<title>PF13469</title>
			<polygon class="PF13469" points="581,18 601,18 602,19 602,43 601,44 581,44" stroke-linejoin="round" width="21" height="26" fill="rgb(59,182,84)" stroke="rgb(47,145,67)" stroke-width="1" opacity="0.75" />
		</g>
	</g>
	<g>
		<title>nucL</title>
		<polygon class="nucL" points="626,16 626,16 626,1 651,31 626,61 626,46 626,46" fill="rgb(224,251,188)" fill-opacity="1.0" stroke="rgb(89,100,75)" stroke-width="1" />
		<g>
			<title>PF08241</title>
			<polygon class="PF08241" points="630,18 637,18 638,19 638,43 637,44 630,44" stroke-linejoin="round" width="8" height="26" fill="rgb(106,219,159)" stroke="rgb(84,175,127)" stroke-width="1" opacity="0.75" />
		</g>
	</g>
	<g>
		<title>nucQ</title>
		<polygon class="nucQ" points="652,16 652,16 652,1 667,31 652,61 652,46 652,46" fill="rgb(253,178,217)" fill-opacity="1.0" stroke="rgb(101,71,86)" stroke-width="1" />
		<g>
			<title>PF02915</title>
			<polygon class="PF02915" points="653,18 658,18 664,31 658,44 653,44" stroke-linejoin="round" width="12" height="26" fill="rgb(214,77,220)" stroke="rgb(171,61,176)" stroke-width="1" opacity="0.75" />
		</g>
	</g>
	<g>
		<title>nucP</title>
		<polygon class="nucP" points="667,16 703,16 703,1 733,31 703,61 703,46 667,46" fill="rgb(240,250,211)" fill-opacity="1.0" stroke="rgb(96,100,84)" stroke-width="1" />
		<g>
			<title>PF02518</title>
			<rect class="PF02518" x="671" y="18" stroke-linejoin="round" width="14" height="26" fill="rgb(80,94,225)" stroke="rgb(64,75,180)" stroke-width="1" opacity="0.75" />
		</g>
		<g>
			<title>PF00204</title>
			<rect class="PF00204" x="690" y="18" stroke-linejoin="round" width="17" height="26" fill="rgb(66,134,179)" stroke="rgb(52,107,143)" stroke-width="1" opacity="0.75" />
		</g>
		<g>
			<title>PF08241</title>
			<polygon class="PF08241" points="712,18 717,18 720,21 720,41 717,44 712,44" stroke-linejoin="round" width="8" height="26" fill="rgb(106,219,159)" stroke="rgb(84,175,127)" stroke-width="1" opacity="0.75" />
		</g>
	</g>
	<g>
		<title>nucO</title>
		<polygon class="nucO" points="733,16 749,16 749,1 779,31 749,61 749,46 733,46" fill="rgb(180,250,189)" fill-opacity="1.0" stroke="rgb(72,100,75)" stroke-width="1" />
		<g>
			<title>PF13469</title>
			<rect class="PF13469" x="755" y="18" stroke-linejoin="round" width="8" height="26" fill="rgb(59,182,84)" stroke="rgb(47,145,67)" stroke-width="1" opacity="0.75" />
		</g>
	</g>
	<g>
		<title>nucV</title>
		<polygon class="nucV" points="780,16 780,16 780,1 799,31 780,61 780,46 780,46" fill="rgb(250,226,206)" fill-opacity="1.0" stroke="rgb(100,90,82)" stroke-width="1" />
		<g>
			<title>PF00156</title>
			<polygon class="PF00156" points="785,18 788,18 796,31 788,44 785,44" stroke-linejoin="round" width="13" height="26" fill="rgb(210,210,74)" stroke="rgb(168,168,59)" stroke-width="1" opacity="0.75" />
		</g>
	</g>
	<g>
		<polygon class="NoName" points="6,16 9,16 9,1 39,31 9,61 9,46 6,46" fill="rgb(255,255,255)" fill-opacity="1.0" stroke="rgb(50,50,50)" stroke-width="1" />
		<g>
			<title>PF01408</title>
			<rect class="PF01408" x="6" y="18" stroke-linejoin="round" width="11" height="26" fill="rgb(76,117,190)" stroke="rgb(60,93,152)" stroke-width="1" opacity="0.75" />
		</g>
		<g>
			<title>PF02894</title>
			<polygon class="PF02894" points="19,18 23,18 24,19 24,43 23,44 19,44" stroke-linejoin="round" width="5" height="26" fill="rgb(195,223,82)" stroke="rgb(155,178,65)" stroke-width="1" opacity="0.75" />
		</g>
	</g>
	<g>
		<polygon class="NoName" points="821,16 821,16 821,1 801,31 821,61 821,46 821,46" fill="rgb(255,255,255)" fill-opacity="1.0" stroke="rgb(50,50,50)" stroke-width="1" />
		<g>
			<title>PF00196</title>
			<polygon class="PF00196" points="803,31 806,27 806,34" stroke-linejoin="round" width="5" height="26" fill="rgb(219,94,82)" stroke="rgb(175,75,65)" stroke-width="1" opacity="0.75" />
		</g>
	</g>
	<g>
		<polygon class="NoName" points="828,16 828,16 828,1 855,31 828,61 828,46 828,46" fill="rgb(255,255,255)" fill-opacity="1.0" stroke="rgb(50,50,50)" stroke-width="1" />
		<g>
			<title>PF01048</title>
			<polygon class="PF01048" points="828,18 840,18 852,31 852,31 840,44 828,44" stroke-linejoin="round" width="24" height="26" fill="rgb(75,186,148)" stroke="rgb(60,148,118)" stroke-width="1" opacity="0.75" />
		</g>
	</g>
	<g>
		<polygon class="NoName" points="859,16 918,16 918,1 948,31 918,61 918,46 859,46" fill="rgb(255,255,255)" fill-opacity="1.0" stroke="rgb(50,50,50)" stroke-width="1" />
		<g>
			<title>PF13454</title>
			<rect class="PF13454" x="859" y="18" stroke-linejoin="round" width="15" height="26" fill="rgb(102,219,118)" stroke="rgb(81,175,94)" stroke-width="1" opacity="0.75" />
		</g>
	</g>
	<g>
		<polygon class="NoName" points="981,16 981,16 981,1 951,31 981,61 981,46 981,46" fill="rgb(255,255,255)" fill-opacity="1.0" stroke="rgb(50,50,50)" stroke-width="1" />
		<g>
			<title>PF00535</title>
			<polygon class="PF00535" points="964,20 966,18 980,18 980,44 966,44 964,41" stroke-linejoin="round" width="16" height="26" fill="rgb(224,122,96)" stroke="rgb(179,97,76)" stroke-width="1" opacity="0.75" />
		</g>
	</g>
	<g>
		<title>nucU</title>
		<polygon class="nucU" points="39,16 56,16 56,1 86,31 56,61 56,46 39,46" fill="rgb(210,253,204)" fill-opacity="1.0" stroke="rgb(84,101,81)" stroke-width="1" />
		<g>
			<title>PF00999</title>
			<polygon class="PF00999" points="40,18 70,18 82,30 82,32 70,44 40,44" stroke-linejoin="round" width="42" height="26" fill="rgb(229,67,191)" stroke="rgb(183,53,152)" stroke-width="1" opacity="0.75" />
		</g>
	</g>
	<g>
		<polygon class="NoName" points="86,16 86,16 86,1 113,31 86,61 86,46 86,46" fill="rgb(255,255,255)" fill-opacity="1.0" stroke="rgb(50,50,50)" stroke-width="1" />
	</g>
	<g>
		<polygon class="NoName" points="116,16 116,16 116,1 135,31 116,61 116,46 116,46" fill="rgb(255,255,255)" fill-opacity="1.0" stroke="rgb(50,50,50)" stroke-width="1" />
		<g>
			<title>PF00300</title>
			<polygon class="PF00300" points="116,18 124,18 132,31 124,44 116,44" stroke-linejoin="round" width="18" height="26" fill="rgb(135,184,63)" stroke="rgb(107,147,50)" stroke-width="1" opacity="0.75" />
		</g>
	</g>
	<g>
		<polygon class="NoName" points="147,16 222,16 222,1 252,31 222,61 222,46 147,46" fill="rgb(255,255,255)" fill-opacity="1.0" stroke="rgb(50,50,50)" stroke-width="1" />
		<g>
			<title>PF00486</title>
			<rect class="PF00486" x="148" y="18" stroke-linejoin="round" width="7" height="26" fill="rgb(204,153,57)" stroke="rgb(163,122,45)" stroke-width="1" opacity="0.75" />
		</g>
		<g>
			<title>PF03704</title>
			<rect class="PF03704" x="157" y="18" stroke-linejoin="round" width="14" height="26" fill="rgb(217,89,196)" stroke="rgb(173,71,156)" stroke-width="1" opacity="0.75" />
		</g>
		<g>
			<title>PF00931</title>
			<rect class="PF00931" x="179" y="18" stroke-linejoin="round" width="22" height="26" fill="rgb(165,94,211)" stroke="rgb(132,75,168)" stroke-width="1" opacity="0.75" />
		</g>
		<g>
			<title>PF13424</title>
			<rect class="PF13424" x="227" y="18" stroke-linejoin="round" width="6" height="26" fill="rgb(147,215,101)" stroke="rgb(117,172,80)" stroke-width="1" opacity="0.75" />
		</g>
	</g>
	<g>
		<polygon class="NoName" points="278,16 278,16 278,1 265,31 278,61 278,46 278,46" fill="rgb(255,255,255)" fill-opacity="1.0" stroke="rgb(50,50,50)" stroke-width="1" />
	</g>
	<g>
		<title>nucR</title>
		<polygon class="nucR" points="333,16 317,16 317,1 287,31 317,61 317,46 333,46" fill="rgb(254,184,241)" fill-opacity="1.0" stroke="rgb(101,73,96)" stroke-width="1" />
		<g>
			<title>PF00083</title>
			<rect class="PF00083" x="308" y="18" stroke-linejoin="round" width="21" height="26" fill="rgb(48,186,105)" stroke="rgb(38,148,84)" stroke-width="1" opacity="0.75" />
		</g>
	</g>
	<g>
		<title>nucM</title>
		<polygon class="nucM" points="342,16 342,16 342,1 356,31 342,61 342,46 342,46" fill="rgb(184,250,232)" fill-opacity="1.0" stroke="rgb(73,100,92)" stroke-width="1" />
	</g>
	<g>
		<title>nucG</title>
		<polygon class="nucG" points="360,16 377,16 377,1 407,31 377,61 377,46 360,46" fill="rgb(203,252,235)" fill-opacity="1.0" stroke="rgb(81,100,93)" stroke-width="1" />
		<g>
			<title>PF00884</title>
			<rect class="PF00884" x="360" y="18" stroke-linejoin="round" width="10" height="26" fill="rgb(61,103,198)" stroke="rgb(48,82,158)" stroke-width="1" opacity="0.75" />
		</g>
		<g>
			<title>PF00884</title>
			<rect class="PF00884" x="372" y="18" stroke-linejoin="round" width="19" height="26" fill="rgb(61,103,198)" stroke="rgb(48,82,158)" stroke-width="1" opacity="0.75" />
		</g>
	</g>
</svg>
