<svg version="1.1" baseProfile="full" xmlns="http://www.w3.org/2000/svg" width="647" height="62">
	<line x1="1" y1="31" x2="646" y2="31" style="stroke:rgb(50,50,50); stroke-width:3 "/>
	<g>
		<title>easH</title>
		<polygon class="easH" points="1,16 1,16 1,1 19,31 1,61 1,46 1,46" fill="rgb(254,209,203)" fill-opacity="1.0" stroke="rgb(101,83,81)" stroke-width="1" />
		<g>
			<title>PF05721</title>
			<polygon class="PF05721" points="1,18 8,18 11,22 11,40 8,44 1,44" stroke-linejoin="round" width="10" height="26" fill="rgb(72,132,214)" stroke="rgb(57,105,171)" stroke-width="1" opacity="0.75" />
		</g>
	</g>
	<g>
		<title>easA</title>
		<polygon class="easA" points="72,16 64,16 64,1 34,31 64,61 64,46 72,46" fill="rgb(254,197,248)" fill-opacity="1.0" stroke="rgb(101,78,99)" stroke-width="1" />
		<g>
			<title>PF00724</title>
			<polygon class="PF00724" points="37,30 49,18 70,18 70,44 49,44 37,31" stroke-linejoin="round" width="33" height="26" fill="rgb(157,188,65)" stroke="rgb(125,150,52)" stroke-width="1" opacity="0.75" />
		</g>
	</g>
	<g>
		<title>easG</title>
		<polygon class="easG" points="118,16 123,16 123,1 153,31 123,61 123,46 118,46" fill="rgb(180,195,251)" fill-opacity="1.0" stroke="rgb(72,77,100)" stroke-width="1" />
		<g>
			<title>PF05368</title>
			<polygon class="PF05368" points="128,18 137,18 141,22 141,40 137,44 128,44" stroke-linejoin="round" width="13" height="26" fill="rgb(97,49,192)" stroke="rgb(77,39,153)" stroke-width="1" opacity="0.75" />
		</g>
	</g>
	<g>
		<title>easF</title>
		<polygon class="easF" points="190,16 184,16 184,1 154,31 184,61 184,46 190,46" fill="rgb(197,250,227)" fill-opacity="1.0" stroke="rgb(78,100,90)" stroke-width="1" />
		<g>
			<title>PF10017</title>
			<polygon class="PF10017" points="156,31 169,18 169,43" stroke-linejoin="round" width="13" height="26" fill="rgb(228,226,80)" stroke="rgb(182,180,64)" stroke-width="1" opacity="0.75" />
		</g>
	</g>
	<g>
		<title>easE</title>
		<polygon class="easE" points="272,16 237,16 237,1 207,31 237,61 237,46 272,46" fill="rgb(250,211,243)" fill-opacity="1.0" stroke="rgb(100,84,97)" stroke-width="1" />
		<g>
			<title>PF08031</title>
			<polygon class="PF08031" points="214,26 218,22 218,39 214,35" stroke-linejoin="round" width="4" height="26" fill="rgb(210,73,83)" stroke="rgb(168,58,66)" stroke-width="1" opacity="0.75" />
		</g>
		<g>
			<title>PF01565</title>
			<rect class="PF01565" x="244" y="18" stroke-linejoin="round" width="14" height="26" fill="rgb(226,88,136)" stroke="rgb(180,70,108)" stroke-width="1" opacity="0.75" />
		</g>
	</g>
	<g>
		<title>lpsB</title>
		<polygon class="lpsB" points="314,16 421,16 421,1 451,31 421,61 421,46 314,46" fill="rgb(251,220,178)" fill-opacity="1.0" stroke="rgb(100,88,71)" stroke-width="1" />
		<g>
			<title>PF00668</title>
			<rect class="PF00668" x="316" y="18" stroke-linejoin="round" width="23" height="26" fill="rgb(224,184,98)" stroke="rgb(179,147,78)" stroke-width="1" opacity="0.75" />
		</g>
		<g>
			<title>PF00501</title>
			<rect class="PF00501" x="342" y="18" stroke-linejoin="round" width="40" height="26" fill="rgb(60,217,223)" stroke="rgb(48,173,178)" stroke-width="1" opacity="0.75" />
		</g>
		<g>
			<title>PF00550</title>
			<rect class="PF00550" x="397" y="18" stroke-linejoin="round" width="6" height="26" fill="rgb(103,191,88)" stroke="rgb(82,152,70)" stroke-width="1" opacity="0.75" />
		</g>
		<g>
			<title>PF00668</title>
			<polygon class="PF00668" points="408,18 435,18 448,31 448,31 435,44 408,44" stroke-linejoin="round" width="40" height="26" fill="rgb(224,184,98)" stroke="rgb(179,147,78)" stroke-width="1" opacity="0.75" />
		</g>
	</g>
</svg>
