<svg version="1.1" baseProfile="full" xmlns="http://www.w3.org/2000/svg" width="229" height="62">
	<line x1="1" y1="31" x2="228" y2="31" style="stroke:rgb(50,50,50); stroke-width:3 "/>
	<g>
		<title>wA</title>
		<polygon class="wA" points="227,16 35,16 35,1 5,31 35,61 35,46 227,46" fill="rgb(250,192,239)" fill-opacity="1.0" stroke="rgb(100,76,95)" stroke-width="1" />
		<g>
			<title>PF00975</title>
			<polygon class="PF00975" points="12,26 20,18 37,18 37,44 20,44 12,35" stroke-linejoin="round" width="25" height="26" fill="rgb(207,80,138)" stroke="rgb(165,63,110)" stroke-width="1" opacity="0.75" />
		</g>
		<g>
			<title>PF00550</title>
			<rect class="PF00550" x="43" y="18" stroke-linejoin="round" width="6" height="26" fill="rgb(103,191,88)" stroke="rgb(82,152,70)" stroke-width="1" opacity="0.75" />
		</g>
		<g>
			<title>PF00550</title>
			<rect class="PF00550" x="55" y="18" stroke-linejoin="round" width="6" height="26" fill="rgb(103,191,88)" stroke="rgb(82,152,70)" stroke-width="1" opacity="0.75" />
		</g>
		<g>
			<title>PF14765</title>
			<rect class="PF14765" x="67" y="18" stroke-linejoin="round" width="30" height="26" fill="rgb(173,56,182)" stroke="rgb(138,44,145)" stroke-width="1" opacity="0.75" />
		</g>
		<g>
			<title>PF00698</title>
			<rect class="PF00698" x="104" y="18" stroke-linejoin="round" width="32" height="26" fill="rgb(59,176,209)" stroke="rgb(47,140,167)" stroke-width="1" opacity="0.75" />
		</g>
		<g>
			<title>PF02801</title>
			<rect class="PF02801" x="152" y="18" stroke-linejoin="round" width="12" height="26" fill="rgb(215,78,102)" stroke="rgb(172,62,81)" stroke-width="1" opacity="0.75" />
		</g>
		<g>
			<title>PF00109</title>
			<rect class="PF00109" x="164" y="18" stroke-linejoin="round" width="25" height="26" fill="rgb(112,116,228)" stroke="rgb(89,92,182)" stroke-width="1" opacity="0.75" />
		</g>
		<g>
			<title>PF16073</title>
			<rect class="PF16073" x="203" y="18" stroke-linejoin="round" width="23" height="26" fill="rgb(77,115,183)" stroke="rgb(61,91,146)" stroke-width="1" opacity="0.75" />
		</g>
	</g>
</svg>
