<svg version="1.1" baseProfile="full" xmlns="http://www.w3.org/2000/svg" width="2727" height="62">
	<line x1="1" y1="31" x2="2726" y2="31" style="stroke:rgb(50,50,50); stroke-width:3 "/>
	<g>
		<title>almHI</title>
		<polygon class="almHI" points="1624,16 1067,16 1067,1 1037,31 1067,61 1067,46 1624,46" fill="rgb(214,251,187)" fill-opacity="1.0" stroke="rgb(85,100,74)" stroke-width="1" />
		<g>
			<title>PF00550</title>
			<polygon class="PF00550" points="1047,23 1052,18 1053,18 1053,44 1052,44 1047,38" stroke-linejoin="round" width="6" height="26" fill="rgb(103,191,88)" stroke="rgb(82,152,70)" stroke-width="1" opacity="0.75" />
		</g>
		<g>
			<title>PF08659</title>
			<rect class="PF08659" x="1066" y="18" stroke-linejoin="round" width="17" height="26" fill="rgb(66,209,188)" stroke="rgb(52,167,150)" stroke-width="1" opacity="0.75" />
		</g>
		<g>
			<title>PF14765</title>
			<rect class="PF14765" x="1107" y="18" stroke-linejoin="round" width="28" height="26" fill="rgb(173,56,182)" stroke="rgb(138,44,145)" stroke-width="1" opacity="0.75" />
		</g>
		<g>
			<title>PF00698</title>
			<rect class="PF00698" x="1140" y="18" stroke-linejoin="round" width="31" height="26" fill="rgb(59,176,209)" stroke="rgb(47,140,167)" stroke-width="1" opacity="0.75" />
		</g>
		<g>
			<title>PF16197</title>
			<rect class="PF16197" x="1176" y="18" stroke-linejoin="round" width="11" height="26" fill="rgb(68,179,89)" stroke="rgb(54,143,71)" stroke-width="1" opacity="0.75" />
		</g>
		<g>
			<title>PF02801</title>
			<rect class="PF02801" x="1188" y="18" stroke-linejoin="round" width="11" height="26" fill="rgb(215,78,102)" stroke="rgb(172,62,81)" stroke-width="1" opacity="0.75" />
		</g>
		<g>
			<title>PF00109</title>
			<rect class="PF00109" x="1200" y="18" stroke-linejoin="round" width="25" height="26" fill="rgb(112,116,228)" stroke="rgb(89,92,182)" stroke-width="1" opacity="0.75" />
		</g>
		<g>
			<title>PF00550</title>
			<rect class="PF00550" x="1228" y="18" stroke-linejoin="round" width="6" height="26" fill="rgb(103,191,88)" stroke="rgb(82,152,70)" stroke-width="1" opacity="0.75" />
		</g>
		<g>
			<title>PF08659</title>
			<rect class="PF08659" x="1246" y="18" stroke-linejoin="round" width="17" height="26" fill="rgb(66,209,188)" stroke="rgb(52,167,150)" stroke-width="1" opacity="0.75" />
		</g>
		<g>
			<title>PF00698</title>
			<rect class="PF00698" x="1290" y="18" stroke-linejoin="round" width="31" height="26" fill="rgb(59,176,209)" stroke="rgb(47,140,167)" stroke-width="1" opacity="0.75" />
		</g>
		<g>
			<title>PF16197</title>
			<rect class="PF16197" x="1325" y="18" stroke-linejoin="round" width="11" height="26" fill="rgb(68,179,89)" stroke="rgb(54,143,71)" stroke-width="1" opacity="0.75" />
		</g>
		<g>
			<title>PF02801</title>
			<rect class="PF02801" x="1337" y="18" stroke-linejoin="round" width="11" height="26" fill="rgb(215,78,102)" stroke="rgb(172,62,81)" stroke-width="1" opacity="0.75" />
		</g>
		<g>
			<title>PF00109</title>
			<rect class="PF00109" x="1350" y="18" stroke-linejoin="round" width="25" height="26" fill="rgb(112,116,228)" stroke="rgb(89,92,182)" stroke-width="1" opacity="0.75" />
		</g>
		<g>
			<title>PF00550</title>
			<rect class="PF00550" x="1378" y="18" stroke-linejoin="round" width="6" height="26" fill="rgb(103,191,88)" stroke="rgb(82,152,70)" stroke-width="1" opacity="0.75" />
		</g>
		<g>
			<title>PF08659</title>
			<rect class="PF08659" x="1396" y="18" stroke-linejoin="round" width="16" height="26" fill="rgb(66,209,188)" stroke="rgb(52,167,150)" stroke-width="1" opacity="0.75" />
		</g>
		<g>
			<title>PF00698</title>
			<rect class="PF00698" x="1439" y="18" stroke-linejoin="round" width="31" height="26" fill="rgb(59,176,209)" stroke="rgb(47,140,167)" stroke-width="1" opacity="0.75" />
		</g>
		<g>
			<title>PF16197</title>
			<rect class="PF16197" x="1475" y="18" stroke-linejoin="round" width="11" height="26" fill="rgb(68,179,89)" stroke="rgb(54,143,71)" stroke-width="1" opacity="0.75" />
		</g>
		<g>
			<title>PF02801</title>
			<rect class="PF02801" x="1486" y="18" stroke-linejoin="round" width="11" height="26" fill="rgb(215,78,102)" stroke="rgb(172,62,81)" stroke-width="1" opacity="0.75" />
		</g>
		<g>
			<title>PF00109</title>
			<rect class="PF00109" x="1499" y="18" stroke-linejoin="round" width="25" height="26" fill="rgb(112,116,228)" stroke="rgb(89,92,182)" stroke-width="1" opacity="0.75" />
		</g>
		<g>
			<title>PF00550</title>
			<rect class="PF00550" x="1526" y="18" stroke-linejoin="round" width="6" height="26" fill="rgb(103,191,88)" stroke="rgb(82,152,70)" stroke-width="1" opacity="0.75" />
		</g>
		<g>
			<title>PF00698</title>
			<rect class="PF00698" x="1540" y="18" stroke-linejoin="round" width="31" height="26" fill="rgb(59,176,209)" stroke="rgb(47,140,167)" stroke-width="1" opacity="0.75" />
		</g>
		<g>
			<title>PF16197</title>
			<rect class="PF16197" x="1576" y="18" stroke-linejoin="round" width="11" height="26" fill="rgb(68,179,89)" stroke="rgb(54,143,71)" stroke-width="1" opacity="0.75" />
		</g>
		<g>
			<title>PF02801</title>
			<rect class="PF02801" x="1588" y="18" stroke-linejoin="round" width="11" height="26" fill="rgb(215,78,102)" stroke="rgb(172,62,81)" stroke-width="1" opacity="0.75" />
		</g>
		<g>
			<title>PF00109</title>
			<rect class="PF00109" x="1601" y="18" stroke-linejoin="round" width="22" height="26" fill="rgb(112,116,228)" stroke="rgb(89,92,182)" stroke-width="1" opacity="0.75" />
		</g>
	</g>
	<g>
		<title>almRI</title>
		<polygon class="almRI" points="1633,16 1633,16 1633,1 1661,31 1633,61 1633,46 1633,46" fill="rgb(251,202,207)" fill-opacity="1.0" stroke="rgb(100,80,82)" stroke-width="1" />
		<g>
			<title>PF00891</title>
			<polygon class="PF00891" points="1641,18 1646,18 1648,21 1648,41 1646,44 1641,44" stroke-linejoin="round" width="7" height="26" fill="rgb(50,51,190)" stroke="rgb(39,40,152)" stroke-width="1" opacity="0.75" />
		</g>
	</g>
	<g>
		<title>almTII</title>
		<polygon class="almTII" points="1705,16 1694,16 1694,1 1664,31 1694,61 1694,46 1705,46" fill="rgb(231,212,253)" fill-opacity="1.0" stroke="rgb(92,84,101)" stroke-width="1" />
		<g>
			<title>PF00201</title>
			<polygon class="PF00201" points="1666,31 1675,22 1675,39" stroke-linejoin="round" width="10" height="26" fill="rgb(225,150,107)" stroke="rgb(180,120,85)" stroke-width="1" opacity="0.75" />
		</g>
		<g>
			<title>PF03033</title>
			<rect class="PF03033" x="1694" y="18" stroke-linejoin="round" width="11" height="26" fill="rgb(157,218,79)" stroke="rgb(125,174,63)" stroke-width="1" opacity="0.75" />
		</g>
	</g>
	<g>
		<title>almEIV</title>
		<polygon class="almEIV" points="1748,16 1738,16 1738,1 1708,31 1738,61 1738,46 1748,46" fill="rgb(195,253,200)" fill-opacity="1.0" stroke="rgb(78,101,80)" stroke-width="1" />
	</g>
	<g>
		<title>almEII</title>
		<polygon class="almEII" points="1781,16 1779,16 1779,1 1749,31 1779,61 1779,46 1781,46" fill="rgb(208,229,252)" fill-opacity="1.0" stroke="rgb(83,91,100)" stroke-width="1" />
		<g>
			<title>PF01370</title>
			<polygon class="PF01370" points="1756,26 1764,18 1780,18 1780,44 1764,44 1756,35" stroke-linejoin="round" width="24" height="26" fill="rgb(98,102,214)" stroke="rgb(78,81,171)" stroke-width="1" opacity="0.75" />
		</g>
	</g>
	<g>
		<title>almN</title>
		<polygon class="almN" points="1787,16 1787,16 1787,1 1782,31 1787,61 1787,46 1787,46" fill="rgb(183,236,253)" fill-opacity="1.0" stroke="rgb(73,94,101)" stroke-width="1" />
	</g>
	<g>
		<title>almPI</title>
		<polygon class="almPI" points="1824,16 1820,16 1820,1 1790,31 1820,61 1820,46 1824,46" fill="rgb(187,248,251)" fill-opacity="1.0" stroke="rgb(74,99,100)" stroke-width="1" />
		<g>
			<title>PF00067</title>
			<polygon class="PF00067" points="1793,30 1805,18 1811,18 1811,44 1805,44 1793,31" stroke-linejoin="round" width="18" height="26" fill="rgb(85,216,107)" stroke="rgb(68,172,85)" stroke-width="1" opacity="0.75" />
		</g>
	</g>
	<g>
		<title>almEIII</title>
		<polygon class="almEIII" points="1840,16 1840,16 1840,1 1865,31 1840,61 1840,46 1840,46" fill="rgb(189,238,251)" fill-opacity="1.0" stroke="rgb(75,95,100)" stroke-width="1" />
		<g>
			<title>PF05711</title>
			<polygon class="PF05711" points="1840,18 1851,18 1862,31 1851,44 1840,44" stroke-linejoin="round" width="24" height="26" fill="rgb(175,228,98)" stroke="rgb(139,182,78)" stroke-width="1" opacity="0.75" />
		</g>
	</g>
	<g>
		<title>almEI</title>
		<polygon class="almEI" points="1872,16 1872,16 1872,1 1887,31 1872,61 1872,46 1872,46" fill="rgb(231,206,251)" fill-opacity="1.0" stroke="rgb(92,82,100)" stroke-width="1" />
		<g>
			<title>PF00908</title>
			<polygon class="PF00908" points="1872,18 1878,18 1884,31 1878,44 1872,44" stroke-linejoin="round" width="13" height="26" fill="rgb(184,89,121)" stroke="rgb(147,71,96)" stroke-width="1" opacity="0.75" />
		</g>
	</g>
	<g>
		<title>almAI</title>
		<polygon class="almAI" points="1900,16 1900,16 1900,1 1928,31 1900,61 1900,46 1900,46" fill="rgb(186,252,225)" fill-opacity="1.0" stroke="rgb(74,100,90)" stroke-width="1" />
		<g>
			<title>PF00483</title>
			<polygon class="PF00483" points="1900,18 1913,18 1922,28 1922,34 1913,44 1900,44" stroke-linejoin="round" width="22" height="26" fill="rgb(198,101,87)" stroke="rgb(158,80,69)" stroke-width="1" opacity="0.75" />
		</g>
	</g>
	<g>
		<polygon class="NoName" points="37,16 31,16 31,1 1,31 31,61 31,46 37,46" fill="rgb(255,255,255)" fill-opacity="1.0" stroke="rgb(50,50,50)" stroke-width="1" />
		<g>
			<title>PF13358</title>
			<polygon class="PF13358" points="5,29 16,18 19,18 19,44 16,44 5,32" stroke-linejoin="round" width="14" height="26" fill="rgb(50,81,198)" stroke="rgb(40,64,158)" stroke-width="1" opacity="0.75" />
		</g>
		<g>
			<title>PF13565</title>
			<rect class="PF13565" x="24" y="18" stroke-linejoin="round" width="7" height="26" fill="rgb(89,225,112)" stroke="rgb(71,180,89)" stroke-width="1" opacity="0.75" />
		</g>
	</g>
	<g>
		<title>almAII</title>
		<polygon class="almAII" points="1930,16 1932,16 1932,1 1962,31 1932,61 1932,46 1930,46" fill="rgb(254,193,198)" fill-opacity="1.0" stroke="rgb(101,77,79)" stroke-width="1" />
		<g>
			<title>PF16363</title>
			<polygon class="PF16363" points="1930,18 1946,18 1959,31 1946,44 1930,44" stroke-linejoin="round" width="30" height="26" fill="rgb(162,221,65)" stroke="rgb(129,176,51)" stroke-width="1" opacity="0.75" />
		</g>
	</g>
	<g>
		<title>almM</title>
		<polygon class="almM" points="1962,16 1962,16 1962,1 1991,31 1962,61 1962,46 1962,46" fill="rgb(251,200,203)" fill-opacity="1.0" stroke="rgb(100,80,81)" stroke-width="1" />
		<g>
			<title>PF00975</title>
			<polygon class="PF00975" points="1965,18 1975,18 1987,30 1987,32 1975,44 1965,44" stroke-linejoin="round" width="22" height="26" fill="rgb(207,80,138)" stroke="rgb(165,63,110)" stroke-width="1" opacity="0.75" />
		</g>
	</g>
	<g>
		<title>almPIII</title>
		<polygon class="almPIII" points="1991,16 2001,16 2001,1 2031,31 2001,61 2001,46 1991,46" fill="rgb(251,199,187)" fill-opacity="1.0" stroke="rgb(100,79,74)" stroke-width="1" />
		<g>
			<title>PF00067</title>
			<polygon class="PF00067" points="2008,18 2015,18 2028,31 2015,44 2008,44" stroke-linejoin="round" width="21" height="26" fill="rgb(85,216,107)" stroke="rgb(68,172,85)" stroke-width="1" opacity="0.75" />
		</g>
	</g>
	<g>
		<title>almPII</title>
		<polygon class="almPII" points="2032,16 2044,16 2044,1 2074,31 2044,61 2044,46 2032,46" fill="rgb(211,250,203)" fill-opacity="1.0" stroke="rgb(84,100,81)" stroke-width="1" />
		<g>
			<title>PF00067</title>
			<polygon class="PF00067" points="2051,18 2058,18 2071,31 2071,31 2058,44 2051,44" stroke-linejoin="round" width="20" height="26" fill="rgb(85,216,107)" stroke="rgb(68,172,85)" stroke-width="1" opacity="0.75" />
		</g>
	</g>
	<g>
		<title>almRII</title>
		<polygon class="almRII" points="2080,16 2132,16 2132,1 2162,31 2132,61 2132,46 2080,46" fill="rgb(248,198,251)" fill-opacity="1.0" stroke="rgb(99,79,100)" stroke-width="1" />
		<g>
			<title>PF00933</title>
			<rect class="PF00933" x="2087" y="18" stroke-linejoin="round" width="25" height="26" fill="rgb(179,79,172)" stroke="rgb(143,63,137)" stroke-width="1" opacity="0.75" />
		</g>
		<g>
			<title>PF01915</title>
			<polygon class="PF01915" points="2116,18 2146,18 2149,21 2149,41 2146,44 2116,44" stroke-linejoin="round" width="33" height="26" fill="rgb(181,96,75)" stroke="rgb(144,76,59)" stroke-width="1" opacity="0.75" />
		</g>
		<g>
			<title>PF14310</title>
			<polygon class="PF14310" points="2153,25 2159,31 2153,37" stroke-linejoin="round" width="7" height="26" fill="rgb(206,58,194)" stroke="rgb(164,46,155)" stroke-width="1" opacity="0.75" />
		</g>
	</g>
	<g>
		<title>almBIII</title>
		<polygon class="almBIII" points="2165,16 2183,16 2183,1 2213,31 2183,61 2183,46 2165,46" fill="rgb(184,207,254)" fill-opacity="1.0" stroke="rgb(73,82,101)" stroke-width="1" />
	</g>
	<g>
		<title>almCII</title>
		<polygon class="almCII" points="2222,16 2222,16 2222,1 2246,31 2222,61 2222,46 2222,46" fill="rgb(192,254,233)" fill-opacity="1.0" stroke="rgb(76,101,93)" stroke-width="1" />
		<g>
			<title>PF05711</title>
			<polygon class="PF05711" points="2222,18 2233,18 2243,31 2233,44 2222,44" stroke-linejoin="round" width="23" height="26" fill="rgb(175,228,98)" stroke="rgb(139,182,78)" stroke-width="1" opacity="0.75" />
		</g>
	</g>
	<g>
		<title>almBII</title>
		<polygon class="almBII" points="2251,16 2261,16 2261,1 2291,31 2261,61 2261,46 2251,46" fill="rgb(252,210,206)" fill-opacity="1.0" stroke="rgb(100,84,82)" stroke-width="1" />
		<g>
			<title>PF01041</title>
			<polygon class="PF01041" points="2254,18 2275,18 2288,31 2275,44 2254,44" stroke-linejoin="round" width="35" height="26" fill="rgb(59,139,191)" stroke="rgb(47,111,152)" stroke-width="1" opacity="0.75" />
		</g>
	</g>
	<g>
		<title>almCI</title>
		<polygon class="almCI" points="2294,16 2297,16 2297,1 2327,31 2297,61 2297,46 2294,46" fill="rgb(252,182,199)" fill-opacity="1.0" stroke="rgb(100,72,79)" stroke-width="1" />
		<g>
			<title>PF00248</title>
			<polygon class="PF00248" points="2295,18 2311,18 2321,28 2321,34 2311,44 2295,44" stroke-linejoin="round" width="26" height="26" fill="rgb(225,205,58)" stroke="rgb(180,164,46)" stroke-width="1" opacity="0.75" />
		</g>
	</g>
	<g>
		<title>almUI</title>
		<polygon class="almUI" points="2332,16 2333,16 2333,1 2363,31 2333,61 2333,46 2332,46" fill="rgb(250,250,190)" fill-opacity="1.0" stroke="rgb(100,100,76)" stroke-width="1" />
		<g>
			<title>PF04072</title>
			<polygon class="PF04072" points="2334,18 2347,18 2352,23 2352,39 2347,44 2334,44" stroke-linejoin="round" width="18" height="26" fill="rgb(94,159,219)" stroke="rgb(75,127,175)" stroke-width="1" opacity="0.75" />
		</g>
	</g>
	<g>
		<polygon class="NoName" points="45,16 45,16 45,1 38,31 45,61 45,46 45,46" fill="rgb(255,255,255)" fill-opacity="1.0" stroke="rgb(50,50,50)" stroke-width="1" />
	</g>
	<g>
		<title>almUII</title>
		<polygon class="almUII" points="2367,16 2371,16 2371,1 2401,31 2371,61 2371,46 2367,46" fill="rgb(249,251,206)" fill-opacity="1.0" stroke="rgb(99,100,82)" stroke-width="1" />
	</g>
	<g>
		<title>almUIII</title>
		<polygon class="almUIII" points="2401,16 2445,16 2445,1 2475,31 2445,61 2445,46 2401,46" fill="rgb(205,179,252)" fill-opacity="1.0" stroke="rgb(82,71,100)" stroke-width="1" />
		<g>
			<title>PF14518</title>
			<polygon class="PF14518" points="2454,18 2459,18 2472,31 2472,31 2459,44 2454,44" stroke-linejoin="round" width="18" height="26" fill="rgb(71,185,105)" stroke="rgb(56,148,84)" stroke-width="1" opacity="0.75" />
		</g>
	</g>
	<g>
		<title>almDIV</title>
		<polygon class="almDIV" points="2476,16 2506,16 2506,1 2536,31 2506,61 2506,46 2476,46" fill="rgb(252,197,248)" fill-opacity="1.0" stroke="rgb(100,78,99)" stroke-width="1" />
		<g>
			<title>PF02543</title>
			<rect class="PF02543" x="2476" y="18" stroke-linejoin="round" width="34" height="26" fill="rgb(146,218,61)" stroke="rgb(116,174,48)" stroke-width="1" opacity="0.75" />
		</g>
		<g>
			<title>PF16861</title>
			<polygon class="PF16861" points="2516,18 2520,18 2533,31 2520,44 2516,44" stroke-linejoin="round" width="18" height="26" fill="rgb(183,87,154)" stroke="rgb(146,69,123)" stroke-width="1" opacity="0.75" />
		</g>
	</g>
	<g>
		<title>almUIV</title>
		<polygon class="almUIV" points="2538,16 2538,16 2538,1 2543,31 2538,61 2538,46 2538,46" fill="rgb(250,238,193)" fill-opacity="1.0" stroke="rgb(100,95,77)" stroke-width="1" />
	</g>
	<g>
		<title>almDI</title>
		<polygon class="almDI" points="2545,16 2547,16 2547,1 2577,31 2547,61 2547,46 2545,46" fill="rgb(193,254,218)" fill-opacity="1.0" stroke="rgb(77,101,87)" stroke-width="1" />
		<g>
			<title>PF00676</title>
			<polygon class="PF00676" points="2546,18 2561,18 2574,31 2561,44 2546,44" stroke-linejoin="round" width="30" height="26" fill="rgb(180,115,48)" stroke="rgb(144,92,38)" stroke-width="1" opacity="0.75" />
		</g>
	</g>
	<g>
		<title>almDII</title>
		<polygon class="almDII" points="2578,16 2582,16 2582,1 2612,31 2582,61 2582,46 2578,46" fill="rgb(254,204,237)" fill-opacity="1.0" stroke="rgb(101,81,94)" stroke-width="1" />
		<g>
			<title>PF02779</title>
			<rect class="PF02779" x="2578" y="18" stroke-linejoin="round" width="17" height="26" fill="rgb(189,186,84)" stroke="rgb(151,148,67)" stroke-width="1" opacity="0.75" />
		</g>
		<g>
			<title>PF02780</title>
			<polygon class="PF02780" points="2597,19 2609,31 2609,31 2597,43" stroke-linejoin="round" width="12" height="26" fill="rgb(76,206,101)" stroke="rgb(60,164,80)" stroke-width="1" opacity="0.75" />
		</g>
	</g>
	<g>
		<title>almDIII</title>
		<polygon class="almDIII" points="2614,16 2614,16 2614,1 2636,31 2614,61 2614,46 2614,46" fill="rgb(249,250,212)" fill-opacity="1.0" stroke="rgb(99,100,84)" stroke-width="1" />
		<g>
			<title>PF00106</title>
			<polygon class="PF00106" points="2614,18 2623,18 2631,28 2631,34 2623,44 2614,44" stroke-linejoin="round" width="17" height="26" fill="rgb(182,219,73)" stroke="rgb(145,175,58)" stroke-width="1" opacity="0.75" />
		</g>
	</g>
	<g>
		<polygon class="NoName" points="2647,16 2647,16 2647,1 2672,31 2647,61 2647,46 2647,46" fill="rgb(255,255,255)" fill-opacity="1.0" stroke="rgb(50,50,50)" stroke-width="1" />
	</g>
	<g>
		<polygon class="NoName" points="2678,16 2678,16 2678,1 2693,31 2678,61 2678,46 2678,46" fill="rgb(255,255,255)" fill-opacity="1.0" stroke="rgb(50,50,50)" stroke-width="1" />
		<g>
			<title>PF00293</title>
			<polygon class="PF00293" points="2678,18 2684,18 2690,31 2684,44 2678,44" stroke-linejoin="round" width="14" height="26" fill="rgb(92,56,187)" stroke="rgb(73,44,149)" stroke-width="1" opacity="0.75" />
		</g>
	</g>
	<g>
		<title>almK</title>
		<polygon class="almK" points="69,16 69,16 69,1 45,31 69,61 69,46 69,46" fill="rgb(215,200,250)" fill-opacity="1.0" stroke="rgb(85,80,100)" stroke-width="1" />
		<g>
			<title>PF13561</title>
			<polygon class="PF13561" points="47,31 57,18 68,18 68,44 57,44" stroke-linejoin="round" width="23" height="26" fill="rgb(73,205,127)" stroke="rgb(58,164,101)" stroke-width="1" opacity="0.75" />
		</g>
	</g>
	<g>
		<title>almTI</title>
		<polygon class="almTI" points="116,16 104,16 104,1 74,31 104,61 104,46 116,46" fill="rgb(251,187,221)" fill-opacity="1.0" stroke="rgb(100,74,88)" stroke-width="1" />
		<g>
			<title>PF06722</title>
			<polygon class="PF06722" points="86,21 89,18 95,18 95,44 89,44 86,40" stroke-linejoin="round" width="9" height="26" fill="rgb(200,129,88)" stroke="rgb(160,103,70)" stroke-width="1" opacity="0.75" />
		</g>
	</g>
	<g>
		<title>almBI</title>
		<polygon class="almBI" points="156,16 148,16 148,1 118,31 148,61 148,46 156,46" fill="rgb(231,193,253)" fill-opacity="1.0" stroke="rgb(92,77,101)" stroke-width="1" />
	</g>
	<g>
		<title>almHV</title>
		<polygon class="almHV" points="296,16 191,16 191,1 161,31 191,61 191,46 296,46" fill="rgb(202,254,186)" fill-opacity="1.0" stroke="rgb(80,101,74)" stroke-width="1" />
		<g>
			<title>PF00975</title>
			<polygon class="PF00975" points="163,31 176,18 182,18 182,44 176,44" stroke-linejoin="round" width="21" height="26" fill="rgb(207,80,138)" stroke="rgb(165,63,110)" stroke-width="1" opacity="0.75" />
		</g>
		<g>
			<title>PF00550</title>
			<rect class="PF00550" x="191" y="18" stroke-linejoin="round" width="6" height="26" fill="rgb(103,191,88)" stroke="rgb(82,152,70)" stroke-width="1" opacity="0.75" />
		</g>
		<g>
			<title>PF00698</title>
			<rect class="PF00698" x="205" y="18" stroke-linejoin="round" width="33" height="26" fill="rgb(59,176,209)" stroke="rgb(47,140,167)" stroke-width="1" opacity="0.75" />
		</g>
		<g>
			<title>PF16197</title>
			<rect class="PF16197" x="243" y="18" stroke-linejoin="round" width="11" height="26" fill="rgb(68,179,89)" stroke="rgb(54,143,71)" stroke-width="1" opacity="0.75" />
		</g>
		<g>
			<title>PF02801</title>
			<rect class="PF02801" x="255" y="18" stroke-linejoin="round" width="11" height="26" fill="rgb(215,78,102)" stroke="rgb(172,62,81)" stroke-width="1" opacity="0.75" />
		</g>
		<g>
			<title>PF00109</title>
			<rect class="PF00109" x="267" y="18" stroke-linejoin="round" width="25" height="26" fill="rgb(112,116,228)" stroke="rgb(89,92,182)" stroke-width="1" opacity="0.75" />
		</g>
	</g>
	<g>
		<title>almHIV</title>
		<polygon class="almHIV" points="462,16 331,16 331,1 301,31 331,61 331,46 462,46" fill="rgb(223,209,250)" fill-opacity="1.0" stroke="rgb(89,83,100)" stroke-width="1" />
		<g>
			<title>PF00550</title>
			<polygon class="PF00550" points="310,24 316,18 316,43 310,37" stroke-linejoin="round" width="6" height="26" fill="rgb(103,191,88)" stroke="rgb(82,152,70)" stroke-width="1" opacity="0.75" />
		</g>
		<g>
			<title>PF08659</title>
			<rect class="PF08659" x="328" y="18" stroke-linejoin="round" width="17" height="26" fill="rgb(66,209,188)" stroke="rgb(52,167,150)" stroke-width="1" opacity="0.75" />
		</g>
		<g>
			<title>PF00698</title>
			<rect class="PF00698" x="374" y="18" stroke-linejoin="round" width="31" height="26" fill="rgb(59,176,209)" stroke="rgb(47,140,167)" stroke-width="1" opacity="0.75" />
		</g>
		<g>
			<title>PF16197</title>
			<rect class="PF16197" x="410" y="18" stroke-linejoin="round" width="11" height="26" fill="rgb(68,179,89)" stroke="rgb(54,143,71)" stroke-width="1" opacity="0.75" />
		</g>
		<g>
			<title>PF02801</title>
			<rect class="PF02801" x="421" y="18" stroke-linejoin="round" width="11" height="26" fill="rgb(215,78,102)" stroke="rgb(172,62,81)" stroke-width="1" opacity="0.75" />
		</g>
		<g>
			<title>PF00109</title>
			<rect class="PF00109" x="434" y="18" stroke-linejoin="round" width="25" height="26" fill="rgb(112,116,228)" stroke="rgb(89,92,182)" stroke-width="1" opacity="0.75" />
		</g>
		<g>
			<title>PF08990</title>
			<rect class="PF08990" x="460" y="18" stroke-linejoin="round" width="2" height="26" fill="rgb(180,75,55)" stroke="rgb(144,60,44)" stroke-width="1" opacity="0.75" />
		</g>
	</g>
	<g>
		<title>almHIII</title>
		<polygon class="almHIII" points="833,16 494,16 494,1 464,31 494,61 494,46 833,46" fill="rgb(209,252,193)" fill-opacity="1.0" stroke="rgb(83,100,77)" stroke-width="1" />
		<g>
			<title>PF00550</title>
			<polygon class="PF00550" points="473,24 479,18 479,43 473,37" stroke-linejoin="round" width="6" height="26" fill="rgb(103,191,88)" stroke="rgb(82,152,70)" stroke-width="1" opacity="0.75" />
		</g>
		<g>
			<title>PF08659</title>
			<rect class="PF08659" x="492" y="18" stroke-linejoin="round" width="18" height="26" fill="rgb(66,209,188)" stroke="rgb(52,167,150)" stroke-width="1" opacity="0.75" />
		</g>
		<g>
			<title>PF13602</title>
			<rect class="PF13602" x="511" y="18" stroke-linejoin="round" width="13" height="26" fill="rgb(101,131,226)" stroke="rgb(80,104,180)" stroke-width="1" opacity="0.75" />
		</g>
		<g>
			<title>PF08240</title>
			<rect class="PF08240" x="532" y="18" stroke-linejoin="round" width="7" height="26" fill="rgb(211,65,138)" stroke="rgb(168,51,110)" stroke-width="1" opacity="0.75" />
		</g>
		<g>
			<title>PF14765</title>
			<rect class="PF14765" x="566" y="18" stroke-linejoin="round" width="30" height="26" fill="rgb(173,56,182)" stroke="rgb(138,44,145)" stroke-width="1" opacity="0.75" />
		</g>
		<g>
			<title>PF00698</title>
			<rect class="PF00698" x="601" y="18" stroke-linejoin="round" width="31" height="26" fill="rgb(59,176,209)" stroke="rgb(47,140,167)" stroke-width="1" opacity="0.75" />
		</g>
		<g>
			<title>PF16197</title>
			<rect class="PF16197" x="637" y="18" stroke-linejoin="round" width="11" height="26" fill="rgb(68,179,89)" stroke="rgb(54,143,71)" stroke-width="1" opacity="0.75" />
		</g>
		<g>
			<title>PF02801</title>
			<rect class="PF02801" x="648" y="18" stroke-linejoin="round" width="11" height="26" fill="rgb(215,78,102)" stroke="rgb(172,62,81)" stroke-width="1" opacity="0.75" />
		</g>
		<g>
			<title>PF00109</title>
			<rect class="PF00109" x="661" y="18" stroke-linejoin="round" width="25" height="26" fill="rgb(112,116,228)" stroke="rgb(89,92,182)" stroke-width="1" opacity="0.75" />
		</g>
		<g>
			<title>PF00550</title>
			<rect class="PF00550" x="689" y="18" stroke-linejoin="round" width="6" height="26" fill="rgb(103,191,88)" stroke="rgb(82,152,70)" stroke-width="1" opacity="0.75" />
		</g>
		<g>
			<title>PF08659</title>
			<rect class="PF08659" x="707" y="18" stroke-linejoin="round" width="16" height="26" fill="rgb(66,209,188)" stroke="rgb(52,167,150)" stroke-width="1" opacity="0.75" />
		</g>
		<g>
			<title>PF00698</title>
			<rect class="PF00698" x="751" y="18" stroke-linejoin="round" width="31" height="26" fill="rgb(59,176,209)" stroke="rgb(47,140,167)" stroke-width="1" opacity="0.75" />
		</g>
		<g>
			<title>PF16197</title>
			<rect class="PF16197" x="786" y="18" stroke-linejoin="round" width="11" height="26" fill="rgb(68,179,89)" stroke="rgb(54,143,71)" stroke-width="1" opacity="0.75" />
		</g>
		<g>
			<title>PF00109</title>
			<rect class="PF00109" x="804" y="18" stroke-linejoin="round" width="24" height="26" fill="rgb(112,116,228)" stroke="rgb(89,92,182)" stroke-width="1" opacity="0.75" />
		</g>
		<g>
			<title>PF08990</title>
			<rect class="PF08990" x="829" y="18" stroke-linejoin="round" width="2" height="26" fill="rgb(180,75,55)" stroke="rgb(144,60,44)" stroke-width="1" opacity="0.75" />
		</g>
	</g>
	<g>
		<title>almHII</title>
		<polygon class="almHII" points="1033,16 866,16 866,1 836,31 866,61 866,46 1033,46" fill="rgb(206,253,243)" fill-opacity="1.0" stroke="rgb(82,101,97)" stroke-width="1" />
		<g>
			<title>PF00550</title>
			<polygon class="PF00550" points="846,23 851,18 852,18 852,44 851,44 846,38" stroke-linejoin="round" width="6" height="26" fill="rgb(103,191,88)" stroke="rgb(82,152,70)" stroke-width="1" opacity="0.75" />
		</g>
		<g>
			<title>PF08659</title>
			<rect class="PF08659" x="867" y="18" stroke-linejoin="round" width="17" height="26" fill="rgb(66,209,188)" stroke="rgb(52,167,150)" stroke-width="1" opacity="0.75" />
		</g>
		<g>
			<title>PF14765</title>
			<rect class="PF14765" x="908" y="18" stroke-linejoin="round" width="29" height="26" fill="rgb(173,56,182)" stroke="rgb(138,44,145)" stroke-width="1" opacity="0.75" />
		</g>
		<g>
			<title>PF00698</title>
			<rect class="PF00698" x="942" y="18" stroke-linejoin="round" width="35" height="26" fill="rgb(59,176,209)" stroke="rgb(47,140,167)" stroke-width="1" opacity="0.75" />
		</g>
		<g>
			<title>PF16197</title>
			<rect class="PF16197" x="980" y="18" stroke-linejoin="round" width="11" height="26" fill="rgb(68,179,89)" stroke="rgb(54,143,71)" stroke-width="1" opacity="0.75" />
		</g>
		<g>
			<title>PF02801</title>
			<rect class="PF02801" x="992" y="18" stroke-linejoin="round" width="11" height="26" fill="rgb(215,78,102)" stroke="rgb(172,62,81)" stroke-width="1" opacity="0.75" />
		</g>
		<g>
			<title>PF00109</title>
			<rect class="PF00109" x="1005" y="18" stroke-linejoin="round" width="24" height="26" fill="rgb(112,116,228)" stroke="rgb(89,92,182)" stroke-width="1" opacity="0.75" />
		</g>
		<g>
			<title>PF08990</title>
			<rect class="PF08990" x="1030" y="18" stroke-linejoin="round" width="2" height="26" fill="rgb(180,75,55)" stroke="rgb(144,60,44)" stroke-width="1" opacity="0.75" />
		</g>
	</g>
</svg>
