<svg version="1.1" baseProfile="full" xmlns="http://www.w3.org/2000/svg" width="969" height="62">
	<line x1="1" y1="31" x2="968" y2="31" style="stroke:rgb(50,50,50); stroke-width:3 "/>
	<g>
		<title>btrA</title>
		<polygon class="btrA" points="310,16 402,16 402,1 432,31 402,61 402,46 310,46" fill="rgb(188,229,250)" fill-opacity="1.0" stroke="rgb(75,91,100)" stroke-width="1" />
	</g>
	<g>
		<title>btrB</title>
		<polygon class="btrB" points="433,16 446,16 446,1 476,31 446,61 446,46 433,46" fill="rgb(250,178,190)" fill-opacity="1.0" stroke="rgb(100,71,76)" stroke-width="1" />
		<g>
			<title>PF00202</title>
			<rect class="PF00202" x="435" y="18" stroke-linejoin="round" width="12" height="26" fill="rgb(49,163,189)" stroke="rgb(39,130,151)" stroke-width="1" opacity="0.75" />
		</g>
		<g>
			<title>PF00202</title>
			<polygon class="PF00202" points="449,18 460,18 470,28 470,34 460,44 449,44" stroke-linejoin="round" width="21" height="26" fill="rgb(49,163,189)" stroke="rgb(39,130,151)" stroke-width="1" opacity="0.75" />
		</g>
	</g>
	<g>
		<title>btrC</title>
		<polygon class="btrC" points="477,16 483,16 483,1 513,31 483,61 483,46 477,46" fill="rgb(250,211,245)" fill-opacity="1.0" stroke="rgb(100,84,98)" stroke-width="1" />
		<g>
			<title>PF01761</title>
			<polygon class="PF01761" points="483,18 497,18 508,29 508,33 497,44 483,44" stroke-linejoin="round" width="25" height="26" fill="rgb(150,62,180)" stroke="rgb(120,49,144)" stroke-width="1" opacity="0.75" />
		</g>
	</g>
	<g>
		<title>btrD</title>
		<polygon class="btrD" points="514,16 514,16 514,1 541,31 514,61 514,46 514,46" fill="rgb(221,205,254)" fill-opacity="1.0" stroke="rgb(88,82,101)" stroke-width="1" />
		<g>
			<title>PF02585</title>
			<polygon class="PF02585" points="514,18 526,18 530,22 530,40 526,44 514,44" stroke-linejoin="round" width="16" height="26" fill="rgb(97,215,95)" stroke="rgb(77,172,76)" stroke-width="1" opacity="0.75" />
		</g>
	</g>
	<g>
		<title>btrE</title>
		<polygon class="btrE" points="542,16 547,16 547,1 577,31 547,61 547,46 542,46" fill="rgb(247,253,195)" fill-opacity="1.0" stroke="rgb(98,101,78)" stroke-width="1" />
		<g>
			<title>PF00107</title>
			<polygon class="PF00107" points="559,18 561,18 571,28 571,34 561,44 559,44" stroke-linejoin="round" width="12" height="26" fill="rgb(81,108,215)" stroke="rgb(64,86,172)" stroke-width="1" opacity="0.75" />
		</g>
	</g>
	<g>
		<title>btrF</title>
		<polygon class="btrF" points="578,16 578,16 578,1 601,31 578,61 578,46 578,46" fill="rgb(253,179,183)" fill-opacity="1.0" stroke="rgb(101,71,73)" stroke-width="1" />
		<g>
			<title>PF00106</title>
			<polygon class="PF00106" points="578,18 588,18 597,30 597,32 588,44 578,44" stroke-linejoin="round" width="19" height="26" fill="rgb(182,219,73)" stroke="rgb(145,175,58)" stroke-width="1" opacity="0.75" />
		</g>
	</g>
	<g>
		<title>btrG</title>
		<polygon class="btrG" points="601,16 601,16 601,1 616,31 601,61 601,46 601,46" fill="rgb(246,254,207)" fill-opacity="1.0" stroke="rgb(98,101,82)" stroke-width="1" />
		<g>
			<title>PF06094</title>
			<polygon class="PF06094" points="603,18 607,18 613,31 607,44 603,44" stroke-linejoin="round" width="11" height="26" fill="rgb(227,229,113)" stroke="rgb(181,183,90)" stroke-width="1" opacity="0.75" />
		</g>
	</g>
	<g>
		<title>btrH</title>
		<polygon class="btrH" points="616,16 616,16 616,1 646,31 616,61 616,46 616,46" fill="rgb(233,207,253)" fill-opacity="1.0" stroke="rgb(93,82,101)" stroke-width="1" />
		<g>
			<title>PF14399</title>
			<rect class="PF14399" x="619" y="18" stroke-linejoin="round" width="10" height="26" fill="rgb(159,218,73)" stroke="rgb(127,174,58)" stroke-width="1" opacity="0.75" />
		</g>
	</g>
	<g>
		<title>btrI</title>
		<polygon class="btrI" points="649,16 649,16 649,1 657,31 649,61 649,46 649,46" fill="rgb(241,206,252)" fill-opacity="1.0" stroke="rgb(96,82,100)" stroke-width="1" />
		<g>
			<title>PF00550</title>
			<polygon class="PF00550" points="650,18 651,18 654,31 651,44 650,44" stroke-linejoin="round" width="6" height="26" fill="rgb(103,191,88)" stroke="rgb(82,152,70)" stroke-width="1" opacity="0.75" />
		</g>
	</g>
	<g>
		<title>btrJ</title>
		<polygon class="btrJ" points="658,16 670,16 670,1 700,31 670,61 670,46 658,46" fill="rgb(250,215,190)" fill-opacity="1.0" stroke="rgb(100,86,76)" stroke-width="1" />
		<g>
			<title>PF02655</title>
			<polygon class="PF02655" points="671,18 684,18 689,23 689,39 684,44 671,44" stroke-linejoin="round" width="18" height="26" fill="rgb(84,156,185)" stroke="rgb(67,124,148)" stroke-width="1" opacity="0.75" />
		</g>
	</g>
	<g>
		<title>orf1</title>
		<polygon class="orf1" points="18,16 18,16 18,1 1,31 18,61 18,46 18,46" fill="rgb(197,214,251)" fill-opacity="1.0" stroke="rgb(78,85,100)" stroke-width="1" />
	</g>
	<g>
		<title>btrK</title>
		<polygon class="btrK" points="700,16 712,16 712,1 742,31 712,61 712,46 700,46" fill="rgb(220,191,253)" fill-opacity="1.0" stroke="rgb(88,76,101)" stroke-width="1" />
		<g>
			<title>PF02784</title>
			<rect class="PF02784" x="702" y="18" stroke-linejoin="round" width="24" height="26" fill="rgb(106,204,212)" stroke="rgb(84,163,169)" stroke-width="1" opacity="0.75" />
		</g>
		<g>
			<title>PF00278</title>
			<polygon class="PF00278" points="728,20 739,31 739,31 728,42" stroke-linejoin="round" width="11" height="26" fill="rgb(195,86,191)" stroke="rgb(156,68,152)" stroke-width="1" opacity="0.75" />
		</g>
	</g>
	<g>
		<title>btrO</title>
		<polygon class="btrO" points="744,16 748,16 748,1 778,31 748,61 748,46 744,46" fill="rgb(201,251,179)" fill-opacity="1.0" stroke="rgb(80,100,71)" stroke-width="1" />
		<g>
			<title>PF00296</title>
			<polygon class="PF00296" points="745,18 762,18 775,31 775,31 762,44 745,44" stroke-linejoin="round" width="30" height="26" fill="rgb(180,112,78)" stroke="rgb(144,89,62)" stroke-width="1" opacity="0.75" />
		</g>
	</g>
	<g>
		<title>btrP</title>
		<polygon class="btrP" points="780,16 780,16 780,1 801,31 780,61 780,46 780,46" fill="rgb(202,217,254)" fill-opacity="1.0" stroke="rgb(80,86,101)" stroke-width="1" />
		<g>
			<title>PF00300</title>
			<polygon class="PF00300" points="780,18 789,18 798,31 789,44 780,44" stroke-linejoin="round" width="20" height="26" fill="rgb(135,184,63)" stroke="rgb(107,147,50)" stroke-width="1" opacity="0.75" />
		</g>
	</g>
	<g>
		<title>btrV</title>
		<polygon class="btrV" points="802,16 802,16 802,1 810,31 802,61 802,46 802,46" fill="rgb(214,253,193)" fill-opacity="1.0" stroke="rgb(85,101,77)" stroke-width="1" />
	</g>
	<g>
		<title>btrQ</title>
		<polygon class="btrQ" points="816,16 831,16 831,1 861,31 831,61 831,46 816,46" fill="rgb(231,251,181)" fill-opacity="1.0" stroke="rgb(92,100,72)" stroke-width="1" />
		<g>
			<title>PF00732</title>
			<rect class="PF00732" x="816" y="18" stroke-linejoin="round" width="25" height="26" fill="rgb(180,89,214)" stroke="rgb(143,71,171)" stroke-width="1" opacity="0.75" />
		</g>
		<g>
			<title>PF05199</title>
			<polygon class="PF05199" points="848,21 858,31 848,41" stroke-linejoin="round" width="12" height="26" fill="rgb(186,52,106)" stroke="rgb(148,41,84)" stroke-width="1" opacity="0.75" />
		</g>
	</g>
	<g>
		<title>btrW</title>
		<polygon class="btrW" points="863,16 891,16 891,1 921,31 891,61 891,46 863,46" fill="rgb(254,189,186)" fill-opacity="1.0" stroke="rgb(101,75,74)" stroke-width="1" />
		<g>
			<title>PF00664</title>
			<rect class="PF00664" x="865" y="18" stroke-linejoin="round" width="27" height="26" fill="rgb(149,226,73)" stroke="rgb(119,180,58)" stroke-width="1" opacity="0.75" />
		</g>
		<g>
			<title>PF00005</title>
			<polygon class="PF00005" points="898,18 905,18 912,25 912,37 905,44 898,44" stroke-linejoin="round" width="14" height="26" fill="rgb(129,201,63)" stroke="rgb(103,160,50)" stroke-width="1" opacity="0.75" />
		</g>
	</g>
	<g>
		<title>btrX</title>
		<polygon class="btrX" points="922,16 937,16 937,1 967,31 937,61 937,46 922,46" fill="rgb(245,251,198)" fill-opacity="1.0" stroke="rgb(98,100,79)" stroke-width="1" />
		<g>
			<title>PF00664</title>
			<polygon class="PF00664" points="933,18 951,18 959,26 959,36 951,44 933,44" stroke-linejoin="round" width="26" height="26" fill="rgb(149,226,73)" stroke="rgb(119,180,58)" stroke-width="1" opacity="0.75" />
		</g>
	</g>
	<g>
		<title>btrR1</title>
		<polygon class="btrR1" points="30,16 30,16 30,1 51,31 30,61 30,46 30,46" fill="rgb(250,191,204)" fill-opacity="1.0" stroke="rgb(100,76,81)" stroke-width="1" />
		<g>
			<title>PF00440</title>
			<rect class="PF00440" x="32" y="18" stroke-linejoin="round" width="4" height="26" fill="rgb(73,212,190)" stroke="rgb(58,169,152)" stroke-width="1" opacity="0.75" />
		</g>
	</g>
	<g>
		<title>btrU</title>
		<polygon class="btrU" points="54,16 54,16 54,1 73,31 54,61 54,46 54,46" fill="rgb(197,253,232)" fill-opacity="1.0" stroke="rgb(78,101,92)" stroke-width="1" />
		<g>
			<title>PF02525</title>
			<polygon class="PF02525" points="54,18 62,18 70,31 70,31 62,44 54,44" stroke-linejoin="round" width="16" height="26" fill="rgb(159,188,70)" stroke="rgb(127,150,56)" stroke-width="1" opacity="0.75" />
		</g>
	</g>
	<g>
		<title>btrR2</title>
		<polygon class="btrR2" points="75,16 83,16 83,1 113,31 83,61 83,46 75,46" fill="rgb(200,253,226)" fill-opacity="1.0" stroke="rgb(80,101,90)" stroke-width="1" />
		<g>
			<title>PF05076</title>
			<rect class="PF05076" x="81" y="18" stroke-linejoin="round" width="16" height="26" fill="rgb(71,228,75)" stroke="rgb(56,182,59)" stroke-width="1" opacity="0.75" />
		</g>
	</g>
	<g>
		<title>btrT</title>
		<polygon class="btrT" points="122,16 122,16 122,1 129,31 122,61 122,46 122,46" fill="rgb(178,253,249)" fill-opacity="1.0" stroke="rgb(71,101,99)" stroke-width="1" />
	</g>
	<g>
		<title>btrS</title>
		<polygon class="btrS" points="138,16 149,16 149,1 179,31 149,61 149,46 138,46" fill="rgb(211,254,229)" fill-opacity="1.0" stroke="rgb(84,101,91)" stroke-width="1" />
		<g>
			<title>PF01041</title>
			<polygon class="PF01041" points="139,18 163,18 176,31 163,44 139,44" stroke-linejoin="round" width="39" height="26" fill="rgb(59,139,191)" stroke="rgb(47,111,152)" stroke-width="1" opacity="0.75" />
		</g>
	</g>
	<g>
		<title>btrN</title>
		<polygon class="btrN" points="181,16 181,16 181,1 206,31 181,61 181,46 181,46" fill="rgb(252,181,235)" fill-opacity="1.0" stroke="rgb(100,72,94)" stroke-width="1" />
		<g>
			<title>PF13186</title>
			<polygon class="PF13186" points="197,24 203,31 203,31 197,38" stroke-linejoin="round" width="6" height="26" fill="rgb(183,66,65)" stroke="rgb(146,52,51)" stroke-width="1" opacity="0.75" />
		</g>
	</g>
	<g>
		<title>btrM</title>
		<polygon class="btrM" points="209,16 218,16 218,1 248,31 218,61 218,46 209,46" fill="rgb(209,248,253)" fill-opacity="1.0" stroke="rgb(83,99,101)" stroke-width="1" />
		<g>
			<title>PF13439</title>
			<rect class="PF13439" x="209" y="18" stroke-linejoin="round" width="17" height="26" fill="rgb(162,57,186)" stroke="rgb(129,45,148)" stroke-width="1" opacity="0.75" />
		</g>
		<g>
			<title>PF00534</title>
			<polygon class="PF00534" points="228,18 232,18 244,30 244,32 232,44 228,44" stroke-linejoin="round" width="16" height="26" fill="rgb(228,92,150)" stroke="rgb(182,73,119)" stroke-width="1" opacity="0.75" />
		</g>
	</g>
	<g>
		<title>btrL</title>
		<polygon class="btrL" points="248,16 278,16 278,1 308,31 278,61 278,46 248,46" fill="rgb(181,228,250)" fill-opacity="1.0" stroke="rgb(72,91,100)" stroke-width="1" />
	</g>
</svg>
