<svg version="1.1" baseProfile="full" xmlns="http://www.w3.org/2000/svg" width="1337" height="62">
	<line x1="1" y1="31" x2="1336" y2="31" style="stroke:rgb(50,50,50); stroke-width:3 "/>
	<g>
		<title>rmt4</title>
		<polygon class="rmt4" points="437,16 437,16 437,1 463,31 437,61 437,46 437,46" fill="rgb(253,231,195)" fill-opacity="1.0" stroke="rgb(101,92,78)" stroke-width="1" />
		<g>
			<title>PF05711</title>
			<polygon class="PF05711" points="437,18 449,18 460,31 449,44 437,44" stroke-linejoin="round" width="25" height="26" fill="rgb(175,228,98)" stroke="rgb(139,182,78)" stroke-width="1" opacity="0.75" />
		</g>
	</g>
	<g>
		<title>gtf1</title>
		<polygon class="gtf1" points="465,16 477,16 477,1 507,31 477,61 477,46 465,46" fill="rgb(186,224,254)" fill-opacity="1.0" stroke="rgb(74,89,101)" stroke-width="1" />
		<g>
			<title>PF03033</title>
			<rect class="PF03033" x="465" y="18" stroke-linejoin="round" width="10" height="26" fill="rgb(157,218,79)" stroke="rgb(125,174,63)" stroke-width="1" opacity="0.75" />
		</g>
	</g>
	<g>
		<title>atf1</title>
		<polygon class="atf1" points="507,16 514,16 514,1 544,31 514,61 514,46 507,46" fill="rgb(228,206,251)" fill-opacity="1.0" stroke="rgb(91,82,100)" stroke-width="1" />
		<g>
			<title>PF01757</title>
			<polygon class="PF01757" points="509,18 528,18 540,30 540,32 528,44 509,44" stroke-linejoin="round" width="31" height="26" fill="rgb(50,152,200)" stroke="rgb(40,121,160)" stroke-width="1" opacity="0.75" />
		</g>
	</g>
	<g>
		<title>rmt3</title>
		<polygon class="rmt3" points="549,16 549,16 549,1 575,31 549,61 549,46 549,46" fill="rgb(251,252,180)" fill-opacity="1.0" stroke="rgb(100,100,72)" stroke-width="1" />
		<g>
			<title>PF05711</title>
			<polygon class="PF05711" points="556,18 561,18 572,31 561,44 556,44" stroke-linejoin="round" width="17" height="26" fill="rgb(175,228,98)" stroke="rgb(139,182,78)" stroke-width="1" opacity="0.75" />
		</g>
	</g>
	<g>
		<title>gtf2</title>
		<polygon class="gtf2" points="616,16 605,16 605,1 575,31 605,61 605,46 616,46" fill="rgb(251,246,201)" fill-opacity="1.0" stroke="rgb(100,98,80)" stroke-width="1" />
		<g>
			<title>PF03033</title>
			<rect class="PF03033" x="608" y="18" stroke-linejoin="round" width="8" height="26" fill="rgb(157,218,79)" stroke="rgb(125,174,63)" stroke-width="1" opacity="0.75" />
		</g>
	</g>
	<g>
		<title>fmt</title>
		<polygon class="fmt" points="623,16 623,16 623,1 649,31 623,61 623,46 623,46" fill="rgb(253,194,245)" fill-opacity="1.0" stroke="rgb(101,77,98)" stroke-width="1" />
		<g>
			<title>PF08241</title>
			<polygon class="PF08241" points="631,18 635,18 640,24 640,38 635,44 631,44" stroke-linejoin="round" width="9" height="26" fill="rgb(106,219,159)" stroke="rgb(84,175,127)" stroke-width="1" opacity="0.75" />
		</g>
	</g>
	<g>
		<title>mbtH</title>
		<polygon class="mbtH" points="692,16 692,16 692,1 699,31 692,61 692,46 692,46" fill="rgb(252,188,206)" fill-opacity="1.0" stroke="rgb(100,75,82)" stroke-width="1" />
		<g>
			<title>PF03621</title>
			<polygon class="PF03621" points="692,18 693,18 696,31 693,44 692,44" stroke-linejoin="round" width="5" height="26" fill="rgb(212,165,97)" stroke="rgb(169,132,77)" stroke-width="1" opacity="0.75" />
		</g>
	</g>
	<g>
		<title>mps1</title>
		<polygon class="mps1" points="700,16 1015,16 1015,1 1045,31 1015,61 1015,46 700,46" fill="rgb(211,241,250)" fill-opacity="1.0" stroke="rgb(84,96,100)" stroke-width="1" />
		<g>
			<title>PF00668</title>
			<rect class="PF00668" x="700" y="18" stroke-linejoin="round" width="43" height="26" fill="rgb(224,184,98)" stroke="rgb(179,147,78)" stroke-width="1" opacity="0.75" />
		</g>
		<g>
			<title>PF00501</title>
			<rect class="PF00501" x="746" y="18" stroke-linejoin="round" width="39" height="26" fill="rgb(60,217,223)" stroke="rgb(48,173,178)" stroke-width="1" opacity="0.75" />
		</g>
		<g>
			<title>PF13193</title>
			<rect class="PF13193" x="786" y="18" stroke-linejoin="round" width="7" height="26" fill="rgb(182,50,118)" stroke="rgb(145,39,94)" stroke-width="1" opacity="0.75" />
		</g>
		<g>
			<title>PF00550</title>
			<rect class="PF00550" x="796" y="18" stroke-linejoin="round" width="6" height="26" fill="rgb(103,191,88)" stroke="rgb(82,152,70)" stroke-width="1" opacity="0.75" />
		</g>
		<g>
			<title>PF00668</title>
			<rect class="PF00668" x="804" y="18" stroke-linejoin="round" width="37" height="26" fill="rgb(224,184,98)" stroke="rgb(179,147,78)" stroke-width="1" opacity="0.75" />
		</g>
		<g>
			<title>PF00668</title>
			<rect class="PF00668" x="851" y="18" stroke-linejoin="round" width="43" height="26" fill="rgb(224,184,98)" stroke="rgb(179,147,78)" stroke-width="1" opacity="0.75" />
		</g>
		<g>
			<title>PF00501</title>
			<rect class="PF00501" x="897" y="18" stroke-linejoin="round" width="40" height="26" fill="rgb(60,217,223)" stroke="rgb(48,173,178)" stroke-width="1" opacity="0.75" />
		</g>
		<g>
			<title>PF13193</title>
			<rect class="PF13193" x="938" y="18" stroke-linejoin="round" width="7" height="26" fill="rgb(182,50,118)" stroke="rgb(145,39,94)" stroke-width="1" opacity="0.75" />
		</g>
		<g>
			<title>PF00550</title>
			<rect class="PF00550" x="948" y="18" stroke-linejoin="round" width="6" height="26" fill="rgb(103,191,88)" stroke="rgb(82,152,70)" stroke-width="1" opacity="0.75" />
		</g>
		<g>
			<title>PF00668</title>
			<rect class="PF00668" x="956" y="18" stroke-linejoin="round" width="36" height="26" fill="rgb(224,184,98)" stroke="rgb(179,147,78)" stroke-width="1" opacity="0.75" />
		</g>
		<g>
			<title>PF00668</title>
			<polygon class="PF00668" points="1003,18 1029,18 1042,31 1029,44 1003,44" stroke-linejoin="round" width="42" height="26" fill="rgb(224,184,98)" stroke="rgb(179,147,78)" stroke-width="1" opacity="0.75" />
		</g>
	</g>
	<g>
		<title>mps2</title>
		<polygon class="mps2" points="1046,16 1274,16 1274,1 1304,31 1274,61 1274,46 1046,46" fill="rgb(250,207,180)" fill-opacity="1.0" stroke="rgb(100,82,72)" stroke-width="1" />
		<g>
			<title>PF00501</title>
			<rect class="PF00501" x="1050" y="18" stroke-linejoin="round" width="38" height="26" fill="rgb(60,217,223)" stroke="rgb(48,173,178)" stroke-width="1" opacity="0.75" />
		</g>
		<g>
			<title>PF13193</title>
			<rect class="PF13193" x="1090" y="18" stroke-linejoin="round" width="7" height="26" fill="rgb(182,50,118)" stroke="rgb(145,39,94)" stroke-width="1" opacity="0.75" />
		</g>
		<g>
			<title>PF00550</title>
			<rect class="PF00550" x="1100" y="18" stroke-linejoin="round" width="6" height="26" fill="rgb(103,191,88)" stroke="rgb(82,152,70)" stroke-width="1" opacity="0.75" />
		</g>
		<g>
			<title>PF00668</title>
			<rect class="PF00668" x="1109" y="18" stroke-linejoin="round" width="39" height="26" fill="rgb(224,184,98)" stroke="rgb(179,147,78)" stroke-width="1" opacity="0.75" />
		</g>
		<g>
			<title>PF00668</title>
			<rect class="PF00668" x="1155" y="18" stroke-linejoin="round" width="43" height="26" fill="rgb(224,184,98)" stroke="rgb(179,147,78)" stroke-width="1" opacity="0.75" />
		</g>
		<g>
			<title>PF00501</title>
			<rect class="PF00501" x="1201" y="18" stroke-linejoin="round" width="39" height="26" fill="rgb(60,217,223)" stroke="rgb(48,173,178)" stroke-width="1" opacity="0.75" />
		</g>
		<g>
			<title>PF13193</title>
			<rect class="PF13193" x="1241" y="18" stroke-linejoin="round" width="7" height="26" fill="rgb(182,50,118)" stroke="rgb(145,39,94)" stroke-width="1" opacity="0.75" />
		</g>
		<g>
			<title>PF00550</title>
			<rect class="PF00550" x="1251" y="18" stroke-linejoin="round" width="6" height="26" fill="rgb(103,191,88)" stroke="rgb(82,152,70)" stroke-width="1" opacity="0.75" />
		</g>
		<g>
			<title>PF07993</title>
			<polygon class="PF07993" points="1263,18 1288,18 1289,19 1289,43 1288,44 1263,44" stroke-linejoin="round" width="26" height="26" fill="rgb(100,212,204)" stroke="rgb(80,169,163)" stroke-width="1" opacity="0.75" />
		</g>
	</g>
	<g>
		<title>gap</title>
		<polygon class="gap" points="1309,16 1309,16 1309,1 1335,31 1309,61 1309,46 1309,46" fill="rgb(252,195,239)" fill-opacity="1.0" stroke="rgb(100,77,95)" stroke-width="1" />
		<g>
			<title>PF11139</title>
			<polygon class="PF11139" points="1309,18 1321,18 1332,31 1321,44 1309,44" stroke-linejoin="round" width="26" height="26" fill="rgb(86,70,182)" stroke="rgb(68,56,145)" stroke-width="1" opacity="0.75" />
		</g>
	</g>
	<g>
		<title>mmps4</title>
		<polygon class="mmps4" points="1,16 1,16 1,1 14,31 1,61 1,46 1,46" fill="rgb(254,205,251)" fill-opacity="1.0" stroke="rgb(101,82,100)" stroke-width="1" />
		<g>
			<title>PF05423</title>
			<polygon class="PF05423" points="1,18 5,18 11,31 5,44 1,44" stroke-linejoin="round" width="13" height="26" fill="rgb(64,97,225)" stroke="rgb(51,77,180)" stroke-width="1" opacity="0.75" />
		</g>
	</g>
	<g>
		<title>mmpl4a</title>
		<polygon class="mmpl4a" points="14,16 80,16 80,1 110,31 80,61 80,46 14,46" fill="rgb(199,252,189)" fill-opacity="1.0" stroke="rgb(79,100,75)" stroke-width="1" />
		<g>
			<title>PF03176</title>
			<rect class="PF03176" x="19" y="18" stroke-linejoin="round" width="33" height="26" fill="rgb(228,109,193)" stroke="rgb(182,87,154)" stroke-width="1" opacity="0.75" />
		</g>
		<g>
			<title>PF03176</title>
			<polygon class="PF03176" points="74,18 94,18 107,31 94,44 74,44" stroke-linejoin="round" width="35" height="26" fill="rgb(228,109,193)" stroke="rgb(182,87,154)" stroke-width="1" opacity="0.75" />
		</g>
	</g>
	<g>
		<title>mmpl4b</title>
		<polygon class="mmpl4b" points="110,16 178,16 178,1 208,31 178,61 178,46 110,46" fill="rgb(184,251,204)" fill-opacity="1.0" stroke="rgb(73,100,81)" stroke-width="1" />
		<g>
			<title>PF03176</title>
			<rect class="PF03176" x="116" y="18" stroke-linejoin="round" width="33" height="26" fill="rgb(228,109,193)" stroke="rgb(182,87,154)" stroke-width="1" opacity="0.75" />
		</g>
		<g>
			<title>PF03176</title>
			<polygon class="PF03176" points="171,18 192,18 205,31 205,31 192,44 171,44" stroke-linejoin="round" width="34" height="26" fill="rgb(228,109,193)" stroke="rgb(182,87,154)" stroke-width="1" opacity="0.75" />
		</g>
	</g>
	<g>
		<title>rv1174c</title>
		<polygon class="rv1174c" points="224,16 224,16 224,1 213,31 224,61 224,46 224,46" fill="rgb(190,253,181)" fill-opacity="1.0" stroke="rgb(76,101,72)" stroke-width="1" />
	</g>
	<g>
		<title>rmlA</title>
		<polygon class="rmlA" points="256,16 256,16 256,1 228,31 256,61 256,46 256,46" fill="rgb(192,178,253)" fill-opacity="1.0" stroke="rgb(76,71,101)" stroke-width="1" />
		<g>
			<title>PF00483</title>
			<polygon class="PF00483" points="233,28 242,18 256,18 256,44 242,44 233,33" stroke-linejoin="round" width="23" height="26" fill="rgb(198,101,87)" stroke="rgb(158,80,69)" stroke-width="1" opacity="0.75" />
		</g>
	</g>
	<g>
		<title>gtf3</title>
		<polygon class="gtf3" points="271,16 285,16 285,1 315,31 285,61 285,46 271,46" fill="rgb(192,251,248)" fill-opacity="1.0" stroke="rgb(76,100,99)" stroke-width="1" />
		<g>
			<title>PF03033</title>
			<rect class="PF03033" x="273" y="18" stroke-linejoin="round" width="14" height="26" fill="rgb(157,218,79)" stroke="rgb(125,174,63)" stroke-width="1" opacity="0.75" />
		</g>
	</g>
	<g>
		<title>rmlB</title>
		<polygon class="rmlB" points="320,16 325,16 325,1 355,31 325,61 325,46 320,46" fill="rgb(178,254,197)" fill-opacity="1.0" stroke="rgb(71,101,78)" stroke-width="1" />
		<g>
			<title>PF01370</title>
			<polygon class="PF01370" points="320,18 339,18 347,26 347,36 339,44 320,44" stroke-linejoin="round" width="27" height="26" fill="rgb(98,102,214)" stroke="rgb(78,81,171)" stroke-width="1" opacity="0.75" />
		</g>
	</g>
	<g>
		<title>atf2</title>
		<polygon class="atf2" points="361,16 368,16 368,1 398,31 368,61 368,46 361,46" fill="rgb(226,250,197)" fill-opacity="1.0" stroke="rgb(90,100,78)" stroke-width="1" />
		<g>
			<title>PF01757</title>
			<polygon class="PF01757" points="362,18 382,18 394,30 394,32 382,44 362,44" stroke-linejoin="round" width="32" height="26" fill="rgb(50,152,200)" stroke="rgb(40,121,160)" stroke-width="1" opacity="0.75" />
		</g>
	</g>
	<g>
		<title>rmt2</title>
		<polygon class="rmt2" points="407,16 407,16 407,1 430,31 407,61 407,46 407,46" fill="rgb(243,249,177)" fill-opacity="1.0" stroke="rgb(97,99,70)" stroke-width="1" />
		<g>
			<title>PF13578</title>
			<polygon class="PF13578" points="411,18 417,18 421,23 421,39 417,44 411,44" stroke-linejoin="round" width="10" height="26" fill="rgb(106,221,159)" stroke="rgb(84,176,127)" stroke-width="1" opacity="0.75" />
		</g>
	</g>
</svg>
