<svg version="1.1" baseProfile="full" xmlns="http://www.w3.org/2000/svg" width="560" height="496">
	<line x1="1" y1="31" x2="559" y2="31" style="stroke:rgb(50,50,50); stroke-width:3 "/>
	<line x1="1" y1="93" x2="101" y2="93" style="stroke:rgb(50,50,50); stroke-width:3 "/>
	<line x1="1" y1="155" x2="235" y2="155" style="stroke:rgb(50,50,50); stroke-width:3 "/>
	<line x1="1" y1="217" x2="51" y2="217" style="stroke:rgb(50,50,50); stroke-width:3 "/>
	<line x1="1" y1="279" x2="61" y2="279" style="stroke:rgb(50,50,50); stroke-width:3 "/>
	<line x1="1" y1="341" x2="64" y2="341" style="stroke:rgb(50,50,50); stroke-width:3 "/>
	<line x1="1" y1="403" x2="57" y2="403" style="stroke:rgb(50,50,50); stroke-width:3 "/>
	<line x1="1" y1="465" x2="239" y2="465" style="stroke:rgb(50,50,50); stroke-width:3 "/>
	<g>
		<title>HTS1</title>
		<polygon class="HTS1" points="32,16 523,16 523,1 553,31 523,61 523,46 32,46" fill="rgb(244,250,206)" fill-opacity="1.0" stroke="rgb(97,100,82)" stroke-width="1" />
		<g>
			<title>PF00501</title>
			<rect class="PF00501" x="54" y="18" stroke-linejoin="round" width="39" height="26" fill="rgb(60,217,223)" stroke="rgb(48,173,178)" stroke-width="1" opacity="0.75" />
		</g>
		<g>
			<title>PF00550</title>
			<rect class="PF00550" x="109" y="18" stroke-linejoin="round" width="6" height="26" fill="rgb(103,191,88)" stroke="rgb(82,152,70)" stroke-width="1" opacity="0.75" />
		</g>
		<g>
			<title>PF00668</title>
			<rect class="PF00668" x="117" y="18" stroke-linejoin="round" width="18" height="26" fill="rgb(224,184,98)" stroke="rgb(179,147,78)" stroke-width="1" opacity="0.75" />
		</g>
		<g>
			<title>PF00668</title>
			<rect class="PF00668" x="138" y="18" stroke-linejoin="round" width="24" height="26" fill="rgb(224,184,98)" stroke="rgb(179,147,78)" stroke-width="1" opacity="0.75" />
		</g>
		<g>
			<title>PF00668</title>
			<rect class="PF00668" x="165" y="18" stroke-linejoin="round" width="47" height="26" fill="rgb(224,184,98)" stroke="rgb(179,147,78)" stroke-width="1" opacity="0.75" />
		</g>
		<g>
			<title>PF00501</title>
			<rect class="PF00501" x="214" y="18" stroke-linejoin="round" width="40" height="26" fill="rgb(60,217,223)" stroke="rgb(48,173,178)" stroke-width="1" opacity="0.75" />
		</g>
		<g>
			<title>PF00550</title>
			<rect class="PF00550" x="270" y="18" stroke-linejoin="round" width="6" height="26" fill="rgb(103,191,88)" stroke="rgb(82,152,70)" stroke-width="1" opacity="0.75" />
		</g>
		<g>
			<title>PF00668</title>
			<rect class="PF00668" x="285" y="18" stroke-linejoin="round" width="42" height="26" fill="rgb(224,184,98)" stroke="rgb(179,147,78)" stroke-width="1" opacity="0.75" />
		</g>
		<g>
			<title>PF00501</title>
			<rect class="PF00501" x="329" y="18" stroke-linejoin="round" width="40" height="26" fill="rgb(60,217,223)" stroke="rgb(48,173,178)" stroke-width="1" opacity="0.75" />
		</g>
		<g>
			<title>PF00550</title>
			<rect class="PF00550" x="385" y="18" stroke-linejoin="round" width="6" height="26" fill="rgb(103,191,88)" stroke="rgb(82,152,70)" stroke-width="1" opacity="0.75" />
		</g>
		<g>
			<title>PF00668</title>
			<rect class="PF00668" x="396" y="18" stroke-linejoin="round" width="45" height="26" fill="rgb(224,184,98)" stroke="rgb(179,147,78)" stroke-width="1" opacity="0.75" />
		</g>
		<g>
			<title>PF00501</title>
			<rect class="PF00501" x="445" y="18" stroke-linejoin="round" width="40" height="26" fill="rgb(60,217,223)" stroke="rgb(48,173,178)" stroke-width="1" opacity="0.75" />
		</g>
		<g>
			<title>PF00550</title>
			<rect class="PF00550" x="499" y="18" stroke-linejoin="round" width="6" height="26" fill="rgb(103,191,88)" stroke="rgb(82,152,70)" stroke-width="1" opacity="0.75" />
		</g>
		<g>
			<title>PF00668</title>
			<polygon class="PF00668" points="510,18 537,18 542,23 542,39 537,44 510,44" stroke-linejoin="round" width="32" height="26" fill="rgb(224,184,98)" stroke="rgb(179,147,78)" stroke-width="1" opacity="0.75" />
		</g>
	</g>
	<g>
		<title>toxa</title>
		<polygon class="toxa" points="26,78 58,78 58,63 88,93 58,123 58,108 26,108" fill="rgb(235,249,187)" fill-opacity="1.0" stroke="rgb(94,99,74)" stroke-width="1" />
		<g>
			<title>PF07690</title>
			<rect class="PF07690" x="31" y="80" stroke-linejoin="round" width="40" height="26" fill="rgb(193,224,74)" stroke="rgb(154,179,59)" stroke-width="1" opacity="0.75" />
		</g>
	</g>
	<g>
		<polygon class="NoName" points="6,140 185,140 185,125 215,155 185,185 185,170 6,170" fill="rgb(255,255,255)" fill-opacity="1.0" stroke="rgb(50,50,50)" stroke-width="1" />
		<g>
			<title>PF16073</title>
			<rect class="PF16073" x="25" y="142" stroke-linejoin="round" width="23" height="26" fill="rgb(77,115,183)" stroke="rgb(61,91,146)" stroke-width="1" opacity="0.75" />
		</g>
		<g>
			<title>PF08354</title>
			<rect class="PF08354" x="108" y="142" stroke-linejoin="round" width="5" height="26" fill="rgb(199,58,132)" stroke="rgb(159,46,105)" stroke-width="1" opacity="0.75" />
		</g>
		<g>
			<title>PF13452</title>
			<rect class="PF13452" x="135" y="142" stroke-linejoin="round" width="12" height="26" fill="rgb(215,186,64)" stroke="rgb(172,148,51)" stroke-width="1" opacity="0.75" />
		</g>
		<g>
			<title>PF01575</title>
			<rect class="PF01575" x="158" y="142" stroke-linejoin="round" width="14" height="26" fill="rgb(218,129,86)" stroke="rgb(174,103,68)" stroke-width="1" opacity="0.75" />
		</g>
		<g>
			<title>PF00698</title>
			<polygon class="PF00698" points="174,142 199,142 210,153 210,157 199,168 174,168" stroke-linejoin="round" width="36" height="26" fill="rgb(59,176,209)" stroke="rgb(47,140,167)" stroke-width="1" opacity="0.75" />
		</g>
	</g>
	<g>
		<title>toxD</title>
		<polygon class="toxD" points="10,202 10,202 10,187 39,217 10,247 10,232 10,232" fill="rgb(250,179,185)" fill-opacity="1.0" stroke="rgb(100,71,73)" stroke-width="1" />
		<g>
			<title>PF08240</title>
			<rect class="PF08240" x="12" y="204" stroke-linejoin="round" width="6" height="26" fill="rgb(211,65,138)" stroke="rgb(168,51,110)" stroke-width="1" opacity="0.75" />
		</g>
		<g>
			<title>PF00107</title>
			<polygon class="PF00107" points="26,207 34,215 34,219 26,227" stroke-linejoin="round" width="8" height="26" fill="rgb(81,108,215)" stroke="rgb(64,86,172)" stroke-width="1" opacity="0.75" />
		</g>
	</g>
	<g>
		<title>TOXE</title>
		<polygon class="TOXE" points="6,264 23,264 23,249 53,279 23,309 23,294 6,294" fill="rgb(232,251,209)" fill-opacity="1.0" stroke="rgb(92,100,83)" stroke-width="1" />
		<g>
			<title>PF13637</title>
			<polygon class="PF13637" points="35,266 37,266 40,269 40,289 37,292 35,292" stroke-linejoin="round" width="5" height="26" fill="rgb(62,205,90)" stroke="rgb(49,164,72)" stroke-width="1" opacity="0.75" />
		</g>
	</g>
	<g>
		<title>TOXF</title>
		<polygon class="TOXF" points="6,326 24,326 24,311 54,341 24,371 24,356 6,356" fill="rgb(243,191,252)" fill-opacity="1.0" stroke="rgb(97,76,100)" stroke-width="1" />
		<g>
			<title>PF01063</title>
			<rect class="PF01063" x="12" y="328" stroke-linejoin="round" width="24" height="26" fill="rgb(52,144,188)" stroke="rgb(41,115,150)" stroke-width="1" opacity="0.75" />
		</g>
	</g>
	<g>
		<title>TOXG</title>
		<polygon class="TOXG" points="11,388 21,388 21,373 51,403 21,433 21,418 11,418" fill="rgb(193,251,176)" fill-opacity="1.0" stroke="rgb(77,100,70)" stroke-width="1" />
		<g>
			<title>PF01212</title>
			<polygon class="PF01212" points="14,390 35,390 43,398 43,408 35,416 14,416" stroke-linejoin="round" width="29" height="26" fill="rgb(121,182,62)" stroke="rgb(96,145,49)" stroke-width="1" opacity="0.75" />
		</g>
	</g>
	<g>
		<title>TOXH</title>
		<polygon class="TOXH" points="38,450 173,450 173,435 203,465 173,495 173,480 38,480" fill="rgb(201,202,254)" fill-opacity="1.0" stroke="rgb(80,80,101)" stroke-width="1" />
		<g>
			<title>PF00109</title>
			<rect class="PF00109" x="141" y="452" stroke-linejoin="round" width="23" height="26" fill="rgb(112,116,228)" stroke="rgb(89,92,182)" stroke-width="1" opacity="0.75" />
		</g>
	</g>
</svg>
