<svg version="1.1" baseProfile="full" xmlns="http://www.w3.org/2000/svg" width="629" height="62">
	<line x1="1" y1="31" x2="628" y2="31" style="stroke:rgb(50,50,50); stroke-width:3 "/>
	<g>
		<polygon class="NoName" points="295,16 295,16 295,1 325,31 295,61 295,46 295,46" fill="rgb(255,255,255)" fill-opacity="1.0" stroke="rgb(50,50,50)" stroke-width="1" />
		<g>
			<title>PF04321</title>
			<polygon class="PF04321" points="296,18 309,18 322,31 309,44 296,44" stroke-linejoin="round" width="28" height="26" fill="rgb(196,203,60)" stroke="rgb(156,162,47)" stroke-width="1" opacity="0.75" />
		</g>
	</g>
	<g>
		<polygon class="NoName" points="327,16 327,16 327,1 351,31 327,61 327,46 327,46" fill="rgb(255,255,255)" fill-opacity="1.0" stroke="rgb(50,50,50)" stroke-width="1" />
		<g>
			<title>PF00535</title>
			<polygon class="PF00535" points="327,18 338,18 343,25 343,37 338,44 327,44" stroke-linejoin="round" width="16" height="26" fill="rgb(224,122,96)" stroke="rgb(179,97,76)" stroke-width="1" opacity="0.75" />
		</g>
	</g>
	<g>
		<polygon class="NoName" points="384,16 384,16 384,1 410,31 384,61 384,46 384,46" fill="rgb(255,255,255)" fill-opacity="1.0" stroke="rgb(50,50,50)" stroke-width="1" />
		<g>
			<title>PF01061</title>
			<polygon class="PF01061" points="385,18 396,18 405,29 405,33 396,44 385,44" stroke-linejoin="round" width="20" height="26" fill="rgb(139,217,106)" stroke="rgb(111,173,84)" stroke-width="1" opacity="0.75" />
		</g>
	</g>
	<g>
		<polygon class="NoName" points="411,16 411,16 411,1 433,31 411,61 411,46 411,46" fill="rgb(255,255,255)" fill-opacity="1.0" stroke="rgb(50,50,50)" stroke-width="1" />
		<g>
			<title>PF00005</title>
			<polygon class="PF00005" points="415,18 420,18 428,28 428,34 420,44 415,44" stroke-linejoin="round" width="13" height="26" fill="rgb(129,201,63)" stroke="rgb(103,160,50)" stroke-width="1" opacity="0.75" />
		</g>
	</g>
	<g>
		<polygon class="NoName" points="434,16 434,16 434,1 451,31 434,61 434,46 434,46" fill="rgb(255,255,255)" fill-opacity="1.0" stroke="rgb(50,50,50)" stroke-width="1" />
		<g>
			<title>PF14524</title>
			<polygon class="PF14524" points="437,18 441,18 448,31 441,44 437,44" stroke-linejoin="round" width="12" height="26" fill="rgb(91,192,197)" stroke="rgb(72,153,157)" stroke-width="1" opacity="0.75" />
		</g>
	</g>
	<g>
		<polygon class="NoName" points="452,16 461,16 461,1 491,31 461,61 461,46 452,46" fill="rgb(255,255,255)" fill-opacity="1.0" stroke="rgb(50,50,50)" stroke-width="1" />
		<g>
			<title>PF13489</title>
			<rect class="PF13489" x="452" y="18" stroke-linejoin="round" width="16" height="26" fill="rgb(188,189,66)" stroke="rgb(150,151,52)" stroke-width="1" opacity="0.75" />
		</g>
	</g>
	<g>
		<polygon class="NoName" points="498,16 521,16 521,1 551,31 521,61 521,46 498,46" fill="rgb(255,255,255)" fill-opacity="1.0" stroke="rgb(50,50,50)" stroke-width="1" />
		<g>
			<title>PF00535</title>
			<rect class="PF00535" x="507" y="18" stroke-linejoin="round" width="16" height="26" fill="rgb(224,122,96)" stroke="rgb(179,97,76)" stroke-width="1" opacity="0.75" />
		</g>
	</g>
	<g>
		<polygon class="NoName" points="557,16 597,16 597,1 627,31 597,61 597,46 557,46" fill="rgb(255,255,255)" fill-opacity="1.0" stroke="rgb(50,50,50)" stroke-width="1" />
		<g>
			<title>PF00535</title>
			<rect class="PF00535" x="575" y="18" stroke-linejoin="round" width="16" height="26" fill="rgb(224,122,96)" stroke="rgb(179,97,76)" stroke-width="1" opacity="0.75" />
		</g>
		<g>
			<title>PF00535</title>
			<polygon class="PF00535" points="601,18 611,18 619,26 619,36 611,44 601,44" stroke-linejoin="round" width="18" height="26" fill="rgb(224,122,96)" stroke="rgb(179,97,76)" stroke-width="1" opacity="0.75" />
		</g>
	</g>
	<g>
		<polygon class="NoName" points="26,16 26,16 26,1 43,31 26,61 26,46 26,46" fill="rgb(255,255,255)" fill-opacity="1.0" stroke="rgb(50,50,50)" stroke-width="1" />
		<g>
			<title>PF00557</title>
			<polygon class="PF00557" points="27,18 33,18 40,31 33,44 27,44" stroke-linejoin="round" width="16" height="26" fill="rgb(217,177,88)" stroke="rgb(173,141,70)" stroke-width="1" opacity="0.75" />
		</g>
	</g>
	<g>
		<polygon class="NoName" points="52,16 52,16 52,1 82,31 52,61 52,46 52,46" fill="rgb(255,255,255)" fill-opacity="1.0" stroke="rgb(50,50,50)" stroke-width="1" />
		<g>
			<title>PF03631</title>
			<polygon class="PF03631" points="54,18 66,18 79,31 79,31 66,44 54,44" stroke-linejoin="round" width="25" height="26" fill="rgb(223,82,207)" stroke="rgb(178,65,165)" stroke-width="1" opacity="0.75" />
		</g>
	</g>
	<g>
		<polygon class="NoName" points="91,16 94,16 94,1 124,31 94,61 94,46 91,46" fill="rgb(255,255,255)" fill-opacity="1.0" stroke="rgb(50,50,50)" stroke-width="1" />
		<g>
			<title>PF00953</title>
			<polygon class="PF00953" points="94,18 108,18 110,20 110,42 108,44 94,44" stroke-linejoin="round" width="16" height="26" fill="rgb(179,46,82)" stroke="rgb(143,36,65)" stroke-width="1" opacity="0.75" />
		</g>
	</g>
	<g>
		<polygon class="NoName" points="128,16 128,16 128,1 156,31 128,61 128,46 128,46" fill="rgb(255,255,255)" fill-opacity="1.0" stroke="rgb(50,50,50)" stroke-width="1" />
		<g>
			<title>PF00535</title>
			<polygon class="PF00535" points="128,18 141,18 146,24 146,38 141,44 128,44" stroke-linejoin="round" width="18" height="26" fill="rgb(224,122,96)" stroke="rgb(179,97,76)" stroke-width="1" opacity="0.75" />
		</g>
	</g>
	<g>
		<polygon class="NoName" points="154,16 154,16 154,1 182,31 154,61 154,46 154,46" fill="rgb(255,255,255)" fill-opacity="1.0" stroke="rgb(50,50,50)" stroke-width="1" />
		<g>
			<title>PF00535</title>
			<polygon class="PF00535" points="157,18 167,18 170,22 170,40 167,44 157,44" stroke-linejoin="round" width="13" height="26" fill="rgb(224,122,96)" stroke="rgb(179,97,76)" stroke-width="1" opacity="0.75" />
		</g>
	</g>
	<g>
		<polygon class="NoName" points="186,16 186,16 186,1 205,31 186,61 186,46 186,46" fill="rgb(255,255,255)" fill-opacity="1.0" stroke="rgb(50,50,50)" stroke-width="1" />
		<g>
			<title>PF00535</title>
			<polygon class="PF00535" points="186,18 194,18 198,24 198,38 194,44 186,44" stroke-linejoin="round" width="12" height="26" fill="rgb(224,122,96)" stroke="rgb(179,97,76)" stroke-width="1" opacity="0.75" />
		</g>
	</g>
	<g>
		<polygon class="NoName" points="210,16 210,16 210,1 238,31 210,61 210,46 210,46" fill="rgb(255,255,255)" fill-opacity="1.0" stroke="rgb(50,50,50)" stroke-width="1" />
		<g>
			<title>PF00483</title>
			<polygon class="PF00483" points="210,18 223,18 233,29 233,33 223,44 210,44" stroke-linejoin="round" width="23" height="26" fill="rgb(198,101,87)" stroke="rgb(158,80,69)" stroke-width="1" opacity="0.75" />
		</g>
	</g>
	<g>
		<polygon class="NoName" points="239,16 239,16 239,1 258,31 239,61 239,46 239,46" fill="rgb(255,255,255)" fill-opacity="1.0" stroke="rgb(50,50,50)" stroke-width="1" />
		<g>
			<title>PF00908</title>
			<polygon class="PF00908" points="239,18 247,18 255,31 247,44 239,44" stroke-linejoin="round" width="17" height="26" fill="rgb(184,89,121)" stroke="rgb(147,71,96)" stroke-width="1" opacity="0.75" />
		</g>
	</g>
	<g>
		<polygon class="NoName" points="259,16 263,16 263,1 293,31 263,61 263,46 259,46" fill="rgb(255,255,255)" fill-opacity="1.0" stroke="rgb(50,50,50)" stroke-width="1" />
		<g>
			<title>PF16363</title>
			<polygon class="PF16363" points="259,18 277,18 290,31 290,31 277,44 259,44" stroke-linejoin="round" width="31" height="26" fill="rgb(162,221,65)" stroke="rgb(129,176,51)" stroke-width="1" opacity="0.75" />
		</g>
	</g>
</svg>
