<svg version="1.1" baseProfile="full" xmlns="http://www.w3.org/2000/svg" width="520" height="62">
	<line x1="1" y1="31" x2="519" y2="31" style="stroke:rgb(50,50,50); stroke-width:3 "/>
	<g>
		<title>nonC</title>
		<polygon class="nonC" points="376,16 377,16 377,1 407,31 377,61 377,46 376,46" fill="rgb(252,176,219)" fill-opacity="1.0" stroke="rgb(100,70,87)" stroke-width="1" />
		<g>
			<title>PF04909</title>
			<polygon class="PF04909" points="380,18 391,18 404,31 391,44 380,44" stroke-linejoin="round" width="26" height="26" fill="rgb(95,225,123)" stroke="rgb(76,180,98)" stroke-width="1" opacity="0.75" />
		</g>
	</g>
	<g>
		<title>nonF</title>
		<polygon class="nonF" points="413,16 413,16 413,1 436,31 413,61 413,46 413,46" fill="rgb(188,250,238)" fill-opacity="1.0" stroke="rgb(75,100,95)" stroke-width="1" />
		<g>
			<title>PF01965</title>
			<polygon class="PF01965" points="415,18 423,18 433,31 423,44 415,44" stroke-linejoin="round" width="20" height="26" fill="rgb(66,224,145)" stroke="rgb(52,179,116)" stroke-width="1" opacity="0.75" />
		</g>
	</g>
	<g>
		<title>nonI</title>
		<polygon class="nonI" points="442,16 442,16 442,1 454,31 442,61 442,46 442,46" fill="rgb(223,192,253)" fill-opacity="1.0" stroke="rgb(89,76,101)" stroke-width="1" />
	</g>
	<g>
		<title>nonG</title>
		<polygon class="nonG" points="479,16 479,16 479,1 455,31 479,61 479,46 479,46" fill="rgb(250,187,185)" fill-opacity="1.0" stroke="rgb(100,74,73)" stroke-width="1" />
		<g>
			<title>PF00440</title>
			<rect class="PF00440" x="473" y="18" stroke-linejoin="round" width="4" height="26" fill="rgb(73,212,190)" stroke="rgb(58,169,152)" stroke-width="1" opacity="0.75" />
		</g>
	</g>
	<g>
		<title>nonH</title>
		<polygon class="nonH" points="482,16 482,16 482,1 509,31 482,61 482,46 482,46" fill="rgb(178,249,221)" fill-opacity="1.0" stroke="rgb(71,99,88)" stroke-width="1" />
		<g>
			<title>PF01012</title>
			<polygon class="PF01012" points="485,18 494,18 503,28 503,34 494,44 485,44" stroke-linejoin="round" width="18" height="26" fill="rgb(218,56,91)" stroke="rgb(174,44,72)" stroke-width="1" opacity="0.75" />
		</g>
	</g>
	<g>
		<title>nonK</title>
		<polygon class="nonK" points="9,16 21,16 21,1 51,31 21,61 21,46 9,46" fill="rgb(202,251,194)" fill-opacity="1.0" stroke="rgb(80,100,77)" stroke-width="1" />
		<g>
			<title>PF00109</title>
			<rect class="PF00109" x="9" y="18" stroke-linejoin="round" width="25" height="26" fill="rgb(112,116,228)" stroke="rgb(89,92,182)" stroke-width="1" opacity="0.75" />
		</g>
		<g>
			<title>PF02801</title>
			<polygon class="PF02801" points="35,18 35,18 46,29 46,33 35,44 35,44" stroke-linejoin="round" width="11" height="26" fill="rgb(215,78,102)" stroke="rgb(172,62,81)" stroke-width="1" opacity="0.75" />
		</g>
	</g>
	<g>
		<title>nonJ</title>
		<polygon class="nonJ" points="51,16 63,16 63,1 93,31 63,61 63,46 51,46" fill="rgb(221,198,254)" fill-opacity="1.0" stroke="rgb(88,79,101)" stroke-width="1" />
		<g>
			<title>PF00109</title>
			<rect class="PF00109" x="52" y="18" stroke-linejoin="round" width="24" height="26" fill="rgb(112,116,228)" stroke="rgb(89,92,182)" stroke-width="1" opacity="0.75" />
		</g>
	</g>
	<g>
		<title>nonM</title>
		<polygon class="nonM" points="94,16 117,16 117,1 147,31 117,61 117,46 94,46" fill="rgb(223,253,193)" fill-opacity="1.0" stroke="rgb(89,101,77)" stroke-width="1" />
		<g>
			<title>PF13561</title>
			<rect class="PF13561" x="103" y="18" stroke-linejoin="round" width="12" height="26" fill="rgb(73,205,127)" stroke="rgb(58,164,101)" stroke-width="1" opacity="0.75" />
		</g>
		<g>
			<title>PF13561</title>
			<polygon class="PF13561" points="120,18 131,18 143,30 143,32 131,44 120,44" stroke-linejoin="round" width="23" height="26" fill="rgb(73,205,127)" stroke="rgb(58,164,101)" stroke-width="1" opacity="0.75" />
		</g>
	</g>
	<g>
		<title>nonE</title>
		<polygon class="nonE" points="147,16 147,16 147,1 174,31 147,61 147,46 147,46" fill="rgb(251,208,202)" fill-opacity="1.0" stroke="rgb(100,83,80)" stroke-width="1" />
		<g>
			<title>PF00106</title>
			<polygon class="PF00106" points="148,18 159,18 167,27 167,35 159,44 148,44" stroke-linejoin="round" width="19" height="26" fill="rgb(182,219,73)" stroke="rgb(145,175,58)" stroke-width="1" opacity="0.75" />
		</g>
	</g>
	<g>
		<title>nonD</title>
		<polygon class="nonD" points="174,16 201,16 201,1 231,31 201,61 201,46 174,46" fill="rgb(254,238,199)" fill-opacity="1.0" stroke="rgb(101,95,79)" stroke-width="1" />
		<g>
			<title>PF02129</title>
			<rect class="PF02129" x="175" y="18" stroke-linejoin="round" width="26" height="26" fill="rgb(210,171,79)" stroke="rgb(168,136,63)" stroke-width="1" opacity="0.75" />
		</g>
		<g>
			<title>PF08530</title>
			<polygon class="PF08530" points="202,18 215,18 228,31 215,44 202,44" stroke-linejoin="round" width="27" height="26" fill="rgb(210,70,92)" stroke="rgb(168,56,73)" stroke-width="1" opacity="0.75" />
		</g>
	</g>
	<g>
		<title>nonL</title>
		<polygon class="nonL" points="231,16 256,16 256,1 286,31 256,61 256,46 231,46" fill="rgb(194,235,252)" fill-opacity="1.0" stroke="rgb(77,94,100)" stroke-width="1" />
		<g>
			<title>PF00501</title>
			<polygon class="PF00501" points="233,18 270,18 274,22 274,40 270,44 233,44" stroke-linejoin="round" width="41" height="26" fill="rgb(60,217,223)" stroke="rgb(48,173,178)" stroke-width="1" opacity="0.75" />
		</g>
		<g>
			<title>PF13193</title>
			<polygon class="PF13193" points="275,23 282,30 282,32 275,39" stroke-linejoin="round" width="7" height="26" fill="rgb(182,50,118)" stroke="rgb(145,39,94)" stroke-width="1" opacity="0.75" />
		</g>
	</g>
	<g>
		<title>nonS</title>
		<polygon class="nonS" points="286,16 286,16 286,1 315,31 286,61 286,46 286,46" fill="rgb(242,253,188)" fill-opacity="1.0" stroke="rgb(96,101,75)" stroke-width="1" />
		<g>
			<title>PF00378</title>
			<polygon class="PF00378" points="290,18 299,18 312,31 299,44 290,44" stroke-linejoin="round" width="25" height="26" fill="rgb(218,72,181)" stroke="rgb(174,57,144)" stroke-width="1" opacity="0.75" />
		</g>
	</g>
	<g>
		<title>nonR</title>
		<polygon class="nonR" points="324,16 324,16 324,1 352,31 324,61 324,46 324,46" fill="rgb(207,209,251)" fill-opacity="1.0" stroke="rgb(82,83,100)" stroke-width="1" />
		<g>
			<title>PF12697</title>
			<polygon class="PF12697" points="328,18 337,18 349,31 337,44 328,44" stroke-linejoin="round" width="23" height="26" fill="rgb(113,71,219)" stroke="rgb(90,56,175)" stroke-width="1" opacity="0.75" />
		</g>
	</g>
	<g>
		<title>nonB</title>
		<polygon class="nonB" points="352,16 352,16 352,1 368,31 352,61 352,46 352,46" fill="rgb(199,219,250)" fill-opacity="1.0" stroke="rgb(79,87,100)" stroke-width="1" />
	</g>
</svg>
