<svg version="1.1" baseProfile="full" xmlns="http://www.w3.org/2000/svg" width="489" height="62">
	<line x1="1" y1="31" x2="488" y2="31" style="stroke:rgb(50,50,50); stroke-width:3 "/>
	<g>
		<title>spaK</title>
		<polygon class="spaK" points="366,16 382,16 382,1 412,31 382,61 382,46 366,46" fill="rgb(254,241,191)" fill-opacity="1.0" stroke="rgb(101,96,76)" stroke-width="1" />
		<g>
			<title>PF00512</title>
			<rect class="PF00512" x="389" y="18" stroke-linejoin="round" width="6" height="26" fill="rgb(193,125,62)" stroke="rgb(154,100,49)" stroke-width="1" opacity="0.75" />
		</g>
		<g>
			<title>PF02518</title>
			<polygon class="PF02518" points="400,22 409,31 400,40" stroke-linejoin="round" width="11" height="26" fill="rgb(80,94,225)" stroke="rgb(64,75,180)" stroke-width="1" opacity="0.75" />
		</g>
	</g>
	<g>
		<polygon class="NoName" points="429,16 429,16 429,1 419,31 429,61 429,46 429,46" fill="rgb(255,255,255)" fill-opacity="1.0" stroke="rgb(50,50,50)" stroke-width="1" />
		<g>
			<title>PF01638</title>
			<polygon class="PF01638" points="421,31 425,18 428,18 428,44 425,44" stroke-linejoin="round" width="9" height="26" fill="rgb(91,150,227)" stroke="rgb(72,119,181)" stroke-width="1" opacity="0.75" />
		</g>
	</g>
	<g>
		<polygon class="NoName" points="447,16 447,16 447,1 433,31 447,61 447,46 447,46" fill="rgb(255,255,255)" fill-opacity="1.0" stroke="rgb(50,50,50)" stroke-width="1" />
		<g>
			<title>PF13560</title>
			<polygon class="PF13560" points="440,20 441,18 446,18 446,44 441,44 440,41" stroke-linejoin="round" width="6" height="26" fill="rgb(207,145,90)" stroke="rgb(165,116,72)" stroke-width="1" opacity="0.75" />
		</g>
	</g>
	<g>
		<title>yvan</title>
		<polygon class="yvan" points="461,16 461,16 461,1 448,31 461,61 461,46 461,46" fill="rgb(186,187,253)" fill-opacity="1.0" stroke="rgb(74,74,101)" stroke-width="1" />
		<g>
			<title>PF13560</title>
			<polygon class="PF13560" points="455,19 456,18 461,18 461,44 456,44 455,42" stroke-linejoin="round" width="6" height="26" fill="rgb(207,145,90)" stroke="rgb(165,116,72)" stroke-width="1" opacity="0.75" />
		</g>
	</g>
	<g>
		<title>spaB</title>
		<polygon class="spaB" points="17,16 90,16 90,1 120,31 90,61 90,46 17,46" fill="rgb(253,232,188)" fill-opacity="1.0" stroke="rgb(101,92,75)" stroke-width="1" />
		<g>
			<title>PF04738</title>
			<rect class="PF04738" x="20" y="18" stroke-linejoin="round" width="64" height="26" fill="rgb(219,60,229)" stroke="rgb(175,47,183)" stroke-width="1" opacity="0.75" />
		</g>
		<g>
			<title>PF14028</title>
			<polygon class="PF14028" points="92,18 104,18 117,31 104,44 92,44" stroke-linejoin="round" width="26" height="26" fill="rgb(107,223,113)" stroke="rgb(85,178,90)" stroke-width="1" opacity="0.75" />
		</g>
	</g>
	<g>
		<title>spaT</title>
		<polygon class="spaT" points="120,16 151,16 151,1 181,31 151,61 151,46 120,46" fill="rgb(252,224,177)" fill-opacity="1.0" stroke="rgb(100,89,70)" stroke-width="1" />
		<g>
			<title>PF00005</title>
			<polygon class="PF00005" points="157,18 165,18 172,25 172,37 165,44 157,44" stroke-linejoin="round" width="15" height="26" fill="rgb(129,201,63)" stroke="rgb(103,160,50)" stroke-width="1" opacity="0.75" />
		</g>
	</g>
	<g>
		<title>spaC</title>
		<polygon class="spaC" points="180,16 194,16 194,1 224,31 194,61 194,46 180,46" fill="rgb(251,224,211)" fill-opacity="1.0" stroke="rgb(100,89,84)" stroke-width="1" />
		<g>
			<title>PF05147</title>
			<polygon class="PF05147" points="184,18 208,18 221,31 208,44 184,44" stroke-linejoin="round" width="39" height="26" fill="rgb(129,182,79)" stroke="rgb(103,145,63)" stroke-width="1" opacity="0.75" />
		</g>
	</g>
	<g>
		<title>spaS</title>
		<polygon class="spaS" points="227,16 227,16 227,1 232,31 227,61 227,46 227,46" fill="rgb(251,225,213)" fill-opacity="1.0" stroke="rgb(100,90,85)" stroke-width="1" />
		<g>
			<title>PF02052</title>
			<polygon class="PF02052" points="227,18 227,18 229,31 227,44 227,44" stroke-linejoin="round" width="4" height="26" fill="rgb(66,195,175)" stroke="rgb(52,156,140)" stroke-width="1" opacity="0.75" />
		</g>
	</g>
	<g>
		<title>spai</title>
		<polygon class="spai" points="252,16 252,16 252,1 268,31 252,61 252,46 252,46" fill="rgb(254,216,217)" fill-opacity="1.0" stroke="rgb(101,86,86)" stroke-width="1" />
	</g>
	<g>
		<title>spaF</title>
		<polygon class="spaF" points="268,16 268,16 268,1 292,31 268,61 268,46 268,46" fill="rgb(252,245,202)" fill-opacity="1.0" stroke="rgb(100,98,80)" stroke-width="1" />
		<g>
			<title>PF00005</title>
			<polygon class="PF00005" points="271,18 279,18 284,25 284,37 279,44 271,44" stroke-linejoin="round" width="13" height="26" fill="rgb(129,201,63)" stroke="rgb(103,160,50)" stroke-width="1" opacity="0.75" />
		</g>
	</g>
	<g>
		<title>spaE</title>
		<polygon class="spaE" points="293,16 293,16 293,1 318,31 293,61 293,46 293,46" fill="rgb(251,246,202)" fill-opacity="1.0" stroke="rgb(100,98,80)" stroke-width="1" />
		<g>
			<title>PF12730</title>
			<polygon class="PF12730" points="293,18 304,18 309,24 309,38 304,44 293,44" stroke-linejoin="round" width="16" height="26" fill="rgb(203,161,59)" stroke="rgb(162,128,47)" stroke-width="1" opacity="0.75" />
		</g>
	</g>
	<g>
		<title>spaG</title>
		<polygon class="spaG" points="323,16 323,16 323,1 343,31 323,61 323,46 323,46" fill="rgb(177,231,252)" fill-opacity="1.0" stroke="rgb(70,92,100)" stroke-width="1" />
	</g>
	<g>
		<title>spaR</title>
		<polygon class="spaR" points="344,16 344,16 344,1 366,31 344,61 344,46 344,46" fill="rgb(250,227,209)" fill-opacity="1.0" stroke="rgb(100,90,83)" stroke-width="1" />
		<g>
			<title>PF00072</title>
			<polygon class="PF00072" points="344,18 353,18 354,19 354,43 353,44 344,44" stroke-linejoin="round" width="10" height="26" fill="rgb(100,107,203)" stroke="rgb(80,85,162)" stroke-width="1" opacity="0.75" />
		</g>
		<g>
			<title>PF00486</title>
			<polygon class="PF00486" points="358,24 363,31 358,38" stroke-linejoin="round" width="7" height="26" fill="rgb(204,153,57)" stroke="rgb(163,122,45)" stroke-width="1" opacity="0.75" />
		</g>
	</g>
</svg>
