<svg version="1.1" baseProfile="full" xmlns="http://www.w3.org/2000/svg" width="395" height="248">
	<line x1="1" y1="31" x2="394" y2="31" style="stroke:rgb(50,50,50); stroke-width:3 "/>
	<line x1="1" y1="93" x2="268" y2="93" style="stroke:rgb(50,50,50); stroke-width:3 "/>
	<line x1="1" y1="155" x2="181" y2="155" style="stroke:rgb(50,50,50); stroke-width:3 "/>
	<line x1="1" y1="217" x2="191" y2="217" style="stroke:rgb(50,50,50); stroke-width:3 "/>
	<g>
		<title>urdL</title>
		<polygon class="urdL" points="1,78 2,78 2,63 32,93 2,123 2,108 1,108" fill="rgb(228,252,212)" fill-opacity="1.0" stroke="rgb(91,100,84)" stroke-width="1" />
		<g>
			<title>PF10604</title>
			<rect class="PF10604" x="1" y="80" stroke-linejoin="round" width="14" height="26" fill="rgb(105,204,74)" stroke="rgb(84,163,59)" stroke-width="1" opacity="0.75" />
		</g>
	</g>
	<g>
		<title>urdM</title>
		<polygon class="urdM" points="32,78 69,78 69,63 99,93 69,123 69,108 32,108" fill="rgb(251,189,241)" fill-opacity="1.0" stroke="rgb(100,75,96)" stroke-width="1" />
		<g>
			<title>PF01494</title>
			<rect class="PF01494" x="32" y="80" stroke-linejoin="round" width="33" height="26" fill="rgb(182,175,59)" stroke="rgb(145,140,47)" stroke-width="1" opacity="0.75" />
		</g>
		<g>
			<title>PF13561</title>
			<polygon class="PF13561" points="74,80 83,80 96,93 83,106 74,106" stroke-linejoin="round" width="23" height="26" fill="rgb(73,205,127)" stroke="rgb(58,164,101)" stroke-width="1" opacity="0.75" />
		</g>
	</g>
	<g>
		<title>urdJ2</title>
		<polygon class="urdJ2" points="99,78 110,78 110,63 140,93 110,123 110,108 99,108" fill="rgb(226,254,209)" fill-opacity="1.0" stroke="rgb(90,101,83)" stroke-width="1" />
		<g>
			<title>PF07690</title>
			<polygon class="PF07690" points="101,80 124,80 132,88 132,98 124,106 101,106" stroke-linejoin="round" width="31" height="26" fill="rgb(193,224,74)" stroke="rgb(154,179,59)" stroke-width="1" opacity="0.75" />
		</g>
	</g>
	<g>
		<title>urdZ1</title>
		<polygon class="urdZ1" points="140,78 140,78 140,63 160,93 140,123 140,108 140,108" fill="rgb(193,252,212)" fill-opacity="1.0" stroke="rgb(77,100,84)" stroke-width="1" />
		<g>
			<title>PF00908</title>
			<polygon class="PF00908" points="140,80 148,80 157,93 157,93 148,106 140,106" stroke-linejoin="round" width="17" height="26" fill="rgb(184,89,121)" stroke="rgb(147,71,96)" stroke-width="1" opacity="0.75" />
		</g>
	</g>
	<g>
		<title>urdGT2</title>
		<polygon class="urdGT2" points="162,78 168,78 168,63 198,93 168,123 168,108 162,108" fill="rgb(251,202,240)" fill-opacity="1.0" stroke="rgb(100,80,96)" stroke-width="1" />
		<g>
			<title>PF06722</title>
			<polygon class="PF06722" points="177,80 182,80 186,84 186,102 182,106 177,106" stroke-linejoin="round" width="9" height="26" fill="rgb(200,129,88)" stroke="rgb(160,103,70)" stroke-width="1" opacity="0.75" />
		</g>
	</g>
	<g>
		<title>urdG</title>
		<polygon class="urdG" points="199,78 204,78 204,63 234,93 204,123 204,108 199,108" fill="rgb(250,248,194)" fill-opacity="1.0" stroke="rgb(100,99,77)" stroke-width="1" />
		<g>
			<title>PF00483</title>
			<polygon class="PF00483" points="199,80 218,80 222,84 222,102 218,106 199,106" stroke-linejoin="round" width="23" height="26" fill="rgb(198,101,87)" stroke="rgb(158,80,69)" stroke-width="1" opacity="0.75" />
		</g>
	</g>
	<g>
		<title>urdH</title>
		<polygon class="urdH" points="235,78 237,78 237,63 267,93 237,123 237,108 235,108" fill="rgb(180,188,253)" fill-opacity="1.0" stroke="rgb(72,75,101)" stroke-width="1" />
		<g>
			<title>PF16363</title>
			<polygon class="PF16363" points="235,80 251,80 264,93 251,106 235,106" stroke-linejoin="round" width="30" height="26" fill="rgb(162,221,65)" stroke="rgb(129,176,51)" stroke-width="1" opacity="0.75" />
		</g>
	</g>
	<g>
		<title>urdZ3</title>
		<polygon class="urdZ3" points="1,140 5,140 5,125 35,155 5,185 5,170 1,170" fill="rgb(237,251,209)" fill-opacity="1.0" stroke="rgb(94,100,83)" stroke-width="1" />
		<g>
			<title>PF01370</title>
			<polygon class="PF01370" points="1,142 19,142 25,148 25,162 19,168 1,168" stroke-linejoin="round" width="24" height="26" fill="rgb(98,102,214)" stroke="rgb(78,81,171)" stroke-width="1" opacity="0.75" />
		</g>
	</g>
	<g>
		<title>urdQ</title>
		<polygon class="urdQ" points="36,140 49,140 49,125 79,155 49,185 49,170 36,170" fill="rgb(247,254,207)" fill-opacity="1.0" stroke="rgb(98,101,82)" stroke-width="1" />
		<g>
			<title>PF01041</title>
			<polygon class="PF01041" points="39,142 63,142 76,155 63,168 39,168" stroke-linejoin="round" width="38" height="26" fill="rgb(59,139,191)" stroke="rgb(47,111,152)" stroke-width="1" opacity="0.75" />
		</g>
	</g>
	<g>
		<title>urdR</title>
		<polygon class="urdR" points="81,140 81,140 81,125 105,155 81,185 81,170 81,170" fill="rgb(250,225,207)" fill-opacity="1.0" stroke="rgb(100,90,82)" stroke-width="1" />
		<g>
			<title>PF01370</title>
			<polygon class="PF01370" points="82,142 92,142 98,150 98,160 92,168 82,168" stroke-linejoin="round" width="16" height="26" fill="rgb(98,102,214)" stroke="rgb(78,81,171)" stroke-width="1" opacity="0.75" />
		</g>
	</g>
	<g>
		<polygon class="NoName" points="8,16 8,16 8,1 22,31 8,61 8,46 8,46" fill="rgb(255,255,255)" fill-opacity="1.0" stroke="rgb(50,50,50)" stroke-width="1" />
		<g>
			<title>PF01638</title>
			<polygon class="PF01638" points="11,18 13,18 19,30 19,32 13,44 11,44" stroke-linejoin="round" width="8" height="26" fill="rgb(91,150,227)" stroke="rgb(72,119,181)" stroke-width="1" opacity="0.75" />
		</g>
	</g>
	<g>
		<title>urdS</title>
		<polygon class="urdS" points="107,140 124,140 124,125 154,155 124,185 124,170 107,170" fill="rgb(190,196,254)" fill-opacity="1.0" stroke="rgb(76,78,101)" stroke-width="1" />
		<g>
			<title>PF03559</title>
			<rect class="PF03559" x="110" y="142" stroke-linejoin="round" width="20" height="26" fill="rgb(74,201,66)" stroke="rgb(59,160,52)" stroke-width="1" opacity="0.75" />
		</g>
		<g>
			<title>PF03559</title>
			<polygon class="PF03559" points="132,142 138,142 151,155 138,168 132,168" stroke-linejoin="round" width="20" height="26" fill="rgb(74,201,66)" stroke="rgb(59,160,52)" stroke-width="1" opacity="0.75" />
		</g>
	</g>
	<g>
		<title>urdT</title>
		<polygon class="urdT" points="154,140 154,140 154,125 180,155 154,185 154,170 154,170" fill="rgb(227,251,205)" fill-opacity="1.0" stroke="rgb(90,100,82)" stroke-width="1" />
		<g>
			<title>PF01408</title>
			<rect class="PF01408" x="154" y="142" stroke-linejoin="round" width="12" height="26" fill="rgb(76,117,190)" stroke="rgb(60,93,152)" stroke-width="1" opacity="0.75" />
		</g>
	</g>
	<g>
		<title>UrdE</title>
		<polygon class="UrdE" points="1,202 20,202 20,187 50,217 20,247 20,232 1,232" fill="rgb(254,181,245)" fill-opacity="1.0" stroke="rgb(101,72,97)" stroke-width="1" />
		<g>
			<title>PF01494</title>
			<rect class="PF01494" x="1" y="204" stroke-linejoin="round" width="33" height="26" fill="rgb(182,175,59)" stroke="rgb(145,140,47)" stroke-width="1" opacity="0.75" />
		</g>
	</g>
	<g>
		<title>UrdF</title>
		<polygon class="UrdF" points="51,202 51,202 51,187 61,217 51,247 51,232 51,232" fill="rgb(210,240,250)" fill-opacity="1.0" stroke="rgb(84,96,100)" stroke-width="1" />
		<g>
			<title>PF04673</title>
			<polygon class="PF04673" points="51,204 54,204 58,217 54,230 51,230" stroke-linejoin="round" width="10" height="26" fill="rgb(49,187,78)" stroke="rgb(39,149,62)" stroke-width="1" opacity="0.75" />
		</g>
	</g>
	<g>
		<title>UrdA</title>
		<polygon class="UrdA" points="62,202 74,202 74,187 104,217 74,247 74,232 62,232" fill="rgb(181,201,250)" fill-opacity="1.0" stroke="rgb(72,80,100)" stroke-width="1" />
		<g>
			<title>PF00109</title>
			<rect class="PF00109" x="62" y="204" stroke-linejoin="round" width="25" height="26" fill="rgb(112,116,228)" stroke="rgb(89,92,182)" stroke-width="1" opacity="0.75" />
		</g>
		<g>
			<title>PF02801</title>
			<polygon class="PF02801" points="88,204 88,204 99,215 99,219 88,230 88,230" stroke-linejoin="round" width="11" height="26" fill="rgb(215,78,102)" stroke="rgb(172,62,81)" stroke-width="1" opacity="0.75" />
		</g>
	</g>
	<g>
		<title>UrdB</title>
		<polygon class="UrdB" points="105,202 115,202 115,187 145,217 115,247 115,232 105,232" fill="rgb(251,200,210)" fill-opacity="1.0" stroke="rgb(100,80,84)" stroke-width="1" />
		<g>
			<title>PF00109</title>
			<rect class="PF00109" x="105" y="204" stroke-linejoin="round" width="24" height="26" fill="rgb(112,116,228)" stroke="rgb(89,92,182)" stroke-width="1" opacity="0.75" />
		</g>
		<g>
			<title>PF02801</title>
			<polygon class="PF02801" points="130,205 141,216 141,218 130,229" stroke-linejoin="round" width="11" height="26" fill="rgb(215,78,102)" stroke="rgb(172,62,81)" stroke-width="1" opacity="0.75" />
		</g>
	</g>
	<g>
		<title>UrdC</title>
		<polygon class="UrdC" points="149,202 149,202 149,187 158,217 149,247 149,232 149,232" fill="rgb(211,239,254)" fill-opacity="1.0" stroke="rgb(84,95,101)" stroke-width="1" />
		<g>
			<title>PF00550</title>
			<polygon class="PF00550" points="149,204 151,204 155,217 151,230 149,230" stroke-linejoin="round" width="7" height="26" fill="rgb(103,191,88)" stroke="rgb(82,152,70)" stroke-width="1" opacity="0.75" />
		</g>
	</g>
	<g>
		<title>UrdD</title>
		<polygon class="UrdD" points="164,202 164,202 164,187 190,217 164,247 164,232 164,232" fill="rgb(253,204,244)" fill-opacity="1.0" stroke="rgb(101,81,97)" stroke-width="1" />
		<g>
			<title>PF00106</title>
			<polygon class="PF00106" points="164,204 176,204 183,212 183,222 176,230 164,230" stroke-linejoin="round" width="19" height="26" fill="rgb(182,219,73)" stroke="rgb(145,175,58)" stroke-width="1" opacity="0.75" />
		</g>
	</g>
	<g>
		<polygon class="NoName" points="61,16 56,16 56,1 26,31 56,61 56,46 61,46" fill="rgb(255,255,255)" fill-opacity="1.0" stroke="rgb(50,50,50)" stroke-width="1" />
	</g>
	<g>
		<title>urdGT1a</title>
		<polygon class="urdGT1a" points="112,16 124,16 124,1 154,31 124,61 124,46 112,46" fill="rgb(253,186,184)" fill-opacity="1.0" stroke="rgb(101,74,73)" stroke-width="1" />
		<g>
			<title>PF06722</title>
			<polygon class="PF06722" points="133,18 138,18 142,22 142,40 138,44 133,44" stroke-linejoin="round" width="9" height="26" fill="rgb(200,129,88)" stroke="rgb(160,103,70)" stroke-width="1" opacity="0.75" />
		</g>
	</g>
	<g>
		<title>urdGT1b</title>
		<polygon class="urdGT1b" points="155,16 163,16 163,1 193,31 163,61 163,46 155,46" fill="rgb(215,252,199)" fill-opacity="1.0" stroke="rgb(86,100,79)" stroke-width="1" />
		<g>
			<title>PF06722</title>
			<polygon class="PF06722" points="172,18 177,18 181,22 181,40 177,44 172,44" stroke-linejoin="round" width="9" height="26" fill="rgb(200,129,88)" stroke="rgb(160,103,70)" stroke-width="1" opacity="0.75" />
		</g>
		<g>
			<title>PF04101</title>
			<polygon class="PF04101" points="182,23 190,31 182,39" stroke-linejoin="round" width="10" height="26" fill="rgb(211,90,140)" stroke="rgb(168,72,112)" stroke-width="1" opacity="0.75" />
		</g>
	</g>
	<g>
		<title>urd-Int</title>
		<polygon class="urd-Int" points="235,16 225,16 225,1 195,31 225,61 225,46 235,46" fill="rgb(253,196,227)" fill-opacity="1.0" stroke="rgb(101,78,90)" stroke-width="1" />
		<g>
			<title>PF02371</title>
			<polygon class="PF02371" points="199,29 207,21 207,40 199,32" stroke-linejoin="round" width="8" height="26" fill="rgb(104,204,65)" stroke="rgb(83,163,52)" stroke-width="1" opacity="0.75" />
		</g>
		<g>
			<title>PF01548</title>
			<rect class="PF01548" x="218" y="18" stroke-linejoin="round" width="15" height="26" fill="rgb(59,200,207)" stroke="rgb(47,160,165)" stroke-width="1" opacity="0.75" />
		</g>
	</g>
	<g>
		<title>urdGT1c</title>
		<polygon class="urdGT1c" points="243,16 252,16 252,1 282,31 252,61 252,46 243,46" fill="rgb(216,252,178)" fill-opacity="1.0" stroke="rgb(86,100,71)" stroke-width="1" />
		<g>
			<title>PF06722</title>
			<polygon class="PF06722" points="260,18 266,18 269,21 269,41 266,44 260,44" stroke-linejoin="round" width="9" height="26" fill="rgb(200,129,88)" stroke="rgb(160,103,70)" stroke-width="1" opacity="0.75" />
		</g>
	</g>
	<g>
		<title>urdK</title>
		<polygon class="urdK" points="304,16 304,16 304,1 286,31 304,61 304,46 304,46" fill="rgb(210,250,194)" fill-opacity="1.0" stroke="rgb(84,100,77)" stroke-width="1" />
		<g>
			<title>PF00440</title>
			<rect class="PF00440" x="299" y="18" stroke-linejoin="round" width="4" height="26" fill="rgb(73,212,190)" stroke="rgb(58,169,152)" stroke-width="1" opacity="0.75" />
		</g>
	</g>
	<g>
		<title>urdJ</title>
		<polygon class="urdJ" points="309,16 331,16 331,1 361,31 331,61 331,46 309,46" fill="rgb(205,252,186)" fill-opacity="1.0" stroke="rgb(82,100,74)" stroke-width="1" />
		<g>
			<title>PF07690</title>
			<polygon class="PF07690" points="311,18 345,18 350,23 350,39 345,44 311,44" stroke-linejoin="round" width="39" height="26" fill="rgb(193,224,74)" stroke="rgb(154,179,59)" stroke-width="1" opacity="0.75" />
		</g>
	</g>
	<g>
		<title>urdO</title>
		<polygon class="urdO" points="363,16 363,16 363,1 382,31 363,61 363,46 363,46" fill="rgb(193,243,253)" fill-opacity="1.0" stroke="rgb(77,97,101)" stroke-width="1" />
		<g>
			<title>PF03358</title>
			<polygon class="PF03358" points="363,18 371,18 377,27 377,35 371,44 363,44" stroke-linejoin="round" width="14" height="26" fill="rgb(90,228,61)" stroke="rgb(72,182,48)" stroke-width="1" opacity="0.75" />
		</g>
	</g>
</svg>
