<svg version="1.1" baseProfile="full" xmlns="http://www.w3.org/2000/svg" width="1181" height="62">
	<line x1="1" y1="31" x2="1180" y2="31" style="stroke:rgb(50,50,50); stroke-width:3 "/>
	<g>
		<title>lipI</title>
		<polygon class="lipI" points="328,16 328,16 328,1 347,31 328,61 328,46 328,46" fill="rgb(245,252,179)" fill-opacity="1.0" stroke="rgb(98,100,71)" stroke-width="1" />
	</g>
	<g>
		<title>lipJ</title>
		<polygon class="lipJ" points="349,16 363,16 363,1 393,31 363,61 363,46 349,46" fill="rgb(251,198,252)" fill-opacity="1.0" stroke="rgb(100,79,100)" stroke-width="1" />
	</g>
	<g>
		<title>lipK</title>
		<polygon class="lipK" points="393,16 405,16 405,1 435,31 405,61 405,46 393,46" fill="rgb(191,218,253)" fill-opacity="1.0" stroke="rgb(76,87,101)" stroke-width="1" />
		<g>
			<title>PF00464</title>
			<polygon class="PF00464" points="394,18 419,18 431,30 431,32 419,44 394,44" stroke-linejoin="round" width="37" height="26" fill="rgb(215,97,215)" stroke="rgb(172,77,172)" stroke-width="1" opacity="0.75" />
		</g>
	</g>
	<g>
		<title>lipL</title>
		<polygon class="lipL" points="438,16 438,16 438,1 465,31 438,61 438,46 438,46" fill="rgb(254,184,219)" fill-opacity="1.0" stroke="rgb(101,73,87)" stroke-width="1" />
		<g>
			<title>PF02668</title>
			<polygon class="PF02668" points="439,18 450,18 462,31 450,44 439,44" stroke-linejoin="round" width="24" height="26" fill="rgb(180,79,217)" stroke="rgb(144,63,173)" stroke-width="1" opacity="0.75" />
		</g>
	</g>
	<g>
		<title>lipM</title>
		<polygon class="lipM" points="466,16 466,16 466,1 489,31 466,61 466,46 466,46" fill="rgb(192,254,198)" fill-opacity="1.0" stroke="rgb(76,101,79)" stroke-width="1" />
	</g>
	<g>
		<title>lipN</title>
		<polygon class="lipN" points="489,16 496,16 496,1 526,31 496,61 496,46 489,46" fill="rgb(187,229,254)" fill-opacity="1.0" stroke="rgb(74,91,101)" stroke-width="1" />
	</g>
	<g>
		<title>lipO</title>
		<polygon class="lipO" points="527,16 539,16 539,1 569,31 539,61 539,46 527,46" fill="rgb(194,253,187)" fill-opacity="1.0" stroke="rgb(77,101,74)" stroke-width="1" />
		<g>
			<title>PF00202</title>
			<polygon class="PF00202" points="528,18 553,18 566,31 553,44 528,44" stroke-linejoin="round" width="40" height="26" fill="rgb(49,163,189)" stroke="rgb(39,130,151)" stroke-width="1" opacity="0.75" />
		</g>
	</g>
	<g>
		<title>lipP</title>
		<polygon class="lipP" points="569,16 584,16 584,1 614,31 584,61 584,46 569,46" fill="rgb(182,239,249)" fill-opacity="1.0" stroke="rgb(72,95,99)" stroke-width="1" />
		<g>
			<title>PF02885</title>
			<rect class="PF02885" x="570" y="18" stroke-linejoin="round" width="6" height="26" fill="rgb(156,69,183)" stroke="rgb(124,55,146)" stroke-width="1" opacity="0.75" />
		</g>
		<g>
			<title>PF00591</title>
			<polygon class="PF00591" points="577,18 598,18 600,20 600,42 598,44 577,44" stroke-linejoin="round" width="23" height="26" fill="rgb(73,116,182)" stroke="rgb(58,92,145)" stroke-width="1" opacity="0.75" />
		</g>
		<g>
			<title>PF07831</title>
			<polygon class="PF07831" points="604,24 611,31 611,31 604,38" stroke-linejoin="round" width="7" height="26" fill="rgb(204,173,76)" stroke="rgb(163,138,60)" stroke-width="1" opacity="0.75" />
		</g>
	</g>
	<g>
		<title>lipQ</title>
		<polygon class="lipQ" points="615,16 620,16 620,1 650,31 620,61 620,46 615,46" fill="rgb(179,248,250)" fill-opacity="1.0" stroke="rgb(71,99,100)" stroke-width="1" />
		<g>
			<title>PF00501</title>
			<polygon class="PF00501" points="631,18 634,18 645,29 645,33 634,44 631,44" stroke-linejoin="round" width="14" height="26" fill="rgb(60,217,223)" stroke="rgb(48,173,178)" stroke-width="1" opacity="0.75" />
		</g>
	</g>
	<g>
		<title>lipR</title>
		<polygon class="lipR" points="650,16 669,16 669,1 699,31 669,61 669,46 650,46" fill="rgb(208,253,178)" fill-opacity="1.0" stroke="rgb(83,101,71)" stroke-width="1" />
		<g>
			<title>PF00135</title>
			<rect class="PF00135" x="650" y="18" stroke-linejoin="round" width="33" height="26" fill="rgb(204,82,64)" stroke="rgb(163,65,51)" stroke-width="1" opacity="0.75" />
		</g>
		<g>
			<title>PF00135</title>
			<polygon class="PF00135" points="685,20 696,31 685,42" stroke-linejoin="round" width="12" height="26" fill="rgb(204,82,64)" stroke="rgb(163,65,51)" stroke-width="1" opacity="0.75" />
		</g>
	</g>
	<g>
		<title>lipA</title>
		<polygon class="lipA" points="19,16 19,16 19,1 1,31 19,61 19,46 19,46" fill="rgb(250,220,202)" fill-opacity="1.0" stroke="rgb(100,88,80)" stroke-width="1" />
		<g>
			<title>PF13463</title>
			<polygon class="PF13463" points="8,23 11,18 15,18 15,44 11,44 8,38" stroke-linejoin="round" width="7" height="26" fill="rgb(130,111,228)" stroke="rgb(103,88,182)" stroke-width="1" opacity="0.75" />
		</g>
	</g>
	<g>
		<title>lipS</title>
		<polygon class="lipS" points="700,16 793,16 793,1 823,31 793,61 793,46 700,46" fill="rgb(250,186,244)" fill-opacity="1.0" stroke="rgb(100,74,97)" stroke-width="1" />
		<g>
			<title>PF00664</title>
			<rect class="PF00664" x="702" y="18" stroke-linejoin="round" width="26" height="26" fill="rgb(149,226,73)" stroke="rgb(119,180,58)" stroke-width="1" opacity="0.75" />
		</g>
		<g>
			<title>PF00005</title>
			<rect class="PF00005" x="736" y="18" stroke-linejoin="round" width="15" height="26" fill="rgb(129,201,63)" stroke="rgb(103,160,50)" stroke-width="1" opacity="0.75" />
		</g>
		<g>
			<title>PF00664</title>
			<rect class="PF00664" x="766" y="18" stroke-linejoin="round" width="24" height="26" fill="rgb(149,226,73)" stroke="rgb(119,180,58)" stroke-width="1" opacity="0.75" />
		</g>
		<g>
			<title>PF00005</title>
			<polygon class="PF00005" points="800,18 807,18 814,25 814,37 807,44 800,44" stroke-linejoin="round" width="14" height="26" fill="rgb(129,201,63)" stroke="rgb(103,160,50)" stroke-width="1" opacity="0.75" />
		</g>
	</g>
	<g>
		<title>lipT</title>
		<polygon class="lipT" points="824,16 828,16 828,1 858,31 828,61 828,46 824,46" fill="rgb(250,247,202)" fill-opacity="1.0" stroke="rgb(100,98,80)" stroke-width="1" />
	</g>
	<g>
		<title>lipU</title>
		<polygon class="lipU" points="868,16 898,16 898,1 928,31 898,61 898,46 868,46" fill="rgb(253,234,194)" fill-opacity="1.0" stroke="rgb(101,93,77)" stroke-width="1" />
	</g>
	<g>
		<title>lipV</title>
		<polygon class="lipV" points="932,16 935,16 935,1 965,31 935,61 935,46 932,46" fill="rgb(215,213,252)" fill-opacity="1.0" stroke="rgb(86,85,100)" stroke-width="1" />
		<g>
			<title>PF08240</title>
			<rect class="PF08240" x="934" y="18" stroke-linejoin="round" width="9" height="26" fill="rgb(211,65,138)" stroke="rgb(168,51,110)" stroke-width="1" opacity="0.75" />
		</g>
		<g>
			<title>PF00107</title>
			<polygon class="PF00107" points="948,18 949,18 959,28 959,34 949,44 948,44" stroke-linejoin="round" width="11" height="26" fill="rgb(81,108,215)" stroke="rgb(64,86,172)" stroke-width="1" opacity="0.75" />
		</g>
	</g>
	<g>
		<title>lipW</title>
		<polygon class="lipW" points="966,16 979,16 979,1 1009,31 979,61 979,46 966,46" fill="rgb(192,239,251)" fill-opacity="1.0" stroke="rgb(76,95,100)" stroke-width="1" />
		<g>
			<title>PF08241</title>
			<polygon class="PF08241" points="986,18 993,18 994,19 994,43 993,44 986,44" stroke-linejoin="round" width="8" height="26" fill="rgb(106,219,159)" stroke="rgb(84,175,127)" stroke-width="1" opacity="0.75" />
		</g>
	</g>
	<g>
		<title>lipX</title>
		<polygon class="lipX" points="1009,16 1009,16 1009,1 1027,31 1009,61 1009,46 1009,46" fill="rgb(203,195,249)" fill-opacity="1.0" stroke="rgb(81,78,99)" stroke-width="1" />
	</g>
	<g>
		<title>lipY</title>
		<polygon class="lipY" points="1029,16 1040,16 1040,1 1070,31 1040,61 1040,46 1029,46" fill="rgb(249,253,213)" fill-opacity="1.0" stroke="rgb(99,101,85)" stroke-width="1" />
	</g>
	<g>
		<title>lipZ</title>
		<polygon class="lipZ" points="1072,16 1072,16 1072,1 1098,31 1072,61 1072,46 1072,46" fill="rgb(210,251,236)" fill-opacity="1.0" stroke="rgb(84,100,94)" stroke-width="1" />
		<g>
			<title>PF05711</title>
			<polygon class="PF05711" points="1073,18 1084,18 1095,31 1084,44 1073,44" stroke-linejoin="round" width="24" height="26" fill="rgb(175,228,98)" stroke="rgb(139,182,78)" stroke-width="1" opacity="0.75" />
		</g>
	</g>
	<g>
		<title>lipA1</title>
		<polygon class="lipA1" points="1098,16 1108,16 1108,1 1138,31 1108,61 1108,46 1098,46" fill="rgb(193,230,251)" fill-opacity="1.0" stroke="rgb(77,92,100)" stroke-width="1" />
	</g>
	<g>
		<title>lipB1</title>
		<polygon class="lipB1" points="1140,16 1149,16 1149,1 1179,31 1149,61 1149,46 1140,46" fill="rgb(253,225,215)" fill-opacity="1.0" stroke="rgb(101,90,86)" stroke-width="1" />
		<g>
			<title>PF06722</title>
			<polygon class="PF06722" points="1159,18 1163,18 1168,23 1168,39 1163,44 1159,44" stroke-linejoin="round" width="9" height="26" fill="rgb(200,129,88)" stroke="rgb(160,103,70)" stroke-width="1" opacity="0.75" />
		</g>
	</g>
	<g>
		<polygon class="NoName" points="29,16 31,16 31,1 61,31 31,61 31,46 29,46" fill="rgb(255,255,255)" fill-opacity="1.0" stroke="rgb(50,50,50)" stroke-width="1" />
		<g>
			<title>PF02678</title>
			<rect class="PF02678" x="32" y="18" stroke-linejoin="round" width="10" height="26" fill="rgb(139,213,61)" stroke="rgb(111,170,48)" stroke-width="1" opacity="0.75" />
		</g>
		<g>
			<title>PF05726</title>
			<polygon class="PF05726" points="48,21 58,31 58,31 48,41" stroke-linejoin="round" width="10" height="26" fill="rgb(68,194,205)" stroke="rgb(54,155,164)" stroke-width="1" opacity="0.75" />
		</g>
	</g>
	<g>
		<title>lipB</title>
		<polygon class="lipB" points="115,16 94,16 94,1 64,31 94,61 94,46 115,46" fill="rgb(253,188,238)" fill-opacity="1.0" stroke="rgb(101,75,95)" stroke-width="1" />
		<g>
			<title>PF14269</title>
			<polygon class="PF14269" points="74,23 79,18 102,18 102,44 79,44 74,38" stroke-linejoin="round" width="28" height="26" fill="rgb(81,204,122)" stroke="rgb(64,163,97)" stroke-width="1" opacity="0.75" />
		</g>
	</g>
	<g>
		<title>lipC</title>
		<polygon class="lipC" points="158,16 146,16 146,1 116,31 146,61 146,46 158,46" fill="rgb(181,223,250)" fill-opacity="1.0" stroke="rgb(72,89,100)" stroke-width="1" />
		<g>
			<title>PF08540</title>
			<polygon class="PF08540" points="122,27 131,18 131,43 122,34" stroke-linejoin="round" width="9" height="26" fill="rgb(49,194,86)" stroke="rgb(39,155,68)" stroke-width="1" opacity="0.75" />
		</g>
		<g>
			<title>PF01154</title>
			<rect class="PF01154" x="141" y="18" stroke-linejoin="round" width="16" height="26" fill="rgb(88,216,218)" stroke="rgb(70,172,174)" stroke-width="1" opacity="0.75" />
		</g>
	</g>
	<g>
		<title>lipD</title>
		<polygon class="lipD" points="168,16 173,16 173,1 203,31 173,61 173,46 168,46" fill="rgb(207,254,231)" fill-opacity="1.0" stroke="rgb(82,101,92)" stroke-width="1" />
		<g>
			<title>PF00195</title>
			<rect class="PF00195" x="173" y="18" stroke-linejoin="round" width="14" height="26" fill="rgb(60,181,161)" stroke="rgb(47,144,128)" stroke-width="1" opacity="0.75" />
		</g>
		<g>
			<title>PF02797</title>
			<polygon class="PF02797" points="192,23 200,31 192,39" stroke-linejoin="round" width="9" height="26" fill="rgb(139,212,63)" stroke="rgb(111,169,50)" stroke-width="1" opacity="0.75" />
		</g>
	</g>
	<g>
		<title>lipE</title>
		<polygon class="lipE" points="221,16 221,16 221,1 242,31 221,61 221,46 221,46" fill="rgb(251,198,204)" fill-opacity="1.0" stroke="rgb(100,79,81)" stroke-width="1" />
	</g>
	<g>
		<title>lipF</title>
		<polygon class="lipF" points="250,16 253,16 253,1 283,31 253,61 253,46 250,46" fill="rgb(241,250,206)" fill-opacity="1.0" stroke="rgb(96,100,82)" stroke-width="1" />
		<g>
			<title>PF14525</title>
			<polygon class="PF14525" points="253,18 267,18 269,20 269,42 267,44 253,44" stroke-linejoin="round" width="16" height="26" fill="rgb(226,106,111)" stroke="rgb(180,84,88)" stroke-width="1" opacity="0.75" />
		</g>
		<g>
			<title>PF12833</title>
			<polygon class="PF12833" points="274,25 280,31 274,37" stroke-linejoin="round" width="8" height="26" fill="rgb(216,58,224)" stroke="rgb(172,46,179)" stroke-width="1" opacity="0.75" />
		</g>
	</g>
	<g>
		<title>lipG</title>
		<polygon class="lipG" points="284,16 284,16 284,1 305,31 284,61 284,46 284,46" fill="rgb(192,252,220)" fill-opacity="1.0" stroke="rgb(76,100,88)" stroke-width="1" />
	</g>
	<g>
		<title>lipH</title>
		<polygon class="lipH" points="307,16 307,16 307,1 327,31 307,61 307,46 307,46" fill="rgb(206,243,252)" fill-opacity="1.0" stroke="rgb(82,97,100)" stroke-width="1" />
		<g>
			<title>PF13489</title>
			<polygon class="PF13489" points="308,18 315,18 320,25 320,37 315,44 308,44" stroke-linejoin="round" width="12" height="26" fill="rgb(188,189,66)" stroke="rgb(150,151,52)" stroke-width="1" opacity="0.75" />
		</g>
	</g>
</svg>
