<svg version="1.1" baseProfile="full" xmlns="http://www.w3.org/2000/svg" width="265" height="62">
	<line x1="1" y1="31" x2="264" y2="31" style="stroke:rgb(50,50,50); stroke-width:3 "/>
	<g>
		<title>cpx6D</title>
		<polygon class="cpx6D" points="37,16 31,16 31,1 1,31 31,61 31,46 37,46" fill="rgb(200,250,212)" fill-opacity="1.0" stroke="rgb(80,100,84)" stroke-width="1" />
		<g>
			<title>PF02563</title>
			<rect class="PF02563" x="19" y="18" stroke-linejoin="round" width="9" height="26" fill="rgb(125,185,59)" stroke="rgb(100,148,47)" stroke-width="1" opacity="0.75" />
		</g>
	</g>
	<g>
		<title>cps6A</title>
		<polygon class="cps6A" points="43,16 50,16 50,1 80,31 50,61 50,46 43,46" fill="rgb(214,203,250)" fill-opacity="1.0" stroke="rgb(85,81,100)" stroke-width="1" />
		<g>
			<title>PF04464</title>
			<polygon class="PF04464" points="54,18 64,18 69,23 69,39 64,44 54,44" stroke-linejoin="round" width="15" height="26" fill="rgb(55,181,67)" stroke="rgb(44,144,53)" stroke-width="1" opacity="0.75" />
		</g>
	</g>
	<g>
		<title>cps6B</title>
		<polygon class="cps6B" points="83,16 83,16 83,1 97,31 83,61 83,46 83,46" fill="rgb(250,175,205)" fill-opacity="1.0" stroke="rgb(100,69,82)" stroke-width="1" />
		<g>
			<title>PF01467</title>
			<polygon class="PF01467" points="83,18 88,18 94,31 88,44 83,44" stroke-linejoin="round" width="12" height="26" fill="rgb(110,215,57)" stroke="rgb(88,172,45)" stroke-width="1" opacity="0.75" />
		</g>
	</g>
	<g>
		<title>cps6C</title>
		<polygon class="cps6C" points="97,16 105,16 105,1 135,31 105,61 105,46 97,46" fill="rgb(253,197,250)" fill-opacity="1.0" stroke="rgb(101,78,100)" stroke-width="1" />
	</g>
	<g>
		<title>cps6D</title>
		<polygon class="cps6D" points="136,16 204,16 204,1 234,31 204,61 204,46 136,46" fill="rgb(196,197,251)" fill-opacity="1.0" stroke="rgb(78,78,100)" stroke-width="1" />
		<g>
			<title>PF04464</title>
			<rect class="PF04464" x="148" y="18" stroke-linejoin="round" width="29" height="26" fill="rgb(55,181,67)" stroke="rgb(44,144,53)" stroke-width="1" opacity="0.75" />
		</g>
		<g>
			<title>PF04464</title>
			<rect class="PF04464" x="180" y="18" stroke-linejoin="round" width="18" height="26" fill="rgb(55,181,67)" stroke="rgb(44,144,53)" stroke-width="1" opacity="0.75" />
		</g>
		<g>
			<title>PF00534</title>
			<polygon class="PF00534" points="215,18 218,18 231,31 231,31 218,44 215,44" stroke-linejoin="round" width="16" height="26" fill="rgb(228,92,150)" stroke="rgb(182,73,119)" stroke-width="1" opacity="0.75" />
		</g>
	</g>
	<g>
		<title>cps6E</title>
		<polygon class="cps6E" points="235,16 235,16 235,1 264,31 235,61 235,46 235,46" fill="rgb(251,176,182)" fill-opacity="1.0" stroke="rgb(100,70,72)" stroke-width="1" />
		<g>
			<title>PF00535</title>
			<polygon class="PF00535" points="236,18 248,18 252,22 252,40 248,44 236,44" stroke-linejoin="round" width="16" height="26" fill="rgb(224,122,96)" stroke="rgb(179,97,76)" stroke-width="1" opacity="0.75" />
		</g>
	</g>
</svg>
