<svg version="1.1" baseProfile="full" xmlns="http://www.w3.org/2000/svg" width="292" height="62">
	<line x1="1" y1="31" x2="291" y2="31" style="stroke:rgb(50,50,50); stroke-width:3 "/>
	<g>
		<title>epiY_</title>
		<polygon class="epiY_" points="28,16 28,16 28,1 1,31 28,61 28,46 28,46" fill="rgb(180,250,207)" fill-opacity="1.0" stroke="rgb(72,100,82)" stroke-width="1" />
		<g>
			<title>PF00005</title>
			<polygon class="PF00005" points="3,31 6,28 6,33" stroke-linejoin="round" width="6" height="26" fill="rgb(129,201,63)" stroke="rgb(103,160,50)" stroke-width="1" opacity="0.75" />
		</g>
		<g>
			<title>PF00664</title>
			<polygon class="PF00664" points="13,20 15,18 27,18 27,44 15,44 13,41" stroke-linejoin="round" width="14" height="26" fill="rgb(149,226,73)" stroke="rgb(119,180,58)" stroke-width="1" opacity="0.75" />
		</g>
	</g>
	<g>
		<title>epiY</title>
		<polygon class="epiY" points="41,16 41,16 41,1 27,31 41,61 41,46 41,46" fill="rgb(208,233,250)" fill-opacity="1.0" stroke="rgb(83,93,100)" stroke-width="1" />
		<g>
			<title>PF00664</title>
			<polygon class="PF00664" points="29,31 35,18 39,18 39,44 35,44" stroke-linejoin="round" width="12" height="26" fill="rgb(149,226,73)" stroke="rgb(119,180,58)" stroke-width="1" opacity="0.75" />
		</g>
	</g>
	<g>
		<title>epiA</title>
		<polygon class="epiA" points="47,16 47,16 47,1 52,31 47,61 47,46 47,46" fill="rgb(253,186,220)" fill-opacity="1.0" stroke="rgb(101,74,88)" stroke-width="1" />
		<g>
			<title>PF02052</title>
			<polygon class="PF02052" points="47,18 47,18 49,31 47,44 47,44" stroke-linejoin="round" width="5" height="26" fill="rgb(66,195,175)" stroke="rgb(52,156,140)" stroke-width="1" opacity="0.75" />
		</g>
	</g>
	<g>
		<title>epiB</title>
		<polygon class="epiB" points="54,16 122,16 122,1 152,31 122,61 122,46 54,46" fill="rgb(253,221,187)" fill-opacity="1.0" stroke="rgb(101,88,74)" stroke-width="1" />
		<g>
			<title>PF04738</title>
			<rect class="PF04738" x="57" y="18" stroke-linejoin="round" width="62" height="26" fill="rgb(219,60,229)" stroke="rgb(175,47,183)" stroke-width="1" opacity="0.75" />
		</g>
		<g>
			<title>PF14028</title>
			<polygon class="PF14028" points="126,18 136,18 149,31 136,44 126,44" stroke-linejoin="round" width="25" height="26" fill="rgb(107,223,113)" stroke="rgb(85,178,90)" stroke-width="1" opacity="0.75" />
		</g>
	</g>
	<g>
		<title>epiC</title>
		<polygon class="epiC" points="149,16 164,16 164,1 194,31 164,61 164,46 149,46" fill="rgb(240,252,190)" fill-opacity="1.0" stroke="rgb(96,100,76)" stroke-width="1" />
		<g>
			<title>PF05147</title>
			<polygon class="PF05147" points="156,18 178,18 191,31 178,44 156,44" stroke-linejoin="round" width="38" height="26" fill="rgb(129,182,79)" stroke="rgb(103,145,63)" stroke-width="1" opacity="0.75" />
		</g>
	</g>
	<g>
		<title>epiD</title>
		<polygon class="epiD" points="195,16 195,16 195,1 213,31 195,61 195,46 195,46" fill="rgb(218,254,210)" fill-opacity="1.0" stroke="rgb(87,101,84)" stroke-width="1" />
		<g>
			<title>PF02441</title>
			<polygon class="PF02441" points="195,18 202,18 210,31 202,44 195,44" stroke-linejoin="round" width="17" height="26" fill="rgb(199,95,88)" stroke="rgb(159,76,70)" stroke-width="1" opacity="0.75" />
		</g>
	</g>
	<g>
		<title>epiQ</title>
		<polygon class="epiQ" points="233,16 233,16 233,1 213,31 233,61 233,46 233,46" fill="rgb(235,254,189)" fill-opacity="1.0" stroke="rgb(93,101,75)" stroke-width="1" />
		<g>
			<title>PF00486</title>
			<polygon class="PF00486" points="215,31 220,24 220,37" stroke-linejoin="round" width="7" height="26" fill="rgb(204,153,57)" stroke="rgb(163,122,45)" stroke-width="1" opacity="0.75" />
		</g>
	</g>
	<g>
		<title>epiP</title>
		<polygon class="epiP" points="280,16 264,16 264,1 234,31 264,61 264,46 280,46" fill="rgb(252,204,209)" fill-opacity="1.0" stroke="rgb(100,81,83)" stroke-width="1" />
		<g>
			<title>PF00082</title>
			<polygon class="PF00082" points="236,31 249,18 266,18 266,44 249,44" stroke-linejoin="round" width="31" height="26" fill="rgb(193,159,94)" stroke="rgb(154,127,75)" stroke-width="1" opacity="0.75" />
		</g>
	</g>
</svg>
