<svg version="1.1" baseProfile="full" xmlns="http://www.w3.org/2000/svg" width="887" height="62">
	<line x1="1" y1="31" x2="886" y2="31" style="stroke:rgb(50,50,50); stroke-width:3 "/>
	<g>
		<polygon class="NoName" points="885,16 852,16 852,1 822,31 852,61 852,46 885,46" fill="rgb(255,255,255)" fill-opacity="1.0" stroke="rgb(50,50,50)" stroke-width="1" />
		<g>
			<title>PF00324</title>
			<polygon class="PF00324" points="835,20 837,18 881,18 881,44 837,44 835,41" stroke-linejoin="round" width="46" height="26" fill="rgb(82,225,201)" stroke="rgb(65,180,160)" stroke-width="1" opacity="0.75" />
		</g>
	</g>
	<g>
		<polygon class="NoName" points="19,16 19,16 19,1 1,31 19,61 19,46 19,46" fill="rgb(255,255,255)" fill-opacity="1.0" stroke="rgb(50,50,50)" stroke-width="1" />
		<g>
			<title>PF00903</title>
			<polygon class="PF00903" points="4,29 11,18 18,18 18,44 11,44 4,32" stroke-linejoin="round" width="14" height="26" fill="rgb(50,162,189)" stroke="rgb(40,129,151)" stroke-width="1" opacity="0.75" />
		</g>
	</g>
	<g>
		<polygon class="NoName" points="162,16 160,16 160,1 130,31 160,61 160,46 162,46" fill="rgb(255,255,255)" fill-opacity="1.0" stroke="rgb(50,50,50)" stroke-width="1" />
		<g>
			<title>PF03664</title>
			<polygon class="PF03664" points="133,30 145,18 160,18 160,44 145,44 133,31" stroke-linejoin="round" width="27" height="26" fill="rgb(191,57,139)" stroke="rgb(152,45,111)" stroke-width="1" opacity="0.75" />
		</g>
	</g>
	<g>
		<polygon class="NoName" points="399,16 213,16 213,1 183,31 213,61 213,46 399,46" fill="rgb(255,255,255)" fill-opacity="1.0" stroke="rgb(50,50,50)" stroke-width="1" />
		<g>
			<title>PF00975</title>
			<polygon class="PF00975" points="190,26 198,18 215,18 215,44 198,44 190,35" stroke-linejoin="round" width="25" height="26" fill="rgb(207,80,138)" stroke="rgb(165,63,110)" stroke-width="1" opacity="0.75" />
		</g>
		<g>
			<title>PF00550</title>
			<rect class="PF00550" x="218" y="18" stroke-linejoin="round" width="6" height="26" fill="rgb(103,191,88)" stroke="rgb(82,152,70)" stroke-width="1" opacity="0.75" />
		</g>
		<g>
			<title>PF00550</title>
			<rect class="PF00550" x="228" y="18" stroke-linejoin="round" width="6" height="26" fill="rgb(103,191,88)" stroke="rgb(82,152,70)" stroke-width="1" opacity="0.75" />
		</g>
		<g>
			<title>PF14765</title>
			<rect class="PF14765" x="241" y="18" stroke-linejoin="round" width="28" height="26" fill="rgb(173,56,182)" stroke="rgb(138,44,145)" stroke-width="1" opacity="0.75" />
		</g>
		<g>
			<title>PF00698</title>
			<rect class="PF00698" x="278" y="18" stroke-linejoin="round" width="32" height="26" fill="rgb(59,176,209)" stroke="rgb(47,140,167)" stroke-width="1" opacity="0.75" />
		</g>
		<g>
			<title>PF02801</title>
			<rect class="PF02801" x="326" y="18" stroke-linejoin="round" width="11" height="26" fill="rgb(215,78,102)" stroke="rgb(172,62,81)" stroke-width="1" opacity="0.75" />
		</g>
		<g>
			<title>PF00109</title>
			<rect class="PF00109" x="339" y="18" stroke-linejoin="round" width="25" height="26" fill="rgb(112,116,228)" stroke="rgb(89,92,182)" stroke-width="1" opacity="0.75" />
		</g>
		<g>
			<title>PF16073</title>
			<rect class="PF16073" x="375" y="18" stroke-linejoin="round" width="23" height="26" fill="rgb(77,115,183)" stroke="rgb(61,91,146)" stroke-width="1" opacity="0.75" />
		</g>
	</g>
	<g>
		<polygon class="NoName" points="427,16 427,16 427,1 450,31 427,61 427,46 427,46" fill="rgb(255,255,255)" fill-opacity="1.0" stroke="rgb(50,50,50)" stroke-width="1" />
		<g>
			<title>PF13577</title>
			<polygon class="PF13577" points="427,18 437,18 439,20 439,42 437,44 427,44" stroke-linejoin="round" width="12" height="26" fill="rgb(68,223,209)" stroke="rgb(54,178,167)" stroke-width="1" opacity="0.75" />
		</g>
	</g>
	<g>
		<polygon class="NoName" points="489,16 484,16 484,1 454,31 484,61 484,46 489,46" fill="rgb(255,255,255)" fill-opacity="1.0" stroke="rgb(50,50,50)" stroke-width="1" />
		<g>
			<title>PF04909</title>
			<polygon class="PF04909" points="456,31 469,18 484,18 484,44 469,44" stroke-linejoin="round" width="28" height="26" fill="rgb(95,225,123)" stroke="rgb(76,180,98)" stroke-width="1" opacity="0.75" />
		</g>
	</g>
	<g>
		<polygon class="NoName" points="502,16 511,16 511,1 541,31 511,61 511,46 502,46" fill="rgb(255,255,255)" fill-opacity="1.0" stroke="rgb(50,50,50)" stroke-width="1" />
		<g>
			<title>PF00264</title>
			<polygon class="PF00264" points="511,18 525,18 534,27 534,35 525,44 511,44" stroke-linejoin="round" width="23" height="26" fill="rgb(87,199,223)" stroke="rgb(69,159,178)" stroke-width="1" opacity="0.75" />
		</g>
	</g>
	<g>
		<polygon class="NoName" points="608,16 588,16 588,1 558,31 588,61 588,46 608,46" fill="rgb(255,255,255)" fill-opacity="1.0" stroke="rgb(50,50,50)" stroke-width="1" />
		<g>
			<title>PF12013</title>
			<rect class="PF12013" x="597" y="18" stroke-linejoin="round" width="10" height="26" fill="rgb(194,81,97)" stroke="rgb(155,64,77)" stroke-width="1" opacity="0.75" />
		</g>
	</g>
	<g>
		<polygon class="NoName" points="627,16 633,16 633,1 663,31 633,61 633,46 627,46" fill="rgb(255,255,255)" fill-opacity="1.0" stroke="rgb(50,50,50)" stroke-width="1" />
		<g>
			<title>PF08240</title>
			<rect class="PF08240" x="629" y="18" stroke-linejoin="round" width="6" height="26" fill="rgb(211,65,138)" stroke="rgb(168,51,110)" stroke-width="1" opacity="0.75" />
		</g>
		<g>
			<title>PF00107</title>
			<polygon class="PF00107" points="645,18 647,18 655,26 655,36 647,44 645,44" stroke-linejoin="round" width="10" height="26" fill="rgb(81,108,215)" stroke="rgb(64,86,172)" stroke-width="1" opacity="0.75" />
		</g>
	</g>
	<g>
		<polygon class="NoName" points="780,16 701,16 701,1 671,31 701,61 701,46 780,46" fill="rgb(255,255,255)" fill-opacity="1.0" stroke="rgb(50,50,50)" stroke-width="1" />
		<g>
			<title>PF14310</title>
			<rect class="PF14310" x="700" y="18" stroke-linejoin="round" width="6" height="26" fill="rgb(206,58,194)" stroke="rgb(164,46,155)" stroke-width="1" opacity="0.75" />
		</g>
		<g>
			<title>PF01915</title>
			<rect class="PF01915" x="712" y="18" stroke-linejoin="round" width="26" height="26" fill="rgb(181,96,75)" stroke="rgb(144,76,59)" stroke-width="1" opacity="0.75" />
		</g>
		<g>
			<title>PF00933</title>
			<rect class="PF00933" x="746" y="18" stroke-linejoin="round" width="9" height="26" fill="rgb(179,79,172)" stroke="rgb(143,63,137)" stroke-width="1" opacity="0.75" />
		</g>
		<g>
			<title>PF00933</title>
			<rect class="PF00933" x="760" y="18" stroke-linejoin="round" width="12" height="26" fill="rgb(179,79,172)" stroke="rgb(143,63,137)" stroke-width="1" opacity="0.75" />
		</g>
	</g>
</svg>
