<svg version="1.1" baseProfile="full" xmlns="http://www.w3.org/2000/svg" width="559" height="62">
	<line x1="1" y1="31" x2="558" y2="31" style="stroke:rgb(50,50,50); stroke-width:3 "/>
	<g>
		<polygon class="NoName" points="391,16 391,16 391,1 416,31 391,61 391,46 391,46" fill="rgb(255,255,255)" fill-opacity="1.0" stroke="rgb(50,50,50)" stroke-width="1" />
		<g>
			<title>PF03328</title>
			<polygon class="PF03328" points="392,18 402,18 413,31 402,44 392,44" stroke-linejoin="round" width="22" height="26" fill="rgb(81,183,94)" stroke="rgb(64,146,75)" stroke-width="1" opacity="0.75" />
		</g>
	</g>
	<g>
		<polygon class="NoName" points="416,16 426,16 426,1 456,31 426,61 426,46 416,46" fill="rgb(255,255,255)" fill-opacity="1.0" stroke="rgb(50,50,50)" stroke-width="1" />
		<g>
			<title>PF02784</title>
			<polygon class="PF02784" points="418,18 440,18 442,20 442,42 440,44 418,44" stroke-linejoin="round" width="24" height="26" fill="rgb(106,204,212)" stroke="rgb(84,163,169)" stroke-width="1" opacity="0.75" />
		</g>
		<g>
			<title>PF00278</title>
			<polygon class="PF00278" points="443,21 453,31 443,41" stroke-linejoin="round" width="11" height="26" fill="rgb(195,86,191)" stroke="rgb(156,68,152)" stroke-width="1" opacity="0.75" />
		</g>
	</g>
	<g>
		<polygon class="NoName" points="457,16 457,16 457,1 482,31 457,61 457,46 457,46" fill="rgb(255,255,255)" fill-opacity="1.0" stroke="rgb(50,50,50)" stroke-width="1" />
		<g>
			<title>PF02195</title>
			<rect class="PF02195" x="457" y="18" stroke-linejoin="round" width="7" height="26" fill="rgb(55,214,209)" stroke="rgb(44,171,167)" stroke-width="1" opacity="0.75" />
		</g>
	</g>
	<g>
		<polygon class="NoName" points="486,16 486,16 486,1 480,31 486,61 486,46 486,46" fill="rgb(255,255,255)" fill-opacity="1.0" stroke="rgb(50,50,50)" stroke-width="1" />
	</g>
	<g>
		<polygon class="NoName" points="489,16 489,16 489,1 502,31 489,61 489,46 489,46" fill="rgb(255,255,255)" fill-opacity="1.0" stroke="rgb(50,50,50)" stroke-width="1" />
	</g>
	<g>
		<polygon class="NoName" points="504,16 504,16 504,1 524,31 504,61 504,46 504,46" fill="rgb(255,255,255)" fill-opacity="1.0" stroke="rgb(50,50,50)" stroke-width="1" />
	</g>
	<g>
		<polygon class="NoName" points="532,16 532,16 532,1 557,31 532,61 532,46 532,46" fill="rgb(255,255,255)" fill-opacity="1.0" stroke="rgb(50,50,50)" stroke-width="1" />
		<g>
			<title>PF13561</title>
			<polygon class="PF13561" points="533,18 543,18 554,31 543,44 533,44" stroke-linejoin="round" width="24" height="26" fill="rgb(73,205,127)" stroke="rgb(58,164,101)" stroke-width="1" opacity="0.75" />
		</g>
	</g>
	<g>
		<polygon class="NoName" points="31,16 31,16 31,1 1,31 31,61 31,46 31,46" fill="rgb(255,255,255)" fill-opacity="1.0" stroke="rgb(50,50,50)" stroke-width="1" />
		<g>
			<title>PF01032</title>
			<polygon class="PF01032" points="3,31 16,18 30,18 30,44 16,44" stroke-linejoin="round" width="29" height="26" fill="rgb(210,177,70)" stroke="rgb(168,141,56)" stroke-width="1" opacity="0.75" />
		</g>
	</g>
	<g>
		<polygon class="NoName" points="67,16 64,16 64,1 34,31 64,61 64,46 67,46" fill="rgb(255,255,255)" fill-opacity="1.0" stroke="rgb(50,50,50)" stroke-width="1" />
		<g>
			<title>PF01032</title>
			<polygon class="PF01032" points="36,31 49,18 65,18 65,44 49,44" stroke-linejoin="round" width="31" height="26" fill="rgb(210,177,70)" stroke="rgb(168,141,56)" stroke-width="1" opacity="0.75" />
		</g>
	</g>
	<g>
		<polygon class="NoName" points="100,16 97,16 97,1 67,31 97,61 97,46 100,46" fill="rgb(255,255,255)" fill-opacity="1.0" stroke="rgb(50,50,50)" stroke-width="1" />
		<g>
			<title>PF01497</title>
			<polygon class="PF01497" points="70,30 82,18 94,18 94,44 82,44 70,31" stroke-linejoin="round" width="24" height="26" fill="rgb(183,226,104)" stroke="rgb(146,180,83)" stroke-width="1" opacity="0.75" />
		</g>
	</g>
	<g>
		<polygon class="NoName" points="113,16 113,16 113,1 141,31 113,61 113,46 113,46" fill="rgb(255,255,255)" fill-opacity="1.0" stroke="rgb(50,50,50)" stroke-width="1" />
		<g>
			<title>PF00291</title>
			<polygon class="PF00291" points="113,18 126,18 138,31 138,31 126,44 113,44" stroke-linejoin="round" width="25" height="26" fill="rgb(180,55,145)" stroke="rgb(144,44,116)" stroke-width="1" opacity="0.75" />
		</g>
	</g>
	<g>
		<polygon class="NoName" points="141,16 144,16 144,1 174,31 144,61 144,46 141,46" fill="rgb(255,255,255)" fill-opacity="1.0" stroke="rgb(50,50,50)" stroke-width="1" />
		<g>
			<title>PF02423</title>
			<polygon class="PF02423" points="141,18 158,18 171,31 158,44 141,44" stroke-linejoin="round" width="32" height="26" fill="rgb(221,120,93)" stroke="rgb(176,96,74)" stroke-width="1" opacity="0.75" />
		</g>
	</g>
	<g>
		<polygon class="NoName" points="175,16 203,16 203,1 233,31 203,61 203,46 175,46" fill="rgb(255,255,255)" fill-opacity="1.0" stroke="rgb(50,50,50)" stroke-width="1" />
		<g>
			<title>PF04183</title>
			<rect class="PF04183" x="188" y="18" stroke-linejoin="round" width="24" height="26" fill="rgb(221,104,121)" stroke="rgb(176,83,96)" stroke-width="1" opacity="0.75" />
		</g>
		<g>
			<title>PF06276</title>
			<polygon class="PF06276" points="214,18 217,18 230,31 230,31 217,44 214,44" stroke-linejoin="round" width="16" height="26" fill="rgb(76,151,221)" stroke="rgb(60,120,176)" stroke-width="1" opacity="0.75" />
		</g>
	</g>
	<g>
		<polygon class="NoName" points="233,16 244,16 244,1 274,31 244,61 244,46 233,46" fill="rgb(255,255,255)" fill-opacity="1.0" stroke="rgb(50,50,50)" stroke-width="1" />
		<g>
			<title>PF07690</title>
			<rect class="PF07690" x="234" y="18" stroke-linejoin="round" width="23" height="26" fill="rgb(193,224,74)" stroke="rgb(154,179,59)" stroke-width="1" opacity="0.75" />
		</g>
	</g>
	<g>
		<polygon class="NoName" points="275,16 302,16 302,1 332,31 302,61 302,46 275,46" fill="rgb(255,255,255)" fill-opacity="1.0" stroke="rgb(50,50,50)" stroke-width="1" />
		<g>
			<title>PF04183</title>
			<rect class="PF04183" x="288" y="18" stroke-linejoin="round" width="23" height="26" fill="rgb(221,104,121)" stroke="rgb(176,83,96)" stroke-width="1" opacity="0.75" />
		</g>
		<g>
			<title>PF06276</title>
			<polygon class="PF06276" points="314,18 316,18 329,31 316,44 314,44" stroke-linejoin="round" width="16" height="26" fill="rgb(76,151,221)" stroke="rgb(60,120,176)" stroke-width="1" opacity="0.75" />
		</g>
	</g>
	<g>
		<polygon class="NoName" points="330,16 361,16 361,1 391,31 361,61 361,46 330,46" fill="rgb(255,255,255)" fill-opacity="1.0" stroke="rgb(50,50,50)" stroke-width="1" />
		<g>
			<title>PF04183</title>
			<rect class="PF04183" x="345" y="18" stroke-linejoin="round" width="24" height="26" fill="rgb(221,104,121)" stroke="rgb(176,83,96)" stroke-width="1" opacity="0.75" />
		</g>
		<g>
			<title>PF06276</title>
			<polygon class="PF06276" points="372,18 375,18 388,31 375,44 372,44" stroke-linejoin="round" width="17" height="26" fill="rgb(76,151,221)" stroke="rgb(60,120,176)" stroke-width="1" opacity="0.75" />
		</g>
	</g>
</svg>
