<svg version="1.1" baseProfile="full" xmlns="http://www.w3.org/2000/svg" width="590" height="62">
	<line x1="1" y1="31" x2="589" y2="31" style="stroke:rgb(50,50,50); stroke-width:3 "/>
	<g>
		<title>nbmJ</title>
		<polygon class="nbmJ" points="410,16 392,16 392,1 362,31 392,61 392,46 410,46" fill="rgb(209,252,220)" fill-opacity="1.0" stroke="rgb(83,100,88)" stroke-width="1" />
		<g>
			<title>PF04055</title>
			<rect class="PF04055" x="380" y="18" stroke-linejoin="round" width="16" height="26" fill="rgb(149,56,222)" stroke="rgb(119,44,177)" stroke-width="1" opacity="0.75" />
		</g>
	</g>
	<g>
		<title>nbmK</title>
		<polygon class="nbmK" points="451,16 440,16 440,1 410,31 440,61 440,46 451,46" fill="rgb(208,254,243)" fill-opacity="1.0" stroke="rgb(83,101,97)" stroke-width="1" />
		<g>
			<title>PF01041</title>
			<polygon class="PF01041" points="413,30 425,18 448,18 448,44 425,44 413,31" stroke-linejoin="round" width="35" height="26" fill="rgb(59,139,191)" stroke="rgb(47,111,152)" stroke-width="1" opacity="0.75" />
		</g>
	</g>
	<g>
		<title>nbmL</title>
		<polygon class="nbmL" points="464,16 464,16 464,1 474,31 464,61 464,46 464,46" fill="rgb(252,232,209)" fill-opacity="1.0" stroke="rgb(100,92,83)" stroke-width="1" />
	</g>
	<g>
		<title>nbmM</title>
		<polygon class="nbmM" points="491,16 555,16 555,1 585,31 555,61 555,46 491,46" fill="rgb(201,252,230)" fill-opacity="1.0" stroke="rgb(80,100,92)" stroke-width="1" />
		<g>
			<title>PF13191</title>
			<rect class="PF13191" x="492" y="18" stroke-linejoin="round" width="16" height="26" fill="rgb(186,102,77)" stroke="rgb(148,81,61)" stroke-width="1" opacity="0.75" />
		</g>
		<g>
			<title>PF00196</title>
			<polygon class="PF00196" points="579,28 582,31 579,34" stroke-linejoin="round" width="5" height="26" fill="rgb(219,94,82)" stroke="rgb(175,75,65)" stroke-width="1" opacity="0.75" />
		</g>
	</g>
	<g>
		<title>nbmA</title>
		<polygon class="nbmA" points="1,16 1,16 1,1 18,31 1,61 1,46 1,46" fill="rgb(254,224,209)" fill-opacity="1.0" stroke="rgb(101,89,83)" stroke-width="1" />
		<g>
			<title>PF00975</title>
			<polygon class="PF00975" points="1,18 8,18 9,20 9,42 8,44 1,44" stroke-linejoin="round" width="8" height="26" fill="rgb(207,80,138)" stroke="rgb(165,63,110)" stroke-width="1" opacity="0.75" />
		</g>
	</g>
	<g>
		<title>nbmB</title>
		<polygon class="nbmB" points="18,16 18,16 18,1 46,31 18,61 18,46 18,46" fill="rgb(253,207,238)" fill-opacity="1.0" stroke="rgb(101,82,95)" stroke-width="1" />
		<g>
			<title>PF00975</title>
			<polygon class="PF00975" points="20,18 31,18 42,30 42,32 31,44 20,44" stroke-linejoin="round" width="22" height="26" fill="rgb(207,80,138)" stroke="rgb(165,63,110)" stroke-width="1" opacity="0.75" />
		</g>
	</g>
	<g>
		<title>nbmC</title>
		<polygon class="nbmC" points="46,16 60,16 60,1 90,31 60,61 60,46 46,46" fill="rgb(252,178,210)" fill-opacity="1.0" stroke="rgb(100,71,83)" stroke-width="1" />
		<g>
			<title>PF00067</title>
			<polygon class="PF00067" points="77,21 85,29 85,33 77,41" stroke-linejoin="round" width="8" height="26" fill="rgb(85,216,107)" stroke="rgb(68,172,85)" stroke-width="1" opacity="0.75" />
		</g>
	</g>
	<g>
		<title>nbmD</title>
		<polygon class="nbmD" points="93,16 105,16 105,1 135,31 105,61 105,46 93,46" fill="rgb(214,209,251)" fill-opacity="1.0" stroke="rgb(85,83,100)" stroke-width="1" />
		<g>
			<title>PF06722</title>
			<polygon class="PF06722" points="113,18 119,18 122,21 122,41 119,44 113,44" stroke-linejoin="round" width="9" height="26" fill="rgb(200,129,88)" stroke="rgb(160,103,70)" stroke-width="1" opacity="0.75" />
		</g>
	</g>
	<g>
		<title>nbmE</title>
		<polygon class="nbmE" points="139,16 139,16 139,1 162,31 139,61 139,46 139,46" fill="rgb(179,252,193)" fill-opacity="1.0" stroke="rgb(71,100,77)" stroke-width="1" />
		<g>
			<title>PF13649</title>
			<polygon class="PF13649" points="143,18 149,18 152,22 152,40 149,44 143,44" stroke-linejoin="round" width="9" height="26" fill="rgb(227,135,74)" stroke="rgb(181,108,59)" stroke-width="1" opacity="0.75" />
		</g>
	</g>
	<g>
		<title>nbmF</title>
		<polygon class="nbmF" points="164,16 217,16 217,1 247,31 217,61 217,46 164,46" fill="rgb(254,242,184)" fill-opacity="1.0" stroke="rgb(101,96,73)" stroke-width="1" />
		<g>
			<title>PF00933</title>
			<rect class="PF00933" x="170" y="18" stroke-linejoin="round" width="28" height="26" fill="rgb(179,79,172)" stroke="rgb(143,63,137)" stroke-width="1" opacity="0.75" />
		</g>
		<g>
			<title>PF01915</title>
			<polygon class="PF01915" points="202,18 231,18 235,22 235,40 231,44 202,44" stroke-linejoin="round" width="33" height="26" fill="rgb(181,96,75)" stroke="rgb(144,76,59)" stroke-width="1" opacity="0.75" />
		</g>
		<g>
			<title>PF14310</title>
			<polygon class="PF14310" points="239,26 244,31 239,36" stroke-linejoin="round" width="7" height="26" fill="rgb(206,58,194)" stroke="rgb(164,46,155)" stroke-width="1" opacity="0.75" />
		</g>
	</g>
	<g>
		<title>nbmG</title>
		<polygon class="nbmG" points="289,16 281,16 281,1 251,31 281,61 281,46 289,46" fill="rgb(191,220,254)" fill-opacity="1.0" stroke="rgb(76,88,101)" stroke-width="1" />
		<g>
			<title>PF01041</title>
			<polygon class="PF01041" points="253,31 266,18 286,18 286,44 266,44" stroke-linejoin="round" width="34" height="26" fill="rgb(59,139,191)" stroke="rgb(47,111,152)" stroke-width="1" opacity="0.75" />
		</g>
	</g>
	<g>
		<title>nbmH</title>
		<polygon class="nbmH" points="323,16 319,16 319,1 289,31 319,61 319,46 323,46" fill="rgb(230,187,254)" fill-opacity="1.0" stroke="rgb(92,74,101)" stroke-width="1" />
		<g>
			<title>PF16363</title>
			<polygon class="PF16363" points="292,30 304,18 322,18 322,44 304,44 292,31" stroke-linejoin="round" width="30" height="26" fill="rgb(162,221,65)" stroke="rgb(129,176,51)" stroke-width="1" opacity="0.75" />
		</g>
	</g>
	<g>
		<title>nbmI</title>
		<polygon class="nbmI" points="355,16 355,16 355,1 326,31 355,61 355,46 355,46" fill="rgb(236,211,251)" fill-opacity="1.0" stroke="rgb(94,84,100)" stroke-width="1" />
		<g>
			<title>PF00483</title>
			<polygon class="PF00483" points="331,28 341,18 354,18 354,44 341,44 331,33" stroke-linejoin="round" width="23" height="26" fill="rgb(198,101,87)" stroke="rgb(158,80,69)" stroke-width="1" opacity="0.75" />
		</g>
	</g>
</svg>
