<svg version="1.1" baseProfile="full" xmlns="http://www.w3.org/2000/svg" width="425" height="62">
	<line x1="1" y1="31" x2="424" y2="31" style="stroke:rgb(50,50,50); stroke-width:3 "/>
	<g>
		<title>patA</title>
		<polygon class="patA" points="8,16 48,16 48,1 78,31 48,61 48,46 8,46" fill="rgb(253,245,207)" fill-opacity="1.0" stroke="rgb(101,98,82)" stroke-width="1" />
		<g>
			<title>PF00082</title>
			<rect class="PF00082" x="9" y="18" stroke-linejoin="round" width="25" height="26" fill="rgb(193,159,94)" stroke="rgb(154,127,75)" stroke-width="1" opacity="0.75" />
		</g>
	</g>
	<g>
		<title>patB</title>
		<polygon class="patB" points="86,16 86,16 86,1 93,31 86,61 86,46 86,46" fill="rgb(225,207,252)" fill-opacity="1.0" stroke="rgb(90,82,100)" stroke-width="1" />
	</g>
	<g>
		<title>patC</title>
		<polygon class="patC" points="100,16 100,16 100,1 106,31 100,61 100,46 100,46" fill="rgb(251,220,194)" fill-opacity="1.0" stroke="rgb(100,88,77)" stroke-width="1" />
	</g>
	<g>
		<title>patD</title>
		<polygon class="patD" points="109,16 157,16 157,1 187,31 157,61 157,46 109,46" fill="rgb(253,199,219)" fill-opacity="1.0" stroke="rgb(101,79,87)" stroke-width="1" />
		<g>
			<title>PF02624</title>
			<polygon class="PF02624" points="150,18 171,18 183,30 183,32 171,44 150,44" stroke-linejoin="round" width="33" height="26" fill="rgb(76,84,185)" stroke="rgb(60,67,148)" stroke-width="1" opacity="0.75" />
		</g>
	</g>
	<g>
		<title>patE</title>
		<polygon class="patE" points="192,16 192,16 192,1 199,31 192,61 192,46 192,46" fill="rgb(219,251,190)" fill-opacity="1.0" stroke="rgb(87,100,76)" stroke-width="1" />
	</g>
	<g>
		<title>patF</title>
		<polygon class="patF" points="208,16 210,16 210,1 240,31 210,61 210,46 208,46" fill="rgb(200,251,240)" fill-opacity="1.0" stroke="rgb(80,100,96)" stroke-width="1" />
	</g>
	<g>
		<title>patG</title>
		<polygon class="patG" points="241,16 330,16 330,1 360,31 330,61 330,46 241,46" fill="rgb(181,251,212)" fill-opacity="1.0" stroke="rgb(72,100,84)" stroke-width="1" />
		<g>
			<title>PF00881</title>
			<rect class="PF00881" x="268" y="18" stroke-linejoin="round" width="20" height="26" fill="rgb(79,118,187)" stroke="rgb(63,94,149)" stroke-width="1" opacity="0.75" />
		</g>
		<g>
			<title>PF00082</title>
			<rect class="PF00082" x="292" y="18" stroke-linejoin="round" width="35" height="26" fill="rgb(193,159,94)" stroke="rgb(154,127,75)" stroke-width="1" opacity="0.75" />
		</g>
	</g>
	<g>
		<polygon class="NoName" points="415,16 398,16 398,1 368,31 398,61 398,46 415,46" fill="rgb(255,255,255)" fill-opacity="1.0" stroke="rgb(50,50,50)" stroke-width="1" />
		<g>
			<title>PF03441</title>
			<polygon class="PF03441" points="370,31 383,18 387,18 387,44 383,44" stroke-linejoin="round" width="19" height="26" fill="rgb(206,143,93)" stroke="rgb(164,114,74)" stroke-width="1" opacity="0.75" />
		</g>
		<g>
			<title>PF00875</title>
			<rect class="PF00875" x="398" y="18" stroke-linejoin="round" width="16" height="26" fill="rgb(87,58,223)" stroke="rgb(69,46,178)" stroke-width="1" opacity="0.75" />
		</g>
	</g>
</svg>
