<svg version="1.1" baseProfile="full" xmlns="http://www.w3.org/2000/svg" width="235" height="62">
	<line x1="1" y1="31" x2="234" y2="31" style="stroke:rgb(50,50,50); stroke-width:3 "/>
	<g>
		<polygon class="NoName" points="6,16 14,16 14,1 44,31 14,61 14,46 6,46" fill="rgb(255,255,255)" fill-opacity="1.0" stroke="rgb(50,50,50)" stroke-width="1" />
		<g>
			<title>PF01808</title>
			<polygon class="PF01808" points="6,18 28,18 37,27 37,35 28,44 6,44" stroke-linejoin="round" width="31" height="26" fill="rgb(212,188,65)" stroke="rgb(169,150,52)" stroke-width="1" opacity="0.75" />
		</g>
	</g>
	<g>
		<polygon class="NoName" points="72,16 72,16 72,1 47,31 72,61 72,46 72,46" fill="rgb(255,255,255)" fill-opacity="1.0" stroke="rgb(50,50,50)" stroke-width="1" />
		<g>
			<title>PF04397</title>
			<polygon class="PF04397" points="49,31 56,23 56,38" stroke-linejoin="round" width="9" height="26" fill="rgb(207,76,174)" stroke="rgb(165,60,139)" stroke-width="1" opacity="0.75" />
		</g>
	</g>
	<g>
		<title>ublA</title>
		<polygon class="ublA" points="82,16 82,16 82,1 89,31 82,61 82,46 82,46" fill="rgb(254,209,240)" fill-opacity="1.0" stroke="rgb(101,83,96)" stroke-width="1" />
		<g>
			<title>PF09221</title>
			<polygon class="PF09221" points="82,18 83,18 86,31 83,44 82,44" stroke-linejoin="round" width="6" height="26" fill="rgb(200,220,70)" stroke="rgb(160,176,56)" stroke-width="1" opacity="0.75" />
		</g>
	</g>
	<g>
		<title>ublB</title>
		<polygon class="ublB" points="92,16 115,16 115,1 145,31 115,61 115,46 92,46" fill="rgb(219,251,203)" fill-opacity="1.0" stroke="rgb(87,100,81)" stroke-width="1" />
	</g>
	<g>
		<title>ublC</title>
		<polygon class="ublC" points="145,16 145,16 145,1 163,31 145,61 145,46 145,46" fill="rgb(238,183,251)" fill-opacity="1.0" stroke="rgb(95,73,100)" stroke-width="1" />
		<g>
			<title>PF01944</title>
			<polygon class="PF01944" points="146,18 152,18 160,31 152,44 146,44" stroke-linejoin="round" width="15" height="26" fill="rgb(96,132,207)" stroke="rgb(76,105,165)" stroke-width="1" opacity="0.75" />
		</g>
	</g>
	<g>
		<title>ublD</title>
		<polygon class="ublD" points="163,16 163,16 163,1 184,31 163,61 163,46 163,46" fill="rgb(222,209,252)" fill-opacity="1.0" stroke="rgb(88,83,100)" stroke-width="1" />
		<g>
			<title>PF00005</title>
			<polygon class="PF00005" points="165,18 172,18 179,28 179,34 172,44 165,44" stroke-linejoin="round" width="14" height="26" fill="rgb(129,201,63)" stroke="rgb(103,160,50)" stroke-width="1" opacity="0.75" />
		</g>
	</g>
	<g>
		<title>ublE</title>
		<polygon class="ublE" points="185,16 185,16 185,1 193,31 185,61 185,46 185,46" fill="rgb(213,197,251)" fill-opacity="1.0" stroke="rgb(85,78,100)" stroke-width="1" />
	</g>
</svg>
