<svg version="1.1" baseProfile="full" xmlns="http://www.w3.org/2000/svg" width="501" height="62">
	<line x1="1" y1="31" x2="500" y2="31" style="stroke:rgb(50,50,50); stroke-width:3 "/>
	<g>
		<title>bovK</title>
		<polygon class="bovK" points="356,16 376,16 376,1 406,31 376,61 376,46 356,46" fill="rgb(227,183,252)" fill-opacity="1.0" stroke="rgb(90,73,100)" stroke-width="1" />
	</g>
	<g>
		<title>bovR</title>
		<polygon class="bovR" points="406,16 406,16 406,1 425,31 406,61 406,46 406,46" fill="rgb(198,250,230)" fill-opacity="1.0" stroke="rgb(79,100,92)" stroke-width="1" />
		<g>
			<title>PF00072</title>
			<polygon class="PF00072" points="406,18 414,18 417,23 417,39 414,44 406,44" stroke-linejoin="round" width="11" height="26" fill="rgb(100,107,203)" stroke="rgb(80,85,162)" stroke-width="1" opacity="0.75" />
		</g>
		<g>
			<title>PF00196</title>
			<polygon class="PF00196" points="419,26 422,31 419,36" stroke-linejoin="round" width="5" height="26" fill="rgb(219,94,82)" stroke="rgb(175,75,65)" stroke-width="1" opacity="0.75" />
		</g>
	</g>
	<g>
		<title>bovI</title>
		<polygon class="bovI" points="428,16 428,16 428,1 433,31 428,61 428,46 428,46" fill="rgb(250,219,204)" fill-opacity="1.0" stroke="rgb(100,87,81)" stroke-width="1" />
	</g>
	<g>
		<title>sdb1</title>
		<polygon class="sdb1" points="434,16 434,16 434,1 450,31 434,61 434,46 434,46" fill="rgb(250,192,247)" fill-opacity="1.0" stroke="rgb(100,76,98)" stroke-width="1" />
		<g>
			<title>PF00085</title>
			<polygon class="PF00085" points="439,18 440,18 447,31 440,44 439,44" stroke-linejoin="round" width="10" height="26" fill="rgb(220,109,180)" stroke="rgb(176,87,144)" stroke-width="1" opacity="0.75" />
		</g>
	</g>
	<g>
		<polygon class="NoName" points="457,16 457,16 457,1 478,31 457,61 457,46 457,46" fill="rgb(255,255,255)" fill-opacity="1.0" stroke="rgb(50,50,50)" stroke-width="1" />
	</g>
	<g>
		<polygon class="NoName" points="480,16 480,16 480,1 500,31 480,61 480,46 480,46" fill="rgb(255,255,255)" fill-opacity="1.0" stroke="rgb(50,50,50)" stroke-width="1" />
		<g>
			<title>PF13154</title>
			<polygon class="PF13154" points="491,22 497,31 491,40" stroke-linejoin="round" width="8" height="26" fill="rgb(155,95,210)" stroke="rgb(123,76,168)" stroke-width="1" opacity="0.75" />
		</g>
	</g>
	<g>
		<polygon class="NoName" points="1,16 61,16 61,1 91,31 61,61 61,46 1,46" fill="rgb(255,255,255)" fill-opacity="1.0" stroke="rgb(50,50,50)" stroke-width="1" />
		<g>
			<title>PF00176</title>
			<rect class="PF00176" x="10" y="18" stroke-linejoin="round" width="37" height="26" fill="rgb(180,113,64)" stroke="rgb(144,90,51)" stroke-width="1" opacity="0.75" />
		</g>
		<g>
			<title>PF00271</title>
			<rect class="PF00271" x="48" y="18" stroke-linejoin="round" width="12" height="26" fill="rgb(104,224,158)" stroke="rgb(83,179,126)" stroke-width="1" opacity="0.75" />
		</g>
	</g>
	<g>
		<polygon class="NoName" points="94,16 94,16 94,1 104,31 94,61 94,46 94,46" fill="rgb(255,255,255)" fill-opacity="1.0" stroke="rgb(50,50,50)" stroke-width="1" />
	</g>
	<g>
		<polygon class="NoName" points="104,16 104,16 104,1 113,31 104,61 104,46 104,46" fill="rgb(255,255,255)" fill-opacity="1.0" stroke="rgb(50,50,50)" stroke-width="1" />
	</g>
	<g>
		<title>bovA</title>
		<polygon class="bovA" points="119,16 119,16 119,1 124,31 119,61 119,46 119,46" fill="rgb(201,222,252)" fill-opacity="1.0" stroke="rgb(80,88,100)" stroke-width="1" />
		<g>
			<title>PF04604</title>
			<polygon class="PF04604" points="119,18 119,18 121,31 119,44 119,44" stroke-linejoin="round" width="5" height="26" fill="rgb(206,129,75)" stroke="rgb(164,103,60)" stroke-width="1" opacity="0.75" />
		</g>
	</g>
	<g>
		<title>bovM</title>
		<polygon class="bovM" points="127,16 180,16 180,1 210,31 180,61 180,46 127,46" fill="rgb(201,252,246)" fill-opacity="1.0" stroke="rgb(80,100,98)" stroke-width="1" />
		<g>
			<title>PF13575</title>
			<rect class="PF13575" x="137" y="18" stroke-linejoin="round" width="36" height="26" fill="rgb(228,84,217)" stroke="rgb(182,67,173)" stroke-width="1" opacity="0.75" />
		</g>
		<g>
			<title>PF05147</title>
			<polygon class="PF05147" points="180,18 194,18 207,31 194,44 180,44" stroke-linejoin="round" width="30" height="26" fill="rgb(129,182,79)" stroke="rgb(103,145,63)" stroke-width="1" opacity="0.75" />
		</g>
	</g>
	<g>
		<title>bovT</title>
		<polygon class="bovT" points="211,16 249,16 249,1 279,31 249,61 249,46 211,46" fill="rgb(182,186,252)" fill-opacity="1.0" stroke="rgb(72,74,100)" stroke-width="1" />
		<g>
			<title>PF03412</title>
			<rect class="PF03412" x="211" y="18" stroke-linejoin="round" width="12" height="26" fill="rgb(214,226,77)" stroke="rgb(171,180,61)" stroke-width="1" opacity="0.75" />
		</g>
		<g>
			<title>PF00664</title>
			<rect class="PF00664" x="227" y="18" stroke-linejoin="round" width="26" height="26" fill="rgb(149,226,73)" stroke="rgb(119,180,58)" stroke-width="1" opacity="0.75" />
		</g>
		<g>
			<title>PF00005</title>
			<polygon class="PF00005" points="259,18 263,18 273,28 273,34 263,44 259,44" stroke-linejoin="round" width="14" height="26" fill="rgb(129,201,63)" stroke="rgb(103,160,50)" stroke-width="1" opacity="0.75" />
		</g>
	</g>
	<g>
		<title>bovF</title>
		<polygon class="bovF" points="279,16 279,16 279,1 309,31 279,61 279,46 279,46" fill="rgb(197,253,183)" fill-opacity="1.0" stroke="rgb(78,101,73)" stroke-width="1" />
		<g>
			<title>PF00005</title>
			<rect class="PF00005" x="280" y="18" stroke-linejoin="round" width="13" height="26" fill="rgb(129,201,63)" stroke="rgb(103,160,50)" stroke-width="1" opacity="0.75" />
		</g>
	</g>
	<g>
		<title>bovE</title>
		<polygon class="bovE" points="308,16 308,16 308,1 332,31 308,61 308,46 308,46" fill="rgb(251,251,206)" fill-opacity="1.0" stroke="rgb(100,100,82)" stroke-width="1" />
		<g>
			<title>PF12730</title>
			<polygon class="PF12730" points="308,18 319,18 326,27 326,35 319,44 308,44" stroke-linejoin="round" width="18" height="26" fill="rgb(203,161,59)" stroke="rgb(162,128,47)" stroke-width="1" opacity="0.75" />
		</g>
	</g>
	<g>
		<title>bovG</title>
		<polygon class="bovG" points="333,16 333,16 333,1 356,31 333,61 333,46 333,46" fill="rgb(208,254,213)" fill-opacity="1.0" stroke="rgb(83,101,85)" stroke-width="1" />
	</g>
</svg>
