<svg version="1.1" baseProfile="full" xmlns="http://www.w3.org/2000/svg" width="1668" height="62">
	<line x1="1" y1="31" x2="1667" y2="31" style="stroke:rgb(50,50,50); stroke-width:3 "/>
	<g>
		<title>tnmG</title>
		<polygon class="tnmG" points="477,16 520,16 520,1 550,31 520,61 520,46 477,46" fill="rgb(181,249,199)" fill-opacity="1.0" stroke="rgb(72,99,79)" stroke-width="1" />
		<g>
			<title>PF08327</title>
			<rect class="PF08327" x="482" y="18" stroke-linejoin="round" width="12" height="26" fill="rgb(81,199,171)" stroke="rgb(64,159,136)" stroke-width="1" opacity="0.75" />
		</g>
		<g>
			<title>PF13847</title>
			<polygon class="PF13847" points="531,18 534,18 545,29 545,33 534,44 531,44" stroke-linejoin="round" width="14" height="26" fill="rgb(214,74,181)" stroke="rgb(171,59,144)" stroke-width="1" opacity="0.75" />
		</g>
	</g>
	<g>
		<title>tnmH</title>
		<polygon class="tnmH" points="552,16 556,16 556,1 586,31 556,61 556,46 552,46" fill="rgb(252,194,209)" fill-opacity="1.0" stroke="rgb(100,77,83)" stroke-width="1" />
		<g>
			<title>PF00891</title>
			<polygon class="PF00891" points="560,18 570,18 583,31 570,44 560,44" stroke-linejoin="round" width="24" height="26" fill="rgb(50,51,190)" stroke="rgb(39,40,152)" stroke-width="1" opacity="0.75" />
		</g>
	</g>
	<g>
		<title>tnmE10</title>
		<polygon class="tnmE10" points="603,16 603,16 603,1 589,31 603,61 603,46 603,46" fill="rgb(254,181,185)" fill-opacity="1.0" stroke="rgb(101,72,74)" stroke-width="1" />
		<g>
			<title>PF13279</title>
			<polygon class="PF13279" points="591,31 597,18 602,18 602,44 597,44" stroke-linejoin="round" width="12" height="26" fill="rgb(213,114,82)" stroke="rgb(170,91,65)" stroke-width="1" opacity="0.75" />
		</g>
	</g>
	<g>
		<title>tnmE</title>
		<polygon class="tnmE" points="814,16 633,16 633,1 603,31 633,61 633,46 814,46" fill="rgb(251,176,211)" fill-opacity="1.0" stroke="rgb(100,70,84)" stroke-width="1" />
		<g>
			<title>PF14765</title>
			<rect class="PF14765" x="625" y="18" stroke-linejoin="round" width="16" height="26" fill="rgb(173,56,182)" stroke="rgb(138,44,145)" stroke-width="1" opacity="0.75" />
		</g>
		<g>
			<title>PF14765</title>
			<rect class="PF14765" x="650" y="18" stroke-linejoin="round" width="15" height="26" fill="rgb(173,56,182)" stroke="rgb(138,44,145)" stroke-width="1" opacity="0.75" />
		</g>
		<g>
			<title>PF08659</title>
			<rect class="PF08659" x="672" y="18" stroke-linejoin="round" width="18" height="26" fill="rgb(66,209,188)" stroke="rgb(52,167,150)" stroke-width="1" opacity="0.75" />
		</g>
		<g>
			<title>PF00550</title>
			<rect class="PF00550" x="709" y="18" stroke-linejoin="round" width="6" height="26" fill="rgb(103,191,88)" stroke="rgb(82,152,70)" stroke-width="1" opacity="0.75" />
		</g>
		<g>
			<title>PF00698</title>
			<rect class="PF00698" x="728" y="18" stroke-linejoin="round" width="26" height="26" fill="rgb(59,176,209)" stroke="rgb(47,140,167)" stroke-width="1" opacity="0.75" />
		</g>
		<g>
			<title>PF16197</title>
			<rect class="PF16197" x="759" y="18" stroke-linejoin="round" width="12" height="26" fill="rgb(68,179,89)" stroke="rgb(54,143,71)" stroke-width="1" opacity="0.75" />
		</g>
		<g>
			<title>PF02801</title>
			<rect class="PF02801" x="772" y="18" stroke-linejoin="round" width="11" height="26" fill="rgb(215,78,102)" stroke="rgb(172,62,81)" stroke-width="1" opacity="0.75" />
		</g>
		<g>
			<title>PF00109</title>
			<rect class="PF00109" x="784" y="18" stroke-linejoin="round" width="28" height="26" fill="rgb(112,116,228)" stroke="rgb(89,92,182)" stroke-width="1" opacity="0.75" />
		</g>
	</g>
	<g>
		<title>tnmE5</title>
		<polygon class="tnmE5" points="847,16 844,16 844,1 814,31 844,61 844,46 847,46" fill="rgb(214,253,216)" fill-opacity="1.0" stroke="rgb(85,101,86)" stroke-width="1" />
	</g>
	<g>
		<title>tnmE4</title>
		<polygon class="tnmE4" points="913,16 878,16 878,1 848,31 878,61 878,46 913,46" fill="rgb(251,204,224)" fill-opacity="1.0" stroke="rgb(100,81,89)" stroke-width="1" />
		<g>
			<title>PF07593</title>
			<polygon class="PF07593" points="850,31 856,25 856,36" stroke-linejoin="round" width="7" height="26" fill="rgb(157,212,86)" stroke="rgb(125,169,68)" stroke-width="1" opacity="0.75" />
		</g>
		<g>
			<title>PF13517</title>
			<rect class="PF13517" x="877" y="18" stroke-linejoin="round" width="7" height="26" fill="rgb(77,199,76)" stroke="rgb(61,159,60)" stroke-width="1" opacity="0.75" />
		</g>
	</g>
	<g>
		<title>tnmE3</title>
		<polygon class="tnmE3" points="953,16 951,16 951,1 921,31 951,61 951,46 953,46" fill="rgb(206,254,201)" fill-opacity="1.0" stroke="rgb(82,101,80)" stroke-width="1" />
		<g>
			<title>PF08012</title>
			<polygon class="PF08012" points="923,31 936,18 951,18 951,44 936,44" stroke-linejoin="round" width="30" height="26" fill="rgb(177,49,186)" stroke="rgb(141,39,148)" stroke-width="1" opacity="0.75" />
		</g>
	</g>
	<g>
		<title>tnmI</title>
		<polygon class="tnmI" points="990,16 990,16 990,1 962,31 990,61 990,46 990,46" fill="rgb(212,251,183)" fill-opacity="1.0" stroke="rgb(84,100,73)" stroke-width="1" />
		<g>
			<title>PF00106</title>
			<polygon class="PF00106" points="966,29 976,18 985,18 985,44 976,44 966,32" stroke-linejoin="round" width="19" height="26" fill="rgb(182,219,73)" stroke="rgb(145,175,58)" stroke-width="1" opacity="0.75" />
		</g>
	</g>
	<g>
		<title>tnmR1</title>
		<polygon class="tnmR1" points="1017,16 1017,16 1017,1 993,31 1017,61 1017,46 1017,46" fill="rgb(195,232,254)" fill-opacity="1.0" stroke="rgb(77,92,101)" stroke-width="1" />
		<g>
			<title>PF02036</title>
			<polygon class="PF02036" points="996,30 1005,19 1005,42 996,31" stroke-linejoin="round" width="9" height="26" fill="rgb(56,163,207)" stroke="rgb(44,130,165)" stroke-width="1" opacity="0.75" />
		</g>
		<g>
			<title>PF01638</title>
			<rect class="PF01638" x="1006" y="18" stroke-linejoin="round" width="9" height="26" fill="rgb(91,150,227)" stroke="rgb(72,119,181)" stroke-width="1" opacity="0.75" />
		</g>
	</g>
	<g>
		<title>tnmJ</title>
		<polygon class="tnmJ" points="1023,16 1030,16 1030,1 1060,31 1030,61 1030,46 1023,46" fill="rgb(250,190,203)" fill-opacity="1.0" stroke="rgb(100,76,81)" stroke-width="1" />
		<g>
			<title>PF13847</title>
			<polygon class="PF13847" points="1041,18 1044,18 1055,29 1055,33 1044,44 1041,44" stroke-linejoin="round" width="14" height="26" fill="rgb(214,74,181)" stroke="rgb(171,59,144)" stroke-width="1" opacity="0.75" />
		</g>
	</g>
	<g>
		<polygon class="NoName" points="130,16 130,16 130,1 116,31 130,61 130,46 130,46" fill="rgb(255,255,255)" fill-opacity="1.0" stroke="rgb(50,50,50)" stroke-width="1" />
	</g>
	<g>
		<title>tnmK1</title>
		<polygon class="tnmK1" points="1061,16 1079,16 1079,1 1109,31 1079,61 1079,46 1061,46" fill="rgb(191,195,253)" fill-opacity="1.0" stroke="rgb(76,78,101)" stroke-width="1" />
		<g>
			<title>PF00561</title>
			<polygon class="PF00561" points="1068,18 1093,18 1104,29 1104,33 1093,44 1068,44" stroke-linejoin="round" width="36" height="26" fill="rgb(86,180,151)" stroke="rgb(68,144,120)" stroke-width="1" opacity="0.75" />
		</g>
	</g>
	<g>
		<title>tnmK2</title>
		<polygon class="tnmK2" points="1110,16 1129,16 1129,1 1159,31 1129,61 1129,46 1110,46" fill="rgb(194,250,253)" fill-opacity="1.0" stroke="rgb(77,100,101)" stroke-width="1" />
		<g>
			<title>PF00561</title>
			<polygon class="PF00561" points="1119,18 1143,18 1155,30 1155,32 1143,44 1119,44" stroke-linejoin="round" width="36" height="26" fill="rgb(86,180,151)" stroke="rgb(68,144,120)" stroke-width="1" opacity="0.75" />
		</g>
	</g>
	<g>
		<title>tnmL</title>
		<polygon class="tnmL" points="1159,16 1171,16 1171,1 1201,31 1171,61 1171,46 1159,46" fill="rgb(202,250,223)" fill-opacity="1.0" stroke="rgb(80,100,89)" stroke-width="1" />
		<g>
			<title>PF00067</title>
			<polygon class="PF00067" points="1177,18 1185,18 1196,29 1196,33 1185,44 1177,44" stroke-linejoin="round" width="19" height="26" fill="rgb(85,216,107)" stroke="rgb(68,172,85)" stroke-width="1" opacity="0.75" />
		</g>
	</g>
	<g>
		<title>tnmM1</title>
		<polygon class="tnmM1" points="1237,16 1234,16 1234,1 1204,31 1234,61 1234,46 1237,46" fill="rgb(204,188,253)" fill-opacity="1.0" stroke="rgb(81,75,101)" stroke-width="1" />
		<g>
			<title>PF00355</title>
			<rect class="PF00355" x="1225" y="18" stroke-linejoin="round" width="9" height="26" fill="rgb(186,77,145)" stroke="rgb(148,61,115)" stroke-width="1" opacity="0.75" />
		</g>
	</g>
	<g>
		<title>tnmM2</title>
		<polygon class="tnmM2" points="1274,16 1270,16 1270,1 1240,31 1270,61 1270,46 1274,46" fill="rgb(205,252,181)" fill-opacity="1.0" stroke="rgb(82,100,72)" stroke-width="1" />
		<g>
			<title>PF00355</title>
			<rect class="PF00355" x="1261" y="18" stroke-linejoin="round" width="9" height="26" fill="rgb(186,77,145)" stroke="rgb(148,61,115)" stroke-width="1" opacity="0.75" />
		</g>
	</g>
	<g>
		<title>tnmN</title>
		<polygon class="tnmN" points="1280,16 1280,16 1280,1 1294,31 1280,61 1280,46 1280,46" fill="rgb(192,251,244)" fill-opacity="1.0" stroke="rgb(76,100,97)" stroke-width="1" />
		<g>
			<title>PF07366</title>
			<polygon class="PF07366" points="1281,18 1285,18 1291,31 1285,44 1281,44" stroke-linejoin="round" width="12" height="26" fill="rgb(206,89,111)" stroke="rgb(164,71,88)" stroke-width="1" opacity="0.75" />
		</g>
	</g>
	<g>
		<title>tnmO</title>
		<polygon class="tnmO" points="1297,16 1297,16 1297,1 1313,31 1297,61 1297,46 1297,46" fill="rgb(226,251,204)" fill-opacity="1.0" stroke="rgb(90,100,81)" stroke-width="1" />
		<g>
			<title>PF07366</title>
			<polygon class="PF07366" points="1298,18 1303,18 1310,30 1310,32 1303,44 1298,44" stroke-linejoin="round" width="12" height="26" fill="rgb(206,89,111)" stroke="rgb(164,71,88)" stroke-width="1" opacity="0.75" />
		</g>
	</g>
	<g>
		<title>tnmP</title>
		<polygon class="tnmP" points="1313,16 1321,16 1321,1 1351,31 1321,61 1321,46 1313,46" fill="rgb(250,203,236)" fill-opacity="1.0" stroke="rgb(100,81,94)" stroke-width="1" />
		<g>
			<title>PF01494</title>
			<polygon class="PF01494" points="1313,18 1335,18 1346,29 1346,33 1335,44 1313,44" stroke-linejoin="round" width="33" height="26" fill="rgb(182,175,59)" stroke="rgb(145,140,47)" stroke-width="1" opacity="0.75" />
		</g>
	</g>
	<g>
		<title>tnmR2</title>
		<polygon class="tnmR2" points="1354,16 1366,16 1366,1 1396,31 1366,61 1366,46 1354,46" fill="rgb(217,209,253)" fill-opacity="1.0" stroke="rgb(86,83,101)" stroke-width="1" />
		<g>
			<title>PF03109</title>
			<rect class="PF03109" x="1364" y="18" stroke-linejoin="round" width="11" height="26" fill="rgb(197,149,67)" stroke="rgb(157,119,53)" stroke-width="1" opacity="0.75" />
		</g>
	</g>
	<g>
		<title>tnmQ</title>
		<polygon class="tnmQ" points="1418,16 1418,16 1418,1 1399,31 1418,61 1418,46 1418,46" fill="rgb(244,212,254)" fill-opacity="1.0" stroke="rgb(97,84,101)" stroke-width="1" />
		<g>
			<title>PF14117</title>
			<rect class="PF14117" x="1412" y="18" stroke-linejoin="round" width="4" height="26" fill="rgb(85,192,152)" stroke="rgb(68,153,121)" stroke-width="1" opacity="0.75" />
		</g>
	</g>
	<g>
		<polygon class="NoName" points="137,16 163,16 163,1 193,31 163,61 163,46 137,46" fill="rgb(255,255,255)" fill-opacity="1.0" stroke="rgb(50,50,50)" stroke-width="1" />
		<g>
			<title>PF00270</title>
			<rect class="PF00270" x="139" y="18" stroke-linejoin="round" width="16" height="26" fill="rgb(195,100,62)" stroke="rgb(156,80,49)" stroke-width="1" opacity="0.75" />
		</g>
		<g>
			<title>PF00271</title>
			<rect class="PF00271" x="159" y="18" stroke-linejoin="round" width="10" height="26" fill="rgb(104,224,158)" stroke="rgb(83,179,126)" stroke-width="1" opacity="0.75" />
		</g>
		<g>
			<title>PF16124</title>
			<polygon class="PF16124" points="179,20 185,26 185,36 179,42" stroke-linejoin="round" width="6" height="26" fill="rgb(207,93,128)" stroke="rgb(165,74,102)" stroke-width="1" opacity="0.75" />
		</g>
	</g>
	<g>
		<title>tnmS1</title>
		<polygon class="tnmS1" points="1430,16 1430,16 1430,1 1418,31 1430,61 1430,46 1430,46" fill="rgb(253,248,197)" fill-opacity="1.0" stroke="rgb(101,99,78)" stroke-width="1" />
		<g>
			<title>PF00903</title>
			<polygon class="PF00903" points="1420,31 1425,18 1429,18 1429,44 1425,44" stroke-linejoin="round" width="11" height="26" fill="rgb(50,162,189)" stroke="rgb(40,129,151)" stroke-width="1" opacity="0.75" />
		</g>
	</g>
	<g>
		<title>tnmT1</title>
		<polygon class="tnmT1" points="1489,16 1464,16 1464,1 1434,31 1464,61 1464,46 1489,46" fill="rgb(214,252,243)" fill-opacity="1.0" stroke="rgb(85,100,97)" stroke-width="1" />
		<g>
			<title>PF07690</title>
			<polygon class="PF07690" points="1445,22 1449,18 1484,18 1484,44 1449,44 1445,39" stroke-linejoin="round" width="39" height="26" fill="rgb(193,224,74)" stroke="rgb(154,179,59)" stroke-width="1" opacity="0.75" />
		</g>
	</g>
	<g>
		<title>tnmS2</title>
		<polygon class="tnmS2" points="1504,16 1504,16 1504,1 1491,31 1504,61 1504,46 1504,46" fill="rgb(251,196,248)" fill-opacity="1.0" stroke="rgb(100,78,99)" stroke-width="1" />
		<g>
			<title>PF00903</title>
			<polygon class="PF00903" points="1493,31 1499,18 1503,18 1503,44 1499,44" stroke-linejoin="round" width="12" height="26" fill="rgb(50,162,189)" stroke="rgb(40,129,151)" stroke-width="1" opacity="0.75" />
		</g>
	</g>
	<g>
		<title>tnmR4</title>
		<polygon class="tnmR4" points="1523,16 1523,16 1523,1 1504,31 1523,61 1523,46 1523,46" fill="rgb(253,212,254)" fill-opacity="1.0" stroke="rgb(101,84,101)" stroke-width="1" />
		<g>
			<title>PF12833</title>
			<polygon class="PF12833" points="1512,22 1514,18 1519,18 1519,44 1514,44 1512,39" stroke-linejoin="round" width="7" height="26" fill="rgb(216,58,224)" stroke="rgb(172,46,179)" stroke-width="1" opacity="0.75" />
		</g>
	</g>
	<g>
		<title>tnmT2</title>
		<polygon class="tnmT2" points="1583,16 1557,16 1557,1 1527,31 1557,61 1557,46 1583,46" fill="rgb(250,176,177)" fill-opacity="1.0" stroke="rgb(100,70,70)" stroke-width="1" />
		<g>
			<title>PF07690</title>
			<polygon class="PF07690" points="1532,28 1542,18 1571,18 1571,44 1542,44 1532,33" stroke-linejoin="round" width="39" height="26" fill="rgb(193,224,74)" stroke="rgb(154,179,59)" stroke-width="1" opacity="0.75" />
		</g>
	</g>
	<g>
		<title>tnmS3</title>
		<polygon class="tnmS3" points="1600,16 1600,16 1600,1 1588,31 1600,61 1600,46 1600,46" fill="rgb(251,195,197)" fill-opacity="1.0" stroke="rgb(100,78,78)" stroke-width="1" />
		<g>
			<title>PF00903</title>
			<polygon class="PF00903" points="1590,31 1595,18 1599,18 1599,44 1595,44" stroke-linejoin="round" width="11" height="26" fill="rgb(50,162,189)" stroke="rgb(40,129,151)" stroke-width="1" opacity="0.75" />
		</g>
	</g>
	<g>
		<polygon class="NoName" points="1623,16 1623,16 1623,1 1600,31 1623,61 1623,46 1623,46" fill="rgb(255,255,255)" fill-opacity="1.0" stroke="rgb(50,50,50)" stroke-width="1" />
	</g>
	<g>
		<title>tnmA</title>
		<polygon class="tnmA" points="238,16 238,16 238,1 222,31 238,61 238,46 238,46" fill="rgb(253,192,202)" fill-opacity="1.0" stroke="rgb(101,76,80)" stroke-width="1" />
		<g>
			<title>PF01613</title>
			<polygon class="PF01613" points="224,31 231,18 236,18 236,44 231,44" stroke-linejoin="round" width="14" height="26" fill="rgb(107,197,222)" stroke="rgb(85,157,177)" stroke-width="1" opacity="0.75" />
		</g>
	</g>
	<g>
		<title>tnmR7</title>
		<polygon class="tnmR7" points="270,16 270,16 270,1 240,31 270,61 270,46 270,46" fill="rgb(222,183,254)" fill-opacity="1.0" stroke="rgb(88,73,101)" stroke-width="1" />
		<g>
			<title>PF12833</title>
			<rect class="PF12833" x="258" y="18" stroke-linejoin="round" width="7" height="26" fill="rgb(216,58,224)" stroke="rgb(172,46,179)" stroke-width="1" opacity="0.75" />
		</g>
	</g>
	<g>
		<title>tnmB</title>
		<polygon class="tnmB" points="307,16 307,16 307,1 277,31 307,61 307,46 307,46" fill="rgb(254,254,203)" fill-opacity="1.0" stroke="rgb(101,101,81)" stroke-width="1" />
		<g>
			<title>PF08327</title>
			<polygon class="PF08327" points="292,18 292,18 304,18 304,44 292,44 292,43" stroke-linejoin="round" width="12" height="26" fill="rgb(81,199,171)" stroke="rgb(64,159,136)" stroke-width="1" opacity="0.75" />
		</g>
	</g>
	<g>
		<title>tnmR3</title>
		<polygon class="tnmR3" points="314,16 326,16 326,1 356,31 326,61 326,46 314,46" fill="rgb(244,209,252)" fill-opacity="1.0" stroke="rgb(97,83,100)" stroke-width="1" />
		<g>
			<title>PF03109</title>
			<rect class="PF03109" x="325" y="18" stroke-linejoin="round" width="11" height="26" fill="rgb(197,149,67)" stroke="rgb(157,119,53)" stroke-width="1" opacity="0.75" />
		</g>
	</g>
	<g>
		<title>tnmC</title>
		<polygon class="tnmC" points="357,16 372,16 372,1 402,31 372,61 372,46 357,46" fill="rgb(185,193,250)" fill-opacity="1.0" stroke="rgb(73,77,100)" stroke-width="1" />
		<g>
			<title>PF08659</title>
			<polygon class="PF08659" points="378,18 386,18 395,27 395,35 386,44 378,44" stroke-linejoin="round" width="17" height="26" fill="rgb(66,209,188)" stroke="rgb(52,167,150)" stroke-width="1" opacity="0.75" />
		</g>
	</g>
	<g>
		<title>tnmD</title>
		<polygon class="tnmD" points="406,16 420,16 420,1 450,31 420,61 420,46 406,46" fill="rgb(238,250,195)" fill-opacity="1.0" stroke="rgb(95,100,78)" stroke-width="1" />
		<g>
			<title>PF13646</title>
			<rect class="PF13646" x="414" y="18" stroke-linejoin="round" width="8" height="26" fill="rgb(161,180,58)" stroke="rgb(128,144,46)" stroke-width="1" opacity="0.75" />
		</g>
	</g>
	<g>
		<title>tnmF</title>
		<polygon class="tnmF" points="451,16 451,16 451,1 472,31 451,61 451,46 451,46" fill="rgb(251,214,213)" fill-opacity="1.0" stroke="rgb(100,85,85)" stroke-width="1" />
	</g>
</svg>
