<svg version="1.1" baseProfile="full" xmlns="http://www.w3.org/2000/svg" width="1035" height="62">
	<line x1="1" y1="31" x2="1034" y2="31" style="stroke:rgb(50,50,50); stroke-width:3 "/>
	<g>
		<polygon class="NoName" points="571,16 571,16 571,1 591,31 571,61 571,46 571,46" fill="rgb(255,255,255)" fill-opacity="1.0" stroke="rgb(50,50,50)" stroke-width="1" />
	</g>
	<g>
		<title>sxtS</title>
		<polygon class="sxtS" points="601,16 601,16 601,1 625,31 601,61 601,46 601,46" fill="rgb(225,192,250)" fill-opacity="1.0" stroke="rgb(89,76,100)" stroke-width="1" />
		<g>
			<title>PF05721</title>
			<polygon class="PF05721" points="602,18 612,18 622,31 622,31 612,44 602,44" stroke-linejoin="round" width="20" height="26" fill="rgb(72,132,214)" stroke="rgb(57,105,171)" stroke-width="1" opacity="0.75" />
		</g>
	</g>
	<g>
		<title>sxtT</title>
		<polygon class="sxtT" points="629,16 633,16 633,1 663,31 633,61 633,46 629,46" fill="rgb(179,208,254)" fill-opacity="1.0" stroke="rgb(71,83,101)" stroke-width="1" />
		<g>
			<title>PF00355</title>
			<rect class="PF00355" x="630" y="18" stroke-linejoin="round" width="9" height="26" fill="rgb(186,77,145)" stroke="rgb(148,61,115)" stroke-width="1" opacity="0.75" />
		</g>
	</g>
	<g>
		<title>sxtU</title>
		<polygon class="sxtU" points="668,16 668,16 668,1 693,31 668,61 668,46 668,46" fill="rgb(219,211,253)" fill-opacity="1.0" stroke="rgb(87,84,101)" stroke-width="1" />
		<g>
			<title>PF00106</title>
			<polygon class="PF00106" points="668,18 679,18 687,27 687,35 679,44 668,44" stroke-linejoin="round" width="19" height="26" fill="rgb(182,219,73)" stroke="rgb(145,175,58)" stroke-width="1" opacity="0.75" />
		</g>
	</g>
	<g>
		<title>sxtN</title>
		<polygon class="sxtN" points="695,16 695,16 695,1 724,31 695,61 695,46 695,46" fill="rgb(253,206,232)" fill-opacity="1.0" stroke="rgb(101,82,92)" stroke-width="1" />
	</g>
	<g>
		<title>sxtG</title>
		<polygon class="sxtG" points="727,16 734,16 734,1 764,31 734,61 734,46 727,46" fill="rgb(250,222,204)" fill-opacity="1.0" stroke="rgb(100,88,81)" stroke-width="1" />
	</g>
	<g>
		<title>sxtH</title>
		<polygon class="sxtH" points="767,16 771,16 771,1 801,31 771,61 771,46 767,46" fill="rgb(190,231,251)" fill-opacity="1.0" stroke="rgb(76,92,100)" stroke-width="1" />
		<g>
			<title>PF00355</title>
			<rect class="PF00355" x="768" y="18" stroke-linejoin="round" width="9" height="26" fill="rgb(186,77,145)" stroke="rgb(148,61,115)" stroke-width="1" opacity="0.75" />
		</g>
	</g>
	<g>
		<title>sxtM</title>
		<polygon class="sxtM" points="803,16 821,16 821,1 851,31 821,61 821,46 803,46" fill="rgb(183,251,236)" fill-opacity="1.0" stroke="rgb(73,100,94)" stroke-width="1" />
		<g>
			<title>PF01554</title>
			<rect class="PF01554" x="806" y="18" stroke-linejoin="round" width="15" height="26" fill="rgb(187,69,173)" stroke="rgb(149,55,138)" stroke-width="1" opacity="0.75" />
		</g>
		<g>
			<title>PF01554</title>
			<polygon class="PF01554" points="828,18 835,18 844,27 844,35 835,44 828,44" stroke-linejoin="round" width="16" height="26" fill="rgb(187,69,173)" stroke="rgb(149,55,138)" stroke-width="1" opacity="0.75" />
		</g>
	</g>
	<g>
		<title>sxtI</title>
		<polygon class="sxtI" points="851,16 882,16 882,1 912,31 882,61 882,46 851,46" fill="rgb(233,253,196)" fill-opacity="1.0" stroke="rgb(93,101,78)" stroke-width="1" />
		<g>
			<title>PF02543</title>
			<rect class="PF02543" x="851" y="18" stroke-linejoin="round" width="34" height="26" fill="rgb(146,218,61)" stroke="rgb(116,174,48)" stroke-width="1" opacity="0.75" />
		</g>
		<g>
			<title>PF16861</title>
			<polygon class="PF16861" points="891,18 896,18 909,31 909,31 896,44 891,44" stroke-linejoin="round" width="18" height="26" fill="rgb(183,87,154)" stroke="rgb(146,69,123)" stroke-width="1" opacity="0.75" />
		</g>
	</g>
	<g>
		<title>sxtJ</title>
		<polygon class="sxtJ" points="914,16 914,16 914,1 927,31 914,61 914,46 914,46" fill="rgb(230,250,209)" fill-opacity="1.0" stroke="rgb(92,100,83)" stroke-width="1" />
	</g>
	<g>
		<title>sxtB</title>
		<polygon class="sxtB" points="93,16 91,16 91,1 61,31 91,61 91,46 93,46" fill="rgb(191,252,237)" fill-opacity="1.0" stroke="rgb(76,100,94)" stroke-width="1" />
		<g>
			<title>PF08211</title>
			<polygon class="PF08211" points="63,31 75,19 75,42" stroke-linejoin="round" width="12" height="26" fill="rgb(225,105,128)" stroke="rgb(180,84,102)" stroke-width="1" opacity="0.75" />
		</g>
		<g>
			<title>PF00383</title>
			<rect class="PF00383" x="78" y="18" stroke-linejoin="round" width="10" height="26" fill="rgb(91,149,216)" stroke="rgb(72,119,172)" stroke-width="1" opacity="0.75" />
		</g>
	</g>
	<g>
		<title>sxtK</title>
		<polygon class="sxtK" points="927,16 927,16 927,1 932,31 927,61 927,46 927,46" fill="rgb(253,237,190)" fill-opacity="1.0" stroke="rgb(101,94,76)" stroke-width="1" />
	</g>
	<g>
		<title>sxtL</title>
		<polygon class="sxtL" points="933,16 945,16 945,1 975,31 945,61 945,46 933,46" fill="rgb(203,250,244)" fill-opacity="1.0" stroke="rgb(81,100,97)" stroke-width="1" />
		<g>
			<title>PF00657</title>
			<polygon class="PF00657" points="942,18 959,18 972,31 972,31 959,44 942,44" stroke-linejoin="round" width="30" height="26" fill="rgb(151,210,92)" stroke="rgb(120,168,73)" stroke-width="1" opacity="0.75" />
		</g>
	</g>
	<g>
		<title>sxtO</title>
		<polygon class="sxtO" points="976,16 976,16 976,1 995,31 976,61 976,46 976,46" fill="rgb(253,253,180)" fill-opacity="1.0" stroke="rgb(101,101,72)" stroke-width="1" />
		<g>
			<title>PF01583</title>
			<polygon class="PF01583" points="976,18 984,18 991,29 991,33 984,44 976,44" stroke-linejoin="round" width="15" height="26" fill="rgb(48,131,188)" stroke="rgb(38,104,150)" stroke-width="1" opacity="0.75" />
		</g>
	</g>
	<g>
		<polygon class="NoName" points="1033,16 1032,16 1032,1 1002,31 1032,61 1032,46 1033,46" fill="rgb(255,255,255)" fill-opacity="1.0" stroke="rgb(50,50,50)" stroke-width="1" />
		<g>
			<title>PF02481</title>
			<polygon class="PF02481" points="1010,25 1017,18 1031,18 1031,44 1017,44 1010,36" stroke-linejoin="round" width="21" height="26" fill="rgb(72,189,53)" stroke="rgb(57,151,42)" stroke-width="1" opacity="0.75" />
		</g>
	</g>
	<g>
		<title>sxtA</title>
		<polygon class="sxtA" points="217,16 124,16 124,1 94,31 124,61 124,46 217,46" fill="rgb(183,230,254)" fill-opacity="1.0" stroke="rgb(73,92,101)" stroke-width="1" />
		<g>
			<title>PF00155</title>
			<polygon class="PF00155" points="96,31 109,18 130,18 130,44 109,44" stroke-linejoin="round" width="35" height="26" fill="rgb(89,113,198)" stroke="rgb(71,90,158)" stroke-width="1" opacity="0.75" />
		</g>
		<g>
			<title>PF00550</title>
			<rect class="PF00550" x="136" y="18" stroke-linejoin="round" width="6" height="26" fill="rgb(103,191,88)" stroke="rgb(82,152,70)" stroke-width="1" opacity="0.75" />
		</g>
	</g>
	<g>
		<title>sxtE</title>
		<polygon class="sxtE" points="240,16 240,16 240,1 225,31 240,61 240,46 240,46" fill="rgb(214,253,216)" fill-opacity="1.0" stroke="rgb(85,101,86)" stroke-width="1" />
	</g>
	<g>
		<title>sxtD</title>
		<polygon class="sxtD" points="284,16 284,16 284,1 259,31 284,61 284,46 284,46" fill="rgb(194,253,242)" fill-opacity="1.0" stroke="rgb(77,101,96)" stroke-width="1" />
		<g>
			<title>PF04116</title>
			<polygon class="PF04116" points="262,30 272,18 275,18 275,44 272,44 262,31" stroke-linejoin="round" width="13" height="26" fill="rgb(171,60,209)" stroke="rgb(136,48,167)" stroke-width="1" opacity="0.75" />
		</g>
	</g>
	<g>
		<title>sxtP</title>
		<polygon class="sxtP" points="286,16 304,16 304,1 334,31 304,61 304,46 286,46" fill="rgb(212,238,254)" fill-opacity="1.0" stroke="rgb(84,95,101)" stroke-width="1" />
		<g>
			<title>PF13517</title>
			<rect class="PF13517" x="300" y="18" stroke-linejoin="round" width="6" height="26" fill="rgb(77,199,76)" stroke="rgb(61,159,60)" stroke-width="1" opacity="0.75" />
		</g>
		<g>
			<title>PF13517</title>
			<polygon class="PF13517" points="320,20 326,26 326,36 320,42" stroke-linejoin="round" width="6" height="26" fill="rgb(77,199,76)" stroke="rgb(61,159,60)" stroke-width="1" opacity="0.75" />
		</g>
	</g>
	<g>
		<polygon class="NoName" points="335,16 335,16 335,1 360,31 335,61 335,46 335,46" fill="rgb(255,255,255)" fill-opacity="1.0" stroke="rgb(50,50,50)" stroke-width="1" />
		<g>
			<title>PF08892</title>
			<polygon class="PF08892" points="339,18 346,18 357,31 346,44 339,44" stroke-linejoin="round" width="19" height="26" fill="rgb(58,210,225)" stroke="rgb(46,168,180)" stroke-width="1" opacity="0.75" />
		</g>
	</g>
	<g>
		<title>sxtR</title>
		<polygon class="sxtR" points="362,16 362,16 362,1 388,31 362,61 362,46 362,46" fill="rgb(177,253,220)" fill-opacity="1.0" stroke="rgb(70,101,88)" stroke-width="1" />
	</g>
	<g>
		<polygon class="NoName" points="483,16 483,16 483,1 512,31 483,61 483,46 483,46" fill="rgb(255,255,255)" fill-opacity="1.0" stroke="rgb(50,50,50)" stroke-width="1" />
		<g>
			<title>PF13612</title>
			<polygon class="PF13612" points="493,18 496,18 508,30 508,32 496,44 493,44" stroke-linejoin="round" width="15" height="26" fill="rgb(205,75,164)" stroke="rgb(164,60,131)" stroke-width="1" opacity="0.75" />
		</g>
	</g>
	<g>
		<polygon class="NoName" points="563,16 562,16 562,1 532,31 562,61 562,46 563,46" fill="rgb(255,255,255)" fill-opacity="1.0" stroke="rgb(50,50,50)" stroke-width="1" />
		<g>
			<title>PF00892</title>
			<polygon class="PF00892" points="534,31 547,18 547,43" stroke-linejoin="round" width="14" height="26" fill="rgb(105,217,77)" stroke="rgb(84,173,61)" stroke-width="1" opacity="0.75" />
		</g>
		<g>
			<title>PF00892</title>
			<rect class="PF00892" x="548" y="18" stroke-linejoin="round" width="12" height="26" fill="rgb(105,217,77)" stroke="rgb(84,173,61)" stroke-width="1" opacity="0.75" />
		</g>
	</g>
</svg>
