<svg version="1.1" baseProfile="full" xmlns="http://www.w3.org/2000/svg" width="3572" height="62">
	<line x1="1" y1="31" x2="3571" y2="31" style="stroke:rgb(50,50,50); stroke-width:3 "/>
	<g>
		<polygon class="NoName" points="2878,16 2823,16 2823,1 2793,31 2823,61 2823,46 2878,46" fill="rgb(255,255,255)" fill-opacity="1.0" stroke="rgb(50,50,50)" stroke-width="1" />
	</g>
	<g>
		<polygon class="NoName" points="2902,16 3112,16 3112,1 3142,31 3112,61 3112,46 2902,46" fill="rgb(255,255,255)" fill-opacity="1.0" stroke="rgb(50,50,50)" stroke-width="1" />
		<g>
			<title>PF01397</title>
			<rect class="PF01397" x="2922" y="18" stroke-linejoin="round" width="19" height="26" fill="rgb(74,159,219)" stroke="rgb(59,127,175)" stroke-width="1" opacity="0.75" />
		</g>
		<g>
			<title>PF03936</title>
			<rect class="PF03936" x="2946" y="18" stroke-linejoin="round" width="26" height="26" fill="rgb(219,91,215)" stroke="rgb(175,72,171)" stroke-width="1" opacity="0.75" />
		</g>
	</g>
	<g>
		<polygon class="NoName" points="3228,16 3274,16 3274,1 3304,31 3274,61 3274,46 3228,46" fill="rgb(255,255,255)" fill-opacity="1.0" stroke="rgb(50,50,50)" stroke-width="1" />
		<g>
			<title>PF00067</title>
			<rect class="PF00067" x="3231" y="18" stroke-linejoin="round" width="46" height="26" fill="rgb(85,216,107)" stroke="rgb(68,172,85)" stroke-width="1" opacity="0.75" />
		</g>
	</g>
	<g>
		<polygon class="NoName" points="3318,16 3318,16 3318,1 3343,31 3318,61 3318,46 3318,46" fill="rgb(255,255,255)" fill-opacity="1.0" stroke="rgb(50,50,50)" stroke-width="1" />
	</g>
	<g>
		<polygon class="NoName" points="3433,16 3470,16 3470,1 3500,31 3470,61 3470,46 3433,46" fill="rgb(255,255,255)" fill-opacity="1.0" stroke="rgb(50,50,50)" stroke-width="1" />
		<g>
			<title>PF02458</title>
			<rect class="PF02458" x="3433" y="18" stroke-linejoin="round" width="42" height="26" fill="rgb(57,117,190)" stroke="rgb(45,93,152)" stroke-width="1" opacity="0.75" />
		</g>
	</g>
	<g>
		<polygon class="NoName" points="256,16 31,16 31,1 1,31 31,61 31,46 256,46" fill="rgb(255,255,255)" fill-opacity="1.0" stroke="rgb(50,50,50)" stroke-width="1" />
		<g>
			<title>PF05199</title>
			<rect class="PF05199" x="182" y="18" stroke-linejoin="round" width="14" height="26" fill="rgb(186,52,106)" stroke="rgb(148,41,84)" stroke-width="1" opacity="0.75" />
		</g>
		<g>
			<title>PF00732</title>
			<rect class="PF00732" x="206" y="18" stroke-linejoin="round" width="26" height="26" fill="rgb(180,89,214)" stroke="rgb(143,71,171)" stroke-width="1" opacity="0.75" />
		</g>
	</g>
	<g>
		<polygon class="NoName" points="557,16 742,16 742,1 772,31 742,61 742,46 557,46" fill="rgb(255,255,255)" fill-opacity="1.0" stroke="rgb(50,50,50)" stroke-width="1" />
		<g>
			<title>PF01397</title>
			<rect class="PF01397" x="578" y="18" stroke-linejoin="round" width="19" height="26" fill="rgb(74,159,219)" stroke="rgb(59,127,175)" stroke-width="1" opacity="0.75" />
		</g>
		<g>
			<title>PF03936</title>
			<rect class="PF03936" x="602" y="18" stroke-linejoin="round" width="26" height="26" fill="rgb(219,91,215)" stroke="rgb(175,72,171)" stroke-width="1" opacity="0.75" />
		</g>
	</g>
	<g>
		<polygon class="NoName" points="862,16 833,16 833,1 803,31 833,61 833,46 862,46" fill="rgb(255,255,255)" fill-opacity="1.0" stroke="rgb(50,50,50)" stroke-width="1" />
		<g>
			<title>PF00067</title>
			<polygon class="PF00067" points="812,24 818,18 858,18 858,44 818,44 812,37" stroke-linejoin="round" width="46" height="26" fill="rgb(85,216,107)" stroke="rgb(68,172,85)" stroke-width="1" opacity="0.75" />
		</g>
	</g>
	<g>
		<polygon class="NoName" points="915,16 973,16 973,1 1003,31 973,61 973,46 915,46" fill="rgb(255,255,255)" fill-opacity="1.0" stroke="rgb(50,50,50)" stroke-width="1" />
		<g>
			<title>PF01255</title>
			<rect class="PF01255" x="924" y="18" stroke-linejoin="round" width="21" height="26" fill="rgb(129,224,60)" stroke="rgb(103,179,48)" stroke-width="1" opacity="0.75" />
		</g>
	</g>
	<g>
		<polygon class="NoName" points="1220,16 1048,16 1048,1 1018,31 1048,61 1048,46 1220,46" fill="rgb(255,255,255)" fill-opacity="1.0" stroke="rgb(50,50,50)" stroke-width="1" />
		<g>
			<title>PF03936</title>
			<rect class="PF03936" x="1148" y="18" stroke-linejoin="round" width="26" height="26" fill="rgb(219,91,215)" stroke="rgb(175,72,171)" stroke-width="1" opacity="0.75" />
		</g>
		<g>
			<title>PF01397</title>
			<rect class="PF01397" x="1179" y="18" stroke-linejoin="round" width="19" height="26" fill="rgb(74,159,219)" stroke="rgb(59,127,175)" stroke-width="1" opacity="0.75" />
		</g>
	</g>
	<g>
		<polygon class="NoName" points="1397,16 1397,16 1397,1 1413,31 1397,61 1397,46 1397,46" fill="rgb(255,255,255)" fill-opacity="1.0" stroke="rgb(50,50,50)" stroke-width="1" />
		<g>
			<title>PF01255</title>
			<polygon class="PF01255" points="1405,21 1410,30 1410,32 1405,41" stroke-linejoin="round" width="5" height="26" fill="rgb(129,224,60)" stroke="rgb(103,179,48)" stroke-width="1" opacity="0.75" />
		</g>
	</g>
	<g>
		<polygon class="NoName" points="1908,16 1651,16 1651,1 1621,31 1651,61 1651,46 1908,46" fill="rgb(255,255,255)" fill-opacity="1.0" stroke="rgb(50,50,50)" stroke-width="1" />
		<g>
			<title>PF03936</title>
			<rect class="PF03936" x="1836" y="18" stroke-linejoin="round" width="26" height="26" fill="rgb(219,91,215)" stroke="rgb(175,72,171)" stroke-width="1" opacity="0.75" />
		</g>
		<g>
			<title>PF01397</title>
			<rect class="PF01397" x="1867" y="18" stroke-linejoin="round" width="19" height="26" fill="rgb(74,159,219)" stroke="rgb(59,127,175)" stroke-width="1" opacity="0.75" />
		</g>
	</g>
	<g>
		<polygon class="NoName" points="2084,16 2157,16 2157,1 2187,31 2157,61 2157,46 2084,46" fill="rgb(255,255,255)" fill-opacity="1.0" stroke="rgb(50,50,50)" stroke-width="1" />
		<g>
			<title>PF01255</title>
			<rect class="PF01255" x="2092" y="18" stroke-linejoin="round" width="21" height="26" fill="rgb(129,224,60)" stroke="rgb(103,179,48)" stroke-width="1" opacity="0.75" />
		</g>
	</g>
	<g>
		<polygon class="NoName" points="2389,16 2602,16 2602,1 2632,31 2602,61 2602,46 2389,46" fill="rgb(255,255,255)" fill-opacity="1.0" stroke="rgb(50,50,50)" stroke-width="1" />
		<g>
			<title>PF01397</title>
			<rect class="PF01397" x="2415" y="18" stroke-linejoin="round" width="20" height="26" fill="rgb(74,159,219)" stroke="rgb(59,127,175)" stroke-width="1" opacity="0.75" />
		</g>
		<g>
			<title>PF03936</title>
			<rect class="PF03936" x="2440" y="18" stroke-linejoin="round" width="26" height="26" fill="rgb(219,91,215)" stroke="rgb(175,72,171)" stroke-width="1" opacity="0.75" />
		</g>
	</g>
</svg>
