<svg version="1.1" baseProfile="full" xmlns="http://www.w3.org/2000/svg" width="305" height="62">
	<line x1="1" y1="31" x2="304" y2="31" style="stroke:rgb(50,50,50); stroke-width:3 "/>
	<g>
		<title>paeA</title>
		<polygon class="paeA" points="1,16 1,16 1,1 6,31 1,61 1,46 1,46" fill="rgb(251,234,210)" fill-opacity="1.0" stroke="rgb(100,93,84)" stroke-width="1" />
	</g>
	<g>
		<title>paeF</title>
		<polygon class="paeF" points="12,16 12,16 12,1 36,31 12,61 12,46 12,46" fill="rgb(194,251,202)" fill-opacity="1.0" stroke="rgb(77,100,80)" stroke-width="1" />
		<g>
			<title>PF00005</title>
			<polygon class="PF00005" points="14,18 23,18 28,25 28,37 23,44 14,44" stroke-linejoin="round" width="14" height="26" fill="rgb(129,201,63)" stroke="rgb(103,160,50)" stroke-width="1" opacity="0.75" />
		</g>
	</g>
	<g>
		<title>paeE</title>
		<polygon class="paeE" points="36,16 36,16 36,1 62,31 36,61 36,46 36,46" fill="rgb(208,250,182)" fill-opacity="1.0" stroke="rgb(83,100,72)" stroke-width="1" />
		<g>
			<title>PF12730</title>
			<polygon class="PF12730" points="36,18 48,18 54,25 54,37 48,44 36,44" stroke-linejoin="round" width="18" height="26" fill="rgb(203,161,59)" stroke="rgb(162,128,47)" stroke-width="1" opacity="0.75" />
		</g>
	</g>
	<g>
		<title>paeG</title>
		<polygon class="paeG" points="63,16 63,16 63,1 88,31 63,61 63,46 63,46" fill="rgb(251,199,233)" fill-opacity="1.0" stroke="rgb(100,79,93)" stroke-width="1" />
	</g>
	<g>
		<title>paeB</title>
		<polygon class="paeB" points="90,16 165,16 165,1 195,31 165,61 165,46 90,46" fill="rgb(190,250,187)" fill-opacity="1.0" stroke="rgb(76,100,74)" stroke-width="1" />
		<g>
			<title>PF04738</title>
			<rect class="PF04738" x="95" y="18" stroke-linejoin="round" width="64" height="26" fill="rgb(219,60,229)" stroke="rgb(175,47,183)" stroke-width="1" opacity="0.75" />
		</g>
		<g>
			<title>PF14028</title>
			<polygon class="PF14028" points="168,18 179,18 192,31 179,44 168,44" stroke-linejoin="round" width="26" height="26" fill="rgb(107,223,113)" stroke="rgb(85,178,90)" stroke-width="1" opacity="0.75" />
		</g>
	</g>
	<g>
		<title>paeT</title>
		<polygon class="paeT" points="196,16 228,16 228,1 258,31 228,61 228,46 196,46" fill="rgb(214,181,250)" fill-opacity="1.0" stroke="rgb(85,72,100)" stroke-width="1" />
		<g>
			<title>PF00005</title>
			<polygon class="PF00005" points="234,18 242,18 249,25 249,37 242,44 234,44" stroke-linejoin="round" width="15" height="26" fill="rgb(129,201,63)" stroke="rgb(103,160,50)" stroke-width="1" opacity="0.75" />
		</g>
	</g>
	<g>
		<title>paeC</title>
		<polygon class="paeC" points="258,16 274,16 274,1 304,31 274,61 274,46 258,46" fill="rgb(195,251,192)" fill-opacity="1.0" stroke="rgb(78,100,76)" stroke-width="1" />
		<g>
			<title>PF05147</title>
			<polygon class="PF05147" points="263,18 288,18 301,31 288,44 263,44" stroke-linejoin="round" width="40" height="26" fill="rgb(129,182,79)" stroke="rgb(103,145,63)" stroke-width="1" opacity="0.75" />
		</g>
	</g>
</svg>
