<svg version="1.1" baseProfile="full" xmlns="http://www.w3.org/2000/svg" width="1490" height="62">
	<line x1="1" y1="31" x2="1489" y2="31" style="stroke:rgb(50,50,50); stroke-width:3 "/>
	<g>
		<title>yxjC</title>
		<polygon class="yxjC" points="1488,16 1471,16 1471,1 1441,31 1471,61 1471,46 1488,46" fill="rgb(190,224,252)" fill-opacity="1.0" stroke="rgb(76,89,100)" stroke-width="1" />
	</g>
	<g>
		<title>ynfF</title>
		<polygon class="ynfF" points="43,16 31,16 31,1 1,31 31,61 31,46 43,46" fill="rgb(208,253,227)" fill-opacity="1.0" stroke="rgb(83,101,90)" stroke-width="1" />
		<g>
			<title>PF17189</title>
			<polygon class="PF17189" points="3,31 9,25 9,36" stroke-linejoin="round" width="8" height="26" fill="rgb(222,173,92)" stroke="rgb(177,138,73)" stroke-width="1" opacity="0.75" />
		</g>
		<g>
			<title>PF02055</title>
			<rect class="PF02055" x="22" y="18" stroke-linejoin="round" width="13" height="26" fill="rgb(90,180,102)" stroke="rgb(72,144,81)" stroke-width="1" opacity="0.75" />
		</g>
	</g>
	<g>
		<title>xynD</title>
		<polygon class="xynD" points="96,16 75,16 75,1 45,31 75,61 75,46 96,46" fill="rgb(249,252,188)" fill-opacity="1.0" stroke="rgb(99,100,75)" stroke-width="1" />
		<g>
			<title>PF03422</title>
			<polygon class="PF03422" points="47,31 57,21 57,40" stroke-linejoin="round" width="12" height="26" fill="rgb(79,51,186)" stroke="rgb(63,40,148)" stroke-width="1" opacity="0.75" />
		</g>
		<g>
			<title>PF04616</title>
			<polygon class="PF04616" points="60,18 60,18 92,18 92,44 60,44 60,43" stroke-linejoin="round" width="32" height="26" fill="rgb(62,179,73)" stroke="rgb(49,143,58)" stroke-width="1" opacity="0.75" />
		</g>
	</g>
	<g>
		<title>bmyC</title>
		<polygon class="bmyC" points="369,16 137,16 137,1 107,31 137,61 137,46 369,46" fill="rgb(252,185,179)" fill-opacity="1.0" stroke="rgb(100,74,71)" stroke-width="1" />
		<g>
			<title>PF00975</title>
			<polygon class="PF00975" points="110,30 122,18 130,18 130,44 122,44 110,31" stroke-linejoin="round" width="20" height="26" fill="rgb(207,80,138)" stroke="rgb(165,63,110)" stroke-width="1" opacity="0.75" />
		</g>
		<g>
			<title>PF00550</title>
			<rect class="PF00550" x="133" y="18" stroke-linejoin="round" width="6" height="26" fill="rgb(103,191,88)" stroke="rgb(82,152,70)" stroke-width="1" opacity="0.75" />
		</g>
		<g>
			<title>PF13193</title>
			<rect class="PF13193" x="142" y="18" stroke-linejoin="round" width="7" height="26" fill="rgb(182,50,118)" stroke="rgb(145,39,94)" stroke-width="1" opacity="0.75" />
		</g>
		<g>
			<title>PF00501</title>
			<rect class="PF00501" x="150" y="18" stroke-linejoin="round" width="39" height="26" fill="rgb(60,217,223)" stroke="rgb(48,173,178)" stroke-width="1" opacity="0.75" />
		</g>
		<g>
			<title>PF00668</title>
			<rect class="PF00668" x="192" y="18" stroke-linejoin="round" width="44" height="26" fill="rgb(224,184,98)" stroke="rgb(179,147,78)" stroke-width="1" opacity="0.75" />
		</g>
		<g>
			<title>PF00668</title>
			<rect class="PF00668" x="238" y="18" stroke-linejoin="round" width="45" height="26" fill="rgb(224,184,98)" stroke="rgb(179,147,78)" stroke-width="1" opacity="0.75" />
		</g>
		<g>
			<title>PF00550</title>
			<rect class="PF00550" x="284" y="18" stroke-linejoin="round" width="6" height="26" fill="rgb(103,191,88)" stroke="rgb(82,152,70)" stroke-width="1" opacity="0.75" />
		</g>
		<g>
			<title>PF13193</title>
			<rect class="PF13193" x="293" y="18" stroke-linejoin="round" width="7" height="26" fill="rgb(182,50,118)" stroke="rgb(145,39,94)" stroke-width="1" opacity="0.75" />
		</g>
		<g>
			<title>PF00501</title>
			<rect class="PF00501" x="301" y="18" stroke-linejoin="round" width="40" height="26" fill="rgb(60,217,223)" stroke="rgb(48,173,178)" stroke-width="1" opacity="0.75" />
		</g>
		<g>
			<title>PF00668</title>
			<rect class="PF00668" x="344" y="18" stroke-linejoin="round" width="24" height="26" fill="rgb(224,184,98)" stroke="rgb(179,147,78)" stroke-width="1" opacity="0.75" />
		</g>
	</g>
	<g>
		<title>bmyB</title>
		<polygon class="bmyB" points="908,16 402,16 402,1 372,31 402,61 402,46 908,46" fill="rgb(188,215,253)" fill-opacity="1.0" stroke="rgb(75,86,101)" stroke-width="1" />
		<g>
			<title>PF00668</title>
			<polygon class="PF00668" points="374,31 387,18 416,18 416,44 387,44" stroke-linejoin="round" width="43" height="26" fill="rgb(224,184,98)" stroke="rgb(179,147,78)" stroke-width="1" opacity="0.75" />
		</g>
		<g>
			<title>PF00550</title>
			<rect class="PF00550" x="417" y="18" stroke-linejoin="round" width="6" height="26" fill="rgb(103,191,88)" stroke="rgb(82,152,70)" stroke-width="1" opacity="0.75" />
		</g>
		<g>
			<title>PF13193</title>
			<rect class="PF13193" x="427" y="18" stroke-linejoin="round" width="7" height="26" fill="rgb(182,50,118)" stroke="rgb(145,39,94)" stroke-width="1" opacity="0.75" />
		</g>
		<g>
			<title>PF00501</title>
			<rect class="PF00501" x="435" y="18" stroke-linejoin="round" width="40" height="26" fill="rgb(60,217,223)" stroke="rgb(48,173,178)" stroke-width="1" opacity="0.75" />
		</g>
		<g>
			<title>PF00668</title>
			<rect class="PF00668" x="477" y="18" stroke-linejoin="round" width="43" height="26" fill="rgb(224,184,98)" stroke="rgb(179,147,78)" stroke-width="1" opacity="0.75" />
		</g>
		<g>
			<title>PF00550</title>
			<rect class="PF00550" x="522" y="18" stroke-linejoin="round" width="6" height="26" fill="rgb(103,191,88)" stroke="rgb(82,152,70)" stroke-width="1" opacity="0.75" />
		</g>
		<g>
			<title>PF13193</title>
			<rect class="PF13193" x="532" y="18" stroke-linejoin="round" width="7" height="26" fill="rgb(182,50,118)" stroke="rgb(145,39,94)" stroke-width="1" opacity="0.75" />
		</g>
		<g>
			<title>PF00501</title>
			<rect class="PF00501" x="540" y="18" stroke-linejoin="round" width="39" height="26" fill="rgb(60,217,223)" stroke="rgb(48,173,178)" stroke-width="1" opacity="0.75" />
		</g>
		<g>
			<title>PF00668</title>
			<rect class="PF00668" x="581" y="18" stroke-linejoin="round" width="44" height="26" fill="rgb(224,184,98)" stroke="rgb(179,147,78)" stroke-width="1" opacity="0.75" />
		</g>
		<g>
			<title>PF00668</title>
			<rect class="PF00668" x="628" y="18" stroke-linejoin="round" width="44" height="26" fill="rgb(224,184,98)" stroke="rgb(179,147,78)" stroke-width="1" opacity="0.75" />
		</g>
		<g>
			<title>PF00550</title>
			<rect class="PF00550" x="673" y="18" stroke-linejoin="round" width="6" height="26" fill="rgb(103,191,88)" stroke="rgb(82,152,70)" stroke-width="1" opacity="0.75" />
		</g>
		<g>
			<title>PF13193</title>
			<rect class="PF13193" x="682" y="18" stroke-linejoin="round" width="7" height="26" fill="rgb(182,50,118)" stroke="rgb(145,39,94)" stroke-width="1" opacity="0.75" />
		</g>
		<g>
			<title>PF00501</title>
			<rect class="PF00501" x="691" y="18" stroke-linejoin="round" width="39" height="26" fill="rgb(60,217,223)" stroke="rgb(48,173,178)" stroke-width="1" opacity="0.75" />
		</g>
		<g>
			<title>PF00668</title>
			<rect class="PF00668" x="732" y="18" stroke-linejoin="round" width="44" height="26" fill="rgb(224,184,98)" stroke="rgb(179,147,78)" stroke-width="1" opacity="0.75" />
		</g>
		<g>
			<title>PF00668</title>
			<rect class="PF00668" x="778" y="18" stroke-linejoin="round" width="45" height="26" fill="rgb(224,184,98)" stroke="rgb(179,147,78)" stroke-width="1" opacity="0.75" />
		</g>
		<g>
			<title>PF00550</title>
			<rect class="PF00550" x="825" y="18" stroke-linejoin="round" width="6" height="26" fill="rgb(103,191,88)" stroke="rgb(82,152,70)" stroke-width="1" opacity="0.75" />
		</g>
		<g>
			<title>PF13193</title>
			<rect class="PF13193" x="834" y="18" stroke-linejoin="round" width="7" height="26" fill="rgb(182,50,118)" stroke="rgb(145,39,94)" stroke-width="1" opacity="0.75" />
		</g>
		<g>
			<title>PF00501</title>
			<rect class="PF00501" x="842" y="18" stroke-linejoin="round" width="39" height="26" fill="rgb(60,217,223)" stroke="rgb(48,173,178)" stroke-width="1" opacity="0.75" />
		</g>
		<g>
			<title>PF00668</title>
			<rect class="PF00668" x="883" y="18" stroke-linejoin="round" width="24" height="26" fill="rgb(224,184,98)" stroke="rgb(179,147,78)" stroke-width="1" opacity="0.75" />
		</g>
	</g>
	<g>
		<title>bmyA</title>
		<polygon class="bmyA" points="1308,16 940,16 940,1 910,31 940,61 940,46 1308,46" fill="rgb(251,183,253)" fill-opacity="1.0" stroke="rgb(100,73,101)" stroke-width="1" />
		<g>
			<title>PF00668</title>
			<polygon class="PF00668" points="912,31 925,18 954,18 954,44 925,44" stroke-linejoin="round" width="43" height="26" fill="rgb(224,184,98)" stroke="rgb(179,147,78)" stroke-width="1" opacity="0.75" />
		</g>
		<g>
			<title>PF00550</title>
			<rect class="PF00550" x="956" y="18" stroke-linejoin="round" width="6" height="26" fill="rgb(103,191,88)" stroke="rgb(82,152,70)" stroke-width="1" opacity="0.75" />
		</g>
		<g>
			<title>PF13193</title>
			<rect class="PF13193" x="965" y="18" stroke-linejoin="round" width="7" height="26" fill="rgb(182,50,118)" stroke="rgb(145,39,94)" stroke-width="1" opacity="0.75" />
		</g>
		<g>
			<title>PF00501</title>
			<rect class="PF00501" x="973" y="18" stroke-linejoin="round" width="39" height="26" fill="rgb(60,217,223)" stroke="rgb(48,173,178)" stroke-width="1" opacity="0.75" />
		</g>
		<g>
			<title>PF00668</title>
			<rect class="PF00668" x="1014" y="18" stroke-linejoin="round" width="43" height="26" fill="rgb(224,184,98)" stroke="rgb(179,147,78)" stroke-width="1" opacity="0.75" />
		</g>
		<g>
			<title>PF00550</title>
			<rect class="PF00550" x="1059" y="18" stroke-linejoin="round" width="6" height="26" fill="rgb(103,191,88)" stroke="rgb(82,152,70)" stroke-width="1" opacity="0.75" />
		</g>
		<g>
			<title>PF00668</title>
			<rect class="PF00668" x="1069" y="18" stroke-linejoin="round" width="44" height="26" fill="rgb(224,184,98)" stroke="rgb(179,147,78)" stroke-width="1" opacity="0.75" />
		</g>
		<g>
			<title>PF00202</title>
			<rect class="PF00202" x="1115" y="18" stroke-linejoin="round" width="39" height="26" fill="rgb(49,163,189)" stroke="rgb(39,130,151)" stroke-width="1" opacity="0.75" />
		</g>
		<g>
			<title>PF00550</title>
			<rect class="PF00550" x="1172" y="18" stroke-linejoin="round" width="6" height="26" fill="rgb(103,191,88)" stroke="rgb(82,152,70)" stroke-width="1" opacity="0.75" />
		</g>
		<g>
			<title>PF16197</title>
			<rect class="PF16197" x="1192" y="18" stroke-linejoin="round" width="11" height="26" fill="rgb(68,179,89)" stroke="rgb(54,143,71)" stroke-width="1" opacity="0.75" />
		</g>
		<g>
			<title>PF02801</title>
			<rect class="PF02801" x="1204" y="18" stroke-linejoin="round" width="11" height="26" fill="rgb(215,78,102)" stroke="rgb(172,62,81)" stroke-width="1" opacity="0.75" />
		</g>
		<g>
			<title>PF00109</title>
			<rect class="PF00109" x="1216" y="18" stroke-linejoin="round" width="24" height="26" fill="rgb(112,116,228)" stroke="rgb(89,92,182)" stroke-width="1" opacity="0.75" />
		</g>
		<g>
			<title>PF00550</title>
			<rect class="PF00550" x="1243" y="18" stroke-linejoin="round" width="6" height="26" fill="rgb(103,191,88)" stroke="rgb(82,152,70)" stroke-width="1" opacity="0.75" />
		</g>
		<g>
			<title>PF00501</title>
			<rect class="PF00501" x="1262" y="18" stroke-linejoin="round" width="43" height="26" fill="rgb(60,217,223)" stroke="rgb(48,173,178)" stroke-width="1" opacity="0.75" />
		</g>
	</g>
	<g>
		<title>bmyD</title>
		<polygon class="bmyD" points="1349,16 1339,16 1339,1 1309,31 1339,61 1339,46 1349,46" fill="rgb(203,212,250)" fill-opacity="1.0" stroke="rgb(81,84,100)" stroke-width="1" />
		<g>
			<title>PF00698</title>
			<polygon class="PF00698" points="1318,24 1324,18 1348,18 1348,44 1324,44 1318,37" stroke-linejoin="round" width="30" height="26" fill="rgb(59,176,209)" stroke="rgb(47,140,167)" stroke-width="1" opacity="0.75" />
		</g>
	</g>
	<g>
		<title>yxjF</title>
		<polygon class="yxjF" points="1393,16 1393,16 1393,1 1367,31 1393,61 1393,46 1393,46" fill="rgb(230,190,252)" fill-opacity="1.0" stroke="rgb(92,76,100)" stroke-width="1" />
		<g>
			<title>PF13561</title>
			<polygon class="PF13561" points="1369,31 1380,18 1391,18 1391,44 1380,44" stroke-linejoin="round" width="24" height="26" fill="rgb(73,205,127)" stroke="rgb(58,164,101)" stroke-width="1" opacity="0.75" />
		</g>
	</g>
	<g>
		<title>scoB</title>
		<polygon class="scoB" points="1416,16 1416,16 1416,1 1394,31 1416,61 1416,46 1416,46" fill="rgb(200,252,203)" fill-opacity="1.0" stroke="rgb(80,100,81)" stroke-width="1" />
		<g>
			<title>PF01144</title>
			<polygon class="PF01144" points="1396,31 1406,18 1414,18 1414,44 1406,44" stroke-linejoin="round" width="19" height="26" fill="rgb(106,96,228)" stroke="rgb(84,76,182)" stroke-width="1" opacity="0.75" />
		</g>
	</g>
	<g>
		<title>scoA</title>
		<polygon class="scoA" points="1440,16 1440,16 1440,1 1417,31 1440,61 1440,46 1440,46" fill="rgb(216,251,203)" fill-opacity="1.0" stroke="rgb(86,100,81)" stroke-width="1" />
		<g>
			<title>PF01144</title>
			<polygon class="PF01144" points="1419,31 1429,18 1439,18 1439,44 1429,44" stroke-linejoin="round" width="21" height="26" fill="rgb(106,96,228)" stroke="rgb(84,76,182)" stroke-width="1" opacity="0.75" />
		</g>
	</g>
</svg>
