<svg version="1.1" baseProfile="full" xmlns="http://www.w3.org/2000/svg" width="1004" height="62">
	<line x1="1" y1="31" x2="1003" y2="31" style="stroke:rgb(50,50,50); stroke-width:3 "/>
	<g>
		<polygon class="NoName" points="75,16 31,16 31,1 1,31 31,61 31,46 75,46" fill="rgb(255,255,255)" fill-opacity="1.0" stroke="rgb(50,50,50)" stroke-width="1" />
	</g>
	<g>
		<title>lasG</title>
		<polygon class="lasG" points="159,16 159,16 159,1 134,31 159,61 159,46 159,46" fill="rgb(185,254,224)" fill-opacity="1.0" stroke="rgb(74,101,89)" stroke-width="1" />
		<g>
			<title>PF00043</title>
			<polygon class="PF00043" points="139,28 147,18 148,18 148,44 147,44 139,33" stroke-linejoin="round" width="9" height="26" fill="rgb(102,108,211)" stroke="rgb(81,86,168)" stroke-width="1" opacity="0.75" />
		</g>
		<g>
			<title>PF02798</title>
			<rect class="PF02798" x="152" y="18" stroke-linejoin="round" width="7" height="26" fill="rgb(82,167,186)" stroke="rgb(65,133,148)" stroke-width="1" opacity="0.75" />
		</g>
	</g>
	<g>
		<title>lasS1</title>
		<polygon class="lasS1" points="177,16 400,16 400,1 430,31 400,61 400,46 177,46" fill="rgb(254,250,192)" fill-opacity="1.0" stroke="rgb(101,100,76)" stroke-width="1" />
		<g>
			<title>PF00109</title>
			<rect class="PF00109" x="177" y="18" stroke-linejoin="round" width="25" height="26" fill="rgb(112,116,228)" stroke="rgb(89,92,182)" stroke-width="1" opacity="0.75" />
		</g>
		<g>
			<title>PF02801</title>
			<rect class="PF02801" x="203" y="18" stroke-linejoin="round" width="11" height="26" fill="rgb(215,78,102)" stroke="rgb(172,62,81)" stroke-width="1" opacity="0.75" />
		</g>
		<g>
			<title>PF16197</title>
			<rect class="PF16197" x="215" y="18" stroke-linejoin="round" width="14" height="26" fill="rgb(68,179,89)" stroke="rgb(54,143,71)" stroke-width="1" opacity="0.75" />
		</g>
		<g>
			<title>PF00698</title>
			<rect class="PF00698" x="233" y="18" stroke-linejoin="round" width="33" height="26" fill="rgb(59,176,209)" stroke="rgb(47,140,167)" stroke-width="1" opacity="0.75" />
		</g>
		<g>
			<title>PF14765</title>
			<rect class="PF14765" x="271" y="18" stroke-linejoin="round" width="32" height="26" fill="rgb(173,56,182)" stroke="rgb(138,44,145)" stroke-width="1" opacity="0.75" />
		</g>
		<g>
			<title>PF08240</title>
			<rect class="PF08240" x="345" y="18" stroke-linejoin="round" width="7" height="26" fill="rgb(211,65,138)" stroke="rgb(168,51,110)" stroke-width="1" opacity="0.75" />
		</g>
		<g>
			<title>PF00107</title>
			<rect class="PF00107" x="357" y="18" stroke-linejoin="round" width="12" height="26" fill="rgb(81,108,215)" stroke="rgb(64,86,172)" stroke-width="1" opacity="0.75" />
		</g>
		<g>
			<title>PF08659</title>
			<rect class="PF08659" x="378" y="18" stroke-linejoin="round" width="18" height="26" fill="rgb(66,209,188)" stroke="rgb(52,167,150)" stroke-width="1" opacity="0.75" />
		</g>
		<g>
			<title>PF00550</title>
			<rect class="PF00550" x="408" y="18" stroke-linejoin="round" width="6" height="26" fill="rgb(103,191,88)" stroke="rgb(82,152,70)" stroke-width="1" opacity="0.75" />
		</g>
	</g>
	<g>
		<title>lasM</title>
		<polygon class="lasM" points="470,16 492,16 492,1 522,31 492,61 492,46 470,46" fill="rgb(207,252,194)" fill-opacity="1.0" stroke="rgb(82,100,77)" stroke-width="1" />
		<g>
			<title>PF00891</title>
			<polygon class="PF00891" points="484,18 506,18 507,19 507,43 506,44 484,44" stroke-linejoin="round" width="23" height="26" fill="rgb(50,51,190)" stroke="rgb(39,40,152)" stroke-width="1" opacity="0.75" />
		</g>
	</g>
	<g>
		<title>lasR</title>
		<polygon class="lasR" points="590,16 581,16 581,1 551,31 581,61 581,46 590,46" fill="rgb(238,251,198)" fill-opacity="1.0" stroke="rgb(95,100,79)" stroke-width="1" />
	</g>
	<g>
		<title>lasS2</title>
		<polygon class="lasS2" points="677,16 868,16 868,1 898,31 868,61 868,46 677,46" fill="rgb(244,250,201)" fill-opacity="1.0" stroke="rgb(97,100,80)" stroke-width="1" />
		<g>
			<title>PF16073</title>
			<rect class="PF16073" x="677" y="18" stroke-linejoin="round" width="23" height="26" fill="rgb(77,115,183)" stroke="rgb(61,91,146)" stroke-width="1" opacity="0.75" />
		</g>
		<g>
			<title>PF00109</title>
			<rect class="PF00109" x="713" y="18" stroke-linejoin="round" width="25" height="26" fill="rgb(112,116,228)" stroke="rgb(89,92,182)" stroke-width="1" opacity="0.75" />
		</g>
		<g>
			<title>PF02801</title>
			<rect class="PF02801" x="739" y="18" stroke-linejoin="round" width="11" height="26" fill="rgb(215,78,102)" stroke="rgb(172,62,81)" stroke-width="1" opacity="0.75" />
		</g>
		<g>
			<title>PF00698</title>
			<rect class="PF00698" x="765" y="18" stroke-linejoin="round" width="31" height="26" fill="rgb(59,176,209)" stroke="rgb(47,140,167)" stroke-width="1" opacity="0.75" />
		</g>
		<g>
			<title>PF14765</title>
			<rect class="PF14765" x="803" y="18" stroke-linejoin="round" width="30" height="26" fill="rgb(173,56,182)" stroke="rgb(138,44,145)" stroke-width="1" opacity="0.75" />
		</g>
		<g>
			<title>PF00550</title>
			<rect class="PF00550" x="840" y="18" stroke-linejoin="round" width="6" height="26" fill="rgb(103,191,88)" stroke="rgb(82,152,70)" stroke-width="1" opacity="0.75" />
		</g>
		<g>
			<title>PF00975</title>
			<rect class="PF00975" x="857" y="18" stroke-linejoin="round" width="12" height="26" fill="rgb(207,80,138)" stroke="rgb(165,63,110)" stroke-width="1" opacity="0.75" />
		</g>
	</g>
	<g>
		<polygon class="NoName" points="955,16 972,16 972,1 1002,31 972,61 972,46 955,46" fill="rgb(255,255,255)" fill-opacity="1.0" stroke="rgb(50,50,50)" stroke-width="1" />
		<g>
			<title>PF00082</title>
			<polygon class="PF00082" points="976,18 986,18 999,31 986,44 976,44" stroke-linejoin="round" width="24" height="26" fill="rgb(193,159,94)" stroke="rgb(154,127,75)" stroke-width="1" opacity="0.75" />
		</g>
	</g>
</svg>
