<svg version="1.1" baseProfile="full" xmlns="http://www.w3.org/2000/svg" width="1668" height="62">
	<line x1="1" y1="31" x2="1667" y2="31" style="stroke:rgb(50,50,50); stroke-width:3 "/>
	<g>
		<title>STK</title>
		<polygon class="STK" points="1347,16 1353,16 1353,1 1383,31 1353,61 1353,46 1347,46" fill="rgb(251,210,192)" fill-opacity="1.0" stroke="rgb(100,84,76)" stroke-width="1" />
		<g>
			<title>PF00069</title>
			<polygon class="PF00069" points="1357,18 1367,18 1380,31 1380,31 1367,44 1357,44" stroke-linejoin="round" width="23" height="26" fill="rgb(104,187,65)" stroke="rgb(83,149,51)" stroke-width="1" opacity="0.75" />
		</g>
	</g>
	<g>
		<title>ACA</title>
		<polygon class="ACA" points="1535,16 1432,16 1432,1 1402,31 1432,61 1432,46 1535,46" fill="rgb(250,248,184)" fill-opacity="1.0" stroke="rgb(100,99,73)" stroke-width="1" />
		<g>
			<title>PF00689</title>
			<rect class="PF00689" x="1422" y="18" stroke-linejoin="round" width="17" height="26" fill="rgb(76,203,161)" stroke="rgb(60,162,128)" stroke-width="1" opacity="0.75" />
		</g>
		<g>
			<title>PF13246</title>
			<rect class="PF13246" x="1466" y="18" stroke-linejoin="round" width="11" height="26" fill="rgb(200,58,79)" stroke="rgb(160,46,63)" stroke-width="1" opacity="0.75" />
		</g>
		<g>
			<title>PF00122</title>
			<rect class="PF00122" x="1484" y="18" stroke-linejoin="round" width="25" height="26" fill="rgb(149,204,70)" stroke="rgb(119,163,56)" stroke-width="1" opacity="0.75" />
		</g>
		<g>
			<title>PF00690</title>
			<rect class="PF00690" x="1512" y="18" stroke-linejoin="round" width="4" height="26" fill="rgb(174,102,225)" stroke="rgb(139,81,180)" stroke-width="1" opacity="0.75" />
		</g>
	</g>
	<g>
		<title>ALD</title>
		<polygon class="ALD" points="142,16 120,16 120,1 90,31 120,61 120,46 142,46" fill="rgb(207,227,253)" fill-opacity="1.0" stroke="rgb(82,90,101)" stroke-width="1" />
		<g>
			<title>PF00171</title>
			<polygon class="PF00171" points="94,29 105,18 139,18 139,44 105,44 94,32" stroke-linejoin="round" width="45" height="26" fill="rgb(105,213,139)" stroke="rgb(84,170,111)" stroke-width="1" opacity="0.75" />
		</g>
	</g>
	<g>
		<title>HET</title>
		<polygon class="HET" points="284,16 189,16 189,1 159,31 189,61 189,46 284,46" fill="rgb(222,197,250)" fill-opacity="1.0" stroke="rgb(88,78,100)" stroke-width="1" />
		<g>
			<title>PF06985</title>
			<rect class="PF06985" x="201" y="18" stroke-linejoin="round" width="13" height="26" fill="rgb(222,108,192)" stroke="rgb(177,86,153)" stroke-width="1" opacity="0.75" />
		</g>
	</g>
	<g>
		<title>NPS</title>
		<polygon class="NPS" points="534,16 332,16 332,1 302,31 332,61 332,46 534,46" fill="rgb(204,252,212)" fill-opacity="1.0" stroke="rgb(81,100,84)" stroke-width="1" />
		<g>
			<title>PF07993</title>
			<polygon class="PF07993" points="315,20 317,18 339,18 339,44 317,44 315,41" stroke-linejoin="round" width="24" height="26" fill="rgb(100,212,204)" stroke="rgb(80,169,163)" stroke-width="1" opacity="0.75" />
		</g>
		<g>
			<title>PF00550</title>
			<rect class="PF00550" x="344" y="18" stroke-linejoin="round" width="6" height="26" fill="rgb(103,191,88)" stroke="rgb(82,152,70)" stroke-width="1" opacity="0.75" />
		</g>
		<g>
			<title>PF00501</title>
			<rect class="PF00501" x="365" y="18" stroke-linejoin="round" width="39" height="26" fill="rgb(60,217,223)" stroke="rgb(48,173,178)" stroke-width="1" opacity="0.75" />
		</g>
		<g>
			<title>PF00668</title>
			<rect class="PF00668" x="406" y="18" stroke-linejoin="round" width="42" height="26" fill="rgb(224,184,98)" stroke="rgb(179,147,78)" stroke-width="1" opacity="0.75" />
		</g>
		<g>
			<title>PF00550</title>
			<rect class="PF00550" x="453" y="18" stroke-linejoin="round" width="6" height="26" fill="rgb(103,191,88)" stroke="rgb(82,152,70)" stroke-width="1" opacity="0.75" />
		</g>
		<g>
			<title>PF00501</title>
			<rect class="PF00501" x="472" y="18" stroke-linejoin="round" width="40" height="26" fill="rgb(60,217,223)" stroke="rgb(48,173,178)" stroke-width="1" opacity="0.75" />
		</g>
	</g>
	<g>
		<title>MCT</title>
		<polygon class="MCT" points="564,16 578,16 578,1 608,31 578,61 578,46 564,46" fill="rgb(231,249,195)" fill-opacity="1.0" stroke="rgb(92,99,78)" stroke-width="1" />
		<g>
			<title>PF07690</title>
			<polygon class="PF07690" points="564,18 592,18 596,22 596,40 592,44 564,44" stroke-linejoin="round" width="32" height="26" fill="rgb(193,224,74)" stroke="rgb(154,179,59)" stroke-width="1" opacity="0.75" />
		</g>
	</g>
	<g>
		<title>KAT</title>
		<polygon class="KAT" points="626,16 634,16 634,1 664,31 634,61 634,46 626,46" fill="rgb(251,203,220)" fill-opacity="1.0" stroke="rgb(100,81,88)" stroke-width="1" />
		<g>
			<title>PF00248</title>
			<polygon class="PF00248" points="627,18 648,18 658,28 658,34 648,44 627,44" stroke-linejoin="round" width="31" height="26" fill="rgb(225,205,58)" stroke="rgb(180,164,46)" stroke-width="1" opacity="0.75" />
		</g>
	</g>
	<g>
		<title>PKS13</title>
		<polygon class="PKS13" points="884,16 704,16 704,1 674,31 704,61 704,46 884,46" fill="rgb(196,254,196)" fill-opacity="1.0" stroke="rgb(78,101,78)" stroke-width="1" />
		<g>
			<title>PF00975</title>
			<rect class="PF00975" x="690" y="18" stroke-linejoin="round" width="17" height="26" fill="rgb(207,80,138)" stroke="rgb(165,63,110)" stroke-width="1" opacity="0.75" />
		</g>
		<g>
			<title>PF00550</title>
			<rect class="PF00550" x="716" y="18" stroke-linejoin="round" width="6" height="26" fill="rgb(103,191,88)" stroke="rgb(82,152,70)" stroke-width="1" opacity="0.75" />
		</g>
		<g>
			<title>PF14765</title>
			<rect class="PF14765" x="727" y="18" stroke-linejoin="round" width="30" height="26" fill="rgb(173,56,182)" stroke="rgb(138,44,145)" stroke-width="1" opacity="0.75" />
		</g>
		<g>
			<title>PF00698</title>
			<rect class="PF00698" x="765" y="18" stroke-linejoin="round" width="30" height="26" fill="rgb(59,176,209)" stroke="rgb(47,140,167)" stroke-width="1" opacity="0.75" />
		</g>
		<g>
			<title>PF02801</title>
			<rect class="PF02801" x="810" y="18" stroke-linejoin="round" width="11" height="26" fill="rgb(215,78,102)" stroke="rgb(172,62,81)" stroke-width="1" opacity="0.75" />
		</g>
		<g>
			<title>PF00109</title>
			<rect class="PF00109" x="823" y="18" stroke-linejoin="round" width="25" height="26" fill="rgb(112,116,228)" stroke="rgb(89,92,182)" stroke-width="1" opacity="0.75" />
		</g>
		<g>
			<title>PF16073</title>
			<rect class="PF16073" x="860" y="18" stroke-linejoin="round" width="23" height="26" fill="rgb(77,115,183)" stroke="rgb(61,91,146)" stroke-width="1" opacity="0.75" />
		</g>
	</g>
	<g>
		<title>PKS4</title>
		<polygon class="PKS4" points="919,16 1134,16 1134,1 1164,31 1134,61 1134,46 919,46" fill="rgb(251,208,206)" fill-opacity="1.0" stroke="rgb(100,83,82)" stroke-width="1" />
		<g>
			<title>PF00109</title>
			<rect class="PF00109" x="920" y="18" stroke-linejoin="round" width="24" height="26" fill="rgb(112,116,228)" stroke="rgb(89,92,182)" stroke-width="1" opacity="0.75" />
		</g>
		<g>
			<title>PF02801</title>
			<rect class="PF02801" x="945" y="18" stroke-linejoin="round" width="11" height="26" fill="rgb(215,78,102)" stroke="rgb(172,62,81)" stroke-width="1" opacity="0.75" />
		</g>
		<g>
			<title>PF16197</title>
			<rect class="PF16197" x="957" y="18" stroke-linejoin="round" width="10" height="26" fill="rgb(68,179,89)" stroke="rgb(54,143,71)" stroke-width="1" opacity="0.75" />
		</g>
		<g>
			<title>PF00698</title>
			<rect class="PF00698" x="972" y="18" stroke-linejoin="round" width="33" height="26" fill="rgb(59,176,209)" stroke="rgb(47,140,167)" stroke-width="1" opacity="0.75" />
		</g>
		<g>
			<title>PF14765</title>
			<rect class="PF14765" x="1010" y="18" stroke-linejoin="round" width="31" height="26" fill="rgb(173,56,182)" stroke="rgb(138,44,145)" stroke-width="1" opacity="0.75" />
		</g>
		<g>
			<title>PF13602</title>
			<rect class="PF13602" x="1099" y="18" stroke-linejoin="round" width="13" height="26" fill="rgb(101,131,226)" stroke="rgb(80,104,180)" stroke-width="1" opacity="0.75" />
		</g>
		<g>
			<title>PF08659</title>
			<rect class="PF08659" x="1116" y="18" stroke-linejoin="round" width="18" height="26" fill="rgb(66,209,188)" stroke="rgb(52,167,150)" stroke-width="1" opacity="0.75" />
		</g>
		<g>
			<title>PF00550</title>
			<polygon class="PF00550" points="1145,18 1148,18 1150,20 1150,42 1148,44 1145,44" stroke-linejoin="round" width="5" height="26" fill="rgb(103,191,88)" stroke="rgb(82,152,70)" stroke-width="1" opacity="0.75" />
		</g>
	</g>
	<g>
		<title>ZEB1</title>
		<polygon class="ZEB1" points="1184,16 1216,16 1216,1 1246,31 1216,61 1216,46 1184,46" fill="rgb(250,193,196)" fill-opacity="1.0" stroke="rgb(100,77,78)" stroke-width="1" />
		<g>
			<title>PF01565</title>
			<rect class="PF01565" x="1195" y="18" stroke-linejoin="round" width="14" height="26" fill="rgb(226,88,136)" stroke="rgb(180,70,108)" stroke-width="1" opacity="0.75" />
		</g>
		<g>
			<title>PF08031</title>
			<polygon class="PF08031" points="1234,22 1238,26 1238,36 1234,40" stroke-linejoin="round" width="4" height="26" fill="rgb(210,73,83)" stroke="rgb(168,58,66)" stroke-width="1" opacity="0.75" />
		</g>
	</g>
	<g>
		<title>ZEB2</title>
		<polygon class="ZEB2" points="1288,16 1284,16 1284,1 1254,31 1284,61 1284,46 1288,46" fill="rgb(224,253,184)" fill-opacity="1.0" stroke="rgb(89,101,73)" stroke-width="1" />
	</g>
</svg>
