<svg version="1.1" baseProfile="full" xmlns="http://www.w3.org/2000/svg" width="643" height="62">
	<line x1="1" y1="31" x2="642" y2="31" style="stroke:rgb(50,50,50); stroke-width:3 "/>
	<g>
		<polygon class="NoName" points="410,16 410,16 410,1 438,31 410,61 410,46 410,46" fill="rgb(255,255,255)" fill-opacity="1.0" stroke="rgb(50,50,50)" stroke-width="1" />
	</g>
	<g>
		<polygon class="NoName" points="438,16 438,16 438,1 456,31 438,61 438,46 438,46" fill="rgb(255,255,255)" fill-opacity="1.0" stroke="rgb(50,50,50)" stroke-width="1" />
		<g>
			<title>PF00132</title>
			<polygon class="PF00132" points="449,24 452,29 452,33 449,38" stroke-linejoin="round" width="3" height="26" fill="rgb(89,131,202)" stroke="rgb(71,104,161)" stroke-width="1" opacity="0.75" />
		</g>
	</g>
	<g>
		<polygon class="NoName" points="457,16 459,16 459,1 489,31 459,61 459,46 457,46" fill="rgb(255,255,255)" fill-opacity="1.0" stroke="rgb(50,50,50)" stroke-width="1" />
	</g>
	<g>
		<polygon class="NoName" points="490,16 490,16 490,1 504,31 490,61 490,46 490,46" fill="rgb(255,255,255)" fill-opacity="1.0" stroke="rgb(50,50,50)" stroke-width="1" />
		<g>
			<title>PF08660</title>
			<polygon class="PF08660" points="494,18 495,18 501,31 495,44 494,44" stroke-linejoin="round" width="9" height="26" fill="rgb(171,179,66)" stroke="rgb(136,143,52)" stroke-width="1" opacity="0.75" />
		</g>
	</g>
	<g>
		<polygon class="NoName" points="505,16 505,16 505,1 521,31 505,61 505,46 505,46" fill="rgb(255,255,255)" fill-opacity="1.0" stroke="rgb(50,50,50)" stroke-width="1" />
		<g>
			<title>PF04101</title>
			<polygon class="PF04101" points="505,18 511,18 517,28 517,34 511,44 505,44" stroke-linejoin="round" width="12" height="26" fill="rgb(211,90,140)" stroke="rgb(168,72,112)" stroke-width="1" opacity="0.75" />
		</g>
	</g>
	<g>
		<title>rfbp</title>
		<polygon class="rfbp" points="530,16 546,16 546,1 576,31 546,61 546,46 530,46" fill="rgb(251,204,242)" fill-opacity="1.0" stroke="rgb(100,81,96)" stroke-width="1" />
		<g>
			<title>PF13727</title>
			<rect class="PF13727" x="536" y="18" stroke-linejoin="round" width="17" height="26" fill="rgb(153,200,97)" stroke="rgb(122,160,77)" stroke-width="1" opacity="0.75" />
		</g>
		<g>
			<title>PF02397</title>
			<polygon class="PF02397" points="557,18 560,18 573,31 560,44 557,44" stroke-linejoin="round" width="18" height="26" fill="rgb(57,165,209)" stroke="rgb(45,131,167)" stroke-width="1" opacity="0.75" />
		</g>
	</g>
	<g>
		<title>gnd</title>
		<polygon class="gnd" points="583,16 599,16 599,1 629,31 599,61 599,46 583,46" fill="rgb(187,253,229)" fill-opacity="1.0" stroke="rgb(74,101,91)" stroke-width="1" />
		<g>
			<title>PF03446</title>
			<rect class="PF03446" x="583" y="18" stroke-linejoin="round" width="16" height="26" fill="rgb(205,164,98)" stroke="rgb(164,131,78)" stroke-width="1" opacity="0.75" />
		</g>
		<g>
			<title>PF00393</title>
			<polygon class="PF00393" points="600,18 613,18 626,31 613,44 600,44" stroke-linejoin="round" width="28" height="26" fill="rgb(57,119,210)" stroke="rgb(45,95,168)" stroke-width="1" opacity="0.75" />
		</g>
	</g>
	<g>
		<title>galF</title>
		<polygon class="galF" points="6,16 6,16 6,1 35,31 6,61 6,46 6,46" fill="rgb(253,238,199)" fill-opacity="1.0" stroke="rgb(101,95,79)" stroke-width="1" />
		<g>
			<title>PF00483</title>
			<polygon class="PF00483" points="6,18 19,18 32,31 19,44 6,44" stroke-linejoin="round" width="27" height="26" fill="rgb(198,101,87)" stroke="rgb(158,80,69)" stroke-width="1" opacity="0.75" />
		</g>
	</g>
	<g>
		<title>acidPPc</title>
		<polygon class="acidPPc" points="49,16 49,16 49,1 70,31 49,61 49,46 49,46" fill="rgb(253,233,210)" fill-opacity="1.0" stroke="rgb(101,93,84)" stroke-width="1" />
		<g>
			<title>PF01569</title>
			<polygon class="PF01569" points="54,18 58,18 63,25 63,37 58,44 54,44" stroke-linejoin="round" width="9" height="26" fill="rgb(133,203,94)" stroke="rgb(106,162,75)" stroke-width="1" opacity="0.75" />
		</g>
	</g>
	<g>
		<title>wzi</title>
		<polygon class="wzi" points="101,16 118,16 118,1 148,31 118,61 118,46 101,46" fill="rgb(254,250,206)" fill-opacity="1.0" stroke="rgb(101,100,82)" stroke-width="1" />
		<g>
			<title>PF14052</title>
			<polygon class="PF14052" points="104,18 132,18 145,31 132,44 104,44" stroke-linejoin="round" width="43" height="26" fill="rgb(58,137,189)" stroke="rgb(46,109,151)" stroke-width="1" opacity="0.75" />
		</g>
	</g>
	<g>
		<title>wza</title>
		<polygon class="wza" points="153,16 160,16 160,1 190,31 160,61 160,46 153,46" fill="rgb(218,191,252)" fill-opacity="1.0" stroke="rgb(87,76,100)" stroke-width="1" />
		<g>
			<title>PF02563</title>
			<rect class="PF02563" x="161" y="18" stroke-linejoin="round" width="8" height="26" fill="rgb(125,185,59)" stroke="rgb(100,148,47)" stroke-width="1" opacity="0.75" />
		</g>
		<g>
			<title>PF10531</title>
			<polygon class="PF10531" points="170,18 174,18 175,19 175,43 174,44 170,44" stroke-linejoin="round" width="5" height="26" fill="rgb(92,145,209)" stroke="rgb(73,116,167)" stroke-width="1" opacity="0.75" />
		</g>
		<g>
			<title>PF10531</title>
			<polygon class="PF10531" points="178,22 183,27 183,35 178,40" stroke-linejoin="round" width="5" height="26" fill="rgb(92,145,209)" stroke="rgb(73,116,167)" stroke-width="1" opacity="0.75" />
		</g>
	</g>
	<g>
		<title>wzb</title>
		<polygon class="wzb" points="191,16 191,16 191,1 205,31 191,61 191,46 191,46" fill="rgb(253,198,221)" fill-opacity="1.0" stroke="rgb(101,79,88)" stroke-width="1" />
		<g>
			<title>PF01451</title>
			<polygon class="PF01451" points="191,18 196,18 202,31 196,44 191,44" stroke-linejoin="round" width="13" height="26" fill="rgb(199,53,196)" stroke="rgb(159,42,156)" stroke-width="1" opacity="0.75" />
		</g>
	</g>
	<g>
		<title>wzc</title>
		<polygon class="wzc" points="206,16 248,16 248,1 278,31 248,61 248,46 206,46" fill="rgb(214,253,243)" fill-opacity="1.0" stroke="rgb(85,101,97)" stroke-width="1" />
		<g>
			<title>PF02706</title>
			<rect class="PF02706" x="207" y="18" stroke-linejoin="round" width="23" height="26" fill="rgb(184,132,90)" stroke="rgb(147,105,72)" stroke-width="1" opacity="0.75" />
		</g>
		<g>
			<title>PF13807</title>
			<rect class="PF13807" x="242" y="18" stroke-linejoin="round" width="8" height="26" fill="rgb(77,110,190)" stroke="rgb(61,87,152)" stroke-width="1" opacity="0.75" />
		</g>
		<g>
			<title>PF13614</title>
			<polygon class="PF13614" points="259,18 262,18 272,28 272,34 262,44 259,44" stroke-linejoin="round" width="13" height="26" fill="rgb(144,187,62)" stroke="rgb(115,149,49)" stroke-width="1" opacity="0.75" />
		</g>
	</g>
	<g>
		<title>wzy_K5</title>
		<polygon class="wzy_K5" points="284,16 294,16 294,1 324,31 294,61 294,46 284,46" fill="rgb(250,208,232)" fill-opacity="1.0" stroke="rgb(100,83,92)" stroke-width="1" />
	</g>
	<g>
		<title>wzx</title>
		<polygon class="wzx" points="325,16 343,16 343,1 373,31 343,61 343,46 325,46" fill="rgb(235,180,250)" fill-opacity="1.0" stroke="rgb(93,72,100)" stroke-width="1" />
		<g>
			<title>PF01943</title>
			<rect class="PF01943" x="326" y="18" stroke-linejoin="round" width="28" height="26" fill="rgb(71,213,101)" stroke="rgb(56,170,80)" stroke-width="1" opacity="0.75" />
		</g>
	</g>
	<g>
		<polygon class="NoName" points="373,16 381,16 381,1 411,31 381,61 381,46 373,46" fill="rgb(255,255,255)" fill-opacity="1.0" stroke="rgb(50,50,50)" stroke-width="1" />
		<g>
			<title>PF04230</title>
			<polygon class="PF04230" points="374,18 395,18 403,26 403,36 395,44 374,44" stroke-linejoin="round" width="29" height="26" fill="rgb(211,93,213)" stroke="rgb(168,74,170)" stroke-width="1" opacity="0.75" />
		</g>
	</g>
</svg>
