<svg version="1.1" baseProfile="full" xmlns="http://www.w3.org/2000/svg" width="1557" height="62">
	<line x1="1" y1="31" x2="1556" y2="31" style="stroke:rgb(50,50,50); stroke-width:3 "/>
	<g>
		<title>clmD2</title>
		<polygon class="clmD2" points="457,16 434,16 434,1 404,31 434,61 434,46 457,46" fill="rgb(181,198,254)" fill-opacity="1.0" stroke="rgb(72,79,101)" stroke-width="1" />
		<g>
			<title>PF08031</title>
			<polygon class="PF08031" points="406,31 411,26 411,35" stroke-linejoin="round" width="5" height="26" fill="rgb(210,73,83)" stroke="rgb(168,58,66)" stroke-width="1" opacity="0.75" />
		</g>
		<g>
			<title>PF01565</title>
			<rect class="PF01565" x="439" y="18" stroke-linejoin="round" width="13" height="26" fill="rgb(226,88,136)" stroke="rgb(180,70,108)" stroke-width="1" opacity="0.75" />
		</g>
	</g>
	<g>
		<title>clmAT</title>
		<polygon class="clmAT" points="463,16 487,16 487,1 517,31 487,61 487,46 463,46" fill="rgb(188,207,253)" fill-opacity="1.0" stroke="rgb(75,82,101)" stroke-width="1" />
		<g>
			<title>PF00202</title>
			<polygon class="PF00202" points="466,18 501,18 514,31 501,44 466,44" stroke-linejoin="round" width="49" height="26" fill="rgb(49,163,189)" stroke="rgb(39,130,151)" stroke-width="1" opacity="0.75" />
		</g>
	</g>
	<g>
		<title>clmM1</title>
		<polygon class="clmM1" points="521,16 523,16 523,1 553,31 523,61 523,46 521,46" fill="rgb(198,183,251)" fill-opacity="1.0" stroke="rgb(79,73,100)" stroke-width="1" />
		<g>
			<title>PF00891</title>
			<polygon class="PF00891" points="529,18 537,18 550,31 537,44 529,44" stroke-linejoin="round" width="22" height="26" fill="rgb(50,51,190)" stroke="rgb(39,40,152)" stroke-width="1" opacity="0.75" />
		</g>
	</g>
	<g>
		<title>clmG1</title>
		<polygon class="clmG1" points="603,16 587,16 587,1 557,31 587,61 587,46 603,46" fill="rgb(250,225,210)" fill-opacity="1.0" stroke="rgb(100,90,84)" stroke-width="1" />
		<g>
			<title>PF00171</title>
			<polygon class="PF00171" points="559,31 572,18 600,18 600,44 572,44" stroke-linejoin="round" width="43" height="26" fill="rgb(105,213,139)" stroke="rgb(84,170,111)" stroke-width="1" opacity="0.75" />
		</g>
	</g>
	<g>
		<title>clmG2</title>
		<polygon class="clmG2" points="637,16 633,16 633,1 603,31 633,61 633,46 637,46" fill="rgb(194,252,203)" fill-opacity="1.0" stroke="rgb(77,100,81)" stroke-width="1" />
		<g>
			<title>PF00501</title>
			<polygon class="PF00501" points="607,29 618,18 629,18 629,44 618,44 607,32" stroke-linejoin="round" width="22" height="26" fill="rgb(60,217,223)" stroke="rgb(48,173,178)" stroke-width="1" opacity="0.75" />
		</g>
	</g>
	<g>
		<title>clmM</title>
		<polygon class="clmM" points="647,16 657,16 657,1 687,31 657,61 657,46 647,46" fill="rgb(178,250,215)" fill-opacity="1.0" stroke="rgb(71,100,86)" stroke-width="1" />
		<g>
			<title>PF01494</title>
			<polygon class="PF01494" points="647,18 671,18 681,28 681,34 671,44 647,44" stroke-linejoin="round" width="34" height="26" fill="rgb(182,175,59)" stroke="rgb(145,140,47)" stroke-width="1" opacity="0.75" />
		</g>
	</g>
	<g>
		<title>clmAH</title>
		<polygon class="clmAH" points="731,16 720,16 720,1 690,31 720,61 720,46 731,46" fill="rgb(250,249,197)" fill-opacity="1.0" stroke="rgb(100,99,78)" stroke-width="1" />
		<g>
			<title>PF01979</title>
			<polygon class="PF01979" points="692,31 705,18 725,18 725,44 705,44" stroke-linejoin="round" width="35" height="26" fill="rgb(210,93,184)" stroke="rgb(168,74,147)" stroke-width="1" opacity="0.75" />
		</g>
	</g>
	<g>
		<title>clmAL</title>
		<polygon class="clmAL" points="787,16 761,16 761,1 731,31 761,61 761,46 787,46" fill="rgb(251,178,248)" fill-opacity="1.0" stroke="rgb(100,71,99)" stroke-width="1" />
		<g>
			<title>PF13193</title>
			<polygon class="PF13193" points="733,31 739,25 739,36" stroke-linejoin="round" width="7" height="26" fill="rgb(182,50,118)" stroke="rgb(145,39,94)" stroke-width="1" opacity="0.75" />
		</g>
		<g>
			<title>PF00501</title>
			<polygon class="PF00501" points="741,23 746,18 783,18 783,44 746,44 741,38" stroke-linejoin="round" width="42" height="26" fill="rgb(60,217,223)" stroke="rgb(48,173,178)" stroke-width="1" opacity="0.75" />
		</g>
	</g>
	<g>
		<title>clmP</title>
		<polygon class="clmP" points="796,16 796,16 796,1 788,31 796,61 796,46 796,46" fill="rgb(225,193,254)" fill-opacity="1.0" stroke="rgb(89,77,101)" stroke-width="1" />
		<g>
			<title>PF00550</title>
			<polygon class="PF00550" points="790,31 793,18 794,18 794,44 793,44" stroke-linejoin="round" width="5" height="26" fill="rgb(103,191,88)" stroke="rgb(82,152,70)" stroke-width="1" opacity="0.75" />
		</g>
	</g>
	<g>
		<title>clmL</title>
		<polygon class="clmL" points="804,16 819,16 819,1 849,31 819,61 819,46 804,46" fill="rgb(253,205,238)" fill-opacity="1.0" stroke="rgb(101,82,95)" stroke-width="1" />
		<g>
			<title>PF01041</title>
			<polygon class="PF01041" points="808,18 833,18 846,31 846,31 833,44 808,44" stroke-linejoin="round" width="38" height="26" fill="rgb(59,139,191)" stroke="rgb(47,111,152)" stroke-width="1" opacity="0.75" />
		</g>
	</g>
	<g>
		<polygon class="NoName" points="75,16 49,16 49,1 19,31 49,61 49,46 75,46" fill="rgb(255,255,255)" fill-opacity="1.0" stroke="rgb(50,50,50)" stroke-width="1" />
		<g>
			<title>PF00270</title>
			<polygon class="PF00270" points="21,31 33,19 33,42" stroke-linejoin="round" width="14" height="26" fill="rgb(195,100,62)" stroke="rgb(156,80,49)" stroke-width="1" opacity="0.75" />
		</g>
		<g>
			<title>PF00069</title>
			<rect class="PF00069" x="48" y="18" stroke-linejoin="round" width="25" height="26" fill="rgb(104,187,65)" stroke="rgb(83,149,51)" stroke-width="1" opacity="0.75" />
		</g>
	</g>
	<g>
		<title>clmS</title>
		<polygon class="clmS" points="850,16 859,16 859,1 889,31 859,61 859,46 850,46" fill="rgb(252,184,202)" fill-opacity="1.0" stroke="rgb(100,73,80)" stroke-width="1" />
		<g>
			<title>PF01266</title>
			<polygon class="PF01266" points="850,18 873,18 886,31 886,31 873,44 850,44" stroke-linejoin="round" width="36" height="26" fill="rgb(123,179,59)" stroke="rgb(98,143,47)" stroke-width="1" opacity="0.75" />
		</g>
	</g>
	<g>
		<title>clmN1</title>
		<polygon class="clmN1" points="885,16 1110,16 1110,1 1140,31 1110,61 1110,46 885,46" fill="rgb(192,250,200)" fill-opacity="1.0" stroke="rgb(76,100,80)" stroke-width="1" />
		<g>
			<title>PF00109</title>
			<rect class="PF00109" x="892" y="18" stroke-linejoin="round" width="25" height="26" fill="rgb(112,116,228)" stroke="rgb(89,92,182)" stroke-width="1" opacity="0.75" />
		</g>
		<g>
			<title>PF02801</title>
			<rect class="PF02801" x="918" y="18" stroke-linejoin="round" width="11" height="26" fill="rgb(215,78,102)" stroke="rgb(172,62,81)" stroke-width="1" opacity="0.75" />
		</g>
		<g>
			<title>PF16197</title>
			<rect class="PF16197" x="930" y="18" stroke-linejoin="round" width="11" height="26" fill="rgb(68,179,89)" stroke="rgb(54,143,71)" stroke-width="1" opacity="0.75" />
		</g>
		<g>
			<title>PF00698</title>
			<rect class="PF00698" x="944" y="18" stroke-linejoin="round" width="31" height="26" fill="rgb(59,176,209)" stroke="rgb(47,140,167)" stroke-width="1" opacity="0.75" />
		</g>
		<g>
			<title>PF00550</title>
			<rect class="PF00550" x="984" y="18" stroke-linejoin="round" width="6" height="26" fill="rgb(103,191,88)" stroke="rgb(82,152,70)" stroke-width="1" opacity="0.75" />
		</g>
		<g>
			<title>PF00668</title>
			<rect class="PF00668" x="992" y="18" stroke-linejoin="round" width="35" height="26" fill="rgb(224,184,98)" stroke="rgb(179,147,78)" stroke-width="1" opacity="0.75" />
		</g>
		<g>
			<title>PF00501</title>
			<rect class="PF00501" x="1039" y="18" stroke-linejoin="round" width="40" height="26" fill="rgb(60,217,223)" stroke="rgb(48,173,178)" stroke-width="1" opacity="0.75" />
		</g>
		<g>
			<title>PF13193</title>
			<rect class="PF13193" x="1080" y="18" stroke-linejoin="round" width="7" height="26" fill="rgb(182,50,118)" stroke="rgb(145,39,94)" stroke-width="1" opacity="0.75" />
		</g>
		<g>
			<title>PF00550</title>
			<rect class="PF00550" x="1091" y="18" stroke-linejoin="round" width="6" height="26" fill="rgb(103,191,88)" stroke="rgb(82,152,70)" stroke-width="1" opacity="0.75" />
		</g>
		<g>
			<title>PF00668</title>
			<rect class="PF00668" x="1099" y="18" stroke-linejoin="round" width="15" height="26" fill="rgb(224,184,98)" stroke="rgb(179,147,78)" stroke-width="1" opacity="0.75" />
		</g>
	</g>
	<g>
		<title>clmN2</title>
		<polygon class="clmN2" points="1141,16 1220,16 1220,1 1250,31 1220,61 1220,46 1141,46" fill="rgb(183,250,210)" fill-opacity="1.0" stroke="rgb(73,100,84)" stroke-width="1" />
		<g>
			<title>PF00668</title>
			<rect class="PF00668" x="1144" y="18" stroke-linejoin="round" width="43" height="26" fill="rgb(224,184,98)" stroke="rgb(179,147,78)" stroke-width="1" opacity="0.75" />
		</g>
		<g>
			<title>PF00501</title>
			<rect class="PF00501" x="1189" y="18" stroke-linejoin="round" width="41" height="26" fill="rgb(60,217,223)" stroke="rgb(48,173,178)" stroke-width="1" opacity="0.75" />
		</g>
		<g>
			<title>PF13193</title>
			<polygon class="PF13193" points="1231,18 1234,18 1239,23 1239,39 1234,44 1231,44" stroke-linejoin="round" width="8" height="26" fill="rgb(182,50,118)" stroke="rgb(145,39,94)" stroke-width="1" opacity="0.75" />
		</g>
		<g>
			<title>PF00550</title>
			<polygon class="PF00550" points="1242,26 1247,31 1242,36" stroke-linejoin="round" width="6" height="26" fill="rgb(103,191,88)" stroke="rgb(82,152,70)" stroke-width="1" opacity="0.75" />
		</g>
	</g>
	<g>
		<title>clmD1</title>
		<polygon class="clmD1" points="1250,16 1259,16 1259,1 1289,31 1259,61 1259,46 1250,46" fill="rgb(227,185,253)" fill-opacity="1.0" stroke="rgb(90,74,101)" stroke-width="1" />
		<g>
			<title>PF02771</title>
			<rect class="PF02771" x="1251" y="18" stroke-linejoin="round" width="11" height="26" fill="rgb(105,135,218)" stroke="rgb(84,108,174)" stroke-width="1" opacity="0.75" />
		</g>
		<g>
			<title>PF02770</title>
			<rect class="PF02770" x="1263" y="18" stroke-linejoin="round" width="9" height="26" fill="rgb(225,186,97)" stroke="rgb(180,148,77)" stroke-width="1" opacity="0.75" />
		</g>
		<g>
			<title>PF00441</title>
			<polygon class="PF00441" points="1273,18 1273,18 1286,31 1273,44 1273,44" stroke-linejoin="round" width="15" height="26" fill="rgb(85,191,117)" stroke="rgb(68,152,93)" stroke-width="1" opacity="0.75" />
		</g>
	</g>
	<g>
		<title>clmT</title>
		<polygon class="clmT" points="1289,16 1289,16 1289,1 1313,31 1289,61 1289,46 1289,46" fill="rgb(205,193,254)" fill-opacity="1.0" stroke="rgb(82,77,101)" stroke-width="1" />
		<g>
			<title>PF00975</title>
			<polygon class="PF00975" points="1289,18 1300,18 1310,31 1300,44 1289,44" stroke-linejoin="round" width="22" height="26" fill="rgb(207,80,138)" stroke="rgb(165,63,110)" stroke-width="1" opacity="0.75" />
		</g>
	</g>
	<g>
		<polygon class="NoName" points="1355,16 1345,16 1345,1 1315,31 1345,61 1345,46 1355,46" fill="rgb(255,255,255)" fill-opacity="1.0" stroke="rgb(50,50,50)" stroke-width="1" />
		<g>
			<title>PF00067</title>
			<polygon class="PF00067" points="1317,31 1327,21 1327,40" stroke-linejoin="round" width="10" height="26" fill="rgb(85,216,107)" stroke="rgb(68,172,85)" stroke-width="1" opacity="0.75" />
		</g>
		<g>
			<title>PF00067</title>
			<polygon class="PF00067" points="1327,21 1330,18 1336,18 1336,44 1330,44 1327,40" stroke-linejoin="round" width="9" height="26" fill="rgb(85,216,107)" stroke="rgb(68,172,85)" stroke-width="1" opacity="0.75" />
		</g>
	</g>
	<g>
		<polygon class="NoName" points="1371,16 1371,16 1371,1 1391,31 1371,61 1371,46 1371,46" fill="rgb(255,255,255)" fill-opacity="1.0" stroke="rgb(50,50,50)" stroke-width="1" />
		<g>
			<title>PF12840</title>
			<polygon class="PF12840" points="1380,19 1386,28 1386,34 1380,43" stroke-linejoin="round" width="6" height="26" fill="rgb(157,225,93)" stroke="rgb(125,180,74)" stroke-width="1" opacity="0.75" />
		</g>
	</g>
	<g>
		<polygon class="NoName" points="1401,16 1507,16 1507,1 1537,31 1507,61 1507,46 1401,46" fill="rgb(255,255,255)" fill-opacity="1.0" stroke="rgb(50,50,50)" stroke-width="1" />
		<g>
			<title>PF00501</title>
			<rect class="PF00501" x="1406" y="18" stroke-linejoin="round" width="39" height="26" fill="rgb(60,217,223)" stroke="rgb(48,173,178)" stroke-width="1" opacity="0.75" />
		</g>
		<g>
			<title>PF08242</title>
			<rect class="PF08242" x="1458" y="18" stroke-linejoin="round" width="9" height="26" fill="rgb(187,59,115)" stroke="rgb(149,47,92)" stroke-width="1" opacity="0.75" />
		</g>
		<g>
			<title>PF00550</title>
			<rect class="PF00550" x="1497" y="18" stroke-linejoin="round" width="6" height="26" fill="rgb(103,191,88)" stroke="rgb(82,152,70)" stroke-width="1" opacity="0.75" />
		</g>
		<g>
			<title>PF00668</title>
			<polygon class="PF00668" points="1506,18 1521,18 1524,21 1524,41 1521,44 1506,44" stroke-linejoin="round" width="18" height="26" fill="rgb(224,184,98)" stroke="rgb(179,147,78)" stroke-width="1" opacity="0.75" />
		</g>
	</g>
	<g>
		<title>clmR1</title>
		<polygon class="clmR1" points="96,16 96,16 96,1 114,31 96,61 96,46 96,46" fill="rgb(204,250,228)" fill-opacity="1.0" stroke="rgb(81,100,91)" stroke-width="1" />
		<g>
			<title>PF00440</title>
			<rect class="PF00440" x="96" y="18" stroke-linejoin="round" width="4" height="26" fill="rgb(73,212,190)" stroke="rgb(58,169,152)" stroke-width="1" opacity="0.75" />
		</g>
	</g>
	<g>
		<title>clmT1</title>
		<polygon class="clmT1" points="175,16 148,16 148,1 118,31 148,61 148,46 175,46" fill="rgb(198,250,204)" fill-opacity="1.0" stroke="rgb(79,100,81)" stroke-width="1" />
		<g>
			<title>PF00005</title>
			<polygon class="PF00005" points="126,25 133,18 140,18 140,44 133,44 126,36" stroke-linejoin="round" width="14" height="26" fill="rgb(129,201,63)" stroke="rgb(103,160,50)" stroke-width="1" opacity="0.75" />
		</g>
		<g>
			<title>PF00664</title>
			<rect class="PF00664" x="147" y="18" stroke-linejoin="round" width="26" height="26" fill="rgb(149,226,73)" stroke="rgb(119,180,58)" stroke-width="1" opacity="0.75" />
		</g>
	</g>
	<g>
		<title>clmT2</title>
		<polygon class="clmT2" points="234,16 206,16 206,1 176,31 206,61 206,46 234,46" fill="rgb(252,185,238)" fill-opacity="1.0" stroke="rgb(100,74,95)" stroke-width="1" />
		<g>
			<title>PF00005</title>
			<polygon class="PF00005" points="183,26 191,18 197,18 197,44 191,44 183,35" stroke-linejoin="round" width="14" height="26" fill="rgb(129,201,63)" stroke="rgb(103,160,50)" stroke-width="1" opacity="0.75" />
		</g>
		<g>
			<title>PF00664</title>
			<rect class="PF00664" x="204" y="18" stroke-linejoin="round" width="27" height="26" fill="rgb(149,226,73)" stroke="rgb(119,180,58)" stroke-width="1" opacity="0.75" />
		</g>
	</g>
	<g>
		<title>clmT3</title>
		<polygon class="clmT3" points="241,16 243,16 243,1 273,31 243,61 243,46 241,46" fill="rgb(235,252,194)" fill-opacity="1.0" stroke="rgb(93,100,77)" stroke-width="1" />
		<g>
			<title>PF01497</title>
			<polygon class="PF01497" points="245,18 257,18 269,30 269,32 257,44 245,44" stroke-linejoin="round" width="24" height="26" fill="rgb(183,226,104)" stroke="rgb(146,180,83)" stroke-width="1" opacity="0.75" />
		</g>
	</g>
	<g>
		<title>clmT4</title>
		<polygon class="clmT4" points="278,16 280,16 280,1 310,31 280,61 280,46 278,46" fill="rgb(177,178,251)" fill-opacity="1.0" stroke="rgb(70,71,100)" stroke-width="1" />
		<g>
			<title>PF01032</title>
			<polygon class="PF01032" points="278,18 294,18 307,31 294,44 278,44" stroke-linejoin="round" width="31" height="26" fill="rgb(210,177,70)" stroke="rgb(168,141,56)" stroke-width="1" opacity="0.75" />
		</g>
	</g>
	<g>
		<title>clmT5</title>
		<polygon class="clmT5" points="311,16 311,16 311,1 337,31 311,61 311,46 311,46" fill="rgb(202,254,206)" fill-opacity="1.0" stroke="rgb(80,101,82)" stroke-width="1" />
		<g>
			<title>PF00005</title>
			<polygon class="PF00005" points="312,18 323,18 326,22 326,40 323,44 312,44" stroke-linejoin="round" width="14" height="26" fill="rgb(129,201,63)" stroke="rgb(103,160,50)" stroke-width="1" opacity="0.75" />
		</g>
	</g>
	<g>
		<title>clmR2</title>
		<polygon class="clmR2" points="346,16 346,16 346,1 362,31 346,61 346,46 346,46" fill="rgb(196,189,251)" fill-opacity="1.0" stroke="rgb(78,75,100)" stroke-width="1" />
		<g>
			<title>PF00196</title>
			<polygon class="PF00196" points="355,23 359,31 355,39" stroke-linejoin="round" width="5" height="26" fill="rgb(219,94,82)" stroke="rgb(175,75,65)" stroke-width="1" opacity="0.75" />
		</g>
	</g>
	<g>
		<title>clmM2</title>
		<polygon class="clmM2" points="403,16 399,16 399,1 369,31 399,61 399,46 403,46" fill="rgb(252,212,182)" fill-opacity="1.0" stroke="rgb(100,84,72)" stroke-width="1" />
		<g>
			<title>PF00891</title>
			<polygon class="PF00891" points="371,31 384,18 394,18 394,44 384,44" stroke-linejoin="round" width="23" height="26" fill="rgb(50,51,190)" stroke="rgb(39,40,152)" stroke-width="1" opacity="0.75" />
		</g>
	</g>
</svg>
