<svg version="1.1" baseProfile="full" xmlns="http://www.w3.org/2000/svg" width="4600" height="62">
	<line x1="1" y1="31" x2="4599" y2="31" style="stroke:rgb(50,50,50); stroke-width:3 "/>
	<g>
		<title>idnL2</title>
		<polygon class="idnL2" points="473,16 466,16 466,1 436,31 466,61 466,46 473,46" fill="rgb(254,204,233)" fill-opacity="1.0" stroke="rgb(101,81,93)" stroke-width="1" />
	</g>
	<g>
		<title>idnL3</title>
		<polygon class="idnL3" points="516,16 504,16 504,1 474,31 504,61 504,46 516,46" fill="rgb(253,228,181)" fill-opacity="1.0" stroke="rgb(101,91,72)" stroke-width="1" />
		<g>
			<title>PF00155</title>
			<polygon class="PF00155" points="478,29 489,18 513,18 513,44 489,44 478,32" stroke-linejoin="round" width="35" height="26" fill="rgb(89,113,198)" stroke="rgb(71,90,158)" stroke-width="1" opacity="0.75" />
		</g>
	</g>
	<g>
		<title>idnL4</title>
		<polygon class="idnL4" points="563,16 548,16 548,1 518,31 548,61 548,46 563,46" fill="rgb(201,250,234)" fill-opacity="1.0" stroke="rgb(80,100,93)" stroke-width="1" />
	</g>
	<g>
		<title>idnL5</title>
		<polygon class="idnL5" points="598,16 597,16 597,1 567,31 597,61 597,46 598,46" fill="rgb(208,252,244)" fill-opacity="1.0" stroke="rgb(83,100,97)" stroke-width="1" />
		<g>
			<title>PF12697</title>
			<polygon class="PF12697" points="569,31 582,18 593,18 593,44 582,44" stroke-linejoin="round" width="25" height="26" fill="rgb(113,71,219)" stroke="rgb(90,56,175)" stroke-width="1" opacity="0.75" />
		</g>
	</g>
	<g>
		<title>idnS4</title>
		<polygon class="idnS4" points="611,16 625,16 625,1 655,31 625,61 625,46 611,46" fill="rgb(251,194,225)" fill-opacity="1.0" stroke="rgb(100,77,90)" stroke-width="1" />
		<g>
			<title>PF06722</title>
			<polygon class="PF06722" points="634,18 639,18 643,22 643,40 639,44 634,44" stroke-linejoin="round" width="9" height="26" fill="rgb(200,129,88)" stroke="rgb(160,103,70)" stroke-width="1" opacity="0.75" />
		</g>
	</g>
	<g>
		<title>idnS5</title>
		<polygon class="idnS5" points="701,16 691,16 691,1 661,31 691,61 691,46 701,46" fill="rgb(195,219,249)" fill-opacity="1.0" stroke="rgb(78,87,99)" stroke-width="1" />
		<g>
			<title>PF08241</title>
			<polygon class="PF08241" points="676,18 676,18 685,18 685,44 676,44 676,43" stroke-linejoin="round" width="9" height="26" fill="rgb(106,219,159)" stroke="rgb(84,175,127)" stroke-width="1" opacity="0.75" />
		</g>
	</g>
	<g>
		<title>idnS6</title>
		<polygon class="idnS6" points="742,16 740,16 740,1 710,31 740,61 740,46 742,46" fill="rgb(251,215,184)" fill-opacity="1.0" stroke="rgb(100,86,73)" stroke-width="1" />
		<g>
			<title>PF16363</title>
			<polygon class="PF16363" points="712,31 725,18 741,18 741,44 725,44" stroke-linejoin="round" width="30" height="26" fill="rgb(162,221,65)" stroke="rgb(129,176,51)" stroke-width="1" opacity="0.75" />
		</g>
	</g>
	<g>
		<title>idnS7</title>
		<polygon class="idnS7" points="777,16 772,16 772,1 742,31 772,61 772,46 777,46" fill="rgb(250,190,230)" fill-opacity="1.0" stroke="rgb(100,76,92)" stroke-width="1" />
		<g>
			<title>PF00483</title>
			<polygon class="PF00483" points="753,22 757,18 776,18 776,44 757,44 753,39" stroke-linejoin="round" width="23" height="26" fill="rgb(198,101,87)" stroke="rgb(158,80,69)" stroke-width="1" opacity="0.75" />
		</g>
	</g>
	<g>
		<title>idnS8</title>
		<polygon class="idnS8" points="804,16 804,16 804,1 780,31 804,61 804,46 804,46" fill="rgb(252,207,207)" fill-opacity="1.0" stroke="rgb(100,82,82)" stroke-width="1" />
		<g>
			<title>PF13649</title>
			<polygon class="PF13649" points="790,21 792,18 799,18 799,44 792,44 790,40" stroke-linejoin="round" width="9" height="26" fill="rgb(227,135,74)" stroke="rgb(181,108,59)" stroke-width="1" opacity="0.75" />
		</g>
	</g>
	<g>
		<title>idnL6</title>
		<polygon class="idnL6" points="828,16 828,16 828,1 820,31 828,61 828,46 828,46" fill="rgb(209,246,253)" fill-opacity="1.0" stroke="rgb(83,98,101)" stroke-width="1" />
		<g>
			<title>PF00550</title>
			<polygon class="PF00550" points="822,31 825,18 827,18 827,44 825,44" stroke-linejoin="round" width="7" height="26" fill="rgb(103,191,88)" stroke="rgb(82,152,70)" stroke-width="1" opacity="0.75" />
		</g>
	</g>
	<g>
		<polygon class="NoName" points="1,16 39,16 39,1 69,31 39,61 39,46 1,46" fill="rgb(255,255,255)" fill-opacity="1.0" stroke="rgb(50,50,50)" stroke-width="1" />
		<g>
			<title>PF13245</title>
			<rect class="PF13245" x="19" y="18" stroke-linejoin="round" width="34" height="26" fill="rgb(80,199,91)" stroke="rgb(64,159,72)" stroke-width="1" opacity="0.75" />
		</g>
	</g>
	<g>
		<title>idnL7</title>
		<polygon class="idnL7" points="832,16 854,16 854,1 884,31 854,61 854,46 832,46" fill="rgb(252,186,186)" fill-opacity="1.0" stroke="rgb(100,74,74)" stroke-width="1" />
		<g>
			<title>PF00501</title>
			<polygon class="PF00501" points="833,18 868,18 873,23 873,39 868,44 833,44" stroke-linejoin="round" width="40" height="26" fill="rgb(60,217,223)" stroke="rgb(48,173,178)" stroke-width="1" opacity="0.75" />
		</g>
	</g>
	<g>
		<title>idnO1</title>
		<polygon class="idnO1" points="890,16 900,16 900,1 930,31 900,61 900,46 890,46" fill="rgb(192,249,228)" fill-opacity="1.0" stroke="rgb(76,99,91)" stroke-width="1" />
		<g>
			<title>PF00067</title>
			<polygon class="PF00067" points="907,18 914,18 926,30 926,32 914,44 907,44" stroke-linejoin="round" width="19" height="26" fill="rgb(85,216,107)" stroke="rgb(68,172,85)" stroke-width="1" opacity="0.75" />
		</g>
	</g>
	<g>
		<polygon class="NoName" points="956,16 956,16 956,1 977,31 956,61 956,46 956,46" fill="rgb(255,255,255)" fill-opacity="1.0" stroke="rgb(50,50,50)" stroke-width="1" />
	</g>
	<g>
		<polygon class="NoName" points="993,16 993,16 993,1 1004,31 993,61 993,46 993,46" fill="rgb(255,255,255)" fill-opacity="1.0" stroke="rgb(50,50,50)" stroke-width="1" />
	</g>
	<g>
		<polygon class="NoName" points="1004,16 1022,16 1022,1 1052,31 1022,61 1022,46 1004,46" fill="rgb(255,255,255)" fill-opacity="1.0" stroke="rgb(50,50,50)" stroke-width="1" />
		<g>
			<title>PF04672</title>
			<polygon class="PF04672" points="1026,18 1036,18 1049,31 1036,44 1026,44" stroke-linejoin="round" width="26" height="26" fill="rgb(125,181,73)" stroke="rgb(99,144,58)" stroke-width="1" opacity="0.75" />
		</g>
	</g>
	<g>
		<polygon class="NoName" points="1055,16 1055,16 1055,1 1068,31 1055,61 1055,46 1055,46" fill="rgb(255,255,255)" fill-opacity="1.0" stroke="rgb(50,50,50)" stroke-width="1" />
	</g>
	<g>
		<polygon class="NoName" points="1072,16 1072,16 1072,1 1087,31 1072,61 1072,46 1072,46" fill="rgb(255,255,255)" fill-opacity="1.0" stroke="rgb(50,50,50)" stroke-width="1" />
		<g>
			<title>PF00293</title>
			<polygon class="PF00293" points="1073,18 1078,18 1084,31 1078,44 1073,44" stroke-linejoin="round" width="12" height="26" fill="rgb(92,56,187)" stroke="rgb(73,44,149)" stroke-width="1" opacity="0.75" />
		</g>
	</g>
	<g>
		<polygon class="NoName" points="1087,16 1087,16 1087,1 1098,31 1087,61 1087,46 1087,46" fill="rgb(255,255,255)" fill-opacity="1.0" stroke="rgb(50,50,50)" stroke-width="1" />
	</g>
	<g>
		<polygon class="NoName" points="1099,16 1103,16 1103,1 1133,31 1103,61 1103,46 1099,46" fill="rgb(255,255,255)" fill-opacity="1.0" stroke="rgb(50,50,50)" stroke-width="1" />
		<g>
			<title>PF00303</title>
			<polygon class="PF00303" points="1100,18 1117,18 1124,25 1124,37 1117,44 1100,44" stroke-linejoin="round" width="24" height="26" fill="rgb(103,91,191)" stroke="rgb(82,72,152)" stroke-width="1" opacity="0.75" />
		</g>
	</g>
	<g>
		<polygon class="NoName" points="1133,16 1137,16 1137,1 1167,31 1137,61 1137,46 1133,46" fill="rgb(255,255,255)" fill-opacity="1.0" stroke="rgb(50,50,50)" stroke-width="1" />
		<g>
			<title>PF00334</title>
			<rect class="PF00334" x="1134" y="18" stroke-linejoin="round" width="14" height="26" fill="rgb(197,210,70)" stroke="rgb(157,168,56)" stroke-width="1" opacity="0.75" />
		</g>
		<g>
			<title>PF00334</title>
			<polygon class="PF00334" points="1150,18 1151,18 1164,31 1151,44 1150,44" stroke-linejoin="round" width="15" height="26" fill="rgb(197,210,70)" stroke="rgb(157,168,56)" stroke-width="1" opacity="0.75" />
		</g>
	</g>
	<g>
		<polygon class="NoName" points="84,16 84,16 84,1 71,31 84,61 84,46 84,46" fill="rgb(255,255,255)" fill-opacity="1.0" stroke="rgb(50,50,50)" stroke-width="1" />
	</g>
	<g>
		<polygon class="NoName" points="1167,16 1176,16 1176,1 1206,31 1176,61 1176,46 1167,46" fill="rgb(255,255,255)" fill-opacity="1.0" stroke="rgb(50,50,50)" stroke-width="1" />
	</g>
	<g>
		<polygon class="NoName" points="1206,16 1206,16 1206,1 1226,31 1206,61 1206,46 1206,46" fill="rgb(255,255,255)" fill-opacity="1.0" stroke="rgb(50,50,50)" stroke-width="1" />
		<g>
			<title>PF00929</title>
			<polygon class="PF00929" points="1207,18 1214,18 1222,29 1222,33 1214,44 1207,44" stroke-linejoin="round" width="15" height="26" fill="rgb(201,87,120)" stroke="rgb(160,69,96)" stroke-width="1" opacity="0.75" />
		</g>
	</g>
	<g>
		<polygon class="NoName" points="1226,16 1226,16 1226,1 1246,31 1226,61 1226,46 1226,46" fill="rgb(255,255,255)" fill-opacity="1.0" stroke="rgb(50,50,50)" stroke-width="1" />
		<g>
			<title>PF13521</title>
			<polygon class="PF13521" points="1226,18 1234,18 1243,31 1243,31 1234,44 1226,44" stroke-linejoin="round" width="17" height="26" fill="rgb(64,192,136)" stroke="rgb(51,153,108)" stroke-width="1" opacity="0.75" />
		</g>
	</g>
	<g>
		<polygon class="NoName" points="1246,16 1246,16 1246,1 1267,31 1246,61 1246,46 1246,46" fill="rgb(255,255,255)" fill-opacity="1.0" stroke="rgb(50,50,50)" stroke-width="1" />
		<g>
			<title>PF00248</title>
			<polygon class="PF00248" points="1248,18 1255,18 1264,31 1255,44 1248,44" stroke-linejoin="round" width="19" height="26" fill="rgb(225,205,58)" stroke="rgb(180,164,46)" stroke-width="1" opacity="0.75" />
		</g>
	</g>
	<g>
		<polygon class="NoName" points="1272,16 1272,16 1272,1 1289,31 1272,61 1272,46 1272,46" fill="rgb(255,255,255)" fill-opacity="1.0" stroke="rgb(50,50,50)" stroke-width="1" />
	</g>
	<g>
		<title>idnP1</title>
		<polygon class="idnP1" points="1667,16 1333,16 1333,1 1303,31 1333,61 1333,46 1667,46" fill="rgb(197,250,203)" fill-opacity="1.0" stroke="rgb(78,100,81)" stroke-width="1" />
		<g>
			<title>PF00550</title>
			<polygon class="PF00550" points="1310,26 1316,20 1316,41 1310,35" stroke-linejoin="round" width="6" height="26" fill="rgb(103,191,88)" stroke="rgb(82,152,70)" stroke-width="1" opacity="0.75" />
		</g>
		<g>
			<title>PF08659</title>
			<rect class="PF08659" x="1328" y="18" stroke-linejoin="round" width="17" height="26" fill="rgb(66,209,188)" stroke="rgb(52,167,150)" stroke-width="1" opacity="0.75" />
		</g>
		<g>
			<title>PF14765</title>
			<rect class="PF14765" x="1363" y="18" stroke-linejoin="round" width="26" height="26" fill="rgb(173,56,182)" stroke="rgb(138,44,145)" stroke-width="1" opacity="0.75" />
		</g>
		<g>
			<title>PF00698</title>
			<rect class="PF00698" x="1395" y="18" stroke-linejoin="round" width="30" height="26" fill="rgb(59,176,209)" stroke="rgb(47,140,167)" stroke-width="1" opacity="0.75" />
		</g>
		<g>
			<title>PF16197</title>
			<rect class="PF16197" x="1428" y="18" stroke-linejoin="round" width="11" height="26" fill="rgb(68,179,89)" stroke="rgb(54,143,71)" stroke-width="1" opacity="0.75" />
		</g>
		<g>
			<title>PF02801</title>
			<rect class="PF02801" x="1440" y="18" stroke-linejoin="round" width="11" height="26" fill="rgb(215,78,102)" stroke="rgb(172,62,81)" stroke-width="1" opacity="0.75" />
		</g>
		<g>
			<title>PF00109</title>
			<rect class="PF00109" x="1452" y="18" stroke-linejoin="round" width="23" height="26" fill="rgb(112,116,228)" stroke="rgb(89,92,182)" stroke-width="1" opacity="0.75" />
		</g>
		<g>
			<title>PF00550</title>
			<rect class="PF00550" x="1479" y="18" stroke-linejoin="round" width="6" height="26" fill="rgb(103,191,88)" stroke="rgb(82,152,70)" stroke-width="1" opacity="0.75" />
		</g>
		<g>
			<title>PF08659</title>
			<rect class="PF08659" x="1496" y="18" stroke-linejoin="round" width="17" height="26" fill="rgb(66,209,188)" stroke="rgb(52,167,150)" stroke-width="1" opacity="0.75" />
		</g>
		<g>
			<title>PF14765</title>
			<rect class="PF14765" x="1534" y="18" stroke-linejoin="round" width="28" height="26" fill="rgb(173,56,182)" stroke="rgb(138,44,145)" stroke-width="1" opacity="0.75" />
		</g>
		<g>
			<title>PF00698</title>
			<rect class="PF00698" x="1567" y="18" stroke-linejoin="round" width="31" height="26" fill="rgb(59,176,209)" stroke="rgb(47,140,167)" stroke-width="1" opacity="0.75" />
		</g>
		<g>
			<title>PF16197</title>
			<rect class="PF16197" x="1602" y="18" stroke-linejoin="round" width="13" height="26" fill="rgb(68,179,89)" stroke="rgb(54,143,71)" stroke-width="1" opacity="0.75" />
		</g>
		<g>
			<title>PF02801</title>
			<rect class="PF02801" x="1616" y="18" stroke-linejoin="round" width="11" height="26" fill="rgb(215,78,102)" stroke="rgb(172,62,81)" stroke-width="1" opacity="0.75" />
		</g>
		<g>
			<title>PF00109</title>
			<rect class="PF00109" x="1629" y="18" stroke-linejoin="round" width="25" height="26" fill="rgb(112,116,228)" stroke="rgb(89,92,182)" stroke-width="1" opacity="0.75" />
		</g>
		<g>
			<title>PF00550</title>
			<rect class="PF00550" x="1656" y="18" stroke-linejoin="round" width="7" height="26" fill="rgb(103,191,88)" stroke="rgb(82,152,70)" stroke-width="1" opacity="0.75" />
		</g>
	</g>
	<g>
		<title>idnP2</title>
		<polygon class="idnP2" points="2205,16 1701,16 1701,1 1671,31 1701,61 1701,46 2205,46" fill="rgb(236,253,188)" fill-opacity="1.0" stroke="rgb(94,101,75)" stroke-width="1" />
		<g>
			<title>PF00550</title>
			<polygon class="PF00550" points="1679,25 1685,19 1685,42 1679,36" stroke-linejoin="round" width="6" height="26" fill="rgb(103,191,88)" stroke="rgb(82,152,70)" stroke-width="1" opacity="0.75" />
		</g>
		<g>
			<title>PF08659</title>
			<rect class="PF08659" x="1696" y="18" stroke-linejoin="round" width="17" height="26" fill="rgb(66,209,188)" stroke="rgb(52,167,150)" stroke-width="1" opacity="0.75" />
		</g>
		<g>
			<title>PF14765</title>
			<rect class="PF14765" x="1734" y="18" stroke-linejoin="round" width="27" height="26" fill="rgb(173,56,182)" stroke="rgb(138,44,145)" stroke-width="1" opacity="0.75" />
		</g>
		<g>
			<title>PF00698</title>
			<rect class="PF00698" x="1766" y="18" stroke-linejoin="round" width="30" height="26" fill="rgb(59,176,209)" stroke="rgb(47,140,167)" stroke-width="1" opacity="0.75" />
		</g>
		<g>
			<title>PF16197</title>
			<rect class="PF16197" x="1800" y="18" stroke-linejoin="round" width="14" height="26" fill="rgb(68,179,89)" stroke="rgb(54,143,71)" stroke-width="1" opacity="0.75" />
		</g>
		<g>
			<title>PF02801</title>
			<rect class="PF02801" x="1815" y="18" stroke-linejoin="round" width="11" height="26" fill="rgb(215,78,102)" stroke="rgb(172,62,81)" stroke-width="1" opacity="0.75" />
		</g>
		<g>
			<title>PF00109</title>
			<rect class="PF00109" x="1827" y="18" stroke-linejoin="round" width="24" height="26" fill="rgb(112,116,228)" stroke="rgb(89,92,182)" stroke-width="1" opacity="0.75" />
		</g>
		<g>
			<title>PF00550</title>
			<rect class="PF00550" x="1855" y="18" stroke-linejoin="round" width="6" height="26" fill="rgb(103,191,88)" stroke="rgb(82,152,70)" stroke-width="1" opacity="0.75" />
		</g>
		<g>
			<title>PF08659</title>
			<rect class="PF08659" x="1872" y="18" stroke-linejoin="round" width="17" height="26" fill="rgb(66,209,188)" stroke="rgb(52,167,150)" stroke-width="1" opacity="0.75" />
		</g>
		<g>
			<title>PF14765</title>
			<rect class="PF14765" x="1908" y="18" stroke-linejoin="round" width="28" height="26" fill="rgb(173,56,182)" stroke="rgb(138,44,145)" stroke-width="1" opacity="0.75" />
		</g>
		<g>
			<title>PF00698</title>
			<rect class="PF00698" x="1941" y="18" stroke-linejoin="round" width="30" height="26" fill="rgb(59,176,209)" stroke="rgb(47,140,167)" stroke-width="1" opacity="0.75" />
		</g>
		<g>
			<title>PF16197</title>
			<rect class="PF16197" x="1975" y="18" stroke-linejoin="round" width="11" height="26" fill="rgb(68,179,89)" stroke="rgb(54,143,71)" stroke-width="1" opacity="0.75" />
		</g>
		<g>
			<title>PF02801</title>
			<rect class="PF02801" x="1987" y="18" stroke-linejoin="round" width="11" height="26" fill="rgb(215,78,102)" stroke="rgb(172,62,81)" stroke-width="1" opacity="0.75" />
		</g>
		<g>
			<title>PF00109</title>
			<rect class="PF00109" x="1999" y="18" stroke-linejoin="round" width="23" height="26" fill="rgb(112,116,228)" stroke="rgb(89,92,182)" stroke-width="1" opacity="0.75" />
		</g>
		<g>
			<title>PF00550</title>
			<rect class="PF00550" x="2025" y="18" stroke-linejoin="round" width="6" height="26" fill="rgb(103,191,88)" stroke="rgb(82,152,70)" stroke-width="1" opacity="0.75" />
		</g>
		<g>
			<title>PF08659</title>
			<rect class="PF08659" x="2042" y="18" stroke-linejoin="round" width="17" height="26" fill="rgb(66,209,188)" stroke="rgb(52,167,150)" stroke-width="1" opacity="0.75" />
		</g>
		<g>
			<title>PF14765</title>
			<rect class="PF14765" x="2079" y="18" stroke-linejoin="round" width="27" height="26" fill="rgb(173,56,182)" stroke="rgb(138,44,145)" stroke-width="1" opacity="0.75" />
		</g>
		<g>
			<title>PF00698</title>
			<rect class="PF00698" x="2111" y="18" stroke-linejoin="round" width="31" height="26" fill="rgb(59,176,209)" stroke="rgb(47,140,167)" stroke-width="1" opacity="0.75" />
		</g>
		<g>
			<title>PF16197</title>
			<rect class="PF16197" x="2146" y="18" stroke-linejoin="round" width="13" height="26" fill="rgb(68,179,89)" stroke="rgb(54,143,71)" stroke-width="1" opacity="0.75" />
		</g>
		<g>
			<title>PF02801</title>
			<rect class="PF02801" x="2159" y="18" stroke-linejoin="round" width="11" height="26" fill="rgb(215,78,102)" stroke="rgb(172,62,81)" stroke-width="1" opacity="0.75" />
		</g>
		<g>
			<title>PF00109</title>
			<rect class="PF00109" x="2172" y="18" stroke-linejoin="round" width="25" height="26" fill="rgb(112,116,228)" stroke="rgb(89,92,182)" stroke-width="1" opacity="0.75" />
		</g>
		<g>
			<title>PF08990</title>
			<rect class="PF08990" x="2198" y="18" stroke-linejoin="round" width="2" height="26" fill="rgb(180,75,55)" stroke="rgb(144,60,44)" stroke-width="1" opacity="0.75" />
		</g>
	</g>
	<g>
		<title>idnB</title>
		<polygon class="idnB" points="2213,16 2213,16 2213,1 2240,31 2213,61 2213,46 2213,46" fill="rgb(252,192,182)" fill-opacity="1.0" stroke="rgb(100,76,72)" stroke-width="1" />
		<g>
			<title>PF00975</title>
			<polygon class="PF00975" points="2217,18 2225,18 2237,31 2225,44 2217,44" stroke-linejoin="round" width="22" height="26" fill="rgb(207,80,138)" stroke="rgb(165,63,110)" stroke-width="1" opacity="0.75" />
		</g>
	</g>
	<g>
		<title>idnT1</title>
		<polygon class="idnT1" points="2275,16 2275,16 2275,1 2249,31 2275,61 2275,46 2275,46" fill="rgb(249,240,211)" fill-opacity="1.0" stroke="rgb(99,96,84)" stroke-width="1" />
		<g>
			<title>PF01061</title>
			<polygon class="PF01061" points="2252,30 2262,18 2273,18 2273,44 2262,44 2252,31" stroke-linejoin="round" width="21" height="26" fill="rgb(139,217,106)" stroke="rgb(111,173,84)" stroke-width="1" opacity="0.75" />
		</g>
	</g>
	<g>
		<title>idnT2</title>
		<polygon class="idnT2" points="2306,16 2305,16 2305,1 2275,31 2305,61 2305,46 2306,46" fill="rgb(245,206,254)" fill-opacity="1.0" stroke="rgb(97,82,101)" stroke-width="1" />
		<g>
			<title>PF13732</title>
			<polygon class="PF13732" points="2277,31 2284,24 2284,37" stroke-linejoin="round" width="8" height="26" fill="rgb(100,223,143)" stroke="rgb(80,178,114)" stroke-width="1" opacity="0.75" />
		</g>
		<g>
			<title>PF00005</title>
			<polygon class="PF00005" points="2290,18 2290,18 2304,18 2304,44 2290,44 2290,43" stroke-linejoin="round" width="14" height="26" fill="rgb(129,201,63)" stroke="rgb(103,160,50)" stroke-width="1" opacity="0.75" />
		</g>
	</g>
	<g>
		<polygon class="NoName" points="105,16 105,16 105,1 89,31 105,61 105,46 105,46" fill="rgb(255,255,255)" fill-opacity="1.0" stroke="rgb(50,50,50)" stroke-width="1" />
	</g>
	<g>
		<title>idnR2</title>
		<polygon class="idnR2" points="2311,16 2311,16 2311,1 2339,31 2311,61 2311,46 2311,46" fill="rgb(253,231,205)" fill-opacity="1.0" stroke="rgb(101,92,82)" stroke-width="1" />
		<g>
			<title>PF00440</title>
			<rect class="PF00440" x="2314" y="18" stroke-linejoin="round" width="5" height="26" fill="rgb(73,212,190)" stroke="rgb(58,169,152)" stroke-width="1" opacity="0.75" />
		</g>
		<g>
			<title>PF02909</title>
			<polygon class="PF02909" points="2321,18 2324,18 2336,31 2336,31 2324,44 2321,44" stroke-linejoin="round" width="15" height="26" fill="rgb(151,203,75)" stroke="rgb(120,162,60)" stroke-width="1" opacity="0.75" />
		</g>
	</g>
	<g>
		<title>idnP3</title>
		<polygon class="idnP3" points="2740,16 2384,16 2384,1 2354,31 2384,61 2384,46 2740,46" fill="rgb(254,248,212)" fill-opacity="1.0" stroke="rgb(101,99,84)" stroke-width="1" />
		<g>
			<title>PF00550</title>
			<polygon class="PF00550" points="2363,24 2369,18 2369,43 2363,37" stroke-linejoin="round" width="6" height="26" fill="rgb(103,191,88)" stroke="rgb(82,152,70)" stroke-width="1" opacity="0.75" />
		</g>
		<g>
			<title>PF08659</title>
			<rect class="PF08659" x="2381" y="18" stroke-linejoin="round" width="17" height="26" fill="rgb(66,209,188)" stroke="rgb(52,167,150)" stroke-width="1" opacity="0.75" />
		</g>
		<g>
			<title>PF14765</title>
			<rect class="PF14765" x="2418" y="18" stroke-linejoin="round" width="27" height="26" fill="rgb(173,56,182)" stroke="rgb(138,44,145)" stroke-width="1" opacity="0.75" />
		</g>
		<g>
			<title>PF00698</title>
			<rect class="PF00698" x="2450" y="18" stroke-linejoin="round" width="31" height="26" fill="rgb(59,176,209)" stroke="rgb(47,140,167)" stroke-width="1" opacity="0.75" />
		</g>
		<g>
			<title>PF16197</title>
			<rect class="PF16197" x="2485" y="18" stroke-linejoin="round" width="11" height="26" fill="rgb(68,179,89)" stroke="rgb(54,143,71)" stroke-width="1" opacity="0.75" />
		</g>
		<g>
			<title>PF02801</title>
			<rect class="PF02801" x="2496" y="18" stroke-linejoin="round" width="11" height="26" fill="rgb(215,78,102)" stroke="rgb(172,62,81)" stroke-width="1" opacity="0.75" />
		</g>
		<g>
			<title>PF00109</title>
			<rect class="PF00109" x="2509" y="18" stroke-linejoin="round" width="23" height="26" fill="rgb(112,116,228)" stroke="rgb(89,92,182)" stroke-width="1" opacity="0.75" />
		</g>
		<g>
			<title>PF00550</title>
			<rect class="PF00550" x="2535" y="18" stroke-linejoin="round" width="6" height="26" fill="rgb(103,191,88)" stroke="rgb(82,152,70)" stroke-width="1" opacity="0.75" />
		</g>
		<g>
			<title>PF08659</title>
			<rect class="PF08659" x="2553" y="18" stroke-linejoin="round" width="17" height="26" fill="rgb(66,209,188)" stroke="rgb(52,167,150)" stroke-width="1" opacity="0.75" />
		</g>
		<g>
			<title>PF14765</title>
			<rect class="PF14765" x="2590" y="18" stroke-linejoin="round" width="27" height="26" fill="rgb(173,56,182)" stroke="rgb(138,44,145)" stroke-width="1" opacity="0.75" />
		</g>
		<g>
			<title>PF00698</title>
			<rect class="PF00698" x="2622" y="18" stroke-linejoin="round" width="31" height="26" fill="rgb(59,176,209)" stroke="rgb(47,140,167)" stroke-width="1" opacity="0.75" />
		</g>
		<g>
			<title>PF16197</title>
			<rect class="PF16197" x="2690" y="18" stroke-linejoin="round" width="8" height="26" fill="rgb(68,179,89)" stroke="rgb(54,143,71)" stroke-width="1" opacity="0.75" />
		</g>
		<g>
			<title>PF02801</title>
			<rect class="PF02801" x="2698" y="18" stroke-linejoin="round" width="11" height="26" fill="rgb(215,78,102)" stroke="rgb(172,62,81)" stroke-width="1" opacity="0.75" />
		</g>
		<g>
			<title>PF00109</title>
			<rect class="PF00109" x="2711" y="18" stroke-linejoin="round" width="25" height="26" fill="rgb(112,116,228)" stroke="rgb(89,92,182)" stroke-width="1" opacity="0.75" />
		</g>
		<g>
			<title>PF08990</title>
			<rect class="PF08990" x="2737" y="18" stroke-linejoin="round" width="2" height="26" fill="rgb(180,75,55)" stroke="rgb(144,60,44)" stroke-width="1" opacity="0.75" />
		</g>
	</g>
	<g>
		<title>idnP4</title>
		<polygon class="idnP4" points="2914,16 2772,16 2772,1 2742,31 2772,61 2772,46 2914,46" fill="rgb(198,206,252)" fill-opacity="1.0" stroke="rgb(79,82,100)" stroke-width="1" />
		<g>
			<title>PF00550</title>
			<polygon class="PF00550" points="2751,24 2757,18 2757,43 2751,37" stroke-linejoin="round" width="6" height="26" fill="rgb(103,191,88)" stroke="rgb(82,152,70)" stroke-width="1" opacity="0.75" />
		</g>
		<g>
			<title>PF08659</title>
			<rect class="PF08659" x="2769" y="18" stroke-linejoin="round" width="19" height="26" fill="rgb(66,209,188)" stroke="rgb(52,167,150)" stroke-width="1" opacity="0.75" />
		</g>
		<g>
			<title>PF00698</title>
			<rect class="PF00698" x="2820" y="18" stroke-linejoin="round" width="32" height="26" fill="rgb(59,176,209)" stroke="rgb(47,140,167)" stroke-width="1" opacity="0.75" />
		</g>
		<g>
			<title>PF16197</title>
			<rect class="PF16197" x="2859" y="18" stroke-linejoin="round" width="13" height="26" fill="rgb(68,179,89)" stroke="rgb(54,143,71)" stroke-width="1" opacity="0.75" />
		</g>
		<g>
			<title>PF02801</title>
			<rect class="PF02801" x="2873" y="18" stroke-linejoin="round" width="11" height="26" fill="rgb(215,78,102)" stroke="rgb(172,62,81)" stroke-width="1" opacity="0.75" />
		</g>
		<g>
			<title>PF00109</title>
			<rect class="PF00109" x="2885" y="18" stroke-linejoin="round" width="23" height="26" fill="rgb(112,116,228)" stroke="rgb(89,92,182)" stroke-width="1" opacity="0.75" />
		</g>
		<g>
			<title>PF08990</title>
			<rect class="PF08990" x="2910" y="18" stroke-linejoin="round" width="2" height="26" fill="rgb(180,75,55)" stroke="rgb(144,60,44)" stroke-width="1" opacity="0.75" />
		</g>
	</g>
	<g>
		<title>idnS9</title>
		<polygon class="idnS9" points="2976,16 2967,16 2967,1 2937,31 2967,61 2967,46 2976,46" fill="rgb(250,192,226)" fill-opacity="1.0" stroke="rgb(100,76,90)" stroke-width="1" />
		<g>
			<title>PF06722</title>
			<polygon class="PF06722" points="2948,22 2952,18 2956,18 2956,44 2952,44 2948,39" stroke-linejoin="round" width="8" height="26" fill="rgb(200,129,88)" stroke="rgb(160,103,70)" stroke-width="1" opacity="0.75" />
		</g>
	</g>
	<g>
		<title>idnS10</title>
		<polygon class="idnS10" points="2993,16 3008,16 3008,1 3038,31 3008,61 3008,46 2993,46" fill="rgb(211,252,187)" fill-opacity="1.0" stroke="rgb(84,100,74)" stroke-width="1" />
		<g>
			<title>PF03559</title>
			<rect class="PF03559" x="2994" y="18" stroke-linejoin="round" width="20" height="26" fill="rgb(74,201,66)" stroke="rgb(59,160,52)" stroke-width="1" opacity="0.75" />
		</g>
		<g>
			<title>PF03559</title>
			<polygon class="PF03559" points="3017,18 3022,18 3035,31 3022,44 3017,44" stroke-linejoin="round" width="20" height="26" fill="rgb(74,201,66)" stroke="rgb(59,160,52)" stroke-width="1" opacity="0.75" />
		</g>
	</g>
	<g>
		<title>idnS11</title>
		<polygon class="idnS11" points="3041,16 3044,16 3044,1 3074,31 3044,61 3044,46 3041,46" fill="rgb(182,218,250)" fill-opacity="1.0" stroke="rgb(72,87,100)" stroke-width="1" />
		<g>
			<title>PF01408</title>
			<rect class="PF01408" x="3042" y="18" stroke-linejoin="round" width="11" height="26" fill="rgb(76,117,190)" stroke="rgb(60,93,152)" stroke-width="1" opacity="0.75" />
		</g>
	</g>
	<g>
		<title>idnS12</title>
		<polygon class="idnS12" points="3075,16 3089,16 3089,1 3119,31 3089,61 3089,46 3075,46" fill="rgb(253,185,186)" fill-opacity="1.0" stroke="rgb(101,74,74)" stroke-width="1" />
		<g>
			<title>PF01041</title>
			<polygon class="PF01041" points="3079,18 3103,18 3116,31 3103,44 3079,44" stroke-linejoin="round" width="38" height="26" fill="rgb(59,139,191)" stroke="rgb(47,111,152)" stroke-width="1" opacity="0.75" />
		</g>
	</g>
	<g>
		<title>idnS13</title>
		<polygon class="idnS13" points="3119,16 3132,16 3132,1 3162,31 3132,61 3132,46 3119,46" fill="rgb(226,193,253)" fill-opacity="1.0" stroke="rgb(90,77,101)" stroke-width="1" />
		<g>
			<title>PF01041</title>
			<polygon class="PF01041" points="3125,18 3146,18 3159,31 3146,44 3125,44" stroke-linejoin="round" width="35" height="26" fill="rgb(59,139,191)" stroke="rgb(47,111,152)" stroke-width="1" opacity="0.75" />
		</g>
	</g>
	<g>
		<title>idnS14</title>
		<polygon class="idnS14" points="3206,16 3194,16 3194,1 3164,31 3194,61 3194,46 3206,46" fill="rgb(252,202,183)" fill-opacity="1.0" stroke="rgb(100,80,73)" stroke-width="1" />
		<g>
			<title>PF06722</title>
			<polygon class="PF06722" points="3176,21 3179,18 3185,18 3185,44 3179,44 3176,40" stroke-linejoin="round" width="9" height="26" fill="rgb(200,129,88)" stroke="rgb(160,103,70)" stroke-width="1" opacity="0.75" />
		</g>
	</g>
	<g>
		<title>idnO2</title>
		<polygon class="idnO2" points="3249,16 3237,16 3237,1 3207,31 3237,61 3237,46 3249,46" fill="rgb(203,252,229)" fill-opacity="1.0" stroke="rgb(81,100,91)" stroke-width="1" />
		<g>
			<title>PF00067</title>
			<polygon class="PF00067" points="3213,27 3220,20 3220,41 3213,34" stroke-linejoin="round" width="7" height="26" fill="rgb(85,216,107)" stroke="rgb(68,172,85)" stroke-width="1" opacity="0.75" />
		</g>
	</g>
	<g>
		<title>idnA</title>
		<polygon class="idnA" points="120,16 120,16 120,1 113,31 120,61 120,46 120,46" fill="rgb(254,181,253)" fill-opacity="1.0" stroke="rgb(101,72,101)" stroke-width="1" />
		<g>
			<title>PF03621</title>
			<polygon class="PF03621" points="115,31 118,18 120,18 120,44 118,44" stroke-linejoin="round" width="5" height="26" fill="rgb(212,165,97)" stroke="rgb(169,132,77)" stroke-width="1" opacity="0.75" />
		</g>
	</g>
	<g>
		<title>idnS15</title>
		<polygon class="idnS15" points="3280,16 3279,16 3279,1 3249,31 3279,61 3279,46 3280,46" fill="rgb(251,195,192)" fill-opacity="1.0" stroke="rgb(100,78,76)" stroke-width="1" />
		<g>
			<title>PF06722</title>
			<polygon class="PF06722" points="3257,25 3264,18 3265,18 3265,44 3264,44 3257,36" stroke-linejoin="round" width="8" height="26" fill="rgb(200,129,88)" stroke="rgb(160,103,70)" stroke-width="1" opacity="0.75" />
		</g>
	</g>
	<g>
		<polygon class="NoName" points="3403,16 3389,16 3389,1 3359,31 3389,61 3389,46 3403,46" fill="rgb(255,255,255)" fill-opacity="1.0" stroke="rgb(50,50,50)" stroke-width="1" />
		<g>
			<title>PF00202</title>
			<polygon class="PF00202" points="3361,31 3374,18 3399,18 3399,44 3374,44" stroke-linejoin="round" width="40" height="26" fill="rgb(49,163,189)" stroke="rgb(39,130,151)" stroke-width="1" opacity="0.75" />
		</g>
	</g>
	<g>
		<polygon class="NoName" points="3407,16 3407,16 3407,1 3431,31 3407,61 3407,46 3407,46" fill="rgb(255,255,255)" fill-opacity="1.0" stroke="rgb(50,50,50)" stroke-width="1" />
		<g>
			<title>PF00106</title>
			<polygon class="PF00106" points="3407,18 3418,18 3426,28 3426,34 3418,44 3407,44" stroke-linejoin="round" width="19" height="26" fill="rgb(182,219,73)" stroke="rgb(145,175,58)" stroke-width="1" opacity="0.75" />
		</g>
	</g>
	<g>
		<polygon class="NoName" points="3449,16 3449,16 3449,1 3428,31 3449,61 3449,46 3449,46" fill="rgb(255,255,255)" fill-opacity="1.0" stroke="rgb(50,50,50)" stroke-width="1" />
	</g>
	<g>
		<polygon class="NoName" points="3476,16 3476,16 3476,1 3449,31 3476,61 3476,46 3476,46" fill="rgb(255,255,255)" fill-opacity="1.0" stroke="rgb(50,50,50)" stroke-width="1" />
		<g>
			<title>PF05721</title>
			<polygon class="PF05721" points="3456,26 3463,18 3474,18 3474,44 3463,44 3456,35" stroke-linejoin="round" width="18" height="26" fill="rgb(72,132,214)" stroke="rgb(57,105,171)" stroke-width="1" opacity="0.75" />
		</g>
	</g>
	<g>
		<polygon class="NoName" points="3584,16 3578,16 3578,1 3548,31 3578,61 3578,46 3584,46" fill="rgb(255,255,255)" fill-opacity="1.0" stroke="rgb(50,50,50)" stroke-width="1" />
	</g>
	<g>
		<polygon class="NoName" points="3633,16 3613,16 3613,1 3583,31 3613,61 3613,46 3633,46" fill="rgb(255,255,255)" fill-opacity="1.0" stroke="rgb(50,50,50)" stroke-width="1" />
	</g>
	<g>
		<polygon class="NoName" points="3634,16 3634,16 3634,1 3658,31 3634,61 3634,46 3634,46" fill="rgb(255,255,255)" fill-opacity="1.0" stroke="rgb(50,50,50)" stroke-width="1" />
		<g>
			<title>PF00293</title>
			<polygon class="PF00293" points="3635,18 3645,18 3647,21 3647,41 3645,44 3635,44" stroke-linejoin="round" width="12" height="26" fill="rgb(92,56,187)" stroke="rgb(73,44,149)" stroke-width="1" opacity="0.75" />
		</g>
	</g>
	<g>
		<polygon class="NoName" points="3671,16 3671,16 3671,1 3663,31 3671,61 3671,46 3671,46" fill="rgb(255,255,255)" fill-opacity="1.0" stroke="rgb(50,50,50)" stroke-width="1" />
		<g>
			<title>PF00392</title>
			<polygon class="PF00392" points="3665,31 3668,18 3670,18 3670,44 3668,44" stroke-linejoin="round" width="6" height="26" fill="rgb(160,85,194)" stroke="rgb(127,68,155)" stroke-width="1" opacity="0.75" />
		</g>
	</g>
	<g>
		<polygon class="NoName" points="3751,16 3751,16 3751,1 3743,31 3751,61 3751,46 3751,46" fill="rgb(255,255,255)" fill-opacity="1.0" stroke="rgb(50,50,50)" stroke-width="1" />
	</g>
	<g>
		<title>idnS1</title>
		<polygon class="idnS1" points="152,16 152,16 152,1 174,31 152,61 152,46 152,46" fill="rgb(251,203,239)" fill-opacity="1.0" stroke="rgb(100,81,95)" stroke-width="1" />
		<g>
			<title>PF02585</title>
			<polygon class="PF02585" points="152,18 161,18 164,21 164,41 161,44 152,44" stroke-linejoin="round" width="12" height="26" fill="rgb(97,215,95)" stroke="rgb(77,172,76)" stroke-width="1" opacity="0.75" />
		</g>
	</g>
	<g>
		<polygon class="NoName" points="3749,16 3749,16 3749,1 3761,31 3749,61 3749,46 3749,46" fill="rgb(255,255,255)" fill-opacity="1.0" stroke="rgb(50,50,50)" stroke-width="1" />
	</g>
	<g>
		<polygon class="NoName" points="3768,16 3768,16 3768,1 3780,31 3768,61 3768,46 3768,46" fill="rgb(255,255,255)" fill-opacity="1.0" stroke="rgb(50,50,50)" stroke-width="1" />
		<g>
			<title>PF14408</title>
			<polygon class="PF14408" points="3773,19 3777,31 3773,43" stroke-linejoin="round" width="6" height="26" fill="rgb(74,120,212)" stroke="rgb(59,95,169)" stroke-width="1" opacity="0.75" />
		</g>
	</g>
	<g>
		<polygon class="NoName" points="3781,16 3782,16 3782,1 3812,31 3782,61 3782,46 3781,46" fill="rgb(255,255,255)" fill-opacity="1.0" stroke="rgb(50,50,50)" stroke-width="1" />
	</g>
	<g>
		<polygon class="NoName" points="3813,16 3822,16 3822,1 3852,31 3822,61 3822,46 3813,46" fill="rgb(255,255,255)" fill-opacity="1.0" stroke="rgb(50,50,50)" stroke-width="1" />
		<g>
			<title>PF01135</title>
			<rect class="PF01135" x="3822" y="18" stroke-linejoin="round" width="14" height="26" fill="rgb(204,80,91)" stroke="rgb(163,64,72)" stroke-width="1" opacity="0.75" />
		</g>
	</g>
	<g>
		<polygon class="NoName" points="3886,16 3886,16 3886,1 3871,31 3886,61 3886,46 3886,46" fill="rgb(255,255,255)" fill-opacity="1.0" stroke="rgb(50,50,50)" stroke-width="1" />
		<g>
			<title>PF09056</title>
			<polygon class="PF09056" points="3873,31 3880,18 3881,18 3881,44 3880,44" stroke-linejoin="round" width="10" height="26" fill="rgb(79,65,213)" stroke="rgb(63,52,170)" stroke-width="1" opacity="0.75" />
		</g>
	</g>
	<g>
		<title>idnP5</title>
		<polygon class="idnP5" points="4283,16 3924,16 3924,1 3894,31 3924,61 3924,46 4283,46" fill="rgb(252,194,217)" fill-opacity="1.0" stroke="rgb(100,77,86)" stroke-width="1" />
		<g>
			<title>PF00975</title>
			<polygon class="PF00975" points="3896,31 3909,18 3916,18 3916,44 3909,44" stroke-linejoin="round" width="22" height="26" fill="rgb(207,80,138)" stroke="rgb(165,63,110)" stroke-width="1" opacity="0.75" />
		</g>
		<g>
			<title>PF00550</title>
			<rect class="PF00550" x="3925" y="18" stroke-linejoin="round" width="6" height="26" fill="rgb(103,191,88)" stroke="rgb(82,152,70)" stroke-width="1" opacity="0.75" />
		</g>
		<g>
			<title>PF08659</title>
			<rect class="PF08659" x="3943" y="18" stroke-linejoin="round" width="17" height="26" fill="rgb(66,209,188)" stroke="rgb(52,167,150)" stroke-width="1" opacity="0.75" />
		</g>
		<g>
			<title>PF14765</title>
			<rect class="PF14765" x="3984" y="18" stroke-linejoin="round" width="27" height="26" fill="rgb(173,56,182)" stroke="rgb(138,44,145)" stroke-width="1" opacity="0.75" />
		</g>
		<g>
			<title>PF00698</title>
			<rect class="PF00698" x="4017" y="18" stroke-linejoin="round" width="31" height="26" fill="rgb(59,176,209)" stroke="rgb(47,140,167)" stroke-width="1" opacity="0.75" />
		</g>
		<g>
			<title>PF16197</title>
			<rect class="PF16197" x="4052" y="18" stroke-linejoin="round" width="14" height="26" fill="rgb(68,179,89)" stroke="rgb(54,143,71)" stroke-width="1" opacity="0.75" />
		</g>
		<g>
			<title>PF02801</title>
			<rect class="PF02801" x="4067" y="18" stroke-linejoin="round" width="11" height="26" fill="rgb(215,78,102)" stroke="rgb(172,62,81)" stroke-width="1" opacity="0.75" />
		</g>
		<g>
			<title>PF00109</title>
			<rect class="PF00109" x="4079" y="18" stroke-linejoin="round" width="24" height="26" fill="rgb(112,116,228)" stroke="rgb(89,92,182)" stroke-width="1" opacity="0.75" />
		</g>
		<g>
			<title>PF00550</title>
			<rect class="PF00550" x="4106" y="18" stroke-linejoin="round" width="6" height="26" fill="rgb(103,191,88)" stroke="rgb(82,152,70)" stroke-width="1" opacity="0.75" />
		</g>
		<g>
			<title>PF08659</title>
			<rect class="PF08659" x="4123" y="18" stroke-linejoin="round" width="17" height="26" fill="rgb(66,209,188)" stroke="rgb(52,167,150)" stroke-width="1" opacity="0.75" />
		</g>
		<g>
			<title>PF14765</title>
			<rect class="PF14765" x="4161" y="18" stroke-linejoin="round" width="28" height="26" fill="rgb(173,56,182)" stroke="rgb(138,44,145)" stroke-width="1" opacity="0.75" />
		</g>
		<g>
			<title>PF00698</title>
			<rect class="PF00698" x="4194" y="18" stroke-linejoin="round" width="31" height="26" fill="rgb(59,176,209)" stroke="rgb(47,140,167)" stroke-width="1" opacity="0.75" />
		</g>
		<g>
			<title>PF16197</title>
			<rect class="PF16197" x="4229" y="18" stroke-linejoin="round" width="14" height="26" fill="rgb(68,179,89)" stroke="rgb(54,143,71)" stroke-width="1" opacity="0.75" />
		</g>
		<g>
			<title>PF02801</title>
			<rect class="PF02801" x="4244" y="18" stroke-linejoin="round" width="11" height="26" fill="rgb(215,78,102)" stroke="rgb(172,62,81)" stroke-width="1" opacity="0.75" />
		</g>
		<g>
			<title>PF00109</title>
			<rect class="PF00109" x="4256" y="18" stroke-linejoin="round" width="23" height="26" fill="rgb(112,116,228)" stroke="rgb(89,92,182)" stroke-width="1" opacity="0.75" />
		</g>
	</g>
	<g>
		<title>idnM1</title>
		<polygon class="idnM1" points="4312,16 4312,16 4312,1 4340,31 4312,61 4312,46 4312,46" fill="rgb(254,216,249)" fill-opacity="1.0" stroke="rgb(101,86,99)" stroke-width="1" />
		<g>
			<title>PF02737</title>
			<polygon class="PF02737" points="4312,18 4325,18 4329,23 4329,39 4325,44 4312,44" stroke-linejoin="round" width="17" height="26" fill="rgb(212,65,199)" stroke="rgb(169,52,159)" stroke-width="1" opacity="0.75" />
		</g>
		<g>
			<title>PF00725</title>
			<polygon class="PF00725" points="4330,24 4337,31 4330,38" stroke-linejoin="round" width="9" height="26" fill="rgb(180,78,60)" stroke="rgb(144,62,48)" stroke-width="1" opacity="0.75" />
		</g>
	</g>
	<g>
		<title>idnM2</title>
		<polygon class="idnM2" points="4341,16 4341,16 4341,1 4350,31 4341,61 4341,46 4341,46" fill="rgb(251,222,209)" fill-opacity="1.0" stroke="rgb(100,88,83)" stroke-width="1" />
		<g>
			<title>PF00550</title>
			<polygon class="PF00550" points="4342,18 4343,18 4347,31 4343,44 4342,44" stroke-linejoin="round" width="6" height="26" fill="rgb(103,191,88)" stroke="rgb(82,152,70)" stroke-width="1" opacity="0.75" />
		</g>
	</g>
	<g>
		<title>idnM3</title>
		<polygon class="idnM3" points="4350,16 4361,16 4361,1 4391,31 4361,61 4361,46 4350,46" fill="rgb(179,225,250)" fill-opacity="1.0" stroke="rgb(71,90,100)" stroke-width="1" />
		<g>
			<title>PF02771</title>
			<rect class="PF02771" x="4352" y="18" stroke-linejoin="round" width="10" height="26" fill="rgb(105,135,218)" stroke="rgb(84,108,174)" stroke-width="1" opacity="0.75" />
		</g>
		<g>
			<title>PF02770</title>
			<rect class="PF02770" x="4363" y="18" stroke-linejoin="round" width="11" height="26" fill="rgb(225,186,97)" stroke="rgb(180,148,77)" stroke-width="1" opacity="0.75" />
		</g>
		<g>
			<title>PF00441</title>
			<polygon class="PF00441" points="4376,19 4388,31 4376,43" stroke-linejoin="round" width="14" height="26" fill="rgb(85,191,117)" stroke="rgb(68,152,93)" stroke-width="1" opacity="0.75" />
		</g>
	</g>
	<g>
		<title>idnM4</title>
		<polygon class="idnM4" points="4392,16 4399,16 4399,1 4429,31 4399,61 4399,46 4392,46" fill="rgb(254,207,236)" fill-opacity="1.0" stroke="rgb(101,82,94)" stroke-width="1" />
	</g>
	<g>
		<title>idnS2</title>
		<polygon class="idnS2" points="181,16 198,16 198,1 228,31 198,61 198,46 181,46" fill="rgb(254,197,234)" fill-opacity="1.0" stroke="rgb(101,78,93)" stroke-width="1" />
		<g>
			<title>PF03721</title>
			<rect class="PF03721" x="186" y="18" stroke-linejoin="round" width="18" height="26" fill="rgb(156,194,58)" stroke="rgb(124,155,46)" stroke-width="1" opacity="0.75" />
		</g>
		<g>
			<title>PF00984</title>
			<polygon class="PF00984" points="205,18 212,18 214,20 214,42 212,44 205,44" stroke-linejoin="round" width="9" height="26" fill="rgb(69,189,184)" stroke="rgb(55,151,147)" stroke-width="1" opacity="0.75" />
		</g>
		<g>
			<title>PF03720</title>
			<polygon class="PF03720" points="217,23 225,31 217,39" stroke-linejoin="round" width="9" height="26" fill="rgb(221,130,74)" stroke="rgb(176,103,59)" stroke-width="1" opacity="0.75" />
		</g>
	</g>
	<g>
		<title>idnM5</title>
		<polygon class="idnM5" points="4461,16 4461,16 4461,1 4439,31 4461,61 4461,46 4461,46" fill="rgb(239,208,252)" fill-opacity="1.0" stroke="rgb(95,83,100)" stroke-width="1" />
		<g>
			<title>PF01596</title>
			<polygon class="PF01596" points="4441,31 4451,18 4459,18 4459,44 4451,44" stroke-linejoin="round" width="20" height="26" fill="rgb(168,187,48)" stroke="rgb(134,149,38)" stroke-width="1" opacity="0.75" />
		</g>
	</g>
	<g>
		<polygon class="NoName" points="4471,16 4471,16 4471,1 4484,31 4471,61 4471,46 4471,46" fill="rgb(255,255,255)" fill-opacity="1.0" stroke="rgb(50,50,50)" stroke-width="1" />
	</g>
	<g>
		<polygon class="NoName" points="4540,16 4517,16 4517,1 4487,31 4517,61 4517,46 4540,46" fill="rgb(255,255,255)" fill-opacity="1.0" stroke="rgb(50,50,50)" stroke-width="1" />
		<g>
			<title>PF01564</title>
			<polygon class="PF01564" points="4493,27 4502,18 4516,18 4516,44 4502,44 4493,34" stroke-linejoin="round" width="23" height="26" fill="rgb(221,99,146)" stroke="rgb(176,79,116)" stroke-width="1" opacity="0.75" />
		</g>
	</g>
	<g>
		<polygon class="NoName" points="4555,16 4555,16 4555,1 4541,31 4555,61 4555,46 4555,46" fill="rgb(255,255,255)" fill-opacity="1.0" stroke="rgb(50,50,50)" stroke-width="1" />
		<g>
			<title>PF03994</title>
			<polygon class="PF03994" points="4543,31 4546,25 4546,36" stroke-linejoin="round" width="5" height="26" fill="rgb(206,93,72)" stroke="rgb(164,74,57)" stroke-width="1" opacity="0.75" />
		</g>
		<g>
			<title>PF03994</title>
			<polygon class="PF03994" points="4548,20 4549,18 4553,18 4553,44 4549,44 4548,41" stroke-linejoin="round" width="5" height="26" fill="rgb(206,93,72)" stroke="rgb(164,74,57)" stroke-width="1" opacity="0.75" />
		</g>
	</g>
	<g>
		<polygon class="NoName" points="4570,16 4570,16 4570,1 4557,31 4570,61 4570,46 4570,46" fill="rgb(255,255,255)" fill-opacity="1.0" stroke="rgb(50,50,50)" stroke-width="1" />
		<g>
			<title>PF14042</title>
			<polygon class="PF14042" points="4559,31 4565,18 4569,18 4569,44 4565,44" stroke-linejoin="round" width="12" height="26" fill="rgb(52,73,192)" stroke="rgb(41,58,153)" stroke-width="1" opacity="0.75" />
		</g>
	</g>
	<g>
		<polygon class="NoName" points="4590,16 4590,16 4590,1 4571,31 4590,61 4590,46 4590,46" fill="rgb(255,255,255)" fill-opacity="1.0" stroke="rgb(50,50,50)" stroke-width="1" />
		<g>
			<title>PF10936</title>
			<polygon class="PF10936" points="4573,31 4573,31 4573,30" stroke-linejoin="round" width="2" height="26" fill="rgb(178,85,67)" stroke="rgb(142,68,53)" stroke-width="1" opacity="0.75" />
		</g>
		<g>
			<title>PF10936</title>
			<polygon class="PF10936" points="4576,26 4581,18 4589,18 4589,44 4581,44 4576,35" stroke-linejoin="round" width="13" height="26" fill="rgb(178,85,67)" stroke="rgb(142,68,53)" stroke-width="1" opacity="0.75" />
		</g>
	</g>
	<g>
		<title>idnS3</title>
		<polygon class="idnS3" points="230,16 231,16 231,1 261,31 231,61 231,46 230,46" fill="rgb(237,203,254)" fill-opacity="1.0" stroke="rgb(94,81,101)" stroke-width="1" />
		<g>
			<title>PF01370</title>
			<polygon class="PF01370" points="230,18 245,18 254,27 254,35 245,44 230,44" stroke-linejoin="round" width="24" height="26" fill="rgb(98,102,214)" stroke="rgb(78,81,171)" stroke-width="1" opacity="0.75" />
		</g>
	</g>
	<g>
		<title>idnR1</title>
		<polygon class="idnR1" points="270,16 337,16 337,1 367,31 337,61 337,46 270,46" fill="rgb(249,244,206)" fill-opacity="1.0" stroke="rgb(99,97,82)" stroke-width="1" />
		<g>
			<title>PF13191</title>
			<rect class="PF13191" x="272" y="18" stroke-linejoin="round" width="14" height="26" fill="rgb(186,102,77)" stroke="rgb(148,81,61)" stroke-width="1" opacity="0.75" />
		</g>
		<g>
			<title>PF00196</title>
			<polygon class="PF00196" points="359,26 364,31 364,31 359,36" stroke-linejoin="round" width="5" height="26" fill="rgb(219,94,82)" stroke="rgb(175,75,65)" stroke-width="1" opacity="0.75" />
		</g>
	</g>
	<g>
		<title>idnL1</title>
		<polygon class="idnL1" points="377,16 400,16 400,1 430,31 400,61 400,46 377,46" fill="rgb(253,219,210)" fill-opacity="1.0" stroke="rgb(101,87,84)" stroke-width="1" />
		<g>
			<title>PF00501</title>
			<polygon class="PF00501" points="379,18 414,18 420,24 420,38 414,44 379,44" stroke-linejoin="round" width="41" height="26" fill="rgb(60,217,223)" stroke="rgb(48,173,178)" stroke-width="1" opacity="0.75" />
		</g>
		<g>
			<title>PF13193</title>
			<polygon class="PF13193" points="420,24 427,31 427,31 420,38" stroke-linejoin="round" width="7" height="26" fill="rgb(182,50,118)" stroke="rgb(145,39,94)" stroke-width="1" opacity="0.75" />
		</g>
	</g>
</svg>
