<svg version="1.1" baseProfile="full" xmlns="http://www.w3.org/2000/svg" width="351" height="62">
	<line x1="1" y1="31" x2="350" y2="31" style="stroke:rgb(50,50,50); stroke-width:3 "/>
	<g>
		<title>tymB</title>
		<polygon class="tymB" points="350,16 350,16 350,1 338,31 350,61 350,46 350,46" fill="rgb(225,213,252)" fill-opacity="1.0" stroke="rgb(90,85,100)" stroke-width="1" />
		<g>
			<title>PF01242</title>
			<polygon class="PF01242" points="340,31 345,18 349,18 349,44 345,44" stroke-linejoin="round" width="11" height="26" fill="rgb(179,224,60)" stroke="rgb(143,179,48)" stroke-width="1" opacity="0.75" />
		</g>
	</g>
	<g>
		<title>tymA</title>
		<polygon class="tymA" points="3,16 68,16 68,1 98,31 68,61 68,46 3,46" fill="rgb(193,253,179)" fill-opacity="1.0" stroke="rgb(77,101,71)" stroke-width="1" />
		<g>
			<title>PF13191</title>
			<rect class="PF13191" x="4" y="18" stroke-linejoin="round" width="16" height="26" fill="rgb(186,102,77)" stroke="rgb(148,81,61)" stroke-width="1" opacity="0.75" />
		</g>
		<g>
			<title>PF00196</title>
			<polygon class="PF00196" points="91,27 95,31 91,35" stroke-linejoin="round" width="5" height="26" fill="rgb(219,94,82)" stroke="rgb(175,75,65)" stroke-width="1" opacity="0.75" />
		</g>
	</g>
	<g>
		<title>tymM</title>
		<polygon class="tymM" points="104,16 104,16 104,1 127,31 104,61 104,46 104,46" fill="rgb(212,252,194)" fill-opacity="1.0" stroke="rgb(84,100,77)" stroke-width="1" />
		<g>
			<title>PF06508</title>
			<polygon class="PF06508" points="105,18 114,18 124,31 114,44 105,44" stroke-linejoin="round" width="20" height="26" fill="rgb(217,93,123)" stroke="rgb(173,74,98)" stroke-width="1" opacity="0.75" />
		</g>
	</g>
	<g>
		<title>tymI</title>
		<polygon class="tymI" points="154,16 154,16 154,1 132,31 154,61 154,46 154,46" fill="rgb(251,231,193)" fill-opacity="1.0" stroke="rgb(100,92,77)" stroke-width="1" />
		<g>
			<title>PF13419</title>
			<polygon class="PF13419" points="135,30 144,18 153,18 153,44 144,44 135,31" stroke-linejoin="round" width="18" height="26" fill="rgb(60,223,188)" stroke="rgb(48,178,150)" stroke-width="1" opacity="0.75" />
		</g>
	</g>
	<g>
		<title>tymH</title>
		<polygon class="tymH" points="171,16 171,16 171,1 155,31 171,61 171,46 171,46" fill="rgb(209,251,211)" fill-opacity="1.0" stroke="rgb(83,100,84)" stroke-width="1" />
		<g>
			<title>PF00156</title>
			<polygon class="PF00156" points="157,31 164,18 170,18 170,44 164,44" stroke-linejoin="round" width="14" height="26" fill="rgb(210,210,74)" stroke="rgb(168,168,59)" stroke-width="1" opacity="0.75" />
		</g>
	</g>
	<g>
		<title>tymG</title>
		<polygon class="tymG" points="207,16 202,16 202,1 172,31 202,61 202,46 207,46" fill="rgb(234,254,210)" fill-opacity="1.0" stroke="rgb(93,101,84)" stroke-width="1" />
		<g>
			<title>PF00709</title>
			<polygon class="PF00709" points="177,28 187,18 192,18 192,44 187,44 177,33" stroke-linejoin="round" width="15" height="26" fill="rgb(198,70,120)" stroke="rgb(158,56,96)" stroke-width="1" opacity="0.75" />
		</g>
		<g>
			<title>PF00709</title>
			<rect class="PF00709" x="192" y="18" stroke-linejoin="round" width="14" height="26" fill="rgb(198,70,120)" stroke="rgb(158,56,96)" stroke-width="1" opacity="0.75" />
		</g>
	</g>
	<g>
		<title>tymF</title>
		<polygon class="tymF" points="253,16 237,16 237,1 207,31 237,61 237,46 253,46" fill="rgb(209,204,251)" fill-opacity="1.0" stroke="rgb(83,81,100)" stroke-width="1" />
		<g>
			<title>PF10397</title>
			<polygon class="PF10397" points="209,31 216,24 216,37" stroke-linejoin="round" width="7" height="26" fill="rgb(198,156,85)" stroke="rgb(158,124,68)" stroke-width="1" opacity="0.75" />
		</g>
		<g>
			<title>PF00206</title>
			<rect class="PF00206" x="223" y="18" stroke-linejoin="round" width="28" height="26" fill="rgb(217,92,141)" stroke="rgb(173,73,112)" stroke-width="1" opacity="0.75" />
		</g>
	</g>
	<g>
		<title>tymE</title>
		<polygon class="tymE" points="291,16 283,16 283,1 253,31 283,61 283,46 291,46" fill="rgb(190,178,254)" fill-opacity="1.0" stroke="rgb(76,71,101)" stroke-width="1" />
		<g>
			<title>PF00478</title>
			<polygon class="PF00478" points="255,31 268,18 289,18 289,44 268,44" stroke-linejoin="round" width="35" height="26" fill="rgb(225,99,218)" stroke="rgb(180,79,174)" stroke-width="1" opacity="0.75" />
		</g>
	</g>
	<g>
		<title>tymD</title>
		<polygon class="tymD" points="312,16 312,16 312,1 292,31 312,61 312,46 312,46" fill="rgb(246,254,186)" fill-opacity="1.0" stroke="rgb(98,101,74)" stroke-width="1" />
		<g>
			<title>PF01227</title>
			<polygon class="PF01227" points="294,31 303,18 309,18 309,44 303,44" stroke-linejoin="round" width="17" height="26" fill="rgb(48,180,84)" stroke="rgb(38,144,67)" stroke-width="1" opacity="0.75" />
		</g>
	</g>
	<g>
		<title>tymC</title>
		<polygon class="tymC" points="334,16 334,16 334,1 313,31 334,61 334,46 334,46" fill="rgb(193,214,249)" fill-opacity="1.0" stroke="rgb(77,85,99)" stroke-width="1" />
		<g>
			<title>PF04055</title>
			<polygon class="PF04055" points="317,28 324,18 333,18 333,44 324,44 317,33" stroke-linejoin="round" width="16" height="26" fill="rgb(149,56,222)" stroke="rgb(119,44,177)" stroke-width="1" opacity="0.75" />
		</g>
	</g>
</svg>
