<svg version="1.1" baseProfile="full" xmlns="http://www.w3.org/2000/svg" width="1073" height="62">
	<line x1="1" y1="31" x2="1072" y2="31" style="stroke:rgb(50,50,50); stroke-width:3 "/>
	<g>
		<polygon class="NoName" points="729,16 751,16 751,1 781,31 751,61 751,46 729,46" fill="rgb(255,255,255)" fill-opacity="1.0" stroke="rgb(50,50,50)" stroke-width="1" />
		<g>
			<title>PF00171</title>
			<polygon class="PF00171" points="731,18 765,18 777,30 777,32 765,44 731,44" stroke-linejoin="round" width="46" height="26" fill="rgb(105,213,139)" stroke="rgb(84,170,111)" stroke-width="1" opacity="0.75" />
		</g>
	</g>
	<g>
		<polygon class="NoName" points="841,16 832,16 832,1 802,31 832,61 832,46 841,46" fill="rgb(255,255,255)" fill-opacity="1.0" stroke="rgb(50,50,50)" stroke-width="1" />
		<g>
			<title>PF03171</title>
			<polygon class="PF03171" points="812,23 817,18 822,18 822,44 817,44 812,38" stroke-linejoin="round" width="10" height="26" fill="rgb(184,68,180)" stroke="rgb(147,54,144)" stroke-width="1" opacity="0.75" />
		</g>
		<g>
			<title>PF14226</title>
			<rect class="PF14226" x="827" y="18" stroke-linejoin="round" width="12" height="26" fill="rgb(122,206,79)" stroke="rgb(97,164,63)" stroke-width="1" opacity="0.75" />
		</g>
	</g>
	<g>
		<polygon class="NoName" points="932,16 897,16 897,1 867,31 897,61 897,46 932,46" fill="rgb(255,255,255)" fill-opacity="1.0" stroke="rgb(50,50,50)" stroke-width="1" />
		<g>
			<title>PF04082</title>
			<rect class="PF04082" x="885" y="18" stroke-linejoin="round" width="30" height="26" fill="rgb(51,172,200)" stroke="rgb(40,137,160)" stroke-width="1" opacity="0.75" />
		</g>
		<g>
			<title>PF00172</title>
			<rect class="PF00172" x="926" y="18" stroke-linejoin="round" width="3" height="26" fill="rgb(121,178,76)" stroke="rgb(96,142,60)" stroke-width="1" opacity="0.75" />
		</g>
	</g>
	<g>
		<polygon class="NoName" points="932,16 897,16 897,1 867,31 897,61 897,46 932,46" fill="rgb(255,255,255)" fill-opacity="1.0" stroke="rgb(50,50,50)" stroke-width="1" />
		<g>
			<title>PF04082</title>
			<rect class="PF04082" x="885" y="18" stroke-linejoin="round" width="30" height="26" fill="rgb(51,172,200)" stroke="rgb(40,137,160)" stroke-width="1" opacity="0.75" />
		</g>
		<g>
			<title>PF00172</title>
			<rect class="PF00172" x="926" y="18" stroke-linejoin="round" width="3" height="26" fill="rgb(121,178,76)" stroke="rgb(96,142,60)" stroke-width="1" opacity="0.75" />
		</g>
	</g>
	<g>
		<polygon class="NoName" points="1014,16 1014,16 1014,1 1044,31 1014,61 1014,46 1014,46" fill="rgb(255,255,255)" fill-opacity="1.0" stroke="rgb(50,50,50)" stroke-width="1" />
		<g>
			<title>PF00106</title>
			<polygon class="PF00106" points="1014,18 1028,18 1030,20 1030,42 1028,44 1014,44" stroke-linejoin="round" width="16" height="26" fill="rgb(182,219,73)" stroke="rgb(145,175,58)" stroke-width="1" opacity="0.75" />
		</g>
	</g>
	<g>
		<polygon class="NoName" points="44,16 39,16 39,1 9,31 39,61 39,46 44,46" fill="rgb(255,255,255)" fill-opacity="1.0" stroke="rgb(50,50,50)" stroke-width="1" />
		<g>
			<title>PF00596</title>
			<polygon class="PF00596" points="23,19 24,18 42,18 42,44 24,44 23,42" stroke-linejoin="round" width="19" height="26" fill="rgb(208,130,90)" stroke="rgb(166,104,72)" stroke-width="1" opacity="0.75" />
		</g>
	</g>
	<g>
		<polygon class="NoName" points="146,16 129,16 129,1 99,31 129,61 129,46 146,46" fill="rgb(255,255,255)" fill-opacity="1.0" stroke="rgb(50,50,50)" stroke-width="1" />
		<g>
			<title>PF00067</title>
			<polygon class="PF00067" points="109,23 114,18 145,18 145,44 114,44 109,38" stroke-linejoin="round" width="36" height="26" fill="rgb(85,216,107)" stroke="rgb(68,172,85)" stroke-width="1" opacity="0.75" />
		</g>
	</g>
	<g>
		<polygon class="NoName" points="162,16 129,16 129,1 99,31 129,61 129,46 162,46" fill="rgb(255,255,255)" fill-opacity="1.0" stroke="rgb(50,50,50)" stroke-width="1" />
		<g>
			<title>PF00067</title>
			<polygon class="PF00067" points="112,20 114,18 158,18 158,44 114,44 112,41" stroke-linejoin="round" width="46" height="26" fill="rgb(85,216,107)" stroke="rgb(68,172,85)" stroke-width="1" opacity="0.75" />
		</g>
	</g>
	<g>
		<polygon class="NoName" points="240,16 223,16 223,1 193,31 223,61 223,46 240,46" fill="rgb(255,255,255)" fill-opacity="1.0" stroke="rgb(50,50,50)" stroke-width="1" />
		<g>
			<title>PF01494</title>
			<polygon class="PF01494" points="203,23 208,18 211,18 211,44 208,44 203,38" stroke-linejoin="round" width="8" height="26" fill="rgb(182,175,59)" stroke="rgb(145,140,47)" stroke-width="1" opacity="0.75" />
		</g>
		<g>
			<title>PF01494</title>
			<rect class="PF01494" x="213" y="18" stroke-linejoin="round" width="25" height="26" fill="rgb(182,175,59)" stroke="rgb(145,140,47)" stroke-width="1" opacity="0.75" />
		</g>
	</g>
	<g>
		<polygon class="NoName" points="263,16 501,16 501,1 531,31 501,61 501,46 263,46" fill="rgb(255,255,255)" fill-opacity="1.0" stroke="rgb(50,50,50)" stroke-width="1" />
		<g>
			<title>PF16073</title>
			<rect class="PF16073" x="264" y="18" stroke-linejoin="round" width="24" height="26" fill="rgb(77,115,183)" stroke="rgb(61,91,146)" stroke-width="1" opacity="0.75" />
		</g>
		<g>
			<title>PF00109</title>
			<rect class="PF00109" x="301" y="18" stroke-linejoin="round" width="24" height="26" fill="rgb(112,116,228)" stroke="rgb(89,92,182)" stroke-width="1" opacity="0.75" />
		</g>
		<g>
			<title>PF02801</title>
			<rect class="PF02801" x="326" y="18" stroke-linejoin="round" width="11" height="26" fill="rgb(215,78,102)" stroke="rgb(172,62,81)" stroke-width="1" opacity="0.75" />
		</g>
		<g>
			<title>PF00698</title>
			<rect class="PF00698" x="353" y="18" stroke-linejoin="round" width="30" height="26" fill="rgb(59,176,209)" stroke="rgb(47,140,167)" stroke-width="1" opacity="0.75" />
		</g>
		<g>
			<title>PF00550</title>
			<rect class="PF00550" x="429" y="18" stroke-linejoin="round" width="6" height="26" fill="rgb(103,191,88)" stroke="rgb(82,152,70)" stroke-width="1" opacity="0.75" />
		</g>
		<g>
			<title>PF00550</title>
			<rect class="PF00550" x="440" y="18" stroke-linejoin="round" width="6" height="26" fill="rgb(103,191,88)" stroke="rgb(82,152,70)" stroke-width="1" opacity="0.75" />
		</g>
		<g>
			<title>PF08242</title>
			<rect class="PF08242" x="470" y="18" stroke-linejoin="round" width="10" height="26" fill="rgb(187,59,115)" stroke="rgb(149,47,92)" stroke-width="1" opacity="0.75" />
		</g>
		<g>
			<title>PF07993</title>
			<polygon class="PF07993" points="492,18 515,18 516,19 516,43 515,44 492,44" stroke-linejoin="round" width="24" height="26" fill="rgb(100,212,204)" stroke="rgb(80,169,163)" stroke-width="1" opacity="0.75" />
		</g>
	</g>
	<g>
		<polygon class="NoName" points="565,16 565,16 565,1 546,31 565,61 565,46 565,46" fill="rgb(255,255,255)" fill-opacity="1.0" stroke="rgb(50,50,50)" stroke-width="1" />
		<g>
			<title>PF01738</title>
			<polygon class="PF01738" points="548,31 556,18 565,18 565,44 556,44" stroke-linejoin="round" width="17" height="26" fill="rgb(188,185,48)" stroke="rgb(150,147,38)" stroke-width="1" opacity="0.75" />
		</g>
	</g>
	<g>
		<polygon class="NoName" points="575,16 575,16 575,1 546,31 575,61 575,46 575,46" fill="rgb(255,255,255)" fill-opacity="1.0" stroke="rgb(50,50,50)" stroke-width="1" />
		<g>
			<title>PF01738</title>
			<polygon class="PF01738" points="550,29 561,18 572,18 572,44 561,44 550,32" stroke-linejoin="round" width="22" height="26" fill="rgb(188,185,48)" stroke="rgb(150,147,38)" stroke-width="1" opacity="0.75" />
		</g>
	</g>
	<g>
		<polygon class="NoName" points="597,16 622,16 622,1 652,31 622,61 622,46 597,46" fill="rgb(255,255,255)" fill-opacity="1.0" stroke="rgb(50,50,50)" stroke-width="1" />
		<g>
			<title>PF07690</title>
			<rect class="PF07690" x="604" y="18" stroke-linejoin="round" width="29" height="26" fill="rgb(193,224,74)" stroke="rgb(154,179,59)" stroke-width="1" opacity="0.75" />
		</g>
	</g>
	<g>
		<polygon class="NoName" points="704,16 702,16 702,1 672,31 702,61 702,46 704,46" fill="rgb(255,255,255)" fill-opacity="1.0" stroke="rgb(50,50,50)" stroke-width="1" />
		<g>
			<title>PF03959</title>
			<polygon class="PF03959" points="675,30 687,18 699,18 699,44 687,44 675,31" stroke-linejoin="round" width="24" height="26" fill="rgb(54,166,181)" stroke="rgb(43,132,144)" stroke-width="1" opacity="0.75" />
		</g>
	</g>
</svg>
