<svg version="1.1" baseProfile="full" xmlns="http://www.w3.org/2000/svg" width="1598" height="62">
	<line x1="1" y1="31" x2="1597" y2="31" style="stroke:rgb(50,50,50); stroke-width:3 "/>
	<g>
		<title>phqJ</title>
		<polygon class="phqJ" points="971,16 983,16 983,1 1013,31 983,61 983,46 971,46" fill="rgb(193,183,250)" fill-opacity="1.0" stroke="rgb(77,73,100)" stroke-width="1" />
		<g>
			<title>PF11991</title>
			<polygon class="PF11991" points="974,18 997,18 1007,28 1007,34 997,44 974,44" stroke-linejoin="round" width="33" height="26" fill="rgb(197,197,93)" stroke="rgb(157,157,74)" stroke-width="1" opacity="0.75" />
		</g>
	</g>
	<g>
		<title>phqK</title>
		<polygon class="phqK" points="1098,16 1079,16 1079,1 1049,31 1079,61 1079,46 1098,46" fill="rgb(199,253,226)" fill-opacity="1.0" stroke="rgb(79,101,90)" stroke-width="1" />
		<g>
			<title>PF01494</title>
			<polygon class="PF01494" points="1061,21 1064,18 1069,18 1069,44 1064,44 1061,40" stroke-linejoin="round" width="8" height="26" fill="rgb(182,175,59)" stroke="rgb(145,140,47)" stroke-width="1" opacity="0.75" />
		</g>
		<g>
			<title>PF01494</title>
			<rect class="PF01494" x="1072" y="18" stroke-linejoin="round" width="25" height="26" fill="rgb(182,175,59)" stroke="rgb(145,140,47)" stroke-width="1" opacity="0.75" />
		</g>
	</g>
	<g>
		<title>phqL</title>
		<polygon class="phqL" points="1228,16 1196,16 1196,1 1166,31 1196,61 1196,46 1228,46" fill="rgb(247,195,250)" fill-opacity="1.0" stroke="rgb(98,78,100)" stroke-width="1" />
		<g>
			<title>PF00067</title>
			<polygon class="PF00067" points="1172,27 1181,18 1216,18 1216,44 1181,44 1172,34" stroke-linejoin="round" width="44" height="26" fill="rgb(85,216,107)" stroke="rgb(68,172,85)" stroke-width="1" opacity="0.75" />
		</g>
	</g>
	<g>
		<title>phqM</title>
		<polygon class="phqM" points="1322,16 1276,16 1276,1 1246,31 1276,61 1276,46 1322,46" fill="rgb(189,221,252)" fill-opacity="1.0" stroke="rgb(75,88,100)" stroke-width="1" />
		<g>
			<title>PF00067</title>
			<rect class="PF00067" x="1270" y="18" stroke-linejoin="round" width="45" height="26" fill="rgb(85,216,107)" stroke="rgb(68,172,85)" stroke-width="1" opacity="0.75" />
		</g>
	</g>
	<g>
		<title>phqN</title>
		<polygon class="phqN" points="1479,16 1479,16 1479,1 1450,31 1479,61 1479,46 1479,46" fill="rgb(254,209,236)" fill-opacity="1.0" stroke="rgb(101,83,94)" stroke-width="1" />
		<g>
			<title>PF08498</title>
			<polygon class="PF08498" points="1452,31 1456,27 1456,34" stroke-linejoin="round" width="6" height="26" fill="rgb(65,219,176)" stroke="rgb(52,175,140)" stroke-width="1" opacity="0.75" />
		</g>
		<g>
			<title>PF08241</title>
			<polygon class="PF08241" points="1465,18 1465,18 1474,18 1474,44 1465,44 1465,43" stroke-linejoin="round" width="9" height="26" fill="rgb(106,219,159)" stroke="rgb(84,175,127)" stroke-width="1" opacity="0.75" />
		</g>
	</g>
	<g>
		<title>phqO</title>
		<polygon class="phqO" points="1535,16 1566,16 1566,1 1596,31 1566,61 1566,46 1535,46" fill="rgb(207,236,252)" fill-opacity="1.0" stroke="rgb(82,94,100)" stroke-width="1" />
		<g>
			<title>PF00067</title>
			<rect class="PF00067" x="1549" y="18" stroke-linejoin="round" width="27" height="26" fill="rgb(85,216,107)" stroke="rgb(68,172,85)" stroke-width="1" opacity="0.75" />
		</g>
	</g>
	<g>
		<title>phqA</title>
		<polygon class="phqA" points="1,16 13,16 13,1 43,31 13,61 13,46 1,46" fill="rgb(251,180,177)" fill-opacity="1.0" stroke="rgb(100,72,70)" stroke-width="1" />
		<g>
			<title>PF11991</title>
			<polygon class="PF11991" points="3,18 27,18 37,28 37,34 27,44 3,44" stroke-linejoin="round" width="34" height="26" fill="rgb(197,197,93)" stroke="rgb(157,157,74)" stroke-width="1" opacity="0.75" />
		</g>
	</g>
	<g>
		<title>phqB</title>
		<polygon class="phqB" points="299,16 84,16 84,1 54,31 84,61 84,46 299,46" fill="rgb(239,211,251)" fill-opacity="1.0" stroke="rgb(95,84,100)" stroke-width="1" />
		<g>
			<title>PF07993</title>
			<polygon class="PF07993" points="69,18 69,18 94,18 94,44 69,44 69,43" stroke-linejoin="round" width="25" height="26" fill="rgb(100,212,204)" stroke="rgb(80,169,163)" stroke-width="1" opacity="0.75" />
		</g>
		<g>
			<title>PF00501</title>
			<rect class="PF00501" x="122" y="18" stroke-linejoin="round" width="40" height="26" fill="rgb(60,217,223)" stroke="rgb(48,173,178)" stroke-width="1" opacity="0.75" />
		</g>
		<g>
			<title>PF00668</title>
			<rect class="PF00668" x="165" y="18" stroke-linejoin="round" width="42" height="26" fill="rgb(224,184,98)" stroke="rgb(179,147,78)" stroke-width="1" opacity="0.75" />
		</g>
		<g>
			<title>PF00501</title>
			<rect class="PF00501" x="233" y="18" stroke-linejoin="round" width="40" height="26" fill="rgb(60,217,223)" stroke="rgb(48,173,178)" stroke-width="1" opacity="0.75" />
		</g>
	</g>
	<g>
		<title>phqC</title>
		<polygon class="phqC" points="318,16 326,16 326,1 356,31 326,61 326,46 318,46" fill="rgb(202,207,253)" fill-opacity="1.0" stroke="rgb(80,82,101)" stroke-width="1" />
		<g>
			<title>PF14226</title>
			<rect class="PF14226" x="320" y="18" stroke-linejoin="round" width="13" height="26" fill="rgb(122,206,79)" stroke="rgb(97,164,63)" stroke-width="1" opacity="0.75" />
		</g>
		<g>
			<title>PF03171</title>
			<polygon class="PF03171" points="338,18 340,18 349,27 349,35 340,44 338,44" stroke-linejoin="round" width="11" height="26" fill="rgb(184,68,180)" stroke="rgb(147,54,144)" stroke-width="1" opacity="0.75" />
		</g>
	</g>
	<g>
		<title>phqD</title>
		<polygon class="phqD" points="399,16 394,16 394,1 364,31 394,61 394,46 399,46" fill="rgb(253,207,210)" fill-opacity="1.0" stroke="rgb(101,82,84)" stroke-width="1" />
		<g>
			<title>PF14748</title>
			<polygon class="PF14748" points="369,28 379,18 380,18 380,44 379,44 369,33" stroke-linejoin="round" width="11" height="26" fill="rgb(212,112,96)" stroke="rgb(169,89,76)" stroke-width="1" opacity="0.75" />
		</g>
		<g>
			<title>PF03807</title>
			<rect class="PF03807" x="387" y="18" stroke-linejoin="round" width="11" height="26" fill="rgb(194,51,111)" stroke="rgb(155,40,88)" stroke-width="1" opacity="0.75" />
		</g>
	</g>
	<g>
		<title>phqE</title>
		<polygon class="phqE" points="427,16 427,16 427,1 453,31 427,61 427,46 427,46" fill="rgb(189,252,179)" fill-opacity="1.0" stroke="rgb(75,100,71)" stroke-width="1" />
		<g>
			<title>PF13561</title>
			<polygon class="PF13561" points="429,18 439,18 450,31 439,44 429,44" stroke-linejoin="round" width="24" height="26" fill="rgb(73,205,127)" stroke="rgb(58,164,101)" stroke-width="1" opacity="0.75" />
		</g>
	</g>
	<g>
		<title>phqF</title>
		<polygon class="phqF" points="477,16 506,16 506,1 536,31 506,61 506,46 477,46" fill="rgb(252,212,226)" fill-opacity="1.0" stroke="rgb(100,84,90)" stroke-width="1" />
		<g>
			<title>PF06609</title>
			<rect class="PF06609" x="485" y="18" stroke-linejoin="round" width="17" height="26" fill="rgb(125,190,81)" stroke="rgb(99,152,64)" stroke-width="1" opacity="0.75" />
		</g>
	</g>
	<g>
		<title>phqG</title>
		<polygon class="phqG" points="593,16 605,16 605,1 635,31 605,61 605,46 593,46" fill="rgb(251,192,183)" fill-opacity="1.0" stroke="rgb(100,76,73)" stroke-width="1" />
		<g>
			<title>PF05368</title>
			<rect class="PF05368" x="593" y="18" stroke-linejoin="round" width="25" height="26" fill="rgb(97,49,192)" stroke="rgb(77,39,153)" stroke-width="1" opacity="0.75" />
		</g>
	</g>
	<g>
		<title>phqH</title>
		<polygon class="phqH" points="723,16 758,16 758,1 788,31 758,61 758,46 723,46" fill="rgb(181,252,197)" fill-opacity="1.0" stroke="rgb(72,100,78)" stroke-width="1" />
		<g>
			<title>PF01565</title>
			<rect class="PF01565" x="734" y="18" stroke-linejoin="round" width="15" height="26" fill="rgb(226,88,136)" stroke="rgb(180,70,108)" stroke-width="1" opacity="0.75" />
		</g>
	</g>
	<g>
		<title>phqI</title>
		<polygon class="phqI" points="893,16 877,16 877,1 847,31 877,61 877,46 893,46" fill="rgb(244,204,254)" fill-opacity="1.0" stroke="rgb(97,81,101)" stroke-width="1" />
		<g>
			<title>PF11991</title>
			<polygon class="PF11991" points="854,26 862,18 889,18 889,44 862,44 854,35" stroke-linejoin="round" width="35" height="26" fill="rgb(197,197,93)" stroke="rgb(157,157,74)" stroke-width="1" opacity="0.75" />
		</g>
	</g>
</svg>
