<svg version="1.1" baseProfile="full" xmlns="http://www.w3.org/2000/svg" width="965" height="62">
	<line x1="1" y1="31" x2="964" y2="31" style="stroke:rgb(50,50,50); stroke-width:3 "/>
	<g>
		<polygon class="NoName" points="843,16 843,16 843,1 854,31 843,61 843,46 843,46" fill="rgb(255,255,255)" fill-opacity="1.0" stroke="rgb(50,50,50)" stroke-width="1" />
	</g>
	<g>
		<polygon class="NoName" points="887,16 881,16 881,1 851,31 881,61 881,46 887,46" fill="rgb(255,255,255)" fill-opacity="1.0" stroke="rgb(50,50,50)" stroke-width="1" />
		<g>
			<title>PF00069</title>
			<polygon class="PF00069" points="858,26 866,18 886,18 886,44 866,44 858,35" stroke-linejoin="round" width="28" height="26" fill="rgb(104,187,65)" stroke="rgb(83,149,51)" stroke-width="1" opacity="0.75" />
		</g>
	</g>
	<g>
		<polygon class="NoName" points="892,16 892,16 892,1 915,31 892,61 892,46 892,46" fill="rgb(255,255,255)" fill-opacity="1.0" stroke="rgb(50,50,50)" stroke-width="1" />
	</g>
	<g>
		<polygon class="NoName" points="913,16 913,16 913,1 924,31 913,61 913,46 913,46" fill="rgb(255,255,255)" fill-opacity="1.0" stroke="rgb(50,50,50)" stroke-width="1" />
	</g>
	<g>
		<polygon class="NoName" points="926,16 926,16 926,1 917,31 926,61 926,46 926,46" fill="rgb(255,255,255)" fill-opacity="1.0" stroke="rgb(50,50,50)" stroke-width="1" />
	</g>
	<g>
		<polygon class="NoName" points="941,16 941,16 941,1 962,31 941,61 941,46 941,46" fill="rgb(255,255,255)" fill-opacity="1.0" stroke="rgb(50,50,50)" stroke-width="1" />
		<g>
			<title>PF00300</title>
			<polygon class="PF00300" points="941,18 950,18 959,31 950,44 941,44" stroke-linejoin="round" width="19" height="26" fill="rgb(135,184,63)" stroke="rgb(107,147,50)" stroke-width="1" opacity="0.75" />
		</g>
	</g>
	<g>
		<polygon class="NoName" points="30,16 30,16 30,1 54,31 30,61 30,46 30,46" fill="rgb(255,255,255)" fill-opacity="1.0" stroke="rgb(50,50,50)" stroke-width="1" />
		<g>
			<title>PF13924</title>
			<polygon class="PF13924" points="40,18 41,18 51,31 41,44 40,44" stroke-linejoin="round" width="13" height="26" fill="rgb(187,88,47)" stroke="rgb(149,70,37)" stroke-width="1" opacity="0.75" />
		</g>
	</g>
	<g>
		<title>anaA</title>
		<polygon class="anaA" points="67,16 67,16 67,1 92,31 67,61 67,46 67,46" fill="rgb(206,253,184)" fill-opacity="1.0" stroke="rgb(82,101,73)" stroke-width="1" />
		<g>
			<title>PF00975</title>
			<polygon class="PF00975" points="69,18 78,18 89,31 78,44 69,44" stroke-linejoin="round" width="22" height="26" fill="rgb(207,80,138)" stroke="rgb(165,63,110)" stroke-width="1" opacity="0.75" />
		</g>
	</g>
	<g>
		<title>anaB</title>
		<polygon class="anaB" points="122,16 130,16 130,1 160,31 130,61 130,46 122,46" fill="rgb(240,185,254)" fill-opacity="1.0" stroke="rgb(96,74,101)" stroke-width="1" />
		<g>
			<title>PF02771</title>
			<rect class="PF02771" x="122" y="18" stroke-linejoin="round" width="11" height="26" fill="rgb(105,135,218)" stroke="rgb(84,108,174)" stroke-width="1" opacity="0.75" />
		</g>
		<g>
			<title>PF02770</title>
			<rect class="PF02770" x="134" y="18" stroke-linejoin="round" width="9" height="26" fill="rgb(225,186,97)" stroke="rgb(180,148,77)" stroke-width="1" opacity="0.75" />
		</g>
		<g>
			<title>PF00441</title>
			<polygon class="PF00441" points="145,19 157,31 145,43" stroke-linejoin="round" width="14" height="26" fill="rgb(85,191,117)" stroke="rgb(68,152,93)" stroke-width="1" opacity="0.75" />
		</g>
	</g>
	<g>
		<title>anaC</title>
		<polygon class="anaC" points="161,16 184,16 184,1 214,31 184,61 184,46 161,46" fill="rgb(245,254,208)" fill-opacity="1.0" stroke="rgb(97,101,83)" stroke-width="1" />
		<g>
			<title>PF00501</title>
			<polygon class="PF00501" points="161,18 198,18 203,23 203,39 198,44 161,44" stroke-linejoin="round" width="42" height="26" fill="rgb(60,217,223)" stroke="rgb(48,173,178)" stroke-width="1" opacity="0.75" />
		</g>
		<g>
			<title>PF13193</title>
			<polygon class="PF13193" points="205,25 211,31 205,37" stroke-linejoin="round" width="8" height="26" fill="rgb(182,50,118)" stroke="rgb(145,39,94)" stroke-width="1" opacity="0.75" />
		</g>
	</g>
	<g>
		<title>anaD</title>
		<polygon class="anaD" points="215,16 215,16 215,1 223,31 215,61 215,46 215,46" fill="rgb(221,249,208)" fill-opacity="1.0" stroke="rgb(88,99,83)" stroke-width="1" />
	</g>
	<g>
		<title>anaE</title>
		<polygon class="anaE" points="229,16 413,16 413,1 443,31 413,61 413,46 229,46" fill="rgb(198,215,252)" fill-opacity="1.0" stroke="rgb(79,86,100)" stroke-width="1" />
		<g>
			<title>PF00109</title>
			<rect class="PF00109" x="230" y="18" stroke-linejoin="round" width="25" height="26" fill="rgb(112,116,228)" stroke="rgb(89,92,182)" stroke-width="1" opacity="0.75" />
		</g>
		<g>
			<title>PF02801</title>
			<rect class="PF02801" x="257" y="18" stroke-linejoin="round" width="11" height="26" fill="rgb(215,78,102)" stroke="rgb(172,62,81)" stroke-width="1" opacity="0.75" />
		</g>
		<g>
			<title>PF16197</title>
			<rect class="PF16197" x="268" y="18" stroke-linejoin="round" width="11" height="26" fill="rgb(68,179,89)" stroke="rgb(54,143,71)" stroke-width="1" opacity="0.75" />
		</g>
		<g>
			<title>PF00698</title>
			<rect class="PF00698" x="284" y="18" stroke-linejoin="round" width="32" height="26" fill="rgb(59,176,209)" stroke="rgb(47,140,167)" stroke-width="1" opacity="0.75" />
		</g>
		<g>
			<title>PF14765</title>
			<rect class="PF14765" x="320" y="18" stroke-linejoin="round" width="28" height="26" fill="rgb(173,56,182)" stroke="rgb(138,44,145)" stroke-width="1" opacity="0.75" />
		</g>
		<g>
			<title>PF08240</title>
			<rect class="PF08240" x="373" y="18" stroke-linejoin="round" width="8" height="26" fill="rgb(211,65,138)" stroke="rgb(168,51,110)" stroke-width="1" opacity="0.75" />
		</g>
		<g>
			<title>PF13602</title>
			<rect class="PF13602" x="390" y="18" stroke-linejoin="round" width="13" height="26" fill="rgb(101,131,226)" stroke="rgb(80,104,180)" stroke-width="1" opacity="0.75" />
		</g>
		<g>
			<title>PF08659</title>
			<rect class="PF08659" x="404" y="18" stroke-linejoin="round" width="17" height="26" fill="rgb(66,209,188)" stroke="rgb(52,167,150)" stroke-width="1" opacity="0.75" />
		</g>
		<g>
			<title>PF00550</title>
			<polygon class="PF00550" points="431,22 437,28 437,34 431,40" stroke-linejoin="round" width="6" height="26" fill="rgb(103,191,88)" stroke="rgb(82,152,70)" stroke-width="1" opacity="0.75" />
		</g>
	</g>
	<g>
		<title>anaF</title>
		<polygon class="anaF" points="444,16 600,16 600,1 630,31 600,61 600,46 444,46" fill="rgb(225,250,209)" fill-opacity="1.0" stroke="rgb(90,100,83)" stroke-width="1" />
		<g>
			<title>PF00109</title>
			<rect class="PF00109" x="447" y="18" stroke-linejoin="round" width="24" height="26" fill="rgb(112,116,228)" stroke="rgb(89,92,182)" stroke-width="1" opacity="0.75" />
		</g>
		<g>
			<title>PF02801</title>
			<rect class="PF02801" x="472" y="18" stroke-linejoin="round" width="11" height="26" fill="rgb(215,78,102)" stroke="rgb(172,62,81)" stroke-width="1" opacity="0.75" />
		</g>
		<g>
			<title>PF16197</title>
			<rect class="PF16197" x="484" y="18" stroke-linejoin="round" width="11" height="26" fill="rgb(68,179,89)" stroke="rgb(54,143,71)" stroke-width="1" opacity="0.75" />
		</g>
		<g>
			<title>PF00698</title>
			<rect class="PF00698" x="499" y="18" stroke-linejoin="round" width="31" height="26" fill="rgb(59,176,209)" stroke="rgb(47,140,167)" stroke-width="1" opacity="0.75" />
		</g>
		<g>
			<title>PF14765</title>
			<rect class="PF14765" x="536" y="18" stroke-linejoin="round" width="30" height="26" fill="rgb(173,56,182)" stroke="rgb(138,44,145)" stroke-width="1" opacity="0.75" />
		</g>
		<g>
			<title>PF08659</title>
			<rect class="PF08659" x="590" y="18" stroke-linejoin="round" width="17" height="26" fill="rgb(66,209,188)" stroke="rgb(52,167,150)" stroke-width="1" opacity="0.75" />
		</g>
		<g>
			<title>PF00550</title>
			<polygon class="PF00550" points="618,22 624,28 624,34 618,40" stroke-linejoin="round" width="6" height="26" fill="rgb(103,191,88)" stroke="rgb(82,152,70)" stroke-width="1" opacity="0.75" />
		</g>
	</g>
	<g>
		<title>anaG</title>
		<polygon class="anaG" points="640,16 773,16 773,1 803,31 773,61 773,46 640,46" fill="rgb(200,199,253)" fill-opacity="1.0" stroke="rgb(80,79,101)" stroke-width="1" />
		<g>
			<title>PF00109</title>
			<rect class="PF00109" x="643" y="18" stroke-linejoin="round" width="25" height="26" fill="rgb(112,116,228)" stroke="rgb(89,92,182)" stroke-width="1" opacity="0.75" />
		</g>
		<g>
			<title>PF02801</title>
			<rect class="PF02801" x="669" y="18" stroke-linejoin="round" width="11" height="26" fill="rgb(215,78,102)" stroke="rgb(172,62,81)" stroke-width="1" opacity="0.75" />
		</g>
		<g>
			<title>PF16197</title>
			<rect class="PF16197" x="681" y="18" stroke-linejoin="round" width="11" height="26" fill="rgb(68,179,89)" stroke="rgb(54,143,71)" stroke-width="1" opacity="0.75" />
		</g>
		<g>
			<title>PF00698</title>
			<rect class="PF00698" x="696" y="18" stroke-linejoin="round" width="31" height="26" fill="rgb(59,176,209)" stroke="rgb(47,140,167)" stroke-width="1" opacity="0.75" />
		</g>
		<g>
			<title>PF08242</title>
			<rect class="PF08242" x="756" y="18" stroke-linejoin="round" width="9" height="26" fill="rgb(187,59,115)" stroke="rgb(149,47,92)" stroke-width="1" opacity="0.75" />
		</g>
		<g>
			<title>PF00550</title>
			<polygon class="PF00550" points="795,26 800,31 795,36" stroke-linejoin="round" width="6" height="26" fill="rgb(103,191,88)" stroke="rgb(82,152,70)" stroke-width="1" opacity="0.75" />
		</g>
	</g>
	<g>
		<title>anaH</title>
		<polygon class="anaH" points="818,16 818,16 818,1 834,31 818,61 818,46 818,46" fill="rgb(178,246,250)" fill-opacity="1.0" stroke="rgb(71,98,100)" stroke-width="1" />
		<g>
			<title>PF14104</title>
			<polygon class="PF14104" points="818,18 824,18 828,25 828,37 824,44 818,44" stroke-linejoin="round" width="10" height="26" fill="rgb(67,132,210)" stroke="rgb(53,105,168)" stroke-width="1" opacity="0.75" />
		</g>
	</g>
</svg>
