<svg version="1.1" baseProfile="full" xmlns="http://www.w3.org/2000/svg" width="2700" height="62">
	<line x1="1" y1="31" x2="2699" y2="31" style="stroke:rgb(50,50,50); stroke-width:3 "/>
	<g>
		<polygon class="NoName" points="491,16 445,16 445,1 415,31 445,61 445,46 491,46" fill="rgb(255,255,255)" fill-opacity="1.0" stroke="rgb(50,50,50)" stroke-width="1" />
	</g>
	<g>
		<polygon class="NoName" points="518,16 518,16 518,1 491,31 518,61 518,46 518,46" fill="rgb(255,255,255)" fill-opacity="1.0" stroke="rgb(50,50,50)" stroke-width="1" />
	</g>
	<g>
		<polygon class="NoName" points="531,16 531,16 531,1 541,31 531,61 531,46 531,46" fill="rgb(255,255,255)" fill-opacity="1.0" stroke="rgb(50,50,50)" stroke-width="1" />
	</g>
	<g>
		<polygon class="NoName" points="564,16 564,16 564,1 546,31 564,61 564,46 564,46" fill="rgb(255,255,255)" fill-opacity="1.0" stroke="rgb(50,50,50)" stroke-width="1" />
	</g>
	<g>
		<polygon class="NoName" points="574,16 574,16 574,1 591,31 574,61 574,46 574,46" fill="rgb(255,255,255)" fill-opacity="1.0" stroke="rgb(50,50,50)" stroke-width="1" />
		<g>
			<title>PF13759</title>
			<polygon class="PF13759" points="584,23 588,31 584,39" stroke-linejoin="round" width="6" height="26" fill="rgb(116,189,68)" stroke="rgb(92,151,54)" stroke-width="1" opacity="0.75" />
		</g>
	</g>
	<g>
		<title>capA</title>
		<polygon class="capA" points="637,16 637,16 637,1 607,31 637,61 637,46 637,46" fill="rgb(229,185,250)" fill-opacity="1.0" stroke="rgb(91,73,100)" stroke-width="1" />
		<g>
			<title>PF02668</title>
			<polygon class="PF02668" points="610,30 622,18 636,18 636,44 622,44 610,31" stroke-linejoin="round" width="26" height="26" fill="rgb(180,79,217)" stroke="rgb(144,63,173)" stroke-width="1" opacity="0.75" />
		</g>
	</g>
	<g>
		<title>capB</title>
		<polygon class="capB" points="696,16 671,16 671,1 641,31 671,61 671,46 696,46" fill="rgb(251,226,199)" fill-opacity="1.0" stroke="rgb(100,90,79)" stroke-width="1" />
		<g>
			<title>PF16861</title>
			<polygon class="PF16861" points="643,31 656,18 657,18 657,44 656,44" stroke-linejoin="round" width="15" height="26" fill="rgb(183,87,154)" stroke="rgb(146,69,123)" stroke-width="1" opacity="0.75" />
		</g>
		<g>
			<title>PF02543</title>
			<rect class="PF02543" x="662" y="18" stroke-linejoin="round" width="34" height="26" fill="rgb(146,218,61)" stroke="rgb(116,174,48)" stroke-width="1" opacity="0.75" />
		</g>
	</g>
	<g>
		<title>capC</title>
		<polygon class="capC" points="729,16 728,16 728,1 698,31 728,61 728,46 729,46" fill="rgb(185,251,217)" fill-opacity="1.0" stroke="rgb(74,100,86)" stroke-width="1" />
		<g>
			<title>PF01408</title>
			<rect class="PF01408" x="717" y="18" stroke-linejoin="round" width="11" height="26" fill="rgb(76,117,190)" stroke="rgb(60,93,152)" stroke-width="1" opacity="0.75" />
		</g>
	</g>
	<g>
		<title>capD</title>
		<polygon class="capD" points="762,16 760,16 760,1 730,31 760,61 760,46 762,46" fill="rgb(204,252,216)" fill-opacity="1.0" stroke="rgb(81,100,86)" stroke-width="1" />
		<g>
			<title>PF02668</title>
			<polygon class="PF02668" points="732,31 745,18 758,18 758,44 745,44" stroke-linejoin="round" width="26" height="26" fill="rgb(180,79,217)" stroke="rgb(144,63,173)" stroke-width="1" opacity="0.75" />
		</g>
	</g>
	<g>
		<title>capE</title>
		<polygon class="capE" points="810,16 794,16 794,1 764,31 794,61 794,46 810,46" fill="rgb(187,214,253)" fill-opacity="1.0" stroke="rgb(74,85,101)" stroke-width="1" />
		<g>
			<title>PF03559</title>
			<polygon class="PF03559" points="766,31 779,18 783,18 783,44 779,44" stroke-linejoin="round" width="19" height="26" fill="rgb(74,201,66)" stroke="rgb(59,160,52)" stroke-width="1" opacity="0.75" />
		</g>
		<g>
			<title>PF03559</title>
			<rect class="PF03559" x="787" y="18" stroke-linejoin="round" width="20" height="26" fill="rgb(74,201,66)" stroke="rgb(59,160,52)" stroke-width="1" opacity="0.75" />
		</g>
	</g>
	<g>
		<polygon class="NoName" points="28,16 28,16 28,1 1,31 28,61 28,46 28,46" fill="rgb(255,255,255)" fill-opacity="1.0" stroke="rgb(50,50,50)" stroke-width="1" />
	</g>
	<g>
		<title>capF</title>
		<polygon class="capF" points="842,16 841,16 841,1 811,31 841,61 841,46 842,46" fill="rgb(199,218,250)" fill-opacity="1.0" stroke="rgb(79,87,100)" stroke-width="1" />
		<g>
			<title>PF01370</title>
			<polygon class="PF01370" points="818,26 826,18 841,18 841,44 826,44 818,35" stroke-linejoin="round" width="23" height="26" fill="rgb(98,102,214)" stroke="rgb(78,81,171)" stroke-width="1" opacity="0.75" />
		</g>
	</g>
	<g>
		<polygon class="NoName" points="883,16 873,16 873,1 843,31 873,61 873,46 883,46" fill="rgb(255,255,255)" fill-opacity="1.0" stroke="rgb(50,50,50)" stroke-width="1" />
		<g>
			<title>PF03841</title>
			<polygon class="PF03841" points="845,31 858,18 879,18 879,44 858,44" stroke-linejoin="round" width="35" height="26" fill="rgb(95,92,203)" stroke="rgb(76,73,162)" stroke-width="1" opacity="0.75" />
		</g>
	</g>
	<g>
		<title>capG</title>
		<polygon class="capG" points="921,16 913,16 913,1 883,31 913,61 913,46 921,46" fill="rgb(189,208,252)" fill-opacity="1.0" stroke="rgb(75,83,100)" stroke-width="1" />
	</g>
	<g>
		<title>capH</title>
		<polygon class="capH" points="963,16 952,16 952,1 922,31 952,61 952,46 963,46" fill="rgb(253,223,182)" fill-opacity="1.0" stroke="rgb(101,89,72)" stroke-width="1" />
		<g>
			<title>PF00464</title>
			<polygon class="PF00464" points="925,30 937,18 962,18 962,44 937,44 925,31" stroke-linejoin="round" width="37" height="26" fill="rgb(215,97,215)" stroke="rgb(172,77,172)" stroke-width="1" opacity="0.75" />
		</g>
	</g>
	<g>
		<title>capI</title>
		<polygon class="capI" points="975,16 975,16 975,1 983,31 975,61 975,46 975,46" fill="rgb(234,254,194)" fill-opacity="1.0" stroke="rgb(93,101,77)" stroke-width="1" />
		<g>
			<title>PF12643</title>
			<polygon class="PF12643" points="977,18 977,18 980,31 977,44 977,44" stroke-linejoin="round" width="6" height="26" fill="rgb(200,96,198)" stroke="rgb(160,76,158)" stroke-width="1" opacity="0.75" />
		</g>
	</g>
	<g>
		<title>capJ</title>
		<polygon class="capJ" points="989,16 1035,16 1035,1 1065,31 1035,61 1035,46 989,46" fill="rgb(245,196,253)" fill-opacity="1.0" stroke="rgb(98,78,101)" stroke-width="1" />
		<g>
			<title>PF01315</title>
			<rect class="PF01315" x="990" y="18" stroke-linejoin="round" width="11" height="26" fill="rgb(127,182,88)" stroke="rgb(101,145,70)" stroke-width="1" opacity="0.75" />
		</g>
		<g>
			<title>PF02738</title>
			<polygon class="PF02738" points="1004,18 1049,18 1057,26 1057,36 1049,44 1004,44" stroke-linejoin="round" width="53" height="26" fill="rgb(194,143,89)" stroke="rgb(155,114,71)" stroke-width="1" opacity="0.75" />
		</g>
	</g>
	<g>
		<title>capK</title>
		<polygon class="capK" points="1067,16 1067,16 1067,1 1091,31 1067,61 1067,46 1067,46" fill="rgb(253,238,204)" fill-opacity="1.0" stroke="rgb(101,95,81)" stroke-width="1" />
		<g>
			<title>PF05050</title>
			<polygon class="PF05050" points="1070,18 1078,18 1086,28 1086,34 1078,44 1070,44" stroke-linejoin="round" width="16" height="26" fill="rgb(95,204,52)" stroke="rgb(76,163,41)" stroke-width="1" opacity="0.75" />
		</g>
	</g>
	<g>
		<title>capL</title>
		<polygon class="capL" points="1096,16 1096,16 1096,1 1112,31 1096,61 1096,46 1096,46" fill="rgb(193,252,181)" fill-opacity="1.0" stroke="rgb(77,100,72)" stroke-width="1" />
		<g>
			<title>PF00111</title>
			<polygon class="PF00111" points="1096,18 1102,18 1103,19 1103,43 1102,44 1096,44" stroke-linejoin="round" width="7" height="26" fill="rgb(60,59,191)" stroke="rgb(48,47,152)" stroke-width="1" opacity="0.75" />
		</g>
		<g>
			<title>PF01799</title>
			<polygon class="PF01799" points="1103,19 1109,31 1103,43" stroke-linejoin="round" width="7" height="26" fill="rgb(67,193,124)" stroke="rgb(53,154,99)" stroke-width="1" opacity="0.75" />
		</g>
	</g>
	<g>
		<title>capM</title>
		<polygon class="capM" points="1115,16 1115,16 1115,1 1144,31 1115,61 1115,46 1115,46" fill="rgb(227,254,192)" fill-opacity="1.0" stroke="rgb(90,101,76)" stroke-width="1" />
		<g>
			<title>PF00941</title>
			<polygon class="PF00941" points="1115,18 1128,18 1132,22 1132,40 1128,44 1115,44" stroke-linejoin="round" width="17" height="26" fill="rgb(67,160,198)" stroke="rgb(53,128,158)" stroke-width="1" opacity="0.75" />
		</g>
		<g>
			<title>PF03450</title>
			<polygon class="PF03450" points="1133,23 1141,31 1133,39" stroke-linejoin="round" width="10" height="26" fill="rgb(68,181,100)" stroke="rgb(54,144,80)" stroke-width="1" opacity="0.75" />
		</g>
	</g>
	<g>
		<title>capN</title>
		<polygon class="capN" points="1144,16 1181,16 1181,1 1211,31 1181,61 1181,46 1144,46" fill="rgb(246,210,254)" fill-opacity="1.0" stroke="rgb(98,84,101)" stroke-width="1" />
		<g>
			<title>PF00664</title>
			<rect class="PF00664" x="1147" y="18" stroke-linejoin="round" width="27" height="26" fill="rgb(149,226,73)" stroke="rgb(119,180,58)" stroke-width="1" opacity="0.75" />
		</g>
		<g>
			<title>PF00005</title>
			<polygon class="PF00005" points="1186,18 1195,18 1200,23 1200,39 1195,44 1186,44" stroke-linejoin="round" width="14" height="26" fill="rgb(129,201,63)" stroke="rgb(103,160,50)" stroke-width="1" opacity="0.75" />
		</g>
	</g>
	<g>
		<polygon class="NoName" points="28,16 50,16 50,1 80,31 50,61 50,46 28,46" fill="rgb(255,255,255)" fill-opacity="1.0" stroke="rgb(50,50,50)" stroke-width="1" />
		<g>
			<title>PF09481</title>
			<polygon class="PF09481" points="31,18 64,18 75,29 75,33 64,44 31,44" stroke-linejoin="round" width="44" height="26" fill="rgb(224,77,189)" stroke="rgb(179,61,151)" stroke-width="1" opacity="0.75" />
		</g>
	</g>
	<g>
		<title>capO</title>
		<polygon class="capO" points="1216,16 1247,16 1247,1 1277,31 1247,61 1247,46 1216,46" fill="rgb(252,232,195)" fill-opacity="1.0" stroke="rgb(100,92,77)" stroke-width="1" />
		<g>
			<title>PF00664</title>
			<rect class="PF00664" x="1220" y="18" stroke-linejoin="round" width="27" height="26" fill="rgb(149,226,73)" stroke="rgb(119,180,58)" stroke-width="1" opacity="0.75" />
		</g>
		<g>
			<title>PF00005</title>
			<polygon class="PF00005" points="1254,18 1261,18 1268,25 1268,37 1261,44 1254,44" stroke-linejoin="round" width="14" height="26" fill="rgb(129,201,63)" stroke="rgb(103,160,50)" stroke-width="1" opacity="0.75" />
		</g>
	</g>
	<g>
		<title>capP</title>
		<polygon class="capP" points="1311,16 1311,16 1311,1 1281,31 1311,61 1311,46 1311,46" fill="rgb(214,252,248)" fill-opacity="1.0" stroke="rgb(85,100,99)" stroke-width="1" />
		<g>
			<title>PF01636</title>
			<polygon class="PF01636" points="1284,30 1296,18 1307,18 1307,44 1296,44 1284,31" stroke-linejoin="round" width="23" height="26" fill="rgb(106,220,228)" stroke="rgb(84,176,182)" stroke-width="1" opacity="0.75" />
		</g>
	</g>
	<g>
		<title>capQ</title>
		<polygon class="capQ" points="1346,16 1344,16 1344,1 1314,31 1344,61 1344,46 1346,46" fill="rgb(214,254,183)" fill-opacity="1.0" stroke="rgb(85,101,73)" stroke-width="1" />
		<g>
			<title>PF16363</title>
			<polygon class="PF16363" points="1316,31 1329,18 1345,18 1345,44 1329,44" stroke-linejoin="round" width="30" height="26" fill="rgb(162,221,65)" stroke="rgb(129,176,51)" stroke-width="1" opacity="0.75" />
		</g>
	</g>
	<g>
		<title>capR</title>
		<polygon class="capR" points="1380,16 1375,16 1375,1 1345,31 1375,61 1375,46 1380,46" fill="rgb(251,211,248)" fill-opacity="1.0" stroke="rgb(100,84,99)" stroke-width="1" />
		<g>
			<title>PF00483</title>
			<polygon class="PF00483" points="1357,21 1360,18 1380,18 1380,44 1360,44 1357,40" stroke-linejoin="round" width="23" height="26" fill="rgb(198,101,87)" stroke="rgb(158,80,69)" stroke-width="1" opacity="0.75" />
		</g>
	</g>
	<g>
		<title>capS</title>
		<polygon class="capS" points="1397,16 1397,16 1397,1 1423,31 1397,61 1397,46 1397,46" fill="rgb(252,254,192)" fill-opacity="1.0" stroke="rgb(100,101,76)" stroke-width="1" />
		<g>
			<title>PF08241</title>
			<polygon class="PF08241" points="1401,18 1409,18 1410,20 1410,42 1409,44 1401,44" stroke-linejoin="round" width="9" height="26" fill="rgb(106,219,159)" stroke="rgb(84,175,127)" stroke-width="1" opacity="0.75" />
		</g>
	</g>
	<g>
		<title>capT</title>
		<polygon class="capT" points="1433,16 1466,16 1466,1 1496,31 1466,61 1466,46 1433,46" fill="rgb(251,190,187)" fill-opacity="1.0" stroke="rgb(100,76,74)" stroke-width="1" />
		<g>
			<title>PF02310</title>
			<rect class="PF02310" x="1433" y="18" stroke-linejoin="round" width="11" height="26" fill="rgb(145,190,60)" stroke="rgb(115,152,48)" stroke-width="1" opacity="0.75" />
		</g>
		<g>
			<title>PF04055</title>
			<rect class="PF04055" x="1451" y="18" stroke-linejoin="round" width="16" height="26" fill="rgb(149,56,222)" stroke="rgb(119,44,177)" stroke-width="1" opacity="0.75" />
		</g>
	</g>
	<g>
		<polygon class="NoName" points="1535,16 1535,16 1535,1 1548,31 1535,61 1535,46 1535,46" fill="rgb(255,255,255)" fill-opacity="1.0" stroke="rgb(50,50,50)" stroke-width="1" />
		<g>
			<title>PF13340</title>
			<polygon class="PF13340" points="1536,18 1539,18 1543,25 1543,37 1539,44 1536,44" stroke-linejoin="round" width="7" height="26" fill="rgb(196,73,104)" stroke="rgb(156,58,83)" stroke-width="1" opacity="0.75" />
		</g>
	</g>
	<g>
		<title>capU</title>
		<polygon class="capU" points="1549,16 1629,16 1629,1 1659,31 1629,61 1629,46 1549,46" fill="rgb(201,253,250)" fill-opacity="1.0" stroke="rgb(80,101,100)" stroke-width="1" />
		<g>
			<title>PF00668</title>
			<rect class="PF00668" x="1554" y="18" stroke-linejoin="round" width="43" height="26" fill="rgb(224,184,98)" stroke="rgb(179,147,78)" stroke-width="1" opacity="0.75" />
		</g>
		<g>
			<title>PF00501</title>
			<rect class="PF00501" x="1600" y="18" stroke-linejoin="round" width="39" height="26" fill="rgb(60,217,223)" stroke="rgb(48,173,178)" stroke-width="1" opacity="0.75" />
		</g>
		<g>
			<title>PF13193</title>
			<polygon class="PF13193" points="1640,18 1643,18 1647,22 1647,40 1643,44 1640,44" stroke-linejoin="round" width="7" height="26" fill="rgb(182,50,118)" stroke="rgb(145,39,94)" stroke-width="1" opacity="0.75" />
		</g>
		<g>
			<title>PF00550</title>
			<polygon class="PF00550" points="1651,26 1656,31 1651,36" stroke-linejoin="round" width="6" height="26" fill="rgb(103,191,88)" stroke="rgb(82,152,70)" stroke-width="1" opacity="0.75" />
		</g>
	</g>
	<g>
		<title>capV</title>
		<polygon class="capV" points="1660,16 1677,16 1677,1 1707,31 1677,61 1677,46 1660,46" fill="rgb(217,250,181)" fill-opacity="1.0" stroke="rgb(86,100,72)" stroke-width="1" />
		<g>
			<title>PF00668</title>
			<polygon class="PF00668" points="1664,18 1691,18 1704,31 1691,44 1664,44" stroke-linejoin="round" width="42" height="26" fill="rgb(224,184,98)" stroke="rgb(179,147,78)" stroke-width="1" opacity="0.75" />
		</g>
	</g>
	<g>
		<title>capW</title>
		<polygon class="capW" points="1709,16 1719,16 1719,1 1749,31 1719,61 1719,46 1709,46" fill="rgb(253,240,201)" fill-opacity="1.0" stroke="rgb(101,96,80)" stroke-width="1" />
		<g>
			<title>PF00144</title>
			<polygon class="PF00144" points="1710,18 1733,18 1746,31 1733,44 1710,44" stroke-linejoin="round" width="37" height="26" fill="rgb(92,159,200)" stroke="rgb(73,127,160)" stroke-width="1" opacity="0.75" />
		</g>
	</g>
	<g>
		<polygon class="NoName" points="80,16 80,16 80,1 98,31 80,61 80,46 80,46" fill="rgb(255,255,255)" fill-opacity="1.0" stroke="rgb(50,50,50)" stroke-width="1" />
		<g>
			<title>PF09485</title>
			<polygon class="PF09485" points="81,18 87,18 95,31 87,44 81,44" stroke-linejoin="round" width="16" height="26" fill="rgb(177,201,82)" stroke="rgb(141,160,65)" stroke-width="1" opacity="0.75" />
		</g>
	</g>
	<g>
		<polygon class="NoName" points="1753,16 1753,16 1753,1 1771,31 1753,61 1753,46 1753,46" fill="rgb(255,255,255)" fill-opacity="1.0" stroke="rgb(50,50,50)" stroke-width="1" />
		<g>
			<title>PF13586</title>
			<polygon class="PF13586" points="1761,19 1768,31 1761,43" stroke-linejoin="round" width="9" height="26" fill="rgb(94,207,193)" stroke="rgb(75,165,154)" stroke-width="1" opacity="0.75" />
		</g>
	</g>
	<g>
		<polygon class="NoName" points="1823,16 1822,16 1822,1 1792,31 1822,61 1822,46 1823,46" fill="rgb(255,255,255)" fill-opacity="1.0" stroke="rgb(50,50,50)" stroke-width="1" />
		<g>
			<title>PF03547</title>
			<polygon class="PF03547" points="1794,31 1806,19 1806,42" stroke-linejoin="round" width="14" height="26" fill="rgb(178,51,81)" stroke="rgb(142,40,64)" stroke-width="1" opacity="0.75" />
		</g>
		<g>
			<title>PF03547</title>
			<polygon class="PF03547" points="1807,18 1807,18 1821,18 1821,44 1807,44 1807,43" stroke-linejoin="round" width="14" height="26" fill="rgb(178,51,81)" stroke="rgb(142,40,64)" stroke-width="1" opacity="0.75" />
		</g>
	</g>
	<g>
		<polygon class="NoName" points="1898,16 1893,16 1893,1 1863,31 1893,61 1893,46 1898,46" fill="rgb(255,255,255)" fill-opacity="1.0" stroke="rgb(50,50,50)" stroke-width="1" />
	</g>
	<g>
		<polygon class="NoName" points="1978,16 1938,16 1938,1 1908,31 1938,61 1938,46 1978,46" fill="rgb(255,255,255)" fill-opacity="1.0" stroke="rgb(50,50,50)" stroke-width="1" />
		<g>
			<title>PF01326</title>
			<polygon class="PF01326" points="1910,31 1923,18 1937,18 1937,44 1923,44" stroke-linejoin="round" width="29" height="26" fill="rgb(112,180,78)" stroke="rgb(89,144,62)" stroke-width="1" opacity="0.75" />
		</g>
	</g>
	<g>
		<polygon class="NoName" points="2026,16 2005,16 2005,1 1975,31 2005,61 2005,46 2026,46" fill="rgb(255,255,255)" fill-opacity="1.0" stroke="rgb(50,50,50)" stroke-width="1" />
		<g>
			<title>PF13535</title>
			<polygon class="PF13535" points="1989,19 1990,18 2006,18 2006,44 1990,44 1989,42" stroke-linejoin="round" width="17" height="26" fill="rgb(197,156,74)" stroke="rgb(157,124,59)" stroke-width="1" opacity="0.75" />
		</g>
	</g>
	<g>
		<polygon class="NoName" points="2032,16 2045,16 2045,1 2075,31 2045,61 2045,46 2032,46" fill="rgb(255,255,255)" fill-opacity="1.0" stroke="rgb(50,50,50)" stroke-width="1" />
		<g>
			<title>PF08448</title>
			<rect class="PF08448" x="2043" y="18" stroke-linejoin="round" width="10" height="26" fill="rgb(50,90,192)" stroke="rgb(40,71,153)" stroke-width="1" opacity="0.75" />
		</g>
		<g>
			<title>PF08448</title>
			<polygon class="PF08448" points="2055,18 2059,18 2066,25 2066,37 2059,44 2055,44" stroke-linejoin="round" width="11" height="26" fill="rgb(50,90,192)" stroke="rgb(40,71,153)" stroke-width="1" opacity="0.75" />
		</g>
		<g>
			<title>PF00196</title>
			<polygon class="PF00196" points="2067,26 2072,31 2072,31 2067,36" stroke-linejoin="round" width="5" height="26" fill="rgb(219,94,82)" stroke="rgb(175,75,65)" stroke-width="1" opacity="0.75" />
		</g>
	</g>
	<g>
		<polygon class="NoName" points="2184,16 2123,16 2123,1 2093,31 2123,61 2123,46 2184,46" fill="rgb(255,255,255)" fill-opacity="1.0" stroke="rgb(50,50,50)" stroke-width="1" />
		<g>
			<title>PF00391</title>
			<polygon class="PF00391" points="2095,31 2100,26 2100,35" stroke-linejoin="round" width="7" height="26" fill="rgb(206,59,219)" stroke="rgb(164,47,175)" stroke-width="1" opacity="0.75" />
		</g>
		<g>
			<title>PF01326</title>
			<rect class="PF01326" x="2146" y="18" stroke-linejoin="round" width="31" height="26" fill="rgb(112,180,78)" stroke="rgb(89,144,62)" stroke-width="1" opacity="0.75" />
		</g>
	</g>
	<g>
		<polygon class="NoName" points="2229,16 2229,16 2229,1 2247,31 2229,61 2229,46 2229,46" fill="rgb(255,255,255)" fill-opacity="1.0" stroke="rgb(50,50,50)" stroke-width="1" />
	</g>
	<g>
		<polygon class="NoName" points="2310,16 2310,16 2310,1 2280,31 2310,61 2310,46 2310,46" fill="rgb(255,255,255)" fill-opacity="1.0" stroke="rgb(50,50,50)" stroke-width="1" />
	</g>
	<g>
		<polygon class="NoName" points="2314,16 2314,16 2314,1 2342,31 2314,61 2314,46 2314,46" fill="rgb(255,255,255)" fill-opacity="1.0" stroke="rgb(50,50,50)" stroke-width="1" />
		<g>
			<title>PF01370</title>
			<polygon class="PF01370" points="2314,18 2327,18 2331,23 2331,39 2327,44 2314,44" stroke-linejoin="round" width="17" height="26" fill="rgb(98,102,214)" stroke="rgb(78,81,171)" stroke-width="1" opacity="0.75" />
		</g>
	</g>
	<g>
		<polygon class="NoName" points="100,16 116,16 116,1 146,31 116,61 116,46 100,46" fill="rgb(255,255,255)" fill-opacity="1.0" stroke="rgb(50,50,50)" stroke-width="1" />
		<g>
			<title>PF09344</title>
			<rect class="PF09344" x="100" y="18" stroke-linejoin="round" width="24" height="26" fill="rgb(65,71,216)" stroke="rgb(52,56,172)" stroke-width="1" opacity="0.75" />
		</g>
		<g>
			<title>PF09344</title>
			<polygon class="PF09344" points="127,18 130,18 142,30 142,32 130,44 127,44" stroke-linejoin="round" width="15" height="26" fill="rgb(65,71,216)" stroke="rgb(52,56,172)" stroke-width="1" opacity="0.75" />
		</g>
	</g>
	<g>
		<polygon class="NoName" points="2372,16 2372,16 2372,1 2344,31 2372,61 2372,46 2372,46" fill="rgb(255,255,255)" fill-opacity="1.0" stroke="rgb(50,50,50)" stroke-width="1" />
		<g>
			<title>PF01370</title>
			<polygon class="PF01370" points="2352,25 2358,18 2370,18 2370,44 2358,44 2352,36" stroke-linejoin="round" width="18" height="26" fill="rgb(98,102,214)" stroke="rgb(78,81,171)" stroke-width="1" opacity="0.75" />
		</g>
	</g>
	<g>
		<polygon class="NoName" points="2377,16 2488,16 2488,1 2518,31 2488,61 2488,46 2377,46" fill="rgb(255,255,255)" fill-opacity="1.0" stroke="rgb(50,50,50)" stroke-width="1" />
		<g>
			<title>PF00656</title>
			<rect class="PF00656" x="2378" y="18" stroke-linejoin="round" width="20" height="26" fill="rgb(57,105,184)" stroke="rgb(45,84,147)" stroke-width="1" opacity="0.75" />
		</g>
		<g>
			<title>PF00400</title>
			<rect class="PF00400" x="2458" y="18" stroke-linejoin="round" width="4" height="26" fill="rgb(190,108,62)" stroke="rgb(152,86,49)" stroke-width="1" opacity="0.75" />
		</g>
		<g>
			<title>PF00400</title>
			<rect class="PF00400" x="2463" y="18" stroke-linejoin="round" width="4" height="26" fill="rgb(190,108,62)" stroke="rgb(152,86,49)" stroke-width="1" opacity="0.75" />
		</g>
		<g>
			<title>PF00400</title>
			<rect class="PF00400" x="2467" y="18" stroke-linejoin="round" width="4" height="26" fill="rgb(190,108,62)" stroke="rgb(152,86,49)" stroke-width="1" opacity="0.75" />
		</g>
		<g>
			<title>PF00400</title>
			<rect class="PF00400" x="2473" y="18" stroke-linejoin="round" width="4" height="26" fill="rgb(190,108,62)" stroke="rgb(152,86,49)" stroke-width="1" opacity="0.75" />
		</g>
		<g>
			<title>PF00400</title>
			<rect class="PF00400" x="2482" y="18" stroke-linejoin="round" width="4" height="26" fill="rgb(190,108,62)" stroke="rgb(152,86,49)" stroke-width="1" opacity="0.75" />
		</g>
		<g>
			<title>PF00400</title>
			<rect class="PF00400" x="2486" y="18" stroke-linejoin="round" width="3" height="26" fill="rgb(190,108,62)" stroke="rgb(152,86,49)" stroke-width="1" opacity="0.75" />
		</g>
		<g>
			<title>PF00400</title>
			<rect class="PF00400" x="2490" y="18" stroke-linejoin="round" width="4" height="26" fill="rgb(190,108,62)" stroke="rgb(152,86,49)" stroke-width="1" opacity="0.75" />
		</g>
		<g>
			<title>PF00400</title>
			<rect class="PF00400" x="2495" y="18" stroke-linejoin="round" width="4" height="26" fill="rgb(190,108,62)" stroke="rgb(152,86,49)" stroke-width="1" opacity="0.75" />
		</g>
		<g>
			<title>PF00400</title>
			<rect class="PF00400" x="2499" y="18" stroke-linejoin="round" width="3" height="26" fill="rgb(190,108,62)" stroke="rgb(152,86,49)" stroke-width="1" opacity="0.75" />
		</g>
	</g>
	<g>
		<polygon class="NoName" points="2570,16 2546,16 2546,1 2516,31 2546,61 2546,46 2570,46" fill="rgb(255,255,255)" fill-opacity="1.0" stroke="rgb(50,50,50)" stroke-width="1" />
		<g>
			<title>PF00982</title>
			<polygon class="PF00982" points="2518,31 2531,18 2565,18 2565,44 2531,44" stroke-linejoin="round" width="48" height="26" fill="rgb(89,138,188)" stroke="rgb(71,110,150)" stroke-width="1" opacity="0.75" />
		</g>
	</g>
	<g>
		<polygon class="NoName" points="2630,16 2624,16 2624,1 2594,31 2624,61 2624,46 2630,46" fill="rgb(255,255,255)" fill-opacity="1.0" stroke="rgb(50,50,50)" stroke-width="1" />
		<g>
			<title>PF02685</title>
			<polygon class="PF02685" points="2596,31 2609,18 2627,18 2627,44 2609,44" stroke-linejoin="round" width="32" height="26" fill="rgb(142,225,61)" stroke="rgb(113,180,48)" stroke-width="1" opacity="0.75" />
		</g>
	</g>
	<g>
		<polygon class="NoName" points="2642,16 2642,16 2642,1 2670,31 2642,61 2642,46 2642,46" fill="rgb(255,255,255)" fill-opacity="1.0" stroke="rgb(50,50,50)" stroke-width="1" />
		<g>
			<title>PF00296</title>
			<polygon class="PF00296" points="2642,18 2655,18 2665,29 2665,33 2655,44 2642,44" stroke-linejoin="round" width="23" height="26" fill="rgb(180,112,78)" stroke="rgb(144,89,62)" stroke-width="1" opacity="0.75" />
		</g>
	</g>
	<g>
		<polygon class="NoName" points="2689,16 2689,16 2689,1 2696,31 2689,61 2689,46 2689,46" fill="rgb(255,255,255)" fill-opacity="1.0" stroke="rgb(50,50,50)" stroke-width="1" />
		<g>
			<title>PF13473</title>
			<polygon class="PF13473" points="2689,18 2690,18 2693,31 2690,44 2689,44" stroke-linejoin="round" width="7" height="26" fill="rgb(54,142,203)" stroke="rgb(43,113,162)" stroke-width="1" opacity="0.75" />
		</g>
	</g>
	<g>
		<polygon class="NoName" points="146,16 146,16 146,1 174,31 146,61 146,46 146,46" fill="rgb(255,255,255)" fill-opacity="1.0" stroke="rgb(50,50,50)" stroke-width="1" />
		<g>
			<title>PF09704</title>
			<polygon class="PF09704" points="146,18 159,18 171,31 159,44 146,44" stroke-linejoin="round" width="26" height="26" fill="rgb(93,145,206)" stroke="rgb(74,116,164)" stroke-width="1" opacity="0.75" />
		</g>
	</g>
	<g>
		<polygon class="NoName" points="174,16 174,16 174,1 199,31 174,61 174,46 174,46" fill="rgb(255,255,255)" fill-opacity="1.0" stroke="rgb(50,50,50)" stroke-width="1" />
		<g>
			<title>PF08798</title>
			<polygon class="PF08798" points="175,18 185,18 196,31 185,44 175,44" stroke-linejoin="round" width="22" height="26" fill="rgb(196,187,97)" stroke="rgb(156,149,77)" stroke-width="1" opacity="0.75" />
		</g>
	</g>
	<g>
		<polygon class="NoName" points="306,16 290,16 290,1 260,31 290,61 290,46 306,46" fill="rgb(255,255,255)" fill-opacity="1.0" stroke="rgb(50,50,50)" stroke-width="1" />
	</g>
	<g>
		<polygon class="NoName" points="371,16 339,16 339,1 309,31 339,61 339,46 371,46" fill="rgb(255,255,255)" fill-opacity="1.0" stroke="rgb(50,50,50)" stroke-width="1" />
		<g>
			<title>PF06527</title>
			<rect class="PF06527" x="355" y="18" stroke-linejoin="round" width="15" height="26" fill="rgb(184,67,171)" stroke="rgb(147,53,136)" stroke-width="1" opacity="0.75" />
		</g>
	</g>
	<g>
		<polygon class="NoName" points="414,16 402,16 402,1 372,31 402,61 402,46 414,46" fill="rgb(255,255,255)" fill-opacity="1.0" stroke="rgb(50,50,50)" stroke-width="1" />
		<g>
			<title>PF05621</title>
			<rect class="PF05621" x="389" y="18" stroke-linejoin="round" width="15" height="26" fill="rgb(217,61,196)" stroke="rgb(173,48,156)" stroke-width="1" opacity="0.75" />
		</g>
	</g>
</svg>
