<svg version="1.1" baseProfile="full" xmlns="http://www.w3.org/2000/svg" width="44" height="62">
	<line x1="1" y1="31" x2="43" y2="31" style="stroke:rgb(50,50,50); stroke-width:3 "/>
	<g>
		<title>melC1-2</title>
		<polygon class="melC1-2" points="1,16 1,16 1,1 15,31 1,61 1,46 1,46" fill="rgb(225,211,250)" fill-opacity="1.0" stroke="rgb(90,84,100)" stroke-width="1" />
		<g>
			<title>PF06236</title>
			<polygon class="PF06236" points="2,18 6,18 12,31 6,44 2,44" stroke-linejoin="round" width="12" height="26" fill="rgb(182,64,58)" stroke="rgb(145,51,46)" stroke-width="1" opacity="0.75" />
		</g>
	</g>
	<g>
		<title>melC2-2</title>
		<polygon class="melC2-2" points="15,16 15,16 15,1 42,31 15,61 15,46 15,46" fill="rgb(252,191,207)" fill-opacity="1.0" stroke="rgb(100,76,82)" stroke-width="1" />
		<g>
			<title>PF00264</title>
			<polygon class="PF00264" points="17,18 27,18 37,29 37,33 27,44 17,44" stroke-linejoin="round" width="20" height="26" fill="rgb(87,199,223)" stroke="rgb(69,159,178)" stroke-width="1" opacity="0.75" />
		</g>
	</g>
</svg>
