<svg version="1.1" baseProfile="full" xmlns="http://www.w3.org/2000/svg" width="1155" height="62">
	<line x1="1" y1="31" x2="1154" y2="31" style="stroke:rgb(50,50,50); stroke-width:3 "/>
	<g>
		<title>CYP705A12</title>
		<polygon class="CYP705A12" points="53,16 31,16 31,1 1,31 31,61 31,46 53,46" fill="rgb(223,200,250)" fill-opacity="1.0" stroke="rgb(89,80,100)" stroke-width="1" />
		<g>
			<title>PF00067</title>
			<polygon class="PF00067" points="5,29 16,18 49,18 49,44 16,44 5,32" stroke-linejoin="round" width="44" height="26" fill="rgb(85,216,107)" stroke="rgb(68,172,85)" stroke-width="1" opacity="0.75" />
		</g>
	</g>
	<g>
		<title>CYP71A16</title>
		<polygon class="CYP71A16" points="333,16 283,16 283,1 253,31 283,61 283,46 333,46" fill="rgb(207,208,249)" fill-opacity="1.0" stroke="rgb(82,83,99)" stroke-width="1" />
		<g>
			<title>PF00067</title>
			<rect class="PF00067" x="285" y="18" stroke-linejoin="round" width="44" height="26" fill="rgb(85,216,107)" stroke="rgb(68,172,85)" stroke-width="1" opacity="0.75" />
		</g>
	</g>
	<g>
		<polygon class="NoName" points="435,16 435,16 435,1 438,31 435,61 435,46 435,46" fill="rgb(255,255,255)" fill-opacity="1.0" stroke="rgb(50,50,50)" stroke-width="1" />
	</g>
	<g>
		<title>MRN1</title>
		<polygon class="MRN1" points="998,16 1115,16 1115,1 1145,31 1115,61 1115,46 998,46" fill="rgb(249,238,207)" fill-opacity="1.0" stroke="rgb(99,95,82)" stroke-width="1" />
		<g>
			<title>PF13249</title>
			<rect class="PF13249" x="1007" y="18" stroke-linejoin="round" width="30" height="26" fill="rgb(88,190,89)" stroke="rgb(70,152,71)" stroke-width="1" opacity="0.75" />
		</g>
		<g>
			<title>PF13243</title>
			<rect class="PF13243" x="1039" y="18" stroke-linejoin="round" width="33" height="26" fill="rgb(191,58,201)" stroke="rgb(152,46,160)" stroke-width="1" opacity="0.75" />
		</g>
	</g>
</svg>
