<svg version="1.1" baseProfile="full" xmlns="http://www.w3.org/2000/svg" width="1406" height="62">
	<line x1="1" y1="31" x2="1405" y2="31" style="stroke:rgb(50,50,50); stroke-width:3 "/>
	<g>
		<polygon class="NoName" points="346,16 447,16 447,1 477,31 447,61 447,46 346,46" fill="rgb(255,255,255)" fill-opacity="1.0" stroke="rgb(50,50,50)" stroke-width="1" />
		<g>
			<title>PF00501</title>
			<rect class="PF00501" x="348" y="18" stroke-linejoin="round" width="40" height="26" fill="rgb(60,217,223)" stroke="rgb(48,173,178)" stroke-width="1" opacity="0.75" />
		</g>
		<g>
			<title>PF13193</title>
			<rect class="PF13193" x="389" y="18" stroke-linejoin="round" width="7" height="26" fill="rgb(182,50,118)" stroke="rgb(145,39,94)" stroke-width="1" opacity="0.75" />
		</g>
		<g>
			<title>PF00550</title>
			<rect class="PF00550" x="399" y="18" stroke-linejoin="round" width="6" height="26" fill="rgb(103,191,88)" stroke="rgb(82,152,70)" stroke-width="1" opacity="0.75" />
		</g>
		<g>
			<title>PF00668</title>
			<rect class="PF00668" x="409" y="18" stroke-linejoin="round" width="42" height="26" fill="rgb(224,184,98)" stroke="rgb(179,147,78)" stroke-width="1" opacity="0.75" />
		</g>
		<g>
			<title>PF13649</title>
			<polygon class="PF13649" points="458,18 461,18 467,24 467,38 461,44 458,44" stroke-linejoin="round" width="9" height="26" fill="rgb(227,135,74)" stroke="rgb(181,108,59)" stroke-width="1" opacity="0.75" />
		</g>
	</g>
	<g>
		<polygon class="NoName" points="477,16 477,16 477,1 498,31 477,61 477,46 477,46" fill="rgb(255,255,255)" fill-opacity="1.0" stroke="rgb(50,50,50)" stroke-width="1" />
		<g>
			<title>PF01648</title>
			<polygon class="PF01648" points="487,19 494,29 494,33 487,43" stroke-linejoin="round" width="7" height="26" fill="rgb(85,184,135)" stroke="rgb(68,147,108)" stroke-width="1" opacity="0.75" />
		</g>
	</g>
	<g>
		<polygon class="NoName" points="499,16 503,16 503,1 533,31 503,61 503,46 499,46" fill="rgb(255,255,255)" fill-opacity="1.0" stroke="rgb(50,50,50)" stroke-width="1" />
		<g>
			<title>PF06224</title>
			<polygon class="PF06224" points="502,18 517,18 530,31 517,44 502,44" stroke-linejoin="round" width="31" height="26" fill="rgb(116,78,194)" stroke="rgb(92,62,155)" stroke-width="1" opacity="0.75" />
		</g>
	</g>
	<g>
		<polygon class="NoName" points="537,16 549,16 549,1 579,31 549,61 549,46 537,46" fill="rgb(255,255,255)" fill-opacity="1.0" stroke="rgb(50,50,50)" stroke-width="1" />
		<g>
			<title>PF07690</title>
			<polygon class="PF07690" points="538,18 563,18 573,28 573,34 563,44 538,44" stroke-linejoin="round" width="35" height="26" fill="rgb(193,224,74)" stroke="rgb(154,179,59)" stroke-width="1" opacity="0.75" />
		</g>
	</g>
	<g>
		<polygon class="NoName" points="585,16 691,16 691,1 721,31 691,61 691,46 585,46" fill="rgb(255,255,255)" fill-opacity="1.0" stroke="rgb(50,50,50)" stroke-width="1" />
		<g>
			<title>PF00668</title>
			<rect class="PF00668" x="589" y="18" stroke-linejoin="round" width="44" height="26" fill="rgb(224,184,98)" stroke="rgb(179,147,78)" stroke-width="1" opacity="0.75" />
		</g>
		<g>
			<title>PF00501</title>
			<rect class="PF00501" x="635" y="18" stroke-linejoin="round" width="40" height="26" fill="rgb(60,217,223)" stroke="rgb(48,173,178)" stroke-width="1" opacity="0.75" />
		</g>
		<g>
			<title>PF13193</title>
			<rect class="PF13193" x="677" y="18" stroke-linejoin="round" width="7" height="26" fill="rgb(182,50,118)" stroke="rgb(145,39,94)" stroke-width="1" opacity="0.75" />
		</g>
		<g>
			<title>PF00550</title>
			<rect class="PF00550" x="688" y="18" stroke-linejoin="round" width="6" height="26" fill="rgb(103,191,88)" stroke="rgb(82,152,70)" stroke-width="1" opacity="0.75" />
		</g>
		<g>
			<title>PF00975</title>
			<polygon class="PF00975" points="697,18 705,18 718,31 705,44 697,44" stroke-linejoin="round" width="23" height="26" fill="rgb(207,80,138)" stroke="rgb(165,63,110)" stroke-width="1" opacity="0.75" />
		</g>
	</g>
	<g>
		<polygon class="NoName" points="722,16 803,16 803,1 833,31 803,61 803,46 722,46" fill="rgb(255,255,255)" fill-opacity="1.0" stroke="rgb(50,50,50)" stroke-width="1" />
		<g>
			<title>PF00668</title>
			<rect class="PF00668" x="726" y="18" stroke-linejoin="round" width="43" height="26" fill="rgb(224,184,98)" stroke="rgb(179,147,78)" stroke-width="1" opacity="0.75" />
		</g>
		<g>
			<title>PF00501</title>
			<rect class="PF00501" x="773" y="18" stroke-linejoin="round" width="38" height="26" fill="rgb(60,217,223)" stroke="rgb(48,173,178)" stroke-width="1" opacity="0.75" />
		</g>
		<g>
			<title>PF13193</title>
			<polygon class="PF13193" points="812,18 817,18 819,20 819,42 817,44 812,44" stroke-linejoin="round" width="7" height="26" fill="rgb(182,50,118)" stroke="rgb(145,39,94)" stroke-width="1" opacity="0.75" />
		</g>
		<g>
			<title>PF00550</title>
			<polygon class="PF00550" points="822,23 828,29 828,33 822,39" stroke-linejoin="round" width="6" height="26" fill="rgb(103,191,88)" stroke="rgb(82,152,70)" stroke-width="1" opacity="0.75" />
		</g>
	</g>
	<g>
		<polygon class="NoName" points="833,16 849,16 849,1 879,31 849,61 849,46 833,46" fill="rgb(255,255,255)" fill-opacity="1.0" stroke="rgb(50,50,50)" stroke-width="1" />
		<g>
			<title>PF00668</title>
			<polygon class="PF00668" points="837,18 863,18 876,31 863,44 837,44" stroke-linejoin="round" width="42" height="26" fill="rgb(224,184,98)" stroke="rgb(179,147,78)" stroke-width="1" opacity="0.75" />
		</g>
	</g>
	<g>
		<polygon class="NoName" points="886,16 893,16 893,1 923,31 893,61 893,46 886,46" fill="rgb(255,255,255)" fill-opacity="1.0" stroke="rgb(50,50,50)" stroke-width="1" />
		<g>
			<title>PF02771</title>
			<rect class="PF02771" x="886" y="18" stroke-linejoin="round" width="10" height="26" fill="rgb(105,135,218)" stroke="rgb(84,108,174)" stroke-width="1" opacity="0.75" />
		</g>
		<g>
			<title>PF02770</title>
			<rect class="PF02770" x="896" y="18" stroke-linejoin="round" width="8" height="26" fill="rgb(225,186,97)" stroke="rgb(180,148,77)" stroke-width="1" opacity="0.75" />
		</g>
		<g>
			<title>PF00441</title>
			<polygon class="PF00441" points="907,18 907,18 920,31 907,44 907,44" stroke-linejoin="round" width="15" height="26" fill="rgb(85,191,117)" stroke="rgb(68,152,93)" stroke-width="1" opacity="0.75" />
		</g>
	</g>
	<g>
		<polygon class="NoName" points="922,16 930,16 930,1 960,31 930,61 930,46 922,46" fill="rgb(255,255,255)" fill-opacity="1.0" stroke="rgb(50,50,50)" stroke-width="1" />
		<g>
			<title>PF00441</title>
			<polygon class="PF00441" points="943,18 944,18 957,31 944,44 943,44" stroke-linejoin="round" width="15" height="26" fill="rgb(85,191,117)" stroke="rgb(68,152,93)" stroke-width="1" opacity="0.75" />
		</g>
	</g>
	<g>
		<polygon class="NoName" points="982,16 982,16 982,1 963,31 982,61 982,46 982,46" fill="rgb(255,255,255)" fill-opacity="1.0" stroke="rgb(50,50,50)" stroke-width="1" />
		<g>
			<title>PF00583</title>
			<polygon class="PF00583" points="967,28 973,18 980,18 980,44 973,44 967,33" stroke-linejoin="round" width="13" height="26" fill="rgb(121,183,50)" stroke="rgb(96,146,39)" stroke-width="1" opacity="0.75" />
		</g>
	</g>
	<g>
		<polygon class="NoName" points="41,16 31,16 31,1 1,31 31,61 31,46 41,46" fill="rgb(255,255,255)" fill-opacity="1.0" stroke="rgb(50,50,50)" stroke-width="1" />
		<g>
			<title>PF00999</title>
			<polygon class="PF00999" points="3,31 16,18 40,18 40,44 16,44" stroke-linejoin="round" width="39" height="26" fill="rgb(229,67,191)" stroke="rgb(183,53,152)" stroke-width="1" opacity="0.75" />
		</g>
	</g>
	<g>
		<polygon class="NoName" points="1018,16 1013,16 1013,1 983,31 1013,61 1013,46 1018,46" fill="rgb(255,255,255)" fill-opacity="1.0" stroke="rgb(50,50,50)" stroke-width="1" />
		<g>
			<title>PF01212</title>
			<polygon class="PF01212" points="989,27 998,18 1017,18 1017,44 998,44 989,34" stroke-linejoin="round" width="28" height="26" fill="rgb(121,182,62)" stroke="rgb(96,145,49)" stroke-width="1" opacity="0.75" />
		</g>
	</g>
	<g>
		<polygon class="NoName" points="1042,16 1042,16 1042,1 1019,31 1042,61 1042,46 1042,46" fill="rgb(255,255,255)" fill-opacity="1.0" stroke="rgb(50,50,50)" stroke-width="1" />
		<g>
			<title>PF09365</title>
			<polygon class="PF09365" points="1021,31 1031,18 1041,18 1041,44 1031,44" stroke-linejoin="round" width="20" height="26" fill="rgb(182,154,60)" stroke="rgb(145,123,48)" stroke-width="1" opacity="0.75" />
		</g>
	</g>
	<g>
		<title>glyA</title>
		<polygon class="glyA" points="1085,16 1072,16 1072,1 1042,31 1072,61 1072,46 1085,46" fill="rgb(214,222,254)" fill-opacity="1.0" stroke="rgb(85,88,101)" stroke-width="1" />
		<g>
			<title>PF00464</title>
			<polygon class="PF00464" points="1046,29 1057,18 1084,18 1084,44 1057,44 1046,32" stroke-linejoin="round" width="38" height="26" fill="rgb(215,97,215)" stroke="rgb(172,77,172)" stroke-width="1" opacity="0.75" />
		</g>
	</g>
	<g>
		<polygon class="NoName" points="1199,16 1120,16 1120,1 1090,31 1120,61 1120,46 1199,46" fill="rgb(255,255,255)" fill-opacity="1.0" stroke="rgb(50,50,50)" stroke-width="1" />
		<g>
			<title>PF00550</title>
			<polygon class="PF00550" points="1093,30 1099,24 1099,37 1093,31" stroke-linejoin="round" width="6" height="26" fill="rgb(103,191,88)" stroke="rgb(82,152,70)" stroke-width="1" opacity="0.75" />
		</g>
		<g>
			<title>PF13193</title>
			<polygon class="PF13193" points="1103,20 1105,18 1110,18 1110,44 1105,44 1103,41" stroke-linejoin="round" width="7" height="26" fill="rgb(182,50,118)" stroke="rgb(145,39,94)" stroke-width="1" opacity="0.75" />
		</g>
		<g>
			<title>PF00501</title>
			<rect class="PF00501" x="1111" y="18" stroke-linejoin="round" width="40" height="26" fill="rgb(60,217,223)" stroke="rgb(48,173,178)" stroke-width="1" opacity="0.75" />
		</g>
		<g>
			<title>PF00668</title>
			<rect class="PF00668" x="1154" y="18" stroke-linejoin="round" width="41" height="26" fill="rgb(224,184,98)" stroke="rgb(179,147,78)" stroke-width="1" opacity="0.75" />
		</g>
	</g>
	<g>
		<polygon class="NoName" points="1265,16 1233,16 1233,1 1203,31 1233,61 1233,46 1265,46" fill="rgb(255,255,255)" fill-opacity="1.0" stroke="rgb(50,50,50)" stroke-width="1" />
		<g>
			<title>PF00931</title>
			<polygon class="PF00931" points="1210,26 1218,18 1235,18 1235,44 1218,44 1210,35" stroke-linejoin="round" width="25" height="26" fill="rgb(165,94,211)" stroke="rgb(132,75,168)" stroke-width="1" opacity="0.75" />
		</g>
		<g>
			<title>PF03704</title>
			<rect class="PF03704" x="1241" y="18" stroke-linejoin="round" width="14" height="26" fill="rgb(217,89,196)" stroke="rgb(173,71,156)" stroke-width="1" opacity="0.75" />
		</g>
		<g>
			<title>PF00486</title>
			<rect class="PF00486" x="1256" y="18" stroke-linejoin="round" width="7" height="26" fill="rgb(204,153,57)" stroke="rgb(163,122,45)" stroke-width="1" opacity="0.75" />
		</g>
	</g>
	<g>
		<polygon class="NoName" points="1272,16 1272,16 1272,1 1278,31 1272,61 1272,46 1272,46" fill="rgb(255,255,255)" fill-opacity="1.0" stroke="rgb(50,50,50)" stroke-width="1" />
	</g>
	<g>
		<polygon class="NoName" points="1382,16 1313,16 1313,1 1283,31 1313,61 1313,46 1382,46" fill="rgb(255,255,255)" fill-opacity="1.0" stroke="rgb(50,50,50)" stroke-width="1" />
		<g>
			<title>PF13176</title>
			<rect class="PF13176" x="1303" y="18" stroke-linejoin="round" width="3" height="26" fill="rgb(197,220,70)" stroke="rgb(157,176,56)" stroke-width="1" opacity="0.75" />
		</g>
		<g>
			<title>PF00931</title>
			<rect class="PF00931" x="1330" y="18" stroke-linejoin="round" width="25" height="26" fill="rgb(165,94,211)" stroke="rgb(132,75,168)" stroke-width="1" opacity="0.75" />
		</g>
		<g>
			<title>PF03704</title>
			<rect class="PF03704" x="1360" y="18" stroke-linejoin="round" width="14" height="26" fill="rgb(217,89,196)" stroke="rgb(173,71,156)" stroke-width="1" opacity="0.75" />
		</g>
		<g>
			<title>PF00486</title>
			<rect class="PF00486" x="1375" y="18" stroke-linejoin="round" width="7" height="26" fill="rgb(204,153,57)" stroke="rgb(163,122,45)" stroke-width="1" opacity="0.75" />
		</g>
	</g>
	<g>
		<polygon class="NoName" points="1404,16 1404,16 1404,1 1389,31 1404,61 1404,46 1404,46" fill="rgb(255,255,255)" fill-opacity="1.0" stroke="rgb(50,50,50)" stroke-width="1" />
		<g>
			<title>PF12802</title>
			<polygon class="PF12802" points="1395,23 1398,18 1400,18 1400,44 1398,44 1395,38" stroke-linejoin="round" width="5" height="26" fill="rgb(46,89,185)" stroke="rgb(36,71,148)" stroke-width="1" opacity="0.75" />
		</g>
	</g>
	<g>
		<polygon class="NoName" points="59,16 59,16 59,1 41,31 59,61 59,46 59,46" fill="rgb(255,255,255)" fill-opacity="1.0" stroke="rgb(50,50,50)" stroke-width="1" />
		<g>
			<title>PF01613</title>
			<polygon class="PF01613" points="44,29 51,18 58,18 58,44 51,44 44,32" stroke-linejoin="round" width="14" height="26" fill="rgb(107,197,222)" stroke="rgb(85,157,177)" stroke-width="1" opacity="0.75" />
		</g>
	</g>
	<g>
		<polygon class="NoName" points="117,16 94,16 94,1 64,31 94,61 94,46 117,46" fill="rgb(255,255,255)" fill-opacity="1.0" stroke="rgb(50,50,50)" stroke-width="1" />
		<g>
			<title>PF04820</title>
			<polygon class="PF04820" points="67,30 79,18 115,18 115,44 79,44 67,31" stroke-linejoin="round" width="48" height="26" fill="rgb(179,74,194)" stroke="rgb(143,59,155)" stroke-width="1" opacity="0.75" />
		</g>
	</g>
	<g>
		<polygon class="NoName" points="123,16 126,16 126,1 156,31 126,61 126,46 123,46" fill="rgb(255,255,255)" fill-opacity="1.0" stroke="rgb(50,50,50)" stroke-width="1" />
		<g>
			<title>PF00486</title>
			<rect class="PF00486" x="126" y="18" stroke-linejoin="round" width="7" height="26" fill="rgb(204,153,57)" stroke="rgb(163,122,45)" stroke-width="1" opacity="0.75" />
		</g>
		<g>
			<title>PF03704</title>
			<polygon class="PF03704" points="134,18 140,18 148,26 148,36 140,44 134,44" stroke-linejoin="round" width="14" height="26" fill="rgb(217,89,196)" stroke="rgb(173,71,156)" stroke-width="1" opacity="0.75" />
		</g>
	</g>
	<g>
		<polygon class="NoName" points="161,16 181,16 181,1 211,31 181,61 181,46 161,46" fill="rgb(255,255,255)" fill-opacity="1.0" stroke="rgb(50,50,50)" stroke-width="1" />
		<g>
			<title>PF00171</title>
			<polygon class="PF00171" points="162,18 195,18 207,30 207,32 195,44 162,44" stroke-linejoin="round" width="45" height="26" fill="rgb(105,213,139)" stroke="rgb(84,170,111)" stroke-width="1" opacity="0.75" />
		</g>
	</g>
	<g>
		<polygon class="NoName" points="216,16 242,16 242,1 272,31 242,61 242,46 216,46" fill="rgb(255,255,255)" fill-opacity="1.0" stroke="rgb(50,50,50)" stroke-width="1" />
		<g>
			<title>PF00501</title>
			<rect class="PF00501" x="216" y="18" stroke-linejoin="round" width="36" height="26" fill="rgb(60,217,223)" stroke="rgb(48,173,178)" stroke-width="1" opacity="0.75" />
		</g>
		<g>
			<title>PF13193</title>
			<polygon class="PF13193" points="253,18 256,18 260,22 260,40 256,44 253,44" stroke-linejoin="round" width="7" height="26" fill="rgb(182,50,118)" stroke="rgb(145,39,94)" stroke-width="1" opacity="0.75" />
		</g>
		<g>
			<title>PF00550</title>
			<polygon class="PF00550" points="263,25 269,31 269,31 263,37" stroke-linejoin="round" width="6" height="26" fill="rgb(103,191,88)" stroke="rgb(82,152,70)" stroke-width="1" opacity="0.75" />
		</g>
	</g>
	<g>
		<polygon class="NoName" points="278,16 278,16 278,1 296,31 278,61 278,46 278,46" fill="rgb(255,255,255)" fill-opacity="1.0" stroke="rgb(50,50,50)" stroke-width="1" />
		<g>
			<title>PF00975</title>
			<polygon class="PF00975" points="278,18 285,18 293,31 285,44 278,44" stroke-linejoin="round" width="17" height="26" fill="rgb(207,80,138)" stroke="rgb(165,63,110)" stroke-width="1" opacity="0.75" />
		</g>
	</g>
	<g>
		<polygon class="NoName" points="299,16 299,16 299,1 305,31 299,61 299,46 299,46" fill="rgb(255,255,255)" fill-opacity="1.0" stroke="rgb(50,50,50)" stroke-width="1" />
		<g>
			<title>PF03621</title>
			<polygon class="PF03621" points="299,18 299,18 302,31 299,44 299,44" stroke-linejoin="round" width="4" height="26" fill="rgb(212,165,97)" stroke="rgb(169,132,77)" stroke-width="1" opacity="0.75" />
		</g>
	</g>
	<g>
		<polygon class="NoName" points="305,16 315,16 315,1 345,31 315,61 315,46 305,46" fill="rgb(255,255,255)" fill-opacity="1.0" stroke="rgb(50,50,50)" stroke-width="1" />
		<g>
			<title>PF00067</title>
			<polygon class="PF00067" points="332,21 342,31 332,41" stroke-linejoin="round" width="11" height="26" fill="rgb(85,216,107)" stroke="rgb(68,172,85)" stroke-width="1" opacity="0.75" />
		</g>
	</g>
</svg>
