<svg version="1.1" baseProfile="full" xmlns="http://www.w3.org/2000/svg" width="1052" height="62">
	<line x1="1" y1="31" x2="1051" y2="31" style="stroke:rgb(50,50,50); stroke-width:3 "/>
	<g>
		<title>gelL</title>
		<polygon class="gelL" points="355,16 355,16 355,1 383,31 355,61 355,46 355,46" fill="rgb(227,251,184)" fill-opacity="1.0" stroke="rgb(90,100,73)" stroke-width="1" />
		<g>
			<title>PF13641</title>
			<polygon class="PF13641" points="355,18 368,18 376,27 376,35 368,44 355,44" stroke-linejoin="round" width="21" height="26" fill="rgb(140,74,190)" stroke="rgb(111,59,152)" stroke-width="1" opacity="0.75" />
		</g>
	</g>
	<g>
		<title>gelJ</title>
		<polygon class="gelJ" points="431,16 415,16 415,1 385,31 415,61 415,46 431,46" fill="rgb(200,227,254)" fill-opacity="1.0" stroke="rgb(80,90,101)" stroke-width="1" />
		<g>
			<title>PF13191</title>
			<rect class="PF13191" x="406" y="18" stroke-linejoin="round" width="15" height="26" fill="rgb(186,102,77)" stroke="rgb(148,81,61)" stroke-width="1" opacity="0.75" />
		</g>
	</g>
	<g>
		<title>gelF</title>
		<polygon class="gelF" points="452,16 465,16 465,1 495,31 465,61 465,46 452,46" fill="rgb(213,253,197)" fill-opacity="1.0" stroke="rgb(85,101,78)" stroke-width="1" />
		<g>
			<title>PF10082</title>
			<polygon class="PF10082" points="472,18 479,18 492,31 479,44 472,44" stroke-linejoin="round" width="23" height="26" fill="rgb(194,81,181)" stroke="rgb(155,64,144)" stroke-width="1" opacity="0.75" />
		</g>
	</g>
	<g>
		<title>gelD</title>
		<polygon class="gelD" points="496,16 496,16 496,1 526,31 496,61 496,46 496,46" fill="rgb(202,188,253)" fill-opacity="1.0" stroke="rgb(80,75,101)" stroke-width="1" />
		<g>
			<title>PF02563</title>
			<rect class="PF02563" x="502" y="18" stroke-linejoin="round" width="7" height="26" fill="rgb(125,185,59)" stroke="rgb(100,148,47)" stroke-width="1" opacity="0.75" />
		</g>
		<g>
			<title>PF10531</title>
			<polygon class="PF10531" points="511,19 516,24 516,38 511,43" stroke-linejoin="round" width="5" height="26" fill="rgb(92,145,209)" stroke="rgb(73,116,167)" stroke-width="1" opacity="0.75" />
		</g>
		<g>
			<title>PF10531</title>
			<polygon class="PF10531" points="519,27 523,31 519,35" stroke-linejoin="round" width="5" height="26" fill="rgb(92,145,209)" stroke="rgb(73,116,167)" stroke-width="1" opacity="0.75" />
		</g>
	</g>
	<g>
		<title>gelC</title>
		<polygon class="gelC" points="527,16 541,16 541,1 571,31 541,61 541,46 527,46" fill="rgb(244,207,254)" fill-opacity="1.0" stroke="rgb(97,82,101)" stroke-width="1" />
		<g>
			<title>PF02706</title>
			<rect class="PF02706" x="527" y="18" stroke-linejoin="round" width="15" height="26" fill="rgb(184,132,90)" stroke="rgb(147,105,72)" stroke-width="1" opacity="0.75" />
		</g>
		<g>
			<title>PF13807</title>
			<polygon class="PF13807" points="558,21 566,29 566,33 558,41" stroke-linejoin="round" width="8" height="26" fill="rgb(77,110,190)" stroke="rgb(61,87,152)" stroke-width="1" opacity="0.75" />
		</g>
	</g>
	<g>
		<title>gelE</title>
		<polygon class="gelE" points="572,16 572,16 572,1 595,31 572,61 572,46 572,46" fill="rgb(227,251,185)" fill-opacity="1.0" stroke="rgb(90,100,74)" stroke-width="1" />
		<g>
			<title>PF10609</title>
			<polygon class="PF10609" points="578,18 582,18 588,26 588,36 582,44 578,44" stroke-linejoin="round" width="10" height="26" fill="rgb(107,194,90)" stroke="rgb(85,155,72)" stroke-width="1" opacity="0.75" />
		</g>
	</g>
	<g>
		<title>gelM</title>
		<polygon class="gelM" points="596,16 596,16 596,1 625,31 596,61 596,46 596,46" fill="rgb(234,250,177)" fill-opacity="1.0" stroke="rgb(93,100,70)" stroke-width="1" />
		<g>
			<title>PF09721</title>
			<polygon class="PF09721" points="598,18 609,18 622,31 609,44 598,44" stroke-linejoin="round" width="25" height="26" fill="rgb(94,107,207)" stroke="rgb(75,85,165)" stroke-width="1" opacity="0.75" />
		</g>
	</g>
	<g>
		<title>gelN</title>
		<polygon class="gelN" points="625,16 625,16 625,1 648,31 625,61 625,46 625,46" fill="rgb(254,215,200)" fill-opacity="1.0" stroke="rgb(101,86,80)" stroke-width="1" />
		<g>
			<title>PF11984</title>
			<polygon class="PF11984" points="625,18 635,18 645,31 645,31 635,44 625,44" stroke-linejoin="round" width="20" height="26" fill="rgb(77,215,143)" stroke="rgb(61,172,114)" stroke-width="1" opacity="0.75" />
		</g>
	</g>
	<g>
		<title>atrD</title>
		<polygon class="atrD" points="696,16 680,16 680,1 650,31 680,61 680,46 696,46" fill="rgb(240,254,207)" fill-opacity="1.0" stroke="rgb(96,101,82)" stroke-width="1" />
		<g>
			<title>PF13437</title>
			<polygon class="PF13437" points="653,30 664,19 664,42 653,31" stroke-linejoin="round" width="11" height="26" fill="rgb(82,200,102)" stroke="rgb(65,160,81)" stroke-width="1" opacity="0.75" />
		</g>
	</g>
	<g>
		<title>atrB</title>
		<polygon class="atrB" points="768,16 726,16 726,1 696,31 726,61 726,46 768,46" fill="rgb(211,193,252)" fill-opacity="1.0" stroke="rgb(84,77,100)" stroke-width="1" />
		<g>
			<title>PF00005</title>
			<polygon class="PF00005" points="703,26 711,18 717,18 717,44 711,44 703,35" stroke-linejoin="round" width="14" height="26" fill="rgb(129,201,63)" stroke="rgb(103,160,50)" stroke-width="1" opacity="0.75" />
		</g>
		<g>
			<title>PF00664</title>
			<rect class="PF00664" x="725" y="18" stroke-linejoin="round" width="27" height="26" fill="rgb(149,226,73)" stroke="rgb(119,180,58)" stroke-width="1" opacity="0.75" />
		</g>
		<g>
			<title>PF03412</title>
			<rect class="PF03412" x="754" y="18" stroke-linejoin="round" width="12" height="26" fill="rgb(214,226,77)" stroke="rgb(171,180,61)" stroke-width="1" opacity="0.75" />
		</g>
	</g>
	<g>
		<title>gyrB</title>
		<polygon class="gyrB" points="1,16 10,16 10,1 40,31 10,61 10,46 1,46" fill="rgb(177,187,251)" fill-opacity="1.0" stroke="rgb(70,74,100)" stroke-width="1" />
		<g>
			<title>PF00204</title>
			<rect class="PF00204" x="1" y="18" stroke-linejoin="round" width="14" height="26" fill="rgb(66,134,179)" stroke="rgb(52,107,143)" stroke-width="1" opacity="0.75" />
		</g>
		<g>
			<title>PF01751</title>
			<polygon class="PF01751" points="18,18 24,18 29,23 29,39 24,44 18,44" stroke-linejoin="round" width="11" height="26" fill="rgb(95,212,145)" stroke="rgb(76,169,116)" stroke-width="1" opacity="0.75" />
		</g>
		<g>
			<title>PF00986</title>
			<polygon class="PF00986" points="32,26 37,31 32,36" stroke-linejoin="round" width="6" height="26" fill="rgb(184,59,116)" stroke="rgb(147,47,92)" stroke-width="1" opacity="0.75" />
		</g>
	</g>
	<g>
		<title>gelB</title>
		<polygon class="gelB" points="791,16 808,16 808,1 838,31 808,61 808,46 791,46" fill="rgb(252,209,180)" fill-opacity="1.0" stroke="rgb(100,83,72)" stroke-width="1" />
		<g>
			<title>PF13727</title>
			<rect class="PF13727" x="799" y="18" stroke-linejoin="round" width="10" height="26" fill="rgb(153,200,97)" stroke="rgb(122,160,77)" stroke-width="1" opacity="0.75" />
		</g>
		<g>
			<title>PF02397</title>
			<polygon class="PF02397" points="818,18 822,18 835,31 822,44 818,44" stroke-linejoin="round" width="18" height="26" fill="rgb(57,165,209)" stroke="rgb(45,131,167)" stroke-width="1" opacity="0.75" />
		</g>
	</g>
	<g>
		<title>rmlA</title>
		<polygon class="rmlA" points="842,16 842,16 842,1 871,31 842,61 842,46 842,46" fill="rgb(192,178,253)" fill-opacity="1.0" stroke="rgb(76,71,101)" stroke-width="1" />
		<g>
			<title>PF00483</title>
			<polygon class="PF00483" points="842,18 855,18 866,29 866,33 855,44 842,44" stroke-linejoin="round" width="24" height="26" fill="rgb(198,101,87)" stroke="rgb(158,80,69)" stroke-width="1" opacity="0.75" />
		</g>
	</g>
	<g>
		<title>rmlC</title>
		<polygon class="rmlC" points="871,16 871,16 871,1 889,31 871,61 871,46 871,46" fill="rgb(202,200,253)" fill-opacity="1.0" stroke="rgb(80,80,101)" stroke-width="1" />
		<g>
			<title>PF00908</title>
			<polygon class="PF00908" points="871,18 878,18 886,31 878,44 871,44" stroke-linejoin="round" width="17" height="26" fill="rgb(184,89,121)" stroke="rgb(147,71,96)" stroke-width="1" opacity="0.75" />
		</g>
	</g>
	<g>
		<title>rmlB</title>
		<polygon class="rmlB" points="890,16 895,16 895,1 925,31 895,61 895,46 890,46" fill="rgb(178,254,197)" fill-opacity="1.0" stroke="rgb(71,101,78)" stroke-width="1" />
		<g>
			<title>PF16363</title>
			<polygon class="PF16363" points="890,18 909,18 921,30 921,32 909,44 890,44" stroke-linejoin="round" width="31" height="26" fill="rgb(162,221,65)" stroke="rgb(129,176,51)" stroke-width="1" opacity="0.75" />
		</g>
	</g>
	<g>
		<title>rmlD</title>
		<polygon class="rmlD" points="925,16 925,16 925,1 953,31 925,61 925,46 925,46" fill="rgb(251,250,178)" fill-opacity="1.0" stroke="rgb(100,100,71)" stroke-width="1" />
		<g>
			<title>PF04321</title>
			<polygon class="PF04321" points="925,18 938,18 950,31 938,44 925,44" stroke-linejoin="round" width="28" height="26" fill="rgb(196,203,60)" stroke="rgb(156,162,47)" stroke-width="1" opacity="0.75" />
		</g>
	</g>
	<g>
		<polygon class="NoName" points="956,16 956,16 956,1 986,31 956,61 956,46 956,46" fill="rgb(255,255,255)" fill-opacity="1.0" stroke="rgb(50,50,50)" stroke-width="1" />
		<g>
			<title>PF00892</title>
			<rect class="PF00892" x="957" y="18" stroke-linejoin="round" width="13" height="26" fill="rgb(105,217,77)" stroke="rgb(84,173,61)" stroke-width="1" opacity="0.75" />
		</g>
		<g>
			<title>PF00892</title>
			<polygon class="PF00892" points="971,19 983,31 971,43" stroke-linejoin="round" width="13" height="26" fill="rgb(105,217,77)" stroke="rgb(84,173,61)" stroke-width="1" opacity="0.75" />
		</g>
	</g>
	<g>
		<polygon class="NoName" points="1006,16 1006,16 1006,1 985,31 1006,61 1006,46 1006,46" fill="rgb(255,255,255)" fill-opacity="1.0" stroke="rgb(50,50,50)" stroke-width="1" />
		<g>
			<title>PF06080</title>
			<polygon class="PF06080" points="987,31 996,18 1004,18 1004,44 996,44" stroke-linejoin="round" width="19" height="26" fill="rgb(90,218,195)" stroke="rgb(72,174,156)" stroke-width="1" opacity="0.75" />
		</g>
	</g>
	<g>
		<polygon class="NoName" points="45,16 49,16 49,1 79,31 49,61 49,46 45,46" fill="rgb(255,255,255)" fill-opacity="1.0" stroke="rgb(50,50,50)" stroke-width="1" />
	</g>
	<g>
		<title>fhuA</title>
		<polygon class="fhuA" points="153,16 115,16 115,1 85,31 115,61 115,46 153,46" fill="rgb(253,202,200)" fill-opacity="1.0" stroke="rgb(101,80,80)" stroke-width="1" />
		<g>
			<title>PF00593</title>
			<polygon class="PF00593" points="87,31 100,18 131,18 131,44 100,44" stroke-linejoin="round" width="46" height="26" fill="rgb(171,200,51)" stroke="rgb(136,160,40)" stroke-width="1" opacity="0.75" />
		</g>
		<g>
			<title>PF07715</title>
			<rect class="PF07715" x="138" y="18" stroke-linejoin="round" width="10" height="26" fill="rgb(99,133,214)" stroke="rgb(79,106,171)" stroke-width="1" opacity="0.75" />
		</g>
	</g>
	<g>
		<polygon class="NoName" points="155,16 163,16 163,1 193,31 163,61 163,46 155,46" fill="rgb(255,255,255)" fill-opacity="1.0" stroke="rgb(50,50,50)" stroke-width="1" />
		<g>
			<title>PF07786</title>
			<polygon class="PF07786" points="156,18 177,18 179,20 179,42 177,44 156,44" stroke-linejoin="round" width="23" height="26" fill="rgb(166,59,205)" stroke="rgb(132,47,164)" stroke-width="1" opacity="0.75" />
		</g>
	</g>
	<g>
		<polygon class="NoName" points="221,16 221,16 221,1 202,31 221,61 221,46 221,46" fill="rgb(255,255,255)" fill-opacity="1.0" stroke="rgb(50,50,50)" stroke-width="1" />
		<g>
			<title>PF13302</title>
			<polygon class="PF13302" points="205,30 212,18 218,18 218,44 212,44 205,31" stroke-linejoin="round" width="13" height="26" fill="rgb(105,146,215)" stroke="rgb(84,116,172)" stroke-width="1" opacity="0.75" />
		</g>
	</g>
	<g>
		<polygon class="NoName" points="247,16 247,16 247,1 220,31 247,61 247,46 247,46" fill="rgb(255,255,255)" fill-opacity="1.0" stroke="rgb(50,50,50)" stroke-width="1" />
		<g>
			<title>PF01987</title>
			<polygon class="PF01987" points="223,30 234,18 244,18 244,44 234,44 223,31" stroke-linejoin="round" width="21" height="26" fill="rgb(186,55,82)" stroke="rgb(148,44,65)" stroke-width="1" opacity="0.75" />
		</g>
	</g>
	<g>
		<title>gelQ</title>
		<polygon class="gelQ" points="252,16 253,16 253,1 283,31 253,61 253,46 252,46" fill="rgb(192,251,186)" fill-opacity="1.0" stroke="rgb(76,100,74)" stroke-width="1" />
		<g>
			<title>PF13641</title>
			<polygon class="PF13641" points="252,18 267,18 280,31 267,44 252,44" stroke-linejoin="round" width="30" height="26" fill="rgb(140,74,190)" stroke="rgb(111,59,152)" stroke-width="1" opacity="0.75" />
		</g>
	</g>
	<g>
		<title>gelI</title>
		<polygon class="gelI" points="315,16 315,16 315,1 285,31 315,61 315,46 315,46" fill="rgb(203,232,252)" fill-opacity="1.0" stroke="rgb(81,92,100)" stroke-width="1" />
		<g>
			<title>PF13145</title>
			<polygon class="PF13145" points="291,27 300,18 302,18 302,44 300,44 291,34" stroke-linejoin="round" width="11" height="26" fill="rgb(77,77,182)" stroke="rgb(61,61,145)" stroke-width="1" opacity="0.75" />
		</g>
	</g>
	<g>
		<title>gelK</title>
		<polygon class="gelK" points="320,16 324,16 324,1 354,31 324,61 324,46 320,46" fill="rgb(211,253,244)" fill-opacity="1.0" stroke="rgb(84,101,97)" stroke-width="1" />
		<g>
			<title>PF08660</title>
			<rect class="PF08660" x="326" y="18" stroke-linejoin="round" width="10" height="26" fill="rgb(171,179,66)" stroke="rgb(136,143,52)" stroke-width="1" opacity="0.75" />
		</g>
		<g>
			<title>PF04101</title>
			<polygon class="PF04101" points="338,18 338,18 351,31 338,44 338,44" stroke-linejoin="round" width="15" height="26" fill="rgb(211,90,140)" stroke="rgb(168,72,112)" stroke-width="1" opacity="0.75" />
		</g>
	</g>
</svg>
