<svg version="1.1" baseProfile="full" xmlns="http://www.w3.org/2000/svg" width="1166" height="62">
	<line x1="1" y1="31" x2="1165" y2="31" style="stroke:rgb(50,50,50); stroke-width:3 "/>
	<g>
		<title>hygW</title>
		<polygon class="hygW" points="359,16 329,16 329,1 299,31 329,61 329,46 359,46" fill="rgb(252,224,192)" fill-opacity="1.0" stroke="rgb(100,89,76)" stroke-width="1" />
		<g>
			<title>PF00005</title>
			<polygon class="PF00005" points="307,25 314,18 322,18 322,44 314,44 307,36" stroke-linejoin="round" width="15" height="26" fill="rgb(129,201,63)" stroke="rgb(103,160,50)" stroke-width="1" opacity="0.75" />
		</g>
		<g>
			<title>PF00664</title>
			<rect class="PF00664" x="329" y="18" stroke-linejoin="round" width="27" height="26" fill="rgb(149,226,73)" stroke="rgb(119,180,58)" stroke-width="1" opacity="0.75" />
		</g>
	</g>
	<g>
		<title>hygA</title>
		<polygon class="hygA" points="365,16 368,16 368,1 398,31 368,61 368,46 365,46" fill="rgb(230,182,250)" fill-opacity="1.0" stroke="rgb(92,72,100)" stroke-width="1" />
		<g>
			<title>PF01636</title>
			<polygon class="PF01636" points="371,18 382,18 393,29 393,33 382,44 371,44" stroke-linejoin="round" width="22" height="26" fill="rgb(106,220,228)" stroke="rgb(84,176,182)" stroke-width="1" opacity="0.75" />
		</g>
	</g>
	<g>
		<title>hygK</title>
		<polygon class="hygK" points="435,16 433,16 433,1 403,31 433,61 433,46 435,46" fill="rgb(252,185,227)" fill-opacity="1.0" stroke="rgb(100,74,90)" stroke-width="1" />
		<g>
			<title>PF01370</title>
			<polygon class="PF01370" points="410,26 418,18 434,18 434,44 418,44 410,35" stroke-linejoin="round" width="24" height="26" fill="rgb(98,102,214)" stroke="rgb(78,81,171)" stroke-width="1" opacity="0.75" />
		</g>
	</g>
	<g>
		<title>hygU</title>
		<polygon class="hygU" points="452,16 452,16 452,1 436,31 452,61 452,46 452,46" fill="rgb(181,253,209)" fill-opacity="1.0" stroke="rgb(72,101,83)" stroke-width="1" />
		<g>
			<title>PF00702</title>
			<polygon class="PF00702" points="439,29 445,18 451,18 451,44 445,44 439,32" stroke-linejoin="round" width="12" height="26" fill="rgb(68,220,102)" stroke="rgb(54,176,81)" stroke-width="1" opacity="0.75" />
		</g>
	</g>
	<g>
		<title>hygD</title>
		<polygon class="hygD" points="456,16 466,16 466,1 496,31 466,61 466,46 456,46" fill="rgb(198,249,215)" fill-opacity="1.0" stroke="rgb(79,99,86)" stroke-width="1" />
		<g>
			<title>PF13692</title>
			<polygon class="PF13692" points="478,18 480,18 491,29 491,33 480,44 478,44" stroke-linejoin="round" width="13" height="26" fill="rgb(85,182,142)" stroke="rgb(68,145,113)" stroke-width="1" opacity="0.75" />
		</g>
	</g>
	<g>
		<title>hygO</title>
		<polygon class="hygO" points="526,16 526,16 526,1 498,31 526,61 526,46 526,46" fill="rgb(250,184,231)" fill-opacity="1.0" stroke="rgb(100,73,92)" stroke-width="1" />
		<g>
			<title>PF01087</title>
			<rect class="PF01087" x="513" y="18" stroke-linejoin="round" width="8" height="26" fill="rgb(67,205,199)" stroke="rgb(53,164,159)" stroke-width="1" opacity="0.75" />
		</g>
	</g>
	<g>
		<title>hygE</title>
		<polygon class="hygE" points="561,16 557,16 557,1 527,31 557,61 557,46 561,46" fill="rgb(203,206,251)" fill-opacity="1.0" stroke="rgb(81,82,100)" stroke-width="1" />
		<g>
			<title>PF00107</title>
			<polygon class="PF00107" points="531,29 542,18 543,18 543,44 542,44 531,32" stroke-linejoin="round" width="12" height="26" fill="rgb(81,108,215)" stroke="rgb(64,86,172)" stroke-width="1" opacity="0.75" />
		</g>
		<g>
			<title>PF08240</title>
			<rect class="PF08240" x="548" y="18" stroke-linejoin="round" width="10" height="26" fill="rgb(211,65,138)" stroke="rgb(168,51,110)" stroke-width="1" opacity="0.75" />
		</g>
	</g>
	<g>
		<title>hygP</title>
		<polygon class="hygP" points="583,16 583,16 583,1 564,31 583,61 583,46 583,46" fill="rgb(252,214,202)" fill-opacity="1.0" stroke="rgb(100,85,80)" stroke-width="1" />
		<g>
			<title>PF13580</title>
			<polygon class="PF13580" points="568,28 574,18 581,18 581,44 574,44 568,33" stroke-linejoin="round" width="13" height="26" fill="rgb(87,217,81)" stroke="rgb(69,173,64)" stroke-width="1" opacity="0.75" />
		</g>
	</g>
	<g>
		<title>hygX</title>
		<polygon class="hygX" points="612,16 612,16 612,1 587,31 612,61 612,46 612,46" fill="rgb(199,206,251)" fill-opacity="1.0" stroke="rgb(79,82,100)" stroke-width="1" />
		<g>
			<title>PF05721</title>
			<polygon class="PF05721" points="591,29 600,18 611,18 611,44 600,44 591,32" stroke-linejoin="round" width="20" height="26" fill="rgb(72,132,214)" stroke="rgb(57,105,171)" stroke-width="1" opacity="0.75" />
		</g>
	</g>
	<g>
		<title>hygL</title>
		<polygon class="hygL" points="656,16 649,16 649,1 619,31 649,61 649,46 656,46" fill="rgb(252,177,209)" fill-opacity="1.0" stroke="rgb(100,70,83)" stroke-width="1" />
		<g>
			<title>PF01041</title>
			<polygon class="PF01041" points="621,31 634,18 654,18 654,44 634,44" stroke-linejoin="round" width="35" height="26" fill="rgb(59,139,191)" stroke="rgb(47,111,152)" stroke-width="1" opacity="0.75" />
		</g>
	</g>
	<g>
		<polygon class="NoName" points="1,16 1,16 1,1 17,31 1,61 1,46 1,46" fill="rgb(255,255,255)" fill-opacity="1.0" stroke="rgb(50,50,50)" stroke-width="1" />
	</g>
	<g>
		<title>hygJ</title>
		<polygon class="hygJ" points="687,16 687,16 687,1 657,31 687,61 687,46 687,46" fill="rgb(216,188,252)" fill-opacity="1.0" stroke="rgb(86,75,100)" stroke-width="1" />
		<g>
			<title>PF01370</title>
			<polygon class="PF01370" points="664,26 672,18 686,18 686,44 672,44 664,35" stroke-linejoin="round" width="22" height="26" fill="rgb(98,102,214)" stroke="rgb(78,81,171)" stroke-width="1" opacity="0.75" />
		</g>
	</g>
	<g>
		<title>hygY</title>
		<polygon class="hygY" points="722,16 718,16 718,1 688,31 718,61 718,46 722,46" fill="rgb(254,251,212)" fill-opacity="1.0" stroke="rgb(101,100,84)" stroke-width="1" />
		<g>
			<title>PF13353</title>
			<rect class="PF13353" x="708" y="18" stroke-linejoin="round" width="12" height="26" fill="rgb(213,229,100)" stroke="rgb(170,183,80)" stroke-width="1" opacity="0.75" />
		</g>
	</g>
	<g>
		<title>hygF</title>
		<polygon class="hygF" points="749,16 749,16 749,1 722,31 749,61 749,46 749,46" fill="rgb(185,243,250)" fill-opacity="1.0" stroke="rgb(73,97,100)" stroke-width="1" />
		<g>
			<title>PF00535</title>
			<polygon class="PF00535" points="731,23 736,18 747,18 747,44 736,44 731,38" stroke-linejoin="round" width="16" height="26" fill="rgb(224,122,96)" stroke="rgb(179,97,76)" stroke-width="1" opacity="0.75" />
		</g>
	</g>
	<g>
		<title>hygN</title>
		<polygon class="hygN" points="790,16 785,16 785,1 755,31 785,61 785,46 790,46" fill="rgb(205,251,248)" fill-opacity="1.0" stroke="rgb(82,100,99)" stroke-width="1" />
		<g>
			<title>PF08544</title>
			<polygon class="PF08544" points="757,31 764,24 764,37" stroke-linejoin="round" width="8" height="26" fill="rgb(95,112,219)" stroke="rgb(76,89,175)" stroke-width="1" opacity="0.75" />
		</g>
		<g>
			<title>PF00288</title>
			<rect class="PF00288" x="772" y="18" stroke-linejoin="round" width="6" height="26" fill="rgb(190,54,91)" stroke="rgb(152,43,72)" stroke-width="1" opacity="0.75" />
		</g>
	</g>
	<g>
		<title>hygC</title>
		<polygon class="hygC" points="832,16 821,16 821,1 791,31 821,61 821,46 832,46" fill="rgb(251,184,212)" fill-opacity="1.0" stroke="rgb(100,73,84)" stroke-width="1" />
		<g>
			<title>PF01761</title>
			<polygon class="PF01761" points="796,28 806,18 822,18 822,44 806,44 796,33" stroke-linejoin="round" width="26" height="26" fill="rgb(150,62,180)" stroke="rgb(120,49,144)" stroke-width="1" opacity="0.75" />
		</g>
	</g>
	<g>
		<title>hygM</title>
		<polygon class="hygM" points="859,16 859,16 859,1 832,31 859,61 859,46 859,46" fill="rgb(201,254,227)" fill-opacity="1.0" stroke="rgb(80,101,90)" stroke-width="1" />
		<g>
			<title>PF01555</title>
			<polygon class="PF01555" points="834,31 846,18 854,18 854,44 846,44" stroke-linejoin="round" width="22" height="26" fill="rgb(54,198,162)" stroke="rgb(43,158,129)" stroke-width="1" opacity="0.75" />
		</g>
	</g>
	<g>
		<title>hygS</title>
		<polygon class="hygS" points="908,16 895,16 895,1 865,31 895,61 895,46 908,46" fill="rgb(224,200,250)" fill-opacity="1.0" stroke="rgb(89,80,100)" stroke-width="1" />
		<g>
			<title>PF01041</title>
			<polygon class="PF01041" points="867,31 880,18 903,18 903,44 880,44" stroke-linejoin="round" width="38" height="26" fill="rgb(59,139,191)" stroke="rgb(47,111,152)" stroke-width="1" opacity="0.75" />
		</g>
	</g>
	<g>
		<title>hygT</title>
		<polygon class="hygT" points="913,16 913,16 913,1 931,31 913,61 913,46 913,46" fill="rgb(188,254,254)" fill-opacity="1.0" stroke="rgb(75,101,101)" stroke-width="1" />
	</g>
	<g>
		<title>hygI</title>
		<polygon class="hygI" points="931,16 931,16 931,1 947,31 931,61 931,46 931,46" fill="rgb(180,197,254)" fill-opacity="1.0" stroke="rgb(72,78,101)" stroke-width="1" />
	</g>
	<g>
		<title>hygH</title>
		<polygon class="hygH" points="950,16 950,16 950,1 966,31 950,61 950,46 950,46" fill="rgb(197,250,220)" fill-opacity="1.0" stroke="rgb(78,100,88)" stroke-width="1" />
	</g>
	<g>
		<polygon class="NoName" points="18,16 18,16 18,1 29,31 18,61 18,46 18,46" fill="rgb(255,255,255)" fill-opacity="1.0" stroke="rgb(50,50,50)" stroke-width="1" />
	</g>
	<g>
		<title>hygG</title>
		<polygon class="hygG" points="967,16 976,16 976,1 1006,31 976,61 976,46 967,46" fill="rgb(254,207,248)" fill-opacity="1.0" stroke="rgb(101,82,99)" stroke-width="1" />
	</g>
	<g>
		<title>hygZ</title>
		<polygon class="hygZ" points="1084,16 1048,16 1048,1 1018,31 1048,61 1048,46 1084,46" fill="rgb(252,190,188)" fill-opacity="1.0" stroke="rgb(100,76,75)" stroke-width="1" />
		<g>
			<title>PF09299</title>
			<polygon class="PF09299" points="1031,20 1033,18 1037,18 1037,44 1033,44 1031,41" stroke-linejoin="round" width="6" height="26" fill="rgb(73,158,216)" stroke="rgb(58,126,172)" stroke-width="1" opacity="0.75" />
		</g>
		<g>
			<title>PF00665</title>
			<rect class="PF00665" x="1046" y="18" stroke-linejoin="round" width="6" height="26" fill="rgb(93,64,200)" stroke="rgb(74,51,160)" stroke-width="1" opacity="0.75" />
		</g>
	</g>
	<g>
		<polygon class="NoName" points="1117,16 1117,16 1117,1 1089,31 1117,61 1117,46 1117,46" fill="rgb(255,255,255)" fill-opacity="1.0" stroke="rgb(50,50,50)" stroke-width="1" />
	</g>
	<g>
		<polygon class="NoName" points="1164,16 1150,16 1150,1 1120,31 1150,61 1150,46 1164,46" fill="rgb(255,255,255)" fill-opacity="1.0" stroke="rgb(50,50,50)" stroke-width="1" />
	</g>
	<g>
		<polygon class="NoName" points="29,16 32,16 32,1 62,31 32,61 32,46 29,46" fill="rgb(255,255,255)" fill-opacity="1.0" stroke="rgb(50,50,50)" stroke-width="1" />
		<g>
			<title>PF01497</title>
			<polygon class="PF01497" points="34,18 46,18 59,31 59,31 46,44 34,44" stroke-linejoin="round" width="25" height="26" fill="rgb(183,226,104)" stroke="rgb(146,180,83)" stroke-width="1" opacity="0.75" />
		</g>
	</g>
	<g>
		<polygon class="NoName" points="63,16 63,16 63,1 88,31 63,61 63,46 63,46" fill="rgb(255,255,255)" fill-opacity="1.0" stroke="rgb(50,50,50)" stroke-width="1" />
		<g>
			<title>PF13649</title>
			<polygon class="PF13649" points="67,18 74,18 76,20 76,42 74,44 67,44" stroke-linejoin="round" width="9" height="26" fill="rgb(227,135,74)" stroke="rgb(181,108,59)" stroke-width="1" opacity="0.75" />
		</g>
	</g>
	<g>
		<polygon class="NoName" points="89,16 93,16 93,1 123,31 93,61 93,46 89,46" fill="rgb(255,255,255)" fill-opacity="1.0" stroke="rgb(50,50,50)" stroke-width="1" />
		<g>
			<title>PF01032</title>
			<polygon class="PF01032" points="91,18 107,18 120,31 107,44 91,44" stroke-linejoin="round" width="31" height="26" fill="rgb(210,177,70)" stroke="rgb(168,141,56)" stroke-width="1" opacity="0.75" />
		</g>
	</g>
	<g>
		<polygon class="NoName" points="124,16 124,16 124,1 151,31 124,61 124,46 124,46" fill="rgb(255,255,255)" fill-opacity="1.0" stroke="rgb(50,50,50)" stroke-width="1" />
		<g>
			<title>PF00005</title>
			<polygon class="PF00005" points="126,18 136,18 140,22 140,40 136,44 126,44" stroke-linejoin="round" width="14" height="26" fill="rgb(129,201,63)" stroke="rgb(103,160,50)" stroke-width="1" opacity="0.75" />
		</g>
	</g>
	<g>
		<polygon class="NoName" points="155,16 159,16 159,1 189,31 159,61 159,46 155,46" fill="rgb(255,255,255)" fill-opacity="1.0" stroke="rgb(50,50,50)" stroke-width="1" />
	</g>
	<g>
		<polygon class="NoName" points="191,16 207,16 207,1 237,31 207,61 207,46 191,46" fill="rgb(255,255,255)" fill-opacity="1.0" stroke="rgb(50,50,50)" stroke-width="1" />
		<g>
			<title>PF13340</title>
			<rect class="PF13340" x="202" y="18" stroke-linejoin="round" width="7" height="26" fill="rgb(196,73,104)" stroke="rgb(156,58,83)" stroke-width="1" opacity="0.75" />
		</g>
		<g>
			<title>PF01609</title>
			<polygon class="PF01609" points="211,18 221,18 222,19 222,43 221,44 211,44" stroke-linejoin="round" width="11" height="26" fill="rgb(229,102,99)" stroke="rgb(183,81,79)" stroke-width="1" opacity="0.75" />
		</g>
	</g>
	<g>
		<title>hygV</title>
		<polygon class="hygV" points="299,16 268,16 268,1 238,31 268,61 268,46 299,46" fill="rgb(233,250,195)" fill-opacity="1.0" stroke="rgb(93,100,78)" stroke-width="1" />
		<g>
			<title>PF00005</title>
			<polygon class="PF00005" points="245,26 253,18 259,18 259,44 253,44 245,35" stroke-linejoin="round" width="14" height="26" fill="rgb(129,201,63)" stroke="rgb(103,160,50)" stroke-width="1" opacity="0.75" />
		</g>
		<g>
			<title>PF00664</title>
			<rect class="PF00664" x="267" y="18" stroke-linejoin="round" width="27" height="26" fill="rgb(149,226,73)" stroke="rgb(119,180,58)" stroke-width="1" opacity="0.75" />
		</g>
	</g>
</svg>
