<svg version="1.1" baseProfile="full" xmlns="http://www.w3.org/2000/svg" width="2698" height="62">
	<line x1="1" y1="31" x2="2697" y2="31" style="stroke:rgb(50,50,50); stroke-width:3 "/>
	<g>
		<title>slgS4</title>
		<polygon class="slgS4" points="425,16 422,16 422,1 392,31 422,61 422,46 425,46" fill="rgb(253,189,206)" fill-opacity="1.0" stroke="rgb(101,75,82)" stroke-width="1" />
		<g>
			<title>PF01408</title>
			<rect class="PF01408" x="412" y="18" stroke-linejoin="round" width="11" height="26" fill="rgb(76,117,190)" stroke="rgb(60,93,152)" stroke-width="1" opacity="0.75" />
		</g>
	</g>
	<g>
		<title>slgS3</title>
		<polygon class="slgS3" points="471,16 456,16 456,1 426,31 456,61 456,46 471,46" fill="rgb(253,253,206)" fill-opacity="1.0" stroke="rgb(101,101,82)" stroke-width="1" />
		<g>
			<title>PF03559</title>
			<polygon class="PF03559" points="428,31 441,18 446,18 446,44 441,44" stroke-linejoin="round" width="20" height="26" fill="rgb(74,201,66)" stroke="rgb(59,160,52)" stroke-width="1" opacity="0.75" />
		</g>
		<g>
			<title>PF03559</title>
			<rect class="PF03559" x="449" y="18" stroke-linejoin="round" width="20" height="26" fill="rgb(74,201,66)" stroke="rgb(59,160,52)" stroke-width="1" opacity="0.75" />
		</g>
	</g>
	<g>
		<title>slgO2</title>
		<polygon class="slgO2" points="512,16 501,16 501,1 471,31 501,61 501,46 512,46" fill="rgb(254,202,241)" fill-opacity="1.0" stroke="rgb(101,80,96)" stroke-width="1" />
		<g>
			<title>PF00067</title>
			<polygon class="PF00067" points="473,31 486,18 494,18 494,44 486,44" stroke-linejoin="round" width="21" height="26" fill="rgb(85,216,107)" stroke="rgb(68,172,85)" stroke-width="1" opacity="0.75" />
		</g>
	</g>
	<g>
		<title>slgC2</title>
		<polygon class="slgC2" points="540,16 540,16 540,1 512,31 540,61 540,46 540,46" fill="rgb(253,186,186)" fill-opacity="1.0" stroke="rgb(101,74,74)" stroke-width="1" />
		<g>
			<title>PF00722</title>
			<polygon class="PF00722" points="515,30 526,18 530,18 530,44 526,44 515,31" stroke-linejoin="round" width="15" height="26" fill="rgb(213,60,152)" stroke="rgb(170,48,121)" stroke-width="1" opacity="0.75" />
		</g>
	</g>
	<g>
		<title>slgG</title>
		<polygon class="slgG" points="547,16 556,16 556,1 586,31 556,61 556,46 547,46" fill="rgb(204,175,250)" fill-opacity="1.0" stroke="rgb(81,69,100)" stroke-width="1" />
		<g>
			<title>PF06722</title>
			<polygon class="PF06722" points="566,18 570,18 575,23 575,39 570,44 566,44" stroke-linejoin="round" width="9" height="26" fill="rgb(200,129,88)" stroke="rgb(160,103,70)" stroke-width="1" opacity="0.75" />
		</g>
	</g>
	<g>
		<title>slgZ</title>
		<polygon class="slgZ" points="611,16 613,16 613,1 643,31 613,61 613,46 611,46" fill="rgb(208,253,233)" fill-opacity="1.0" stroke="rgb(83,101,93)" stroke-width="1" />
		<g>
			<title>PF00152</title>
			<polygon class="PF00152" points="611,18 627,18 640,31 627,44 611,44" stroke-linejoin="round" width="31" height="26" fill="rgb(90,71,190)" stroke="rgb(72,56,152)" stroke-width="1" opacity="0.75" />
		</g>
	</g>
	<g>
		<title>slgE3</title>
		<polygon class="slgE3" points="643,16 657,16 657,1 687,31 657,61 657,46 643,46" fill="rgb(251,177,178)" fill-opacity="1.0" stroke="rgb(100,70,71)" stroke-width="1" />
		<g>
			<title>PF01645</title>
			<polygon class="PF01645" points="660,18 671,18 681,28 681,34 671,44 660,44" stroke-linejoin="round" width="21" height="26" fill="rgb(97,123,226)" stroke="rgb(77,98,180)" stroke-width="1" opacity="0.75" />
		</g>
	</g>
	<g>
		<title>slgN1</title>
		<polygon class="slgN1" points="687,16 713,16 713,1 743,31 713,61 713,46 687,46" fill="rgb(251,206,231)" fill-opacity="1.0" stroke="rgb(100,82,92)" stroke-width="1" />
		<g>
			<title>PF03621</title>
			<rect class="PF03621" x="687" y="18" stroke-linejoin="round" width="5" height="26" fill="rgb(212,165,97)" stroke="rgb(169,132,77)" stroke-width="1" opacity="0.75" />
		</g>
		<g>
			<title>PF00501</title>
			<polygon class="PF00501" points="694,18 727,18 733,24 733,38 727,44 694,44" stroke-linejoin="round" width="39" height="26" fill="rgb(60,217,223)" stroke="rgb(48,173,178)" stroke-width="1" opacity="0.75" />
		</g>
		<g>
			<title>PF13193</title>
			<polygon class="PF13193" points="735,26 740,31 735,36" stroke-linejoin="round" width="7" height="26" fill="rgb(182,50,118)" stroke="rgb(145,39,94)" stroke-width="1" opacity="0.75" />
		</g>
	</g>
	<g>
		<title>slgS2</title>
		<polygon class="slgS2" points="781,16 779,16 779,1 749,31 779,61 779,46 781,46" fill="rgb(251,210,194)" fill-opacity="1.0" stroke="rgb(100,84,77)" stroke-width="1" />
		<g>
			<title>PF16363</title>
			<polygon class="PF16363" points="751,31 764,18 781,18 781,44 764,44" stroke-linejoin="round" width="30" height="26" fill="rgb(162,221,65)" stroke="rgb(129,176,51)" stroke-width="1" opacity="0.75" />
		</g>
	</g>
	<g>
		<title>slgS1</title>
		<polygon class="slgS1" points="817,16 812,16 812,1 782,31 812,61 812,46 817,46" fill="rgb(253,185,203)" fill-opacity="1.0" stroke="rgb(101,74,81)" stroke-width="1" />
		<g>
			<title>PF00483</title>
			<polygon class="PF00483" points="793,22 797,18 816,18 816,44 797,44 793,39" stroke-linejoin="round" width="23" height="26" fill="rgb(198,101,87)" stroke="rgb(158,80,69)" stroke-width="1" opacity="0.75" />
		</g>
	</g>
	<g>
		<polygon class="NoName" points="1,16 1,16 1,1 15,31 1,61 1,46 1,46" fill="rgb(255,255,255)" fill-opacity="1.0" stroke="rgb(50,50,50)" stroke-width="1" />
		<g>
			<title>PF03009</title>
			<polygon class="PF03009" points="1,18 6,18 12,31 6,44 1,44" stroke-linejoin="round" width="13" height="26" fill="rgb(196,119,93)" stroke="rgb(156,95,74)" stroke-width="1" opacity="0.75" />
		</g>
	</g>
	<g>
		<title>slgE2</title>
		<polygon class="slgE2" points="862,16 847,16 847,1 817,31 847,61 847,46 862,46" fill="rgb(252,181,183)" fill-opacity="1.0" stroke="rgb(100,72,73)" stroke-width="1" />
		<g>
			<title>PF06368</title>
			<polygon class="PF06368" points="820,30 832,18 859,18 859,44 832,44 820,31" stroke-linejoin="round" width="39" height="26" fill="rgb(94,203,101)" stroke="rgb(75,162,80)" stroke-width="1" opacity="0.75" />
		</g>
	</g>
	<g>
		<title>slgE1</title>
		<polygon class="slgE1" points="877,16 877,16 877,1 862,31 877,61 877,46 877,46" fill="rgb(253,220,205)" fill-opacity="1.0" stroke="rgb(101,88,82)" stroke-width="1" />
		<g>
			<title>PF02310</title>
			<polygon class="PF02310" points="864,31 871,18 875,18 875,44 871,44" stroke-linejoin="round" width="12" height="26" fill="rgb(145,190,60)" stroke="rgb(115,152,48)" stroke-width="1" opacity="0.75" />
		</g>
	</g>
	<g>
		<title>slgY</title>
		<polygon class="slgY" points="889,16 929,16 929,1 959,31 929,61 929,46 889,46" fill="rgb(197,196,251)" fill-opacity="1.0" stroke="rgb(78,78,100)" stroke-width="1" />
		<g>
			<title>PF13538</title>
			<polygon class="PF13538" points="953,28 956,31 953,34" stroke-linejoin="round" width="4" height="26" fill="rgb(62,140,196)" stroke="rgb(49,111,156)" stroke-width="1" opacity="0.75" />
		</g>
	</g>
	<g>
		<title>slgR1</title>
		<polygon class="slgR1" points="985,16 985,16 985,1 963,31 985,61 985,46 985,46" fill="rgb(212,253,183)" fill-opacity="1.0" stroke="rgb(84,101,73)" stroke-width="1" />
		<g>
			<title>PF00440</title>
			<rect class="PF00440" x="978" y="18" stroke-linejoin="round" width="4" height="26" fill="rgb(73,212,190)" stroke="rgb(58,169,152)" stroke-width="1" opacity="0.75" />
		</g>
	</g>
	<g>
		<title>slgT</title>
		<polygon class="slgT" points="988,16 1009,16 1009,1 1039,31 1009,61 1009,46 988,46" fill="rgb(208,252,183)" fill-opacity="1.0" stroke="rgb(83,100,73)" stroke-width="1" />
		<g>
			<title>PF07690</title>
			<polygon class="PF07690" points="992,18 1023,18 1031,26 1031,36 1023,44 992,44" stroke-linejoin="round" width="39" height="26" fill="rgb(193,224,74)" stroke="rgb(154,179,59)" stroke-width="1" opacity="0.75" />
		</g>
	</g>
	<g>
		<title>slgO1</title>
		<polygon class="slgO1" points="1044,16 1055,16 1055,1 1085,31 1055,61 1055,46 1044,46" fill="rgb(254,207,224)" fill-opacity="1.0" stroke="rgb(101,82,89)" stroke-width="1" />
		<g>
			<title>PF00067</title>
			<polygon class="PF00067" points="1062,18 1069,18 1082,31 1082,31 1069,44 1062,44" stroke-linejoin="round" width="20" height="26" fill="rgb(85,216,107)" stroke="rgb(68,172,85)" stroke-width="1" opacity="0.75" />
		</g>
	</g>
	<g>
		<title>slgX</title>
		<polygon class="slgX" points="1138,16 1117,16 1117,1 1087,31 1117,61 1117,46 1138,46" fill="rgb(209,254,244)" fill-opacity="1.0" stroke="rgb(83,101,97)" stroke-width="1" />
		<g>
			<title>PF13243</title>
			<polygon class="PF13243" points="1090,30 1102,18 1104,18 1104,44 1102,44 1090,31" stroke-linejoin="round" width="14" height="26" fill="rgb(191,58,201)" stroke="rgb(152,46,160)" stroke-width="1" opacity="0.75" />
		</g>
		<g>
			<title>PF00432</title>
			<rect class="PF00432" x="1130" y="18" stroke-linejoin="round" width="3" height="26" fill="rgb(218,215,79)" stroke="rgb(174,172,63)" stroke-width="1" opacity="0.75" />
		</g>
	</g>
	<g>
		<title>slgC1</title>
		<polygon class="slgC1" points="1168,16 1168,16 1168,1 1138,31 1168,61 1168,46 1168,46" fill="rgb(241,190,252)" fill-opacity="1.0" stroke="rgb(96,76,100)" stroke-width="1" />
		<g>
			<title>PF00722</title>
			<polygon class="PF00722" points="1141,30 1153,18 1160,18 1160,44 1153,44 1141,31" stroke-linejoin="round" width="19" height="26" fill="rgb(213,60,152)" stroke="rgb(170,48,121)" stroke-width="1" opacity="0.75" />
		</g>
	</g>
	<g>
		<title>slgB</title>
		<polygon class="slgB" points="1194,16 1194,16 1194,1 1168,31 1194,61 1194,46 1194,46" fill="rgb(241,251,211)" fill-opacity="1.0" stroke="rgb(96,100,84)" stroke-width="1" />
		<g>
			<title>PF00975</title>
			<polygon class="PF00975" points="1170,31 1181,18 1190,18 1190,44 1181,44" stroke-linejoin="round" width="22" height="26" fill="rgb(207,80,138)" stroke="rgb(165,63,110)" stroke-width="1" opacity="0.75" />
		</g>
	</g>
	<g>
		<title>slgA3</title>
		<polygon class="slgA3" points="1538,16 1224,16 1224,1 1194,31 1224,61 1224,46 1538,46" fill="rgb(214,252,248)" fill-opacity="1.0" stroke="rgb(85,100,99)" stroke-width="1" />
		<g>
			<title>PF00550</title>
			<polygon class="PF00550" points="1196,31 1201,26 1201,35" stroke-linejoin="round" width="6" height="26" fill="rgb(103,191,88)" stroke="rgb(82,152,70)" stroke-width="1" opacity="0.75" />
		</g>
		<g>
			<title>PF08659</title>
			<rect class="PF08659" x="1213" y="18" stroke-linejoin="round" width="17" height="26" fill="rgb(66,209,188)" stroke="rgb(52,167,150)" stroke-width="1" opacity="0.75" />
		</g>
		<g>
			<title>PF00698</title>
			<rect class="PF00698" x="1269" y="18" stroke-linejoin="round" width="31" height="26" fill="rgb(59,176,209)" stroke="rgb(47,140,167)" stroke-width="1" opacity="0.75" />
		</g>
		<g>
			<title>PF16197</title>
			<rect class="PF16197" x="1304" y="18" stroke-linejoin="round" width="12" height="26" fill="rgb(68,179,89)" stroke="rgb(54,143,71)" stroke-width="1" opacity="0.75" />
		</g>
		<g>
			<title>PF02801</title>
			<rect class="PF02801" x="1317" y="18" stroke-linejoin="round" width="11" height="26" fill="rgb(215,78,102)" stroke="rgb(172,62,81)" stroke-width="1" opacity="0.75" />
		</g>
		<g>
			<title>PF00109</title>
			<rect class="PF00109" x="1330" y="18" stroke-linejoin="round" width="25" height="26" fill="rgb(112,116,228)" stroke="rgb(89,92,182)" stroke-width="1" opacity="0.75" />
		</g>
		<g>
			<title>PF00550</title>
			<rect class="PF00550" x="1358" y="18" stroke-linejoin="round" width="6" height="26" fill="rgb(103,191,88)" stroke="rgb(82,152,70)" stroke-width="1" opacity="0.75" />
		</g>
		<g>
			<title>PF08659</title>
			<rect class="PF08659" x="1376" y="18" stroke-linejoin="round" width="17" height="26" fill="rgb(66,209,188)" stroke="rgb(52,167,150)" stroke-width="1" opacity="0.75" />
		</g>
		<g>
			<title>PF14765</title>
			<rect class="PF14765" x="1417" y="18" stroke-linejoin="round" width="29" height="26" fill="rgb(173,56,182)" stroke="rgb(138,44,145)" stroke-width="1" opacity="0.75" />
		</g>
		<g>
			<title>PF00698</title>
			<rect class="PF00698" x="1451" y="18" stroke-linejoin="round" width="32" height="26" fill="rgb(59,176,209)" stroke="rgb(47,140,167)" stroke-width="1" opacity="0.75" />
		</g>
		<g>
			<title>PF16197</title>
			<rect class="PF16197" x="1487" y="18" stroke-linejoin="round" width="13" height="26" fill="rgb(68,179,89)" stroke="rgb(54,143,71)" stroke-width="1" opacity="0.75" />
		</g>
		<g>
			<title>PF02801</title>
			<rect class="PF02801" x="1501" y="18" stroke-linejoin="round" width="10" height="26" fill="rgb(215,78,102)" stroke="rgb(172,62,81)" stroke-width="1" opacity="0.75" />
		</g>
		<g>
			<title>PF00109</title>
			<rect class="PF00109" x="1510" y="18" stroke-linejoin="round" width="24" height="26" fill="rgb(112,116,228)" stroke="rgb(89,92,182)" stroke-width="1" opacity="0.75" />
		</g>
	</g>
	<g>
		<polygon class="NoName" points="27,16 27,16 27,1 39,31 27,61 27,46 27,46" fill="rgb(255,255,255)" fill-opacity="1.0" stroke="rgb(50,50,50)" stroke-width="1" />
		<g>
			<title>PF00903</title>
			<polygon class="PF00903" points="27,18 31,18 36,31 31,44 27,44" stroke-linejoin="round" width="11" height="26" fill="rgb(50,162,189)" stroke="rgb(40,129,151)" stroke-width="1" opacity="0.75" />
		</g>
	</g>
	<g>
		<title>slgA2</title>
		<polygon class="slgA2" points="1892,16 1574,16 1574,1 1544,31 1574,61 1574,46 1892,46" fill="rgb(251,213,233)" fill-opacity="1.0" stroke="rgb(100,85,93)" stroke-width="1" />
		<g>
			<title>PF00550</title>
			<polygon class="PF00550" points="1547,30 1553,24 1553,37 1547,31" stroke-linejoin="round" width="6" height="26" fill="rgb(103,191,88)" stroke="rgb(82,152,70)" stroke-width="1" opacity="0.75" />
		</g>
		<g>
			<title>PF08659</title>
			<rect class="PF08659" x="1565" y="18" stroke-linejoin="round" width="17" height="26" fill="rgb(66,209,188)" stroke="rgb(52,167,150)" stroke-width="1" opacity="0.75" />
		</g>
		<g>
			<title>PF14765</title>
			<rect class="PF14765" x="1608" y="18" stroke-linejoin="round" width="28" height="26" fill="rgb(173,56,182)" stroke="rgb(138,44,145)" stroke-width="1" opacity="0.75" />
		</g>
		<g>
			<title>PF00698</title>
			<rect class="PF00698" x="1641" y="18" stroke-linejoin="round" width="31" height="26" fill="rgb(59,176,209)" stroke="rgb(47,140,167)" stroke-width="1" opacity="0.75" />
		</g>
		<g>
			<title>PF16197</title>
			<rect class="PF16197" x="1676" y="18" stroke-linejoin="round" width="12" height="26" fill="rgb(68,179,89)" stroke="rgb(54,143,71)" stroke-width="1" opacity="0.75" />
		</g>
		<g>
			<title>PF02801</title>
			<rect class="PF02801" x="1688" y="18" stroke-linejoin="round" width="11" height="26" fill="rgb(215,78,102)" stroke="rgb(172,62,81)" stroke-width="1" opacity="0.75" />
		</g>
		<g>
			<title>PF00109</title>
			<rect class="PF00109" x="1701" y="18" stroke-linejoin="round" width="25" height="26" fill="rgb(112,116,228)" stroke="rgb(89,92,182)" stroke-width="1" opacity="0.75" />
		</g>
		<g>
			<title>PF00550</title>
			<rect class="PF00550" x="1729" y="18" stroke-linejoin="round" width="6" height="26" fill="rgb(103,191,88)" stroke="rgb(82,152,70)" stroke-width="1" opacity="0.75" />
		</g>
		<g>
			<title>PF08659</title>
			<rect class="PF08659" x="1747" y="18" stroke-linejoin="round" width="17" height="26" fill="rgb(66,209,188)" stroke="rgb(52,167,150)" stroke-width="1" opacity="0.75" />
		</g>
		<g>
			<title>PF00698</title>
			<rect class="PF00698" x="1801" y="18" stroke-linejoin="round" width="31" height="26" fill="rgb(59,176,209)" stroke="rgb(47,140,167)" stroke-width="1" opacity="0.75" />
		</g>
		<g>
			<title>PF16197</title>
			<rect class="PF16197" x="1836" y="18" stroke-linejoin="round" width="12" height="26" fill="rgb(68,179,89)" stroke="rgb(54,143,71)" stroke-width="1" opacity="0.75" />
		</g>
		<g>
			<title>PF02801</title>
			<rect class="PF02801" x="1849" y="18" stroke-linejoin="round" width="11" height="26" fill="rgb(215,78,102)" stroke="rgb(172,62,81)" stroke-width="1" opacity="0.75" />
		</g>
		<g>
			<title>PF00109</title>
			<rect class="PF00109" x="1861" y="18" stroke-linejoin="round" width="25" height="26" fill="rgb(112,116,228)" stroke="rgb(89,92,182)" stroke-width="1" opacity="0.75" />
		</g>
		<g>
			<title>PF08990</title>
			<rect class="PF08990" x="1887" y="18" stroke-linejoin="round" width="2" height="26" fill="rgb(180,75,55)" stroke="rgb(144,60,44)" stroke-width="1" opacity="0.75" />
		</g>
	</g>
	<g>
		<title>slgA1</title>
		<polygon class="slgA1" points="2513,16 1926,16 1926,1 1896,31 1926,61 1926,46 2513,46" fill="rgb(250,217,189)" fill-opacity="1.0" stroke="rgb(100,86,75)" stroke-width="1" />
		<g>
			<title>PF00550</title>
			<polygon class="PF00550" points="1904,25 1910,19 1910,42 1904,36" stroke-linejoin="round" width="6" height="26" fill="rgb(103,191,88)" stroke="rgb(82,152,70)" stroke-width="1" opacity="0.75" />
		</g>
		<g>
			<title>PF08659</title>
			<rect class="PF08659" x="1924" y="18" stroke-linejoin="round" width="19" height="26" fill="rgb(66,209,188)" stroke="rgb(52,167,150)" stroke-width="1" opacity="0.75" />
		</g>
		<g>
			<title>PF14765</title>
			<rect class="PF14765" x="1971" y="18" stroke-linejoin="round" width="30" height="26" fill="rgb(173,56,182)" stroke="rgb(138,44,145)" stroke-width="1" opacity="0.75" />
		</g>
		<g>
			<title>PF00698</title>
			<rect class="PF00698" x="2006" y="18" stroke-linejoin="round" width="32" height="26" fill="rgb(59,176,209)" stroke="rgb(47,140,167)" stroke-width="1" opacity="0.75" />
		</g>
		<g>
			<title>PF16197</title>
			<rect class="PF16197" x="2042" y="18" stroke-linejoin="round" width="12" height="26" fill="rgb(68,179,89)" stroke="rgb(54,143,71)" stroke-width="1" opacity="0.75" />
		</g>
		<g>
			<title>PF02801</title>
			<rect class="PF02801" x="2055" y="18" stroke-linejoin="round" width="11" height="26" fill="rgb(215,78,102)" stroke="rgb(172,62,81)" stroke-width="1" opacity="0.75" />
		</g>
		<g>
			<title>PF00109</title>
			<rect class="PF00109" x="2068" y="18" stroke-linejoin="round" width="25" height="26" fill="rgb(112,116,228)" stroke="rgb(89,92,182)" stroke-width="1" opacity="0.75" />
		</g>
		<g>
			<title>PF00550</title>
			<rect class="PF00550" x="2096" y="18" stroke-linejoin="round" width="6" height="26" fill="rgb(103,191,88)" stroke="rgb(82,152,70)" stroke-width="1" opacity="0.75" />
		</g>
		<g>
			<title>PF08659</title>
			<rect class="PF08659" x="2114" y="18" stroke-linejoin="round" width="17" height="26" fill="rgb(66,209,188)" stroke="rgb(52,167,150)" stroke-width="1" opacity="0.75" />
		</g>
		<g>
			<title>PF00698</title>
			<rect class="PF00698" x="2161" y="18" stroke-linejoin="round" width="31" height="26" fill="rgb(59,176,209)" stroke="rgb(47,140,167)" stroke-width="1" opacity="0.75" />
		</g>
		<g>
			<title>PF16197</title>
			<rect class="PF16197" x="2196" y="18" stroke-linejoin="round" width="17" height="26" fill="rgb(68,179,89)" stroke="rgb(54,143,71)" stroke-width="1" opacity="0.75" />
		</g>
		<g>
			<title>PF02801</title>
			<rect class="PF02801" x="2213" y="18" stroke-linejoin="round" width="11" height="26" fill="rgb(215,78,102)" stroke="rgb(172,62,81)" stroke-width="1" opacity="0.75" />
		</g>
		<g>
			<title>PF00109</title>
			<rect class="PF00109" x="2225" y="18" stroke-linejoin="round" width="25" height="26" fill="rgb(112,116,228)" stroke="rgb(89,92,182)" stroke-width="1" opacity="0.75" />
		</g>
		<g>
			<title>PF00550</title>
			<rect class="PF00550" x="2253" y="18" stroke-linejoin="round" width="6" height="26" fill="rgb(103,191,88)" stroke="rgb(82,152,70)" stroke-width="1" opacity="0.75" />
		</g>
		<g>
			<title>PF08659</title>
			<rect class="PF08659" x="2271" y="18" stroke-linejoin="round" width="17" height="26" fill="rgb(66,209,188)" stroke="rgb(52,167,150)" stroke-width="1" opacity="0.75" />
		</g>
		<g>
			<title>PF00698</title>
			<rect class="PF00698" x="2320" y="18" stroke-linejoin="round" width="31" height="26" fill="rgb(59,176,209)" stroke="rgb(47,140,167)" stroke-width="1" opacity="0.75" />
		</g>
		<g>
			<title>PF16197</title>
			<rect class="PF16197" x="2355" y="18" stroke-linejoin="round" width="12" height="26" fill="rgb(68,179,89)" stroke="rgb(54,143,71)" stroke-width="1" opacity="0.75" />
		</g>
		<g>
			<title>PF02801</title>
			<rect class="PF02801" x="2368" y="18" stroke-linejoin="round" width="11" height="26" fill="rgb(215,78,102)" stroke="rgb(172,62,81)" stroke-width="1" opacity="0.75" />
		</g>
		<g>
			<title>PF00109</title>
			<rect class="PF00109" x="2381" y="18" stroke-linejoin="round" width="25" height="26" fill="rgb(112,116,228)" stroke="rgb(89,92,182)" stroke-width="1" opacity="0.75" />
		</g>
		<g>
			<title>PF00550</title>
			<rect class="PF00550" x="2410" y="18" stroke-linejoin="round" width="6" height="26" fill="rgb(103,191,88)" stroke="rgb(82,152,70)" stroke-width="1" opacity="0.75" />
		</g>
		<g>
			<title>PF00698</title>
			<rect class="PF00698" x="2426" y="18" stroke-linejoin="round" width="31" height="26" fill="rgb(59,176,209)" stroke="rgb(47,140,167)" stroke-width="1" opacity="0.75" />
		</g>
		<g>
			<title>PF16197</title>
			<rect class="PF16197" x="2461" y="18" stroke-linejoin="round" width="12" height="26" fill="rgb(68,179,89)" stroke="rgb(54,143,71)" stroke-width="1" opacity="0.75" />
		</g>
		<g>
			<title>PF02801</title>
			<rect class="PF02801" x="2473" y="18" stroke-linejoin="round" width="11" height="26" fill="rgb(215,78,102)" stroke="rgb(172,62,81)" stroke-width="1" opacity="0.75" />
		</g>
		<g>
			<title>PF00109</title>
			<rect class="PF00109" x="2486" y="18" stroke-linejoin="round" width="24" height="26" fill="rgb(112,116,228)" stroke="rgb(89,92,182)" stroke-width="1" opacity="0.75" />
		</g>
	</g>
	<g>
		<polygon class="NoName" points="2530,16 2530,16 2530,1 2554,31 2530,61 2530,46 2530,46" fill="rgb(255,255,255)" fill-opacity="1.0" stroke="rgb(50,50,50)" stroke-width="1" />
		<g>
			<title>PF17197</title>
			<polygon class="PF17197" points="2533,18 2541,18 2551,31 2541,44 2533,44" stroke-linejoin="round" width="21" height="26" fill="rgb(107,181,48)" stroke="rgb(85,144,38)" stroke-width="1" opacity="0.75" />
		</g>
	</g>
	<g>
		<polygon class="NoName" points="2562,16 2563,16 2563,1 2593,31 2563,61 2563,46 2562,46" fill="rgb(255,255,255)" fill-opacity="1.0" stroke="rgb(50,50,50)" stroke-width="1" />
		<g>
			<title>PF01435</title>
			<polygon class="PF01435" points="2573,18 2577,18 2586,27 2586,35 2577,44 2573,44" stroke-linejoin="round" width="13" height="26" fill="rgb(70,152,228)" stroke="rgb(56,121,182)" stroke-width="1" opacity="0.75" />
		</g>
	</g>
	<g>
		<polygon class="NoName" points="2594,16 2594,16 2594,1 2616,31 2594,61 2594,46 2594,46" fill="rgb(255,255,255)" fill-opacity="1.0" stroke="rgb(50,50,50)" stroke-width="1" />
		<g>
			<title>PF01569</title>
			<polygon class="PF01569" points="2602,18 2603,18 2613,31 2603,44 2602,44" stroke-linejoin="round" width="12" height="26" fill="rgb(133,203,94)" stroke="rgb(106,162,75)" stroke-width="1" opacity="0.75" />
		</g>
	</g>
	<g>
		<polygon class="NoName" points="2616,16 2616,16 2616,1 2640,31 2616,61 2616,46 2616,46" fill="rgb(255,255,255)" fill-opacity="1.0" stroke="rgb(50,50,50)" stroke-width="1" />
		<g>
			<title>PF00702</title>
			<polygon class="PF00702" points="2617,18 2627,18 2637,31 2637,31 2627,44 2617,44" stroke-linejoin="round" width="20" height="26" fill="rgb(68,220,102)" stroke="rgb(54,176,81)" stroke-width="1" opacity="0.75" />
		</g>
	</g>
	<g>
		<polygon class="NoName" points="2655,16 2655,16 2655,1 2642,31 2655,61 2655,46 2655,46" fill="rgb(255,255,255)" fill-opacity="1.0" stroke="rgb(50,50,50)" stroke-width="1" />
		<g>
			<title>PF00903</title>
			<polygon class="PF00903" points="2644,31 2650,18 2655,18 2655,44 2650,44" stroke-linejoin="round" width="12" height="26" fill="rgb(50,162,189)" stroke="rgb(40,129,151)" stroke-width="1" opacity="0.75" />
		</g>
	</g>
	<g>
		<polygon class="NoName" points="2662,16 2662,16 2662,1 2682,31 2662,61 2662,46 2662,46" fill="rgb(255,255,255)" fill-opacity="1.0" stroke="rgb(50,50,50)" stroke-width="1" />
		<g>
			<title>PF00440</title>
			<rect class="PF00440" x="2663" y="18" stroke-linejoin="round" width="4" height="26" fill="rgb(73,212,190)" stroke="rgb(58,169,152)" stroke-width="1" opacity="0.75" />
		</g>
		<g>
			<title>PF13305</title>
			<polygon class="PF13305" points="2670,18 2670,18 2677,28 2677,34 2670,44 2670,44" stroke-linejoin="round" width="7" height="26" fill="rgb(92,181,192)" stroke="rgb(73,144,153)" stroke-width="1" opacity="0.75" />
		</g>
	</g>
	<g>
		<polygon class="NoName" points="2683,16 2683,16 2683,1 2697,31 2683,61 2683,46 2683,46" fill="rgb(255,255,255)" fill-opacity="1.0" stroke="rgb(50,50,50)" stroke-width="1" />
	</g>
	<g>
		<title>slgR2</title>
		<polygon class="slgR2" points="48,16 112,16 112,1 142,31 112,61 112,46 48,46" fill="rgb(253,213,229)" fill-opacity="1.0" stroke="rgb(101,85,91)" stroke-width="1" />
		<g>
			<title>PF13191</title>
			<rect class="PF13191" x="48" y="18" stroke-linejoin="round" width="16" height="26" fill="rgb(186,102,77)" stroke="rgb(148,81,61)" stroke-width="1" opacity="0.75" />
		</g>
		<g>
			<title>PF00196</title>
			<polygon class="PF00196" points="135,27 139,31 135,35" stroke-linejoin="round" width="5" height="26" fill="rgb(219,94,82)" stroke="rgb(175,75,65)" stroke-width="1" opacity="0.75" />
		</g>
	</g>
	<g>
		<title>slgN2</title>
		<polygon class="slgN2" points="214,16 174,16 174,1 144,31 174,61 174,46 214,46" fill="rgb(193,250,198)" fill-opacity="1.0" stroke="rgb(77,100,79)" stroke-width="1" />
		<g>
			<title>PF00550</title>
			<polygon class="PF00550" points="146,31 150,27 150,34" stroke-linejoin="round" width="6" height="26" fill="rgb(103,191,88)" stroke="rgb(82,152,70)" stroke-width="1" opacity="0.75" />
		</g>
		<g>
			<title>PF00668</title>
			<rect class="PF00668" x="170" y="18" stroke-linejoin="round" width="43" height="26" fill="rgb(224,184,98)" stroke="rgb(179,147,78)" stroke-width="1" opacity="0.75" />
		</g>
	</g>
	<g>
		<title>slgL</title>
		<polygon class="slgL" points="245,16 245,16 245,1 217,31 245,61 245,46 245,46" fill="rgb(250,198,232)" fill-opacity="1.0" stroke="rgb(100,79,92)" stroke-width="1" />
	</g>
	<g>
		<title>slgM</title>
		<polygon class="slgM" points="289,16 277,16 277,1 247,31 277,61 277,46 289,46" fill="rgb(226,254,206)" fill-opacity="1.0" stroke="rgb(90,101,82)" stroke-width="1" />
		<g>
			<title>PF13847</title>
			<rect class="PF13847" x="270" y="18" stroke-linejoin="round" width="12" height="26" fill="rgb(214,74,181)" stroke="rgb(171,59,144)" stroke-width="1" opacity="0.75" />
		</g>
	</g>
	<g>
		<title>slgS7</title>
		<polygon class="slgS7" points="314,16 314,16 314,1 293,31 314,61 314,46 314,46" fill="rgb(252,214,239)" fill-opacity="1.0" stroke="rgb(100,85,95)" stroke-width="1" />
		<g>
			<title>PF00908</title>
			<polygon class="PF00908" points="297,28 304,18 314,18 314,44 304,44 297,33" stroke-linejoin="round" width="17" height="26" fill="rgb(184,89,121)" stroke="rgb(147,71,96)" stroke-width="1" opacity="0.75" />
		</g>
	</g>
	<g>
		<title>slgS6</title>
		<polygon class="slgS6" points="357,16 344,16 344,1 314,31 344,61 344,46 357,46" fill="rgb(253,182,239)" fill-opacity="1.0" stroke="rgb(101,72,95)" stroke-width="1" />
		<g>
			<title>PF01041</title>
			<polygon class="PF01041" points="316,31 329,18 352,18 352,44 329,44" stroke-linejoin="round" width="38" height="26" fill="rgb(59,139,191)" stroke="rgb(47,111,152)" stroke-width="1" opacity="0.75" />
		</g>
	</g>
	<g>
		<title>slgS5</title>
		<polygon class="slgS5" points="392,16 388,16 388,1 358,31 388,61 388,46 392,46" fill="rgb(245,254,208)" fill-opacity="1.0" stroke="rgb(97,101,83)" stroke-width="1" />
		<g>
			<title>PF01370</title>
			<polygon class="PF01370" points="366,25 373,18 389,18 389,44 373,44 366,36" stroke-linejoin="round" width="23" height="26" fill="rgb(98,102,214)" stroke="rgb(78,81,171)" stroke-width="1" opacity="0.75" />
		</g>
	</g>
</svg>
