<svg version="1.1" baseProfile="full" xmlns="http://www.w3.org/2000/svg" width="217" height="62">
	<line x1="1" y1="31" x2="216" y2="31" style="stroke:rgb(50,50,50); stroke-width:3 "/>
	<g>
		<title>as-48</title>
		<polygon class="as-48" points="3,16 3,16 3,1 13,31 3,61 3,46 3,46" fill="rgb(250,194,229)" fill-opacity="1.0" stroke="rgb(100,77,91)" stroke-width="1" />
		<g>
			<title>PF09221</title>
			<polygon class="PF09221" points="6,18 6,18 10,31 6,44 6,44" stroke-linejoin="round" width="6" height="26" fill="rgb(200,220,70)" stroke="rgb(160,176,56)" stroke-width="1" opacity="0.75" />
		</g>
	</g>
	<g>
		<title>as-48B</title>
		<polygon class="as-48B" points="16,16 42,16 42,1 72,31 42,61 42,46 16,46" fill="rgb(220,208,251)" fill-opacity="1.0" stroke="rgb(88,83,100)" stroke-width="1" />
	</g>
	<g>
		<title>as-48C</title>
		<polygon class="as-48C" points="72,16 72,16 72,1 89,31 72,61 72,46 72,46" fill="rgb(250,251,207)" fill-opacity="1.0" stroke="rgb(100,100,82)" stroke-width="1" />
		<g>
			<title>PF01944</title>
			<polygon class="PF01944" points="73,18 79,18 86,31 79,44 73,44" stroke-linejoin="round" width="15" height="26" fill="rgb(96,132,207)" stroke="rgb(76,105,165)" stroke-width="1" opacity="0.75" />
		</g>
	</g>
	<g>
		<title>as-48C1</title>
		<polygon class="as-48C1" points="102,16 102,16 102,1 118,31 102,61 102,46 102,46" fill="rgb(232,176,251)" fill-opacity="1.0" stroke="rgb(92,70,100)" stroke-width="1" />
	</g>
	<g>
		<title>as-48D</title>
		<polygon class="as-48D" points="118,16 118,16 118,1 140,31 118,61 118,46 118,46" fill="rgb(203,192,253)" fill-opacity="1.0" stroke="rgb(81,76,101)" stroke-width="1" />
		<g>
			<title>PF00005</title>
			<polygon class="PF00005" points="120,18 127,18 134,27 134,35 127,44 120,44" stroke-linejoin="round" width="14" height="26" fill="rgb(129,201,63)" stroke="rgb(103,160,50)" stroke-width="1" opacity="0.75" />
		</g>
	</g>
	<g>
		<title>as-48D1</title>
		<polygon class="as-48D1" points="140,16 140,16 140,1 145,31 140,61 140,46 140,46" fill="rgb(245,254,204)" fill-opacity="1.0" stroke="rgb(97,101,81)" stroke-width="1" />
	</g>
	<g>
		<polygon class="NoName" points="152,16 152,16 152,1 169,31 152,61 152,46 152,46" fill="rgb(255,255,255)" fill-opacity="1.0" stroke="rgb(50,50,50)" stroke-width="1" />
	</g>
	<g>
		<polygon class="NoName" points="169,16 179,16 179,1 209,31 179,61 179,46 169,46" fill="rgb(255,255,255)" fill-opacity="1.0" stroke="rgb(50,50,50)" stroke-width="1" />
	</g>
</svg>
