<svg version="1.1" baseProfile="full" xmlns="http://www.w3.org/2000/svg" width="456" height="62">
	<line x1="1" y1="31" x2="455" y2="31" style="stroke:rgb(50,50,50); stroke-width:3 "/>
	<g>
		<title>irp1</title>
		<polygon class="irp1" points="21,16 307,16 307,1 337,31 307,61 307,46 21,46" fill="rgb(193,180,251)" fill-opacity="1.0" stroke="rgb(77,72,100)" stroke-width="1" />
		<g>
			<title>PF00109</title>
			<rect class="PF00109" x="23" y="18" stroke-linejoin="round" width="25" height="26" fill="rgb(112,116,228)" stroke="rgb(89,92,182)" stroke-width="1" opacity="0.75" />
		</g>
		<g>
			<title>PF02801</title>
			<rect class="PF02801" x="49" y="18" stroke-linejoin="round" width="11" height="26" fill="rgb(215,78,102)" stroke="rgb(172,62,81)" stroke-width="1" opacity="0.75" />
		</g>
		<g>
			<title>PF16197</title>
			<rect class="PF16197" x="61" y="18" stroke-linejoin="round" width="11" height="26" fill="rgb(68,179,89)" stroke="rgb(54,143,71)" stroke-width="1" opacity="0.75" />
		</g>
		<g>
			<title>PF00698</title>
			<rect class="PF00698" x="76" y="18" stroke-linejoin="round" width="31" height="26" fill="rgb(59,176,209)" stroke="rgb(47,140,167)" stroke-width="1" opacity="0.75" />
		</g>
		<g>
			<title>PF08242</title>
			<rect class="PF08242" x="130" y="18" stroke-linejoin="round" width="10" height="26" fill="rgb(187,59,115)" stroke="rgb(149,47,92)" stroke-width="1" opacity="0.75" />
		</g>
		<g>
			<title>PF08659</title>
			<rect class="PF08659" x="176" y="18" stroke-linejoin="round" width="17" height="26" fill="rgb(66,209,188)" stroke="rgb(52,167,150)" stroke-width="1" opacity="0.75" />
		</g>
		<g>
			<title>PF00550</title>
			<rect class="PF00550" x="203" y="18" stroke-linejoin="round" width="6" height="26" fill="rgb(103,191,88)" stroke="rgb(82,152,70)" stroke-width="1" opacity="0.75" />
		</g>
		<g>
			<title>PF00668</title>
			<rect class="PF00668" x="212" y="18" stroke-linejoin="round" width="43" height="26" fill="rgb(224,184,98)" stroke="rgb(179,147,78)" stroke-width="1" opacity="0.75" />
		</g>
		<g>
			<title>PF08242</title>
			<rect class="PF08242" x="280" y="18" stroke-linejoin="round" width="10" height="26" fill="rgb(187,59,115)" stroke="rgb(149,47,92)" stroke-width="1" opacity="0.75" />
		</g>
		<g>
			<title>PF00550</title>
			<rect class="PF00550" x="303" y="18" stroke-linejoin="round" width="6" height="26" fill="rgb(103,191,88)" stroke="rgb(82,152,70)" stroke-width="1" opacity="0.75" />
		</g>
		<g>
			<title>PF00975</title>
			<rect class="PF00975" x="312" y="18" stroke-linejoin="round" width="9" height="26" fill="rgb(207,80,138)" stroke="rgb(165,63,110)" stroke-width="1" opacity="0.75" />
		</g>
	</g>
	<g>
		<title>irp3</title>
		<polygon class="irp3" points="337,16 343,16 343,1 373,31 343,61 343,46 337,46" fill="rgb(253,200,231)" fill-opacity="1.0" stroke="rgb(101,80,92)" stroke-width="1" />
		<g>
			<title>PF01408</title>
			<rect class="PF01408" x="337" y="18" stroke-linejoin="round" width="11" height="26" fill="rgb(76,117,190)" stroke="rgb(60,93,152)" stroke-width="1" opacity="0.75" />
		</g>
	</g>
	<g>
		<title>irp4</title>
		<polygon class="irp4" points="374,16 374,16 374,1 400,31 374,61 374,46 374,46" fill="rgb(180,252,232)" fill-opacity="1.0" stroke="rgb(72,100,92)" stroke-width="1" />
		<g>
			<title>PF00975</title>
			<polygon class="PF00975" points="375,18 386,18 397,31 386,44 375,44" stroke-linejoin="round" width="23" height="26" fill="rgb(207,80,138)" stroke="rgb(165,63,110)" stroke-width="1" opacity="0.75" />
		</g>
	</g>
	<g>
		<title>irp5</title>
		<polygon class="irp5" points="400,16 422,16 422,1 452,31 422,61 422,46 400,46" fill="rgb(251,195,209)" fill-opacity="1.0" stroke="rgb(100,78,83)" stroke-width="1" />
		<g>
			<title>PF00501</title>
			<polygon class="PF00501" points="402,18 436,18 442,24 442,38 436,44 402,44" stroke-linejoin="round" width="40" height="26" fill="rgb(60,217,223)" stroke="rgb(48,173,178)" stroke-width="1" opacity="0.75" />
		</g>
		<g>
			<title>PF13193</title>
			<polygon class="PF13193" points="443,25 449,31 443,37" stroke-linejoin="round" width="7" height="26" fill="rgb(182,50,118)" stroke="rgb(145,39,94)" stroke-width="1" opacity="0.75" />
		</g>
	</g>
</svg>
