<svg version="1.1" baseProfile="full" xmlns="http://www.w3.org/2000/svg" width="1417" height="62">
	<line x1="1" y1="31" x2="1416" y2="31" style="stroke:rgb(50,50,50); stroke-width:3 "/>
	<g>
		<polygon class="NoName" points="827,16 844,16 844,1 874,31 844,61 844,46 827,46" fill="rgb(255,255,255)" fill-opacity="1.0" stroke="rgb(50,50,50)" stroke-width="1" />
		<g>
			<title>PF01494</title>
			<polygon class="PF01494" points="828,18 858,18 863,23 863,39 858,44 828,44" stroke-linejoin="round" width="35" height="26" fill="rgb(182,175,59)" stroke="rgb(145,140,47)" stroke-width="1" opacity="0.75" />
		</g>
	</g>
	<g>
		<polygon class="NoName" points="917,16 910,16 910,1 880,31 910,61 910,46 917,46" fill="rgb(255,255,255)" fill-opacity="1.0" stroke="rgb(50,50,50)" stroke-width="1" />
		<g>
			<title>PF13810</title>
			<polygon class="PF13810" points="882,31 895,18 913,18 913,44 895,44" stroke-linejoin="round" width="32" height="26" fill="rgb(169,59,211)" stroke="rgb(135,47,168)" stroke-width="1" opacity="0.75" />
		</g>
	</g>
	<g>
		<polygon class="NoName" points="1021,16 990,16 990,1 960,31 990,61 990,46 1021,46" fill="rgb(255,255,255)" fill-opacity="1.0" stroke="rgb(50,50,50)" stroke-width="1" />
		<g>
			<title>PF07690</title>
			<rect class="PF07690" x="976" y="18" stroke-linejoin="round" width="40" height="26" fill="rgb(193,224,74)" stroke="rgb(154,179,59)" stroke-width="1" opacity="0.75" />
		</g>
	</g>
	<g>
		<polygon class="NoName" points="1060,16 1078,16 1078,1 1108,31 1078,61 1078,46 1060,46" fill="rgb(255,255,255)" fill-opacity="1.0" stroke="rgb(50,50,50)" stroke-width="1" />
		<g>
			<title>PF00172</title>
			<rect class="PF00172" x="1063" y="18" stroke-linejoin="round" width="3" height="26" fill="rgb(121,178,76)" stroke="rgb(96,142,60)" stroke-width="1" opacity="0.75" />
		</g>
		<g>
			<title>PF08493</title>
			<polygon class="PF08493" points="1066,18 1092,18 1097,23 1097,39 1092,44 1066,44" stroke-linejoin="round" width="31" height="26" fill="rgb(86,63,214)" stroke="rgb(68,50,171)" stroke-width="1" opacity="0.75" />
		</g>
	</g>
	<g>
		<polygon class="NoName" points="1128,16 1140,16 1140,1 1170,31 1140,61 1140,46 1128,46" fill="rgb(255,255,255)" fill-opacity="1.0" stroke="rgb(50,50,50)" stroke-width="1" />
		<g>
			<title>PF14027</title>
			<polygon class="PF14027" points="1133,18 1154,18 1161,25 1161,37 1154,44 1133,44" stroke-linejoin="round" width="28" height="26" fill="rgb(77,150,178)" stroke="rgb(61,119,142)" stroke-width="1" opacity="0.75" />
		</g>
	</g>
	<g>
		<polygon class="NoName" points="1211,16 1204,16 1204,1 1174,31 1204,61 1204,46 1211,46" fill="rgb(255,255,255)" fill-opacity="1.0" stroke="rgb(50,50,50)" stroke-width="1" />
		<g>
			<title>PF00107</title>
			<polygon class="PF00107" points="1181,26 1189,18 1193,18 1193,44 1189,44 1181,35" stroke-linejoin="round" width="12" height="26" fill="rgb(81,108,215)" stroke="rgb(64,86,172)" stroke-width="1" opacity="0.75" />
		</g>
		<g>
			<title>PF08240</title>
			<rect class="PF08240" x="1197" y="18" stroke-linejoin="round" width="10" height="26" fill="rgb(211,65,138)" stroke="rgb(168,51,110)" stroke-width="1" opacity="0.75" />
		</g>
	</g>
	<g>
		<polygon class="NoName" points="1251,16 1248,16 1248,1 1218,31 1248,61 1248,46 1251,46" fill="rgb(255,255,255)" fill-opacity="1.0" stroke="rgb(50,50,50)" stroke-width="1" />
		<g>
			<title>PF00106</title>
			<rect class="PF00106" x="1234" y="18" stroke-linejoin="round" width="14" height="26" fill="rgb(182,219,73)" stroke="rgb(145,175,58)" stroke-width="1" opacity="0.75" />
		</g>
	</g>
	<g>
		<polygon class="NoName" points="1259,16 1263,16 1263,1 1293,31 1263,61 1263,46 1259,46" fill="rgb(255,255,255)" fill-opacity="1.0" stroke="rgb(50,50,50)" stroke-width="1" />
		<g>
			<title>PF00753</title>
			<polygon class="PF00753" points="1264,18 1277,18 1280,21 1280,41 1277,44 1264,44" stroke-linejoin="round" width="16" height="26" fill="rgb(206,198,96)" stroke="rgb(164,158,76)" stroke-width="1" opacity="0.75" />
		</g>
	</g>
	<g>
		<polygon class="NoName" points="1330,16 1330,16 1330,1 1348,31 1330,61 1330,46 1330,46" fill="rgb(255,255,255)" fill-opacity="1.0" stroke="rgb(50,50,50)" stroke-width="1" />
		<g>
			<title>PF07110</title>
			<polygon class="PF07110" points="1333,18 1337,18 1342,25 1342,37 1337,44 1333,44" stroke-linejoin="round" width="9" height="26" fill="rgb(64,130,182)" stroke="rgb(51,104,145)" stroke-width="1" opacity="0.75" />
		</g>
	</g>
	<g>
		<polygon class="NoName" points="1401,16 1381,16 1381,1 1351,31 1381,61 1381,46 1401,46" fill="rgb(255,255,255)" fill-opacity="1.0" stroke="rgb(50,50,50)" stroke-width="1" />
	</g>
	<g>
		<polygon class="NoName" points="25,16 25,16 25,1 1,31 25,61 25,46 25,46" fill="rgb(255,255,255)" fill-opacity="1.0" stroke="rgb(50,50,50)" stroke-width="1" />
		<g>
			<title>PF05704</title>
			<polygon class="PF05704" points="5,29 13,18 23,18 23,44 13,44 5,32" stroke-linejoin="round" width="18" height="26" fill="rgb(199,186,82)" stroke="rgb(159,148,65)" stroke-width="1" opacity="0.75" />
		</g>
	</g>
	<g>
		<polygon class="NoName" points="83,16 74,16 74,1 44,31 74,61 74,46 83,46" fill="rgb(255,255,255)" fill-opacity="1.0" stroke="rgb(50,50,50)" stroke-width="1" />
		<g>
			<title>PF05368</title>
			<polygon class="PF05368" points="57,20 59,18 82,18 82,44 59,44 57,41" stroke-linejoin="round" width="25" height="26" fill="rgb(97,49,192)" stroke="rgb(77,39,153)" stroke-width="1" opacity="0.75" />
		</g>
	</g>
	<g>
		<polygon class="NoName" points="117,16 131,16 131,1 161,31 131,61 131,46 117,46" fill="rgb(255,255,255)" fill-opacity="1.0" stroke="rgb(50,50,50)" stroke-width="1" />
		<g>
			<title>PF01494</title>
			<polygon class="PF01494" points="142,18 145,18 146,19 146,43 145,44 142,44" stroke-linejoin="round" width="4" height="26" fill="rgb(182,175,59)" stroke="rgb(145,140,47)" stroke-width="1" opacity="0.75" />
		</g>
	</g>
	<g>
		<polygon class="NoName" points="194,16 209,16 209,1 239,31 209,61 209,46 194,46" fill="rgb(255,255,255)" fill-opacity="1.0" stroke="rgb(50,50,50)" stroke-width="1" />
		<g>
			<title>PF11991</title>
			<polygon class="PF11991" points="196,18 223,18 232,27 232,35 223,44 196,44" stroke-linejoin="round" width="36" height="26" fill="rgb(197,197,93)" stroke="rgb(157,157,74)" stroke-width="1" opacity="0.75" />
		</g>
	</g>
	<g>
		<polygon class="NoName" points="268,16 305,16 305,1 335,31 305,61 305,46 268,46" fill="rgb(255,255,255)" fill-opacity="1.0" stroke="rgb(50,50,50)" stroke-width="1" />
		<g>
			<title>PF01565</title>
			<rect class="PF01565" x="280" y="18" stroke-linejoin="round" width="15" height="26" fill="rgb(226,88,136)" stroke="rgb(180,70,108)" stroke-width="1" opacity="0.75" />
		</g>
		<g>
			<title>PF08031</title>
			<polygon class="PF08031" points="321,20 325,24 325,38 321,42" stroke-linejoin="round" width="4" height="26" fill="rgb(210,73,83)" stroke="rgb(168,58,66)" stroke-width="1" opacity="0.75" />
		</g>
	</g>
	<g>
		<polygon class="NoName" points="360,16 554,16 554,1 584,31 554,61 554,46 360,46" fill="rgb(255,255,255)" fill-opacity="1.0" stroke="rgb(50,50,50)" stroke-width="1" />
		<g>
			<title>PF00501</title>
			<rect class="PF00501" x="368" y="18" stroke-linejoin="round" width="40" height="26" fill="rgb(60,217,223)" stroke="rgb(48,173,178)" stroke-width="1" opacity="0.75" />
		</g>
		<g>
			<title>PF00550</title>
			<rect class="PF00550" x="422" y="18" stroke-linejoin="round" width="6" height="26" fill="rgb(103,191,88)" stroke="rgb(82,152,70)" stroke-width="1" opacity="0.75" />
		</g>
		<g>
			<title>PF00668</title>
			<rect class="PF00668" x="433" y="18" stroke-linejoin="round" width="41" height="26" fill="rgb(224,184,98)" stroke="rgb(179,147,78)" stroke-width="1" opacity="0.75" />
		</g>
		<g>
			<title>PF00501</title>
			<rect class="PF00501" x="476" y="18" stroke-linejoin="round" width="40" height="26" fill="rgb(60,217,223)" stroke="rgb(48,173,178)" stroke-width="1" opacity="0.75" />
		</g>
		<g>
			<title>PF00550</title>
			<rect class="PF00550" x="530" y="18" stroke-linejoin="round" width="6" height="26" fill="rgb(103,191,88)" stroke="rgb(82,152,70)" stroke-width="1" opacity="0.75" />
		</g>
		<g>
			<title>PF00668</title>
			<polygon class="PF00668" points="542,18 568,18 581,31 568,44 542,44" stroke-linejoin="round" width="41" height="26" fill="rgb(224,184,98)" stroke="rgb(179,147,78)" stroke-width="1" opacity="0.75" />
		</g>
	</g>
	<g>
		<polygon class="NoName" points="645,16 628,16 628,1 598,31 628,61 628,46 645,46" fill="rgb(255,255,255)" fill-opacity="1.0" stroke="rgb(50,50,50)" stroke-width="1" />
		<g>
			<title>PF11991</title>
			<polygon class="PF11991" points="605,26 613,18 640,18 640,44 613,44 605,35" stroke-linejoin="round" width="35" height="26" fill="rgb(197,197,93)" stroke="rgb(157,157,74)" stroke-width="1" opacity="0.75" />
		</g>
	</g>
	<g>
		<polygon class="NoName" points="727,16 694,16 694,1 664,31 694,61 694,46 727,46" fill="rgb(255,255,255)" fill-opacity="1.0" stroke="rgb(50,50,50)" stroke-width="1" />
		<g>
			<title>PF00067</title>
			<polygon class="PF00067" points="673,24 679,18 717,18 717,44 679,44 673,37" stroke-linejoin="round" width="44" height="26" fill="rgb(85,216,107)" stroke="rgb(68,172,85)" stroke-width="1" opacity="0.75" />
		</g>
	</g>
	<g>
		<polygon class="NoName" points="748,16 779,16 779,1 809,31 779,61 779,46 748,46" fill="rgb(255,255,255)" fill-opacity="1.0" stroke="rgb(50,50,50)" stroke-width="1" />
		<g>
			<title>PF00067</title>
			<polygon class="PF00067" points="761,18 793,18 796,21 796,41 793,44 761,44" stroke-linejoin="round" width="35" height="26" fill="rgb(85,216,107)" stroke="rgb(68,172,85)" stroke-width="1" opacity="0.75" />
		</g>
	</g>
</svg>
