<svg version="1.1" baseProfile="full" xmlns="http://www.w3.org/2000/svg" width="1507" height="62">
	<line x1="1" y1="31" x2="1506" y2="31" style="stroke:rgb(50,50,50); stroke-width:3 "/>
	<g>
		<title>valB</title>
		<polygon class="valB" points="496,16 503,16 503,1 533,31 503,61 503,46 496,46" fill="rgb(251,221,181)" fill-opacity="1.0" stroke="rgb(100,88,72)" stroke-width="1" />
		<g>
			<title>PF00483</title>
			<polygon class="PF00483" points="496,18 517,18 522,23 522,39 517,44 496,44" stroke-linejoin="round" width="26" height="26" fill="rgb(198,101,87)" stroke="rgb(158,80,69)" stroke-width="1" opacity="0.75" />
		</g>
	</g>
	<g>
		<title>valC</title>
		<polygon class="valC" points="534,16 539,16 539,1 569,31 539,61 539,46 534,46" fill="rgb(178,251,253)" fill-opacity="1.0" stroke="rgb(71,100,101)" stroke-width="1" />
		<g>
			<title>PF00480</title>
			<polygon class="PF00480" points="535,18 553,18 563,28 563,34 553,44 535,44" stroke-linejoin="round" width="28" height="26" fill="rgb(205,99,210)" stroke="rgb(163,79,168)" stroke-width="1" opacity="0.75" />
		</g>
	</g>
	<g>
		<title>valD</title>
		<polygon class="valD" points="596,16 611,16 611,1 641,31 611,61 611,46 596,46" fill="rgb(191,250,195)" fill-opacity="1.0" stroke="rgb(76,100,78)" stroke-width="1" />
		<g>
			<title>PF13669</title>
			<rect class="PF13669" x="600" y="18" stroke-linejoin="round" width="11" height="26" fill="rgb(66,183,136)" stroke="rgb(52,146,108)" stroke-width="1" opacity="0.75" />
		</g>
		<g>
			<title>PF00903</title>
			<polygon class="PF00903" points="618,18 625,18 632,25 632,37 625,44 618,44" stroke-linejoin="round" width="14" height="26" fill="rgb(50,162,189)" stroke="rgb(40,129,151)" stroke-width="1" opacity="0.75" />
		</g>
	</g>
	<g>
		<title>valE</title>
		<polygon class="valE" points="655,16 658,16 658,1 688,31 658,61 658,46 655,46" fill="rgb(196,237,252)" fill-opacity="1.0" stroke="rgb(78,94,100)" stroke-width="1" />
		<g>
			<title>PF14226</title>
			<rect class="PF14226" x="655" y="18" stroke-linejoin="round" width="12" height="26" fill="rgb(122,206,79)" stroke="rgb(97,164,63)" stroke-width="1" opacity="0.75" />
		</g>
		<g>
			<title>PF03171</title>
			<polygon class="PF03171" points="672,18 672,18 683,29 683,33 672,44 672,44" stroke-linejoin="round" width="11" height="26" fill="rgb(184,68,180)" stroke="rgb(147,54,144)" stroke-width="1" opacity="0.75" />
		</g>
	</g>
	<g>
		<title>valF</title>
		<polygon class="valF" points="716,16 726,16 726,1 756,31 726,61 726,46 716,46" fill="rgb(187,215,252)" fill-opacity="1.0" stroke="rgb(74,86,100)" stroke-width="1" />
		<g>
			<title>PF01408</title>
			<rect class="PF01408" x="717" y="18" stroke-linejoin="round" width="12" height="26" fill="rgb(76,117,190)" stroke="rgb(60,93,152)" stroke-width="1" opacity="0.75" />
		</g>
		<g>
			<title>PF02894</title>
			<polygon class="PF02894" points="731,18 740,18 745,23 745,39 740,44 731,44" stroke-linejoin="round" width="14" height="26" fill="rgb(195,223,82)" stroke="rgb(155,178,65)" stroke-width="1" opacity="0.75" />
		</g>
	</g>
	<g>
		<title>valG</title>
		<polygon class="valG" points="769,16 781,16 781,1 811,31 781,61 781,46 769,46" fill="rgb(198,254,213)" fill-opacity="1.0" stroke="rgb(79,101,85)" stroke-width="1" />
		<g>
			<title>PF00535</title>
			<rect class="PF00535" x="770" y="18" stroke-linejoin="round" width="16" height="26" fill="rgb(224,122,96)" stroke="rgb(179,97,76)" stroke-width="1" opacity="0.75" />
		</g>
	</g>
	<g>
		<title>valH</title>
		<polygon class="valH" points="815,16 824,16 824,1 854,31 824,61 824,46 815,46" fill="rgb(199,236,251)" fill-opacity="1.0" stroke="rgb(79,94,100)" stroke-width="1" />
		<g>
			<title>PF07690</title>
			<rect class="PF07690" x="816" y="18" stroke-linejoin="round" width="19" height="26" fill="rgb(193,224,74)" stroke="rgb(154,179,59)" stroke-width="1" opacity="0.75" />
		</g>
	</g>
	<g>
		<title>valI</title>
		<polygon class="valI" points="894,16 925,16 925,1 955,31 925,61 925,46 894,46" fill="rgb(249,219,211)" fill-opacity="1.0" stroke="rgb(99,87,84)" stroke-width="1" />
		<g>
			<title>PF00723</title>
			<polygon class="PF00723" points="916,18 939,18 948,27 948,35 939,44 916,44" stroke-linejoin="round" width="32" height="26" fill="rgb(185,199,89)" stroke="rgb(148,159,71)" stroke-width="1" opacity="0.75" />
		</g>
	</g>
	<g>
		<title>valJ</title>
		<polygon class="valJ" points="974,16 974,16 974,1 1004,31 974,61 974,46 974,46" fill="rgb(252,183,200)" fill-opacity="1.0" stroke="rgb(100,73,80)" stroke-width="1" />
		<g>
			<title>PF14226</title>
			<rect class="PF14226" x="974" y="18" stroke-linejoin="round" width="12" height="26" fill="rgb(122,206,79)" stroke="rgb(97,164,63)" stroke-width="1" opacity="0.75" />
		</g>
		<g>
			<title>PF03171</title>
			<polygon class="PF03171" points="991,21 1001,31 1001,31 991,41" stroke-linejoin="round" width="10" height="26" fill="rgb(184,68,180)" stroke="rgb(147,54,144)" stroke-width="1" opacity="0.75" />
		</g>
	</g>
	<g>
		<polygon class="NoName" points="1059,16 1059,16 1059,1 1079,31 1059,61 1059,46 1059,46" fill="rgb(255,255,255)" fill-opacity="1.0" stroke="rgb(50,50,50)" stroke-width="1" />
		<g>
			<title>PF07040</title>
			<polygon class="PF07040" points="1060,18 1067,18 1076,31 1067,44 1060,44" stroke-linejoin="round" width="18" height="26" fill="rgb(185,64,126)" stroke="rgb(148,51,100)" stroke-width="1" opacity="0.75" />
		</g>
	</g>
	<g>
		<polygon class="NoName" points="87,16 77,16 77,1 47,31 77,61 77,46 87,46" fill="rgb(255,255,255)" fill-opacity="1.0" stroke="rgb(50,50,50)" stroke-width="1" />
		<g>
			<title>PF02371</title>
			<polygon class="PF02371" points="51,29 59,21 59,40 51,32" stroke-linejoin="round" width="8" height="26" fill="rgb(104,204,65)" stroke="rgb(83,163,52)" stroke-width="1" opacity="0.75" />
		</g>
		<g>
			<title>PF01548</title>
			<rect class="PF01548" x="70" y="18" stroke-linejoin="round" width="15" height="26" fill="rgb(59,200,207)" stroke="rgb(47,160,165)" stroke-width="1" opacity="0.75" />
		</g>
	</g>
	<g>
		<polygon class="NoName" points="1112,16 1116,16 1116,1 1146,31 1116,61 1116,46 1112,46" fill="rgb(255,255,255)" fill-opacity="1.0" stroke="rgb(50,50,50)" stroke-width="1" />
		<g>
			<title>PF09346</title>
			<rect class="PF09346" x="1113" y="18" stroke-linejoin="round" width="12" height="26" fill="rgb(197,180,87)" stroke="rgb(157,144,69)" stroke-width="1" opacity="0.75" />
		</g>
	</g>
	<g>
		<title>valP</title>
		<polygon class="valP" points="1206,16 1206,16 1206,1 1177,31 1206,61 1206,46 1206,46" fill="rgb(233,196,251)" fill-opacity="1.0" stroke="rgb(93,78,100)" stroke-width="1" />
		<g>
			<title>PF07228</title>
			<polygon class="PF07228" points="1179,31 1192,18 1195,18 1195,44 1192,44" stroke-linejoin="round" width="18" height="26" fill="rgb(85,195,217)" stroke="rgb(68,155,173)" stroke-width="1" opacity="0.75" />
		</g>
	</g>
	<g>
		<title>valQ</title>
		<polygon class="valQ" points="1226,16 1226,16 1226,1 1206,31 1226,61 1226,46 1226,46" fill="rgb(177,213,252)" fill-opacity="1.0" stroke="rgb(70,85,100)" stroke-width="1" />
	</g>
	<g>
		<polygon class="NoName" points="1271,16 1271,16 1271,1 1290,31 1271,61 1271,46 1271,46" fill="rgb(255,255,255)" fill-opacity="1.0" stroke="rgb(50,50,50)" stroke-width="1" />
		<g>
			<title>PF02342</title>
			<polygon class="PF02342" points="1271,18 1279,18 1287,31 1279,44 1271,44" stroke-linejoin="round" width="18" height="26" fill="rgb(84,103,187)" stroke="rgb(67,82,149)" stroke-width="1" opacity="0.75" />
		</g>
	</g>
	<g>
		<polygon class="NoName" points="1310,16 1325,16 1325,1 1355,31 1325,61 1325,46 1310,46" fill="rgb(255,255,255)" fill-opacity="1.0" stroke="rgb(50,50,50)" stroke-width="1" />
		<g>
			<title>PF14378</title>
			<polygon class="PF14378" points="1327,18 1339,18 1346,25 1346,37 1339,44 1327,44" stroke-linejoin="round" width="19" height="26" fill="rgb(89,191,133)" stroke="rgb(71,152,106)" stroke-width="1" opacity="0.75" />
		</g>
	</g>
	<g>
		<polygon class="NoName" points="1402,16 1402,16 1402,1 1373,31 1402,61 1402,46 1402,46" fill="rgb(255,255,255)" fill-opacity="1.0" stroke="rgb(50,50,50)" stroke-width="1" />
	</g>
	<g>
		<polygon class="NoName" points="1437,16 1437,16 1437,1 1407,31 1437,61 1437,46 1437,46" fill="rgb(255,255,255)" fill-opacity="1.0" stroke="rgb(50,50,50)" stroke-width="1" />
		<g>
			<title>PF07859</title>
			<polygon class="PF07859" points="1409,31 1422,18 1428,18 1428,44 1422,44" stroke-linejoin="round" width="19" height="26" fill="rgb(183,51,179)" stroke="rgb(146,40,143)" stroke-width="1" opacity="0.75" />
		</g>
	</g>
	<g>
		<polygon class="NoName" points="1481,16 1476,16 1476,1 1446,31 1476,61 1476,46 1481,46" fill="rgb(255,255,255)" fill-opacity="1.0" stroke="rgb(50,50,50)" stroke-width="1" />
		<g>
			<title>PF00067</title>
			<polygon class="PF00067" points="1448,31 1459,20 1459,41" stroke-linejoin="round" width="12" height="26" fill="rgb(85,216,107)" stroke="rgb(68,172,85)" stroke-width="1" opacity="0.75" />
		</g>
		<g>
			<title>PF00067</title>
			<polygon class="PF00067" points="1459,20 1461,18 1471,18 1471,44 1461,44 1459,41" stroke-linejoin="round" width="12" height="26" fill="rgb(85,216,107)" stroke="rgb(68,172,85)" stroke-width="1" opacity="0.75" />
		</g>
	</g>
	<g>
		<polygon class="NoName" points="100,16 109,16 109,1 139,31 109,61 109,46 100,46" fill="rgb(255,255,255)" fill-opacity="1.0" stroke="rgb(50,50,50)" stroke-width="1" />
		<g>
			<title>PF13551</title>
			<rect class="PF13551" x="105" y="18" stroke-linejoin="round" width="6" height="26" fill="rgb(163,71,225)" stroke="rgb(130,56,180)" stroke-width="1" opacity="0.75" />
		</g>
		<g>
			<title>PF13358</title>
			<polygon class="PF13358" points="119,18 123,18 133,28 133,34 123,44 119,44" stroke-linejoin="round" width="14" height="26" fill="rgb(50,81,198)" stroke="rgb(40,64,158)" stroke-width="1" opacity="0.75" />
		</g>
	</g>
	<g>
		<polygon class="NoName" points="196,16 196,16 196,1 169,31 196,61 196,46 196,46" fill="rgb(255,255,255)" fill-opacity="1.0" stroke="rgb(50,50,50)" stroke-width="1" />
		<g>
			<title>PF13359</title>
			<polygon class="PF13359" points="171,31 183,18 185,18 185,44 183,44" stroke-linejoin="round" width="16" height="26" fill="rgb(89,93,205)" stroke="rgb(71,74,164)" stroke-width="1" opacity="0.75" />
		</g>
		<g>
			<title>PF13613</title>
			<rect class="PF13613" x="188" y="18" stroke-linejoin="round" width="5" height="26" fill="rgb(71,220,91)" stroke="rgb(56,176,72)" stroke-width="1" opacity="0.75" />
		</g>
	</g>
	<g>
		<title>valO</title>
		<polygon class="valO" points="224,16 224,16 224,1 202,31 224,61 224,46 224,46" fill="rgb(190,251,231)" fill-opacity="1.0" stroke="rgb(76,100,92)" stroke-width="1" />
		<g>
			<title>PF13419</title>
			<polygon class="PF13419" points="205,30 214,18 222,18 222,44 214,44 205,31" stroke-linejoin="round" width="17" height="26" fill="rgb(60,223,188)" stroke="rgb(48,178,150)" stroke-width="1" opacity="0.75" />
		</g>
	</g>
	<g>
		<title>valN</title>
		<polygon class="valN" points="283,16 280,16 280,1 250,31 280,61 280,46 283,46" fill="rgb(214,251,199)" fill-opacity="1.0" stroke="rgb(85,100,79)" stroke-width="1" />
		<g>
			<title>PF01488</title>
			<polygon class="PF01488" points="260,23 265,18 269,18 269,44 265,44 260,38" stroke-linejoin="round" width="9" height="26" fill="rgb(94,182,59)" stroke="rgb(75,145,47)" stroke-width="1" opacity="0.75" />
		</g>
		<g>
			<title>PF08240</title>
			<rect class="PF08240" x="273" y="18" stroke-linejoin="round" width="7" height="26" fill="rgb(211,65,138)" stroke="rgb(168,51,110)" stroke-width="1" opacity="0.75" />
		</g>
	</g>
	<g>
		<title>valM</title>
		<polygon class="valM" points="325,16 313,16 313,1 283,31 313,61 313,46 325,46" fill="rgb(254,225,183)" fill-opacity="1.0" stroke="rgb(101,90,73)" stroke-width="1" />
		<g>
			<title>PF00202</title>
			<polygon class="PF00202" points="285,31 298,18 323,18 323,44 298,44" stroke-linejoin="round" width="40" height="26" fill="rgb(49,163,189)" stroke="rgb(39,130,151)" stroke-width="1" opacity="0.75" />
		</g>
	</g>
	<g>
		<title>valL</title>
		<polygon class="valL" points="375,16 356,16 356,1 326,31 356,61 356,46 375,46" fill="rgb(202,252,224)" fill-opacity="1.0" stroke="rgb(80,100,89)" stroke-width="1" />
		<g>
			<title>PF00982</title>
			<polygon class="PF00982" points="328,31 341,18 374,18 374,44 341,44" stroke-linejoin="round" width="46" height="26" fill="rgb(89,138,188)" stroke="rgb(71,110,150)" stroke-width="1" opacity="0.75" />
		</g>
	</g>
	<g>
		<title>valK</title>
		<polygon class="valK" points="411,16 409,16 409,1 379,31 409,61 409,46 411,46" fill="rgb(237,251,190)" fill-opacity="1.0" stroke="rgb(94,100,76)" stroke-width="1" />
		<g>
			<title>PF04321</title>
			<polygon class="PF04321" points="381,31 394,18 407,18 407,44 394,44" stroke-linejoin="round" width="28" height="26" fill="rgb(196,203,60)" stroke="rgb(156,162,47)" stroke-width="1" opacity="0.75" />
		</g>
	</g>
	<g>
		<title>valA</title>
		<polygon class="valA" points="455,16 466,16 466,1 496,31 466,61 466,46 455,46" fill="rgb(197,252,243)" fill-opacity="1.0" stroke="rgb(78,100,97)" stroke-width="1" />
		<g>
			<title>PF01761</title>
			<polygon class="PF01761" points="464,18 480,18 490,28 490,34 480,44 464,44" stroke-linejoin="round" width="26" height="26" fill="rgb(150,62,180)" stroke="rgb(120,49,144)" stroke-width="1" opacity="0.75" />
		</g>
	</g>
</svg>
