<svg version="1.1" baseProfile="full" xmlns="http://www.w3.org/2000/svg" width="2113" height="62">
	<line x1="1" y1="31" x2="2112" y2="31" style="stroke:rgb(50,50,50); stroke-width:3 "/>
	<g>
		<polygon class="NoName" points="248,16 248,16 248,1 261,31 248,61 248,46 248,46" fill="rgb(255,255,255)" fill-opacity="1.0" stroke="rgb(50,50,50)" stroke-width="1" />
		<g>
			<title>PF05523</title>
			<polygon class="PF05523" points="248,18 252,18 258,31 252,44 248,44" stroke-linejoin="round" width="13" height="26" fill="rgb(91,72,180)" stroke="rgb(72,57,144)" stroke-width="1" opacity="0.75" />
		</g>
	</g>
	<g>
		<polygon class="NoName" points="261,16 261,16 261,1 278,31 261,61 261,46 261,46" fill="rgb(255,255,255)" fill-opacity="1.0" stroke="rgb(50,50,50)" stroke-width="1" />
		<g>
			<title>PF13302</title>
			<polygon class="PF13302" points="261,18 268,18 274,28 274,34 268,44 261,44" stroke-linejoin="round" width="13" height="26" fill="rgb(105,146,215)" stroke="rgb(84,116,172)" stroke-width="1" opacity="0.75" />
		</g>
	</g>
	<g>
		<polygon class="NoName" points="279,16 285,16 285,1 315,31 285,61 285,46 279,46" fill="rgb(255,255,255)" fill-opacity="1.0" stroke="rgb(50,50,50)" stroke-width="1" />
		<g>
			<title>PF01041</title>
			<polygon class="PF01041" points="280,18 299,18 312,31 299,44 280,44" stroke-linejoin="round" width="35" height="26" fill="rgb(59,139,191)" stroke="rgb(47,111,152)" stroke-width="1" opacity="0.75" />
		</g>
	</g>
	<g>
		<polygon class="NoName" points="316,16 317,16 317,1 347,31 317,61 317,46 316,46" fill="rgb(255,255,255)" fill-opacity="1.0" stroke="rgb(50,50,50)" stroke-width="1" />
		<g>
			<title>PF00535</title>
			<polygon class="PF00535" points="317,18 331,18 333,20 333,42 331,44 317,44" stroke-linejoin="round" width="16" height="26" fill="rgb(224,122,96)" stroke="rgb(179,97,76)" stroke-width="1" opacity="0.75" />
		</g>
	</g>
	<g>
		<polygon class="NoName" points="380,16 379,16 379,1 349,31 379,61 379,46 380,46" fill="rgb(255,255,255)" fill-opacity="1.0" stroke="rgb(50,50,50)" stroke-width="1" />
		<g>
			<title>PF03706</title>
			<polygon class="PF03706" points="351,31 364,18 377,18 377,44 364,44" stroke-linejoin="round" width="27" height="26" fill="rgb(98,201,219)" stroke="rgb(78,160,175)" stroke-width="1" opacity="0.75" />
		</g>
	</g>
	<g>
		<polygon class="NoName" points="393,16 393,16 393,1 380,31 393,61 393,46 393,46" fill="rgb(255,255,255)" fill-opacity="1.0" stroke="rgb(50,50,50)" stroke-width="1" />
		<g>
			<title>PF02681</title>
			<polygon class="PF02681" points="382,31 388,18 392,18 392,44 388,44" stroke-linejoin="round" width="12" height="26" fill="rgb(215,62,131)" stroke="rgb(172,49,104)" stroke-width="1" opacity="0.75" />
		</g>
	</g>
	<g>
		<polygon class="NoName" points="422,16 422,16 422,1 394,31 422,61 422,46 422,46" fill="rgb(255,255,255)" fill-opacity="1.0" stroke="rgb(50,50,50)" stroke-width="1" />
		<g>
			<title>PF01040</title>
			<polygon class="PF01040" points="396,31 408,18 420,18 420,44 408,44" stroke-linejoin="round" width="24" height="26" fill="rgb(189,57,100)" stroke="rgb(151,45,80)" stroke-width="1" opacity="0.75" />
		</g>
	</g>
	<g>
		<polygon class="NoName" points="424,16 424,16 424,1 437,31 424,61 424,46 424,46" fill="rgb(255,255,255)" fill-opacity="1.0" stroke="rgb(50,50,50)" stroke-width="1" />
		<g>
			<title>PF04138</title>
			<polygon class="PF04138" points="424,18 428,18 434,31 428,44 424,44" stroke-linejoin="round" width="12" height="26" fill="rgb(72,221,86)" stroke="rgb(57,176,68)" stroke-width="1" opacity="0.75" />
		</g>
	</g>
	<g>
		<polygon class="NoName" points="437,16 449,16 449,1 479,31 449,61 449,46 437,46" fill="rgb(255,255,255)" fill-opacity="1.0" stroke="rgb(50,50,50)" stroke-width="1" />
		<g>
			<title>PF01565</title>
			<rect class="PF01565" x="438" y="18" stroke-linejoin="round" width="12" height="26" fill="rgb(226,88,136)" stroke="rgb(180,70,108)" stroke-width="1" opacity="0.75" />
		</g>
		<g>
			<title>PF04030</title>
			<polygon class="PF04030" points="466,21 476,31 466,41" stroke-linejoin="round" width="13" height="26" fill="rgb(58,139,185)" stroke="rgb(46,111,148)" stroke-width="1" opacity="0.75" />
		</g>
	</g>
	<g>
		<polygon class="NoName" points="480,16 480,16 480,1 504,31 480,61 480,46 480,46" fill="rgb(255,255,255)" fill-opacity="1.0" stroke="rgb(50,50,50)" stroke-width="1" />
		<g>
			<title>PF00106</title>
			<polygon class="PF00106" points="480,18 491,18 499,28 499,34 491,44 480,44" stroke-linejoin="round" width="19" height="26" fill="rgb(182,219,73)" stroke="rgb(145,175,58)" stroke-width="1" opacity="0.75" />
		</g>
	</g>
	<g>
		<title>coaD</title>
		<polygon class="coaD" points="2,16 2,16 2,1 18,31 2,61 2,46 2,46" fill="rgb(252,193,230)" fill-opacity="1.0" stroke="rgb(100,77,92)" stroke-width="1" />
		<g>
			<title>PF01467</title>
			<polygon class="PF01467" points="3,18 8,18 15,30 15,32 8,44 3,44" stroke-linejoin="round" width="12" height="26" fill="rgb(110,215,57)" stroke="rgb(88,172,45)" stroke-width="1" opacity="0.75" />
		</g>
	</g>
	<g>
		<polygon class="NoName" points="505,16 529,16 529,1 559,31 529,61 529,46 505,46" fill="rgb(255,255,255)" fill-opacity="1.0" stroke="rgb(50,50,50)" stroke-width="1" />
	</g>
	<g>
		<polygon class="NoName" points="602,16 590,16 590,1 560,31 590,61 590,46 602,46" fill="rgb(255,255,255)" fill-opacity="1.0" stroke="rgb(50,50,50)" stroke-width="1" />
		<g>
			<title>PF00534</title>
			<polygon class="PF00534" points="562,31 575,18 580,18 580,44 575,44" stroke-linejoin="round" width="18" height="26" fill="rgb(228,92,150)" stroke="rgb(182,73,119)" stroke-width="1" opacity="0.75" />
		</g>
		<g>
			<title>PF04413</title>
			<rect class="PF04413" x="581" y="18" stroke-linejoin="round" width="17" height="26" fill="rgb(84,216,75)" stroke="rgb(67,172,60)" stroke-width="1" opacity="0.75" />
		</g>
	</g>
	<g>
		<polygon class="NoName" points="636,16 636,16 636,1 607,31 636,61 636,46 636,46" fill="rgb(255,255,255)" fill-opacity="1.0" stroke="rgb(50,50,50)" stroke-width="1" />
		<g>
			<title>PF01531</title>
			<polygon class="PF01531" points="609,31 622,18 635,18 635,44 622,44" stroke-linejoin="round" width="28" height="26" fill="rgb(101,92,208)" stroke="rgb(80,73,166)" stroke-width="1" opacity="0.75" />
		</g>
	</g>
	<g>
		<polygon class="NoName" points="672,16 667,16 667,1 637,31 667,61 667,46 672,46" fill="rgb(255,255,255)" fill-opacity="1.0" stroke="rgb(50,50,50)" stroke-width="1" />
		<g>
			<title>PF01075</title>
			<polygon class="PF01075" points="639,31 652,18 664,18 664,44 652,44" stroke-linejoin="round" width="25" height="26" fill="rgb(200,89,91)" stroke="rgb(160,71,72)" stroke-width="1" opacity="0.75" />
		</g>
	</g>
	<g>
		<polygon class="NoName" points="696,16 696,16 696,1 672,31 696,61 696,46 696,46" fill="rgb(255,255,255)" fill-opacity="1.0" stroke="rgb(50,50,50)" stroke-width="1" />
		<g>
			<title>PF01755</title>
			<polygon class="PF01755" points="678,26 684,18 695,18 695,44 684,44 678,35" stroke-linejoin="round" width="17" height="26" fill="rgb(71,196,156)" stroke="rgb(56,156,124)" stroke-width="1" opacity="0.75" />
		</g>
	</g>
	<g>
		<polygon class="NoName" points="728,16 726,16 726,1 696,31 726,61 726,46 728,46" fill="rgb(255,255,255)" fill-opacity="1.0" stroke="rgb(50,50,50)" stroke-width="1" />
		<g>
			<title>PF03279</title>
			<polygon class="PF03279" points="698,31 711,18 727,18 727,44 711,44" stroke-linejoin="round" width="29" height="26" fill="rgb(95,219,149)" stroke="rgb(76,175,119)" stroke-width="1" opacity="0.75" />
		</g>
	</g>
	<g>
		<title>gmhD</title>
		<polygon class="gmhD" points="763,16 762,16 762,1 732,31 762,61 762,46 763,46" fill="rgb(190,226,254)" fill-opacity="1.0" stroke="rgb(76,90,101)" stroke-width="1" />
		<g>
			<title>PF01370</title>
			<polygon class="PF01370" points="739,26 747,18 762,18 762,44 747,44 739,35" stroke-linejoin="round" width="23" height="26" fill="rgb(98,102,214)" stroke="rgb(78,81,171)" stroke-width="1" opacity="0.75" />
		</g>
	</g>
	<g>
		<polygon class="NoName" points="841,16 798,16 798,1 768,31 798,61 798,46 841,46" fill="rgb(255,255,255)" fill-opacity="1.0" stroke="rgb(50,50,50)" stroke-width="1" />
		<g>
			<title>PF06082</title>
			<polygon class="PF06082" points="770,31 783,18 837,18 837,44 783,44" stroke-linejoin="round" width="68" height="26" fill="rgb(190,185,78)" stroke="rgb(152,147,62)" stroke-width="1" opacity="0.75" />
		</g>
	</g>
	<g>
		<polygon class="NoName" points="867,16 867,16 867,1 842,31 867,61 867,46 867,46" fill="rgb(255,255,255)" fill-opacity="1.0" stroke="rgb(50,50,50)" stroke-width="1" />
		<g>
			<title>PF06251</title>
			<polygon class="PF06251" points="844,31 855,18 863,18 863,44 855,44" stroke-linejoin="round" width="21" height="26" fill="rgb(93,196,216)" stroke="rgb(74,156,172)" stroke-width="1" opacity="0.75" />
		</g>
	</g>
	<g>
		<polygon class="NoName" points="889,16 889,16 889,1 867,31 889,61 889,46 889,46" fill="rgb(255,255,255)" fill-opacity="1.0" stroke="rgb(50,50,50)" stroke-width="1" />
		<g>
			<title>PF11102</title>
			<polygon class="PF11102" points="869,31 879,18 886,18 886,44 879,44" stroke-linejoin="round" width="19" height="26" fill="rgb(69,189,155)" stroke="rgb(55,151,123)" stroke-width="1" opacity="0.75" />
		</g>
	</g>
	<g>
		<polygon class="NoName" points="18,16 19,16 19,1 49,31 19,61 19,46 18,46" fill="rgb(255,255,255)" fill-opacity="1.0" stroke="rgb(50,50,50)" stroke-width="1" />
		<g>
			<title>PF05686</title>
			<polygon class="PF05686" points="30,18 33,18 46,31 33,44 30,44" stroke-linejoin="round" width="17" height="26" fill="rgb(184,182,87)" stroke="rgb(147,145,69)" stroke-width="1" opacity="0.75" />
		</g>
	</g>
	<g>
		<polygon class="NoName" points="905,16 905,16 905,1 916,31 905,61 905,46 905,46" fill="rgb(255,255,255)" fill-opacity="1.0" stroke="rgb(50,50,50)" stroke-width="1" />
	</g>
	<g>
		<polygon class="NoName" points="920,16 920,16 920,1 937,31 920,61 920,46 920,46" fill="rgb(255,255,255)" fill-opacity="1.0" stroke="rgb(50,50,50)" stroke-width="1" />
		<g>
			<title>PF13505</title>
			<polygon class="PF13505" points="920,18 927,18 934,31 927,44 920,44" stroke-linejoin="round" width="16" height="26" fill="rgb(200,118,85)" stroke="rgb(160,94,67)" stroke-width="1" opacity="0.75" />
		</g>
	</g>
	<g>
		<polygon class="NoName" points="939,16 998,16 998,1 1028,31 998,61 998,46 939,46" fill="rgb(255,255,255)" fill-opacity="1.0" stroke="rgb(50,50,50)" stroke-width="1" />
		<g>
			<title>PF02563</title>
			<rect class="PF02563" x="950" y="18" stroke-linejoin="round" width="7" height="26" fill="rgb(125,185,59)" stroke="rgb(100,148,47)" stroke-width="1" opacity="0.75" />
		</g>
		<g>
			<title>PF10531</title>
			<rect class="PF10531" x="958" y="18" stroke-linejoin="round" width="5" height="26" fill="rgb(92,145,209)" stroke="rgb(73,116,167)" stroke-width="1" opacity="0.75" />
		</g>
		<g>
			<title>PF10531</title>
			<rect class="PF10531" x="967" y="18" stroke-linejoin="round" width="5" height="26" fill="rgb(92,145,209)" stroke="rgb(73,116,167)" stroke-width="1" opacity="0.75" />
		</g>
		<g>
			<title>PF10531</title>
			<rect class="PF10531" x="994" y="18" stroke-linejoin="round" width="5" height="26" fill="rgb(92,145,209)" stroke="rgb(73,116,167)" stroke-width="1" opacity="0.75" />
		</g>
		<g>
			<title>PF06251</title>
			<polygon class="PF06251" points="1003,18 1012,18 1025,31 1025,31 1012,44 1003,44" stroke-linejoin="round" width="22" height="26" fill="rgb(93,196,216)" stroke="rgb(74,156,172)" stroke-width="1" opacity="0.75" />
		</g>
	</g>
	<g>
		<polygon class="NoName" points="1038,16 1040,16 1040,1 1070,31 1040,61 1040,46 1038,46" fill="rgb(255,255,255)" fill-opacity="1.0" stroke="rgb(50,50,50)" stroke-width="1" />
		<g>
			<title>PF02706</title>
			<polygon class="PF02706" points="1040,18 1054,18 1059,23 1059,39 1054,44 1040,44" stroke-linejoin="round" width="19" height="26" fill="rgb(184,132,90)" stroke="rgb(147,105,72)" stroke-width="1" opacity="0.75" />
		</g>
		<g>
			<title>PF13807</title>
			<polygon class="PF13807" points="1061,25 1067,31 1061,37" stroke-linejoin="round" width="8" height="26" fill="rgb(77,110,190)" stroke="rgb(61,87,152)" stroke-width="1" opacity="0.75" />
		</g>
	</g>
	<g>
		<polygon class="NoName" points="1075,16 1075,16 1075,1 1087,31 1075,61 1075,46 1075,46" fill="rgb(255,255,255)" fill-opacity="1.0" stroke="rgb(50,50,50)" stroke-width="1" />
		<g>
			<title>PF08282</title>
			<polygon class="PF08282" points="1075,18 1079,18 1081,22 1081,40 1079,44 1075,44" stroke-linejoin="round" width="6" height="26" fill="rgb(195,74,128)" stroke="rgb(156,59,102)" stroke-width="1" opacity="0.75" />
		</g>
	</g>
	<g>
		<polygon class="NoName" points="1087,16 1109,16 1109,1 1139,31 1109,61 1109,46 1087,46" fill="rgb(255,255,255)" fill-opacity="1.0" stroke="rgb(50,50,50)" stroke-width="1" />
	</g>
	<g>
		<polygon class="NoName" points="1140,16 1140,16 1140,1 1164,31 1140,61 1140,46 1140,46" fill="rgb(255,255,255)" fill-opacity="1.0" stroke="rgb(50,50,50)" stroke-width="1" />
	</g>
	<g>
		<polygon class="NoName" points="1163,16 1210,16 1210,1 1240,31 1210,61 1210,46 1163,46" fill="rgb(255,255,255)" fill-opacity="1.0" stroke="rgb(50,50,50)" stroke-width="1" />
		<g>
			<title>PF07507</title>
			<rect class="PF07507" x="1170" y="18" stroke-linejoin="round" width="29" height="26" fill="rgb(227,79,117)" stroke="rgb(181,63,93)" stroke-width="1" opacity="0.75" />
		</g>
		<g>
			<title>PF01943</title>
			<rect class="PF01943" x="1198" y="18" stroke-linejoin="round" width="26" height="26" fill="rgb(71,213,101)" stroke="rgb(56,170,80)" stroke-width="1" opacity="0.75" />
		</g>
		<g>
			<title>PF14667</title>
			<polygon class="PF14667" points="1230,24 1237,31 1230,38" stroke-linejoin="round" width="9" height="26" fill="rgb(222,92,150)" stroke="rgb(177,73,120)" stroke-width="1" opacity="0.75" />
		</g>
	</g>
	<g>
		<polygon class="NoName" points="1240,16 1247,16 1247,1 1277,31 1247,61 1247,46 1240,46" fill="rgb(255,255,255)" fill-opacity="1.0" stroke="rgb(50,50,50)" stroke-width="1" />
		<g>
			<title>PF04464</title>
			<polygon class="PF04464" points="1242,18 1261,18 1274,31 1261,44 1242,44" stroke-linejoin="round" width="34" height="26" fill="rgb(55,181,67)" stroke="rgb(44,144,53)" stroke-width="1" opacity="0.75" />
		</g>
	</g>
	<g>
		<polygon class="NoName" points="1277,16 1285,16 1285,1 1315,31 1285,61 1285,46 1277,46" fill="rgb(255,255,255)" fill-opacity="1.0" stroke="rgb(50,50,50)" stroke-width="1" />
		<g>
			<title>PF14897</title>
			<polygon class="PF14897" points="1279,18 1299,18 1312,31 1312,31 1299,44 1279,44" stroke-linejoin="round" width="33" height="26" fill="rgb(148,193,88)" stroke="rgb(118,154,70)" stroke-width="1" opacity="0.75" />
		</g>
	</g>
	<g>
		<polygon class="NoName" points="77,16 77,16 77,1 51,31 77,61 77,46 77,46" fill="rgb(255,255,255)" fill-opacity="1.0" stroke="rgb(50,50,50)" stroke-width="1" />
		<g>
			<title>PF02709</title>
			<polygon class="PF02709" points="54,30 61,22 61,39 54,31" stroke-linejoin="round" width="7" height="26" fill="rgb(218,95,200)" stroke="rgb(174,76,160)" stroke-width="1" opacity="0.75" />
		</g>
		<g>
			<title>PF00535</title>
			<polygon class="PF00535" points="61,22 64,18 76,18 76,44 64,44 61,39" stroke-linejoin="round" width="15" height="26" fill="rgb(224,122,96)" stroke="rgb(179,97,76)" stroke-width="1" opacity="0.75" />
		</g>
	</g>
	<g>
		<polygon class="NoName" points="1316,16 1319,16 1319,1 1349,31 1319,61 1319,46 1316,46" fill="rgb(255,255,255)" fill-opacity="1.0" stroke="rgb(50,50,50)" stroke-width="1" />
		<g>
			<title>PF00535</title>
			<rect class="PF00535" x="1316" y="18" stroke-linejoin="round" width="16" height="26" fill="rgb(224,122,96)" stroke="rgb(179,97,76)" stroke-width="1" opacity="0.75" />
		</g>
	</g>
	<g>
		<polygon class="NoName" points="1349,16 1349,16 1349,1 1377,31 1349,61 1349,46 1349,46" fill="rgb(255,255,255)" fill-opacity="1.0" stroke="rgb(50,50,50)" stroke-width="1" />
	</g>
	<g>
		<polygon class="NoName" points="1378,16 1384,16 1384,1 1414,31 1384,61 1384,46 1378,46" fill="rgb(255,255,255)" fill-opacity="1.0" stroke="rgb(50,50,50)" stroke-width="1" />
		<g>
			<title>PF16363</title>
			<polygon class="PF16363" points="1378,18 1398,18 1411,31 1411,31 1398,44 1378,44" stroke-linejoin="round" width="33" height="26" fill="rgb(162,221,65)" stroke="rgb(129,176,51)" stroke-width="1" opacity="0.75" />
		</g>
	</g>
	<g>
		<polygon class="NoName" points="1417,16 1419,16 1419,1 1449,31 1419,61 1419,46 1417,46" fill="rgb(255,255,255)" fill-opacity="1.0" stroke="rgb(50,50,50)" stroke-width="1" />
		<g>
			<title>PF01370</title>
			<polygon class="PF01370" points="1417,18 1433,18 1441,26 1441,36 1433,44 1417,44" stroke-linejoin="round" width="24" height="26" fill="rgb(98,102,214)" stroke="rgb(78,81,171)" stroke-width="1" opacity="0.75" />
		</g>
	</g>
	<g>
		<polygon class="NoName" points="1451,16 1451,16 1451,1 1466,31 1451,61 1451,46 1451,46" fill="rgb(255,255,255)" fill-opacity="1.0" stroke="rgb(50,50,50)" stroke-width="1" />
		<g>
			<title>PF00293</title>
			<polygon class="PF00293" points="1452,18 1457,18 1463,31 1457,44 1452,44" stroke-linejoin="round" width="13" height="26" fill="rgb(92,56,187)" stroke="rgb(73,44,149)" stroke-width="1" opacity="0.75" />
		</g>
	</g>
	<g>
		<polygon class="NoName" points="1467,16 1485,16 1485,1 1515,31 1485,61 1485,46 1467,46" fill="rgb(255,255,255)" fill-opacity="1.0" stroke="rgb(50,50,50)" stroke-width="1" />
		<g>
			<title>PF00483</title>
			<rect class="PF00483" x="1467" y="18" stroke-linejoin="round" width="29" height="26" fill="rgb(198,101,87)" stroke="rgb(158,80,69)" stroke-width="1" opacity="0.75" />
		</g>
		<g>
			<title>PF01050</title>
			<polygon class="PF01050" points="1499,18 1499,18 1512,31 1499,44 1499,44" stroke-linejoin="round" width="15" height="26" fill="rgb(53,184,51)" stroke="rgb(42,147,40)" stroke-width="1" opacity="0.75" />
		</g>
	</g>
	<g>
		<polygon class="NoName" points="1516,16 1533,16 1533,1 1563,31 1533,61 1533,46 1516,46" fill="rgb(255,255,255)" fill-opacity="1.0" stroke="rgb(50,50,50)" stroke-width="1" />
		<g>
			<title>PF02878</title>
			<rect class="PF02878" x="1517" y="18" stroke-linejoin="round" width="12" height="26" fill="rgb(217,133,102)" stroke="rgb(173,106,81)" stroke-width="1" opacity="0.75" />
		</g>
		<g>
			<title>PF02879</title>
			<rect class="PF02879" x="1532" y="18" stroke-linejoin="round" width="9" height="26" fill="rgb(192,221,60)" stroke="rgb(153,176,48)" stroke-width="1" opacity="0.75" />
		</g>
		<g>
			<title>PF02880</title>
			<polygon class="PF02880" points="1542,18 1547,18 1553,24 1553,38 1547,44 1542,44" stroke-linejoin="round" width="11" height="26" fill="rgb(67,204,90)" stroke="rgb(53,163,72)" stroke-width="1" opacity="0.75" />
		</g>
		<g>
			<title>PF00408</title>
			<polygon class="PF00408" points="1555,26 1560,31 1555,36" stroke-linejoin="round" width="8" height="26" fill="rgb(74,205,143)" stroke="rgb(59,164,114)" stroke-width="1" opacity="0.75" />
		</g>
	</g>
	<g>
		<polygon class="NoName" points="1566,16 1576,16 1576,1 1606,31 1576,61 1576,46 1566,46" fill="rgb(255,255,255)" fill-opacity="1.0" stroke="rgb(50,50,50)" stroke-width="1" />
		<g>
			<title>PF01238</title>
			<polygon class="PF01238" points="1566,18 1590,18 1602,30 1602,32 1590,44 1566,44" stroke-linejoin="round" width="36" height="26" fill="rgb(61,229,93)" stroke="rgb(48,183,74)" stroke-width="1" opacity="0.75" />
		</g>
	</g>
	<g>
		<polygon class="NoName" points="1636,16 1636,16 1636,1 1609,31 1636,61 1636,46 1636,46" fill="rgb(255,255,255)" fill-opacity="1.0" stroke="rgb(50,50,50)" stroke-width="1" />
		<g>
			<title>PF00535</title>
			<polygon class="PF00535" points="1618,23 1623,18 1634,18 1634,44 1623,44 1618,38" stroke-linejoin="round" width="16" height="26" fill="rgb(224,122,96)" stroke="rgb(179,97,76)" stroke-width="1" opacity="0.75" />
		</g>
	</g>
	<g>
		<polygon class="NoName" points="1669,16 1666,16 1666,1 1636,31 1666,61 1666,46 1669,46" fill="rgb(255,255,255)" fill-opacity="1.0" stroke="rgb(50,50,50)" stroke-width="1" />
		<g>
			<title>PF02397</title>
			<polygon class="PF02397" points="1638,31 1651,18 1654,18 1654,44 1651,44" stroke-linejoin="round" width="18" height="26" fill="rgb(57,165,209)" stroke="rgb(45,131,167)" stroke-width="1" opacity="0.75" />
		</g>
	</g>
	<g>
		<polygon class="NoName" points="102,16 102,16 102,1 77,31 102,61 102,46 102,46" fill="rgb(255,255,255)" fill-opacity="1.0" stroke="rgb(50,50,50)" stroke-width="1" />
		<g>
			<title>PF00535</title>
			<polygon class="PF00535" points="83,26 90,18 101,18 101,44 90,44 83,35" stroke-linejoin="round" width="18" height="26" fill="rgb(224,122,96)" stroke="rgb(179,97,76)" stroke-width="1" opacity="0.75" />
		</g>
	</g>
	<g>
		<polygon class="NoName" points="1678,16 1686,16 1686,1 1716,31 1686,61 1686,46 1678,46" fill="rgb(255,255,255)" fill-opacity="1.0" stroke="rgb(50,50,50)" stroke-width="1" />
		<g>
			<title>PF03721</title>
			<rect class="PF03721" x="1678" y="18" stroke-linejoin="round" width="17" height="26" fill="rgb(156,194,58)" stroke="rgb(124,155,46)" stroke-width="1" opacity="0.75" />
		</g>
		<g>
			<title>PF00984</title>
			<polygon class="PF00984" points="1697,18 1700,18 1706,24 1706,38 1700,44 1697,44" stroke-linejoin="round" width="9" height="26" fill="rgb(69,189,184)" stroke="rgb(55,151,147)" stroke-width="1" opacity="0.75" />
		</g>
		<g>
			<title>PF03720</title>
			<polygon class="PF03720" points="1708,26 1713,31 1708,36" stroke-linejoin="round" width="8" height="26" fill="rgb(221,130,74)" stroke="rgb(176,103,59)" stroke-width="1" opacity="0.75" />
		</g>
	</g>
	<g>
		<polygon class="NoName" points="1719,16 1719,16 1719,1 1748,31 1719,61 1719,46 1719,46" fill="rgb(255,255,255)" fill-opacity="1.0" stroke="rgb(50,50,50)" stroke-width="1" />
		<g>
			<title>PF00483</title>
			<polygon class="PF00483" points="1719,18 1732,18 1745,31 1745,31 1732,44 1719,44" stroke-linejoin="round" width="26" height="26" fill="rgb(198,101,87)" stroke="rgb(158,80,69)" stroke-width="1" opacity="0.75" />
		</g>
	</g>
	<g>
		<polygon class="NoName" points="1754,16 1764,16 1764,1 1794,31 1764,61 1764,46 1754,46" fill="rgb(255,255,255)" fill-opacity="1.0" stroke="rgb(50,50,50)" stroke-width="1" />
		<g>
			<title>PF00872</title>
			<polygon class="PF00872" points="1754,18 1778,18 1791,31 1791,31 1778,44 1754,44" stroke-linejoin="round" width="37" height="26" fill="rgb(137,187,62)" stroke="rgb(109,149,49)" stroke-width="1" opacity="0.75" />
		</g>
	</g>
	<g>
		<polygon class="NoName" points="1827,16 1827,16 1827,1 1842,31 1827,61 1827,46 1827,46" fill="rgb(255,255,255)" fill-opacity="1.0" stroke="rgb(50,50,50)" stroke-width="1" />
	</g>
	<g>
		<polygon class="NoName" points="1843,16 1907,16 1907,1 1937,31 1907,61 1907,46 1843,46" fill="rgb(255,255,255)" fill-opacity="1.0" stroke="rgb(50,50,50)" stroke-width="1" />
		<g>
			<title>PF13665</title>
			<rect class="PF13665" x="1845" y="18" stroke-linejoin="round" width="10" height="26" fill="rgb(86,181,80)" stroke="rgb(68,144,64)" stroke-width="1" opacity="0.75" />
		</g>
	</g>
	<g>
		<polygon class="NoName" points="1938,16 1938,16 1938,1 1962,31 1938,61 1938,46 1938,46" fill="rgb(255,255,255)" fill-opacity="1.0" stroke="rgb(50,50,50)" stroke-width="1" />
		<g>
			<title>PF14412</title>
			<polygon class="PF14412" points="1941,18 1949,18 1954,25 1954,37 1949,44 1941,44" stroke-linejoin="round" width="13" height="26" fill="rgb(211,67,212)" stroke="rgb(168,53,169)" stroke-width="1" opacity="0.75" />
		</g>
	</g>
	<g>
		<polygon class="NoName" points="1963,16 1963,16 1963,1 1983,31 1963,61 1963,46 1963,46" fill="rgb(255,255,255)" fill-opacity="1.0" stroke="rgb(50,50,50)" stroke-width="1" />
	</g>
	<g>
		<polygon class="NoName" points="1990,16 1994,16 1994,1 2024,31 1994,61 1994,46 1990,46" fill="rgb(255,255,255)" fill-opacity="1.0" stroke="rgb(50,50,50)" stroke-width="1" />
		<g>
			<title>PF13551</title>
			<rect class="PF13551" x="1991" y="18" stroke-linejoin="round" width="6" height="26" fill="rgb(163,71,225)" stroke="rgb(130,56,180)" stroke-width="1" opacity="0.75" />
		</g>
		<g>
			<title>PF00665</title>
			<polygon class="PF00665" points="2006,18 2008,18 2018,28 2018,34 2008,44 2006,44" stroke-linejoin="round" width="12" height="26" fill="rgb(93,64,200)" stroke="rgb(74,51,160)" stroke-width="1" opacity="0.75" />
		</g>
	</g>
	<g>
		<polygon class="NoName" points="2059,16 2059,16 2059,1 2037,31 2059,61 2059,46 2059,46" fill="rgb(255,255,255)" fill-opacity="1.0" stroke="rgb(50,50,50)" stroke-width="1" />
		<g>
			<title>PF00665</title>
			<polygon class="PF00665" points="2039,31 2046,22 2046,39" stroke-linejoin="round" width="9" height="26" fill="rgb(93,64,200)" stroke="rgb(74,51,160)" stroke-width="1" opacity="0.75" />
		</g>
		<g>
			<title>PF13276</title>
			<polygon class="PF13276" points="2049,18 2049,18 2054,18 2054,44 2049,44 2049,43" stroke-linejoin="round" width="5" height="26" fill="rgb(114,195,68)" stroke="rgb(91,156,54)" stroke-width="1" opacity="0.75" />
		</g>
	</g>
	<g>
		<polygon class="NoName" points="2068,16 2068,16 2068,1 2059,31 2068,61 2068,46 2068,46" fill="rgb(255,255,255)" fill-opacity="1.0" stroke="rgb(50,50,50)" stroke-width="1" />
		<g>
			<title>PF01527</title>
			<polygon class="PF01527" points="2061,31 2065,18 2067,18 2067,44 2065,44" stroke-linejoin="round" width="6" height="26" fill="rgb(85,212,107)" stroke="rgb(68,169,85)" stroke-width="1" opacity="0.75" />
		</g>
	</g>
	<g>
		<polygon class="NoName" points="139,16 134,16 134,1 104,31 134,61 134,46 139,46" fill="rgb(255,255,255)" fill-opacity="1.0" stroke="rgb(50,50,50)" stroke-width="1" />
		<g>
			<title>PF01075</title>
			<polygon class="PF01075" points="107,30 119,18 131,18 131,44 119,44 107,31" stroke-linejoin="round" width="24" height="26" fill="rgb(200,89,91)" stroke="rgb(160,71,72)" stroke-width="1" opacity="0.75" />
		</g>
	</g>
	<g>
		<polygon class="NoName" points="2081,16 2081,16 2081,1 2070,31 2081,61 2081,46 2081,46" fill="rgb(255,255,255)" fill-opacity="1.0" stroke="rgb(50,50,50)" stroke-width="1" />
	</g>
	<g>
		<polygon class="NoName" points="2109,16 2109,16 2109,1 2084,31 2109,61 2109,46 2109,46" fill="rgb(255,255,255)" fill-opacity="1.0" stroke="rgb(50,50,50)" stroke-width="1" />
		<g>
			<title>PF00121</title>
			<polygon class="PF00121" points="2086,31 2097,18 2108,18 2108,44 2097,44" stroke-linejoin="round" width="24" height="26" fill="rgb(57,136,212)" stroke="rgb(45,108,169)" stroke-width="1" opacity="0.75" />
		</g>
	</g>
	<g>
		<polygon class="NoName" points="143,16 143,16 143,1 156,31 143,61 143,46 143,46" fill="rgb(255,255,255)" fill-opacity="1.0" stroke="rgb(50,50,50)" stroke-width="1" />
		<g>
			<title>PF01219</title>
			<polygon class="PF01219" points="145,18 147,18 153,31 147,44 145,44" stroke-linejoin="round" width="10" height="26" fill="rgb(54,189,137)" stroke="rgb(43,151,109)" stroke-width="1" opacity="0.75" />
		</g>
	</g>
	<g>
		<polygon class="NoName" points="157,16 157,16 157,1 180,31 157,61 157,46 157,46" fill="rgb(255,255,255)" fill-opacity="1.0" stroke="rgb(50,50,50)" stroke-width="1" />
		<g>
			<title>PF06293</title>
			<polygon class="PF06293" points="159,18 167,18 177,31 167,44 159,44" stroke-linejoin="round" width="20" height="26" fill="rgb(64,86,229)" stroke="rgb(51,68,183)" stroke-width="1" opacity="0.75" />
		</g>
	</g>
	<g>
		<polygon class="NoName" points="184,16 189,16 189,1 219,31 189,61 189,46 184,46" fill="rgb(255,255,255)" fill-opacity="1.0" stroke="rgb(50,50,50)" stroke-width="1" />
		<g>
			<title>PF16363</title>
			<polygon class="PF16363" points="184,18 203,18 216,31 216,31 203,44 184,44" stroke-linejoin="round" width="32" height="26" fill="rgb(162,221,65)" stroke="rgb(129,176,51)" stroke-width="1" opacity="0.75" />
		</g>
	</g>
	<g>
		<polygon class="NoName" points="219,16 219,16 219,1 247,31 219,61 219,46 219,46" fill="rgb(255,255,255)" fill-opacity="1.0" stroke="rgb(50,50,50)" stroke-width="1" />
		<g>
			<title>PF00483</title>
			<polygon class="PF00483" points="219,18 232,18 242,29 242,33 232,44 219,44" stroke-linejoin="round" width="23" height="26" fill="rgb(198,101,87)" stroke="rgb(158,80,69)" stroke-width="1" opacity="0.75" />
		</g>
	</g>
</svg>
