<svg version="1.1" baseProfile="full" xmlns="http://www.w3.org/2000/svg" width="333" height="62">
	<line x1="1" y1="31" x2="332" y2="31" style="stroke:rgb(50,50,50); stroke-width:3 "/>
	<g>
		<polygon class="NoName" points="312,16 312,16 312,1 303,31 312,61 312,46 312,46" fill="rgb(255,255,255)" fill-opacity="1.0" stroke="rgb(50,50,50)" stroke-width="1" />
		<g>
			<title>PF13601</title>
			<polygon class="PF13601" points="305,31 309,18 310,18 310,44 309,44" stroke-linejoin="round" width="7" height="26" fill="rgb(67,118,220)" stroke="rgb(53,94,176)" stroke-width="1" opacity="0.75" />
		</g>
	</g>
	<g>
		<polygon class="NoName" points="331,16 331,16 331,1 312,31 331,61 331,46 331,46" fill="rgb(255,255,255)" fill-opacity="1.0" stroke="rgb(50,50,50)" stroke-width="1" />
	</g>
	<g>
		<polygon class="NoName" points="27,16 27,16 27,1 1,31 27,61 27,46 27,46" fill="rgb(255,255,255)" fill-opacity="1.0" stroke="rgb(50,50,50)" stroke-width="1" />
		<g>
			<title>PF13489</title>
			<polygon class="PF13489" points="7,27 14,18 25,18 25,44 14,44 7,34" stroke-linejoin="round" width="18" height="26" fill="rgb(188,189,66)" stroke="rgb(150,151,52)" stroke-width="1" opacity="0.75" />
		</g>
	</g>
	<g>
		<polygon class="NoName" points="50,16 50,16 50,1 28,31 50,61 50,46 50,46" fill="rgb(255,255,255)" fill-opacity="1.0" stroke="rgb(50,50,50)" stroke-width="1" />
		<g>
			<title>PF02517</title>
			<polygon class="PF02517" points="30,31 39,19 39,42" stroke-linejoin="round" width="9" height="26" fill="rgb(150,86,216)" stroke="rgb(120,68,172)" stroke-width="1" opacity="0.75" />
		</g>
	</g>
	<g>
		<polygon class="NoName" points="78,16 78,16 78,1 51,31 78,61 78,46 78,46" fill="rgb(255,255,255)" fill-opacity="1.0" stroke="rgb(50,50,50)" stroke-width="1" />
		<g>
			<title>PF00881</title>
			<polygon class="PF00881" points="53,31 65,18 68,18 68,44 65,44" stroke-linejoin="round" width="17" height="26" fill="rgb(79,118,187)" stroke="rgb(63,94,149)" stroke-width="1" opacity="0.75" />
		</g>
	</g>
	<g>
		<polygon class="NoName" points="123,16 109,16 109,1 79,31 109,61 109,46 123,46" fill="rgb(255,255,255)" fill-opacity="1.0" stroke="rgb(50,50,50)" stroke-width="1" />
		<g>
			<title>PF02624</title>
			<polygon class="PF02624" points="83,29 94,18 117,18 117,44 94,44 83,32" stroke-linejoin="round" width="34" height="26" fill="rgb(76,84,185)" stroke="rgb(60,67,148)" stroke-width="1" opacity="0.75" />
		</g>
	</g>
	<g>
		<polygon class="NoName" points="156,16 154,16 154,1 124,31 154,61 154,46 156,46" fill="rgb(255,255,255)" fill-opacity="1.0" stroke="rgb(50,50,50)" stroke-width="1" />
	</g>
	<g>
		<polygon class="NoName" points="180,16 180,16 180,1 157,31 180,61 180,46 180,46" fill="rgb(255,255,255)" fill-opacity="1.0" stroke="rgb(50,50,50)" stroke-width="1" />
	</g>
	<g>
		<polygon class="NoName" points="234,16 234,16 234,1 210,31 234,61 234,46 234,46" fill="rgb(255,255,255)" fill-opacity="1.0" stroke="rgb(50,50,50)" stroke-width="1" />
		<g>
			<title>PF13599</title>
			<polygon class="PF13599" points="212,31 217,25 217,36" stroke-linejoin="round" width="7" height="26" fill="rgb(228,182,106)" stroke="rgb(182,145,84)" stroke-width="1" opacity="0.75" />
		</g>
		<g>
			<title>PF13599</title>
			<polygon class="PF13599" points="218,24 222,18 225,18 225,44 222,44 218,37" stroke-linejoin="round" width="7" height="26" fill="rgb(228,182,106)" stroke="rgb(182,145,84)" stroke-width="1" opacity="0.75" />
		</g>
	</g>
	<g>
		<polygon class="NoName" points="263,16 263,16 263,1 239,31 263,61 263,46 263,46" fill="rgb(255,255,255)" fill-opacity="1.0" stroke="rgb(50,50,50)" stroke-width="1" />
		<g>
			<title>PF01061</title>
			<polygon class="PF01061" points="243,29 251,18 263,18 263,44 251,44 243,32" stroke-linejoin="round" width="20" height="26" fill="rgb(139,217,106)" stroke="rgb(111,173,84)" stroke-width="1" opacity="0.75" />
		</g>
	</g>
	<g>
		<polygon class="NoName" points="301,16 301,16 301,1 272,31 301,61 301,46 301,46" fill="rgb(255,255,255)" fill-opacity="1.0" stroke="rgb(50,50,50)" stroke-width="1" />
		<g>
			<title>PF00005</title>
			<polygon class="PF00005" points="286,19 287,18 299,18 299,44 287,44 286,42" stroke-linejoin="round" width="13" height="26" fill="rgb(129,201,63)" stroke="rgb(103,160,50)" stroke-width="1" opacity="0.75" />
		</g>
	</g>
</svg>
