<svg version="1.1" baseProfile="full" xmlns="http://www.w3.org/2000/svg" width="2945" height="62">
	<line x1="1" y1="31" x2="2944" y2="31" style="stroke:rgb(50,50,50); stroke-width:3 "/>
	<g>
		<title>norA</title>
		<polygon class="norA" points="1594,16 1606,16 1606,1 1636,31 1606,61 1606,46 1594,46" fill="rgb(242,250,201)" fill-opacity="1.0" stroke="rgb(96,100,80)" stroke-width="1" />
		<g>
			<title>PF00248</title>
			<polygon class="PF00248" points="1596,18 1620,18 1626,24 1626,38 1620,44 1596,44" stroke-linejoin="round" width="30" height="26" fill="rgb(225,205,58)" stroke="rgb(180,164,46)" stroke-width="1" opacity="0.75" />
		</g>
	</g>
	<g>
		<title>ver-1</title>
		<polygon class="ver-1" points="1664,16 1664,16 1664,1 1694,31 1664,61 1664,46 1664,46" fill="rgb(181,201,253)" fill-opacity="1.0" stroke="rgb(72,80,101)" stroke-width="1" />
		<g>
			<title>PF13561</title>
			<polygon class="PF13561" points="1665,18 1678,18 1689,29 1689,33 1678,44 1665,44" stroke-linejoin="round" width="24" height="26" fill="rgb(73,205,127)" stroke="rgb(58,164,101)" stroke-width="1" opacity="0.75" />
		</g>
	</g>
	<g>
		<title>verA</title>
		<polygon class="verA" points="1728,16 1749,16 1749,1 1779,31 1749,61 1749,46 1728,46" fill="rgb(227,252,213)" fill-opacity="1.0" stroke="rgb(90,100,85)" stroke-width="1" />
		<g>
			<title>PF00067</title>
			<polygon class="PF00067" points="1728,18 1763,18 1773,28 1773,34 1763,44 1728,44" stroke-linejoin="round" width="45" height="26" fill="rgb(85,216,107)" stroke="rgb(68,172,85)" stroke-width="1" opacity="0.75" />
		</g>
	</g>
	<g>
		<title>avnA</title>
		<polygon class="avnA" points="1868,16 1845,16 1845,1 1815,31 1845,61 1845,46 1868,46" fill="rgb(210,251,213)" fill-opacity="1.0" stroke="rgb(84,100,85)" stroke-width="1" />
		<g>
			<title>PF00067</title>
			<polygon class="PF00067" points="1819,29 1830,18 1863,18 1863,44 1830,44 1819,32" stroke-linejoin="round" width="44" height="26" fill="rgb(85,216,107)" stroke="rgb(68,172,85)" stroke-width="1" opacity="0.75" />
		</g>
	</g>
	<g>
		<title>verB</title>
		<polygon class="verB" points="1931,16 1910,16 1910,1 1880,31 1910,61 1910,46 1931,46" fill="rgb(188,189,254)" fill-opacity="1.0" stroke="rgb(75,75,101)" stroke-width="1" />
		<g>
			<title>PF00067</title>
			<polygon class="PF00067" points="1883,30 1895,18 1928,18 1928,44 1895,44 1883,31" stroke-linejoin="round" width="45" height="26" fill="rgb(85,216,107)" stroke="rgb(68,172,85)" stroke-width="1" opacity="0.75" />
		</g>
	</g>
	<g>
		<title>avfA</title>
		<polygon class="avfA" points="1994,16 1994,16 1994,1 1966,31 1994,61 1994,46 1994,46" fill="rgb(193,218,253)" fill-opacity="1.0" stroke="rgb(77,87,101)" stroke-width="1" />
		<g>
			<title>PF13460</title>
			<polygon class="PF13460" points="1972,27 1980,18 1993,18 1993,44 1980,44 1972,34" stroke-linejoin="round" width="21" height="26" fill="rgb(188,201,78)" stroke="rgb(150,160,62)" stroke-width="1" opacity="0.75" />
		</g>
	</g>
	<g>
		<title>omtB</title>
		<polygon class="omtB" points="2045,16 2031,16 2031,1 2001,31 2031,61 2031,46 2045,46" fill="rgb(185,254,187)" fill-opacity="1.0" stroke="rgb(74,101,74)" stroke-width="1" />
		<g>
			<title>PF00891</title>
			<polygon class="PF00891" points="2008,26 2016,18 2030,18 2030,44 2016,44 2008,35" stroke-linejoin="round" width="22" height="26" fill="rgb(50,51,190)" stroke="rgb(39,40,152)" stroke-width="1" opacity="0.75" />
		</g>
	</g>
	<g>
		<title>omtA</title>
		<polygon class="omtA" points="2136,16 2117,16 2117,1 2087,31 2117,61 2117,46 2136,46" fill="rgb(251,241,176)" fill-opacity="1.0" stroke="rgb(100,96,70)" stroke-width="1" />
		<g>
			<title>PF00891</title>
			<polygon class="PF00891" points="2097,23 2102,18 2119,18 2119,44 2102,44 2097,38" stroke-linejoin="round" width="22" height="26" fill="rgb(50,51,190)" stroke="rgb(39,40,152)" stroke-width="1" opacity="0.75" />
		</g>
	</g>
	<g>
		<title>ordA</title>
		<polygon class="ordA" points="2178,16 2213,16 2213,1 2243,31 2213,61 2213,46 2178,46" fill="rgb(182,250,181)" fill-opacity="1.0" stroke="rgb(72,100,72)" stroke-width="1" />
		<g>
			<title>PF00067</title>
			<rect class="PF00067" x="2181" y="18" stroke-linejoin="round" width="45" height="26" fill="rgb(85,216,107)" stroke="rgb(68,172,85)" stroke-width="1" opacity="0.75" />
		</g>
	</g>
	<g>
		<title>vbs</title>
		<polygon class="vbs" points="2260,16 2296,16 2296,1 2326,31 2296,61 2296,46 2260,46" fill="rgb(191,231,251)" fill-opacity="1.0" stroke="rgb(76,92,100)" stroke-width="1" />
		<g>
			<title>PF00732</title>
			<rect class="PF00732" x="2267" y="18" stroke-linejoin="round" width="31" height="26" fill="rgb(180,89,214)" stroke="rgb(143,71,171)" stroke-width="1" opacity="0.75" />
		</g>
		<g>
			<title>PF05199</title>
			<polygon class="PF05199" points="2309,18 2310,18 2322,30 2322,32 2310,44 2309,44" stroke-linejoin="round" width="13" height="26" fill="rgb(186,52,106)" stroke="rgb(148,41,84)" stroke-width="1" opacity="0.75" />
		</g>
	</g>
	<g>
		<title>aflT</title>
		<polygon class="aflT" points="449,16 485,16 485,1 515,31 485,61 485,46 449,46" fill="rgb(250,247,207)" fill-opacity="1.0" stroke="rgb(100,98,82)" stroke-width="1" />
		<g>
			<title>PF07690</title>
			<rect class="PF07690" x="454" y="18" stroke-linejoin="round" width="39" height="26" fill="rgb(193,224,74)" stroke="rgb(154,179,59)" stroke-width="1" opacity="0.75" />
		</g>
	</g>
	<g>
		<title>cypX</title>
		<polygon class="cypX" points="2400,16 2376,16 2376,1 2346,31 2376,61 2376,46 2400,46" fill="rgb(223,250,186)" fill-opacity="1.0" stroke="rgb(89,100,74)" stroke-width="1" />
		<g>
			<title>PF00067</title>
			<polygon class="PF00067" points="2351,28 2361,18 2395,18 2395,44 2361,44 2351,33" stroke-linejoin="round" width="44" height="26" fill="rgb(85,216,107)" stroke="rgb(68,172,85)" stroke-width="1" opacity="0.75" />
		</g>
	</g>
	<g>
		<title>moxY</title>
		<polygon class="moxY" points="2421,16 2449,16 2449,1 2479,31 2449,61 2449,46 2421,46" fill="rgb(207,251,244)" fill-opacity="1.0" stroke="rgb(82,100,97)" stroke-width="1" />
		<g>
			<title>PF00743</title>
			<rect class="PF00743" x="2421" y="18" stroke-linejoin="round" width="22" height="26" fill="rgb(203,74,151)" stroke="rgb(162,59,120)" stroke-width="1" opacity="0.75" />
		</g>
	</g>
	<g>
		<title>ordB</title>
		<polygon class="ordB" points="2514,16 2514,16 2514,1 2488,31 2514,61 2514,46 2514,46" fill="rgb(251,206,210)" fill-opacity="1.0" stroke="rgb(100,82,84)" stroke-width="1" />
		<g>
			<title>PF13460</title>
			<polygon class="PF13460" points="2493,28 2501,18 2513,18 2513,44 2501,44 2493,33" stroke-linejoin="round" width="20" height="26" fill="rgb(188,201,78)" stroke="rgb(150,160,62)" stroke-width="1" opacity="0.75" />
		</g>
	</g>
	<g>
		<title>hypA</title>
		<polygon class="hypA" points="2580,16 2557,16 2557,1 2527,31 2557,61 2557,46 2580,46" fill="rgb(210,250,184)" fill-opacity="1.0" stroke="rgb(84,100,73)" stroke-width="1" />
		<g>
			<title>PF14027</title>
			<polygon class="PF14027" points="2540,20 2542,18 2573,18 2573,44 2542,44 2540,41" stroke-linejoin="round" width="33" height="26" fill="rgb(77,150,178)" stroke="rgb(61,119,142)" stroke-width="1" opacity="0.75" />
		</g>
	</g>
	<g>
		<title>pksA</title>
		<polygon class="pksA" points="791,16 601,16 601,1 571,31 601,61 601,46 791,46" fill="rgb(252,218,186)" fill-opacity="1.0" stroke="rgb(100,87,74)" stroke-width="1" />
		<g>
			<title>PF00975</title>
			<polygon class="PF00975" points="581,23 586,18 605,18 605,44 586,44 581,38" stroke-linejoin="round" width="24" height="26" fill="rgb(207,80,138)" stroke="rgb(165,63,110)" stroke-width="1" opacity="0.75" />
		</g>
		<g>
			<title>PF00550</title>
			<rect class="PF00550" x="613" y="18" stroke-linejoin="round" width="6" height="26" fill="rgb(103,191,88)" stroke="rgb(82,152,70)" stroke-width="1" opacity="0.75" />
		</g>
		<g>
			<title>PF14765</title>
			<rect class="PF14765" x="628" y="18" stroke-linejoin="round" width="31" height="26" fill="rgb(173,56,182)" stroke="rgb(138,44,145)" stroke-width="1" opacity="0.75" />
		</g>
		<g>
			<title>PF00698</title>
			<rect class="PF00698" x="669" y="18" stroke-linejoin="round" width="31" height="26" fill="rgb(59,176,209)" stroke="rgb(47,140,167)" stroke-width="1" opacity="0.75" />
		</g>
		<g>
			<title>PF16197</title>
			<rect class="PF16197" x="704" y="18" stroke-linejoin="round" width="11" height="26" fill="rgb(68,179,89)" stroke="rgb(54,143,71)" stroke-width="1" opacity="0.75" />
		</g>
		<g>
			<title>PF02801</title>
			<rect class="PF02801" x="716" y="18" stroke-linejoin="round" width="12" height="26" fill="rgb(215,78,102)" stroke="rgb(172,62,81)" stroke-width="1" opacity="0.75" />
		</g>
		<g>
			<title>PF00109</title>
			<rect class="PF00109" x="729" y="18" stroke-linejoin="round" width="24" height="26" fill="rgb(112,116,228)" stroke="rgb(89,92,182)" stroke-width="1" opacity="0.75" />
		</g>
		<g>
			<title>PF16073</title>
			<rect class="PF16073" x="767" y="18" stroke-linejoin="round" width="23" height="26" fill="rgb(77,115,183)" stroke="rgb(61,91,146)" stroke-width="1" opacity="0.75" />
		</g>
	</g>
	<g>
		<title>nor-1</title>
		<polygon class="nor-1" points="848,16 851,16 851,1 881,31 851,61 851,46 848,46" fill="rgb(181,189,250)" fill-opacity="1.0" stroke="rgb(72,75,100)" stroke-width="1" />
		<g>
			<title>PF00106</title>
			<polygon class="PF00106" points="850,18 865,18 870,23 870,39 865,44 850,44" stroke-linejoin="round" width="20" height="26" fill="rgb(182,219,73)" stroke="rgb(145,175,58)" stroke-width="1" opacity="0.75" />
		</g>
	</g>
	<g>
		<title>fas-2_hexA</title>
		<polygon class="fas-2_hexA" points="1094,16 954,16 954,1 924,31 954,61 954,46 1094,46" fill="rgb(252,212,188)" fill-opacity="1.0" stroke="rgb(100,84,75)" stroke-width="1" />
		<g>
			<title>PF01648</title>
			<polygon class="PF01648" points="928,29 939,18 939,43 928,32" stroke-linejoin="round" width="11" height="26" fill="rgb(85,184,135)" stroke="rgb(68,147,108)" stroke-width="1" opacity="0.75" />
		</g>
		<g>
			<title>PF02801</title>
			<rect class="PF02801" x="956" y="18" stroke-linejoin="round" width="12" height="26" fill="rgb(215,78,102)" stroke="rgb(172,62,81)" stroke-width="1" opacity="0.75" />
		</g>
		<g>
			<title>PF00109</title>
			<rect class="PF00109" x="974" y="18" stroke-linejoin="round" width="21" height="26" fill="rgb(112,116,228)" stroke="rgb(89,92,182)" stroke-width="1" opacity="0.75" />
		</g>
		<g>
			<title>PF08659</title>
			<rect class="PF08659" x="1035" y="18" stroke-linejoin="round" width="9" height="26" fill="rgb(66,209,188)" stroke="rgb(52,167,150)" stroke-width="1" opacity="0.75" />
		</g>
	</g>
	<g>
		<polygon class="NoName" points="1119,16 1283,16 1283,1 1313,31 1283,61 1283,46 1119,46" fill="rgb(255,255,255)" fill-opacity="1.0" stroke="rgb(50,50,50)" stroke-width="1" />
		<g>
			<title>PF08354</title>
			<rect class="PF08354" x="1205" y="18" stroke-linejoin="round" width="5" height="26" fill="rgb(199,58,132)" stroke="rgb(159,46,105)" stroke-width="1" opacity="0.75" />
		</g>
		<g>
			<title>PF13452</title>
			<rect class="PF13452" x="1231" y="18" stroke-linejoin="round" width="12" height="26" fill="rgb(215,186,64)" stroke="rgb(172,148,51)" stroke-width="1" opacity="0.75" />
		</g>
		<g>
			<title>PF01575</title>
			<rect class="PF01575" x="1257" y="18" stroke-linejoin="round" width="11" height="26" fill="rgb(218,129,86)" stroke="rgb(174,103,68)" stroke-width="1" opacity="0.75" />
		</g>
		<g>
			<title>PF00698</title>
			<polygon class="PF00698" points="1270,18 1297,18 1306,27 1306,35 1297,44 1270,44" stroke-linejoin="round" width="36" height="26" fill="rgb(59,176,209)" stroke="rgb(47,140,167)" stroke-width="1" opacity="0.75" />
		</g>
	</g>
	<g>
		<polygon class="NoName" points="1400,16 1386,16 1386,1 1356,31 1386,61 1386,46 1400,46" fill="rgb(255,255,255)" fill-opacity="1.0" stroke="rgb(50,50,50)" stroke-width="1" />
		<g>
			<title>PF08493</title>
			<polygon class="PF08493" points="1365,24 1371,18 1391,18 1391,44 1371,44 1365,37" stroke-linejoin="round" width="26" height="26" fill="rgb(86,63,214)" stroke="rgb(68,50,171)" stroke-width="1" opacity="0.75" />
		</g>
		<g>
			<title>PF00172</title>
			<rect class="PF00172" x="1394" y="18" stroke-linejoin="round" width="3" height="26" fill="rgb(121,178,76)" stroke="rgb(96,142,60)" stroke-width="1" opacity="0.75" />
		</g>
	</g>
	<g>
		<title>aflJ</title>
		<polygon class="aflJ" points="1425,16 1443,16 1443,1 1473,31 1443,61 1443,46 1425,46" fill="rgb(201,243,250)" fill-opacity="1.0" stroke="rgb(80,97,100)" stroke-width="1" />
	</g>
	<g>
		<title>adhA</title>
		<polygon class="adhA" points="1492,16 1492,16 1492,1 1519,31 1492,61 1492,46 1492,46" fill="rgb(227,254,196)" fill-opacity="1.0" stroke="rgb(90,101,78)" stroke-width="1" />
		<g>
			<title>PF00106</title>
			<polygon class="PF00106" points="1493,18 1504,18 1514,29 1514,33 1504,44 1493,44" stroke-linejoin="round" width="21" height="26" fill="rgb(182,219,73)" stroke="rgb(145,175,58)" stroke-width="1" opacity="0.75" />
		</g>
	</g>
	<g>
		<title>estA</title>
		<polygon class="estA" points="1551,16 1554,16 1554,1 1584,31 1554,61 1554,46 1551,46" fill="rgb(233,254,214)" fill-opacity="1.0" stroke="rgb(93,101,85)" stroke-width="1" />
		<g>
			<title>PF07859</title>
			<polygon class="PF07859" points="1559,18 1568,18 1579,29 1579,33 1568,44 1559,44" stroke-linejoin="round" width="20" height="26" fill="rgb(183,51,179)" stroke="rgb(146,40,143)" stroke-width="1" opacity="0.75" />
		</g>
	</g>
</svg>
