<svg version="1.1" baseProfile="full" xmlns="http://www.w3.org/2000/svg" width="393" height="62">
	<line x1="1" y1="31" x2="392" y2="31" style="stroke:rgb(50,50,50); stroke-width:3 "/>
	<g>
		<title>ecbI</title>
		<polygon class="ecbI" points="354,16 356,16 356,1 386,31 356,61 356,46 354,46" fill="rgb(223,251,204)" fill-opacity="1.0" stroke="rgb(89,100,81)" stroke-width="1" />
		<g>
			<title>PF13524</title>
			<polygon class="PF13524" points="376,24 383,31 376,38" stroke-linejoin="round" width="9" height="26" fill="rgb(67,127,200)" stroke="rgb(53,101,160)" stroke-width="1" opacity="0.75" />
		</g>
	</g>
	<g>
		<title>lipA</title>
		<polygon class="lipA" points="387,16 387,16 387,1 391,31 387,61 387,46 387,46" fill="rgb(250,220,202)" fill-opacity="1.0" stroke="rgb(100,88,80)" stroke-width="1" />
	</g>
	<g>
		<title>lipB</title>
		<polygon class="lipB" points="16,16 16,16 16,1 1,31 16,61 16,46 16,46" fill="rgb(253,188,238)" fill-opacity="1.0" stroke="rgb(101,75,95)" stroke-width="1" />
		<g>
			<title>PF05159</title>
			<polygon class="PF05159" points="3,31 7,23 7,38" stroke-linejoin="round" width="6" height="26" fill="rgb(183,215,64)" stroke="rgb(146,172,51)" stroke-width="1" opacity="0.75" />
		</g>
	</g>
	<g>
		<title>ecbA</title>
		<polygon class="ecbA" points="28,16 35,16 35,1 65,31 35,61 35,46 28,46" fill="rgb(240,197,253)" fill-opacity="1.0" stroke="rgb(96,78,101)" stroke-width="1" />
		<g>
			<title>PF02350</title>
			<polygon class="PF02350" points="30,18 49,18 62,31 49,44 30,44" stroke-linejoin="round" width="34" height="26" fill="rgb(212,113,103)" stroke="rgb(169,90,82)" stroke-width="1" opacity="0.75" />
		</g>
	</g>
	<g>
		<title>ecbB</title>
		<polygon class="ecbB" points="66,16 78,16 78,1 108,31 78,61 78,46 66,46" fill="rgb(252,210,230)" fill-opacity="1.0" stroke="rgb(100,84,92)" stroke-width="1" />
		<g>
			<title>PF03721</title>
			<rect class="PF03721" x="66" y="18" stroke-linejoin="round" width="18" height="26" fill="rgb(156,194,58)" stroke="rgb(124,155,46)" stroke-width="1" opacity="0.75" />
		</g>
		<g>
			<title>PF00984</title>
			<polygon class="PF00984" points="86,18 92,18 94,20 94,42 92,44 86,44" stroke-linejoin="round" width="8" height="26" fill="rgb(69,189,184)" stroke="rgb(55,151,147)" stroke-width="1" opacity="0.75" />
		</g>
		<g>
			<title>PF03720</title>
			<polygon class="PF03720" points="98,24 105,31 98,38" stroke-linejoin="round" width="9" height="26" fill="rgb(221,130,74)" stroke="rgb(176,103,59)" stroke-width="1" opacity="0.75" />
		</g>
	</g>
	<g>
		<title>ecbJ</title>
		<polygon class="ecbJ" points="109,16 149,16 149,1 179,31 149,61 149,46 109,46" fill="rgb(251,215,187)" fill-opacity="1.0" stroke="rgb(100,86,74)" stroke-width="1" />
		<g>
			<title>PF00535</title>
			<polygon class="PF00535" points="156,18 163,18 171,26 171,36 163,44 156,44" stroke-linejoin="round" width="15" height="26" fill="rgb(224,122,96)" stroke="rgb(179,97,76)" stroke-width="1" opacity="0.75" />
		</g>
	</g>
	<g>
		<title>ecbK</title>
		<polygon class="ecbK" points="180,16 190,16 190,1 220,31 190,61 190,46 180,46" fill="rgb(197,217,253)" fill-opacity="1.0" stroke="rgb(78,86,101)" stroke-width="1" />
	</g>
	<g>
		<title>ecbD</title>
		<polygon class="ecbD" points="220,16 231,16 231,1 261,31 231,61 231,46 220,46" fill="rgb(206,195,250)" fill-opacity="1.0" stroke="rgb(82,78,100)" stroke-width="1" />
	</g>
	<g>
		<title>ecbE</title>
		<polygon class="ecbE" points="263,16 263,16 263,1 285,31 263,61 263,46 263,46" fill="rgb(250,212,247)" fill-opacity="1.0" stroke="rgb(100,84,98)" stroke-width="1" />
	</g>
	<g>
		<title>ecbF</title>
		<polygon class="ecbF" points="287,16 287,16 287,1 299,31 287,61 287,46 287,46" fill="rgb(185,250,183)" fill-opacity="1.0" stroke="rgb(73,100,73)" stroke-width="1" />
	</g>
	<g>
		<title>ecbG</title>
		<polygon class="ecbG" points="300,16 322,16 322,1 352,31 322,61 322,46 300,46" fill="rgb(203,254,194)" fill-opacity="1.0" stroke="rgb(81,101,77)" stroke-width="1" />
		<g>
			<title>PF01636</title>
			<polygon class="PF01636" points="319,18 336,18 343,25 343,37 336,44 319,44" stroke-linejoin="round" width="24" height="26" fill="rgb(106,220,228)" stroke="rgb(84,176,182)" stroke-width="1" opacity="0.75" />
		</g>
	</g>
</svg>
