<svg version="1.1" baseProfile="full" xmlns="http://www.w3.org/2000/svg" width="309" height="62">
	<line x1="1" y1="31" x2="308" y2="31" style="stroke:rgb(50,50,50); stroke-width:3 "/>
	<g>
		<polygon class="NoName" points="1,16 1,16 1,1 29,31 1,61 1,46 1,46" fill="rgb(255,255,255)" fill-opacity="1.0" stroke="rgb(50,50,50)" stroke-width="1" />
		<g>
			<title>PF00005</title>
			<rect class="PF00005" x="1" y="18" stroke-linejoin="round" width="13" height="26" fill="rgb(129,201,63)" stroke="rgb(103,160,50)" stroke-width="1" opacity="0.75" />
		</g>
	</g>
	<g>
		<polygon class="NoName" points="29,16 29,16 29,1 54,31 29,61 29,46 29,46" fill="rgb(255,255,255)" fill-opacity="1.0" stroke="rgb(50,50,50)" stroke-width="1" />
		<g>
			<title>PF12730</title>
			<polygon class="PF12730" points="29,18 40,18 47,26 47,36 40,44 29,44" stroke-linejoin="round" width="18" height="26" fill="rgb(203,161,59)" stroke="rgb(162,128,47)" stroke-width="1" opacity="0.75" />
		</g>
	</g>
	<g>
		<polygon class="NoName" points="55,16 55,16 55,1 79,31 55,61 55,46 55,46" fill="rgb(255,255,255)" fill-opacity="1.0" stroke="rgb(50,50,50)" stroke-width="1" />
		<g>
			<title>PF12730</title>
			<polygon class="PF12730" points="55,18 66,18 73,27 73,35 66,44 55,44" stroke-linejoin="round" width="18" height="26" fill="rgb(203,161,59)" stroke="rgb(162,128,47)" stroke-width="1" opacity="0.75" />
		</g>
	</g>
	<g>
		<polygon class="NoName" points="184,16 141,16 141,1 111,31 141,61 141,46 184,46" fill="rgb(255,255,255)" fill-opacity="1.0" stroke="rgb(50,50,50)" stroke-width="1" />
		<g>
			<title>PF00005</title>
			<polygon class="PF00005" points="118,26 126,18 132,18 132,44 126,44 118,35" stroke-linejoin="round" width="14" height="26" fill="rgb(129,201,63)" stroke="rgb(103,160,50)" stroke-width="1" opacity="0.75" />
		</g>
		<g>
			<title>PF00664</title>
			<rect class="PF00664" x="139" y="18" stroke-linejoin="round" width="27" height="26" fill="rgb(149,226,73)" stroke="rgb(119,180,58)" stroke-width="1" opacity="0.75" />
		</g>
		<g>
			<title>PF03412</title>
			<rect class="PF03412" x="169" y="18" stroke-linejoin="round" width="13" height="26" fill="rgb(214,226,77)" stroke="rgb(171,180,61)" stroke-width="1" opacity="0.75" />
		</g>
	</g>
	<g>
		<polygon class="NoName" points="293,16 216,16 216,1 186,31 216,61 216,46 293,46" fill="rgb(255,255,255)" fill-opacity="1.0" stroke="rgb(50,50,50)" stroke-width="1" />
		<g>
			<title>PF05147</title>
			<polygon class="PF05147" points="188,31 201,18 221,18 221,44 201,44" stroke-linejoin="round" width="34" height="26" fill="rgb(129,182,79)" stroke="rgb(103,145,63)" stroke-width="1" opacity="0.75" />
		</g>
		<g>
			<title>PF13575</title>
			<rect class="PF13575" x="234" y="18" stroke-linejoin="round" width="37" height="26" fill="rgb(228,84,217)" stroke="rgb(182,67,173)" stroke-width="1" opacity="0.75" />
		</g>
	</g>
	<g>
		<polygon class="NoName" points="308,16 308,16 308,1 301,31 308,61 308,46 308,46" fill="rgb(255,255,255)" fill-opacity="1.0" stroke="rgb(50,50,50)" stroke-width="1" />
	</g>
</svg>
