<svg version="1.1" baseProfile="full" xmlns="http://www.w3.org/2000/svg" width="1638" height="62">
	<line x1="1" y1="31" x2="1637" y2="31" style="stroke:rgb(50,50,50); stroke-width:3 "/>
	<g>
		<title>tycB</title>
		<polygon class="tycB" points="400,16 729,16 729,1 759,31 729,61 729,46 400,46" fill="rgb(251,206,196)" fill-opacity="1.0" stroke="rgb(100,82,78)" stroke-width="1" />
		<g>
			<title>PF00668</title>
			<rect class="PF00668" x="400" y="18" stroke-linejoin="round" width="44" height="26" fill="rgb(224,184,98)" stroke="rgb(179,147,78)" stroke-width="1" opacity="0.75" />
		</g>
		<g>
			<title>PF00501</title>
			<rect class="PF00501" x="447" y="18" stroke-linejoin="round" width="39" height="26" fill="rgb(60,217,223)" stroke="rgb(48,173,178)" stroke-width="1" opacity="0.75" />
		</g>
		<g>
			<title>PF13193</title>
			<rect class="PF13193" x="487" y="18" stroke-linejoin="round" width="7" height="26" fill="rgb(182,50,118)" stroke="rgb(145,39,94)" stroke-width="1" opacity="0.75" />
		</g>
		<g>
			<title>PF00550</title>
			<rect class="PF00550" x="497" y="18" stroke-linejoin="round" width="6" height="26" fill="rgb(103,191,88)" stroke="rgb(82,152,70)" stroke-width="1" opacity="0.75" />
		</g>
		<g>
			<title>PF00668</title>
			<rect class="PF00668" x="505" y="18" stroke-linejoin="round" width="43" height="26" fill="rgb(224,184,98)" stroke="rgb(179,147,78)" stroke-width="1" opacity="0.75" />
		</g>
		<g>
			<title>PF00501</title>
			<rect class="PF00501" x="551" y="18" stroke-linejoin="round" width="39" height="26" fill="rgb(60,217,223)" stroke="rgb(48,173,178)" stroke-width="1" opacity="0.75" />
		</g>
		<g>
			<title>PF13193</title>
			<rect class="PF13193" x="591" y="18" stroke-linejoin="round" width="7" height="26" fill="rgb(182,50,118)" stroke="rgb(145,39,94)" stroke-width="1" opacity="0.75" />
		</g>
		<g>
			<title>PF00550</title>
			<rect class="PF00550" x="601" y="18" stroke-linejoin="round" width="6" height="26" fill="rgb(103,191,88)" stroke="rgb(82,152,70)" stroke-width="1" opacity="0.75" />
		</g>
		<g>
			<title>PF00668</title>
			<rect class="PF00668" x="609" y="18" stroke-linejoin="round" width="43" height="26" fill="rgb(224,184,98)" stroke="rgb(179,147,78)" stroke-width="1" opacity="0.75" />
		</g>
		<g>
			<title>PF00501</title>
			<rect class="PF00501" x="655" y="18" stroke-linejoin="round" width="38" height="26" fill="rgb(60,217,223)" stroke="rgb(48,173,178)" stroke-width="1" opacity="0.75" />
		</g>
		<g>
			<title>PF13193</title>
			<rect class="PF13193" x="694" y="18" stroke-linejoin="round" width="7" height="26" fill="rgb(182,50,118)" stroke="rgb(145,39,94)" stroke-width="1" opacity="0.75" />
		</g>
		<g>
			<title>PF00550</title>
			<rect class="PF00550" x="704" y="18" stroke-linejoin="round" width="6" height="26" fill="rgb(103,191,88)" stroke="rgb(82,152,70)" stroke-width="1" opacity="0.75" />
		</g>
		<g>
			<title>PF00668</title>
			<polygon class="PF00668" points="712,18 743,18 756,31 743,44 712,44" stroke-linejoin="round" width="45" height="26" fill="rgb(224,184,98)" stroke="rgb(179,147,78)" stroke-width="1" opacity="0.75" />
		</g>
	</g>
	<g>
		<title>tycC</title>
		<polygon class="tycC" points="762,16 1380,16 1380,1 1410,31 1380,61 1380,46 762,46" fill="rgb(192,185,250)" fill-opacity="1.0" stroke="rgb(76,73,100)" stroke-width="1" />
		<g>
			<title>PF00668</title>
			<rect class="PF00668" x="762" y="18" stroke-linejoin="round" width="44" height="26" fill="rgb(224,184,98)" stroke="rgb(179,147,78)" stroke-width="1" opacity="0.75" />
		</g>
		<g>
			<title>PF00501</title>
			<rect class="PF00501" x="809" y="18" stroke-linejoin="round" width="39" height="26" fill="rgb(60,217,223)" stroke="rgb(48,173,178)" stroke-width="1" opacity="0.75" />
		</g>
		<g>
			<title>PF13193</title>
			<rect class="PF13193" x="849" y="18" stroke-linejoin="round" width="7" height="26" fill="rgb(182,50,118)" stroke="rgb(145,39,94)" stroke-width="1" opacity="0.75" />
		</g>
		<g>
			<title>PF00550</title>
			<rect class="PF00550" x="859" y="18" stroke-linejoin="round" width="6" height="26" fill="rgb(103,191,88)" stroke="rgb(82,152,70)" stroke-width="1" opacity="0.75" />
		</g>
		<g>
			<title>PF00668</title>
			<rect class="PF00668" x="867" y="18" stroke-linejoin="round" width="43" height="26" fill="rgb(224,184,98)" stroke="rgb(179,147,78)" stroke-width="1" opacity="0.75" />
		</g>
		<g>
			<title>PF00501</title>
			<rect class="PF00501" x="912" y="18" stroke-linejoin="round" width="39" height="26" fill="rgb(60,217,223)" stroke="rgb(48,173,178)" stroke-width="1" opacity="0.75" />
		</g>
		<g>
			<title>PF13193</title>
			<rect class="PF13193" x="952" y="18" stroke-linejoin="round" width="7" height="26" fill="rgb(182,50,118)" stroke="rgb(145,39,94)" stroke-width="1" opacity="0.75" />
		</g>
		<g>
			<title>PF00550</title>
			<rect class="PF00550" x="962" y="18" stroke-linejoin="round" width="6" height="26" fill="rgb(103,191,88)" stroke="rgb(82,152,70)" stroke-width="1" opacity="0.75" />
		</g>
		<g>
			<title>PF00668</title>
			<rect class="PF00668" x="970" y="18" stroke-linejoin="round" width="43" height="26" fill="rgb(224,184,98)" stroke="rgb(179,147,78)" stroke-width="1" opacity="0.75" />
		</g>
		<g>
			<title>PF00501</title>
			<rect class="PF00501" x="1016" y="18" stroke-linejoin="round" width="39" height="26" fill="rgb(60,217,223)" stroke="rgb(48,173,178)" stroke-width="1" opacity="0.75" />
		</g>
		<g>
			<title>PF13193</title>
			<rect class="PF13193" x="1056" y="18" stroke-linejoin="round" width="7" height="26" fill="rgb(182,50,118)" stroke="rgb(145,39,94)" stroke-width="1" opacity="0.75" />
		</g>
		<g>
			<title>PF00550</title>
			<rect class="PF00550" x="1066" y="18" stroke-linejoin="round" width="6" height="26" fill="rgb(103,191,88)" stroke="rgb(82,152,70)" stroke-width="1" opacity="0.75" />
		</g>
		<g>
			<title>PF00668</title>
			<rect class="PF00668" x="1074" y="18" stroke-linejoin="round" width="43" height="26" fill="rgb(224,184,98)" stroke="rgb(179,147,78)" stroke-width="1" opacity="0.75" />
		</g>
		<g>
			<title>PF00501</title>
			<rect class="PF00501" x="1120" y="18" stroke-linejoin="round" width="39" height="26" fill="rgb(60,217,223)" stroke="rgb(48,173,178)" stroke-width="1" opacity="0.75" />
		</g>
		<g>
			<title>PF13193</title>
			<rect class="PF13193" x="1160" y="18" stroke-linejoin="round" width="7" height="26" fill="rgb(182,50,118)" stroke="rgb(145,39,94)" stroke-width="1" opacity="0.75" />
		</g>
		<g>
			<title>PF00550</title>
			<rect class="PF00550" x="1170" y="18" stroke-linejoin="round" width="6" height="26" fill="rgb(103,191,88)" stroke="rgb(82,152,70)" stroke-width="1" opacity="0.75" />
		</g>
		<g>
			<title>PF00668</title>
			<rect class="PF00668" x="1178" y="18" stroke-linejoin="round" width="43" height="26" fill="rgb(224,184,98)" stroke="rgb(179,147,78)" stroke-width="1" opacity="0.75" />
		</g>
		<g>
			<title>PF00501</title>
			<rect class="PF00501" x="1223" y="18" stroke-linejoin="round" width="40" height="26" fill="rgb(60,217,223)" stroke="rgb(48,173,178)" stroke-width="1" opacity="0.75" />
		</g>
		<g>
			<title>PF13193</title>
			<rect class="PF13193" x="1264" y="18" stroke-linejoin="round" width="7" height="26" fill="rgb(182,50,118)" stroke="rgb(145,39,94)" stroke-width="1" opacity="0.75" />
		</g>
		<g>
			<title>PF00550</title>
			<rect class="PF00550" x="1274" y="18" stroke-linejoin="round" width="6" height="26" fill="rgb(103,191,88)" stroke="rgb(82,152,70)" stroke-width="1" opacity="0.75" />
		</g>
		<g>
			<title>PF00668</title>
			<rect class="PF00668" x="1282" y="18" stroke-linejoin="round" width="43" height="26" fill="rgb(224,184,98)" stroke="rgb(179,147,78)" stroke-width="1" opacity="0.75" />
		</g>
		<g>
			<title>PF00501</title>
			<rect class="PF00501" x="1328" y="18" stroke-linejoin="round" width="39" height="26" fill="rgb(60,217,223)" stroke="rgb(48,173,178)" stroke-width="1" opacity="0.75" />
		</g>
		<g>
			<title>PF13193</title>
			<rect class="PF13193" x="1368" y="18" stroke-linejoin="round" width="7" height="26" fill="rgb(182,50,118)" stroke="rgb(145,39,94)" stroke-width="1" opacity="0.75" />
		</g>
		<g>
			<title>PF00550</title>
			<rect class="PF00550" x="1379" y="18" stroke-linejoin="round" width="6" height="26" fill="rgb(103,191,88)" stroke="rgb(82,152,70)" stroke-width="1" opacity="0.75" />
		</g>
		<g>
			<title>PF00975</title>
			<polygon class="PF00975" points="1387,18 1394,18 1406,30 1406,32 1394,44 1387,44" stroke-linejoin="round" width="19" height="26" fill="rgb(207,80,138)" stroke="rgb(165,63,110)" stroke-width="1" opacity="0.75" />
		</g>
	</g>
	<g>
		<title>tycD</title>
		<polygon class="tycD" points="1414,16 1443,16 1443,1 1473,31 1443,61 1443,46 1414,46" fill="rgb(204,250,251)" fill-opacity="1.0" stroke="rgb(81,100,100)" stroke-width="1" />
		<g>
			<title>PF00664</title>
			<rect class="PF00664" x="1416" y="18" stroke-linejoin="round" width="26" height="26" fill="rgb(149,226,73)" stroke="rgb(119,180,58)" stroke-width="1" opacity="0.75" />
		</g>
		<g>
			<title>PF00005</title>
			<polygon class="PF00005" points="1449,18 1457,18 1464,25 1464,37 1457,44 1449,44" stroke-linejoin="round" width="15" height="26" fill="rgb(129,201,63)" stroke="rgb(103,160,50)" stroke-width="1" opacity="0.75" />
		</g>
	</g>
	<g>
		<title>tycE</title>
		<polygon class="tycE" points="1475,16 1503,16 1503,1 1533,31 1503,61 1503,46 1475,46" fill="rgb(213,194,252)" fill-opacity="1.0" stroke="rgb(85,77,100)" stroke-width="1" />
		<g>
			<title>PF00664</title>
			<rect class="PF00664" x="1476" y="18" stroke-linejoin="round" width="26" height="26" fill="rgb(149,226,73)" stroke="rgb(119,180,58)" stroke-width="1" opacity="0.75" />
		</g>
		<g>
			<title>PF00005</title>
			<polygon class="PF00005" points="1509,18 1517,18 1523,24 1523,38 1517,44 1509,44" stroke-linejoin="round" width="14" height="26" fill="rgb(129,201,63)" stroke="rgb(103,160,50)" stroke-width="1" opacity="0.75" />
		</g>
	</g>
	<g>
		<polygon class="NoName" points="1533,16 1533,16 1533,1 1556,31 1533,61 1533,46 1533,46" fill="rgb(255,255,255)" fill-opacity="1.0" stroke="rgb(50,50,50)" stroke-width="1" />
		<g>
			<title>PF01648</title>
			<polygon class="PF01648" points="1543,18 1543,18 1553,31 1553,31 1543,44 1543,44" stroke-linejoin="round" width="10" height="26" fill="rgb(85,184,135)" stroke="rgb(68,147,108)" stroke-width="1" opacity="0.75" />
		</g>
	</g>
	<g>
		<title>tycF</title>
		<polygon class="tycF" points="1558,16 1558,16 1558,1 1582,31 1558,61 1558,46 1558,46" fill="rgb(197,230,253)" fill-opacity="1.0" stroke="rgb(78,92,101)" stroke-width="1" />
		<g>
			<title>PF00975</title>
			<polygon class="PF00975" points="1558,18 1569,18 1579,31 1569,44 1558,44" stroke-linejoin="round" width="22" height="26" fill="rgb(207,80,138)" stroke="rgb(165,63,110)" stroke-width="1" opacity="0.75" />
		</g>
	</g>
	<g>
		<polygon class="NoName" points="1584,16 1606,16 1606,1 1636,31 1606,61 1606,46 1584,46" fill="rgb(255,255,255)" fill-opacity="1.0" stroke="rgb(50,50,50)" stroke-width="1" />
	</g>
	<g>
		<polygon class="NoName" points="1,16 26,16 26,1 56,31 26,61 26,46 1,46" fill="rgb(255,255,255)" fill-opacity="1.0" stroke="rgb(50,50,50)" stroke-width="1" />
	</g>
	<g>
		<polygon class="NoName" points="61,16 61,16 61,1 67,31 61,61 61,46 61,46" fill="rgb(255,255,255)" fill-opacity="1.0" stroke="rgb(50,50,50)" stroke-width="1" />
		<g>
			<title>PF00005</title>
			<polygon class="PF00005" points="64,27 64,31 64,35" stroke-linejoin="round" width="3" height="26" fill="rgb(129,201,63)" stroke="rgb(103,160,50)" stroke-width="1" opacity="0.75" />
		</g>
	</g>
	<g>
		<polygon class="NoName" points="71,16 71,16 71,1 90,31 71,61 71,46 71,46" fill="rgb(255,255,255)" fill-opacity="1.0" stroke="rgb(50,50,50)" stroke-width="1" />
		<g>
			<title>PF00005</title>
			<polygon class="PF00005" points="76,18 79,18 80,19 80,43 79,44 76,44" stroke-linejoin="round" width="4" height="26" fill="rgb(129,201,63)" stroke="rgb(103,160,50)" stroke-width="1" opacity="0.75" />
		</g>
	</g>
	<g>
		<title>tyrS</title>
		<polygon class="tyrS" points="98,16 110,16 110,1 140,31 110,61 110,46 98,46" fill="rgb(186,253,217)" fill-opacity="1.0" stroke="rgb(74,101,86)" stroke-width="1" />
		<g>
			<title>PF00579</title>
			<polygon class="PF00579" points="100,18 124,18 129,23 129,39 124,44 100,44" stroke-linejoin="round" width="29" height="26" fill="rgb(82,63,204)" stroke="rgb(65,50,163)" stroke-width="1" opacity="0.75" />
		</g>
		<g>
			<title>PF01479</title>
			<polygon class="PF01479" points="133,27 137,31 137,31 133,35" stroke-linejoin="round" width="4" height="26" fill="rgb(93,184,76)" stroke="rgb(74,147,60)" stroke-width="1" opacity="0.75" />
		</g>
	</g>
	<g>
		<polygon class="NoName" points="213,16 173,16 173,1 143,31 173,61 173,46 213,46" fill="rgb(255,255,255)" fill-opacity="1.0" stroke="rgb(50,50,50)" stroke-width="1" />
	</g>
	<g>
		<polygon class="NoName" points="216,16 216,16 216,1 228,31 216,61 216,46 216,46" fill="rgb(255,255,255)" fill-opacity="1.0" stroke="rgb(50,50,50)" stroke-width="1" />
		<g>
			<title>PF12802</title>
			<polygon class="PF12802" points="216,18 220,18 221,19 221,43 220,44 216,44" stroke-linejoin="round" width="5" height="26" fill="rgb(46,89,185)" stroke="rgb(36,71,148)" stroke-width="1" opacity="0.75" />
		</g>
	</g>
	<g>
		<polygon class="NoName" points="228,16 237,16 237,1 267,31 237,61 237,46 228,46" fill="rgb(255,255,255)" fill-opacity="1.0" stroke="rgb(50,50,50)" stroke-width="1" />
		<g>
			<title>PF07690</title>
			<polygon class="PF07690" points="229,18 251,18 259,26 259,36 251,44 229,44" stroke-linejoin="round" width="30" height="26" fill="rgb(193,224,74)" stroke="rgb(154,179,59)" stroke-width="1" opacity="0.75" />
		</g>
	</g>
	<g>
		<polygon class="NoName" points="275,16 275,16 275,1 278,31 275,61 275,46 275,46" fill="rgb(255,255,255)" fill-opacity="1.0" stroke="rgb(50,50,50)" stroke-width="1" />
	</g>
	<g>
		<title>tycA</title>
		<polygon class="tycA" points="287,16 366,16 366,1 396,31 366,61 366,46 287,46" fill="rgb(223,251,205)" fill-opacity="1.0" stroke="rgb(89,100,82)" stroke-width="1" />
		<g>
			<title>PF00501</title>
			<rect class="PF00501" x="290" y="18" stroke-linejoin="round" width="39" height="26" fill="rgb(60,217,223)" stroke="rgb(48,173,178)" stroke-width="1" opacity="0.75" />
		</g>
		<g>
			<title>PF13193</title>
			<rect class="PF13193" x="330" y="18" stroke-linejoin="round" width="7" height="26" fill="rgb(182,50,118)" stroke="rgb(145,39,94)" stroke-width="1" opacity="0.75" />
		</g>
		<g>
			<title>PF00550</title>
			<rect class="PF00550" x="340" y="18" stroke-linejoin="round" width="6" height="26" fill="rgb(103,191,88)" stroke="rgb(82,152,70)" stroke-width="1" opacity="0.75" />
		</g>
		<g>
			<title>PF00668</title>
			<polygon class="PF00668" points="348,18 380,18 393,31 380,44 348,44" stroke-linejoin="round" width="46" height="26" fill="rgb(224,184,98)" stroke="rgb(179,147,78)" stroke-width="1" opacity="0.75" />
		</g>
	</g>
</svg>
