<svg version="1.1" baseProfile="full" xmlns="http://www.w3.org/2000/svg" width="1246" height="62">
	<line x1="1" y1="31" x2="1245" y2="31" style="stroke:rgb(50,50,50); stroke-width:3 "/>
	<g>
		<title>amiH</title>
		<polygon class="amiH" points="551,16 551,16 551,1 576,31 551,61 551,46 551,46" fill="rgb(183,179,251)" fill-opacity="1.0" stroke="rgb(73,71,100)" stroke-width="1" />
		<g>
			<title>PF13489</title>
			<polygon class="PF13489" points="553,18 562,18 572,30 572,32 562,44 553,44" stroke-linejoin="round" width="19" height="26" fill="rgb(188,189,66)" stroke="rgb(150,151,52)" stroke-width="1" opacity="0.75" />
		</g>
	</g>
	<g>
		<title>amiI</title>
		<polygon class="amiI" points="576,16 576,16 576,1 594,31 576,61 576,46 576,46" fill="rgb(244,197,251)" fill-opacity="1.0" stroke="rgb(97,78,100)" stroke-width="1" />
		<g>
			<title>PF05014</title>
			<polygon class="PF05014" points="577,18 583,18 589,27 589,35 583,44 577,44" stroke-linejoin="round" width="12" height="26" fill="rgb(142,182,49)" stroke="rgb(113,145,39)" stroke-width="1" opacity="0.75" />
		</g>
	</g>
	<g>
		<title>amiJ</title>
		<polygon class="amiJ" points="595,16 605,16 605,1 635,31 605,61 605,46 595,46" fill="rgb(179,193,251)" fill-opacity="1.0" stroke="rgb(71,77,100)" stroke-width="1" />
	</g>
	<g>
		<title>amiK</title>
		<polygon class="amiK" points="635,16 636,16 636,1 666,31 636,61 636,46 635,46" fill="rgb(193,254,185)" fill-opacity="1.0" stroke="rgb(77,101,74)" stroke-width="1" />
		<g>
			<title>PF01370</title>
			<polygon class="PF01370" points="635,18 650,18 658,26 658,36 650,44 635,44" stroke-linejoin="round" width="23" height="26" fill="rgb(98,102,214)" stroke="rgb(78,81,171)" stroke-width="1" opacity="0.75" />
		</g>
	</g>
	<g>
		<title>amiL</title>
		<polygon class="amiL" points="668,16 687,16 687,1 717,31 687,61 687,46 668,46" fill="rgb(212,250,239)" fill-opacity="1.0" stroke="rgb(84,100,95)" stroke-width="1" />
		<g>
			<title>PF00501</title>
			<polygon class="PF00501" points="669,18 701,18 707,24 707,38 701,44 669,44" stroke-linejoin="round" width="38" height="26" fill="rgb(60,217,223)" stroke="rgb(48,173,178)" stroke-width="1" opacity="0.75" />
		</g>
		<g>
			<title>PF13193</title>
			<polygon class="PF13193" points="708,25 714,31 708,37" stroke-linejoin="round" width="7" height="26" fill="rgb(182,50,118)" stroke="rgb(145,39,94)" stroke-width="1" opacity="0.75" />
		</g>
	</g>
	<g>
		<title>amiM</title>
		<polygon class="amiM" points="718,16 755,16 755,1 785,31 755,61 755,46 718,46" fill="rgb(198,251,200)" fill-opacity="1.0" stroke="rgb(79,100,80)" stroke-width="1" />
		<g>
			<title>PF00117</title>
			<rect class="PF00117" x="718" y="18" stroke-linejoin="round" width="18" height="26" fill="rgb(159,201,96)" stroke="rgb(127,160,76)" stroke-width="1" opacity="0.75" />
		</g>
		<g>
			<title>PF04715</title>
			<rect class="PF04715" x="740" y="18" stroke-linejoin="round" width="13" height="26" fill="rgb(163,87,183)" stroke="rgb(130,69,146)" stroke-width="1" opacity="0.75" />
		</g>
		<g>
			<title>PF00425</title>
			<polygon class="PF00425" points="759,18 769,18 782,31 769,44 759,44" stroke-linejoin="round" width="25" height="26" fill="rgb(188,116,88)" stroke="rgb(150,92,70)" stroke-width="1" opacity="0.75" />
		</g>
	</g>
	<g>
		<title>amiN</title>
		<polygon class="amiN" points="787,16 801,16 801,1 831,31 801,61 801,46 787,46" fill="rgb(250,248,209)" fill-opacity="1.0" stroke="rgb(100,99,83)" stroke-width="1" />
		<g>
			<title>PF01041</title>
			<polygon class="PF01041" points="791,18 815,18 828,31 815,44 791,44" stroke-linejoin="round" width="38" height="26" fill="rgb(59,139,191)" stroke="rgb(47,111,152)" stroke-width="1" opacity="0.75" />
		</g>
	</g>
	<g>
		<title>amiO</title>
		<polygon class="amiO" points="833,16 859,16 859,1 889,31 859,61 859,46 833,46" fill="rgb(214,252,196)" fill-opacity="1.0" stroke="rgb(85,100,78)" stroke-width="1" />
		<g>
			<title>PF00005</title>
			<rect class="PF00005" x="835" y="18" stroke-linejoin="round" width="16" height="26" fill="rgb(129,201,63)" stroke="rgb(103,160,50)" stroke-width="1" opacity="0.75" />
		</g>
		<g>
			<title>PF12848</title>
			<rect class="PF12848" x="856" y="18" stroke-linejoin="round" width="8" height="26" fill="rgb(54,177,199)" stroke="rgb(43,141,159)" stroke-width="1" opacity="0.75" />
		</g>
		<g>
			<title>PF00005</title>
			<polygon class="PF00005" points="867,18 873,18 882,27 882,35 873,44 867,44" stroke-linejoin="round" width="15" height="26" fill="rgb(129,201,63)" stroke="rgb(103,160,50)" stroke-width="1" opacity="0.75" />
		</g>
	</g>
	<g>
		<title>amiP</title>
		<polygon class="amiP" points="900,16 900,16 900,1 921,31 900,61 900,46 900,46" fill="rgb(252,222,206)" fill-opacity="1.0" stroke="rgb(100,88,82)" stroke-width="1" />
		<g>
			<title>PF00440</title>
			<rect class="PF00440" x="901" y="18" stroke-linejoin="round" width="4" height="26" fill="rgb(73,212,190)" stroke="rgb(58,169,152)" stroke-width="1" opacity="0.75" />
		</g>
		<g>
			<title>PF13977</title>
			<polygon class="PF13977" points="908,18 909,18 918,31 918,31 909,44 908,44" stroke-linejoin="round" width="10" height="26" fill="rgb(99,210,174)" stroke="rgb(79,168,139)" stroke-width="1" opacity="0.75" />
		</g>
	</g>
	<g>
		<title>amiQ</title>
		<polygon class="amiQ" points="923,16 932,16 932,1 962,31 932,61 932,46 923,46" fill="rgb(243,253,212)" fill-opacity="1.0" stroke="rgb(97,101,84)" stroke-width="1" />
		<g>
			<title>PF07690</title>
			<polygon class="PF07690" points="923,18 946,18 954,26 954,36 946,44 923,44" stroke-linejoin="round" width="31" height="26" fill="rgb(193,224,74)" stroke="rgb(154,179,59)" stroke-width="1" opacity="0.75" />
		</g>
	</g>
	<g>
		<polygon class="NoName" points="65,16 69,16 69,1 99,31 69,61 69,46 65,46" fill="rgb(255,255,255)" fill-opacity="1.0" stroke="rgb(50,50,50)" stroke-width="1" />
		<g>
			<title>PF03861</title>
			<polygon class="PF03861" points="93,28 96,31 93,34" stroke-linejoin="round" width="5" height="26" fill="rgb(113,53,203)" stroke="rgb(90,42,162)" stroke-width="1" opacity="0.75" />
		</g>
	</g>
	<g>
		<title>amiR</title>
		<polygon class="amiR" points="965,16 965,16 965,1 995,31 965,61 965,46 965,46" fill="rgb(252,253,184)" fill-opacity="1.0" stroke="rgb(100,101,73)" stroke-width="1" />
	</g>
	<g>
		<title>amiS</title>
		<polygon class="amiS" points="998,16 1013,16 1013,1 1043,31 1013,61 1013,46 998,46" fill="rgb(253,230,181)" fill-opacity="1.0" stroke="rgb(101,92,72)" stroke-width="1" />
		<g>
			<title>PF00464</title>
			<polygon class="PF00464" points="1000,18 1027,18 1038,29 1038,33 1027,44 1000,44" stroke-linejoin="round" width="38" height="26" fill="rgb(215,97,215)" stroke="rgb(172,77,172)" stroke-width="1" opacity="0.75" />
		</g>
	</g>
	<g>
		<title>amiT</title>
		<polygon class="amiT" points="1045,16 1097,16 1097,1 1127,31 1097,61 1097,46 1045,46" fill="rgb(250,202,221)" fill-opacity="1.0" stroke="rgb(100,80,88)" stroke-width="1" />
		<g>
			<title>PF00501</title>
			<rect class="PF00501" x="1068" y="18" stroke-linejoin="round" width="40" height="26" fill="rgb(60,217,223)" stroke="rgb(48,173,178)" stroke-width="1" opacity="0.75" />
		</g>
		<g>
			<title>PF13193</title>
			<polygon class="PF13193" points="1109,18 1111,18 1116,23 1116,39 1111,44 1109,44" stroke-linejoin="round" width="7" height="26" fill="rgb(182,50,118)" stroke="rgb(145,39,94)" stroke-width="1" opacity="0.75" />
		</g>
		<g>
			<title>PF00550</title>
			<polygon class="PF00550" points="1120,27 1124,31 1120,35" stroke-linejoin="round" width="6" height="26" fill="rgb(103,191,88)" stroke="rgb(82,152,70)" stroke-width="1" opacity="0.75" />
		</g>
	</g>
	<g>
		<title>amiU</title>
		<polygon class="amiU" points="1128,16 1133,16 1133,1 1163,31 1133,61 1133,46 1128,46" fill="rgb(250,214,209)" fill-opacity="1.0" stroke="rgb(100,85,83)" stroke-width="1" />
		<g>
			<title>PF16363</title>
			<polygon class="PF16363" points="1128,18 1147,18 1159,30 1159,32 1147,44 1128,44" stroke-linejoin="round" width="31" height="26" fill="rgb(162,221,65)" stroke="rgb(129,176,51)" stroke-width="1" opacity="0.75" />
		</g>
	</g>
	<g>
		<polygon class="NoName" points="1207,16 1207,16 1207,1 1189,31 1207,61 1207,46 1207,46" fill="rgb(255,255,255)" fill-opacity="1.0" stroke="rgb(50,50,50)" stroke-width="1" />
		<g>
			<title>PF13302</title>
			<polygon class="PF13302" points="1192,29 1199,18 1206,18 1206,44 1199,44 1192,32" stroke-linejoin="round" width="14" height="26" fill="rgb(105,146,215)" stroke="rgb(84,116,172)" stroke-width="1" opacity="0.75" />
		</g>
	</g>
	<g>
		<polygon class="NoName" points="163,16 172,16 172,1 202,31 172,61 172,46 163,46" fill="rgb(255,255,255)" fill-opacity="1.0" stroke="rgb(50,50,50)" stroke-width="1" />
		<g>
			<title>PF07228</title>
			<polygon class="PF07228" points="183,18 186,18 199,31 186,44 183,44" stroke-linejoin="round" width="18" height="26" fill="rgb(85,195,217)" stroke="rgb(68,155,173)" stroke-width="1" opacity="0.75" />
		</g>
	</g>
	<g>
		<title>amiA</title>
		<polygon class="amiA" points="264,16 264,16 264,1 290,31 264,61 264,46 264,46" fill="rgb(178,253,230)" fill-opacity="1.0" stroke="rgb(71,101,92)" stroke-width="1" />
		<g>
			<title>PF01063</title>
			<polygon class="PF01063" points="266,18 276,18 287,31 287,31 276,44 266,44" stroke-linejoin="round" width="21" height="26" fill="rgb(52,144,188)" stroke="rgb(41,115,150)" stroke-width="1" opacity="0.75" />
		</g>
	</g>
	<g>
		<title>amiB</title>
		<polygon class="amiB" points="306,16 313,16 313,1 343,31 313,61 313,46 306,46" fill="rgb(207,210,252)" fill-opacity="1.0" stroke="rgb(82,84,100)" stroke-width="1" />
		<g>
			<title>PF01041</title>
			<polygon class="PF01041" points="307,18 327,18 340,31 327,44 307,44" stroke-linejoin="round" width="35" height="26" fill="rgb(59,139,191)" stroke="rgb(47,111,152)" stroke-width="1" opacity="0.75" />
		</g>
	</g>
	<g>
		<title>amic</title>
		<polygon class="amic" points="343,16 358,16 358,1 388,31 358,61 358,46 343,46" fill="rgb(216,253,196)" fill-opacity="1.0" stroke="rgb(86,101,78)" stroke-width="1" />
		<g>
			<title>PF03559</title>
			<rect class="PF03559" x="345" y="18" stroke-linejoin="round" width="20" height="26" fill="rgb(74,201,66)" stroke="rgb(59,160,52)" stroke-width="1" opacity="0.75" />
		</g>
		<g>
			<title>PF03559</title>
			<polygon class="PF03559" points="368,18 372,18 385,31 372,44 368,44" stroke-linejoin="round" width="19" height="26" fill="rgb(74,201,66)" stroke="rgb(59,160,52)" stroke-width="1" opacity="0.75" />
		</g>
	</g>
	<g>
		<title>amiD</title>
		<polygon class="amiD" points="389,16 391,16 391,1 421,31 391,61 391,46 389,46" fill="rgb(201,182,250)" fill-opacity="1.0" stroke="rgb(80,72,100)" stroke-width="1" />
		<g>
			<title>PF01408</title>
			<rect class="PF01408" x="389" y="18" stroke-linejoin="round" width="11" height="26" fill="rgb(76,117,190)" stroke="rgb(60,93,152)" stroke-width="1" opacity="0.75" />
		</g>
	</g>
	<g>
		<title>amiE</title>
		<polygon class="amiE" points="426,16 426,16 426,1 451,31 426,61 426,46 426,46" fill="rgb(250,232,182)" fill-opacity="1.0" stroke="rgb(100,92,72)" stroke-width="1" />
		<g>
			<title>PF00483</title>
			<polygon class="PF00483" points="427,18 437,18 448,31 437,44 427,44" stroke-linejoin="round" width="24" height="26" fill="rgb(198,101,87)" stroke="rgb(158,80,69)" stroke-width="1" opacity="0.75" />
		</g>
	</g>
	<g>
		<title>amiF</title>
		<polygon class="amiF" points="454,16 470,16 470,1 500,31 470,61 470,46 454,46" fill="rgb(252,189,245)" fill-opacity="1.0" stroke="rgb(100,75,98)" stroke-width="1" />
		<g>
			<title>PF00583</title>
			<rect class="PF00583" x="458" y="18" stroke-linejoin="round" width="10" height="26" fill="rgb(121,183,50)" stroke="rgb(96,146,39)" stroke-width="1" opacity="0.75" />
		</g>
	</g>
	<g>
		<title>amiG</title>
		<polygon class="amiG" points="502,16 521,16 521,1 551,31 521,61 521,46 502,46" fill="rgb(209,254,221)" fill-opacity="1.0" stroke="rgb(83,101,88)" stroke-width="1" />
		<g>
			<title>PF13579</title>
			<rect class="PF13579" x="503" y="18" stroke-linejoin="round" width="16" height="26" fill="rgb(143,60,202)" stroke="rgb(114,47,161)" stroke-width="1" opacity="0.75" />
		</g>
		<g>
			<title>PF00534</title>
			<polygon class="PF00534" points="520,18 535,18 536,19 536,43 535,44 520,44" stroke-linejoin="round" width="16" height="26" fill="rgb(228,92,150)" stroke="rgb(182,73,119)" stroke-width="1" opacity="0.75" />
		</g>
	</g>
</svg>
