<svg version="1.1" baseProfile="full" xmlns="http://www.w3.org/2000/svg" width="434" height="62">
	<line x1="1" y1="31" x2="433" y2="31" style="stroke:rgb(50,50,50); stroke-width:3 "/>
	<g>
		<polygon class="NoName" points="1,16 37,16 37,1 67,31 37,61 37,46 1,46" fill="rgb(255,255,255)" fill-opacity="1.0" stroke="rgb(50,50,50)" stroke-width="1" />
		<g>
			<title>PF00082</title>
			<rect class="PF00082" x="2" y="18" stroke-linejoin="round" width="29" height="26" fill="rgb(193,159,94)" stroke="rgb(154,127,75)" stroke-width="1" opacity="0.75" />
		</g>
	</g>
	<g>
		<polygon class="NoName" points="70,16 70,16 70,1 78,31 70,61 70,46 70,46" fill="rgb(255,255,255)" fill-opacity="1.0" stroke="rgb(50,50,50)" stroke-width="1" />
	</g>
	<g>
		<polygon class="NoName" points="80,16 80,16 80,1 105,31 80,61 80,46 80,46" fill="rgb(255,255,255)" fill-opacity="1.0" stroke="rgb(50,50,50)" stroke-width="1" />
	</g>
	<g>
		<polygon class="NoName" points="107,16 154,16 154,1 184,31 154,61 154,46 107,46" fill="rgb(255,255,255)" fill-opacity="1.0" stroke="rgb(50,50,50)" stroke-width="1" />
		<g>
			<title>PF02624</title>
			<polygon class="PF02624" points="147,18 168,18 180,30 180,32 168,44 147,44" stroke-linejoin="round" width="33" height="26" fill="rgb(76,84,185)" stroke="rgb(60,67,148)" stroke-width="1" opacity="0.75" />
		</g>
	</g>
	<g>
		<polygon class="NoName" points="189,16 189,16 189,1 196,31 189,61 189,46 189,46" fill="rgb(255,255,255)" fill-opacity="1.0" stroke="rgb(50,50,50)" stroke-width="1" />
	</g>
	<g>
		<polygon class="NoName" points="201,16 232,16 232,1 262,31 232,61 232,46 201,46" fill="rgb(255,255,255)" fill-opacity="1.0" stroke="rgb(50,50,50)" stroke-width="1" />
		<g>
			<title>PF08241</title>
			<rect class="PF08241" x="211" y="18" stroke-linejoin="round" width="9" height="26" fill="rgb(106,219,159)" stroke="rgb(84,175,127)" stroke-width="1" opacity="0.75" />
		</g>
	</g>
	<g>
		<polygon class="NoName" points="265,16 267,16 267,1 297,31 267,61 267,46 265,46" fill="rgb(255,255,255)" fill-opacity="1.0" stroke="rgb(50,50,50)" stroke-width="1" />
	</g>
	<g>
		<polygon class="NoName" points="304,16 403,16 403,1 433,31 403,61 403,46 304,46" fill="rgb(255,255,255)" fill-opacity="1.0" stroke="rgb(50,50,50)" stroke-width="1" />
		<g>
			<title>PF00881</title>
			<rect class="PF00881" x="331" y="18" stroke-linejoin="round" width="20" height="26" fill="rgb(79,118,187)" stroke="rgb(63,94,149)" stroke-width="1" opacity="0.75" />
		</g>
		<g>
			<title>PF00082</title>
			<rect class="PF00082" x="357" y="18" stroke-linejoin="round" width="39" height="26" fill="rgb(193,159,94)" stroke="rgb(154,127,75)" stroke-width="1" opacity="0.75" />
		</g>
	</g>
</svg>
