<svg version="1.1" baseProfile="full" xmlns="http://www.w3.org/2000/svg" width="835" height="62">
	<line x1="1" y1="31" x2="834" y2="31" style="stroke:rgb(50,50,50); stroke-width:3 "/>
	<g>
		<polygon class="NoName" points="746,16 779,16 779,1 809,31 779,61 779,46 746,46" fill="rgb(255,255,255)" fill-opacity="1.0" stroke="rgb(50,50,50)" stroke-width="1" />
		<g>
			<title>PF13432</title>
			<rect class="PF13432" x="746" y="18" stroke-linejoin="round" width="6" height="26" fill="rgb(154,205,86)" stroke="rgb(123,164,68)" stroke-width="1" opacity="0.75" />
		</g>
		<g>
			<title>PF13424</title>
			<rect class="PF13424" x="774" y="18" stroke-linejoin="round" width="7" height="26" fill="rgb(147,215,101)" stroke="rgb(117,172,80)" stroke-width="1" opacity="0.75" />
		</g>
	</g>
	<g>
		<polygon class="NoName" points="64,16 50,16 50,1 20,31 50,61 50,46 64,46" fill="rgb(255,255,255)" fill-opacity="1.0" stroke="rgb(50,50,50)" stroke-width="1" />
		<g>
			<title>PF01231</title>
			<polygon class="PF01231" points="24,29 35,18 64,18 64,44 35,44 24,32" stroke-linejoin="round" width="40" height="26" fill="rgb(188,79,75)" stroke="rgb(150,63,60)" stroke-width="1" opacity="0.75" />
		</g>
	</g>
	<g>
		<title>terK</title>
		<polygon class="terK" points="180,16 145,16 145,1 115,31 145,61 145,46 180,46" fill="rgb(220,210,252)" fill-opacity="1.0" stroke="rgb(88,84,100)" stroke-width="1" />
		<g>
			<title>PF00067</title>
			<polygon class="PF00067" points="129,19 130,18 170,18 170,44 130,44 129,42" stroke-linejoin="round" width="41" height="26" fill="rgb(85,216,107)" stroke="rgb(68,172,85)" stroke-width="1" opacity="0.75" />
		</g>
	</g>
	<g>
		<title>terC</title>
		<polygon class="terC" points="260,16 255,16 255,1 225,31 255,61 255,46 260,46" fill="rgb(252,243,212)" fill-opacity="1.0" stroke="rgb(100,97,84)" stroke-width="1" />
		<g>
			<title>PF00348</title>
			<polygon class="PF00348" points="230,28 240,18 254,18 254,44 240,44 230,33" stroke-linejoin="round" width="24" height="26" fill="rgb(61,206,65)" stroke="rgb(48,164,52)" stroke-width="1" opacity="0.75" />
		</g>
	</g>
	<g>
		<title>terB</title>
		<polygon class="terB" points="272,16 272,16 272,1 298,31 272,61 272,46 272,46" fill="rgb(252,235,200)" fill-opacity="1.0" stroke="rgb(100,93,80)" stroke-width="1" />
	</g>
	<g>
		<title>terQ</title>
		<polygon class="terQ" points="395,16 357,16 357,1 327,31 357,61 357,46 395,46" fill="rgb(179,184,252)" fill-opacity="1.0" stroke="rgb(71,73,100)" stroke-width="1" />
		<g>
			<title>PF00067</title>
			<polygon class="PF00067" points="342,18 342,18 374,18 374,44 342,44 342,43" stroke-linejoin="round" width="32" height="26" fill="rgb(85,216,107)" stroke="rgb(68,172,85)" stroke-width="1" opacity="0.75" />
		</g>
	</g>
	<g>
		<title>terM</title>
		<polygon class="terM" points="457,16 435,16 435,1 405,31 435,61 435,46 457,46" fill="rgb(238,209,254)" fill-opacity="1.0" stroke="rgb(95,83,101)" stroke-width="1" />
		<g>
			<title>PF01494</title>
			<rect class="PF01494" x="422" y="18" stroke-linejoin="round" width="34" height="26" fill="rgb(182,175,59)" stroke="rgb(145,140,47)" stroke-width="1" opacity="0.75" />
		</g>
	</g>
	<g>
		<title>terP</title>
		<polygon class="terP" points="482,16 511,16 511,1 541,31 511,61 511,46 482,46" fill="rgb(234,254,202)" fill-opacity="1.0" stroke="rgb(93,101,80)" stroke-width="1" />
		<g>
			<title>PF00067</title>
			<polygon class="PF00067" points="488,18 525,18 530,23 530,39 525,44 488,44" stroke-linejoin="round" width="42" height="26" fill="rgb(85,216,107)" stroke="rgb(68,172,85)" stroke-width="1" opacity="0.75" />
		</g>
	</g>
	<g>
		<title>terF</title>
		<polygon class="terF" points="577,16 594,16 594,1 624,31 594,61 594,46 577,46" fill="rgb(189,250,249)" fill-opacity="1.0" stroke="rgb(75,100,99)" stroke-width="1" />
		<g>
			<title>PF11991</title>
			<polygon class="PF11991" points="579,18 608,18 615,25 615,37 608,44 579,44" stroke-linejoin="round" width="36" height="26" fill="rgb(197,197,93)" stroke="rgb(157,157,74)" stroke-width="1" opacity="0.75" />
		</g>
	</g>
	<g>
		<polygon class="NoName" points="692,16 673,16 673,1 643,31 673,61 673,46 692,46" fill="rgb(255,255,255)" fill-opacity="1.0" stroke="rgb(50,50,50)" stroke-width="1" />
		<g>
			<title>PF00743</title>
			<polygon class="PF00743" points="656,20 658,18 691,18 691,44 658,44 656,41" stroke-linejoin="round" width="35" height="26" fill="rgb(203,74,151)" stroke="rgb(162,59,120)" stroke-width="1" opacity="0.75" />
		</g>
	</g>
</svg>
