<svg version="1.1" baseProfile="full" xmlns="http://www.w3.org/2000/svg" width="4523" height="62">
	<line x1="1" y1="31" x2="4522" y2="31" style="stroke:rgb(50,50,50); stroke-width:3 "/>
	<g>
		<polygon class="NoName" points="616,16 616,16 616,1 646,31 616,61 616,46 616,46" fill="rgb(255,255,255)" fill-opacity="1.0" stroke="rgb(50,50,50)" stroke-width="1" />
		<g>
			<title>PF13460</title>
			<polygon class="PF13460" points="617,18 630,18 635,23 635,39 630,44 617,44" stroke-linejoin="round" width="18" height="26" fill="rgb(188,201,78)" stroke="rgb(150,160,62)" stroke-width="1" opacity="0.75" />
		</g>
	</g>
	<g>
		<polygon class="NoName" points="679,16 679,16 679,1 660,31 679,61 679,46 679,46" fill="rgb(255,255,255)" fill-opacity="1.0" stroke="rgb(50,50,50)" stroke-width="1" />
	</g>
	<g>
		<polygon class="NoName" points="689,16 694,16 694,1 724,31 694,61 694,46 689,46" fill="rgb(255,255,255)" fill-opacity="1.0" stroke="rgb(50,50,50)" stroke-width="1" />
		<g>
			<title>PF00155</title>
			<polygon class="PF00155" points="691,18 708,18 718,28 718,34 708,44 691,44" stroke-linejoin="round" width="27" height="26" fill="rgb(89,113,198)" stroke="rgb(71,90,158)" stroke-width="1" opacity="0.75" />
		</g>
	</g>
	<g>
		<polygon class="NoName" points="734,16 781,16 781,1 811,31 781,61 781,46 734,46" fill="rgb(255,255,255)" fill-opacity="1.0" stroke="rgb(50,50,50)" stroke-width="1" />
		<g>
			<title>PF13191</title>
			<rect class="PF13191" x="737" y="18" stroke-linejoin="round" width="15" height="26" fill="rgb(186,102,77)" stroke="rgb(148,81,61)" stroke-width="1" opacity="0.75" />
		</g>
		<g>
			<title>PF00196</title>
			<polygon class="PF00196" points="804,27 808,31 804,35" stroke-linejoin="round" width="5" height="26" fill="rgb(219,94,82)" stroke="rgb(175,75,65)" stroke-width="1" opacity="0.75" />
		</g>
	</g>
	<g>
		<polygon class="NoName" points="818,16 818,16 818,1 825,31 818,61 818,46 818,46" fill="rgb(255,255,255)" fill-opacity="1.0" stroke="rgb(50,50,50)" stroke-width="1" />
		<g>
			<title>PF03621</title>
			<polygon class="PF03621" points="818,18 819,18 822,31 819,44 818,44" stroke-linejoin="round" width="5" height="26" fill="rgb(212,165,97)" stroke="rgb(169,132,77)" stroke-width="1" opacity="0.75" />
		</g>
	</g>
	<g>
		<polygon class="NoName" points="826,16 906,16 906,1 936,31 906,61 906,46 826,46" fill="rgb(255,255,255)" fill-opacity="1.0" stroke="rgb(50,50,50)" stroke-width="1" />
		<g>
			<title>PF00668</title>
			<rect class="PF00668" x="830" y="18" stroke-linejoin="round" width="44" height="26" fill="rgb(224,184,98)" stroke="rgb(179,147,78)" stroke-width="1" opacity="0.75" />
		</g>
		<g>
			<title>PF00501</title>
			<rect class="PF00501" x="876" y="18" stroke-linejoin="round" width="39" height="26" fill="rgb(60,217,223)" stroke="rgb(48,173,178)" stroke-width="1" opacity="0.75" />
		</g>
		<g>
			<title>PF00550</title>
			<polygon class="PF00550" points="927,25 933,31 933,31 927,37" stroke-linejoin="round" width="6" height="26" fill="rgb(103,191,88)" stroke="rgb(82,152,70)" stroke-width="1" opacity="0.75" />
		</g>
	</g>
	<g>
		<polygon class="NoName" points="938,16 941,16 941,1 971,31 941,61 941,46 938,46" fill="rgb(255,255,255)" fill-opacity="1.0" stroke="rgb(50,50,50)" stroke-width="1" />
		<g>
			<title>PF02668</title>
			<polygon class="PF02668" points="939,18 955,18 968,31 955,44 939,44" stroke-linejoin="round" width="30" height="26" fill="rgb(180,79,217)" stroke="rgb(144,63,173)" stroke-width="1" opacity="0.75" />
		</g>
	</g>
	<g>
		<polygon class="NoName" points="971,16 974,16 974,1 1004,31 974,61 974,46 971,46" fill="rgb(255,255,255)" fill-opacity="1.0" stroke="rgb(50,50,50)" stroke-width="1" />
		<g>
			<title>PF02668</title>
			<polygon class="PF02668" points="972,18 988,18 1001,31 988,44 972,44" stroke-linejoin="round" width="30" height="26" fill="rgb(180,79,217)" stroke="rgb(144,63,173)" stroke-width="1" opacity="0.75" />
		</g>
	</g>
	<g>
		<polygon class="NoName" points="1006,16 1007,16 1007,1 1037,31 1007,61 1007,46 1006,46" fill="rgb(255,255,255)" fill-opacity="1.0" stroke="rgb(50,50,50)" stroke-width="1" />
		<g>
			<title>PF00583</title>
			<polygon class="PF00583" points="1021,18 1021,18 1034,31 1021,44 1021,44" stroke-linejoin="round" width="14" height="26" fill="rgb(121,183,50)" stroke="rgb(96,146,39)" stroke-width="1" opacity="0.75" />
		</g>
	</g>
	<g>
		<polygon class="NoName" points="1038,16 1042,16 1042,1 1072,31 1042,61 1042,46 1038,46" fill="rgb(255,255,255)" fill-opacity="1.0" stroke="rgb(50,50,50)" stroke-width="1" />
		<g>
			<title>PF00487</title>
			<polygon class="PF00487" points="1045,18 1056,18 1069,31 1069,31 1056,44 1045,44" stroke-linejoin="round" width="24" height="26" fill="rgb(104,51,205)" stroke="rgb(83,40,164)" stroke-width="1" opacity="0.75" />
		</g>
	</g>
	<g>
		<polygon class="NoName" points="117,16 117,16 117,1 146,31 117,61 117,46 117,46" fill="rgb(255,255,255)" fill-opacity="1.0" stroke="rgb(50,50,50)" stroke-width="1" />
		<g>
			<title>PF01636</title>
			<polygon class="PF01636" points="119,18 130,18 141,29 141,33 130,44 119,44" stroke-linejoin="round" width="22" height="26" fill="rgb(106,220,228)" stroke="rgb(84,176,182)" stroke-width="1" opacity="0.75" />
		</g>
	</g>
	<g>
		<polygon class="NoName" points="1074,16 1087,16 1087,1 1117,31 1087,61 1087,46 1074,46" fill="rgb(255,255,255)" fill-opacity="1.0" stroke="rgb(50,50,50)" stroke-width="1" />
		<g>
			<title>PF02784</title>
			<rect class="PF02784" x="1077" y="18" stroke-linejoin="round" width="24" height="26" fill="rgb(106,204,212)" stroke="rgb(84,163,169)" stroke-width="1" opacity="0.75" />
		</g>
		<g>
			<title>PF00278</title>
			<polygon class="PF00278" points="1102,19 1113,30 1113,32 1102,43" stroke-linejoin="round" width="11" height="26" fill="rgb(195,86,191)" stroke="rgb(156,68,152)" stroke-width="1" opacity="0.75" />
		</g>
	</g>
	<g>
		<polygon class="NoName" points="1199,16 1150,16 1150,1 1120,31 1150,61 1150,46 1199,46" fill="rgb(255,255,255)" fill-opacity="1.0" stroke="rgb(50,50,50)" stroke-width="1" />
		<g>
			<title>PF04389</title>
			<rect class="PF04389" x="1167" y="18" stroke-linejoin="round" width="18" height="26" fill="rgb(190,82,105)" stroke="rgb(152,65,84)" stroke-width="1" opacity="0.75" />
		</g>
	</g>
	<g>
		<polygon class="NoName" points="1244,16 1231,16 1231,1 1201,31 1231,61 1231,46 1244,46" fill="rgb(255,255,255)" fill-opacity="1.0" stroke="rgb(50,50,50)" stroke-width="1" />
		<g>
			<title>PF05977</title>
			<polygon class="PF05977" points="1203,31 1216,18 1243,18 1243,44 1216,44" stroke-linejoin="round" width="42" height="26" fill="rgb(80,62,217)" stroke="rgb(64,49,173)" stroke-width="1" opacity="0.75" />
		</g>
	</g>
	<g>
		<polygon class="NoName" points="1357,16 1274,16 1274,1 1244,31 1274,61 1274,46 1357,46" fill="rgb(255,255,255)" fill-opacity="1.0" stroke="rgb(50,50,50)" stroke-width="1" />
		<g>
			<title>PF00550</title>
			<polygon class="PF00550" points="1247,30 1253,24 1253,37 1247,31" stroke-linejoin="round" width="6" height="26" fill="rgb(103,191,88)" stroke="rgb(82,152,70)" stroke-width="1" opacity="0.75" />
		</g>
		<g>
			<title>PF13193</title>
			<polygon class="PF13193" points="1256,21 1259,18 1263,18 1263,44 1259,44 1256,40" stroke-linejoin="round" width="7" height="26" fill="rgb(182,50,118)" stroke="rgb(145,39,94)" stroke-width="1" opacity="0.75" />
		</g>
		<g>
			<title>PF00501</title>
			<rect class="PF00501" x="1265" y="18" stroke-linejoin="round" width="40" height="26" fill="rgb(60,217,223)" stroke="rgb(48,173,178)" stroke-width="1" opacity="0.75" />
		</g>
		<g>
			<title>PF00668</title>
			<rect class="PF00668" x="1307" y="18" stroke-linejoin="round" width="45" height="26" fill="rgb(224,184,98)" stroke="rgb(179,147,78)" stroke-width="1" opacity="0.75" />
		</g>
	</g>
	<g>
		<polygon class="NoName" points="1385,16 1385,16 1385,1 1358,31 1385,61 1385,46 1385,46" fill="rgb(255,255,255)" fill-opacity="1.0" stroke="rgb(50,50,50)" stroke-width="1" />
		<g>
			<title>PF10014</title>
			<polygon class="PF10014" points="1360,31 1372,18 1378,18 1378,44 1372,44" stroke-linejoin="round" width="19" height="26" fill="rgb(201,88,89)" stroke="rgb(160,70,71)" stroke-width="1" opacity="0.75" />
		</g>
	</g>
	<g>
		<polygon class="NoName" points="1391,16 1416,16 1416,1 1446,31 1416,61 1416,46 1391,46" fill="rgb(255,255,255)" fill-opacity="1.0" stroke="rgb(50,50,50)" stroke-width="1" />
		<g>
			<title>PF00668</title>
			<polygon class="PF00668" points="1391,18 1430,18 1434,22 1434,40 1430,44 1391,44" stroke-linejoin="round" width="43" height="26" fill="rgb(224,184,98)" stroke="rgb(179,147,78)" stroke-width="1" opacity="0.75" />
		</g>
		<g>
			<title>PF00550</title>
			<polygon class="PF00550" points="1438,26 1443,31 1438,36" stroke-linejoin="round" width="6" height="26" fill="rgb(103,191,88)" stroke="rgb(82,152,70)" stroke-width="1" opacity="0.75" />
		</g>
	</g>
	<g>
		<polygon class="NoName" points="1448,16 1448,16 1448,1 1471,31 1448,61 1448,46 1448,46" fill="rgb(255,255,255)" fill-opacity="1.0" stroke="rgb(50,50,50)" stroke-width="1" />
		<g>
			<title>PF00975</title>
			<polygon class="PF00975" points="1448,18 1458,18 1468,31 1458,44 1448,44" stroke-linejoin="round" width="22" height="26" fill="rgb(207,80,138)" stroke="rgb(165,63,110)" stroke-width="1" opacity="0.75" />
		</g>
	</g>
	<g>
		<polygon class="NoName" points="1471,16 1471,16 1471,1 1498,31 1471,61 1471,46 1471,46" fill="rgb(255,255,255)" fill-opacity="1.0" stroke="rgb(50,50,50)" stroke-width="1" />
		<g>
			<title>PF13561</title>
			<polygon class="PF13561" points="1472,18 1483,18 1495,31 1483,44 1472,44" stroke-linejoin="round" width="26" height="26" fill="rgb(73,205,127)" stroke="rgb(58,164,101)" stroke-width="1" opacity="0.75" />
		</g>
	</g>
	<g>
		<polygon class="NoName" points="1499,16 1561,16 1561,1 1591,31 1561,61 1561,46 1499,46" fill="rgb(255,255,255)" fill-opacity="1.0" stroke="rgb(50,50,50)" stroke-width="1" />
		<g>
			<title>PF00501</title>
			<rect class="PF00501" x="1532" y="18" stroke-linejoin="round" width="40" height="26" fill="rgb(60,217,223)" stroke="rgb(48,173,178)" stroke-width="1" opacity="0.75" />
		</g>
		<g>
			<title>PF13193</title>
			<polygon class="PF13193" points="1573,18 1575,18 1580,23 1580,39 1575,44 1573,44" stroke-linejoin="round" width="7" height="26" fill="rgb(182,50,118)" stroke="rgb(145,39,94)" stroke-width="1" opacity="0.75" />
		</g>
		<g>
			<title>PF00550</title>
			<polygon class="PF00550" points="1583,26 1588,31 1583,36" stroke-linejoin="round" width="6" height="26" fill="rgb(103,191,88)" stroke="rgb(82,152,70)" stroke-width="1" opacity="0.75" />
		</g>
	</g>
	<g>
		<polygon class="NoName" points="1594,16 1594,16 1594,1 1613,31 1594,61 1594,46 1594,46" fill="rgb(255,255,255)" fill-opacity="1.0" stroke="rgb(50,50,50)" stroke-width="1" />
		<g>
			<title>PF00857</title>
			<polygon class="PF00857" points="1594,18 1602,18 1610,31 1602,44 1594,44" stroke-linejoin="round" width="17" height="26" fill="rgb(144,224,70)" stroke="rgb(115,179,56)" stroke-width="1" opacity="0.75" />
		</g>
	</g>
	<g>
		<polygon class="NoName" points="171,16 191,16 191,1 221,31 191,61 191,46 171,46" fill="rgb(255,255,255)" fill-opacity="1.0" stroke="rgb(50,50,50)" stroke-width="1" />
		<g>
			<title>PF01565</title>
			<rect class="PF01565" x="179" y="18" stroke-linejoin="round" width="13" height="26" fill="rgb(226,88,136)" stroke="rgb(180,70,108)" stroke-width="1" opacity="0.75" />
		</g>
		<g>
			<title>PF08031</title>
			<polygon class="PF08031" points="216,29 218,31 216,33" stroke-linejoin="round" width="4" height="26" fill="rgb(210,73,83)" stroke="rgb(168,58,66)" stroke-width="1" opacity="0.75" />
		</g>
	</g>
	<g>
		<polygon class="NoName" points="1619,16 1623,16 1623,1 1653,31 1623,61 1623,46 1619,46" fill="rgb(255,255,255)" fill-opacity="1.0" stroke="rgb(50,50,50)" stroke-width="1" />
		<g>
			<title>PF00586</title>
			<rect class="PF00586" x="1623" y="18" stroke-linejoin="round" width="11" height="26" fill="rgb(215,196,78)" stroke="rgb(172,156,62)" stroke-width="1" opacity="0.75" />
		</g>
		<g>
			<title>PF02769</title>
			<polygon class="PF02769" points="1635,18 1637,18 1650,31 1650,31 1637,44 1635,44" stroke-linejoin="round" width="15" height="26" fill="rgb(182,125,70)" stroke="rgb(145,100,56)" stroke-width="1" opacity="0.75" />
		</g>
	</g>
	<g>
		<polygon class="NoName" points="1654,16 1703,16 1703,1 1733,31 1703,61 1703,46 1654,46" fill="rgb(255,255,255)" fill-opacity="1.0" stroke="rgb(50,50,50)" stroke-width="1" />
		<g>
			<title>PF00708</title>
			<rect class="PF00708" x="1654" y="18" stroke-linejoin="round" width="8" height="26" fill="rgb(79,219,111)" stroke="rgb(63,175,88)" stroke-width="1" opacity="0.75" />
		</g>
		<g>
			<title>PF07503</title>
			<rect class="PF07503" x="1665" y="18" stroke-linejoin="round" width="3" height="26" fill="rgb(182,102,84)" stroke="rgb(145,81,67)" stroke-width="1" opacity="0.75" />
		</g>
		<g>
			<title>PF07503</title>
			<rect class="PF07503" x="1670" y="18" stroke-linejoin="round" width="3" height="26" fill="rgb(182,102,84)" stroke="rgb(145,81,67)" stroke-width="1" opacity="0.75" />
		</g>
		<g>
			<title>PF01300</title>
			<rect class="PF01300" x="1675" y="18" stroke-linejoin="round" width="18" height="26" fill="rgb(183,139,65)" stroke="rgb(146,111,51)" stroke-width="1" opacity="0.75" />
		</g>
	</g>
	<g>
		<polygon class="NoName" points="1734,16 1748,16 1748,1 1778,31 1748,61 1748,46 1734,46" fill="rgb(255,255,255)" fill-opacity="1.0" stroke="rgb(50,50,50)" stroke-width="1" />
		<g>
			<title>PF00464</title>
			<polygon class="PF00464" points="1734,18 1762,18 1771,27 1771,35 1762,44 1734,44" stroke-linejoin="round" width="37" height="26" fill="rgb(215,97,215)" stroke="rgb(172,77,172)" stroke-width="1" opacity="0.75" />
		</g>
	</g>
	<g>
		<polygon class="NoName" points="1779,16 1779,16 1779,1 1802,31 1779,61 1779,46 1779,46" fill="rgb(255,255,255)" fill-opacity="1.0" stroke="rgb(50,50,50)" stroke-width="1" />
		<g>
			<title>PF07722</title>
			<polygon class="PF07722" points="1779,18 1789,18 1799,31 1799,31 1789,44 1779,44" stroke-linejoin="round" width="20" height="26" fill="rgb(203,162,57)" stroke="rgb(162,129,45)" stroke-width="1" opacity="0.75" />
		</g>
	</g>
	<g>
		<polygon class="NoName" points="1806,16 1950,16 1950,1 1980,31 1950,61 1950,46 1806,46" fill="rgb(255,255,255)" fill-opacity="1.0" stroke="rgb(50,50,50)" stroke-width="1" />
		<g>
			<title>PF00501</title>
			<rect class="PF00501" x="1807" y="18" stroke-linejoin="round" width="45" height="26" fill="rgb(60,217,223)" stroke="rgb(48,173,178)" stroke-width="1" opacity="0.75" />
		</g>
		<g>
			<title>PF00550</title>
			<rect class="PF00550" x="1865" y="18" stroke-linejoin="round" width="6" height="26" fill="rgb(103,191,88)" stroke="rgb(82,152,70)" stroke-width="1" opacity="0.75" />
		</g>
		<g>
			<title>PF00668</title>
			<rect class="PF00668" x="1873" y="18" stroke-linejoin="round" width="43" height="26" fill="rgb(224,184,98)" stroke="rgb(179,147,78)" stroke-width="1" opacity="0.75" />
		</g>
		<g>
			<title>PF00501</title>
			<rect class="PF00501" x="1919" y="18" stroke-linejoin="round" width="40" height="26" fill="rgb(60,217,223)" stroke="rgb(48,173,178)" stroke-width="1" opacity="0.75" />
		</g>
		<g>
			<title>PF13193</title>
			<polygon class="PF13193" points="1960,18 1964,18 1967,21 1967,41 1964,44 1960,44" stroke-linejoin="round" width="7" height="26" fill="rgb(182,50,118)" stroke="rgb(145,39,94)" stroke-width="1" opacity="0.75" />
		</g>
		<g>
			<title>PF00550</title>
			<polygon class="PF00550" points="1970,24 1976,30 1976,32 1970,38" stroke-linejoin="round" width="6" height="26" fill="rgb(103,191,88)" stroke="rgb(82,152,70)" stroke-width="1" opacity="0.75" />
		</g>
	</g>
	<g>
		<polygon class="NoName" points="1981,16 1997,16 1997,1 2027,31 1997,61 1997,46 1981,46" fill="rgb(255,255,255)" fill-opacity="1.0" stroke="rgb(50,50,50)" stroke-width="1" />
		<g>
			<title>PF00668</title>
			<polygon class="PF00668" points="1985,18 2011,18 2024,31 2011,44 1985,44" stroke-linejoin="round" width="42" height="26" fill="rgb(224,184,98)" stroke="rgb(179,147,78)" stroke-width="1" opacity="0.75" />
		</g>
	</g>
	<g>
		<title>LnmA</title>
		<polygon class="LnmA" points="2032,16 2042,16 2042,1 2072,31 2042,61 2042,46 2032,46" fill="rgb(223,197,253)" fill-opacity="1.0" stroke="rgb(89,78,101)" stroke-width="1" />
		<g>
			<title>PF00067</title>
			<polygon class="PF00067" points="2033,18 2056,18 2058,20 2058,42 2056,44 2033,44" stroke-linejoin="round" width="25" height="26" fill="rgb(85,216,107)" stroke="rgb(68,172,85)" stroke-width="1" opacity="0.75" />
		</g>
		<g>
			<title>PF00067</title>
			<polygon class="PF00067" points="2058,20 2069,31 2058,42" stroke-linejoin="round" width="12" height="26" fill="rgb(85,216,107)" stroke="rgb(68,172,85)" stroke-width="1" opacity="0.75" />
		</g>
	</g>
	<g>
		<title>LnmB</title>
		<polygon class="LnmB" points="2072,16 2072,16 2072,1 2079,31 2072,61 2072,46 2072,46" fill="rgb(248,252,198)" fill-opacity="1.0" stroke="rgb(99,100,79)" stroke-width="1" />
		<g>
			<title>PF13370</title>
			<polygon class="PF13370" points="2073,18 2073,18 2076,31 2073,44 2073,44" stroke-linejoin="round" width="5" height="26" fill="rgb(220,216,65)" stroke="rgb(176,172,52)" stroke-width="1" opacity="0.75" />
		</g>
	</g>
	<g>
		<title>LnmC</title>
		<polygon class="LnmC" points="2090,16 2090,16 2090,1 2101,31 2090,61 2090,46 2090,46" fill="rgb(188,194,253)" fill-opacity="1.0" stroke="rgb(75,77,101)" stroke-width="1" />
		<g>
			<title>PF03795</title>
			<polygon class="PF03795" points="2090,18 2093,18 2098,31 2093,44 2090,44" stroke-linejoin="round" width="11" height="26" fill="rgb(54,71,186)" stroke="rgb(43,56,148)" stroke-width="1" opacity="0.75" />
		</g>
	</g>
	<g>
		<title>LnmD</title>
		<polygon class="LnmD" points="2104,16 2117,16 2117,1 2147,31 2117,61 2117,46 2104,46" fill="rgb(215,251,254)" fill-opacity="1.0" stroke="rgb(86,100,101)" stroke-width="1" />
		<g>
			<title>PF00561</title>
			<polygon class="PF00561" points="2120,18 2131,18 2144,31 2144,31 2131,44 2120,44" stroke-linejoin="round" width="24" height="26" fill="rgb(86,180,151)" stroke="rgb(68,144,120)" stroke-width="1" opacity="0.75" />
		</g>
	</g>
	<g>
		<polygon class="NoName" points="248,16 341,16 341,1 371,31 341,61 341,46 248,46" fill="rgb(255,255,255)" fill-opacity="1.0" stroke="rgb(50,50,50)" stroke-width="1" />
		<g>
			<title>PF00082</title>
			<rect class="PF00082" x="271" y="18" stroke-linejoin="round" width="25" height="26" fill="rgb(193,159,94)" stroke="rgb(154,127,75)" stroke-width="1" opacity="0.75" />
		</g>
		<g>
			<title>PF02225</title>
			<rect class="PF02225" x="326" y="18" stroke-linejoin="round" width="10" height="26" fill="rgb(96,125,211)" stroke="rgb(76,100,168)" stroke-width="1" opacity="0.75" />
		</g>
	</g>
	<g>
		<title>LnmE</title>
		<polygon class="LnmE" points="2150,16 2150,16 2150,1 2180,31 2150,61 2150,46 2150,46" fill="rgb(252,191,243)" fill-opacity="1.0" stroke="rgb(100,76,97)" stroke-width="1" />
	</g>
	<g>
		<title>LnmF</title>
		<polygon class="LnmF" points="2182,16 2182,16 2182,1 2208,31 2182,61 2182,46 2182,46" fill="rgb(245,212,254)" fill-opacity="1.0" stroke="rgb(97,84,101)" stroke-width="1" />
		<g>
			<title>PF00378</title>
			<polygon class="PF00378" points="2183,18 2194,18 2205,31 2194,44 2183,44" stroke-linejoin="round" width="24" height="26" fill="rgb(218,72,181)" stroke="rgb(174,57,144)" stroke-width="1" opacity="0.75" />
		</g>
	</g>
	<g>
		<title>LnmG</title>
		<polygon class="LnmG" points="2209,16 2258,16 2258,1 2288,31 2258,61 2258,46 2209,46" fill="rgb(193,253,217)" fill-opacity="1.0" stroke="rgb(77,101,86)" stroke-width="1" />
		<g>
			<title>PF00698</title>
			<rect class="PF00698" x="2209" y="18" stroke-linejoin="round" width="29" height="26" fill="rgb(59,176,209)" stroke="rgb(47,140,167)" stroke-width="1" opacity="0.75" />
		</g>
	</g>
	<g>
		<title>LnmH</title>
		<polygon class="LnmH" points="2291,16 2291,16 2291,1 2318,31 2291,61 2291,46 2291,46" fill="rgb(203,237,251)" fill-opacity="1.0" stroke="rgb(81,94,100)" stroke-width="1" />
	</g>
	<g>
		<title>LnmI</title>
		<polygon class="LnmI" points="2323,16 2736,16 2736,1 2766,31 2736,61 2736,46 2323,46" fill="rgb(253,208,222)" fill-opacity="1.0" stroke="rgb(101,83,88)" stroke-width="1" />
		<g>
			<title>PF00668</title>
			<rect class="PF00668" x="2334" y="18" stroke-linejoin="round" width="32" height="26" fill="rgb(224,184,98)" stroke="rgb(179,147,78)" stroke-width="1" opacity="0.75" />
		</g>
		<g>
			<title>PF00668</title>
			<rect class="PF00668" x="2377" y="18" stroke-linejoin="round" width="24" height="26" fill="rgb(224,184,98)" stroke="rgb(179,147,78)" stroke-width="1" opacity="0.75" />
		</g>
		<g>
			<title>PF00501</title>
			<rect class="PF00501" x="2421" y="18" stroke-linejoin="round" width="40" height="26" fill="rgb(60,217,223)" stroke="rgb(48,173,178)" stroke-width="1" opacity="0.75" />
		</g>
		<g>
			<title>PF13193</title>
			<rect class="PF13193" x="2462" y="18" stroke-linejoin="round" width="7" height="26" fill="rgb(182,50,118)" stroke="rgb(145,39,94)" stroke-width="1" opacity="0.75" />
		</g>
		<g>
			<title>PF00550</title>
			<rect class="PF00550" x="2476" y="18" stroke-linejoin="round" width="6" height="26" fill="rgb(103,191,88)" stroke="rgb(82,152,70)" stroke-width="1" opacity="0.75" />
		</g>
		<g>
			<title>PF00881</title>
			<rect class="PF00881" x="2492" y="18" stroke-linejoin="round" width="17" height="26" fill="rgb(79,118,187)" stroke="rgb(63,94,149)" stroke-width="1" opacity="0.75" />
		</g>
		<g>
			<title>PF00109</title>
			<rect class="PF00109" x="2515" y="18" stroke-linejoin="round" width="24" height="26" fill="rgb(112,116,228)" stroke="rgb(89,92,182)" stroke-width="1" opacity="0.75" />
		</g>
		<g>
			<title>PF02801</title>
			<rect class="PF02801" x="2540" y="18" stroke-linejoin="round" width="11" height="26" fill="rgb(215,78,102)" stroke="rgb(172,62,81)" stroke-width="1" opacity="0.75" />
		</g>
		<g>
			<title>PF00550</title>
			<rect class="PF00550" x="2578" y="18" stroke-linejoin="round" width="6" height="26" fill="rgb(103,191,88)" stroke="rgb(82,152,70)" stroke-width="1" opacity="0.75" />
		</g>
		<g>
			<title>PF00109</title>
			<rect class="PF00109" x="2589" y="18" stroke-linejoin="round" width="24" height="26" fill="rgb(112,116,228)" stroke="rgb(89,92,182)" stroke-width="1" opacity="0.75" />
		</g>
		<g>
			<title>PF02801</title>
			<rect class="PF02801" x="2614" y="18" stroke-linejoin="round" width="11" height="26" fill="rgb(215,78,102)" stroke="rgb(172,62,81)" stroke-width="1" opacity="0.75" />
		</g>
		<g>
			<title>PF16197</title>
			<rect class="PF16197" x="2626" y="18" stroke-linejoin="round" width="12" height="26" fill="rgb(68,179,89)" stroke="rgb(54,143,71)" stroke-width="1" opacity="0.75" />
		</g>
		<g>
			<title>PF08659</title>
			<rect class="PF08659" x="2672" y="18" stroke-linejoin="round" width="19" height="26" fill="rgb(66,209,188)" stroke="rgb(52,167,150)" stroke-width="1" opacity="0.75" />
		</g>
		<g>
			<title>PF00550</title>
			<rect class="PF00550" x="2705" y="18" stroke-linejoin="round" width="6" height="26" fill="rgb(103,191,88)" stroke="rgb(82,152,70)" stroke-width="1" opacity="0.75" />
		</g>
		<g>
			<title>PF00109</title>
			<rect class="PF00109" x="2716" y="18" stroke-linejoin="round" width="24" height="26" fill="rgb(112,116,228)" stroke="rgb(89,92,182)" stroke-width="1" opacity="0.75" />
		</g>
		<g>
			<title>PF02801</title>
			<polygon class="PF02801" points="2741,18 2750,18 2752,20 2752,42 2750,44 2741,44" stroke-linejoin="round" width="11" height="26" fill="rgb(215,78,102)" stroke="rgb(172,62,81)" stroke-width="1" opacity="0.75" />
		</g>
	</g>
	<g>
		<title>LnmJ</title>
		<polygon class="LnmJ" points="2767,16 3472,16 3472,1 3502,31 3472,61 3472,46 2767,46" fill="rgb(247,182,252)" fill-opacity="1.0" stroke="rgb(98,72,100)" stroke-width="1" />
		<g>
			<title>PF14765</title>
			<rect class="PF14765" x="2767" y="18" stroke-linejoin="round" width="28" height="26" fill="rgb(173,56,182)" stroke="rgb(138,44,145)" stroke-width="1" opacity="0.75" />
		</g>
		<g>
			<title>PF00550</title>
			<rect class="PF00550" x="2799" y="18" stroke-linejoin="round" width="6" height="26" fill="rgb(103,191,88)" stroke="rgb(82,152,70)" stroke-width="1" opacity="0.75" />
		</g>
		<g>
			<title>PF08659</title>
			<rect class="PF08659" x="2833" y="18" stroke-linejoin="round" width="18" height="26" fill="rgb(66,209,188)" stroke="rgb(52,167,150)" stroke-width="1" opacity="0.75" />
		</g>
		<g>
			<title>PF00109</title>
			<rect class="PF00109" x="2859" y="18" stroke-linejoin="round" width="24" height="26" fill="rgb(112,116,228)" stroke="rgb(89,92,182)" stroke-width="1" opacity="0.75" />
		</g>
		<g>
			<title>PF02801</title>
			<rect class="PF02801" x="2884" y="18" stroke-linejoin="round" width="11" height="26" fill="rgb(215,78,102)" stroke="rgb(172,62,81)" stroke-width="1" opacity="0.75" />
		</g>
		<g>
			<title>PF16197</title>
			<rect class="PF16197" x="2896" y="18" stroke-linejoin="round" width="10" height="26" fill="rgb(68,179,89)" stroke="rgb(54,143,71)" stroke-width="1" opacity="0.75" />
		</g>
		<g>
			<title>PF00550</title>
			<rect class="PF00550" x="2930" y="18" stroke-linejoin="round" width="6" height="26" fill="rgb(103,191,88)" stroke="rgb(82,152,70)" stroke-width="1" opacity="0.75" />
		</g>
		<g>
			<title>PF00109</title>
			<rect class="PF00109" x="2943" y="18" stroke-linejoin="round" width="24" height="26" fill="rgb(112,116,228)" stroke="rgb(89,92,182)" stroke-width="1" opacity="0.75" />
		</g>
		<g>
			<title>PF02801</title>
			<rect class="PF02801" x="2968" y="18" stroke-linejoin="round" width="11" height="26" fill="rgb(215,78,102)" stroke="rgb(172,62,81)" stroke-width="1" opacity="0.75" />
		</g>
		<g>
			<title>PF16197</title>
			<rect class="PF16197" x="2980" y="18" stroke-linejoin="round" width="11" height="26" fill="rgb(68,179,89)" stroke="rgb(54,143,71)" stroke-width="1" opacity="0.75" />
		</g>
		<g>
			<title>PF14765</title>
			<rect class="PF14765" x="3005" y="18" stroke-linejoin="round" width="27" height="26" fill="rgb(173,56,182)" stroke="rgb(138,44,145)" stroke-width="1" opacity="0.75" />
		</g>
		<g>
			<title>PF08659</title>
			<rect class="PF08659" x="3054" y="18" stroke-linejoin="round" width="17" height="26" fill="rgb(66,209,188)" stroke="rgb(52,167,150)" stroke-width="1" opacity="0.75" />
		</g>
		<g>
			<title>PF00550</title>
			<rect class="PF00550" x="3083" y="18" stroke-linejoin="round" width="6" height="26" fill="rgb(103,191,88)" stroke="rgb(82,152,70)" stroke-width="1" opacity="0.75" />
		</g>
		<g>
			<title>PF08242</title>
			<rect class="PF08242" x="3112" y="18" stroke-linejoin="round" width="10" height="26" fill="rgb(187,59,115)" stroke="rgb(149,47,92)" stroke-width="1" opacity="0.75" />
		</g>
		<g>
			<title>PF00550</title>
			<rect class="PF00550" x="3132" y="18" stroke-linejoin="round" width="6" height="26" fill="rgb(103,191,88)" stroke="rgb(82,152,70)" stroke-width="1" opacity="0.75" />
		</g>
		<g>
			<title>PF00109</title>
			<rect class="PF00109" x="3146" y="18" stroke-linejoin="round" width="24" height="26" fill="rgb(112,116,228)" stroke="rgb(89,92,182)" stroke-width="1" opacity="0.75" />
		</g>
		<g>
			<title>PF02801</title>
			<rect class="PF02801" x="3172" y="18" stroke-linejoin="round" width="11" height="26" fill="rgb(215,78,102)" stroke="rgb(172,62,81)" stroke-width="1" opacity="0.75" />
		</g>
		<g>
			<title>PF16197</title>
			<rect class="PF16197" x="3184" y="18" stroke-linejoin="round" width="12" height="26" fill="rgb(68,179,89)" stroke="rgb(54,143,71)" stroke-width="1" opacity="0.75" />
		</g>
		<g>
			<title>PF14765</title>
			<rect class="PF14765" x="3215" y="18" stroke-linejoin="round" width="25" height="26" fill="rgb(173,56,182)" stroke="rgb(138,44,145)" stroke-width="1" opacity="0.75" />
		</g>
		<g>
			<title>PF08659</title>
			<rect class="PF08659" x="3265" y="18" stroke-linejoin="round" width="18" height="26" fill="rgb(66,209,188)" stroke="rgb(52,167,150)" stroke-width="1" opacity="0.75" />
		</g>
		<g>
			<title>PF00550</title>
			<rect class="PF00550" x="3292" y="18" stroke-linejoin="round" width="6" height="26" fill="rgb(103,191,88)" stroke="rgb(82,152,70)" stroke-width="1" opacity="0.75" />
		</g>
		<g>
			<title>PF00109</title>
			<rect class="PF00109" x="3305" y="18" stroke-linejoin="round" width="24" height="26" fill="rgb(112,116,228)" stroke="rgb(89,92,182)" stroke-width="1" opacity="0.75" />
		</g>
		<g>
			<title>PF02801</title>
			<rect class="PF02801" x="3330" y="18" stroke-linejoin="round" width="12" height="26" fill="rgb(215,78,102)" stroke="rgb(172,62,81)" stroke-width="1" opacity="0.75" />
		</g>
		<g>
			<title>PF16197</title>
			<rect class="PF16197" x="3343" y="18" stroke-linejoin="round" width="11" height="26" fill="rgb(68,179,89)" stroke="rgb(54,143,71)" stroke-width="1" opacity="0.75" />
		</g>
		<g>
			<title>PF00550</title>
			<rect class="PF00550" x="3372" y="18" stroke-linejoin="round" width="6" height="26" fill="rgb(103,191,88)" stroke="rgb(82,152,70)" stroke-width="1" opacity="0.75" />
		</g>
		<g>
			<title>PF00550</title>
			<rect class="PF00550" x="3382" y="18" stroke-linejoin="round" width="6" height="26" fill="rgb(103,191,88)" stroke="rgb(82,152,70)" stroke-width="1" opacity="0.75" />
		</g>
		<g>
			<title>PF09924</title>
			<rect class="PF09924" x="3396" y="18" stroke-linejoin="round" width="27" height="26" fill="rgb(212,197,83)" stroke="rgb(169,157,66)" stroke-width="1" opacity="0.75" />
		</g>
		<g>
			<title>PF01212</title>
			<rect class="PF01212" x="3434" y="18" stroke-linejoin="round" width="30" height="26" fill="rgb(121,182,62)" stroke="rgb(96,145,49)" stroke-width="1" opacity="0.75" />
		</g>
		<g>
			<title>PF00561</title>
			<polygon class="PF00561" points="3479,18 3486,18 3499,31 3486,44 3479,44" stroke-linejoin="round" width="21" height="26" fill="rgb(86,180,151)" stroke="rgb(68,144,120)" stroke-width="1" opacity="0.75" />
		</g>
	</g>
	<g>
		<title>LnmK</title>
		<polygon class="LnmK" points="3502,16 3504,16 3504,1 3534,31 3504,61 3504,46 3502,46" fill="rgb(254,212,213)" fill-opacity="1.0" stroke="rgb(101,84,85)" stroke-width="1" />
	</g>
	<g>
		<title>LnmL</title>
		<polygon class="LnmL" points="3534,16 3534,16 3534,1 3542,31 3534,61 3534,46 3534,46" fill="rgb(197,194,253)" fill-opacity="1.0" stroke="rgb(78,77,101)" stroke-width="1" />
		<g>
			<title>PF00550</title>
			<polygon class="PF00550" points="3535,18 3536,18 3539,31 3536,44 3535,44" stroke-linejoin="round" width="6" height="26" fill="rgb(103,191,88)" stroke="rgb(82,152,70)" stroke-width="1" opacity="0.75" />
		</g>
	</g>
	<g>
		<title>LnmM</title>
		<polygon class="LnmM" points="3542,16 3553,16 3553,1 3583,31 3553,61 3553,46 3542,46" fill="rgb(229,209,251)" fill-opacity="1.0" stroke="rgb(91,83,100)" stroke-width="1" />
		<g>
			<title>PF01154</title>
			<rect class="PF01154" x="3547" y="18" stroke-linejoin="round" width="12" height="26" fill="rgb(88,216,218)" stroke="rgb(70,172,174)" stroke-width="1" opacity="0.75" />
		</g>
		<g>
			<title>PF08540</title>
			<polygon class="PF08540" points="3569,20 3580,31 3580,31 3569,42" stroke-linejoin="round" width="11" height="26" fill="rgb(49,194,86)" stroke="rgb(39,155,68)" stroke-width="1" opacity="0.75" />
		</g>
	</g>
	<g>
		<title>LnmN</title>
		<polygon class="LnmN" points="3586,16 3586,16 3586,1 3612,31 3586,61 3586,46 3586,46" fill="rgb(211,253,237)" fill-opacity="1.0" stroke="rgb(84,101,94)" stroke-width="1" />
		<g>
			<title>PF00975</title>
			<polygon class="PF00975" points="3588,18 3598,18 3609,31 3598,44 3588,44" stroke-linejoin="round" width="22" height="26" fill="rgb(207,80,138)" stroke="rgb(165,63,110)" stroke-width="1" opacity="0.75" />
		</g>
	</g>
	<g>
		<polygon class="NoName" points="368,16 368,16 368,1 394,31 368,61 368,46 368,46" fill="rgb(255,255,255)" fill-opacity="1.0" stroke="rgb(50,50,50)" stroke-width="1" />
		<g>
			<title>PF04343</title>
			<rect class="PF04343" x="374" y="18" stroke-linejoin="round" width="6" height="26" fill="rgb(200,173,51)" stroke="rgb(160,138,40)" stroke-width="1" opacity="0.75" />
		</g>
	</g>
	<g>
		<title>LnmO</title>
		<polygon class="LnmO" points="3614,16 3614,16 3614,1 3636,31 3614,61 3614,46 3614,46" fill="rgb(210,230,252)" fill-opacity="1.0" stroke="rgb(84,92,100)" stroke-width="1" />
		<g>
			<title>PF00027</title>
			<polygon class="PF00027" points="3617,18 3623,18 3625,20 3625,42 3623,44 3617,44" stroke-linejoin="round" width="8" height="26" fill="rgb(138,95,204)" stroke="rgb(110,76,163)" stroke-width="1" opacity="0.75" />
		</g>
		<g>
			<title>PF13545</title>
			<polygon class="PF13545" points="3628,24 3633,31 3628,38" stroke-linejoin="round" width="7" height="26" fill="rgb(87,137,202)" stroke="rgb(69,109,161)" stroke-width="1" opacity="0.75" />
		</g>
	</g>
	<g>
		<title>LnmP</title>
		<polygon class="LnmP" points="3638,16 3638,16 3638,1 3646,31 3638,61 3638,46 3638,46" fill="rgb(211,181,251)" fill-opacity="1.0" stroke="rgb(84,72,100)" stroke-width="1" />
		<g>
			<title>PF00550</title>
			<polygon class="PF00550" points="3638,18 3640,18 3643,31 3640,44 3638,44" stroke-linejoin="round" width="6" height="26" fill="rgb(103,191,88)" stroke="rgb(82,152,70)" stroke-width="1" opacity="0.75" />
		</g>
	</g>
	<g>
		<title>LnmQ</title>
		<polygon class="LnmQ" points="3646,16 3667,16 3667,1 3697,31 3667,61 3667,46 3646,46" fill="rgb(185,251,232)" fill-opacity="1.0" stroke="rgb(74,100,92)" stroke-width="1" />
		<g>
			<title>PF00501</title>
			<polygon class="PF00501" points="3647,18 3681,18 3687,24 3687,38 3681,44 3647,44" stroke-linejoin="round" width="40" height="26" fill="rgb(60,217,223)" stroke="rgb(48,173,178)" stroke-width="1" opacity="0.75" />
		</g>
		<g>
			<title>PF13193</title>
			<polygon class="PF13193" points="3688,25 3694,31 3688,37" stroke-linejoin="round" width="7" height="26" fill="rgb(182,50,118)" stroke="rgb(145,39,94)" stroke-width="1" opacity="0.75" />
		</g>
	</g>
	<g>
		<title>LnmR</title>
		<polygon class="LnmR" points="3757,16 3730,16 3730,1 3700,31 3730,61 3730,46 3757,46" fill="rgb(229,254,199)" fill-opacity="1.0" stroke="rgb(91,101,79)" stroke-width="1" />
		<g>
			<title>PF08352</title>
			<polygon class="PF08352" points="3702,31 3705,28 3705,33" stroke-linejoin="round" width="5" height="26" fill="rgb(90,183,173)" stroke="rgb(72,146,138)" stroke-width="1" opacity="0.75" />
		</g>
		<g>
			<title>PF00005</title>
			<polygon class="PF00005" points="3710,23 3715,18 3725,18 3725,44 3715,44 3710,38" stroke-linejoin="round" width="15" height="26" fill="rgb(129,201,63)" stroke="rgb(103,160,50)" stroke-width="1" opacity="0.75" />
		</g>
		<g>
			<title>PF08352</title>
			<rect class="PF08352" x="3727" y="18" stroke-linejoin="round" width="5" height="26" fill="rgb(90,183,173)" stroke="rgb(72,146,138)" stroke-width="1" opacity="0.75" />
		</g>
		<g>
			<title>PF00005</title>
			<rect class="PF00005" x="3737" y="18" stroke-linejoin="round" width="15" height="26" fill="rgb(129,201,63)" stroke="rgb(103,160,50)" stroke-width="1" opacity="0.75" />
		</g>
	</g>
	<g>
		<title>LnmS</title>
		<polygon class="LnmS" points="3785,16 3785,16 3785,1 3757,31 3785,61 3785,46 3785,46" fill="rgb(250,186,254)" fill-opacity="1.0" stroke="rgb(100,74,101)" stroke-width="1" />
		<g>
			<title>PF00528</title>
			<polygon class="PF00528" points="3759,31 3771,18 3774,18 3774,44 3771,44" stroke-linejoin="round" width="17" height="26" fill="rgb(77,208,225)" stroke="rgb(61,166,180)" stroke-width="1" opacity="0.75" />
		</g>
	</g>
	<g>
		<title>LnmT</title>
		<polygon class="LnmT" points="3818,16 3816,16 3816,1 3786,31 3816,61 3816,46 3818,46" fill="rgb(239,192,253)" fill-opacity="1.0" stroke="rgb(95,76,101)" stroke-width="1" />
		<g>
			<title>PF00528</title>
			<polygon class="PF00528" points="3788,31 3801,18 3806,18 3806,44 3801,44" stroke-linejoin="round" width="20" height="26" fill="rgb(77,208,225)" stroke="rgb(61,166,180)" stroke-width="1" opacity="0.75" />
		</g>
	</g>
	<g>
		<title>LnmU</title>
		<polygon class="LnmU" points="3869,16 3848,16 3848,1 3818,31 3848,61 3848,46 3869,46" fill="rgb(229,208,251)" fill-opacity="1.0" stroke="rgb(91,83,100)" stroke-width="1" />
		<g>
			<title>PF00496</title>
			<polygon class="PF00496" points="3827,24 3833,18 3860,18 3860,44 3833,44 3827,37" stroke-linejoin="round" width="33" height="26" fill="rgb(199,94,116)" stroke="rgb(159,75,92)" stroke-width="1" opacity="0.75" />
		</g>
	</g>
	<g>
		<title>LnmV</title>
		<polygon class="LnmV" points="3884,16 3884,16 3884,1 3872,31 3884,61 3884,46 3884,46" fill="rgb(192,251,190)" fill-opacity="1.0" stroke="rgb(76,100,76)" stroke-width="1" />
		<g>
			<title>PF12680</title>
			<polygon class="PF12680" points="3874,31 3879,18 3882,18 3882,44 3879,44" stroke-linejoin="round" width="9" height="26" fill="rgb(184,69,155)" stroke="rgb(147,55,124)" stroke-width="1" opacity="0.75" />
		</g>
	</g>
	<g>
		<title>LnmW</title>
		<polygon class="LnmW" points="3935,16 3914,16 3914,1 3884,31 3914,61 3914,46 3935,46" fill="rgb(252,179,187)" fill-opacity="1.0" stroke="rgb(100,71,74)" stroke-width="1" />
		<g>
			<title>PF13193</title>
			<polygon class="PF13193" points="3887,30 3894,23 3894,38 3887,31" stroke-linejoin="round" width="7" height="26" fill="rgb(182,50,118)" stroke="rgb(145,39,94)" stroke-width="1" opacity="0.75" />
		</g>
		<g>
			<title>PF00501</title>
			<polygon class="PF00501" points="3895,22 3899,18 3933,18 3933,44 3899,44 3895,39" stroke-linejoin="round" width="38" height="26" fill="rgb(60,217,223)" stroke="rgb(48,173,178)" stroke-width="1" opacity="0.75" />
		</g>
	</g>
	<g>
		<title>LnmX</title>
		<polygon class="LnmX" points="3959,16 3959,16 3959,1 3935,31 3959,61 3959,46 3959,46" fill="rgb(243,252,212)" fill-opacity="1.0" stroke="rgb(97,100,84)" stroke-width="1" />
		<g>
			<title>PF02585</title>
			<polygon class="PF02585" points="3944,22 3947,18 3957,18 3957,44 3947,44 3944,39" stroke-linejoin="round" width="13" height="26" fill="rgb(97,215,95)" stroke="rgb(77,172,76)" stroke-width="1" opacity="0.75" />
		</g>
	</g>
	<g>
		<polygon class="NoName" points="394,16 404,16 404,1 434,31 404,61 404,46 394,46" fill="rgb(255,255,255)" fill-opacity="1.0" stroke="rgb(50,50,50)" stroke-width="1" />
		<g>
			<title>PF07992</title>
			<polygon class="PF07992" points="395,18 418,18 424,24 424,38 418,44 395,44" stroke-linejoin="round" width="29" height="26" fill="rgb(83,223,167)" stroke="rgb(66,178,133)" stroke-width="1" opacity="0.75" />
		</g>
	</g>
	<g>
		<title>LnmY</title>
		<polygon class="LnmY" points="4008,16 3991,16 3991,1 3961,31 3991,61 3991,46 4008,46" fill="rgb(208,250,238)" fill-opacity="1.0" stroke="rgb(83,100,95)" stroke-width="1" />
		<g>
			<title>PF07690</title>
			<polygon class="PF07690" points="3966,28 3976,18 4005,18 4005,44 3976,44 3966,33" stroke-linejoin="round" width="39" height="26" fill="rgb(193,224,74)" stroke="rgb(154,179,59)" stroke-width="1" opacity="0.75" />
		</g>
	</g>
	<g>
		<title>LnmZ</title>
		<polygon class="LnmZ" points="4055,16 4045,16 4045,1 4015,31 4045,61 4045,46 4055,46" fill="rgb(217,200,250)" fill-opacity="1.0" stroke="rgb(86,80,100)" stroke-width="1" />
		<g>
			<title>PF00067</title>
			<polygon class="PF00067" points="4017,31 4028,20 4028,41" stroke-linejoin="round" width="11" height="26" fill="rgb(85,216,107)" stroke="rgb(68,172,85)" stroke-width="1" opacity="0.75" />
		</g>
	</g>
	<g>
		<title>LnmZ_</title>
		<polygon class="LnmZ_" points="4059,16 4059,16 4059,1 4072,31 4059,61 4059,46 4059,46" fill="rgb(191,226,253)" fill-opacity="1.0" stroke="rgb(76,90,101)" stroke-width="1" />
		<g>
			<title>PF11528</title>
			<polygon class="PF11528" points="4059,18 4063,18 4069,31 4063,44 4059,44" stroke-linejoin="round" width="12" height="26" fill="rgb(194,63,193)" stroke="rgb(155,50,154)" stroke-width="1" opacity="0.75" />
		</g>
	</g>
	<g>
		<polygon class="NoName" points="4094,16 4094,16 4094,1 4073,31 4094,61 4094,46 4094,46" fill="rgb(255,255,255)" fill-opacity="1.0" stroke="rgb(50,50,50)" stroke-width="1" />
		<g>
			<title>PF08002</title>
			<polygon class="PF08002" points="4077,28 4084,18 4090,18 4090,44 4084,44 4077,33" stroke-linejoin="round" width="13" height="26" fill="rgb(84,200,100)" stroke="rgb(67,160,80)" stroke-width="1" opacity="0.75" />
		</g>
	</g>
	<g>
		<polygon class="NoName" points="4122,16 4122,16 4122,1 4095,31 4122,61 4122,46 4122,46" fill="rgb(255,255,255)" fill-opacity="1.0" stroke="rgb(50,50,50)" stroke-width="1" />
		<g>
			<title>PF00975</title>
			<polygon class="PF00975" points="4097,31 4109,18 4118,18 4118,44 4109,44" stroke-linejoin="round" width="22" height="26" fill="rgb(207,80,138)" stroke="rgb(165,63,110)" stroke-width="1" opacity="0.75" />
		</g>
	</g>
	<g>
		<polygon class="NoName" points="4130,16 4134,16 4134,1 4164,31 4134,61 4134,46 4130,46" fill="rgb(255,255,255)" fill-opacity="1.0" stroke="rgb(50,50,50)" stroke-width="1" />
		<g>
			<title>PF02585</title>
			<rect class="PF02585" x="4131" y="18" stroke-linejoin="round" width="14" height="26" fill="rgb(97,215,95)" stroke="rgb(77,172,76)" stroke-width="1" opacity="0.75" />
		</g>
	</g>
	<g>
		<polygon class="NoName" points="4184,16 4184,16 4184,1 4161,31 4184,61 4184,46 4184,46" fill="rgb(255,255,255)" fill-opacity="1.0" stroke="rgb(50,50,50)" stroke-width="1" />
		<g>
			<title>PF16859</title>
			<polygon class="PF16859" points="4163,31 4173,18 4173,43" stroke-linejoin="round" width="10" height="26" fill="rgb(219,77,198)" stroke="rgb(175,61,158)" stroke-width="1" opacity="0.75" />
		</g>
		<g>
			<title>PF00440</title>
			<rect class="PF00440" x="4175" y="18" stroke-linejoin="round" width="4" height="26" fill="rgb(73,212,190)" stroke="rgb(58,169,152)" stroke-width="1" opacity="0.75" />
		</g>
	</g>
	<g>
		<polygon class="NoName" points="4188,16 4212,16 4212,1 4242,31 4212,61 4212,46 4188,46" fill="rgb(255,255,255)" fill-opacity="1.0" stroke="rgb(50,50,50)" stroke-width="1" />
		<g>
			<title>PF00005</title>
			<rect class="PF00005" x="4190" y="18" stroke-linejoin="round" width="16" height="26" fill="rgb(129,201,63)" stroke="rgb(103,160,50)" stroke-width="1" opacity="0.75" />
		</g>
		<g>
			<title>PF00005</title>
			<polygon class="PF00005" points="4224,18 4226,18 4236,28 4236,34 4226,44 4224,44" stroke-linejoin="round" width="12" height="26" fill="rgb(129,201,63)" stroke="rgb(103,160,50)" stroke-width="1" opacity="0.75" />
		</g>
	</g>
	<g>
		<polygon class="NoName" points="4242,16 4244,16 4244,1 4274,31 4244,61 4244,46 4242,46" fill="rgb(255,255,255)" fill-opacity="1.0" stroke="rgb(50,50,50)" stroke-width="1" />
	</g>
	<g>
		<polygon class="NoName" points="4333,16 4308,16 4308,1 4278,31 4308,61 4308,46 4333,46" fill="rgb(255,255,255)" fill-opacity="1.0" stroke="rgb(50,50,50)" stroke-width="1" />
		<g>
			<title>PF00005</title>
			<polygon class="PF00005" points="4284,27 4293,18 4296,18 4296,44 4293,44 4284,34" stroke-linejoin="round" width="12" height="26" fill="rgb(129,201,63)" stroke="rgb(103,160,50)" stroke-width="1" opacity="0.75" />
		</g>
		<g>
			<title>PF00005</title>
			<rect class="PF00005" x="4315" y="18" stroke-linejoin="round" width="14" height="26" fill="rgb(129,201,63)" stroke="rgb(103,160,50)" stroke-width="1" opacity="0.75" />
		</g>
	</g>
	<g>
		<polygon class="NoName" points="434,16 434,16 434,1 464,31 434,61 434,46 434,46" fill="rgb(255,255,255)" fill-opacity="1.0" stroke="rgb(50,50,50)" stroke-width="1" />
		<g>
			<title>PF04542</title>
			<rect class="PF04542" x="435" y="18" stroke-linejoin="round" width="6" height="26" fill="rgb(184,59,197)" stroke="rgb(147,47,157)" stroke-width="1" opacity="0.75" />
		</g>
		<g>
			<title>PF08281</title>
			<polygon class="PF08281" points="444,18 448,18 449,19 449,43 448,44 444,44" stroke-linejoin="round" width="5" height="26" fill="rgb(222,103,144)" stroke="rgb(177,82,115)" stroke-width="1" opacity="0.75" />
		</g>
	</g>
	<g>
		<polygon class="NoName" points="4391,16 4374,16 4374,1 4344,31 4374,61 4374,46 4391,46" fill="rgb(255,255,255)" fill-opacity="1.0" stroke="rgb(50,50,50)" stroke-width="1" />
		<g>
			<title>PF05221</title>
			<polygon class="PF05221" points="4346,31 4359,18 4389,18 4389,44 4359,44" stroke-linejoin="round" width="45" height="26" fill="rgb(55,203,152)" stroke="rgb(44,162,121)" stroke-width="1" opacity="0.75" />
		</g>
	</g>
	<g>
		<polygon class="NoName" points="4421,16 4421,16 4421,1 4391,31 4421,61 4421,46 4421,46" fill="rgb(255,255,255)" fill-opacity="1.0" stroke="rgb(50,50,50)" stroke-width="1" />
		<g>
			<title>PF02219</title>
			<polygon class="PF02219" points="4393,31 4406,18 4420,18 4420,44 4406,44" stroke-linejoin="round" width="28" height="26" fill="rgb(209,76,219)" stroke="rgb(167,60,175)" stroke-width="1" opacity="0.75" />
		</g>
	</g>
	<g>
		<polygon class="NoName" points="476,16 478,16 478,1 508,31 478,61 478,46 476,46" fill="rgb(255,255,255)" fill-opacity="1.0" stroke="rgb(50,50,50)" stroke-width="1" />
		<g>
			<title>PF01636</title>
			<polygon class="PF01636" points="479,18 492,18 503,29 503,33 492,44 479,44" stroke-linejoin="round" width="24" height="26" fill="rgb(106,220,228)" stroke="rgb(84,176,182)" stroke-width="1" opacity="0.75" />
		</g>
	</g>
	<g>
		<polygon class="NoName" points="542,16 542,16 542,1 523,31 542,61 542,46 542,46" fill="rgb(255,255,255)" fill-opacity="1.0" stroke="rgb(50,50,50)" stroke-width="1" />
		<g>
			<title>PF00440</title>
			<rect class="PF00440" x="536" y="18" stroke-linejoin="round" width="4" height="26" fill="rgb(73,212,190)" stroke="rgb(58,169,152)" stroke-width="1" opacity="0.75" />
		</g>
	</g>
	<g>
		<polygon class="NoName" points="549,16 572,16 572,1 602,31 572,61 572,46 549,46" fill="rgb(255,255,255)" fill-opacity="1.0" stroke="rgb(50,50,50)" stroke-width="1" />
		<g>
			<title>PF07690</title>
			<polygon class="PF07690" points="553,18 586,18 592,24 592,38 586,44 553,44" stroke-linejoin="round" width="39" height="26" fill="rgb(193,224,74)" stroke="rgb(154,179,59)" stroke-width="1" opacity="0.75" />
		</g>
	</g>
</svg>
