<svg version="1.1" baseProfile="full" xmlns="http://www.w3.org/2000/svg" width="374" height="62">
	<line x1="1" y1="31" x2="373" y2="31" style="stroke:rgb(50,50,50); stroke-width:3 "/>
	<g>
		<polygon class="NoName" points="355,16 355,16 355,1 344,31 355,61 355,46 355,46" fill="rgb(255,255,255)" fill-opacity="1.0" stroke="rgb(50,50,50)" stroke-width="1" />
	</g>
	<g>
		<title>dsg</title>
		<polygon class="dsg" points="372,16 372,16 372,1 366,31 372,61 372,46 372,46" fill="rgb(192,252,228)" fill-opacity="1.0" stroke="rgb(76,100,91)" stroke-width="1" />
	</g>
	<g>
		<title>usg</title>
		<polygon class="usg" points="1,16 1,16 1,1 13,31 1,61 1,46 1,46" fill="rgb(209,251,252)" fill-opacity="1.0" stroke="rgb(83,100,100)" stroke-width="1" />
	</g>
	<g>
		<title>carB</title>
		<polygon class="carB" points="119,16 47,16 47,1 17,31 47,61 47,46 119,46" fill="rgb(250,204,244)" fill-opacity="1.0" stroke="rgb(100,81,97)" stroke-width="1" />
		<g>
			<title>PF02786</title>
			<polygon class="PF02786" points="32,18 32,18 52,18 52,44 32,44 32,43" stroke-linejoin="round" width="20" height="26" fill="rgb(190,97,205)" stroke="rgb(151,77,164)" stroke-width="1" opacity="0.75" />
		</g>
		<g>
			<title>PF02787</title>
			<rect class="PF02787" x="65" y="18" stroke-linejoin="round" width="11" height="26" fill="rgb(217,64,78)" stroke="rgb(173,51,62)" stroke-width="1" opacity="0.75" />
		</g>
		<g>
			<title>PF02786</title>
			<rect class="PF02786" x="85" y="18" stroke-linejoin="round" width="20" height="26" fill="rgb(190,97,205)" stroke="rgb(151,77,164)" stroke-width="1" opacity="0.75" />
		</g>
	</g>
	<g>
		<title>carA</title>
		<polygon class="carA" points="153,16 148,16 148,1 118,31 148,61 148,46 153,46" fill="rgb(190,227,251)" fill-opacity="1.0" stroke="rgb(76,90,100)" stroke-width="1" />
		<g>
			<title>PF00117</title>
			<polygon class="PF00117" points="120,31 133,18 136,18 136,44 133,44" stroke-linejoin="round" width="17" height="26" fill="rgb(159,201,96)" stroke="rgb(127,160,76)" stroke-width="1" opacity="0.75" />
		</g>
		<g>
			<title>PF00988</title>
			<rect class="PF00988" x="140" y="18" stroke-linejoin="round" width="12" height="26" fill="rgb(183,185,63)" stroke="rgb(146,148,50)" stroke-width="1" opacity="0.75" />
		</g>
	</g>
	<g>
		<title>argC</title>
		<polygon class="argC" points="163,16 167,16 167,1 197,31 167,61 167,46 163,46" fill="rgb(207,200,254)" fill-opacity="1.0" stroke="rgb(82,80,101)" stroke-width="1" />
		<g>
			<title>PF02774</title>
			<polygon class="PF02774" points="178,18 181,18 193,30 193,32 181,44 178,44" stroke-linejoin="round" width="15" height="26" fill="rgb(57,188,185)" stroke="rgb(45,150,147)" stroke-width="1" opacity="0.75" />
		</g>
	</g>
	<g>
		<title>argJ</title>
		<polygon class="argJ" points="198,16 208,16 208,1 238,31 208,61 208,46 198,46" fill="rgb(189,249,242)" fill-opacity="1.0" stroke="rgb(75,99,96)" stroke-width="1" />
		<g>
			<title>PF01960</title>
			<polygon class="PF01960" points="200,18 222,18 235,31 222,44 200,44" stroke-linejoin="round" width="38" height="26" fill="rgb(81,120,181)" stroke="rgb(64,95,144)" stroke-width="1" opacity="0.75" />
		</g>
	</g>
	<g>
		<title>argB</title>
		<polygon class="argB" points="239,16 239,16 239,1 263,31 239,61 239,46 239,46" fill="rgb(254,222,215)" fill-opacity="1.0" stroke="rgb(101,88,86)" stroke-width="1" />
		<g>
			<title>PF00696</title>
			<polygon class="PF00696" points="239,18 250,18 260,31 250,44 239,44" stroke-linejoin="round" width="23" height="26" fill="rgb(148,78,224)" stroke="rgb(118,62,179)" stroke-width="1" opacity="0.75" />
		</g>
	</g>
	<g>
		<title>argD</title>
		<polygon class="argD" points="264,16 273,16 273,1 303,31 273,61 273,46 264,46" fill="rgb(206,205,251)" fill-opacity="1.0" stroke="rgb(82,82,100)" stroke-width="1" />
		<g>
			<title>PF00202</title>
			<polygon class="PF00202" points="264,18 287,18 300,31 287,44 264,44" stroke-linejoin="round" width="37" height="26" fill="rgb(49,163,189)" stroke="rgb(39,130,151)" stroke-width="1" opacity="0.75" />
		</g>
	</g>
	<g>
		<title>argF</title>
		<polygon class="argF" points="302,16 306,16 306,1 336,31 306,61 306,46 302,46" fill="rgb(190,249,252)" fill-opacity="1.0" stroke="rgb(76,99,100)" stroke-width="1" />
		<g>
			<title>PF02729</title>
			<rect class="PF02729" x="302" y="18" stroke-linejoin="round" width="14" height="26" fill="rgb(223,74,58)" stroke="rgb(178,59,46)" stroke-width="1" opacity="0.75" />
		</g>
		<g>
			<title>PF00185</title>
			<polygon class="PF00185" points="317,18 320,18 333,31 320,44 317,44" stroke-linejoin="round" width="17" height="26" fill="rgb(215,107,106)" stroke="rgb(172,85,84)" stroke-width="1" opacity="0.75" />
		</g>
	</g>
	<g>
		<title>ccl</title>
		<polygon class="ccl" points="340,16 340,16 340,1 356,31 340,61 340,46 340,46" fill="rgb(252,206,177)" fill-opacity="1.0" stroke="rgb(100,82,70)" stroke-width="1" />
		<g>
			<title>PF06177</title>
			<polygon class="PF06177" points="340,18 346,18 353,31 346,44 340,44" stroke-linejoin="round" width="15" height="26" fill="rgb(78,126,222)" stroke="rgb(62,100,177)" stroke-width="1" opacity="0.75" />
		</g>
	</g>
</svg>
