<svg version="1.1" baseProfile="full" xmlns="http://www.w3.org/2000/svg" width="1831" height="62">
	<line x1="1" y1="31" x2="1830" y2="31" style="stroke:rgb(50,50,50); stroke-width:3 "/>
	<g>
		<polygon class="NoName" points="415,16 405,16 405,1 375,31 405,61 405,46 415,46" fill="rgb(255,255,255)" fill-opacity="1.0" stroke="rgb(50,50,50)" stroke-width="1" />
		<g>
			<title>PF00202</title>
			<polygon class="PF00202" points="377,31 390,18 413,18 413,44 390,44" stroke-linejoin="round" width="37" height="26" fill="rgb(49,163,189)" stroke="rgb(39,130,151)" stroke-width="1" opacity="0.75" />
		</g>
	</g>
	<g>
		<polygon class="NoName" points="446,16 445,16 445,1 415,31 445,61 445,46 446,46" fill="rgb(255,255,255)" fill-opacity="1.0" stroke="rgb(50,50,50)" stroke-width="1" />
		<g>
			<title>PF00696</title>
			<polygon class="PF00696" points="419,29 430,18 443,18 443,44 430,44 419,32" stroke-linejoin="round" width="24" height="26" fill="rgb(148,78,224)" stroke="rgb(118,62,179)" stroke-width="1" opacity="0.75" />
		</g>
	</g>
	<g>
		<polygon class="NoName" points="484,16 476,16 476,1 446,31 476,61 476,46 484,46" fill="rgb(255,255,255)" fill-opacity="1.0" stroke="rgb(50,50,50)" stroke-width="1" />
		<g>
			<title>PF01960</title>
			<polygon class="PF01960" points="448,31 461,18 483,18 483,44 461,44" stroke-linejoin="round" width="37" height="26" fill="rgb(81,120,181)" stroke="rgb(64,95,144)" stroke-width="1" opacity="0.75" />
		</g>
	</g>
	<g>
		<polygon class="NoName" points="519,16 515,16 515,1 485,31 515,61 515,46 519,46" fill="rgb(255,255,255)" fill-opacity="1.0" stroke="rgb(50,50,50)" stroke-width="1" />
		<g>
			<title>PF02774</title>
			<polygon class="PF02774" points="488,30 500,18 503,18 503,44 500,44 488,31" stroke-linejoin="round" width="15" height="26" fill="rgb(57,188,185)" stroke="rgb(45,150,147)" stroke-width="1" opacity="0.75" />
		</g>
		<g>
			<title>PF01118</title>
			<rect class="PF01118" x="505" y="18" stroke-linejoin="round" width="13" height="26" fill="rgb(191,106,221)" stroke="rgb(152,84,176)" stroke-width="1" opacity="0.75" />
		</g>
	</g>
	<g>
		<polygon class="NoName" points="556,16 553,16 553,1 523,31 553,61 553,46 556,46" fill="rgb(255,255,255)" fill-opacity="1.0" stroke="rgb(50,50,50)" stroke-width="1" />
		<g>
			<title>PF00291</title>
			<polygon class="PF00291" points="527,29 538,18 554,18 554,44 538,44 527,32" stroke-linejoin="round" width="27" height="26" fill="rgb(180,55,145)" stroke="rgb(144,44,116)" stroke-width="1" opacity="0.75" />
		</g>
	</g>
	<g>
		<polygon class="NoName" points="592,16 587,16 587,1 557,31 587,61 587,46 592,46" fill="rgb(255,255,255)" fill-opacity="1.0" stroke="rgb(50,50,50)" stroke-width="1" />
		<g>
			<title>PF02423</title>
			<polygon class="PF02423" points="559,31 572,18 590,18 590,44 572,44" stroke-linejoin="round" width="31" height="26" fill="rgb(221,120,93)" stroke="rgb(176,96,74)" stroke-width="1" opacity="0.75" />
		</g>
	</g>
	<g>
		<polygon class="NoName" points="713,16 625,16 625,1 595,31 625,61 625,46 713,46" fill="rgb(255,255,255)" fill-opacity="1.0" stroke="rgb(50,50,50)" stroke-width="1" />
		<g>
			<title>PF02668</title>
			<polygon class="PF02668" points="597,31 610,18 626,18 626,44 610,44" stroke-linejoin="round" width="30" height="26" fill="rgb(180,79,217)" stroke="rgb(144,63,173)" stroke-width="1" opacity="0.75" />
		</g>
		<g>
			<title>PF00550</title>
			<rect class="PF00550" x="634" y="18" stroke-linejoin="round" width="6" height="26" fill="rgb(103,191,88)" stroke="rgb(82,152,70)" stroke-width="1" opacity="0.75" />
		</g>
		<g>
			<title>PF13193</title>
			<rect class="PF13193" x="643" y="18" stroke-linejoin="round" width="7" height="26" fill="rgb(182,50,118)" stroke="rgb(145,39,94)" stroke-width="1" opacity="0.75" />
		</g>
		<g>
			<title>PF00501</title>
			<rect class="PF00501" x="651" y="18" stroke-linejoin="round" width="40" height="26" fill="rgb(60,217,223)" stroke="rgb(48,173,178)" stroke-width="1" opacity="0.75" />
		</g>
	</g>
	<g>
		<polygon class="NoName" points="735,16 735,16 735,1 762,31 735,61 735,46 735,46" fill="rgb(255,255,255)" fill-opacity="1.0" stroke="rgb(50,50,50)" stroke-width="1" />
		<g>
			<title>PF00975</title>
			<polygon class="PF00975" points="738,18 747,18 759,31 747,44 738,44" stroke-linejoin="round" width="23" height="26" fill="rgb(207,80,138)" stroke="rgb(165,63,110)" stroke-width="1" opacity="0.75" />
		</g>
	</g>
	<g>
		<polygon class="NoName" points="771,16 771,16 771,1 778,31 771,61 771,46 771,46" fill="rgb(255,255,255)" fill-opacity="1.0" stroke="rgb(50,50,50)" stroke-width="1" />
		<g>
			<title>PF03621</title>
			<polygon class="PF03621" points="771,18 772,18 775,31 772,44 771,44" stroke-linejoin="round" width="5" height="26" fill="rgb(212,165,97)" stroke="rgb(169,132,77)" stroke-width="1" opacity="0.75" />
		</g>
	</g>
	<g>
		<polygon class="NoName" points="779,16 779,16 779,1 784,31 779,61 779,46 779,46" fill="rgb(255,255,255)" fill-opacity="1.0" stroke="rgb(50,50,50)" stroke-width="1" />
	</g>
	<g>
		<polygon class="NoName" points="52,16 31,16 31,1 1,31 31,61 31,46 52,46" fill="rgb(255,255,255)" fill-opacity="1.0" stroke="rgb(50,50,50)" stroke-width="1" />
		<g>
			<title>PF07690</title>
			<polygon class="PF07690" points="10,24 16,18 49,18 49,44 16,44 10,37" stroke-linejoin="round" width="39" height="26" fill="rgb(193,224,74)" stroke="rgb(154,179,59)" stroke-width="1" opacity="0.75" />
		</g>
	</g>
	<g>
		<polygon class="NoName" points="789,16 1367,16 1367,1 1397,31 1367,61 1367,46 789,46" fill="rgb(255,255,255)" fill-opacity="1.0" stroke="rgb(50,50,50)" stroke-width="1" />
		<g>
			<title>PF00668</title>
			<rect class="PF00668" x="789" y="18" stroke-linejoin="round" width="40" height="26" fill="rgb(224,184,98)" stroke="rgb(179,147,78)" stroke-width="1" opacity="0.75" />
		</g>
		<g>
			<title>PF00501</title>
			<rect class="PF00501" x="831" y="18" stroke-linejoin="round" width="40" height="26" fill="rgb(60,217,223)" stroke="rgb(48,173,178)" stroke-width="1" opacity="0.75" />
		</g>
		<g>
			<title>PF13193</title>
			<rect class="PF13193" x="872" y="18" stroke-linejoin="round" width="7" height="26" fill="rgb(182,50,118)" stroke="rgb(145,39,94)" stroke-width="1" opacity="0.75" />
		</g>
		<g>
			<title>PF00550</title>
			<rect class="PF00550" x="883" y="18" stroke-linejoin="round" width="6" height="26" fill="rgb(103,191,88)" stroke="rgb(82,152,70)" stroke-width="1" opacity="0.75" />
		</g>
		<g>
			<title>PF00668</title>
			<rect class="PF00668" x="894" y="18" stroke-linejoin="round" width="39" height="26" fill="rgb(224,184,98)" stroke="rgb(179,147,78)" stroke-width="1" opacity="0.75" />
		</g>
		<g>
			<title>PF00501</title>
			<rect class="PF00501" x="940" y="18" stroke-linejoin="round" width="41" height="26" fill="rgb(60,217,223)" stroke="rgb(48,173,178)" stroke-width="1" opacity="0.75" />
		</g>
		<g>
			<title>PF13193</title>
			<rect class="PF13193" x="982" y="18" stroke-linejoin="round" width="7" height="26" fill="rgb(182,50,118)" stroke="rgb(145,39,94)" stroke-width="1" opacity="0.75" />
		</g>
		<g>
			<title>PF00550</title>
			<rect class="PF00550" x="992" y="18" stroke-linejoin="round" width="6" height="26" fill="rgb(103,191,88)" stroke="rgb(82,152,70)" stroke-width="1" opacity="0.75" />
		</g>
		<g>
			<title>PF00668</title>
			<rect class="PF00668" x="1003" y="18" stroke-linejoin="round" width="39" height="26" fill="rgb(224,184,98)" stroke="rgb(179,147,78)" stroke-width="1" opacity="0.75" />
		</g>
		<g>
			<title>PF00501</title>
			<rect class="PF00501" x="1049" y="18" stroke-linejoin="round" width="40" height="26" fill="rgb(60,217,223)" stroke="rgb(48,173,178)" stroke-width="1" opacity="0.75" />
		</g>
		<g>
			<title>PF13193</title>
			<rect class="PF13193" x="1090" y="18" stroke-linejoin="round" width="7" height="26" fill="rgb(182,50,118)" stroke="rgb(145,39,94)" stroke-width="1" opacity="0.75" />
		</g>
		<g>
			<title>PF00550</title>
			<rect class="PF00550" x="1100" y="18" stroke-linejoin="round" width="6" height="26" fill="rgb(103,191,88)" stroke="rgb(82,152,70)" stroke-width="1" opacity="0.75" />
		</g>
		<g>
			<title>PF00668</title>
			<rect class="PF00668" x="1108" y="18" stroke-linejoin="round" width="45" height="26" fill="rgb(224,184,98)" stroke="rgb(179,147,78)" stroke-width="1" opacity="0.75" />
		</g>
		<g>
			<title>PF00501</title>
			<rect class="PF00501" x="1153" y="18" stroke-linejoin="round" width="10" height="26" fill="rgb(60,217,223)" stroke="rgb(48,173,178)" stroke-width="1" opacity="0.75" />
		</g>
		<g>
			<title>PF00550</title>
			<rect class="PF00550" x="1167" y="18" stroke-linejoin="round" width="6" height="26" fill="rgb(103,191,88)" stroke="rgb(82,152,70)" stroke-width="1" opacity="0.75" />
		</g>
		<g>
			<title>PF00668</title>
			<rect class="PF00668" x="1178" y="18" stroke-linejoin="round" width="42" height="26" fill="rgb(224,184,98)" stroke="rgb(179,147,78)" stroke-width="1" opacity="0.75" />
		</g>
		<g>
			<title>PF00501</title>
			<rect class="PF00501" x="1225" y="18" stroke-linejoin="round" width="41" height="26" fill="rgb(60,217,223)" stroke="rgb(48,173,178)" stroke-width="1" opacity="0.75" />
		</g>
		<g>
			<title>PF13193</title>
			<rect class="PF13193" x="1267" y="18" stroke-linejoin="round" width="7" height="26" fill="rgb(182,50,118)" stroke="rgb(145,39,94)" stroke-width="1" opacity="0.75" />
		</g>
		<g>
			<title>PF00550</title>
			<rect class="PF00550" x="1277" y="18" stroke-linejoin="round" width="6" height="26" fill="rgb(103,191,88)" stroke="rgb(82,152,70)" stroke-width="1" opacity="0.75" />
		</g>
		<g>
			<title>PF00668</title>
			<rect class="PF00668" x="1288" y="18" stroke-linejoin="round" width="44" height="26" fill="rgb(224,184,98)" stroke="rgb(179,147,78)" stroke-width="1" opacity="0.75" />
		</g>
		<g>
			<title>PF00501</title>
			<rect class="PF00501" x="1334" y="18" stroke-linejoin="round" width="41" height="26" fill="rgb(60,217,223)" stroke="rgb(48,173,178)" stroke-width="1" opacity="0.75" />
		</g>
		<g>
			<title>PF13193</title>
			<polygon class="PF13193" points="1377,18 1381,18 1385,22 1385,40 1381,44 1377,44" stroke-linejoin="round" width="8" height="26" fill="rgb(182,50,118)" stroke="rgb(145,39,94)" stroke-width="1" opacity="0.75" />
		</g>
		<g>
			<title>PF00550</title>
			<polygon class="PF00550" points="1388,25 1394,31 1394,31 1388,37" stroke-linejoin="round" width="6" height="26" fill="rgb(103,191,88)" stroke="rgb(82,152,70)" stroke-width="1" opacity="0.75" />
		</g>
	</g>
	<g>
		<polygon class="NoName" points="1397,16 1755,16 1755,1 1785,31 1755,61 1755,46 1397,46" fill="rgb(255,255,255)" fill-opacity="1.0" stroke="rgb(50,50,50)" stroke-width="1" />
		<g>
			<title>PF00668</title>
			<rect class="PF00668" x="1397" y="18" stroke-linejoin="round" width="45" height="26" fill="rgb(224,184,98)" stroke="rgb(179,147,78)" stroke-width="1" opacity="0.75" />
		</g>
		<g>
			<title>PF00501</title>
			<rect class="PF00501" x="1444" y="18" stroke-linejoin="round" width="40" height="26" fill="rgb(60,217,223)" stroke="rgb(48,173,178)" stroke-width="1" opacity="0.75" />
		</g>
		<g>
			<title>PF13193</title>
			<rect class="PF13193" x="1485" y="18" stroke-linejoin="round" width="7" height="26" fill="rgb(182,50,118)" stroke="rgb(145,39,94)" stroke-width="1" opacity="0.75" />
		</g>
		<g>
			<title>PF00550</title>
			<rect class="PF00550" x="1495" y="18" stroke-linejoin="round" width="6" height="26" fill="rgb(103,191,88)" stroke="rgb(82,152,70)" stroke-width="1" opacity="0.75" />
		</g>
		<g>
			<title>PF00668</title>
			<rect class="PF00668" x="1506" y="18" stroke-linejoin="round" width="39" height="26" fill="rgb(224,184,98)" stroke="rgb(179,147,78)" stroke-width="1" opacity="0.75" />
		</g>
		<g>
			<title>PF00501</title>
			<rect class="PF00501" x="1552" y="18" stroke-linejoin="round" width="39" height="26" fill="rgb(60,217,223)" stroke="rgb(48,173,178)" stroke-width="1" opacity="0.75" />
		</g>
		<g>
			<title>PF13193</title>
			<rect class="PF13193" x="1592" y="18" stroke-linejoin="round" width="7" height="26" fill="rgb(182,50,118)" stroke="rgb(145,39,94)" stroke-width="1" opacity="0.75" />
		</g>
		<g>
			<title>PF00550</title>
			<rect class="PF00550" x="1603" y="18" stroke-linejoin="round" width="6" height="26" fill="rgb(103,191,88)" stroke="rgb(82,152,70)" stroke-width="1" opacity="0.75" />
		</g>
		<g>
			<title>PF00668</title>
			<rect class="PF00668" x="1611" y="18" stroke-linejoin="round" width="45" height="26" fill="rgb(224,184,98)" stroke="rgb(179,147,78)" stroke-width="1" opacity="0.75" />
		</g>
		<g>
			<title>PF00501</title>
			<rect class="PF00501" x="1658" y="18" stroke-linejoin="round" width="41" height="26" fill="rgb(60,217,223)" stroke="rgb(48,173,178)" stroke-width="1" opacity="0.75" />
		</g>
		<g>
			<title>PF08242</title>
			<rect class="PF08242" x="1711" y="18" stroke-linejoin="round" width="10" height="26" fill="rgb(187,59,115)" stroke="rgb(149,47,92)" stroke-width="1" opacity="0.75" />
		</g>
		<g>
			<title>PF00550</title>
			<rect class="PF00550" x="1753" y="18" stroke-linejoin="round" width="6" height="26" fill="rgb(103,191,88)" stroke="rgb(82,152,70)" stroke-width="1" opacity="0.75" />
		</g>
		<g>
			<title>PF00975</title>
			<polygon class="PF00975" points="1762,18 1769,18 1782,31 1769,44 1762,44" stroke-linejoin="round" width="22" height="26" fill="rgb(207,80,138)" stroke="rgb(165,63,110)" stroke-width="1" opacity="0.75" />
		</g>
	</g>
	<g>
		<polygon class="NoName" points="1787,16 1800,16 1800,1 1830,31 1800,61 1800,46 1787,46" fill="rgb(255,255,255)" fill-opacity="1.0" stroke="rgb(50,50,50)" stroke-width="1" />
		<g>
			<title>PF00291</title>
			<polygon class="PF00291" points="1793,18 1814,18 1825,29 1825,33 1814,44 1793,44" stroke-linejoin="round" width="32" height="26" fill="rgb(180,55,145)" stroke="rgb(144,44,116)" stroke-width="1" opacity="0.75" />
		</g>
	</g>
	<g>
		<polygon class="NoName" points="71,16 71,16 71,1 52,31 71,61 71,46 71,46" fill="rgb(255,255,255)" fill-opacity="1.0" stroke="rgb(50,50,50)" stroke-width="1" />
		<g>
			<title>PF00440</title>
			<rect class="PF00440" x="65" y="18" stroke-linejoin="round" width="4" height="26" fill="rgb(73,212,190)" stroke="rgb(58,169,152)" stroke-width="1" opacity="0.75" />
		</g>
	</g>
	<g>
		<polygon class="NoName" points="79,16 121,16 121,1 151,31 121,61 121,46 79,46" fill="rgb(255,255,255)" fill-opacity="1.0" stroke="rgb(50,50,50)" stroke-width="1" />
	</g>
	<g>
		<polygon class="NoName" points="186,16 182,16 182,1 152,31 182,61 182,46 186,46" fill="rgb(255,255,255)" fill-opacity="1.0" stroke="rgb(50,50,50)" stroke-width="1" />
		<g>
			<title>PF00248</title>
			<polygon class="PF00248" points="154,31 167,18 179,18 179,44 167,44" stroke-linejoin="round" width="26" height="26" fill="rgb(225,205,58)" stroke="rgb(180,164,46)" stroke-width="1" opacity="0.75" />
		</g>
	</g>
	<g>
		<polygon class="NoName" points="236,16 219,16 219,1 189,31 219,61 219,46 236,46" fill="rgb(255,255,255)" fill-opacity="1.0" stroke="rgb(50,50,50)" stroke-width="1" />
		<g>
			<title>PF14698</title>
			<polygon class="PF14698" points="192,30 198,24 198,37 192,31" stroke-linejoin="round" width="6" height="26" fill="rgb(107,69,187)" stroke="rgb(85,55,149)" stroke-width="1" opacity="0.75" />
		</g>
		<g>
			<title>PF00206</title>
			<rect class="PF00206" x="205" y="18" stroke-linejoin="round" width="29" height="26" fill="rgb(217,92,141)" stroke="rgb(173,73,112)" stroke-width="1" opacity="0.75" />
		</g>
	</g>
	<g>
		<polygon class="NoName" points="279,16 270,16 270,1 240,31 270,61 270,46 279,46" fill="rgb(255,255,255)" fill-opacity="1.0" stroke="rgb(50,50,50)" stroke-width="1" />
		<g>
			<title>PF00764</title>
			<polygon class="PF00764" points="242,31 255,18 278,18 278,44 255,44" stroke-linejoin="round" width="38" height="26" fill="rgb(93,212,110)" stroke="rgb(74,169,88)" stroke-width="1" opacity="0.75" />
		</g>
	</g>
	<g>
		<polygon class="NoName" points="283,16 299,16 299,1 329,31 299,61 299,46 283,46" fill="rgb(255,255,255)" fill-opacity="1.0" stroke="rgb(50,50,50)" stroke-width="1" />
		<g>
			<title>PF13646</title>
			<polygon class="PF13646" points="316,21 324,29 324,33 316,41" stroke-linejoin="round" width="8" height="26" fill="rgb(161,180,58)" stroke="rgb(128,144,46)" stroke-width="1" opacity="0.75" />
		</g>
	</g>
	<g>
		<polygon class="NoName" points="332,16 332,16 332,1 355,31 332,61 332,46 332,46" fill="rgb(255,255,255)" fill-opacity="1.0" stroke="rgb(50,50,50)" stroke-width="1" />
	</g>
	<g>
		<polygon class="NoName" points="373,16 373,16 373,1 356,31 373,61 373,46 373,46" fill="rgb(255,255,255)" fill-opacity="1.0" stroke="rgb(50,50,50)" stroke-width="1" />
		<g>
			<title>PF02863</title>
			<polygon class="PF02863" points="358,31 362,24 362,37" stroke-linejoin="round" width="6" height="26" fill="rgb(80,175,218)" stroke="rgb(64,140,174)" stroke-width="1" opacity="0.75" />
		</g>
		<g>
			<title>PF01316</title>
			<polygon class="PF01316" points="365,19 365,18 371,18 371,44 365,44 365,42" stroke-linejoin="round" width="6" height="26" fill="rgb(219,102,162)" stroke="rgb(175,81,129)" stroke-width="1" opacity="0.75" />
		</g>
	</g>
</svg>
