<svg version="1.1" baseProfile="full" xmlns="http://www.w3.org/2000/svg" width="303" height="62">
	<line x1="1" y1="31" x2="302" y2="31" style="stroke:rgb(50,50,50); stroke-width:3 "/>
	<g>
		<polygon class="NoName" points="1,16 69,16 69,1 99,31 69,61 69,46 1,46" fill="rgb(255,255,255)" fill-opacity="1.0" stroke="rgb(50,50,50)" stroke-width="1" />
		<g>
			<title>PF07715</title>
			<rect class="PF07715" x="14" y="18" stroke-linejoin="round" width="12" height="26" fill="rgb(99,133,214)" stroke="rgb(79,106,171)" stroke-width="1" opacity="0.75" />
		</g>
		<g>
			<title>PF00593</title>
			<polygon class="PF00593" points="42,18 83,18 96,31 83,44 42,44" stroke-linejoin="round" width="56" height="26" fill="rgb(171,200,51)" stroke="rgb(136,160,40)" stroke-width="1" opacity="0.75" />
		</g>
	</g>
	<g>
		<polygon class="NoName" points="99,16 137,16 137,1 167,31 137,61 137,46 99,46" fill="rgb(255,255,255)" fill-opacity="1.0" stroke="rgb(50,50,50)" stroke-width="1" />
		<g>
			<title>PF00326</title>
			<polygon class="PF00326" points="145,18 151,18 162,29 162,33 151,44 145,44" stroke-linejoin="round" width="17" height="26" fill="rgb(77,97,209)" stroke="rgb(61,77,167)" stroke-width="1" opacity="0.75" />
		</g>
	</g>
	<g>
		<polygon class="NoName" points="223,16 195,16 195,1 165,31 195,61 195,46 223,46" fill="rgb(255,255,255)" fill-opacity="1.0" stroke="rgb(50,50,50)" stroke-width="1" />
		<g>
			<title>PF00733</title>
			<polygon class="PF00733" points="167,31 180,18 200,18 200,44 180,44" stroke-linejoin="round" width="35" height="26" fill="rgb(97,201,176)" stroke="rgb(77,160,140)" stroke-width="1" opacity="0.75" />
		</g>
	</g>
	<g>
		<polygon class="NoName" points="245,16 245,16 245,1 223,31 245,61 245,46 245,46" fill="rgb(255,255,255)" fill-opacity="1.0" stroke="rgb(50,50,50)" stroke-width="1" />
		<g>
			<title>PF13471</title>
			<polygon class="PF13471" points="225,31 234,19 234,42" stroke-linejoin="round" width="11" height="26" fill="rgb(63,111,179)" stroke="rgb(50,88,143)" stroke-width="1" opacity="0.75" />
		</g>
	</g>
	<g>
		<polygon class="NoName" points="257,16 257,16 257,1 253,31 257,61 257,46 257,46" fill="rgb(255,255,255)" fill-opacity="1.0" stroke="rgb(50,50,50)" stroke-width="1" />
	</g>
	<g>
		<polygon class="NoName" points="264,16 264,16 264,1 260,31 264,61 264,46 264,46" fill="rgb(255,255,255)" fill-opacity="1.0" stroke="rgb(50,50,50)" stroke-width="1" />
	</g>
	<g>
		<polygon class="NoName" points="293,16 293,16 293,1 268,31 293,61 293,46 293,46" fill="rgb(255,255,255)" fill-opacity="1.0" stroke="rgb(50,50,50)" stroke-width="1" />
		<g>
			<title>PF00392</title>
			<polygon class="PF00392" points="281,18 281,18 287,18 287,44 281,44 281,43" stroke-linejoin="round" width="6" height="26" fill="rgb(160,85,194)" stroke="rgb(127,68,155)" stroke-width="1" opacity="0.75" />
		</g>
	</g>
	<g>
		<polygon class="NoName" points="302,16 302,16 302,1 295,31 302,61 302,46 302,46" fill="rgb(255,255,255)" fill-opacity="1.0" stroke="rgb(50,50,50)" stroke-width="1" />
	</g>
</svg>
