<svg version="1.1" baseProfile="full" xmlns="http://www.w3.org/2000/svg" width="876" height="62">
	<line x1="1" y1="31" x2="875" y2="31" style="stroke:rgb(50,50,50); stroke-width:3 "/>
	<g>
		<title>entE</title>
		<polygon class="entE" points="429,16 405,16 405,1 375,31 405,61 405,46 429,46" fill="rgb(186,253,235)" fill-opacity="1.0" stroke="rgb(74,101,93)" stroke-width="1" />
		<g>
			<title>PF13193</title>
			<polygon class="PF13193" points="377,31 382,26 382,35" stroke-linejoin="round" width="7" height="26" fill="rgb(182,50,118)" stroke="rgb(145,39,94)" stroke-width="1" opacity="0.75" />
		</g>
		<g>
			<title>PF00501</title>
			<polygon class="PF00501" points="384,24 390,18 425,18 425,44 390,44 384,37" stroke-linejoin="round" width="41" height="26" fill="rgb(60,217,223)" stroke="rgb(48,173,178)" stroke-width="1" opacity="0.75" />
		</g>
	</g>
	<g>
		<polygon class="NoName" points="535,16 459,16 459,1 429,31 459,61 459,46 535,46" fill="rgb(255,255,255)" fill-opacity="1.0" stroke="rgb(50,50,50)" stroke-width="1" />
		<g>
			<title>PF00668</title>
			<polygon class="PF00668" points="431,31 444,18 475,18 475,44 444,44" stroke-linejoin="round" width="45" height="26" fill="rgb(224,184,98)" stroke="rgb(179,147,78)" stroke-width="1" opacity="0.75" />
		</g>
		<g>
			<title>PF00550</title>
			<rect class="PF00550" x="477" y="18" stroke-linejoin="round" width="6" height="26" fill="rgb(103,191,88)" stroke="rgb(82,152,70)" stroke-width="1" opacity="0.75" />
		</g>
		<g>
			<title>PF00668</title>
			<rect class="PF00668" x="489" y="18" stroke-linejoin="round" width="41" height="26" fill="rgb(224,184,98)" stroke="rgb(179,147,78)" stroke-width="1" opacity="0.75" />
		</g>
	</g>
	<g>
		<polygon class="NoName" points="644,16 566,16 566,1 536,31 566,61 566,46 644,46" fill="rgb(255,255,255)" fill-opacity="1.0" stroke="rgb(50,50,50)" stroke-width="1" />
		<g>
			<title>PF13193</title>
			<polygon class="PF13193" points="549,20 551,18 556,18 556,44 551,44 549,41" stroke-linejoin="round" width="7" height="26" fill="rgb(182,50,118)" stroke="rgb(145,39,94)" stroke-width="1" opacity="0.75" />
		</g>
		<g>
			<title>PF00501</title>
			<rect class="PF00501" x="558" y="18" stroke-linejoin="round" width="40" height="26" fill="rgb(60,217,223)" stroke="rgb(48,173,178)" stroke-width="1" opacity="0.75" />
		</g>
		<g>
			<title>PF00668</title>
			<rect class="PF00668" x="601" y="18" stroke-linejoin="round" width="42" height="26" fill="rgb(224,184,98)" stroke="rgb(179,147,78)" stroke-width="1" opacity="0.75" />
		</g>
	</g>
	<g>
		<polygon class="NoName" points="728,16 675,16 675,1 645,31 675,61 675,46 728,46" fill="rgb(255,255,255)" fill-opacity="1.0" stroke="rgb(50,50,50)" stroke-width="1" />
		<g>
			<title>PF00550</title>
			<polygon class="PF00550" points="647,31 653,25 653,36" stroke-linejoin="round" width="6" height="26" fill="rgb(103,191,88)" stroke="rgb(82,152,70)" stroke-width="1" opacity="0.75" />
		</g>
		<g>
			<title>PF00668</title>
			<rect class="PF00668" x="671" y="18" stroke-linejoin="round" width="46" height="26" fill="rgb(224,184,98)" stroke="rgb(179,147,78)" stroke-width="1" opacity="0.75" />
		</g>
		<g>
			<title>PF00550</title>
			<rect class="PF00550" x="721" y="18" stroke-linejoin="round" width="6" height="26" fill="rgb(103,191,88)" stroke="rgb(82,152,70)" stroke-width="1" opacity="0.75" />
		</g>
	</g>
	<g>
		<title>entA</title>
		<polygon class="entA" points="754,16 754,16 754,1 728,31 754,61 754,46 754,46" fill="rgb(184,199,254)" fill-opacity="1.0" stroke="rgb(73,79,101)" stroke-width="1" />
		<g>
			<title>PF13561</title>
			<polygon class="PF13561" points="730,31 741,18 751,18 751,44 741,44" stroke-linejoin="round" width="23" height="26" fill="rgb(73,205,127)" stroke="rgb(58,164,101)" stroke-width="1" opacity="0.75" />
		</g>
	</g>
	<g>
		<title>entB</title>
		<polygon class="entB" points="776,16 776,16 776,1 755,31 776,61 776,46 776,46" fill="rgb(246,250,198)" fill-opacity="1.0" stroke="rgb(98,100,79)" stroke-width="1" />
		<g>
			<title>PF00857</title>
			<polygon class="PF00857" points="757,31 766,18 772,18 772,44 766,44" stroke-linejoin="round" width="17" height="26" fill="rgb(144,224,70)" stroke="rgb(115,179,56)" stroke-width="1" opacity="0.75" />
		</g>
	</g>
	<g>
		<title>entC</title>
		<polygon class="entC" points="818,16 809,16 809,1 779,31 809,61 809,46 818,46" fill="rgb(250,229,206)" fill-opacity="1.0" stroke="rgb(100,91,82)" stroke-width="1" />
		<g>
			<title>PF00425</title>
			<polygon class="PF00425" points="781,31 794,18 805,18 805,44 794,44" stroke-linejoin="round" width="25" height="26" fill="rgb(188,116,88)" stroke="rgb(150,92,70)" stroke-width="1" opacity="0.75" />
		</g>
	</g>
	<g>
		<polygon class="NoName" points="874,16 873,16 873,1 843,31 873,61 873,46 874,46" fill="rgb(255,255,255)" fill-opacity="1.0" stroke="rgb(50,50,50)" stroke-width="1" />
		<g>
			<title>PF12833</title>
			<polygon class="PF12833" points="845,31 850,26 850,35" stroke-linejoin="round" width="7" height="26" fill="rgb(216,58,224)" stroke="rgb(172,46,179)" stroke-width="1" opacity="0.75" />
		</g>
	</g>
	<g>
		<polygon class="NoName" points="45,16 31,16 31,1 1,31 31,61 31,46 45,46" fill="rgb(255,255,255)" fill-opacity="1.0" stroke="rgb(50,50,50)" stroke-width="1" />
		<g>
			<title>PF01554</title>
			<polygon class="PF01554" points="5,29 16,18 21,18 21,44 16,44 5,32" stroke-linejoin="round" width="16" height="26" fill="rgb(187,69,173)" stroke="rgb(149,55,138)" stroke-width="1" opacity="0.75" />
		</g>
		<g>
			<title>PF01554</title>
			<rect class="PF01554" x="28" y="18" stroke-linejoin="round" width="15" height="26" fill="rgb(187,69,173)" stroke="rgb(149,55,138)" stroke-width="1" opacity="0.75" />
		</g>
	</g>
	<g>
		<polygon class="NoName" points="85,16 77,16 77,1 47,31 77,61 77,46 85,46" fill="rgb(255,255,255)" fill-opacity="1.0" stroke="rgb(50,50,50)" stroke-width="1" />
		<g>
			<title>PF04954</title>
			<polygon class="PF04954" points="49,31 58,22 58,39" stroke-linejoin="round" width="11" height="26" fill="rgb(75,222,95)" stroke="rgb(60,177,76)" stroke-width="1" opacity="0.75" />
		</g>
		<g>
			<title>PF10615</title>
			<rect class="PF10615" x="76" y="18" stroke-linejoin="round" width="6" height="26" fill="rgb(77,184,50)" stroke="rgb(61,147,40)" stroke-width="1" opacity="0.75" />
		</g>
	</g>
	<g>
		<polygon class="NoName" points="126,16 116,16 116,1 86,31 116,61 116,46 126,46" fill="rgb(255,255,255)" fill-opacity="1.0" stroke="rgb(50,50,50)" stroke-width="1" />
		<g>
			<title>PF07690</title>
			<polygon class="PF07690" points="91,28 101,18 125,18 125,44 101,44 91,33" stroke-linejoin="round" width="34" height="26" fill="rgb(193,224,74)" stroke="rgb(154,179,59)" stroke-width="1" opacity="0.75" />
		</g>
	</g>
	<g>
		<polygon class="NoName" points="199,16 158,16 158,1 128,31 158,61 158,46 199,46" fill="rgb(255,255,255)" fill-opacity="1.0" stroke="rgb(50,50,50)" stroke-width="1" />
		<g>
			<title>PF00593</title>
			<polygon class="PF00593" points="130,31 143,18 173,18 173,44 143,44" stroke-linejoin="round" width="45" height="26" fill="rgb(171,200,51)" stroke="rgb(136,160,40)" stroke-width="1" opacity="0.75" />
		</g>
		<g>
			<title>PF07715</title>
			<rect class="PF07715" x="182" y="18" stroke-linejoin="round" width="10" height="26" fill="rgb(99,133,214)" stroke="rgb(79,106,171)" stroke-width="1" opacity="0.75" />
		</g>
	</g>
	<g>
		<polygon class="NoName" points="208,16 208,16 208,1 232,31 208,61 208,46 208,46" fill="rgb(255,255,255)" fill-opacity="1.0" stroke="rgb(50,50,50)" stroke-width="1" />
		<g>
			<title>PF00975</title>
			<polygon class="PF00975" points="208,18 219,18 229,31 219,44 208,44" stroke-linejoin="round" width="23" height="26" fill="rgb(207,80,138)" stroke="rgb(165,63,110)" stroke-width="1" opacity="0.75" />
		</g>
	</g>
	<g>
		<title>entD</title>
		<polygon class="entD" points="233,16 233,16 233,1 260,31 233,61 233,46 233,46" fill="rgb(191,251,226)" fill-opacity="1.0" stroke="rgb(76,100,90)" stroke-width="1" />
		<g>
			<title>PF01648</title>
			<polygon class="PF01648" points="249,22 257,31 249,40" stroke-linejoin="round" width="11" height="26" fill="rgb(85,184,135)" stroke="rgb(68,147,108)" stroke-width="1" opacity="0.75" />
		</g>
	</g>
	<g>
		<polygon class="NoName" points="287,16 287,16 287,1 268,31 287,61 287,46 287,46" fill="rgb(255,255,255)" fill-opacity="1.0" stroke="rgb(50,50,50)" stroke-width="1" />
		<g>
			<title>PF13523</title>
			<polygon class="PF13523" points="271,30 278,18 285,18 285,44 278,44 271,31" stroke-linejoin="round" width="14" height="26" fill="rgb(106,224,203)" stroke="rgb(84,179,162)" stroke-width="1" opacity="0.75" />
		</g>
	</g>
	<g>
		<polygon class="NoName" points="329,16 321,16 321,1 291,31 321,61 321,46 329,46" fill="rgb(255,255,255)" fill-opacity="1.0" stroke="rgb(50,50,50)" stroke-width="1" />
		<g>
			<title>PF00278</title>
			<polygon class="PF00278" points="293,31 302,22 302,39" stroke-linejoin="round" width="11" height="26" fill="rgb(195,86,191)" stroke="rgb(156,68,152)" stroke-width="1" opacity="0.75" />
		</g>
		<g>
			<title>PF02784</title>
			<polygon class="PF02784" points="303,21 306,18 326,18 326,44 306,44 303,40" stroke-linejoin="round" width="23" height="26" fill="rgb(106,204,212)" stroke="rgb(84,163,169)" stroke-width="1" opacity="0.75" />
		</g>
	</g>
	<g>
		<polygon class="NoName" points="374,16 360,16 360,1 330,31 360,61 360,46 374,46" fill="rgb(255,255,255)" fill-opacity="1.0" stroke="rgb(50,50,50)" stroke-width="1" />
		<g>
			<title>PF13434</title>
			<polygon class="PF13434" points="340,23 345,18 373,18 373,44 345,44 340,38" stroke-linejoin="round" width="33" height="26" fill="rgb(81,213,119)" stroke="rgb(64,170,95)" stroke-width="1" opacity="0.75" />
		</g>
	</g>
</svg>
