<svg version="1.1" baseProfile="full" xmlns="http://www.w3.org/2000/svg" width="1182" height="62">
	<line x1="1" y1="31" x2="1181" y2="31" style="stroke:rgb(50,50,50); stroke-width:3 "/>
	<g>
		<polygon class="NoName" points="515,16 502,16 502,1 472,31 502,61 502,46 515,46" fill="rgb(255,255,255)" fill-opacity="1.0" stroke="rgb(50,50,50)" stroke-width="1" />
		<g>
			<title>PF00425</title>
			<polygon class="PF00425" points="474,31 487,18 499,18 499,44 487,44" stroke-linejoin="round" width="25" height="26" fill="rgb(188,116,88)" stroke="rgb(150,92,70)" stroke-width="1" opacity="0.75" />
		</g>
	</g>
	<g>
		<polygon class="NoName" points="519,16 519,16 519,1 547,31 519,61 519,46 519,46" fill="rgb(255,255,255)" fill-opacity="1.0" stroke="rgb(50,50,50)" stroke-width="1" />
		<g>
			<title>PF05711</title>
			<polygon class="PF05711" points="520,18 532,18 544,31 532,44 520,44" stroke-linejoin="round" width="26" height="26" fill="rgb(175,228,98)" stroke="rgb(139,182,78)" stroke-width="1" opacity="0.75" />
		</g>
	</g>
	<g>
		<polygon class="NoName" points="552,16 563,16 563,1 593,31 563,61 563,46 552,46" fill="rgb(255,255,255)" fill-opacity="1.0" stroke="rgb(50,50,50)" stroke-width="1" />
		<g>
			<title>PF00067</title>
			<polygon class="PF00067" points="559,18 577,18 590,31 590,31 577,44 559,44" stroke-linejoin="round" width="31" height="26" fill="rgb(85,216,107)" stroke="rgb(68,172,85)" stroke-width="1" opacity="0.75" />
		</g>
	</g>
	<g>
		<polygon class="NoName" points="594,16 599,16 599,1 629,31 599,61 599,46 594,46" fill="rgb(255,255,255)" fill-opacity="1.0" stroke="rgb(50,50,50)" stroke-width="1" />
		<g>
			<title>PF00348</title>
			<polygon class="PF00348" points="599,18 613,18 624,29 624,33 613,44 599,44" stroke-linejoin="round" width="25" height="26" fill="rgb(61,206,65)" stroke="rgb(48,164,52)" stroke-width="1" opacity="0.75" />
		</g>
	</g>
	<g>
		<polygon class="NoName" points="631,16 633,16 633,1 663,31 633,61 633,46 631,46" fill="rgb(255,255,255)" fill-opacity="1.0" stroke="rgb(50,50,50)" stroke-width="1" />
		<g>
			<title>PF01040</title>
			<polygon class="PF01040" points="633,18 647,18 657,28 657,34 647,44 633,44" stroke-linejoin="round" width="24" height="26" fill="rgb(189,57,100)" stroke="rgb(151,45,80)" stroke-width="1" opacity="0.75" />
		</g>
	</g>
	<g>
		<polygon class="NoName" points="663,16 674,16 674,1 704,31 674,61 674,46 663,46" fill="rgb(255,255,255)" fill-opacity="1.0" stroke="rgb(50,50,50)" stroke-width="1" />
		<g>
			<title>PF01494</title>
			<polygon class="PF01494" points="663,18 688,18 697,27 697,35 688,44 663,44" stroke-linejoin="round" width="34" height="26" fill="rgb(182,175,59)" stroke="rgb(145,140,47)" stroke-width="1" opacity="0.75" />
		</g>
	</g>
	<g>
		<polygon class="NoName" points="706,16 730,16 730,1 760,31 730,61 730,46 706,46" fill="rgb(255,255,255)" fill-opacity="1.0" stroke="rgb(50,50,50)" stroke-width="1" />
		<g>
			<title>PF13249</title>
			<rect class="PF13249" x="706" y="18" stroke-linejoin="round" width="15" height="26" fill="rgb(88,190,89)" stroke="rgb(70,152,71)" stroke-width="1" opacity="0.75" />
		</g>
		<g>
			<title>PF00432</title>
			<rect class="PF00432" x="724" y="18" stroke-linejoin="round" width="2" height="26" fill="rgb(218,215,79)" stroke="rgb(174,172,63)" stroke-width="1" opacity="0.75" />
		</g>
		<g>
			<title>PF13243</title>
			<polygon class="PF13243" points="731,18 744,18 757,31 744,44 731,44" stroke-linejoin="round" width="28" height="26" fill="rgb(191,58,201)" stroke="rgb(152,46,160)" stroke-width="1" opacity="0.75" />
		</g>
	</g>
	<g>
		<polygon class="NoName" points="804,16 794,16 794,1 764,31 794,61 794,46 804,46" fill="rgb(255,255,255)" fill-opacity="1.0" stroke="rgb(50,50,50)" stroke-width="1" />
		<g>
			<title>PF00067</title>
			<polygon class="PF00067" points="767,30 779,18 803,18 803,44 779,44 767,31" stroke-linejoin="round" width="36" height="26" fill="rgb(85,216,107)" stroke="rgb(68,172,85)" stroke-width="1" opacity="0.75" />
		</g>
	</g>
	<g>
		<polygon class="NoName" points="833,16 833,16 833,1 808,31 833,61 833,46 833,46" fill="rgb(255,255,255)" fill-opacity="1.0" stroke="rgb(50,50,50)" stroke-width="1" />
		<g>
			<title>PF13622</title>
			<polygon class="PF13622" points="810,31 821,18 832,18 832,44 821,44" stroke-linejoin="round" width="24" height="26" fill="rgb(136,87,203)" stroke="rgb(108,69,162)" stroke-width="1" opacity="0.75" />
		</g>
	</g>
	<g>
		<polygon class="NoName" points="862,16 862,16 862,1 835,31 862,61 862,46 862,46" fill="rgb(255,255,255)" fill-opacity="1.0" stroke="rgb(50,50,50)" stroke-width="1" />
		<g>
			<title>PF01061</title>
			<polygon class="PF01061" points="838,30 849,18 859,18 859,44 849,44 838,31" stroke-linejoin="round" width="21" height="26" fill="rgb(139,217,106)" stroke="rgb(111,173,84)" stroke-width="1" opacity="0.75" />
		</g>
	</g>
	<g>
		<polygon class="NoName" points="25,16 101,16 101,1 131,31 101,61 101,46 25,46" fill="rgb(255,255,255)" fill-opacity="1.0" stroke="rgb(50,50,50)" stroke-width="1" />
		<g>
			<title>PF04542</title>
			<rect class="PF04542" x="40" y="18" stroke-linejoin="round" width="7" height="26" fill="rgb(184,59,197)" stroke="rgb(147,47,157)" stroke-width="1" opacity="0.75" />
		</g>
		<g>
			<title>PF04545</title>
			<rect class="PF04545" x="57" y="18" stroke-linejoin="round" width="5" height="26" fill="rgb(75,207,224)" stroke="rgb(60,165,179)" stroke-width="1" opacity="0.75" />
		</g>
		<g>
			<title>PF13245</title>
			<rect class="PF13245" x="85" y="18" stroke-linejoin="round" width="24" height="26" fill="rgb(80,199,91)" stroke="rgb(64,159,72)" stroke-width="1" opacity="0.75" />
		</g>
		<g>
			<title>PF13361</title>
			<polygon class="PF13361" points="122,25 128,31 122,37" stroke-linejoin="round" width="7" height="26" fill="rgb(211,102,116)" stroke="rgb(168,81,92)" stroke-width="1" opacity="0.75" />
		</g>
	</g>
	<g>
		<polygon class="NoName" points="896,16 892,16 892,1 862,31 892,61 892,46 896,46" fill="rgb(255,255,255)" fill-opacity="1.0" stroke="rgb(50,50,50)" stroke-width="1" />
		<g>
			<title>PF00005</title>
			<rect class="PF00005" x="878" y="18" stroke-linejoin="round" width="14" height="26" fill="rgb(129,201,63)" stroke="rgb(103,160,50)" stroke-width="1" opacity="0.75" />
		</g>
	</g>
	<g>
		<polygon class="NoName" points="913,16 914,16 914,1 944,31 914,61 914,46 913,46" fill="rgb(255,255,255)" fill-opacity="1.0" stroke="rgb(50,50,50)" stroke-width="1" />
		<g>
			<title>PF04072</title>
			<polygon class="PF04072" points="916,18 928,18 932,22 932,40 928,44 916,44" stroke-linejoin="round" width="16" height="26" fill="rgb(94,159,219)" stroke="rgb(75,127,175)" stroke-width="1" opacity="0.75" />
		</g>
	</g>
	<g>
		<polygon class="NoName" points="956,16 956,16 956,1 976,31 956,61 956,46 956,46" fill="rgb(255,255,255)" fill-opacity="1.0" stroke="rgb(50,50,50)" stroke-width="1" />
	</g>
	<g>
		<polygon class="NoName" points="978,16 984,16 984,1 1014,31 984,61 984,46 978,46" fill="rgb(255,255,255)" fill-opacity="1.0" stroke="rgb(50,50,50)" stroke-width="1" />
		<g>
			<title>PF00348</title>
			<polygon class="PF00348" points="982,18 998,18 1008,28 1008,34 998,44 982,44" stroke-linejoin="round" width="26" height="26" fill="rgb(61,206,65)" stroke="rgb(48,164,52)" stroke-width="1" opacity="0.75" />
		</g>
	</g>
	<g>
		<polygon class="NoName" points="1015,16 1015,16 1015,1 1043,31 1015,61 1015,46 1015,46" fill="rgb(255,255,255)" fill-opacity="1.0" stroke="rgb(50,50,50)" stroke-width="1" />
		<g>
			<title>PF13649</title>
			<polygon class="PF13649" points="1024,18 1028,18 1033,24 1033,38 1028,44 1024,44" stroke-linejoin="round" width="9" height="26" fill="rgb(227,135,74)" stroke="rgb(181,108,59)" stroke-width="1" opacity="0.75" />
		</g>
	</g>
	<g>
		<polygon class="NoName" points="1046,16 1046,16 1046,1 1075,31 1046,61 1046,46 1046,46" fill="rgb(255,255,255)" fill-opacity="1.0" stroke="rgb(50,50,50)" stroke-width="1" />
		<g>
			<title>PF04072</title>
			<polygon class="PF04072" points="1048,18 1059,18 1066,25 1066,37 1059,44 1048,44" stroke-linejoin="round" width="18" height="26" fill="rgb(94,159,219)" stroke="rgb(75,127,175)" stroke-width="1" opacity="0.75" />
		</g>
	</g>
	<g>
		<polygon class="NoName" points="1132,16 1109,16 1109,1 1079,31 1109,61 1109,46 1132,46" fill="rgb(255,255,255)" fill-opacity="1.0" stroke="rgb(50,50,50)" stroke-width="1" />
		<g>
			<title>PF01425</title>
			<polygon class="PF01425" points="1081,31 1094,18 1125,18 1125,44 1094,44" stroke-linejoin="round" width="44" height="26" fill="rgb(195,142,64)" stroke="rgb(156,113,51)" stroke-width="1" opacity="0.75" />
		</g>
	</g>
	<g>
		<polygon class="NoName" points="1167,16 1167,16 1167,1 1144,31 1167,61 1167,46 1167,46" fill="rgb(255,255,255)" fill-opacity="1.0" stroke="rgb(50,50,50)" stroke-width="1" />
		<g>
			<title>PF00903</title>
			<polygon class="PF00903" points="1146,31 1156,18 1156,43" stroke-linejoin="round" width="12" height="26" fill="rgb(50,162,189)" stroke="rgb(40,129,151)" stroke-width="1" opacity="0.75" />
		</g>
	</g>
	<g>
		<polygon class="NoName" points="159,16 162,16 162,1 192,31 162,61 162,46 159,46" fill="rgb(255,255,255)" fill-opacity="1.0" stroke="rgb(50,50,50)" stroke-width="1" />
	</g>
	<g>
		<polygon class="NoName" points="197,16 197,16 197,1 210,31 197,61 197,46 197,46" fill="rgb(255,255,255)" fill-opacity="1.0" stroke="rgb(50,50,50)" stroke-width="1" />
	</g>
	<g>
		<polygon class="NoName" points="244,16 244,16 244,1 214,31 244,61 244,46 244,46" fill="rgb(255,255,255)" fill-opacity="1.0" stroke="rgb(50,50,50)" stroke-width="1" />
		<g>
			<title>PF13378</title>
			<polygon class="PF13378" points="216,31 229,18 236,18 236,44 229,44" stroke-linejoin="round" width="21" height="26" fill="rgb(191,184,94)" stroke="rgb(152,147,75)" stroke-width="1" opacity="0.75" />
		</g>
	</g>
	<g>
		<polygon class="NoName" points="305,16 275,16 275,1 245,31 275,61 275,46 305,46" fill="rgb(255,255,255)" fill-opacity="1.0" stroke="rgb(50,50,50)" stroke-width="1" />
		<g>
			<title>PF02779</title>
			<polygon class="PF02779" points="260,18 260,18 276,18 276,44 260,44 260,43" stroke-linejoin="round" width="16" height="26" fill="rgb(189,186,84)" stroke="rgb(151,148,67)" stroke-width="1" opacity="0.75" />
		</g>
		<g>
			<title>PF13292</title>
			<rect class="PF13292" x="280" y="18" stroke-linejoin="round" width="24" height="26" fill="rgb(46,179,173)" stroke="rgb(36,143,138)" stroke-width="1" opacity="0.75" />
		</g>
	</g>
	<g>
		<polygon class="NoName" points="346,16 339,16 339,1 309,31 339,61 339,46 346,46" fill="rgb(255,255,255)" fill-opacity="1.0" stroke="rgb(50,50,50)" stroke-width="1" />
		<g>
			<title>PF04551</title>
			<polygon class="PF04551" points="311,31 324,18 344,18 344,44 324,44" stroke-linejoin="round" width="34" height="26" fill="rgb(61,170,205)" stroke="rgb(48,136,164)" stroke-width="1" opacity="0.75" />
		</g>
	</g>
	<g>
		<polygon class="NoName" points="397,16 377,16 377,1 347,31 377,61 377,46 397,46" fill="rgb(255,255,255)" fill-opacity="1.0" stroke="rgb(50,50,50)" stroke-width="1" />
		<g>
			<title>PF07470</title>
			<polygon class="PF07470" points="350,30 362,18 366,18 366,44 362,44 350,31" stroke-linejoin="round" width="16" height="26" fill="rgb(81,95,186)" stroke="rgb(64,76,148)" stroke-width="1" opacity="0.75" />
		</g>
	</g>
	<g>
		<polygon class="NoName" points="441,16 430,16 430,1 400,31 430,61 430,46 441,46" fill="rgb(255,255,255)" fill-opacity="1.0" stroke="rgb(50,50,50)" stroke-width="1" />
		<g>
			<title>PF00201</title>
			<polygon class="PF00201" points="402,31 415,18 417,18 417,44 415,44" stroke-linejoin="round" width="17" height="26" fill="rgb(225,150,107)" stroke="rgb(180,120,85)" stroke-width="1" opacity="0.75" />
		</g>
		<g>
			<title>PF03033</title>
			<rect class="PF03033" x="427" y="18" stroke-linejoin="round" width="14" height="26" fill="rgb(157,218,79)" stroke="rgb(125,174,63)" stroke-width="1" opacity="0.75" />
		</g>
	</g>
	<g>
		<polygon class="NoName" points="448,16 448,16 448,1 473,31 448,61 448,46 448,46" fill="rgb(255,255,255)" fill-opacity="1.0" stroke="rgb(50,50,50)" stroke-width="1" />
		<g>
			<title>PF13561</title>
			<polygon class="PF13561" points="449,18 459,18 470,31 459,44 449,44" stroke-linejoin="round" width="23" height="26" fill="rgb(73,205,127)" stroke="rgb(58,164,101)" stroke-width="1" opacity="0.75" />
		</g>
	</g>
</svg>
