<svg version="1.1" baseProfile="full" xmlns="http://www.w3.org/2000/svg" width="162" height="62">
	<line x1="1" y1="31" x2="161" y2="31" style="stroke:rgb(50,50,50); stroke-width:3 "/>
	<g>
		<title>mcjA</title>
		<polygon class="mcjA" points="8,16 8,16 8,1 3,31 8,61 8,46 8,46" fill="rgb(241,194,250)" fill-opacity="1.0" stroke="rgb(96,77,100)" stroke-width="1" />
	</g>
	<g>
		<title>mcjB</title>
		<polygon class="mcjB" points="20,16 20,16 20,1 40,31 20,61 20,46 20,46" fill="rgb(189,254,222)" fill-opacity="1.0" stroke="rgb(75,101,88)" stroke-width="1" />
		<g>
			<title>PF13471</title>
			<polygon class="PF13471" points="29,19 37,31 29,43" stroke-linejoin="round" width="11" height="26" fill="rgb(63,111,179)" stroke="rgb(50,88,143)" stroke-width="1" opacity="0.75" />
		</g>
	</g>
	<g>
		<title>mcjC</title>
		<polygon class="mcjC" points="41,16 55,16 55,1 85,31 55,61 55,46 41,46" fill="rgb(250,211,183)" fill-opacity="1.0" stroke="rgb(100,84,73)" stroke-width="1" />
		<g>
			<title>PF00733</title>
			<rect class="PF00733" x="59" y="18" stroke-linejoin="round" width="8" height="26" fill="rgb(97,201,176)" stroke="rgb(77,160,140)" stroke-width="1" opacity="0.75" />
		</g>
	</g>
	<g>
		<title>mcjD</title>
		<polygon class="mcjD" points="92,16 120,16 120,1 150,31 120,61 120,46 92,46" fill="rgb(242,253,199)" fill-opacity="1.0" stroke="rgb(96,101,79)" stroke-width="1" />
		<g>
			<title>PF00664</title>
			<rect class="PF00664" x="94" y="18" stroke-linejoin="round" width="27" height="26" fill="rgb(149,226,73)" stroke="rgb(119,180,58)" stroke-width="1" opacity="0.75" />
		</g>
		<g>
			<title>PF00005</title>
			<polygon class="PF00005" points="128,18 134,18 142,26 142,36 134,44 128,44" stroke-linejoin="round" width="14" height="26" fill="rgb(129,201,63)" stroke="rgb(103,160,50)" stroke-width="1" opacity="0.75" />
		</g>
	</g>
</svg>
