<svg version="1.1" baseProfile="full" xmlns="http://www.w3.org/2000/svg" width="567" height="62">
	<line x1="1" y1="31" x2="566" y2="31" style="stroke:rgb(50,50,50); stroke-width:3 "/>
	<g>
		<title>epsG</title>
		<polygon class="epsG" points="257,16 257,16 257,1 275,31 257,61 257,46 257,46" fill="rgb(182,254,248)" fill-opacity="1.0" stroke="rgb(72,101,99)" stroke-width="1" />
		<g>
			<title>PF00535</title>
			<polygon class="PF00535" points="257,18 264,18 272,30 272,32 264,44 257,44" stroke-linejoin="round" width="15" height="26" fill="rgb(224,122,96)" stroke="rgb(179,97,76)" stroke-width="1" opacity="0.75" />
		</g>
	</g>
	<g>
		<title>epsH</title>
		<polygon class="epsH" points="281,16 290,16 290,1 320,31 290,61 290,46 281,46" fill="rgb(250,198,223)" fill-opacity="1.0" stroke="rgb(100,79,89)" stroke-width="1" />
	</g>
	<g>
		<title>epsI</title>
		<polygon class="epsI" points="325,16 325,16 325,1 353,31 325,61 325,46 325,46" fill="rgb(254,217,196)" fill-opacity="1.0" stroke="rgb(101,86,78)" stroke-width="1" />
		<g>
			<title>PF00535</title>
			<rect class="PF00535" x="325" y="18" stroke-linejoin="round" width="12" height="26" fill="rgb(224,122,96)" stroke="rgb(179,97,76)" stroke-width="1" opacity="0.75" />
		</g>
	</g>
	<g>
		<title>epsJ</title>
		<polygon class="epsJ" points="354,16 360,16 360,1 390,31 360,61 360,46 354,46" fill="rgb(252,187,214)" fill-opacity="1.0" stroke="rgb(100,74,85)" stroke-width="1" />
		<g>
			<title>PF04230</title>
			<polygon class="PF04230" points="355,18 374,18 382,26 382,36 374,44 355,44" stroke-linejoin="round" width="27" height="26" fill="rgb(211,93,213)" stroke="rgb(168,74,170)" stroke-width="1" opacity="0.75" />
		</g>
	</g>
	<g>
		<title>epsK</title>
		<polygon class="epsK" points="390,16 391,16 391,1 421,31 391,61 391,46 390,46" fill="rgb(254,232,207)" fill-opacity="1.0" stroke="rgb(101,92,82)" stroke-width="1" />
		<g>
			<title>PF00535</title>
			<polygon class="PF00535" points="391,18 405,18 407,20 407,42 405,44 391,44" stroke-linejoin="round" width="16" height="26" fill="rgb(224,122,96)" stroke="rgb(179,97,76)" stroke-width="1" opacity="0.75" />
		</g>
	</g>
	<g>
		<title>epsM</title>
		<polygon class="epsM" points="426,16 444,16 444,1 474,31 444,61 444,46 426,46" fill="rgb(251,210,234)" fill-opacity="1.0" stroke="rgb(100,84,93)" stroke-width="1" />
		<g>
			<title>PF01943</title>
			<rect class="PF01943" x="426" y="18" stroke-linejoin="round" width="26" height="26" fill="rgb(71,213,101)" stroke="rgb(56,170,80)" stroke-width="1" opacity="0.75" />
		</g>
		<g>
			<title>PF14667</title>
			<polygon class="PF14667" points="458,18 458,18 471,31 471,31 458,44 458,44" stroke-linejoin="round" width="13" height="26" fill="rgb(222,92,150)" stroke="rgb(177,73,120)" stroke-width="1" opacity="0.75" />
		</g>
	</g>
	<g>
		<title>epsL</title>
		<polygon class="epsL" points="495,16 495,16 495,1 525,31 495,61 495,46 495,46" fill="rgb(200,205,250)" fill-opacity="1.0" stroke="rgb(80,82,100)" stroke-width="1" />
		<g>
			<title>PF09992</title>
			<polygon class="PF09992" points="508,18 509,18 522,31 509,44 508,44" stroke-linejoin="round" width="16" height="26" fill="rgb(174,75,205)" stroke="rgb(139,60,164)" stroke-width="1" opacity="0.75" />
		</g>
	</g>
	<g>
		<polygon class="NoName" points="556,16 556,16 556,1 526,31 556,61 556,46 556,46" fill="rgb(255,255,255)" fill-opacity="1.0" stroke="rgb(50,50,50)" stroke-width="1" />
		<g>
			<title>PF03816</title>
			<polygon class="PF03816" points="533,26 541,18 548,18 548,44 541,44 533,35" stroke-linejoin="round" width="15" height="26" fill="rgb(212,80,62)" stroke="rgb(169,64,49)" stroke-width="1" opacity="0.75" />
		</g>
	</g>
	<g>
		<polygon class="NoName" points="72,16 72,16 72,1 57,31 72,61 72,46 72,46" fill="rgb(255,255,255)" fill-opacity="1.0" stroke="rgb(50,50,50)" stroke-width="1" />
		<g>
			<title>PF01527</title>
			<polygon class="PF01527" points="59,31 66,17 66,44" stroke-linejoin="round" width="8" height="26" fill="rgb(85,212,107)" stroke="rgb(68,169,85)" stroke-width="1" opacity="0.75" />
		</g>
		<g>
			<title>PF13518</title>
			<polygon class="PF13518" points="66,17 66,18 71,18 71,44 66,44 66,44" stroke-linejoin="round" width="5" height="26" fill="rgb(61,197,72)" stroke="rgb(48,157,57)" stroke-width="1" opacity="0.75" />
		</g>
	</g>
	<g>
		<title>epsR</title>
		<polygon class="epsR" points="87,16 87,16 87,1 97,31 87,61 87,46 87,46" fill="rgb(251,193,224)" fill-opacity="1.0" stroke="rgb(100,77,89)" stroke-width="1" />
		<g>
			<title>PF01381</title>
			<polygon class="PF01381" points="87,18 90,18 92,23 92,39 90,44 87,44" stroke-linejoin="round" width="5" height="26" fill="rgb(105,79,202)" stroke="rgb(83,63,161)" stroke-width="1" opacity="0.75" />
		</g>
	</g>
	<g>
		<title>epsX</title>
		<polygon class="epsX" points="99,16 99,16 99,1 124,31 99,61 99,46 99,46" fill="rgb(213,217,253)" fill-opacity="1.0" stroke="rgb(85,86,101)" stroke-width="1" />
	</g>
	<g>
		<title>epsA</title>
		<polygon class="epsA" points="125,16 125,16 125,1 151,31 125,61 125,46 125,46" fill="rgb(222,178,250)" fill-opacity="1.0" stroke="rgb(88,71,100)" stroke-width="1" />
		<g>
			<title>PF02706</title>
			<polygon class="PF02706" points="125,18 137,18 138,20 138,42 137,44 125,44" stroke-linejoin="round" width="13" height="26" fill="rgb(184,132,90)" stroke="rgb(147,105,72)" stroke-width="1" opacity="0.75" />
		</g>
		<g>
			<title>PF13807</title>
			<polygon class="PF13807" points="139,21 144,26 144,36 139,41" stroke-linejoin="round" width="5" height="26" fill="rgb(77,110,190)" stroke="rgb(61,87,152)" stroke-width="1" opacity="0.75" />
		</g>
	</g>
	<g>
		<title>epsB</title>
		<polygon class="epsB" points="152,16 152,16 152,1 175,31 152,61 152,46 152,46" fill="rgb(206,250,235)" fill-opacity="1.0" stroke="rgb(82,100,93)" stroke-width="1" />
		<g>
			<title>PF13614</title>
			<polygon class="PF13614" points="156,18 162,18 172,31 172,31 162,44 156,44" stroke-linejoin="round" width="16" height="26" fill="rgb(144,187,62)" stroke="rgb(115,149,49)" stroke-width="1" opacity="0.75" />
		</g>
	</g>
	<g>
		<title>epsC</title>
		<polygon class="epsC" points="177,16 177,16 177,1 202,31 177,61 177,46 177,46" fill="rgb(253,191,216)" fill-opacity="1.0" stroke="rgb(101,76,86)" stroke-width="1" />
	</g>
	<g>
		<title>epsD</title>
		<polygon class="epsD" points="203,16 203,16 203,1 225,31 203,61 203,46 203,46" fill="rgb(246,253,199)" fill-opacity="1.0" stroke="rgb(98,101,79)" stroke-width="1" />
		<g>
			<title>PF02397</title>
			<polygon class="PF02397" points="206,18 212,18 222,31 212,44 206,44" stroke-linejoin="round" width="19" height="26" fill="rgb(57,165,209)" stroke="rgb(45,131,167)" stroke-width="1" opacity="0.75" />
		</g>
	</g>
	<g>
		<title>epsE</title>
		<polygon class="epsE" points="226,16 226,16 226,1 241,31 226,61 226,46 226,46" fill="rgb(185,252,226)" fill-opacity="1.0" stroke="rgb(74,100,90)" stroke-width="1" />
		<g>
			<title>PF08660</title>
			<polygon class="PF08660" points="231,18 232,18 238,31 232,44 231,44" stroke-linejoin="round" width="9" height="26" fill="rgb(171,179,66)" stroke="rgb(136,143,52)" stroke-width="1" opacity="0.75" />
		</g>
	</g>
	<g>
		<title>epsF</title>
		<polygon class="epsF" points="241,16 241,16 241,1 257,31 241,61 241,46 241,46" fill="rgb(254,187,230)" fill-opacity="1.0" stroke="rgb(101,74,92)" stroke-width="1" />
		<g>
			<title>PF04101</title>
			<polygon class="PF04101" points="241,18 247,18 254,31 247,44 241,44" stroke-linejoin="round" width="15" height="26" fill="rgb(211,90,140)" stroke="rgb(168,72,112)" stroke-width="1" opacity="0.75" />
		</g>
	</g>
</svg>
