<svg version="1.1" baseProfile="full" xmlns="http://www.w3.org/2000/svg" width="981" height="62">
	<line x1="1" y1="31" x2="980" y2="31" style="stroke:rgb(50,50,50); stroke-width:3 "/>
	<g>
		<polygon class="NoName" points="313,16 376,16 376,1 406,31 376,61 376,46 313,46" fill="rgb(255,255,255)" fill-opacity="1.0" stroke="rgb(50,50,50)" stroke-width="1" />
		<g>
			<title>PF04738</title>
			<rect class="PF04738" x="328" y="18" stroke-linejoin="round" width="30" height="26" fill="rgb(219,60,229)" stroke="rgb(175,47,183)" stroke-width="1" opacity="0.75" />
		</g>
		<g>
			<title>PF04738</title>
			<polygon class="PF04738" points="390,18 390,18 396,24 396,38 390,44 390,44" stroke-linejoin="round" width="6" height="26" fill="rgb(219,60,229)" stroke="rgb(175,47,183)" stroke-width="1" opacity="0.75" />
		</g>
	</g>
	<g>
		<polygon class="NoName" points="406,16 410,16 410,1 440,31 410,61 410,46 406,46" fill="rgb(255,255,255)" fill-opacity="1.0" stroke="rgb(50,50,50)" stroke-width="1" />
		<g>
			<title>PF14028</title>
			<polygon class="PF14028" points="406,18 424,18 436,30 436,32 424,44 406,44" stroke-linejoin="round" width="30" height="26" fill="rgb(107,223,113)" stroke="rgb(85,178,90)" stroke-width="1" opacity="0.75" />
		</g>
	</g>
	<g>
		<polygon class="NoName" points="441,16 447,16 447,1 477,31 447,61 447,46 441,46" fill="rgb(255,255,255)" fill-opacity="1.0" stroke="rgb(50,50,50)" stroke-width="1" />
		<g>
			<title>PF14028</title>
			<polygon class="PF14028" points="441,18 461,18 474,31 474,31 461,44 441,44" stroke-linejoin="round" width="33" height="26" fill="rgb(107,223,113)" stroke="rgb(85,178,90)" stroke-width="1" opacity="0.75" />
		</g>
	</g>
	<g>
		<polygon class="NoName" points="477,16 506,16 506,1 536,31 506,61 506,46 477,46" fill="rgb(255,255,255)" fill-opacity="1.0" stroke="rgb(50,50,50)" stroke-width="1" />
		<g>
			<title>PF00881</title>
			<rect class="PF00881" x="487" y="18" stroke-linejoin="round" width="17" height="26" fill="rgb(79,118,187)" stroke="rgb(63,94,149)" stroke-width="1" opacity="0.75" />
		</g>
	</g>
	<g>
		<polygon class="NoName" points="536,16 567,16 567,1 597,31 567,61 567,46 536,46" fill="rgb(255,255,255)" fill-opacity="1.0" stroke="rgb(50,50,50)" stroke-width="1" />
	</g>
	<g>
		<polygon class="NoName" points="597,16 635,16 635,1 665,31 635,61 635,46 597,46" fill="rgb(255,255,255)" fill-opacity="1.0" stroke="rgb(50,50,50)" stroke-width="1" />
		<g>
			<title>PF02624</title>
			<polygon class="PF02624" points="624,18 649,18 660,29 660,33 649,44 624,44" stroke-linejoin="round" width="36" height="26" fill="rgb(76,84,185)" stroke="rgb(60,67,148)" stroke-width="1" opacity="0.75" />
		</g>
	</g>
	<g>
		<polygon class="NoName" points="665,16 682,16 682,1 712,31 682,61 682,46 665,46" fill="rgb(255,255,255)" fill-opacity="1.0" stroke="rgb(50,50,50)" stroke-width="1" />
	</g>
	<g>
		<polygon class="NoName" points="711,16 724,16 724,1 754,31 724,61 724,46 711,46" fill="rgb(255,255,255)" fill-opacity="1.0" stroke="rgb(50,50,50)" stroke-width="1" />
		<g>
			<title>PF00501</title>
			<polygon class="PF00501" points="719,18 738,18 746,26 746,36 738,44 719,44" stroke-linejoin="round" width="27" height="26" fill="rgb(60,217,223)" stroke="rgb(48,173,178)" stroke-width="1" opacity="0.75" />
		</g>
	</g>
	<g>
		<polygon class="NoName" points="759,16 768,16 768,1 798,31 768,61 768,46 759,46" fill="rgb(255,255,255)" fill-opacity="1.0" stroke="rgb(50,50,50)" stroke-width="1" />
		<g>
			<title>PF00067</title>
			<polygon class="PF00067" points="779,18 782,18 785,21 785,41 782,44 779,44" stroke-linejoin="round" width="6" height="26" fill="rgb(85,216,107)" stroke="rgb(68,172,85)" stroke-width="1" opacity="0.75" />
		</g>
	</g>
	<g>
		<polygon class="NoName" points="801,16 862,16 862,1 892,31 862,61 862,46 801,46" fill="rgb(255,255,255)" fill-opacity="1.0" stroke="rgb(50,50,50)" stroke-width="1" />
		<g>
			<title>PF04738</title>
			<rect class="PF04738" x="813" y="18" stroke-linejoin="round" width="28" height="26" fill="rgb(219,60,229)" stroke="rgb(175,47,183)" stroke-width="1" opacity="0.75" />
		</g>
		<g>
			<title>PF04738</title>
			<polygon class="PF04738" points="870,18 876,18 886,28 886,34 876,44 870,44" stroke-linejoin="round" width="16" height="26" fill="rgb(219,60,229)" stroke="rgb(175,47,183)" stroke-width="1" opacity="0.75" />
		</g>
	</g>
	<g>
		<polygon class="NoName" points="37,16 31,16 31,1 1,31 31,61 31,46 37,46" fill="rgb(255,255,255)" fill-opacity="1.0" stroke="rgb(50,50,50)" stroke-width="1" />
		<g>
			<title>PF00155</title>
			<polygon class="PF00155" points="4,30 16,18 35,18 35,44 16,44 4,31" stroke-linejoin="round" width="31" height="26" fill="rgb(89,113,198)" stroke="rgb(71,90,158)" stroke-width="1" opacity="0.75" />
		</g>
	</g>
	<g>
		<polygon class="NoName" points="892,16 922,16 922,1 952,31 922,61 922,46 892,46" fill="rgb(255,255,255)" fill-opacity="1.0" stroke="rgb(50,50,50)" stroke-width="1" />
		<g>
			<title>PF02310</title>
			<rect class="PF02310" x="892" y="18" stroke-linejoin="round" width="13" height="26" fill="rgb(145,190,60)" stroke="rgb(115,152,48)" stroke-width="1" opacity="0.75" />
		</g>
		<g>
			<title>PF04055</title>
			<rect class="PF04055" x="916" y="18" stroke-linejoin="round" width="17" height="26" fill="rgb(149,56,222)" stroke="rgb(119,44,177)" stroke-width="1" opacity="0.75" />
		</g>
	</g>
	<g>
		<polygon class="NoName" points="952,16 952,16 952,1 979,31 952,61 952,46 952,46" fill="rgb(255,255,255)" fill-opacity="1.0" stroke="rgb(50,50,50)" stroke-width="1" />
		<g>
			<title>PF00106</title>
			<polygon class="PF00106" points="959,18 964,18 974,29 974,33 964,44 959,44" stroke-linejoin="round" width="15" height="26" fill="rgb(182,219,73)" stroke="rgb(145,175,58)" stroke-width="1" opacity="0.75" />
		</g>
	</g>
	<g>
		<polygon class="NoName" points="65,16 65,16 65,1 38,31 65,61 65,46 65,46" fill="rgb(255,255,255)" fill-opacity="1.0" stroke="rgb(50,50,50)" stroke-width="1" />
		<g>
			<title>PF12146</title>
			<polygon class="PF12146" points="40,31 52,18 62,18 62,44 52,44" stroke-linejoin="round" width="22" height="26" fill="rgb(140,98,205)" stroke="rgb(112,78,164)" stroke-width="1" opacity="0.75" />
		</g>
	</g>
	<g>
		<polygon class="NoName" points="129,16 98,16 98,1 68,31 98,61 98,46 129,46" fill="rgb(255,255,255)" fill-opacity="1.0" stroke="rgb(50,50,50)" stroke-width="1" />
		<g>
			<title>PF00733</title>
			<polygon class="PF00733" points="70,31 83,18 105,18 105,44 83,44" stroke-linejoin="round" width="37" height="26" fill="rgb(97,201,176)" stroke="rgb(77,160,140)" stroke-width="1" opacity="0.75" />
		</g>
		<g>
			<title>PF13537</title>
			<rect class="PF13537" x="112" y="18" stroke-linejoin="round" width="12" height="26" fill="rgb(200,63,57)" stroke="rgb(160,50,45)" stroke-width="1" opacity="0.75" />
		</g>
	</g>
	<g>
		<polygon class="NoName" points="147,16 147,16 147,1 134,31 147,61 147,46 147,46" fill="rgb(255,255,255)" fill-opacity="1.0" stroke="rgb(50,50,50)" stroke-width="1" />
		<g>
			<title>PF07366</title>
			<polygon class="PF07366" points="136,31 142,18 146,18 146,44 142,44" stroke-linejoin="round" width="12" height="26" fill="rgb(206,89,111)" stroke="rgb(164,71,88)" stroke-width="1" opacity="0.75" />
		</g>
	</g>
	<g>
		<polygon class="NoName" points="191,16 180,16 180,1 150,31 180,61 180,46 191,46" fill="rgb(255,255,255)" fill-opacity="1.0" stroke="rgb(50,50,50)" stroke-width="1" />
		<g>
			<title>PF08028</title>
			<polygon class="PF08028" points="155,28 165,18 167,18 167,44 165,44 155,33" stroke-linejoin="round" width="12" height="26" fill="rgb(106,185,56)" stroke="rgb(84,148,44)" stroke-width="1" opacity="0.75" />
		</g>
		<g>
			<title>PF02771</title>
			<rect class="PF02771" x="180" y="18" stroke-linejoin="round" width="10" height="26" fill="rgb(105,135,218)" stroke="rgb(84,108,174)" stroke-width="1" opacity="0.75" />
		</g>
	</g>
	<g>
		<polygon class="NoName" points="229,16 228,16 228,1 198,31 228,61 228,46 229,46" fill="rgb(255,255,255)" fill-opacity="1.0" stroke="rgb(50,50,50)" stroke-width="1" />
		<g>
			<title>PF04072</title>
			<polygon class="PF04072" points="211,20 213,18 228,18 228,44 213,44 211,41" stroke-linejoin="round" width="17" height="26" fill="rgb(94,159,219)" stroke="rgb(75,127,175)" stroke-width="1" opacity="0.75" />
		</g>
	</g>
	<g>
		<polygon class="NoName" points="249,16 249,16 249,1 231,31 249,61 249,46 249,46" fill="rgb(255,255,255)" fill-opacity="1.0" stroke="rgb(50,50,50)" stroke-width="1" />
		<g>
			<title>PF11066</title>
			<polygon class="PF11066" points="236,26 241,18 248,18 248,44 241,44 236,35" stroke-linejoin="round" width="12" height="26" fill="rgb(97,120,227)" stroke="rgb(77,96,181)" stroke-width="1" opacity="0.75" />
		</g>
	</g>
	<g>
		<polygon class="NoName" points="264,16 264,16 264,1 269,31 264,61 264,46 264,46" fill="rgb(255,255,255)" fill-opacity="1.0" stroke="rgb(50,50,50)" stroke-width="1" />
	</g>
	<g>
		<polygon class="NoName" points="287,16 287,16 287,1 313,31 287,61 287,46 287,46" fill="rgb(255,255,255)" fill-opacity="1.0" stroke="rgb(50,50,50)" stroke-width="1" />
		<g>
			<title>PF12697</title>
			<polygon class="PF12697" points="287,18 299,18 307,28 307,34 299,44 287,44" stroke-linejoin="round" width="20" height="26" fill="rgb(113,71,219)" stroke="rgb(90,56,175)" stroke-width="1" opacity="0.75" />
		</g>
	</g>
</svg>
