<svg version="1.1" baseProfile="full" xmlns="http://www.w3.org/2000/svg" width="119" height="62">
	<line x1="1" y1="31" x2="118" y2="31" style="stroke:rgb(50,50,50); stroke-width:3 "/>
	<g>
		<polygon class="NoName" points="37,16 31,16 31,1 1,31 31,61 31,46 37,46" fill="rgb(255,255,255)" fill-opacity="1.0" stroke="rgb(50,50,50)" stroke-width="1" />
	</g>
	<g>
		<polygon class="NoName" points="81,16 67,16 67,1 37,31 67,61 67,46 81,46" fill="rgb(255,255,255)" fill-opacity="1.0" stroke="rgb(50,50,50)" stroke-width="1" />
		<g>
			<title>PF04055</title>
			<rect class="PF04055" x="54" y="18" stroke-linejoin="round" width="15" height="26" fill="rgb(149,56,222)" stroke="rgb(119,44,177)" stroke-width="1" opacity="0.75" />
		</g>
	</g>
	<g>
		<polygon class="NoName" points="86,16 86,16 86,1 83,31 86,61 86,46 86,46" fill="rgb(255,255,255)" fill-opacity="1.0" stroke="rgb(50,50,50)" stroke-width="1" />
	</g>
	<g>
		<polygon class="NoName" points="117,16 117,16 117,1 89,31 117,61 117,46 117,46" fill="rgb(255,255,255)" fill-opacity="1.0" stroke="rgb(50,50,50)" stroke-width="1" />
		<g>
			<title>PF12844</title>
			<rect class="PF12844" x="111" y="18" stroke-linejoin="round" width="6" height="26" fill="rgb(72,216,183)" stroke="rgb(57,172,146)" stroke-width="1" opacity="0.75" />
		</g>
	</g>
</svg>
