<svg version="1.1" baseProfile="full" xmlns="http://www.w3.org/2000/svg" width="173" height="62">
	<line x1="1" y1="31" x2="172" y2="31" style="stroke:rgb(50,50,50); stroke-width:3 "/>
	<g>
		<title>mcbG</title>
		<polygon class="mcbG" points="19,16 19,16 19,1 1,31 19,61 19,46 19,46" fill="rgb(209,254,191)" fill-opacity="1.0" stroke="rgb(83,101,76)" stroke-width="1" />
		<g>
			<title>PF13599</title>
			<polygon class="PF13599" points="4,29 11,18 11,43 4,32" stroke-linejoin="round" width="7" height="26" fill="rgb(228,182,106)" stroke="rgb(182,145,84)" stroke-width="1" opacity="0.75" />
		</g>
		<g>
			<title>PF13599</title>
			<polygon class="PF13599" points="11,18 11,18 18,18 18,44 11,44 11,43" stroke-linejoin="round" width="7" height="26" fill="rgb(228,182,106)" stroke="rgb(182,145,84)" stroke-width="1" opacity="0.75" />
		</g>
	</g>
	<g>
		<title>mcbF</title>
		<polygon class="mcbF" points="43,16 43,16 43,1 19,31 43,61 43,46 43,46" fill="rgb(196,253,191)" fill-opacity="1.0" stroke="rgb(78,101,76)" stroke-width="1" />
		<g>
			<title>PF00005</title>
			<polygon class="PF00005" points="27,24 31,18 41,18 41,44 31,44 27,37" stroke-linejoin="round" width="14" height="26" fill="rgb(129,201,63)" stroke="rgb(103,160,50)" stroke-width="1" opacity="0.75" />
		</g>
	</g>
	<g>
		<title>mcbE</title>
		<polygon class="mcbE" points="68,16 68,16 68,1 44,31 68,61 68,46 68,46" fill="rgb(250,186,248)" fill-opacity="1.0" stroke="rgb(100,74,99)" stroke-width="1" />
	</g>
	<g>
		<title>mcbD</title>
		<polygon class="mcbD" points="107,16 98,16 98,1 68,31 98,61 98,46 107,46" fill="rgb(204,192,250)" fill-opacity="1.0" stroke="rgb(81,76,100)" stroke-width="1" />
		<g>
			<title>PF02624</title>
			<polygon class="PF02624" points="74,27 83,18 102,18 102,44 83,44 74,34" stroke-linejoin="round" width="28" height="26" fill="rgb(76,84,185)" stroke="rgb(60,67,148)" stroke-width="1" opacity="0.75" />
		</g>
	</g>
	<g>
		<title>mcbC</title>
		<polygon class="mcbC" points="134,16 134,16 134,1 107,31 134,61 134,46 134,46" fill="rgb(183,250,252)" fill-opacity="1.0" stroke="rgb(73,100,100)" stroke-width="1" />
		<g>
			<title>PF00881</title>
			<polygon class="PF00881" points="109,31 121,18 125,18 125,44 121,44" stroke-linejoin="round" width="17" height="26" fill="rgb(79,118,187)" stroke="rgb(63,94,149)" stroke-width="1" opacity="0.75" />
		</g>
	</g>
	<g>
		<title>mcbB</title>
		<polygon class="mcbB" points="164,16 164,16 164,1 135,31 164,61 164,46 164,46" fill="rgb(252,192,251)" fill-opacity="1.0" stroke="rgb(100,76,100)" stroke-width="1" />
	</g>
	<g>
		<title>mcbA</title>
		<polygon class="mcbA" points="172,16 172,16 172,1 165,31 172,61 172,46 172,46" fill="rgb(250,228,210)" fill-opacity="1.0" stroke="rgb(100,91,84)" stroke-width="1" />
	</g>
</svg>
