<svg version="1.1" baseProfile="full" xmlns="http://www.w3.org/2000/svg" width="1386" height="62">
	<line x1="1" y1="31" x2="1385" y2="31" style="stroke:rgb(50,50,50); stroke-width:3 "/>
	<g>
		<title>ctcC</title>
		<polygon class="ctcC" points="386,16 422,16 422,1 452,31 422,61 422,46 386,46" fill="rgb(234,196,251)" fill-opacity="1.0" stroke="rgb(93,78,100)" stroke-width="1" />
		<g>
			<title>PF00009</title>
			<rect class="PF00009" x="386" y="18" stroke-linejoin="round" width="25" height="26" fill="rgb(196,118,83)" stroke="rgb(156,94,66)" stroke-width="1" opacity="0.75" />
		</g>
		<g>
			<title>PF14492</title>
			<rect class="PF14492" x="421" y="18" stroke-linejoin="round" width="7" height="26" fill="rgb(217,213,86)" stroke="rgb(173,170,68)" stroke-width="1" opacity="0.75" />
		</g>
		<g>
			<title>PF03764</title>
			<polygon class="PF03764" points="430,18 436,18 440,22 440,40 436,44 430,44" stroke-linejoin="round" width="10" height="26" fill="rgb(175,56,200)" stroke="rgb(140,44,160)" stroke-width="1" opacity="0.75" />
		</g>
		<g>
			<title>PF00679</title>
			<polygon class="PF00679" points="441,23 449,31 449,31 441,39" stroke-linejoin="round" width="8" height="26" fill="rgb(136,208,97)" stroke="rgb(108,166,77)" stroke-width="1" opacity="0.75" />
		</g>
	</g>
	<g>
		<title>ctcD</title>
		<polygon class="ctcD" points="480,16 480,16 480,1 455,31 480,61 480,46 480,46" fill="rgb(250,208,206)" fill-opacity="1.0" stroke="rgb(100,83,82)" stroke-width="1" />
		<g>
			<title>PF04199</title>
			<polygon class="PF04199" points="462,25 468,18 480,18 480,44 468,44 462,36" stroke-linejoin="round" width="18" height="26" fill="rgb(140,47,181)" stroke="rgb(112,37,144)" stroke-width="1" opacity="0.75" />
		</g>
	</g>
	<g>
		<title>ctcE</title>
		<polygon class="ctcE" points="534,16 510,16 510,1 480,31 510,61 510,46 534,46" fill="rgb(248,252,180)" fill-opacity="1.0" stroke="rgb(99,100,72)" stroke-width="1" />
		<g>
			<title>PF01494</title>
			<rect class="PF01494" x="499" y="18" stroke-linejoin="round" width="33" height="26" fill="rgb(182,175,59)" stroke="rgb(145,140,47)" stroke-width="1" opacity="0.75" />
		</g>
	</g>
	<g>
		<title>ctcF</title>
		<polygon class="ctcF" points="565,16 564,16 564,1 534,31 564,61 564,46 565,46" fill="rgb(207,251,177)" fill-opacity="1.0" stroke="rgb(82,100,70)" stroke-width="1" />
		<g>
			<title>PF10604</title>
			<polygon class="PF10604" points="536,31 549,18 549,43" stroke-linejoin="round" width="15" height="26" fill="rgb(105,204,74)" stroke="rgb(84,163,59)" stroke-width="1" opacity="0.75" />
		</g>
		<g>
			<title>PF10604</title>
			<rect class="PF10604" x="550" y="18" stroke-linejoin="round" width="14" height="26" fill="rgb(105,204,74)" stroke="rgb(84,163,59)" stroke-width="1" opacity="0.75" />
		</g>
	</g>
	<g>
		<title>ctcG</title>
		<polygon class="ctcG" points="594,16 594,16 594,1 568,31 594,61 594,46 594,46" fill="rgb(253,249,207)" fill-opacity="1.0" stroke="rgb(101,99,82)" stroke-width="1" />
		<g>
			<title>PF00106</title>
			<polygon class="PF00106" points="573,28 581,18 592,18 592,44 581,44 573,33" stroke-linejoin="round" width="19" height="26" fill="rgb(182,219,73)" stroke="rgb(145,175,58)" stroke-width="1" opacity="0.75" />
		</g>
	</g>
	<g>
		<title>ctcH</title>
		<polygon class="ctcH" points="601,16 601,16 601,1 616,31 601,61 601,46 601,46" fill="rgb(254,221,184)" fill-opacity="1.0" stroke="rgb(101,88,73)" stroke-width="1" />
		<g>
			<title>PF13577</title>
			<polygon class="PF13577" points="603,18 607,18 613,31 607,44 603,44" stroke-linejoin="round" width="12" height="26" fill="rgb(68,223,209)" stroke="rgb(54,178,167)" stroke-width="1" opacity="0.75" />
		</g>
	</g>
	<g>
		<title>ctcI</title>
		<polygon class="ctcI" points="617,16 638,16 638,1 668,31 638,61 638,46 617,46" fill="rgb(252,188,232)" fill-opacity="1.0" stroke="rgb(100,75,92)" stroke-width="1" />
		<g>
			<title>PF00501</title>
			<polygon class="PF00501" points="620,18 652,18 659,25 659,37 652,44 620,44" stroke-linejoin="round" width="39" height="26" fill="rgb(60,217,223)" stroke="rgb(48,173,178)" stroke-width="1" opacity="0.75" />
		</g>
		<g>
			<title>PF13193</title>
			<polygon class="PF13193" points="659,25 665,31 659,37" stroke-linejoin="round" width="7" height="26" fill="rgb(182,50,118)" stroke="rgb(145,39,94)" stroke-width="1" opacity="0.75" />
		</g>
	</g>
	<g>
		<title>ctcJ</title>
		<polygon class="ctcJ" points="670,16 670,16 670,1 679,31 670,61 670,46 670,46" fill="rgb(253,217,213)" fill-opacity="1.0" stroke="rgb(101,86,85)" stroke-width="1" />
		<g>
			<title>PF03992</title>
			<polygon class="PF03992" points="670,18 672,18 676,31 672,44 670,44" stroke-linejoin="round" width="7" height="26" fill="rgb(193,84,127)" stroke="rgb(154,67,101)" stroke-width="1" opacity="0.75" />
		</g>
	</g>
	<g>
		<title>ctcK</title>
		<polygon class="ctcK" points="680,16 684,16 684,1 714,31 684,61 684,46 680,46" fill="rgb(188,250,179)" fill-opacity="1.0" stroke="rgb(75,100,71)" stroke-width="1" />
		<g>
			<title>PF00891</title>
			<polygon class="PF00891" points="690,18 698,18 711,31 698,44 690,44" stroke-linejoin="round" width="22" height="26" fill="rgb(50,51,190)" stroke="rgb(39,40,152)" stroke-width="1" opacity="0.75" />
		</g>
	</g>
	<g>
		<title>ctcL</title>
		<polygon class="ctcL" points="756,16 750,16 750,1 720,31 750,61 750,46 756,46" fill="rgb(252,235,193)" fill-opacity="1.0" stroke="rgb(100,93,77)" stroke-width="1" />
		<g>
			<title>PF00155</title>
			<polygon class="PF00155" points="722,31 735,18 753,18 753,44 735,44" stroke-linejoin="round" width="33" height="26" fill="rgb(89,113,198)" stroke="rgb(71,90,158)" stroke-width="1" opacity="0.75" />
		</g>
	</g>
	<g>
		<title>ctc9</title>
		<polygon class="ctc9" points="10,16 10,16 10,1 1,31 10,61 10,46 10,46" fill="rgb(202,250,197)" fill-opacity="1.0" stroke="rgb(80,100,78)" stroke-width="1" />
	</g>
	<g>
		<title>ctcM</title>
		<polygon class="ctcM" points="770,16 770,16 770,1 756,31 770,61 770,46 770,46" fill="rgb(204,252,210)" fill-opacity="1.0" stroke="rgb(81,100,84)" stroke-width="1" />
		<g>
			<title>PF01243</title>
			<polygon class="PF01243" points="759,29 764,18 769,18 769,44 764,44 759,32" stroke-linejoin="round" width="10" height="26" fill="rgb(177,193,67)" stroke="rgb(141,154,53)" stroke-width="1" opacity="0.75" />
		</g>
	</g>
	<g>
		<title>ctcN</title>
		<polygon class="ctcN" points="776,16 795,16 795,1 825,31 795,61 795,46 776,46" fill="rgb(250,210,222)" fill-opacity="1.0" stroke="rgb(100,84,88)" stroke-width="1" />
		<g>
			<title>PF01494</title>
			<polygon class="PF01494" points="776,18 809,18 810,19 810,43 809,44 776,44" stroke-linejoin="round" width="34" height="26" fill="rgb(182,175,59)" stroke="rgb(145,140,47)" stroke-width="1" opacity="0.75" />
		</g>
	</g>
	<g>
		<title>ctcO</title>
		<polygon class="ctcO" points="826,16 830,16 830,1 860,31 830,61 830,46 826,46" fill="rgb(236,203,253)" fill-opacity="1.0" stroke="rgb(94,81,101)" stroke-width="1" />
		<g>
			<title>PF16864</title>
			<rect class="PF16864" x="827" y="18" stroke-linejoin="round" width="8" height="26" fill="rgb(84,199,85)" stroke="rgb(67,159,68)" stroke-width="1" opacity="0.75" />
		</g>
		<g>
			<title>PF00891</title>
			<polygon class="PF00891" points="836,18 844,18 857,31 844,44 836,44" stroke-linejoin="round" width="23" height="26" fill="rgb(50,51,190)" stroke="rgb(39,40,152)" stroke-width="1" opacity="0.75" />
		</g>
	</g>
	<g>
		<title>ctcP</title>
		<polygon class="ctcP" points="861,16 886,16 886,1 916,31 886,61 886,46 861,46" fill="rgb(254,197,209)" fill-opacity="1.0" stroke="rgb(101,78,83)" stroke-width="1" />
		<g>
			<title>PF01494</title>
			<rect class="PF01494" x="862" y="18" stroke-linejoin="round" width="35" height="26" fill="rgb(182,175,59)" stroke="rgb(145,140,47)" stroke-width="1" opacity="0.75" />
		</g>
	</g>
	<g>
		<title>ctcQ</title>
		<polygon class="ctcQ" points="938,16 938,16 938,1 919,31 938,61 938,46 938,46" fill="rgb(198,253,186)" fill-opacity="1.0" stroke="rgb(79,101,74)" stroke-width="1" />
		<g>
			<title>PF01613</title>
			<polygon class="PF01613" points="921,31 929,18 934,18 934,44 929,44" stroke-linejoin="round" width="14" height="26" fill="rgb(107,197,222)" stroke="rgb(85,157,177)" stroke-width="1" opacity="0.75" />
		</g>
	</g>
	<g>
		<title>ctcR</title>
		<polygon class="ctcR" points="996,16 975,16 975,1 945,31 975,61 975,46 996,46" fill="rgb(252,208,238)" fill-opacity="1.0" stroke="rgb(100,83,95)" stroke-width="1" />
		<g>
			<title>PF07690</title>
			<polygon class="PF07690" points="952,26 960,18 991,18 991,44 960,44 952,35" stroke-linejoin="round" width="39" height="26" fill="rgb(193,224,74)" stroke="rgb(154,179,59)" stroke-width="1" opacity="0.75" />
		</g>
	</g>
	<g>
		<title>ctcS</title>
		<polygon class="ctcS" points="1001,16 1001,16 1001,1 1017,31 1001,61 1001,46 1001,46" fill="rgb(187,253,205)" fill-opacity="1.0" stroke="rgb(74,101,82)" stroke-width="1" />
		<g>
			<title>PF12802</title>
			<polygon class="PF12802" points="1004,18 1007,18 1009,21 1009,41 1007,44 1004,44" stroke-linejoin="round" width="5" height="26" fill="rgb(46,89,185)" stroke="rgb(36,71,148)" stroke-width="1" opacity="0.75" />
		</g>
	</g>
	<g>
		<title>ctcT</title>
		<polygon class="ctcT" points="1078,16 1047,16 1047,1 1017,31 1047,61 1047,46 1078,46" fill="rgb(208,253,232)" fill-opacity="1.0" stroke="rgb(83,101,92)" stroke-width="1" />
		<g>
			<title>PF00733</title>
			<polygon class="PF00733" points="1019,31 1032,18 1053,18 1053,44 1032,44" stroke-linejoin="round" width="36" height="26" fill="rgb(97,201,176)" stroke="rgb(77,160,140)" stroke-width="1" opacity="0.75" />
		</g>
		<g>
			<title>PF13537</title>
			<rect class="PF13537" x="1061" y="18" stroke-linejoin="round" width="12" height="26" fill="rgb(200,63,57)" stroke="rgb(160,50,45)" stroke-width="1" opacity="0.75" />
		</g>
	</g>
	<g>
		<title>ctcU</title>
		<polygon class="ctcU" points="1086,16 1086,16 1086,1 1078,31 1086,61 1086,46 1086,46" fill="rgb(250,239,195)" fill-opacity="1.0" stroke="rgb(100,95,78)" stroke-width="1" />
		<g>
			<title>PF00550</title>
			<polygon class="PF00550" points="1080,31 1083,18 1084,18 1084,44 1083,44" stroke-linejoin="round" width="6" height="26" fill="rgb(103,191,88)" stroke="rgb(82,152,70)" stroke-width="1" opacity="0.75" />
		</g>
	</g>
	<g>
		<title>ctcV</title>
		<polygon class="ctcV" points="1129,16 1119,16 1119,1 1089,31 1119,61 1119,46 1129,46" fill="rgb(185,252,242)" fill-opacity="1.0" stroke="rgb(74,100,96)" stroke-width="1" />
		<g>
			<title>PF02801</title>
			<polygon class="PF02801" points="1093,29 1104,18 1104,43 1093,32" stroke-linejoin="round" width="11" height="26" fill="rgb(215,78,102)" stroke="rgb(172,62,81)" stroke-width="1" opacity="0.75" />
		</g>
		<g>
			<title>PF00109</title>
			<rect class="PF00109" x="1105" y="18" stroke-linejoin="round" width="24" height="26" fill="rgb(112,116,228)" stroke="rgb(89,92,182)" stroke-width="1" opacity="0.75" />
		</g>
	</g>
	<g>
		<title>ctc8</title>
		<polygon class="ctc8" points="55,16 44,16 44,1 14,31 44,61 44,46 55,46" fill="rgb(238,211,253)" fill-opacity="1.0" stroke="rgb(95,84,101)" stroke-width="1" />
		<g>
			<title>PF13641</title>
			<rect class="PF13641" x="32" y="18" stroke-linejoin="round" width="21" height="26" fill="rgb(140,74,190)" stroke="rgb(111,59,152)" stroke-width="1" opacity="0.75" />
		</g>
	</g>
	<g>
		<title>ctcW</title>
		<polygon class="ctcW" points="1171,16 1159,16 1159,1 1129,31 1159,61 1159,46 1171,46" fill="rgb(187,252,202)" fill-opacity="1.0" stroke="rgb(74,100,80)" stroke-width="1" />
		<g>
			<title>PF02801</title>
			<polygon class="PF02801" points="1133,29 1144,18 1144,43 1133,32" stroke-linejoin="round" width="11" height="26" fill="rgb(215,78,102)" stroke="rgb(172,62,81)" stroke-width="1" opacity="0.75" />
		</g>
		<g>
			<title>PF00109</title>
			<rect class="PF00109" x="1146" y="18" stroke-linejoin="round" width="24" height="26" fill="rgb(112,116,228)" stroke="rgb(89,92,182)" stroke-width="1" opacity="0.75" />
		</g>
	</g>
	<g>
		<title>ctcX</title>
		<polygon class="ctcX" points="1181,16 1192,16 1192,1 1222,31 1192,61 1192,46 1181,46" fill="rgb(243,250,192)" fill-opacity="1.0" stroke="rgb(97,100,76)" stroke-width="1" />
		<g>
			<title>PF01494</title>
			<polygon class="PF01494" points="1181,18 1206,18 1216,28 1216,34 1206,44 1181,44" stroke-linejoin="round" width="35" height="26" fill="rgb(182,175,59)" stroke="rgb(145,140,47)" stroke-width="1" opacity="0.75" />
		</g>
	</g>
	<g>
		<title>ctcY</title>
		<polygon class="ctcY" points="1223,16 1237,16 1237,1 1267,31 1237,61 1237,46 1223,46" fill="rgb(210,250,209)" fill-opacity="1.0" stroke="rgb(84,100,83)" stroke-width="1" />
		<g>
			<title>PF00999</title>
			<polygon class="PF00999" points="1225,18 1251,18 1264,31 1264,31 1251,44 1225,44" stroke-linejoin="round" width="39" height="26" fill="rgb(229,67,191)" stroke="rgb(183,53,152)" stroke-width="1" opacity="0.75" />
		</g>
	</g>
	<g>
		<title>ctcZ</title>
		<polygon class="ctcZ" points="1317,16 1313,16 1313,1 1283,31 1313,61 1313,46 1317,46" fill="rgb(196,253,235)" fill-opacity="1.0" stroke="rgb(78,101,93)" stroke-width="1" />
		<g>
			<title>PF03372</title>
			<polygon class="PF03372" points="1285,31 1298,18 1304,18 1304,44 1298,44" stroke-linejoin="round" width="20" height="26" fill="rgb(76,66,180)" stroke="rgb(60,52,144)" stroke-width="1" opacity="0.75" />
		</g>
	</g>
	<g>
		<title>ctc1</title>
		<polygon class="ctc1" points="1349,16 1349,16 1349,1 1326,31 1349,61 1349,46 1349,46" fill="rgb(201,215,250)" fill-opacity="1.0" stroke="rgb(80,85,100)" stroke-width="1" />
		<g>
			<title>PF16859</title>
			<polygon class="PF16859" points="1328,31 1337,19 1337,42" stroke-linejoin="round" width="11" height="26" fill="rgb(219,77,198)" stroke="rgb(175,61,158)" stroke-width="1" opacity="0.75" />
		</g>
		<g>
			<title>PF00440</title>
			<rect class="PF00440" x="1339" y="18" stroke-linejoin="round" width="3" height="26" fill="rgb(73,212,190)" stroke="rgb(58,169,152)" stroke-width="1" opacity="0.75" />
		</g>
	</g>
	<g>
		<title>ctc2</title>
		<polygon class="ctc2" points="1384,16 1383,16 1383,1 1353,31 1383,61 1383,46 1384,46" fill="rgb(206,203,253)" fill-opacity="1.0" stroke="rgb(82,81,101)" stroke-width="1" />
		<g>
			<title>PF07690</title>
			<polygon class="PF07690" points="1364,22 1368,18 1382,18 1382,44 1368,44 1364,39" stroke-linejoin="round" width="18" height="26" fill="rgb(193,224,74)" stroke="rgb(154,179,59)" stroke-width="1" opacity="0.75" />
		</g>
	</g>
	<g>
		<title>ctc7</title>
		<polygon class="ctc7" points="67,16 67,16 67,1 92,31 67,61 67,46 67,46" fill="rgb(252,199,188)" fill-opacity="1.0" stroke="rgb(100,79,75)" stroke-width="1" />
	</g>
	<g>
		<title>ctc6</title>
		<polygon class="ctc6" points="119,16 119,16 119,1 93,31 119,61 119,46 119,46" fill="rgb(227,253,178)" fill-opacity="1.0" stroke="rgb(90,101,71)" stroke-width="1" />
		<g>
			<title>PF04203</title>
			<polygon class="PF04203" points="95,31 106,18 107,18 107,44 106,44" stroke-linejoin="round" width="13" height="26" fill="rgb(213,184,62)" stroke="rgb(170,147,49)" stroke-width="1" opacity="0.75" />
		</g>
	</g>
	<g>
		<title>ctc5</title>
		<polygon class="ctc5" points="169,16 154,16 154,1 124,31 154,61 154,46 169,46" fill="rgb(229,254,188)" fill-opacity="1.0" stroke="rgb(91,101,75)" stroke-width="1" />
		<g>
			<title>PF00120</title>
			<polygon class="PF00120" points="126,31 139,18 158,18 158,44 139,44" stroke-linejoin="round" width="34" height="26" fill="rgb(195,227,89)" stroke="rgb(155,181,71)" stroke-width="1" opacity="0.75" />
		</g>
		<g>
			<title>PF03951</title>
			<rect class="PF03951" x="159" y="18" stroke-linejoin="round" width="8" height="26" fill="rgb(125,91,194)" stroke="rgb(100,72,155)" stroke-width="1" opacity="0.75" />
		</g>
	</g>
	<g>
		<title>ctc4</title>
		<polygon class="ctc4" points="175,16 203,16 203,1 233,31 203,61 203,46 175,46" fill="rgb(253,221,210)" fill-opacity="1.0" stroke="rgb(101,88,84)" stroke-width="1" />
		<g>
			<title>PF00795</title>
			<rect class="PF00795" x="175" y="18" stroke-linejoin="round" width="26" height="26" fill="rgb(213,76,196)" stroke="rgb(170,60,156)" stroke-width="1" opacity="0.75" />
		</g>
		<g>
			<title>PF02540</title>
			<polygon class="PF02540" points="205,18 217,18 229,30 229,32 217,44 205,44" stroke-linejoin="round" width="24" height="26" fill="rgb(204,109,227)" stroke="rgb(163,87,181)" stroke-width="1" opacity="0.75" />
		</g>
	</g>
	<g>
		<title>ctc3</title>
		<polygon class="ctc3" points="235,16 255,16 255,1 285,31 255,61 255,46 235,46" fill="rgb(254,193,185)" fill-opacity="1.0" stroke="rgb(101,77,74)" stroke-width="1" />
		<g>
			<title>PF05598</title>
			<rect class="PF05598" x="242" y="18" stroke-linejoin="round" width="6" height="26" fill="rgb(221,202,107)" stroke="rgb(176,161,85)" stroke-width="1" opacity="0.75" />
		</g>
		<g>
			<title>PF13751</title>
			<polygon class="PF13751" points="275,24 282,31 282,31 275,38" stroke-linejoin="round" width="7" height="26" fill="rgb(51,201,77)" stroke="rgb(40,160,61)" stroke-width="1" opacity="0.75" />
		</g>
	</g>
	<g>
		<title>ctcA</title>
		<polygon class="ctcA" points="322,16 322,16 322,1 343,31 322,61 322,46 322,46" fill="rgb(250,241,180)" fill-opacity="1.0" stroke="rgb(100,96,72)" stroke-width="1" />
		<g>
			<title>PF00196</title>
			<polygon class="PF00196" points="336,25 340,31 336,37" stroke-linejoin="round" width="5" height="26" fill="rgb(219,94,82)" stroke="rgb(175,75,65)" stroke-width="1" opacity="0.75" />
		</g>
	</g>
	<g>
		<title>ctcB</title>
		<polygon class="ctcB" points="375,16 375,16 375,1 348,31 375,61 375,46 375,46" fill="rgb(253,228,186)" fill-opacity="1.0" stroke="rgb(101,91,74)" stroke-width="1" />
		<g>
			<title>PF03704</title>
			<polygon class="PF03704" points="350,31 362,18 364,18 364,44 362,44" stroke-linejoin="round" width="14" height="26" fill="rgb(217,89,196)" stroke="rgb(173,71,156)" stroke-width="1" opacity="0.75" />
		</g>
		<g>
			<title>PF00486</title>
			<rect class="PF00486" x="366" y="18" stroke-linejoin="round" width="7" height="26" fill="rgb(204,153,57)" stroke="rgb(163,122,45)" stroke-width="1" opacity="0.75" />
		</g>
	</g>
</svg>
