<svg version="1.1" baseProfile="full" xmlns="http://www.w3.org/2000/svg" width="226" height="62">
	<line x1="1" y1="31" x2="225" y2="31" style="stroke:rgb(50,50,50); stroke-width:3 "/>
	<g>
		<title>phzA</title>
		<polygon class="phzA" points="15,16 15,16 15,1 31,31 15,61 15,46 15,46" fill="rgb(252,191,182)" fill-opacity="1.0" stroke="rgb(100,76,72)" stroke-width="1" />
		<g>
			<title>PF03284</title>
			<polygon class="PF03284" points="16,18 21,18 28,31 21,44 16,44" stroke-linejoin="round" width="15" height="26" fill="rgb(179,85,75)" stroke="rgb(143,68,60)" stroke-width="1" opacity="0.75" />
		</g>
	</g>
	<g>
		<title>phzB</title>
		<polygon class="phzB" points="32,16 32,16 32,1 48,31 32,61 32,46 32,46" fill="rgb(188,251,190)" fill-opacity="1.0" stroke="rgb(75,100,76)" stroke-width="1" />
		<g>
			<title>PF03284</title>
			<polygon class="PF03284" points="32,18 38,18 45,31 38,44 32,44" stroke-linejoin="round" width="15" height="26" fill="rgb(179,85,75)" stroke="rgb(143,68,60)" stroke-width="1" opacity="0.75" />
		</g>
	</g>
	<g>
		<title>phzC</title>
		<polygon class="phzC" points="49,16 59,16 59,1 89,31 59,61 59,46 49,46" fill="rgb(252,232,203)" fill-opacity="1.0" stroke="rgb(100,92,81)" stroke-width="1" />
		<g>
			<title>PF01474</title>
			<rect class="PF01474" x="49" y="18" stroke-linejoin="round" width="16" height="26" fill="rgb(126,217,84)" stroke="rgb(100,173,67)" stroke-width="1" opacity="0.75" />
		</g>
		<g>
			<title>PF01474</title>
			<polygon class="PF01474" points="64,18 73,18 86,31 73,44 64,44" stroke-linejoin="round" width="23" height="26" fill="rgb(126,217,84)" stroke="rgb(100,173,67)" stroke-width="1" opacity="0.75" />
		</g>
	</g>
	<g>
		<title>phzD</title>
		<polygon class="phzD" points="90,16 90,16 90,1 110,31 90,61 90,46 90,46" fill="rgb(211,215,251)" fill-opacity="1.0" stroke="rgb(84,86,100)" stroke-width="1" />
		<g>
			<title>PF00857</title>
			<polygon class="PF00857" points="93,18 98,18 107,31 98,44 93,44" stroke-linejoin="round" width="17" height="26" fill="rgb(144,224,70)" stroke="rgb(115,179,56)" stroke-width="1" opacity="0.75" />
		</g>
	</g>
	<g>
		<title>phzE</title>
		<polygon class="phzE" points="110,16 142,16 142,1 172,31 142,61 142,46 110,46" fill="rgb(254,187,252)" fill-opacity="1.0" stroke="rgb(101,74,100)" stroke-width="1" />
		<g>
			<title>PF00425</title>
			<rect class="PF00425" x="122" y="18" stroke-linejoin="round" width="26" height="26" fill="rgb(188,116,88)" stroke="rgb(150,92,70)" stroke-width="1" opacity="0.75" />
		</g>
		<g>
			<title>PF00117</title>
			<polygon class="PF00117" points="153,18 156,18 169,31 156,44 153,44" stroke-linejoin="round" width="18" height="26" fill="rgb(159,201,96)" stroke="rgb(127,160,76)" stroke-width="1" opacity="0.75" />
		</g>
	</g>
	<g>
		<title>phzF</title>
		<polygon class="phzF" points="174,16 174,16 174,1 201,31 174,61 174,46 174,46" fill="rgb(188,249,188)" fill-opacity="1.0" stroke="rgb(75,99,75)" stroke-width="1" />
		<g>
			<title>PF02567</title>
			<polygon class="PF02567" points="174,18 186,18 198,31 186,44 174,44" stroke-linejoin="round" width="26" height="26" fill="rgb(223,91,96)" stroke="rgb(178,72,76)" stroke-width="1" opacity="0.75" />
		</g>
	</g>
	<g>
		<title>phzG</title>
		<polygon class="phzG" points="202,16 202,16 202,1 223,31 202,61 202,46 202,46" fill="rgb(190,193,251)" fill-opacity="1.0" stroke="rgb(76,77,100)" stroke-width="1" />
		<g>
			<title>PF01243</title>
			<polygon class="PF01243" points="205,18 211,18 214,22 214,40 211,44 205,44" stroke-linejoin="round" width="9" height="26" fill="rgb(177,193,67)" stroke="rgb(141,154,53)" stroke-width="1" opacity="0.75" />
		</g>
		<g>
			<title>PF10590</title>
			<polygon class="PF10590" points="219,29 220,31 219,33" stroke-linejoin="round" width="4" height="26" fill="rgb(86,221,142)" stroke="rgb(68,176,113)" stroke-width="1" opacity="0.75" />
		</g>
	</g>
</svg>
