<svg version="1.1" baseProfile="full" xmlns="http://www.w3.org/2000/svg" width="406" height="62">
	<line x1="1" y1="31" x2="405" y2="31" style="stroke:rgb(50,50,50); stroke-width:3 "/>
	<g>
		<polygon class="NoName" points="353,16 353,16 353,1 372,31 353,61 353,46 353,46" fill="rgb(255,255,255)" fill-opacity="1.0" stroke="rgb(50,50,50)" stroke-width="1" />
		<g>
			<title>PF11695</title>
			<polygon class="PF11695" points="354,18 361,18 367,27 367,35 361,44 354,44" stroke-linejoin="round" width="13" height="26" fill="rgb(173,185,85)" stroke="rgb(138,148,68)" stroke-width="1" opacity="0.75" />
		</g>
	</g>
	<g>
		<polygon class="NoName" points="405,16 400,16 400,1 370,31 400,61 400,46 405,46" fill="rgb(255,255,255)" fill-opacity="1.0" stroke="rgb(50,50,50)" stroke-width="1" />
		<g>
			<title>PF00400</title>
			<polygon class="PF00400" points="380,23 383,20 383,41 380,38" stroke-linejoin="round" width="3" height="26" fill="rgb(190,108,62)" stroke="rgb(152,86,49)" stroke-width="1" opacity="0.75" />
		</g>
		<g>
			<title>PF00400</title>
			<polygon class="PF00400" points="384,19 385,18 387,18 387,44 385,44 384,42" stroke-linejoin="round" width="3" height="26" fill="rgb(190,108,62)" stroke="rgb(152,86,49)" stroke-width="1" opacity="0.75" />
		</g>
	</g>
	<g>
		<polygon class="NoName" points="35,16 31,16 31,1 1,31 31,61 31,46 35,46" fill="rgb(255,255,255)" fill-opacity="1.0" stroke="rgb(50,50,50)" stroke-width="1" />
		<g>
			<title>PF00355</title>
			<rect class="PF00355" x="21" y="18" stroke-linejoin="round" width="8" height="26" fill="rgb(186,77,145)" stroke="rgb(148,61,115)" stroke-width="1" opacity="0.75" />
		</g>
	</g>
	<g>
		<polygon class="NoName" points="67,16 64,16 64,1 34,31 64,61 64,46 67,46" fill="rgb(255,255,255)" fill-opacity="1.0" stroke="rgb(50,50,50)" stroke-width="1" />
		<g>
			<title>PF00494</title>
			<polygon class="PF00494" points="38,29 49,18 65,18 65,44 49,44 38,32" stroke-linejoin="round" width="27" height="26" fill="rgb(178,91,49)" stroke="rgb(142,72,39)" stroke-width="1" opacity="0.75" />
		</g>
	</g>
	<g>
		<polygon class="NoName" points="118,16 98,16 98,1 68,31 98,61 98,46 118,46" fill="rgb(255,255,255)" fill-opacity="1.0" stroke="rgb(50,50,50)" stroke-width="1" />
		<g>
			<title>PF01593</title>
			<polygon class="PF01593" points="70,31 83,18 117,18 117,44 83,44" stroke-linejoin="round" width="47" height="26" fill="rgb(184,74,52)" stroke="rgb(147,59,41)" stroke-width="1" opacity="0.75" />
		</g>
	</g>
	<g>
		<polygon class="NoName" points="161,16 149,16 149,1 119,31 149,61 149,46 161,46" fill="rgb(255,255,255)" fill-opacity="1.0" stroke="rgb(50,50,50)" stroke-width="1" />
		<g>
			<title>PF00348</title>
			<polygon class="PF00348" points="126,26 134,18 153,18 153,44 134,44 126,35" stroke-linejoin="round" width="27" height="26" fill="rgb(61,206,65)" stroke="rgb(48,164,52)" stroke-width="1" opacity="0.75" />
		</g>
	</g>
	<g>
		<polygon class="NoName" points="170,16 179,16 179,1 209,31 179,61 179,46 170,46" fill="rgb(255,255,255)" fill-opacity="1.0" stroke="rgb(50,50,50)" stroke-width="1" />
		<g>
			<title>PF05834</title>
			<polygon class="PF05834" points="170,18 193,18 206,31 193,44 170,44" stroke-linejoin="round" width="37" height="26" fill="rgb(212,80,200)" stroke="rgb(169,64,160)" stroke-width="1" opacity="0.75" />
		</g>
	</g>
	<g>
		<polygon class="NoName" points="217,16 217,16 217,1 241,31 217,61 217,46 217,46" fill="rgb(255,255,255)" fill-opacity="1.0" stroke="rgb(50,50,50)" stroke-width="1" />
		<g>
			<title>PF01209</title>
			<polygon class="PF01209" points="217,18 228,18 238,31 228,44 217,44" stroke-linejoin="round" width="22" height="26" fill="rgb(90,83,226)" stroke="rgb(72,66,180)" stroke-width="1" opacity="0.75" />
		</g>
	</g>
	<g>
		<polygon class="NoName" points="241,16 265,16 265,1 295,31 265,61 265,46 241,46" fill="rgb(255,255,255)" fill-opacity="1.0" stroke="rgb(50,50,50)" stroke-width="1" />
		<g>
			<title>PF01593</title>
			<polygon class="PF01593" points="246,18 279,18 290,29 290,33 279,44 246,44" stroke-linejoin="round" width="44" height="26" fill="rgb(184,74,52)" stroke="rgb(147,59,41)" stroke-width="1" opacity="0.75" />
		</g>
	</g>
	<g>
		<polygon class="NoName" points="297,16 297,16 297,1 325,31 297,61 297,46 297,46" fill="rgb(255,255,255)" fill-opacity="1.0" stroke="rgb(50,50,50)" stroke-width="1" />
		<g>
			<title>PF12706</title>
			<polygon class="PF12706" points="299,18 310,18 319,28 319,34 310,44 299,44" stroke-linejoin="round" width="20" height="26" fill="rgb(62,169,197)" stroke="rgb(49,135,157)" stroke-width="1" opacity="0.75" />
		</g>
	</g>
	<g>
		<polygon class="NoName" points="329,16 329,16 329,1 352,31 329,61 329,46 329,46" fill="rgb(255,255,255)" fill-opacity="1.0" stroke="rgb(50,50,50)" stroke-width="1" />
		<g>
			<title>PF12840</title>
			<rect class="PF12840" x="329" y="18" stroke-linejoin="round" width="5" height="26" fill="rgb(157,225,93)" stroke="rgb(125,180,74)" stroke-width="1" opacity="0.75" />
		</g>
	</g>
</svg>
