<svg version="1.1" baseProfile="full" xmlns="http://www.w3.org/2000/svg" width="335" height="62">
	<line x1="1" y1="31" x2="334" y2="31" style="stroke:rgb(50,50,50); stroke-width:3 "/>
	<g>
		<polygon class="NoName" points="54,16 54,16 54,1 27,31 54,61 54,46 54,46" fill="rgb(255,255,255)" fill-opacity="1.0" stroke="rgb(50,50,50)" stroke-width="1" />
		<g>
			<title>PF06827</title>
			<polygon class="PF06827" points="29,31 29,31 29,30" stroke-linejoin="round" width="2" height="26" fill="rgb(167,86,192)" stroke="rgb(133,68,153)" stroke-width="1" opacity="0.75" />
		</g>
		<g>
			<title>PF06831</title>
			<polygon class="PF06831" points="32,28 41,18 41,43 32,33" stroke-linejoin="round" width="9" height="26" fill="rgb(57,227,194)" stroke="rgb(45,181,155)" stroke-width="1" opacity="0.75" />
		</g>
		<g>
			<title>PF01149</title>
			<rect class="PF01149" x="42" y="18" stroke-linejoin="round" width="11" height="26" fill="rgb(124,229,81)" stroke="rgb(99,183,64)" stroke-width="1" opacity="0.75" />
		</g>
	</g>
	<g>
		<polygon class="NoName" points="106,16 106,16 106,1 81,31 106,61 106,46 106,46" fill="rgb(255,255,255)" fill-opacity="1.0" stroke="rgb(50,50,50)" stroke-width="1" />
		<g>
			<title>PF00378</title>
			<polygon class="PF00378" points="83,31 94,18 105,18 105,44 94,44" stroke-linejoin="round" width="24" height="26" fill="rgb(218,72,181)" stroke="rgb(174,57,144)" stroke-width="1" opacity="0.75" />
		</g>
	</g>
	<g>
		<polygon class="NoName" points="153,16 139,16 139,1 109,31 139,61 139,46 153,46" fill="rgb(255,255,255)" fill-opacity="1.0" stroke="rgb(50,50,50)" stroke-width="1" />
		<g>
			<title>PF02801</title>
			<polygon class="PF02801" points="114,28 124,18 125,18 125,44 124,44 114,33" stroke-linejoin="round" width="11" height="26" fill="rgb(215,78,102)" stroke="rgb(172,62,81)" stroke-width="1" opacity="0.75" />
		</g>
		<g>
			<title>PF00109</title>
			<rect class="PF00109" x="126" y="18" stroke-linejoin="round" width="25" height="26" fill="rgb(112,116,228)" stroke="rgb(89,92,182)" stroke-width="1" opacity="0.75" />
		</g>
	</g>
	<g>
		<polygon class="NoName" points="161,16 161,16 161,1 153,31 161,61 161,46 161,46" fill="rgb(255,255,255)" fill-opacity="1.0" stroke="rgb(50,50,50)" stroke-width="1" />
		<g>
			<title>PF00550</title>
			<polygon class="PF00550" points="155,31 158,18 159,18 159,44 158,44" stroke-linejoin="round" width="6" height="26" fill="rgb(103,191,88)" stroke="rgb(82,152,70)" stroke-width="1" opacity="0.75" />
		</g>
	</g>
	<g>
		<polygon class="NoName" points="169,16 172,16 172,1 202,31 172,61 172,46 169,46" fill="rgb(255,255,255)" fill-opacity="1.0" stroke="rgb(50,50,50)" stroke-width="1" />
		<g>
			<title>PF08241</title>
			<polygon class="PF08241" points="183,18 186,18 192,24 192,38 186,44 183,44" stroke-linejoin="round" width="9" height="26" fill="rgb(106,219,159)" stroke="rgb(84,175,127)" stroke-width="1" opacity="0.75" />
		</g>
	</g>
	<g>
		<polygon class="NoName" points="210,16 223,16 223,1 253,31 223,61 223,46 210,46" fill="rgb(255,255,255)" fill-opacity="1.0" stroke="rgb(50,50,50)" stroke-width="1" />
		<g>
			<title>PF01154</title>
			<rect class="PF01154" x="210" y="18" stroke-linejoin="round" width="18" height="26" fill="rgb(88,216,218)" stroke="rgb(70,172,174)" stroke-width="1" opacity="0.75" />
		</g>
		<g>
			<title>PF08540</title>
			<polygon class="PF08540" points="236,18 237,18 249,30 249,32 237,44 236,44" stroke-linejoin="round" width="13" height="26" fill="rgb(49,194,86)" stroke="rgb(39,155,68)" stroke-width="1" opacity="0.75" />
		</g>
	</g>
	<g>
		<polygon class="NoName" points="253,16 254,16 254,1 284,31 254,61 254,46 253,46" fill="rgb(255,255,255)" fill-opacity="1.0" stroke="rgb(50,50,50)" stroke-width="1" />
		<g>
			<title>PF12697</title>
			<polygon class="PF12697" points="260,18 268,18 281,31 268,44 260,44" stroke-linejoin="round" width="23" height="26" fill="rgb(113,71,219)" stroke="rgb(90,56,175)" stroke-width="1" opacity="0.75" />
		</g>
	</g>
	<g>
		<polygon class="NoName" points="314,16 314,16 314,1 285,31 314,61 314,46 314,46" fill="rgb(255,255,255)" fill-opacity="1.0" stroke="rgb(50,50,50)" stroke-width="1" />
		<g>
			<title>PF03466</title>
			<polygon class="PF03466" points="287,31 300,18 305,18 305,44 300,44" stroke-linejoin="round" width="20" height="26" fill="rgb(55,136,195)" stroke="rgb(44,108,156)" stroke-width="1" opacity="0.75" />
		</g>
		<g>
			<title>PF00126</title>
			<rect class="PF00126" x="308" y="18" stroke-linejoin="round" width="5" height="26" fill="rgb(125,227,79)" stroke="rgb(99,181,63)" stroke-width="1" opacity="0.75" />
		</g>
	</g>
</svg>
