<svg version="1.1" baseProfile="full" xmlns="http://www.w3.org/2000/svg" width="102" height="124">
	<line x1="1" y1="31" x2="101" y2="31" style="stroke:rgb(50,50,50); stroke-width:3 "/>
	<line x1="1" y1="93" x2="82" y2="93" style="stroke:rgb(50,50,50); stroke-width:3 "/>
	<g>
		<title>ribB</title>
		<polygon class="ribB" points="1,16 1,16 1,1 20,31 1,61 1,46 1,46" fill="rgb(183,239,254)" fill-opacity="1.0" stroke="rgb(73,95,101)" stroke-width="1" />
		<g>
			<title>PF00677</title>
			<rect class="PF00677" x="1" y="18" stroke-linejoin="round" width="8" height="26" fill="rgb(107,211,72)" stroke="rgb(85,168,57)" stroke-width="1" opacity="0.75" />
		</g>
		<g>
			<title>PF00677</title>
			<polygon class="PF00677" points="10,19 17,31 10,43" stroke-linejoin="round" width="8" height="26" fill="rgb(107,211,72)" stroke="rgb(85,168,57)" stroke-width="1" opacity="0.75" />
		</g>
	</g>
	<g>
		<title>ribM</title>
		<polygon class="ribM" points="20,16 20,16 20,1 41,31 20,61 20,46 20,46" fill="rgb(179,224,251)" fill-opacity="1.0" stroke="rgb(71,89,100)" stroke-width="1" />
		<g>
			<title>PF04973</title>
			<polygon class="PF04973" points="21,18 29,18 38,31 29,44 21,44" stroke-linejoin="round" width="18" height="26" fill="rgb(79,222,192)" stroke="rgb(63,177,153)" stroke-width="1" opacity="0.75" />
		</g>
	</g>
	<g>
		<title>ribA5</title>
		<polygon class="ribA5" points="41,16 54,16 54,1 84,31 54,61 54,46 41,46" fill="rgb(254,215,227)" fill-opacity="1.0" stroke="rgb(101,86,90)" stroke-width="1" />
		<g>
			<title>PF00926</title>
			<rect class="PF00926" x="43" y="18" stroke-linejoin="round" width="19" height="26" fill="rgb(84,51,187)" stroke="rgb(67,40,149)" stroke-width="1" opacity="0.75" />
		</g>
		<g>
			<title>PF00925</title>
			<polygon class="PF00925" points="63,18 68,18 79,29 79,33 68,44 63,44" stroke-linejoin="round" width="16" height="26" fill="rgb(50,54,188)" stroke="rgb(40,43,150)" stroke-width="1" opacity="0.75" />
		</g>
	</g>
	<g>
		<title>ribH</title>
		<polygon class="ribH" points="85,16 85,16 85,1 101,31 85,61 85,46 85,46" fill="rgb(206,253,245)" fill-opacity="1.0" stroke="rgb(82,101,98)" stroke-width="1" />
		<g>
			<title>PF00885</title>
			<polygon class="PF00885" points="86,18 91,18 98,31 91,44 86,44" stroke-linejoin="round" width="13" height="26" fill="rgb(86,187,81)" stroke="rgb(68,149,64)" stroke-width="1" opacity="0.75" />
		</g>
	</g>
	<g>
		<title>ribA3</title>
		<polygon class="ribA3" points="22,78 22,78 22,63 1,93 22,123 22,108 22,108" fill="rgb(179,250,250)" fill-opacity="1.0" stroke="rgb(71,100,100)" stroke-width="1" />
		<g>
			<title>PF00925</title>
			<polygon class="PF00925" points="4,92 12,80 20,80 20,106 12,106 4,93" stroke-linejoin="round" width="16" height="26" fill="rgb(50,54,188)" stroke="rgb(40,43,150)" stroke-width="1" opacity="0.75" />
		</g>
	</g>
	<g>
		<polygon class="NoName" points="41,78 41,78 41,63 25,93 41,123 41,108 41,108" fill="rgb(255,255,255)" fill-opacity="1.0" stroke="rgb(50,50,50)" stroke-width="1" />
		<g>
			<title>PF12802</title>
			<polygon class="PF12802" points="32,84 34,80 38,80 38,106 34,106 32,101" stroke-linejoin="round" width="6" height="26" fill="rgb(46,89,185)" stroke="rgb(36,71,148)" stroke-width="1" opacity="0.75" />
		</g>
	</g>
	<g>
		<title>ribG7</title>
		<polygon class="ribG7" points="45,78 52,78 52,63 82,93 52,123 52,108 45,108" fill="rgb(254,216,208)" fill-opacity="1.0" stroke="rgb(101,86,83)" stroke-width="1" />
		<g>
			<title>PF01872</title>
			<rect class="PF01872" x="45" y="80" stroke-linejoin="round" width="20" height="26" fill="rgb(225,80,120)" stroke="rgb(180,64,95)" stroke-width="1" opacity="0.75" />
		</g>
		<g>
			<title>PF00383</title>
			<polygon class="PF00383" points="67,81 77,91 77,95 67,105" stroke-linejoin="round" width="10" height="26" fill="rgb(91,149,216)" stroke="rgb(72,119,172)" stroke-width="1" opacity="0.75" />
		</g>
	</g>
</svg>
