<svg version="1.1" baseProfile="full" xmlns="http://www.w3.org/2000/svg" width="1442" height="62">
	<line x1="1" y1="31" x2="1441" y2="31" style="stroke:rgb(50,50,50); stroke-width:3 "/>
	<g>
		<polygon class="NoName" points="406,16 406,16 406,1 433,31 406,61 406,46 406,46" fill="rgb(255,255,255)" fill-opacity="1.0" stroke="rgb(50,50,50)" stroke-width="1" />
		<g>
			<title>PF08798</title>
			<polygon class="PF08798" points="406,18 418,18 430,31 418,44 406,44" stroke-linejoin="round" width="25" height="26" fill="rgb(196,187,97)" stroke="rgb(156,149,77)" stroke-width="1" opacity="0.75" />
		</g>
	</g>
	<g>
		<polygon class="NoName" points="432,16 438,16 438,1 468,31 438,61 438,46 432,46" fill="rgb(255,255,255)" fill-opacity="1.0" stroke="rgb(50,50,50)" stroke-width="1" />
		<g>
			<title>PF01867</title>
			<polygon class="PF01867" points="445,18 452,18 458,24 458,38 452,44 445,44" stroke-linejoin="round" width="13" height="26" fill="rgb(84,220,92)" stroke="rgb(67,176,73)" stroke-width="1" opacity="0.75" />
		</g>
	</g>
	<g>
		<polygon class="NoName" points="468,16 468,16 468,1 476,31 468,61 468,46 468,46" fill="rgb(255,255,255)" fill-opacity="1.0" stroke="rgb(50,50,50)" stroke-width="1" />
		<g>
			<title>PF09707</title>
			<polygon class="PF09707" points="468,18 470,18 473,31 470,44 468,44" stroke-linejoin="round" width="8" height="26" fill="rgb(136,54,185)" stroke="rgb(108,43,148)" stroke-width="1" opacity="0.75" />
		</g>
	</g>
	<g>
		<polygon class="NoName" points="505,16 505,16 505,1 500,31 505,61 505,46 505,46" fill="rgb(255,255,255)" fill-opacity="1.0" stroke="rgb(50,50,50)" stroke-width="1" />
	</g>
	<g>
		<polygon class="NoName" points="502,16 502,16 502,1 516,31 502,61 502,46 502,46" fill="rgb(255,255,255)" fill-opacity="1.0" stroke="rgb(50,50,50)" stroke-width="1" />
	</g>
	<g>
		<polygon class="NoName" points="518,16 518,16 518,1 530,31 518,61 518,46 518,46" fill="rgb(255,255,255)" fill-opacity="1.0" stroke="rgb(50,50,50)" stroke-width="1" />
	</g>
	<g>
		<polygon class="NoName" points="574,16 568,16 568,1 538,31 568,61 568,46 574,46" fill="rgb(255,255,255)" fill-opacity="1.0" stroke="rgb(50,50,50)" stroke-width="1" />
	</g>
	<g>
		<title>tobY</title>
		<polygon class="tobY" points="578,16 578,16 578,1 594,31 578,61 578,46 578,46" fill="rgb(253,234,205)" fill-opacity="1.0" stroke="rgb(101,93,82)" stroke-width="1" />
	</g>
	<g>
		<title>tobX</title>
		<polygon class="tobX" points="595,16 595,16 595,1 617,31 595,61 595,46 595,46" fill="rgb(251,237,212)" fill-opacity="1.0" stroke="rgb(100,94,84)" stroke-width="1" />
		<g>
			<title>PF13532</title>
			<polygon class="PF13532" points="599,18 604,18 614,31 604,44 599,44" stroke-linejoin="round" width="16" height="26" fill="rgb(182,67,194)" stroke="rgb(145,53,155)" stroke-width="1" opacity="0.75" />
		</g>
	</g>
	<g>
		<title>tobE</title>
		<polygon class="tobE" points="640,16 644,16 644,1 674,31 644,61 644,46 640,46" fill="rgb(237,188,253)" fill-opacity="1.0" stroke="rgb(94,75,101)" stroke-width="1" />
		<g>
			<title>PF08240</title>
			<rect class="PF08240" x="642" y="18" stroke-linejoin="round" width="10" height="26" fill="rgb(211,65,138)" stroke="rgb(168,51,110)" stroke-width="1" opacity="0.75" />
		</g>
		<g>
			<title>PF00107</title>
			<polygon class="PF00107" points="657,18 658,18 669,29 669,33 658,44 657,44" stroke-linejoin="round" width="12" height="26" fill="rgb(81,108,215)" stroke="rgb(64,86,172)" stroke-width="1" opacity="0.75" />
		</g>
	</g>
	<g>
		<polygon class="NoName" points="1,16 1,16 1,1 19,31 1,61 1,46 1,46" fill="rgb(255,255,255)" fill-opacity="1.0" stroke="rgb(50,50,50)" stroke-width="1" />
		<g>
			<title>PF13549</title>
			<polygon class="PF13549" points="1,18 8,18 16,31 8,44 1,44" stroke-linejoin="round" width="16" height="26" fill="rgb(194,96,199)" stroke="rgb(155,76,159)" stroke-width="1" opacity="0.75" />
		</g>
	</g>
	<g>
		<title>tobT</title>
		<polygon class="tobT" points="679,16 692,16 692,1 722,31 692,61 692,46 679,46" fill="rgb(187,252,176)" fill-opacity="1.0" stroke="rgb(74,100,70)" stroke-width="1" />
		<g>
			<title>PF07690</title>
			<polygon class="PF07690" points="683,18 706,18 713,25 713,37 706,44 683,44" stroke-linejoin="round" width="30" height="26" fill="rgb(193,224,74)" stroke="rgb(154,179,59)" stroke-width="1" opacity="0.75" />
		</g>
	</g>
	<g>
		<title>tobB</title>
		<polygon class="tobB" points="727,16 736,16 736,1 766,31 736,61 736,46 727,46" fill="rgb(214,195,251)" fill-opacity="1.0" stroke="rgb(85,78,100)" stroke-width="1" />
		<g>
			<title>PF00202</title>
			<polygon class="PF00202" points="730,18 750,18 763,31 750,44 730,44" stroke-linejoin="round" width="36" height="26" fill="rgb(49,163,189)" stroke="rgb(39,130,151)" stroke-width="1" opacity="0.75" />
		</g>
	</g>
	<g>
		<title>tobQ</title>
		<polygon class="tobQ" points="768,16 788,16 788,1 818,31 788,61 788,46 768,46" fill="rgb(250,235,197)" fill-opacity="1.0" stroke="rgb(100,93,78)" stroke-width="1" />
		<g>
			<title>PF00732</title>
			<rect class="PF00732" x="769" y="18" stroke-linejoin="round" width="27" height="26" fill="rgb(180,89,214)" stroke="rgb(143,71,171)" stroke-width="1" opacity="0.75" />
		</g>
		<g>
			<title>PF05199</title>
			<polygon class="PF05199" points="806,22 815,31 806,40" stroke-linejoin="round" width="12" height="26" fill="rgb(186,52,106)" stroke="rgb(148,41,84)" stroke-width="1" opacity="0.75" />
		</g>
	</g>
	<g>
		<title>tobZ</title>
		<polygon class="tobZ" points="823,16 850,16 850,1 880,31 850,61 850,46 823,46" fill="rgb(241,253,183)" fill-opacity="1.0" stroke="rgb(96,101,73)" stroke-width="1" />
		<g>
			<title>PF02543</title>
			<rect class="PF02543" x="823" y="18" stroke-linejoin="round" width="34" height="26" fill="rgb(146,218,61)" stroke="rgb(116,174,48)" stroke-width="1" opacity="0.75" />
		</g>
		<g>
			<title>PF16861</title>
			<polygon class="PF16861" points="862,18 864,18 877,31 864,44 862,44" stroke-linejoin="round" width="16" height="26" fill="rgb(183,87,154)" stroke="rgb(146,69,123)" stroke-width="1" opacity="0.75" />
		</g>
	</g>
	<g>
		<title>tobS1</title>
		<polygon class="tobS1" points="888,16 900,16 900,1 930,31 900,61 900,46 888,46" fill="rgb(212,254,211)" fill-opacity="1.0" stroke="rgb(84,101,84)" stroke-width="1" />
		<g>
			<title>PF01041</title>
			<polygon class="PF01041" points="890,18 914,18 927,31 914,44 890,44" stroke-linejoin="round" width="39" height="26" fill="rgb(59,139,191)" stroke="rgb(47,111,152)" stroke-width="1" opacity="0.75" />
		</g>
	</g>
	<g>
		<title>tobC</title>
		<polygon class="tobC" points="931,16 939,16 939,1 969,31 939,61 939,46 931,46" fill="rgb(253,187,225)" fill-opacity="1.0" stroke="rgb(101,74,89)" stroke-width="1" />
		<g>
			<title>PF01761</title>
			<polygon class="PF01761" points="937,18 953,18 962,27 962,35 953,44 937,44" stroke-linejoin="round" width="25" height="26" fill="rgb(150,62,180)" stroke="rgb(120,49,144)" stroke-width="1" opacity="0.75" />
		</g>
	</g>
	<g>
		<title>tobD2</title>
		<polygon class="tobD2" points="975,16 979,16 979,1 1009,31 979,61 979,46 975,46" fill="rgb(246,253,212)" fill-opacity="1.0" stroke="rgb(98,101,84)" stroke-width="1" />
		<g>
			<title>PF01408</title>
			<rect class="PF01408" x="975" y="18" stroke-linejoin="round" width="10" height="26" fill="rgb(76,117,190)" stroke="rgb(60,93,152)" stroke-width="1" opacity="0.75" />
		</g>
		<g>
			<title>PF02894</title>
			<polygon class="PF02894" points="987,18 993,18 998,23 998,39 993,44 987,44" stroke-linejoin="round" width="11" height="26" fill="rgb(195,223,82)" stroke="rgb(155,178,65)" stroke-width="1" opacity="0.75" />
		</g>
	</g>
	<g>
		<title>tobM2</title>
		<polygon class="tobM2" points="1011,16 1023,16 1023,1 1053,31 1023,61 1023,46 1011,46" fill="rgb(250,218,186)" fill-opacity="1.0" stroke="rgb(100,87,74)" stroke-width="1" />
		<g>
			<title>PF13579</title>
			<rect class="PF13579" x="1014" y="18" stroke-linejoin="round" width="18" height="26" fill="rgb(143,60,202)" stroke="rgb(114,47,161)" stroke-width="1" opacity="0.75" />
		</g>
		<g>
			<title>PF00534</title>
			<polygon class="PF00534" points="1033,18 1037,18 1049,30 1049,32 1037,44 1033,44" stroke-linejoin="round" width="16" height="26" fill="rgb(228,92,150)" stroke="rgb(182,73,119)" stroke-width="1" opacity="0.75" />
		</g>
	</g>
	<g>
		<title>tobN</title>
		<polygon class="tobN" points="1053,16 1053,16 1053,1 1079,31 1053,61 1053,46 1053,46" fill="rgb(250,205,210)" fill-opacity="1.0" stroke="rgb(100,82,84)" stroke-width="1" />
		<g>
			<title>PF02585</title>
			<polygon class="PF02585" points="1053,18 1065,18 1067,21 1067,41 1065,44 1053,44" stroke-linejoin="round" width="14" height="26" fill="rgb(97,215,95)" stroke="rgb(77,172,76)" stroke-width="1" opacity="0.75" />
		</g>
	</g>
	<g>
		<title>tobS2</title>
		<polygon class="tobS2" points="1079,16 1090,16 1090,1 1120,31 1090,61 1090,46 1079,46" fill="rgb(205,252,220)" fill-opacity="1.0" stroke="rgb(82,100,88)" stroke-width="1" />
		<g>
			<title>PF01041</title>
			<polygon class="PF01041" points="1081,18 1104,18 1117,31 1104,44 1081,44" stroke-linejoin="round" width="38" height="26" fill="rgb(59,139,191)" stroke="rgb(47,111,152)" stroke-width="1" opacity="0.75" />
		</g>
	</g>
	<g>
		<polygon class="NoName" points="73,16 70,16 70,1 40,31 70,61 70,46 73,46" fill="rgb(255,255,255)" fill-opacity="1.0" stroke="rgb(50,50,50)" stroke-width="1" />
	</g>
	<g>
		<polygon class="NoName" points="1122,16 1122,16 1122,1 1134,31 1122,61 1122,46 1122,46" fill="rgb(255,255,255)" fill-opacity="1.0" stroke="rgb(50,50,50)" stroke-width="1" />
	</g>
	<g>
		<title>tobM1</title>
		<polygon class="tobM1" points="1142,16 1153,16 1153,1 1183,31 1153,61 1153,46 1142,46" fill="rgb(207,254,253)" fill-opacity="1.0" stroke="rgb(82,101,101)" stroke-width="1" />
		<g>
			<title>PF13439</title>
			<rect class="PF13439" x="1144" y="18" stroke-linejoin="round" width="18" height="26" fill="rgb(162,57,186)" stroke="rgb(129,45,148)" stroke-width="1" opacity="0.75" />
		</g>
		<g>
			<title>PF00534</title>
			<polygon class="PF00534" points="1163,18 1167,18 1179,30 1179,32 1167,44 1163,44" stroke-linejoin="round" width="16" height="26" fill="rgb(228,92,150)" stroke="rgb(182,73,119)" stroke-width="1" opacity="0.75" />
		</g>
	</g>
	<g>
		<title>tobL</title>
		<polygon class="tobL" points="1261,16 1250,16 1250,1 1220,31 1250,61 1250,46 1261,46" fill="rgb(184,213,253)" fill-opacity="1.0" stroke="rgb(73,85,101)" stroke-width="1" />
		<g>
			<title>PF13535</title>
			<polygon class="PF13535" points="1231,22 1235,18 1245,18 1245,44 1235,44 1231,39" stroke-linejoin="round" width="14" height="26" fill="rgb(197,156,74)" stroke="rgb(157,124,59)" stroke-width="1" opacity="0.75" />
		</g>
	</g>
	<g>
		<title>tobU</title>
		<polygon class="tobU" points="1295,16 1293,16 1293,1 1263,31 1293,61 1293,46 1295,46" fill="rgb(209,254,237)" fill-opacity="1.0" stroke="rgb(83,101,94)" stroke-width="1" />
		<g>
			<title>PF00892</title>
			<polygon class="PF00892" points="1265,31 1278,18 1279,18 1279,44 1278,44" stroke-linejoin="round" width="14" height="26" fill="rgb(105,217,77)" stroke="rgb(84,173,61)" stroke-width="1" opacity="0.75" />
		</g>
		<g>
			<title>PF00892</title>
			<rect class="PF00892" x="1280" y="18" stroke-linejoin="round" width="13" height="26" fill="rgb(105,217,77)" stroke="rgb(84,173,61)" stroke-width="1" opacity="0.75" />
		</g>
	</g>
	<g>
		<title>tobA</title>
		<polygon class="tobA" points="1333,16 1326,16 1326,1 1296,31 1326,61 1326,46 1333,46" fill="rgb(206,251,204)" fill-opacity="1.0" stroke="rgb(82,100,81)" stroke-width="1" />
		<g>
			<title>PF00155</title>
			<polygon class="PF00155" points="1298,31 1311,18 1331,18 1331,44 1311,44" stroke-linejoin="round" width="34" height="26" fill="rgb(89,113,198)" stroke="rgb(71,90,158)" stroke-width="1" opacity="0.75" />
		</g>
	</g>
	<g>
		<title>tobD3</title>
		<polygon class="tobD3" points="1371,16 1366,16 1366,1 1336,31 1366,61 1366,46 1371,46" fill="rgb(204,253,236)" fill-opacity="1.0" stroke="rgb(81,101,94)" stroke-width="1" />
		<g>
			<title>PF01070</title>
			<polygon class="PF01070" points="1338,31 1351,18 1370,18 1370,44 1351,44" stroke-linejoin="round" width="33" height="26" fill="rgb(59,82,204)" stroke="rgb(47,65,163)" stroke-width="1" opacity="0.75" />
		</g>
	</g>
	<g>
		<title>tobO</title>
		<polygon class="tobO" points="1405,16 1403,16 1403,1 1373,31 1403,61 1403,46 1405,46" fill="rgb(252,205,193)" fill-opacity="1.0" stroke="rgb(100,82,77)" stroke-width="1" />
		<g>
			<title>PF02668</title>
			<polygon class="PF02668" points="1376,30 1388,18 1401,18 1401,44 1388,44 1376,31" stroke-linejoin="round" width="25" height="26" fill="rgb(180,79,217)" stroke="rgb(144,63,173)" stroke-width="1" opacity="0.75" />
		</g>
	</g>
	<g>
		<title>tobR</title>
		<polygon class="tobR" points="1414,16 1414,16 1414,1 1430,31 1414,61 1414,46 1414,46" fill="rgb(179,184,251)" fill-opacity="1.0" stroke="rgb(71,73,100)" stroke-width="1" />
		<g>
			<title>PF13404</title>
			<rect class="PF13404" x="1414" y="18" stroke-linejoin="round" width="4" height="26" fill="rgb(190,195,86)" stroke="rgb(152,156,68)" stroke-width="1" opacity="0.75" />
		</g>
		<g>
			<title>PF01037</title>
			<polygon class="PF01037" points="1421,19 1427,31 1421,43" stroke-linejoin="round" width="7" height="26" fill="rgb(134,72,182)" stroke="rgb(107,57,145)" stroke-width="1" opacity="0.75" />
		</g>
	</g>
	<g>
		<polygon class="NoName" points="88,16 88,16 88,1 118,31 88,61 88,46 88,46" fill="rgb(255,255,255)" fill-opacity="1.0" stroke="rgb(50,50,50)" stroke-width="1" />
		<g>
			<title>PF00582</title>
			<rect class="PF00582" x="88" y="18" stroke-linejoin="round" width="13" height="26" fill="rgb(129,199,88)" stroke="rgb(103,159,70)" stroke-width="1" opacity="0.75" />
		</g>
		<g>
			<title>PF00582</title>
			<polygon class="PF00582" points="103,19 115,31 103,43" stroke-linejoin="round" width="13" height="26" fill="rgb(129,199,88)" stroke="rgb(103,159,70)" stroke-width="1" opacity="0.75" />
		</g>
	</g>
	<g>
		<polygon class="NoName" points="129,16 129,16 129,1 120,31 129,61 129,46 129,46" fill="rgb(255,255,255)" fill-opacity="1.0" stroke="rgb(50,50,50)" stroke-width="1" />
	</g>
	<g>
		<polygon class="NoName" points="151,16 219,16 219,1 249,31 219,61 219,46 151,46" fill="rgb(255,255,255)" fill-opacity="1.0" stroke="rgb(50,50,50)" stroke-width="1" />
		<g>
			<title>PF00271</title>
			<rect class="PF00271" x="210" y="18" stroke-linejoin="round" width="12" height="26" fill="rgb(104,224,158)" stroke="rgb(83,179,126)" stroke-width="1" opacity="0.75" />
		</g>
	</g>
	<g>
		<polygon class="NoName" points="258,16 285,16 285,1 315,31 285,61 285,46 258,46" fill="rgb(255,255,255)" fill-opacity="1.0" stroke="rgb(50,50,50)" stroke-width="1" />
		<g>
			<title>PF09481</title>
			<polygon class="PF09481" points="258,18 299,18 308,27 308,35 299,44 258,44" stroke-linejoin="round" width="50" height="26" fill="rgb(224,77,189)" stroke="rgb(179,61,151)" stroke-width="1" opacity="0.75" />
		</g>
	</g>
	<g>
		<polygon class="NoName" points="315,16 315,16 315,1 335,31 315,61 315,46 315,46" fill="rgb(255,255,255)" fill-opacity="1.0" stroke="rgb(50,50,50)" stroke-width="1" />
		<g>
			<title>PF09485</title>
			<polygon class="PF09485" points="318,18 323,18 332,31 323,44 318,44" stroke-linejoin="round" width="15" height="26" fill="rgb(177,201,82)" stroke="rgb(141,160,65)" stroke-width="1" opacity="0.75" />
		</g>
	</g>
	<g>
		<polygon class="NoName" points="339,16 347,16 347,1 377,31 347,61 347,46 339,46" fill="rgb(255,255,255)" fill-opacity="1.0" stroke="rgb(50,50,50)" stroke-width="1" />
		<g>
			<title>PF09344</title>
			<polygon class="PF09344" points="339,18 361,18 374,31 361,44 339,44" stroke-linejoin="round" width="36" height="26" fill="rgb(65,71,216)" stroke="rgb(52,56,172)" stroke-width="1" opacity="0.75" />
		</g>
	</g>
	<g>
		<polygon class="NoName" points="378,16 378,16 378,1 406,31 378,61 378,46 378,46" fill="rgb(255,255,255)" fill-opacity="1.0" stroke="rgb(50,50,50)" stroke-width="1" />
		<g>
			<title>PF09704</title>
			<polygon class="PF09704" points="379,18 391,18 402,30 402,32 391,44 379,44" stroke-linejoin="round" width="23" height="26" fill="rgb(93,145,206)" stroke="rgb(74,116,164)" stroke-width="1" opacity="0.75" />
		</g>
	</g>
</svg>
