<svg version="1.1" baseProfile="full" xmlns="http://www.w3.org/2000/svg" width="2523" height="62">
	<line x1="1" y1="31" x2="2522" y2="31" style="stroke:rgb(50,50,50); stroke-width:3 "/>
	<g>
		<title>lom10</title>
		<polygon class="lom10" points="359,16 359,16 359,1 337,31 359,61 359,46 359,46" fill="rgb(180,253,244)" fill-opacity="1.0" stroke="rgb(72,101,97)" stroke-width="1" />
	</g>
	<g>
		<title>lom11</title>
		<polygon class="lom11" points="375,16 375,16 375,1 361,31 375,61 375,46 375,46" fill="rgb(250,191,200)" fill-opacity="1.0" stroke="rgb(100,76,80)" stroke-width="1" />
	</g>
	<g>
		<title>lom12</title>
		<polygon class="lom12" points="400,16 400,16 400,1 373,31 400,61 400,46 400,46" fill="rgb(251,232,192)" fill-opacity="1.0" stroke="rgb(100,92,76)" stroke-width="1" />
		<g>
			<title>PF07722</title>
			<polygon class="PF07722" points="378,28 387,18 399,18 399,44 387,44 378,33" stroke-linejoin="round" width="21" height="26" fill="rgb(203,162,57)" stroke="rgb(162,129,45)" stroke-width="1" opacity="0.75" />
		</g>
	</g>
	<g>
		<title>lom13</title>
		<polygon class="lom13" points="416,16 445,16 445,1 475,31 445,61 445,46 416,46" fill="rgb(250,202,252)" fill-opacity="1.0" stroke="rgb(100,80,100)" stroke-width="1" />
		<g>
			<title>PF01494</title>
			<rect class="PF01494" x="416" y="18" stroke-linejoin="round" width="36" height="26" fill="rgb(182,175,59)" stroke="rgb(145,140,47)" stroke-width="1" opacity="0.75" />
		</g>
	</g>
	<g>
		<title>lom14</title>
		<polygon class="lom14" points="529,16 511,16 511,1 481,31 511,61 511,46 529,46" fill="rgb(240,253,206)" fill-opacity="1.0" stroke="rgb(96,101,82)" stroke-width="1" />
		<g>
			<title>PF01593</title>
			<polygon class="PF01593" points="483,31 496,18 527,18 527,44 496,44" stroke-linejoin="round" width="45" height="26" fill="rgb(184,74,52)" stroke="rgb(147,59,41)" stroke-width="1" opacity="0.75" />
		</g>
	</g>
	<g>
		<title>lom15</title>
		<polygon class="lom15" points="570,16 564,16 564,1 534,31 564,61 564,46 570,46" fill="rgb(203,221,254)" fill-opacity="1.0" stroke="rgb(81,88,101)" stroke-width="1" />
		<g>
			<title>PF02195</title>
			<rect class="PF02195" x="558" y="18" stroke-linejoin="round" width="8" height="26" fill="rgb(55,214,209)" stroke="rgb(44,171,167)" stroke-width="1" opacity="0.75" />
		</g>
	</g>
	<g>
		<title>lom16</title>
		<polygon class="lom16" points="622,16 602,16 602,1 572,31 602,61 602,46 622,46" fill="rgb(250,244,193)" fill-opacity="1.0" stroke="rgb(100,97,77)" stroke-width="1" />
		<g>
			<title>PF01494</title>
			<rect class="PF01494" x="589" y="18" stroke-linejoin="round" width="32" height="26" fill="rgb(182,175,59)" stroke="rgb(145,140,47)" stroke-width="1" opacity="0.75" />
		</g>
	</g>
	<g>
		<title>lom17</title>
		<polygon class="lom17" points="672,16 653,16 653,1 623,31 653,61 653,46 672,46" fill="rgb(208,179,253)" fill-opacity="1.0" stroke="rgb(83,71,101)" stroke-width="1" />
		<g>
			<title>PF01494</title>
			<polygon class="PF01494" points="638,18 638,18 671,18 671,44 638,44 638,43" stroke-linejoin="round" width="33" height="26" fill="rgb(182,175,59)" stroke="rgb(145,140,47)" stroke-width="1" opacity="0.75" />
		</g>
	</g>
	<g>
		<title>lom18</title>
		<polygon class="lom18" points="679,16 679,16 679,1 703,31 679,61 679,46 679,46" fill="rgb(250,181,235)" fill-opacity="1.0" stroke="rgb(100,72,93)" stroke-width="1" />
		<g>
			<title>PF00106</title>
			<polygon class="PF00106" points="679,18 690,18 699,30 699,32 690,44 679,44" stroke-linejoin="round" width="20" height="26" fill="rgb(182,219,73)" stroke="rgb(145,175,58)" stroke-width="1" opacity="0.75" />
		</g>
	</g>
	<g>
		<title>lom19</title>
		<polygon class="lom19" points="706,16 706,16 706,1 735,31 706,61 706,46 706,46" fill="rgb(186,197,250)" fill-opacity="1.0" stroke="rgb(74,78,100)" stroke-width="1" />
		<g>
			<title>PF05368</title>
			<polygon class="PF05368" points="706,18 719,18 728,27 728,35 719,44 706,44" stroke-linejoin="round" width="22" height="26" fill="rgb(97,49,192)" stroke="rgb(77,39,153)" stroke-width="1" opacity="0.75" />
		</g>
	</g>
	<g>
		<title>lom1</title>
		<polygon class="lom1" points="2,16 24,16 24,1 54,31 24,61 24,46 2,46" fill="rgb(225,210,251)" fill-opacity="1.0" stroke="rgb(90,84,100)" stroke-width="1" />
		<g>
			<title>PF07690</title>
			<polygon class="PF07690" points="4,18 38,18 43,23 43,39 38,44 4,44" stroke-linejoin="round" width="39" height="26" fill="rgb(193,224,74)" stroke="rgb(154,179,59)" stroke-width="1" opacity="0.75" />
		</g>
	</g>
	<g>
		<title>lom20</title>
		<polygon class="lom20" points="757,16 757,16 757,1 737,31 757,61 757,46 757,46" fill="rgb(199,194,253)" fill-opacity="1.0" stroke="rgb(79,77,101)" stroke-width="1" />
	</g>
	<g>
		<title>lom21</title>
		<polygon class="lom21" points="769,16 769,16 769,1 758,31 769,61 769,46 769,46" fill="rgb(253,181,230)" fill-opacity="1.0" stroke="rgb(101,72,92)" stroke-width="1" />
		<g>
			<title>PF04673</title>
			<polygon class="PF04673" points="760,31 765,18 768,18 768,44 765,44" stroke-linejoin="round" width="10" height="26" fill="rgb(49,187,78)" stroke="rgb(39,149,62)" stroke-width="1" opacity="0.75" />
		</g>
	</g>
	<g>
		<title>lom22</title>
		<polygon class="lom22" points="796,16 796,16 796,1 770,31 796,61 796,46 796,46" fill="rgb(228,252,186)" fill-opacity="1.0" stroke="rgb(91,100,74)" stroke-width="1" />
		<g>
			<title>PF00106</title>
			<polygon class="PF00106" points="775,28 783,18 794,18 794,44 783,44 775,33" stroke-linejoin="round" width="19" height="26" fill="rgb(182,219,73)" stroke="rgb(145,175,58)" stroke-width="1" opacity="0.75" />
		</g>
	</g>
	<g>
		<title>lom23</title>
		<polygon class="lom23" points="803,16 807,16 807,1 837,31 807,61 807,46 803,46" fill="rgb(250,251,211)" fill-opacity="1.0" stroke="rgb(100,100,84)" stroke-width="1" />
		<g>
			<title>PF16864</title>
			<rect class="PF16864" x="804" y="18" stroke-linejoin="round" width="7" height="26" fill="rgb(84,199,85)" stroke="rgb(67,159,68)" stroke-width="1" opacity="0.75" />
		</g>
		<g>
			<title>PF00891</title>
			<polygon class="PF00891" points="813,18 821,18 834,31 821,44 813,44" stroke-linejoin="round" width="22" height="26" fill="rgb(50,51,190)" stroke="rgb(39,40,152)" stroke-width="1" opacity="0.75" />
		</g>
	</g>
	<g>
		<title>lom24</title>
		<polygon class="lom24" points="839,16 859,16 859,1 889,31 859,61 859,46 839,46" fill="rgb(254,204,249)" fill-opacity="1.0" stroke="rgb(101,81,99)" stroke-width="1" />
		<g>
			<title>PF01494</title>
			<rect class="PF01494" x="839" y="18" stroke-linejoin="round" width="33" height="26" fill="rgb(182,175,59)" stroke="rgb(145,140,47)" stroke-width="1" opacity="0.75" />
		</g>
	</g>
	<g>
		<title>lom25</title>
		<polygon class="lom25" points="890,16 892,16 892,1 922,31 892,61 892,46 890,46" fill="rgb(252,220,197)" fill-opacity="1.0" stroke="rgb(100,88,78)" stroke-width="1" />
		<g>
			<title>PF10604</title>
			<rect class="PF10604" x="890" y="18" stroke-linejoin="round" width="14" height="26" fill="rgb(105,204,74)" stroke="rgb(84,163,59)" stroke-width="1" opacity="0.75" />
		</g>
		<g>
			<title>PF10604</title>
			<polygon class="PF10604" points="905,18 906,18 919,31 906,44 905,44" stroke-linejoin="round" width="15" height="26" fill="rgb(105,204,74)" stroke="rgb(84,163,59)" stroke-width="1" opacity="0.75" />
		</g>
	</g>
	<g>
		<title>lom26</title>
		<polygon class="lom26" points="922,16 940,16 940,1 970,31 940,61 940,46 922,46" fill="rgb(195,197,253)" fill-opacity="1.0" stroke="rgb(78,78,101)" stroke-width="1" />
		<g>
			<title>PF01494</title>
			<rect class="PF01494" x="922" y="18" stroke-linejoin="round" width="32" height="26" fill="rgb(182,175,59)" stroke="rgb(145,140,47)" stroke-width="1" opacity="0.75" />
		</g>
	</g>
	<g>
		<title>lom27</title>
		<polygon class="lom27" points="970,16 989,16 989,1 1019,31 989,61 989,46 970,46" fill="rgb(251,203,253)" fill-opacity="1.0" stroke="rgb(100,81,101)" stroke-width="1" />
		<g>
			<title>PF01494</title>
			<rect class="PF01494" x="970" y="18" stroke-linejoin="round" width="33" height="26" fill="rgb(182,175,59)" stroke="rgb(145,140,47)" stroke-width="1" opacity="0.75" />
		</g>
	</g>
	<g>
		<title>lom28</title>
		<polygon class="lom28" points="1021,16 1021,16 1021,1 1045,31 1021,61 1021,46 1021,46" fill="rgb(204,236,254)" fill-opacity="1.0" stroke="rgb(81,94,101)" stroke-width="1" />
		<g>
			<title>PF03992</title>
			<rect class="PF03992" x="1022" y="18" stroke-linejoin="round" width="7" height="26" fill="rgb(193,84,127)" stroke="rgb(154,67,101)" stroke-width="1" opacity="0.75" />
		</g>
	</g>
	<g>
		<title>lom29</title>
		<polygon class="lom29" points="1110,16 1078,16 1078,1 1048,31 1078,61 1078,46 1110,46" fill="rgb(253,217,214)" fill-opacity="1.0" stroke="rgb(101,86,85)" stroke-width="1" />
	</g>
	<g>
		<title>lom2</title>
		<polygon class="lom2" points="61,16 61,16 61,1 77,31 61,61 61,46 61,46" fill="rgb(214,254,213)" fill-opacity="1.0" stroke="rgb(85,101,85)" stroke-width="1" />
		<g>
			<title>PF08818</title>
			<polygon class="PF08818" points="67,18 67,18 74,31 67,44 67,44" stroke-linejoin="round" width="9" height="26" fill="rgb(120,214,95)" stroke="rgb(96,171,76)" stroke-width="1" opacity="0.75" />
		</g>
	</g>
	<g>
		<title>lom30</title>
		<polygon class="lom30" points="1121,16 1121,16 1121,1 1110,31 1121,61 1121,46 1121,46" fill="rgb(228,250,175)" fill-opacity="1.0" stroke="rgb(91,100,69)" stroke-width="1" />
		<g>
			<title>PF14697</title>
			<polygon class="PF14697" points="1113,28 1117,18 1118,18 1118,44 1117,44 1113,33" stroke-linejoin="round" width="5" height="26" fill="rgb(63,145,187)" stroke="rgb(50,115,149)" stroke-width="1" opacity="0.75" />
		</g>
	</g>
	<g>
		<title>lom31</title>
		<polygon class="lom31" points="1150,16 1150,16 1150,1 1124,31 1150,61 1150,46 1150,46" fill="rgb(252,191,234)" fill-opacity="1.0" stroke="rgb(100,76,93)" stroke-width="1" />
		<g>
			<title>PF11251</title>
			<polygon class="PF11251" points="1126,31 1137,18 1147,18 1147,44 1137,44" stroke-linejoin="round" width="22" height="26" fill="rgb(203,95,181)" stroke="rgb(162,76,144)" stroke-width="1" opacity="0.75" />
		</g>
	</g>
	<g>
		<title>lom32</title>
		<polygon class="lom32" points="1202,16 1182,16 1182,1 1152,31 1182,61 1182,46 1202,46" fill="rgb(251,250,183)" fill-opacity="1.0" stroke="rgb(100,100,73)" stroke-width="1" />
		<g>
			<title>PF00120</title>
			<polygon class="PF00120" points="1154,31 1167,18 1186,18 1186,44 1167,44" stroke-linejoin="round" width="34" height="26" fill="rgb(195,227,89)" stroke="rgb(155,181,71)" stroke-width="1" opacity="0.75" />
		</g>
	</g>
	<g>
		<title>lom33</title>
		<polygon class="lom33" points="1249,16 1232,16 1232,1 1202,31 1232,61 1232,46 1249,46" fill="rgb(188,227,251)" fill-opacity="1.0" stroke="rgb(75,90,100)" stroke-width="1" />
		<g>
			<title>PF01425</title>
			<polygon class="PF01425" points="1204,31 1217,18 1245,18 1245,44 1217,44" stroke-linejoin="round" width="41" height="26" fill="rgb(195,142,64)" stroke="rgb(156,113,51)" stroke-width="1" opacity="0.75" />
		</g>
	</g>
	<g>
		<title>lom34</title>
		<polygon class="lom34" points="1258,16 1270,16 1270,1 1300,31 1270,61 1270,46 1258,46" fill="rgb(195,239,251)" fill-opacity="1.0" stroke="rgb(78,95,100)" stroke-width="1" />
		<g>
			<title>PF00206</title>
			<polygon class="PF00206" points="1258,18 1284,18 1286,20 1286,42 1284,44 1258,44" stroke-linejoin="round" width="28" height="26" fill="rgb(217,92,141)" stroke="rgb(173,73,112)" stroke-width="1" opacity="0.75" />
		</g>
	</g>
	<g>
		<title>lom35</title>
		<polygon class="lom35" points="1300,16 1300,16 1300,1 1313,31 1300,61 1300,46 1300,46" fill="rgb(253,180,219)" fill-opacity="1.0" stroke="rgb(101,72,87)" stroke-width="1" />
		<g>
			<title>PF13673</title>
			<polygon class="PF13673" points="1301,18 1304,18 1310,31 1304,44 1301,44" stroke-linejoin="round" width="11" height="26" fill="rgb(88,180,95)" stroke="rgb(70,144,76)" stroke-width="1" opacity="0.75" />
		</g>
	</g>
	<g>
		<title>lom36</title>
		<polygon class="lom36" points="1358,16 1348,16 1348,1 1318,31 1348,61 1348,46 1358,46" fill="rgb(212,247,252)" fill-opacity="1.0" stroke="rgb(84,98,100)" stroke-width="1" />
		<g>
			<title>PF00155</title>
			<polygon class="PF00155" points="1320,31 1333,18 1354,18 1354,44 1333,44" stroke-linejoin="round" width="35" height="26" fill="rgb(89,113,198)" stroke="rgb(71,90,158)" stroke-width="1" opacity="0.75" />
		</g>
	</g>
	<g>
		<title>lom37</title>
		<polygon class="lom37" points="1395,16 1388,16 1388,1 1358,31 1388,61 1388,46 1395,46" fill="rgb(252,197,246)" fill-opacity="1.0" stroke="rgb(100,78,98)" stroke-width="1" />
		<g>
			<title>PF13649</title>
			<polygon class="PF13649" points="1365,26 1373,18 1375,18 1375,44 1373,44 1365,35" stroke-linejoin="round" width="10" height="26" fill="rgb(227,135,74)" stroke="rgb(181,108,59)" stroke-width="1" opacity="0.75" />
		</g>
	</g>
	<g>
		<title>lom38</title>
		<polygon class="lom38" points="1430,16 1426,16 1426,1 1396,31 1426,61 1426,46 1430,46" fill="rgb(211,251,234)" fill-opacity="1.0" stroke="rgb(84,100,93)" stroke-width="1" />
		<g>
			<title>PF00180</title>
			<polygon class="PF00180" points="1398,31 1411,18 1429,18 1429,44 1411,44" stroke-linejoin="round" width="33" height="26" fill="rgb(109,54,206)" stroke="rgb(87,43,164)" stroke-width="1" opacity="0.75" />
		</g>
	</g>
	<g>
		<title>lom39</title>
		<polygon class="lom39" points="1445,16 1445,16 1445,1 1430,31 1445,61 1445,46 1445,46" fill="rgb(202,250,232)" fill-opacity="1.0" stroke="rgb(80,100,92)" stroke-width="1" />
	</g>
	<g>
		<title>lom3</title>
		<polygon class="lom3" points="110,16 110,16 110,1 83,31 110,61 110,46 110,46" fill="rgb(191,236,250)" fill-opacity="1.0" stroke="rgb(76,94,100)" stroke-width="1" />
		<g>
			<title>PF12730</title>
			<polygon class="PF12730" points="89,27 97,18 107,18 107,44 97,44 89,34" stroke-linejoin="round" width="18" height="26" fill="rgb(203,161,59)" stroke="rgb(162,128,47)" stroke-width="1" opacity="0.75" />
		</g>
	</g>
	<g>
		<title>lom40</title>
		<polygon class="lom40" points="1466,16 1466,16 1466,1 1446,31 1466,61 1466,46 1466,46" fill="rgb(250,229,196)" fill-opacity="1.0" stroke="rgb(100,91,78)" stroke-width="1" />
		<g>
			<title>PF00694</title>
			<polygon class="PF00694" points="1454,22 1457,18 1465,18 1465,44 1457,44 1454,39" stroke-linejoin="round" width="11" height="26" fill="rgb(63,185,92)" stroke="rgb(50,148,73)" stroke-width="1" opacity="0.75" />
		</g>
	</g>
	<g>
		<title>lom41</title>
		<polygon class="lom41" points="1513,16 1497,16 1497,1 1467,31 1497,61 1497,46 1513,46" fill="rgb(250,194,192)" fill-opacity="1.0" stroke="rgb(100,77,76)" stroke-width="1" />
		<g>
			<title>PF00330</title>
			<polygon class="PF00330" points="1469,31 1482,18 1512,18 1512,44 1482,44" stroke-linejoin="round" width="44" height="26" fill="rgb(180,189,85)" stroke="rgb(144,151,68)" stroke-width="1" opacity="0.75" />
		</g>
	</g>
	<g>
		<title>lom42</title>
		<polygon class="lom42" points="1549,16 1543,16 1543,1 1513,31 1543,61 1543,46 1549,46" fill="rgb(236,254,203)" fill-opacity="1.0" stroke="rgb(94,101,81)" stroke-width="1" />
		<g>
			<title>PF00682</title>
			<polygon class="PF00682" points="1524,22 1528,18 1548,18 1548,44 1528,44 1524,39" stroke-linejoin="round" width="24" height="26" fill="rgb(84,228,141)" stroke="rgb(67,182,112)" stroke-width="1" opacity="0.75" />
		</g>
	</g>
	<g>
		<title>lom43</title>
		<polygon class="lom43" points="1630,16 1601,16 1601,1 1571,31 1601,61 1601,46 1630,46" fill="rgb(254,219,178)" fill-opacity="1.0" stroke="rgb(101,87,71)" stroke-width="1" />
		<g>
			<title>PF00005</title>
			<polygon class="PF00005" points="1578,26 1586,18 1592,18 1592,44 1586,44 1578,35" stroke-linejoin="round" width="14" height="26" fill="rgb(129,201,63)" stroke="rgb(103,160,50)" stroke-width="1" opacity="0.75" />
		</g>
		<g>
			<title>PF00664</title>
			<rect class="PF00664" x="1600" y="18" stroke-linejoin="round" width="27" height="26" fill="rgb(149,226,73)" stroke="rgb(119,180,58)" stroke-width="1" opacity="0.75" />
		</g>
	</g>
	<g>
		<title>lom44</title>
		<polygon class="lom44" points="1644,16 1644,16 1644,1 1634,31 1644,61 1644,46 1644,46" fill="rgb(177,250,247)" fill-opacity="1.0" stroke="rgb(70,100,98)" stroke-width="1" />
		<g>
			<title>PF00355</title>
			<polygon class="PF00355" points="1636,31 1640,18 1643,18 1643,44 1640,44" stroke-linejoin="round" width="8" height="26" fill="rgb(186,77,145)" stroke="rgb(148,61,115)" stroke-width="1" opacity="0.75" />
		</g>
	</g>
	<g>
		<title>lom45</title>
		<polygon class="lom45" points="1653,16 1653,16 1653,1 1666,31 1653,61 1653,46 1653,46" fill="rgb(250,242,210)" fill-opacity="1.0" stroke="rgb(100,96,84)" stroke-width="1" />
		<g>
			<title>PF00903</title>
			<polygon class="PF00903" points="1653,18 1657,18 1663,31 1657,44 1653,44" stroke-linejoin="round" width="12" height="26" fill="rgb(50,162,189)" stroke="rgb(40,129,151)" stroke-width="1" opacity="0.75" />
		</g>
	</g>
	<g>
		<title>lom46</title>
		<polygon class="lom46" points="1669,16 1669,16 1669,1 1695,31 1669,61 1669,46 1669,46" fill="rgb(176,226,251)" fill-opacity="1.0" stroke="rgb(70,90,100)" stroke-width="1" />
	</g>
	<g>
		<title>lom47</title>
		<polygon class="lom47" points="1750,16 1728,16 1728,1 1698,31 1728,61 1728,46 1750,46" fill="rgb(250,197,228)" fill-opacity="1.0" stroke="rgb(100,78,91)" stroke-width="1" />
		<g>
			<title>PF00561</title>
			<polygon class="PF00561" points="1702,29 1713,18 1739,18 1739,44 1713,44 1702,32" stroke-linejoin="round" width="37" height="26" fill="rgb(86,180,151)" stroke="rgb(68,144,120)" stroke-width="1" opacity="0.75" />
		</g>
	</g>
	<g>
		<title>lom48</title>
		<polygon class="lom48" points="1790,16 1783,16 1783,1 1753,31 1783,61 1783,46 1790,46" fill="rgb(250,190,235)" fill-opacity="1.0" stroke="rgb(100,76,94)" stroke-width="1" />
		<g>
			<title>PF06722</title>
			<polygon class="PF06722" points="1764,22 1768,18 1773,18 1773,44 1768,44 1764,39" stroke-linejoin="round" width="9" height="26" fill="rgb(200,129,88)" stroke="rgb(160,103,70)" stroke-width="1" opacity="0.75" />
		</g>
	</g>
	<g>
		<title>lom49</title>
		<polygon class="lom49" points="1824,16 1820,16 1820,1 1790,31 1820,61 1820,46 1824,46" fill="rgb(185,242,251)" fill-opacity="1.0" stroke="rgb(74,96,100)" stroke-width="1" />
		<g>
			<title>PF00891</title>
			<polygon class="PF00891" points="1792,31 1805,18 1814,18 1814,44 1805,44" stroke-linejoin="round" width="22" height="26" fill="rgb(50,51,190)" stroke="rgb(39,40,152)" stroke-width="1" opacity="0.75" />
		</g>
	</g>
	<g>
		<title>lom4</title>
		<polygon class="lom4" points="141,16 140,16 140,1 110,31 140,61 140,46 141,46" fill="rgb(246,252,195)" fill-opacity="1.0" stroke="rgb(98,100,77)" stroke-width="1" />
		<g>
			<title>PF00005</title>
			<rect class="PF00005" x="126" y="18" stroke-linejoin="round" width="13" height="26" fill="rgb(129,201,63)" stroke="rgb(103,160,50)" stroke-width="1" opacity="0.75" />
		</g>
	</g>
	<g>
		<title>lom50</title>
		<polygon class="lom50" points="1834,16 1834,16 1834,1 1864,31 1834,61 1834,46 1834,46" fill="rgb(227,251,181)" fill-opacity="1.0" stroke="rgb(90,100,72)" stroke-width="1" />
	</g>
	<g>
		<title>lom51</title>
		<polygon class="lom51" points="1868,16 1870,16 1870,1 1900,31 1870,61 1870,46 1868,46" fill="rgb(209,252,222)" fill-opacity="1.0" stroke="rgb(83,100,88)" stroke-width="1" />
		<g>
			<title>PF01370</title>
			<polygon class="PF01370" points="1868,18 1884,18 1891,25 1891,37 1884,44 1868,44" stroke-linejoin="round" width="23" height="26" fill="rgb(98,102,214)" stroke="rgb(78,81,171)" stroke-width="1" opacity="0.75" />
		</g>
	</g>
	<g>
		<title>lom52</title>
		<polygon class="lom52" points="1901,16 1901,16 1901,1 1921,31 1901,61 1901,46 1901,46" fill="rgb(252,214,224)" fill-opacity="1.0" stroke="rgb(100,85,89)" stroke-width="1" />
		<g>
			<title>PF00908</title>
			<polygon class="PF00908" points="1901,18 1909,18 1918,31 1918,31 1909,44 1901,44" stroke-linejoin="round" width="17" height="26" fill="rgb(184,89,121)" stroke="rgb(147,71,96)" stroke-width="1" opacity="0.75" />
		</g>
	</g>
	<g>
		<title>lom53</title>
		<polygon class="lom53" points="1923,16 1926,16 1926,1 1956,31 1926,61 1926,46 1923,46" fill="rgb(248,252,198)" fill-opacity="1.0" stroke="rgb(99,100,79)" stroke-width="1" />
		<g>
			<title>PF01408</title>
			<rect class="PF01408" x="1923" y="18" stroke-linejoin="round" width="11" height="26" fill="rgb(76,117,190)" stroke="rgb(60,93,152)" stroke-width="1" opacity="0.75" />
		</g>
	</g>
	<g>
		<title>lom54</title>
		<polygon class="lom54" points="1981,16 1981,16 1981,1 1957,31 1981,61 1981,46 1981,46" fill="rgb(212,200,254)" fill-opacity="1.0" stroke="rgb(84,80,101)" stroke-width="1" />
	</g>
	<g>
		<title>lom55</title>
		<polygon class="lom55" points="2019,16 2015,16 2015,1 1985,31 2015,61 2015,46 2019,46" fill="rgb(252,202,234)" fill-opacity="1.0" stroke="rgb(100,80,93)" stroke-width="1" />
		<g>
			<title>PF06722</title>
			<polygon class="PF06722" points="1997,21 2000,18 2006,18 2006,44 2000,44 1997,40" stroke-linejoin="round" width="9" height="26" fill="rgb(200,129,88)" stroke="rgb(160,103,70)" stroke-width="1" opacity="0.75" />
		</g>
	</g>
	<g>
		<title>lom56</title>
		<polygon class="lom56" points="2061,16 2051,16 2051,1 2021,31 2051,61 2051,46 2061,46" fill="rgb(235,251,209)" fill-opacity="1.0" stroke="rgb(94,100,83)" stroke-width="1" />
		<g>
			<title>PF01041</title>
			<polygon class="PF01041" points="2023,31 2036,18 2057,18 2057,44 2036,44" stroke-linejoin="round" width="34" height="26" fill="rgb(59,139,191)" stroke="rgb(47,111,152)" stroke-width="1" opacity="0.75" />
		</g>
	</g>
	<g>
		<title>lom57</title>
		<polygon class="lom57" points="2067,16 2070,16 2070,1 2100,31 2070,61 2070,46 2067,46" fill="rgb(252,207,206)" fill-opacity="1.0" stroke="rgb(100,82,82)" stroke-width="1" />
		<g>
			<title>PF16363</title>
			<polygon class="PF16363" points="2067,18 2084,18 2097,31 2097,31 2084,44 2067,44" stroke-linejoin="round" width="30" height="26" fill="rgb(162,221,65)" stroke="rgb(129,176,51)" stroke-width="1" opacity="0.75" />
		</g>
	</g>
	<g>
		<title>lom58</title>
		<polygon class="lom58" points="2100,16 2112,16 2112,1 2142,31 2112,61 2112,46 2100,46" fill="rgb(182,251,220)" fill-opacity="1.0" stroke="rgb(72,100,88)" stroke-width="1" />
		<g>
			<title>PF00109</title>
			<rect class="PF00109" x="2100" y="18" stroke-linejoin="round" width="25" height="26" fill="rgb(112,116,228)" stroke="rgb(89,92,182)" stroke-width="1" opacity="0.75" />
		</g>
		<g>
			<title>PF02801</title>
			<polygon class="PF02801" points="2126,18 2126,18 2137,29 2137,33 2126,44 2126,44" stroke-linejoin="round" width="11" height="26" fill="rgb(215,78,102)" stroke="rgb(172,62,81)" stroke-width="1" opacity="0.75" />
		</g>
	</g>
	<g>
		<title>lom59</title>
		<polygon class="lom59" points="2143,16 2157,16 2157,1 2187,31 2157,61 2157,46 2143,46" fill="rgb(182,249,200)" fill-opacity="1.0" stroke="rgb(72,99,80)" stroke-width="1" />
		<g>
			<title>PF00109</title>
			<rect class="PF00109" x="2143" y="18" stroke-linejoin="round" width="24" height="26" fill="rgb(112,116,228)" stroke="rgb(89,92,182)" stroke-width="1" opacity="0.75" />
		</g>
		<g>
			<title>PF02801</title>
			<polygon class="PF02801" points="2168,18 2171,18 2179,26 2179,36 2171,44 2168,44" stroke-linejoin="round" width="11" height="26" fill="rgb(215,78,102)" stroke="rgb(172,62,81)" stroke-width="1" opacity="0.75" />
		</g>
	</g>
	<g>
		<title>lom5</title>
		<polygon class="lom5" points="157,16 157,16 157,1 140,31 157,61 157,46 157,46" fill="rgb(186,229,251)" fill-opacity="1.0" stroke="rgb(74,91,100)" stroke-width="1" />
		<g>
			<title>PF00903</title>
			<polygon class="PF00903" points="144,27 149,18 156,18 156,44 149,44 144,34" stroke-linejoin="round" width="12" height="26" fill="rgb(50,162,189)" stroke="rgb(40,129,151)" stroke-width="1" opacity="0.75" />
		</g>
	</g>
	<g>
		<title>lom60</title>
		<polygon class="lom60" points="2186,16 2186,16 2186,1 2194,31 2186,61 2186,46 2186,46" fill="rgb(204,253,183)" fill-opacity="1.0" stroke="rgb(81,101,73)" stroke-width="1" />
		<g>
			<title>PF00550</title>
			<polygon class="PF00550" points="2186,18 2188,18 2191,31 2188,44 2186,44" stroke-linejoin="round" width="7" height="26" fill="rgb(103,191,88)" stroke="rgb(82,152,70)" stroke-width="1" opacity="0.75" />
		</g>
	</g>
	<g>
		<title>lom61</title>
		<polygon class="lom61" points="2193,16 2195,16 2195,1 2225,31 2195,61 2195,46 2193,46" fill="rgb(209,207,252)" fill-opacity="1.0" stroke="rgb(83,82,100)" stroke-width="1" />
		<g>
			<title>PF00698</title>
			<polygon class="PF00698" points="2194,18 2209,18 2222,31 2209,44 2194,44" stroke-linejoin="round" width="29" height="26" fill="rgb(59,176,209)" stroke="rgb(47,140,167)" stroke-width="1" opacity="0.75" />
		</g>
	</g>
	<g>
		<title>lom62</title>
		<polygon class="lom62" points="2228,16 2230,16 2230,1 2260,31 2230,61 2230,46 2228,46" fill="rgb(203,250,238)" fill-opacity="1.0" stroke="rgb(81,100,95)" stroke-width="1" />
	</g>
	<g>
		<title>lom63</title>
		<polygon class="lom63" points="2269,16 2269,16 2269,1 2261,31 2269,61 2269,46 2269,46" fill="rgb(253,190,192)" fill-opacity="1.0" stroke="rgb(101,76,76)" stroke-width="1" />
		<g>
			<title>PF00550</title>
			<polygon class="PF00550" points="2263,31 2266,20 2266,41" stroke-linejoin="round" width="5" height="26" fill="rgb(103,191,88)" stroke="rgb(82,152,70)" stroke-width="1" opacity="0.75" />
		</g>
	</g>
	<g>
		<title>lom64</title>
		<polygon class="lom64" points="2276,16 2276,16 2276,1 2291,31 2276,61 2276,46 2276,46" fill="rgb(251,210,211)" fill-opacity="1.0" stroke="rgb(100,84,84)" stroke-width="1" />
		<g>
			<title>PF12833</title>
			<polygon class="PF12833" points="2280,18 2282,18 2287,28 2287,34 2282,44 2280,44" stroke-linejoin="round" width="7" height="26" fill="rgb(216,58,224)" stroke="rgb(172,46,179)" stroke-width="1" opacity="0.75" />
		</g>
	</g>
	<g>
		<title>lom65</title>
		<polygon class="lom65" points="2297,16 2297,16 2297,1 2326,31 2297,61 2297,46 2297,46" fill="rgb(195,178,252)" fill-opacity="1.0" stroke="rgb(77,71,100)" stroke-width="1" />
		<g>
			<title>PF00483</title>
			<polygon class="PF00483" points="2297,18 2310,18 2320,28 2320,34 2310,44 2297,44" stroke-linejoin="round" width="23" height="26" fill="rgb(198,101,87)" stroke="rgb(158,80,69)" stroke-width="1" opacity="0.75" />
		</g>
	</g>
	<g>
		<title>lom6</title>
		<polygon class="lom6" points="188,16 188,16 188,1 163,31 188,61 188,46 188,46" fill="rgb(238,183,250)" fill-opacity="1.0" stroke="rgb(95,73,100)" stroke-width="1" />
		<g>
			<title>PF12697</title>
			<polygon class="PF12697" points="165,31 176,18 186,18 186,44 176,44" stroke-linejoin="round" width="23" height="26" fill="rgb(113,71,219)" stroke="rgb(90,56,175)" stroke-width="1" opacity="0.75" />
		</g>
	</g>
	<g>
		<title>lom7</title>
		<polygon class="lom7" points="224,16 224,16 224,1 197,31 224,61 224,46 224,46" fill="rgb(241,254,210)" fill-opacity="1.0" stroke="rgb(96,101,84)" stroke-width="1" />
		<g>
			<title>PF03704</title>
			<polygon class="PF03704" points="199,31 211,18 213,18 213,44 211,44" stroke-linejoin="round" width="14" height="26" fill="rgb(217,89,196)" stroke="rgb(173,71,156)" stroke-width="1" opacity="0.75" />
		</g>
		<g>
			<title>PF00486</title>
			<rect class="PF00486" x="214" y="18" stroke-linejoin="round" width="7" height="26" fill="rgb(204,153,57)" stroke="rgb(163,122,45)" stroke-width="1" opacity="0.75" />
		</g>
	</g>
	<g>
		<title>lom8</title>
		<polygon class="lom8" points="250,16 250,16 250,1 277,31 250,61 250,46 250,46" fill="rgb(217,254,204)" fill-opacity="1.0" stroke="rgb(86,101,81)" stroke-width="1" />
		<g>
			<title>PF12833</title>
			<rect class="PF12833" x="252" y="18" stroke-linejoin="round" width="7" height="26" fill="rgb(216,58,224)" stroke="rgb(172,46,179)" stroke-width="1" opacity="0.75" />
		</g>
	</g>
	<g>
		<title>lom9</title>
		<polygon class="lom9" points="287,16 303,16 303,1 333,31 303,61 303,46 287,46" fill="rgb(196,251,193)" fill-opacity="1.0" stroke="rgb(78,100,77)" stroke-width="1" />
		<g>
			<title>PF03559</title>
			<rect class="PF03559" x="290" y="18" stroke-linejoin="round" width="20" height="26" fill="rgb(74,201,66)" stroke="rgb(59,160,52)" stroke-width="1" opacity="0.75" />
		</g>
		<g>
			<title>PF03559</title>
			<polygon class="PF03559" points="311,18 317,18 330,31 317,44 311,44" stroke-linejoin="round" width="20" height="26" fill="rgb(74,201,66)" stroke="rgb(59,160,52)" stroke-width="1" opacity="0.75" />
		</g>
	</g>
</svg>
