<svg version="1.1" baseProfile="full" xmlns="http://www.w3.org/2000/svg" width="5622" height="62">
	<line x1="1" y1="31" x2="5621" y2="31" style="stroke:rgb(50,50,50); stroke-width:3 "/>
	<g>
		<title>Os04g0178300</title>
		<polygon class="Os04g0178300" points="4,16 236,16 236,1 266,31 236,61 236,46 4,46" fill="rgb(199,254,181)" fill-opacity="1.0" stroke="rgb(79,101,72)" stroke-width="1" />
		<g>
			<title>PF01397</title>
			<rect class="PF01397" x="30" y="18" stroke-linejoin="round" width="20" height="26" fill="rgb(74,159,219)" stroke="rgb(59,127,175)" stroke-width="1" opacity="0.75" />
		</g>
	</g>
	<g>
		<title>Os04g0178400</title>
		<polygon class="Os04g0178400" points="544,16 513,16 513,1 483,31 513,61 513,46 544,46" fill="rgb(207,251,252)" fill-opacity="1.0" stroke="rgb(82,100,100)" stroke-width="1" />
		<g>
			<title>PF00067</title>
			<polygon class="PF00067" points="495,21 498,18 540,18 540,44 498,44 495,40" stroke-linejoin="round" width="45" height="26" fill="rgb(85,216,107)" stroke="rgb(68,172,85)" stroke-width="1" opacity="0.75" />
		</g>
	</g>
	<g>
		<title>Os04g0179100</title>
		<polygon class="Os04g0179100" points="2114,16 2105,16 2105,1 2075,31 2105,61 2105,46 2114,46" fill="rgb(245,201,254)" fill-opacity="1.0" stroke="rgb(97,80,101)" stroke-width="1" />
		<g>
			<title>PF13561</title>
			<polygon class="PF13561" points="2088,20 2090,18 2112,18 2112,44 2090,44 2088,41" stroke-linejoin="round" width="24" height="26" fill="rgb(73,205,127)" stroke="rgb(58,164,101)" stroke-width="1" opacity="0.75" />
		</g>
	</g>
	<g>
		<title>Os04g0179200</title>
		<polygon class="Os04g0179200" points="2302,16 2297,16 2297,1 2267,31 2297,61 2297,46 2302,46" fill="rgb(182,252,177)" fill-opacity="1.0" stroke="rgb(72,100,70)" stroke-width="1" />
		<g>
			<title>PF13561</title>
			<polygon class="PF13561" points="2275,25 2282,18 2298,18 2298,44 2282,44 2275,36" stroke-linejoin="round" width="23" height="26" fill="rgb(73,205,127)" stroke="rgb(58,164,101)" stroke-width="1" opacity="0.75" />
		</g>
	</g>
	<g>
		<title>Os04g0179700</title>
		<polygon class="Os04g0179700" points="3863,16 3712,16 3712,1 3682,31 3712,61 3712,46 3863,46" fill="rgb(236,196,253)" fill-opacity="1.0" stroke="rgb(94,78,101)" stroke-width="1" />
		<g>
			<title>PF03936</title>
			<rect class="PF03936" x="3785" y="18" stroke-linejoin="round" width="26" height="26" fill="rgb(219,91,215)" stroke="rgb(175,72,171)" stroke-width="1" opacity="0.75" />
		</g>
		<g>
			<title>PF01397</title>
			<rect class="PF01397" x="3816" y="18" stroke-linejoin="round" width="19" height="26" fill="rgb(74,159,219)" stroke="rgb(59,127,175)" stroke-width="1" opacity="0.75" />
		</g>
	</g>
	<g>
		<title>Os04g0180300</title>
		<polygon class="Os04g0180300" points="5536,16 5536,16 5536,1 5526,31 5536,61 5536,46 5536,46" fill="rgb(209,239,254)" fill-opacity="1.0" stroke="rgb(83,95,101)" stroke-width="1" />
	</g>
	<g>
		<title>Os04g0180400</title>
		<polygon class="Os04g0180400" points="5562,16 5585,16 5585,1 5615,31 5585,61 5585,46 5562,46" fill="rgb(254,200,235)" fill-opacity="1.0" stroke="rgb(101,80,93)" stroke-width="1" />
		<g>
			<title>PF00067</title>
			<polygon class="PF00067" points="5565,18 5599,18 5610,29 5610,33 5599,44 5565,44" stroke-linejoin="round" width="45" height="26" fill="rgb(85,216,107)" stroke="rgb(68,172,85)" stroke-width="1" opacity="0.75" />
		</g>
	</g>
</svg>
