<svg version="1.1" baseProfile="full" xmlns="http://www.w3.org/2000/svg" width="1406" height="62">
	<line x1="1" y1="31" x2="1405" y2="31" style="stroke:rgb(50,50,50); stroke-width:3 "/>
	<g>
		<title>nemA</title>
		<polygon class="nemA" points="459,16 446,16 446,1 416,31 446,61 446,46 459,46" fill="rgb(250,205,238)" fill-opacity="1.0" stroke="rgb(100,82,95)" stroke-width="1" />
		<g>
			<title>PF01761</title>
			<polygon class="PF01761" points="426,23 431,18 451,18 451,44 431,44 426,38" stroke-linejoin="round" width="25" height="26" fill="rgb(150,62,180)" stroke="rgb(120,49,144)" stroke-width="1" opacity="0.75" />
		</g>
	</g>
	<g>
		<title>nemB</title>
		<polygon class="nemB" points="506,16 494,16 494,1 464,31 494,61 494,46 506,46" fill="rgb(252,186,254)" fill-opacity="1.0" stroke="rgb(100,74,101)" stroke-width="1" />
		<g>
			<title>PF01041</title>
			<polygon class="PF01041" points="466,31 479,18 503,18 503,44 479,44" stroke-linejoin="round" width="38" height="26" fill="rgb(59,139,191)" stroke="rgb(47,111,152)" stroke-width="1" opacity="0.75" />
		</g>
	</g>
	<g>
		<title>nemC</title>
		<polygon class="nemC" points="543,16 539,16 539,1 509,31 539,61 539,46 543,46" fill="rgb(196,250,233)" fill-opacity="1.0" stroke="rgb(78,100,93)" stroke-width="1" />
		<g>
			<title>PF00107</title>
			<polygon class="PF00107" points="513,29 524,18 525,18 525,44 524,44 513,32" stroke-linejoin="round" width="12" height="26" fill="rgb(81,108,215)" stroke="rgb(64,86,172)" stroke-width="1" opacity="0.75" />
		</g>
		<g>
			<title>PF08240</title>
			<rect class="PF08240" x="530" y="18" stroke-linejoin="round" width="10" height="26" fill="rgb(211,65,138)" stroke="rgb(168,51,110)" stroke-width="1" opacity="0.75" />
		</g>
	</g>
	<g>
		<polygon class="NoName" points="551,16 551,16 551,1 568,31 551,61 551,46 551,46" fill="rgb(255,255,255)" fill-opacity="1.0" stroke="rgb(50,50,50)" stroke-width="1" />
	</g>
	<g>
		<polygon class="NoName" points="570,16 570,16 570,1 584,31 570,61 570,46 570,46" fill="rgb(255,255,255)" fill-opacity="1.0" stroke="rgb(50,50,50)" stroke-width="1" />
	</g>
	<g>
		<polygon class="NoName" points="597,16 597,16 597,1 614,31 597,61 597,46 597,46" fill="rgb(255,255,255)" fill-opacity="1.0" stroke="rgb(50,50,50)" stroke-width="1" />
	</g>
	<g>
		<polygon class="NoName" points="625,16 627,16 627,1 657,31 627,61 627,46 625,46" fill="rgb(255,255,255)" fill-opacity="1.0" stroke="rgb(50,50,50)" stroke-width="1" />
	</g>
	<g>
		<title>aph</title>
		<polygon class="aph" points="657,16 657,16 657,1 683,31 657,61 657,46 657,46" fill="rgb(253,180,204)" fill-opacity="1.0" stroke="rgb(101,72,81)" stroke-width="1" />
		<g>
			<title>PF01636</title>
			<polygon class="PF01636" points="658,18 669,18 680,31 669,44 658,44" stroke-linejoin="round" width="24" height="26" fill="rgb(106,220,228)" stroke="rgb(84,176,182)" stroke-width="1" opacity="0.75" />
		</g>
	</g>
	<g>
		<polygon class="NoName" points="687,16 687,16 687,1 696,31 687,61 687,46 687,46" fill="rgb(255,255,255)" fill-opacity="1.0" stroke="rgb(50,50,50)" stroke-width="1" />
	</g>
	<g>
		<polygon class="NoName" points="697,16 697,16 697,1 711,31 697,61 697,46 697,46" fill="rgb(255,255,255)" fill-opacity="1.0" stroke="rgb(50,50,50)" stroke-width="1" />
	</g>
	<g>
		<polygon class="NoName" points="1,16 14,16 14,1 44,31 14,61 14,46 1,46" fill="rgb(255,255,255)" fill-opacity="1.0" stroke="rgb(50,50,50)" stroke-width="1" />
	</g>
	<g>
		<polygon class="NoName" points="713,16 713,16 713,1 722,31 713,61 713,46 713,46" fill="rgb(255,255,255)" fill-opacity="1.0" stroke="rgb(50,50,50)" stroke-width="1" />
	</g>
	<g>
		<title>nemH</title>
		<polygon class="nemH" points="904,16 755,16 755,1 725,31 755,61 755,46 904,46" fill="rgb(214,249,254)" fill-opacity="1.0" stroke="rgb(85,99,101)" stroke-width="1" />
		<g>
			<title>PF09126</title>
			<polygon class="PF09126" points="727,31 740,18 753,18 753,44 740,44" stroke-linejoin="round" width="27" height="26" fill="rgb(125,182,79)" stroke="rgb(100,145,63)" stroke-width="1" opacity="0.75" />
		</g>
	</g>
	<g>
		<polygon class="NoName" points="936,16 935,16 935,1 905,31 935,61 935,46 936,46" fill="rgb(255,255,255)" fill-opacity="1.0" stroke="rgb(50,50,50)" stroke-width="1" />
		<g>
			<title>PF07728</title>
			<polygon class="PF07728" points="913,25 920,18 929,18 929,44 920,44 913,36" stroke-linejoin="round" width="16" height="26" fill="rgb(216,227,88)" stroke="rgb(172,181,70)" stroke-width="1" opacity="0.75" />
		</g>
	</g>
	<g>
		<polygon class="NoName" points="1004,16 966,16 966,1 936,31 966,61 966,46 1004,46" fill="rgb(255,255,255)" fill-opacity="1.0" stroke="rgb(50,50,50)" stroke-width="1" />
	</g>
	<g>
		<polygon class="NoName" points="1042,16 1035,16 1035,1 1005,31 1035,61 1035,46 1042,46" fill="rgb(255,255,255)" fill-opacity="1.0" stroke="rgb(50,50,50)" stroke-width="1" />
	</g>
	<g>
		<polygon class="NoName" points="1082,16 1078,16 1078,1 1048,31 1078,61 1078,46 1082,46" fill="rgb(255,255,255)" fill-opacity="1.0" stroke="rgb(50,50,50)" stroke-width="1" />
		<g>
			<title>PF08546</title>
			<polygon class="PF08546" points="1050,31 1063,18 1064,18 1064,44 1063,44" stroke-linejoin="round" width="14" height="26" fill="rgb(188,163,68)" stroke="rgb(150,130,54)" stroke-width="1" opacity="0.75" />
		</g>
		<g>
			<title>PF02558</title>
			<rect class="PF02558" x="1066" y="18" stroke-linejoin="round" width="15" height="26" fill="rgb(91,128,221)" stroke="rgb(72,102,176)" stroke-width="1" opacity="0.75" />
		</g>
	</g>
	<g>
		<polygon class="NoName" points="1134,16 1114,16 1114,1 1084,31 1114,61 1114,46 1134,46" fill="rgb(255,255,255)" fill-opacity="1.0" stroke="rgb(50,50,50)" stroke-width="1" />
		<g>
			<title>PF04055</title>
			<polygon class="PF04055" points="1099,18 1099,18 1115,18 1115,44 1099,44 1099,43" stroke-linejoin="round" width="16" height="26" fill="rgb(149,56,222)" stroke="rgb(119,44,177)" stroke-width="1" opacity="0.75" />
		</g>
		<g>
			<title>PF02310</title>
			<rect class="PF02310" x="1121" y="18" stroke-linejoin="round" width="12" height="26" fill="rgb(145,190,60)" stroke="rgb(115,152,48)" stroke-width="1" opacity="0.75" />
		</g>
	</g>
	<g>
		<polygon class="NoName" points="1136,16 1136,16 1136,1 1148,31 1136,61 1136,46 1136,46" fill="rgb(255,255,255)" fill-opacity="1.0" stroke="rgb(50,50,50)" stroke-width="1" />
	</g>
	<g>
		<polygon class="NoName" points="1181,16 1181,16 1181,1 1168,31 1181,61 1181,46 1181,46" fill="rgb(255,255,255)" fill-opacity="1.0" stroke="rgb(50,50,50)" stroke-width="1" />
	</g>
	<g>
		<polygon class="NoName" points="1186,16 1186,16 1186,1 1194,31 1186,61 1186,46 1186,46" fill="rgb(255,255,255)" fill-opacity="1.0" stroke="rgb(50,50,50)" stroke-width="1" />
		<g>
			<title>PF00188</title>
			<polygon class="PF00188" points="1186,18 1188,18 1191,31 1188,44 1186,44" stroke-linejoin="round" width="8" height="26" fill="rgb(189,95,74)" stroke="rgb(151,76,59)" stroke-width="1" opacity="0.75" />
		</g>
	</g>
	<g>
		<polygon class="NoName" points="74,16 74,16 74,1 50,31 74,61 74,46 74,46" fill="rgb(255,255,255)" fill-opacity="1.0" stroke="rgb(50,50,50)" stroke-width="1" />
		<g>
			<title>PF02585</title>
			<polygon class="PF02585" points="61,20 62,18 74,18 74,44 62,44 61,41" stroke-linejoin="round" width="13" height="26" fill="rgb(97,215,95)" stroke="rgb(77,172,76)" stroke-width="1" opacity="0.75" />
		</g>
	</g>
	<g>
		<polygon class="NoName" points="1254,16 1225,16 1225,1 1195,31 1225,61 1225,46 1254,46" fill="rgb(255,255,255)" fill-opacity="1.0" stroke="rgb(50,50,50)" stroke-width="1" />
		<g>
			<title>PF00188</title>
			<polygon class="PF00188" points="1197,31 1206,22 1206,39" stroke-linejoin="round" width="11" height="26" fill="rgb(189,95,74)" stroke="rgb(151,76,59)" stroke-width="1" opacity="0.75" />
		</g>
		<g>
			<title>PF04542</title>
			<rect class="PF04542" x="1245" y="18" stroke-linejoin="round" width="6" height="26" fill="rgb(184,59,197)" stroke="rgb(147,47,157)" stroke-width="1" opacity="0.75" />
		</g>
	</g>
	<g>
		<polygon class="NoName" points="1261,16 1261,16 1261,1 1284,31 1261,61 1261,46 1261,46" fill="rgb(255,255,255)" fill-opacity="1.0" stroke="rgb(50,50,50)" stroke-width="1" />
		<g>
			<title>PF13472</title>
			<polygon class="PF13472" points="1262,18 1271,18 1281,31 1271,44 1262,44" stroke-linejoin="round" width="20" height="26" fill="rgb(116,68,184)" stroke="rgb(92,54,147)" stroke-width="1" opacity="0.75" />
		</g>
	</g>
	<g>
		<polygon class="NoName" points="1308,16 1308,16 1308,1 1283,31 1308,61 1308,46 1308,46" fill="rgb(255,255,255)" fill-opacity="1.0" stroke="rgb(50,50,50)" stroke-width="1" />
		<g>
			<title>PF01510</title>
			<polygon class="PF01510" points="1285,31 1296,18 1300,18 1300,44 1296,44" stroke-linejoin="round" width="15" height="26" fill="rgb(122,192,71)" stroke="rgb(97,153,56)" stroke-width="1" opacity="0.75" />
		</g>
	</g>
	<g>
		<polygon class="NoName" points="1320,16 1338,16 1338,1 1368,31 1338,61 1338,46 1320,46" fill="rgb(255,255,255)" fill-opacity="1.0" stroke="rgb(50,50,50)" stroke-width="1" />
		<g>
			<title>PF05406</title>
			<rect class="PF05406" x="1320" y="18" stroke-linejoin="round" width="7" height="26" fill="rgb(69,124,182)" stroke="rgb(55,99,145)" stroke-width="1" opacity="0.75" />
		</g>
		<g>
			<title>PF13570</title>
			<polygon class="PF13570" points="1353,19 1356,22 1356,40 1353,43" stroke-linejoin="round" width="3" height="26" fill="rgb(154,89,181)" stroke="rgb(123,71,144)" stroke-width="1" opacity="0.75" />
		</g>
	</g>
	<g>
		<polygon class="NoName" points="1368,16 1368,16 1368,1 1383,31 1368,61 1368,46 1368,46" fill="rgb(255,255,255)" fill-opacity="1.0" stroke="rgb(50,50,50)" stroke-width="1" />
	</g>
	<g>
		<polygon class="NoName" points="1405,16 1405,16 1405,1 1390,31 1405,61 1405,46 1405,46" fill="rgb(255,255,255)" fill-opacity="1.0" stroke="rgb(50,50,50)" stroke-width="1" />
		<g>
			<title>PF03994</title>
			<polygon class="PF03994" points="1392,31 1395,25 1395,36" stroke-linejoin="round" width="5" height="26" fill="rgb(206,93,72)" stroke="rgb(164,74,57)" stroke-width="1" opacity="0.75" />
		</g>
		<g>
			<title>PF03994</title>
			<polygon class="PF03994" points="1397,21 1399,18 1402,18 1402,44 1399,44 1397,40" stroke-linejoin="round" width="5" height="26" fill="rgb(206,93,72)" stroke="rgb(164,74,57)" stroke-width="1" opacity="0.75" />
		</g>
	</g>
	<g>
		<polygon class="NoName" points="81,16 89,16 89,1 119,31 89,61 89,46 81,46" fill="rgb(255,255,255)" fill-opacity="1.0" stroke="rgb(50,50,50)" stroke-width="1" />
	</g>
	<g>
		<polygon class="NoName" points="146,16 146,16 146,1 123,31 146,61 146,46 146,46" fill="rgb(255,255,255)" fill-opacity="1.0" stroke="rgb(50,50,50)" stroke-width="1" />
		<g>
			<title>PF00300</title>
			<polygon class="PF00300" points="125,31 135,18 138,18 138,44 135,44" stroke-linejoin="round" width="15" height="26" fill="rgb(135,184,63)" stroke="rgb(107,147,50)" stroke-width="1" opacity="0.75" />
		</g>
	</g>
	<g>
		<polygon class="NoName" points="176,16 176,16 176,1 146,31 176,61 176,46 176,46" fill="rgb(255,255,255)" fill-opacity="1.0" stroke="rgb(50,50,50)" stroke-width="1" />
		<g>
			<title>PF04055</title>
			<polygon class="PF04055" points="159,20 161,18 173,18 173,44 161,44 159,41" stroke-linejoin="round" width="14" height="26" fill="rgb(149,56,222)" stroke="rgb(119,44,177)" stroke-width="1" opacity="0.75" />
		</g>
	</g>
	<g>
		<title>nemG</title>
		<polygon class="nemG" points="236,16 212,16 212,1 182,31 212,61 212,46 236,46" fill="rgb(189,252,220)" fill-opacity="1.0" stroke="rgb(75,100,88)" stroke-width="1" />
		<g>
			<title>PF05199</title>
			<polygon class="PF05199" points="184,31 195,20 195,41" stroke-linejoin="round" width="12" height="26" fill="rgb(186,52,106)" stroke="rgb(148,41,84)" stroke-width="1" opacity="0.75" />
		</g>
		<g>
			<title>PF00732</title>
			<rect class="PF00732" x="203" y="18" stroke-linejoin="round" width="29" height="26" fill="rgb(180,89,214)" stroke="rgb(143,71,171)" stroke-width="1" opacity="0.75" />
		</g>
	</g>
	<g>
		<title>nemF</title>
		<polygon class="nemF" points="302,16 273,16 273,1 243,31 273,61 273,46 302,46" fill="rgb(240,250,192)" fill-opacity="1.0" stroke="rgb(96,100,76)" stroke-width="1" />
		<g>
			<title>PF00005</title>
			<polygon class="PF00005" points="250,26 258,18 264,18 264,44 258,44 250,35" stroke-linejoin="round" width="14" height="26" fill="rgb(129,201,63)" stroke="rgb(103,160,50)" stroke-width="1" opacity="0.75" />
		</g>
		<g>
			<title>PF00664</title>
			<rect class="PF00664" x="272" y="18" stroke-linejoin="round" width="27" height="26" fill="rgb(149,226,73)" stroke="rgb(119,180,58)" stroke-width="1" opacity="0.75" />
		</g>
	</g>
	<g>
		<title>nemE</title>
		<polygon class="nemE" points="368,16 332,16 332,1 302,31 332,61 332,46 368,46" fill="rgb(210,201,249)" fill-opacity="1.0" stroke="rgb(84,80,99)" stroke-width="1" />
		<g>
			<title>PF00005</title>
			<polygon class="PF00005" points="313,22 317,18 332,18 332,44 317,44 313,39" stroke-linejoin="round" width="19" height="26" fill="rgb(129,201,63)" stroke="rgb(103,160,50)" stroke-width="1" opacity="0.75" />
		</g>
		<g>
			<title>PF00664</title>
			<rect class="PF00664" x="339" y="18" stroke-linejoin="round" width="27" height="26" fill="rgb(149,226,73)" stroke="rgb(119,180,58)" stroke-width="1" opacity="0.75" />
		</g>
	</g>
	<g>
		<title>nemD</title>
		<polygon class="nemD" points="411,16 399,16 399,1 369,31 399,61 399,46 411,46" fill="rgb(196,219,253)" fill-opacity="1.0" stroke="rgb(78,87,101)" stroke-width="1" />
		<g>
			<title>PF00534</title>
			<polygon class="PF00534" points="372,30 384,18 389,18 389,44 384,44 372,31" stroke-linejoin="round" width="17" height="26" fill="rgb(228,92,150)" stroke="rgb(182,73,119)" stroke-width="1" opacity="0.75" />
		</g>
		<g>
			<title>PF13579</title>
			<rect class="PF13579" x="390" y="18" stroke-linejoin="round" width="17" height="26" fill="rgb(143,60,202)" stroke="rgb(114,47,161)" stroke-width="1" opacity="0.75" />
		</g>
	</g>
</svg>
