<svg version="1.1" baseProfile="full" xmlns="http://www.w3.org/2000/svg" width="482" height="62">
	<line x1="1" y1="31" x2="481" y2="31" style="stroke:rgb(50,50,50); stroke-width:3 "/>
	<g>
		<title>cfa6</title>
		<polygon class="cfa6" points="1,16 244,16 244,1 274,31 244,61 244,46 1,46" fill="rgb(253,240,184)" fill-opacity="1.0" stroke="rgb(101,96,73)" stroke-width="1" />
		<g>
			<title>PF00698</title>
			<rect class="PF00698" x="15" y="18" stroke-linejoin="round" width="31" height="26" fill="rgb(59,176,209)" stroke="rgb(47,140,167)" stroke-width="1" opacity="0.75" />
		</g>
		<g>
			<title>PF00550</title>
			<rect class="PF00550" x="52" y="18" stroke-linejoin="round" width="6" height="26" fill="rgb(103,191,88)" stroke="rgb(82,152,70)" stroke-width="1" opacity="0.75" />
		</g>
		<g>
			<title>PF00109</title>
			<rect class="PF00109" x="61" y="18" stroke-linejoin="round" width="25" height="26" fill="rgb(112,116,228)" stroke="rgb(89,92,182)" stroke-width="1" opacity="0.75" />
		</g>
		<g>
			<title>PF02801</title>
			<rect class="PF02801" x="87" y="18" stroke-linejoin="round" width="11" height="26" fill="rgb(215,78,102)" stroke="rgb(172,62,81)" stroke-width="1" opacity="0.75" />
		</g>
		<g>
			<title>PF16197</title>
			<rect class="PF16197" x="99" y="18" stroke-linejoin="round" width="11" height="26" fill="rgb(68,179,89)" stroke="rgb(54,143,71)" stroke-width="1" opacity="0.75" />
		</g>
		<g>
			<title>PF00698</title>
			<rect class="PF00698" x="114" y="18" stroke-linejoin="round" width="31" height="26" fill="rgb(59,176,209)" stroke="rgb(47,140,167)" stroke-width="1" opacity="0.75" />
		</g>
		<g>
			<title>PF14765</title>
			<rect class="PF14765" x="151" y="18" stroke-linejoin="round" width="27" height="26" fill="rgb(173,56,182)" stroke="rgb(138,44,145)" stroke-width="1" opacity="0.75" />
		</g>
		<g>
			<title>PF08240</title>
			<rect class="PF08240" x="201" y="18" stroke-linejoin="round" width="6" height="26" fill="rgb(211,65,138)" stroke="rgb(168,51,110)" stroke-width="1" opacity="0.75" />
		</g>
		<g>
			<title>PF13602</title>
			<rect class="PF13602" x="216" y="18" stroke-linejoin="round" width="13" height="26" fill="rgb(101,131,226)" stroke="rgb(80,104,180)" stroke-width="1" opacity="0.75" />
		</g>
		<g>
			<title>PF08659</title>
			<rect class="PF08659" x="230" y="18" stroke-linejoin="round" width="17" height="26" fill="rgb(66,209,188)" stroke="rgb(52,167,150)" stroke-width="1" opacity="0.75" />
		</g>
		<g>
			<title>PF00550</title>
			<polygon class="PF00550" points="259,19 265,25 265,37 259,43" stroke-linejoin="round" width="6" height="26" fill="rgb(103,191,88)" stroke="rgb(82,152,70)" stroke-width="1" opacity="0.75" />
		</g>
	</g>
	<g>
		<title>cfa7</title>
		<polygon class="cfa7" points="274,16 450,16 450,1 480,31 450,61 450,46 274,46" fill="rgb(198,251,245)" fill-opacity="1.0" stroke="rgb(79,100,98)" stroke-width="1" />
		<g>
			<title>PF00109</title>
			<rect class="PF00109" x="277" y="18" stroke-linejoin="round" width="25" height="26" fill="rgb(112,116,228)" stroke="rgb(89,92,182)" stroke-width="1" opacity="0.75" />
		</g>
		<g>
			<title>PF02801</title>
			<rect class="PF02801" x="303" y="18" stroke-linejoin="round" width="11" height="26" fill="rgb(215,78,102)" stroke="rgb(172,62,81)" stroke-width="1" opacity="0.75" />
		</g>
		<g>
			<title>PF16197</title>
			<rect class="PF16197" x="315" y="18" stroke-linejoin="round" width="12" height="26" fill="rgb(68,179,89)" stroke="rgb(54,143,71)" stroke-width="1" opacity="0.75" />
		</g>
		<g>
			<title>PF00698</title>
			<rect class="PF00698" x="331" y="18" stroke-linejoin="round" width="32" height="26" fill="rgb(59,176,209)" stroke="rgb(47,140,167)" stroke-width="1" opacity="0.75" />
		</g>
		<g>
			<title>PF14765</title>
			<rect class="PF14765" x="368" y="18" stroke-linejoin="round" width="28" height="26" fill="rgb(173,56,182)" stroke="rgb(138,44,145)" stroke-width="1" opacity="0.75" />
		</g>
		<g>
			<title>PF08659</title>
			<rect class="PF08659" x="417" y="18" stroke-linejoin="round" width="17" height="26" fill="rgb(66,209,188)" stroke="rgb(52,167,150)" stroke-width="1" opacity="0.75" />
		</g>
		<g>
			<title>PF00550</title>
			<rect class="PF00550" x="444" y="18" stroke-linejoin="round" width="6" height="26" fill="rgb(103,191,88)" stroke="rgb(82,152,70)" stroke-width="1" opacity="0.75" />
		</g>
		<g>
			<title>PF00975</title>
			<polygon class="PF00975" points="460,18 464,18 477,31 464,44 460,44" stroke-linejoin="round" width="19" height="26" fill="rgb(207,80,138)" stroke="rgb(165,63,110)" stroke-width="1" opacity="0.75" />
		</g>
	</g>
</svg>
