<svg version="1.1" baseProfile="full" xmlns="http://www.w3.org/2000/svg" width="119" height="62">
	<line x1="1" y1="31" x2="118" y2="31" style="stroke:rgb(50,50,50); stroke-width:3 "/>
	<g>
		<polygon class="NoName" points="8,16 8,16 8,1 28,31 8,61 8,46 8,46" fill="rgb(255,255,255)" fill-opacity="1.0" stroke="rgb(50,50,50)" stroke-width="1" />
		<g>
			<title>PF00392</title>
			<rect class="PF00392" x="8" y="18" stroke-linejoin="round" width="6" height="26" fill="rgb(160,85,194)" stroke="rgb(127,68,155)" stroke-width="1" opacity="0.75" />
		</g>
	</g>
	<g>
		<polygon class="NoName" points="33,16 33,16 33,1 38,31 33,61 33,46 33,46" fill="rgb(255,255,255)" fill-opacity="1.0" stroke="rgb(50,50,50)" stroke-width="1" />
	</g>
	<g>
		<polygon class="NoName" points="40,16 40,16 40,1 61,31 40,61 40,46 40,46" fill="rgb(255,255,255)" fill-opacity="1.0" stroke="rgb(50,50,50)" stroke-width="1" />
		<g>
			<title>PF13471</title>
			<polygon class="PF13471" points="49,18 49,18 58,31 49,44 49,44" stroke-linejoin="round" width="11" height="26" fill="rgb(63,111,179)" stroke="rgb(50,88,143)" stroke-width="1" opacity="0.75" />
		</g>
	</g>
	<g>
		<polygon class="NoName" points="61,16 88,16 88,1 118,31 88,61 88,46 61,46" fill="rgb(255,255,255)" fill-opacity="1.0" stroke="rgb(50,50,50)" stroke-width="1" />
		<g>
			<title>PF00733</title>
			<polygon class="PF00733" points="81,18 102,18 104,20 104,42 102,44 81,44" stroke-linejoin="round" width="23" height="26" fill="rgb(97,201,176)" stroke="rgb(77,160,140)" stroke-width="1" opacity="0.75" />
		</g>
		<g>
			<title>PF00733</title>
			<polygon class="PF00733" points="105,21 115,31 105,41" stroke-linejoin="round" width="12" height="26" fill="rgb(97,201,176)" stroke="rgb(77,160,140)" stroke-width="1" opacity="0.75" />
		</g>
	</g>
</svg>
