<svg version="1.1" baseProfile="full" xmlns="http://www.w3.org/2000/svg" width="925" height="62">
	<line x1="1" y1="31" x2="924" y2="31" style="stroke:rgb(50,50,50); stroke-width:3 "/>
	<g>
		<title>ftmA</title>
		<polygon class="ftmA" points="232,16 41,16 41,1 11,31 41,61 41,46 232,46" fill="rgb(205,243,250)" fill-opacity="1.0" stroke="rgb(82,97,100)" stroke-width="1" />
		<g>
			<title>PF00668</title>
			<polygon class="PF00668" points="17,27 26,18 51,18 51,44 26,44 17,34" stroke-linejoin="round" width="34" height="26" fill="rgb(224,184,98)" stroke="rgb(179,147,78)" stroke-width="1" opacity="0.75" />
		</g>
		<g>
			<title>PF00550</title>
			<rect class="PF00550" x="57" y="18" stroke-linejoin="round" width="6" height="26" fill="rgb(103,191,88)" stroke="rgb(82,152,70)" stroke-width="1" opacity="0.75" />
		</g>
		<g>
			<title>PF00501</title>
			<rect class="PF00501" x="77" y="18" stroke-linejoin="round" width="40" height="26" fill="rgb(60,217,223)" stroke="rgb(48,173,178)" stroke-width="1" opacity="0.75" />
		</g>
		<g>
			<title>PF00668</title>
			<rect class="PF00668" x="119" y="18" stroke-linejoin="round" width="42" height="26" fill="rgb(224,184,98)" stroke="rgb(179,147,78)" stroke-width="1" opacity="0.75" />
		</g>
		<g>
			<title>PF00550</title>
			<rect class="PF00550" x="165" y="18" stroke-linejoin="round" width="6" height="26" fill="rgb(103,191,88)" stroke="rgb(82,152,70)" stroke-width="1" opacity="0.75" />
		</g>
		<g>
			<title>PF00501</title>
			<rect class="PF00501" x="186" y="18" stroke-linejoin="round" width="40" height="26" fill="rgb(60,217,223)" stroke="rgb(48,173,178)" stroke-width="1" opacity="0.75" />
		</g>
	</g>
	<g>
		<title>ftmC</title>
		<polygon class="ftmC" points="349,16 314,16 314,1 284,31 314,61 314,46 349,46" fill="rgb(251,195,253)" fill-opacity="1.0" stroke="rgb(100,78,101)" stroke-width="1" />
		<g>
			<title>PF00067</title>
			<polygon class="PF00067" points="294,23 299,18 337,18 337,44 299,44 294,38" stroke-linejoin="round" width="43" height="26" fill="rgb(85,216,107)" stroke="rgb(68,172,85)" stroke-width="1" opacity="0.75" />
		</g>
	</g>
	<g>
		<title>ftmD</title>
		<polygon class="ftmD" points="374,16 381,16 381,1 411,31 381,61 381,46 374,46" fill="rgb(202,254,215)" fill-opacity="1.0" stroke="rgb(80,101,85)" stroke-width="1" />
		<g>
			<title>PF00891</title>
			<polygon class="PF00891" points="386,18 395,18 405,28 405,34 395,44 386,44" stroke-linejoin="round" width="19" height="26" fill="rgb(50,51,190)" stroke="rgb(39,40,152)" stroke-width="1" opacity="0.75" />
		</g>
	</g>
	<g>
		<title>ftmB_ftmPT1</title>
		<polygon class="ftmB_ftmPT1" points="435,16 453,16 453,1 483,31 453,61 453,46 435,46" fill="rgb(236,187,254)" fill-opacity="1.0" stroke="rgb(94,74,101)" stroke-width="1" />
		<g>
			<title>PF11991</title>
			<polygon class="PF11991" points="438,18 467,18 476,27 476,35 467,44 438,44" stroke-linejoin="round" width="38" height="26" fill="rgb(197,197,93)" stroke="rgb(157,157,74)" stroke-width="1" opacity="0.75" />
		</g>
	</g>
	<g>
		<title>ftmE</title>
		<polygon class="ftmE" points="542,16 520,16 520,1 490,31 520,61 520,46 542,46" fill="rgb(184,186,252)" fill-opacity="1.0" stroke="rgb(73,74,100)" stroke-width="1" />
		<g>
			<title>PF00067</title>
			<polygon class="PF00067" points="493,30 505,18 538,18 538,44 505,44 493,31" stroke-linejoin="round" width="45" height="26" fill="rgb(85,216,107)" stroke="rgb(68,172,85)" stroke-width="1" opacity="0.75" />
		</g>
	</g>
	<g>
		<title>ftmF</title>
		<polygon class="ftmF" points="601,16 601,16 601,1 572,31 601,61 601,46 601,46" fill="rgb(216,249,197)" fill-opacity="1.0" stroke="rgb(86,99,78)" stroke-width="1" />
		<g>
			<title>PF05721</title>
			<polygon class="PF05721" points="579,26 587,18 598,18 598,44 587,44 579,35" stroke-linejoin="round" width="19" height="26" fill="rgb(72,132,214)" stroke="rgb(57,105,171)" stroke-width="1" opacity="0.75" />
		</g>
	</g>
	<g>
		<title>ftmG</title>
		<polygon class="ftmG" points="697,16 667,16 667,1 637,31 667,61 667,46 697,46" fill="rgb(198,251,182)" fill-opacity="1.0" stroke="rgb(79,100,72)" stroke-width="1" />
		<g>
			<title>PF00067</title>
			<polygon class="PF00067" points="648,22 652,18 684,18 684,44 652,44 648,39" stroke-linejoin="round" width="36" height="26" fill="rgb(85,216,107)" stroke="rgb(68,172,85)" stroke-width="1" opacity="0.75" />
		</g>
	</g>
	<g>
		<title>ftmH</title>
		<polygon class="ftmH" points="722,16 736,16 736,1 766,31 736,61 736,46 722,46" fill="rgb(213,254,235)" fill-opacity="1.0" stroke="rgb(85,101,93)" stroke-width="1" />
		<g>
			<title>PF11991</title>
			<polygon class="PF11991" points="724,18 750,18 760,28 760,34 750,44 724,44" stroke-linejoin="round" width="36" height="26" fill="rgb(197,197,93)" stroke="rgb(157,157,74)" stroke-width="1" opacity="0.75" />
		</g>
	</g>
	<g>
		<title>ftmI</title>
		<polygon class="ftmI" points="846,16 808,16 808,1 778,31 808,61 808,46 846,46" fill="rgb(201,254,220)" fill-opacity="1.0" stroke="rgb(80,101,88)" stroke-width="1" />
		<g>
			<title>PF12796</title>
			<polygon class="PF12796" points="782,29 791,20 791,41 782,32" stroke-linejoin="round" width="9" height="26" fill="rgb(151,90,191)" stroke="rgb(120,72,152)" stroke-width="1" opacity="0.75" />
		</g>
		<g>
			<title>PF12796</title>
			<rect class="PF12796" x="795" y="18" stroke-linejoin="round" width="9" height="26" fill="rgb(151,90,191)" stroke="rgb(120,72,152)" stroke-width="1" opacity="0.75" />
		</g>
		<g>
			<title>PF12796</title>
			<rect class="PF12796" x="808" y="18" stroke-linejoin="round" width="9" height="26" fill="rgb(151,90,191)" stroke="rgb(120,72,152)" stroke-width="1" opacity="0.75" />
		</g>
		<g>
			<title>PF12796</title>
			<rect class="PF12796" x="824" y="18" stroke-linejoin="round" width="7" height="26" fill="rgb(151,90,191)" stroke="rgb(120,72,152)" stroke-width="1" opacity="0.75" />
		</g>
		<g>
			<title>PF12796</title>
			<rect class="PF12796" x="834" y="18" stroke-linejoin="round" width="8" height="26" fill="rgb(151,90,191)" stroke="rgb(120,72,152)" stroke-width="1" opacity="0.75" />
		</g>
	</g>
</svg>
