<svg version="1.1" baseProfile="full" xmlns="http://www.w3.org/2000/svg" width="1089" height="62">
	<line x1="1" y1="31" x2="1088" y2="31" style="stroke:rgb(50,50,50); stroke-width:3 "/>
	<g>
		<title>rubW</title>
		<polygon class="rubW" points="439,16 439,16 439,1 456,31 439,61 439,46 439,46" fill="rgb(251,202,180)" fill-opacity="1.0" stroke="rgb(100,80,72)" stroke-width="1" />
	</g>
	<g>
		<title>rubR</title>
		<polygon class="rubR" points="456,16 488,16 488,1 518,31 488,61 488,46 456,46" fill="rgb(207,178,250)" fill-opacity="1.0" stroke="rgb(82,71,100)" stroke-width="1" />
		<g>
			<title>PF13537</title>
			<rect class="PF13537" x="460" y="18" stroke-linejoin="round" width="12" height="26" fill="rgb(200,63,57)" stroke="rgb(160,50,45)" stroke-width="1" opacity="0.75" />
		</g>
		<g>
			<title>PF00733</title>
			<polygon class="PF00733" points="480,18 502,18 515,31 502,44 480,44" stroke-linejoin="round" width="37" height="26" fill="rgb(97,201,176)" stroke="rgb(77,160,140)" stroke-width="1" opacity="0.75" />
		</g>
	</g>
	<g>
		<title>rubS</title>
		<polygon class="rubS" points="527,16 563,16 563,1 593,31 563,61 563,46 527,46" fill="rgb(232,253,206)" fill-opacity="1.0" stroke="rgb(92,101,82)" stroke-width="1" />
		<g>
			<title>PF00486</title>
			<rect class="PF00486" x="530" y="18" stroke-linejoin="round" width="6" height="26" fill="rgb(204,153,57)" stroke="rgb(163,122,45)" stroke-width="1" opacity="0.75" />
		</g>
		<g>
			<title>PF03704</title>
			<rect class="PF03704" x="539" y="18" stroke-linejoin="round" width="14" height="26" fill="rgb(217,89,196)" stroke="rgb(173,71,156)" stroke-width="1" opacity="0.75" />
		</g>
		<g>
			<title>PF00931</title>
			<polygon class="PF00931" points="558,18 577,18 581,22 581,40 577,44 558,44" stroke-linejoin="round" width="23" height="26" fill="rgb(165,94,211)" stroke="rgb(132,75,168)" stroke-width="1" opacity="0.75" />
		</g>
	</g>
	<g>
		<title>rubE</title>
		<polygon class="rubE" points="599,16 599,16 599,1 611,31 599,61 599,46 599,46" fill="rgb(184,231,253)" fill-opacity="1.0" stroke="rgb(73,92,101)" stroke-width="1" />
		<g>
			<title>PF04673</title>
			<polygon class="PF04673" points="599,18 603,18 608,31 603,44 599,44" stroke-linejoin="round" width="10" height="26" fill="rgb(49,187,78)" stroke="rgb(39,149,62)" stroke-width="1" opacity="0.75" />
		</g>
	</g>
	<g>
		<title>rubD</title>
		<polygon class="rubD" points="611,16 611,16 611,1 625,31 611,61 611,46 611,46" fill="rgb(213,229,252)" fill-opacity="1.0" stroke="rgb(85,91,100)" stroke-width="1" />
		<g>
			<title>PF07883</title>
			<polygon class="PF07883" points="615,18 616,18 622,30 622,32 616,44 615,44" stroke-linejoin="round" width="7" height="26" fill="rgb(211,192,74)" stroke="rgb(168,153,59)" stroke-width="1" opacity="0.75" />
		</g>
	</g>
	<g>
		<title>rubA</title>
		<polygon class="rubA" points="625,16 637,16 637,1 667,31 637,61 637,46 625,46" fill="rgb(215,211,254)" fill-opacity="1.0" stroke="rgb(85,84,101)" stroke-width="1" />
		<g>
			<title>PF00109</title>
			<rect class="PF00109" x="625" y="18" stroke-linejoin="round" width="25" height="26" fill="rgb(112,116,228)" stroke="rgb(89,92,182)" stroke-width="1" opacity="0.75" />
		</g>
		<g>
			<title>PF02801</title>
			<polygon class="PF02801" points="651,18 651,18 662,29 662,33 651,44 651,44" stroke-linejoin="round" width="11" height="26" fill="rgb(215,78,102)" stroke="rgb(172,62,81)" stroke-width="1" opacity="0.75" />
		</g>
	</g>
	<g>
		<title>rubB</title>
		<polygon class="rubB" points="668,16 680,16 680,1 710,31 680,61 680,46 668,46" fill="rgb(246,251,176)" fill-opacity="1.0" stroke="rgb(98,100,70)" stroke-width="1" />
		<g>
			<title>PF00109</title>
			<rect class="PF00109" x="669" y="18" stroke-linejoin="round" width="24" height="26" fill="rgb(112,116,228)" stroke="rgb(89,92,182)" stroke-width="1" opacity="0.75" />
		</g>
		<g>
			<title>PF02801</title>
			<polygon class="PF02801" points="694,18 694,18 705,29 705,33 694,44 694,44" stroke-linejoin="round" width="11" height="26" fill="rgb(215,78,102)" stroke="rgb(172,62,81)" stroke-width="1" opacity="0.75" />
		</g>
	</g>
	<g>
		<title>rubC</title>
		<polygon class="rubC" points="712,16 712,16 712,1 720,31 712,61 712,46 712,46" fill="rgb(199,253,237)" fill-opacity="1.0" stroke="rgb(79,101,94)" stroke-width="1" />
		<g>
			<title>PF00550</title>
			<polygon class="PF00550" points="713,18 714,18 717,31 714,44 713,44" stroke-linejoin="round" width="6" height="26" fill="rgb(103,191,88)" stroke="rgb(82,152,70)" stroke-width="1" opacity="0.75" />
		</g>
	</g>
	<g>
		<title>rubF</title>
		<polygon class="rubF" points="721,16 730,16 730,1 760,31 730,61 730,46 721,46" fill="rgb(216,177,252)" fill-opacity="1.0" stroke="rgb(86,70,100)" stroke-width="1" />
		<g>
			<title>PF03364</title>
			<rect class="PF03364" x="722" y="18" stroke-linejoin="round" width="12" height="26" fill="rgb(221,94,106)" stroke="rgb(176,75,84)" stroke-width="1" opacity="0.75" />
		</g>
		<g>
			<title>PF13561</title>
			<polygon class="PF13561" points="737,18 744,18 757,31 744,44 737,44" stroke-linejoin="round" width="23" height="26" fill="rgb(73,205,127)" stroke="rgb(58,164,101)" stroke-width="1" opacity="0.75" />
		</g>
	</g>
	<g>
		<title>rubG</title>
		<polygon class="rubG" points="761,16 761,16 761,1 786,31 761,61 761,46 761,46" fill="rgb(250,237,181)" fill-opacity="1.0" stroke="rgb(100,94,72)" stroke-width="1" />
		<g>
			<title>PF13561</title>
			<polygon class="PF13561" points="762,18 772,18 783,31 772,44 762,44" stroke-linejoin="round" width="23" height="26" fill="rgb(73,205,127)" stroke="rgb(58,164,101)" stroke-width="1" opacity="0.75" />
		</g>
	</g>
	<g>
		<title>rubI</title>
		<polygon class="rubI" points="26,16 47,16 47,1 77,31 47,61 47,46 26,46" fill="rgb(252,199,222)" fill-opacity="1.0" stroke="rgb(100,79,88)" stroke-width="1" />
		<g>
			<title>PF01565</title>
			<rect class="PF01565" x="33" y="18" stroke-linejoin="round" width="13" height="26" fill="rgb(226,88,136)" stroke="rgb(180,70,108)" stroke-width="1" opacity="0.75" />
		</g>
		<g>
			<title>PF08031</title>
			<polygon class="PF08031" points="72,29 74,31 72,33" stroke-linejoin="round" width="4" height="26" fill="rgb(210,73,83)" stroke="rgb(168,58,66)" stroke-width="1" opacity="0.75" />
		</g>
	</g>
	<g>
		<title>rubH</title>
		<polygon class="rubH" points="786,16 786,16 786,1 796,31 786,61 786,46 786,46" fill="rgb(253,240,184)" fill-opacity="1.0" stroke="rgb(101,96,73)" stroke-width="1" />
		<g>
			<title>PF03992</title>
			<polygon class="PF03992" points="786,18 789,18 793,29 793,33 789,44 786,44" stroke-linejoin="round" width="7" height="26" fill="rgb(193,84,127)" stroke="rgb(154,67,101)" stroke-width="1" opacity="0.75" />
		</g>
	</g>
	<g>
		<title>rubT</title>
		<polygon class="rubT" points="797,16 797,16 797,1 808,31 797,61 797,46 797,46" fill="rgb(231,252,209)" fill-opacity="1.0" stroke="rgb(92,100,83)" stroke-width="1" />
		<g>
			<title>PF03992</title>
			<polygon class="PF03992" points="797,18 800,18 804,26 804,36 800,44 797,44" stroke-linejoin="round" width="7" height="26" fill="rgb(193,84,127)" stroke="rgb(154,67,101)" stroke-width="1" opacity="0.75" />
		</g>
	</g>
	<g>
		<title>rubU</title>
		<polygon class="rubU" points="809,16 821,16 821,1 851,31 821,61 821,46 809,46" fill="rgb(195,250,217)" fill-opacity="1.0" stroke="rgb(78,100,86)" stroke-width="1" />
		<g>
			<title>PF00067</title>
			<polygon class="PF00067" points="827,18 835,18 837,20 837,42 835,44 827,44" stroke-linejoin="round" width="10" height="26" fill="rgb(85,216,107)" stroke="rgb(68,172,85)" stroke-width="1" opacity="0.75" />
		</g>
		<g>
			<title>PF00067</title>
			<polygon class="PF00067" points="837,20 848,31 848,31 837,42" stroke-linejoin="round" width="11" height="26" fill="rgb(85,216,107)" stroke="rgb(68,172,85)" stroke-width="1" opacity="0.75" />
		</g>
	</g>
	<g>
		<polygon class="NoName" points="852,16 852,16 852,1 880,31 852,61 852,46 852,46" fill="rgb(255,255,255)" fill-opacity="1.0" stroke="rgb(50,50,50)" stroke-width="1" />
		<g>
			<title>PF04672</title>
			<polygon class="PF04672" points="853,18 865,18 877,31 865,44 853,44" stroke-linejoin="round" width="26" height="26" fill="rgb(125,181,73)" stroke="rgb(99,144,58)" stroke-width="1" opacity="0.75" />
		</g>
	</g>
	<g>
		<polygon class="NoName" points="881,16 901,16 901,1 931,31 901,61 901,46 881,46" fill="rgb(255,255,255)" fill-opacity="1.0" stroke="rgb(50,50,50)" stroke-width="1" />
		<g>
			<title>PF00854</title>
			<polygon class="PF00854" points="890,18 915,18 927,30 927,32 915,44 890,44" stroke-linejoin="round" width="37" height="26" fill="rgb(90,189,52)" stroke="rgb(71,151,41)" stroke-width="1" opacity="0.75" />
		</g>
	</g>
	<g>
		<polygon class="NoName" points="997,16 1006,16 1006,1 1036,31 1006,61 1006,46 997,46" fill="rgb(255,255,255)" fill-opacity="1.0" stroke="rgb(50,50,50)" stroke-width="1" />
		<g>
			<title>PF02384</title>
			<polygon class="PF02384" points="999,18 1020,18 1032,30 1032,32 1020,44 999,44" stroke-linejoin="round" width="33" height="26" fill="rgb(46,179,90)" stroke="rgb(36,143,72)" stroke-width="1" opacity="0.75" />
		</g>
	</g>
	<g>
		<title>rubJ</title>
		<polygon class="rubJ" points="78,16 78,16 78,1 103,31 78,61 78,46 78,46" fill="rgb(254,237,191)" fill-opacity="1.0" stroke="rgb(101,94,76)" stroke-width="1" />
		<g>
			<title>PF13561</title>
			<polygon class="PF13561" points="79,18 89,18 100,31 89,44 79,44" stroke-linejoin="round" width="24" height="26" fill="rgb(73,205,127)" stroke="rgb(58,164,101)" stroke-width="1" opacity="0.75" />
		</g>
	</g>
	<g>
		<title>rubK</title>
		<polygon class="rubK" points="145,16 145,16 145,1 173,31 145,61 145,46 145,46" fill="rgb(184,253,239)" fill-opacity="1.0" stroke="rgb(73,101,95)" stroke-width="1" />
		<g>
			<title>PF07366</title>
			<rect class="PF07366" x="146" y="18" stroke-linejoin="round" width="10" height="26" fill="rgb(206,89,111)" stroke="rgb(164,71,88)" stroke-width="1" opacity="0.75" />
		</g>
		<g>
			<title>PF07366</title>
			<polygon class="PF07366" points="159,19 170,31 159,43" stroke-linejoin="round" width="12" height="26" fill="rgb(206,89,111)" stroke="rgb(164,71,88)" stroke-width="1" opacity="0.75" />
		</g>
	</g>
	<g>
		<title>rubL</title>
		<polygon class="rubL" points="175,16 200,16 200,1 230,31 200,61 200,46 175,46" fill="rgb(253,182,248)" fill-opacity="1.0" stroke="rgb(101,72,99)" stroke-width="1" />
		<g>
			<title>PF01494</title>
			<rect class="PF01494" x="176" y="18" stroke-linejoin="round" width="35" height="26" fill="rgb(182,175,59)" stroke="rgb(145,140,47)" stroke-width="1" opacity="0.75" />
		</g>
	</g>
	<g>
		<title>rubM</title>
		<polygon class="rubM" points="249,16 249,16 249,1 233,31 249,61 249,46 249,46" fill="rgb(253,227,189)" fill-opacity="1.0" stroke="rgb(101,90,75)" stroke-width="1" />
		<g>
			<title>PF12802</title>
			<polygon class="PF12802" points="239,24 242,18 248,18 248,44 242,44 239,38" stroke-linejoin="round" width="9" height="26" fill="rgb(46,89,185)" stroke="rgb(36,71,148)" stroke-width="1" opacity="0.75" />
		</g>
	</g>
	<g>
		<title>rubN</title>
		<polygon class="rubN" points="254,16 275,16 275,1 305,31 275,61 275,46 254,46" fill="rgb(241,208,252)" fill-opacity="1.0" stroke="rgb(96,83,100)" stroke-width="1" />
		<g>
			<title>PF01494</title>
			<rect class="PF01494" x="256" y="18" stroke-linejoin="round" width="33" height="26" fill="rgb(182,175,59)" stroke="rgb(145,140,47)" stroke-width="1" opacity="0.75" />
		</g>
	</g>
	<g>
		<title>rubO</title>
		<polygon class="rubO" points="311,16 328,16 328,1 358,31 328,61 328,46 311,46" fill="rgb(212,254,223)" fill-opacity="1.0" stroke="rgb(84,101,89)" stroke-width="1" />
		<g>
			<title>PF01494</title>
			<rect class="PF01494" x="325" y="18" stroke-linejoin="round" width="15" height="26" fill="rgb(182,175,59)" stroke="rgb(145,140,47)" stroke-width="1" opacity="0.75" />
		</g>
	</g>
	<g>
		<title>rubP</title>
		<polygon class="rubP" points="416,16 394,16 394,1 364,31 394,61 394,46 416,46" fill="rgb(233,202,253)" fill-opacity="1.0" stroke="rgb(93,80,101)" stroke-width="1" />
		<g>
			<title>PF01494</title>
			<rect class="PF01494" x="380" y="18" stroke-linejoin="round" width="35" height="26" fill="rgb(182,175,59)" stroke="rgb(145,140,47)" stroke-width="1" opacity="0.75" />
		</g>
	</g>
	<g>
		<title>rubQ</title>
		<polygon class="rubQ" points="424,16 424,16 424,1 438,31 424,61 424,46 424,46" fill="rgb(253,200,183)" fill-opacity="1.0" stroke="rgb(101,80,73)" stroke-width="1" />
		<g>
			<title>PF08592</title>
			<polygon class="PF08592" points="425,18 429,18 435,31 429,44 425,44" stroke-linejoin="round" width="12" height="26" fill="rgb(75,196,107)" stroke="rgb(60,156,85)" stroke-width="1" opacity="0.75" />
		</g>
	</g>
</svg>
