<svg version="1.1" baseProfile="full" xmlns="http://www.w3.org/2000/svg" width="1157" height="62">
	<line x1="1" y1="31" x2="1156" y2="31" style="stroke:rgb(50,50,50); stroke-width:3 "/>
	<g>
		<title>chryA</title>
		<polygon class="chryA" points="253,16 265,16 265,1 295,31 265,61 265,46 253,46" fill="rgb(180,251,184)" fill-opacity="1.0" stroke="rgb(72,100,73)" stroke-width="1" />
		<g>
			<title>PF00109</title>
			<rect class="PF00109" x="253" y="18" stroke-linejoin="round" width="25" height="26" fill="rgb(112,116,228)" stroke="rgb(89,92,182)" stroke-width="1" opacity="0.75" />
		</g>
		<g>
			<title>PF02801</title>
			<polygon class="PF02801" points="279,18 279,18 290,29 290,33 279,44 279,44" stroke-linejoin="round" width="11" height="26" fill="rgb(215,78,102)" stroke="rgb(172,62,81)" stroke-width="1" opacity="0.75" />
		</g>
	</g>
	<g>
		<title>chryB</title>
		<polygon class="chryB" points="296,16 306,16 306,1 336,31 306,61 306,46 296,46" fill="rgb(236,208,254)" fill-opacity="1.0" stroke="rgb(94,83,101)" stroke-width="1" />
		<g>
			<title>PF00109</title>
			<rect class="PF00109" x="296" y="18" stroke-linejoin="round" width="24" height="26" fill="rgb(112,116,228)" stroke="rgb(89,92,182)" stroke-width="1" opacity="0.75" />
		</g>
		<g>
			<title>PF02801</title>
			<polygon class="PF02801" points="321,19 332,30 332,32 321,43" stroke-linejoin="round" width="11" height="26" fill="rgb(215,78,102)" stroke="rgb(172,62,81)" stroke-width="1" opacity="0.75" />
		</g>
	</g>
	<g>
		<title>chryC</title>
		<polygon class="chryC" points="338,16 338,16 338,1 346,31 338,61 338,46 338,46" fill="rgb(251,207,233)" fill-opacity="1.0" stroke="rgb(100,82,93)" stroke-width="1" />
		<g>
			<title>PF00550</title>
			<polygon class="PF00550" points="338,18 340,18 343,31 340,44 338,44" stroke-linejoin="round" width="6" height="26" fill="rgb(103,191,88)" stroke="rgb(82,152,70)" stroke-width="1" opacity="0.75" />
		</g>
	</g>
	<g>
		<title>chryOIII</title>
		<polygon class="chryOIII" points="348,16 357,16 357,1 387,31 357,61 357,46 348,46" fill="rgb(254,240,184)" fill-opacity="1.0" stroke="rgb(101,96,73)" stroke-width="1" />
		<g>
			<title>PF00067</title>
			<polygon class="PF00067" points="369,18 371,18 384,31 384,31 371,44 369,44" stroke-linejoin="round" width="15" height="26" fill="rgb(85,216,107)" stroke="rgb(68,172,85)" stroke-width="1" opacity="0.75" />
		</g>
	</g>
	<g>
		<title>chryY</title>
		<polygon class="chryY" points="388,16 388,16 388,1 394,31 388,61 388,46 388,46" fill="rgb(178,232,251)" fill-opacity="1.0" stroke="rgb(71,92,100)" stroke-width="1" />
		<g>
			<title>PF13459</title>
			<polygon class="PF13459" points="388,18 388,18 391,31 388,44 388,44" stroke-linejoin="round" width="5" height="26" fill="rgb(138,59,179)" stroke="rgb(110,47,143)" stroke-width="1" opacity="0.75" />
		</g>
	</g>
	<g>
		<title>chryP</title>
		<polygon class="chryP" points="396,16 398,16 398,1 428,31 398,61 398,46 396,46" fill="rgb(244,194,254)" fill-opacity="1.0" stroke="rgb(97,77,101)" stroke-width="1" />
		<g>
			<title>PF00698</title>
			<polygon class="PF00698" points="396,18 412,18 425,31 425,31 412,44 396,44" stroke-linejoin="round" width="29" height="26" fill="rgb(59,176,209)" stroke="rgb(47,140,167)" stroke-width="1" opacity="0.75" />
		</g>
	</g>
	<g>
		<title>chryQ</title>
		<polygon class="chryQ" points="428,16 430,16 430,1 460,31 430,61 430,46 428,46" fill="rgb(196,217,251)" fill-opacity="1.0" stroke="rgb(78,86,100)" stroke-width="1" />
		<g>
			<title>PF00698</title>
			<polygon class="PF00698" points="428,18 444,18 457,31 457,31 444,44 428,44" stroke-linejoin="round" width="29" height="26" fill="rgb(59,176,209)" stroke="rgb(47,140,167)" stroke-width="1" opacity="0.75" />
		</g>
	</g>
	<g>
		<title>chryX1</title>
		<polygon class="chryX1" points="490,16 490,16 490,1 464,31 490,61 490,46 490,46" fill="rgb(187,240,250)" fill-opacity="1.0" stroke="rgb(74,96,100)" stroke-width="1" />
	</g>
	<g>
		<title>chryX2</title>
		<polygon class="chryX2" points="523,16 523,16 523,1 503,31 523,61 523,46 523,46" fill="rgb(237,252,201)" fill-opacity="1.0" stroke="rgb(94,100,80)" stroke-width="1" />
		<g>
			<title>PF00196</title>
			<polygon class="PF00196" points="505,31 508,27 508,34" stroke-linejoin="round" width="5" height="26" fill="rgb(219,94,82)" stroke="rgb(175,75,65)" stroke-width="1" opacity="0.75" />
		</g>
		<g>
			<title>PF00072</title>
			<polygon class="PF00072" points="511,22 514,18 522,18 522,44 514,44 511,39" stroke-linejoin="round" width="11" height="26" fill="rgb(100,107,203)" stroke="rgb(80,85,162)" stroke-width="1" opacity="0.75" />
		</g>
	</g>
	<g>
		<title>chryE</title>
		<polygon class="chryE" points="563,16 561,16 561,1 531,31 561,61 561,46 563,46" fill="rgb(210,227,250)" fill-opacity="1.0" stroke="rgb(84,90,100)" stroke-width="1" />
		<g>
			<title>PF16363</title>
			<polygon class="PF16363" points="533,31 546,18 563,18 563,44 546,44" stroke-linejoin="round" width="30" height="26" fill="rgb(162,221,65)" stroke="rgb(129,176,51)" stroke-width="1" opacity="0.75" />
		</g>
	</g>
	<g>
		<title>chryX</title>
		<polygon class="chryX" points="16,16 16,16 16,1 1,31 16,61 16,46 16,46" fill="rgb(254,188,181)" fill-opacity="1.0" stroke="rgb(101,75,72)" stroke-width="1" />
	</g>
	<g>
		<title>chryD</title>
		<polygon class="chryD" points="599,16 594,16 594,1 564,31 594,61 594,46 599,46" fill="rgb(232,214,253)" fill-opacity="1.0" stroke="rgb(92,85,101)" stroke-width="1" />
		<g>
			<title>PF00483</title>
			<polygon class="PF00483" points="575,22 579,18 598,18 598,44 579,44 575,39" stroke-linejoin="round" width="23" height="26" fill="rgb(198,101,87)" stroke="rgb(158,80,69)" stroke-width="1" opacity="0.75" />
		</g>
	</g>
	<g>
		<title>chryJ</title>
		<polygon class="chryJ" points="663,16 636,16 636,1 606,31 636,61 636,46 663,46" fill="rgb(212,189,253)" fill-opacity="1.0" stroke="rgb(84,75,101)" stroke-width="1" />
	</g>
	<g>
		<title>chryX3</title>
		<polygon class="chryX3" points="666,16 666,16 666,1 685,31 666,61 666,46 666,46" fill="rgb(202,253,209)" fill-opacity="1.0" stroke="rgb(80,101,83)" stroke-width="1" />
		<g>
			<title>PF12802</title>
			<polygon class="PF12802" points="671,18 674,18 677,23 677,39 674,44 671,44" stroke-linejoin="round" width="6" height="26" fill="rgb(46,89,185)" stroke="rgb(36,71,148)" stroke-width="1" opacity="0.75" />
		</g>
	</g>
	<g>
		<title>chryGT</title>
		<polygon class="chryGT" points="694,16 702,16 702,1 732,31 702,61 702,46 694,46" fill="rgb(251,236,212)" fill-opacity="1.0" stroke="rgb(100,94,84)" stroke-width="1" />
		<g>
			<title>PF06722</title>
			<polygon class="PF06722" points="711,18 716,18 720,22 720,40 716,44 711,44" stroke-linejoin="round" width="9" height="26" fill="rgb(200,129,88)" stroke="rgb(160,103,70)" stroke-width="1" opacity="0.75" />
		</g>
	</g>
	<g>
		<title>chryMT</title>
		<polygon class="chryMT" points="736,16 740,16 740,1 770,31 740,61 740,46 736,46" fill="rgb(234,178,254)" fill-opacity="1.0" stroke="rgb(93,71,101)" stroke-width="1" />
		<g>
			<title>PF16864</title>
			<rect class="PF16864" x="737" y="18" stroke-linejoin="round" width="8" height="26" fill="rgb(84,199,85)" stroke="rgb(67,159,68)" stroke-width="1" opacity="0.75" />
		</g>
		<g>
			<title>PF00891</title>
			<polygon class="PF00891" points="746,18 754,18 767,31 754,44 746,44" stroke-linejoin="round" width="22" height="26" fill="rgb(50,51,190)" stroke="rgb(39,40,152)" stroke-width="1" opacity="0.75" />
		</g>
	</g>
	<g>
		<title>chryOII</title>
		<polygon class="chryOII" points="773,16 773,16 773,1 796,31 773,61 773,46 773,46" fill="rgb(254,218,207)" fill-opacity="1.0" stroke="rgb(101,87,82)" stroke-width="1" />
		<g>
			<title>PF03992</title>
			<polygon class="PF03992" points="783,18 783,18 793,31 793,31 783,44 783,44" stroke-linejoin="round" width="10" height="26" fill="rgb(193,84,127)" stroke="rgb(154,67,101)" stroke-width="1" opacity="0.75" />
		</g>
	</g>
	<g>
		<title>chryRM</title>
		<polygon class="chryRM" points="797,16 843,16 843,1 873,31 843,61 843,46 797,46" fill="rgb(189,254,215)" fill-opacity="1.0" stroke="rgb(75,101,86)" stroke-width="1" />
		<g>
			<title>PF01565</title>
			<rect class="PF01565" x="801" y="18" stroke-linejoin="round" width="13" height="26" fill="rgb(226,88,136)" stroke="rgb(180,70,108)" stroke-width="1" opacity="0.75" />
		</g>
		<g>
			<title>PF08031</title>
			<rect class="PF08031" x="843" y="18" stroke-linejoin="round" width="5" height="26" fill="rgb(210,73,83)" stroke="rgb(168,58,66)" stroke-width="1" opacity="0.75" />
		</g>
		<g>
			<title>PF13649</title>
			<polygon class="PF13649" points="854,18 857,18 863,24 863,38 857,44 854,44" stroke-linejoin="round" width="9" height="26" fill="rgb(227,135,74)" stroke="rgb(181,108,59)" stroke-width="1" opacity="0.75" />
		</g>
	</g>
	<g>
		<title>chryU</title>
		<polygon class="chryU" points="877,16 877,16 877,1 907,31 877,61 877,46 877,46" fill="rgb(251,210,224)" fill-opacity="1.0" stroke="rgb(100,84,89)" stroke-width="1" />
		<g>
			<title>PF04321</title>
			<polygon class="PF04321" points="877,18 891,18 904,31 891,44 877,44" stroke-linejoin="round" width="28" height="26" fill="rgb(196,203,60)" stroke="rgb(156,162,47)" stroke-width="1" opacity="0.75" />
		</g>
	</g>
	<g>
		<title>chryCMT</title>
		<polygon class="chryCMT" points="908,16 919,16 919,1 949,31 919,61 919,46 908,46" fill="rgb(250,194,232)" fill-opacity="1.0" stroke="rgb(100,77,92)" stroke-width="1" />
		<g>
			<title>PF08421</title>
			<rect class="PF08421" x="908" y="18" stroke-linejoin="round" width="6" height="26" fill="rgb(209,96,160)" stroke="rgb(167,76,128)" stroke-width="1" opacity="0.75" />
		</g>
		<g>
			<title>PF13489</title>
			<rect class="PF13489" x="915" y="18" stroke-linejoin="round" width="17" height="26" fill="rgb(188,189,66)" stroke="rgb(150,151,52)" stroke-width="1" opacity="0.75" />
		</g>
		<g>
			<title>PF08484</title>
			<polygon class="PF08484" points="932,18 933,18 946,31 933,44 932,44" stroke-linejoin="round" width="15" height="26" fill="rgb(229,72,107)" stroke="rgb(183,57,85)" stroke-width="1" opacity="0.75" />
		</g>
	</g>
	<g>
		<title>chryX4</title>
		<polygon class="chryX4" points="951,16 952,16 952,1 982,31 952,61 952,46 951,46" fill="rgb(219,252,202)" fill-opacity="1.0" stroke="rgb(87,100,80)" stroke-width="1" />
		<g>
			<title>PF00294</title>
			<polygon class="PF00294" points="952,18 966,18 979,31 966,44 952,44" stroke-linejoin="round" width="28" height="26" fill="rgb(153,96,212)" stroke="rgb(122,76,169)" stroke-width="1" opacity="0.75" />
		</g>
	</g>
	<g>
		<title>chryF</title>
		<polygon class="chryF" points="30,16 30,16 30,1 56,31 30,61 30,46 30,46" fill="rgb(197,251,242)" fill-opacity="1.0" stroke="rgb(78,100,96)" stroke-width="1" />
		<g>
			<title>PF00106</title>
			<polygon class="PF00106" points="30,18 42,18 49,26 49,36 42,44 30,44" stroke-linejoin="round" width="19" height="26" fill="rgb(182,219,73)" stroke="rgb(145,175,58)" stroke-width="1" opacity="0.75" />
		</g>
	</g>
	<g>
		<title>chryL</title>
		<polygon class="chryL" points="1008,16 1008,16 1008,1 987,31 1008,61 1008,46 1008,46" fill="rgb(185,232,254)" fill-opacity="1.0" stroke="rgb(74,92,101)" stroke-width="1" />
		<g>
			<title>PF13460</title>
			<polygon class="PF13460" points="989,31 998,18 1007,18 1007,44 998,44" stroke-linejoin="round" width="19" height="26" fill="rgb(188,201,78)" stroke="rgb(150,160,62)" stroke-width="1" opacity="0.75" />
		</g>
	</g>
	<g>
		<title>chryX5</title>
		<polygon class="chryX5" points="1012,16 1012,16 1012,1 1032,31 1012,61 1012,46 1012,46" fill="rgb(200,253,227)" fill-opacity="1.0" stroke="rgb(80,101,90)" stroke-width="1" />
		<g>
			<title>PF00440</title>
			<rect class="PF00440" x="1013" y="18" stroke-linejoin="round" width="4" height="26" fill="rgb(73,212,190)" stroke="rgb(58,169,152)" stroke-width="1" opacity="0.75" />
		</g>
	</g>
	<g>
		<title>chryX6</title>
		<polygon class="chryX6" points="1047,16 1047,16 1047,1 1034,31 1047,61 1047,46 1047,46" fill="rgb(200,251,204)" fill-opacity="1.0" stroke="rgb(80,100,81)" stroke-width="1" />
		<g>
			<title>PF01740</title>
			<polygon class="PF01740" points="1036,31 1042,18 1046,18 1046,44 1042,44" stroke-linejoin="round" width="10" height="26" fill="rgb(219,58,116)" stroke="rgb(175,46,92)" stroke-width="1" opacity="0.75" />
		</g>
	</g>
	<g>
		<title>chryX7</title>
		<polygon class="chryX7" points="1061,16 1061,16 1061,1 1049,31 1061,61 1061,46 1061,46" fill="rgb(191,192,249)" fill-opacity="1.0" stroke="rgb(76,76,99)" stroke-width="1" />
		<g>
			<title>PF04343</title>
			<polygon class="PF04343" points="1051,31 1056,18 1060,18 1060,44 1056,44" stroke-linejoin="round" width="11" height="26" fill="rgb(200,173,51)" stroke="rgb(160,138,40)" stroke-width="1" opacity="0.75" />
		</g>
	</g>
	<g>
		<title>chryX8</title>
		<polygon class="chryX8" points="1080,16 1080,16 1080,1 1100,31 1080,61 1080,46 1080,46" fill="rgb(241,189,251)" fill-opacity="1.0" stroke="rgb(96,75,100)" stroke-width="1" />
		<g>
			<title>PF00440</title>
			<rect class="PF00440" x="1082" y="18" stroke-linejoin="round" width="4" height="26" fill="rgb(73,212,190)" stroke="rgb(58,169,152)" stroke-width="1" opacity="0.75" />
		</g>
	</g>
	<g>
		<title>chryX9</title>
		<polygon class="chryX9" points="1101,16 1125,16 1125,1 1155,31 1125,61 1125,46 1101,46" fill="rgb(219,211,254)" fill-opacity="1.0" stroke="rgb(87,84,101)" stroke-width="1" />
		<g>
			<title>PF02770</title>
			<rect class="PF02770" x="1119" y="18" stroke-linejoin="round" width="9" height="26" fill="rgb(225,186,97)" stroke="rgb(180,148,77)" stroke-width="1" opacity="0.75" />
		</g>
		<g>
			<title>PF00441</title>
			<polygon class="PF00441" points="1129,18 1139,18 1144,23 1144,39 1139,44 1129,44" stroke-linejoin="round" width="15" height="26" fill="rgb(85,191,117)" stroke="rgb(68,152,93)" stroke-width="1" opacity="0.75" />
		</g>
	</g>
	<g>
		<title>chryV</title>
		<polygon class="chryV" points="61,16 61,16 61,1 72,31 61,61 61,46 61,46" fill="rgb(254,213,187)" fill-opacity="1.0" stroke="rgb(101,85,74)" stroke-width="1" />
		<g>
			<title>PF17074</title>
			<polygon class="PF17074" points="61,18 64,18 69,31 64,44 61,44" stroke-linejoin="round" width="10" height="26" fill="rgb(225,206,72)" stroke="rgb(180,164,57)" stroke-width="1" opacity="0.75" />
		</g>
	</g>
	<g>
		<title>chryH</title>
		<polygon class="chryH" points="75,16 75,16 75,1 94,31 75,61 75,46 75,46" fill="rgb(191,250,220)" fill-opacity="1.0" stroke="rgb(76,100,88)" stroke-width="1" />
		<g>
			<title>PF03358</title>
			<polygon class="PF03358" points="75,18 83,18 89,27 89,35 83,44 75,44" stroke-linejoin="round" width="14" height="26" fill="rgb(90,228,61)" stroke="rgb(72,182,48)" stroke-width="1" opacity="0.75" />
		</g>
	</g>
	<g>
		<title>chryOI</title>
		<polygon class="chryOI" points="94,16 115,16 115,1 145,31 115,61 115,46 94,46" fill="rgb(233,206,250)" fill-opacity="1.0" stroke="rgb(93,82,100)" stroke-width="1" />
		<g>
			<title>PF01494</title>
			<rect class="PF01494" x="96" y="18" stroke-linejoin="round" width="33" height="26" fill="rgb(182,175,59)" stroke="rgb(145,140,47)" stroke-width="1" opacity="0.75" />
		</g>
	</g>
	<g>
		<title>chryG</title>
		<polygon class="chryG" points="147,16 147,16 147,1 158,31 147,61 147,46 147,46" fill="rgb(253,185,229)" fill-opacity="1.0" stroke="rgb(101,74,91)" stroke-width="1" />
		<g>
			<title>PF04673</title>
			<polygon class="PF04673" points="147,18 150,18 155,31 150,44 147,44" stroke-linejoin="round" width="10" height="26" fill="rgb(49,187,78)" stroke="rgb(39,149,62)" stroke-width="1" opacity="0.75" />
		</g>
	</g>
	<g>
		<title>chryC1</title>
		<polygon class="chryC1" points="159,16 159,16 159,1 167,31 159,61 159,46 159,46" fill="rgb(237,252,194)" fill-opacity="1.0" stroke="rgb(94,100,77)" stroke-width="1" />
		<g>
			<title>PF00550</title>
			<polygon class="PF00550" points="159,18 161,18 164,31 161,44 159,44" stroke-linejoin="round" width="7" height="26" fill="rgb(103,191,88)" stroke="rgb(82,152,70)" stroke-width="1" opacity="0.75" />
		</g>
	</g>
	<g>
		<title>chryK</title>
		<polygon class="chryK" points="170,16 171,16 171,1 201,31 171,61 171,46 170,46" fill="rgb(227,214,252)" fill-opacity="1.0" stroke="rgb(90,85,100)" stroke-width="1" />
		<g>
			<title>PF10604</title>
			<rect class="PF10604" x="170" y="18" stroke-linejoin="round" width="14" height="26" fill="rgb(105,204,74)" stroke="rgb(84,163,59)" stroke-width="1" opacity="0.75" />
		</g>
		<g>
			<title>PF10604</title>
			<polygon class="PF10604" points="185,18 185,18 198,31 185,44 185,44" stroke-linejoin="round" width="15" height="26" fill="rgb(105,204,74)" stroke="rgb(84,163,59)" stroke-width="1" opacity="0.75" />
		</g>
	</g>
	<g>
		<title>chryOIV</title>
		<polygon class="chryOIV" points="202,16 221,16 221,1 251,31 221,61 221,46 202,46" fill="rgb(227,253,200)" fill-opacity="1.0" stroke="rgb(90,101,80)" stroke-width="1" />
		<g>
			<title>PF01494</title>
			<rect class="PF01494" x="202" y="18" stroke-linejoin="round" width="33" height="26" fill="rgb(182,175,59)" stroke="rgb(145,140,47)" stroke-width="1" opacity="0.75" />
		</g>
	</g>
</svg>
