<svg version="1.1" baseProfile="full" xmlns="http://www.w3.org/2000/svg" width="1046" height="62">
	<line x1="1" y1="31" x2="1045" y2="31" style="stroke:rgb(50,50,50); stroke-width:3 "/>
	<g>
		<title>Rdc1</title>
		<polygon class="Rdc1" points="256,16 77,16 77,1 47,31 77,61 77,46 256,46" fill="rgb(179,251,215)" fill-opacity="1.0" stroke="rgb(71,100,86)" stroke-width="1" />
		<g>
			<title>PF00975</title>
			<polygon class="PF00975" points="57,23 62,18 74,18 74,44 62,44 57,38" stroke-linejoin="round" width="17" height="26" fill="rgb(207,80,138)" stroke="rgb(165,63,110)" stroke-width="1" opacity="0.75" />
		</g>
		<g>
			<title>PF00550</title>
			<rect class="PF00550" x="83" y="18" stroke-linejoin="round" width="6" height="26" fill="rgb(103,191,88)" stroke="rgb(82,152,70)" stroke-width="1" opacity="0.75" />
		</g>
		<g>
			<title>PF14765</title>
			<rect class="PF14765" x="95" y="18" stroke-linejoin="round" width="31" height="26" fill="rgb(173,56,182)" stroke="rgb(138,44,145)" stroke-width="1" opacity="0.75" />
		</g>
		<g>
			<title>PF00698</title>
			<rect class="PF00698" x="132" y="18" stroke-linejoin="round" width="32" height="26" fill="rgb(59,176,209)" stroke="rgb(47,140,167)" stroke-width="1" opacity="0.75" />
		</g>
		<g>
			<title>PF16197</title>
			<rect class="PF16197" x="168" y="18" stroke-linejoin="round" width="12" height="26" fill="rgb(68,179,89)" stroke="rgb(54,143,71)" stroke-width="1" opacity="0.75" />
		</g>
		<g>
			<title>PF02801</title>
			<rect class="PF02801" x="180" y="18" stroke-linejoin="round" width="11" height="26" fill="rgb(215,78,102)" stroke="rgb(172,62,81)" stroke-width="1" opacity="0.75" />
		</g>
		<g>
			<title>PF00109</title>
			<rect class="PF00109" x="193" y="18" stroke-linejoin="round" width="25" height="26" fill="rgb(112,116,228)" stroke="rgb(89,92,182)" stroke-width="1" opacity="0.75" />
		</g>
		<g>
			<title>PF16073</title>
			<rect class="PF16073" x="231" y="18" stroke-linejoin="round" width="23" height="26" fill="rgb(77,115,183)" stroke="rgb(61,91,146)" stroke-width="1" opacity="0.75" />
		</g>
	</g>
	<g>
		<title>Rdc2</title>
		<polygon class="Rdc2" points="298,16 332,16 332,1 362,31 332,61 332,46 298,46" fill="rgb(196,233,251)" fill-opacity="1.0" stroke="rgb(78,93,100)" stroke-width="1" />
		<g>
			<title>PF04820</title>
			<rect class="PF04820" x="298" y="18" stroke-linejoin="round" width="10" height="26" fill="rgb(179,74,194)" stroke="rgb(143,59,155)" stroke-width="1" opacity="0.75" />
		</g>
	</g>
	<g>
		<title>Rdc3</title>
		<polygon class="Rdc3" points="412,16 442,16 442,1 472,31 442,61 442,46 412,46" fill="rgb(251,208,217)" fill-opacity="1.0" stroke="rgb(100,83,86)" stroke-width="1" />
		<g>
			<title>PF07690</title>
			<polygon class="PF07690" points="422,18 456,18 460,22 460,40 456,44 422,44" stroke-linejoin="round" width="38" height="26" fill="rgb(193,224,74)" stroke="rgb(154,179,59)" stroke-width="1" opacity="0.75" />
		</g>
	</g>
	<g>
		<title>Rdc4</title>
		<polygon class="Rdc4" points="698,16 675,16 675,1 645,31 675,61 675,46 698,46" fill="rgb(191,204,252)" fill-opacity="1.0" stroke="rgb(76,81,100)" stroke-width="1" />
		<g>
			<title>PF00067</title>
			<polygon class="PF00067" points="650,28 660,18 695,18 695,44 660,44 650,33" stroke-linejoin="round" width="45" height="26" fill="rgb(85,216,107)" stroke="rgb(68,172,85)" stroke-width="1" opacity="0.75" />
		</g>
	</g>
	<g>
		<title>Rdc5</title>
		<polygon class="Rdc5" points="769,16 979,16 979,1 1009,31 979,61 979,46 769,46" fill="rgb(177,186,252)" fill-opacity="1.0" stroke="rgb(70,74,100)" stroke-width="1" />
		<g>
			<title>PF00109</title>
			<rect class="PF00109" x="770" y="18" stroke-linejoin="round" width="25" height="26" fill="rgb(112,116,228)" stroke="rgb(89,92,182)" stroke-width="1" opacity="0.75" />
		</g>
		<g>
			<title>PF02801</title>
			<rect class="PF02801" x="796" y="18" stroke-linejoin="round" width="11" height="26" fill="rgb(215,78,102)" stroke="rgb(172,62,81)" stroke-width="1" opacity="0.75" />
		</g>
		<g>
			<title>PF16197</title>
			<rect class="PF16197" x="808" y="18" stroke-linejoin="round" width="12" height="26" fill="rgb(68,179,89)" stroke="rgb(54,143,71)" stroke-width="1" opacity="0.75" />
		</g>
		<g>
			<title>PF00698</title>
			<rect class="PF00698" x="823" y="18" stroke-linejoin="round" width="33" height="26" fill="rgb(59,176,209)" stroke="rgb(47,140,167)" stroke-width="1" opacity="0.75" />
		</g>
		<g>
			<title>PF14765</title>
			<rect class="PF14765" x="862" y="18" stroke-linejoin="round" width="32" height="26" fill="rgb(173,56,182)" stroke="rgb(138,44,145)" stroke-width="1" opacity="0.75" />
		</g>
		<g>
			<title>PF13602</title>
			<rect class="PF13602" x="952" y="18" stroke-linejoin="round" width="13" height="26" fill="rgb(101,131,226)" stroke="rgb(80,104,180)" stroke-width="1" opacity="0.75" />
		</g>
		<g>
			<title>PF08659</title>
			<rect class="PF08659" x="969" y="18" stroke-linejoin="round" width="18" height="26" fill="rgb(66,209,188)" stroke="rgb(52,167,150)" stroke-width="1" opacity="0.75" />
		</g>
		<g>
			<title>PF00550</title>
			<polygon class="PF00550" points="999,24 1004,29 1004,33 999,38" stroke-linejoin="round" width="5" height="26" fill="rgb(103,191,88)" stroke="rgb(82,152,70)" stroke-width="1" opacity="0.75" />
		</g>
	</g>
</svg>
