<svg version="1.1" baseProfile="full" xmlns="http://www.w3.org/2000/svg" width="335" height="62">
	<line x1="1" y1="31" x2="334" y2="31" style="stroke:rgb(50,50,50); stroke-width:3 "/>
	<g>
		<title>mdnA</title>
		<polygon class="mdnA" points="115,16 115,16 115,1 120,31 115,61 115,46 115,46" fill="rgb(228,204,250)" fill-opacity="1.0" stroke="rgb(91,81,100)" stroke-width="1" />
		<g>
			<title>PF12559</title>
			<polygon class="PF12559" points="115,18 115,18 117,31 115,44 115,44" stroke-linejoin="round" width="4" height="26" fill="rgb(179,147,51)" stroke="rgb(143,117,40)" stroke-width="1" opacity="0.75" />
		</g>
	</g>
	<g>
		<title>mdnB</title>
		<polygon class="mdnB" points="129,16 131,16 131,1 161,31 131,61 131,46 129,46" fill="rgb(250,203,245)" fill-opacity="1.0" stroke="rgb(100,81,98)" stroke-width="1" />
	</g>
	<g>
		<title>mdnC</title>
		<polygon class="mdnC" points="177,16 179,16 179,1 209,31 179,61 179,46 177,46" fill="rgb(197,230,252)" fill-opacity="1.0" stroke="rgb(78,92,100)" stroke-width="1" />
	</g>
	<g>
		<title>mdnD</title>
		<polygon class="mdnD" points="233,16 233,16 233,1 216,31 233,61 233,46 233,46" fill="rgb(197,248,253)" fill-opacity="1.0" stroke="rgb(78,99,101)" stroke-width="1" />
		<g>
			<title>PF13302</title>
			<polygon class="PF13302" points="218,31 225,18 231,18 231,44 225,44" stroke-linejoin="round" width="14" height="26" fill="rgb(105,146,215)" stroke="rgb(84,116,172)" stroke-width="1" opacity="0.75" />
		</g>
	</g>
	<g>
		<title>mdnE</title>
		<polygon class="mdnE" points="307,16 269,16 269,1 239,31 269,61 269,46 307,46" fill="rgb(195,218,253)" fill-opacity="1.0" stroke="rgb(78,87,101)" stroke-width="1" />
		<g>
			<title>PF00005</title>
			<polygon class="PF00005" points="254,18 254,18 267,18 267,44 254,44 254,43" stroke-linejoin="round" width="13" height="26" fill="rgb(129,201,63)" stroke="rgb(103,160,50)" stroke-width="1" opacity="0.75" />
		</g>
		<g>
			<title>PF06472</title>
			<rect class="PF06472" x="276" y="18" stroke-linejoin="round" width="26" height="26" fill="rgb(120,179,45)" stroke="rgb(96,143,36)" stroke-width="1" opacity="0.75" />
		</g>
	</g>
</svg>
