<svg version="1.1" baseProfile="full" xmlns="http://www.w3.org/2000/svg" width="376" height="62">
	<line x1="1" y1="31" x2="375" y2="31" style="stroke:rgb(50,50,50); stroke-width:3 "/>
	<g>
		<title>bhtR</title>
		<polygon class="bhtR" points="8,16 8,16 8,1 36,31 8,61 8,46 8,46" fill="rgb(236,201,252)" fill-opacity="1.0" stroke="rgb(94,80,100)" stroke-width="1" />
		<g>
			<title>PF12844</title>
			<rect class="PF12844" x="9" y="18" stroke-linejoin="round" width="6" height="26" fill="rgb(72,216,183)" stroke="rgb(57,172,146)" stroke-width="1" opacity="0.75" />
		</g>
	</g>
	<g>
		<title>bhtM1</title>
		<polygon class="bhtM1" points="48,16 111,16 111,1 141,31 111,61 111,46 48,46" fill="rgb(203,250,233)" fill-opacity="1.0" stroke="rgb(81,100,93)" stroke-width="1" />
		<g>
			<title>PF13575</title>
			<rect class="PF13575" x="59" y="18" stroke-linejoin="round" width="34" height="26" fill="rgb(228,84,217)" stroke="rgb(182,67,173)" stroke-width="1" opacity="0.75" />
		</g>
		<g>
			<title>PF05147</title>
			<polygon class="PF05147" points="105,18 125,18 138,31 125,44 105,44" stroke-linejoin="round" width="35" height="26" fill="rgb(129,182,79)" stroke="rgb(103,145,63)" stroke-width="1" opacity="0.75" />
		</g>
	</g>
	<g>
		<title>bhtF</title>
		<polygon class="bhtF" points="142,16 142,16 142,1 169,31 142,61 142,46 142,46" fill="rgb(189,233,251)" fill-opacity="1.0" stroke="rgb(75,93,100)" stroke-width="1" />
		<g>
			<title>PF00005</title>
			<polygon class="PF00005" points="143,18 154,18 155,19 155,43 154,44 143,44" stroke-linejoin="round" width="12" height="26" fill="rgb(129,201,63)" stroke="rgb(103,160,50)" stroke-width="1" opacity="0.75" />
		</g>
	</g>
	<g>
		<title>bhtE</title>
		<polygon class="bhtE" points="169,16 169,16 169,1 192,31 169,61 169,46 169,46" fill="rgb(199,254,237)" fill-opacity="1.0" stroke="rgb(79,101,94)" stroke-width="1" />
	</g>
	<g>
		<title>bhtM2</title>
		<polygon class="bhtM2" points="192,16 249,16 249,1 279,31 249,61 249,46 192,46" fill="rgb(215,250,205)" fill-opacity="1.0" stroke="rgb(86,100,82)" stroke-width="1" />
		<g>
			<title>PF13575</title>
			<rect class="PF13575" x="203" y="18" stroke-linejoin="round" width="35" height="26" fill="rgb(228,84,217)" stroke="rgb(182,67,173)" stroke-width="1" opacity="0.75" />
		</g>
		<g>
			<title>PF05147</title>
			<polygon class="PF05147" points="248,18 263,18 276,31 263,44 248,44" stroke-linejoin="round" width="30" height="26" fill="rgb(129,182,79)" stroke="rgb(103,145,63)" stroke-width="1" opacity="0.75" />
		</g>
	</g>
	<g>
		<title>bhtT</title>
		<polygon class="bhtT" points="281,16 320,16 320,1 350,31 320,61 320,46 281,46" fill="rgb(195,254,203)" fill-opacity="1.0" stroke="rgb(77,101,81)" stroke-width="1" />
		<g>
			<title>PF03412</title>
			<rect class="PF03412" x="281" y="18" stroke-linejoin="round" width="12" height="26" fill="rgb(214,226,77)" stroke="rgb(171,180,61)" stroke-width="1" opacity="0.75" />
		</g>
		<g>
			<title>PF00664</title>
			<rect class="PF00664" x="296" y="18" stroke-linejoin="round" width="27" height="26" fill="rgb(149,226,73)" stroke="rgb(119,180,58)" stroke-width="1" opacity="0.75" />
		</g>
		<g>
			<title>PF00005</title>
			<polygon class="PF00005" points="329,18 334,18 343,27 343,35 334,44 329,44" stroke-linejoin="round" width="14" height="26" fill="rgb(129,201,63)" stroke="rgb(103,160,50)" stroke-width="1" opacity="0.75" />
		</g>
	</g>
	<g>
		<title>bhtA_beta</title>
		<polygon class="bhtA_beta" points="354,16 354,16 354,1 360,31 354,61 354,46 354,46" fill="rgb(185,205,250)" fill-opacity="1.0" stroke="rgb(73,82,100)" stroke-width="1" />
	</g>
	<g>
		<title>bhtA_alpha</title>
		<polygon class="bhtA_alpha" points="361,16 361,16 361,1 367,31 361,61 361,46 361,46" fill="rgb(187,250,183)" fill-opacity="1.0" stroke="rgb(74,100,73)" stroke-width="1" />
		<g>
			<title>PF14867</title>
			<polygon class="PF14867" points="364,27 364,31 364,35" stroke-linejoin="round" width="3" height="26" fill="rgb(140,86,183)" stroke="rgb(111,68,146)" stroke-width="1" opacity="0.75" />
		</g>
	</g>
</svg>
