<svg version="1.1" baseProfile="full" xmlns="http://www.w3.org/2000/svg" width="1684" height="62">
	<line x1="1" y1="31" x2="1683" y2="31" style="stroke:rgb(50,50,50); stroke-width:3 "/>
	<g>
		<title>neoI</title>
		<polygon class="neoI" points="424,16 424,16 424,1 407,31 424,61 424,46 424,46" fill="rgb(254,189,252)" fill-opacity="1.0" stroke="rgb(101,75,100)" stroke-width="1" />
	</g>
	<g>
		<title>neoE</title>
		<polygon class="neoE" points="432,16 436,16 436,1 466,31 436,61 436,46 432,46" fill="rgb(216,182,254)" fill-opacity="1.0" stroke="rgb(86,72,101)" stroke-width="1" />
		<g>
			<title>PF08240</title>
			<rect class="PF08240" x="434" y="18" stroke-linejoin="round" width="10" height="26" fill="rgb(211,65,138)" stroke="rgb(168,51,110)" stroke-width="1" opacity="0.75" />
		</g>
		<g>
			<title>PF00107</title>
			<polygon class="PF00107" points="449,18 450,18 461,29 461,33 450,44 449,44" stroke-linejoin="round" width="12" height="26" fill="rgb(81,108,215)" stroke="rgb(64,86,172)" stroke-width="1" opacity="0.75" />
		</g>
	</g>
	<g>
		<title>neoS</title>
		<polygon class="neoS" points="469,16 481,16 481,1 511,31 481,61 481,46 469,46" fill="rgb(231,254,195)" fill-opacity="1.0" stroke="rgb(92,101,77)" stroke-width="1" />
		<g>
			<title>PF01041</title>
			<polygon class="PF01041" points="471,18 495,18 508,31 495,44 471,44" stroke-linejoin="round" width="38" height="26" fill="rgb(59,139,191)" stroke="rgb(47,111,152)" stroke-width="1" opacity="0.75" />
		</g>
	</g>
	<g>
		<title>neoC</title>
		<polygon class="neoC" points="517,16 530,16 530,1 560,31 530,61 530,46 517,46" fill="rgb(227,199,253)" fill-opacity="1.0" stroke="rgb(90,79,101)" stroke-width="1" />
		<g>
			<title>PF01761</title>
			<polygon class="PF01761" points="523,18 544,18 548,22 548,40 544,44 523,44" stroke-linejoin="round" width="25" height="26" fill="rgb(150,62,180)" stroke="rgb(120,49,144)" stroke-width="1" opacity="0.75" />
		</g>
	</g>
	<g>
		<title>neoM</title>
		<polygon class="neoM" points="565,16 577,16 577,1 607,31 577,61 577,46 565,46" fill="rgb(226,252,207)" fill-opacity="1.0" stroke="rgb(90,100,82)" stroke-width="1" />
		<g>
			<title>PF13579</title>
			<rect class="PF13579" x="567" y="18" stroke-linejoin="round" width="17" height="26" fill="rgb(143,60,202)" stroke="rgb(114,47,161)" stroke-width="1" opacity="0.75" />
		</g>
		<g>
			<title>PF00534</title>
			<polygon class="PF00534" points="586,18 591,18 603,30 603,32 591,44 586,44" stroke-linejoin="round" width="17" height="26" fill="rgb(228,92,150)" stroke="rgb(182,73,119)" stroke-width="1" opacity="0.75" />
		</g>
	</g>
	<g>
		<title>neoT</title>
		<polygon class="neoT" points="607,16 643,16 643,1 673,31 643,61 643,46 607,46" fill="rgb(239,185,253)" fill-opacity="1.0" stroke="rgb(95,74,101)" stroke-width="1" />
		<g>
			<title>PF00664</title>
			<rect class="PF00664" x="609" y="18" stroke-linejoin="round" width="27" height="26" fill="rgb(149,226,73)" stroke="rgb(119,180,58)" stroke-width="1" opacity="0.75" />
		</g>
		<g>
			<title>PF00005</title>
			<polygon class="PF00005" points="642,18 657,18 661,22 661,40 657,44 642,44" stroke-linejoin="round" width="19" height="26" fill="rgb(129,201,63)" stroke="rgb(103,160,50)" stroke-width="1" opacity="0.75" />
		</g>
	</g>
	<g>
		<title>neoU</title>
		<polygon class="neoU" points="673,16 702,16 702,1 732,31 702,61 702,46 673,46" fill="rgb(190,191,250)" fill-opacity="1.0" stroke="rgb(76,76,100)" stroke-width="1" />
		<g>
			<title>PF00664</title>
			<rect class="PF00664" x="675" y="18" stroke-linejoin="round" width="27" height="26" fill="rgb(149,226,73)" stroke="rgb(119,180,58)" stroke-width="1" opacity="0.75" />
		</g>
		<g>
			<title>PF00005</title>
			<polygon class="PF00005" points="709,18 716,18 723,25 723,37 716,44 709,44" stroke-linejoin="round" width="14" height="26" fill="rgb(129,201,63)" stroke="rgb(103,160,50)" stroke-width="1" opacity="0.75" />
		</g>
	</g>
	<g>
		<title>neoQ</title>
		<polygon class="neoQ" points="740,16 764,16 764,1 794,31 764,61 764,46 740,46" fill="rgb(188,212,250)" fill-opacity="1.0" stroke="rgb(75,84,100)" stroke-width="1" />
		<g>
			<title>PF00732</title>
			<rect class="PF00732" x="743" y="18" stroke-linejoin="round" width="29" height="26" fill="rgb(180,89,214)" stroke="rgb(143,71,171)" stroke-width="1" opacity="0.75" />
		</g>
		<g>
			<title>PF05199</title>
			<polygon class="PF05199" points="780,20 791,31 780,42" stroke-linejoin="round" width="12" height="26" fill="rgb(186,52,106)" stroke="rgb(148,41,84)" stroke-width="1" opacity="0.75" />
		</g>
	</g>
	<g>
		<title>neoN</title>
		<polygon class="neoN" points="800,16 800,16 800,1 830,31 800,61 800,46 800,46" fill="rgb(251,212,201)" fill-opacity="1.0" stroke="rgb(100,84,80)" stroke-width="1" />
		<g>
			<title>PF04055</title>
			<polygon class="PF04055" points="802,18 814,18 816,20 816,42 814,44 802,44" stroke-linejoin="round" width="14" height="26" fill="rgb(149,56,222)" stroke="rgb(119,44,177)" stroke-width="1" opacity="0.75" />
		</g>
	</g>
	<g>
		<title>neoP</title>
		<polygon class="neoP" points="829,16 829,16 829,1 852,31 829,61 829,46 829,46" fill="rgb(251,236,182)" fill-opacity="1.0" stroke="rgb(100,94,72)" stroke-width="1" />
		<g>
			<title>PF00300</title>
			<polygon class="PF00300" points="836,18 839,18 849,31 839,44 836,44" stroke-linejoin="round" width="15" height="26" fill="rgb(135,184,63)" stroke="rgb(107,147,50)" stroke-width="1" opacity="0.75" />
		</g>
	</g>
	<g>
		<polygon class="NoName" points="1,16 25,16 25,1 55,31 25,61 25,46 1,46" fill="rgb(255,255,255)" fill-opacity="1.0" stroke="rgb(50,50,50)" stroke-width="1" />
	</g>
	<g>
		<title>neoX</title>
		<polygon class="neoX" points="853,16 853,16 853,1 861,31 853,61 853,46 853,46" fill="rgb(212,252,242)" fill-opacity="1.0" stroke="rgb(84,100,96)" stroke-width="1" />
	</g>
	<g>
		<title>neoF</title>
		<polygon class="neoF" points="861,16 867,16 867,1 897,31 867,61 867,46 861,46" fill="rgb(247,252,210)" fill-opacity="1.0" stroke="rgb(98,100,84)" stroke-width="1" />
	</g>
	<g>
		<title>neoD</title>
		<polygon class="neoD" points="897,16 897,16 897,1 925,31 897,61 897,46 897,46" fill="rgb(203,200,250)" fill-opacity="1.0" stroke="rgb(81,80,100)" stroke-width="1" />
		<g>
			<title>PF02585</title>
			<polygon class="PF02585" points="899,18 910,18 913,22 913,40 910,44 899,44" stroke-linejoin="round" width="14" height="26" fill="rgb(97,215,95)" stroke="rgb(77,172,76)" stroke-width="1" opacity="0.75" />
		</g>
	</g>
	<g>
		<title>neoL</title>
		<polygon class="neoL" points="998,16 962,16 962,1 932,31 962,61 962,46 998,46" fill="rgb(175,250,193)" fill-opacity="1.0" stroke="rgb(69,100,77)" stroke-width="1" />
	</g>
	<g>
		<title>neoB</title>
		<polygon class="neoB" points="1002,16 1013,16 1013,1 1043,31 1013,61 1013,46 1002,46" fill="rgb(199,254,206)" fill-opacity="1.0" stroke="rgb(79,101,82)" stroke-width="1" />
		<g>
			<title>PF00202</title>
			<rect class="PF00202" x="1003" y="18" stroke-linejoin="round" width="12" height="26" fill="rgb(49,163,189)" stroke="rgb(39,130,151)" stroke-width="1" opacity="0.75" />
		</g>
		<g>
			<title>PF00202</title>
			<polygon class="PF00202" points="1017,18 1027,18 1036,27 1036,35 1027,44 1017,44" stroke-linejoin="round" width="19" height="26" fill="rgb(49,163,189)" stroke="rgb(39,130,151)" stroke-width="1" opacity="0.75" />
		</g>
	</g>
	<g>
		<title>neoA</title>
		<polygon class="neoA" points="1048,16 1147,16 1147,1 1177,31 1147,61 1147,46 1048,46" fill="rgb(254,217,214)" fill-opacity="1.0" stroke="rgb(101,86,85)" stroke-width="1" />
	</g>
	<g>
		<title>aacC8</title>
		<polygon class="aacC8" points="1211,16 1211,16 1211,1 1183,31 1211,61 1211,46 1211,46" fill="rgb(185,212,253)" fill-opacity="1.0" stroke="rgb(74,84,101)" stroke-width="1" />
		<g>
			<title>PF02522</title>
			<polygon class="PF02522" points="1185,31 1197,18 1208,18 1208,44 1197,44" stroke-linejoin="round" width="24" height="26" fill="rgb(93,59,220)" stroke="rgb(74,47,176)" stroke-width="1" opacity="0.75" />
		</g>
	</g>
	<g>
		<title>neoR</title>
		<polygon class="neoR" points="1313,16 1255,16 1255,1 1225,31 1255,61 1255,46 1313,46" fill="rgb(254,218,208)" fill-opacity="1.0" stroke="rgb(101,87,83)" stroke-width="1" />
		<g>
			<title>PF13191</title>
			<rect class="PF13191" x="1295" y="18" stroke-linejoin="round" width="17" height="26" fill="rgb(186,102,77)" stroke="rgb(148,81,61)" stroke-width="1" opacity="0.75" />
		</g>
	</g>
	<g>
		<title>neoY</title>
		<polygon class="neoY" points="1314,16 1314,16 1314,1 1321,31 1314,61 1314,46 1314,46" fill="rgb(182,253,190)" fill-opacity="1.0" stroke="rgb(72,101,76)" stroke-width="1" />
	</g>
	<g>
		<polygon class="NoName" points="1324,16 1324,16 1324,1 1341,31 1324,61 1324,46 1324,46" fill="rgb(255,255,255)" fill-opacity="1.0" stroke="rgb(50,50,50)" stroke-width="1" />
		<g>
			<title>PF03745</title>
			<polygon class="PF03745" points="1328,18 1331,18 1334,23 1334,39 1331,44 1328,44" stroke-linejoin="round" width="6" height="26" fill="rgb(226,131,98)" stroke="rgb(180,104,78)" stroke-width="1" opacity="0.75" />
		</g>
	</g>
	<g>
		<polygon class="NoName" points="55,16 56,16 56,1 86,31 56,61 56,46 55,46" fill="rgb(255,255,255)" fill-opacity="1.0" stroke="rgb(50,50,50)" stroke-width="1" />
		<g>
			<title>PF07728</title>
			<polygon class="PF07728" points="60,18 70,18 76,24 76,38 70,44 60,44" stroke-linejoin="round" width="16" height="26" fill="rgb(216,227,88)" stroke="rgb(172,181,70)" stroke-width="1" opacity="0.75" />
		</g>
	</g>
	<g>
		<polygon class="NoName" points="1362,16 1362,16 1362,1 1348,31 1362,61 1362,46 1362,46" fill="rgb(255,255,255)" fill-opacity="1.0" stroke="rgb(50,50,50)" stroke-width="1" />
		<g>
			<title>PF04343</title>
			<polygon class="PF04343" points="1350,31 1356,18 1359,18 1359,44 1356,44" stroke-linejoin="round" width="11" height="26" fill="rgb(200,173,51)" stroke="rgb(160,138,40)" stroke-width="1" opacity="0.75" />
		</g>
	</g>
	<g>
		<polygon class="NoName" points="1415,16 1400,16 1400,1 1370,31 1400,61 1400,46 1415,46" fill="rgb(255,255,255)" fill-opacity="1.0" stroke="rgb(50,50,50)" stroke-width="1" />
		<g>
			<title>PF02839</title>
			<polygon class="PF02839" points="1372,31 1374,29 1374,32" stroke-linejoin="round" width="4" height="26" fill="rgb(63,218,156)" stroke="rgb(50,174,124)" stroke-width="1" opacity="0.75" />
		</g>
		<g>
			<title>PF02983</title>
			<rect class="PF02983" x="1396" y="18" stroke-linejoin="round" width="5" height="26" fill="rgb(180,74,226)" stroke="rgb(144,59,180)" stroke-width="1" opacity="0.75" />
		</g>
	</g>
	<g>
		<polygon class="NoName" points="1450,16 1449,16 1449,1 1419,31 1449,61 1449,46 1450,46" fill="rgb(255,255,255)" fill-opacity="1.0" stroke="rgb(50,50,50)" stroke-width="1" />
		<g>
			<title>PF03466</title>
			<polygon class="PF03466" points="1421,31 1434,18 1440,18 1440,44 1434,44" stroke-linejoin="round" width="20" height="26" fill="rgb(55,136,195)" stroke="rgb(44,108,156)" stroke-width="1" opacity="0.75" />
		</g>
		<g>
			<title>PF00126</title>
			<rect class="PF00126" x="1444" y="18" stroke-linejoin="round" width="5" height="26" fill="rgb(125,227,79)" stroke="rgb(99,181,63)" stroke-width="1" opacity="0.75" />
		</g>
	</g>
	<g>
		<polygon class="NoName" points="1461,16 1505,16 1505,1 1535,31 1505,61 1505,46 1461,46" fill="rgb(255,255,255)" fill-opacity="1.0" stroke="rgb(50,50,50)" stroke-width="1" />
		<g>
			<title>PF03971</title>
			<polygon class="PF03971" points="1461,18 1519,18 1532,31 1519,44 1461,44" stroke-linejoin="round" width="73" height="26" fill="rgb(188,70,62)" stroke="rgb(150,55,49)" stroke-width="1" opacity="0.75" />
		</g>
	</g>
	<g>
		<polygon class="NoName" points="1543,16 1576,16 1576,1 1606,31 1576,61 1576,46 1543,46" fill="rgb(255,255,255)" fill-opacity="1.0" stroke="rgb(50,50,50)" stroke-width="1" />
		<g>
			<title>PF00012</title>
			<polygon class="PF00012" points="1543,18 1590,18 1600,28 1600,34 1590,44 1543,44" stroke-linejoin="round" width="57" height="26" fill="rgb(60,173,201)" stroke="rgb(48,138,160)" stroke-width="1" opacity="0.75" />
		</g>
	</g>
	<g>
		<polygon class="NoName" points="1606,16 1606,16 1606,1 1617,31 1606,61 1606,46 1606,46" fill="rgb(255,255,255)" fill-opacity="1.0" stroke="rgb(50,50,50)" stroke-width="1" />
	</g>
	<g>
		<polygon class="NoName" points="1623,16 1623,16 1623,1 1638,31 1623,61 1623,46 1623,46" fill="rgb(255,255,255)" fill-opacity="1.0" stroke="rgb(50,50,50)" stroke-width="1" />
	</g>
	<g>
		<polygon class="NoName" points="1642,16 1642,16 1642,1 1667,31 1642,61 1642,46 1642,46" fill="rgb(255,255,255)" fill-opacity="1.0" stroke="rgb(50,50,50)" stroke-width="1" />
		<g>
			<title>PF10014</title>
			<polygon class="PF10014" points="1647,18 1653,18 1664,31 1653,44 1647,44" stroke-linejoin="round" width="19" height="26" fill="rgb(201,88,89)" stroke="rgb(160,70,71)" stroke-width="1" opacity="0.75" />
		</g>
	</g>
	<g>
		<polygon class="NoName" points="1682,16 1682,16 1682,1 1670,31 1682,61 1682,46 1682,46" fill="rgb(255,255,255)" fill-opacity="1.0" stroke="rgb(50,50,50)" stroke-width="1" />
	</g>
	<g>
		<polygon class="NoName" points="87,16 236,16 236,1 266,31 236,61 236,46 87,46" fill="rgb(255,255,255)" fill-opacity="1.0" stroke="rgb(50,50,50)" stroke-width="1" />
		<g>
			<title>PF09126</title>
			<polygon class="PF09126" points="238,18 250,18 263,31 250,44 238,44" stroke-linejoin="round" width="27" height="26" fill="rgb(125,182,79)" stroke="rgb(100,145,63)" stroke-width="1" opacity="0.75" />
		</g>
	</g>
	<g>
		<polygon class="NoName" points="270,16 270,16 270,1 278,31 270,61 270,46 270,46" fill="rgb(255,255,255)" fill-opacity="1.0" stroke="rgb(50,50,50)" stroke-width="1" />
	</g>
	<g>
		<polygon class="NoName" points="284,16 284,16 284,1 302,31 284,61 284,46 284,46" fill="rgb(255,255,255)" fill-opacity="1.0" stroke="rgb(50,50,50)" stroke-width="1" />
	</g>
	<g>
		<polygon class="NoName" points="304,16 304,16 304,1 295,31 304,61 304,46 304,46" fill="rgb(255,255,255)" fill-opacity="1.0" stroke="rgb(50,50,50)" stroke-width="1" />
	</g>
	<g>
		<title>aphA</title>
		<polygon class="aphA" points="333,16 333,16 333,1 307,31 333,61 333,46 333,46" fill="rgb(175,250,179)" fill-opacity="1.0" stroke="rgb(69,100,71)" stroke-width="1" />
		<g>
			<title>PF01636</title>
			<polygon class="PF01636" points="309,31 320,18 331,18 331,44 320,44" stroke-linejoin="round" width="24" height="26" fill="rgb(106,220,228)" stroke="rgb(84,176,182)" stroke-width="1" opacity="0.75" />
		</g>
	</g>
	<g>
		<title>neoG</title>
		<polygon class="neoG" points="377,16 364,16 364,1 334,31 364,61 364,46 377,46" fill="rgb(252,183,184)" fill-opacity="1.0" stroke="rgb(100,73,73)" stroke-width="1" />
	</g>
	<g>
		<title>neoH</title>
		<polygon class="neoH" points="394,16 394,16 394,1 377,31 394,61 394,46 394,46" fill="rgb(189,188,250)" fill-opacity="1.0" stroke="rgb(75,75,100)" stroke-width="1" />
	</g>
</svg>
