<svg version="1.1" baseProfile="full" xmlns="http://www.w3.org/2000/svg" width="1044" height="62">
	<line x1="1" y1="31" x2="1043" y2="31" style="stroke:rgb(50,50,50); stroke-width:3 "/>
	<g>
		<title>stsA</title>
		<polygon class="stsA" points="388,16 399,16 399,1 429,31 399,61 399,46 388,46" fill="rgb(254,192,218)" fill-opacity="1.0" stroke="rgb(101,76,87)" stroke-width="1" />
		<g>
			<title>PF01041</title>
			<polygon class="PF01041" points="389,18 413,18 420,25 420,37 413,44 389,44" stroke-linejoin="round" width="31" height="26" fill="rgb(59,139,191)" stroke="rgb(47,111,152)" stroke-width="1" opacity="0.75" />
		</g>
	</g>
	<g>
		<title>strO</title>
		<polygon class="strO" points="456,16 456,16 456,1 430,31 456,61 456,46 456,46" fill="rgb(252,207,232)" fill-opacity="1.0" stroke="rgb(100,82,92)" stroke-width="1" />
		<g>
			<title>PF00459</title>
			<polygon class="PF00459" points="432,31 443,18 455,18 455,44 443,44" stroke-linejoin="round" width="25" height="26" fill="rgb(67,210,137)" stroke="rgb(53,168,109)" stroke-width="1" opacity="0.75" />
		</g>
	</g>
	<g>
		<title>strN</title>
		<polygon class="strN" points="460,16 460,16 460,1 490,31 460,61 460,46 460,46" fill="rgb(217,196,254)" fill-opacity="1.0" stroke="rgb(86,78,101)" stroke-width="1" />
		<g>
			<title>PF01636</title>
			<polygon class="PF01636" points="462,18 474,18 486,30 486,32 474,44 462,44" stroke-linejoin="round" width="24" height="26" fill="rgb(106,220,228)" stroke="rgb(84,176,182)" stroke-width="1" opacity="0.75" />
		</g>
	</g>
	<g>
		<title>strB2</title>
		<polygon class="strB2" points="491,16 496,16 496,1 526,31 496,61 496,46 491,46" fill="rgb(235,251,211)" fill-opacity="1.0" stroke="rgb(94,100,84)" stroke-width="1" />
	</g>
	<g>
		<title>strM</title>
		<polygon class="strM" points="528,16 528,16 528,1 548,31 528,61 528,46 528,46" fill="rgb(189,217,253)" fill-opacity="1.0" stroke="rgb(75,86,101)" stroke-width="1" />
		<g>
			<title>PF00908</title>
			<polygon class="PF00908" points="528,18 536,18 545,31 545,31 536,44 528,44" stroke-linejoin="round" width="17" height="26" fill="rgb(184,89,121)" stroke="rgb(147,71,96)" stroke-width="1" opacity="0.75" />
		</g>
	</g>
	<g>
		<title>strL</title>
		<polygon class="strL" points="579,16 579,16 579,1 549,31 579,61 579,46 579,46" fill="rgb(251,191,243)" fill-opacity="1.0" stroke="rgb(100,76,97)" stroke-width="1" />
		<g>
			<title>PF04321</title>
			<polygon class="PF04321" points="551,31 564,18 578,18 578,44 564,44" stroke-linejoin="round" width="28" height="26" fill="rgb(196,203,60)" stroke="rgb(156,162,47)" stroke-width="1" opacity="0.75" />
		</g>
	</g>
	<g>
		<title>strE</title>
		<polygon class="strE" points="614,16 611,16 611,1 581,31 611,61 611,46 614,46" fill="rgb(189,242,252)" fill-opacity="1.0" stroke="rgb(75,96,100)" stroke-width="1" />
		<g>
			<title>PF16363</title>
			<polygon class="PF16363" points="583,31 596,18 613,18 613,44 596,44" stroke-linejoin="round" width="30" height="26" fill="rgb(162,221,65)" stroke="rgb(129,176,51)" stroke-width="1" opacity="0.75" />
		</g>
	</g>
	<g>
		<title>strD</title>
		<polygon class="strD" points="652,16 647,16 647,1 617,31 647,61 647,46 652,46" fill="rgb(252,249,202)" fill-opacity="1.0" stroke="rgb(100,99,80)" stroke-width="1" />
		<g>
			<title>PF00483</title>
			<polygon class="PF00483" points="628,22 632,18 651,18 651,44 632,44 628,39" stroke-linejoin="round" width="23" height="26" fill="rgb(198,101,87)" stroke="rgb(158,80,69)" stroke-width="1" opacity="0.75" />
		</g>
	</g>
	<g>
		<title>strR</title>
		<polygon class="strR" points="666,16 671,16 671,1 701,31 671,61 671,46 666,46" fill="rgb(199,200,251)" fill-opacity="1.0" stroke="rgb(79,80,100)" stroke-width="1" />
		<g>
			<title>PF02195</title>
			<rect class="PF02195" x="669" y="18" stroke-linejoin="round" width="8" height="26" fill="rgb(55,214,209)" stroke="rgb(44,171,167)" stroke-width="1" opacity="0.75" />
		</g>
	</g>
	<g>
		<title>aphD</title>
		<polygon class="aphD" points="709,16 709,16 709,1 739,31 709,61 709,46 709,46" fill="rgb(250,200,221)" fill-opacity="1.0" stroke="rgb(100,80,88)" stroke-width="1" />
		<g>
			<title>PF04655</title>
			<polygon class="PF04655" points="713,18 723,18 736,31 723,44 713,44" stroke-linejoin="round" width="24" height="26" fill="rgb(92,202,190)" stroke="rgb(73,161,152)" stroke-width="1" opacity="0.75" />
		</g>
	</g>
	<g>
		<title>strU</title>
		<polygon class="strU" points="43,16 31,16 31,1 1,31 31,61 31,46 43,46" fill="rgb(250,199,209)" fill-opacity="1.0" stroke="rgb(100,79,83)" stroke-width="1" />
		<g>
			<title>PF03447</title>
			<rect class="PF03447" x="28" y="18" stroke-linejoin="round" width="12" height="26" fill="rgb(89,165,190)" stroke="rgb(71,131,152)" stroke-width="1" opacity="0.75" />
		</g>
	</g>
	<g>
		<title>strB1</title>
		<polygon class="strB1" points="756,16 760,16 760,1 790,31 760,61 760,46 756,46" fill="rgb(228,211,253)" fill-opacity="1.0" stroke="rgb(91,84,101)" stroke-width="1" />
	</g>
	<g>
		<title>strF</title>
		<polygon class="strF" points="792,16 792,16 792,1 820,31 792,61 792,46 792,46" fill="rgb(184,191,252)" fill-opacity="1.0" stroke="rgb(73,76,100)" stroke-width="1" />
		<g>
			<title>PF13712</title>
			<polygon class="PF13712" points="792,18 805,18 812,26 812,36 805,44 792,44" stroke-linejoin="round" width="20" height="26" fill="rgb(220,96,135)" stroke="rgb(176,76,108)" stroke-width="1" opacity="0.75" />
		</g>
	</g>
	<g>
		<title>strG</title>
		<polygon class="strG" points="821,16 821,16 821,1 841,31 821,61 821,46 821,46" fill="rgb(254,239,205)" fill-opacity="1.0" stroke="rgb(101,95,82)" stroke-width="1" />
	</g>
	<g>
		<title>strH</title>
		<polygon class="strH" points="846,16 854,16 854,1 884,31 854,61 854,46 846,46" fill="rgb(252,201,250)" fill-opacity="1.0" stroke="rgb(100,80,99)" stroke-width="1" />
	</g>
	<g>
		<title>strI</title>
		<polygon class="strI" points="886,16 890,16 890,1 920,31 890,61 890,46 886,46" fill="rgb(253,211,207)" fill-opacity="1.0" stroke="rgb(101,84,82)" stroke-width="1" />
		<g>
			<title>PF01408</title>
			<rect class="PF01408" x="886" y="18" stroke-linejoin="round" width="12" height="26" fill="rgb(76,117,190)" stroke="rgb(60,93,152)" stroke-width="1" opacity="0.75" />
		</g>
		<g>
			<title>PF02894</title>
			<polygon class="PF02894" points="899,18 904,18 909,23 909,39 904,44 899,44" stroke-linejoin="round" width="10" height="26" fill="rgb(195,223,82)" stroke="rgb(155,178,65)" stroke-width="1" opacity="0.75" />
		</g>
	</g>
	<g>
		<title>strK</title>
		<polygon class="strK" points="921,16 936,16 936,1 966,31 936,61 936,46 921,46" fill="rgb(198,248,252)" fill-opacity="1.0" stroke="rgb(79,99,100)" stroke-width="1" />
		<g>
			<title>PF00245</title>
			<polygon class="PF00245" points="925,18 950,18 961,29 961,33 950,44 925,44" stroke-linejoin="round" width="36" height="26" fill="rgb(172,203,66)" stroke="rgb(137,162,52)" stroke-width="1" opacity="0.75" />
		</g>
		<g>
			<title>PF00245</title>
			<polygon class="PF00245" points="961,29 963,31 961,33" stroke-linejoin="round" width="4" height="26" fill="rgb(172,203,66)" stroke="rgb(137,162,52)" stroke-width="1" opacity="0.75" />
		</g>
	</g>
	<g>
		<title>strS</title>
		<polygon class="strS" points="970,16 977,16 977,1 1007,31 977,61 977,46 970,46" fill="rgb(235,197,253)" fill-opacity="1.0" stroke="rgb(93,78,101)" stroke-width="1" />
		<g>
			<title>PF01041</title>
			<polygon class="PF01041" points="971,18 991,18 1004,31 991,44 971,44" stroke-linejoin="round" width="36" height="26" fill="rgb(59,139,191)" stroke="rgb(47,111,152)" stroke-width="1" opacity="0.75" />
		</g>
	</g>
	<g>
		<title>strT</title>
		<polygon class="strT" points="1011,16 1012,16 1012,1 1042,31 1012,61 1012,46 1011,46" fill="rgb(204,250,245)" fill-opacity="1.0" stroke="rgb(81,100,98)" stroke-width="1" />
		<g>
			<title>PF00248</title>
			<polygon class="PF00248" points="1012,18 1026,18 1039,31 1026,44 1012,44" stroke-linejoin="round" width="28" height="26" fill="rgb(225,205,58)" stroke="rgb(180,164,46)" stroke-width="1" opacity="0.75" />
		</g>
	</g>
	<g>
		<title>strV</title>
		<polygon class="strV" points="59,16 87,16 87,1 117,31 87,61 87,46 59,46" fill="rgb(211,250,187)" fill-opacity="1.0" stroke="rgb(84,100,74)" stroke-width="1" />
		<g>
			<title>PF00664</title>
			<rect class="PF00664" x="62" y="18" stroke-linejoin="round" width="27" height="26" fill="rgb(149,226,73)" stroke="rgb(119,180,58)" stroke-width="1" opacity="0.75" />
		</g>
		<g>
			<title>PF00005</title>
			<polygon class="PF00005" points="94,18 101,18 108,25 108,37 101,44 94,44" stroke-linejoin="round" width="14" height="26" fill="rgb(129,201,63)" stroke="rgb(103,160,50)" stroke-width="1" opacity="0.75" />
		</g>
	</g>
	<g>
		<title>strW</title>
		<polygon class="strW" points="118,16 146,16 146,1 176,31 146,61 146,46 118,46" fill="rgb(192,223,250)" fill-opacity="1.0" stroke="rgb(76,89,100)" stroke-width="1" />
		<g>
			<title>PF00664</title>
			<rect class="PF00664" x="121" y="18" stroke-linejoin="round" width="26" height="26" fill="rgb(149,226,73)" stroke="rgb(119,180,58)" stroke-width="1" opacity="0.75" />
		</g>
		<g>
			<title>PF00005</title>
			<polygon class="PF00005" points="153,18 160,18 167,25 167,37 160,44 153,44" stroke-linejoin="round" width="14" height="26" fill="rgb(129,201,63)" stroke="rgb(103,160,50)" stroke-width="1" opacity="0.75" />
		</g>
	</g>
	<g>
		<title>stsG</title>
		<polygon class="stsG" points="178,16 178,16 178,1 203,31 178,61 178,46 178,46" fill="rgb(239,251,204)" fill-opacity="1.0" stroke="rgb(95,100,81)" stroke-width="1" />
		<g>
			<title>PF13649</title>
			<polygon class="PF13649" points="183,18 189,18 192,21 192,41 189,44 183,44" stroke-linejoin="round" width="9" height="26" fill="rgb(227,135,74)" stroke="rgb(181,108,59)" stroke-width="1" opacity="0.75" />
		</g>
	</g>
	<g>
		<title>stsF</title>
		<polygon class="stsF" points="206,16 206,16 206,1 229,31 206,61 206,46 206,46" fill="rgb(208,221,254)" fill-opacity="1.0" stroke="rgb(83,88,101)" stroke-width="1" />
	</g>
	<g>
		<title>stsE</title>
		<polygon class="stsE" points="228,16 231,16 231,1 261,31 231,61 231,46 228,46" fill="rgb(223,196,253)" fill-opacity="1.0" stroke="rgb(89,78,101)" stroke-width="1" />
		<g>
			<title>PF01636</title>
			<polygon class="PF01636" points="231,18 245,18 254,27 254,35 245,44 231,44" stroke-linejoin="round" width="23" height="26" fill="rgb(106,220,228)" stroke="rgb(84,176,182)" stroke-width="1" opacity="0.75" />
		</g>
	</g>
	<g>
		<title>stsD</title>
		<polygon class="stsD" points="261,16 261,16 261,1 283,31 261,61 261,46 261,46" fill="rgb(199,251,209)" fill-opacity="1.0" stroke="rgb(79,100,83)" stroke-width="1" />
		<g>
			<title>PF13419</title>
			<polygon class="PF13419" points="267,18 270,18 280,31 280,31 270,44 267,44" stroke-linejoin="round" width="13" height="26" fill="rgb(60,223,188)" stroke="rgb(48,178,150)" stroke-width="1" opacity="0.75" />
		</g>
	</g>
	<g>
		<title>stsC</title>
		<polygon class="stsC" points="326,16 314,16 314,1 284,31 314,61 314,46 326,46" fill="rgb(236,251,183)" fill-opacity="1.0" stroke="rgb(94,100,73)" stroke-width="1" />
		<g>
			<title>PF01041</title>
			<polygon class="PF01041" points="286,31 299,18 324,18 324,44 299,44" stroke-linejoin="round" width="39" height="26" fill="rgb(59,139,191)" stroke="rgb(47,111,152)" stroke-width="1" opacity="0.75" />
		</g>
	</g>
	<g>
		<title>stsB</title>
		<polygon class="stsB" points="335,16 355,16 355,1 385,31 355,61 355,46 335,46" fill="rgb(252,212,247)" fill-opacity="1.0" stroke="rgb(100,84,98)" stroke-width="1" />
	</g>
</svg>
