<svg version="1.1" baseProfile="full" xmlns="http://www.w3.org/2000/svg" width="1152" height="62">
	<line x1="1" y1="31" x2="1151" y2="31" style="stroke:rgb(50,50,50); stroke-width:3 "/>
	<g>
		<polygon class="NoName" points="311,16 311,16 311,1 341,31 311,61 311,46 311,46" fill="rgb(255,255,255)" fill-opacity="1.0" stroke="rgb(50,50,50)" stroke-width="1" />
		<g>
			<title>PF01965</title>
			<polygon class="PF01965" points="312,18 325,18 326,19 326,43 325,44 312,44" stroke-linejoin="round" width="14" height="26" fill="rgb(66,224,145)" stroke="rgb(52,179,116)" stroke-width="1" opacity="0.75" />
		</g>
		<g>
			<title>PF12833</title>
			<polygon class="PF12833" points="333,26 338,31 333,36" stroke-linejoin="round" width="7" height="26" fill="rgb(216,58,224)" stroke="rgb(172,46,179)" stroke-width="1" opacity="0.75" />
		</g>
	</g>
	<g>
		<polygon class="NoName" points="343,16 351,16 351,1 381,31 351,61 351,46 343,46" fill="rgb(255,255,255)" fill-opacity="1.0" stroke="rgb(50,50,50)" stroke-width="1" />
		<g>
			<title>PF06441</title>
			<rect class="PF06441" x="343" y="18" stroke-linejoin="round" width="10" height="26" fill="rgb(91,189,116)" stroke="rgb(72,151,92)" stroke-width="1" opacity="0.75" />
		</g>
	</g>
	<g>
		<polygon class="NoName" points="408,16 408,16 408,1 393,31 408,61 408,46 408,46" fill="rgb(255,255,255)" fill-opacity="1.0" stroke="rgb(50,50,50)" stroke-width="1" />
	</g>
	<g>
		<polygon class="NoName" points="452,16 449,16 449,1 419,31 449,61 449,46 452,46" fill="rgb(255,255,255)" fill-opacity="1.0" stroke="rgb(50,50,50)" stroke-width="1" />
		<g>
			<title>PF00891</title>
			<polygon class="PF00891" points="421,31 434,18 442,18 442,44 434,44" stroke-linejoin="round" width="22" height="26" fill="rgb(50,51,190)" stroke="rgb(39,40,152)" stroke-width="1" opacity="0.75" />
		</g>
		<g>
			<title>PF16864</title>
			<rect class="PF16864" x="443" y="18" stroke-linejoin="round" width="8" height="26" fill="rgb(84,199,85)" stroke="rgb(67,159,68)" stroke-width="1" opacity="0.75" />
		</g>
	</g>
	<g>
		<polygon class="NoName" points="469,16 469,16 469,1 453,31 469,61 469,46 469,46" fill="rgb(255,255,255)" fill-opacity="1.0" stroke="rgb(50,50,50)" stroke-width="1" />
		<g>
			<title>PF03284</title>
			<polygon class="PF03284" points="455,31 462,18 468,18 468,44 462,44" stroke-linejoin="round" width="15" height="26" fill="rgb(179,85,75)" stroke="rgb(143,68,60)" stroke-width="1" opacity="0.75" />
		</g>
	</g>
	<g>
		<polygon class="NoName" points="480,16 480,16 480,1 470,31 480,61 480,46 480,46" fill="rgb(255,255,255)" fill-opacity="1.0" stroke="rgb(50,50,50)" stroke-width="1" />
	</g>
	<g>
		<polygon class="NoName" points="501,16 501,16 501,1 481,31 501,61 501,46 501,46" fill="rgb(255,255,255)" fill-opacity="1.0" stroke="rgb(50,50,50)" stroke-width="1" />
		<g>
			<title>PF00857</title>
			<polygon class="PF00857" points="483,31 492,18 498,18 498,44 492,44" stroke-linejoin="round" width="17" height="26" fill="rgb(144,224,70)" stroke="rgb(115,179,56)" stroke-width="1" opacity="0.75" />
		</g>
	</g>
	<g>
		<polygon class="NoName" points="514,16 514,16 514,1 508,31 514,61 514,46 514,46" fill="rgb(255,255,255)" fill-opacity="1.0" stroke="rgb(50,50,50)" stroke-width="1" />
		<g>
			<title>PF13443</title>
			<polygon class="PF13443" points="510,31 513,18 514,18 514,44 513,44" stroke-linejoin="round" width="6" height="26" fill="rgb(210,216,86)" stroke="rgb(168,172,68)" stroke-width="1" opacity="0.75" />
		</g>
	</g>
	<g>
		<polygon class="NoName" points="531,16 531,16 531,1 515,31 531,61 531,46 531,46" fill="rgb(255,255,255)" fill-opacity="1.0" stroke="rgb(50,50,50)" stroke-width="1" />
		<g>
			<title>PF11188</title>
			<polygon class="PF11188" points="517,31 524,18 527,18 527,44 524,44" stroke-linejoin="round" width="12" height="26" fill="rgb(62,193,110)" stroke="rgb(49,154,88)" stroke-width="1" opacity="0.75" />
		</g>
	</g>
	<g>
		<polygon class="NoName" points="538,16 568,16 568,1 598,31 568,61 568,46 538,46" fill="rgb(255,255,255)" fill-opacity="1.0" stroke="rgb(50,50,50)" stroke-width="1" />
		<g>
			<title>PF00005</title>
			<polygon class="PF00005" points="575,18 582,18 590,26 590,36 582,44 575,44" stroke-linejoin="round" width="15" height="26" fill="rgb(129,201,63)" stroke="rgb(103,160,50)" stroke-width="1" opacity="0.75" />
		</g>
	</g>
	<g>
		<polygon class="NoName" points="19,16 19,16 19,1 1,31 19,61 19,46 19,46" fill="rgb(255,255,255)" fill-opacity="1.0" stroke="rgb(50,50,50)" stroke-width="1" />
		<g>
			<title>PF01978</title>
			<rect class="PF01978" x="12" y="18" stroke-linejoin="round" width="6" height="26" fill="rgb(175,92,191)" stroke="rgb(139,73,152)" stroke-width="1" opacity="0.75" />
		</g>
	</g>
	<g>
		<polygon class="NoName" points="606,16 606,16 606,1 599,31 606,61 606,46 606,46" fill="rgb(255,255,255)" fill-opacity="1.0" stroke="rgb(50,50,50)" stroke-width="1" />
	</g>
	<g>
		<polygon class="NoName" points="636,16 636,16 636,1 608,31 636,61 636,46 636,46" fill="rgb(255,255,255)" fill-opacity="1.0" stroke="rgb(50,50,50)" stroke-width="1" />
		<g>
			<title>PF00296</title>
			<polygon class="PF00296" points="610,31 622,18 636,18 636,44 622,44" stroke-linejoin="round" width="28" height="26" fill="rgb(180,112,78)" stroke="rgb(144,89,62)" stroke-width="1" opacity="0.75" />
		</g>
	</g>
	<g>
		<polygon class="NoName" points="671,16 667,16 667,1 637,31 667,61 667,46 671,46" fill="rgb(255,255,255)" fill-opacity="1.0" stroke="rgb(50,50,50)" stroke-width="1" />
		<g>
			<title>PF00248</title>
			<polygon class="PF00248" points="639,31 652,18 668,18 668,44 652,44" stroke-linejoin="round" width="29" height="26" fill="rgb(225,205,58)" stroke="rgb(180,164,46)" stroke-width="1" opacity="0.75" />
		</g>
	</g>
	<g>
		<polygon class="NoName" points="674,16 674,16 674,1 693,31 674,61 674,46 674,46" fill="rgb(255,255,255)" fill-opacity="1.0" stroke="rgb(50,50,50)" stroke-width="1" />
		<g>
			<title>PF00440</title>
			<rect class="PF00440" x="676" y="18" stroke-linejoin="round" width="4" height="26" fill="rgb(73,212,190)" stroke="rgb(58,169,152)" stroke-width="1" opacity="0.75" />
		</g>
	</g>
	<g>
		<polygon class="NoName" points="716,16 716,16 716,1 696,31 716,61 716,46 716,46" fill="rgb(255,255,255)" fill-opacity="1.0" stroke="rgb(50,50,50)" stroke-width="1" />
		<g>
			<title>PF13460</title>
			<polygon class="PF13460" points="698,31 707,18 715,18 715,44 707,44" stroke-linejoin="round" width="18" height="26" fill="rgb(188,201,78)" stroke="rgb(150,160,62)" stroke-width="1" opacity="0.75" />
		</g>
	</g>
	<g>
		<polygon class="NoName" points="764,16 747,16 747,1 717,31 747,61 747,46 764,46" fill="rgb(255,255,255)" fill-opacity="1.0" stroke="rgb(50,50,50)" stroke-width="1" />
		<g>
			<title>PF01494</title>
			<rect class="PF01494" x="733" y="18" stroke-linejoin="round" width="30" height="26" fill="rgb(182,175,59)" stroke="rgb(145,140,47)" stroke-width="1" opacity="0.75" />
		</g>
	</g>
	<g>
		<polygon class="NoName" points="784,16 784,16 784,1 770,31 784,61 784,46 784,46" fill="rgb(255,255,255)" fill-opacity="1.0" stroke="rgb(50,50,50)" stroke-width="1" />
		<g>
			<title>PF10604</title>
			<polygon class="PF10604" points="772,31 778,18 783,18 783,44 778,44" stroke-linejoin="round" width="13" height="26" fill="rgb(105,204,74)" stroke="rgb(84,163,59)" stroke-width="1" opacity="0.75" />
		</g>
	</g>
	<g>
		<polygon class="NoName" points="813,16 813,16 813,1 786,31 813,61 813,46 813,46" fill="rgb(255,255,255)" fill-opacity="1.0" stroke="rgb(50,50,50)" stroke-width="1" />
		<g>
			<title>PF04199</title>
			<polygon class="PF04199" points="793,26 800,18 812,18 812,44 800,44 793,35" stroke-linejoin="round" width="19" height="26" fill="rgb(140,47,181)" stroke="rgb(112,37,144)" stroke-width="1" opacity="0.75" />
		</g>
	</g>
	<g>
		<polygon class="NoName" points="815,16 847,16 847,1 877,31 847,61 847,46 815,46" fill="rgb(255,255,255)" fill-opacity="1.0" stroke="rgb(50,50,50)" stroke-width="1" />
		<g>
			<title>PF00486</title>
			<rect class="PF00486" x="818" y="18" stroke-linejoin="round" width="7" height="26" fill="rgb(204,153,57)" stroke="rgb(163,122,45)" stroke-width="1" opacity="0.75" />
		</g>
		<g>
			<title>PF03704</title>
			<rect class="PF03704" x="827" y="18" stroke-linejoin="round" width="15" height="26" fill="rgb(217,89,196)" stroke="rgb(173,71,156)" stroke-width="1" opacity="0.75" />
		</g>
		<g>
			<title>PF00931</title>
			<polygon class="PF00931" points="845,18 861,18 866,23 866,39 861,44 845,44" stroke-linejoin="round" width="21" height="26" fill="rgb(165,94,211)" stroke="rgb(132,75,168)" stroke-width="1" opacity="0.75" />
		</g>
	</g>
	<g>
		<polygon class="NoName" points="893,16 893,16 893,1 879,31 893,61 893,46 893,46" fill="rgb(255,255,255)" fill-opacity="1.0" stroke="rgb(50,50,50)" stroke-width="1" />
		<g>
			<title>PF00364</title>
			<polygon class="PF00364" points="881,31 886,20 886,41" stroke-linejoin="round" width="7" height="26" fill="rgb(67,214,213)" stroke="rgb(53,171,170)" stroke-width="1" opacity="0.75" />
		</g>
	</g>
	<g>
		<polygon class="NoName" points="45,16 45,16 45,1 21,31 45,61 45,46 45,46" fill="rgb(255,255,255)" fill-opacity="1.0" stroke="rgb(50,50,50)" stroke-width="1" />
	</g>
	<g>
		<polygon class="NoName" points="901,16 901,16 901,1 894,31 901,61 901,46 901,46" fill="rgb(255,255,255)" fill-opacity="1.0" stroke="rgb(50,50,50)" stroke-width="1" />
		<g>
			<title>PF00550</title>
			<polygon class="PF00550" points="896,31 899,18 901,18 901,44 899,44" stroke-linejoin="round" width="7" height="26" fill="rgb(103,191,88)" stroke="rgb(82,152,70)" stroke-width="1" opacity="0.75" />
		</g>
	</g>
	<g>
		<polygon class="NoName" points="941,16 931,16 931,1 901,31 931,61 931,46 941,46" fill="rgb(255,255,255)" fill-opacity="1.0" stroke="rgb(50,50,50)" stroke-width="1" />
		<g>
			<title>PF02801</title>
			<polygon class="PF02801" points="905,29 916,18 916,43 905,32" stroke-linejoin="round" width="11" height="26" fill="rgb(215,78,102)" stroke="rgb(172,62,81)" stroke-width="1" opacity="0.75" />
		</g>
		<g>
			<title>PF00109</title>
			<rect class="PF00109" x="917" y="18" stroke-linejoin="round" width="24" height="26" fill="rgb(112,116,228)" stroke="rgb(89,92,182)" stroke-width="1" opacity="0.75" />
		</g>
	</g>
	<g>
		<polygon class="NoName" points="983,16 972,16 972,1 942,31 972,61 972,46 983,46" fill="rgb(255,255,255)" fill-opacity="1.0" stroke="rgb(50,50,50)" stroke-width="1" />
		<g>
			<title>PF02801</title>
			<polygon class="PF02801" points="946,29 957,18 957,43 946,32" stroke-linejoin="round" width="11" height="26" fill="rgb(215,78,102)" stroke="rgb(172,62,81)" stroke-width="1" opacity="0.75" />
		</g>
		<g>
			<title>PF00109</title>
			<rect class="PF00109" x="958" y="18" stroke-linejoin="round" width="25" height="26" fill="rgb(112,116,228)" stroke="rgb(89,92,182)" stroke-width="1" opacity="0.75" />
		</g>
	</g>
	<g>
		<polygon class="NoName" points="1009,16 1009,16 1009,1 984,31 1009,61 1009,46 1009,46" fill="rgb(255,255,255)" fill-opacity="1.0" stroke="rgb(50,50,50)" stroke-width="1" />
		<g>
			<title>PF13561</title>
			<polygon class="PF13561" points="986,31 997,18 1007,18 1007,44 997,44" stroke-linejoin="round" width="23" height="26" fill="rgb(73,205,127)" stroke="rgb(58,164,101)" stroke-width="1" opacity="0.75" />
		</g>
	</g>
	<g>
		<polygon class="NoName" points="1044,16 1039,16 1039,1 1009,31 1039,61 1039,46 1044,46" fill="rgb(255,255,255)" fill-opacity="1.0" stroke="rgb(50,50,50)" stroke-width="1" />
		<g>
			<title>PF00891</title>
			<polygon class="PF00891" points="1011,31 1024,18 1033,18 1033,44 1024,44" stroke-linejoin="round" width="22" height="26" fill="rgb(50,51,190)" stroke="rgb(39,40,152)" stroke-width="1" opacity="0.75" />
		</g>
		<g>
			<title>PF16864</title>
			<rect class="PF16864" x="1034" y="18" stroke-linejoin="round" width="8" height="26" fill="rgb(84,199,85)" stroke="rgb(67,159,68)" stroke-width="1" opacity="0.75" />
		</g>
	</g>
	<g>
		<polygon class="NoName" points="1148,16 1076,16 1076,1 1046,31 1076,61 1076,46 1148,46" fill="rgb(255,255,255)" fill-opacity="1.0" stroke="rgb(50,50,50)" stroke-width="1" />
		<g>
			<title>PF03704</title>
			<polygon class="PF03704" points="1048,31 1059,20 1059,41" stroke-linejoin="round" width="13" height="26" fill="rgb(217,89,196)" stroke="rgb(173,71,156)" stroke-width="1" opacity="0.75" />
		</g>
		<g>
			<title>PF00486</title>
			<polygon class="PF00486" points="1061,18 1061,18 1068,18 1068,44 1061,44 1061,43" stroke-linejoin="round" width="7" height="26" fill="rgb(204,153,57)" stroke="rgb(163,122,45)" stroke-width="1" opacity="0.75" />
		</g>
		<g>
			<title>PF12862</title>
			<rect class="PF12862" x="1074" y="18" stroke-linejoin="round" width="6" height="26" fill="rgb(215,83,158)" stroke="rgb(172,66,126)" stroke-width="1" opacity="0.75" />
		</g>
		<g>
			<title>PF13424</title>
			<rect class="PF13424" x="1083" y="18" stroke-linejoin="round" width="7" height="26" fill="rgb(147,215,101)" stroke="rgb(117,172,80)" stroke-width="1" opacity="0.75" />
		</g>
	</g>
	<g>
		<polygon class="NoName" points="71,16 71,16 71,1 44,31 71,61 71,46 71,46" fill="rgb(255,255,255)" fill-opacity="1.0" stroke="rgb(50,50,50)" stroke-width="1" />
		<g>
			<title>PF13452</title>
			<polygon class="PF13452" points="58,18 58,18 66,18 66,44 58,44 58,43" stroke-linejoin="round" width="8" height="26" fill="rgb(215,186,64)" stroke="rgb(172,148,51)" stroke-width="1" opacity="0.75" />
		</g>
	</g>
	<g>
		<polygon class="NoName" points="112,16 103,16 103,1 73,31 103,61 103,46 112,46" fill="rgb(255,255,255)" fill-opacity="1.0" stroke="rgb(50,50,50)" stroke-width="1" />
		<g>
			<title>PF02515</title>
			<polygon class="PF02515" points="75,31 88,18 111,18 111,44 88,44" stroke-linejoin="round" width="36" height="26" fill="rgb(226,102,90)" stroke="rgb(180,81,72)" stroke-width="1" opacity="0.75" />
		</g>
	</g>
	<g>
		<polygon class="NoName" points="150,16 142,16 142,1 112,31 142,61 142,46 150,46" fill="rgb(255,255,255)" fill-opacity="1.0" stroke="rgb(50,50,50)" stroke-width="1" />
		<g>
			<title>PF00441</title>
			<polygon class="PF00441" points="114,31 126,19 126,42" stroke-linejoin="round" width="14" height="26" fill="rgb(85,191,117)" stroke="rgb(68,152,93)" stroke-width="1" opacity="0.75" />
		</g>
		<g>
			<title>PF02770</title>
			<rect class="PF02770" x="128" y="18" stroke-linejoin="round" width="9" height="26" fill="rgb(225,186,97)" stroke="rgb(180,148,77)" stroke-width="1" opacity="0.75" />
		</g>
		<g>
			<title>PF02771</title>
			<rect class="PF02771" x="138" y="18" stroke-linejoin="round" width="11" height="26" fill="rgb(105,135,218)" stroke="rgb(84,108,174)" stroke-width="1" opacity="0.75" />
		</g>
	</g>
	<g>
		<polygon class="NoName" points="160,16 165,16 165,1 195,31 165,61 165,46 160,46" fill="rgb(255,255,255)" fill-opacity="1.0" stroke="rgb(50,50,50)" stroke-width="1" />
		<g>
			<title>PF03664</title>
			<polygon class="PF03664" points="163,18 179,18 191,30 191,32 179,44 163,44" stroke-linejoin="round" width="28" height="26" fill="rgb(191,57,139)" stroke="rgb(152,45,111)" stroke-width="1" opacity="0.75" />
		</g>
	</g>
	<g>
		<polygon class="NoName" points="196,16 200,16 200,1 230,31 200,61 200,46 196,46" fill="rgb(255,255,255)" fill-opacity="1.0" stroke="rgb(50,50,50)" stroke-width="1" />
		<g>
			<title>PF13472</title>
			<polygon class="PF13472" points="200,18 214,18 217,21 217,41 214,44 200,44" stroke-linejoin="round" width="17" height="26" fill="rgb(116,68,184)" stroke="rgb(92,54,147)" stroke-width="1" opacity="0.75" />
		</g>
		<g>
			<title>PF00553</title>
			<polygon class="PF00553" points="220,24 227,31 220,38" stroke-linejoin="round" width="9" height="26" fill="rgb(224,89,220)" stroke="rgb(179,71,176)" stroke-width="1" opacity="0.75" />
		</g>
	</g>
	<g>
		<polygon class="NoName" points="280,16 261,16 261,1 231,31 261,61 261,46 280,46" fill="rgb(255,255,255)" fill-opacity="1.0" stroke="rgb(50,50,50)" stroke-width="1" />
		<g>
			<title>PF00171</title>
			<polygon class="PF00171" points="233,31 246,18 277,18 277,44 246,44" stroke-linejoin="round" width="46" height="26" fill="rgb(105,213,139)" stroke="rgb(84,170,111)" stroke-width="1" opacity="0.75" />
		</g>
	</g>
	<g>
		<polygon class="NoName" points="304,16 304,16 304,1 281,31 304,61 304,46 304,46" fill="rgb(255,255,255)" fill-opacity="1.0" stroke="rgb(50,50,50)" stroke-width="1" />
		<g>
			<title>PF13649</title>
			<polygon class="PF13649" points="291,21 293,18 300,18 300,44 293,44 291,40" stroke-linejoin="round" width="9" height="26" fill="rgb(227,135,74)" stroke="rgb(181,108,59)" stroke-width="1" opacity="0.75" />
		</g>
	</g>
</svg>
