<svg version="1.1" baseProfile="full" xmlns="http://www.w3.org/2000/svg" width="2701" height="62">
	<line x1="1" y1="31" x2="2700" y2="31" style="stroke:rgb(50,50,50); stroke-width:3 "/>
	<g>
		<title>Manes.12G133000</title>
		<polygon class="Manes.12G133000" points="1495,16 1517,16 1517,1 1547,31 1517,61 1517,46 1495,46" fill="rgb(250,189,217)" fill-opacity="1.0" stroke="rgb(100,75,86)" stroke-width="1" />
		<g>
			<title>PF00201</title>
			<polygon class="PF00201" points="1497,18 1531,18 1539,26 1539,36 1531,44 1497,44" stroke-linejoin="round" width="42" height="26" fill="rgb(225,150,107)" stroke="rgb(180,120,85)" stroke-width="1" opacity="0.75" />
		</g>
	</g>
	<g>
		<title>Manes.12G133100</title>
		<polygon class="Manes.12G133100" points="1791,16 1809,16 1809,1 1839,31 1809,61 1809,46 1791,46" fill="rgb(206,254,206)" fill-opacity="1.0" stroke="rgb(82,101,82)" stroke-width="1" />
		<g>
			<title>PF13947</title>
			<rect class="PF13947" x="1793" y="18" stroke-linejoin="round" width="10" height="26" fill="rgb(185,60,181)" stroke="rgb(148,48,144)" stroke-width="1" opacity="0.75" />
		</g>
		<g>
			<title>PF14380</title>
			<rect class="PF14380" x="1811" y="18" stroke-linejoin="round" width="5" height="26" fill="rgb(204,97,76)" stroke="rgb(163,77,60)" stroke-width="1" opacity="0.75" />
		</g>
	</g>
	<g>
		<title>Manes.12G133300</title>
		<polygon class="Manes.12G133300" points="2075,16 1878,16 1878,1 1848,31 1878,61 1878,46 2075,46" fill="rgb(250,208,226)" fill-opacity="1.0" stroke="rgb(100,83,90)" stroke-width="1" />
		<g>
			<title>PF00561</title>
			<rect class="PF00561" x="2048" y="18" stroke-linejoin="round" width="11" height="26" fill="rgb(86,180,151)" stroke="rgb(68,144,120)" stroke-width="1" opacity="0.75" />
		</g>
	</g>
	<g>
		<title>Manes.12G133200</title>
		<polygon class="Manes.12G133200" points="1943,16 1918,16 1918,1 1888,31 1918,61 1918,46 1943,46" fill="rgb(254,211,242)" fill-opacity="1.0" stroke="rgb(101,84,96)" stroke-width="1" />
		<g>
			<title>PF00561</title>
			<rect class="PF00561" x="1922" y="18" stroke-linejoin="round" width="12" height="26" fill="rgb(86,180,151)" stroke="rgb(68,144,120)" stroke-width="1" opacity="0.75" />
		</g>
	</g>
	<g>
		<title>Manes.12G133300</title>
		<polygon class="Manes.12G133300" points="2075,16 2026,16 2026,1 1996,31 2026,61 2026,46 2075,46" fill="rgb(250,208,226)" fill-opacity="1.0" stroke="rgb(100,83,90)" stroke-width="1" />
		<g>
			<title>PF00561</title>
			<rect class="PF00561" x="2049" y="18" stroke-linejoin="round" width="11" height="26" fill="rgb(86,180,151)" stroke="rgb(68,144,120)" stroke-width="1" opacity="0.75" />
		</g>
	</g>
	<g>
		<title>Manes.12G133400</title>
		<polygon class="Manes.12G133400" points="2326,16 2531,16 2531,1 2561,31 2531,61 2531,46 2326,46" fill="rgb(197,250,208)" fill-opacity="1.0" stroke="rgb(78,100,83)" stroke-width="1" />
		<g>
			<title>PF08263</title>
			<rect class="PF08263" x="2328" y="18" stroke-linejoin="round" width="4" height="26" fill="rgb(211,72,136)" stroke="rgb(168,57,108)" stroke-width="1" opacity="0.75" />
		</g>
		<g>
			<title>PF13855</title>
			<rect class="PF13855" x="2335" y="18" stroke-linejoin="round" width="6" height="26" fill="rgb(206,99,148)" stroke="rgb(164,79,118)" stroke-width="1" opacity="0.75" />
		</g>
		<g>
			<title>PF00069</title>
			<rect class="PF00069" x="2354" y="18" stroke-linejoin="round" width="27" height="26" fill="rgb(104,187,65)" stroke="rgb(83,149,51)" stroke-width="1" opacity="0.75" />
		</g>
	</g>
	<g>
		<title>Manes.12G133500</title>
		<polygon class="Manes.12G133500" points="2697,16 2662,16 2662,1 2632,31 2662,61 2662,46 2697,46" fill="rgb(254,196,193)" fill-opacity="1.0" stroke="rgb(101,78,77)" stroke-width="1" />
		<g>
			<title>PF00067</title>
			<polygon class="PF00067" points="2643,22 2647,18 2670,18 2670,44 2647,44 2643,39" stroke-linejoin="round" width="27" height="26" fill="rgb(85,216,107)" stroke="rgb(68,172,85)" stroke-width="1" opacity="0.75" />
		</g>
		<g>
			<title>PF00067</title>
			<rect class="PF00067" x="2678" y="18" stroke-linejoin="round" width="19" height="26" fill="rgb(85,216,107)" stroke="rgb(68,172,85)" stroke-width="1" opacity="0.75" />
		</g>
	</g>
	<g>
		<title>Manes.12G132300</title>
		<polygon class="Manes.12G132300" points="62,16 40,16 40,1 10,31 40,61 40,46 62,46" fill="rgb(189,250,195)" fill-opacity="1.0" stroke="rgb(75,100,78)" stroke-width="1" />
	</g>
	<g>
		<title>Manes.12G132400</title>
		<polygon class="Manes.12G132400" points="286,16 178,16 178,1 148,31 178,61 178,46 286,46" fill="rgb(186,179,253)" fill-opacity="1.0" stroke="rgb(74,71,101)" stroke-width="1" />
	</g>
	<g>
		<title>Manes.12G132400</title>
		<polygon class="Manes.12G132400" points="286,16 223,16 223,1 193,31 223,61 223,46 286,46" fill="rgb(186,179,253)" fill-opacity="1.0" stroke="rgb(74,71,101)" stroke-width="1" />
	</g>
	<g>
		<title>Manes.12G132400</title>
		<polygon class="Manes.12G132400" points="285,16 285,16 285,1 265,31 285,61 285,46 285,46" fill="rgb(186,179,253)" fill-opacity="1.0" stroke="rgb(74,71,101)" stroke-width="1" />
	</g>
	<g>
		<title>Manes.12G132500</title>
		<polygon class="Manes.12G132500" points="660,16 657,16 657,1 627,31 657,61 657,46 660,46" fill="rgb(222,249,196)" fill-opacity="1.0" stroke="rgb(88,99,78)" stroke-width="1" />
		<g>
			<title>PF00561</title>
			<polygon class="PF00561" points="634,26 642,18 645,18 645,44 642,44 634,35" stroke-linejoin="round" width="11" height="26" fill="rgb(86,180,151)" stroke="rgb(68,144,120)" stroke-width="1" opacity="0.75" />
		</g>
	</g>
	<g>
		<title>Manes.12G132600</title>
		<polygon class="Manes.12G132600" points="835,16 810,16 810,1 780,31 810,61 810,46 835,46" fill="rgb(200,253,216)" fill-opacity="1.0" stroke="rgb(80,101,86)" stroke-width="1" />
	</g>
	<g>
		<title>Manes.12G132700</title>
		<polygon class="Manes.12G132700" points="958,16 956,16 956,1 926,31 956,61 956,46 958,46" fill="rgb(218,251,210)" fill-opacity="1.0" stroke="rgb(87,100,84)" stroke-width="1" />
		<g>
			<title>PF00561</title>
			<polygon class="PF00561" points="933,26 941,18 944,18 944,44 941,44 933,35" stroke-linejoin="round" width="11" height="26" fill="rgb(86,180,151)" stroke="rgb(68,144,120)" stroke-width="1" opacity="0.75" />
		</g>
	</g>
	<g>
		<title>Manes.12G132800</title>
		<polygon class="Manes.12G132800" points="1065,16 1041,16 1041,1 1011,31 1041,61 1041,46 1065,46" fill="rgb(192,215,250)" fill-opacity="1.0" stroke="rgb(76,86,100)" stroke-width="1" />
		<g>
			<title>PF00067</title>
			<polygon class="PF00067" points="1014,30 1026,18 1040,18 1040,44 1026,44 1014,31" stroke-linejoin="round" width="26" height="26" fill="rgb(85,216,107)" stroke="rgb(68,172,85)" stroke-width="1" opacity="0.75" />
		</g>
		<g>
			<title>PF00067</title>
			<rect class="PF00067" x="1046" y="18" stroke-linejoin="round" width="19" height="26" fill="rgb(85,216,107)" stroke="rgb(68,172,85)" stroke-width="1" opacity="0.75" />
		</g>
	</g>
	<g>
		<title>Manes.12G132900</title>
		<polygon class="Manes.12G132900" points="1384,16 1360,16 1360,1 1330,31 1360,61 1360,46 1384,46" fill="rgb(201,219,254)" fill-opacity="1.0" stroke="rgb(80,87,101)" stroke-width="1" />
		<g>
			<title>PF00067</title>
			<polygon class="PF00067" points="1333,30 1345,18 1359,18 1359,44 1345,44 1333,31" stroke-linejoin="round" width="26" height="26" fill="rgb(85,216,107)" stroke="rgb(68,172,85)" stroke-width="1" opacity="0.75" />
		</g>
		<g>
			<title>PF00067</title>
			<rect class="PF00067" x="1364" y="18" stroke-linejoin="round" width="19" height="26" fill="rgb(85,216,107)" stroke="rgb(68,172,85)" stroke-width="1" opacity="0.75" />
		</g>
	</g>
</svg>
