<svg version="1.1" baseProfile="full" xmlns="http://www.w3.org/2000/svg" width="401" height="62">
	<line x1="1" y1="31" x2="400" y2="31" style="stroke:rgb(50,50,50); stroke-width:3 "/>
	<g>
		<title>tunJ</title>
		<polygon class="tunJ" points="304,16 304,16 304,1 330,31 304,61 304,46 304,46" fill="rgb(254,192,243)" fill-opacity="1.0" stroke="rgb(101,76,97)" stroke-width="1" />
		<g>
			<title>PF01061</title>
			<polygon class="PF01061" points="305,18 316,18 325,29 325,33 316,44 305,44" stroke-linejoin="round" width="20" height="26" fill="rgb(139,217,106)" stroke="rgb(111,173,84)" stroke-width="1" opacity="0.75" />
		</g>
	</g>
	<g>
		<title>tunK</title>
		<polygon class="tunK" points="332,16 332,16 332,1 340,31 332,61 332,46 332,46" fill="rgb(217,182,254)" fill-opacity="1.0" stroke="rgb(86,72,101)" stroke-width="1" />
		<g>
			<title>PF00550</title>
			<polygon class="PF00550" points="332,18 334,18 337,31 334,44 332,44" stroke-linejoin="round" width="6" height="26" fill="rgb(103,191,88)" stroke="rgb(82,152,70)" stroke-width="1" opacity="0.75" />
		</g>
	</g>
	<g>
		<title>tunL</title>
		<polygon class="tunL" points="340,16 340,16 340,1 363,31 340,61 340,46 340,46" fill="rgb(254,223,194)" fill-opacity="1.0" stroke="rgb(101,89,77)" stroke-width="1" />
		<g>
			<title>PF01569</title>
			<polygon class="PF01569" points="348,18 350,18 360,31 360,31 350,44 348,44" stroke-linejoin="round" width="12" height="26" fill="rgb(133,203,94)" stroke="rgb(106,162,75)" stroke-width="1" opacity="0.75" />
		</g>
	</g>
	<g>
		<title>tunM</title>
		<polygon class="tunM" points="363,16 363,16 363,1 384,31 363,61 363,46 363,46" fill="rgb(254,227,207)" fill-opacity="1.0" stroke="rgb(101,90,82)" stroke-width="1" />
		<g>
			<title>PF13649</title>
			<polygon class="PF13649" points="365,18 372,18 374,21 374,41 372,44 365,44" stroke-linejoin="round" width="9" height="26" fill="rgb(227,135,74)" stroke="rgb(181,108,59)" stroke-width="1" opacity="0.75" />
		</g>
	</g>
	<g>
		<title>tunN</title>
		<polygon class="tunN" points="385,16 385,16 385,1 400,31 385,61 385,46 385,46" fill="rgb(249,209,250)" fill-opacity="1.0" stroke="rgb(99,83,100)" stroke-width="1" />
		<g>
			<title>PF00293</title>
			<polygon class="PF00293" points="385,18 391,18 396,28 396,34 391,44 385,44" stroke-linejoin="round" width="11" height="26" fill="rgb(92,56,187)" stroke="rgb(73,44,149)" stroke-width="1" opacity="0.75" />
		</g>
	</g>
	<g>
		<title>tunA</title>
		<polygon class="tunA" points="1,16 3,16 3,1 33,31 3,61 3,46 1,46" fill="rgb(250,186,189)" fill-opacity="1.0" stroke="rgb(100,74,75)" stroke-width="1" />
		<g>
			<title>PF01370</title>
			<polygon class="PF01370" points="2,18 17,18 24,25 24,37 17,44 2,44" stroke-linejoin="round" width="22" height="26" fill="rgb(98,102,214)" stroke="rgb(78,81,171)" stroke-width="1" opacity="0.75" />
		</g>
	</g>
	<g>
		<title>tunB</title>
		<polygon class="tunB" points="33,16 36,16 36,1 66,31 36,61 36,46 33,46" fill="rgb(178,213,249)" fill-opacity="1.0" stroke="rgb(71,85,99)" stroke-width="1" />
		<g>
			<title>PF04055</title>
			<polygon class="PF04055" points="34,18 50,18 51,19 51,43 50,44 34,44" stroke-linejoin="round" width="17" height="26" fill="rgb(149,56,222)" stroke="rgb(119,44,177)" stroke-width="1" opacity="0.75" />
		</g>
	</g>
	<g>
		<title>tunC</title>
		<polygon class="tunC" points="67,16 68,16 68,1 98,31 68,61 68,46 67,46" fill="rgb(250,210,229)" fill-opacity="1.0" stroke="rgb(100,84,91)" stroke-width="1" />
	</g>
	<g>
		<title>tunD</title>
		<polygon class="tunD" points="99,16 116,16 116,1 146,31 116,61 116,46 99,46" fill="rgb(254,200,209)" fill-opacity="1.0" stroke="rgb(101,80,83)" stroke-width="1" />
		<g>
			<title>PF13579</title>
			<rect class="PF13579" x="100" y="18" stroke-linejoin="round" width="12" height="26" fill="rgb(143,60,202)" stroke="rgb(114,47,161)" stroke-width="1" opacity="0.75" />
		</g>
		<g>
			<title>PF00534</title>
			<polygon class="PF00534" points="116,18 130,18 132,20 132,42 130,44 116,44" stroke-linejoin="round" width="16" height="26" fill="rgb(228,92,150)" stroke="rgb(182,73,119)" stroke-width="1" opacity="0.75" />
		</g>
	</g>
	<g>
		<title>tunE</title>
		<polygon class="tunE" points="146,16 146,16 146,1 169,31 146,61 146,46 146,46" fill="rgb(234,253,188)" fill-opacity="1.0" stroke="rgb(93,101,75)" stroke-width="1" />
		<g>
			<title>PF02585</title>
			<polygon class="PF02585" points="146,18 156,18 158,20 158,42 156,44 146,44" stroke-linejoin="round" width="12" height="26" fill="rgb(97,215,95)" stroke="rgb(77,172,76)" stroke-width="1" opacity="0.75" />
		</g>
	</g>
	<g>
		<title>tunF</title>
		<polygon class="tunF" points="169,16 171,16 171,1 201,31 171,61 171,46 169,46" fill="rgb(252,224,211)" fill-opacity="1.0" stroke="rgb(100,89,84)" stroke-width="1" />
		<g>
			<title>PF01370</title>
			<polygon class="PF01370" points="169,18 185,18 193,26 193,36 185,44 169,44" stroke-linejoin="round" width="24" height="26" fill="rgb(98,102,214)" stroke="rgb(78,81,171)" stroke-width="1" opacity="0.75" />
		</g>
	</g>
	<g>
		<title>tunG</title>
		<polygon class="tunG" points="202,16 202,16 202,1 222,31 202,61 202,46 202,46" fill="rgb(191,252,204)" fill-opacity="1.0" stroke="rgb(76,100,81)" stroke-width="1" />
		<g>
			<title>PF00300</title>
			<polygon class="PF00300" points="202,18 210,18 219,31 210,44 202,44" stroke-linejoin="round" width="18" height="26" fill="rgb(135,184,63)" stroke="rgb(107,147,50)" stroke-width="1" opacity="0.75" />
		</g>
	</g>
	<g>
		<title>tunH</title>
		<polygon class="tunH" points="222,16 243,16 243,1 273,31 243,61 243,46 222,46" fill="rgb(254,183,231)" fill-opacity="1.0" stroke="rgb(101,73,92)" stroke-width="1" />
		<g>
			<title>PF01663</title>
			<rect class="PF01663" x="222" y="18" stroke-linejoin="round" width="19" height="26" fill="rgb(178,65,158)" stroke="rgb(142,52,126)" stroke-width="1" opacity="0.75" />
		</g>
		<g>
			<title>PF01663</title>
			<polygon class="PF01663" points="244,18 257,18 268,29 268,33 257,44 244,44" stroke-linejoin="round" width="24" height="26" fill="rgb(178,65,158)" stroke="rgb(142,52,126)" stroke-width="1" opacity="0.75" />
		</g>
	</g>
	<g>
		<title>tunI</title>
		<polygon class="tunI" points="274,16 274,16 274,1 304,31 274,61 274,46 274,46" fill="rgb(224,249,177)" fill-opacity="1.0" stroke="rgb(89,99,70)" stroke-width="1" />
		<g>
			<title>PF00005</title>
			<polygon class="PF00005" points="276,18 288,18 290,20 290,42 288,44 276,44" stroke-linejoin="round" width="14" height="26" fill="rgb(129,201,63)" stroke="rgb(103,160,50)" stroke-width="1" opacity="0.75" />
		</g>
	</g>
</svg>
