<svg version="1.1" baseProfile="full" xmlns="http://www.w3.org/2000/svg" width="1215" height="62">
	<line x1="1" y1="31" x2="1214" y2="31" style="stroke:rgb(50,50,50); stroke-width:3 "/>
	<g>
		<title>napR1</title>
		<polygon class="napR1" points="348,16 348,16 348,1 374,31 348,61 348,46 348,46" fill="rgb(253,224,201)" fill-opacity="1.0" stroke="rgb(101,89,80)" stroke-width="1" />
		<g>
			<title>PF12833</title>
			<rect class="PF12833" x="350" y="18" stroke-linejoin="round" width="7" height="26" fill="rgb(216,58,224)" stroke="rgb(172,46,179)" stroke-width="1" opacity="0.75" />
		</g>
	</g>
	<g>
		<title>napR2</title>
		<polygon class="napR2" points="378,16 390,16 390,1 420,31 390,61 390,46 378,46" fill="rgb(253,199,246)" fill-opacity="1.0" stroke="rgb(101,79,98)" stroke-width="1" />
		<g>
			<title>PF00999</title>
			<polygon class="PF00999" points="379,18 404,18 417,31 417,31 404,44 379,44" stroke-linejoin="round" width="38" height="26" fill="rgb(229,67,191)" stroke="rgb(183,53,152)" stroke-width="1" opacity="0.75" />
		</g>
	</g>
	<g>
		<title>napR3</title>
		<polygon class="napR3" points="425,16 425,16 425,1 447,31 425,61 425,46 425,46" fill="rgb(192,215,250)" fill-opacity="1.0" stroke="rgb(76,86,100)" stroke-width="1" />
		<g>
			<title>PF00440</title>
			<rect class="PF00440" x="428" y="18" stroke-linejoin="round" width="4" height="26" fill="rgb(73,212,190)" stroke="rgb(58,169,152)" stroke-width="1" opacity="0.75" />
		</g>
	</g>
	<g>
		<title>napH1</title>
		<polygon class="napH1" points="504,16 482,16 482,1 452,31 482,61 482,46 504,46" fill="rgb(184,253,252)" fill-opacity="1.0" stroke="rgb(73,101,100)" stroke-width="1" />
	</g>
	<g>
		<title>napU3</title>
		<polygon class="napU3" points="524,16 524,16 524,1 544,31 524,61 524,46 524,46" fill="rgb(194,183,254)" fill-opacity="1.0" stroke="rgb(77,73,101)" stroke-width="1" />
		<g>
			<title>PF07681</title>
			<polygon class="PF07681" points="525,18 532,18 534,20 534,42 532,44 525,44" stroke-linejoin="round" width="9" height="26" fill="rgb(93,188,216)" stroke="rgb(74,150,172)" stroke-width="1" opacity="0.75" />
		</g>
	</g>
	<g>
		<title>napH2</title>
		<polygon class="napH2" points="556,16 568,16 568,1 598,31 568,61 568,46 556,46" fill="rgb(251,193,237)" fill-opacity="1.0" stroke="rgb(100,77,94)" stroke-width="1" />
		<g>
			<title>PF04820</title>
			<polygon class="PF04820" points="565,18 582,18 595,31 582,44 565,44" stroke-linejoin="round" width="31" height="26" fill="rgb(179,74,194)" stroke="rgb(143,59,155)" stroke-width="1" opacity="0.75" />
		</g>
	</g>
	<g>
		<title>napT8</title>
		<polygon class="napT8" points="687,16 687,16 687,1 658,31 687,61 687,46 687,46" fill="rgb(254,213,186)" fill-opacity="1.0" stroke="rgb(101,85,74)" stroke-width="1" />
		<g>
			<title>PF11468</title>
			<polygon class="PF11468" points="660,31 673,18 687,18 687,44 673,44" stroke-linejoin="round" width="28" height="26" fill="rgb(121,52,185)" stroke="rgb(96,41,148)" stroke-width="1" opacity="0.75" />
		</g>
	</g>
	<g>
		<polygon class="NoName" points="698,16 698,16 698,1 728,31 698,61 698,46 698,46" fill="rgb(255,255,255)" fill-opacity="1.0" stroke="rgb(50,50,50)" stroke-width="1" />
		<g>
			<title>PF11468</title>
			<polygon class="PF11468" points="698,18 712,18 725,31 712,44 698,44" stroke-linejoin="round" width="29" height="26" fill="rgb(121,52,185)" stroke="rgb(96,41,148)" stroke-width="1" opacity="0.75" />
		</g>
	</g>
	<g>
		<title>napH3</title>
		<polygon class="napH3" points="732,16 746,16 746,1 776,31 746,61 746,46 732,46" fill="rgb(254,178,219)" fill-opacity="1.0" stroke="rgb(101,71,87)" stroke-width="1" />
	</g>
	<g>
		<title>napH4</title>
		<polygon class="napH4" points="795,16 804,16 804,1 834,31 804,61 804,46 795,46" fill="rgb(187,253,196)" fill-opacity="1.0" stroke="rgb(74,101,78)" stroke-width="1" />
	</g>
	<g>
		<title>napT5</title>
		<polygon class="napT5" points="23,16 23,16 23,1 1,31 23,61 23,46 23,46" fill="rgb(254,207,236)" fill-opacity="1.0" stroke="rgb(101,82,94)" stroke-width="1" />
		<g>
			<title>PF00288</title>
			<polygon class="PF00288" points="4,30 9,23 9,38 4,31" stroke-linejoin="round" width="5" height="26" fill="rgb(190,54,91)" stroke="rgb(152,43,72)" stroke-width="1" opacity="0.75" />
		</g>
	</g>
	<g>
		<title>napB5</title>
		<polygon class="napB5" points="851,16 855,16 855,1 885,31 855,61 855,46 851,46" fill="rgb(253,235,210)" fill-opacity="1.0" stroke="rgb(101,94,84)" stroke-width="1" />
		<g>
			<title>PF00891</title>
			<polygon class="PF00891" points="859,18 869,18 882,31 882,31 869,44 859,44" stroke-linejoin="round" width="23" height="26" fill="rgb(50,51,190)" stroke="rgb(39,40,152)" stroke-width="1" opacity="0.75" />
		</g>
	</g>
	<g>
		<title>napR4</title>
		<polygon class="napR4" points="896,16 912,16 912,1 942,31 912,61 912,46 896,46" fill="rgb(194,251,218)" fill-opacity="1.0" stroke="rgb(77,100,87)" stroke-width="1" />
		<g>
			<title>PF07690</title>
			<rect class="PF07690" x="899" y="18" stroke-linejoin="round" width="27" height="26" fill="rgb(193,224,74)" stroke="rgb(154,179,59)" stroke-width="1" opacity="0.75" />
		</g>
	</g>
	<g>
		<title>napR5</title>
		<polygon class="napR5" points="958,16 981,16 981,1 1011,31 981,61 981,46 958,46" fill="rgb(251,204,205)" fill-opacity="1.0" stroke="rgb(100,81,82)" stroke-width="1" />
		<g>
			<title>PF07690</title>
			<polygon class="PF07690" points="961,18 995,18 1000,23 1000,39 995,44 961,44" stroke-linejoin="round" width="39" height="26" fill="rgb(193,224,74)" stroke="rgb(154,179,59)" stroke-width="1" opacity="0.75" />
		</g>
	</g>
	<g>
		<title>napR6</title>
		<polygon class="napR6" points="1023,16 1046,16 1046,1 1076,31 1046,61 1046,46 1023,46" fill="rgb(236,252,190)" fill-opacity="1.0" stroke="rgb(94,100,76)" stroke-width="1" />
		<g>
			<title>PF07690</title>
			<polygon class="PF07690" points="1024,18 1060,18 1063,21 1063,41 1060,44 1024,44" stroke-linejoin="round" width="39" height="26" fill="rgb(193,224,74)" stroke="rgb(154,179,59)" stroke-width="1" opacity="0.75" />
		</g>
	</g>
	<g>
		<title>napR7</title>
		<polygon class="napR7" points="1076,16 1076,16 1076,1 1098,31 1076,61 1076,46 1076,46" fill="rgb(202,254,205)" fill-opacity="1.0" stroke="rgb(80,101,82)" stroke-width="1" />
		<g>
			<title>PF00440</title>
			<rect class="PF00440" x="1079" y="18" stroke-linejoin="round" width="4" height="26" fill="rgb(73,212,190)" stroke="rgb(58,169,152)" stroke-width="1" opacity="0.75" />
		</g>
	</g>
	<g>
		<title>napR8</title>
		<polygon class="napR8" points="1165,16 1164,16 1164,1 1134,31 1164,61 1164,46 1165,46" fill="rgb(254,246,203)" fill-opacity="1.0" stroke="rgb(101,98,81)" stroke-width="1" />
		<g>
			<title>PF01047</title>
			<polygon class="PF01047" points="1139,28 1144,23 1144,38 1139,33" stroke-linejoin="round" width="5" height="26" fill="rgb(60,185,86)" stroke="rgb(48,148,68)" stroke-width="1" opacity="0.75" />
		</g>
		<g>
			<title>PF01047</title>
			<rect class="PF01047" x="1153" y="18" stroke-linejoin="round" width="5" height="26" fill="rgb(60,185,86)" stroke="rgb(48,148,68)" stroke-width="1" opacity="0.75" />
		</g>
	</g>
	<g>
		<title>napU4</title>
		<polygon class="napU4" points="1193,16 1193,16 1193,1 1171,31 1193,61 1193,46 1193,46" fill="rgb(202,197,253)" fill-opacity="1.0" stroke="rgb(80,78,101)" stroke-width="1" />
		<g>
			<title>PF01814</title>
			<polygon class="PF01814" points="1178,24 1183,18 1191,18 1191,44 1183,44 1178,37" stroke-linejoin="round" width="13" height="26" fill="rgb(120,91,227)" stroke="rgb(95,72,181)" stroke-width="1" opacity="0.75" />
		</g>
	</g>
	<g>
		<title>napT6</title>
		<polygon class="napT6" points="55,16 53,16 53,1 23,31 53,61 53,46 55,46" fill="rgb(211,208,251)" fill-opacity="1.0" stroke="rgb(84,83,100)" stroke-width="1" />
		<g>
			<title>PF08544</title>
			<polygon class="PF08544" points="25,31 32,24 32,37" stroke-linejoin="round" width="8" height="26" fill="rgb(95,112,219)" stroke="rgb(76,89,175)" stroke-width="1" opacity="0.75" />
		</g>
		<g>
			<title>PF00288</title>
			<rect class="PF00288" x="39" y="18" stroke-linejoin="round" width="6" height="26" fill="rgb(190,54,91)" stroke="rgb(152,43,72)" stroke-width="1" opacity="0.75" />
		</g>
	</g>
	<g>
		<title>napU1</title>
		<polygon class="napU1" points="108,16 108,16 108,1 86,31 108,61 108,46 108,46" fill="rgb(249,206,250)" fill-opacity="1.0" stroke="rgb(99,82,100)" stroke-width="1" />
	</g>
	<g>
		<title>napU2</title>
		<polygon class="napU2" points="116,16 116,16 116,1 141,31 116,61 116,46 116,46" fill="rgb(252,197,232)" fill-opacity="1.0" stroke="rgb(100,78,92)" stroke-width="1" />
	</g>
	<g>
		<title>napB1</title>
		<polygon class="napB1" points="144,16 149,16 149,1 179,31 149,61 149,46 144,46" fill="rgb(253,184,190)" fill-opacity="1.0" stroke="rgb(101,73,76)" stroke-width="1" />
		<g>
			<title>PF00195</title>
			<polygon class="PF00195" points="148,18 163,18 164,19 164,43 163,44 148,44" stroke-linejoin="round" width="16" height="26" fill="rgb(60,181,161)" stroke="rgb(47,144,128)" stroke-width="1" opacity="0.75" />
		</g>
		<g>
			<title>PF02797</title>
			<polygon class="PF02797" points="164,19 176,31 164,43" stroke-linejoin="round" width="13" height="26" fill="rgb(139,212,63)" stroke="rgb(111,169,50)" stroke-width="1" opacity="0.75" />
		</g>
	</g>
	<g>
		<title>napB2</title>
		<polygon class="napB2" points="182,16 182,16 182,1 200,31 182,61 182,46 182,46" fill="rgb(254,178,179)" fill-opacity="1.0" stroke="rgb(101,71,71)" stroke-width="1" />
		<g>
			<title>PF07883</title>
			<polygon class="PF07883" points="185,18 189,18 193,24 193,38 189,44 185,44" stroke-linejoin="round" width="8" height="26" fill="rgb(211,192,74)" stroke="rgb(168,153,59)" stroke-width="1" opacity="0.75" />
		</g>
	</g>
	<g>
		<title>napB3</title>
		<polygon class="napB3" points="192,16 210,16 210,1 240,31 210,61 210,46 192,46" fill="rgb(253,216,184)" fill-opacity="1.0" stroke="rgb(101,86,73)" stroke-width="1" />
		<g>
			<title>PF01041</title>
			<polygon class="PF01041" points="203,18 224,18 237,31 224,44 203,44" stroke-linejoin="round" width="35" height="26" fill="rgb(59,139,191)" stroke="rgb(47,111,152)" stroke-width="1" opacity="0.75" />
		</g>
	</g>
	<g>
		<title>napB4</title>
		<polygon class="napB4" points="246,16 269,16 269,1 299,31 269,61 269,46 246,46" fill="rgb(250,227,209)" fill-opacity="1.0" stroke="rgb(100,90,83)" stroke-width="1" />
		<g>
			<title>PF00501</title>
			<polygon class="PF00501" points="248,18 283,18 289,24 289,38 283,44 248,44" stroke-linejoin="round" width="41" height="26" fill="rgb(60,217,223)" stroke="rgb(48,173,178)" stroke-width="1" opacity="0.75" />
		</g>
	</g>
	<g>
		<title>napT7</title>
		<polygon class="napT7" points="302,16 307,16 307,1 337,31 307,61 307,46 302,46" fill="rgb(217,179,252)" fill-opacity="1.0" stroke="rgb(86,71,100)" stroke-width="1" />
		<g>
			<title>PF00348</title>
			<polygon class="PF00348" points="307,18 321,18 332,29 332,33 321,44 307,44" stroke-linejoin="round" width="25" height="26" fill="rgb(61,206,65)" stroke="rgb(48,164,52)" stroke-width="1" opacity="0.75" />
		</g>
	</g>
</svg>
