<svg version="1.1" baseProfile="full" xmlns="http://www.w3.org/2000/svg" width="202" height="124">
	<line x1="1" y1="31" x2="201" y2="31" style="stroke:rgb(50,50,50); stroke-width:3 "/>
	<line x1="1" y1="93" x2="201" y2="93" style="stroke:rgb(50,50,50); stroke-width:3 "/>
	<g>
		<title>stcH</title>
		<polygon class="stcH" points="27,16 27,16 27,1 1,31 27,61 27,46 27,46" fill="rgb(250,239,188)" fill-opacity="1.0" stroke="rgb(100,95,75)" stroke-width="1" />
		<g>
			<title>PF01061</title>
			<polygon class="PF01061" points="6,28 14,18 26,18 26,44 14,44 6,33" stroke-linejoin="round" width="20" height="26" fill="rgb(139,217,106)" stroke="rgb(111,173,84)" stroke-width="1" opacity="0.75" />
		</g>
	</g>
	<g>
		<title>stcT</title>
		<polygon class="stcT" points="65,16 62,16 62,1 32,31 62,61 62,46 65,46" fill="rgb(211,225,251)" fill-opacity="1.0" stroke="rgb(84,90,100)" stroke-width="1" />
		<g>
			<title>PF00005</title>
			<rect class="PF00005" x="51" y="18" stroke-linejoin="round" width="13" height="26" fill="rgb(129,201,63)" stroke="rgb(103,160,50)" stroke-width="1" opacity="0.75" />
		</g>
	</g>
	<g>
		<title>stcA</title>
		<polygon class="stcA" points="97,16 97,16 97,1 92,31 97,61 97,46 97,46" fill="rgb(250,195,229)" fill-opacity="1.0" stroke="rgb(100,78,91)" stroke-width="1" />
	</g>
	<g>
		<title>stcL</title>
		<polygon class="stcL" points="201,16 129,16 129,1 99,31 129,61 129,46 201,46" fill="rgb(187,210,251)" fill-opacity="1.0" stroke="rgb(74,84,100)" stroke-width="1" />
		<g>
			<title>PF05147</title>
			<polygon class="PF05147" points="101,31 114,18 133,18 133,44 114,44" stroke-linejoin="round" width="34" height="26" fill="rgb(129,182,79)" stroke="rgb(103,145,63)" stroke-width="1" opacity="0.75" />
		</g>
		<g>
			<title>PF00069</title>
			<rect class="PF00069" x="152" y="18" stroke-linejoin="round" width="26" height="26" fill="rgb(104,187,65)" stroke="rgb(83,149,51)" stroke-width="1" opacity="0.75" />
		</g>
	</g>
	<g>
		<title>stcL</title>
		<polygon class="stcL" points="1,78 73,78 73,63 103,93 73,123 73,108 1,108" fill="rgb(187,210,251)" fill-opacity="1.0" stroke="rgb(74,84,100)" stroke-width="1" />
		<g>
			<title>PF00069</title>
			<rect class="PF00069" x="23" y="80" stroke-linejoin="round" width="26" height="26" fill="rgb(104,187,65)" stroke="rgb(83,149,51)" stroke-width="1" opacity="0.75" />
		</g>
		<g>
			<title>PF05147</title>
			<polygon class="PF05147" points="68,80 87,80 100,93 87,106 68,106" stroke-linejoin="round" width="34" height="26" fill="rgb(129,182,79)" stroke="rgb(103,145,63)" stroke-width="1" opacity="0.75" />
		</g>
	</g>
	<g>
		<title>stcA</title>
		<polygon class="stcA" points="104,78 104,78 104,63 109,93 104,123 104,108 104,108" fill="rgb(250,195,229)" fill-opacity="1.0" stroke="rgb(100,78,91)" stroke-width="1" />
	</g>
	<g>
		<title>stcT</title>
		<polygon class="stcT" points="136,78 139,78 139,63 169,93 139,123 139,108 136,108" fill="rgb(211,225,251)" fill-opacity="1.0" stroke="rgb(84,90,100)" stroke-width="1" />
		<g>
			<title>PF00005</title>
			<rect class="PF00005" x="136" y="80" stroke-linejoin="round" width="13" height="26" fill="rgb(129,201,63)" stroke="rgb(103,160,50)" stroke-width="1" opacity="0.75" />
		</g>
	</g>
	<g>
		<title>stcH</title>
		<polygon class="stcH" points="175,78 175,78 175,63 201,93 175,123 175,108 175,108" fill="rgb(250,239,188)" fill-opacity="1.0" stroke="rgb(100,95,75)" stroke-width="1" />
		<g>
			<title>PF01061</title>
			<polygon class="PF01061" points="175,80 187,80 195,90 195,96 187,106 175,106" stroke-linejoin="round" width="20" height="26" fill="rgb(139,217,106)" stroke="rgb(111,173,84)" stroke-width="1" opacity="0.75" />
		</g>
	</g>
</svg>
