<svg version="1.1" baseProfile="full" xmlns="http://www.w3.org/2000/svg" width="1378" height="62">
	<line x1="1" y1="31" x2="1377" y2="31" style="stroke:rgb(50,50,50); stroke-width:3 "/>
	<g>
		<title>xcnE</title>
		<polygon class="xcnE" points="1012,16 1004,16 1004,1 974,31 1004,61 1004,46 1012,46" fill="rgb(221,254,213)" fill-opacity="1.0" stroke="rgb(88,101,85)" stroke-width="1" />
		<g>
			<title>PF00441</title>
			<polygon class="PF00441" points="976,31 989,18 990,18 990,44 989,44" stroke-linejoin="round" width="15" height="26" fill="rgb(85,191,117)" stroke="rgb(68,152,93)" stroke-width="1" opacity="0.75" />
		</g>
		<g>
			<title>PF02770</title>
			<rect class="PF02770" x="991" y="18" stroke-linejoin="round" width="9" height="26" fill="rgb(225,186,97)" stroke="rgb(180,148,77)" stroke-width="1" opacity="0.75" />
		</g>
		<g>
			<title>PF02771</title>
			<rect class="PF02771" x="1000" y="18" stroke-linejoin="round" width="11" height="26" fill="rgb(105,135,218)" stroke="rgb(84,108,174)" stroke-width="1" opacity="0.75" />
		</g>
	</g>
	<g>
		<title>xcnD</title>
		<polygon class="xcnD" points="1021,16 1021,16 1021,1 1013,31 1021,61 1021,46 1021,46" fill="rgb(230,254,213)" fill-opacity="1.0" stroke="rgb(92,101,85)" stroke-width="1" />
	</g>
	<g>
		<title>xcnC</title>
		<polygon class="xcnC" points="1058,16 1053,16 1053,1 1023,31 1053,61 1053,46 1058,46" fill="rgb(209,189,252)" fill-opacity="1.0" stroke="rgb(83,75,100)" stroke-width="1" />
		<g>
			<title>PF13419</title>
			<rect class="PF13419" x="1045" y="18" stroke-linejoin="round" width="10" height="26" fill="rgb(60,223,188)" stroke="rgb(48,178,150)" stroke-width="1" opacity="0.75" />
		</g>
	</g>
	<g>
		<title>xcnB</title>
		<polygon class="xcnB" points="1086,16 1086,16 1086,1 1058,31 1086,61 1086,46 1086,46" fill="rgb(252,181,215)" fill-opacity="1.0" stroke="rgb(100,72,86)" stroke-width="1" />
		<g>
			<title>PF00725</title>
			<polygon class="PF00725" points="1060,31 1067,24 1067,37" stroke-linejoin="round" width="9" height="26" fill="rgb(180,78,60)" stroke="rgb(144,62,48)" stroke-width="1" opacity="0.75" />
		</g>
		<g>
			<title>PF02737</title>
			<polygon class="PF02737" points="1068,23 1072,18 1086,18 1086,44 1072,44 1068,38" stroke-linejoin="round" width="18" height="26" fill="rgb(212,65,199)" stroke="rgb(169,52,159)" stroke-width="1" opacity="0.75" />
		</g>
	</g>
	<g>
		<title>xcnA</title>
		<polygon class="xcnA" points="1377,16 1140,16 1140,1 1110,31 1140,61 1140,46 1377,46" fill="rgb(254,179,218)" fill-opacity="1.0" stroke="rgb(101,71,87)" stroke-width="1" />
		<g>
			<title>PF00550</title>
			<polygon class="PF00550" points="1115,28 1121,22 1121,39 1115,33" stroke-linejoin="round" width="6" height="26" fill="rgb(103,191,88)" stroke="rgb(82,152,70)" stroke-width="1" opacity="0.75" />
		</g>
		<g>
			<title>PF00501</title>
			<rect class="PF00501" x="1132" y="18" stroke-linejoin="round" width="39" height="26" fill="rgb(60,217,223)" stroke="rgb(48,173,178)" stroke-width="1" opacity="0.75" />
		</g>
		<g>
			<title>PF00668</title>
			<rect class="PF00668" x="1174" y="18" stroke-linejoin="round" width="44" height="26" fill="rgb(224,184,98)" stroke="rgb(179,147,78)" stroke-width="1" opacity="0.75" />
		</g>
		<g>
			<title>PF00668</title>
			<rect class="PF00668" x="1247" y="18" stroke-linejoin="round" width="17" height="26" fill="rgb(224,184,98)" stroke="rgb(179,147,78)" stroke-width="1" opacity="0.75" />
		</g>
		<g>
			<title>PF00550</title>
			<rect class="PF00550" x="1267" y="18" stroke-linejoin="round" width="5" height="26" fill="rgb(103,191,88)" stroke="rgb(82,152,70)" stroke-width="1" opacity="0.75" />
		</g>
		<g>
			<title>PF00501</title>
			<rect class="PF00501" x="1287" y="18" stroke-linejoin="round" width="41" height="26" fill="rgb(60,217,223)" stroke="rgb(48,173,178)" stroke-width="1" opacity="0.75" />
		</g>
		<g>
			<title>PF00668</title>
			<rect class="PF00668" x="1331" y="18" stroke-linejoin="round" width="45" height="26" fill="rgb(224,184,98)" stroke="rgb(179,147,78)" stroke-width="1" opacity="0.75" />
		</g>
	</g>
	<g>
		<title>xcnN</title>
		<polygon class="xcnN" points="37,16 31,16 31,1 1,31 31,61 31,46 37,46" fill="rgb(186,250,230)" fill-opacity="1.0" stroke="rgb(74,100,92)" stroke-width="1" />
		<g>
			<title>PF00487</title>
			<polygon class="PF00487" points="5,29 16,18 31,18 31,44 16,44 5,32" stroke-linejoin="round" width="26" height="26" fill="rgb(104,51,205)" stroke="rgb(83,40,164)" stroke-width="1" opacity="0.75" />
		</g>
	</g>
	<g>
		<title>xcnM</title>
		<polygon class="xcnM" points="84,16 78,16 78,1 48,31 78,61 78,46 84,46" fill="rgb(192,207,251)" fill-opacity="1.0" stroke="rgb(76,82,100)" stroke-width="1" />
	</g>
	<g>
		<title>xcnL</title>
		<polygon class="xcnL" points="237,16 119,16 119,1 89,31 119,61 119,46 237,46" fill="rgb(254,227,214)" fill-opacity="1.0" stroke="rgb(101,90,85)" stroke-width="1" />
		<g>
			<title>PF00550</title>
			<polygon class="PF00550" points="92,30 98,24 98,37 92,31" stroke-linejoin="round" width="6" height="26" fill="rgb(103,191,88)" stroke="rgb(82,152,70)" stroke-width="1" opacity="0.75" />
		</g>
		<g>
			<title>PF08659</title>
			<rect class="PF08659" x="106" y="18" stroke-linejoin="round" width="19" height="26" fill="rgb(66,209,188)" stroke="rgb(52,167,150)" stroke-width="1" opacity="0.75" />
		</g>
		<g>
			<title>PF00698</title>
			<rect class="PF00698" x="153" y="18" stroke-linejoin="round" width="31" height="26" fill="rgb(59,176,209)" stroke="rgb(47,140,167)" stroke-width="1" opacity="0.75" />
		</g>
		<g>
			<title>PF16197</title>
			<rect class="PF16197" x="187" y="18" stroke-linejoin="round" width="11" height="26" fill="rgb(68,179,89)" stroke="rgb(54,143,71)" stroke-width="1" opacity="0.75" />
		</g>
		<g>
			<title>PF02801</title>
			<rect class="PF02801" x="198" y="18" stroke-linejoin="round" width="11" height="26" fill="rgb(215,78,102)" stroke="rgb(172,62,81)" stroke-width="1" opacity="0.75" />
		</g>
		<g>
			<title>PF00109</title>
			<rect class="PF00109" x="211" y="18" stroke-linejoin="round" width="24" height="26" fill="rgb(112,116,228)" stroke="rgb(89,92,182)" stroke-width="1" opacity="0.75" />
		</g>
	</g>
	<g>
		<title>xcnK</title>
		<polygon class="xcnK" points="326,16 271,16 271,1 241,31 271,61 271,46 326,46" fill="rgb(224,253,192)" fill-opacity="1.0" stroke="rgb(89,101,76)" stroke-width="1" />
		<g>
			<title>PF00550</title>
			<polygon class="PF00550" points="243,31 249,25 249,36" stroke-linejoin="round" width="6" height="26" fill="rgb(103,191,88)" stroke="rgb(82,152,70)" stroke-width="1" opacity="0.75" />
		</g>
		<g>
			<title>PF00501</title>
			<rect class="PF00501" x="262" y="18" stroke-linejoin="round" width="39" height="26" fill="rgb(60,217,223)" stroke="rgb(48,173,178)" stroke-width="1" opacity="0.75" />
		</g>
	</g>
	<g>
		<title>xcnJ</title>
		<polygon class="xcnJ" points="343,16 343,16 343,1 333,31 343,61 343,46 343,46" fill="rgb(250,208,206)" fill-opacity="1.0" stroke="rgb(100,83,82)" stroke-width="1" />
		<g>
			<title>PF17074</title>
			<polygon class="PF17074" points="335,31 339,18 343,18 343,44 339,44" stroke-linejoin="round" width="10" height="26" fill="rgb(225,206,72)" stroke="rgb(180,164,57)" stroke-width="1" opacity="0.75" />
		</g>
	</g>
	<g>
		<title>xcnI</title>
		<polygon class="xcnI" points="368,16 368,16 368,1 344,31 368,61 368,46 368,46" fill="rgb(250,208,233)" fill-opacity="1.0" stroke="rgb(100,83,93)" stroke-width="1" />
		<g>
			<title>PF00975</title>
			<polygon class="PF00975" points="346,31 356,18 366,18 366,44 356,44" stroke-linejoin="round" width="22" height="26" fill="rgb(207,80,138)" stroke="rgb(165,63,110)" stroke-width="1" opacity="0.75" />
		</g>
	</g>
	<g>
		<title>xcnH</title>
		<polygon class="xcnH" points="567,16 405,16 405,1 375,31 405,61 405,46 567,46" fill="rgb(208,181,250)" fill-opacity="1.0" stroke="rgb(83,72,100)" stroke-width="1" />
		<g>
			<title>PF00668</title>
			<polygon class="PF00668" points="377,31 390,18 419,18 419,44 390,44" stroke-linejoin="round" width="43" height="26" fill="rgb(224,184,98)" stroke="rgb(179,147,78)" stroke-width="1" opacity="0.75" />
		</g>
		<g>
			<title>PF00550</title>
			<rect class="PF00550" x="421" y="18" stroke-linejoin="round" width="6" height="26" fill="rgb(103,191,88)" stroke="rgb(82,152,70)" stroke-width="1" opacity="0.75" />
		</g>
		<g>
			<title>PF08659</title>
			<rect class="PF08659" x="436" y="18" stroke-linejoin="round" width="18" height="26" fill="rgb(66,209,188)" stroke="rgb(52,167,150)" stroke-width="1" opacity="0.75" />
		</g>
		<g>
			<title>PF00698</title>
			<rect class="PF00698" x="486" y="18" stroke-linejoin="round" width="28" height="26" fill="rgb(59,176,209)" stroke="rgb(47,140,167)" stroke-width="1" opacity="0.75" />
		</g>
		<g>
			<title>PF16197</title>
			<rect class="PF16197" x="518" y="18" stroke-linejoin="round" width="11" height="26" fill="rgb(68,179,89)" stroke="rgb(54,143,71)" stroke-width="1" opacity="0.75" />
		</g>
		<g>
			<title>PF02801</title>
			<rect class="PF02801" x="530" y="18" stroke-linejoin="round" width="11" height="26" fill="rgb(215,78,102)" stroke="rgb(172,62,81)" stroke-width="1" opacity="0.75" />
		</g>
		<g>
			<title>PF00109</title>
			<rect class="PF00109" x="542" y="18" stroke-linejoin="round" width="24" height="26" fill="rgb(112,116,228)" stroke="rgb(89,92,182)" stroke-width="1" opacity="0.75" />
		</g>
	</g>
	<g>
		<title>xcnG</title>
		<polygon class="xcnG" points="621,16 602,16 602,1 572,31 602,61 602,46 621,46" fill="rgb(240,254,197)" fill-opacity="1.0" stroke="rgb(95,101,78)" stroke-width="1" />
		<g>
			<title>PF00144</title>
			<polygon class="PF00144" points="585,20 587,18 617,18 617,44 587,44 585,41" stroke-linejoin="round" width="32" height="26" fill="rgb(92,159,200)" stroke="rgb(73,127,160)" stroke-width="1" opacity="0.75" />
		</g>
	</g>
	<g>
		<title>xcnF</title>
		<polygon class="xcnF" points="967,16 655,16 655,1 625,31 655,61 655,46 967,46" fill="rgb(210,254,207)" fill-opacity="1.0" stroke="rgb(84,101,82)" stroke-width="1" />
		<g>
			<title>PF00550</title>
			<rect class="PF00550" x="661" y="18" stroke-linejoin="round" width="6" height="26" fill="rgb(103,191,88)" stroke="rgb(82,152,70)" stroke-width="1" opacity="0.75" />
		</g>
		<g>
			<title>PF00698</title>
			<rect class="PF00698" x="677" y="18" stroke-linejoin="round" width="29" height="26" fill="rgb(59,176,209)" stroke="rgb(47,140,167)" stroke-width="1" opacity="0.75" />
		</g>
		<g>
			<title>PF16197</title>
			<rect class="PF16197" x="709" y="18" stroke-linejoin="round" width="11" height="26" fill="rgb(68,179,89)" stroke="rgb(54,143,71)" stroke-width="1" opacity="0.75" />
		</g>
		<g>
			<title>PF02801</title>
			<rect class="PF02801" x="721" y="18" stroke-linejoin="round" width="11" height="26" fill="rgb(215,78,102)" stroke="rgb(172,62,81)" stroke-width="1" opacity="0.75" />
		</g>
		<g>
			<title>PF00109</title>
			<rect class="PF00109" x="733" y="18" stroke-linejoin="round" width="24" height="26" fill="rgb(112,116,228)" stroke="rgb(89,92,182)" stroke-width="1" opacity="0.75" />
		</g>
		<g>
			<title>PF00550</title>
			<rect class="PF00550" x="762" y="18" stroke-linejoin="round" width="6" height="26" fill="rgb(103,191,88)" stroke="rgb(82,152,70)" stroke-width="1" opacity="0.75" />
		</g>
		<g>
			<title>PF08659</title>
			<rect class="PF08659" x="777" y="18" stroke-linejoin="round" width="19" height="26" fill="rgb(66,209,188)" stroke="rgb(52,167,150)" stroke-width="1" opacity="0.75" />
		</g>
		<g>
			<title>PF00698</title>
			<rect class="PF00698" x="824" y="18" stroke-linejoin="round" width="31" height="26" fill="rgb(59,176,209)" stroke="rgb(47,140,167)" stroke-width="1" opacity="0.75" />
		</g>
		<g>
			<title>PF16197</title>
			<rect class="PF16197" x="859" y="18" stroke-linejoin="round" width="11" height="26" fill="rgb(68,179,89)" stroke="rgb(54,143,71)" stroke-width="1" opacity="0.75" />
		</g>
		<g>
			<title>PF02801</title>
			<rect class="PF02801" x="870" y="18" stroke-linejoin="round" width="11" height="26" fill="rgb(215,78,102)" stroke="rgb(172,62,81)" stroke-width="1" opacity="0.75" />
		</g>
		<g>
			<title>PF00109</title>
			<rect class="PF00109" x="883" y="18" stroke-linejoin="round" width="24" height="26" fill="rgb(112,116,228)" stroke="rgb(89,92,182)" stroke-width="1" opacity="0.75" />
		</g>
		<g>
			<title>PF00550</title>
			<rect class="PF00550" x="911" y="18" stroke-linejoin="round" width="7" height="26" fill="rgb(103,191,88)" stroke="rgb(82,152,70)" stroke-width="1" opacity="0.75" />
		</g>
		<g>
			<title>PF16197</title>
			<rect class="PF16197" x="918" y="18" stroke-linejoin="round" width="10" height="26" fill="rgb(68,179,89)" stroke="rgb(54,143,71)" stroke-width="1" opacity="0.75" />
		</g>
		<g>
			<title>PF02801</title>
			<rect class="PF02801" x="929" y="18" stroke-linejoin="round" width="11" height="26" fill="rgb(215,78,102)" stroke="rgb(172,62,81)" stroke-width="1" opacity="0.75" />
		</g>
		<g>
			<title>PF00109</title>
			<rect class="PF00109" x="941" y="18" stroke-linejoin="round" width="24" height="26" fill="rgb(112,116,228)" stroke="rgb(89,92,182)" stroke-width="1" opacity="0.75" />
		</g>
	</g>
</svg>
