<svg version="1.1" baseProfile="full" xmlns="http://www.w3.org/2000/svg" width="190" height="62">
	<line x1="1" y1="31" x2="189" y2="31" style="stroke:rgb(50,50,50); stroke-width:3 "/>
	<g>
		<polygon class="NoName" points="1,16 1,16 1,1 9,31 1,61 1,46 1,46" fill="rgb(255,255,255)" fill-opacity="1.0" stroke="rgb(50,50,50)" stroke-width="1" />
	</g>
	<g>
		<polygon class="NoName" points="29,16 29,16 29,1 14,31 29,61 29,46 29,46" fill="rgb(255,255,255)" fill-opacity="1.0" stroke="rgb(50,50,50)" stroke-width="1" />
	</g>
	<g>
		<polygon class="NoName" points="43,16 43,16 43,1 70,31 43,61 43,46 43,46" fill="rgb(255,255,255)" fill-opacity="1.0" stroke="rgb(50,50,50)" stroke-width="1" />
		<g>
			<title>PF00497</title>
			<polygon class="PF00497" points="44,18 55,18 66,30 66,32 55,44 44,44" stroke-linejoin="round" width="22" height="26" fill="rgb(186,76,141)" stroke="rgb(148,60,112)" stroke-width="1" opacity="0.75" />
		</g>
	</g>
	<g>
		<title>mstI</title>
		<polygon class="mstI" points="80,16 80,16 80,1 86,31 80,61 80,46 80,46" fill="rgb(208,250,197)" fill-opacity="1.0" stroke="rgb(83,100,78)" stroke-width="1" />
		<g>
			<title>PF12559</title>
			<polygon class="PF12559" points="80,18 80,18 83,31 80,44 80,44" stroke-linejoin="round" width="5" height="26" fill="rgb(179,147,51)" stroke="rgb(143,117,40)" stroke-width="1" opacity="0.75" />
		</g>
	</g>
	<g>
		<polygon class="NoName" points="98,16 98,16 98,1 122,31 98,61 98,46 98,46" fill="rgb(255,255,255)" fill-opacity="1.0" stroke="rgb(50,50,50)" stroke-width="1" />
		<g>
			<title>PF08443</title>
			<polygon class="PF08443" points="101,18 109,18 119,31 109,44 101,44" stroke-linejoin="round" width="19" height="26" fill="rgb(192,59,192)" stroke="rgb(153,47,153)" stroke-width="1" opacity="0.75" />
		</g>
	</g>
	<g>
		<polygon class="NoName" points="138,16 138,16 138,1 125,31 138,61 138,46 138,46" fill="rgb(255,255,255)" fill-opacity="1.0" stroke="rgb(50,50,50)" stroke-width="1" />
	</g>
	<g>
		<polygon class="NoName" points="169,16 169,16 169,1 145,31 169,61 169,46 169,46" fill="rgb(255,255,255)" fill-opacity="1.0" stroke="rgb(50,50,50)" stroke-width="1" />
	</g>
</svg>
