<svg version="1.1" baseProfile="full" xmlns="http://www.w3.org/2000/svg" width="246" height="62">
	<line x1="1" y1="31" x2="245" y2="31" style="stroke:rgb(50,50,50); stroke-width:3 "/>
	<g>
		<title>SCO2780</title>
		<polygon class="SCO2780" points="1,16 6,16 6,1 36,31 6,61 6,46 1,46" fill="rgb(190,185,253)" fill-opacity="1.0" stroke="rgb(76,74,101)" stroke-width="1" />
		<g>
			<title>PF01497</title>
			<polygon class="PF01497" points="8,18 20,18 33,31 33,31 20,44 8,44" stroke-linejoin="round" width="25" height="26" fill="rgb(183,226,104)" stroke="rgb(146,180,83)" stroke-width="1" opacity="0.75" />
		</g>
	</g>
	<g>
		<title>SCO2781</title>
		<polygon class="SCO2781" points="43,16 43,16 43,1 71,31 43,61 43,46 43,46" fill="rgb(210,252,228)" fill-opacity="1.0" stroke="rgb(84,100,91)" stroke-width="1" />
		<g>
			<title>PF08021</title>
			<polygon class="PF08021" points="44,18 56,18 57,19 57,43 56,44 44,44" stroke-linejoin="round" width="13" height="26" fill="rgb(58,190,106)" stroke="rgb(46,152,84)" stroke-width="1" opacity="0.75" />
		</g>
		<g>
			<title>PF04954</title>
			<polygon class="PF04954" points="58,21 68,31 58,41" stroke-linejoin="round" width="11" height="26" fill="rgb(75,222,95)" stroke="rgb(60,177,76)" stroke-width="1" opacity="0.75" />
		</g>
	</g>
	<g>
		<title>SCO2782</title>
		<polygon class="SCO2782" points="77,16 95,16 95,1 125,31 95,61 95,46 77,46" fill="rgb(251,199,231)" fill-opacity="1.0" stroke="rgb(100,79,92)" stroke-width="1" />
		<g>
			<title>PF00282</title>
			<polygon class="PF00282" points="81,18 109,18 116,25 116,37 109,44 81,44" stroke-linejoin="round" width="35" height="26" fill="rgb(100,218,166)" stroke="rgb(80,174,132)" stroke-width="1" opacity="0.75" />
		</g>
	</g>
	<g>
		<title>SCO2783</title>
		<polygon class="SCO2783" points="126,16 137,16 137,1 167,31 137,61 137,46 126,46" fill="rgb(197,238,254)" fill-opacity="1.0" stroke="rgb(78,95,101)" stroke-width="1" />
		<g>
			<title>PF13434</title>
			<polygon class="PF13434" points="126,18 151,18 158,25 158,37 151,44 126,44" stroke-linejoin="round" width="32" height="26" fill="rgb(81,213,119)" stroke="rgb(64,170,95)" stroke-width="1" opacity="0.75" />
		</g>
	</g>
	<g>
		<title>SCO2784</title>
		<polygon class="SCO2784" points="167,16 167,16 167,1 185,31 167,61 167,46 167,46" fill="rgb(212,253,213)" fill-opacity="1.0" stroke="rgb(84,101,85)" stroke-width="1" />
		<g>
			<title>PF13523</title>
			<polygon class="PF13523" points="168,18 174,18 182,30 182,32 174,44 168,44" stroke-linejoin="round" width="14" height="26" fill="rgb(106,224,203)" stroke="rgb(84,179,162)" stroke-width="1" opacity="0.75" />
		</g>
	</g>
	<g>
		<title>SCO2785</title>
		<polygon class="SCO2785" points="185,16 214,16 214,1 244,31 214,61 214,46 185,46" fill="rgb(200,250,208)" fill-opacity="1.0" stroke="rgb(80,100,83)" stroke-width="1" />
		<g>
			<title>PF04183</title>
			<rect class="PF04183" x="199" y="18" stroke-linejoin="round" width="25" height="26" fill="rgb(221,104,121)" stroke="rgb(176,83,96)" stroke-width="1" opacity="0.75" />
		</g>
		<g>
			<title>PF06276</title>
			<polygon class="PF06276" points="226,18 228,18 241,31 241,31 228,44 226,44" stroke-linejoin="round" width="15" height="26" fill="rgb(76,151,221)" stroke="rgb(60,120,176)" stroke-width="1" opacity="0.75" />
		</g>
	</g>
</svg>
