<svg version="1.1" baseProfile="full" xmlns="http://www.w3.org/2000/svg" width="512" height="62">
	<line x1="1" y1="31" x2="511" y2="31" style="stroke:rgb(50,50,50); stroke-width:3 "/>
	<g>
		<title>slvT</title>
		<polygon class="slvT" points="392,16 361,16 361,1 331,31 361,61 361,46 392,46" fill="rgb(251,194,183)" fill-opacity="1.0" stroke="rgb(100,77,73)" stroke-width="1" />
		<g>
			<title>PF00005</title>
			<polygon class="PF00005" points="340,24 346,18 355,18 355,44 346,44 340,37" stroke-linejoin="round" width="15" height="26" fill="rgb(129,201,63)" stroke="rgb(103,160,50)" stroke-width="1" opacity="0.75" />
		</g>
	</g>
	<g>
		<title>slvB</title>
		<polygon class="slvB" points="491,16 423,16 423,1 393,31 423,61 423,46 491,46" fill="rgb(251,208,233)" fill-opacity="1.0" stroke="rgb(100,83,93)" stroke-width="1" />
		<g>
			<title>PF14028</title>
			<polygon class="PF14028" points="399,27 408,18 417,18 417,44 408,44 399,34" stroke-linejoin="round" width="18" height="26" fill="rgb(107,223,113)" stroke="rgb(85,178,90)" stroke-width="1" opacity="0.75" />
		</g>
		<g>
			<title>PF04738</title>
			<rect class="PF04738" x="425" y="18" stroke-linejoin="round" width="62" height="26" fill="rgb(219,60,229)" stroke="rgb(175,47,183)" stroke-width="1" opacity="0.75" />
		</g>
	</g>
	<g>
		<title>slvN</title>
		<polygon class="slvN" points="500,16 500,16 500,1 495,31 500,61 500,46 500,46" fill="rgb(250,212,211)" fill-opacity="1.0" stroke="rgb(100,84,84)" stroke-width="1" />
	</g>
	<g>
		<title>slvD</title>
		<polygon class="slvD" points="510,16 510,16 510,1 505,31 510,61 510,46 510,46" fill="rgb(192,232,252)" fill-opacity="1.0" stroke="rgb(76,92,100)" stroke-width="1" />
		<g>
			<title>PF02052</title>
			<polygon class="PF02052" points="507,31 509,19 509,42" stroke-linejoin="round" width="3" height="26" fill="rgb(66,195,175)" stroke="rgb(52,156,140)" stroke-width="1" opacity="0.75" />
		</g>
	</g>
	<g>
		<title>slvF</title>
		<polygon class="slvF" points="1,16 1,16 1,1 23,31 1,61 1,46 1,46" fill="rgb(184,219,251)" fill-opacity="1.0" stroke="rgb(73,87,100)" stroke-width="1" />
		<g>
			<title>PF00005</title>
			<polygon class="PF00005" points="2,18 10,18 15,24 15,38 10,44 2,44" stroke-linejoin="round" width="13" height="26" fill="rgb(129,201,63)" stroke="rgb(103,160,50)" stroke-width="1" opacity="0.75" />
		</g>
	</g>
	<g>
		<title>slvE</title>
		<polygon class="slvE" points="23,16 23,16 23,1 47,31 23,61 23,46 23,46" fill="rgb(187,250,217)" fill-opacity="1.0" stroke="rgb(74,100,86)" stroke-width="1" />
	</g>
	<g>
		<title>slvG</title>
		<polygon class="slvG" points="47,16 47,16 47,1 68,31 47,61 47,46 47,46" fill="rgb(188,187,253)" fill-opacity="1.0" stroke="rgb(75,74,101)" stroke-width="1" />
	</g>
	<g>
		<polygon class="NoName" points="95,16 95,16 95,1 124,31 95,61 95,46 95,46" fill="rgb(255,255,255)" fill-opacity="1.0" stroke="rgb(50,50,50)" stroke-width="1" />
		<g>
			<title>PF05598</title>
			<rect class="PF05598" x="97" y="18" stroke-linejoin="round" width="7" height="26" fill="rgb(221,202,107)" stroke="rgb(176,161,85)" stroke-width="1" opacity="0.75" />
		</g>
		<g>
			<title>PF01609</title>
			<polygon class="PF01609" points="105,18 108,18 121,31 108,44 105,44" stroke-linejoin="round" width="18" height="26" fill="rgb(229,102,99)" stroke="rgb(183,81,79)" stroke-width="1" opacity="0.75" />
		</g>
	</g>
	<g>
		<title>slvK</title>
		<polygon class="slvK" points="191,16 177,16 177,1 147,31 177,61 177,46 191,46" fill="rgb(207,253,226)" fill-opacity="1.0" stroke="rgb(82,101,90)" stroke-width="1" />
		<g>
			<title>PF02518</title>
			<polygon class="PF02518" points="149,31 157,23 157,38" stroke-linejoin="round" width="10" height="26" fill="rgb(80,94,225)" stroke="rgb(64,75,180)" stroke-width="1" opacity="0.75" />
		</g>
		<g>
			<title>PF00512</title>
			<polygon class="PF00512" points="162,18 162,18 168,18 168,44 162,44 162,43" stroke-linejoin="round" width="6" height="26" fill="rgb(193,125,62)" stroke="rgb(154,100,49)" stroke-width="1" opacity="0.75" />
		</g>
	</g>
	<g>
		<title>slvR</title>
		<polygon class="slvR" points="213,16 213,16 213,1 191,31 213,61 213,46 213,46" fill="rgb(253,183,248)" fill-opacity="1.0" stroke="rgb(101,73,99)" stroke-width="1" />
		<g>
			<title>PF00486</title>
			<polygon class="PF00486" points="193,31 198,24 198,37" stroke-linejoin="round" width="7" height="26" fill="rgb(204,153,57)" stroke="rgb(163,122,45)" stroke-width="1" opacity="0.75" />
		</g>
		<g>
			<title>PF00072</title>
			<polygon class="PF00072" points="202,19 203,18 212,18 212,44 203,44 202,42" stroke-linejoin="round" width="10" height="26" fill="rgb(100,107,203)" stroke="rgb(80,85,162)" stroke-width="1" opacity="0.75" />
		</g>
	</g>
	<g>
		<title>slvP</title>
		<polygon class="slvP" points="266,16 243,16 243,1 213,31 243,61 243,46 266,46" fill="rgb(240,199,252)" fill-opacity="1.0" stroke="rgb(96,79,100)" stroke-width="1" />
		<g>
			<title>PF00082</title>
			<polygon class="PF00082" points="223,23 228,18 255,18 255,44 228,44 223,38" stroke-linejoin="round" width="32" height="26" fill="rgb(193,159,94)" stroke="rgb(154,127,75)" stroke-width="1" opacity="0.75" />
		</g>
	</g>
	<g>
		<title>slvI</title>
		<polygon class="slvI" points="291,16 291,16 291,1 267,31 291,61 291,46 291,46" fill="rgb(186,243,252)" fill-opacity="1.0" stroke="rgb(74,97,100)" stroke-width="1" />
	</g>
	<g>
		<title>slvC</title>
		<polygon class="slvC" points="332,16 322,16 322,1 292,31 322,61 322,46 332,46" fill="rgb(213,232,254)" fill-opacity="1.0" stroke="rgb(85,92,101)" stroke-width="1" />
		<g>
			<title>PF05147</title>
			<polygon class="PF05147" points="294,31 307,18 329,18 329,44 307,44" stroke-linejoin="round" width="37" height="26" fill="rgb(129,182,79)" stroke="rgb(103,145,63)" stroke-width="1" opacity="0.75" />
		</g>
	</g>
</svg>
