<svg version="1.1" baseProfile="full" xmlns="http://www.w3.org/2000/svg" width="669" height="62">
	<line x1="1" y1="31" x2="668" y2="31" style="stroke:rgb(50,50,50); stroke-width:3 "/>
	<g>
		<title>abeY</title>
		<polygon class="abeY" points="425,16 425,16 425,1 399,31 425,61 425,46 425,46" fill="rgb(252,200,186)" fill-opacity="1.0" stroke="rgb(100,80,74)" stroke-width="1" />
		<g>
			<title>PF12146</title>
			<polygon class="PF12146" points="408,23 412,18 422,18 422,44 412,44 408,38" stroke-linejoin="round" width="14" height="26" fill="rgb(140,98,205)" stroke="rgb(112,78,164)" stroke-width="1" opacity="0.75" />
		</g>
	</g>
	<g>
		<title>abeO</title>
		<polygon class="abeO" points="431,16 452,16 452,1 482,31 452,61 452,46 431,46" fill="rgb(212,251,245)" fill-opacity="1.0" stroke="rgb(84,100,98)" stroke-width="1" />
		<g>
			<title>PF01593</title>
			<polygon class="PF01593" points="435,18 466,18 479,31 466,44 435,44" stroke-linejoin="round" width="45" height="26" fill="rgb(184,74,52)" stroke="rgb(147,59,41)" stroke-width="1" opacity="0.75" />
		</g>
	</g>
	<g>
		<title>abeC</title>
		<polygon class="abeC" points="482,16 505,16 505,1 535,31 505,61 505,46 482,46" fill="rgb(205,177,253)" fill-opacity="1.0" stroke="rgb(82,70,101)" stroke-width="1" />
		<g>
			<title>PF01494</title>
			<rect class="PF01494" x="483" y="18" stroke-linejoin="round" width="34" height="26" fill="rgb(182,175,59)" stroke="rgb(145,140,47)" stroke-width="1" opacity="0.75" />
		</g>
	</g>
	<g>
		<title>abeP</title>
		<polygon class="abeP" points="535,16 544,16 544,1 574,31 544,61 544,46 535,46" fill="rgb(252,182,243)" fill-opacity="1.0" stroke="rgb(100,72,97)" stroke-width="1" />
		<g>
			<title>PF00067</title>
			<polygon class="PF00067" points="551,18 558,18 570,30 570,32 558,44 551,44" stroke-linejoin="round" width="19" height="26" fill="rgb(85,216,107)" stroke="rgb(68,172,85)" stroke-width="1" opacity="0.75" />
		</g>
	</g>
	<g>
		<title>abeR</title>
		<polygon class="abeR" points="667,16 604,16 604,1 574,31 604,61 604,46 667,46" fill="rgb(210,251,242)" fill-opacity="1.0" stroke="rgb(84,100,96)" stroke-width="1" />
		<g>
			<title>PF00196</title>
			<polygon class="PF00196" points="576,31 579,28 579,33" stroke-linejoin="round" width="5" height="26" fill="rgb(219,94,82)" stroke="rgb(175,75,65)" stroke-width="1" opacity="0.75" />
		</g>
	</g>
	<g>
		<title>abeM2</title>
		<polygon class="abeM2" points="24,16 24,16 24,1 1,31 24,61 24,46 24,46" fill="rgb(204,253,237)" fill-opacity="1.0" stroke="rgb(81,101,94)" stroke-width="1" />
		<g>
			<title>PF13649</title>
			<polygon class="PF13649" points="8,25 13,18 18,18 18,44 13,44 8,36" stroke-linejoin="round" width="10" height="26" fill="rgb(227,135,74)" stroke="rgb(181,108,59)" stroke-width="1" opacity="0.75" />
		</g>
	</g>
	<g>
		<title>abeX1</title>
		<polygon class="abeX1" points="80,16 57,16 57,1 27,31 57,61 57,46 80,46" fill="rgb(206,249,223)" fill-opacity="1.0" stroke="rgb(82,99,89)" stroke-width="1" />
		<g>
			<title>PF01494</title>
			<rect class="PF01494" x="44" y="18" stroke-linejoin="round" width="34" height="26" fill="rgb(182,175,59)" stroke="rgb(145,140,47)" stroke-width="1" opacity="0.75" />
		</g>
	</g>
	<g>
		<title>abeM1</title>
		<polygon class="abeM1" points="87,16 87,16 87,1 110,31 87,61 87,46 87,46" fill="rgb(184,251,190)" fill-opacity="1.0" stroke="rgb(73,100,76)" stroke-width="1" />
		<g>
			<title>PF13649</title>
			<polygon class="PF13649" points="91,18 97,18 100,22 100,40 97,44 91,44" stroke-linejoin="round" width="9" height="26" fill="rgb(227,135,74)" stroke="rgb(181,108,59)" stroke-width="1" opacity="0.75" />
		</g>
	</g>
	<g>
		<title>abeD</title>
		<polygon class="abeD" points="110,16 181,16 181,1 211,31 181,61 181,46 110,46" fill="rgb(179,252,229)" fill-opacity="1.0" stroke="rgb(71,100,91)" stroke-width="1" />
		<g>
			<title>PF12902</title>
			<rect class="PF12902" x="170" y="18" stroke-linejoin="round" width="24" height="26" fill="rgb(159,71,195)" stroke="rgb(127,56,156)" stroke-width="1" opacity="0.75" />
		</g>
	</g>
	<g>
		<title>abeX2</title>
		<polygon class="abeX2" points="213,16 223,16 223,1 253,31 223,61 223,46 213,46" fill="rgb(201,249,254)" fill-opacity="1.0" stroke="rgb(80,99,101)" stroke-width="1" />
		<g>
			<title>PF01494</title>
			<polygon class="PF01494" points="213,18 237,18 247,28 247,34 237,44 213,44" stroke-linejoin="round" width="34" height="26" fill="rgb(182,175,59)" stroke="rgb(145,140,47)" stroke-width="1" opacity="0.75" />
		</g>
	</g>
	<g>
		<title>abeM3</title>
		<polygon class="abeM3" points="253,16 256,16 256,1 286,31 256,61 256,46 253,46" fill="rgb(193,252,213)" fill-opacity="1.0" stroke="rgb(77,100,85)" stroke-width="1" />
		<g>
			<title>PF16864</title>
			<rect class="PF16864" x="254" y="18" stroke-linejoin="round" width="7" height="26" fill="rgb(84,199,85)" stroke="rgb(67,159,68)" stroke-width="1" opacity="0.75" />
		</g>
		<g>
			<title>PF00891</title>
			<polygon class="PF00891" points="263,18 270,18 283,31 270,44 263,44" stroke-linejoin="round" width="22" height="26" fill="rgb(50,51,190)" stroke="rgb(39,40,152)" stroke-width="1" opacity="0.75" />
		</g>
	</g>
	<g>
		<title>abeH</title>
		<polygon class="abeH" points="288,16 309,16 309,1 339,31 309,61 309,46 288,46" fill="rgb(249,199,252)" fill-opacity="1.0" stroke="rgb(99,79,100)" stroke-width="1" />
		<g>
			<title>PF04820</title>
			<polygon class="PF04820" points="288,18 323,18 335,30 335,32 323,44 288,44" stroke-linejoin="round" width="47" height="26" fill="rgb(179,74,194)" stroke="rgb(143,59,155)" stroke-width="1" opacity="0.75" />
		</g>
	</g>
	<g>
		<title>abeT</title>
		<polygon class="abeT" points="340,16 351,16 351,1 381,31 351,61 351,46 340,46" fill="rgb(198,250,227)" fill-opacity="1.0" stroke="rgb(79,100,90)" stroke-width="1" />
		<g>
			<title>PF00999</title>
			<polygon class="PF00999" points="340,18 365,18 378,31 365,44 340,44" stroke-linejoin="round" width="39" height="26" fill="rgb(229,67,191)" stroke="rgb(183,53,152)" stroke-width="1" opacity="0.75" />
		</g>
	</g>
	<g>
		<title>abeF</title>
		<polygon class="abeF" points="381,16 381,16 381,1 397,31 381,61 381,46 381,46" fill="rgb(212,254,241)" fill-opacity="1.0" stroke="rgb(84,101,96)" stroke-width="1" />
		<g>
			<title>PF01613</title>
			<polygon class="PF01613" points="381,18 387,18 394,31 387,44 381,44" stroke-linejoin="round" width="14" height="26" fill="rgb(107,197,222)" stroke="rgb(85,157,177)" stroke-width="1" opacity="0.75" />
		</g>
	</g>
</svg>
