<svg version="1.1" baseProfile="full" xmlns="http://www.w3.org/2000/svg" width="666" height="62">
	<line x1="1" y1="31" x2="665" y2="31" style="stroke:rgb(50,50,50); stroke-width:3 "/>
	<g>
		<title>oxr</title>
		<polygon class="oxr" points="470,16 470,16 470,1 449,31 470,61 470,46 470,46" fill="rgb(253,183,220)" fill-opacity="1.0" stroke="rgb(101,73,88)" stroke-width="1" />
		<g>
			<title>PF00881</title>
			<polygon class="PF00881" points="451,31 460,18 468,18 468,44 460,44" stroke-linejoin="round" width="17" height="26" fill="rgb(79,118,187)" stroke="rgb(63,94,149)" stroke-width="1" opacity="0.75" />
		</g>
	</g>
	<g>
		<title>trn</title>
		<polygon class="trn" points="514,16 504,16 504,1 474,31 504,61 504,46 514,46" fill="rgb(180,223,252)" fill-opacity="1.0" stroke="rgb(72,89,100)" stroke-width="1" />
		<g>
			<title>PF07690</title>
			<rect class="PF07690" x="490" y="18" stroke-linejoin="round" width="22" height="26" fill="rgb(193,224,74)" stroke="rgb(154,179,59)" stroke-width="1" opacity="0.75" />
		</g>
	</g>
	<g>
		<title>lig</title>
		<polygon class="lig" points="558,16 546,16 546,1 516,31 546,61 546,46 558,46" fill="rgb(254,190,189)" fill-opacity="1.0" stroke="rgb(101,76,75)" stroke-width="1" />
		<g>
			<title>PF13535</title>
			<polygon class="PF13535" points="528,21 531,18 543,18 543,44 531,44 528,40" stroke-linejoin="round" width="15" height="26" fill="rgb(197,156,74)" stroke="rgb(157,124,59)" stroke-width="1" opacity="0.75" />
		</g>
	</g>
	<g>
		<title>pah4</title>
		<polygon class="pah4" points="593,16 593,16 593,1 563,31 593,61 593,46 593,46" fill="rgb(181,252,232)" fill-opacity="1.0" stroke="rgb(72,100,92)" stroke-width="1" />
		<g>
			<title>PF00491</title>
			<polygon class="PF00491" points="565,31 578,18 590,18 590,44 578,44" stroke-linejoin="round" width="27" height="26" fill="rgb(126,224,107)" stroke="rgb(100,179,85)" stroke-width="1" opacity="0.75" />
		</g>
	</g>
	<g>
		<title>ctr</title>
		<polygon class="ctr" points="664,16 649,16 649,1 619,31 649,61 649,46 664,46" fill="rgb(210,201,254)" fill-opacity="1.0" stroke="rgb(84,80,101)" stroke-width="1" />
		<g>
			<title>PF13560</title>
			<rect class="PF13560" x="657" y="18" stroke-linejoin="round" width="5" height="26" fill="rgb(207,145,90)" stroke="rgb(165,116,72)" stroke-width="1" opacity="0.75" />
		</g>
	</g>
	<g>
		<title>psr</title>
		<polygon class="psr" points="1,16 55,16 55,1 85,31 55,61 55,46 1,46" fill="rgb(253,223,185)" fill-opacity="1.0" stroke="rgb(101,89,74)" stroke-width="1" />
		<g>
			<title>PF00486</title>
			<rect class="PF00486" x="4" y="18" stroke-linejoin="round" width="8" height="26" fill="rgb(204,153,57)" stroke="rgb(163,122,45)" stroke-width="1" opacity="0.75" />
		</g>
		<g>
			<title>PF03704</title>
			<rect class="PF03704" x="12" y="18" stroke-linejoin="round" width="14" height="26" fill="rgb(217,89,196)" stroke="rgb(173,71,156)" stroke-width="1" opacity="0.75" />
		</g>
		<g>
			<title>PF13191</title>
			<rect class="PF13191" x="36" y="18" stroke-linejoin="round" width="16" height="26" fill="rgb(186,102,77)" stroke="rgb(148,81,61)" stroke-width="1" opacity="0.75" />
		</g>
	</g>
	<g>
		<title>atr</title>
		<polygon class="atr" points="91,16 107,16 107,1 137,31 107,61 107,46 91,46" fill="rgb(213,252,217)" fill-opacity="1.0" stroke="rgb(85,100,86)" stroke-width="1" />
		<g>
			<title>PF00202</title>
			<polygon class="PF00202" points="96,18 121,18 134,31 121,44 96,44" stroke-linejoin="round" width="40" height="26" fill="rgb(49,163,189)" stroke="rgb(39,130,151)" stroke-width="1" opacity="0.75" />
		</g>
	</g>
	<g>
		<title>akr</title>
		<polygon class="akr" points="137,16 141,16 141,1 171,31 141,61 141,46 137,46" fill="rgb(252,197,197)" fill-opacity="1.0" stroke="rgb(100,78,78)" stroke-width="1" />
		<g>
			<title>PF00248</title>
			<polygon class="PF00248" points="139,18 155,18 168,31 168,31 155,44 139,44" stroke-linejoin="round" width="29" height="26" fill="rgb(225,205,58)" stroke="rgb(180,164,46)" stroke-width="1" opacity="0.75" />
		</g>
	</g>
	<g>
		<title>hmt</title>
		<polygon class="hmt" points="216,16 205,16 205,1 175,31 205,61 205,46 216,46" fill="rgb(198,253,238)" fill-opacity="1.0" stroke="rgb(79,101,95)" stroke-width="1" />
		<g>
			<title>PF00464</title>
			<polygon class="PF00464" points="179,29 190,18 215,18 215,44 190,44 179,32" stroke-linejoin="round" width="36" height="26" fill="rgb(215,97,215)" stroke="rgb(172,77,172)" stroke-width="1" opacity="0.75" />
		</g>
	</g>
	<g>
		<title>ceaS3</title>
		<polygon class="ceaS3" points="227,16 254,16 254,1 284,31 254,61 254,46 227,46" fill="rgb(251,204,207)" fill-opacity="1.0" stroke="rgb(100,81,82)" stroke-width="1" />
		<g>
			<title>PF02776</title>
			<rect class="PF02776" x="228" y="18" stroke-linejoin="round" width="16" height="26" fill="rgb(55,81,185)" stroke="rgb(44,64,148)" stroke-width="1" opacity="0.75" />
		</g>
		<g>
			<title>PF00205</title>
			<rect class="PF00205" x="247" y="18" stroke-linejoin="round" width="14" height="26" fill="rgb(149,194,69)" stroke="rgb(119,155,55)" stroke-width="1" opacity="0.75" />
		</g>
		<g>
			<title>PF02775</title>
			<polygon class="PF02775" points="267,18 268,18 281,31 281,31 268,44 267,44" stroke-linejoin="round" width="14" height="26" fill="rgb(156,179,45)" stroke="rgb(124,143,36)" stroke-width="1" opacity="0.75" />
		</g>
	</g>
	<g>
		<title>bls3</title>
		<polygon class="bls3" points="284,16 304,16 304,1 334,31 304,61 304,46 284,46" fill="rgb(209,238,250)" fill-opacity="1.0" stroke="rgb(83,95,100)" stroke-width="1" />
		<g>
			<title>PF13537</title>
			<rect class="PF13537" x="288" y="18" stroke-linejoin="round" width="11" height="26" fill="rgb(200,63,57)" stroke="rgb(160,50,45)" stroke-width="1" opacity="0.75" />
		</g>
		<g>
			<title>PF00733</title>
			<polygon class="PF00733" points="305,18 318,18 321,21 321,41 318,44 305,44" stroke-linejoin="round" width="16" height="26" fill="rgb(97,201,176)" stroke="rgb(77,160,140)" stroke-width="1" opacity="0.75" />
		</g>
		<g>
			<title>PF00733</title>
			<polygon class="PF00733" points="322,22 331,31 322,40" stroke-linejoin="round" width="10" height="26" fill="rgb(97,201,176)" stroke="rgb(77,160,140)" stroke-width="1" opacity="0.75" />
		</g>
	</g>
	<g>
		<title>pah3</title>
		<polygon class="pah3" points="338,16 340,16 340,1 370,31 340,61 340,46 338,46" fill="rgb(251,226,211)" fill-opacity="1.0" stroke="rgb(100,90,84)" stroke-width="1" />
		<g>
			<title>PF00491</title>
			<polygon class="PF00491" points="341,18 354,18 367,31 354,44 341,44" stroke-linejoin="round" width="27" height="26" fill="rgb(126,224,107)" stroke="rgb(100,179,85)" stroke-width="1" opacity="0.75" />
		</g>
	</g>
	<g>
		<title>cas3</title>
		<polygon class="cas3" points="370,16 372,16 372,1 402,31 372,61 372,46 370,46" fill="rgb(252,178,198)" fill-opacity="1.0" stroke="rgb(100,71,79)" stroke-width="1" />
		<g>
			<title>PF02668</title>
			<polygon class="PF02668" points="375,18 386,18 389,21 389,41 386,44 375,44" stroke-linejoin="round" width="14" height="26" fill="rgb(180,79,217)" stroke="rgb(144,63,173)" stroke-width="1" opacity="0.75" />
		</g>
		<g>
			<title>PF02668</title>
			<polygon class="PF02668" points="391,23 399,31 399,31 391,39" stroke-linejoin="round" width="8" height="26" fill="rgb(180,79,217)" stroke="rgb(144,63,173)" stroke-width="1" opacity="0.75" />
		</g>
	</g>
	<g>
		<title>oat3</title>
		<polygon class="oat3" points="407,16 416,16 416,1 446,31 416,61 416,46 407,46" fill="rgb(220,205,254)" fill-opacity="1.0" stroke="rgb(87,82,101)" stroke-width="1" />
		<g>
			<title>PF01960</title>
			<polygon class="PF01960" points="408,18 430,18 443,31 430,44 408,44" stroke-linejoin="round" width="38" height="26" fill="rgb(81,120,181)" stroke="rgb(64,95,144)" stroke-width="1" opacity="0.75" />
		</g>
	</g>
</svg>
