<svg version="1.1" baseProfile="full" xmlns="http://www.w3.org/2000/svg" width="1280" height="62">
	<line x1="1" y1="31" x2="1279" y2="31" style="stroke:rgb(50,50,50); stroke-width:3 "/>
	<g>
		<title>norC</title>
		<polygon class="norC" points="1030,16 1226,16 1226,1 1256,31 1226,61 1226,46 1030,46" fill="rgb(253,207,206)" fill-opacity="1.0" stroke="rgb(101,82,82)" stroke-width="1" />
		<g>
			<title>PF08990</title>
			<rect class="PF08990" x="1031" y="18" stroke-linejoin="round" width="2" height="26" fill="rgb(180,75,55)" stroke="rgb(144,60,44)" stroke-width="1" opacity="0.75" />
		</g>
		<g>
			<title>PF00109</title>
			<rect class="PF00109" x="1034" y="18" stroke-linejoin="round" width="25" height="26" fill="rgb(112,116,228)" stroke="rgb(89,92,182)" stroke-width="1" opacity="0.75" />
		</g>
		<g>
			<title>PF02801</title>
			<rect class="PF02801" x="1060" y="18" stroke-linejoin="round" width="3" height="26" fill="rgb(215,78,102)" stroke="rgb(172,62,81)" stroke-width="1" opacity="0.75" />
		</g>
		<g>
			<title>PF00698</title>
			<rect class="PF00698" x="1087" y="18" stroke-linejoin="round" width="32" height="26" fill="rgb(59,176,209)" stroke="rgb(47,140,167)" stroke-width="1" opacity="0.75" />
		</g>
		<g>
			<title>PF00550</title>
			<rect class="PF00550" x="1127" y="18" stroke-linejoin="round" width="6" height="26" fill="rgb(103,191,88)" stroke="rgb(82,152,70)" stroke-width="1" opacity="0.75" />
		</g>
		<g>
			<title>PF00109</title>
			<rect class="PF00109" x="1136" y="18" stroke-linejoin="round" width="25" height="26" fill="rgb(112,116,228)" stroke="rgb(89,92,182)" stroke-width="1" opacity="0.75" />
		</g>
		<g>
			<title>PF02801</title>
			<rect class="PF02801" x="1162" y="18" stroke-linejoin="round" width="11" height="26" fill="rgb(215,78,102)" stroke="rgb(172,62,81)" stroke-width="1" opacity="0.75" />
		</g>
		<g>
			<title>PF16197</title>
			<rect class="PF16197" x="1174" y="18" stroke-linejoin="round" width="12" height="26" fill="rgb(68,179,89)" stroke="rgb(54,143,71)" stroke-width="1" opacity="0.75" />
		</g>
		<g>
			<title>PF00550</title>
			<rect class="PF00550" x="1220" y="18" stroke-linejoin="round" width="6" height="26" fill="rgb(103,191,88)" stroke="rgb(82,152,70)" stroke-width="1" opacity="0.75" />
		</g>
		<g>
			<title>PF00975</title>
			<polygon class="PF00975" points="1234,18 1240,18 1253,31 1240,44 1234,44" stroke-linejoin="round" width="21" height="26" fill="rgb(207,80,138)" stroke="rgb(165,63,110)" stroke-width="1" opacity="0.75" />
		</g>
	</g>
	<g>
		<title>norI</title>
		<polygon class="norI" points="1256,16 1256,16 1256,1 1279,31 1256,61 1256,46 1256,46" fill="rgb(236,254,208)" fill-opacity="1.0" stroke="rgb(94,101,83)" stroke-width="1" />
		<g>
			<title>PF08242</title>
			<polygon class="PF08242" points="1262,18 1266,18 1271,24 1271,38 1266,44 1262,44" stroke-linejoin="round" width="9" height="26" fill="rgb(187,59,115)" stroke="rgb(149,47,92)" stroke-width="1" opacity="0.75" />
		</g>
	</g>
	<g>
		<title>norD</title>
		<polygon class="norD" points="1,16 1,16 1,1 14,31 1,61 1,46 1,46" fill="rgb(252,236,194)" fill-opacity="1.0" stroke="rgb(100,94,77)" stroke-width="1" />
		<g>
			<title>PF12840</title>
			<polygon class="PF12840" points="4,18 5,18 9,25 9,37 5,44 4,44" stroke-linejoin="round" width="5" height="26" fill="rgb(157,225,93)" stroke="rgb(125,180,74)" stroke-width="1" opacity="0.75" />
		</g>
	</g>
	<g>
		<title>norE</title>
		<polygon class="norE" points="74,16 43,16 43,1 13,31 43,61 43,46 74,46" fill="rgb(251,231,179)" fill-opacity="1.0" stroke="rgb(100,92,71)" stroke-width="1" />
		<g>
			<title>PF13193</title>
			<polygon class="PF13193" points="15,31 22,24 22,37" stroke-linejoin="round" width="7" height="26" fill="rgb(182,50,118)" stroke="rgb(145,39,94)" stroke-width="1" opacity="0.75" />
		</g>
		<g>
			<title>PF00501</title>
			<polygon class="PF00501" points="23,23 28,18 61,18 61,44 28,44 23,38" stroke-linejoin="round" width="38" height="26" fill="rgb(60,217,223)" stroke="rgb(48,173,178)" stroke-width="1" opacity="0.75" />
		</g>
	</g>
	<g>
		<title>norF</title>
		<polygon class="norF" points="73,16 76,16 76,1 106,31 76,61 76,46 73,46" fill="rgb(244,203,251)" fill-opacity="1.0" stroke="rgb(97,81,100)" stroke-width="1" />
		<g>
			<title>PF11583</title>
			<polygon class="PF11583" points="75,18 90,18 103,31 90,44 75,44" stroke-linejoin="round" width="29" height="26" fill="rgb(100,210,108)" stroke="rgb(80,168,86)" stroke-width="1" opacity="0.75" />
		</g>
	</g>
	<g>
		<title>norJ</title>
		<polygon class="norJ" points="108,16 113,16 113,1 143,31 113,61 113,46 108,46" fill="rgb(208,253,244)" fill-opacity="1.0" stroke="rgb(83,101,97)" stroke-width="1" />
		<g>
			<title>PF00793</title>
			<polygon class="PF00793" points="116,18 127,18 140,31 127,44 116,44" stroke-linejoin="round" width="25" height="26" fill="rgb(223,103,208)" stroke="rgb(178,82,166)" stroke-width="1" opacity="0.75" />
		</g>
	</g>
	<g>
		<title>norA</title>
		<polygon class="norA" points="145,16 304,16 304,1 334,31 304,61 304,46 145,46" fill="rgb(242,250,201)" fill-opacity="1.0" stroke="rgb(96,100,80)" stroke-width="1" />
		<g>
			<title>PF00109</title>
			<rect class="PF00109" x="156" y="18" stroke-linejoin="round" width="24" height="26" fill="rgb(112,116,228)" stroke="rgb(89,92,182)" stroke-width="1" opacity="0.75" />
		</g>
		<g>
			<title>PF02801</title>
			<rect class="PF02801" x="181" y="18" stroke-linejoin="round" width="11" height="26" fill="rgb(215,78,102)" stroke="rgb(172,62,81)" stroke-width="1" opacity="0.75" />
		</g>
		<g>
			<title>PF16197</title>
			<rect class="PF16197" x="193" y="18" stroke-linejoin="round" width="11" height="26" fill="rgb(68,179,89)" stroke="rgb(54,143,71)" stroke-width="1" opacity="0.75" />
		</g>
		<g>
			<title>PF00698</title>
			<rect class="PF00698" x="209" y="18" stroke-linejoin="round" width="32" height="26" fill="rgb(59,176,209)" stroke="rgb(47,140,167)" stroke-width="1" opacity="0.75" />
		</g>
		<g>
			<title>PF14765</title>
			<rect class="PF14765" x="246" y="18" stroke-linejoin="round" width="27" height="26" fill="rgb(173,56,182)" stroke="rgb(138,44,145)" stroke-width="1" opacity="0.75" />
		</g>
		<g>
			<title>PF08659</title>
			<rect class="PF08659" x="294" y="18" stroke-linejoin="round" width="17" height="26" fill="rgb(66,209,188)" stroke="rgb(52,167,150)" stroke-width="1" opacity="0.75" />
		</g>
		<g>
			<title>PF00550</title>
			<polygon class="PF00550" points="323,23 329,29 329,33 323,39" stroke-linejoin="round" width="6" height="26" fill="rgb(103,191,88)" stroke="rgb(82,152,70)" stroke-width="1" opacity="0.75" />
		</g>
	</g>
	<g>
		<title>norG</title>
		<polygon class="norG" points="335,16 375,16 375,1 405,31 375,61 375,46 335,46" fill="rgb(199,251,213)" fill-opacity="1.0" stroke="rgb(79,100,85)" stroke-width="1" />
		<g>
			<title>PF00117</title>
			<rect class="PF00117" x="335" y="18" stroke-linejoin="round" width="18" height="26" fill="rgb(159,201,96)" stroke="rgb(127,160,76)" stroke-width="1" opacity="0.75" />
		</g>
		<g>
			<title>PF04715</title>
			<rect class="PF04715" x="357" y="18" stroke-linejoin="round" width="14" height="26" fill="rgb(163,87,183)" stroke="rgb(130,69,146)" stroke-width="1" opacity="0.75" />
		</g>
		<g>
			<title>PF00425</title>
			<polygon class="PF00425" points="376,18 389,18 401,30 401,32 389,44 376,44" stroke-linejoin="round" width="25" height="26" fill="rgb(188,116,88)" stroke="rgb(150,92,70)" stroke-width="1" opacity="0.75" />
		</g>
	</g>
	<g>
		<title>norH</title>
		<polygon class="norH" points="407,16 417,16 417,1 447,31 417,61 417,46 407,46" fill="rgb(194,252,188)" fill-opacity="1.0" stroke="rgb(77,100,75)" stroke-width="1" />
		<g>
			<title>PF00067</title>
			<polygon class="PF00067" points="434,21 444,31 444,31 434,41" stroke-linejoin="round" width="10" height="26" fill="rgb(85,216,107)" stroke="rgb(68,172,85)" stroke-width="1" opacity="0.75" />
		</g>
	</g>
	<g>
		<title>norA_</title>
		<polygon class="norA_" points="450,16 782,16 782,1 812,31 782,61 782,46 450,46" fill="rgb(227,254,212)" fill-opacity="1.0" stroke="rgb(90,101,84)" stroke-width="1" />
		<g>
			<title>PF08990</title>
			<rect class="PF08990" x="450" y="18" stroke-linejoin="round" width="2" height="26" fill="rgb(180,75,55)" stroke="rgb(144,60,44)" stroke-width="1" opacity="0.75" />
		</g>
		<g>
			<title>PF00109</title>
			<rect class="PF00109" x="453" y="18" stroke-linejoin="round" width="25" height="26" fill="rgb(112,116,228)" stroke="rgb(89,92,182)" stroke-width="1" opacity="0.75" />
		</g>
		<g>
			<title>PF02801</title>
			<rect class="PF02801" x="479" y="18" stroke-linejoin="round" width="11" height="26" fill="rgb(215,78,102)" stroke="rgb(172,62,81)" stroke-width="1" opacity="0.75" />
		</g>
		<g>
			<title>PF16197</title>
			<rect class="PF16197" x="491" y="18" stroke-linejoin="round" width="11" height="26" fill="rgb(68,179,89)" stroke="rgb(54,143,71)" stroke-width="1" opacity="0.75" />
		</g>
		<g>
			<title>PF00698</title>
			<rect class="PF00698" x="506" y="18" stroke-linejoin="round" width="32" height="26" fill="rgb(59,176,209)" stroke="rgb(47,140,167)" stroke-width="1" opacity="0.75" />
		</g>
		<g>
			<title>PF14765</title>
			<rect class="PF14765" x="543" y="18" stroke-linejoin="round" width="27" height="26" fill="rgb(173,56,182)" stroke="rgb(138,44,145)" stroke-width="1" opacity="0.75" />
		</g>
		<g>
			<title>PF08659</title>
			<rect class="PF08659" x="594" y="18" stroke-linejoin="round" width="17" height="26" fill="rgb(66,209,188)" stroke="rgb(52,167,150)" stroke-width="1" opacity="0.75" />
		</g>
		<g>
			<title>PF00550</title>
			<rect class="PF00550" x="622" y="18" stroke-linejoin="round" width="6" height="26" fill="rgb(103,191,88)" stroke="rgb(82,152,70)" stroke-width="1" opacity="0.75" />
		</g>
		<g>
			<title>PF00109</title>
			<rect class="PF00109" x="631" y="18" stroke-linejoin="round" width="24" height="26" fill="rgb(112,116,228)" stroke="rgb(89,92,182)" stroke-width="1" opacity="0.75" />
		</g>
		<g>
			<title>PF02801</title>
			<rect class="PF02801" x="656" y="18" stroke-linejoin="round" width="11" height="26" fill="rgb(215,78,102)" stroke="rgb(172,62,81)" stroke-width="1" opacity="0.75" />
		</g>
		<g>
			<title>PF16197</title>
			<rect class="PF16197" x="668" y="18" stroke-linejoin="round" width="11" height="26" fill="rgb(68,179,89)" stroke="rgb(54,143,71)" stroke-width="1" opacity="0.75" />
		</g>
		<g>
			<title>PF00698</title>
			<rect class="PF00698" x="683" y="18" stroke-linejoin="round" width="32" height="26" fill="rgb(59,176,209)" stroke="rgb(47,140,167)" stroke-width="1" opacity="0.75" />
		</g>
		<g>
			<title>PF14765</title>
			<rect class="PF14765" x="720" y="18" stroke-linejoin="round" width="27" height="26" fill="rgb(173,56,182)" stroke="rgb(138,44,145)" stroke-width="1" opacity="0.75" />
		</g>
		<g>
			<title>PF08659</title>
			<rect class="PF08659" x="768" y="18" stroke-linejoin="round" width="17" height="26" fill="rgb(66,209,188)" stroke="rgb(52,167,150)" stroke-width="1" opacity="0.75" />
		</g>
		<g>
			<title>PF00550</title>
			<polygon class="PF00550" points="796,18 796,18 802,24 802,38 796,44 796,44" stroke-linejoin="round" width="6" height="26" fill="rgb(103,191,88)" stroke="rgb(82,152,70)" stroke-width="1" opacity="0.75" />
		</g>
	</g>
	<g>
		<title>norB</title>
		<polygon class="norB" points="812,16 999,16 999,1 1029,31 999,61 999,46 812,46" fill="rgb(252,204,229)" fill-opacity="1.0" stroke="rgb(100,81,91)" stroke-width="1" />
		<g>
			<title>PF00109</title>
			<rect class="PF00109" x="815" y="18" stroke-linejoin="round" width="25" height="26" fill="rgb(112,116,228)" stroke="rgb(89,92,182)" stroke-width="1" opacity="0.75" />
		</g>
		<g>
			<title>PF02801</title>
			<rect class="PF02801" x="841" y="18" stroke-linejoin="round" width="11" height="26" fill="rgb(215,78,102)" stroke="rgb(172,62,81)" stroke-width="1" opacity="0.75" />
		</g>
		<g>
			<title>PF16197</title>
			<rect class="PF16197" x="853" y="18" stroke-linejoin="round" width="11" height="26" fill="rgb(68,179,89)" stroke="rgb(54,143,71)" stroke-width="1" opacity="0.75" />
		</g>
		<g>
			<title>PF00698</title>
			<rect class="PF00698" x="868" y="18" stroke-linejoin="round" width="32" height="26" fill="rgb(59,176,209)" stroke="rgb(47,140,167)" stroke-width="1" opacity="0.75" />
		</g>
		<g>
			<title>PF14765</title>
			<rect class="PF14765" x="905" y="18" stroke-linejoin="round" width="27" height="26" fill="rgb(173,56,182)" stroke="rgb(138,44,145)" stroke-width="1" opacity="0.75" />
		</g>
		<g>
			<title>PF08240</title>
			<rect class="PF08240" x="956" y="18" stroke-linejoin="round" width="6" height="26" fill="rgb(211,65,138)" stroke="rgb(168,51,110)" stroke-width="1" opacity="0.75" />
		</g>
		<g>
			<title>PF13602</title>
			<rect class="PF13602" x="971" y="18" stroke-linejoin="round" width="13" height="26" fill="rgb(101,131,226)" stroke="rgb(80,104,180)" stroke-width="1" opacity="0.75" />
		</g>
		<g>
			<title>PF08659</title>
			<rect class="PF08659" x="985" y="18" stroke-linejoin="round" width="18" height="26" fill="rgb(66,209,188)" stroke="rgb(52,167,150)" stroke-width="1" opacity="0.75" />
		</g>
		<g>
			<title>PF00550</title>
			<polygon class="PF00550" points="1014,19 1020,25 1020,37 1014,43" stroke-linejoin="round" width="6" height="26" fill="rgb(103,191,88)" stroke="rgb(82,152,70)" stroke-width="1" opacity="0.75" />
		</g>
	</g>
</svg>
