<svg version="1.1" baseProfile="full" xmlns="http://www.w3.org/2000/svg" width="366" height="62">
	<line x1="1" y1="31" x2="365" y2="31" style="stroke:rgb(50,50,50); stroke-width:3 "/>
	<g>
		<polygon class="NoName" points="40,16 31,16 31,1 1,31 31,61 31,46 40,46" fill="rgb(255,255,255)" fill-opacity="1.0" stroke="rgb(50,50,50)" stroke-width="1" />
		<g>
			<title>PF05139</title>
			<polygon class="PF05139" points="3,31 16,18 33,18 33,44 16,44" stroke-linejoin="round" width="31" height="26" fill="rgb(64,208,71)" stroke="rgb(51,166,56)" stroke-width="1" opacity="0.75" />
		</g>
	</g>
	<g>
		<polygon class="NoName" points="112,16 70,16 70,1 40,31 70,61 70,46 112,46" fill="rgb(255,255,255)" fill-opacity="1.0" stroke="rgb(50,50,50)" stroke-width="1" />
		<g>
			<title>PF00005</title>
			<polygon class="PF00005" points="48,25 55,18 62,18 62,44 55,44 48,36" stroke-linejoin="round" width="14" height="26" fill="rgb(129,201,63)" stroke="rgb(103,160,50)" stroke-width="1" opacity="0.75" />
		</g>
		<g>
			<title>PF00664</title>
			<rect class="PF00664" x="69" y="18" stroke-linejoin="round" width="27" height="26" fill="rgb(149,226,73)" stroke="rgb(119,180,58)" stroke-width="1" opacity="0.75" />
		</g>
		<g>
			<title>PF03412</title>
			<rect class="PF03412" x="98" y="18" stroke-linejoin="round" width="12" height="26" fill="rgb(214,226,77)" stroke="rgb(171,180,61)" stroke-width="1" opacity="0.75" />
		</g>
	</g>
	<g>
		<polygon class="NoName" points="215,16 143,16 143,1 113,31 143,61 143,46 215,46" fill="rgb(255,255,255)" fill-opacity="1.0" stroke="rgb(50,50,50)" stroke-width="1" />
		<g>
			<title>PF05147</title>
			<polygon class="PF05147" points="115,31 128,18 147,18 147,44 128,44" stroke-linejoin="round" width="34" height="26" fill="rgb(129,182,79)" stroke="rgb(103,145,63)" stroke-width="1" opacity="0.75" />
		</g>
		<g>
			<title>PF13575</title>
			<rect class="PF13575" x="160" y="18" stroke-linejoin="round" width="37" height="26" fill="rgb(228,84,217)" stroke="rgb(182,67,173)" stroke-width="1" opacity="0.75" />
		</g>
	</g>
	<g>
		<polygon class="NoName" points="223,16 223,16 223,1 218,31 223,61 223,46 223,46" fill="rgb(255,255,255)" fill-opacity="1.0" stroke="rgb(50,50,50)" stroke-width="1" />
	</g>
	<g>
		<polygon class="NoName" points="251,16 251,16 251,1 229,31 251,61 251,46 251,46" fill="rgb(255,255,255)" fill-opacity="1.0" stroke="rgb(50,50,50)" stroke-width="1" />
		<g>
			<title>PF00196</title>
			<polygon class="PF00196" points="231,31 236,24 236,37" stroke-linejoin="round" width="5" height="26" fill="rgb(219,94,82)" stroke="rgb(175,75,65)" stroke-width="1" opacity="0.75" />
		</g>
		<g>
			<title>PF00072</title>
			<polygon class="PF00072" points="239,20 241,18 250,18 250,44 241,44 239,41" stroke-linejoin="round" width="11" height="26" fill="rgb(100,107,203)" stroke="rgb(80,85,162)" stroke-width="1" opacity="0.75" />
		</g>
	</g>
	<g>
		<polygon class="NoName" points="327,16 282,16 282,1 252,31 282,61 282,46 327,46" fill="rgb(255,255,255)" fill-opacity="1.0" stroke="rgb(50,50,50)" stroke-width="1" />
		<g>
			<title>PF02518</title>
			<polygon class="PF02518" points="254,31 261,24 261,37" stroke-linejoin="round" width="9" height="26" fill="rgb(80,94,225)" stroke="rgb(64,75,180)" stroke-width="1" opacity="0.75" />
		</g>
		<g>
			<title>PF07730</title>
			<polygon class="PF07730" points="265,20 267,18 271,18 271,44 267,44 265,41" stroke-linejoin="round" width="6" height="26" fill="rgb(190,53,146)" stroke="rgb(152,42,116)" stroke-width="1" opacity="0.75" />
		</g>
	</g>
	<g>
		<polygon class="NoName" points="333,16 333,16 333,1 328,31 333,61 333,46 333,46" fill="rgb(255,255,255)" fill-opacity="1.0" stroke="rgb(50,50,50)" stroke-width="1" />
		<g>
			<title>PF05952</title>
			<polygon class="PF05952" points="330,31 332,18 333,18 333,44 332,44" stroke-linejoin="round" width="5" height="26" fill="rgb(171,183,48)" stroke="rgb(136,146,38)" stroke-width="1" opacity="0.75" />
		</g>
	</g>
	<g>
		<polygon class="NoName" points="364,16 363,16 363,1 333,31 363,61 363,46 364,46" fill="rgb(255,255,255)" fill-opacity="1.0" stroke="rgb(50,50,50)" stroke-width="1" />
		<g>
			<title>PF00348</title>
			<polygon class="PF00348" points="337,29 348,18 360,18 360,44 348,44 337,32" stroke-linejoin="round" width="23" height="26" fill="rgb(61,206,65)" stroke="rgb(48,164,52)" stroke-width="1" opacity="0.75" />
		</g>
	</g>
</svg>
