<svg version="1.1" baseProfile="full" xmlns="http://www.w3.org/2000/svg" width="2523" height="62">
	<line x1="1" y1="31" x2="2522" y2="31" style="stroke:rgb(50,50,50); stroke-width:3 "/>
	<g>
		<title>FUM8</title>
		<polygon class="FUM8" points="1307,16 1240,16 1240,1 1210,31 1240,61 1240,46 1307,46" fill="rgb(208,254,252)" fill-opacity="1.0" stroke="rgb(83,101,100)" stroke-width="1" />
		<g>
			<title>PF00155</title>
			<rect class="PF00155" x="1258" y="18" stroke-linejoin="round" width="35" height="26" fill="rgb(89,113,198)" stroke="rgb(71,90,158)" stroke-width="1" opacity="0.75" />
		</g>
	</g>
	<g>
		<title>FUM3</title>
		<polygon class="FUM3" points="1364,16 1364,16 1364,1 1334,31 1364,61 1364,46 1364,46" fill="rgb(254,214,242)" fill-opacity="1.0" stroke="rgb(101,85,96)" stroke-width="1" />
		<g>
			<title>PF05721</title>
			<polygon class="PF05721" points="1340,27 1349,18 1360,18 1360,44 1349,44 1340,34" stroke-linejoin="round" width="20" height="26" fill="rgb(72,132,214)" stroke="rgb(57,105,171)" stroke-width="1" opacity="0.75" />
		</g>
	</g>
	<g>
		<title>FUM10</title>
		<polygon class="FUM10" points="1380,16 1409,16 1409,1 1439,31 1409,61 1409,46 1380,46" fill="rgb(202,235,254)" fill-opacity="1.0" stroke="rgb(80,93,101)" stroke-width="1" />
		<g>
			<title>PF00501</title>
			<polygon class="PF00501" points="1381,18 1423,18 1424,19 1424,43 1423,44 1381,44" stroke-linejoin="round" width="43" height="26" fill="rgb(60,217,223)" stroke="rgb(48,173,178)" stroke-width="1" opacity="0.75" />
		</g>
		<g>
			<title>PF13193</title>
			<polygon class="PF13193" points="1426,21 1433,28 1433,34 1426,41" stroke-linejoin="round" width="7" height="26" fill="rgb(182,50,118)" stroke="rgb(145,39,94)" stroke-width="1" opacity="0.75" />
		</g>
	</g>
	<g>
		<title>FUM11</title>
		<polygon class="FUM11" points="1491,16 1483,16 1483,1 1453,31 1483,61 1483,46 1491,46" fill="rgb(250,175,228)" fill-opacity="1.0" stroke="rgb(100,69,91)" stroke-width="1" />
		<g>
			<title>PF00153</title>
			<polygon class="PF00153" points="1462,24 1468,18 1471,18 1471,44 1468,44 1462,37" stroke-linejoin="round" width="9" height="26" fill="rgb(159,187,84)" stroke="rgb(127,149,67)" stroke-width="1" opacity="0.75" />
		</g>
		<g>
			<title>PF00153</title>
			<rect class="PF00153" x="1471" y="18" stroke-linejoin="round" width="9" height="26" fill="rgb(159,187,84)" stroke="rgb(127,149,67)" stroke-width="1" opacity="0.75" />
		</g>
		<g>
			<title>PF00153</title>
			<rect class="PF00153" x="1481" y="18" stroke-linejoin="round" width="8" height="26" fill="rgb(159,187,84)" stroke="rgb(127,149,67)" stroke-width="1" opacity="0.75" />
		</g>
	</g>
	<g>
		<title>FUM2</title>
		<polygon class="FUM2" points="1509,16 1536,16 1536,1 1566,31 1536,61 1536,46 1509,46" fill="rgb(238,185,250)" fill-opacity="1.0" stroke="rgb(95,73,100)" stroke-width="1" />
		<g>
			<title>PF00067</title>
			<polygon class="PF00067" points="1513,18 1550,18 1558,26 1558,36 1550,44 1513,44" stroke-linejoin="round" width="45" height="26" fill="rgb(85,216,107)" stroke="rgb(68,172,85)" stroke-width="1" opacity="0.75" />
		</g>
	</g>
	<g>
		<title>FUM13</title>
		<polygon class="FUM13" points="1595,16 1602,16 1602,1 1632,31 1602,61 1602,46 1595,46" fill="rgb(251,196,236)" fill-opacity="1.0" stroke="rgb(100,78,94)" stroke-width="1" />
		<g>
			<title>PF01370</title>
			<polygon class="PF01370" points="1595,18 1616,18 1621,23 1621,39 1616,44 1595,44" stroke-linejoin="round" width="26" height="26" fill="rgb(98,102,214)" stroke="rgb(78,81,171)" stroke-width="1" opacity="0.75" />
		</g>
	</g>
	<g>
		<title>FUM14</title>
		<polygon class="FUM14" points="1709,16 1674,16 1674,1 1644,31 1674,61 1674,46 1709,46" fill="rgb(254,186,193)" fill-opacity="1.0" stroke="rgb(101,74,77)" stroke-width="1" />
		<g>
			<title>PF00668</title>
			<polygon class="PF00668" points="1654,23 1659,18 1696,18 1696,44 1659,44 1654,38" stroke-linejoin="round" width="42" height="26" fill="rgb(224,184,98)" stroke="rgb(179,147,78)" stroke-width="1" opacity="0.75" />
		</g>
		<g>
			<title>PF00550</title>
			<rect class="PF00550" x="1702" y="18" stroke-linejoin="round" width="5" height="26" fill="rgb(103,191,88)" stroke="rgb(82,152,70)" stroke-width="1" opacity="0.75" />
		</g>
	</g>
	<g>
		<title>FUM15</title>
		<polygon class="FUM15" points="1729,16 1760,16 1760,1 1790,31 1760,61 1760,46 1729,46" fill="rgb(204,252,241)" fill-opacity="1.0" stroke="rgb(81,100,96)" stroke-width="1" />
		<g>
			<title>PF00067</title>
			<polygon class="PF00067" points="1740,18 1774,18 1787,31 1787,31 1774,44 1740,44" stroke-linejoin="round" width="47" height="26" fill="rgb(85,216,107)" stroke="rgb(68,172,85)" stroke-width="1" opacity="0.75" />
		</g>
	</g>
	<g>
		<title>FUM16</title>
		<polygon class="FUM16" points="1869,16 1825,16 1825,1 1795,31 1825,61 1825,46 1869,46" fill="rgb(183,250,187)" fill-opacity="1.0" stroke="rgb(73,100,74)" stroke-width="1" />
		<g>
			<title>PF00501</title>
			<rect class="PF00501" x="1814" y="18" stroke-linejoin="round" width="47" height="26" fill="rgb(60,217,223)" stroke="rgb(48,173,178)" stroke-width="1" opacity="0.75" />
		</g>
	</g>
	<g>
		<title>FUM17</title>
		<polygon class="FUM17" points="1882,16 1893,16 1893,1 1923,31 1893,61 1893,46 1882,46" fill="rgb(253,188,254)" fill-opacity="1.0" stroke="rgb(101,75,101)" stroke-width="1" />
		<g>
			<title>PF08390</title>
			<rect class="PF08390" x="1890" y="18" stroke-linejoin="round" width="6" height="26" fill="rgb(196,80,119)" stroke="rgb(156,64,95)" stroke-width="1" opacity="0.75" />
		</g>
		<g>
			<title>PF03798</title>
			<polygon class="PF03798" points="1897,18 1907,18 1917,28 1917,34 1907,44 1897,44" stroke-linejoin="round" width="20" height="26" fill="rgb(190,73,90)" stroke="rgb(152,58,71)" stroke-width="1" opacity="0.75" />
		</g>
	</g>
	<g>
		<title>NPT1</title>
		<polygon class="NPT1" points="158,16 139,16 139,1 109,31 139,61 139,46 158,46" fill="rgb(192,246,250)" fill-opacity="1.0" stroke="rgb(76,98,100)" stroke-width="1" />
		<g>
			<title>PF04095</title>
			<polygon class="PF04095" points="114,28 124,18 128,18 128,44 124,44 114,33" stroke-linejoin="round" width="14" height="26" fill="rgb(193,72,95)" stroke="rgb(154,57,76)" stroke-width="1" opacity="0.75" />
		</g>
		<g>
			<title>PF04095</title>
			<rect class="PF04095" x="128" y="18" stroke-linejoin="round" width="12" height="26" fill="rgb(193,72,95)" stroke="rgb(154,57,76)" stroke-width="1" opacity="0.75" />
		</g>
	</g>
	<g>
		<title>FUM18</title>
		<polygon class="FUM18" points="1977,16 1957,16 1957,1 1927,31 1957,61 1957,46 1977,46" fill="rgb(185,227,254)" fill-opacity="1.0" stroke="rgb(74,90,101)" stroke-width="1" />
		<g>
			<title>PF03798</title>
			<polygon class="PF03798" points="1942,18 1942,18 1964,18 1964,44 1942,44 1942,43" stroke-linejoin="round" width="22" height="26" fill="rgb(190,73,90)" stroke="rgb(152,58,71)" stroke-width="1" opacity="0.75" />
		</g>
		<g>
			<title>PF08390</title>
			<rect class="PF08390" x="1965" y="18" stroke-linejoin="round" width="5" height="26" fill="rgb(196,80,119)" stroke="rgb(156,64,95)" stroke-width="1" opacity="0.75" />
		</g>
	</g>
	<g>
		<title>FUM19</title>
		<polygon class="FUM19" points="1988,16 2118,16 2118,1 2148,31 2118,61 2118,46 1988,46" fill="rgb(205,253,181)" fill-opacity="1.0" stroke="rgb(82,101,72)" stroke-width="1" />
		<g>
			<title>PF00664</title>
			<rect class="PF00664" x="2014" y="18" stroke-linejoin="round" width="26" height="26" fill="rgb(149,226,73)" stroke="rgb(119,180,58)" stroke-width="1" opacity="0.75" />
		</g>
		<g>
			<title>PF00005</title>
			<rect class="PF00005" x="2048" y="18" stroke-linejoin="round" width="13" height="26" fill="rgb(129,201,63)" stroke="rgb(103,160,50)" stroke-width="1" opacity="0.75" />
		</g>
		<g>
			<title>PF00664</title>
			<rect class="PF00664" x="2077" y="18" stroke-linejoin="round" width="27" height="26" fill="rgb(149,226,73)" stroke="rgb(119,180,58)" stroke-width="1" opacity="0.75" />
		</g>
		<g>
			<title>PF00005</title>
			<rect class="PF00005" x="2111" y="18" stroke-linejoin="round" width="16" height="26" fill="rgb(129,201,63)" stroke="rgb(103,160,50)" stroke-width="1" opacity="0.75" />
		</g>
	</g>
	<g>
		<title>ORF20</title>
		<polygon class="ORF20" points="2223,16 2237,16 2237,1 2267,31 2237,61 2237,46 2223,46" fill="rgb(254,190,207)" fill-opacity="1.0" stroke="rgb(101,76,82)" stroke-width="1" />
	</g>
	<g>
		<title>ORF21</title>
		<polygon class="ORF21" points="2370,16 2370,16 2370,1 2392,31 2370,61 2370,46 2370,46" fill="rgb(251,197,240)" fill-opacity="1.0" stroke="rgb(100,78,96)" stroke-width="1" />
	</g>
	<g>
		<title>MPU1</title>
		<polygon class="MPU1" points="2433,16 2433,16 2433,1 2403,31 2433,61 2433,46 2433,46" fill="rgb(195,235,253)" fill-opacity="1.0" stroke="rgb(78,93,101)" stroke-width="1" />
		<g>
			<title>PF04193</title>
			<polygon class="PF04193" points="2411,25 2417,19 2417,42 2411,36" stroke-linejoin="round" width="6" height="26" fill="rgb(174,105,218)" stroke="rgb(139,84,174)" stroke-width="1" opacity="0.75" />
		</g>
		<g>
			<title>PF04193</title>
			<rect class="PF04193" x="2422" y="18" stroke-linejoin="round" width="6" height="26" fill="rgb(174,105,218)" stroke="rgb(139,84,174)" stroke-width="1" opacity="0.75" />
		</g>
	</g>
	<g>
		<title>WDR1</title>
		<polygon class="WDR1" points="182,16 241,16 241,1 271,31 241,61 241,46 182,46" fill="rgb(195,252,233)" fill-opacity="1.0" stroke="rgb(77,100,93)" stroke-width="1" />
	</g>
	<g>
		<title>PNG1</title>
		<polygon class="PNG1" points="423,16 439,16 439,1 469,31 439,61 439,46 423,46" fill="rgb(253,205,245)" fill-opacity="1.0" stroke="rgb(101,82,98)" stroke-width="1" />
		<g>
			<title>PF03835</title>
			<polygon class="PF03835" points="449,18 453,18 460,25 460,37 453,44 449,44" stroke-linejoin="round" width="11" height="26" fill="rgb(192,56,184)" stroke="rgb(153,44,147)" stroke-width="1" opacity="0.75" />
		</g>
	</g>
	<g>
		<title>ZNF1</title>
		<polygon class="ZNF1" points="502,16 504,16 504,1 534,31 504,61 504,46 502,46" fill="rgb(251,244,194)" fill-opacity="1.0" stroke="rgb(100,97,77)" stroke-width="1" />
		<g>
			<title>PF13639</title>
			<polygon class="PF13639" points="525,25 530,30 530,32 525,37" stroke-linejoin="round" width="5" height="26" fill="rgb(80,185,67)" stroke="rgb(64,148,53)" stroke-width="1" opacity="0.75" />
		</g>
	</g>
	<g>
		<title>ZBD1</title>
		<polygon class="ZBD1" points="562,16 570,16 570,1 600,31 570,61 570,46 562,46" fill="rgb(192,251,239)" fill-opacity="1.0" stroke="rgb(76,100,95)" stroke-width="1" />
		<g>
			<title>PF08240</title>
			<rect class="PF08240" x="565" y="18" stroke-linejoin="round" width="6" height="26" fill="rgb(211,65,138)" stroke="rgb(168,51,110)" stroke-width="1" opacity="0.75" />
		</g>
	</g>
	<g>
		<title>FUM21</title>
		<polygon class="FUM21" points="628,16 684,16 684,1 714,31 684,61 684,46 628,46" fill="rgb(193,253,210)" fill-opacity="1.0" stroke="rgb(77,101,84)" stroke-width="1" />
		<g>
			<title>PF00172</title>
			<rect class="PF00172" x="630" y="18" stroke-linejoin="round" width="3" height="26" fill="rgb(121,178,76)" stroke="rgb(96,142,60)" stroke-width="1" opacity="0.75" />
		</g>
	</g>
	<g>
		<title>FUM1</title>
		<polygon class="FUM1" points="737,16 979,16 979,1 1009,31 979,61 979,46 737,46" fill="rgb(252,182,183)" fill-opacity="1.0" stroke="rgb(100,72,73)" stroke-width="1" />
		<g>
			<title>PF00109</title>
			<rect class="PF00109" x="740" y="18" stroke-linejoin="round" width="24" height="26" fill="rgb(112,116,228)" stroke="rgb(89,92,182)" stroke-width="1" opacity="0.75" />
		</g>
		<g>
			<title>PF02801</title>
			<rect class="PF02801" x="765" y="18" stroke-linejoin="round" width="11" height="26" fill="rgb(215,78,102)" stroke="rgb(172,62,81)" stroke-width="1" opacity="0.75" />
		</g>
		<g>
			<title>PF16197</title>
			<rect class="PF16197" x="777" y="18" stroke-linejoin="round" width="17" height="26" fill="rgb(68,179,89)" stroke="rgb(54,143,71)" stroke-width="1" opacity="0.75" />
		</g>
		<g>
			<title>PF00698</title>
			<rect class="PF00698" x="797" y="18" stroke-linejoin="round" width="32" height="26" fill="rgb(59,176,209)" stroke="rgb(47,140,167)" stroke-width="1" opacity="0.75" />
		</g>
		<g>
			<title>PF14765</title>
			<rect class="PF14765" x="835" y="18" stroke-linejoin="round" width="29" height="26" fill="rgb(173,56,182)" stroke="rgb(138,44,145)" stroke-width="1" opacity="0.75" />
		</g>
		<g>
			<title>PF08242</title>
			<rect class="PF08242" x="883" y="18" stroke-linejoin="round" width="10" height="26" fill="rgb(187,59,115)" stroke="rgb(149,47,92)" stroke-width="1" opacity="0.75" />
		</g>
		<g>
			<title>PF13602</title>
			<rect class="PF13602" x="940" y="18" stroke-linejoin="round" width="13" height="26" fill="rgb(101,131,226)" stroke="rgb(80,104,180)" stroke-width="1" opacity="0.75" />
		</g>
		<g>
			<title>PF08659</title>
			<rect class="PF08659" x="956" y="18" stroke-linejoin="round" width="17" height="26" fill="rgb(66,209,188)" stroke="rgb(52,167,150)" stroke-width="1" opacity="0.75" />
		</g>
		<g>
			<title>PF00550</title>
			<rect class="PF00550" x="986" y="18" stroke-linejoin="round" width="6" height="26" fill="rgb(103,191,88)" stroke="rgb(82,152,70)" stroke-width="1" opacity="0.75" />
		</g>
	</g>
	<g>
		<title>FUM6</title>
		<polygon class="FUM6" points="1143,16 1054,16 1054,1 1024,31 1054,61 1054,46 1143,46" fill="rgb(218,194,251)" fill-opacity="1.0" stroke="rgb(87,77,100)" stroke-width="1" />
		<g>
			<title>PF00175</title>
			<polygon class="PF00175" points="1036,21 1039,18 1047,18 1047,44 1039,44 1036,40" stroke-linejoin="round" width="11" height="26" fill="rgb(177,211,96)" stroke="rgb(141,168,76)" stroke-width="1" opacity="0.75" />
		</g>
		<g>
			<title>PF00667</title>
			<rect class="PF00667" x="1053" y="18" stroke-linejoin="round" width="20" height="26" fill="rgb(145,74,201)" stroke="rgb(116,59,160)" stroke-width="1" opacity="0.75" />
		</g>
		<g>
			<title>PF00258</title>
			<rect class="PF00258" x="1077" y="18" stroke-linejoin="round" width="13" height="26" fill="rgb(77,169,183)" stroke="rgb(61,135,146)" stroke-width="1" opacity="0.75" />
		</g>
		<g>
			<title>PF00067</title>
			<rect class="PF00067" x="1096" y="18" stroke-linejoin="round" width="44" height="26" fill="rgb(85,216,107)" stroke="rgb(68,172,85)" stroke-width="1" opacity="0.75" />
		</g>
	</g>
	<g>
		<title>FUM7</title>
		<polygon class="FUM7" points="1161,16 1173,16 1173,1 1203,31 1173,61 1173,46 1161,46" fill="rgb(228,196,252)" fill-opacity="1.0" stroke="rgb(91,78,100)" stroke-width="1" />
		<g>
			<title>PF00465</title>
			<polygon class="PF00465" points="1163,18 1187,18 1200,31 1187,44 1163,44" stroke-linejoin="round" width="39" height="26" fill="rgb(73,179,216)" stroke="rgb(58,143,172)" stroke-width="1" opacity="0.75" />
		</g>
	</g>
</svg>
