<svg version="1.1" baseProfile="full" xmlns="http://www.w3.org/2000/svg" width="203" height="62">
	<line x1="1" y1="31" x2="202" y2="31" style="stroke:rgb(50,50,50); stroke-width:3 "/>
	<g>
		<polygon class="NoName" points="2,16 13,16 13,1 43,31 13,61 13,46 2,46" fill="rgb(255,255,255)" fill-opacity="1.0" stroke="rgb(50,50,50)" stroke-width="1" />
		<g>
			<title>PF00535</title>
			<rect class="PF00535" x="2" y="18" stroke-linejoin="round" width="13" height="26" fill="rgb(224,122,96)" stroke="rgb(179,97,76)" stroke-width="1" opacity="0.75" />
		</g>
		<g>
			<title>PF00535</title>
			<polygon class="PF00535" points="27,18 27,18 40,31 27,44 27,44" stroke-linejoin="round" width="15" height="26" fill="rgb(224,122,96)" stroke="rgb(179,97,76)" stroke-width="1" opacity="0.75" />
		</g>
	</g>
	<g>
		<polygon class="NoName" points="54,16 63,16 63,1 93,31 63,61 63,46 54,46" fill="rgb(255,255,255)" fill-opacity="1.0" stroke="rgb(50,50,50)" stroke-width="1" />
		<g>
			<title>PF00535</title>
			<rect class="PF00535" x="54" y="18" stroke-linejoin="round" width="8" height="26" fill="rgb(224,122,96)" stroke="rgb(179,97,76)" stroke-width="1" opacity="0.75" />
		</g>
	</g>
	<g>
		<title>cgtA</title>
		<polygon class="cgtA" points="95,16 99,16 99,1 129,31 99,61 99,46 95,46" fill="rgb(211,204,250)" fill-opacity="1.0" stroke="rgb(84,81,100)" stroke-width="1" />
		<g>
			<title>PF06306</title>
			<polygon class="PF06306" points="95,18 113,18 126,31 113,44 95,44" stroke-linejoin="round" width="34" height="26" fill="rgb(90,96,199)" stroke="rgb(72,76,159)" stroke-width="1" opacity="0.75" />
		</g>
	</g>
	<g>
		<title>cgtB</title>
		<polygon class="cgtB" points="160,16 160,16 160,1 130,31 160,61 160,46 160,46" fill="rgb(184,252,222)" fill-opacity="1.0" stroke="rgb(73,100,88)" stroke-width="1" />
		<g>
			<title>PF00535</title>
			<polygon class="PF00535" points="143,20 145,18 159,18 159,44 145,44 143,41" stroke-linejoin="round" width="16" height="26" fill="rgb(224,122,96)" stroke="rgb(179,97,76)" stroke-width="1" opacity="0.75" />
		</g>
	</g>
	<g>
		<title>cst-II</title>
		<polygon class="cst-II" points="163,16 163,16 163,1 192,31 163,61 163,46 163,46" fill="rgb(184,201,251)" fill-opacity="1.0" stroke="rgb(73,80,100)" stroke-width="1" />
		<g>
			<title>PF06002</title>
			<polygon class="PF06002" points="163,18 176,18 189,31 176,44 163,44" stroke-linejoin="round" width="28" height="26" fill="rgb(200,60,176)" stroke="rgb(160,47,140)" stroke-width="1" opacity="0.75" />
		</g>
	</g>
	<g>
		<title>neuB</title>
		<polygon class="neuB" points="192,16 192,16 192,1 202,31 192,61 192,46 192,46" fill="rgb(250,191,229)" fill-opacity="1.0" stroke="rgb(100,76,91)" stroke-width="1" />
		<g>
			<title>PF03102</title>
			<polygon class="PF03102" points="195,18 195,18 199,31 195,44 195,44" stroke-linejoin="round" width="6" height="26" fill="rgb(225,145,80)" stroke="rgb(180,116,64)" stroke-width="1" opacity="0.75" />
		</g>
	</g>
</svg>
