<svg version="1.1" baseProfile="full" xmlns="http://www.w3.org/2000/svg" width="1119" height="62">
	<line x1="1" y1="31" x2="1118" y2="31" style="stroke:rgb(50,50,50); stroke-width:3 "/>
	<g>
		<polygon class="NoName" points="425,16 435,16 435,1 465,31 435,61 435,46 425,46" fill="rgb(255,255,255)" fill-opacity="1.0" stroke="rgb(50,50,50)" stroke-width="1" />
		<g>
			<title>PF00067</title>
			<polygon class="PF00067" points="428,18 449,18 462,31 462,31 449,44 428,44" stroke-linejoin="round" width="34" height="26" fill="rgb(85,216,107)" stroke="rgb(68,172,85)" stroke-width="1" opacity="0.75" />
		</g>
	</g>
	<g>
		<polygon class="NoName" points="467,16 467,16 467,1 473,31 467,61 467,46 467,46" fill="rgb(255,255,255)" fill-opacity="1.0" stroke="rgb(50,50,50)" stroke-width="1" />
		<g>
			<title>PF13370</title>
			<polygon class="PF13370" points="467,18 467,18 470,31 467,44 467,44" stroke-linejoin="round" width="5" height="26" fill="rgb(220,216,65)" stroke="rgb(176,172,52)" stroke-width="1" opacity="0.75" />
		</g>
	</g>
	<g>
		<polygon class="NoName" points="481,16 496,16 496,1 526,31 496,61 496,46 481,46" fill="rgb(255,255,255)" fill-opacity="1.0" stroke="rgb(50,50,50)" stroke-width="1" />
		<g>
			<title>PF13354</title>
			<polygon class="PF13354" points="496,18 510,18 516,24 516,38 510,44 496,44" stroke-linejoin="round" width="20" height="26" fill="rgb(72,61,190)" stroke="rgb(57,48,152)" stroke-width="1" opacity="0.75" />
		</g>
	</g>
	<g>
		<polygon class="NoName" points="527,16 531,16 531,1 561,31 531,61 531,46 527,46" fill="rgb(255,255,255)" fill-opacity="1.0" stroke="rgb(50,50,50)" stroke-width="1" />
		<g>
			<title>PF00892</title>
			<rect class="PF00892" x="527" y="18" stroke-linejoin="round" width="12" height="26" fill="rgb(105,217,77)" stroke="rgb(84,173,61)" stroke-width="1" opacity="0.75" />
		</g>
		<g>
			<title>PF00892</title>
			<polygon class="PF00892" points="540,18 545,18 554,27 554,35 545,44 540,44" stroke-linejoin="round" width="14" height="26" fill="rgb(105,217,77)" stroke="rgb(84,173,61)" stroke-width="1" opacity="0.75" />
		</g>
	</g>
	<g>
		<polygon class="NoName" points="593,16 589,16 589,1 559,31 589,61 589,46 593,46" fill="rgb(255,255,255)" fill-opacity="1.0" stroke="rgb(50,50,50)" stroke-width="1" />
		<g>
			<title>PF00583</title>
			<polygon class="PF00583" points="561,31 571,21 571,40" stroke-linejoin="round" width="11" height="26" fill="rgb(121,183,50)" stroke="rgb(96,146,39)" stroke-width="1" opacity="0.75" />
		</g>
		<g>
			<title>PF00583</title>
			<rect class="PF00583" x="579" y="18" stroke-linejoin="round" width="10" height="26" fill="rgb(121,183,50)" stroke="rgb(96,146,39)" stroke-width="1" opacity="0.75" />
		</g>
	</g>
	<g>
		<polygon class="NoName" points="650,16 636,16 636,1 606,31 636,61 636,46 650,46" fill="rgb(255,255,255)" fill-opacity="1.0" stroke="rgb(50,50,50)" stroke-width="1" />
		<g>
			<title>PF00496</title>
			<polygon class="PF00496" points="614,25 621,18 649,18 649,44 621,44 614,36" stroke-linejoin="round" width="35" height="26" fill="rgb(199,94,116)" stroke="rgb(159,75,92)" stroke-width="1" opacity="0.75" />
		</g>
	</g>
	<g>
		<polygon class="NoName" points="702,16 692,16 692,1 662,31 692,61 692,46 702,46" fill="rgb(255,255,255)" fill-opacity="1.0" stroke="rgb(50,50,50)" stroke-width="1" />
		<g>
			<title>PF04339</title>
			<polygon class="PF04339" points="664,31 677,18 687,18 687,44 677,44" stroke-linejoin="round" width="24" height="26" fill="rgb(206,229,102)" stroke="rgb(164,183,81)" stroke-width="1" opacity="0.75" />
		</g>
	</g>
	<g>
		<polygon class="NoName" points="749,16 733,16 733,1 703,31 733,61 733,46 749,46" fill="rgb(255,255,255)" fill-opacity="1.0" stroke="rgb(50,50,50)" stroke-width="1" />
		<g>
			<title>PF13535</title>
			<polygon class="PF13535" points="715,21 718,18 730,18 730,44 718,44 715,40" stroke-linejoin="round" width="15" height="26" fill="rgb(197,156,74)" stroke="rgb(157,124,59)" stroke-width="1" opacity="0.75" />
		</g>
	</g>
	<g>
		<polygon class="NoName" points="804,16 785,16 785,1 755,31 785,61 785,46 804,46" fill="rgb(255,255,255)" fill-opacity="1.0" stroke="rgb(50,50,50)" stroke-width="1" />
		<g>
			<title>PF00905</title>
			<polygon class="PF00905" points="757,31 770,18 788,18 788,44 770,44" stroke-linejoin="round" width="33" height="26" fill="rgb(161,226,87)" stroke="rgb(128,180,69)" stroke-width="1" opacity="0.75" />
		</g>
	</g>
	<g>
		<polygon class="NoName" points="820,16 866,16 866,1 896,31 866,61 866,46 820,46" fill="rgb(255,255,255)" fill-opacity="1.0" stroke="rgb(50,50,50)" stroke-width="1" />
		<g>
			<title>PF03717</title>
			<rect class="PF03717" x="830" y="18" stroke-linejoin="round" width="18" height="26" fill="rgb(90,211,197)" stroke="rgb(72,168,157)" stroke-width="1" opacity="0.75" />
		</g>
		<g>
			<title>PF00905</title>
			<polygon class="PF00905" points="854,18 880,18 890,28 890,34 880,44 854,44" stroke-linejoin="round" width="36" height="26" fill="rgb(161,226,87)" stroke="rgb(128,180,69)" stroke-width="1" opacity="0.75" />
		</g>
	</g>
	<g>
		<polygon class="NoName" points="1,16 1,16 1,1 8,31 1,61 1,46 1,46" fill="rgb(255,255,255)" fill-opacity="1.0" stroke="rgb(50,50,50)" stroke-width="1" />
	</g>
	<g>
		<polygon class="NoName" points="903,16 912,16 912,1 942,31 912,61 912,46 903,46" fill="rgb(255,255,255)" fill-opacity="1.0" stroke="rgb(50,50,50)" stroke-width="1" />
		<g>
			<title>PF00067</title>
			<polygon class="PF00067" points="919,18 926,18 939,31 926,44 919,44" stroke-linejoin="round" width="21" height="26" fill="rgb(85,216,107)" stroke="rgb(68,172,85)" stroke-width="1" opacity="0.75" />
		</g>
	</g>
	<g>
		<polygon class="NoName" points="969,16 969,16 969,1 989,31 969,61 969,46 969,46" fill="rgb(255,255,255)" fill-opacity="1.0" stroke="rgb(50,50,50)" stroke-width="1" />
		<g>
			<title>PF04542</title>
			<polygon class="PF04542" points="973,18 977,18 980,22 980,40 977,44 973,44" stroke-linejoin="round" width="7" height="26" fill="rgb(184,59,197)" stroke="rgb(147,47,157)" stroke-width="1" opacity="0.75" />
		</g>
		<g>
			<title>PF04545</title>
			<polygon class="PF04545" points="983,26 986,31 983,36" stroke-linejoin="round" width="4" height="26" fill="rgb(75,207,224)" stroke="rgb(60,165,179)" stroke-width="1" opacity="0.75" />
		</g>
	</g>
	<g>
		<polygon class="NoName" points="1040,16 1019,16 1019,1 989,31 1019,61 1019,46 1040,46" fill="rgb(255,255,255)" fill-opacity="1.0" stroke="rgb(50,50,50)" stroke-width="1" />
		<g>
			<title>PF02518</title>
			<polygon class="PF02518" points="994,28 1004,18 1007,18 1007,44 1004,44 994,33" stroke-linejoin="round" width="13" height="26" fill="rgb(80,94,225)" stroke="rgb(64,75,180)" stroke-width="1" opacity="0.75" />
		</g>
		<g>
			<title>PF00512</title>
			<rect class="PF00512" x="1012" y="18" stroke-linejoin="round" width="6" height="26" fill="rgb(193,125,62)" stroke="rgb(154,100,49)" stroke-width="1" opacity="0.75" />
		</g>
		<g>
			<title>PF00672</title>
			<rect class="PF00672" x="1020" y="18" stroke-linejoin="round" width="7" height="26" fill="rgb(124,89,195)" stroke="rgb(99,71,156)" stroke-width="1" opacity="0.75" />
		</g>
	</g>
	<g>
		<polygon class="NoName" points="1073,16 1073,16 1073,1 1046,31 1073,61 1073,46 1073,46" fill="rgb(255,255,255)" fill-opacity="1.0" stroke="rgb(50,50,50)" stroke-width="1" />
		<g>
			<title>PF00486</title>
			<polygon class="PF00486" points="1048,31 1053,26 1053,35" stroke-linejoin="round" width="7" height="26" fill="rgb(204,153,57)" stroke="rgb(163,122,45)" stroke-width="1" opacity="0.75" />
		</g>
		<g>
			<title>PF00072</title>
			<polygon class="PF00072" points="1057,21 1060,18 1068,18 1068,44 1060,44 1057,40" stroke-linejoin="round" width="11" height="26" fill="rgb(100,107,203)" stroke="rgb(80,85,162)" stroke-width="1" opacity="0.75" />
		</g>
	</g>
	<g>
		<polygon class="NoName" points="1118,16 1118,16 1118,1 1101,31 1118,61 1118,46 1118,46" fill="rgb(255,255,255)" fill-opacity="1.0" stroke="rgb(50,50,50)" stroke-width="1" />
		<g>
			<title>PF04545</title>
			<polygon class="PF04545" points="1103,31 1107,24 1107,37" stroke-linejoin="round" width="4" height="26" fill="rgb(75,207,224)" stroke="rgb(60,165,179)" stroke-width="1" opacity="0.75" />
		</g>
		<g>
			<title>PF04542</title>
			<polygon class="PF04542" points="1110,19 1110,18 1116,18 1116,44 1110,44 1110,42" stroke-linejoin="round" width="6" height="26" fill="rgb(184,59,197)" stroke="rgb(147,47,157)" stroke-width="1" opacity="0.75" />
		</g>
	</g>
	<g>
		<polygon class="NoName" points="17,16 44,16 44,1 74,31 44,61 44,46 17,46" fill="rgb(255,255,255)" fill-opacity="1.0" stroke="rgb(50,50,50)" stroke-width="1" />
		<g>
			<title>PF02776</title>
			<rect class="PF02776" x="18" y="18" stroke-linejoin="round" width="16" height="26" fill="rgb(55,81,185)" stroke="rgb(44,64,148)" stroke-width="1" opacity="0.75" />
		</g>
		<g>
			<title>PF00205</title>
			<rect class="PF00205" x="37" y="18" stroke-linejoin="round" width="14" height="26" fill="rgb(149,194,69)" stroke="rgb(119,155,55)" stroke-width="1" opacity="0.75" />
		</g>
		<g>
			<title>PF02775</title>
			<polygon class="PF02775" points="57,18 58,18 71,31 71,31 58,44 57,44" stroke-linejoin="round" width="14" height="26" fill="rgb(156,179,45)" stroke="rgb(124,143,36)" stroke-width="1" opacity="0.75" />
		</g>
	</g>
	<g>
		<polygon class="NoName" points="75,16 96,16 96,1 126,31 96,61 96,46 75,46" fill="rgb(255,255,255)" fill-opacity="1.0" stroke="rgb(50,50,50)" stroke-width="1" />
		<g>
			<title>PF13537</title>
			<rect class="PF13537" x="81" y="18" stroke-linejoin="round" width="10" height="26" fill="rgb(200,63,57)" stroke="rgb(160,50,45)" stroke-width="1" opacity="0.75" />
		</g>
		<g>
			<title>PF00733</title>
			<polygon class="PF00733" points="97,18 110,18 112,20 112,42 110,44 97,44" stroke-linejoin="round" width="15" height="26" fill="rgb(97,201,176)" stroke="rgb(77,160,140)" stroke-width="1" opacity="0.75" />
		</g>
		<g>
			<title>PF00733</title>
			<polygon class="PF00733" points="112,20 123,31 112,42" stroke-linejoin="round" width="12" height="26" fill="rgb(97,201,176)" stroke="rgb(77,160,140)" stroke-width="1" opacity="0.75" />
		</g>
	</g>
	<g>
		<polygon class="NoName" points="132,16 133,16 133,1 163,31 133,61 133,46 132,46" fill="rgb(255,255,255)" fill-opacity="1.0" stroke="rgb(50,50,50)" stroke-width="1" />
		<g>
			<title>PF00491</title>
			<polygon class="PF00491" points="135,18 147,18 160,31 147,44 135,44" stroke-linejoin="round" width="27" height="26" fill="rgb(126,224,107)" stroke="rgb(100,179,85)" stroke-width="1" opacity="0.75" />
		</g>
	</g>
	<g>
		<polygon class="NoName" points="164,16 166,16 166,1 196,31 166,61 166,46 164,46" fill="rgb(255,255,255)" fill-opacity="1.0" stroke="rgb(50,50,50)" stroke-width="1" />
		<g>
			<title>PF02668</title>
			<polygon class="PF02668" points="168,18 180,18 186,24 186,38 180,44 168,44" stroke-linejoin="round" width="18" height="26" fill="rgb(180,79,217)" stroke="rgb(144,63,173)" stroke-width="1" opacity="0.75" />
		</g>
		<g>
			<title>PF02668</title>
			<polygon class="PF02668" points="185,23 193,31 193,31 185,39" stroke-linejoin="round" width="8" height="26" fill="rgb(180,79,217)" stroke="rgb(144,63,173)" stroke-width="1" opacity="0.75" />
		</g>
	</g>
	<g>
		<polygon class="NoName" points="207,16 216,16 216,1 246,31 216,61 216,46 207,46" fill="rgb(255,255,255)" fill-opacity="1.0" stroke="rgb(50,50,50)" stroke-width="1" />
		<g>
			<title>PF01960</title>
			<polygon class="PF01960" points="208,18 230,18 243,31 230,44 208,44" stroke-linejoin="round" width="38" height="26" fill="rgb(81,120,181)" stroke="rgb(64,95,144)" stroke-width="1" opacity="0.75" />
		</g>
	</g>
	<g>
		<polygon class="NoName" points="251,16 276,16 276,1 306,31 276,61 276,46 251,46" fill="rgb(255,255,255)" fill-opacity="1.0" stroke="rgb(50,50,50)" stroke-width="1" />
		<g>
			<title>PF00496</title>
			<polygon class="PF00496" points="258,18 290,18 297,25 297,37 290,44 258,44" stroke-linejoin="round" width="39" height="26" fill="rgb(199,94,116)" stroke="rgb(159,75,92)" stroke-width="1" opacity="0.75" />
		</g>
	</g>
	<g>
		<polygon class="NoName" points="377,16 363,16 363,1 333,31 363,61 363,46 377,46" fill="rgb(255,255,255)" fill-opacity="1.0" stroke="rgb(50,50,50)" stroke-width="1" />
		<g>
			<title>PF00126</title>
			<polygon class="PF00126" points="337,29 342,24 342,37 337,32" stroke-linejoin="round" width="5" height="26" fill="rgb(125,227,79)" stroke="rgb(99,181,63)" stroke-width="1" opacity="0.75" />
		</g>
		<g>
			<title>PF03466</title>
			<polygon class="PF03466" points="348,18 348,18 366,18 366,44 348,44 348,43" stroke-linejoin="round" width="18" height="26" fill="rgb(55,136,195)" stroke="rgb(44,108,156)" stroke-width="1" opacity="0.75" />
		</g>
	</g>
	<g>
		<polygon class="NoName" points="411,16 411,16 411,1 387,31 411,61 411,46 411,46" fill="rgb(255,255,255)" fill-opacity="1.0" stroke="rgb(50,50,50)" stroke-width="1" />
		<g>
			<title>PF00106</title>
			<polygon class="PF00106" points="391,29 399,18 410,18 410,44 399,44 391,32" stroke-linejoin="round" width="19" height="26" fill="rgb(182,219,73)" stroke="rgb(145,175,58)" stroke-width="1" opacity="0.75" />
		</g>
	</g>
</svg>
