<svg version="1.1" baseProfile="full" xmlns="http://www.w3.org/2000/svg" width="756" height="62">
	<line x1="1" y1="31" x2="755" y2="31" style="stroke:rgb(50,50,50); stroke-width:3 "/>
	<g>
		<title>sivG</title>
		<polygon class="sivG" points="614,16 614,16 614,1 638,31 614,61 614,46 614,46" fill="rgb(220,251,204)" fill-opacity="1.0" stroke="rgb(88,100,81)" stroke-width="1" />
		<g>
			<title>PF12730</title>
			<polygon class="PF12730" points="614,18 625,18 631,26 631,36 625,44 614,44" stroke-linejoin="round" width="17" height="26" fill="rgb(203,161,59)" stroke="rgb(162,128,47)" stroke-width="1" opacity="0.75" />
		</g>
	</g>
	<g>
		<polygon class="NoName" points="683,16 719,16 719,1 749,31 719,61 719,46 683,46" fill="rgb(255,255,255)" fill-opacity="1.0" stroke="rgb(50,50,50)" stroke-width="1" />
		<g>
			<title>PF01473</title>
			<rect class="PF01473" x="723" y="18" stroke-linejoin="round" width="2" height="26" fill="rgb(185,86,176)" stroke="rgb(148,68,140)" stroke-width="1" opacity="0.75" />
		</g>
		<g>
			<title>PF01473</title>
			<rect class="PF01473" x="730" y="18" stroke-linejoin="round" width="1" height="26" fill="rgb(185,86,176)" stroke="rgb(148,68,140)" stroke-width="1" opacity="0.75" />
		</g>
		<g>
			<title>PF01473</title>
			<polygon class="PF01473" points="738,23 739,24 739,38 738,39" stroke-linejoin="round" width="1" height="26" fill="rgb(185,86,176)" stroke="rgb(148,68,140)" stroke-width="1" opacity="0.75" />
		</g>
		<g>
			<title>PF01473</title>
			<polygon class="PF01473" points="742,27 743,28 743,34 742,35" stroke-linejoin="round" width="1" height="26" fill="rgb(185,86,176)" stroke="rgb(148,68,140)" stroke-width="1" opacity="0.75" />
		</g>
	</g>
	<g>
		<title>gtfD</title>
		<polygon class="gtfD" points="21,16 147,16 147,1 177,31 147,61 147,46 21,46" fill="rgb(183,201,253)" fill-opacity="1.0" stroke="rgb(73,80,101)" stroke-width="1" />
		<g>
			<title>PF02324</title>
			<rect class="PF02324" x="57" y="18" stroke-linejoin="round" width="80" height="26" fill="rgb(204,100,135)" stroke="rgb(163,80,108)" stroke-width="1" opacity="0.75" />
		</g>
		<g>
			<title>PF01473</title>
			<rect class="PF01473" x="139" y="18" stroke-linejoin="round" width="1" height="26" fill="rgb(185,86,176)" stroke="rgb(148,68,140)" stroke-width="1" opacity="0.75" />
		</g>
		<g>
			<title>PF01473</title>
			<rect class="PF01473" x="152" y="18" stroke-linejoin="round" width="2" height="26" fill="rgb(185,86,176)" stroke="rgb(148,68,140)" stroke-width="1" opacity="0.75" />
		</g>
		<g>
			<title>PF01473</title>
			<rect class="PF01473" x="154" y="18" stroke-linejoin="round" width="1" height="26" fill="rgb(185,86,176)" stroke="rgb(148,68,140)" stroke-width="1" opacity="0.75" />
		</g>
		<g>
			<title>PF01473</title>
			<rect class="PF01473" x="158" y="18" stroke-linejoin="round" width="1" height="26" fill="rgb(185,86,176)" stroke="rgb(148,68,140)" stroke-width="1" opacity="0.75" />
		</g>
		<g>
			<title>PF01473</title>
			<polygon class="PF01473" points="171,28 172,29 172,33 171,34" stroke-linejoin="round" width="1" height="26" fill="rgb(185,86,176)" stroke="rgb(148,68,140)" stroke-width="1" opacity="0.75" />
		</g>
	</g>
	<g>
		<polygon class="NoName" points="241,16 241,16 241,1 268,31 241,61 241,46 241,46" fill="rgb(255,255,255)" fill-opacity="1.0" stroke="rgb(50,50,50)" stroke-width="1" />
		<g>
			<title>PF14690</title>
			<rect class="PF14690" x="244" y="18" stroke-linejoin="round" width="4" height="26" fill="rgb(94,212,144)" stroke="rgb(75,169,115)" stroke-width="1" opacity="0.75" />
		</g>
		<g>
			<title>PF13542</title>
			<polygon class="PF13542" points="250,18 253,18 255,20 255,42 253,44 250,44" stroke-linejoin="round" width="5" height="26" fill="rgb(203,97,164)" stroke="rgb(162,77,131)" stroke-width="1" opacity="0.75" />
		</g>
		<g>
			<title>PF01610</title>
			<polygon class="PF01610" points="256,21 265,31 256,41" stroke-linejoin="round" width="11" height="26" fill="rgb(227,129,58)" stroke="rgb(181,103,46)" stroke-width="1" opacity="0.75" />
		</g>
	</g>
	<g>
		<title>sivK</title>
		<polygon class="sivK" points="352,16 337,16 337,1 307,31 337,61 337,46 352,46" fill="rgb(252,205,183)" fill-opacity="1.0" stroke="rgb(100,82,73)" stroke-width="1" />
		<g>
			<title>PF02518</title>
			<polygon class="PF02518" points="309,31 318,22 318,39" stroke-linejoin="round" width="11" height="26" fill="rgb(80,94,225)" stroke="rgb(64,75,180)" stroke-width="1" opacity="0.75" />
		</g>
		<g>
			<title>PF00512</title>
			<rect class="PF00512" x="323" y="18" stroke-linejoin="round" width="6" height="26" fill="rgb(193,125,62)" stroke="rgb(154,100,49)" stroke-width="1" opacity="0.75" />
		</g>
	</g>
	<g>
		<title>sivR</title>
		<polygon class="sivR" points="376,16 376,16 376,1 353,31 376,61 376,46 376,46" fill="rgb(196,209,253)" fill-opacity="1.0" stroke="rgb(78,83,101)" stroke-width="1" />
		<g>
			<title>PF00486</title>
			<polygon class="PF00486" points="355,31 360,25 360,36" stroke-linejoin="round" width="7" height="26" fill="rgb(204,153,57)" stroke="rgb(163,122,45)" stroke-width="1" opacity="0.75" />
		</g>
		<g>
			<title>PF00072</title>
			<polygon class="PF00072" points="364,19 365,18 374,18 374,44 365,44 364,42" stroke-linejoin="round" width="10" height="26" fill="rgb(100,107,203)" stroke="rgb(80,85,162)" stroke-width="1" opacity="0.75" />
		</g>
	</g>
	<g>
		<title>sivA</title>
		<polygon class="sivA" points="383,16 383,16 383,1 388,31 383,61 383,46 383,46" fill="rgb(253,206,240)" fill-opacity="1.0" stroke="rgb(101,82,96)" stroke-width="1" />
		<g>
			<title>PF04604</title>
			<polygon class="PF04604" points="383,18 383,18 385,31 383,44 383,44" stroke-linejoin="round" width="5" height="26" fill="rgb(206,129,75)" stroke="rgb(164,103,60)" stroke-width="1" opacity="0.75" />
		</g>
	</g>
	<g>
		<title>sivM</title>
		<polygon class="sivM" points="394,16 456,16 456,1 486,31 456,61 456,46 394,46" fill="rgb(252,213,192)" fill-opacity="1.0" stroke="rgb(100,85,76)" stroke-width="1" />
		<g>
			<title>PF13575</title>
			<rect class="PF13575" x="403" y="18" stroke-linejoin="round" width="37" height="26" fill="rgb(228,84,217)" stroke="rgb(182,67,173)" stroke-width="1" opacity="0.75" />
		</g>
		<g>
			<title>PF05147</title>
			<polygon class="PF05147" points="451,18 470,18 483,31 470,44 451,44" stroke-linejoin="round" width="34" height="26" fill="rgb(129,182,79)" stroke="rgb(103,145,63)" stroke-width="1" opacity="0.75" />
		</g>
	</g>
	<g>
		<title>sivT</title>
		<polygon class="sivT" points="488,16 527,16 527,1 557,31 527,61 527,46 488,46" fill="rgb(246,251,184)" fill-opacity="1.0" stroke="rgb(98,100,73)" stroke-width="1" />
		<g>
			<title>PF03412</title>
			<rect class="PF03412" x="488" y="18" stroke-linejoin="round" width="13" height="26" fill="rgb(214,226,77)" stroke="rgb(171,180,61)" stroke-width="1" opacity="0.75" />
		</g>
		<g>
			<title>PF00664</title>
			<rect class="PF00664" x="503" y="18" stroke-linejoin="round" width="26" height="26" fill="rgb(149,226,73)" stroke="rgb(119,180,58)" stroke-width="1" opacity="0.75" />
		</g>
		<g>
			<title>PF00005</title>
			<polygon class="PF00005" points="535,18 541,18 548,25 548,37 541,44 535,44" stroke-linejoin="round" width="13" height="26" fill="rgb(129,201,63)" stroke="rgb(103,160,50)" stroke-width="1" opacity="0.75" />
		</g>
	</g>
	<g>
		<title>sivF</title>
		<polygon class="sivF" points="558,16 559,16 559,1 589,31 559,61 559,46 558,46" fill="rgb(245,194,251)" fill-opacity="1.0" stroke="rgb(98,77,100)" stroke-width="1" />
		<g>
			<title>PF00005</title>
			<polygon class="PF00005" points="560,18 573,18 574,19 574,43 573,44 560,44" stroke-linejoin="round" width="14" height="26" fill="rgb(129,201,63)" stroke="rgb(103,160,50)" stroke-width="1" opacity="0.75" />
		</g>
	</g>
	<g>
		<title>sivE</title>
		<polygon class="sivE" points="589,16 589,16 589,1 614,31 589,61 589,46 589,46" fill="rgb(192,199,252)" fill-opacity="1.0" stroke="rgb(76,79,100)" stroke-width="1" />
		<g>
			<title>PF12730</title>
			<polygon class="PF12730" points="589,18 600,18 606,25 606,37 600,44 589,44" stroke-linejoin="round" width="17" height="26" fill="rgb(203,161,59)" stroke="rgb(162,128,47)" stroke-width="1" opacity="0.75" />
		</g>
	</g>
</svg>
