<svg version="1.1" baseProfile="full" xmlns="http://www.w3.org/2000/svg" width="421" height="62">
	<line x1="1" y1="31" x2="420" y2="31" style="stroke:rgb(50,50,50); stroke-width:3 "/>
	<g>
		<polygon class="NoName" points="266,16 273,16 273,1 303,31 273,61 273,46 266,46" fill="rgb(255,255,255)" fill-opacity="1.0" stroke="rgb(50,50,50)" stroke-width="1" />
		<g>
			<title>PF02350</title>
			<polygon class="PF02350" points="268,18 287,18 300,31 300,31 287,44 268,44" stroke-linejoin="round" width="32" height="26" fill="rgb(212,113,103)" stroke="rgb(169,90,82)" stroke-width="1" opacity="0.75" />
		</g>
	</g>
	<g>
		<polygon class="NoName" points="304,16 304,16 304,1 326,31 304,61 304,46 304,46" fill="rgb(255,255,255)" fill-opacity="1.0" stroke="rgb(50,50,50)" stroke-width="1" />
		<g>
			<title>PF02348</title>
			<polygon class="PF02348" points="304,18 313,18 323,31 313,44 304,44" stroke-linejoin="round" width="21" height="26" fill="rgb(198,69,151)" stroke="rgb(158,55,120)" stroke-width="1" opacity="0.75" />
		</g>
	</g>
	<g>
		<polygon class="NoName" points="325,16 325,16 325,1 352,31 325,61 325,46 325,46" fill="rgb(255,255,255)" fill-opacity="1.0" stroke="rgb(50,50,50)" stroke-width="1" />
		<g>
			<title>PF00132</title>
			<polygon class="PF00132" points="340,21 343,24 343,38 340,41" stroke-linejoin="round" width="3" height="26" fill="rgb(89,131,202)" stroke="rgb(71,104,161)" stroke-width="1" opacity="0.75" />
		</g>
	</g>
	<g>
		<polygon class="NoName" points="353,16 353,16 353,1 380,31 353,61 353,46 353,46" fill="rgb(255,255,255)" fill-opacity="1.0" stroke="rgb(50,50,50)" stroke-width="1" />
	</g>
	<g>
		<polygon class="NoName" points="382,16 384,16 384,1 414,31 384,61 384,46 382,46" fill="rgb(255,255,255)" fill-opacity="1.0" stroke="rgb(50,50,50)" stroke-width="1" />
		<g>
			<title>PF01075</title>
			<polygon class="PF01075" points="388,18 398,18 411,31 411,31 398,44 388,44" stroke-linejoin="round" width="23" height="26" fill="rgb(200,89,91)" stroke="rgb(160,71,72)" stroke-width="1" opacity="0.75" />
		</g>
	</g>
	<g>
		<polygon class="NoName" points="413,16 413,16 413,1 419,31 413,61 413,46 413,46" fill="rgb(255,255,255)" fill-opacity="1.0" stroke="rgb(50,50,50)" stroke-width="1" />
	</g>
	<g>
		<polygon class="NoName" points="1,16 1,16 1,1 13,31 1,61 1,46 1,46" fill="rgb(255,255,255)" fill-opacity="1.0" stroke="rgb(50,50,50)" stroke-width="1" />
		<g>
			<title>PF01075</title>
			<polygon class="PF01075" points="1,18 5,18 10,31 5,44 1,44" stroke-linejoin="round" width="10" height="26" fill="rgb(200,89,91)" stroke="rgb(160,71,72)" stroke-width="1" opacity="0.75" />
		</g>
	</g>
	<g>
		<polygon class="NoName" points="13,16 13,16 13,1 42,31 13,61 13,46 13,46" fill="rgb(255,255,255)" fill-opacity="1.0" stroke="rgb(50,50,50)" stroke-width="1" />
		<g>
			<title>PF03279</title>
			<polygon class="PF03279" points="13,18 26,18 39,31 26,44 13,44" stroke-linejoin="round" width="28" height="26" fill="rgb(95,219,149)" stroke="rgb(76,175,119)" stroke-width="1" opacity="0.75" />
		</g>
	</g>
	<g>
		<polygon class="NoName" points="42,16 53,16 53,1 83,31 53,61 53,46 42,46" fill="rgb(255,255,255)" fill-opacity="1.0" stroke="rgb(50,50,50)" stroke-width="1" />
		<g>
			<title>PF00535</title>
			<rect class="PF00535" x="42" y="18" stroke-linejoin="round" width="13" height="26" fill="rgb(224,122,96)" stroke="rgb(179,97,76)" stroke-width="1" opacity="0.75" />
		</g>
		<g>
			<title>PF00535</title>
			<polygon class="PF00535" points="67,18 67,18 80,31 67,44 67,44" stroke-linejoin="round" width="15" height="26" fill="rgb(224,122,96)" stroke="rgb(179,97,76)" stroke-width="1" opacity="0.75" />
		</g>
	</g>
	<g>
		<polygon class="NoName" points="86,16 86,16 86,1 94,31 86,61 86,46 86,46" fill="rgb(255,255,255)" fill-opacity="1.0" stroke="rgb(50,50,50)" stroke-width="1" />
		<g>
			<title>PF02709</title>
			<polygon class="PF02709" points="86,18 88,18 91,28 91,34 88,44 86,44" stroke-linejoin="round" width="5" height="26" fill="rgb(218,95,200)" stroke="rgb(174,76,160)" stroke-width="1" opacity="0.75" />
		</g>
	</g>
	<g>
		<polygon class="NoName" points="94,16 103,16 103,1 133,31 103,61 103,46 94,46" fill="rgb(255,255,255)" fill-opacity="1.0" stroke="rgb(50,50,50)" stroke-width="1" />
		<g>
			<title>PF00535</title>
			<rect class="PF00535" x="94" y="18" stroke-linejoin="round" width="8" height="26" fill="rgb(224,122,96)" stroke="rgb(179,97,76)" stroke-width="1" opacity="0.75" />
		</g>
	</g>
	<g>
		<polygon class="NoName" points="140,16 140,16 140,1 170,31 140,61 140,46 140,46" fill="rgb(255,255,255)" fill-opacity="1.0" stroke="rgb(50,50,50)" stroke-width="1" />
		<g>
			<title>PF06306</title>
			<polygon class="PF06306" points="140,18 154,18 167,31 154,44 140,44" stroke-linejoin="round" width="29" height="26" fill="rgb(90,96,199)" stroke="rgb(72,76,159)" stroke-width="1" opacity="0.75" />
		</g>
	</g>
	<g>
		<polygon class="NoName" points="169,16 169,16 169,1 199,31 169,61 169,46 169,46" fill="rgb(255,255,255)" fill-opacity="1.0" stroke="rgb(50,50,50)" stroke-width="1" />
	</g>
	<g>
		<polygon class="NoName" points="203,16 203,16 203,1 232,31 203,61 203,46 203,46" fill="rgb(255,255,255)" fill-opacity="1.0" stroke="rgb(50,50,50)" stroke-width="1" />
		<g>
			<title>PF06002</title>
			<polygon class="PF06002" points="203,18 216,18 229,31 216,44 203,44" stroke-linejoin="round" width="28" height="26" fill="rgb(200,60,176)" stroke="rgb(160,47,140)" stroke-width="1" opacity="0.75" />
		</g>
	</g>
	<g>
		<polygon class="NoName" points="232,16 236,16 236,1 266,31 236,61 236,46 232,46" fill="rgb(255,255,255)" fill-opacity="1.0" stroke="rgb(50,50,50)" stroke-width="1" />
		<g>
			<title>PF03102</title>
			<polygon class="PF03102" points="235,18 250,18 258,26 258,36 250,44 235,44" stroke-linejoin="round" width="23" height="26" fill="rgb(225,145,80)" stroke="rgb(180,116,64)" stroke-width="1" opacity="0.75" />
		</g>
		<g>
			<title>PF08666</title>
			<polygon class="PF08666" points="260,28 263,31 260,34" stroke-linejoin="round" width="5" height="26" fill="rgb(203,50,144)" stroke="rgb(162,40,115)" stroke-width="1" opacity="0.75" />
		</g>
	</g>
</svg>
