<svg version="1.1" baseProfile="full" xmlns="http://www.w3.org/2000/svg" width="657" height="62">
	<line x1="1" y1="31" x2="656" y2="31" style="stroke:rgb(50,50,50); stroke-width:3 "/>
	<g>
		<title>mxcI</title>
		<polygon class="mxcI" points="522,16 533,16 533,1 563,31 533,61 533,46 522,46" fill="rgb(250,211,221)" fill-opacity="1.0" stroke="rgb(100,84,88)" stroke-width="1" />
	</g>
	<g>
		<title>mxcK</title>
		<polygon class="mxcK" points="571,16 581,16 581,1 611,31 581,61 581,46 571,46" fill="rgb(251,198,252)" fill-opacity="1.0" stroke="rgb(100,79,100)" stroke-width="1" />
		<g>
			<title>PF07690</title>
			<rect class="PF07690" x="572" y="18" stroke-linejoin="round" width="20" height="26" fill="rgb(193,224,74)" stroke="rgb(154,179,59)" stroke-width="1" opacity="0.75" />
		</g>
		<g>
			<title>PF07690</title>
			<polygon class="PF07690" points="592,18 595,18 608,31 595,44 592,44" stroke-linejoin="round" width="18" height="26" fill="rgb(193,224,74)" stroke="rgb(154,179,59)" stroke-width="1" opacity="0.75" />
		</g>
	</g>
	<g>
		<title>mxcL</title>
		<polygon class="mxcL" points="614,16 626,16 626,1 656,31 626,61 626,46 614,46" fill="rgb(209,252,216)" fill-opacity="1.0" stroke="rgb(83,100,86)" stroke-width="1" />
		<g>
			<title>PF00202</title>
			<polygon class="PF00202" points="618,18 640,18 652,30 652,32 640,44 618,44" stroke-linejoin="round" width="34" height="26" fill="rgb(49,163,189)" stroke="rgb(39,130,151)" stroke-width="1" opacity="0.75" />
		</g>
	</g>
	<g>
		<title>mxcA</title>
		<polygon class="mxcA" points="7,16 9,16 9,1 39,31 9,61 9,46 7,46" fill="rgb(254,194,234)" fill-opacity="1.0" stroke="rgb(101,77,93)" stroke-width="1" />
		<g>
			<title>PF00248</title>
			<polygon class="PF00248" points="8,18 23,18 36,31 36,31 23,44 8,44" stroke-linejoin="round" width="28" height="26" fill="rgb(225,205,58)" stroke="rgb(180,164,46)" stroke-width="1" opacity="0.75" />
		</g>
	</g>
	<g>
		<title>mxcB</title>
		<polygon class="mxcB" points="43,16 43,16 43,1 70,31 43,61 43,46 43,46" fill="rgb(181,254,231)" fill-opacity="1.0" stroke="rgb(72,101,92)" stroke-width="1" />
		<g>
			<title>PF08021</title>
			<polygon class="PF08021" points="45,18 55,18 56,19 56,43 55,44 45,44" stroke-linejoin="round" width="11" height="26" fill="rgb(58,190,106)" stroke="rgb(46,152,84)" stroke-width="1" opacity="0.75" />
		</g>
		<g>
			<title>PF04954</title>
			<polygon class="PF04954" points="57,20 67,31 57,42" stroke-linejoin="round" width="11" height="26" fill="rgb(75,222,95)" stroke="rgb(60,177,76)" stroke-width="1" opacity="0.75" />
		</g>
	</g>
	<g>
		<title>mxcC</title>
		<polygon class="mxcC" points="78,16 78,16 78,1 103,31 78,61 78,46 78,46" fill="rgb(185,251,195)" fill-opacity="1.0" stroke="rgb(74,100,78)" stroke-width="1" />
		<g>
			<title>PF00106</title>
			<polygon class="PF00106" points="78,18 89,18 97,27 97,35 89,44 78,44" stroke-linejoin="round" width="19" height="26" fill="rgb(182,219,73)" stroke="rgb(145,175,58)" stroke-width="1" opacity="0.75" />
		</g>
	</g>
	<g>
		<title>mxcD</title>
		<polygon class="mxcD" points="108,16 118,16 118,1 148,31 118,61 118,46 108,46" fill="rgb(189,253,225)" fill-opacity="1.0" stroke="rgb(75,101,90)" stroke-width="1" />
		<g>
			<title>PF00425</title>
			<polygon class="PF00425" points="120,18 132,18 145,31 132,44 120,44" stroke-linejoin="round" width="26" height="26" fill="rgb(188,116,88)" stroke="rgb(150,92,70)" stroke-width="1" opacity="0.75" />
		</g>
	</g>
	<g>
		<title>mxcE</title>
		<polygon class="mxcE" points="149,16 173,16 173,1 203,31 173,61 173,46 149,46" fill="rgb(187,253,222)" fill-opacity="1.0" stroke="rgb(74,101,88)" stroke-width="1" />
		<g>
			<title>PF00501</title>
			<polygon class="PF00501" points="153,18 187,18 193,24 193,38 187,44 153,44" stroke-linejoin="round" width="40" height="26" fill="rgb(60,217,223)" stroke="rgb(48,173,178)" stroke-width="1" opacity="0.75" />
		</g>
		<g>
			<title>PF13193</title>
			<polygon class="PF13193" points="194,25 200,31 194,37" stroke-linejoin="round" width="7" height="26" fill="rgb(182,50,118)" stroke="rgb(145,39,94)" stroke-width="1" opacity="0.75" />
		</g>
	</g>
	<g>
		<title>mxcF</title>
		<polygon class="mxcF" points="206,16 207,16 207,1 237,31 207,61 207,46 206,46" fill="rgb(251,247,176)" fill-opacity="1.0" stroke="rgb(100,98,70)" stroke-width="1" />
		<g>
			<title>PF00857</title>
			<polygon class="PF00857" points="209,18 221,18 226,23 226,39 221,44 209,44" stroke-linejoin="round" width="17" height="26" fill="rgb(144,224,70)" stroke="rgb(115,179,56)" stroke-width="1" opacity="0.75" />
		</g>
		<g>
			<title>PF00550</title>
			<polygon class="PF00550" points="228,25 234,31 234,31 228,37" stroke-linejoin="round" width="6" height="26" fill="rgb(103,191,88)" stroke="rgb(82,152,70)" stroke-width="1" opacity="0.75" />
		</g>
	</g>
	<g>
		<title>mxcG</title>
		<polygon class="mxcG" points="239,16 354,16 354,1 384,31 354,61 354,46 239,46" fill="rgb(250,194,199)" fill-opacity="1.0" stroke="rgb(100,77,79)" stroke-width="1" />
		<g>
			<title>PF00668</title>
			<rect class="PF00668" x="239" y="18" stroke-linejoin="round" width="43" height="26" fill="rgb(224,184,98)" stroke="rgb(179,147,78)" stroke-width="1" opacity="0.75" />
		</g>
		<g>
			<title>PF00501</title>
			<rect class="PF00501" x="285" y="18" stroke-linejoin="round" width="40" height="26" fill="rgb(60,217,223)" stroke="rgb(48,173,178)" stroke-width="1" opacity="0.75" />
		</g>
		<g>
			<title>PF13193</title>
			<rect class="PF13193" x="326" y="18" stroke-linejoin="round" width="7" height="26" fill="rgb(182,50,118)" stroke="rgb(145,39,94)" stroke-width="1" opacity="0.75" />
		</g>
		<g>
			<title>PF00550</title>
			<rect class="PF00550" x="336" y="18" stroke-linejoin="round" width="6" height="26" fill="rgb(103,191,88)" stroke="rgb(82,152,70)" stroke-width="1" opacity="0.75" />
		</g>
		<g>
			<title>PF07993</title>
			<polygon class="PF07993" points="348,18 368,18 371,21 371,41 368,44 348,44" stroke-linejoin="round" width="23" height="26" fill="rgb(100,212,204)" stroke="rgb(80,169,163)" stroke-width="1" opacity="0.75" />
		</g>
	</g>
	<g>
		<title>aroAA5</title>
		<polygon class="aroAA5" points="386,16 403,16 403,1 433,31 403,61 403,46 386,46" fill="rgb(254,240,184)" fill-opacity="1.0" stroke="rgb(101,96,73)" stroke-width="1" />
		<g>
			<title>PF01474</title>
			<polygon class="PF01474" points="386,18 417,18 429,30 429,32 417,44 386,44" stroke-linejoin="round" width="43" height="26" fill="rgb(126,217,84)" stroke="rgb(100,173,67)" stroke-width="1" opacity="0.75" />
		</g>
	</g>
	<g>
		<title>mxcH</title>
		<polygon class="mxcH" points="434,16 491,16 491,1 521,31 491,61 491,46 434,46" fill="rgb(254,222,187)" fill-opacity="1.0" stroke="rgb(101,88,74)" stroke-width="1" />
		<g>
			<title>PF03544</title>
			<rect class="PF03544" x="442" y="18" stroke-linejoin="round" width="7" height="26" fill="rgb(196,207,101)" stroke="rgb(156,165,80)" stroke-width="1" opacity="0.75" />
		</g>
		<g>
			<title>PF07715</title>
			<rect class="PF07715" x="454" y="18" stroke-linejoin="round" width="10" height="26" fill="rgb(99,133,214)" stroke="rgb(79,106,171)" stroke-width="1" opacity="0.75" />
		</g>
	</g>
</svg>
