<svg version="1.1" baseProfile="full" xmlns="http://www.w3.org/2000/svg" width="655" height="62">
	<line x1="1" y1="31" x2="654" y2="31" style="stroke:rgb(50,50,50); stroke-width:3 "/>
	<g>
		<title>yuiH</title>
		<polygon class="yuiH" points="528,16 528,16 528,1 509,31 528,61 528,46 528,46" fill="rgb(249,214,254)" fill-opacity="1.0" stroke="rgb(99,85,101)" stroke-width="1" />
		<g>
			<title>PF00174</title>
			<polygon class="PF00174" points="511,31 519,18 525,18 525,44 519,44" stroke-linejoin="round" width="14" height="26" fill="rgb(152,193,93)" stroke="rgb(121,154,74)" stroke-width="1" opacity="0.75" />
		</g>
	</g>
	<g>
		<title>bioYB</title>
		<polygon class="bioYB" points="532,16 532,16 532,1 552,31 532,61 532,46 532,46" fill="rgb(232,251,213)" fill-opacity="1.0" stroke="rgb(92,100,85)" stroke-width="1" />
		<g>
			<title>PF02632</title>
			<polygon class="PF02632" points="535,18 540,18 549,31 549,31 540,44 535,44" stroke-linejoin="round" width="14" height="26" fill="rgb(209,203,81)" stroke="rgb(167,162,64)" stroke-width="1" opacity="0.75" />
		</g>
	</g>
	<g>
		<title>yuiF</title>
		<polygon class="yuiF" points="598,16 584,16 584,1 554,31 584,61 584,46 598,46" fill="rgb(253,223,200)" fill-opacity="1.0" stroke="rgb(101,89,80)" stroke-width="1" />
		<g>
			<title>PF03553</title>
			<polygon class="PF03553" points="556,31 569,18 582,18 582,44 569,44" stroke-linejoin="round" width="28" height="26" fill="rgb(115,72,216)" stroke="rgb(91,57,172)" stroke-width="1" opacity="0.75" />
		</g>
		<g>
			<title>PF13726</title>
			<rect class="PF13726" x="589" y="18" stroke-linejoin="round" width="8" height="26" fill="rgb(136,93,202)" stroke="rgb(108,74,161)" stroke-width="1" opacity="0.75" />
		</g>
	</g>
	<g>
		<title>pepA</title>
		<polygon class="pepA" points="654,16 634,16 634,1 604,31 634,61 634,46 654,46" fill="rgb(249,251,207)" fill-opacity="1.0" stroke="rgb(99,100,82)" stroke-width="1" />
		<g>
			<title>PF00883</title>
			<polygon class="PF00883" points="606,31 619,18 635,18 635,44 619,44" stroke-linejoin="round" width="30" height="26" fill="rgb(81,178,163)" stroke="rgb(64,142,130)" stroke-width="1" opacity="0.75" />
		</g>
		<g>
			<title>PF02789</title>
			<rect class="PF02789" x="639" y="18" stroke-linejoin="round" width="12" height="26" fill="rgb(216,155,96)" stroke="rgb(172,124,76)" stroke-width="1" opacity="0.75" />
		</g>
	</g>
	<g>
		<title>ald</title>
		<polygon class="ald" points="1,16 8,16 8,1 38,31 8,61 8,46 1,46" fill="rgb(254,188,237)" fill-opacity="1.0" stroke="rgb(101,75,94)" stroke-width="1" />
		<g>
			<title>PF05222</title>
			<rect class="PF05222" x="1" y="18" stroke-linejoin="round" width="13" height="26" fill="rgb(60,217,133)" stroke="rgb(47,173,106)" stroke-width="1" opacity="0.75" />
		</g>
		<g>
			<title>PF01262</title>
			<polygon class="PF01262" points="14,18 22,18 35,31 35,31 22,44 14,44" stroke-linejoin="round" width="21" height="26" fill="rgb(96,211,180)" stroke="rgb(76,168,144)" stroke-width="1" opacity="0.75" />
		</g>
	</g>
	<g>
		<title>yukJ</title>
		<polygon class="yukJ" points="42,16 42,16 42,1 64,31 42,61 42,46 42,46" fill="rgb(182,253,178)" fill-opacity="1.0" stroke="rgb(72,101,71)" stroke-width="1" />
		<g>
			<title>PF10042</title>
			<polygon class="PF10042" points="42,18 51,18 61,31 51,44 42,44" stroke-linejoin="round" width="21" height="26" fill="rgb(102,216,88)" stroke="rgb(81,172,70)" stroke-width="1" opacity="0.75" />
		</g>
	</g>
	<g>
		<title>ybdZ</title>
		<polygon class="ybdZ" points="73,16 73,16 73,1 66,31 73,61 73,46 73,46" fill="rgb(207,227,250)" fill-opacity="1.0" stroke="rgb(82,90,100)" stroke-width="1" />
		<g>
			<title>PF03621</title>
			<polygon class="PF03621" points="68,31 71,18 72,18 72,44 71,44" stroke-linejoin="round" width="5" height="26" fill="rgb(212,165,97)" stroke="rgb(169,132,77)" stroke-width="1" opacity="0.75" />
		</g>
	</g>
	<g>
		<title>dhbF</title>
		<polygon class="dhbF" points="311,16 104,16 104,1 74,31 104,61 104,46 311,46" fill="rgb(181,252,235)" fill-opacity="1.0" stroke="rgb(72,100,94)" stroke-width="1" />
		<g>
			<title>PF00975</title>
			<polygon class="PF00975" points="76,31 89,18 98,18 98,44 89,44" stroke-linejoin="round" width="23" height="26" fill="rgb(207,80,138)" stroke="rgb(165,63,110)" stroke-width="1" opacity="0.75" />
		</g>
		<g>
			<title>PF00550</title>
			<rect class="PF00550" x="101" y="18" stroke-linejoin="round" width="6" height="26" fill="rgb(103,191,88)" stroke="rgb(82,152,70)" stroke-width="1" opacity="0.75" />
		</g>
		<g>
			<title>PF13193</title>
			<rect class="PF13193" x="110" y="18" stroke-linejoin="round" width="7" height="26" fill="rgb(182,50,118)" stroke="rgb(145,39,94)" stroke-width="1" opacity="0.75" />
		</g>
		<g>
			<title>PF00501</title>
			<rect class="PF00501" x="118" y="18" stroke-linejoin="round" width="41" height="26" fill="rgb(60,217,223)" stroke="rgb(48,173,178)" stroke-width="1" opacity="0.75" />
		</g>
		<g>
			<title>PF00668</title>
			<rect class="PF00668" x="161" y="18" stroke-linejoin="round" width="45" height="26" fill="rgb(224,184,98)" stroke="rgb(179,147,78)" stroke-width="1" opacity="0.75" />
		</g>
		<g>
			<title>PF00550</title>
			<rect class="PF00550" x="208" y="18" stroke-linejoin="round" width="6" height="26" fill="rgb(103,191,88)" stroke="rgb(82,152,70)" stroke-width="1" opacity="0.75" />
		</g>
		<g>
			<title>PF13193</title>
			<rect class="PF13193" x="217" y="18" stroke-linejoin="round" width="7" height="26" fill="rgb(182,50,118)" stroke="rgb(145,39,94)" stroke-width="1" opacity="0.75" />
		</g>
		<g>
			<title>PF00501</title>
			<rect class="PF00501" x="225" y="18" stroke-linejoin="round" width="39" height="26" fill="rgb(60,217,223)" stroke="rgb(48,173,178)" stroke-width="1" opacity="0.75" />
		</g>
		<g>
			<title>PF00668</title>
			<rect class="PF00668" x="267" y="18" stroke-linejoin="round" width="44" height="26" fill="rgb(224,184,98)" stroke="rgb(179,147,78)" stroke-width="1" opacity="0.75" />
		</g>
	</g>
	<g>
		<title>dhbB</title>
		<polygon class="dhbB" points="343,16 342,16 342,1 312,31 342,61 342,46 343,46" fill="rgb(209,250,248)" fill-opacity="1.0" stroke="rgb(83,100,99)" stroke-width="1" />
		<g>
			<title>PF00550</title>
			<polygon class="PF00550" points="314,31 319,26 319,35" stroke-linejoin="round" width="6" height="26" fill="rgb(103,191,88)" stroke="rgb(82,152,70)" stroke-width="1" opacity="0.75" />
		</g>
		<g>
			<title>PF00857</title>
			<polygon class="PF00857" points="322,23 327,18 339,18 339,44 327,44 322,38" stroke-linejoin="round" width="17" height="26" fill="rgb(144,224,70)" stroke="rgb(115,179,56)" stroke-width="1" opacity="0.75" />
		</g>
	</g>
	<g>
		<title>dhbE</title>
		<polygon class="dhbE" points="398,16 374,16 374,1 344,31 374,61 374,46 398,46" fill="rgb(209,250,196)" fill-opacity="1.0" stroke="rgb(83,100,78)" stroke-width="1" />
		<g>
			<title>PF13193</title>
			<polygon class="PF13193" points="346,31 353,24 353,37" stroke-linejoin="round" width="7" height="26" fill="rgb(182,50,118)" stroke="rgb(145,39,94)" stroke-width="1" opacity="0.75" />
		</g>
		<g>
			<title>PF00501</title>
			<polygon class="PF00501" points="354,23 359,18 394,18 394,44 359,44 354,38" stroke-linejoin="round" width="40" height="26" fill="rgb(60,217,223)" stroke="rgb(48,173,178)" stroke-width="1" opacity="0.75" />
		</g>
	</g>
	<g>
		<title>dhbC</title>
		<polygon class="dhbC" points="438,16 429,16 429,1 399,31 429,61 429,46 438,46" fill="rgb(254,216,199)" fill-opacity="1.0" stroke="rgb(101,86,79)" stroke-width="1" />
		<g>
			<title>PF00425</title>
			<polygon class="PF00425" points="401,31 414,18 426,18 426,44 414,44" stroke-linejoin="round" width="26" height="26" fill="rgb(188,116,88)" stroke="rgb(150,92,70)" stroke-width="1" opacity="0.75" />
		</g>
	</g>
	<g>
		<title>dhbA</title>
		<polygon class="dhbA" points="466,16 466,16 466,1 440,31 466,61 466,46 466,46" fill="rgb(250,184,193)" fill-opacity="1.0" stroke="rgb(100,73,77)" stroke-width="1" />
		<g>
			<title>PF00106</title>
			<polygon class="PF00106" points="445,28 453,18 464,18 464,44 453,44 445,33" stroke-linejoin="round" width="19" height="26" fill="rgb(182,219,73)" stroke="rgb(145,175,58)" stroke-width="1" opacity="0.75" />
		</g>
	</g>
	<g>
		<title>besA</title>
		<polygon class="besA" points="502,16 502,16 502,1 473,31 502,61 502,46 502,46" fill="rgb(252,188,237)" fill-opacity="1.0" stroke="rgb(100,75,94)" stroke-width="1" />
		<g>
			<title>PF00756</title>
			<polygon class="PF00756" points="475,31 488,18 498,18 498,44 488,44" stroke-linejoin="round" width="23" height="26" fill="rgb(217,132,77)" stroke="rgb(173,105,61)" stroke-width="1" opacity="0.75" />
		</g>
	</g>
</svg>
