<svg version="1.1" baseProfile="full" xmlns="http://www.w3.org/2000/svg" width="2378" height="62">
	<line x1="1" y1="31" x2="2377" y2="31" style="stroke:rgb(50,50,50); stroke-width:3 "/>
	<g>
		<title>gtfA</title>
		<polygon class="gtfA" points="356,16 368,16 368,1 398,31 368,61 368,46 356,46" fill="rgb(253,198,207)" fill-opacity="1.0" stroke="rgb(101,79,82)" stroke-width="1" />
	</g>
	<g>
		<title>rtfA</title>
		<polygon class="rtfA" points="412,16 424,16 424,1 454,31 424,61 424,46 412,46" fill="rgb(188,179,252)" fill-opacity="1.0" stroke="rgb(75,71,100)" stroke-width="1" />
		<g>
			<title>PF03033</title>
			<rect class="PF03033" x="412" y="18" stroke-linejoin="round" width="9" height="26" fill="rgb(157,218,79)" stroke="rgb(125,174,63)" stroke-width="1" opacity="0.75" />
		</g>
	</g>
	<g>
		<title>mtfC</title>
		<polygon class="mtfC" points="458,16 458,16 458,1 484,31 458,61 458,46 458,46" fill="rgb(251,198,244)" fill-opacity="1.0" stroke="rgb(100,79,97)" stroke-width="1" />
		<g>
			<title>PF05711</title>
			<polygon class="PF05711" points="458,18 470,18 481,31 470,44 458,44" stroke-linejoin="round" width="25" height="26" fill="rgb(175,228,98)" stroke="rgb(139,182,78)" stroke-width="1" opacity="0.75" />
		</g>
	</g>
	<g>
		<title>mtfD</title>
		<polygon class="mtfD" points="488,16 488,16 488,1 515,31 488,61 488,46 488,46" fill="rgb(198,250,192)" fill-opacity="1.0" stroke="rgb(79,100,76)" stroke-width="1" />
		<g>
			<title>PF13578</title>
			<polygon class="PF13578" points="498,18 500,18 511,30 511,32 500,44 498,44" stroke-linejoin="round" width="13" height="26" fill="rgb(106,221,159)" stroke="rgb(84,176,127)" stroke-width="1" opacity="0.75" />
		</g>
	</g>
	<g>
		<polygon class="NoName" points="575,16 564,16 564,1 534,31 564,61 564,46 575,46" fill="rgb(255,255,255)" fill-opacity="1.0" stroke="rgb(50,50,50)" stroke-width="1" />
		<g>
			<title>PF00872</title>
			<polygon class="PF00872" points="537,30 549,18 574,18 574,44 549,44 537,31" stroke-linejoin="round" width="37" height="26" fill="rgb(137,187,62)" stroke="rgb(109,149,49)" stroke-width="1" opacity="0.75" />
		</g>
	</g>
	<g>
		<title>gtfB</title>
		<polygon class="gtfB" points="632,16 621,16 621,1 591,31 621,61 621,46 632,46" fill="rgb(195,206,254)" fill-opacity="1.0" stroke="rgb(77,82,101)" stroke-width="1" />
		<g>
			<title>PF03033</title>
			<rect class="PF03033" x="619" y="18" stroke-linejoin="round" width="12" height="26" fill="rgb(157,218,79)" stroke="rgb(125,174,63)" stroke-width="1" opacity="0.75" />
		</g>
	</g>
	<g>
		<polygon class="NoName" points="638,16 638,16 638,1 659,31 638,61 638,46 638,46" fill="rgb(255,255,255)" fill-opacity="1.0" stroke="rgb(50,50,50)" stroke-width="1" />
	</g>
	<g>
		<polygon class="NoName" points="682,16 682,16 682,1 693,31 682,61 682,46 682,46" fill="rgb(255,255,255)" fill-opacity="1.0" stroke="rgb(50,50,50)" stroke-width="1" />
		<g>
			<title>PF01527</title>
			<polygon class="PF01527" points="682,18 685,18 690,29 690,33 685,44 682,44" stroke-linejoin="round" width="8" height="26" fill="rgb(85,212,107)" stroke="rgb(68,169,85)" stroke-width="1" opacity="0.75" />
		</g>
	</g>
	<g>
		<polygon class="NoName" points="693,16 693,16 693,1 723,31 693,61 693,46 693,46" fill="rgb(255,255,255)" fill-opacity="1.0" stroke="rgb(50,50,50)" stroke-width="1" />
		<g>
			<title>PF13276</title>
			<rect class="PF13276" x="697" y="18" stroke-linejoin="round" width="5" height="26" fill="rgb(114,195,68)" stroke="rgb(91,156,54)" stroke-width="1" opacity="0.75" />
		</g>
		<g>
			<title>PF00665</title>
			<polygon class="PF00665" points="705,18 707,18 716,27 716,35 707,44 705,44" stroke-linejoin="round" width="11" height="26" fill="rgb(93,64,200)" stroke="rgb(74,51,160)" stroke-width="1" opacity="0.75" />
		</g>
	</g>
	<g>
		<title>gdhgA</title>
		<polygon class="gdhgA" points="791,16 787,16 787,1 757,31 787,61 787,46 791,46" fill="rgb(203,252,216)" fill-opacity="1.0" stroke="rgb(81,100,86)" stroke-width="1" />
		<g>
			<title>PF00984</title>
			<polygon class="PF00984" points="760,30 769,21 769,40 760,31" stroke-linejoin="round" width="9" height="26" fill="rgb(69,189,184)" stroke="rgb(55,151,147)" stroke-width="1" opacity="0.75" />
		</g>
		<g>
			<title>PF03721</title>
			<polygon class="PF03721" points="771,19 772,18 789,18 789,44 772,44 771,42" stroke-linejoin="round" width="18" height="26" fill="rgb(156,194,58)" stroke="rgb(124,155,46)" stroke-width="1" opacity="0.75" />
		</g>
	</g>
	<g>
		<polygon class="NoName" points="2,16 8,16 8,1 38,31 8,61 8,46 2,46" fill="rgb(255,255,255)" fill-opacity="1.0" stroke="rgb(50,50,50)" stroke-width="1" />
	</g>
	<g>
		<title>gtfC</title>
		<polygon class="gtfC" points="801,16 801,16 801,1 828,31 801,61 801,46 801,46" fill="rgb(238,197,251)" fill-opacity="1.0" stroke="rgb(95,78,100)" stroke-width="1" />
		<g>
			<title>PF00535</title>
			<polygon class="PF00535" points="801,18 813,18 816,21 816,41 813,44 801,44" stroke-linejoin="round" width="15" height="26" fill="rgb(224,122,96)" stroke="rgb(179,97,76)" stroke-width="1" opacity="0.75" />
		</g>
	</g>
	<g>
		<title>mdhtA</title>
		<polygon class="mdhtA" points="834,16 838,16 838,1 868,31 838,61 838,46 834,46" fill="rgb(227,209,254)" fill-opacity="1.0" stroke="rgb(90,83,101)" stroke-width="1" />
		<g>
			<title>PF16363</title>
			<polygon class="PF16363" points="834,18 852,18 865,31 865,31 852,44 834,44" stroke-linejoin="round" width="31" height="26" fill="rgb(162,221,65)" stroke="rgb(129,176,51)" stroke-width="1" opacity="0.75" />
		</g>
	</g>
	<g>
		<title>merA</title>
		<polygon class="merA" points="867,16 871,16 871,1 901,31 871,61 871,46 867,46" fill="rgb(254,215,213)" fill-opacity="1.0" stroke="rgb(101,85,85)" stroke-width="1" />
		<g>
			<title>PF01370</title>
			<polygon class="PF01370" points="870,18 885,18 893,26 893,36 885,44 870,44" stroke-linejoin="round" width="23" height="26" fill="rgb(98,102,214)" stroke="rgb(78,81,171)" stroke-width="1" opacity="0.75" />
		</g>
	</g>
	<g>
		<polygon class="NoName" points="910,16 910,16 910,1 934,31 910,61 910,46 910,46" fill="rgb(255,255,255)" fill-opacity="1.0" stroke="rgb(50,50,50)" stroke-width="1" />
		<g>
			<title>PF05050</title>
			<polygon class="PF05050" points="914,18 921,18 931,31 931,31 921,44 914,44" stroke-linejoin="round" width="17" height="26" fill="rgb(95,204,52)" stroke="rgb(76,163,41)" stroke-width="1" opacity="0.75" />
		</g>
	</g>
	<g>
		<title>gtfD</title>
		<polygon class="gtfD" points="939,16 939,16 939,1 965,31 939,61 939,46 939,46" fill="rgb(183,201,253)" fill-opacity="1.0" stroke="rgb(73,80,101)" stroke-width="1" />
		<g>
			<title>PF00535</title>
			<polygon class="PF00535" points="939,18 951,18 957,25 957,37 951,44 939,44" stroke-linejoin="round" width="18" height="26" fill="rgb(224,122,96)" stroke="rgb(179,97,76)" stroke-width="1" opacity="0.75" />
		</g>
	</g>
	<g>
		<polygon class="NoName" points="1017,16 1017,16 1017,1 987,31 1017,61 1017,46 1017,46" fill="rgb(255,255,255)" fill-opacity="1.0" stroke="rgb(50,50,50)" stroke-width="1" />
		<g>
			<title>PF00665</title>
			<polygon class="PF00665" points="993,27 1002,18 1004,18 1004,44 1002,44 993,34" stroke-linejoin="round" width="11" height="26" fill="rgb(93,64,200)" stroke="rgb(74,51,160)" stroke-width="1" opacity="0.75" />
		</g>
		<g>
			<title>PF13276</title>
			<rect class="PF13276" x="1007" y="18" stroke-linejoin="round" width="5" height="26" fill="rgb(114,195,68)" stroke="rgb(91,156,54)" stroke-width="1" opacity="0.75" />
		</g>
	</g>
	<g>
		<polygon class="NoName" points="1029,16 1029,16 1029,1 1018,31 1029,61 1029,46 1029,46" fill="rgb(255,255,255)" fill-opacity="1.0" stroke="rgb(50,50,50)" stroke-width="1" />
		<g>
			<title>PF01527</title>
			<polygon class="PF01527" points="1020,31 1025,18 1028,18 1028,44 1025,44" stroke-linejoin="round" width="8" height="26" fill="rgb(85,212,107)" stroke="rgb(68,169,85)" stroke-width="1" opacity="0.75" />
		</g>
	</g>
	<g>
		<polygon class="NoName" points="1071,16 1061,16 1061,1 1031,31 1061,61 1061,46 1071,46" fill="rgb(255,255,255)" fill-opacity="1.0" stroke="rgb(50,50,50)" stroke-width="1" />
		<g>
			<title>PF02371</title>
			<polygon class="PF02371" points="1035,29 1043,21 1043,40 1035,32" stroke-linejoin="round" width="8" height="26" fill="rgb(104,204,65)" stroke="rgb(83,163,52)" stroke-width="1" opacity="0.75" />
		</g>
		<g>
			<title>PF01548</title>
			<rect class="PF01548" x="1055" y="18" stroke-linejoin="round" width="15" height="26" fill="rgb(59,200,207)" stroke="rgb(47,160,165)" stroke-width="1" opacity="0.75" />
		</g>
	</g>
	<g>
		<polygon class="NoName" points="1121,16 1110,16 1110,1 1080,31 1110,61 1110,46 1121,46" fill="rgb(255,255,255)" fill-opacity="1.0" stroke="rgb(50,50,50)" stroke-width="1" />
		<g>
			<title>PF00872</title>
			<polygon class="PF00872" points="1083,30 1095,18 1120,18 1120,44 1095,44 1083,31" stroke-linejoin="round" width="37" height="26" fill="rgb(137,187,62)" stroke="rgb(109,149,49)" stroke-width="1" opacity="0.75" />
		</g>
	</g>
	<g>
		<title>drrC</title>
		<polygon class="drrC" points="1157,16 1157,16 1157,1 1131,31 1157,61 1157,46 1157,46" fill="rgb(208,204,251)" fill-opacity="1.0" stroke="rgb(83,81,100)" stroke-width="1" />
		<g>
			<title>PF01061</title>
			<polygon class="PF01061" points="1135,29 1144,18 1156,18 1156,44 1144,44 1135,32" stroke-linejoin="round" width="21" height="26" fill="rgb(139,217,106)" stroke="rgb(111,173,84)" stroke-width="1" opacity="0.75" />
		</g>
	</g>
	<g>
		<polygon class="NoName" points="81,16 81,16 81,1 51,31 81,61 81,46 81,46" fill="rgb(255,255,255)" fill-opacity="1.0" stroke="rgb(50,50,50)" stroke-width="1" />
		<g>
			<title>PF00665</title>
			<polygon class="PF00665" points="57,27 66,18 68,18 68,44 66,44 57,34" stroke-linejoin="round" width="11" height="26" fill="rgb(93,64,200)" stroke="rgb(74,51,160)" stroke-width="1" opacity="0.75" />
		</g>
		<g>
			<title>PF13276</title>
			<rect class="PF13276" x="71" y="18" stroke-linejoin="round" width="5" height="26" fill="rgb(114,195,68)" stroke="rgb(91,156,54)" stroke-width="1" opacity="0.75" />
		</g>
	</g>
	<g>
		<title>drrB</title>
		<polygon class="drrB" points="1181,16 1181,16 1181,1 1157,31 1181,61 1181,46 1181,46" fill="rgb(253,198,205)" fill-opacity="1.0" stroke="rgb(101,79,82)" stroke-width="1" />
		<g>
			<title>PF01061</title>
			<polygon class="PF01061" points="1160,30 1169,18 1181,18 1181,44 1169,44 1160,31" stroke-linejoin="round" width="21" height="26" fill="rgb(139,217,106)" stroke="rgb(111,173,84)" stroke-width="1" opacity="0.75" />
		</g>
	</g>
	<g>
		<title>drrA</title>
		<polygon class="drrA" points="1212,16 1211,16 1211,1 1181,31 1211,61 1211,46 1212,46" fill="rgb(222,183,251)" fill-opacity="1.0" stroke="rgb(88,73,100)" stroke-width="1" />
		<g>
			<title>PF00005</title>
			<polygon class="PF00005" points="1196,18 1196,18 1210,18 1210,44 1196,44 1196,43" stroke-linejoin="round" width="14" height="26" fill="rgb(129,201,63)" stroke="rgb(103,160,50)" stroke-width="1" opacity="0.75" />
		</g>
	</g>
	<g>
		<title>tmtpC</title>
		<polygon class="tmtpC" points="1317,16 1250,16 1250,1 1220,31 1250,61 1250,46 1317,46" fill="rgb(202,252,196)" fill-opacity="1.0" stroke="rgb(80,100,78)" stroke-width="1" />
		<g>
			<title>PF03176</title>
			<polygon class="PF03176" points="1223,30 1235,18 1256,18 1256,44 1235,44 1223,31" stroke-linejoin="round" width="33" height="26" fill="rgb(228,109,193)" stroke="rgb(182,87,154)" stroke-width="1" opacity="0.75" />
		</g>
		<g>
			<title>PF03176</title>
			<rect class="PF03176" x="1279" y="18" stroke-linejoin="round" width="33" height="26" fill="rgb(228,109,193)" stroke="rgb(182,87,154)" stroke-width="1" opacity="0.75" />
		</g>
	</g>
	<g>
		<title>tmtpB</title>
		<polygon class="tmtpB" points="1416,16 1350,16 1350,1 1320,31 1350,61 1350,46 1416,46" fill="rgb(213,209,253)" fill-opacity="1.0" stroke="rgb(85,83,101)" stroke-width="1" />
		<g>
			<title>PF03176</title>
			<polygon class="PF03176" points="1322,31 1335,18 1355,18 1355,44 1335,44" stroke-linejoin="round" width="33" height="26" fill="rgb(228,109,193)" stroke="rgb(182,87,154)" stroke-width="1" opacity="0.75" />
		</g>
		<g>
			<title>PF03176</title>
			<rect class="PF03176" x="1378" y="18" stroke-linejoin="round" width="32" height="26" fill="rgb(228,109,193)" stroke="rgb(182,87,154)" stroke-width="1" opacity="0.75" />
		</g>
	</g>
	<g>
		<title>tmtpA</title>
		<polygon class="tmtpA" points="1438,16 1438,16 1438,1 1416,31 1438,61 1438,46 1438,46" fill="rgb(250,220,186)" fill-opacity="1.0" stroke="rgb(100,88,74)" stroke-width="1" />
		<g>
			<title>PF05423</title>
			<polygon class="PF05423" points="1418,31 1428,18 1429,18 1429,44 1428,44" stroke-linejoin="round" width="13" height="26" fill="rgb(64,97,225)" stroke="rgb(51,77,180)" stroke-width="1" opacity="0.75" />
		</g>
	</g>
	<g>
		<title>pstA</title>
		<polygon class="pstA" points="1469,16 1780,16 1780,1 1810,31 1780,61 1780,46 1469,46" fill="rgb(201,184,254)" fill-opacity="1.0" stroke="rgb(80,73,101)" stroke-width="1" />
		<g>
			<title>PF00668</title>
			<rect class="PF00668" x="1469" y="18" stroke-linejoin="round" width="34" height="26" fill="rgb(224,184,98)" stroke="rgb(179,147,78)" stroke-width="1" opacity="0.75" />
		</g>
		<g>
			<title>PF00501</title>
			<rect class="PF00501" x="1515" y="18" stroke-linejoin="round" width="38" height="26" fill="rgb(60,217,223)" stroke="rgb(48,173,178)" stroke-width="1" opacity="0.75" />
		</g>
		<g>
			<title>PF13193</title>
			<rect class="PF13193" x="1554" y="18" stroke-linejoin="round" width="7" height="26" fill="rgb(182,50,118)" stroke="rgb(145,39,94)" stroke-width="1" opacity="0.75" />
		</g>
		<g>
			<title>PF00550</title>
			<rect class="PF00550" x="1564" y="18" stroke-linejoin="round" width="6" height="26" fill="rgb(103,191,88)" stroke="rgb(82,152,70)" stroke-width="1" opacity="0.75" />
		</g>
		<g>
			<title>PF00668</title>
			<rect class="PF00668" x="1572" y="18" stroke-linejoin="round" width="43" height="26" fill="rgb(224,184,98)" stroke="rgb(179,147,78)" stroke-width="1" opacity="0.75" />
		</g>
		<g>
			<title>PF00668</title>
			<rect class="PF00668" x="1618" y="18" stroke-linejoin="round" width="42" height="26" fill="rgb(224,184,98)" stroke="rgb(179,147,78)" stroke-width="1" opacity="0.75" />
		</g>
		<g>
			<title>PF00501</title>
			<rect class="PF00501" x="1663" y="18" stroke-linejoin="round" width="40" height="26" fill="rgb(60,217,223)" stroke="rgb(48,173,178)" stroke-width="1" opacity="0.75" />
		</g>
		<g>
			<title>PF13193</title>
			<rect class="PF13193" x="1704" y="18" stroke-linejoin="round" width="7" height="26" fill="rgb(182,50,118)" stroke="rgb(145,39,94)" stroke-width="1" opacity="0.75" />
		</g>
		<g>
			<title>PF00550</title>
			<rect class="PF00550" x="1714" y="18" stroke-linejoin="round" width="6" height="26" fill="rgb(103,191,88)" stroke="rgb(82,152,70)" stroke-width="1" opacity="0.75" />
		</g>
		<g>
			<title>PF00668</title>
			<rect class="PF00668" x="1722" y="18" stroke-linejoin="round" width="43" height="26" fill="rgb(224,184,98)" stroke="rgb(179,147,78)" stroke-width="1" opacity="0.75" />
		</g>
		<g>
			<title>PF00668</title>
			<polygon class="PF00668" points="1768,18 1794,18 1807,31 1794,44 1768,44" stroke-linejoin="round" width="41" height="26" fill="rgb(224,184,98)" stroke="rgb(179,147,78)" stroke-width="1" opacity="0.75" />
		</g>
	</g>
	<g>
		<title>pstB</title>
		<polygon class="pstB" points="1810,16 2035,16 2035,1 2065,31 2035,61 2035,46 1810,46" fill="rgb(237,193,252)" fill-opacity="1.0" stroke="rgb(94,77,100)" stroke-width="1" />
		<g>
			<title>PF00501</title>
			<rect class="PF00501" x="1814" y="18" stroke-linejoin="round" width="39" height="26" fill="rgb(60,217,223)" stroke="rgb(48,173,178)" stroke-width="1" opacity="0.75" />
		</g>
		<g>
			<title>PF13193</title>
			<rect class="PF13193" x="1854" y="18" stroke-linejoin="round" width="7" height="26" fill="rgb(182,50,118)" stroke="rgb(145,39,94)" stroke-width="1" opacity="0.75" />
		</g>
		<g>
			<title>PF00550</title>
			<rect class="PF00550" x="1864" y="18" stroke-linejoin="round" width="6" height="26" fill="rgb(103,191,88)" stroke="rgb(82,152,70)" stroke-width="1" opacity="0.75" />
		</g>
		<g>
			<title>PF00668</title>
			<rect class="PF00668" x="1872" y="18" stroke-linejoin="round" width="43" height="26" fill="rgb(224,184,98)" stroke="rgb(179,147,78)" stroke-width="1" opacity="0.75" />
		</g>
		<g>
			<title>PF00668</title>
			<rect class="PF00668" x="1918" y="18" stroke-linejoin="round" width="43" height="26" fill="rgb(224,184,98)" stroke="rgb(179,147,78)" stroke-width="1" opacity="0.75" />
		</g>
		<g>
			<title>PF00501</title>
			<rect class="PF00501" x="1964" y="18" stroke-linejoin="round" width="38" height="26" fill="rgb(60,217,223)" stroke="rgb(48,173,178)" stroke-width="1" opacity="0.75" />
		</g>
		<g>
			<title>PF13193</title>
			<rect class="PF13193" x="2003" y="18" stroke-linejoin="round" width="7" height="26" fill="rgb(182,50,118)" stroke="rgb(145,39,94)" stroke-width="1" opacity="0.75" />
		</g>
		<g>
			<title>PF00550</title>
			<rect class="PF00550" x="2013" y="18" stroke-linejoin="round" width="6" height="26" fill="rgb(103,191,88)" stroke="rgb(82,152,70)" stroke-width="1" opacity="0.75" />
		</g>
		<g>
			<title>PF07993</title>
			<polygon class="PF07993" points="2025,18 2049,18 2051,20 2051,42 2049,44 2025,44" stroke-linejoin="round" width="26" height="26" fill="rgb(100,212,204)" stroke="rgb(80,169,163)" stroke-width="1" opacity="0.75" />
		</g>
	</g>
	<g>
		<polygon class="NoName" points="2206,16 2206,16 2206,1 2176,31 2206,61 2206,46 2206,46" fill="rgb(255,255,255)" fill-opacity="1.0" stroke="rgb(50,50,50)" stroke-width="1" />
		<g>
			<title>PF00665</title>
			<polygon class="PF00665" points="2182,27 2191,18 2193,18 2193,44 2191,44 2182,34" stroke-linejoin="round" width="11" height="26" fill="rgb(93,64,200)" stroke="rgb(74,51,160)" stroke-width="1" opacity="0.75" />
		</g>
		<g>
			<title>PF13276</title>
			<rect class="PF13276" x="2196" y="18" stroke-linejoin="round" width="5" height="26" fill="rgb(114,195,68)" stroke="rgb(91,156,54)" stroke-width="1" opacity="0.75" />
		</g>
	</g>
	<g>
		<polygon class="NoName" points="2218,16 2218,16 2218,1 2207,31 2218,61 2218,46 2218,46" fill="rgb(255,255,255)" fill-opacity="1.0" stroke="rgb(50,50,50)" stroke-width="1" />
		<g>
			<title>PF01527</title>
			<polygon class="PF01527" points="2209,31 2214,18 2217,18 2217,44 2214,44" stroke-linejoin="round" width="8" height="26" fill="rgb(85,212,107)" stroke="rgb(68,169,85)" stroke-width="1" opacity="0.75" />
		</g>
	</g>
	<g>
		<title>pstD</title>
		<polygon class="pstD" points="2237,16 2346,16 2346,1 2376,31 2346,61 2346,46 2237,46" fill="rgb(216,254,230)" fill-opacity="1.0" stroke="rgb(86,101,92)" stroke-width="1" />
		<g>
			<title>PF00668</title>
			<rect class="PF00668" x="2237" y="18" stroke-linejoin="round" width="41" height="26" fill="rgb(224,184,98)" stroke="rgb(179,147,78)" stroke-width="1" opacity="0.75" />
		</g>
		<g>
			<title>PF00501</title>
			<rect class="PF00501" x="2281" y="18" stroke-linejoin="round" width="39" height="26" fill="rgb(60,217,223)" stroke="rgb(48,173,178)" stroke-width="1" opacity="0.75" />
		</g>
		<g>
			<title>PF13193</title>
			<rect class="PF13193" x="2321" y="18" stroke-linejoin="round" width="7" height="26" fill="rgb(182,50,118)" stroke="rgb(145,39,94)" stroke-width="1" opacity="0.75" />
		</g>
		<g>
			<title>PF00550</title>
			<rect class="PF00550" x="2331" y="18" stroke-linejoin="round" width="6" height="26" fill="rgb(103,191,88)" stroke="rgb(82,152,70)" stroke-width="1" opacity="0.75" />
		</g>
		<g>
			<title>PF00668</title>
			<polygon class="PF00668" points="2339,18 2360,18 2373,31 2360,44 2339,44" stroke-linejoin="round" width="36" height="26" fill="rgb(224,184,98)" stroke="rgb(179,147,78)" stroke-width="1" opacity="0.75" />
		</g>
	</g>
	<g>
		<polygon class="NoName" points="93,16 93,16 93,1 82,31 93,61 93,46 93,46" fill="rgb(255,255,255)" fill-opacity="1.0" stroke="rgb(50,50,50)" stroke-width="1" />
		<g>
			<title>PF01527</title>
			<polygon class="PF01527" points="84,31 89,18 92,18 92,44 89,44" stroke-linejoin="round" width="8" height="26" fill="rgb(85,212,107)" stroke="rgb(68,169,85)" stroke-width="1" opacity="0.75" />
		</g>
	</g>
	<g>
		<polygon class="NoName" points="135,16 125,16 125,1 95,31 125,61 125,46 135,46" fill="rgb(255,255,255)" fill-opacity="1.0" stroke="rgb(50,50,50)" stroke-width="1" />
		<g>
			<title>PF02371</title>
			<polygon class="PF02371" points="99,29 107,21 107,40 99,32" stroke-linejoin="round" width="8" height="26" fill="rgb(104,204,65)" stroke="rgb(83,163,52)" stroke-width="1" opacity="0.75" />
		</g>
		<g>
			<title>PF01548</title>
			<rect class="PF01548" x="119" y="18" stroke-linejoin="round" width="15" height="26" fill="rgb(59,200,207)" stroke="rgb(47,160,165)" stroke-width="1" opacity="0.75" />
		</g>
	</g>
	<g>
		<polygon class="NoName" points="185,16 174,16 174,1 144,31 174,61 174,46 185,46" fill="rgb(255,255,255)" fill-opacity="1.0" stroke="rgb(50,50,50)" stroke-width="1" />
		<g>
			<title>PF00872</title>
			<polygon class="PF00872" points="147,30 159,18 184,18 184,44 159,44 147,31" stroke-linejoin="round" width="37" height="26" fill="rgb(137,187,62)" stroke="rgb(109,149,49)" stroke-width="1" opacity="0.75" />
		</g>
	</g>
	<g>
		<polygon class="NoName" points="194,16 200,16 200,1 230,31 200,61 200,46 194,46" fill="rgb(255,255,255)" fill-opacity="1.0" stroke="rgb(50,50,50)" stroke-width="1" />
	</g>
	<g>
		<title>gepiA</title>
		<polygon class="gepiA" points="234,16 239,16 239,1 269,31 239,61 239,46 234,46" fill="rgb(204,201,250)" fill-opacity="1.0" stroke="rgb(81,80,100)" stroke-width="1" />
		<g>
			<title>PF01370</title>
			<polygon class="PF01370" points="234,18 253,18 261,26 261,36 253,44 234,44" stroke-linejoin="round" width="27" height="26" fill="rgb(98,102,214)" stroke="rgb(78,81,171)" stroke-width="1" opacity="0.75" />
		</g>
	</g>
	<g>
		<title>mtfA</title>
		<polygon class="mtfA" points="278,16 285,16 285,1 315,31 285,61 285,46 278,46" fill="rgb(253,199,208)" fill-opacity="1.0" stroke="rgb(101,79,83)" stroke-width="1" />
		<g>
			<title>PF05711</title>
			<polygon class="PF05711" points="290,18 299,18 306,25 306,37 299,44 290,44" stroke-linejoin="round" width="16" height="26" fill="rgb(175,228,98)" stroke="rgb(139,182,78)" stroke-width="1" opacity="0.75" />
		</g>
	</g>
	<g>
		<title>mtfB</title>
		<polygon class="mtfB" points="324,16 324,16 324,1 351,31 324,61 324,46 324,46" fill="rgb(253,246,212)" fill-opacity="1.0" stroke="rgb(101,98,84)" stroke-width="1" />
		<g>
			<title>PF05711</title>
			<polygon class="PF05711" points="325,18 336,18 348,31 336,44 325,44" stroke-linejoin="round" width="25" height="26" fill="rgb(175,228,98)" stroke="rgb(139,182,78)" stroke-width="1" opacity="0.75" />
		</g>
	</g>
</svg>
