<svg version="1.1" baseProfile="full" xmlns="http://www.w3.org/2000/svg" width="2827" height="62">
	<line x1="1" y1="31" x2="2826" y2="31" style="stroke:rgb(50,50,50); stroke-width:3 "/>
	<g>
		<polygon class="NoName" points="275,16 328,16 328,1 358,31 328,61 328,46 275,46" fill="rgb(255,255,255)" fill-opacity="1.0" stroke="rgb(50,50,50)" stroke-width="1" />
		<g>
			<title>PF01804</title>
			<polygon class="PF01804" points="280,18 342,18 355,31 342,44 280,44" stroke-linejoin="round" width="76" height="26" fill="rgb(62,133,186)" stroke="rgb(49,106,148)" stroke-width="1" opacity="0.75" />
		</g>
	</g>
	<g>
		<title>zbmA</title>
		<polygon class="zbmA" points="365,16 365,16 365,1 378,31 365,61 365,46 365,46" fill="rgb(192,253,222)" fill-opacity="1.0" stroke="rgb(76,101,88)" stroke-width="1" />
	</g>
	<g>
		<title>zbmVIId</title>
		<polygon class="zbmVIId" points="379,16 379,16 379,1 406,31 379,61 379,46 379,46" fill="rgb(220,254,206)" fill-opacity="1.0" stroke="rgb(88,101,82)" stroke-width="1" />
		<g>
			<title>PF00975</title>
			<polygon class="PF00975" points="380,18 391,18 402,30 402,32 391,44 380,44" stroke-linejoin="round" width="22" height="26" fill="rgb(207,80,138)" stroke="rgb(165,63,110)" stroke-width="1" opacity="0.75" />
		</g>
	</g>
	<g>
		<title>zbmVIIc</title>
		<polygon class="zbmVIIc" points="445,16 434,16 434,1 404,31 434,61 434,46 445,46" fill="rgb(212,233,254)" fill-opacity="1.0" stroke="rgb(84,93,101)" stroke-width="1" />
		<g>
			<title>PF00067</title>
			<polygon class="PF00067" points="407,30 419,18 426,18 426,44 419,44 407,31" stroke-linejoin="round" width="19" height="26" fill="rgb(85,216,107)" stroke="rgb(68,172,85)" stroke-width="1" opacity="0.75" />
		</g>
	</g>
	<g>
		<title>zbmX</title>
		<polygon class="zbmX" points="453,16 636,16 636,1 666,31 636,61 636,46 453,46" fill="rgb(206,254,246)" fill-opacity="1.0" stroke="rgb(82,101,98)" stroke-width="1" />
		<g>
			<title>PF00668</title>
			<rect class="PF00668" x="454" y="18" stroke-linejoin="round" width="31" height="26" fill="rgb(224,184,98)" stroke="rgb(179,147,78)" stroke-width="1" opacity="0.75" />
		</g>
		<g>
			<title>PF00501</title>
			<rect class="PF00501" x="499" y="18" stroke-linejoin="round" width="39" height="26" fill="rgb(60,217,223)" stroke="rgb(48,173,178)" stroke-width="1" opacity="0.75" />
		</g>
		<g>
			<title>PF13193</title>
			<rect class="PF13193" x="539" y="18" stroke-linejoin="round" width="7" height="26" fill="rgb(182,50,118)" stroke="rgb(145,39,94)" stroke-width="1" opacity="0.75" />
		</g>
		<g>
			<title>PF00550</title>
			<rect class="PF00550" x="550" y="18" stroke-linejoin="round" width="6" height="26" fill="rgb(103,191,88)" stroke="rgb(82,152,70)" stroke-width="1" opacity="0.75" />
		</g>
		<g>
			<title>PF00668</title>
			<rect class="PF00668" x="559" y="18" stroke-linejoin="round" width="44" height="26" fill="rgb(224,184,98)" stroke="rgb(179,147,78)" stroke-width="1" opacity="0.75" />
		</g>
		<g>
			<title>PF00501</title>
			<rect class="PF00501" x="606" y="18" stroke-linejoin="round" width="40" height="26" fill="rgb(60,217,223)" stroke="rgb(48,173,178)" stroke-width="1" opacity="0.75" />
		</g>
		<g>
			<title>PF13193</title>
			<polygon class="PF13193" points="646,18 650,18 653,21 653,41 650,44 646,44" stroke-linejoin="round" width="7" height="26" fill="rgb(182,50,118)" stroke="rgb(145,39,94)" stroke-width="1" opacity="0.75" />
		</g>
		<g>
			<title>PF00550</title>
			<polygon class="PF00550" points="657,25 663,31 663,31 657,37" stroke-linejoin="round" width="6" height="26" fill="rgb(103,191,88)" stroke="rgb(82,152,70)" stroke-width="1" opacity="0.75" />
		</g>
	</g>
	<g>
		<title>zbmIX</title>
		<polygon class="zbmIX" points="666,16 746,16 746,1 776,31 746,61 746,46 666,46" fill="rgb(211,208,253)" fill-opacity="1.0" stroke="rgb(84,83,101)" stroke-width="1" />
		<g>
			<title>PF00668</title>
			<rect class="PF00668" x="666" y="18" stroke-linejoin="round" width="44" height="26" fill="rgb(224,184,98)" stroke="rgb(179,147,78)" stroke-width="1" opacity="0.75" />
		</g>
		<g>
			<title>PF00501</title>
			<rect class="PF00501" x="714" y="18" stroke-linejoin="round" width="39" height="26" fill="rgb(60,217,223)" stroke="rgb(48,173,178)" stroke-width="1" opacity="0.75" />
		</g>
		<g>
			<title>PF13193</title>
			<polygon class="PF13193" points="754,18 760,18 761,19 761,43 760,44 754,44" stroke-linejoin="round" width="7" height="26" fill="rgb(182,50,118)" stroke="rgb(145,39,94)" stroke-width="1" opacity="0.75" />
		</g>
		<g>
			<title>PF00550</title>
			<polygon class="PF00550" points="766,24 772,30 772,32 766,38" stroke-linejoin="round" width="6" height="26" fill="rgb(103,191,88)" stroke="rgb(82,152,70)" stroke-width="1" opacity="0.75" />
		</g>
	</g>
	<g>
		<title>zbmVIII</title>
		<polygon class="zbmVIII" points="777,16 928,16 928,1 958,31 928,61 928,46 777,46" fill="rgb(210,185,250)" fill-opacity="1.0" stroke="rgb(84,73,100)" stroke-width="1" />
		<g>
			<title>PF00109</title>
			<rect class="PF00109" x="778" y="18" stroke-linejoin="round" width="25" height="26" fill="rgb(112,116,228)" stroke="rgb(89,92,182)" stroke-width="1" opacity="0.75" />
		</g>
		<g>
			<title>PF02801</title>
			<rect class="PF02801" x="804" y="18" stroke-linejoin="round" width="11" height="26" fill="rgb(215,78,102)" stroke="rgb(172,62,81)" stroke-width="1" opacity="0.75" />
		</g>
		<g>
			<title>PF16197</title>
			<rect class="PF16197" x="816" y="18" stroke-linejoin="round" width="11" height="26" fill="rgb(68,179,89)" stroke="rgb(54,143,71)" stroke-width="1" opacity="0.75" />
		</g>
		<g>
			<title>PF13489</title>
			<rect class="PF13489" x="872" y="18" stroke-linejoin="round" width="18" height="26" fill="rgb(188,189,66)" stroke="rgb(150,151,52)" stroke-width="1" opacity="0.75" />
		</g>
		<g>
			<title>PF08659</title>
			<rect class="PF08659" x="919" y="18" stroke-linejoin="round" width="19" height="26" fill="rgb(66,209,188)" stroke="rgb(52,167,150)" stroke-width="1" opacity="0.75" />
		</g>
		<g>
			<title>PF00550</title>
			<polygon class="PF00550" points="949,25 955,31 955,31 949,37" stroke-linejoin="round" width="6" height="26" fill="rgb(103,191,88)" stroke="rgb(82,152,70)" stroke-width="1" opacity="0.75" />
		</g>
	</g>
	<g>
		<title>zbmVIIa</title>
		<polygon class="zbmVIIa" points="958,16 992,16 992,1 1022,31 992,61 992,46 958,46" fill="rgb(253,225,191)" fill-opacity="1.0" stroke="rgb(101,90,76)" stroke-width="1" />
		<g>
			<title>PF00668</title>
			<polygon class="PF00668" points="963,18 1006,18 1007,19 1007,43 1006,44 963,44" stroke-linejoin="round" width="44" height="26" fill="rgb(224,184,98)" stroke="rgb(179,147,78)" stroke-width="1" opacity="0.75" />
		</g>
		<g>
			<title>PF00550</title>
			<polygon class="PF00550" points="1012,24 1018,30 1018,32 1012,38" stroke-linejoin="round" width="6" height="26" fill="rgb(103,191,88)" stroke="rgb(82,152,70)" stroke-width="1" opacity="0.75" />
		</g>
	</g>
	<g>
		<title>zbmVI</title>
		<polygon class="zbmVI" points="1022,16 1263,16 1263,1 1293,31 1263,61 1263,46 1022,46" fill="rgb(249,253,203)" fill-opacity="1.0" stroke="rgb(99,101,81)" stroke-width="1" />
		<g>
			<title>PF00501</title>
			<rect class="PF00501" x="1023" y="18" stroke-linejoin="round" width="42" height="26" fill="rgb(60,217,223)" stroke="rgb(48,173,178)" stroke-width="1" opacity="0.75" />
		</g>
		<g>
			<title>PF00550</title>
			<rect class="PF00550" x="1080" y="18" stroke-linejoin="round" width="6" height="26" fill="rgb(103,191,88)" stroke="rgb(82,152,70)" stroke-width="1" opacity="0.75" />
		</g>
		<g>
			<title>PF00668</title>
			<rect class="PF00668" x="1089" y="18" stroke-linejoin="round" width="45" height="26" fill="rgb(224,184,98)" stroke="rgb(179,147,78)" stroke-width="1" opacity="0.75" />
		</g>
		<g>
			<title>PF00501</title>
			<rect class="PF00501" x="1137" y="18" stroke-linejoin="round" width="40" height="26" fill="rgb(60,217,223)" stroke="rgb(48,173,178)" stroke-width="1" opacity="0.75" />
		</g>
		<g>
			<title>PF13193</title>
			<rect class="PF13193" x="1178" y="18" stroke-linejoin="round" width="7" height="26" fill="rgb(182,50,118)" stroke="rgb(145,39,94)" stroke-width="1" opacity="0.75" />
		</g>
		<g>
			<title>PF00550</title>
			<rect class="PF00550" x="1188" y="18" stroke-linejoin="round" width="6" height="26" fill="rgb(103,191,88)" stroke="rgb(82,152,70)" stroke-width="1" opacity="0.75" />
		</g>
		<g>
			<title>PF00668</title>
			<rect class="PF00668" x="1197" y="18" stroke-linejoin="round" width="42" height="26" fill="rgb(224,184,98)" stroke="rgb(179,147,78)" stroke-width="1" opacity="0.75" />
		</g>
		<g>
			<title>PF00501</title>
			<polygon class="PF00501" points="1241,18 1277,18 1280,21 1280,41 1277,44 1241,44" stroke-linejoin="round" width="39" height="26" fill="rgb(60,217,223)" stroke="rgb(48,173,178)" stroke-width="1" opacity="0.75" />
		</g>
		<g>
			<title>PF13193</title>
			<polygon class="PF13193" points="1281,22 1288,29 1288,33 1281,40" stroke-linejoin="round" width="7" height="26" fill="rgb(182,50,118)" stroke="rgb(145,39,94)" stroke-width="1" opacity="0.75" />
		</g>
	</g>
	<g>
		<title>zbmV</title>
		<polygon class="zbmV" points="1294,16 1323,16 1323,1 1353,31 1323,61 1323,46 1294,46" fill="rgb(189,221,250)" fill-opacity="1.0" stroke="rgb(75,88,100)" stroke-width="1" />
		<g>
			<title>PF00550</title>
			<rect class="PF00550" x="1298" y="18" stroke-linejoin="round" width="6" height="26" fill="rgb(103,191,88)" stroke="rgb(82,152,70)" stroke-width="1" opacity="0.75" />
		</g>
		<g>
			<title>PF00668</title>
			<polygon class="PF00668" points="1306,18 1337,18 1342,23 1342,39 1337,44 1306,44" stroke-linejoin="round" width="36" height="26" fill="rgb(224,184,98)" stroke="rgb(179,147,78)" stroke-width="1" opacity="0.75" />
		</g>
	</g>
	<g>
		<polygon class="NoName" points="12,16 12,16 12,1 2,31 12,61 12,46 12,46" fill="rgb(255,255,255)" fill-opacity="1.0" stroke="rgb(50,50,50)" stroke-width="1" />
	</g>
	<g>
		<title>zbmG</title>
		<polygon class="zbmG" points="1353,16 1355,16 1355,1 1385,31 1355,61 1355,46 1353,46" fill="rgb(214,225,254)" fill-opacity="1.0" stroke="rgb(85,89,101)" stroke-width="1" />
		<g>
			<title>PF01370</title>
			<polygon class="PF01370" points="1353,18 1369,18 1376,25 1376,37 1369,44 1353,44" stroke-linejoin="round" width="23" height="26" fill="rgb(98,102,214)" stroke="rgb(78,81,171)" stroke-width="1" opacity="0.75" />
		</g>
	</g>
	<g>
		<title>zbmF</title>
		<polygon class="zbmF" points="1385,16 1406,16 1406,1 1436,31 1406,61 1406,46 1385,46" fill="rgb(250,179,216)" fill-opacity="1.0" stroke="rgb(100,71,86)" stroke-width="1" />
	</g>
	<g>
		<polygon class="NoName" points="1437,16 1470,16 1470,1 1500,31 1470,61 1470,46 1437,46" fill="rgb(255,255,255)" fill-opacity="1.0" stroke="rgb(50,50,50)" stroke-width="1" />
		<g>
			<title>PF13537</title>
			<rect class="PF13537" x="1441" y="18" stroke-linejoin="round" width="11" height="26" fill="rgb(200,63,57)" stroke="rgb(160,50,45)" stroke-width="1" opacity="0.75" />
		</g>
		<g>
			<title>PF00733</title>
			<polygon class="PF00733" points="1461,18 1484,18 1497,31 1484,44 1461,44" stroke-linejoin="round" width="37" height="26" fill="rgb(97,201,176)" stroke="rgb(77,160,140)" stroke-width="1" opacity="0.75" />
		</g>
	</g>
	<g>
		<title>zbmIV</title>
		<polygon class="zbmIV" points="1501,16 1735,16 1735,1 1765,31 1735,61 1735,46 1501,46" fill="rgb(251,231,210)" fill-opacity="1.0" stroke="rgb(100,92,84)" stroke-width="1" />
		<g>
			<title>PF00668</title>
			<rect class="PF00668" x="1505" y="18" stroke-linejoin="round" width="43" height="26" fill="rgb(224,184,98)" stroke="rgb(179,147,78)" stroke-width="1" opacity="0.75" />
		</g>
		<g>
			<title>PF00501</title>
			<rect class="PF00501" x="1551" y="18" stroke-linejoin="round" width="40" height="26" fill="rgb(60,217,223)" stroke="rgb(48,173,178)" stroke-width="1" opacity="0.75" />
		</g>
		<g>
			<title>PF13193</title>
			<rect class="PF13193" x="1592" y="18" stroke-linejoin="round" width="7" height="26" fill="rgb(182,50,118)" stroke="rgb(145,39,94)" stroke-width="1" opacity="0.75" />
		</g>
		<g>
			<title>PF00550</title>
			<rect class="PF00550" x="1603" y="18" stroke-linejoin="round" width="6" height="26" fill="rgb(103,191,88)" stroke="rgb(82,152,70)" stroke-width="1" opacity="0.75" />
		</g>
		<g>
			<title>PF00668</title>
			<rect class="PF00668" x="1612" y="18" stroke-linejoin="round" width="43" height="26" fill="rgb(224,184,98)" stroke="rgb(179,147,78)" stroke-width="1" opacity="0.75" />
		</g>
		<g>
			<title>PF00501</title>
			<rect class="PF00501" x="1659" y="18" stroke-linejoin="round" width="40" height="26" fill="rgb(60,217,223)" stroke="rgb(48,173,178)" stroke-width="1" opacity="0.75" />
		</g>
		<g>
			<title>PF13193</title>
			<rect class="PF13193" x="1701" y="18" stroke-linejoin="round" width="7" height="26" fill="rgb(182,50,118)" stroke="rgb(145,39,94)" stroke-width="1" opacity="0.75" />
		</g>
		<g>
			<title>PF00550</title>
			<rect class="PF00550" x="1711" y="18" stroke-linejoin="round" width="6" height="26" fill="rgb(103,191,88)" stroke="rgb(82,152,70)" stroke-width="1" opacity="0.75" />
		</g>
		<g>
			<title>PF00668</title>
			<polygon class="PF00668" points="1720,18 1749,18 1762,31 1749,44 1720,44" stroke-linejoin="round" width="43" height="26" fill="rgb(224,184,98)" stroke="rgb(179,147,78)" stroke-width="1" opacity="0.75" />
		</g>
	</g>
	<g>
		<title>zbmIII</title>
		<polygon class="zbmIII" points="1764,16 1818,16 1818,1 1848,31 1818,61 1818,46 1764,46" fill="rgb(251,244,202)" fill-opacity="1.0" stroke="rgb(100,97,80)" stroke-width="1" />
		<g>
			<title>PF00501</title>
			<rect class="PF00501" x="1767" y="18" stroke-linejoin="round" width="14" height="26" fill="rgb(60,217,223)" stroke="rgb(48,173,178)" stroke-width="1" opacity="0.75" />
		</g>
		<g>
			<title>PF00501</title>
			<rect class="PF00501" x="1782" y="18" stroke-linejoin="round" width="21" height="26" fill="rgb(60,217,223)" stroke="rgb(48,173,178)" stroke-width="1" opacity="0.75" />
		</g>
		<g>
			<title>PF13193</title>
			<rect class="PF13193" x="1806" y="18" stroke-linejoin="round" width="7" height="26" fill="rgb(182,50,118)" stroke="rgb(145,39,94)" stroke-width="1" opacity="0.75" />
		</g>
		<g>
			<title>PF00550</title>
			<rect class="PF00550" x="1816" y="18" stroke-linejoin="round" width="6" height="26" fill="rgb(103,191,88)" stroke="rgb(82,152,70)" stroke-width="1" opacity="0.75" />
		</g>
		<g>
			<title>PF00881</title>
			<polygon class="PF00881" points="1829,18 1832,18 1845,31 1832,44 1829,44" stroke-linejoin="round" width="17" height="26" fill="rgb(79,118,187)" stroke="rgb(63,94,149)" stroke-width="1" opacity="0.75" />
		</g>
	</g>
	<g>
		<polygon class="NoName" points="1849,16 1857,16 1857,1 1887,31 1857,61 1857,46 1849,46" fill="rgb(255,255,255)" fill-opacity="1.0" stroke="rgb(50,50,50)" stroke-width="1" />
		<g>
			<title>PF02668</title>
			<polygon class="PF02668" points="1851,18 1871,18 1881,28 1881,34 1871,44 1851,44" stroke-linejoin="round" width="30" height="26" fill="rgb(180,79,217)" stroke="rgb(144,63,173)" stroke-width="1" opacity="0.75" />
		</g>
	</g>
	<g>
		<title>zbmII</title>
		<polygon class="zbmII" points="1887,16 1904,16 1904,1 1934,31 1904,61 1904,46 1887,46" fill="rgb(235,253,210)" fill-opacity="1.0" stroke="rgb(94,101,84)" stroke-width="1" />
		<g>
			<title>PF00668</title>
			<rect class="PF00668" x="1887" y="18" stroke-linejoin="round" width="16" height="26" fill="rgb(224,184,98)" stroke="rgb(179,147,78)" stroke-width="1" opacity="0.75" />
		</g>
	</g>
	<g>
		<polygon class="NoName" points="1934,16 1934,16 1934,1 1954,31 1934,61 1934,46 1934,46" fill="rgb(255,255,255)" fill-opacity="1.0" stroke="rgb(50,50,50)" stroke-width="1" />
		<g>
			<title>PF03621</title>
			<rect class="PF03621" x="1934" y="18" stroke-linejoin="round" width="5" height="26" fill="rgb(212,165,97)" stroke="rgb(169,132,77)" stroke-width="1" opacity="0.75" />
		</g>
	</g>
	<g>
		<title>zbmE</title>
		<polygon class="zbmE" points="1954,16 1962,16 1962,1 1992,31 1962,61 1962,46 1954,46" fill="rgb(192,191,254)" fill-opacity="1.0" stroke="rgb(76,76,101)" stroke-width="1" />
		<g>
			<title>PF01075</title>
			<polygon class="PF01075" points="1963,18 1976,18 1987,29 1987,33 1976,44 1963,44" stroke-linejoin="round" width="24" height="26" fill="rgb(200,89,91)" stroke="rgb(160,71,72)" stroke-width="1" opacity="0.75" />
		</g>
	</g>
	<g>
		<title>zbmD</title>
		<polygon class="zbmD" points="1992,16 2016,16 2016,1 2046,31 2016,61 2016,46 1992,46" fill="rgb(251,234,207)" fill-opacity="1.0" stroke="rgb(100,93,82)" stroke-width="1" />
		<g>
			<title>PF02543</title>
			<rect class="PF02543" x="1993" y="18" stroke-linejoin="round" width="30" height="26" fill="rgb(146,218,61)" stroke="rgb(116,174,48)" stroke-width="1" opacity="0.75" />
		</g>
		<g>
			<title>PF16861</title>
			<polygon class="PF16861" points="2029,18 2030,18 2043,31 2030,44 2029,44" stroke-linejoin="round" width="16" height="26" fill="rgb(183,87,154)" stroke="rgb(146,69,123)" stroke-width="1" opacity="0.75" />
		</g>
	</g>
	<g>
		<polygon class="NoName" points="27,16 27,16 27,1 14,31 27,61 27,46 27,46" fill="rgb(255,255,255)" fill-opacity="1.0" stroke="rgb(50,50,50)" stroke-width="1" />
	</g>
	<g>
		<title>zbmI</title>
		<polygon class="zbmI" points="2047,16 2047,16 2047,1 2055,31 2047,61 2047,46 2047,46" fill="rgb(253,178,192)" fill-opacity="1.0" stroke="rgb(101,71,76)" stroke-width="1" />
		<g>
			<title>PF00550</title>
			<polygon class="PF00550" points="2048,18 2049,18 2052,31 2049,44 2048,44" stroke-linejoin="round" width="6" height="26" fill="rgb(103,191,88)" stroke="rgb(82,152,70)" stroke-width="1" opacity="0.75" />
		</g>
	</g>
	<g>
		<title>zbmC</title>
		<polygon class="zbmC" points="2055,16 2074,16 2074,1 2104,31 2074,61 2074,46 2055,46" fill="rgb(192,253,198)" fill-opacity="1.0" stroke="rgb(76,101,79)" stroke-width="1" />
		<g>
			<title>PF00294</title>
			<rect class="PF00294" x="2056" y="18" stroke-linejoin="round" width="30" height="26" fill="rgb(153,96,212)" stroke="rgb(122,76,169)" stroke-width="1" opacity="0.75" />
		</g>
		<g>
			<title>PF01467</title>
			<polygon class="PF01467" points="2090,20 2101,31 2090,42" stroke-linejoin="round" width="13" height="26" fill="rgb(110,215,57)" stroke="rgb(88,172,45)" stroke-width="1" opacity="0.75" />
		</g>
	</g>
	<g>
		<polygon class="NoName" points="2105,16 2117,16 2117,1 2147,31 2117,61 2117,46 2105,46" fill="rgb(255,255,255)" fill-opacity="1.0" stroke="rgb(50,50,50)" stroke-width="1" />
		<g>
			<title>PF04055</title>
			<rect class="PF04055" x="2107" y="18" stroke-linejoin="round" width="18" height="26" fill="rgb(149,56,222)" stroke="rgb(119,44,177)" stroke-width="1" opacity="0.75" />
		</g>
	</g>
	<g>
		<polygon class="NoName" points="2147,16 2147,16 2147,1 2167,31 2147,61 2147,46 2147,46" fill="rgb(255,255,255)" fill-opacity="1.0" stroke="rgb(50,50,50)" stroke-width="1" />
		<g>
			<title>PF12796</title>
			<polygon class="PF12796" points="2150,18 2155,18 2158,22 2158,40 2155,44 2150,44" stroke-linejoin="round" width="8" height="26" fill="rgb(151,90,191)" stroke="rgb(120,72,152)" stroke-width="1" opacity="0.75" />
		</g>
	</g>
	<g>
		<title>zbmXI</title>
		<polygon class="zbmXI" points="2170,16 2185,16 2185,1 2215,31 2185,61 2185,46 2170,46" fill="rgb(207,250,254)" fill-opacity="1.0" stroke="rgb(82,100,101)" stroke-width="1" />
		<g>
			<title>PF00668</title>
			<polygon class="PF00668" points="2170,18 2199,18 2212,31 2199,44 2170,44" stroke-linejoin="round" width="44" height="26" fill="rgb(224,184,98)" stroke="rgb(179,147,78)" stroke-width="1" opacity="0.75" />
		</g>
	</g>
	<g>
		<title>zbmVIIb</title>
		<polygon class="zbmVIIb" points="2275,16 2246,16 2246,1 2216,31 2246,61 2246,46 2275,46" fill="rgb(206,177,251)" fill-opacity="1.0" stroke="rgb(82,70,100)" stroke-width="1" />
		<g>
			<title>PF00550</title>
			<polygon class="PF00550" points="2218,31 2223,26 2223,35" stroke-linejoin="round" width="6" height="26" fill="rgb(103,191,88)" stroke="rgb(82,152,70)" stroke-width="1" opacity="0.75" />
		</g>
		<g>
			<title>PF13193</title>
			<polygon class="PF13193" points="2226,23 2231,18 2233,18 2233,44 2231,44 2226,38" stroke-linejoin="round" width="7" height="26" fill="rgb(182,50,118)" stroke="rgb(145,39,94)" stroke-width="1" opacity="0.75" />
		</g>
		<g>
			<title>PF00501</title>
			<rect class="PF00501" x="2234" y="18" stroke-linejoin="round" width="39" height="26" fill="rgb(60,217,223)" stroke="rgb(48,173,178)" stroke-width="1" opacity="0.75" />
		</g>
	</g>
	<g>
		<polygon class="NoName" points="2284,16 2285,16 2285,1 2315,31 2285,61 2285,46 2284,46" fill="rgb(255,255,255)" fill-opacity="1.0" stroke="rgb(50,50,50)" stroke-width="1" />
		<g>
			<title>PF05118</title>
			<polygon class="PF05118" points="2291,18 2299,18 2306,25 2306,37 2299,44 2291,44" stroke-linejoin="round" width="15" height="26" fill="rgb(110,77,203)" stroke="rgb(88,61,162)" stroke-width="1" opacity="0.75" />
		</g>
	</g>
	<g>
		<polygon class="NoName" points="2319,16 2350,16 2350,1 2380,31 2350,61 2350,46 2319,46" fill="rgb(255,255,255)" fill-opacity="1.0" stroke="rgb(50,50,50)" stroke-width="1" />
		<g>
			<title>PF00668</title>
			<rect class="PF00668" x="2319" y="18" stroke-linejoin="round" width="34" height="26" fill="rgb(224,184,98)" stroke="rgb(179,147,78)" stroke-width="1" opacity="0.75" />
		</g>
	</g>
	<g>
		<polygon class="NoName" points="2380,16 2392,16 2392,1 2422,31 2392,61 2392,46 2380,46" fill="rgb(255,255,255)" fill-opacity="1.0" stroke="rgb(50,50,50)" stroke-width="1" />
		<g>
			<title>PF00501</title>
			<rect class="PF00501" x="2381" y="18" stroke-linejoin="round" width="9" height="26" fill="rgb(60,217,223)" stroke="rgb(48,173,178)" stroke-width="1" opacity="0.75" />
		</g>
		<g>
			<title>PF00550</title>
			<polygon class="PF00550" points="2413,25 2419,31 2419,31 2413,37" stroke-linejoin="round" width="6" height="26" fill="rgb(103,191,88)" stroke="rgb(82,152,70)" stroke-width="1" opacity="0.75" />
		</g>
	</g>
	<g>
		<polygon class="NoName" points="2422,16 2422,16 2422,1 2430,31 2422,61 2422,46 2422,46" fill="rgb(255,255,255)" fill-opacity="1.0" stroke="rgb(50,50,50)" stroke-width="1" />
		<g>
			<title>PF00550</title>
			<polygon class="PF00550" points="2422,18 2424,18 2427,31 2424,44 2422,44" stroke-linejoin="round" width="6" height="26" fill="rgb(103,191,88)" stroke="rgb(82,152,70)" stroke-width="1" opacity="0.75" />
		</g>
	</g>
	<g>
		<polygon class="NoName" points="78,16 59,16 59,1 29,31 59,61 59,46 78,46" fill="rgb(255,255,255)" fill-opacity="1.0" stroke="rgb(50,50,50)" stroke-width="1" />
		<g>
			<title>PF00271</title>
			<polygon class="PF00271" points="38,24 44,18 48,18 48,44 44,44 38,37" stroke-linejoin="round" width="10" height="26" fill="rgb(104,224,158)" stroke="rgb(83,179,126)" stroke-width="1" opacity="0.75" />
		</g>
		<g>
			<title>PF00270</title>
			<rect class="PF00270" x="52" y="18" stroke-linejoin="round" width="16" height="26" fill="rgb(195,100,62)" stroke="rgb(156,80,49)" stroke-width="1" opacity="0.75" />
		</g>
	</g>
	<g>
		<polygon class="NoName" points="2431,16 2454,16 2454,1 2484,31 2454,61 2454,46 2431,46" fill="rgb(255,255,255)" fill-opacity="1.0" stroke="rgb(50,50,50)" stroke-width="1" />
		<g>
			<title>PF00501</title>
			<polygon class="PF00501" points="2431,18 2468,18 2471,21 2471,41 2468,44 2431,44" stroke-linejoin="round" width="40" height="26" fill="rgb(60,217,223)" stroke="rgb(48,173,178)" stroke-width="1" opacity="0.75" />
		</g>
		<g>
			<title>PF13193</title>
			<polygon class="PF13193" points="2473,23 2480,30 2480,32 2473,39" stroke-linejoin="round" width="7" height="26" fill="rgb(182,50,118)" stroke="rgb(145,39,94)" stroke-width="1" opacity="0.75" />
		</g>
	</g>
	<g>
		<polygon class="NoName" points="2484,16 2484,16 2484,1 2510,31 2484,61 2484,46 2484,46" fill="rgb(255,255,255)" fill-opacity="1.0" stroke="rgb(50,50,50)" stroke-width="1" />
		<g>
			<title>PF00975</title>
			<rect class="PF00975" x="2486" y="18" stroke-linejoin="round" width="10" height="26" fill="rgb(207,80,138)" stroke="rgb(165,63,110)" stroke-width="1" opacity="0.75" />
		</g>
	</g>
	<g>
		<polygon class="NoName" points="2511,16 2511,16 2511,1 2531,31 2511,61 2511,46 2511,46" fill="rgb(255,255,255)" fill-opacity="1.0" stroke="rgb(50,50,50)" stroke-width="1" />
		<g>
			<title>PF02632</title>
			<polygon class="PF02632" points="2514,18 2519,18 2528,31 2528,31 2519,44 2514,44" stroke-linejoin="round" width="14" height="26" fill="rgb(209,203,81)" stroke="rgb(167,162,64)" stroke-width="1" opacity="0.75" />
		</g>
	</g>
	<g>
		<polygon class="NoName" points="2532,16 2532,16 2532,1 2554,31 2532,61 2532,46 2532,46" fill="rgb(255,255,255)" fill-opacity="1.0" stroke="rgb(50,50,50)" stroke-width="1" />
		<g>
			<title>PF00005</title>
			<polygon class="PF00005" points="2533,18 2541,18 2547,25 2547,37 2541,44 2533,44" stroke-linejoin="round" width="14" height="26" fill="rgb(129,201,63)" stroke="rgb(103,160,50)" stroke-width="1" opacity="0.75" />
		</g>
	</g>
	<g>
		<polygon class="NoName" points="2554,16 2554,16 2554,1 2574,31 2554,61 2554,46 2554,46" fill="rgb(255,255,255)" fill-opacity="1.0" stroke="rgb(50,50,50)" stroke-width="1" />
		<g>
			<title>PF02361</title>
			<polygon class="PF02361" points="2554,18 2562,18 2571,31 2562,44 2554,44" stroke-linejoin="round" width="19" height="26" fill="rgb(217,92,216)" stroke="rgb(173,73,172)" stroke-width="1" opacity="0.75" />
		</g>
	</g>
	<g>
		<polygon class="NoName" points="2598,16 2607,16 2607,1 2637,31 2607,61 2607,46 2598,46" fill="rgb(255,255,255)" fill-opacity="1.0" stroke="rgb(50,50,50)" stroke-width="1" />
		<g>
			<title>PF04055</title>
			<rect class="PF04055" x="2604" y="18" stroke-linejoin="round" width="16" height="26" fill="rgb(149,56,222)" stroke="rgb(119,44,177)" stroke-width="1" opacity="0.75" />
		</g>
		<g>
			<title>PF06968</title>
			<polygon class="PF06968" points="2621,18 2621,18 2629,26 2629,36 2621,44 2621,44" stroke-linejoin="round" width="8" height="26" fill="rgb(91,179,207)" stroke="rgb(72,143,165)" stroke-width="1" opacity="0.75" />
		</g>
	</g>
	<g>
		<title>zbmL</title>
		<polygon class="zbmL" points="2674,16 2671,16 2671,1 2641,31 2671,61 2671,46 2674,46" fill="rgb(251,189,215)" fill-opacity="1.0" stroke="rgb(100,75,86)" stroke-width="1" />
		<g>
			<title>PF16363</title>
			<polygon class="PF16363" points="2643,31 2656,18 2674,18 2674,44 2656,44" stroke-linejoin="round" width="31" height="26" fill="rgb(162,221,65)" stroke="rgb(129,176,51)" stroke-width="1" opacity="0.75" />
		</g>
	</g>
	<g>
		<polygon class="NoName" points="2675,16 2758,16 2758,1 2788,31 2758,61 2758,46 2675,46" fill="rgb(255,255,255)" fill-opacity="1.0" stroke="rgb(50,50,50)" stroke-width="1" />
		<g>
			<title>PF00668</title>
			<rect class="PF00668" x="2683" y="18" stroke-linejoin="round" width="44" height="26" fill="rgb(224,184,98)" stroke="rgb(179,147,78)" stroke-width="1" opacity="0.75" />
		</g>
		<g>
			<title>PF00501</title>
			<rect class="PF00501" x="2729" y="18" stroke-linejoin="round" width="38" height="26" fill="rgb(60,217,223)" stroke="rgb(48,173,178)" stroke-width="1" opacity="0.75" />
		</g>
		<g>
			<title>PF13193</title>
			<polygon class="PF13193" points="2769,18 2772,18 2776,22 2776,40 2772,44 2769,44" stroke-linejoin="round" width="7" height="26" fill="rgb(182,50,118)" stroke="rgb(145,39,94)" stroke-width="1" opacity="0.75" />
		</g>
		<g>
			<title>PF00550</title>
			<polygon class="PF00550" points="2780,26 2785,31 2780,36" stroke-linejoin="round" width="6" height="26" fill="rgb(103,191,88)" stroke="rgb(82,152,70)" stroke-width="1" opacity="0.75" />
		</g>
	</g>
	<g>
		<polygon class="NoName" points="2826,16 2817,16 2817,1 2787,31 2817,61 2817,46 2826,46" fill="rgb(255,255,255)" fill-opacity="1.0" stroke="rgb(50,50,50)" stroke-width="1" />
		<g>
			<title>PF07969</title>
			<polygon class="PF07969" points="2789,31 2802,18 2826,18 2826,44 2802,44" stroke-linejoin="round" width="37" height="26" fill="rgb(228,157,101)" stroke="rgb(182,125,80)" stroke-width="1" opacity="0.75" />
		</g>
	</g>
	<g>
		<polygon class="NoName" points="96,16 96,16 96,1 90,31 96,61 96,46 96,46" fill="rgb(255,255,255)" fill-opacity="1.0" stroke="rgb(50,50,50)" stroke-width="1" />
		<g>
			<title>PF00313</title>
			<polygon class="PF00313" points="92,31 95,18 96,18 96,44 95,44" stroke-linejoin="round" width="6" height="26" fill="rgb(87,72,181)" stroke="rgb(69,57,144)" stroke-width="1" opacity="0.75" />
		</g>
	</g>
	<g>
		<polygon class="NoName" points="150,16 150,16 150,1 134,31 150,61 150,46 150,46" fill="rgb(255,255,255)" fill-opacity="1.0" stroke="rgb(50,50,50)" stroke-width="1" />
	</g>
	<g>
		<polygon class="NoName" points="162,16 162,16 162,1 187,31 162,61 162,46 162,46" fill="rgb(255,255,255)" fill-opacity="1.0" stroke="rgb(50,50,50)" stroke-width="1" />
		<g>
			<title>PF00975</title>
			<polygon class="PF00975" points="163,18 173,18 184,31 173,44 163,44" stroke-linejoin="round" width="22" height="26" fill="rgb(207,80,138)" stroke="rgb(165,63,110)" stroke-width="1" opacity="0.75" />
		</g>
	</g>
	<g>
		<polygon class="NoName" points="191,16 191,16 191,1 212,31 191,61 191,46 191,46" fill="rgb(255,255,255)" fill-opacity="1.0" stroke="rgb(50,50,50)" stroke-width="1" />
		<g>
			<title>PF05014</title>
			<polygon class="PF05014" points="197,18 200,18 209,31 209,31 200,44 197,44" stroke-linejoin="round" width="12" height="26" fill="rgb(142,182,49)" stroke="rgb(113,145,39)" stroke-width="1" opacity="0.75" />
		</g>
	</g>
	<g>
		<polygon class="NoName" points="212,16 214,16 214,1 244,31 214,61 214,46 212,46" fill="rgb(255,255,255)" fill-opacity="1.0" stroke="rgb(50,50,50)" stroke-width="1" />
		<g>
			<title>PF01180</title>
			<polygon class="PF01180" points="215,18 228,18 241,31 228,44 215,44" stroke-linejoin="round" width="27" height="26" fill="rgb(127,188,80)" stroke="rgb(101,150,64)" stroke-width="1" opacity="0.75" />
		</g>
	</g>
	<g>
		<polygon class="NoName" points="244,16 244,16 244,1 271,31 244,61 244,46 244,46" fill="rgb(255,255,255)" fill-opacity="1.0" stroke="rgb(50,50,50)" stroke-width="1" />
		<g>
			<title>PF02633</title>
			<polygon class="PF02633" points="245,18 256,18 268,31 268,31 256,44 245,44" stroke-linejoin="round" width="23" height="26" fill="rgb(216,60,128)" stroke="rgb(172,47,102)" stroke-width="1" opacity="0.75" />
		</g>
	</g>
</svg>
