<svg version="1.1" baseProfile="full" xmlns="http://www.w3.org/2000/svg" width="291" height="62">
	<line x1="1" y1="31" x2="290" y2="31" style="stroke:rgb(50,50,50); stroke-width:3 "/>
	<g>
		<title>crtE</title>
		<polygon class="crtE" points="41,16 41,16 41,1 71,31 41,61 41,46 41,46" fill="rgb(254,225,185)" fill-opacity="1.0" stroke="rgb(101,90,74)" stroke-width="1" />
		<g>
			<title>PF00348</title>
			<polygon class="PF00348" points="44,18 55,18 68,31 68,31 55,44 44,44" stroke-linejoin="round" width="24" height="26" fill="rgb(61,206,65)" stroke="rgb(48,164,52)" stroke-width="1" opacity="0.75" />
		</g>
	</g>
	<g>
		<title>crtX</title>
		<polygon class="crtX" points="71,16 83,16 83,1 113,31 83,61 83,46 71,46" fill="rgb(211,211,251)" fill-opacity="1.0" stroke="rgb(84,84,100)" stroke-width="1" />
		<g>
			<title>PF00201</title>
			<polygon class="PF00201" points="91,18 97,18 110,31 110,31 97,44 91,44" stroke-linejoin="round" width="19" height="26" fill="rgb(225,150,107)" stroke="rgb(180,120,85)" stroke-width="1" opacity="0.75" />
		</g>
	</g>
	<g>
		<title>crtY</title>
		<polygon class="crtY" points="114,16 122,16 122,1 152,31 122,61 122,46 114,46" fill="rgb(248,250,209)" fill-opacity="1.0" stroke="rgb(99,100,83)" stroke-width="1" />
		<g>
			<title>PF05834</title>
			<polygon class="PF05834" points="114,18 136,18 149,31 136,44 114,44" stroke-linejoin="round" width="37" height="26" fill="rgb(212,80,200)" stroke="rgb(169,64,160)" stroke-width="1" opacity="0.75" />
		</g>
	</g>
	<g>
		<title>crtI</title>
		<polygon class="crtI" points="153,16 172,16 172,1 202,31 172,61 172,46 153,46" fill="rgb(212,252,247)" fill-opacity="1.0" stroke="rgb(84,100,98)" stroke-width="1" />
		<g>
			<title>PF01593</title>
			<polygon class="PF01593" points="154,18 186,18 199,31 186,44 154,44" stroke-linejoin="round" width="47" height="26" fill="rgb(184,74,52)" stroke="rgb(147,59,41)" stroke-width="1" opacity="0.75" />
		</g>
	</g>
	<g>
		<title>crtB</title>
		<polygon class="crtB" points="202,16 203,16 203,1 233,31 203,61 203,46 202,46" fill="rgb(203,237,254)" fill-opacity="1.0" stroke="rgb(81,94,101)" stroke-width="1" />
		<g>
			<title>PF00494</title>
			<polygon class="PF00494" points="203,18 217,18 229,30 229,32 217,44 203,44" stroke-linejoin="round" width="26" height="26" fill="rgb(178,91,49)" stroke="rgb(142,72,39)" stroke-width="1" opacity="0.75" />
		</g>
	</g>
	<g>
		<polygon class="NoName" points="248,16 248,16 248,1 231,31 248,61 248,46 248,46" fill="rgb(255,255,255)" fill-opacity="1.0" stroke="rgb(50,50,50)" stroke-width="1" />
		<g>
			<title>PF04116</title>
			<polygon class="PF04116" points="234,29 240,18 247,18 247,44 240,44 234,32" stroke-linejoin="round" width="13" height="26" fill="rgb(171,60,209)" stroke="rgb(136,48,167)" stroke-width="1" opacity="0.75" />
		</g>
	</g>
</svg>
