<svg version="1.1" baseProfile="full" xmlns="http://www.w3.org/2000/svg" width="2105" height="186">
	<line x1="1" y1="31" x2="2104" y2="31" style="stroke:rgb(50,50,50); stroke-width:3 "/>
	<line x1="1" y1="93" x2="1307" y2="93" style="stroke:rgb(50,50,50); stroke-width:3 "/>
	<line x1="1" y1="155" x2="1131" y2="155" style="stroke:rgb(50,50,50); stroke-width:3 "/>
	<g>
		<title>lolN</title>
		<polygon class="lolN" points="353,140 317,140 317,125 287,155 317,185 317,170 353,170" fill="rgb(234,188,250)" fill-opacity="1.0" stroke="rgb(93,75,100)" stroke-width="1" />
		<g>
			<title>PF01425</title>
			<polygon class="PF01425" points="298,146 302,142 344,142 344,168 302,168 298,163" stroke-linejoin="round" width="46" height="26" fill="rgb(195,142,64)" stroke="rgb(156,113,51)" stroke-width="1" opacity="0.75" />
		</g>
	</g>
	<g>
		<title>lolM</title>
		<polygon class="lolM" points="383,140 383,140 383,125 411,155 383,185 383,170 383,170" fill="rgb(183,185,253)" fill-opacity="1.0" stroke="rgb(73,74,101)" stroke-width="1" />
		<g>
			<title>PF13649</title>
			<polygon class="PF13649" points="387,142 396,142 397,143 397,167 396,168 387,168" stroke-linejoin="round" width="10" height="26" fill="rgb(227,135,74)" stroke="rgb(181,108,59)" stroke-width="1" opacity="0.75" />
		</g>
	</g>
	<g>
		<title>lolC</title>
		<polygon class="lolC" points="578,16 608,16 608,1 638,31 608,61 608,46 578,46" fill="rgb(198,250,239)" fill-opacity="1.0" stroke="rgb(79,100,95)" stroke-width="1" />
		<g>
			<title>PF01053</title>
			<rect class="PF01053" x="580" y="18" stroke-linejoin="round" width="41" height="26" fill="rgb(142,222,85)" stroke="rgb(113,177,67)" stroke-width="1" opacity="0.75" />
		</g>
	</g>
	<g>
		<title>lolD</title>
		<polygon class="lolD" points="678,16 698,16 698,1 728,31 698,61 698,46 678,46" fill="rgb(224,253,177)" fill-opacity="1.0" stroke="rgb(89,101,70)" stroke-width="1" />
		<g>
			<title>PF02784</title>
			<rect class="PF02784" x="681" y="18" stroke-linejoin="round" width="23" height="26" fill="rgb(106,204,212)" stroke="rgb(84,163,169)" stroke-width="1" opacity="0.75" />
		</g>
		<g>
			<title>PF00278</title>
			<polygon class="PF00278" points="705,18 712,18 717,23 717,39 712,44 705,44" stroke-linejoin="round" width="12" height="26" fill="rgb(195,86,191)" stroke="rgb(156,68,152)" stroke-width="1" opacity="0.75" />
		</g>
	</g>
	<g>
		<title>lolO</title>
		<polygon class="lolO" points="788,16 779,16 779,1 749,31 779,61 779,46 788,46" fill="rgb(201,220,253)" fill-opacity="1.0" stroke="rgb(80,88,101)" stroke-width="1" />
		<g>
			<title>PF03171</title>
			<polygon class="PF03171" points="757,25 764,18 771,18 771,44 764,44 757,36" stroke-linejoin="round" width="14" height="26" fill="rgb(184,68,180)" stroke="rgb(147,54,144)" stroke-width="1" opacity="0.75" />
		</g>
		<g>
			<title>PF14226</title>
			<rect class="PF14226" x="774" y="18" stroke-linejoin="round" width="12" height="26" fill="rgb(122,206,79)" stroke="rgb(97,164,63)" stroke-width="1" opacity="0.75" />
		</g>
	</g>
	<g>
		<title>lolA</title>
		<polygon class="lolA" points="816,16 816,16 816,1 839,31 816,61 816,46 816,46" fill="rgb(250,244,194)" fill-opacity="1.0" stroke="rgb(100,97,77)" stroke-width="1" />
	</g>
	<g>
		<title>lolU</title>
		<polygon class="lolU" points="896,16 876,16 876,1 846,31 876,61 876,46 896,46" fill="rgb(253,210,210)" fill-opacity="1.0" stroke="rgb(101,84,84)" stroke-width="1" />
	</g>
	<g>
		<title>lolP</title>
		<polygon class="lolP" points="930,16 959,16 959,1 989,31 959,61 959,46 930,46" fill="rgb(201,250,183)" fill-opacity="1.0" stroke="rgb(80,100,73)" stroke-width="1" />
		<g>
			<title>PF00067</title>
			<polygon class="PF00067" points="933,18 973,18 978,23 978,39 973,44 933,44" stroke-linejoin="round" width="45" height="26" fill="rgb(85,216,107)" stroke="rgb(68,172,85)" stroke-width="1" opacity="0.75" />
		</g>
	</g>
	<g>
		<title>lolT</title>
		<polygon class="lolT" points="1055,16 1034,16 1034,1 1004,31 1034,61 1034,46 1055,46" fill="rgb(249,253,204)" fill-opacity="1.0" stroke="rgb(99,101,81)" stroke-width="1" />
		<g>
			<title>PF00266</title>
			<rect class="PF00266" x="1029" y="18" stroke-linejoin="round" width="23" height="26" fill="rgb(214,54,122)" stroke="rgb(171,43,97)" stroke-width="1" opacity="0.75" />
		</g>
	</g>
	<g>
		<title>lolE</title>
		<polygon class="lolE" points="1071,16 1071,16 1071,1 1099,31 1071,61 1071,46 1071,46" fill="rgb(228,210,254)" fill-opacity="1.0" stroke="rgb(91,84,101)" stroke-width="1" />
		<g>
			<title>PF05721</title>
			<polygon class="PF05721" points="1072,18 1084,18 1091,26 1091,36 1084,44 1072,44" stroke-linejoin="round" width="19" height="26" fill="rgb(72,132,214)" stroke="rgb(57,105,171)" stroke-width="1" opacity="0.75" />
		</g>
	</g>
	<g>
		<title>lolF</title>
		<polygon class="lolF" points="433,78 405,78 405,63 375,93 405,123 405,108 433,108" fill="rgb(198,250,221)" fill-opacity="1.0" stroke="rgb(79,100,88)" stroke-width="1" />
		<g>
			<title>PF00743</title>
			<rect class="PF00743" x="411" y="80" stroke-linejoin="round" width="21" height="26" fill="rgb(203,74,151)" stroke="rgb(162,59,120)" stroke-width="1" opacity="0.75" />
		</g>
	</g>
</svg>
