<svg version="1.1" baseProfile="full" xmlns="http://www.w3.org/2000/svg" width="584" height="62">
	<line x1="1" y1="31" x2="583" y2="31" style="stroke:rgb(50,50,50); stroke-width:3 "/>
	<g>
		<title>benR</title>
		<polygon class="benR" points="373,16 408,16 408,1 438,31 408,61 408,46 373,46" fill="rgb(254,199,234)" fill-opacity="1.0" stroke="rgb(101,79,93)" stroke-width="1" />
		<g>
			<title>PF00486</title>
			<rect class="PF00486" x="375" y="18" stroke-linejoin="round" width="7" height="26" fill="rgb(204,153,57)" stroke="rgb(163,122,45)" stroke-width="1" opacity="0.75" />
		</g>
		<g>
			<title>PF03704</title>
			<rect class="PF03704" x="383" y="18" stroke-linejoin="round" width="14" height="26" fill="rgb(217,89,196)" stroke="rgb(173,71,156)" stroke-width="1" opacity="0.75" />
		</g>
		<g>
			<title>PF00931</title>
			<polygon class="PF00931" points="406,18 422,18 426,22 426,40 422,44 406,44" stroke-linejoin="round" width="20" height="26" fill="rgb(165,94,211)" stroke="rgb(132,75,168)" stroke-width="1" opacity="0.75" />
		</g>
	</g>
	<g>
		<title>benL</title>
		<polygon class="benL" points="469,16 469,16 469,1 444,31 469,61 469,46 469,46" fill="rgb(224,202,254)" fill-opacity="1.0" stroke="rgb(89,80,101)" stroke-width="1" />
		<g>
			<title>PF13561</title>
			<polygon class="PF13561" points="446,31 457,18 467,18 467,44 457,44" stroke-linejoin="round" width="23" height="26" fill="rgb(73,205,127)" stroke="rgb(58,164,101)" stroke-width="1" opacity="0.75" />
		</g>
	</g>
	<g>
		<title>benQ</title>
		<polygon class="benQ" points="506,16 503,16 503,1 473,31 503,61 503,46 506,46" fill="rgb(230,187,254)" fill-opacity="1.0" stroke="rgb(92,74,101)" stroke-width="1" />
		<g>
			<title>PF08541</title>
			<polygon class="PF08541" points="475,31 482,24 482,37" stroke-linejoin="round" width="9" height="26" fill="rgb(146,207,81)" stroke="rgb(116,165,64)" stroke-width="1" opacity="0.75" />
		</g>
		<g>
			<title>PF08545</title>
			<polygon class="PF08545" points="487,19 488,18 494,18 494,44 488,44 487,42" stroke-linejoin="round" width="7" height="26" fill="rgb(189,102,84)" stroke="rgb(151,81,67)" stroke-width="1" opacity="0.75" />
		</g>
	</g>
	<g>
		<title>benG</title>
		<polygon class="benG" points="142,16 142,16 142,1 157,31 142,61 142,46 142,46" fill="rgb(210,250,210)" fill-opacity="1.0" stroke="rgb(84,100,84)" stroke-width="1" />
		<g>
			<title>PF08592</title>
			<polygon class="PF08592" points="143,18 148,18 154,31 148,44 143,44" stroke-linejoin="round" width="13" height="26" fill="rgb(75,196,107)" stroke="rgb(60,156,85)" stroke-width="1" opacity="0.75" />
		</g>
	</g>
	<g>
		<title>benF</title>
		<polygon class="benF" points="202,16 193,16 193,1 163,31 193,61 193,46 202,46" fill="rgb(218,250,209)" fill-opacity="1.0" stroke="rgb(87,100,83)" stroke-width="1" />
		<g>
			<title>PF00891</title>
			<polygon class="PF00891" points="165,31 178,18 187,18 187,44 178,44" stroke-linejoin="round" width="22" height="26" fill="rgb(50,51,190)" stroke="rgb(39,40,152)" stroke-width="1" opacity="0.75" />
		</g>
	</g>
	<g>
		<title>benE</title>
		<polygon class="benE" points="204,16 204,16 204,1 214,31 204,61 204,46 204,46" fill="rgb(203,224,252)" fill-opacity="1.0" stroke="rgb(81,89,100)" stroke-width="1" />
		<g>
			<title>PF04673</title>
			<polygon class="PF04673" points="204,18 207,18 211,31 207,44 204,44" stroke-linejoin="round" width="10" height="26" fill="rgb(49,187,78)" stroke="rgb(39,149,62)" stroke-width="1" opacity="0.75" />
		</g>
	</g>
	<g>
		<title>benD</title>
		<polygon class="benD" points="215,16 215,16 215,1 229,31 215,61 215,46 215,46" fill="rgb(205,252,251)" fill-opacity="1.0" stroke="rgb(82,100,100)" stroke-width="1" />
		<g>
			<title>PF07883</title>
			<polygon class="PF07883" points="220,18 220,18 226,31 220,44 220,44" stroke-linejoin="round" width="7" height="26" fill="rgb(211,192,74)" stroke="rgb(168,153,59)" stroke-width="1" opacity="0.75" />
		</g>
	</g>
	<g>
		<title>benA</title>
		<polygon class="benA" points="229,16 241,16 241,1 271,31 241,61 241,46 229,46" fill="rgb(237,205,251)" fill-opacity="1.0" stroke="rgb(94,82,100)" stroke-width="1" />
		<g>
			<title>PF00109</title>
			<rect class="PF00109" x="229" y="18" stroke-linejoin="round" width="25" height="26" fill="rgb(112,116,228)" stroke="rgb(89,92,182)" stroke-width="1" opacity="0.75" />
		</g>
		<g>
			<title>PF02801</title>
			<polygon class="PF02801" points="255,18 255,18 266,29 266,33 255,44 255,44" stroke-linejoin="round" width="11" height="26" fill="rgb(215,78,102)" stroke="rgb(172,62,81)" stroke-width="1" opacity="0.75" />
		</g>
	</g>
	<g>
		<title>benB</title>
		<polygon class="benB" points="272,16 283,16 283,1 313,31 283,61 283,46 272,46" fill="rgb(213,251,226)" fill-opacity="1.0" stroke="rgb(85,100,90)" stroke-width="1" />
		<g>
			<title>PF00109</title>
			<rect class="PF00109" x="272" y="18" stroke-linejoin="round" width="23" height="26" fill="rgb(112,116,228)" stroke="rgb(89,92,182)" stroke-width="1" opacity="0.75" />
		</g>
		<g>
			<title>PF02801</title>
			<polygon class="PF02801" points="297,18 297,18 308,29 308,33 297,44 297,44" stroke-linejoin="round" width="11" height="26" fill="rgb(215,78,102)" stroke="rgb(172,62,81)" stroke-width="1" opacity="0.75" />
		</g>
	</g>
	<g>
		<title>benC</title>
		<polygon class="benC" points="315,16 315,16 315,1 323,31 315,61 315,46 315,46" fill="rgb(240,251,181)" fill-opacity="1.0" stroke="rgb(96,100,72)" stroke-width="1" />
		<g>
			<title>PF00550</title>
			<polygon class="PF00550" points="315,18 317,18 320,31 317,44 315,44" stroke-linejoin="round" width="7" height="26" fill="rgb(103,191,88)" stroke="rgb(82,152,70)" stroke-width="1" opacity="0.75" />
		</g>
	</g>
	<g>
		<title>benH</title>
		<polygon class="benH" points="324,16 324,16 324,1 352,31 324,61 324,46 324,46" fill="rgb(179,254,233)" fill-opacity="1.0" stroke="rgb(71,101,93)" stroke-width="1" />
		<g>
			<title>PF03364</title>
			<rect class="PF03364" x="325" y="18" stroke-linejoin="round" width="12" height="26" fill="rgb(221,94,106)" stroke="rgb(176,75,84)" stroke-width="1" opacity="0.75" />
		</g>
		<g>
			<title>PF03992</title>
			<polygon class="PF03992" points="341,23 348,30 348,32 341,39" stroke-linejoin="round" width="7" height="26" fill="rgb(193,84,127)" stroke="rgb(154,67,101)" stroke-width="1" opacity="0.75" />
		</g>
	</g>
	<g>
		<title>benJ</title>
		<polygon class="benJ" points="352,16 352,16 352,1 363,31 352,61 352,46 352,46" fill="rgb(250,222,209)" fill-opacity="1.0" stroke="rgb(100,88,83)" stroke-width="1" />
		<g>
			<title>PF03992</title>
			<polygon class="PF03992" points="353,18 355,18 360,29 360,33 355,44 353,44" stroke-linejoin="round" width="7" height="26" fill="rgb(193,84,127)" stroke="rgb(154,67,101)" stroke-width="1" opacity="0.75" />
		</g>
	</g>
</svg>
