<svg version="1.1" baseProfile="full" xmlns="http://www.w3.org/2000/svg" width="1316" height="62">
	<line x1="1" y1="31" x2="1315" y2="31" style="stroke:rgb(50,50,50); stroke-width:3 "/>
	<g>
		<polygon class="NoName" points="537,16 537,16 537,1 559,31 537,61 537,46 537,46" fill="rgb(255,255,255)" fill-opacity="1.0" stroke="rgb(50,50,50)" stroke-width="1" />
		<g>
			<title>PF00971</title>
			<polygon class="PF00971" points="544,18 546,18 556,31 546,44 544,44" stroke-linejoin="round" width="13" height="26" fill="rgb(208,83,149)" stroke="rgb(166,66,119)" stroke-width="1" opacity="0.75" />
		</g>
	</g>
	<g>
		<polygon class="NoName" points="581,16 605,16 605,1 635,31 605,61 605,46 581,46" fill="rgb(255,255,255)" fill-opacity="1.0" stroke="rgb(50,50,50)" stroke-width="1" />
		<g>
			<title>PF00221</title>
			<polygon class="PF00221" points="583,18 619,18 631,30 631,32 619,44 583,44" stroke-linejoin="round" width="48" height="26" fill="rgb(182,133,62)" stroke="rgb(145,106,49)" stroke-width="1" opacity="0.75" />
		</g>
	</g>
	<g>
		<polygon class="NoName" points="640,16 640,16 640,1 649,31 640,61 640,46 640,46" fill="rgb(255,255,255)" fill-opacity="1.0" stroke="rgb(50,50,50)" stroke-width="1" />
		<g>
			<title>PF00550</title>
			<polygon class="PF00550" points="641,18 642,18 646,31 642,44 641,44" stroke-linejoin="round" width="7" height="26" fill="rgb(103,191,88)" stroke="rgb(82,152,70)" stroke-width="1" opacity="0.75" />
		</g>
	</g>
	<g>
		<polygon class="NoName" points="651,16 670,16 670,1 700,31 670,61 670,46 651,46" fill="rgb(255,255,255)" fill-opacity="1.0" stroke="rgb(50,50,50)" stroke-width="1" />
		<g>
			<title>PF00501</title>
			<polygon class="PF00501" points="664,18 684,18 686,20 686,42 684,44 664,44" stroke-linejoin="round" width="22" height="26" fill="rgb(60,217,223)" stroke="rgb(48,173,178)" stroke-width="1" opacity="0.75" />
		</g>
	</g>
	<g>
		<polygon class="NoName" points="700,16 742,16 742,1 772,31 742,61 742,46 700,46" fill="rgb(255,255,255)" fill-opacity="1.0" stroke="rgb(50,50,50)" stroke-width="1" />
		<g>
			<title>PF00109</title>
			<rect class="PF00109" x="700" y="18" stroke-linejoin="round" width="22" height="26" fill="rgb(112,116,228)" stroke="rgb(89,92,182)" stroke-width="1" opacity="0.75" />
		</g>
		<g>
			<title>PF02801</title>
			<rect class="PF02801" x="723" y="18" stroke-linejoin="round" width="11" height="26" fill="rgb(215,78,102)" stroke="rgb(172,62,81)" stroke-width="1" opacity="0.75" />
		</g>
	</g>
	<g>
		<polygon class="NoName" points="773,16 773,16 773,1 798,31 773,61 773,46 773,46" fill="rgb(255,255,255)" fill-opacity="1.0" stroke="rgb(50,50,50)" stroke-width="1" />
		<g>
			<title>PF00005</title>
			<polygon class="PF00005" points="775,18 784,18 788,23 788,39 784,44 775,44" stroke-linejoin="round" width="13" height="26" fill="rgb(129,201,63)" stroke="rgb(103,160,50)" stroke-width="1" opacity="0.75" />
		</g>
	</g>
	<g>
		<polygon class="NoName" points="798,16 805,16 805,1 835,31 805,61 805,46 798,46" fill="rgb(255,255,255)" fill-opacity="1.0" stroke="rgb(50,50,50)" stroke-width="1" />
		<g>
			<title>PF12698</title>
			<polygon class="PF12698" points="800,18 819,18 832,31 819,44 800,44" stroke-linejoin="round" width="33" height="26" fill="rgb(151,189,55)" stroke="rgb(120,151,44)" stroke-width="1" opacity="0.75" />
		</g>
	</g>
	<g>
		<polygon class="NoName" points="835,16 835,16 835,1 848,31 835,61 835,46 835,46" fill="rgb(255,255,255)" fill-opacity="1.0" stroke="rgb(50,50,50)" stroke-width="1" />
		<g>
			<title>PF07977</title>
			<polygon class="PF07977" points="835,18 839,18 845,31 839,44 835,44" stroke-linejoin="round" width="11" height="26" fill="rgb(66,205,188)" stroke="rgb(52,164,150)" stroke-width="1" opacity="0.75" />
		</g>
	</g>
	<g>
		<polygon class="NoName" points="849,16 849,16 849,1 873,31 849,61 849,46 849,46" fill="rgb(255,255,255)" fill-opacity="1.0" stroke="rgb(50,50,50)" stroke-width="1" />
		<g>
			<title>PF13561</title>
			<polygon class="PF13561" points="850,18 860,18 870,31 860,44 850,44" stroke-linejoin="round" width="23" height="26" fill="rgb(73,205,127)" stroke="rgb(58,164,101)" stroke-width="1" opacity="0.75" />
		</g>
	</g>
	<g>
		<polygon class="NoName" points="873,16 873,16 873,1 896,31 873,61 873,46 873,46" fill="rgb(255,255,255)" fill-opacity="1.0" stroke="rgb(50,50,50)" stroke-width="1" />
	</g>
	<g>
		<polygon class="NoName" points="125,16 31,16 31,1 1,31 31,61 31,46 125,46" fill="rgb(255,255,255)" fill-opacity="1.0" stroke="rgb(50,50,50)" stroke-width="1" />
	</g>
	<g>
		<polygon class="NoName" points="897,16 897,16 897,1 922,31 897,61 897,46 897,46" fill="rgb(255,255,255)" fill-opacity="1.0" stroke="rgb(50,50,50)" stroke-width="1" />
		<g>
			<title>PF00975</title>
			<polygon class="PF00975" points="897,18 908,18 919,31 919,31 908,44 897,44" stroke-linejoin="round" width="22" height="26" fill="rgb(207,80,138)" stroke="rgb(165,63,110)" stroke-width="1" opacity="0.75" />
		</g>
	</g>
	<g>
		<polygon class="NoName" points="923,16 1044,16 1044,1 1074,31 1044,61 1044,46 923,46" fill="rgb(255,255,255)" fill-opacity="1.0" stroke="rgb(50,50,50)" stroke-width="1" />
		<g>
			<title>PF00668</title>
			<rect class="PF00668" x="923" y="18" stroke-linejoin="round" width="43" height="26" fill="rgb(224,184,98)" stroke="rgb(179,147,78)" stroke-width="1" opacity="0.75" />
		</g>
		<g>
			<title>PF00501</title>
			<rect class="PF00501" x="968" y="18" stroke-linejoin="round" width="41" height="26" fill="rgb(60,217,223)" stroke="rgb(48,173,178)" stroke-width="1" opacity="0.75" />
		</g>
		<g>
			<title>PF13193</title>
			<rect class="PF13193" x="1011" y="18" stroke-linejoin="round" width="7" height="26" fill="rgb(182,50,118)" stroke="rgb(145,39,94)" stroke-width="1" opacity="0.75" />
		</g>
		<g>
			<title>PF00550</title>
			<rect class="PF00550" x="1021" y="18" stroke-linejoin="round" width="6" height="26" fill="rgb(103,191,88)" stroke="rgb(82,152,70)" stroke-width="1" opacity="0.75" />
		</g>
		<g>
			<title>PF00668</title>
			<polygon class="PF00668" points="1029,18 1058,18 1070,30 1070,32 1058,44 1029,44" stroke-linejoin="round" width="41" height="26" fill="rgb(224,184,98)" stroke="rgb(179,147,78)" stroke-width="1" opacity="0.75" />
		</g>
	</g>
	<g>
		<polygon class="NoName" points="1075,16 1285,16 1285,1 1315,31 1285,61 1285,46 1075,46" fill="rgb(255,255,255)" fill-opacity="1.0" stroke="rgb(50,50,50)" stroke-width="1" />
		<g>
			<title>PF00668</title>
			<rect class="PF00668" x="1082" y="18" stroke-linejoin="round" width="44" height="26" fill="rgb(224,184,98)" stroke="rgb(179,147,78)" stroke-width="1" opacity="0.75" />
		</g>
		<g>
			<title>PF00501</title>
			<rect class="PF00501" x="1128" y="18" stroke-linejoin="round" width="40" height="26" fill="rgb(60,217,223)" stroke="rgb(48,173,178)" stroke-width="1" opacity="0.75" />
		</g>
		<g>
			<title>PF13193</title>
			<rect class="PF13193" x="1169" y="18" stroke-linejoin="round" width="7" height="26" fill="rgb(182,50,118)" stroke="rgb(145,39,94)" stroke-width="1" opacity="0.75" />
		</g>
		<g>
			<title>PF00550</title>
			<rect class="PF00550" x="1179" y="18" stroke-linejoin="round" width="6" height="26" fill="rgb(103,191,88)" stroke="rgb(82,152,70)" stroke-width="1" opacity="0.75" />
		</g>
		<g>
			<title>PF00668</title>
			<rect class="PF00668" x="1187" y="18" stroke-linejoin="round" width="41" height="26" fill="rgb(224,184,98)" stroke="rgb(179,147,78)" stroke-width="1" opacity="0.75" />
		</g>
		<g>
			<title>PF00668</title>
			<rect class="PF00668" x="1231" y="18" stroke-linejoin="round" width="43" height="26" fill="rgb(224,184,98)" stroke="rgb(179,147,78)" stroke-width="1" opacity="0.75" />
		</g>
		<g>
			<title>PF00501</title>
			<polygon class="PF00501" points="1277,18 1299,18 1312,31 1299,44 1277,44" stroke-linejoin="round" width="38" height="26" fill="rgb(60,217,223)" stroke="rgb(48,173,178)" stroke-width="1" opacity="0.75" />
		</g>
	</g>
	<g>
		<polygon class="NoName" points="168,16 165,16 165,1 135,31 165,61 165,46 168,46" fill="rgb(255,255,255)" fill-opacity="1.0" stroke="rgb(50,50,50)" stroke-width="1" />
		<g>
			<title>PF02774</title>
			<polygon class="PF02774" points="137,31 150,18 153,18 153,44 150,44" stroke-linejoin="round" width="17" height="26" fill="rgb(57,188,185)" stroke="rgb(45,150,147)" stroke-width="1" opacity="0.75" />
		</g>
		<g>
			<title>PF01118</title>
			<rect class="PF01118" x="156" y="18" stroke-linejoin="round" width="11" height="26" fill="rgb(191,106,221)" stroke="rgb(152,84,176)" stroke-width="1" opacity="0.75" />
		</g>
	</g>
	<g>
		<polygon class="NoName" points="207,16 200,16 200,1 170,31 200,61 200,46 207,46" fill="rgb(255,255,255)" fill-opacity="1.0" stroke="rgb(50,50,50)" stroke-width="1" />
		<g>
			<title>PF11890</title>
			<polygon class="PF11890" points="172,31 177,26 177,35" stroke-linejoin="round" width="7" height="26" fill="rgb(91,181,80)" stroke="rgb(72,144,64)" stroke-width="1" opacity="0.75" />
		</g>
		<g>
			<title>PF02826</title>
			<polygon class="PF02826" points="181,22 185,18 197,18 197,44 185,44 181,39" stroke-linejoin="round" width="16" height="26" fill="rgb(192,197,93)" stroke="rgb(153,157,74)" stroke-width="1" opacity="0.75" />
		</g>
	</g>
	<g>
		<polygon class="NoName" points="220,16 220,16 220,1 210,31 220,61 220,46 220,46" fill="rgb(255,255,255)" fill-opacity="1.0" stroke="rgb(50,50,50)" stroke-width="1" />
	</g>
	<g>
		<title>fadE</title>
		<polygon class="fadE" points="239,16 290,16 290,1 320,31 290,61 290,46 239,46" fill="rgb(252,179,198)" fill-opacity="1.0" stroke="rgb(100,71,79)" stroke-width="1" />
		<g>
			<title>PF02771</title>
			<rect class="PF02771" x="251" y="18" stroke-linejoin="round" width="11" height="26" fill="rgb(105,135,218)" stroke="rgb(84,108,174)" stroke-width="1" opacity="0.75" />
		</g>
		<g>
			<title>PF02770</title>
			<rect class="PF02770" x="262" y="18" stroke-linejoin="round" width="10" height="26" fill="rgb(225,186,97)" stroke="rgb(180,148,77)" stroke-width="1" opacity="0.75" />
		</g>
		<g>
			<title>PF00441</title>
			<rect class="PF00441" x="275" y="18" stroke-linejoin="round" width="15" height="26" fill="rgb(85,191,117)" stroke="rgb(68,152,93)" stroke-width="1" opacity="0.75" />
		</g>
		<g>
			<title>PF09317</title>
			<polygon class="PF09317" points="290,18 304,18 317,31 304,44 290,44" stroke-linejoin="round" width="28" height="26" fill="rgb(81,182,202)" stroke="rgb(64,145,161)" stroke-width="1" opacity="0.75" />
		</g>
	</g>
	<g>
		<polygon class="NoName" points="400,16 355,16 355,1 325,31 355,61 355,46 400,46" fill="rgb(255,255,255)" fill-opacity="1.0" stroke="rgb(50,50,50)" stroke-width="1" />
	</g>
	<g>
		<polygon class="NoName" points="407,16 442,16 442,1 472,31 442,61 442,46 407,46" fill="rgb(255,255,255)" fill-opacity="1.0" stroke="rgb(50,50,50)" stroke-width="1" />
		<g>
			<title>PF00486</title>
			<rect class="PF00486" x="409" y="18" stroke-linejoin="round" width="7" height="26" fill="rgb(204,153,57)" stroke="rgb(163,122,45)" stroke-width="1" opacity="0.75" />
		</g>
	</g>
	<g>
		<polygon class="NoName" points="508,16 503,16 503,1 473,31 503,61 503,46 508,46" fill="rgb(255,255,255)" fill-opacity="1.0" stroke="rgb(50,50,50)" stroke-width="1" />
	</g>
	<g>
		<polygon class="NoName" points="527,16 527,16 527,1 508,31 527,61 527,46 527,46" fill="rgb(255,255,255)" fill-opacity="1.0" stroke="rgb(50,50,50)" stroke-width="1" />
		<g>
			<title>PF00005</title>
			<polygon class="PF00005" points="512,28 518,18 525,18 525,44 518,44 512,33" stroke-linejoin="round" width="13" height="26" fill="rgb(129,201,63)" stroke="rgb(103,160,50)" stroke-width="1" opacity="0.75" />
		</g>
	</g>
</svg>
