<svg version="1.1" baseProfile="full" xmlns="http://www.w3.org/2000/svg" width="735" height="62">
	<line x1="1" y1="31" x2="734" y2="31" style="stroke:rgb(50,50,50); stroke-width:3 "/>
	<g>
		<polygon class="NoName" points="469,16 403,16 403,1 373,31 403,61 403,46 469,46" fill="rgb(255,255,255)" fill-opacity="1.0" stroke="rgb(50,50,50)" stroke-width="1" />
		<g>
			<title>PF01370</title>
			<polygon class="PF01370" points="386,20 388,18 407,18 407,44 388,44 386,41" stroke-linejoin="round" width="21" height="26" fill="rgb(98,102,214)" stroke="rgb(78,81,171)" stroke-width="1" opacity="0.75" />
		</g>
		<g>
			<title>PF00550</title>
			<rect class="PF00550" x="414" y="18" stroke-linejoin="round" width="5" height="26" fill="rgb(103,191,88)" stroke="rgb(82,152,70)" stroke-width="1" opacity="0.75" />
		</g>
		<g>
			<title>PF00501</title>
			<rect class="PF00501" x="430" y="18" stroke-linejoin="round" width="38" height="26" fill="rgb(60,217,223)" stroke="rgb(48,173,178)" stroke-width="1" opacity="0.75" />
		</g>
	</g>
	<g>
		<polygon class="NoName" points="508,16 499,16 499,1 469,31 499,61 499,46 508,46" fill="rgb(255,255,255)" fill-opacity="1.0" stroke="rgb(50,50,50)" stroke-width="1" />
	</g>
	<g>
		<polygon class="NoName" points="542,16 538,16 538,1 508,31 538,61 538,46 542,46" fill="rgb(255,255,255)" fill-opacity="1.0" stroke="rgb(50,50,50)" stroke-width="1" />
		<g>
			<title>PF11583</title>
			<polygon class="PF11583" points="510,31 523,18 538,18 538,44 523,44" stroke-linejoin="round" width="29" height="26" fill="rgb(100,210,108)" stroke="rgb(80,168,86)" stroke-width="1" opacity="0.75" />
		</g>
	</g>
	<g>
		<polygon class="NoName" points="551,16 551,16 551,1 561,31 551,61 551,46 551,46" fill="rgb(255,255,255)" fill-opacity="1.0" stroke="rgb(50,50,50)" stroke-width="1" />
	</g>
	<g>
		<polygon class="NoName" points="563,16 563,16 563,1 586,31 563,61 563,46 563,46" fill="rgb(255,255,255)" fill-opacity="1.0" stroke="rgb(50,50,50)" stroke-width="1" />
		<g>
			<title>PF13561</title>
			<polygon class="PF13561" points="563,18 573,18 583,31 573,44 563,44" stroke-linejoin="round" width="22" height="26" fill="rgb(73,205,127)" stroke="rgb(58,164,101)" stroke-width="1" opacity="0.75" />
		</g>
	</g>
	<g>
		<polygon class="NoName" points="586,16 604,16 604,1 634,31 604,61 604,46 586,46" fill="rgb(255,255,255)" fill-opacity="1.0" stroke="rgb(50,50,50)" stroke-width="1" />
		<g>
			<title>PF00501</title>
			<polygon class="PF00501" points="586,18 618,18 624,24 624,38 618,44 586,44" stroke-linejoin="round" width="38" height="26" fill="rgb(60,217,223)" stroke="rgb(48,173,178)" stroke-width="1" opacity="0.75" />
		</g>
		<g>
			<title>PF13193</title>
			<polygon class="PF13193" points="625,25 631,31 625,37" stroke-linejoin="round" width="7" height="26" fill="rgb(182,50,118)" stroke="rgb(145,39,94)" stroke-width="1" opacity="0.75" />
		</g>
	</g>
	<g>
		<polygon class="NoName" points="638,16 665,16 665,1 695,31 665,61 665,46 638,46" fill="rgb(255,255,255)" fill-opacity="1.0" stroke="rgb(50,50,50)" stroke-width="1" />
		<g>
			<title>PF04820</title>
			<polygon class="PF04820" points="647,18 679,18 681,20 681,42 679,44 647,44" stroke-linejoin="round" width="34" height="26" fill="rgb(179,74,194)" stroke="rgb(143,59,155)" stroke-width="1" opacity="0.75" />
		</g>
	</g>
	<g>
		<polygon class="NoName" points="701,16 703,16 703,1 733,31 703,61 703,46 701,46" fill="rgb(255,255,255)" fill-opacity="1.0" stroke="rgb(50,50,50)" stroke-width="1" />
		<g>
			<title>PF00248</title>
			<polygon class="PF00248" points="702,18 717,18 730,31 717,44 702,44" stroke-linejoin="round" width="29" height="26" fill="rgb(225,205,58)" stroke="rgb(180,164,46)" stroke-width="1" opacity="0.75" />
		</g>
	</g>
	<g>
		<polygon class="NoName" points="1,16 5,16 5,1 35,31 5,61 5,46 1,46" fill="rgb(255,255,255)" fill-opacity="1.0" stroke="rgb(50,50,50)" stroke-width="1" />
		<g>
			<title>PF02195</title>
			<rect class="PF02195" x="2" y="18" stroke-linejoin="round" width="8" height="26" fill="rgb(55,214,209)" stroke="rgb(44,171,167)" stroke-width="1" opacity="0.75" />
		</g>
	</g>
	<g>
		<polygon class="NoName" points="59,16 59,16 59,1 35,31 59,61 59,46 59,46" fill="rgb(255,255,255)" fill-opacity="1.0" stroke="rgb(50,50,50)" stroke-width="1" />
		<g>
			<title>PF01648</title>
			<polygon class="PF01648" points="37,31 47,18 48,18 48,44 47,44" stroke-linejoin="round" width="11" height="26" fill="rgb(85,184,135)" stroke="rgb(68,147,108)" stroke-width="1" opacity="0.75" />
		</g>
	</g>
	<g>
		<polygon class="NoName" points="106,16 89,16 89,1 59,31 89,61 89,46 106,46" fill="rgb(255,255,255)" fill-opacity="1.0" stroke="rgb(50,50,50)" stroke-width="1" />
		<g>
			<title>PF00999</title>
			<polygon class="PF00999" points="63,29 74,18 79,18 79,44 74,44 63,32" stroke-linejoin="round" width="16" height="26" fill="rgb(229,67,191)" stroke="rgb(183,53,152)" stroke-width="1" opacity="0.75" />
		</g>
		<g>
			<title>PF00999</title>
			<rect class="PF00999" x="84" y="18" stroke-linejoin="round" width="21" height="26" fill="rgb(229,67,191)" stroke="rgb(183,53,152)" stroke-width="1" opacity="0.75" />
		</g>
	</g>
	<g>
		<polygon class="NoName" points="117,16 127,16 127,1 157,31 127,61 127,46 117,46" fill="rgb(255,255,255)" fill-opacity="1.0" stroke="rgb(50,50,50)" stroke-width="1" />
		<g>
			<title>PF07690</title>
			<polygon class="PF07690" points="117,18 141,18 148,25 148,37 141,44 117,44" stroke-linejoin="round" width="31" height="26" fill="rgb(193,224,74)" stroke="rgb(154,179,59)" stroke-width="1" opacity="0.75" />
		</g>
	</g>
	<g>
		<polygon class="NoName" points="203,16 191,16 191,1 161,31 191,61 191,46 203,46" fill="rgb(255,255,255)" fill-opacity="1.0" stroke="rgb(50,50,50)" stroke-width="1" />
		<g>
			<title>PF01474</title>
			<polygon class="PF01474" points="163,31 176,18 182,18 182,44 176,44" stroke-linejoin="round" width="21" height="26" fill="rgb(126,217,84)" stroke="rgb(100,173,67)" stroke-width="1" opacity="0.75" />
		</g>
		<g>
			<title>PF01474</title>
			<rect class="PF01474" x="182" y="18" stroke-linejoin="round" width="17" height="26" fill="rgb(126,217,84)" stroke="rgb(100,173,67)" stroke-width="1" opacity="0.75" />
		</g>
	</g>
	<g>
		<polygon class="NoName" points="213,16 213,16 213,1 203,31 213,61 213,46 213,46" fill="rgb(255,255,255)" fill-opacity="1.0" stroke="rgb(50,50,50)" stroke-width="1" />
		<g>
			<title>PF01817</title>
			<polygon class="PF01817" points="205,31 209,18 211,18 211,44 209,44" stroke-linejoin="round" width="7" height="26" fill="rgb(118,210,66)" stroke="rgb(94,168,52)" stroke-width="1" opacity="0.75" />
		</g>
	</g>
	<g>
		<polygon class="NoName" points="245,16 243,16 243,1 213,31 243,61 243,46 245,46" fill="rgb(255,255,255)" fill-opacity="1.0" stroke="rgb(50,50,50)" stroke-width="1" />
		<g>
			<title>PF02153</title>
			<polygon class="PF02153" points="219,27 228,18 243,18 243,44 228,44 219,34" stroke-linejoin="round" width="24" height="26" fill="rgb(90,185,212)" stroke="rgb(72,148,169)" stroke-width="1" opacity="0.75" />
		</g>
	</g>
	<g>
		<polygon class="NoName" points="314,16 276,16 276,1 246,31 276,61 276,46 314,46" fill="rgb(255,255,255)" fill-opacity="1.0" stroke="rgb(50,50,50)" stroke-width="1" />
		<g>
			<title>PF00425</title>
			<polygon class="PF00425" points="248,31 261,18 272,18 272,44 261,44" stroke-linejoin="round" width="25" height="26" fill="rgb(188,116,88)" stroke="rgb(150,92,70)" stroke-width="1" opacity="0.75" />
		</g>
		<g>
			<title>PF04715</title>
			<rect class="PF04715" x="279" y="18" stroke-linejoin="round" width="13" height="26" fill="rgb(163,87,183)" stroke="rgb(130,69,146)" stroke-width="1" opacity="0.75" />
		</g>
		<g>
			<title>PF00117</title>
			<rect class="PF00117" x="296" y="18" stroke-linejoin="round" width="18" height="26" fill="rgb(159,201,96)" stroke="rgb(127,160,76)" stroke-width="1" opacity="0.75" />
		</g>
	</g>
	<g>
		<polygon class="NoName" points="372,16 349,16 349,1 319,31 349,61 349,46 372,46" fill="rgb(255,255,255)" fill-opacity="1.0" stroke="rgb(50,50,50)" stroke-width="1" />
		<g>
			<title>PF12706</title>
			<polygon class="PF12706" points="328,24 334,18 344,18 344,44 334,44 328,37" stroke-linejoin="round" width="16" height="26" fill="rgb(62,169,197)" stroke="rgb(49,135,157)" stroke-width="1" opacity="0.75" />
		</g>
	</g>
</svg>
