<svg version="1.1" baseProfile="full" xmlns="http://www.w3.org/2000/svg" width="1293" height="62">
	<line x1="1" y1="31" x2="1292" y2="31" style="stroke:rgb(50,50,50); stroke-width:3 "/>
	<g>
		<title>chdN</title>
		<polygon class="chdN" points="492,16 478,16 478,1 448,31 478,61 478,46 492,46" fill="rgb(250,219,190)" fill-opacity="1.0" stroke="rgb(100,87,76)" stroke-width="1" />
		<g>
			<title>PF00155</title>
			<polygon class="PF00155" points="450,31 463,18 485,18 485,44 463,44" stroke-linejoin="round" width="36" height="26" fill="rgb(89,113,198)" stroke="rgb(71,90,158)" stroke-width="1" opacity="0.75" />
		</g>
	</g>
	<g>
		<title>chdOI</title>
		<polygon class="chdOI" points="497,16 507,16 507,1 537,31 507,61 507,46 497,46" fill="rgb(240,250,182)" fill-opacity="1.0" stroke="rgb(96,100,72)" stroke-width="1" />
		<g>
			<title>PF01494</title>
			<polygon class="PF01494" points="497,18 521,18 530,27 530,35 521,44 497,44" stroke-linejoin="round" width="33" height="26" fill="rgb(182,175,59)" stroke="rgb(145,140,47)" stroke-width="1" opacity="0.75" />
		</g>
	</g>
	<g>
		<title>chdMI</title>
		<polygon class="chdMI" points="572,16 568,16 568,1 538,31 568,61 568,46 572,46" fill="rgb(205,250,212)" fill-opacity="1.0" stroke="rgb(82,100,84)" stroke-width="1" />
		<g>
			<title>PF00891</title>
			<polygon class="PF00891" points="540,31 553,18 561,18 561,44 553,44" stroke-linejoin="round" width="22" height="26" fill="rgb(50,51,190)" stroke="rgb(39,40,152)" stroke-width="1" opacity="0.75" />
		</g>
	</g>
	<g>
		<title>chdOIII</title>
		<polygon class="chdOIII" points="583,16 583,16 583,1 574,31 583,61 583,46 583,46" fill="rgb(251,198,199)" fill-opacity="1.0" stroke="rgb(100,79,79)" stroke-width="1" />
		<g>
			<title>PF03992</title>
			<polygon class="PF03992" points="576,31 580,18 583,18 583,44 580,44" stroke-linejoin="round" width="8" height="26" fill="rgb(193,84,127)" stroke="rgb(154,67,101)" stroke-width="1" opacity="0.75" />
		</g>
	</g>
	<g>
		<title>chdL</title>
		<polygon class="chdL" points="638,16 604,16 604,1 574,31 604,61 604,46 638,46" fill="rgb(213,253,207)" fill-opacity="1.0" stroke="rgb(85,101,82)" stroke-width="1" />
		<g>
			<title>PF03992</title>
			<polygon class="PF03992" points="576,31 583,24 583,37" stroke-linejoin="round" width="7" height="26" fill="rgb(193,84,127)" stroke="rgb(154,67,101)" stroke-width="1" opacity="0.75" />
		</g>
		<g>
			<title>PF13193</title>
			<polygon class="PF13193" points="586,21 589,18 593,18 593,44 589,44 586,40" stroke-linejoin="round" width="7" height="26" fill="rgb(182,50,118)" stroke="rgb(145,39,94)" stroke-width="1" opacity="0.75" />
		</g>
		<g>
			<title>PF00501</title>
			<rect class="PF00501" x="594" y="18" stroke-linejoin="round" width="40" height="26" fill="rgb(60,217,223)" stroke="rgb(48,173,178)" stroke-width="1" opacity="0.75" />
		</g>
	</g>
	<g>
		<title>chdX</title>
		<polygon class="chdX" points="655,16 655,16 655,1 640,31 655,61 655,46 655,46" fill="rgb(193,234,254)" fill-opacity="1.0" stroke="rgb(77,93,101)" stroke-width="1" />
		<g>
			<title>PF13577</title>
			<polygon class="PF13577" points="642,31 649,18 653,18 653,44 649,44" stroke-linejoin="round" width="12" height="26" fill="rgb(68,223,209)" stroke="rgb(54,178,167)" stroke-width="1" opacity="0.75" />
		</g>
	</g>
	<g>
		<title>chdT</title>
		<polygon class="chdT" points="660,16 660,16 660,1 686,31 660,61 660,46 660,46" fill="rgb(252,208,195)" fill-opacity="1.0" stroke="rgb(100,83,77)" stroke-width="1" />
		<g>
			<title>PF00106</title>
			<polygon class="PF00106" points="660,18 672,18 679,26 679,36 672,44 660,44" stroke-linejoin="round" width="19" height="26" fill="rgb(182,219,73)" stroke="rgb(145,175,58)" stroke-width="1" opacity="0.75" />
		</g>
	</g>
	<g>
		<title>chdQII</title>
		<polygon class="chdQII" points="687,16 688,16 688,1 718,31 688,61 688,46 687,46" fill="rgb(202,246,251)" fill-opacity="1.0" stroke="rgb(80,98,100)" stroke-width="1" />
		<g>
			<title>PF10604</title>
			<rect class="PF10604" x="687" y="18" stroke-linejoin="round" width="14" height="26" fill="rgb(105,204,74)" stroke="rgb(84,163,59)" stroke-width="1" opacity="0.75" />
		</g>
		<g>
			<title>PF10604</title>
			<polygon class="PF10604" points="702,18 702,18 715,31 702,44 702,44" stroke-linejoin="round" width="15" height="26" fill="rgb(105,204,74)" stroke="rgb(84,163,59)" stroke-width="1" opacity="0.75" />
		</g>
	</g>
	<g>
		<title>chdOII</title>
		<polygon class="chdOII" points="719,16 731,16 731,1 761,31 731,61 731,46 719,46" fill="rgb(253,220,211)" fill-opacity="1.0" stroke="rgb(101,88,84)" stroke-width="1" />
		<g>
			<title>PF01494</title>
			<rect class="PF01494" x="719" y="18" stroke-linejoin="round" width="23" height="26" fill="rgb(182,175,59)" stroke="rgb(145,140,47)" stroke-width="1" opacity="0.75" />
		</g>
	</g>
	<g>
		<title>chdP</title>
		<polygon class="chdP" points="103,16 116,16 116,1 146,31 116,61 116,46 103,46" fill="rgb(249,188,250)" fill-opacity="1.0" stroke="rgb(99,75,100)" stroke-width="1" />
		<g>
			<title>PF00109</title>
			<rect class="PF00109" x="103" y="18" stroke-linejoin="round" width="24" height="26" fill="rgb(112,116,228)" stroke="rgb(89,92,182)" stroke-width="1" opacity="0.75" />
		</g>
		<g>
			<title>PF02801</title>
			<polygon class="PF02801" points="129,18 130,18 140,28 140,34 130,44 129,44" stroke-linejoin="round" width="11" height="26" fill="rgb(215,78,102)" stroke="rgb(172,62,81)" stroke-width="1" opacity="0.75" />
		</g>
	</g>
	<g>
		<title>chdK</title>
		<polygon class="chdK" points="146,16 157,16 157,1 187,31 157,61 157,46 146,46" fill="rgb(240,254,212)" fill-opacity="1.0" stroke="rgb(96,101,84)" stroke-width="1" />
		<g>
			<title>PF00109</title>
			<rect class="PF00109" x="147" y="18" stroke-linejoin="round" width="23" height="26" fill="rgb(112,116,228)" stroke="rgb(89,92,182)" stroke-width="1" opacity="0.75" />
		</g>
		<g>
			<title>PF02801</title>
			<polygon class="PF02801" points="172,19 183,30 183,32 172,43" stroke-linejoin="round" width="11" height="26" fill="rgb(215,78,102)" stroke="rgb(172,62,81)" stroke-width="1" opacity="0.75" />
		</g>
	</g>
	<g>
		<title>chdS</title>
		<polygon class="chdS" points="189,16 189,16 189,1 197,31 189,61 189,46 189,46" fill="rgb(217,252,210)" fill-opacity="1.0" stroke="rgb(86,100,84)" stroke-width="1" />
		<g>
			<title>PF00550</title>
			<polygon class="PF00550" points="189,18 191,18 194,31 191,44 189,44" stroke-linejoin="round" width="7" height="26" fill="rgb(103,191,88)" stroke="rgb(82,152,70)" stroke-width="1" opacity="0.75" />
		</g>
	</g>
	<g>
		<title>chdQI</title>
		<polygon class="chdQI" points="229,16 229,16 229,1 199,31 229,61 229,46 229,46" fill="rgb(180,252,239)" fill-opacity="1.0" stroke="rgb(72,100,95)" stroke-width="1" />
		<g>
			<title>PF10604</title>
			<polygon class="PF10604" points="214,18 214,18 228,18 228,44 214,44 214,43" stroke-linejoin="round" width="14" height="26" fill="rgb(105,204,74)" stroke="rgb(84,163,59)" stroke-width="1" opacity="0.75" />
		</g>
	</g>
	<g>
		<title>chdMII</title>
		<polygon class="chdMII" points="266,16 262,16 262,1 232,31 262,61 262,46 266,46" fill="rgb(176,252,196)" fill-opacity="1.0" stroke="rgb(70,100,78)" stroke-width="1" />
		<g>
			<title>PF00891</title>
			<polygon class="PF00891" points="234,31 247,18 255,18 255,44 247,44" stroke-linejoin="round" width="22" height="26" fill="rgb(50,51,190)" stroke="rgb(39,40,152)" stroke-width="1" opacity="0.75" />
		</g>
		<g>
			<title>PF16864</title>
			<rect class="PF16864" x="256" y="18" stroke-linejoin="round" width="8" height="26" fill="rgb(84,199,85)" stroke="rgb(67,159,68)" stroke-width="1" opacity="0.75" />
		</g>
	</g>
	<g>
		<title>chdGIV</title>
		<polygon class="chdGIV" points="272,16 282,16 282,1 312,31 282,61 282,46 272,46" fill="rgb(177,198,251)" fill-opacity="1.0" stroke="rgb(70,79,100)" stroke-width="1" />
		<g>
			<title>PF06722</title>
			<polygon class="PF06722" points="290,18 296,18 299,21 299,41 296,44 290,44" stroke-linejoin="round" width="9" height="26" fill="rgb(200,129,88)" stroke="rgb(160,103,70)" stroke-width="1" opacity="0.75" />
		</g>
	</g>
	<g>
		<title>chdTn</title>
		<polygon class="chdTn" points="320,16 340,16 340,1 370,31 340,61 340,46 320,46" fill="rgb(254,202,235)" fill-opacity="1.0" stroke="rgb(101,80,93)" stroke-width="1" />
		<g>
			<title>PF13006</title>
			<rect class="PF13006" x="321" y="18" stroke-linejoin="round" width="9" height="26" fill="rgb(148,213,91)" stroke="rgb(118,170,72)" stroke-width="1" opacity="0.75" />
		</g>
		<g>
			<title>PF01609</title>
			<polygon class="PF01609" points="333,18 354,18 357,21 357,41 354,44 333,44" stroke-linejoin="round" width="24" height="26" fill="rgb(229,102,99)" stroke="rgb(183,81,79)" stroke-width="1" opacity="0.75" />
		</g>
	</g>
	<g>
		<title>chdR</title>
		<polygon class="chdR" points="423,16 405,16 405,1 375,31 405,61 405,46 423,46" fill="rgb(250,206,200)" fill-opacity="1.0" stroke="rgb(100,82,80)" stroke-width="1" />
		<g>
			<title>PF07690</title>
			<polygon class="PF07690" points="381,27 390,18 420,18 420,44 390,44 381,34" stroke-linejoin="round" width="39" height="26" fill="rgb(193,224,74)" stroke="rgb(154,179,59)" stroke-width="1" opacity="0.75" />
		</g>
	</g>
	<g>
		<title>chdA</title>
		<polygon class="chdA" points="428,16 428,16 428,1 447,31 428,61 428,46 428,46" fill="rgb(211,252,213)" fill-opacity="1.0" stroke="rgb(84,100,85)" stroke-width="1" />
		<g>
			<title>PF00440</title>
			<rect class="PF00440" x="428" y="18" stroke-linejoin="round" width="4" height="26" fill="rgb(73,212,190)" stroke="rgb(58,169,152)" stroke-width="1" opacity="0.75" />
		</g>
		<g>
			<title>PF02909</title>
			<polygon class="PF02909" points="434,18 436,18 443,29 443,33 436,44 434,44" stroke-linejoin="round" width="9" height="26" fill="rgb(151,203,75)" stroke="rgb(120,162,60)" stroke-width="1" opacity="0.75" />
		</g>
	</g>
</svg>
