<svg version="1.1" baseProfile="full" xmlns="http://www.w3.org/2000/svg" width="371" height="62">
	<line x1="1" y1="31" x2="370" y2="31" style="stroke:rgb(50,50,50); stroke-width:3 "/>
	<g>
		<title>truA</title>
		<polygon class="truA" points="1,16 38,16 38,1 68,31 38,61 38,46 1,46" fill="rgb(250,240,198)" fill-opacity="1.0" stroke="rgb(100,96,79)" stroke-width="1" />
		<g>
			<title>PF00082</title>
			<rect class="PF00082" x="2" y="18" stroke-linejoin="round" width="25" height="26" fill="rgb(193,159,94)" stroke="rgb(154,127,75)" stroke-width="1" opacity="0.75" />
		</g>
	</g>
	<g>
		<title>truB</title>
		<polygon class="truB" points="76,16 76,16 76,1 83,31 76,61 76,46 76,46" fill="rgb(196,252,189)" fill-opacity="1.0" stroke="rgb(78,100,75)" stroke-width="1" />
	</g>
	<g>
		<title>truC</title>
		<polygon class="truC" points="89,16 89,16 89,1 95,31 89,61 89,46 89,46" fill="rgb(252,211,207)" fill-opacity="1.0" stroke="rgb(100,84,82)" stroke-width="1" />
	</g>
	<g>
		<title>truD</title>
		<polygon class="truD" points="99,16 147,16 147,1 177,31 147,61 147,46 99,46" fill="rgb(250,253,211)" fill-opacity="1.0" stroke="rgb(100,101,84)" stroke-width="1" />
		<g>
			<title>PF02624</title>
			<polygon class="PF02624" points="140,18 161,18 173,30 173,32 161,44 140,44" stroke-linejoin="round" width="33" height="26" fill="rgb(76,84,185)" stroke="rgb(60,67,148)" stroke-width="1" opacity="0.75" />
		</g>
	</g>
	<g>
		<title>truE1</title>
		<polygon class="truE1" points="182,16 182,16 182,1 188,31 182,61 182,46 182,46" fill="rgb(243,189,251)" fill-opacity="1.0" stroke="rgb(97,75,100)" stroke-width="1" />
	</g>
	<g>
		<title>truF1</title>
		<polygon class="truF1" points="199,16 199,16 199,1 229,31 199,61 199,46 199,46" fill="rgb(229,210,251)" fill-opacity="1.0" stroke="rgb(91,84,100)" stroke-width="1" />
	</g>
	<g>
		<title>truF2</title>
		<polygon class="truF2" points="232,16 233,16 233,1 263,31 233,61 233,46 232,46" fill="rgb(252,214,210)" fill-opacity="1.0" stroke="rgb(100,85,84)" stroke-width="1" />
	</g>
	<g>
		<title>truG</title>
		<polygon class="truG" points="269,16 339,16 339,1 369,31 339,61 339,46 269,46" fill="rgb(252,233,188)" fill-opacity="1.0" stroke="rgb(100,93,75)" stroke-width="1" />
		<g>
			<title>PF00082</title>
			<rect class="PF00082" x="292" y="18" stroke-linejoin="round" width="43" height="26" fill="rgb(193,159,94)" stroke="rgb(154,127,75)" stroke-width="1" opacity="0.75" />
		</g>
	</g>
</svg>
