<svg version="1.1" baseProfile="full" xmlns="http://www.w3.org/2000/svg" width="1842" height="62">
	<line x1="1" y1="31" x2="1841" y2="31" style="stroke:rgb(50,50,50); stroke-width:3 "/>
	<g>
		<title>ncyJ</title>
		<polygon class="ncyJ" points="1674,16 1674,16 1674,1 1677,31 1674,61 1674,46 1674,46" fill="rgb(252,180,228)" fill-opacity="1.0" stroke="rgb(100,72,91)" stroke-width="1" />
	</g>
	<g>
		<title>ncyK</title>
		<polygon class="ncyK" points="1686,16 1686,16 1686,1 1692,31 1686,61 1686,46 1686,46" fill="rgb(252,197,201)" fill-opacity="1.0" stroke="rgb(100,78,80)" stroke-width="1" />
	</g>
	<g>
		<title>ncyL</title>
		<polygon class="ncyL" points="1697,16 1697,16 1697,1 1693,31 1697,61 1697,46 1697,46" fill="rgb(179,175,250)" fill-opacity="1.0" stroke="rgb(71,69,100)" stroke-width="1" />
	</g>
	<g>
		<title>ncyM</title>
		<polygon class="ncyM" points="1753,16 1733,16 1733,1 1703,31 1733,61 1733,46 1753,46" fill="rgb(234,253,190)" fill-opacity="1.0" stroke="rgb(93,101,76)" stroke-width="1" />
		<g>
			<title>PF04820</title>
			<polygon class="PF04820" points="1709,27 1718,18 1743,18 1743,44 1718,44 1709,34" stroke-linejoin="round" width="34" height="26" fill="rgb(179,74,194)" stroke="rgb(143,59,155)" stroke-width="1" opacity="0.75" />
		</g>
		<g>
			<title>PF04820</title>
			<rect class="PF04820" x="1743" y="18" stroke-linejoin="round" width="9" height="26" fill="rgb(179,74,194)" stroke="rgb(143,59,155)" stroke-width="1" opacity="0.75" />
		</g>
	</g>
	<g>
		<title>ncyN</title>
		<polygon class="ncyN" points="1827,16 1785,16 1785,1 1755,31 1785,61 1785,46 1827,46" fill="rgb(206,250,201)" fill-opacity="1.0" stroke="rgb(82,100,80)" stroke-width="1" />
		<g>
			<title>PF00702</title>
			<polygon class="PF00702" points="1766,22 1770,18 1787,18 1787,44 1770,44 1766,39" stroke-linejoin="round" width="21" height="26" fill="rgb(68,220,102)" stroke="rgb(54,176,81)" stroke-width="1" opacity="0.75" />
		</g>
		<g>
			<title>PF00122</title>
			<rect class="PF00122" x="1788" y="18" stroke-linejoin="round" width="21" height="26" fill="rgb(149,204,70)" stroke="rgb(119,163,56)" stroke-width="1" opacity="0.75" />
		</g>
	</g>
	<g>
		<title>ncyA</title>
		<polygon class="ncyA" points="18,16 218,16 218,1 248,31 218,61 218,46 18,46" fill="rgb(246,201,250)" fill-opacity="1.0" stroke="rgb(98,80,100)" stroke-width="1" />
		<g>
			<title>PF00550</title>
			<rect class="PF00550" x="18" y="18" stroke-linejoin="round" width="5" height="26" fill="rgb(103,191,88)" stroke="rgb(82,152,70)" stroke-width="1" opacity="0.75" />
		</g>
		<g>
			<title>PF00109</title>
			<rect class="PF00109" x="25" y="18" stroke-linejoin="round" width="25" height="26" fill="rgb(112,116,228)" stroke="rgb(89,92,182)" stroke-width="1" opacity="0.75" />
		</g>
		<g>
			<title>PF02801</title>
			<rect class="PF02801" x="51" y="18" stroke-linejoin="round" width="11" height="26" fill="rgb(215,78,102)" stroke="rgb(172,62,81)" stroke-width="1" opacity="0.75" />
		</g>
		<g>
			<title>PF16197</title>
			<rect class="PF16197" x="63" y="18" stroke-linejoin="round" width="7" height="26" fill="rgb(68,179,89)" stroke="rgb(54,143,71)" stroke-width="1" opacity="0.75" />
		</g>
		<g>
			<title>PF00698</title>
			<rect class="PF00698" x="70" y="18" stroke-linejoin="round" width="31" height="26" fill="rgb(59,176,209)" stroke="rgb(47,140,167)" stroke-width="1" opacity="0.75" />
		</g>
		<g>
			<title>PF00698</title>
			<rect class="PF00698" x="112" y="18" stroke-linejoin="round" width="31" height="26" fill="rgb(59,176,209)" stroke="rgb(47,140,167)" stroke-width="1" opacity="0.75" />
		</g>
		<g>
			<title>PF14765</title>
			<rect class="PF14765" x="148" y="18" stroke-linejoin="round" width="14" height="26" fill="rgb(173,56,182)" stroke="rgb(138,44,145)" stroke-width="1" opacity="0.75" />
		</g>
		<g>
			<title>PF14765</title>
			<rect class="PF14765" x="170" y="18" stroke-linejoin="round" width="15" height="26" fill="rgb(173,56,182)" stroke="rgb(138,44,145)" stroke-width="1" opacity="0.75" />
		</g>
		<g>
			<title>PF08659</title>
			<rect class="PF08659" x="209" y="18" stroke-linejoin="round" width="17" height="26" fill="rgb(66,209,188)" stroke="rgb(52,167,150)" stroke-width="1" opacity="0.75" />
		</g>
		<g>
			<title>PF00550</title>
			<polygon class="PF00550" points="237,23 243,29 243,33 237,39" stroke-linejoin="round" width="6" height="26" fill="rgb(103,191,88)" stroke="rgb(82,152,70)" stroke-width="1" opacity="0.75" />
		</g>
	</g>
	<g>
		<title>ncyB</title>
		<polygon class="ncyB" points="248,16 609,16 609,1 639,31 609,61 609,46 248,46" fill="rgb(186,213,254)" fill-opacity="1.0" stroke="rgb(74,85,101)" stroke-width="1" />
		<g>
			<title>PF00109</title>
			<rect class="PF00109" x="251" y="18" stroke-linejoin="round" width="24" height="26" fill="rgb(112,116,228)" stroke="rgb(89,92,182)" stroke-width="1" opacity="0.75" />
		</g>
		<g>
			<title>PF02801</title>
			<rect class="PF02801" x="277" y="18" stroke-linejoin="round" width="11" height="26" fill="rgb(215,78,102)" stroke="rgb(172,62,81)" stroke-width="1" opacity="0.75" />
		</g>
		<g>
			<title>PF16197</title>
			<rect class="PF16197" x="289" y="18" stroke-linejoin="round" width="9" height="26" fill="rgb(68,179,89)" stroke="rgb(54,143,71)" stroke-width="1" opacity="0.75" />
		</g>
		<g>
			<title>PF00698</title>
			<rect class="PF00698" x="318" y="18" stroke-linejoin="round" width="30" height="26" fill="rgb(59,176,209)" stroke="rgb(47,140,167)" stroke-width="1" opacity="0.75" />
		</g>
		<g>
			<title>PF14765</title>
			<rect class="PF14765" x="354" y="18" stroke-linejoin="round" width="27" height="26" fill="rgb(173,56,182)" stroke="rgb(138,44,145)" stroke-width="1" opacity="0.75" />
		</g>
		<g>
			<title>PF08659</title>
			<rect class="PF08659" x="416" y="18" stroke-linejoin="round" width="17" height="26" fill="rgb(66,209,188)" stroke="rgb(52,167,150)" stroke-width="1" opacity="0.75" />
		</g>
		<g>
			<title>PF00550</title>
			<rect class="PF00550" x="445" y="18" stroke-linejoin="round" width="6" height="26" fill="rgb(103,191,88)" stroke="rgb(82,152,70)" stroke-width="1" opacity="0.75" />
		</g>
		<g>
			<title>PF00109</title>
			<rect class="PF00109" x="455" y="18" stroke-linejoin="round" width="24" height="26" fill="rgb(112,116,228)" stroke="rgb(89,92,182)" stroke-width="1" opacity="0.75" />
		</g>
		<g>
			<title>PF02801</title>
			<rect class="PF02801" x="480" y="18" stroke-linejoin="round" width="11" height="26" fill="rgb(215,78,102)" stroke="rgb(172,62,81)" stroke-width="1" opacity="0.75" />
		</g>
		<g>
			<title>PF16197</title>
			<rect class="PF16197" x="492" y="18" stroke-linejoin="round" width="11" height="26" fill="rgb(68,179,89)" stroke="rgb(54,143,71)" stroke-width="1" opacity="0.75" />
		</g>
		<g>
			<title>PF00698</title>
			<rect class="PF00698" x="507" y="18" stroke-linejoin="round" width="31" height="26" fill="rgb(59,176,209)" stroke="rgb(47,140,167)" stroke-width="1" opacity="0.75" />
		</g>
		<g>
			<title>PF14765</title>
			<rect class="PF14765" x="543" y="18" stroke-linejoin="round" width="28" height="26" fill="rgb(173,56,182)" stroke="rgb(138,44,145)" stroke-width="1" opacity="0.75" />
		</g>
		<g>
			<title>PF08659</title>
			<rect class="PF08659" x="599" y="18" stroke-linejoin="round" width="17" height="26" fill="rgb(66,209,188)" stroke="rgb(52,167,150)" stroke-width="1" opacity="0.75" />
		</g>
		<g>
			<title>PF00550</title>
			<polygon class="PF00550" points="627,22 633,28 633,34 627,40" stroke-linejoin="round" width="6" height="26" fill="rgb(103,191,88)" stroke="rgb(82,152,70)" stroke-width="1" opacity="0.75" />
		</g>
	</g>
	<g>
		<title>ncyC</title>
		<polygon class="ncyC" points="639,16 799,16 799,1 829,31 799,61 799,46 639,46" fill="rgb(210,196,254)" fill-opacity="1.0" stroke="rgb(84,78,101)" stroke-width="1" />
		<g>
			<title>PF00109</title>
			<rect class="PF00109" x="642" y="18" stroke-linejoin="round" width="24" height="26" fill="rgb(112,116,228)" stroke="rgb(89,92,182)" stroke-width="1" opacity="0.75" />
		</g>
		<g>
			<title>PF02801</title>
			<rect class="PF02801" x="667" y="18" stroke-linejoin="round" width="11" height="26" fill="rgb(215,78,102)" stroke="rgb(172,62,81)" stroke-width="1" opacity="0.75" />
		</g>
		<g>
			<title>PF16197</title>
			<rect class="PF16197" x="679" y="18" stroke-linejoin="round" width="5" height="26" fill="rgb(68,179,89)" stroke="rgb(54,143,71)" stroke-width="1" opacity="0.75" />
		</g>
		<g>
			<title>PF00698</title>
			<rect class="PF00698" x="700" y="18" stroke-linejoin="round" width="30" height="26" fill="rgb(59,176,209)" stroke="rgb(47,140,167)" stroke-width="1" opacity="0.75" />
		</g>
		<g>
			<title>PF13489</title>
			<rect class="PF13489" x="743" y="18" stroke-linejoin="round" width="19" height="26" fill="rgb(188,189,66)" stroke="rgb(150,151,52)" stroke-width="1" opacity="0.75" />
		</g>
		<g>
			<title>PF08659</title>
			<rect class="PF08659" x="791" y="18" stroke-linejoin="round" width="17" height="26" fill="rgb(66,209,188)" stroke="rgb(52,167,150)" stroke-width="1" opacity="0.75" />
		</g>
		<g>
			<title>PF00550</title>
			<polygon class="PF00550" points="819,24 825,30 825,32 819,38" stroke-linejoin="round" width="6" height="26" fill="rgb(103,191,88)" stroke="rgb(82,152,70)" stroke-width="1" opacity="0.75" />
		</g>
	</g>
	<g>
		<title>ncyD</title>
		<polygon class="ncyD" points="829,16 987,16 987,1 1017,31 987,61 987,46 829,46" fill="rgb(249,239,190)" fill-opacity="1.0" stroke="rgb(99,95,76)" stroke-width="1" />
		<g>
			<title>PF00109</title>
			<rect class="PF00109" x="832" y="18" stroke-linejoin="round" width="24" height="26" fill="rgb(112,116,228)" stroke="rgb(89,92,182)" stroke-width="1" opacity="0.75" />
		</g>
		<g>
			<title>PF02801</title>
			<rect class="PF02801" x="857" y="18" stroke-linejoin="round" width="11" height="26" fill="rgb(215,78,102)" stroke="rgb(172,62,81)" stroke-width="1" opacity="0.75" />
		</g>
		<g>
			<title>PF16197</title>
			<rect class="PF16197" x="869" y="18" stroke-linejoin="round" width="8" height="26" fill="rgb(68,179,89)" stroke="rgb(54,143,71)" stroke-width="1" opacity="0.75" />
		</g>
		<g>
			<title>PF00698</title>
			<rect class="PF00698" x="891" y="18" stroke-linejoin="round" width="31" height="26" fill="rgb(59,176,209)" stroke="rgb(47,140,167)" stroke-width="1" opacity="0.75" />
		</g>
		<g>
			<title>PF14765</title>
			<rect class="PF14765" x="927" y="18" stroke-linejoin="round" width="27" height="26" fill="rgb(173,56,182)" stroke="rgb(138,44,145)" stroke-width="1" opacity="0.75" />
		</g>
		<g>
			<title>PF08659</title>
			<rect class="PF08659" x="980" y="18" stroke-linejoin="round" width="17" height="26" fill="rgb(66,209,188)" stroke="rgb(52,167,150)" stroke-width="1" opacity="0.75" />
		</g>
		<g>
			<title>PF00550</title>
			<polygon class="PF00550" points="1008,25 1014,31 1014,31 1008,37" stroke-linejoin="round" width="6" height="26" fill="rgb(103,191,88)" stroke="rgb(82,152,70)" stroke-width="1" opacity="0.75" />
		</g>
	</g>
	<g>
		<title>ncyE</title>
		<polygon class="ncyE" points="1017,16 1141,16 1141,1 1171,31 1141,61 1141,46 1017,46" fill="rgb(178,250,211)" fill-opacity="1.0" stroke="rgb(71,100,84)" stroke-width="1" />
		<g>
			<title>PF00668</title>
			<rect class="PF00668" x="1022" y="18" stroke-linejoin="round" width="45" height="26" fill="rgb(224,184,98)" stroke="rgb(179,147,78)" stroke-width="1" opacity="0.75" />
		</g>
		<g>
			<title>PF00501</title>
			<rect class="PF00501" x="1070" y="18" stroke-linejoin="round" width="39" height="26" fill="rgb(60,217,223)" stroke="rgb(48,173,178)" stroke-width="1" opacity="0.75" />
		</g>
		<g>
			<title>PF08242</title>
			<rect class="PF08242" x="1123" y="18" stroke-linejoin="round" width="9" height="26" fill="rgb(187,59,115)" stroke="rgb(149,47,92)" stroke-width="1" opacity="0.75" />
		</g>
		<g>
			<title>PF00550</title>
			<polygon class="PF00550" points="1162,25 1168,31 1168,31 1162,37" stroke-linejoin="round" width="6" height="26" fill="rgb(103,191,88)" stroke="rgb(82,152,70)" stroke-width="1" opacity="0.75" />
		</g>
	</g>
	<g>
		<title>ncyF</title>
		<polygon class="ncyF" points="1173,16 1489,16 1489,1 1519,31 1489,61 1489,46 1173,46" fill="rgb(227,249,175)" fill-opacity="1.0" stroke="rgb(90,99,70)" stroke-width="1" />
		<g>
			<title>PF00668</title>
			<rect class="PF00668" x="1180" y="18" stroke-linejoin="round" width="44" height="26" fill="rgb(224,184,98)" stroke="rgb(179,147,78)" stroke-width="1" opacity="0.75" />
		</g>
		<g>
			<title>PF00501</title>
			<rect class="PF00501" x="1226" y="18" stroke-linejoin="round" width="39" height="26" fill="rgb(60,217,223)" stroke="rgb(48,173,178)" stroke-width="1" opacity="0.75" />
		</g>
		<g>
			<title>PF13193</title>
			<rect class="PF13193" x="1266" y="18" stroke-linejoin="round" width="7" height="26" fill="rgb(182,50,118)" stroke="rgb(145,39,94)" stroke-width="1" opacity="0.75" />
		</g>
		<g>
			<title>PF00550</title>
			<rect class="PF00550" x="1277" y="18" stroke-linejoin="round" width="6" height="26" fill="rgb(103,191,88)" stroke="rgb(82,152,70)" stroke-width="1" opacity="0.75" />
		</g>
		<g>
			<title>PF00668</title>
			<rect class="PF00668" x="1284" y="18" stroke-linejoin="round" width="45" height="26" fill="rgb(224,184,98)" stroke="rgb(179,147,78)" stroke-width="1" opacity="0.75" />
		</g>
		<g>
			<title>PF00668</title>
			<rect class="PF00668" x="1332" y="18" stroke-linejoin="round" width="44" height="26" fill="rgb(224,184,98)" stroke="rgb(179,147,78)" stroke-width="1" opacity="0.75" />
		</g>
		<g>
			<title>PF00501</title>
			<rect class="PF00501" x="1378" y="18" stroke-linejoin="round" width="38" height="26" fill="rgb(60,217,223)" stroke="rgb(48,173,178)" stroke-width="1" opacity="0.75" />
		</g>
		<g>
			<title>PF13193</title>
			<rect class="PF13193" x="1417" y="18" stroke-linejoin="round" width="7" height="26" fill="rgb(182,50,118)" stroke="rgb(145,39,94)" stroke-width="1" opacity="0.75" />
		</g>
		<g>
			<title>PF00550</title>
			<rect class="PF00550" x="1428" y="18" stroke-linejoin="round" width="6" height="26" fill="rgb(103,191,88)" stroke="rgb(82,152,70)" stroke-width="1" opacity="0.75" />
		</g>
		<g>
			<title>PF00975</title>
			<rect class="PF00975" x="1436" y="18" stroke-linejoin="round" width="25" height="26" fill="rgb(207,80,138)" stroke="rgb(165,63,110)" stroke-width="1" opacity="0.75" />
		</g>
		<g>
			<title>PF00391</title>
			<polygon class="PF00391" points="1510,25 1516,31 1510,37" stroke-linejoin="round" width="7" height="26" fill="rgb(206,59,219)" stroke="rgb(164,47,175)" stroke-width="1" opacity="0.75" />
		</g>
	</g>
	<g>
		<title>ncyG</title>
		<polygon class="ncyG" points="1569,16 1550,16 1550,1 1520,31 1550,61 1550,46 1569,46" fill="rgb(180,252,214)" fill-opacity="1.0" stroke="rgb(72,100,85)" stroke-width="1" />
		<g>
			<title>PF00078</title>
			<polygon class="PF00078" points="1533,20 1535,18 1556,18 1556,44 1535,44 1533,41" stroke-linejoin="round" width="23" height="26" fill="rgb(85,219,135)" stroke="rgb(68,175,108)" stroke-width="1" opacity="0.75" />
		</g>
	</g>
	<g>
		<title>ncyH</title>
		<polygon class="ncyH" points="1583,16 1593,16 1593,1 1623,31 1593,61 1593,46 1583,46" fill="rgb(186,245,253)" fill-opacity="1.0" stroke="rgb(74,97,101)" stroke-width="1" />
		<g>
			<title>PF00067</title>
			<polygon class="PF00067" points="1602,18 1607,18 1620,31 1620,31 1607,44 1602,44" stroke-linejoin="round" width="18" height="26" fill="rgb(85,216,107)" stroke="rgb(68,172,85)" stroke-width="1" opacity="0.75" />
		</g>
	</g>
	<g>
		<title>ncyI</title>
		<polygon class="ncyI" points="1633,16 1633,16 1633,1 1662,31 1633,61 1633,46 1633,46" fill="rgb(215,194,252)" fill-opacity="1.0" stroke="rgb(85,77,100)" stroke-width="1" />
		<g>
			<title>PF01326</title>
			<rect class="PF01326" x="1634" y="18" stroke-linejoin="round" width="3" height="26" fill="rgb(112,180,78)" stroke="rgb(89,144,62)" stroke-width="1" opacity="0.75" />
		</g>
		<g>
			<title>PF01326</title>
			<polygon class="PF01326" points="1638,18 1646,18 1659,31 1646,44 1638,44" stroke-linejoin="round" width="23" height="26" fill="rgb(112,180,78)" stroke="rgb(89,144,62)" stroke-width="1" opacity="0.75" />
		</g>
	</g>
</svg>
