<svg version="1.1" baseProfile="full" xmlns="http://www.w3.org/2000/svg" width="1230" height="62">
	<line x1="1" y1="31" x2="1229" y2="31" style="stroke:rgb(50,50,50); stroke-width:3 "/>
	<g>
		<title>easE</title>
		<polygon class="easE" points="946,16 983,16 983,1 1013,31 983,61 983,46 946,46" fill="rgb(250,211,243)" fill-opacity="1.0" stroke="rgb(100,84,97)" stroke-width="1" />
		<g>
			<title>PF01565</title>
			<rect class="PF01565" x="958" y="18" stroke-linejoin="round" width="14" height="26" fill="rgb(226,88,136)" stroke="rgb(180,70,108)" stroke-width="1" opacity="0.75" />
		</g>
		<g>
			<title>PF08031</title>
			<polygon class="PF08031" points="996,18 997,18 1000,21 1000,41 997,44 996,44" stroke-linejoin="round" width="4" height="26" fill="rgb(210,73,83)" stroke="rgb(168,58,66)" stroke-width="1" opacity="0.75" />
		</g>
	</g>
	<g>
		<title>easF</title>
		<polygon class="easF" points="1025,16 1034,16 1034,1 1064,31 1034,61 1034,46 1025,46" fill="rgb(197,250,227)" fill-opacity="1.0" stroke="rgb(78,100,90)" stroke-width="1" />
		<g>
			<title>PF10017</title>
			<polygon class="PF10017" points="1045,18 1048,18 1058,28 1058,34 1048,44 1045,44" stroke-linejoin="round" width="13" height="26" fill="rgb(228,226,80)" stroke="rgb(182,180,64)" stroke-width="1" opacity="0.75" />
		</g>
	</g>
	<g>
		<title>easG</title>
		<polygon class="easG" points="1099,16 1095,16 1095,1 1065,31 1095,61 1095,46 1099,46" fill="rgb(180,195,251)" fill-opacity="1.0" stroke="rgb(72,77,100)" stroke-width="1" />
		<g>
			<title>PF13460</title>
			<polygon class="PF13460" points="1080,18 1080,18 1097,18 1097,44 1080,44 1080,43" stroke-linejoin="round" width="17" height="26" fill="rgb(188,201,78)" stroke="rgb(150,160,62)" stroke-width="1" opacity="0.75" />
		</g>
	</g>
	<g>
		<title>dmaW</title>
		<polygon class="dmaW" points="1132,16 1152,16 1152,1 1182,31 1152,61 1152,46 1132,46" fill="rgb(252,192,233)" fill-opacity="1.0" stroke="rgb(100,76,93)" stroke-width="1" />
		<g>
			<title>PF11991</title>
			<polygon class="PF11991" points="1134,18 1166,18 1170,22 1170,40 1166,44 1134,44" stroke-linejoin="round" width="36" height="26" fill="rgb(197,197,93)" stroke="rgb(157,157,74)" stroke-width="1" opacity="0.75" />
		</g>
	</g>
	<g>
		<polygon class="NoName" points="36,16 31,16 31,1 1,31 31,61 31,46 36,46" fill="rgb(255,255,255)" fill-opacity="1.0" stroke="rgb(50,50,50)" stroke-width="1" />
		<g>
			<title>PF00276</title>
			<polygon class="PF00276" points="14,20 16,18 21,18 21,44 16,44 14,41" stroke-linejoin="round" width="7" height="26" fill="rgb(65,158,189)" stroke="rgb(51,126,151)" stroke-width="1" opacity="0.75" />
		</g>
		<g>
			<title>PF03939</title>
			<rect class="PF03939" x="22" y="18" stroke-linejoin="round" width="5" height="26" fill="rgb(178,197,82)" stroke="rgb(142,157,65)" stroke-width="1" opacity="0.75" />
		</g>
	</g>
	<g>
		<polygon class="NoName" points="217,16 198,16 198,1 168,31 198,61 198,46 217,46" fill="rgb(255,255,255)" fill-opacity="1.0" stroke="rgb(50,50,50)" stroke-width="1" />
		<g>
			<title>PF06172</title>
			<polygon class="PF06172" points="182,19 183,18 195,18 195,44 183,44 182,42" stroke-linejoin="round" width="13" height="26" fill="rgb(142,208,95)" stroke="rgb(113,166,76)" stroke-width="1" opacity="0.75" />
		</g>
	</g>
	<g>
		<polygon class="NoName" points="244,16 251,16 251,1 281,31 251,61 251,46 244,46" fill="rgb(255,255,255)" fill-opacity="1.0" stroke="rgb(50,50,50)" stroke-width="1" />
	</g>
	<g>
		<polygon class="NoName" points="318,16 318,16 318,1 289,31 318,61 318,46 318,46" fill="rgb(255,255,255)" fill-opacity="1.0" stroke="rgb(50,50,50)" stroke-width="1" />
		<g>
			<title>PF06172</title>
			<polygon class="PF06172" points="297,25 304,18 310,18 310,44 304,44 297,36" stroke-linejoin="round" width="13" height="26" fill="rgb(142,208,95)" stroke="rgb(113,166,76)" stroke-width="1" opacity="0.75" />
		</g>
	</g>
	<g>
		<polygon class="NoName" points="515,16 453,16 453,1 423,31 453,61 453,46 515,46" fill="rgb(255,255,255)" fill-opacity="1.0" stroke="rgb(50,50,50)" stroke-width="1" />
		<g>
			<title>PF01636</title>
			<rect class="PF01636" x="461" y="18" stroke-linejoin="round" width="29" height="26" fill="rgb(106,220,228)" stroke="rgb(84,176,182)" stroke-width="1" opacity="0.75" />
		</g>
		<g>
			<title>PF00557</title>
			<rect class="PF00557" x="494" y="18" stroke-linejoin="round" width="19" height="26" fill="rgb(217,177,88)" stroke="rgb(173,141,70)" stroke-width="1" opacity="0.75" />
		</g>
	</g>
	<g>
		<title>easA</title>
		<polygon class="easA" points="656,16 664,16 664,1 694,31 664,61 664,46 656,46" fill="rgb(254,197,248)" fill-opacity="1.0" stroke="rgb(101,78,99)" stroke-width="1" />
		<g>
			<title>PF00724</title>
			<polygon class="PF00724" points="656,18 678,18 689,29 689,33 678,44 656,44" stroke-linejoin="round" width="33" height="26" fill="rgb(157,188,65)" stroke="rgb(125,150,52)" stroke-width="1" opacity="0.75" />
		</g>
	</g>
	<g>
		<title>cloA</title>
		<polygon class="cloA" points="801,16 756,16 756,1 726,31 756,61 756,46 801,46" fill="rgb(213,253,245)" fill-opacity="1.0" stroke="rgb(85,101,98)" stroke-width="1" />
		<g>
			<title>PF00067</title>
			<rect class="PF00067" x="753" y="18" stroke-linejoin="round" width="42" height="26" fill="rgb(85,216,107)" stroke="rgb(68,172,85)" stroke-width="1" opacity="0.75" />
		</g>
	</g>
	<g>
		<title>easC</title>
		<polygon class="easC" points="870,16 849,16 849,1 819,31 849,61 849,46 870,46" fill="rgb(254,200,241)" fill-opacity="1.0" stroke="rgb(101,80,96)" stroke-width="1" />
		<g>
			<title>PF00199</title>
			<polygon class="PF00199" points="831,21 834,18 869,18 869,44 834,44 831,40" stroke-linejoin="round" width="38" height="26" fill="rgb(191,89,74)" stroke="rgb(152,71,59)" stroke-width="1" opacity="0.75" />
		</g>
	</g>
	<g>
		<title>easD</title>
		<polygon class="easD" points="927,16 927,16 927,1 898,31 927,61 927,46 927,46" fill="rgb(230,250,208)" fill-opacity="1.0" stroke="rgb(92,100,83)" stroke-width="1" />
		<g>
			<title>PF13561</title>
			<polygon class="PF13561" points="901,30 913,18 925,18 925,44 913,44 901,31" stroke-linejoin="round" width="24" height="26" fill="rgb(73,205,127)" stroke="rgb(58,164,101)" stroke-width="1" opacity="0.75" />
		</g>
	</g>
</svg>
