<svg version="1.1" baseProfile="full" xmlns="http://www.w3.org/2000/svg" width="305" height="62">
	<line x1="1" y1="31" x2="304" y2="31" style="stroke:rgb(50,50,50); stroke-width:3 "/>
	<g>
		<polygon class="NoName" points="1,16 66,16 66,1 96,31 66,61 66,46 1,46" fill="rgb(255,255,255)" fill-opacity="1.0" stroke="rgb(50,50,50)" stroke-width="1" />
		<g>
			<title>PF00004</title>
			<rect class="PF00004" x="53" y="18" stroke-linejoin="round" width="12" height="26" fill="rgb(57,194,204)" stroke="rgb(45,155,163)" stroke-width="1" opacity="0.75" />
		</g>
	</g>
	<g>
		<polygon class="NoName" points="156,16 171,16 171,1 201,31 171,61 171,46 156,46" fill="rgb(255,255,255)" fill-opacity="1.0" stroke="rgb(50,50,50)" stroke-width="1" />
		<g>
			<title>PF00348</title>
			<polygon class="PF00348" points="166,18 185,18 190,23 190,39 185,44 166,44" stroke-linejoin="round" width="24" height="26" fill="rgb(61,206,65)" stroke="rgb(48,164,52)" stroke-width="1" opacity="0.75" />
		</g>
	</g>
	<g>
		<polygon class="NoName" points="260,16 273,16 273,1 303,31 273,61 273,46 260,46" fill="rgb(255,255,255)" fill-opacity="1.0" stroke="rgb(50,50,50)" stroke-width="1" />
		<g>
			<title>PF00368</title>
			<polygon class="PF00368" points="263,18 287,18 300,31 287,44 263,44" stroke-linejoin="round" width="38" height="26" fill="rgb(67,203,137)" stroke="rgb(53,162,109)" stroke-width="1" opacity="0.75" />
		</g>
	</g>
</svg>
