<svg version="1.1" baseProfile="full" xmlns="http://www.w3.org/2000/svg" width="1095" height="62">
	<line x1="1" y1="31" x2="1094" y2="31" style="stroke:rgb(50,50,50); stroke-width:3 "/>
	<g>
		<title>ravGT</title>
		<polygon class="ravGT" points="371,16 363,16 363,1 333,31 363,61 363,46 371,46" fill="rgb(187,236,251)" fill-opacity="1.0" stroke="rgb(74,94,100)" stroke-width="1" />
		<g>
			<title>PF06722</title>
			<polygon class="PF06722" points="344,22 348,18 353,18 353,44 348,44 344,39" stroke-linejoin="round" width="9" height="26" fill="rgb(200,129,88)" stroke="rgb(160,103,70)" stroke-width="1" opacity="0.75" />
		</g>
	</g>
	<g>
		<title>ravX6</title>
		<polygon class="ravX6" points="390,16 390,16 390,1 395,31 390,61 390,46 390,46" fill="rgb(221,252,214)" fill-opacity="1.0" stroke="rgb(88,100,85)" stroke-width="1" />
	</g>
	<g>
		<title>ravD</title>
		<polygon class="ravD" points="399,16 404,16 404,1 434,31 404,61 404,46 399,46" fill="rgb(229,251,190)" fill-opacity="1.0" stroke="rgb(91,100,76)" stroke-width="1" />
		<g>
			<title>PF00483</title>
			<polygon class="PF00483" points="399,18 418,18 422,22 422,40 418,44 399,44" stroke-linejoin="round" width="23" height="26" fill="rgb(198,101,87)" stroke="rgb(158,80,69)" stroke-width="1" opacity="0.75" />
		</g>
	</g>
	<g>
		<title>ravE</title>
		<polygon class="ravE" points="435,16 437,16 437,1 467,31 437,61 437,46 435,46" fill="rgb(216,189,252)" fill-opacity="1.0" stroke="rgb(86,75,100)" stroke-width="1" />
		<g>
			<title>PF16363</title>
			<polygon class="PF16363" points="435,18 451,18 464,31 451,44 435,44" stroke-linejoin="round" width="30" height="26" fill="rgb(162,221,65)" stroke="rgb(129,176,51)" stroke-width="1" opacity="0.75" />
		</g>
	</g>
	<g>
		<title>ravX5</title>
		<polygon class="ravX5" points="474,16 474,16 474,1 494,31 474,61 474,46 474,46" fill="rgb(253,195,234)" fill-opacity="1.0" stroke="rgb(101,78,93)" stroke-width="1" />
		<g>
			<title>PF00072</title>
			<polygon class="PF00072" points="474,18 482,18 485,22 485,40 482,44 474,44" stroke-linejoin="round" width="11" height="26" fill="rgb(100,107,203)" stroke="rgb(80,85,162)" stroke-width="1" opacity="0.75" />
		</g>
		<g>
			<title>PF00196</title>
			<polygon class="PF00196" points="487,25 491,31 487,37" stroke-linejoin="round" width="5" height="26" fill="rgb(219,94,82)" stroke="rgb(175,75,65)" stroke-width="1" opacity="0.75" />
		</g>
	</g>
	<g>
		<title>ravJ</title>
		<polygon class="ravJ" points="507,16 507,16 507,1 536,31 507,61 507,46 507,46" fill="rgb(253,189,213)" fill-opacity="1.0" stroke="rgb(101,75,85)" stroke-width="1" />
	</g>
	<g>
		<title>ravQ</title>
		<polygon class="ravQ" points="574,16 571,16 571,1 541,31 571,61 571,46 574,46" fill="rgb(214,205,253)" fill-opacity="1.0" stroke="rgb(85,82,101)" stroke-width="1" />
		<g>
			<title>PF00698</title>
			<polygon class="PF00698" points="543,31 556,18 572,18 572,44 556,44" stroke-linejoin="round" width="29" height="26" fill="rgb(59,176,209)" stroke="rgb(47,140,167)" stroke-width="1" opacity="0.75" />
		</g>
	</g>
	<g>
		<title>ravP</title>
		<polygon class="ravP" points="606,16 604,16 604,1 574,31 604,61 604,46 606,46" fill="rgb(254,194,228)" fill-opacity="1.0" stroke="rgb(101,77,91)" stroke-width="1" />
		<g>
			<title>PF00698</title>
			<polygon class="PF00698" points="576,31 589,18 605,18 605,44 589,44" stroke-linejoin="round" width="29" height="26" fill="rgb(59,176,209)" stroke="rgb(47,140,167)" stroke-width="1" opacity="0.75" />
		</g>
	</g>
	<g>
		<title>ravY</title>
		<polygon class="ravY" points="617,16 617,16 617,1 610,31 617,61 617,46 617,46" fill="rgb(250,209,178)" fill-opacity="1.0" stroke="rgb(100,83,71)" stroke-width="1" />
		<g>
			<title>PF13459</title>
			<polygon class="PF13459" points="612,31 615,18 615,43" stroke-linejoin="round" width="5" height="26" fill="rgb(138,59,179)" stroke="rgb(110,47,143)" stroke-width="1" opacity="0.75" />
		</g>
	</g>
	<g>
		<title>ravOIII</title>
		<polygon class="ravOIII" points="656,16 647,16 647,1 617,31 647,61 647,46 656,46" fill="rgb(254,236,208)" fill-opacity="1.0" stroke="rgb(101,94,83)" stroke-width="1" />
		<g>
			<title>PF00067</title>
			<polygon class="PF00067" points="620,30 632,18 635,18 635,44 632,44 620,31" stroke-linejoin="round" width="15" height="26" fill="rgb(85,216,107)" stroke="rgb(68,172,85)" stroke-width="1" opacity="0.75" />
		</g>
	</g>
	<g>
		<title>ravX8</title>
		<polygon class="ravX8" points="57,16 31,16 31,1 1,31 31,61 31,46 57,46" fill="rgb(208,251,199)" fill-opacity="1.0" stroke="rgb(83,100,79)" stroke-width="1" />
		<g>
			<title>PF04294</title>
			<polygon class="PF04294" points="8,26 16,18 20,18 20,44 16,44 8,35" stroke-linejoin="round" width="12" height="26" fill="rgb(52,93,183)" stroke="rgb(41,74,146)" stroke-width="1" opacity="0.75" />
		</g>
	</g>
	<g>
		<title>ravC</title>
		<polygon class="ravC" points="665,16 665,16 665,1 657,31 665,61 665,46 665,46" fill="rgb(250,209,234)" fill-opacity="1.0" stroke="rgb(100,83,93)" stroke-width="1" />
		<g>
			<title>PF00550</title>
			<polygon class="PF00550" points="659,31 662,18 664,18 664,44 662,44" stroke-linejoin="round" width="6" height="26" fill="rgb(103,191,88)" stroke="rgb(82,152,70)" stroke-width="1" opacity="0.75" />
		</g>
	</g>
	<g>
		<title>ravB</title>
		<polygon class="ravB" points="708,16 698,16 698,1 668,31 698,61 698,46 708,46" fill="rgb(185,253,223)" fill-opacity="1.0" stroke="rgb(74,101,89)" stroke-width="1" />
		<g>
			<title>PF02801</title>
			<polygon class="PF02801" points="672,29 683,18 683,43 672,32" stroke-linejoin="round" width="11" height="26" fill="rgb(215,78,102)" stroke="rgb(172,62,81)" stroke-width="1" opacity="0.75" />
		</g>
		<g>
			<title>PF00109</title>
			<rect class="PF00109" x="684" y="18" stroke-linejoin="round" width="24" height="26" fill="rgb(112,116,228)" stroke="rgb(89,92,182)" stroke-width="1" opacity="0.75" />
		</g>
	</g>
	<g>
		<title>ravA</title>
		<polygon class="ravA" points="750,16 738,16 738,1 708,31 738,61 738,46 750,46" fill="rgb(234,186,252)" fill-opacity="1.0" stroke="rgb(93,74,100)" stroke-width="1" />
		<g>
			<title>PF02801</title>
			<polygon class="PF02801" points="712,29 723,18 723,43 712,32" stroke-linejoin="round" width="11" height="26" fill="rgb(215,78,102)" stroke="rgb(172,62,81)" stroke-width="1" opacity="0.75" />
		</g>
		<g>
			<title>PF00109</title>
			<rect class="PF00109" x="725" y="18" stroke-linejoin="round" width="25" height="26" fill="rgb(112,116,228)" stroke="rgb(89,92,182)" stroke-width="1" opacity="0.75" />
		</g>
	</g>
	<g>
		<title>ravOIV</title>
		<polygon class="ravOIV" points="807,16 785,16 785,1 755,31 785,61 785,46 807,46" fill="rgb(253,179,196)" fill-opacity="1.0" stroke="rgb(101,71,78)" stroke-width="1" />
		<g>
			<title>PF01494</title>
			<rect class="PF01494" x="773" y="18" stroke-linejoin="round" width="33" height="26" fill="rgb(182,175,59)" stroke="rgb(145,140,47)" stroke-width="1" opacity="0.75" />
		</g>
	</g>
	<g>
		<title>ravK</title>
		<polygon class="ravK" points="840,16 839,16 839,1 809,31 839,61 839,46 840,46" fill="rgb(254,179,231)" fill-opacity="1.0" stroke="rgb(101,71,92)" stroke-width="1" />
		<g>
			<title>PF03364</title>
			<polygon class="PF03364" points="811,31 823,19 823,42" stroke-linejoin="round" width="12" height="26" fill="rgb(221,94,106)" stroke="rgb(176,75,84)" stroke-width="1" opacity="0.75" />
		</g>
		<g>
			<title>PF10604</title>
			<rect class="PF10604" x="825" y="18" stroke-linejoin="round" width="14" height="26" fill="rgb(105,204,74)" stroke="rgb(84,163,59)" stroke-width="1" opacity="0.75" />
		</g>
	</g>
	<g>
		<title>ravC1</title>
		<polygon class="ravC1" points="850,16 850,16 850,1 842,31 850,61 850,46 850,46" fill="rgb(249,211,191)" fill-opacity="1.0" stroke="rgb(99,84,76)" stroke-width="1" />
		<g>
			<title>PF00550</title>
			<polygon class="PF00550" points="844,31 847,18 849,18 849,44 847,44" stroke-linejoin="round" width="7" height="26" fill="rgb(103,191,88)" stroke="rgb(82,152,70)" stroke-width="1" opacity="0.75" />
		</g>
	</g>
	<g>
		<title>ravG</title>
		<polygon class="ravG" points="861,16 861,16 861,1 851,31 861,61 861,46 861,46" fill="rgb(227,204,250)" fill-opacity="1.0" stroke="rgb(90,81,100)" stroke-width="1" />
		<g>
			<title>PF04673</title>
			<polygon class="PF04673" points="853,31 857,18 861,18 861,44 857,44" stroke-linejoin="round" width="10" height="26" fill="rgb(49,187,78)" stroke="rgb(39,149,62)" stroke-width="1" opacity="0.75" />
		</g>
	</g>
	<g>
		<title>ravOI</title>
		<polygon class="ravOI" points="916,16 896,16 896,1 866,31 896,61 896,46 916,46" fill="rgb(237,250,188)" fill-opacity="1.0" stroke="rgb(94,100,75)" stroke-width="1" />
		<g>
			<title>PF01494</title>
			<rect class="PF01494" x="882" y="18" stroke-linejoin="round" width="33" height="26" fill="rgb(182,175,59)" stroke="rgb(145,140,47)" stroke-width="1" opacity="0.75" />
		</g>
	</g>
	<g>
		<title>ravH</title>
		<polygon class="ravH" points="935,16 935,16 935,1 916,31 935,61 935,46 935,46" fill="rgb(184,196,254)" fill-opacity="1.0" stroke="rgb(73,78,101)" stroke-width="1" />
		<g>
			<title>PF03358</title>
			<polygon class="PF03358" points="920,28 926,18 934,18 934,44 926,44 920,33" stroke-linejoin="round" width="14" height="26" fill="rgb(90,228,61)" stroke="rgb(72,182,48)" stroke-width="1" opacity="0.75" />
		</g>
	</g>
	<g>
		<title>ravV</title>
		<polygon class="ravV" points="947,16 947,16 947,1 937,31 947,61 947,46 947,46" fill="rgb(181,238,253)" fill-opacity="1.0" stroke="rgb(72,95,101)" stroke-width="1" />
		<g>
			<title>PF17074</title>
			<polygon class="PF17074" points="939,31 943,18 947,18 947,44 943,44" stroke-linejoin="round" width="10" height="26" fill="rgb(225,206,72)" stroke="rgb(180,164,57)" stroke-width="1" opacity="0.75" />
		</g>
	</g>
	<g>
		<title>ravW</title>
		<polygon class="ravW" points="85,16 85,16 85,1 61,31 85,61 85,46 85,46" fill="rgb(250,182,233)" fill-opacity="1.0" stroke="rgb(100,72,93)" stroke-width="1" />
		<g>
			<title>PF00583</title>
			<polygon class="PF00583" points="66,27 73,18 84,18 84,44 73,44 66,34" stroke-linejoin="round" width="18" height="26" fill="rgb(121,183,50)" stroke="rgb(96,146,39)" stroke-width="1" opacity="0.75" />
		</g>
	</g>
	<g>
		<title>ravX4</title>
		<polygon class="ravX4" points="957,16 957,16 957,1 973,31 957,61 957,46 957,46" fill="rgb(253,210,231)" fill-opacity="1.0" stroke="rgb(101,84,92)" stroke-width="1" />
		<g>
			<title>PF12802</title>
			<polygon class="PF12802" points="960,18 963,18 966,23 966,39 963,44 960,44" stroke-linejoin="round" width="6" height="26" fill="rgb(46,89,185)" stroke="rgb(36,71,148)" stroke-width="1" opacity="0.75" />
		</g>
	</g>
	<g>
		<title>ravF</title>
		<polygon class="ravF" points="1000,16 1000,16 1000,1 974,31 1000,61 1000,46 1000,46" fill="rgb(220,186,252)" fill-opacity="1.0" stroke="rgb(88,74,100)" stroke-width="1" />
		<g>
			<title>PF00106</title>
			<polygon class="PF00106" points="979,28 987,18 998,18 998,44 987,44 979,33" stroke-linejoin="round" width="19" height="26" fill="rgb(182,219,73)" stroke="rgb(145,175,58)" stroke-width="1" opacity="0.75" />
		</g>
	</g>
	<g>
		<title>ravX3</title>
		<polygon class="ravX3" points="1008,16 1008,16 1008,1 1014,31 1008,61 1008,46 1008,46" fill="rgb(252,193,247)" fill-opacity="1.0" stroke="rgb(100,77,98)" stroke-width="1" />
	</g>
	<g>
		<title>ravX2</title>
		<polygon class="ravX2" points="1047,16 1047,16 1047,1 1020,31 1047,61 1047,46 1047,46" fill="rgb(225,182,251)" fill-opacity="1.0" stroke="rgb(90,72,100)" stroke-width="1" />
	</g>
	<g>
		<title>ravX1</title>
		<polygon class="ravX1" points="1051,16 1053,16 1053,1 1083,31 1053,61 1053,46 1051,46" fill="rgb(254,178,245)" fill-opacity="1.0" stroke="rgb(101,71,98)" stroke-width="1" />
		<g>
			<title>PF05138</title>
			<polygon class="PF05138" points="1051,18 1067,18 1080,31 1080,31 1067,44 1051,44" stroke-linejoin="round" width="29" height="26" fill="rgb(192,90,143)" stroke="rgb(153,72,114)" stroke-width="1" opacity="0.75" />
		</g>
	</g>
	<g>
		<title>ravX</title>
		<polygon class="ravX" points="1083,16 1083,16 1083,1 1093,31 1083,61 1083,46 1083,46" fill="rgb(254,178,235)" fill-opacity="1.0" stroke="rgb(101,71,94)" stroke-width="1" />
		<g>
			<title>PF06243</title>
			<polygon class="PF06243" points="1084,18 1086,18 1090,31 1086,44 1084,44" stroke-linejoin="round" width="8" height="26" fill="rgb(158,180,53)" stroke="rgb(126,144,42)" stroke-width="1" opacity="0.75" />
		</g>
	</g>
	<g>
		<title>ravX7</title>
		<polygon class="ravX7" points="107,16 107,16 107,1 95,31 107,61 107,46 107,46" fill="rgb(209,231,254)" fill-opacity="1.0" stroke="rgb(83,92,101)" stroke-width="1" />
		<g>
			<title>PF13560</title>
			<polygon class="PF13560" points="97,31 102,18 103,18 103,44 102,44" stroke-linejoin="round" width="6" height="26" fill="rgb(207,145,90)" stroke="rgb(165,116,72)" stroke-width="1" opacity="0.75" />
		</g>
	</g>
	<g>
		<title>ravRM</title>
		<polygon class="ravRM" points="188,16 141,16 141,1 111,31 141,61 141,46 188,46" fill="rgb(224,250,183)" fill-opacity="1.0" stroke="rgb(89,100,73)" stroke-width="1" />
		<g>
			<title>PF13649</title>
			<polygon class="PF13649" points="120,24 126,18 129,18 129,44 126,44 120,37" stroke-linejoin="round" width="9" height="26" fill="rgb(227,135,74)" stroke="rgb(181,108,59)" stroke-width="1" opacity="0.75" />
		</g>
		<g>
			<title>PF08031</title>
			<rect class="PF08031" x="137" y="18" stroke-linejoin="round" width="5" height="26" fill="rgb(210,73,83)" stroke="rgb(168,58,66)" stroke-width="1" opacity="0.75" />
		</g>
		<g>
			<title>PF01565</title>
			<rect class="PF01565" x="171" y="18" stroke-linejoin="round" width="13" height="26" fill="rgb(226,88,136)" stroke="rgb(180,70,108)" stroke-width="1" opacity="0.75" />
		</g>
	</g>
	<g>
		<title>ravOII</title>
		<polygon class="ravOII" points="212,16 212,16 212,1 189,31 212,61 212,46 212,46" fill="rgb(253,244,196)" fill-opacity="1.0" stroke="rgb(101,97,78)" stroke-width="1" />
		<g>
			<title>PF03992</title>
			<polygon class="PF03992" points="192,30 199,21 199,40 192,31" stroke-linejoin="round" width="7" height="26" fill="rgb(193,84,127)" stroke="rgb(154,67,101)" stroke-width="1" opacity="0.75" />
		</g>
	</g>
	<g>
		<title>ravMT</title>
		<polygon class="ravMT" points="250,16 246,16 246,1 216,31 246,61 246,46 250,46" fill="rgb(202,253,219)" fill-opacity="1.0" stroke="rgb(80,101,87)" stroke-width="1" />
		<g>
			<title>PF00891</title>
			<polygon class="PF00891" points="218,31 231,18 239,18 239,44 231,44" stroke-linejoin="round" width="22" height="26" fill="rgb(50,51,190)" stroke="rgb(39,40,152)" stroke-width="1" opacity="0.75" />
		</g>
		<g>
			<title>PF16864</title>
			<rect class="PF16864" x="240" y="18" stroke-linejoin="round" width="8" height="26" fill="rgb(84,199,85)" stroke="rgb(67,159,68)" stroke-width="1" opacity="0.75" />
		</g>
	</g>
	<g>
		<title>ravAMT</title>
		<polygon class="ravAMT" points="291,16 284,16 284,1 254,31 284,61 284,46 291,46" fill="rgb(187,206,251)" fill-opacity="1.0" stroke="rgb(74,82,100)" stroke-width="1" />
		<g>
			<title>PF01041</title>
			<polygon class="PF01041" points="256,31 269,18 289,18 289,44 269,44" stroke-linejoin="round" width="35" height="26" fill="rgb(59,139,191)" stroke="rgb(47,111,152)" stroke-width="1" opacity="0.75" />
		</g>
	</g>
	<g>
		<title>ravIM</title>
		<polygon class="ravIM" points="306,16 306,16 306,1 291,31 306,61 306,46 306,46" fill="rgb(239,250,175)" fill-opacity="1.0" stroke="rgb(95,100,69)" stroke-width="1" />
		<g>
			<title>PF05523</title>
			<polygon class="PF05523" points="293,31 300,18 304,18 304,44 300,44" stroke-linejoin="round" width="13" height="26" fill="rgb(91,72,180)" stroke="rgb(72,57,144)" stroke-width="1" opacity="0.75" />
		</g>
	</g>
	<g>
		<title>ravNMT</title>
		<polygon class="ravNMT" points="333,16 333,16 333,1 307,31 333,61 333,46 333,46" fill="rgb(233,204,249)" fill-opacity="1.0" stroke="rgb(93,81,99)" stroke-width="1" />
		<g>
			<title>PF13489</title>
			<polygon class="PF13489" points="309,31 320,18 329,18 329,44 320,44" stroke-linejoin="round" width="20" height="26" fill="rgb(188,189,66)" stroke="rgb(150,151,52)" stroke-width="1" opacity="0.75" />
		</g>
	</g>
</svg>
