<svg version="1.1" baseProfile="full" xmlns="http://www.w3.org/2000/svg" width="656" height="124">
	<line x1="1" y1="31" x2="655" y2="31" style="stroke:rgb(50,50,50); stroke-width:3 "/>
	<line x1="1" y1="93" x2="536" y2="93" style="stroke:rgb(50,50,50); stroke-width:3 "/>
	<g>
		<title>snoa2</title>
		<polygon class="snoa2" points="358,16 369,16 369,1 399,31 369,61 369,46 358,46" fill="rgb(240,251,177)" fill-opacity="1.0" stroke="rgb(96,100,70)" stroke-width="1" />
		<g>
			<title>PF00109</title>
			<rect class="PF00109" x="358" y="18" stroke-linejoin="round" width="24" height="26" fill="rgb(112,116,228)" stroke="rgb(89,92,182)" stroke-width="1" opacity="0.75" />
		</g>
		<g>
			<title>PF02801</title>
			<polygon class="PF02801" points="383,18 383,18 394,29 394,33 383,44 383,44" stroke-linejoin="round" width="11" height="26" fill="rgb(215,78,102)" stroke="rgb(172,62,81)" stroke-width="1" opacity="0.75" />
		</g>
	</g>
	<g>
		<title>snoa3</title>
		<polygon class="snoa3" points="401,16 401,16 401,1 409,31 401,61 401,46 401,46" fill="rgb(236,199,253)" fill-opacity="1.0" stroke="rgb(94,79,101)" stroke-width="1" />
		<g>
			<title>PF00550</title>
			<polygon class="PF00550" points="401,18 403,18 406,31 403,44 401,44" stroke-linejoin="round" width="7" height="26" fill="rgb(103,191,88)" stroke="rgb(82,152,70)" stroke-width="1" opacity="0.75" />
		</g>
	</g>
	<g>
		<title>snogX</title>
		<polygon class="snogX" points="410,16 410,16 410,1 434,31 410,61 410,46 410,46" fill="rgb(252,184,236)" fill-opacity="1.0" stroke="rgb(100,73,94)" stroke-width="1" />
		<g>
			<title>PF13649</title>
			<polygon class="PF13649" points="414,18 421,18 423,21 423,41 421,44 414,44" stroke-linejoin="round" width="9" height="26" fill="rgb(227,135,74)" stroke="rgb(181,108,59)" stroke-width="1" opacity="0.75" />
		</g>
	</g>
	<g>
		<title>snogY</title>
		<polygon class="snogY" points="471,16 467,16 467,1 437,31 467,61 467,46 471,46" fill="rgb(206,252,232)" fill-opacity="1.0" stroke="rgb(82,100,92)" stroke-width="1" />
		<g>
			<title>PF13578</title>
			<polygon class="PF13578" points="445,25 452,18 457,18 457,44 452,44 445,36" stroke-linejoin="round" width="12" height="26" fill="rgb(106,221,159)" stroke="rgb(84,176,127)" stroke-width="1" opacity="0.75" />
		</g>
	</g>
	<g>
		<title>snogZ</title>
		<polygon class="snogZ" points="486,16 497,16 497,1 527,31 497,61 497,46 486,46" fill="rgb(254,192,199)" fill-opacity="1.0" stroke="rgb(101,76,79)" stroke-width="1" />
		<g>
			<title>PF06722</title>
			<polygon class="PF06722" points="505,18 511,18 515,22 515,40 511,44 505,44" stroke-linejoin="round" width="10" height="26" fill="rgb(200,129,88)" stroke="rgb(160,103,70)" stroke-width="1" opacity="0.75" />
		</g>
	</g>
	<g>
		<title>snorO</title>
		<polygon class="snorO" points="606,16 558,16 558,1 528,31 558,61 558,46 606,46" fill="rgb(213,178,251)" fill-opacity="1.0" stroke="rgb(85,71,100)" stroke-width="1" />
		<g>
			<title>PF00005</title>
			<polygon class="PF00005" points="537,24 543,18 557,18 557,44 543,44 537,37" stroke-linejoin="round" width="20" height="26" fill="rgb(129,201,63)" stroke="rgb(103,160,50)" stroke-width="1" opacity="0.75" />
		</g>
	</g>
	<g>
		<title>snoP</title>
		<polygon class="snoP" points="614,16 619,16 619,1 649,31 619,61 619,46 614,46" fill="rgb(185,251,215)" fill-opacity="1.0" stroke="rgb(74,100,86)" stroke-width="1" />
		<g>
			<title>PF03099</title>
			<polygon class="PF03099" points="628,18 633,18 640,25 640,37 633,44 628,44" stroke-linejoin="round" width="12" height="26" fill="rgb(228,147,105)" stroke="rgb(182,117,84)" stroke-width="1" opacity="0.75" />
		</g>
	</g>
	<g>
		<title>snoN</title>
		<polygon class="snoN" points="20,78 20,78 20,63 1,93 20,123 20,108 20,108" fill="rgb(251,239,195)" fill-opacity="1.0" stroke="rgb(100,95,78)" stroke-width="1" />
		<g>
			<title>PF05721</title>
			<polygon class="PF05721" points="3,93 11,80 16,80 16,106 11,106" stroke-linejoin="round" width="15" height="26" fill="rgb(72,132,214)" stroke="rgb(57,105,171)" stroke-width="1" opacity="0.75" />
		</g>
	</g>
	<g>
		<title>snoaF</title>
		<polygon class="snoaF" points="50,78 50,78 50,63 22,93 50,123 50,108 50,108" fill="rgb(205,254,212)" fill-opacity="1.0" stroke="rgb(82,101,84)" stroke-width="1" />
		<g>
			<title>PF13561</title>
			<polygon class="PF13561" points="24,93 36,80 45,80 45,106 36,106" stroke-linejoin="round" width="23" height="26" fill="rgb(73,205,127)" stroke="rgb(58,164,101)" stroke-width="1" opacity="0.75" />
		</g>
	</g>
	<g>
		<title>snoO</title>
		<polygon class="snoO" points="68,78 68,78 68,63 53,93 68,123 68,108 68,108" fill="rgb(231,209,252)" fill-opacity="1.0" stroke="rgb(92,83,100)" stroke-width="1" />
		<g>
			<title>PF13577</title>
			<polygon class="PF13577" points="55,93 62,80 65,80 65,106 62,106" stroke-linejoin="round" width="12" height="26" fill="rgb(68,223,209)" stroke="rgb(54,178,167)" stroke-width="1" opacity="0.75" />
		</g>
	</g>
	<g>
		<title>snogH</title>
		<polygon class="snogH" points="54,16 36,16 36,1 6,31 36,61 36,46 54,46" fill="rgb(254,207,223)" fill-opacity="1.0" stroke="rgb(101,82,89)" stroke-width="1" />
		<g>
			<title>PF03559</title>
			<polygon class="PF03559" points="8,31 21,18 27,18 27,44 21,44" stroke-linejoin="round" width="20" height="26" fill="rgb(74,201,66)" stroke="rgb(59,160,52)" stroke-width="1" opacity="0.75" />
		</g>
		<g>
			<title>PF03559</title>
			<rect class="PF03559" x="30" y="18" stroke-linejoin="round" width="20" height="26" fill="rgb(74,201,66)" stroke="rgb(59,160,52)" stroke-width="1" opacity="0.75" />
		</g>
	</g>
	<g>
		<title>snoL</title>
		<polygon class="snoL" points="76,78 76,78 76,63 90,93 76,123 76,108 76,108" fill="rgb(215,252,254)" fill-opacity="1.0" stroke="rgb(86,100,101)" stroke-width="1" />
		<g>
			<title>PF07366</title>
			<polygon class="PF07366" points="76,80 81,80 87,93 81,106 76,106" stroke-linejoin="round" width="12" height="26" fill="rgb(206,89,111)" stroke="rgb(164,71,88)" stroke-width="1" opacity="0.75" />
		</g>
	</g>
	<g>
		<title>snogE</title>
		<polygon class="snogE" points="135,78 122,78 122,63 92,93 122,123 122,108 135,108" fill="rgb(251,183,230)" fill-opacity="1.0" stroke="rgb(100,73,92)" stroke-width="1" />
		<g>
			<title>PF06722</title>
			<polygon class="PF06722" points="104,83 107,80 113,80 113,106 107,106 104,102" stroke-linejoin="round" width="9" height="26" fill="rgb(200,129,88)" stroke="rgb(160,103,70)" stroke-width="1" opacity="0.75" />
		</g>
	</g>
	<g>
		<title>snoaW</title>
		<polygon class="snoaW" points="164,78 164,78 164,63 137,93 164,123 164,108 164,108" fill="rgb(232,250,189)" fill-opacity="1.0" stroke="rgb(92,100,75)" stroke-width="1" />
		<g>
			<title>PF13460</title>
			<polygon class="PF13460" points="147,84 151,80 163,80 163,106 151,106 147,101" stroke-linejoin="round" width="16" height="26" fill="rgb(188,201,78)" stroke="rgb(150,160,62)" stroke-width="1" opacity="0.75" />
		</g>
	</g>
	<g>
		<title>snogD</title>
		<polygon class="snogD" points="169,78 178,78 178,63 208,93 178,123 178,108 169,108" fill="rgb(245,253,189)" fill-opacity="1.0" stroke="rgb(98,101,75)" stroke-width="1" />
		<g>
			<title>PF06722</title>
			<polygon class="PF06722" points="187,80 192,80 196,84 196,102 192,106 187,106" stroke-linejoin="round" width="9" height="26" fill="rgb(200,129,88)" stroke="rgb(160,103,70)" stroke-width="1" opacity="0.75" />
		</g>
	</g>
	<g>
		<title>snoK</title>
		<polygon class="snoK" points="236,78 236,78 236,63 210,93 236,123 236,108 236,108" fill="rgb(192,254,178)" fill-opacity="1.0" stroke="rgb(76,101,71)" stroke-width="1" />
		<g>
			<title>PF05721</title>
			<polygon class="PF05721" points="214,91 223,80 234,80 234,106 223,106 214,94" stroke-linejoin="round" width="20" height="26" fill="rgb(72,132,214)" stroke="rgb(57,105,171)" stroke-width="1" opacity="0.75" />
		</g>
	</g>
	<g>
		<title>snoaL</title>
		<polygon class="snoaL" points="251,78 251,78 251,63 238,93 251,123 251,108 251,108" fill="rgb(180,209,254)" fill-opacity="1.0" stroke="rgb(72,83,101)" stroke-width="1" />
		<g>
			<title>PF07366</title>
			<polygon class="PF07366" points="240,93 246,80 251,80 251,106 246,106" stroke-linejoin="round" width="12" height="26" fill="rgb(206,89,111)" stroke="rgb(164,71,88)" stroke-width="1" opacity="0.75" />
		</g>
	</g>
	<g>
		<title>snogK</title>
		<polygon class="snogK" points="259,78 264,78 264,63 294,93 264,123 264,108 259,108" fill="rgb(193,212,253)" fill-opacity="1.0" stroke="rgb(77,84,101)" stroke-width="1" />
		<g>
			<title>PF16363</title>
			<polygon class="PF16363" points="260,80 278,80 290,92 290,94 278,106 260,106" stroke-linejoin="round" width="30" height="26" fill="rgb(162,221,65)" stroke="rgb(129,176,51)" stroke-width="1" opacity="0.75" />
		</g>
	</g>
	<g>
		<title>snogC</title>
		<polygon class="snogC" points="296,78 296,78 296,63 325,93 296,123 296,108 296,108" fill="rgb(199,233,253)" fill-opacity="1.0" stroke="rgb(79,93,101)" stroke-width="1" />
		<g>
			<title>PF04321</title>
			<polygon class="PF04321" points="296,80 309,80 322,93 309,106 296,106" stroke-linejoin="round" width="27" height="26" fill="rgb(196,203,60)" stroke="rgb(156,162,47)" stroke-width="1" opacity="0.75" />
		</g>
	</g>
	<g>
		<title>snoG</title>
		<polygon class="snoG" points="366,78 354,78 354,63 324,93 354,123 354,108 366,108" fill="rgb(191,205,250)" fill-opacity="1.0" stroke="rgb(76,82,100)" stroke-width="1" />
		<g>
			<title>PF08484</title>
			<polygon class="PF08484" points="326,93 339,80 340,80 340,106 339,106" stroke-linejoin="round" width="15" height="26" fill="rgb(229,72,107)" stroke="rgb(183,57,85)" stroke-width="1" opacity="0.75" />
		</g>
		<g>
			<title>PF13489</title>
			<rect class="PF13489" x="341" y="80" stroke-linejoin="round" width="16" height="26" fill="rgb(188,189,66)" stroke="rgb(150,151,52)" stroke-width="1" opacity="0.75" />
		</g>
		<g>
			<title>PF08421</title>
			<rect class="PF08421" x="358" y="80" stroke-linejoin="round" width="6" height="26" fill="rgb(209,96,160)" stroke="rgb(167,76,128)" stroke-width="1" opacity="0.75" />
		</g>
	</g>
	<g>
		<title>snogN</title>
		<polygon class="snogN" points="409,78 399,78 399,63 369,93 399,123 399,108 409,108" fill="rgb(184,245,252)" fill-opacity="1.0" stroke="rgb(73,98,100)" stroke-width="1" />
		<g>
			<title>PF00067</title>
			<polygon class="PF00067" points="375,89 382,82 382,103 375,96" stroke-linejoin="round" width="7" height="26" fill="rgb(85,216,107)" stroke="rgb(68,172,85)" stroke-width="1" opacity="0.75" />
		</g>
	</g>
	<g>
		<title>snogG</title>
		<polygon class="snogG" points="86,16 84,16 84,1 54,31 84,61 84,46 86,46" fill="rgb(253,235,204)" fill-opacity="1.0" stroke="rgb(101,94,81)" stroke-width="1" />
		<g>
			<title>PF01370</title>
			<polygon class="PF01370" points="63,24 69,18 85,18 85,44 69,44 63,37" stroke-linejoin="round" width="22" height="26" fill="rgb(98,102,214)" stroke="rgb(78,81,171)" stroke-width="1" opacity="0.75" />
		</g>
	</g>
	<g>
		<title>snoaM</title>
		<polygon class="snoaM" points="409,78 411,78 411,63 441,93 411,123 411,108 409,108" fill="rgb(182,252,225)" fill-opacity="1.0" stroke="rgb(72,100,90)" stroke-width="1" />
		<g>
			<title>PF04199</title>
			<polygon class="PF04199" points="415,80 425,80 433,88 433,98 425,106 415,106" stroke-linejoin="round" width="18" height="26" fill="rgb(140,47,181)" stroke="rgb(112,37,144)" stroke-width="1" opacity="0.75" />
		</g>
	</g>
	<g>
		<title>snogA</title>
		<polygon class="snogA" points="442,78 442,78 442,63 465,93 442,123 442,108 442,108" fill="rgb(191,223,252)" fill-opacity="1.0" stroke="rgb(76,89,100)" stroke-width="1" />
		<g>
			<title>PF13649</title>
			<polygon class="PF13649" points="446,80 452,80 455,84 455,102 452,106 446,106" stroke-linejoin="round" width="9" height="26" fill="rgb(227,135,74)" stroke="rgb(181,108,59)" stroke-width="1" opacity="0.75" />
		</g>
	</g>
	<g>
		<title>snogJ</title>
		<polygon class="snogJ" points="496,78 496,78 496,63 467,93 496,123 496,108 496,108" fill="rgb(202,195,253)" fill-opacity="1.0" stroke="rgb(80,78,101)" stroke-width="1" />
		<g>
			<title>PF00483</title>
			<polygon class="PF00483" points="472,90 482,80 495,80 495,106 482,106 472,95" stroke-linejoin="round" width="23" height="26" fill="rgb(198,101,87)" stroke="rgb(158,80,69)" stroke-width="1" opacity="0.75" />
		</g>
	</g>
	<g>
		<title>snogI</title>
		<polygon class="snogI" points="502,78 506,78 506,63 536,93 506,123 506,108 502,108" fill="rgb(206,250,207)" fill-opacity="1.0" stroke="rgb(82,100,82)" stroke-width="1" />
		<g>
			<title>PF01041</title>
			<polygon class="PF01041" points="503,80 520,80 533,93 520,106 503,106" stroke-linejoin="round" width="32" height="26" fill="rgb(59,139,191)" stroke="rgb(47,111,152)" stroke-width="1" opacity="0.75" />
		</g>
	</g>
	<g>
		<title>snogF</title>
		<polygon class="snogF" points="107,16 107,16 107,1 87,31 107,61 107,46 107,46" fill="rgb(229,213,253)" fill-opacity="1.0" stroke="rgb(91,85,101)" stroke-width="1" />
		<g>
			<title>PF00908</title>
			<polygon class="PF00908" points="89,31 98,18 106,18 106,44 98,44" stroke-linejoin="round" width="17" height="26" fill="rgb(184,89,121)" stroke="rgb(147,71,96)" stroke-width="1" opacity="0.75" />
		</g>
	</g>
	<g>
		<title>snoaE</title>
		<polygon class="snoaE" points="141,16 139,16 139,1 109,31 139,61 139,46 141,46" fill="rgb(208,193,250)" fill-opacity="1.0" stroke="rgb(83,77,100)" stroke-width="1" />
		<g>
			<title>PF10604</title>
			<polygon class="PF10604" points="111,31 124,18 124,43" stroke-linejoin="round" width="15" height="26" fill="rgb(105,204,74)" stroke="rgb(84,163,59)" stroke-width="1" opacity="0.75" />
		</g>
		<g>
			<title>PF10604</title>
			<rect class="PF10604" x="126" y="18" stroke-linejoin="round" width="14" height="26" fill="rgb(105,204,74)" stroke="rgb(84,163,59)" stroke-width="1" opacity="0.75" />
		</g>
	</g>
	<g>
		<title>snoaD</title>
		<polygon class="snoaD" points="169,16 169,16 169,1 143,31 169,61 169,46 169,46" fill="rgb(253,177,249)" fill-opacity="1.0" stroke="rgb(101,70,99)" stroke-width="1" />
		<g>
			<title>PF00106</title>
			<polygon class="PF00106" points="148,28 156,18 167,18 167,44 156,44 148,33" stroke-linejoin="round" width="19" height="26" fill="rgb(182,219,73)" stroke="rgb(145,175,58)" stroke-width="1" opacity="0.75" />
		</g>
	</g>
	<g>
		<title>snoaC</title>
		<polygon class="snoaC" points="178,16 178,16 178,1 206,31 178,61 178,46 178,46" fill="rgb(251,199,202)" fill-opacity="1.0" stroke="rgb(100,79,80)" stroke-width="1" />
		<g>
			<title>PF13649</title>
			<rect class="PF13649" x="182" y="18" stroke-linejoin="round" width="9" height="26" fill="rgb(227,135,74)" stroke="rgb(181,108,59)" stroke-width="1" opacity="0.75" />
		</g>
	</g>
	<g>
		<title>_snoaB</title>
		<polygon class="_snoaB" points="219,16 219,16 219,1 208,31 219,61 219,46 219,46" fill="rgb(253,210,245)" fill-opacity="1.0" stroke="rgb(101,84,98)" stroke-width="1" />
		<g>
			<title>PF03992</title>
			<polygon class="PF03992" points="211,28 215,18 218,18 218,44 215,44 211,33" stroke-linejoin="round" width="7" height="26" fill="rgb(193,84,127)" stroke="rgb(154,67,101)" stroke-width="1" opacity="0.75" />
		</g>
	</g>
	<g>
		<title>snorA</title>
		<polygon class="snorA" points="289,16 253,16 253,1 223,31 253,61 253,46 289,46" fill="rgb(233,251,187)" fill-opacity="1.0" stroke="rgb(93,100,74)" stroke-width="1" />
		<g>
			<title>PF03704</title>
			<rect class="PF03704" x="262" y="18" stroke-linejoin="round" width="14" height="26" fill="rgb(217,89,196)" stroke="rgb(173,71,156)" stroke-width="1" opacity="0.75" />
		</g>
		<g>
			<title>PF00486</title>
			<rect class="PF00486" x="277" y="18" stroke-linejoin="round" width="7" height="26" fill="rgb(204,153,57)" stroke="rgb(163,122,45)" stroke-width="1" opacity="0.75" />
		</g>
	</g>
	<g>
		<title>snoa1</title>
		<polygon class="snoa1" points="315,16 328,16 328,1 358,31 328,61 328,46 315,46" fill="rgb(252,216,200)" fill-opacity="1.0" stroke="rgb(100,86,80)" stroke-width="1" />
		<g>
			<title>PF00109</title>
			<rect class="PF00109" x="315" y="18" stroke-linejoin="round" width="25" height="26" fill="rgb(112,116,228)" stroke="rgb(89,92,182)" stroke-width="1" opacity="0.75" />
		</g>
		<g>
			<title>PF02801</title>
			<polygon class="PF02801" points="341,18 342,18 352,28 352,34 342,44 341,44" stroke-linejoin="round" width="11" height="26" fill="rgb(215,78,102)" stroke="rgb(172,62,81)" stroke-width="1" opacity="0.75" />
		</g>
	</g>
</svg>
