<svg version="1.1" baseProfile="full" xmlns="http://www.w3.org/2000/svg" width="1220" height="62">
	<line x1="1" y1="31" x2="1219" y2="31" style="stroke:rgb(50,50,50); stroke-width:3 "/>
	<g>
		<title>qui11</title>
		<polygon class="qui11" points="854,16 855,16 855,1 885,31 855,61 855,46 854,46" fill="rgb(253,199,194)" fill-opacity="1.0" stroke="rgb(101,79,77)" stroke-width="1" />
		<g>
			<title>PF07992</title>
			<polygon class="PF07992" points="854,18 869,18 882,31 869,44 854,44" stroke-linejoin="round" width="29" height="26" fill="rgb(83,223,167)" stroke="rgb(66,178,133)" stroke-width="1" opacity="0.75" />
		</g>
	</g>
	<g>
		<title>qui12</title>
		<polygon class="qui12" points="945,16 929,16 929,1 899,31 929,61 929,46 945,46" fill="rgb(254,200,204)" fill-opacity="1.0" stroke="rgb(101,80,81)" stroke-width="1" />
		<g>
			<title>PF01494</title>
			<polygon class="PF01494" points="909,23 914,18 943,18 943,44 914,44 909,38" stroke-linejoin="round" width="34" height="26" fill="rgb(182,175,59)" stroke="rgb(145,140,47)" stroke-width="1" opacity="0.75" />
		</g>
	</g>
	<g>
		<title>qui13</title>
		<polygon class="qui13" points="983,16 977,16 977,1 947,31 977,61 977,46 983,46" fill="rgb(213,254,204)" fill-opacity="1.0" stroke="rgb(85,101,81)" stroke-width="1" />
		<g>
			<title>PF00180</title>
			<polygon class="PF00180" points="949,31 962,18 982,18 982,44 962,44" stroke-linejoin="round" width="33" height="26" fill="rgb(109,54,206)" stroke="rgb(87,43,164)" stroke-width="1" opacity="0.75" />
		</g>
	</g>
	<g>
		<title>qui14</title>
		<polygon class="qui14" points="1007,16 1007,16 1007,1 983,31 1007,61 1007,46 1007,46" fill="rgb(177,252,199)" fill-opacity="1.0" stroke="rgb(70,100,79)" stroke-width="1" />
		<g>
			<title>PF00975</title>
			<polygon class="PF00975" points="985,31 995,18 1005,18 1005,44 995,44" stroke-linejoin="round" width="22" height="26" fill="rgb(207,80,138)" stroke="rgb(165,63,110)" stroke-width="1" opacity="0.75" />
		</g>
	</g>
	<g>
		<title>qui15</title>
		<polygon class="qui15" points="1013,16 1023,16 1023,1 1053,31 1023,61 1023,46 1013,46" fill="rgb(250,235,204)" fill-opacity="1.0" stroke="rgb(100,93,81)" stroke-width="1" />
		<g>
			<title>PF00067</title>
			<polygon class="PF00067" points="1040,21 1050,31 1040,41" stroke-linejoin="round" width="11" height="26" fill="rgb(85,216,107)" stroke="rgb(68,172,85)" stroke-width="1" opacity="0.75" />
		</g>
	</g>
	<g>
		<title>qui16</title>
		<polygon class="qui16" points="1054,16 1076,16 1076,1 1106,31 1076,61 1076,46 1054,46" fill="rgb(250,190,222)" fill-opacity="1.0" stroke="rgb(100,76,88)" stroke-width="1" />
		<g>
			<title>PF00501</title>
			<polygon class="PF00501" points="1057,18 1090,18 1096,24 1096,38 1090,44 1057,44" stroke-linejoin="round" width="39" height="26" fill="rgb(60,217,223)" stroke="rgb(48,173,178)" stroke-width="1" opacity="0.75" />
		</g>
		<g>
			<title>PF13193</title>
			<polygon class="PF13193" points="1097,25 1103,31 1097,37" stroke-linejoin="round" width="7" height="26" fill="rgb(182,50,118)" stroke="rgb(145,39,94)" stroke-width="1" opacity="0.75" />
		</g>
	</g>
	<g>
		<title>qui17</title>
		<polygon class="qui17" points="1136,16 1136,16 1136,1 1109,31 1136,61 1136,46 1136,46" fill="rgb(186,212,253)" fill-opacity="1.0" stroke="rgb(74,84,101)" stroke-width="1" />
		<g>
			<title>PF03301</title>
			<polygon class="PF03301" points="1111,31 1115,27 1115,34" stroke-linejoin="round" width="6" height="26" fill="rgb(50,195,197)" stroke="rgb(40,155,157)" stroke-width="1" opacity="0.75" />
		</g>
		<g>
			<title>PF03301</title>
			<polygon class="PF03301" points="1118,23 1123,18 1133,18 1133,44 1123,44 1118,38" stroke-linejoin="round" width="15" height="26" fill="rgb(50,195,197)" stroke="rgb(40,155,157)" stroke-width="1" opacity="0.75" />
		</g>
	</g>
	<g>
		<title>qui18</title>
		<polygon class="qui18" points="1138,16 1169,16 1169,1 1199,31 1169,61 1169,46 1138,46" fill="rgb(251,241,176)" fill-opacity="1.0" stroke="rgb(100,96,70)" stroke-width="1" />
		<g>
			<title>PF00501</title>
			<rect class="PF00501" x="1141" y="18" stroke-linejoin="round" width="39" height="26" fill="rgb(60,217,223)" stroke="rgb(48,173,178)" stroke-width="1" opacity="0.75" />
		</g>
		<g>
			<title>PF13193</title>
			<polygon class="PF13193" points="1181,18 1183,18 1188,23 1188,39 1183,44 1181,44" stroke-linejoin="round" width="7" height="26" fill="rgb(182,50,118)" stroke="rgb(145,39,94)" stroke-width="1" opacity="0.75" />
		</g>
		<g>
			<title>PF00550</title>
			<polygon class="PF00550" points="1191,26 1196,31 1191,36" stroke-linejoin="round" width="6" height="26" fill="rgb(103,191,88)" stroke="rgb(82,152,70)" stroke-width="1" opacity="0.75" />
		</g>
	</g>
	<g>
		<title>qui1</title>
		<polygon class="qui1" points="1,16 1,16 1,1 6,31 1,61 1,46 1,46" fill="rgb(209,205,252)" fill-opacity="1.0" stroke="rgb(83,82,100)" stroke-width="1" />
	</g>
	<g>
		<title>qui2</title>
		<polygon class="qui2" points="6,16 6,16 6,1 33,31 6,61 6,46 6,46" fill="rgb(229,188,253)" fill-opacity="1.0" stroke="rgb(91,75,101)" stroke-width="1" />
		<g>
			<title>PF01061</title>
			<polygon class="PF01061" points="8,18 18,18 29,30 29,32 18,44 8,44" stroke-linejoin="round" width="21" height="26" fill="rgb(139,217,106)" stroke="rgb(111,173,84)" stroke-width="1" opacity="0.75" />
		</g>
	</g>
	<g>
		<title>qui3</title>
		<polygon class="qui3" points="37,16 47,16 47,1 77,31 47,61 47,46 37,46" fill="rgb(249,250,198)" fill-opacity="1.0" stroke="rgb(99,100,79)" stroke-width="1" />
		<g>
			<title>PF05139</title>
			<polygon class="PF05139" points="41,18 61,18 74,31 61,44 41,44" stroke-linejoin="round" width="34" height="26" fill="rgb(64,208,71)" stroke="rgb(51,166,56)" stroke-width="1" opacity="0.75" />
		</g>
	</g>
	<g>
		<title>qui4</title>
		<polygon class="qui4" points="98,16 98,16 98,1 81,31 98,61 98,46 98,46" fill="rgb(196,253,195)" fill-opacity="1.0" stroke="rgb(78,101,78)" stroke-width="1" />
		<g>
			<title>PF00486</title>
			<polygon class="PF00486" points="83,31 88,22 88,39" stroke-linejoin="round" width="7" height="26" fill="rgb(204,153,57)" stroke="rgb(163,122,45)" stroke-width="1" opacity="0.75" />
		</g>
	</g>
	<g>
		<title>qui5</title>
		<polygon class="qui5" points="109,16 109,16 109,1 102,31 109,61 109,46 109,46" fill="rgb(230,203,250)" fill-opacity="1.0" stroke="rgb(92,81,100)" stroke-width="1" />
		<g>
			<title>PF03621</title>
			<polygon class="PF03621" points="104,31 107,18 108,18 108,44 107,44" stroke-linejoin="round" width="5" height="26" fill="rgb(212,165,97)" stroke="rgb(169,132,77)" stroke-width="1" opacity="0.75" />
		</g>
	</g>
	<g>
		<title>qui6</title>
		<polygon class="qui6" points="425,16 141,16 141,1 111,31 141,61 141,46 425,46" fill="rgb(242,181,252)" fill-opacity="1.0" stroke="rgb(96,72,100)" stroke-width="1" />
		<g>
			<title>PF00975</title>
			<polygon class="PF00975" points="113,31 126,18 133,18 133,44 126,44" stroke-linejoin="round" width="22" height="26" fill="rgb(207,80,138)" stroke="rgb(165,63,110)" stroke-width="1" opacity="0.75" />
		</g>
		<g>
			<title>PF00550</title>
			<rect class="PF00550" x="136" y="18" stroke-linejoin="round" width="6" height="26" fill="rgb(103,191,88)" stroke="rgb(82,152,70)" stroke-width="1" opacity="0.75" />
		</g>
		<g>
			<title>PF08242</title>
			<rect class="PF08242" x="171" y="18" stroke-linejoin="round" width="10" height="26" fill="rgb(187,59,115)" stroke="rgb(149,47,92)" stroke-width="1" opacity="0.75" />
		</g>
		<g>
			<title>PF00501</title>
			<rect class="PF00501" x="192" y="18" stroke-linejoin="round" width="38" height="26" fill="rgb(60,217,223)" stroke="rgb(48,173,178)" stroke-width="1" opacity="0.75" />
		</g>
		<g>
			<title>PF00668</title>
			<rect class="PF00668" x="233" y="18" stroke-linejoin="round" width="45" height="26" fill="rgb(224,184,98)" stroke="rgb(179,147,78)" stroke-width="1" opacity="0.75" />
		</g>
		<g>
			<title>PF00550</title>
			<rect class="PF00550" x="279" y="18" stroke-linejoin="round" width="6" height="26" fill="rgb(103,191,88)" stroke="rgb(82,152,70)" stroke-width="1" opacity="0.75" />
		</g>
		<g>
			<title>PF13649</title>
			<rect class="PF13649" x="314" y="18" stroke-linejoin="round" width="9" height="26" fill="rgb(227,135,74)" stroke="rgb(181,108,59)" stroke-width="1" opacity="0.75" />
		</g>
		<g>
			<title>PF00501</title>
			<rect class="PF00501" x="336" y="18" stroke-linejoin="round" width="40" height="26" fill="rgb(60,217,223)" stroke="rgb(48,173,178)" stroke-width="1" opacity="0.75" />
		</g>
		<g>
			<title>PF00668</title>
			<rect class="PF00668" x="380" y="18" stroke-linejoin="round" width="44" height="26" fill="rgb(224,184,98)" stroke="rgb(179,147,78)" stroke-width="1" opacity="0.75" />
		</g>
	</g>
	<g>
		<title>qui7</title>
		<polygon class="qui7" points="692,16 456,16 456,1 426,31 456,61 456,46 692,46" fill="rgb(253,240,192)" fill-opacity="1.0" stroke="rgb(101,96,76)" stroke-width="1" />
		<g>
			<title>PF00550</title>
			<polygon class="PF00550" points="428,31 433,26 433,35" stroke-linejoin="round" width="6" height="26" fill="rgb(103,191,88)" stroke="rgb(82,152,70)" stroke-width="1" opacity="0.75" />
		</g>
		<g>
			<title>PF13193</title>
			<polygon class="PF13193" points="436,23 441,18 443,18 443,44 441,44 436,38" stroke-linejoin="round" width="7" height="26" fill="rgb(182,50,118)" stroke="rgb(145,39,94)" stroke-width="1" opacity="0.75" />
		</g>
		<g>
			<title>PF00501</title>
			<rect class="PF00501" x="445" y="18" stroke-linejoin="round" width="37" height="26" fill="rgb(60,217,223)" stroke="rgb(48,173,178)" stroke-width="1" opacity="0.75" />
		</g>
		<g>
			<title>PF00668</title>
			<rect class="PF00668" x="484" y="18" stroke-linejoin="round" width="43" height="26" fill="rgb(224,184,98)" stroke="rgb(179,147,78)" stroke-width="1" opacity="0.75" />
		</g>
		<g>
			<title>PF00668</title>
			<rect class="PF00668" x="539" y="18" stroke-linejoin="round" width="35" height="26" fill="rgb(224,184,98)" stroke="rgb(179,147,78)" stroke-width="1" opacity="0.75" />
		</g>
		<g>
			<title>PF00550</title>
			<rect class="PF00550" x="579" y="18" stroke-linejoin="round" width="6" height="26" fill="rgb(103,191,88)" stroke="rgb(82,152,70)" stroke-width="1" opacity="0.75" />
		</g>
		<g>
			<title>PF13193</title>
			<rect class="PF13193" x="588" y="18" stroke-linejoin="round" width="9" height="26" fill="rgb(182,50,118)" stroke="rgb(145,39,94)" stroke-width="1" opacity="0.75" />
		</g>
		<g>
			<title>PF00501</title>
			<rect class="PF00501" x="598" y="18" stroke-linejoin="round" width="39" height="26" fill="rgb(60,217,223)" stroke="rgb(48,173,178)" stroke-width="1" opacity="0.75" />
		</g>
		<g>
			<title>PF00668</title>
			<rect class="PF00668" x="639" y="18" stroke-linejoin="round" width="45" height="26" fill="rgb(224,184,98)" stroke="rgb(179,147,78)" stroke-width="1" opacity="0.75" />
		</g>
	</g>
	<g>
		<title>qui8</title>
		<polygon class="qui8" points="694,16 694,16 694,1 717,31 694,61 694,46 694,46" fill="rgb(250,207,250)" fill-opacity="1.0" stroke="rgb(100,82,100)" stroke-width="1" />
		<g>
			<title>PF13649</title>
			<polygon class="PF13649" points="699,18 704,18 708,23 708,39 704,44 699,44" stroke-linejoin="round" width="9" height="26" fill="rgb(227,135,74)" stroke="rgb(181,108,59)" stroke-width="1" opacity="0.75" />
		</g>
	</g>
	<g>
		<title>qui10</title>
		<polygon class="qui10" points="772,16 821,16 821,1 851,31 821,61 821,46 772,46" fill="rgb(181,248,254)" fill-opacity="1.0" stroke="rgb(72,99,101)" stroke-width="1" />
		<g>
			<title>PF00005</title>
			<polygon class="PF00005" points="822,18 835,18 842,25 842,37 835,44 822,44" stroke-linejoin="round" width="20" height="26" fill="rgb(129,201,63)" stroke="rgb(103,160,50)" stroke-width="1" opacity="0.75" />
		</g>
	</g>
</svg>
