<svg version="1.1" baseProfile="full" xmlns="http://www.w3.org/2000/svg" width="662" height="62">
	<line x1="1" y1="31" x2="661" y2="31" style="stroke:rgb(50,50,50); stroke-width:3 "/>
	<g>
		<title>milJ</title>
		<polygon class="milJ" points="336,16 337,16 337,1 367,31 337,61 337,46 336,46" fill="rgb(250,176,236)" fill-opacity="1.0" stroke="rgb(100,70,94)" stroke-width="1" />
	</g>
	<g>
		<title>milK</title>
		<polygon class="milK" points="368,16 382,16 382,1 412,31 382,61 382,46 368,46" fill="rgb(251,213,208)" fill-opacity="1.0" stroke="rgb(100,85,83)" stroke-width="1" />
		<g>
			<title>PF07690</title>
			<polygon class="PF07690" points="369,18 396,18 400,22 400,40 396,44 369,44" stroke-linejoin="round" width="31" height="26" fill="rgb(193,224,74)" stroke="rgb(154,179,59)" stroke-width="1" opacity="0.75" />
		</g>
	</g>
	<g>
		<title>milL</title>
		<polygon class="milL" points="413,16 415,16 415,1 445,31 415,61 415,46 413,46" fill="rgb(253,224,183)" fill-opacity="1.0" stroke="rgb(101,89,73)" stroke-width="1" />
	</g>
	<g>
		<title>milM</title>
		<polygon class="milM" points="448,16 457,16 457,1 487,31 457,61 457,46 448,46" fill="rgb(204,254,238)" fill-opacity="1.0" stroke="rgb(81,101,95)" stroke-width="1" />
		<g>
			<title>PF00155</title>
			<polygon class="PF00155" points="453,18 471,18 484,31 471,44 453,44" stroke-linejoin="round" width="32" height="26" fill="rgb(89,113,198)" stroke="rgb(71,90,158)" stroke-width="1" opacity="0.75" />
		</g>
	</g>
	<g>
		<title>milN</title>
		<polygon class="milN" points="487,16 487,16 487,1 512,31 487,61 487,46 487,46" fill="rgb(177,251,249)" fill-opacity="1.0" stroke="rgb(70,100,99)" stroke-width="1" />
		<g>
			<title>PF00701</title>
			<polygon class="PF00701" points="487,18 498,18 508,30 508,32 498,44 487,44" stroke-linejoin="round" width="21" height="26" fill="rgb(80,204,82)" stroke="rgb(64,163,65)" stroke-width="1" opacity="0.75" />
		</g>
	</g>
	<g>
		<title>milO</title>
		<polygon class="milO" points="572,16 567,16 567,1 537,31 567,61 567,46 572,46" fill="rgb(253,206,195)" fill-opacity="1.0" stroke="rgb(101,82,78)" stroke-width="1" />
		<g>
			<title>PF00196</title>
			<polygon class="PF00196" points="539,31 543,27 543,34" stroke-linejoin="round" width="4" height="26" fill="rgb(219,94,82)" stroke="rgb(175,75,65)" stroke-width="1" opacity="0.75" />
		</g>
	</g>
	<g>
		<title>milP</title>
		<polygon class="milP" points="625,16 603,16 603,1 573,31 603,61 603,46 625,46" fill="rgb(250,199,176)" fill-opacity="1.0" stroke="rgb(100,79,70)" stroke-width="1" />
		<g>
			<title>PF00005</title>
			<polygon class="PF00005" points="579,27 588,18 593,18 593,44 588,44 579,34" stroke-linejoin="round" width="14" height="26" fill="rgb(129,201,63)" stroke="rgb(103,160,50)" stroke-width="1" opacity="0.75" />
		</g>
		<g>
			<title>PF12848</title>
			<rect class="PF12848" x="596" y="18" stroke-linejoin="round" width="9" height="26" fill="rgb(54,177,199)" stroke="rgb(43,141,159)" stroke-width="1" opacity="0.75" />
		</g>
		<g>
			<title>PF00005</title>
			<rect class="PF00005" x="609" y="18" stroke-linejoin="round" width="16" height="26" fill="rgb(129,201,63)" stroke="rgb(103,160,50)" stroke-width="1" opacity="0.75" />
		</g>
	</g>
	<g>
		<title>milQ</title>
		<polygon class="milQ" points="635,16 635,16 635,1 660,31 635,61 635,46 635,46" fill="rgb(191,205,251)" fill-opacity="1.0" stroke="rgb(76,82,100)" stroke-width="1" />
		<g>
			<title>PF01636</title>
			<polygon class="PF01636" points="646,18 646,18 655,29 655,33 646,44 646,44" stroke-linejoin="round" width="9" height="26" fill="rgb(106,220,228)" stroke="rgb(84,176,182)" stroke-width="1" opacity="0.75" />
		</g>
	</g>
	<g>
		<title>milA</title>
		<polygon class="milA" points="1,16 4,16 4,1 34,31 4,61 4,46 1,46" fill="rgb(195,254,201)" fill-opacity="1.0" stroke="rgb(77,101,80)" stroke-width="1" />
		<g>
			<title>PF00303</title>
			<polygon class="PF00303" points="2,18 18,18 28,28 28,34 18,44 2,44" stroke-linejoin="round" width="26" height="26" fill="rgb(103,91,191)" stroke="rgb(82,72,152)" stroke-width="1" opacity="0.75" />
		</g>
	</g>
	<g>
		<title>MilB</title>
		<polygon class="MilB" points="38,16 38,16 38,1 55,31 38,61 38,46 38,46" fill="rgb(228,254,191)" fill-opacity="1.0" stroke="rgb(91,101,76)" stroke-width="1" />
		<g>
			<title>PF05014</title>
			<polygon class="PF05014" points="41,18 45,18 52,31 45,44 41,44" stroke-linejoin="round" width="12" height="26" fill="rgb(142,182,49)" stroke="rgb(113,145,39)" stroke-width="1" opacity="0.75" />
		</g>
	</g>
	<g>
		<title>milC</title>
		<polygon class="milC" points="60,16 72,16 72,1 102,31 72,61 72,46 60,46" fill="rgb(212,253,197)" fill-opacity="1.0" stroke="rgb(84,101,78)" stroke-width="1" />
	</g>
	<g>
		<title>milD</title>
		<polygon class="milD" points="103,16 112,16 112,1 142,31 112,61 112,46 103,46" fill="rgb(251,192,202)" fill-opacity="1.0" stroke="rgb(100,76,80)" stroke-width="1" />
		<g>
			<title>PF01041</title>
			<polygon class="PF01041" points="106,18 126,18 139,31 126,44 106,44" stroke-linejoin="round" width="35" height="26" fill="rgb(59,139,191)" stroke="rgb(47,111,152)" stroke-width="1" opacity="0.75" />
		</g>
	</g>
	<g>
		<title>milE</title>
		<polygon class="milE" points="142,16 142,16 142,1 169,31 142,61 142,46 142,46" fill="rgb(254,189,249)" fill-opacity="1.0" stroke="rgb(101,75,99)" stroke-width="1" />
		<g>
			<title>PF01636</title>
			<polygon class="PF01636" points="143,18 154,18 165,30 165,32 154,44 143,44" stroke-linejoin="round" width="22" height="26" fill="rgb(106,220,228)" stroke="rgb(84,176,182)" stroke-width="1" opacity="0.75" />
		</g>
	</g>
	<g>
		<title>milF</title>
		<polygon class="milF" points="169,16 169,16 169,1 184,31 169,61 169,46 169,46" fill="rgb(254,183,221)" fill-opacity="1.0" stroke="rgb(101,73,88)" stroke-width="1" />
	</g>
	<g>
		<title>milG</title>
		<polygon class="milG" points="184,16 187,16 187,1 217,31 187,61 187,46 184,46" fill="rgb(220,192,254)" fill-opacity="1.0" stroke="rgb(88,76,101)" stroke-width="1" />
		<g>
			<title>PF04055</title>
			<rect class="PF04055" x="185" y="18" stroke-linejoin="round" width="15" height="26" fill="rgb(149,56,222)" stroke="rgb(119,44,177)" stroke-width="1" opacity="0.75" />
		</g>
	</g>
	<g>
		<title>milH</title>
		<polygon class="milH" points="221,16 265,16 265,1 295,31 265,61 265,46 221,46" fill="rgb(254,241,197)" fill-opacity="1.0" stroke="rgb(101,96,78)" stroke-width="1" />
	</g>
	<g>
		<title>milI</title>
		<polygon class="milI" points="295,16 301,16 301,1 331,31 301,61 301,46 295,46" fill="rgb(245,250,195)" fill-opacity="1.0" stroke="rgb(98,100,78)" stroke-width="1" />
		<g>
			<title>PF00550</title>
			<rect class="PF00550" x="299" y="18" stroke-linejoin="round" width="5" height="26" fill="rgb(103,191,88)" stroke="rgb(82,152,70)" stroke-width="1" opacity="0.75" />
		</g>
	</g>
</svg>
