<svg version="1.1" baseProfile="full" xmlns="http://www.w3.org/2000/svg" width="523" height="62">
	<line x1="1" y1="31" x2="522" y2="31" style="stroke:rgb(50,50,50); stroke-width:3 "/>
	<g>
		<title>nsuC</title>
		<polygon class="nsuC" points="405,16 417,16 417,1 447,31 417,61 417,46 405,46" fill="rgb(252,211,231)" fill-opacity="1.0" stroke="rgb(100,84,92)" stroke-width="1" />
		<g>
			<title>PF05147</title>
			<polygon class="PF05147" points="408,18 431,18 444,31 431,44 408,44" stroke-linejoin="round" width="38" height="26" fill="rgb(129,182,79)" stroke="rgb(103,145,63)" stroke-width="1" opacity="0.75" />
		</g>
	</g>
	<g>
		<title>nsuI</title>
		<polygon class="nsuI" points="448,16 448,16 448,1 471,31 448,61 448,46 448,46" fill="rgb(254,202,242)" fill-opacity="1.0" stroke="rgb(101,80,96)" stroke-width="1" />
	</g>
	<g>
		<title>nsuP</title>
		<polygon class="nsuP" points="20,16 36,16 36,1 66,31 36,61 36,46 20,46" fill="rgb(209,193,254)" fill-opacity="1.0" stroke="rgb(83,77,101)" stroke-width="1" />
		<g>
			<title>PF00082</title>
			<polygon class="PF00082" points="34,18 50,18 63,31 63,31 50,44 34,44" stroke-linejoin="round" width="29" height="26" fill="rgb(193,159,94)" stroke="rgb(154,127,75)" stroke-width="1" opacity="0.75" />
		</g>
	</g>
	<g>
		<title>nsuR</title>
		<polygon class="nsuR" points="67,16 67,16 67,1 90,31 67,61 67,46 67,46" fill="rgb(207,177,251)" fill-opacity="1.0" stroke="rgb(82,70,100)" stroke-width="1" />
		<g>
			<title>PF00072</title>
			<rect class="PF00072" x="67" y="18" stroke-linejoin="round" width="10" height="26" fill="rgb(100,107,203)" stroke="rgb(80,85,162)" stroke-width="1" opacity="0.75" />
		</g>
		<g>
			<title>PF00486</title>
			<polygon class="PF00486" points="82,24 87,31 82,38" stroke-linejoin="round" width="7" height="26" fill="rgb(204,153,57)" stroke="rgb(163,122,45)" stroke-width="1" opacity="0.75" />
		</g>
	</g>
	<g>
		<title>nsuK</title>
		<polygon class="nsuK" points="90,16 104,16 104,1 134,31 104,61 104,46 90,46" fill="rgb(253,242,207)" fill-opacity="1.0" stroke="rgb(101,96,82)" stroke-width="1" />
		<g>
			<title>PF00512</title>
			<rect class="PF00512" x="112" y="18" stroke-linejoin="round" width="6" height="26" fill="rgb(193,125,62)" stroke="rgb(154,100,49)" stroke-width="1" opacity="0.75" />
		</g>
		<g>
			<title>PF02518</title>
			<polygon class="PF02518" points="123,23 131,31 123,39" stroke-linejoin="round" width="11" height="26" fill="rgb(80,94,225)" stroke="rgb(64,75,180)" stroke-width="1" opacity="0.75" />
		</g>
	</g>
	<g>
		<title>nsuF</title>
		<polygon class="nsuF" points="138,16 138,16 138,1 161,31 138,61 138,46 138,46" fill="rgb(250,230,191)" fill-opacity="1.0" stroke="rgb(100,92,76)" stroke-width="1" />
		<g>
			<title>PF00005</title>
			<polygon class="PF00005" points="139,18 148,18 152,23 152,39 148,44 139,44" stroke-linejoin="round" width="13" height="26" fill="rgb(129,201,63)" stroke="rgb(103,160,50)" stroke-width="1" opacity="0.75" />
		</g>
	</g>
	<g>
		<title>nsuE</title>
		<polygon class="nsuE" points="161,16 161,16 161,1 186,31 161,61 161,46 161,46" fill="rgb(254,201,225)" fill-opacity="1.0" stroke="rgb(101,80,90)" stroke-width="1" />
	</g>
	<g>
		<title>nsuG</title>
		<polygon class="nsuG" points="185,16 185,16 185,1 208,31 185,61 185,46 185,46" fill="rgb(209,242,252)" fill-opacity="1.0" stroke="rgb(83,96,100)" stroke-width="1" />
	</g>
	<g>
		<title>nsuA</title>
		<polygon class="nsuA" points="233,16 233,16 233,1 238,31 233,61 233,46 233,46" fill="rgb(254,185,219)" fill-opacity="1.0" stroke="rgb(101,74,87)" stroke-width="1" />
		<g>
			<title>PF02052</title>
			<polygon class="PF02052" points="233,18 233,18 235,31 233,44 233,44" stroke-linejoin="round" width="4" height="26" fill="rgb(66,195,175)" stroke="rgb(52,156,140)" stroke-width="1" opacity="0.75" />
		</g>
	</g>
	<g>
		<title>nsuB</title>
		<polygon class="nsuB" points="247,16 316,16 316,1 346,31 316,61 316,46 247,46" fill="rgb(244,178,252)" fill-opacity="1.0" stroke="rgb(97,71,100)" stroke-width="1" />
		<g>
			<title>PF04738</title>
			<rect class="PF04738" x="250" y="18" stroke-linejoin="round" width="62" height="26" fill="rgb(219,60,229)" stroke="rgb(175,47,183)" stroke-width="1" opacity="0.75" />
		</g>
		<g>
			<title>PF14028</title>
			<polygon class="PF14028" points="320,18 330,18 335,23 335,39 330,44 320,44" stroke-linejoin="round" width="15" height="26" fill="rgb(107,223,113)" stroke="rgb(85,178,90)" stroke-width="1" opacity="0.75" />
		</g>
	</g>
	<g>
		<title>nsuT</title>
		<polygon class="nsuT" points="345,16 374,16 374,1 404,31 374,61 374,46 345,46" fill="rgb(197,233,254)" fill-opacity="1.0" stroke="rgb(78,93,101)" stroke-width="1" />
		<g>
			<title>PF00005</title>
			<polygon class="PF00005" points="381,18 388,18 396,26 396,36 388,44 381,44" stroke-linejoin="round" width="15" height="26" fill="rgb(129,201,63)" stroke="rgb(103,160,50)" stroke-width="1" opacity="0.75" />
		</g>
	</g>
</svg>
