<svg version="1.1" baseProfile="full" xmlns="http://www.w3.org/2000/svg" width="4252" height="62">
	<line x1="1" y1="31" x2="4251" y2="31" style="stroke:rgb(50,50,50); stroke-width:3 "/>
	<g>
		<polygon class="NoName" points="3204,16 3168,16 3168,1 3138,31 3168,61 3168,46 3204,46" fill="rgb(255,255,255)" fill-opacity="1.0" stroke="rgb(50,50,50)" stroke-width="1" />
		<g>
			<title>PF01255</title>
			<rect class="PF01255" x="3188" y="18" stroke-linejoin="round" width="14" height="26" fill="rgb(129,224,60)" stroke="rgb(103,179,48)" stroke-width="1" opacity="0.75" />
		</g>
	</g>
	<g>
		<polygon class="NoName" points="3229,16 3437,16 3437,1 3467,31 3437,61 3437,46 3229,46" fill="rgb(255,255,255)" fill-opacity="1.0" stroke="rgb(50,50,50)" stroke-width="1" />
		<g>
			<title>PF01397</title>
			<rect class="PF01397" x="3249" y="18" stroke-linejoin="round" width="19" height="26" fill="rgb(74,159,219)" stroke="rgb(59,127,175)" stroke-width="1" opacity="0.75" />
		</g>
		<g>
			<title>PF03936</title>
			<rect class="PF03936" x="3273" y="18" stroke-linejoin="round" width="26" height="26" fill="rgb(219,91,215)" stroke="rgb(175,72,171)" stroke-width="1" opacity="0.75" />
		</g>
	</g>
	<g>
		<polygon class="NoName" points="3541,16 3729,16 3729,1 3759,31 3729,61 3729,46 3541,46" fill="rgb(255,255,255)" fill-opacity="1.0" stroke="rgb(50,50,50)" stroke-width="1" />
		<g>
			<title>PF00067</title>
			<rect class="PF00067" x="3544" y="18" stroke-linejoin="round" width="47" height="26" fill="rgb(85,216,107)" stroke="rgb(68,172,85)" stroke-width="1" opacity="0.75" />
		</g>
	</g>
	<g>
		<polygon class="NoName" points="3773,16 3773,16 3773,1 3798,31 3773,61 3773,46 3773,46" fill="rgb(255,255,255)" fill-opacity="1.0" stroke="rgb(50,50,50)" stroke-width="1" />
	</g>
	<g>
		<polygon class="NoName" points="3888,16 3925,16 3925,1 3955,31 3925,61 3925,46 3888,46" fill="rgb(255,255,255)" fill-opacity="1.0" stroke="rgb(50,50,50)" stroke-width="1" />
		<g>
			<title>PF02458</title>
			<rect class="PF02458" x="3888" y="18" stroke-linejoin="round" width="42" height="26" fill="rgb(57,117,190)" stroke="rgb(45,93,152)" stroke-width="1" opacity="0.75" />
		</g>
	</g>
	<g>
		<polygon class="NoName" points="4031,16 4069,16 4069,1 4099,31 4069,61 4069,46 4031,46" fill="rgb(255,255,255)" fill-opacity="1.0" stroke="rgb(50,50,50)" stroke-width="1" />
		<g>
			<title>PF02458</title>
			<rect class="PF02458" x="4031" y="18" stroke-linejoin="round" width="42" height="26" fill="rgb(57,117,190)" stroke="rgb(45,93,152)" stroke-width="1" opacity="0.75" />
		</g>
	</g>
	<g>
		<polygon class="NoName" points="437,16 215,16 215,1 185,31 215,61 215,46 437,46" fill="rgb(255,255,255)" fill-opacity="1.0" stroke="rgb(50,50,50)" stroke-width="1" />
		<g>
			<title>PF05199</title>
			<rect class="PF05199" x="363" y="18" stroke-linejoin="round" width="14" height="26" fill="rgb(186,52,106)" stroke="rgb(148,41,84)" stroke-width="1" opacity="0.75" />
		</g>
		<g>
			<title>PF00732</title>
			<rect class="PF00732" x="387" y="18" stroke-linejoin="round" width="26" height="26" fill="rgb(180,89,214)" stroke="rgb(143,71,171)" stroke-width="1" opacity="0.75" />
		</g>
	</g>
	<g>
		<polygon class="NoName" points="708,16 895,16 895,1 925,31 895,61 895,46 708,46" fill="rgb(255,255,255)" fill-opacity="1.0" stroke="rgb(50,50,50)" stroke-width="1" />
		<g>
			<title>PF01397</title>
			<rect class="PF01397" x="730" y="18" stroke-linejoin="round" width="19" height="26" fill="rgb(74,159,219)" stroke="rgb(59,127,175)" stroke-width="1" opacity="0.75" />
		</g>
		<g>
			<title>PF03936</title>
			<rect class="PF03936" x="754" y="18" stroke-linejoin="round" width="26" height="26" fill="rgb(219,91,215)" stroke="rgb(175,72,171)" stroke-width="1" opacity="0.75" />
		</g>
	</g>
	<g>
		<polygon class="NoName" points="1015,16 987,16 987,1 957,31 987,61 987,46 1015,46" fill="rgb(255,255,255)" fill-opacity="1.0" stroke="rgb(50,50,50)" stroke-width="1" />
		<g>
			<title>PF00067</title>
			<polygon class="PF00067" points="965,25 972,18 1011,18 1011,44 972,44 965,36" stroke-linejoin="round" width="46" height="26" fill="rgb(85,216,107)" stroke="rgb(68,172,85)" stroke-width="1" opacity="0.75" />
		</g>
	</g>
	<g>
		<polygon class="NoName" points="1073,16 1130,16 1130,1 1160,31 1130,61 1130,46 1073,46" fill="rgb(255,255,255)" fill-opacity="1.0" stroke="rgb(50,50,50)" stroke-width="1" />
		<g>
			<title>PF01255</title>
			<rect class="PF01255" x="1082" y="18" stroke-linejoin="round" width="21" height="26" fill="rgb(129,224,60)" stroke="rgb(103,179,48)" stroke-width="1" opacity="0.75" />
		</g>
	</g>
	<g>
		<polygon class="NoName" points="1388,16 1212,16 1212,1 1182,31 1212,61 1212,46 1388,46" fill="rgb(255,255,255)" fill-opacity="1.0" stroke="rgb(50,50,50)" stroke-width="1" />
		<g>
			<title>PF03936</title>
			<rect class="PF03936" x="1316" y="18" stroke-linejoin="round" width="26" height="26" fill="rgb(219,91,215)" stroke="rgb(175,72,171)" stroke-width="1" opacity="0.75" />
		</g>
		<g>
			<title>PF01397</title>
			<rect class="PF01397" x="1346" y="18" stroke-linejoin="round" width="19" height="26" fill="rgb(74,159,219)" stroke="rgb(59,127,175)" stroke-width="1" opacity="0.75" />
		</g>
	</g>
	<g>
		<polygon class="NoName" points="1648,16 1671,16 1671,1 1701,31 1671,61 1671,46 1648,46" fill="rgb(255,255,255)" fill-opacity="1.0" stroke="rgb(50,50,50)" stroke-width="1" />
		<g>
			<title>PF01255</title>
			<rect class="PF01255" x="1656" y="18" stroke-linejoin="round" width="7" height="26" fill="rgb(129,224,60)" stroke="rgb(103,179,48)" stroke-width="1" opacity="0.75" />
		</g>
	</g>
	<g>
		<polygon class="NoName" points="2169,16 1909,16 1909,1 1879,31 1909,61 1909,46 2169,46" fill="rgb(255,255,255)" fill-opacity="1.0" stroke="rgb(50,50,50)" stroke-width="1" />
		<g>
			<title>PF03936</title>
			<rect class="PF03936" x="2097" y="18" stroke-linejoin="round" width="26" height="26" fill="rgb(219,91,215)" stroke="rgb(175,72,171)" stroke-width="1" opacity="0.75" />
		</g>
		<g>
			<title>PF01397</title>
			<rect class="PF01397" x="2127" y="18" stroke-linejoin="round" width="19" height="26" fill="rgb(74,159,219)" stroke="rgb(59,127,175)" stroke-width="1" opacity="0.75" />
		</g>
	</g>
	<g>
		<polygon class="NoName" points="2430,16 2503,16 2503,1 2533,31 2503,61 2503,46 2430,46" fill="rgb(255,255,255)" fill-opacity="1.0" stroke="rgb(50,50,50)" stroke-width="1" />
		<g>
			<title>PF01255</title>
			<rect class="PF01255" x="2438" y="18" stroke-linejoin="round" width="21" height="26" fill="rgb(129,224,60)" stroke="rgb(103,179,48)" stroke-width="1" opacity="0.75" />
		</g>
	</g>
	<g>
		<polygon class="NoName" points="2734,16 2950,16 2950,1 2980,31 2950,61 2950,46 2734,46" fill="rgb(255,255,255)" fill-opacity="1.0" stroke="rgb(50,50,50)" stroke-width="1" />
		<g>
			<title>PF01397</title>
			<rect class="PF01397" x="2760" y="18" stroke-linejoin="round" width="20" height="26" fill="rgb(74,159,219)" stroke="rgb(59,127,175)" stroke-width="1" opacity="0.75" />
		</g>
		<g>
			<title>PF03936</title>
			<rect class="PF03936" x="2785" y="18" stroke-linejoin="round" width="26" height="26" fill="rgb(219,91,215)" stroke="rgb(175,72,171)" stroke-width="1" opacity="0.75" />
		</g>
	</g>
</svg>
