<svg version="1.1" baseProfile="full" xmlns="http://www.w3.org/2000/svg" width="3609" height="62">
	<line x1="1" y1="31" x2="3608" y2="31" style="stroke:rgb(50,50,50); stroke-width:3 "/>
	<g>
		<title>vstI</title>
		<polygon class="vstI" points="1905,16 1895,16 1895,1 1865,31 1895,61 1895,46 1905,46" fill="rgb(214,253,239)" fill-opacity="1.0" stroke="rgb(85,101,95)" stroke-width="1" />
		<g>
			<title>PF06722</title>
			<polygon class="PF06722" points="1876,22 1880,18 1885,18 1885,44 1880,44 1876,39" stroke-linejoin="round" width="9" height="26" fill="rgb(200,129,88)" stroke="rgb(160,103,70)" stroke-width="1" opacity="0.75" />
		</g>
	</g>
	<g>
		<title>vstB3</title>
		<polygon class="vstB3" points="1941,16 1938,16 1938,1 1908,31 1938,61 1938,46 1941,46" fill="rgb(254,223,207)" fill-opacity="1.0" stroke="rgb(101,89,82)" stroke-width="1" />
		<g>
			<title>PF00248</title>
			<polygon class="PF00248" points="1910,31 1923,18 1938,18 1938,44 1923,44" stroke-linejoin="round" width="29" height="26" fill="rgb(225,205,58)" stroke="rgb(180,164,46)" stroke-width="1" opacity="0.75" />
		</g>
	</g>
	<g>
		<title>vstB4</title>
		<polygon class="vstB4" points="1972,16 1972,16 1972,1 1947,31 1972,61 1972,46 1972,46" fill="rgb(210,203,253)" fill-opacity="1.0" stroke="rgb(84,81,101)" stroke-width="1" />
		<g>
			<title>PF01370</title>
			<polygon class="PF01370" points="1954,25 1960,18 1970,18 1970,44 1960,44 1954,36" stroke-linejoin="round" width="16" height="26" fill="rgb(98,102,214)" stroke="rgb(78,81,171)" stroke-width="1" opacity="0.75" />
		</g>
	</g>
	<g>
		<title>vstB5</title>
		<polygon class="vstB5" points="2024,16 2003,16 2003,1 1973,31 2003,61 2003,46 2024,46" fill="rgb(253,207,244)" fill-opacity="1.0" stroke="rgb(101,82,97)" stroke-width="1" />
		<g>
			<title>PF03559</title>
			<polygon class="PF03559" points="1975,31 1988,18 1992,18 1992,44 1988,44" stroke-linejoin="round" width="19" height="26" fill="rgb(74,201,66)" stroke="rgb(59,160,52)" stroke-width="1" opacity="0.75" />
		</g>
		<g>
			<title>PF03559</title>
			<rect class="PF03559" x="1997" y="18" stroke-linejoin="round" width="20" height="26" fill="rgb(74,201,66)" stroke="rgb(59,160,52)" stroke-width="1" opacity="0.75" />
		</g>
	</g>
	<g>
		<title>vstJ</title>
		<polygon class="vstJ" points="2031,16 2031,16 2031,1 2045,31 2031,61 2031,46 2031,46" fill="rgb(209,250,176)" fill-opacity="1.0" stroke="rgb(83,100,70)" stroke-width="1" />
	</g>
	<g>
		<title>vstA3</title>
		<polygon class="vstA3" points="2050,16 2379,16 2379,1 2409,31 2379,61 2379,46 2050,46" fill="rgb(250,180,254)" fill-opacity="1.0" stroke="rgb(100,72,101)" stroke-width="1" />
		<g>
			<title>PF00109</title>
			<rect class="PF00109" x="2059" y="18" stroke-linejoin="round" width="25" height="26" fill="rgb(112,116,228)" stroke="rgb(89,92,182)" stroke-width="1" opacity="0.75" />
		</g>
		<g>
			<title>PF02801</title>
			<rect class="PF02801" x="2084" y="18" stroke-linejoin="round" width="11" height="26" fill="rgb(215,78,102)" stroke="rgb(172,62,81)" stroke-width="1" opacity="0.75" />
		</g>
		<g>
			<title>PF16197</title>
			<rect class="PF16197" x="2096" y="18" stroke-linejoin="round" width="11" height="26" fill="rgb(68,179,89)" stroke="rgb(54,143,71)" stroke-width="1" opacity="0.75" />
		</g>
		<g>
			<title>PF00698</title>
			<rect class="PF00698" x="2112" y="18" stroke-linejoin="round" width="32" height="26" fill="rgb(59,176,209)" stroke="rgb(47,140,167)" stroke-width="1" opacity="0.75" />
		</g>
		<g>
			<title>PF14765</title>
			<rect class="PF14765" x="2149" y="18" stroke-linejoin="round" width="27" height="26" fill="rgb(173,56,182)" stroke="rgb(138,44,145)" stroke-width="1" opacity="0.75" />
		</g>
		<g>
			<title>PF08659</title>
			<rect class="PF08659" x="2193" y="18" stroke-linejoin="round" width="17" height="26" fill="rgb(66,209,188)" stroke="rgb(52,167,150)" stroke-width="1" opacity="0.75" />
		</g>
		<g>
			<title>PF00550</title>
			<rect class="PF00550" x="2221" y="18" stroke-linejoin="round" width="6" height="26" fill="rgb(103,191,88)" stroke="rgb(82,152,70)" stroke-width="1" opacity="0.75" />
		</g>
		<g>
			<title>PF00109</title>
			<rect class="PF00109" x="2231" y="18" stroke-linejoin="round" width="25" height="26" fill="rgb(112,116,228)" stroke="rgb(89,92,182)" stroke-width="1" opacity="0.75" />
		</g>
		<g>
			<title>PF02801</title>
			<rect class="PF02801" x="2256" y="18" stroke-linejoin="round" width="11" height="26" fill="rgb(215,78,102)" stroke="rgb(172,62,81)" stroke-width="1" opacity="0.75" />
		</g>
		<g>
			<title>PF16197</title>
			<rect class="PF16197" x="2268" y="18" stroke-linejoin="round" width="11" height="26" fill="rgb(68,179,89)" stroke="rgb(54,143,71)" stroke-width="1" opacity="0.75" />
		</g>
		<g>
			<title>PF00698</title>
			<rect class="PF00698" x="2284" y="18" stroke-linejoin="round" width="32" height="26" fill="rgb(59,176,209)" stroke="rgb(47,140,167)" stroke-width="1" opacity="0.75" />
		</g>
		<g>
			<title>PF14765</title>
			<rect class="PF14765" x="2321" y="18" stroke-linejoin="round" width="27" height="26" fill="rgb(173,56,182)" stroke="rgb(138,44,145)" stroke-width="1" opacity="0.75" />
		</g>
		<g>
			<title>PF08659</title>
			<rect class="PF08659" x="2365" y="18" stroke-linejoin="round" width="17" height="26" fill="rgb(66,209,188)" stroke="rgb(52,167,150)" stroke-width="1" opacity="0.75" />
		</g>
		<g>
			<title>PF00550</title>
			<polygon class="PF00550" points="2394,19 2400,25 2400,37 2394,43" stroke-linejoin="round" width="6" height="26" fill="rgb(103,191,88)" stroke="rgb(82,152,70)" stroke-width="1" opacity="0.75" />
		</g>
	</g>
	<g>
		<title>vstA4</title>
		<polygon class="vstA4" points="2410,16 2741,16 2741,1 2771,31 2741,61 2741,46 2410,46" fill="rgb(250,210,198)" fill-opacity="1.0" stroke="rgb(100,84,79)" stroke-width="1" />
		<g>
			<title>PF08990</title>
			<rect class="PF08990" x="2410" y="18" stroke-linejoin="round" width="2" height="26" fill="rgb(180,75,55)" stroke="rgb(144,60,44)" stroke-width="1" opacity="0.75" />
		</g>
		<g>
			<title>PF00109</title>
			<rect class="PF00109" x="2413" y="18" stroke-linejoin="round" width="25" height="26" fill="rgb(112,116,228)" stroke="rgb(89,92,182)" stroke-width="1" opacity="0.75" />
		</g>
		<g>
			<title>PF02801</title>
			<rect class="PF02801" x="2439" y="18" stroke-linejoin="round" width="11" height="26" fill="rgb(215,78,102)" stroke="rgb(172,62,81)" stroke-width="1" opacity="0.75" />
		</g>
		<g>
			<title>PF16197</title>
			<rect class="PF16197" x="2451" y="18" stroke-linejoin="round" width="12" height="26" fill="rgb(68,179,89)" stroke="rgb(54,143,71)" stroke-width="1" opacity="0.75" />
		</g>
		<g>
			<title>PF00698</title>
			<rect class="PF00698" x="2467" y="18" stroke-linejoin="round" width="32" height="26" fill="rgb(59,176,209)" stroke="rgb(47,140,167)" stroke-width="1" opacity="0.75" />
		</g>
		<g>
			<title>PF14765</title>
			<rect class="PF14765" x="2505" y="18" stroke-linejoin="round" width="26" height="26" fill="rgb(173,56,182)" stroke="rgb(138,44,145)" stroke-width="1" opacity="0.75" />
		</g>
		<g>
			<title>PF08659</title>
			<rect class="PF08659" x="2549" y="18" stroke-linejoin="round" width="17" height="26" fill="rgb(66,209,188)" stroke="rgb(52,167,150)" stroke-width="1" opacity="0.75" />
		</g>
		<g>
			<title>PF00550</title>
			<rect class="PF00550" x="2575" y="18" stroke-linejoin="round" width="6" height="26" fill="rgb(103,191,88)" stroke="rgb(82,152,70)" stroke-width="1" opacity="0.75" />
		</g>
		<g>
			<title>PF00109</title>
			<rect class="PF00109" x="2584" y="18" stroke-linejoin="round" width="25" height="26" fill="rgb(112,116,228)" stroke="rgb(89,92,182)" stroke-width="1" opacity="0.75" />
		</g>
		<g>
			<title>PF02801</title>
			<rect class="PF02801" x="2610" y="18" stroke-linejoin="round" width="11" height="26" fill="rgb(215,78,102)" stroke="rgb(172,62,81)" stroke-width="1" opacity="0.75" />
		</g>
		<g>
			<title>PF16197</title>
			<rect class="PF16197" x="2622" y="18" stroke-linejoin="round" width="12" height="26" fill="rgb(68,179,89)" stroke="rgb(54,143,71)" stroke-width="1" opacity="0.75" />
		</g>
		<g>
			<title>PF00698</title>
			<rect class="PF00698" x="2643" y="18" stroke-linejoin="round" width="32" height="26" fill="rgb(59,176,209)" stroke="rgb(47,140,167)" stroke-width="1" opacity="0.75" />
		</g>
		<g>
			<title>PF14765</title>
			<rect class="PF14765" x="2679" y="18" stroke-linejoin="round" width="28" height="26" fill="rgb(173,56,182)" stroke="rgb(138,44,145)" stroke-width="1" opacity="0.75" />
		</g>
		<g>
			<title>PF08659</title>
			<rect class="PF08659" x="2725" y="18" stroke-linejoin="round" width="17" height="26" fill="rgb(66,209,188)" stroke="rgb(52,167,150)" stroke-width="1" opacity="0.75" />
		</g>
		<g>
			<title>PF00550</title>
			<polygon class="PF00550" points="2754,18 2755,18 2760,23 2760,39 2755,44 2754,44" stroke-linejoin="round" width="6" height="26" fill="rgb(103,191,88)" stroke="rgb(82,152,70)" stroke-width="1" opacity="0.75" />
		</g>
	</g>
	<g>
		<title>vstA5</title>
		<polygon class="vstA5" points="2772,16 2899,16 2899,1 2929,31 2899,61 2899,46 2772,46" fill="rgb(253,246,213)" fill-opacity="1.0" stroke="rgb(101,98,85)" stroke-width="1" />
		<g>
			<title>PF08990</title>
			<rect class="PF08990" x="2772" y="18" stroke-linejoin="round" width="2" height="26" fill="rgb(180,75,55)" stroke="rgb(144,60,44)" stroke-width="1" opacity="0.75" />
		</g>
		<g>
			<title>PF00109</title>
			<rect class="PF00109" x="2775" y="18" stroke-linejoin="round" width="25" height="26" fill="rgb(112,116,228)" stroke="rgb(89,92,182)" stroke-width="1" opacity="0.75" />
		</g>
		<g>
			<title>PF02801</title>
			<rect class="PF02801" x="2801" y="18" stroke-linejoin="round" width="11" height="26" fill="rgb(215,78,102)" stroke="rgb(172,62,81)" stroke-width="1" opacity="0.75" />
		</g>
		<g>
			<title>PF16197</title>
			<rect class="PF16197" x="2813" y="18" stroke-linejoin="round" width="12" height="26" fill="rgb(68,179,89)" stroke="rgb(54,143,71)" stroke-width="1" opacity="0.75" />
		</g>
		<g>
			<title>PF00698</title>
			<rect class="PF00698" x="2829" y="18" stroke-linejoin="round" width="32" height="26" fill="rgb(59,176,209)" stroke="rgb(47,140,167)" stroke-width="1" opacity="0.75" />
		</g>
		<g>
			<title>PF08659</title>
			<rect class="PF08659" x="2892" y="18" stroke-linejoin="round" width="17" height="26" fill="rgb(66,209,188)" stroke="rgb(52,167,150)" stroke-width="1" opacity="0.75" />
		</g>
		<g>
			<title>PF00550</title>
			<polygon class="PF00550" points="2919,24 2925,30 2925,32 2919,38" stroke-linejoin="round" width="6" height="26" fill="rgb(103,191,88)" stroke="rgb(82,152,70)" stroke-width="1" opacity="0.75" />
		</g>
	</g>
	<g>
		<title>vstK</title>
		<polygon class="vstK" points="2929,16 2950,16 2950,1 2980,31 2950,61 2950,46 2929,46" fill="rgb(196,217,252)" fill-opacity="1.0" stroke="rgb(78,86,100)" stroke-width="1" />
		<g>
			<title>PF01494</title>
			<rect class="PF01494" x="2929" y="18" stroke-linejoin="round" width="35" height="26" fill="rgb(182,175,59)" stroke="rgb(145,140,47)" stroke-width="1" opacity="0.75" />
		</g>
	</g>
	<g>
		<title>vstB6</title>
		<polygon class="vstB6" points="3020,16 3013,16 3013,1 2983,31 3013,61 3013,46 3020,46" fill="rgb(222,252,196)" fill-opacity="1.0" stroke="rgb(88,100,78)" stroke-width="1" />
	</g>
	<g>
		<title>vstD</title>
		<polygon class="vstD" points="1,16 11,16 11,1 41,31 11,61 11,46 1,46" fill="rgb(254,208,233)" fill-opacity="1.0" stroke="rgb(101,83,93)" stroke-width="1" />
		<g>
			<title>PF00067</title>
			<polygon class="PF00067" points="17,18 25,18 38,31 25,44 17,44" stroke-linejoin="round" width="22" height="26" fill="rgb(85,216,107)" stroke="rgb(68,172,85)" stroke-width="1" opacity="0.75" />
		</g>
	</g>
	<g>
		<title>vstC5</title>
		<polygon class="vstC5" points="3057,16 3053,16 3053,1 3023,31 3053,61 3053,46 3057,46" fill="rgb(207,244,254)" fill-opacity="1.0" stroke="rgb(82,97,101)" stroke-width="1" />
		<g>
			<title>PF08541</title>
			<polygon class="PF08541" points="3025,31 3031,25 3031,36" stroke-linejoin="round" width="7" height="26" fill="rgb(146,207,81)" stroke="rgb(116,165,64)" stroke-width="1" opacity="0.75" />
		</g>
		<g>
			<title>PF08545</title>
			<polygon class="PF08545" points="3037,19 3038,18 3045,18 3045,44 3038,44 3037,42" stroke-linejoin="round" width="8" height="26" fill="rgb(189,102,84)" stroke="rgb(151,81,67)" stroke-width="1" opacity="0.75" />
		</g>
	</g>
	<g>
		<title>vstC4</title>
		<polygon class="vstC4" points="3095,16 3089,16 3089,1 3059,31 3089,61 3089,46 3095,46" fill="rgb(251,205,247)" fill-opacity="1.0" stroke="rgb(100,82,98)" stroke-width="1" />
		<g>
			<title>PF06500</title>
			<polygon class="PF06500" points="3068,24 3074,18 3093,18 3093,44 3074,44 3068,37" stroke-linejoin="round" width="25" height="26" fill="rgb(65,96,200)" stroke="rgb(51,76,160)" stroke-width="1" opacity="0.75" />
		</g>
	</g>
	<g>
		<title>vstC3</title>
		<polygon class="vstC3" points="3123,16 3123,16 3123,1 3096,31 3123,61 3123,46 3123,46" fill="rgb(184,251,251)" fill-opacity="1.0" stroke="rgb(73,100,100)" stroke-width="1" />
		<g>
			<title>PF00198</title>
			<polygon class="PF00198" points="3098,31 3107,21 3107,40" stroke-linejoin="round" width="9" height="26" fill="rgb(204,74,202)" stroke="rgb(163,59,161)" stroke-width="1" opacity="0.75" />
		</g>
	</g>
	<g>
		<title>vstC2</title>
		<polygon class="vstC2" points="3130,16 3130,16 3130,1 3123,31 3130,61 3130,46 3130,46" fill="rgb(254,238,186)" fill-opacity="1.0" stroke="rgb(101,95,74)" stroke-width="1" />
	</g>
	<g>
		<title>vstC1</title>
		<polygon class="vstC1" points="3194,16 3161,16 3161,1 3131,31 3161,61 3161,46 3194,46" fill="rgb(250,229,207)" fill-opacity="1.0" stroke="rgb(100,91,82)" stroke-width="1" />
	</g>
	<g>
		<title>vstL</title>
		<polygon class="vstL" points="3239,16 3224,16 3224,1 3194,31 3224,61 3224,46 3239,46" fill="rgb(250,177,242)" fill-opacity="1.0" stroke="rgb(100,70,96)" stroke-width="1" />
		<g>
			<title>PF00107</title>
			<polygon class="PF00107" points="3201,26 3209,18 3215,18 3215,44 3209,44 3201,35" stroke-linejoin="round" width="14" height="26" fill="rgb(81,108,215)" stroke="rgb(64,86,172)" stroke-width="1" opacity="0.75" />
		</g>
		<g>
			<title>PF08240</title>
			<rect class="PF08240" x="3220" y="18" stroke-linejoin="round" width="12" height="26" fill="rgb(211,65,138)" stroke="rgb(168,51,110)" stroke-width="1" opacity="0.75" />
		</g>
	</g>
	<g>
		<title>vstR1</title>
		<polygon class="vstR1" points="3267,16 3267,16 3267,1 3241,31 3267,61 3267,46 3267,46" fill="rgb(237,207,250)" fill-opacity="1.0" stroke="rgb(94,82,100)" stroke-width="1" />
		<g>
			<title>PF03704</title>
			<polygon class="PF03704" points="3243,31 3254,18 3256,18 3256,44 3254,44" stroke-linejoin="round" width="14" height="26" fill="rgb(217,89,196)" stroke="rgb(173,71,156)" stroke-width="1" opacity="0.75" />
		</g>
		<g>
			<title>PF00486</title>
			<rect class="PF00486" x="3257" y="18" stroke-linejoin="round" width="7" height="26" fill="rgb(204,153,57)" stroke="rgb(163,122,45)" stroke-width="1" opacity="0.75" />
		</g>
	</g>
	<g>
		<title>vstM</title>
		<polygon class="vstM" points="3290,16 3290,16 3290,1 3266,31 3290,61 3290,46 3290,46" fill="rgb(214,209,252)" fill-opacity="1.0" stroke="rgb(85,83,100)" stroke-width="1" />
		<g>
			<title>PF00975</title>
			<polygon class="PF00975" points="3268,31 3278,18 3289,18 3289,44 3278,44" stroke-linejoin="round" width="22" height="26" fill="rgb(207,80,138)" stroke="rgb(165,63,110)" stroke-width="1" opacity="0.75" />
		</g>
	</g>
	<g>
		<title>vstN</title>
		<polygon class="vstN" points="3302,16 3302,16 3302,1 3294,31 3302,61 3302,46 3302,46" fill="rgb(252,203,251)" fill-opacity="1.0" stroke="rgb(100,81,100)" stroke-width="1" />
	</g>
	<g>
		<title>vstR2</title>
		<polygon class="vstR2" points="3402,16 3343,16 3343,1 3313,31 3343,61 3343,46 3402,46" fill="rgb(223,254,212)" fill-opacity="1.0" stroke="rgb(89,101,84)" stroke-width="1" />
		<g>
			<title>PF00196</title>
			<polygon class="PF00196" points="3315,31 3318,28 3318,33" stroke-linejoin="round" width="5" height="26" fill="rgb(219,94,82)" stroke="rgb(175,75,65)" stroke-width="1" opacity="0.75" />
		</g>
		<g>
			<title>PF13176</title>
			<polygon class="PF13176" points="3320,26 3323,23 3323,38 3320,35" stroke-linejoin="round" width="3" height="26" fill="rgb(197,220,70)" stroke="rgb(157,176,56)" stroke-width="1" opacity="0.75" />
		</g>
		<g>
			<title>PF13191</title>
			<rect class="PF13191" x="3387" y="18" stroke-linejoin="round" width="14" height="26" fill="rgb(186,102,77)" stroke="rgb(148,81,61)" stroke-width="1" opacity="0.75" />
		</g>
	</g>
	<g>
		<title>vstE</title>
		<polygon class="vstE" points="41,16 41,16 41,1 49,31 41,61 41,46 41,46" fill="rgb(233,250,209)" fill-opacity="1.0" stroke="rgb(93,100,83)" stroke-width="1" />
		<g>
			<title>PF13459</title>
			<polygon class="PF13459" points="41,18 43,18 46,31 43,44 41,44" stroke-linejoin="round" width="6" height="26" fill="rgb(138,59,179)" stroke="rgb(110,47,143)" stroke-width="1" opacity="0.75" />
		</g>
	</g>
	<g>
		<title>vstO</title>
		<polygon class="vstO" points="3426,16 3426,16 3426,1 3410,31 3426,61 3426,46 3426,46" fill="rgb(232,251,199)" fill-opacity="1.0" stroke="rgb(92,100,79)" stroke-width="1" />
	</g>
	<g>
		<title>vstP</title>
		<polygon class="vstP" points="3489,16 3460,16 3460,1 3430,31 3460,61 3460,46 3489,46" fill="rgb(224,203,254)" fill-opacity="1.0" stroke="rgb(89,81,101)" stroke-width="1" />
		<g>
			<title>PF00725</title>
			<polygon class="PF00725" points="3432,31 3439,24 3439,37" stroke-linejoin="round" width="9" height="26" fill="rgb(180,78,60)" stroke="rgb(144,62,48)" stroke-width="1" opacity="0.75" />
		</g>
		<g>
			<title>PF02737</title>
			<polygon class="PF02737" points="3440,23 3445,18 3457,18 3457,44 3445,44 3440,38" stroke-linejoin="round" width="17" height="26" fill="rgb(212,65,199)" stroke="rgb(169,52,159)" stroke-width="1" opacity="0.75" />
		</g>
		<g>
			<title>PF00725</title>
			<rect class="PF00725" x="3460" y="18" stroke-linejoin="round" width="9" height="26" fill="rgb(180,78,60)" stroke="rgb(144,62,48)" stroke-width="1" opacity="0.75" />
		</g>
		<g>
			<title>PF02737</title>
			<rect class="PF02737" x="3470" y="18" stroke-linejoin="round" width="17" height="26" fill="rgb(212,65,199)" stroke="rgb(169,52,159)" stroke-width="1" opacity="0.75" />
		</g>
	</g>
	<g>
		<title>vstQ</title>
		<polygon class="vstQ" points="3513,16 3513,16 3513,1 3521,31 3513,61 3513,46 3513,46" fill="rgb(244,206,252)" fill-opacity="1.0" stroke="rgb(97,82,100)" stroke-width="1" />
	</g>
	<g>
		<title>vstB7</title>
		<polygon class="vstB7" points="3522,16 3527,16 3527,1 3557,31 3527,61 3527,46 3522,46" fill="rgb(221,251,212)" fill-opacity="1.0" stroke="rgb(88,100,84)" stroke-width="1" />
		<g>
			<title>PF00483</title>
			<polygon class="PF00483" points="3522,18 3541,18 3545,22 3545,40 3541,44 3522,44" stroke-linejoin="round" width="23" height="26" fill="rgb(198,101,87)" stroke="rgb(158,80,69)" stroke-width="1" opacity="0.75" />
		</g>
	</g>
	<g>
		<title>vstB8</title>
		<polygon class="vstB8" points="3558,16 3560,16 3560,1 3590,31 3560,61 3560,46 3558,46" fill="rgb(185,225,251)" fill-opacity="1.0" stroke="rgb(74,90,100)" stroke-width="1" />
		<g>
			<title>PF16363</title>
			<polygon class="PF16363" points="3558,18 3574,18 3587,31 3574,44 3558,44" stroke-linejoin="round" width="30" height="26" fill="rgb(162,221,65)" stroke="rgb(129,176,51)" stroke-width="1" opacity="0.75" />
		</g>
	</g>
	<g>
		<title>vstR3</title>
		<polygon class="vstR3" points="3592,16 3592,16 3592,1 3608,31 3592,61 3592,46 3592,46" fill="rgb(254,193,227)" fill-opacity="1.0" stroke="rgb(101,77,90)" stroke-width="1" />
		<g>
			<title>PF12802</title>
			<polygon class="PF12802" points="3595,18 3598,18 3601,23 3601,39 3598,44 3595,44" stroke-linejoin="round" width="6" height="26" fill="rgb(46,89,185)" stroke="rgb(36,71,148)" stroke-width="1" opacity="0.75" />
		</g>
	</g>
	<g>
		<title>vstB1</title>
		<polygon class="vstB1" points="51,16 51,16 51,1 79,31 51,61 51,46 51,46" fill="rgb(235,252,207)" fill-opacity="1.0" stroke="rgb(93,100,82)" stroke-width="1" />
		<g>
			<title>PF04321</title>
			<polygon class="PF04321" points="51,18 64,18 76,31 64,44 51,44" stroke-linejoin="round" width="27" height="26" fill="rgb(196,203,60)" stroke="rgb(156,162,47)" stroke-width="1" opacity="0.75" />
		</g>
	</g>
	<g>
		<title>vstB2</title>
		<polygon class="vstB2" points="100,16 100,16 100,1 81,31 100,61 100,46 100,46" fill="rgb(251,240,210)" fill-opacity="1.0" stroke="rgb(100,96,84)" stroke-width="1" />
		<g>
			<title>PF00908</title>
			<polygon class="PF00908" points="83,31 91,18 100,18 100,44 91,44" stroke-linejoin="round" width="17" height="26" fill="rgb(184,89,121)" stroke="rgb(147,71,96)" stroke-width="1" opacity="0.75" />
		</g>
	</g>
	<g>
		<title>vstF</title>
		<polygon class="vstF" points="136,16 131,16 131,1 101,31 131,61 131,46 136,46" fill="rgb(254,207,222)" fill-opacity="1.0" stroke="rgb(101,82,88)" stroke-width="1" />
		<g>
			<title>PF08541</title>
			<polygon class="PF08541" points="103,31 110,24 110,37" stroke-linejoin="round" width="8" height="26" fill="rgb(146,207,81)" stroke="rgb(116,165,64)" stroke-width="1" opacity="0.75" />
		</g>
		<g>
			<title>PF08545</title>
			<polygon class="PF08545" points="116,18 116,18 123,18 123,44 116,44 116,43" stroke-linejoin="round" width="7" height="26" fill="rgb(189,102,84)" stroke="rgb(151,81,67)" stroke-width="1" opacity="0.75" />
		</g>
	</g>
	<g>
		<title>vstG</title>
		<polygon class="vstG" points="142,16 142,16 142,1 156,31 142,61 142,46 142,46" fill="rgb(253,200,226)" fill-opacity="1.0" stroke="rgb(101,80,90)" stroke-width="1" />
		<g>
			<title>PF10604</title>
			<polygon class="PF10604" points="142,18 147,18 153,31 147,44 142,44" stroke-linejoin="round" width="14" height="26" fill="rgb(105,204,74)" stroke="rgb(84,163,59)" stroke-width="1" opacity="0.75" />
		</g>
	</g>
	<g>
		<title>vstH</title>
		<polygon class="vstH" points="202,16 190,16 190,1 160,31 190,61 190,46 202,46" fill="rgb(220,203,250)" fill-opacity="1.0" stroke="rgb(88,81,100)" stroke-width="1" />
		<g>
			<title>PF06722</title>
			<polygon class="PF06722" points="171,22 175,18 180,18 180,44 175,44 171,39" stroke-linejoin="round" width="9" height="26" fill="rgb(200,129,88)" stroke="rgb(160,103,70)" stroke-width="1" opacity="0.75" />
		</g>
	</g>
	<g>
		<title>vstA1</title>
		<polygon class="vstA1" points="214,16 1073,16 1073,1 1103,31 1073,61 1073,46 214,46" fill="rgb(251,250,209)" fill-opacity="1.0" stroke="rgb(100,100,83)" stroke-width="1" />
		<g>
			<title>PF00109</title>
			<rect class="PF00109" x="214" y="18" stroke-linejoin="round" width="24" height="26" fill="rgb(112,116,228)" stroke="rgb(89,92,182)" stroke-width="1" opacity="0.75" />
		</g>
		<g>
			<title>PF02801</title>
			<rect class="PF02801" x="239" y="18" stroke-linejoin="round" width="11" height="26" fill="rgb(215,78,102)" stroke="rgb(172,62,81)" stroke-width="1" opacity="0.75" />
		</g>
		<g>
			<title>PF16197</title>
			<rect class="PF16197" x="251" y="18" stroke-linejoin="round" width="12" height="26" fill="rgb(68,179,89)" stroke="rgb(54,143,71)" stroke-width="1" opacity="0.75" />
		</g>
		<g>
			<title>PF00698</title>
			<rect class="PF00698" x="267" y="18" stroke-linejoin="round" width="33" height="26" fill="rgb(59,176,209)" stroke="rgb(47,140,167)" stroke-width="1" opacity="0.75" />
		</g>
		<g>
			<title>PF00550</title>
			<rect class="PF00550" x="318" y="18" stroke-linejoin="round" width="6" height="26" fill="rgb(103,191,88)" stroke="rgb(82,152,70)" stroke-width="1" opacity="0.75" />
		</g>
		<g>
			<title>PF00109</title>
			<rect class="PF00109" x="327" y="18" stroke-linejoin="round" width="25" height="26" fill="rgb(112,116,228)" stroke="rgb(89,92,182)" stroke-width="1" opacity="0.75" />
		</g>
		<g>
			<title>PF02801</title>
			<rect class="PF02801" x="353" y="18" stroke-linejoin="round" width="11" height="26" fill="rgb(215,78,102)" stroke="rgb(172,62,81)" stroke-width="1" opacity="0.75" />
		</g>
		<g>
			<title>PF16197</title>
			<rect class="PF16197" x="365" y="18" stroke-linejoin="round" width="12" height="26" fill="rgb(68,179,89)" stroke="rgb(54,143,71)" stroke-width="1" opacity="0.75" />
		</g>
		<g>
			<title>PF00698</title>
			<rect class="PF00698" x="383" y="18" stroke-linejoin="round" width="33" height="26" fill="rgb(59,176,209)" stroke="rgb(47,140,167)" stroke-width="1" opacity="0.75" />
		</g>
		<g>
			<title>PF14765</title>
			<rect class="PF14765" x="422" y="18" stroke-linejoin="round" width="29" height="26" fill="rgb(173,56,182)" stroke="rgb(138,44,145)" stroke-width="1" opacity="0.75" />
		</g>
		<g>
			<title>PF08659</title>
			<rect class="PF08659" x="475" y="18" stroke-linejoin="round" width="17" height="26" fill="rgb(66,209,188)" stroke="rgb(52,167,150)" stroke-width="1" opacity="0.75" />
		</g>
		<g>
			<title>PF00550</title>
			<rect class="PF00550" x="505" y="18" stroke-linejoin="round" width="6" height="26" fill="rgb(103,191,88)" stroke="rgb(82,152,70)" stroke-width="1" opacity="0.75" />
		</g>
		<g>
			<title>PF00109</title>
			<rect class="PF00109" x="515" y="18" stroke-linejoin="round" width="25" height="26" fill="rgb(112,116,228)" stroke="rgb(89,92,182)" stroke-width="1" opacity="0.75" />
		</g>
		<g>
			<title>PF02801</title>
			<rect class="PF02801" x="541" y="18" stroke-linejoin="round" width="11" height="26" fill="rgb(215,78,102)" stroke="rgb(172,62,81)" stroke-width="1" opacity="0.75" />
		</g>
		<g>
			<title>PF16197</title>
			<rect class="PF16197" x="553" y="18" stroke-linejoin="round" width="11" height="26" fill="rgb(68,179,89)" stroke="rgb(54,143,71)" stroke-width="1" opacity="0.75" />
		</g>
		<g>
			<title>PF00698</title>
			<rect class="PF00698" x="568" y="18" stroke-linejoin="round" width="32" height="26" fill="rgb(59,176,209)" stroke="rgb(47,140,167)" stroke-width="1" opacity="0.75" />
		</g>
		<g>
			<title>PF14765</title>
			<rect class="PF14765" x="605" y="18" stroke-linejoin="round" width="26" height="26" fill="rgb(173,56,182)" stroke="rgb(138,44,145)" stroke-width="1" opacity="0.75" />
		</g>
		<g>
			<title>PF08659</title>
			<rect class="PF08659" x="650" y="18" stroke-linejoin="round" width="17" height="26" fill="rgb(66,209,188)" stroke="rgb(52,167,150)" stroke-width="1" opacity="0.75" />
		</g>
		<g>
			<title>PF00550</title>
			<rect class="PF00550" x="679" y="18" stroke-linejoin="round" width="6" height="26" fill="rgb(103,191,88)" stroke="rgb(82,152,70)" stroke-width="1" opacity="0.75" />
		</g>
		<g>
			<title>PF00109</title>
			<rect class="PF00109" x="688" y="18" stroke-linejoin="round" width="25" height="26" fill="rgb(112,116,228)" stroke="rgb(89,92,182)" stroke-width="1" opacity="0.75" />
		</g>
		<g>
			<title>PF02801</title>
			<rect class="PF02801" x="714" y="18" stroke-linejoin="round" width="11" height="26" fill="rgb(215,78,102)" stroke="rgb(172,62,81)" stroke-width="1" opacity="0.75" />
		</g>
		<g>
			<title>PF16197</title>
			<rect class="PF16197" x="726" y="18" stroke-linejoin="round" width="11" height="26" fill="rgb(68,179,89)" stroke="rgb(54,143,71)" stroke-width="1" opacity="0.75" />
		</g>
		<g>
			<title>PF00698</title>
			<rect class="PF00698" x="741" y="18" stroke-linejoin="round" width="32" height="26" fill="rgb(59,176,209)" stroke="rgb(47,140,167)" stroke-width="1" opacity="0.75" />
		</g>
		<g>
			<title>PF14765</title>
			<rect class="PF14765" x="778" y="18" stroke-linejoin="round" width="27" height="26" fill="rgb(173,56,182)" stroke="rgb(138,44,145)" stroke-width="1" opacity="0.75" />
		</g>
		<g>
			<title>PF08240</title>
			<rect class="PF08240" x="825" y="18" stroke-linejoin="round" width="6" height="26" fill="rgb(211,65,138)" stroke="rgb(168,51,110)" stroke-width="1" opacity="0.75" />
		</g>
		<g>
			<title>PF13602</title>
			<rect class="PF13602" x="840" y="18" stroke-linejoin="round" width="13" height="26" fill="rgb(101,131,226)" stroke="rgb(80,104,180)" stroke-width="1" opacity="0.75" />
		</g>
		<g>
			<title>PF08659</title>
			<rect class="PF08659" x="855" y="18" stroke-linejoin="round" width="17" height="26" fill="rgb(66,209,188)" stroke="rgb(52,167,150)" stroke-width="1" opacity="0.75" />
		</g>
		<g>
			<title>PF00550</title>
			<rect class="PF00550" x="883" y="18" stroke-linejoin="round" width="6" height="26" fill="rgb(103,191,88)" stroke="rgb(82,152,70)" stroke-width="1" opacity="0.75" />
		</g>
		<g>
			<title>PF00109</title>
			<rect class="PF00109" x="892" y="18" stroke-linejoin="round" width="24" height="26" fill="rgb(112,116,228)" stroke="rgb(89,92,182)" stroke-width="1" opacity="0.75" />
		</g>
		<g>
			<title>PF02801</title>
			<rect class="PF02801" x="917" y="18" stroke-linejoin="round" width="11" height="26" fill="rgb(215,78,102)" stroke="rgb(172,62,81)" stroke-width="1" opacity="0.75" />
		</g>
		<g>
			<title>PF16197</title>
			<rect class="PF16197" x="929" y="18" stroke-linejoin="round" width="11" height="26" fill="rgb(68,179,89)" stroke="rgb(54,143,71)" stroke-width="1" opacity="0.75" />
		</g>
		<g>
			<title>PF00698</title>
			<rect class="PF00698" x="945" y="18" stroke-linejoin="round" width="32" height="26" fill="rgb(59,176,209)" stroke="rgb(47,140,167)" stroke-width="1" opacity="0.75" />
		</g>
		<g>
			<title>PF14765</title>
			<rect class="PF14765" x="983" y="18" stroke-linejoin="round" width="27" height="26" fill="rgb(173,56,182)" stroke="rgb(138,44,145)" stroke-width="1" opacity="0.75" />
		</g>
		<g>
			<title>PF08240</title>
			<rect class="PF08240" x="1030" y="18" stroke-linejoin="round" width="6" height="26" fill="rgb(211,65,138)" stroke="rgb(168,51,110)" stroke-width="1" opacity="0.75" />
		</g>
		<g>
			<title>PF13602</title>
			<rect class="PF13602" x="1045" y="18" stroke-linejoin="round" width="13" height="26" fill="rgb(101,131,226)" stroke="rgb(80,104,180)" stroke-width="1" opacity="0.75" />
		</g>
		<g>
			<title>PF08659</title>
			<rect class="PF08659" x="1059" y="18" stroke-linejoin="round" width="17" height="26" fill="rgb(66,209,188)" stroke="rgb(52,167,150)" stroke-width="1" opacity="0.75" />
		</g>
		<g>
			<title>PF00550</title>
			<polygon class="PF00550" points="1088,19 1094,25 1094,37 1088,43" stroke-linejoin="round" width="6" height="26" fill="rgb(103,191,88)" stroke="rgb(82,152,70)" stroke-width="1" opacity="0.75" />
		</g>
	</g>
	<g>
		<title>vstA2</title>
		<polygon class="vstA2" points="1103,16 1826,16 1826,1 1856,31 1826,61 1826,46 1103,46" fill="rgb(251,211,177)" fill-opacity="1.0" stroke="rgb(100,84,70)" stroke-width="1" />
		<g>
			<title>PF08990</title>
			<rect class="PF08990" x="1103" y="18" stroke-linejoin="round" width="2" height="26" fill="rgb(180,75,55)" stroke="rgb(144,60,44)" stroke-width="1" opacity="0.75" />
		</g>
		<g>
			<title>PF00109</title>
			<rect class="PF00109" x="1106" y="18" stroke-linejoin="round" width="25" height="26" fill="rgb(112,116,228)" stroke="rgb(89,92,182)" stroke-width="1" opacity="0.75" />
		</g>
		<g>
			<title>PF02801</title>
			<rect class="PF02801" x="1132" y="18" stroke-linejoin="round" width="11" height="26" fill="rgb(215,78,102)" stroke="rgb(172,62,81)" stroke-width="1" opacity="0.75" />
		</g>
		<g>
			<title>PF16197</title>
			<rect class="PF16197" x="1144" y="18" stroke-linejoin="round" width="11" height="26" fill="rgb(68,179,89)" stroke="rgb(54,143,71)" stroke-width="1" opacity="0.75" />
		</g>
		<g>
			<title>PF00698</title>
			<rect class="PF00698" x="1159" y="18" stroke-linejoin="round" width="32" height="26" fill="rgb(59,176,209)" stroke="rgb(47,140,167)" stroke-width="1" opacity="0.75" />
		</g>
		<g>
			<title>PF14765</title>
			<rect class="PF14765" x="1197" y="18" stroke-linejoin="round" width="27" height="26" fill="rgb(173,56,182)" stroke="rgb(138,44,145)" stroke-width="1" opacity="0.75" />
		</g>
		<g>
			<title>PF08659</title>
			<rect class="PF08659" x="1249" y="18" stroke-linejoin="round" width="17" height="26" fill="rgb(66,209,188)" stroke="rgb(52,167,150)" stroke-width="1" opacity="0.75" />
		</g>
		<g>
			<title>PF00550</title>
			<rect class="PF00550" x="1278" y="18" stroke-linejoin="round" width="6" height="26" fill="rgb(103,191,88)" stroke="rgb(82,152,70)" stroke-width="1" opacity="0.75" />
		</g>
		<g>
			<title>PF00109</title>
			<rect class="PF00109" x="1287" y="18" stroke-linejoin="round" width="25" height="26" fill="rgb(112,116,228)" stroke="rgb(89,92,182)" stroke-width="1" opacity="0.75" />
		</g>
		<g>
			<title>PF02801</title>
			<rect class="PF02801" x="1313" y="18" stroke-linejoin="round" width="11" height="26" fill="rgb(215,78,102)" stroke="rgb(172,62,81)" stroke-width="1" opacity="0.75" />
		</g>
		<g>
			<title>PF16197</title>
			<rect class="PF16197" x="1325" y="18" stroke-linejoin="round" width="11" height="26" fill="rgb(68,179,89)" stroke="rgb(54,143,71)" stroke-width="1" opacity="0.75" />
		</g>
		<g>
			<title>PF00698</title>
			<rect class="PF00698" x="1341" y="18" stroke-linejoin="round" width="32" height="26" fill="rgb(59,176,209)" stroke="rgb(47,140,167)" stroke-width="1" opacity="0.75" />
		</g>
		<g>
			<title>PF14765</title>
			<rect class="PF14765" x="1378" y="18" stroke-linejoin="round" width="27" height="26" fill="rgb(173,56,182)" stroke="rgb(138,44,145)" stroke-width="1" opacity="0.75" />
		</g>
		<g>
			<title>PF08240</title>
			<rect class="PF08240" x="1425" y="18" stroke-linejoin="round" width="6" height="26" fill="rgb(211,65,138)" stroke="rgb(168,51,110)" stroke-width="1" opacity="0.75" />
		</g>
		<g>
			<title>PF13602</title>
			<rect class="PF13602" x="1440" y="18" stroke-linejoin="round" width="13" height="26" fill="rgb(101,131,226)" stroke="rgb(80,104,180)" stroke-width="1" opacity="0.75" />
		</g>
		<g>
			<title>PF08659</title>
			<rect class="PF08659" x="1454" y="18" stroke-linejoin="round" width="17" height="26" fill="rgb(66,209,188)" stroke="rgb(52,167,150)" stroke-width="1" opacity="0.75" />
		</g>
		<g>
			<title>PF00550</title>
			<rect class="PF00550" x="1483" y="18" stroke-linejoin="round" width="6" height="26" fill="rgb(103,191,88)" stroke="rgb(82,152,70)" stroke-width="1" opacity="0.75" />
		</g>
		<g>
			<title>PF00109</title>
			<rect class="PF00109" x="1492" y="18" stroke-linejoin="round" width="25" height="26" fill="rgb(112,116,228)" stroke="rgb(89,92,182)" stroke-width="1" opacity="0.75" />
		</g>
		<g>
			<title>PF02801</title>
			<rect class="PF02801" x="1518" y="18" stroke-linejoin="round" width="11" height="26" fill="rgb(215,78,102)" stroke="rgb(172,62,81)" stroke-width="1" opacity="0.75" />
		</g>
		<g>
			<title>PF16197</title>
			<rect class="PF16197" x="1530" y="18" stroke-linejoin="round" width="11" height="26" fill="rgb(68,179,89)" stroke="rgb(54,143,71)" stroke-width="1" opacity="0.75" />
		</g>
		<g>
			<title>PF00698</title>
			<rect class="PF00698" x="1551" y="18" stroke-linejoin="round" width="32" height="26" fill="rgb(59,176,209)" stroke="rgb(47,140,167)" stroke-width="1" opacity="0.75" />
		</g>
		<g>
			<title>PF14765</title>
			<rect class="PF14765" x="1588" y="18" stroke-linejoin="round" width="28" height="26" fill="rgb(173,56,182)" stroke="rgb(138,44,145)" stroke-width="1" opacity="0.75" />
		</g>
		<g>
			<title>PF08659</title>
			<rect class="PF08659" x="1638" y="18" stroke-linejoin="round" width="17" height="26" fill="rgb(66,209,188)" stroke="rgb(52,167,150)" stroke-width="1" opacity="0.75" />
		</g>
		<g>
			<title>PF00550</title>
			<rect class="PF00550" x="1667" y="18" stroke-linejoin="round" width="6" height="26" fill="rgb(103,191,88)" stroke="rgb(82,152,70)" stroke-width="1" opacity="0.75" />
		</g>
		<g>
			<title>PF00109</title>
			<rect class="PF00109" x="1675" y="18" stroke-linejoin="round" width="25" height="26" fill="rgb(112,116,228)" stroke="rgb(89,92,182)" stroke-width="1" opacity="0.75" />
		</g>
		<g>
			<title>PF02801</title>
			<rect class="PF02801" x="1701" y="18" stroke-linejoin="round" width="11" height="26" fill="rgb(215,78,102)" stroke="rgb(172,62,81)" stroke-width="1" opacity="0.75" />
		</g>
		<g>
			<title>PF16197</title>
			<rect class="PF16197" x="1713" y="18" stroke-linejoin="round" width="11" height="26" fill="rgb(68,179,89)" stroke="rgb(54,143,71)" stroke-width="1" opacity="0.75" />
		</g>
		<g>
			<title>PF00698</title>
			<rect class="PF00698" x="1729" y="18" stroke-linejoin="round" width="32" height="26" fill="rgb(59,176,209)" stroke="rgb(47,140,167)" stroke-width="1" opacity="0.75" />
		</g>
		<g>
			<title>PF14765</title>
			<rect class="PF14765" x="1766" y="18" stroke-linejoin="round" width="27" height="26" fill="rgb(173,56,182)" stroke="rgb(138,44,145)" stroke-width="1" opacity="0.75" />
		</g>
		<g>
			<title>PF08659</title>
			<rect class="PF08659" x="1810" y="18" stroke-linejoin="round" width="17" height="26" fill="rgb(66,209,188)" stroke="rgb(52,167,150)" stroke-width="1" opacity="0.75" />
		</g>
		<g>
			<title>PF00550</title>
			<polygon class="PF00550" points="1839,18 1840,18 1845,23 1845,39 1840,44 1839,44" stroke-linejoin="round" width="6" height="26" fill="rgb(103,191,88)" stroke="rgb(82,152,70)" stroke-width="1" opacity="0.75" />
		</g>
	</g>
</svg>
