<svg version="1.1" baseProfile="full" xmlns="http://www.w3.org/2000/svg" width="317" height="62">
	<line x1="1" y1="31" x2="316" y2="31" style="stroke:rgb(50,50,50); stroke-width:3 "/>
	<g>
		<title>acbE</title>
		<polygon class="acbE" points="10,16 34,16 34,1 64,31 34,61 34,46 10,46" fill="rgb(213,251,211)" fill-opacity="1.0" stroke="rgb(85,100,84)" stroke-width="1" />
	</g>
	<g>
		<title>acbD</title>
		<polygon class="acbD" points="64,16 130,16 130,1 160,31 130,61 130,46 64,46" fill="rgb(204,253,194)" fill-opacity="1.0" stroke="rgb(81,101,77)" stroke-width="1" />
		<g>
			<title>PF00535</title>
			<rect class="PF00535" x="80" y="18" stroke-linejoin="round" width="19" height="26" fill="rgb(224,122,96)" stroke="rgb(179,97,76)" stroke-width="1" opacity="0.75" />
		</g>
		<g>
			<title>PF00535</title>
			<rect class="PF00535" x="108" y="18" stroke-linejoin="round" width="15" height="26" fill="rgb(224,122,96)" stroke="rgb(179,97,76)" stroke-width="1" opacity="0.75" />
		</g>
	</g>
	<g>
		<title>acbG</title>
		<polygon class="acbG" points="166,16 166,16 166,1 183,31 166,61 166,46 166,46" fill="rgb(243,253,198)" fill-opacity="1.0" stroke="rgb(97,101,79)" stroke-width="1" />
	</g>
	<g>
		<title>acbH</title>
		<polygon class="acbH" points="185,16 185,16 185,1 196,31 185,61 185,46 185,46" fill="rgb(254,239,207)" fill-opacity="1.0" stroke="rgb(101,95,82)" stroke-width="1" />
	</g>
	<g>
		<title>acbC</title>
		<polygon class="acbC" points="200,16 209,16 209,1 239,31 209,61 209,46 200,46" fill="rgb(194,184,252)" fill-opacity="1.0" stroke="rgb(77,73,100)" stroke-width="1" />
		<g>
			<title>PF03721</title>
			<rect class="PF03721" x="200" y="18" stroke-linejoin="round" width="17" height="26" fill="rgb(156,194,58)" stroke="rgb(124,155,46)" stroke-width="1" opacity="0.75" />
		</g>
		<g>
			<title>PF00984</title>
			<polygon class="PF00984" points="219,18 223,18 228,23 228,39 223,44 219,44" stroke-linejoin="round" width="9" height="26" fill="rgb(69,189,184)" stroke="rgb(55,151,147)" stroke-width="1" opacity="0.75" />
		</g>
		<g>
			<title>PF03720</title>
			<polygon class="PF03720" points="230,25 236,31 230,37" stroke-linejoin="round" width="8" height="26" fill="rgb(221,130,74)" stroke="rgb(176,103,59)" stroke-width="1" opacity="0.75" />
		</g>
	</g>
	<g>
		<title>acbB</title>
		<polygon class="acbB" points="238,16 257,16 257,1 287,31 257,61 257,46 238,46" fill="rgb(202,252,183)" fill-opacity="1.0" stroke="rgb(80,100,73)" stroke-width="1" />
		<g>
			<title>PF00535</title>
			<polygon class="PF00535" points="260,18 271,18 276,23 276,39 271,44 260,44" stroke-linejoin="round" width="16" height="26" fill="rgb(224,122,96)" stroke="rgb(179,97,76)" stroke-width="1" opacity="0.75" />
		</g>
	</g>
</svg>
