<svg version="1.1" baseProfile="full" xmlns="http://www.w3.org/2000/svg" width="826" height="62">
	<line x1="1" y1="31" x2="825" y2="31" style="stroke:rgb(50,50,50); stroke-width:3 "/>
	<g>
		<title>tchmGT4</title>
		<polygon class="tchmGT4" points="450,16 459,16 459,1 489,31 459,61 459,46 450,46" fill="rgb(190,250,190)" fill-opacity="1.0" stroke="rgb(76,100,76)" stroke-width="1" />
	</g>
	<g>
		<title>tchmM5</title>
		<polygon class="tchmM5" points="489,16 512,16 512,1 542,31 512,61 512,46 489,46" fill="rgb(254,204,227)" fill-opacity="1.0" stroke="rgb(101,81,90)" stroke-width="1" />
		<g>
			<title>PF02543</title>
			<rect class="PF02543" x="489" y="18" stroke-linejoin="round" width="6" height="26" fill="rgb(146,218,61)" stroke="rgb(116,174,48)" stroke-width="1" opacity="0.75" />
		</g>
		<g>
			<title>PF02543</title>
			<rect class="PF02543" x="497" y="18" stroke-linejoin="round" width="22" height="26" fill="rgb(146,218,61)" stroke="rgb(116,174,48)" stroke-width="1" opacity="0.75" />
		</g>
		<g>
			<title>PF16861</title>
			<polygon class="PF16861" points="524,18 526,18 539,31 526,44 524,44" stroke-linejoin="round" width="16" height="26" fill="rgb(183,87,154)" stroke="rgb(146,69,123)" stroke-width="1" opacity="0.75" />
		</g>
	</g>
	<g>
		<title>tchmN5</title>
		<polygon class="tchmN5" points="542,16 542,16 542,1 571,31 542,61 542,46 542,46" fill="rgb(231,213,253)" fill-opacity="1.0" stroke="rgb(92,85,101)" stroke-width="1" />
	</g>
	<g>
		<title>tchmH5</title>
		<polygon class="tchmH5" points="571,16 605,16 605,1 635,31 605,61 605,46 571,46" fill="rgb(253,239,184)" fill-opacity="1.0" stroke="rgb(101,95,73)" stroke-width="1" />
		<g>
			<title>PF13537</title>
			<rect class="PF13537" x="575" y="18" stroke-linejoin="round" width="11" height="26" fill="rgb(200,63,57)" stroke="rgb(160,50,45)" stroke-width="1" opacity="0.75" />
		</g>
		<g>
			<title>PF00733</title>
			<polygon class="PF00733" points="594,18 619,18 632,31 632,31 619,44 594,44" stroke-linejoin="round" width="38" height="26" fill="rgb(97,201,176)" stroke="rgb(77,160,140)" stroke-width="1" opacity="0.75" />
		</g>
	</g>
	<g>
		<title>tchmGT2</title>
		<polygon class="tchmGT2" points="634,16 634,16 634,1 660,31 634,61 634,46 634,46" fill="rgb(235,252,208)" fill-opacity="1.0" stroke="rgb(93,100,83)" stroke-width="1" />
		<g>
			<title>PF00535</title>
			<polygon class="PF00535" points="634,18 646,18 650,23 650,39 646,44 634,44" stroke-linejoin="round" width="16" height="26" fill="rgb(224,122,96)" stroke="rgb(179,97,76)" stroke-width="1" opacity="0.75" />
		</g>
	</g>
	<g>
		<title>tchmGT3</title>
		<polygon class="tchmGT3" points="661,16 675,16 675,1 705,31 675,61 675,46 661,46" fill="rgb(253,198,182)" fill-opacity="1.0" stroke="rgb(101,79,72)" stroke-width="1" />
		<g>
			<title>PF00535</title>
			<polygon class="PF00535" points="677,18 689,18 692,21 692,41 689,44 677,44" stroke-linejoin="round" width="15" height="26" fill="rgb(224,122,96)" stroke="rgb(179,97,76)" stroke-width="1" opacity="0.75" />
		</g>
	</g>
	<g>
		<title>tchmZ</title>
		<polygon class="tchmZ" points="708,16 714,16 714,1 744,31 714,61 714,46 708,46" fill="rgb(254,217,206)" fill-opacity="1.0" stroke="rgb(101,86,82)" stroke-width="1" />
		<g>
			<title>PF00348</title>
			<polygon class="PF00348" points="712,18 728,18 738,28 738,34 728,44 712,44" stroke-linejoin="round" width="26" height="26" fill="rgb(61,206,65)" stroke="rgb(48,164,52)" stroke-width="1" opacity="0.75" />
		</g>
	</g>
	<g>
		<title>tchmX5</title>
		<polygon class="tchmX5" points="769,16 769,16 769,1 746,31 769,61 769,46 769,46" fill="rgb(250,227,195)" fill-opacity="1.0" stroke="rgb(100,90,78)" stroke-width="1" />
	</g>
	<g>
		<title>tchmP5</title>
		<polygon class="tchmP5" points="792,16 792,16 792,1 769,31 792,61 792,46 792,46" fill="rgb(251,197,237)" fill-opacity="1.0" stroke="rgb(100,78,94)" stroke-width="1" />
		<g>
			<title>PF00005</title>
			<polygon class="PF00005" points="774,27 781,18 787,18 787,44 781,44 774,34" stroke-linejoin="round" width="13" height="26" fill="rgb(129,201,63)" stroke="rgb(103,160,50)" stroke-width="1" opacity="0.75" />
		</g>
	</g>
	<g>
		<title>tchmD5</title>
		<polygon class="tchmD5" points="82,16 54,16 54,1 24,31 54,61 54,46 82,46" fill="rgb(252,194,192)" fill-opacity="1.0" stroke="rgb(100,77,76)" stroke-width="1" />
		<g>
			<title>PF00005</title>
			<polygon class="PF00005" points="31,26 39,18 45,18 45,44 39,44 31,35" stroke-linejoin="round" width="14" height="26" fill="rgb(129,201,63)" stroke="rgb(103,160,50)" stroke-width="1" opacity="0.75" />
		</g>
		<g>
			<title>PF00664</title>
			<rect class="PF00664" x="53" y="18" stroke-linejoin="round" width="26" height="26" fill="rgb(149,226,73)" stroke="rgb(119,180,58)" stroke-width="1" opacity="0.75" />
		</g>
	</g>
	<g>
		<title>tchmJ5</title>
		<polygon class="tchmJ5" points="140,16 112,16 112,1 82,31 112,61 112,46 140,46" fill="rgb(252,208,202)" fill-opacity="1.0" stroke="rgb(100,83,80)" stroke-width="1" />
		<g>
			<title>PF00005</title>
			<polygon class="PF00005" points="89,26 97,18 103,18 103,44 97,44 89,35" stroke-linejoin="round" width="14" height="26" fill="rgb(129,201,63)" stroke="rgb(103,160,50)" stroke-width="1" opacity="0.75" />
		</g>
		<g>
			<title>PF00664</title>
			<rect class="PF00664" x="120" y="18" stroke-linejoin="round" width="17" height="26" fill="rgb(149,226,73)" stroke="rgb(119,180,58)" stroke-width="1" opacity="0.75" />
		</g>
	</g>
	<g>
		<title>tchmE5</title>
		<polygon class="tchmE5" points="160,16 161,16 161,1 191,31 161,61 161,46 160,46" fill="rgb(254,214,217)" fill-opacity="1.0" stroke="rgb(101,85,86)" stroke-width="1" />
		<g>
			<title>PF01370</title>
			<polygon class="PF01370" points="161,18 175,18 183,26 183,36 175,44 161,44" stroke-linejoin="round" width="22" height="26" fill="rgb(98,102,214)" stroke="rgb(78,81,171)" stroke-width="1" opacity="0.75" />
		</g>
	</g>
	<g>
		<title>tchmF5</title>
		<polygon class="tchmF5" points="192,16 226,16 226,1 256,31 226,61 226,46 192,46" fill="rgb(253,195,224)" fill-opacity="1.0" stroke="rgb(101,78,89)" stroke-width="1" />
		<g>
			<title>PF13537</title>
			<rect class="PF13537" x="196" y="18" stroke-linejoin="round" width="11" height="26" fill="rgb(200,63,57)" stroke="rgb(160,50,45)" stroke-width="1" opacity="0.75" />
		</g>
		<g>
			<title>PF00733</title>
			<polygon class="PF00733" points="216,18 240,18 253,31 240,44 216,44" stroke-linejoin="round" width="38" height="26" fill="rgb(97,201,176)" stroke="rgb(77,160,140)" stroke-width="1" opacity="0.75" />
		</g>
	</g>
	<g>
		<title>tchmGT1</title>
		<polygon class="tchmGT1" points="256,16 267,16 267,1 297,31 267,61 267,46 256,46" fill="rgb(201,250,193)" fill-opacity="1.0" stroke="rgb(80,100,77)" stroke-width="1" />
	</g>
	<g>
		<title>tchmY</title>
		<polygon class="tchmY" points="298,16 302,16 302,1 332,31 302,61 302,46 298,46" fill="rgb(254,196,220)" fill-opacity="1.0" stroke="rgb(101,78,88)" stroke-width="1" />
	</g>
	<g>
		<title>tchmO5</title>
		<polygon class="tchmO5" points="332,16 332,16 332,1 359,31 332,61 332,46 332,46" fill="rgb(252,235,181)" fill-opacity="1.0" stroke="rgb(100,93,72)" stroke-width="1" />
		<g>
			<title>PF01884</title>
			<polygon class="PF01884" points="334,18 344,18 356,31 344,44 334,44" stroke-linejoin="round" width="23" height="26" fill="rgb(118,57,187)" stroke="rgb(94,45,149)" stroke-width="1" opacity="0.75" />
		</g>
	</g>
	<g>
		<title>tchmK5</title>
		<polygon class="tchmK5" points="360,16 380,16 380,1 410,31 380,61 380,46 360,46" fill="rgb(208,185,250)" fill-opacity="1.0" stroke="rgb(83,73,100)" stroke-width="1" />
		<g>
			<title>PF02310</title>
			<rect class="PF02310" x="366" y="18" stroke-linejoin="round" width="11" height="26" fill="rgb(145,190,60)" stroke="rgb(115,152,48)" stroke-width="1" opacity="0.75" />
		</g>
		<g>
			<title>PF04055</title>
			<polygon class="PF04055" points="383,18 394,18 399,23 399,39 394,44 383,44" stroke-linejoin="round" width="16" height="26" fill="rgb(149,56,222)" stroke="rgb(119,44,177)" stroke-width="1" opacity="0.75" />
		</g>
	</g>
	<g>
		<title>tchmGT5</title>
		<polygon class="tchmGT5" points="419,16 420,16 420,1 450,31 420,61 420,46 419,46" fill="rgb(251,242,194)" fill-opacity="1.0" stroke="rgb(100,96,77)" stroke-width="1" />
	</g>
</svg>
