<svg version="1.1" baseProfile="full" xmlns="http://www.w3.org/2000/svg" width="2228" height="62">
	<line x1="1" y1="31" x2="2227" y2="31" style="stroke:rgb(50,50,50); stroke-width:3 "/>
	<g>
		<title>stiB</title>
		<polygon class="stiB" points="716,16 844,16 844,1 874,31 844,61 844,46 716,46" fill="rgb(195,253,235)" fill-opacity="1.0" stroke="rgb(78,101,93)" stroke-width="1" />
		<g>
			<title>PF00109</title>
			<rect class="PF00109" x="719" y="18" stroke-linejoin="round" width="25" height="26" fill="rgb(112,116,228)" stroke="rgb(89,92,182)" stroke-width="1" opacity="0.75" />
		</g>
		<g>
			<title>PF02801</title>
			<rect class="PF02801" x="744" y="18" stroke-linejoin="round" width="11" height="26" fill="rgb(215,78,102)" stroke="rgb(172,62,81)" stroke-width="1" opacity="0.75" />
		</g>
		<g>
			<title>PF16197</title>
			<rect class="PF16197" x="757" y="18" stroke-linejoin="round" width="11" height="26" fill="rgb(68,179,89)" stroke="rgb(54,143,71)" stroke-width="1" opacity="0.75" />
		</g>
		<g>
			<title>PF00698</title>
			<rect class="PF00698" x="772" y="18" stroke-linejoin="round" width="31" height="26" fill="rgb(59,176,209)" stroke="rgb(47,140,167)" stroke-width="1" opacity="0.75" />
		</g>
		<g>
			<title>PF08659</title>
			<rect class="PF08659" x="833" y="18" stroke-linejoin="round" width="17" height="26" fill="rgb(66,209,188)" stroke="rgb(52,167,150)" stroke-width="1" opacity="0.75" />
		</g>
		<g>
			<title>PF00550</title>
			<polygon class="PF00550" points="862,22 868,28 868,34 862,40" stroke-linejoin="round" width="6" height="26" fill="rgb(103,191,88)" stroke="rgb(82,152,70)" stroke-width="1" opacity="0.75" />
		</g>
	</g>
	<g>
		<title>stiC</title>
		<polygon class="stiC" points="877,16 1035,16 1035,1 1065,31 1035,61 1035,46 877,46" fill="rgb(188,189,252)" fill-opacity="1.0" stroke="rgb(75,75,100)" stroke-width="1" />
		<g>
			<title>PF00109</title>
			<rect class="PF00109" x="878" y="18" stroke-linejoin="round" width="25" height="26" fill="rgb(112,116,228)" stroke="rgb(89,92,182)" stroke-width="1" opacity="0.75" />
		</g>
		<g>
			<title>PF02801</title>
			<rect class="PF02801" x="904" y="18" stroke-linejoin="round" width="11" height="26" fill="rgb(215,78,102)" stroke="rgb(172,62,81)" stroke-width="1" opacity="0.75" />
		</g>
		<g>
			<title>PF16197</title>
			<rect class="PF16197" x="916" y="18" stroke-linejoin="round" width="12" height="26" fill="rgb(68,179,89)" stroke="rgb(54,143,71)" stroke-width="1" opacity="0.75" />
		</g>
		<g>
			<title>PF00698</title>
			<rect class="PF00698" x="932" y="18" stroke-linejoin="round" width="31" height="26" fill="rgb(59,176,209)" stroke="rgb(47,140,167)" stroke-width="1" opacity="0.75" />
		</g>
		<g>
			<title>PF14765</title>
			<rect class="PF14765" x="969" y="18" stroke-linejoin="round" width="29" height="26" fill="rgb(173,56,182)" stroke="rgb(138,44,145)" stroke-width="1" opacity="0.75" />
		</g>
		<g>
			<title>PF08659</title>
			<rect class="PF08659" x="1024" y="18" stroke-linejoin="round" width="17" height="26" fill="rgb(66,209,188)" stroke="rgb(52,167,150)" stroke-width="1" opacity="0.75" />
		</g>
		<g>
			<title>PF00550</title>
			<polygon class="PF00550" points="1052,21 1058,27 1058,35 1052,41" stroke-linejoin="round" width="6" height="26" fill="rgb(103,191,88)" stroke="rgb(82,152,70)" stroke-width="1" opacity="0.75" />
		</g>
	</g>
	<g>
		<title>stiD</title>
		<polygon class="stiD" points="1065,16 1228,16 1228,1 1258,31 1228,61 1228,46 1065,46" fill="rgb(209,250,237)" fill-opacity="1.0" stroke="rgb(83,100,94)" stroke-width="1" />
		<g>
			<title>PF00109</title>
			<rect class="PF00109" x="1068" y="18" stroke-linejoin="round" width="25" height="26" fill="rgb(112,116,228)" stroke="rgb(89,92,182)" stroke-width="1" opacity="0.75" />
		</g>
		<g>
			<title>PF02801</title>
			<rect class="PF02801" x="1095" y="18" stroke-linejoin="round" width="11" height="26" fill="rgb(215,78,102)" stroke="rgb(172,62,81)" stroke-width="1" opacity="0.75" />
		</g>
		<g>
			<title>PF16197</title>
			<rect class="PF16197" x="1107" y="18" stroke-linejoin="round" width="12" height="26" fill="rgb(68,179,89)" stroke="rgb(54,143,71)" stroke-width="1" opacity="0.75" />
		</g>
		<g>
			<title>PF00698</title>
			<rect class="PF00698" x="1123" y="18" stroke-linejoin="round" width="31" height="26" fill="rgb(59,176,209)" stroke="rgb(47,140,167)" stroke-width="1" opacity="0.75" />
		</g>
		<g>
			<title>PF08242</title>
			<rect class="PF08242" x="1168" y="18" stroke-linejoin="round" width="9" height="26" fill="rgb(187,59,115)" stroke="rgb(149,47,92)" stroke-width="1" opacity="0.75" />
		</g>
		<g>
			<title>PF08659</title>
			<rect class="PF08659" x="1216" y="18" stroke-linejoin="round" width="19" height="26" fill="rgb(66,209,188)" stroke="rgb(52,167,150)" stroke-width="1" opacity="0.75" />
		</g>
		<g>
			<title>PF00550</title>
			<polygon class="PF00550" points="1246,22 1252,28 1252,34 1246,40" stroke-linejoin="round" width="6" height="26" fill="rgb(103,191,88)" stroke="rgb(82,152,70)" stroke-width="1" opacity="0.75" />
		</g>
	</g>
	<g>
		<title>stiE</title>
		<polygon class="stiE" points="1258,16 1421,16 1421,1 1451,31 1421,61 1421,46 1258,46" fill="rgb(182,203,253)" fill-opacity="1.0" stroke="rgb(72,81,101)" stroke-width="1" />
		<g>
			<title>PF00109</title>
			<rect class="PF00109" x="1261" y="18" stroke-linejoin="round" width="25" height="26" fill="rgb(112,116,228)" stroke="rgb(89,92,182)" stroke-width="1" opacity="0.75" />
		</g>
		<g>
			<title>PF02801</title>
			<rect class="PF02801" x="1287" y="18" stroke-linejoin="round" width="11" height="26" fill="rgb(215,78,102)" stroke="rgb(172,62,81)" stroke-width="1" opacity="0.75" />
		</g>
		<g>
			<title>PF16197</title>
			<rect class="PF16197" x="1299" y="18" stroke-linejoin="round" width="11" height="26" fill="rgb(68,179,89)" stroke="rgb(54,143,71)" stroke-width="1" opacity="0.75" />
		</g>
		<g>
			<title>PF00698</title>
			<rect class="PF00698" x="1314" y="18" stroke-linejoin="round" width="31" height="26" fill="rgb(59,176,209)" stroke="rgb(47,140,167)" stroke-width="1" opacity="0.75" />
		</g>
		<g>
			<title>PF08242</title>
			<rect class="PF08242" x="1361" y="18" stroke-linejoin="round" width="9" height="26" fill="rgb(187,59,115)" stroke="rgb(149,47,92)" stroke-width="1" opacity="0.75" />
		</g>
		<g>
			<title>PF08659</title>
			<rect class="PF08659" x="1410" y="18" stroke-linejoin="round" width="17" height="26" fill="rgb(66,209,188)" stroke="rgb(52,167,150)" stroke-width="1" opacity="0.75" />
		</g>
		<g>
			<title>PF00550</title>
			<polygon class="PF00550" points="1438,21 1444,27 1444,35 1438,41" stroke-linejoin="round" width="6" height="26" fill="rgb(103,191,88)" stroke="rgb(82,152,70)" stroke-width="1" opacity="0.75" />
		</g>
	</g>
	<g>
		<title>stiF</title>
		<polygon class="stiF" points="1452,16 1643,16 1643,1 1673,31 1643,61 1643,46 1452,46" fill="rgb(203,197,250)" fill-opacity="1.0" stroke="rgb(81,78,100)" stroke-width="1" />
		<g>
			<title>PF00109</title>
			<rect class="PF00109" x="1454" y="18" stroke-linejoin="round" width="25" height="26" fill="rgb(112,116,228)" stroke="rgb(89,92,182)" stroke-width="1" opacity="0.75" />
		</g>
		<g>
			<title>PF02801</title>
			<rect class="PF02801" x="1480" y="18" stroke-linejoin="round" width="11" height="26" fill="rgb(215,78,102)" stroke="rgb(172,62,81)" stroke-width="1" opacity="0.75" />
		</g>
		<g>
			<title>PF16197</title>
			<rect class="PF16197" x="1492" y="18" stroke-linejoin="round" width="10" height="26" fill="rgb(68,179,89)" stroke="rgb(54,143,71)" stroke-width="1" opacity="0.75" />
		</g>
		<g>
			<title>PF00698</title>
			<rect class="PF00698" x="1507" y="18" stroke-linejoin="round" width="31" height="26" fill="rgb(59,176,209)" stroke="rgb(47,140,167)" stroke-width="1" opacity="0.75" />
		</g>
		<g>
			<title>PF14765</title>
			<rect class="PF14765" x="1543" y="18" stroke-linejoin="round" width="29" height="26" fill="rgb(173,56,182)" stroke="rgb(138,44,145)" stroke-width="1" opacity="0.75" />
		</g>
		<g>
			<title>PF08240</title>
			<rect class="PF08240" x="1601" y="18" stroke-linejoin="round" width="8" height="26" fill="rgb(211,65,138)" stroke="rgb(168,51,110)" stroke-width="1" opacity="0.75" />
		</g>
		<g>
			<title>PF00107</title>
			<rect class="PF00107" x="1613" y="18" stroke-linejoin="round" width="13" height="26" fill="rgb(81,108,215)" stroke="rgb(64,86,172)" stroke-width="1" opacity="0.75" />
		</g>
		<g>
			<title>PF08659</title>
			<rect class="PF08659" x="1633" y="18" stroke-linejoin="round" width="17" height="26" fill="rgb(66,209,188)" stroke="rgb(52,167,150)" stroke-width="1" opacity="0.75" />
		</g>
		<g>
			<title>PF00550</title>
			<polygon class="PF00550" points="1661,22 1667,28 1667,34 1661,40" stroke-linejoin="round" width="6" height="26" fill="rgb(103,191,88)" stroke="rgb(82,152,70)" stroke-width="1" opacity="0.75" />
		</g>
	</g>
	<g>
		<title>stiG</title>
		<polygon class="stiG" points="1674,16 1783,16 1783,1 1813,31 1783,61 1783,46 1674,46" fill="rgb(213,182,254)" fill-opacity="1.0" stroke="rgb(85,72,101)" stroke-width="1" />
		<g>
			<title>PF00109</title>
			<rect class="PF00109" x="1677" y="18" stroke-linejoin="round" width="25" height="26" fill="rgb(112,116,228)" stroke="rgb(89,92,182)" stroke-width="1" opacity="0.75" />
		</g>
		<g>
			<title>PF02801</title>
			<rect class="PF02801" x="1703" y="18" stroke-linejoin="round" width="11" height="26" fill="rgb(215,78,102)" stroke="rgb(172,62,81)" stroke-width="1" opacity="0.75" />
		</g>
		<g>
			<title>PF16197</title>
			<rect class="PF16197" x="1715" y="18" stroke-linejoin="round" width="12" height="26" fill="rgb(68,179,89)" stroke="rgb(54,143,71)" stroke-width="1" opacity="0.75" />
		</g>
		<g>
			<title>PF00698</title>
			<rect class="PF00698" x="1731" y="18" stroke-linejoin="round" width="31" height="26" fill="rgb(59,176,209)" stroke="rgb(47,140,167)" stroke-width="1" opacity="0.75" />
		</g>
		<g>
			<title>PF14765</title>
			<rect class="PF14765" x="1768" y="18" stroke-linejoin="round" width="29" height="26" fill="rgb(173,56,182)" stroke="rgb(138,44,145)" stroke-width="1" opacity="0.75" />
		</g>
		<g>
			<title>PF00550</title>
			<polygon class="PF00550" points="1801,22 1807,28 1807,34 1801,40" stroke-linejoin="round" width="6" height="26" fill="rgb(103,191,88)" stroke="rgb(82,152,70)" stroke-width="1" opacity="0.75" />
		</g>
	</g>
	<g>
		<title>stiH</title>
		<polygon class="stiH" points="1814,16 1944,16 1944,1 1974,31 1944,61 1944,46 1814,46" fill="rgb(207,213,253)" fill-opacity="1.0" stroke="rgb(82,85,101)" stroke-width="1" />
		<g>
			<title>PF00109</title>
			<rect class="PF00109" x="1817" y="18" stroke-linejoin="round" width="25" height="26" fill="rgb(112,116,228)" stroke="rgb(89,92,182)" stroke-width="1" opacity="0.75" />
		</g>
		<g>
			<title>PF02801</title>
			<rect class="PF02801" x="1843" y="18" stroke-linejoin="round" width="11" height="26" fill="rgb(215,78,102)" stroke="rgb(172,62,81)" stroke-width="1" opacity="0.75" />
		</g>
		<g>
			<title>PF16197</title>
			<rect class="PF16197" x="1855" y="18" stroke-linejoin="round" width="11" height="26" fill="rgb(68,179,89)" stroke="rgb(54,143,71)" stroke-width="1" opacity="0.75" />
		</g>
		<g>
			<title>PF00698</title>
			<rect class="PF00698" x="1870" y="18" stroke-linejoin="round" width="32" height="26" fill="rgb(59,176,209)" stroke="rgb(47,140,167)" stroke-width="1" opacity="0.75" />
		</g>
		<g>
			<title>PF08659</title>
			<rect class="PF08659" x="1933" y="18" stroke-linejoin="round" width="18" height="26" fill="rgb(66,209,188)" stroke="rgb(52,167,150)" stroke-width="1" opacity="0.75" />
		</g>
		<g>
			<title>PF00550</title>
			<polygon class="PF00550" points="1962,22 1968,28 1968,34 1962,40" stroke-linejoin="round" width="6" height="26" fill="rgb(103,191,88)" stroke="rgb(82,152,70)" stroke-width="1" opacity="0.75" />
		</g>
	</g>
	<g>
		<title>stiJ</title>
		<polygon class="stiJ" points="1975,16 2071,16 2071,1 2101,31 2071,61 2071,46 1975,46" fill="rgb(210,251,251)" fill-opacity="1.0" stroke="rgb(84,100,100)" stroke-width="1" />
		<g>
			<title>PF00109</title>
			<rect class="PF00109" x="1978" y="18" stroke-linejoin="round" width="24" height="26" fill="rgb(112,116,228)" stroke="rgb(89,92,182)" stroke-width="1" opacity="0.75" />
		</g>
		<g>
			<title>PF02801</title>
			<rect class="PF02801" x="2004" y="18" stroke-linejoin="round" width="11" height="26" fill="rgb(215,78,102)" stroke="rgb(172,62,81)" stroke-width="1" opacity="0.75" />
		</g>
		<g>
			<title>PF16197</title>
			<rect class="PF16197" x="2016" y="18" stroke-linejoin="round" width="11" height="26" fill="rgb(68,179,89)" stroke="rgb(54,143,71)" stroke-width="1" opacity="0.75" />
		</g>
		<g>
			<title>PF00698</title>
			<rect class="PF00698" x="2031" y="18" stroke-linejoin="round" width="31" height="26" fill="rgb(59,176,209)" stroke="rgb(47,140,167)" stroke-width="1" opacity="0.75" />
		</g>
		<g>
			<title>PF00550</title>
			<rect class="PF00550" x="2071" y="18" stroke-linejoin="round" width="6" height="26" fill="rgb(103,191,88)" stroke="rgb(82,152,70)" stroke-width="1" opacity="0.75" />
		</g>
		<g>
			<title>PF13924</title>
			<polygon class="PF13924" points="2087,20 2098,31 2087,42" stroke-linejoin="round" width="13" height="26" fill="rgb(187,88,47)" stroke="rgb(149,70,37)" stroke-width="1" opacity="0.75" />
		</g>
	</g>
	<g>
		<title>stiK</title>
		<polygon class="stiK" points="2103,16 2103,16 2103,1 2128,31 2103,61 2103,46 2103,46" fill="rgb(224,200,253)" fill-opacity="1.0" stroke="rgb(89,80,101)" stroke-width="1" />
		<g>
			<title>PF08241</title>
			<polygon class="PF08241" points="2108,18 2114,18 2117,21 2117,41 2114,44 2108,44" stroke-linejoin="round" width="9" height="26" fill="rgb(106,219,159)" stroke="rgb(84,175,127)" stroke-width="1" opacity="0.75" />
		</g>
	</g>
	<g>
		<title>stiL</title>
		<polygon class="stiL" points="2130,16 2152,16 2152,1 2182,31 2152,61 2152,46 2130,46" fill="rgb(250,185,180)" fill-opacity="1.0" stroke="rgb(100,73,72)" stroke-width="1" />
		<g>
			<title>PF01494</title>
			<rect class="PF01494" x="2130" y="18" stroke-linejoin="round" width="33" height="26" fill="rgb(182,175,59)" stroke="rgb(145,140,47)" stroke-width="1" opacity="0.75" />
		</g>
	</g>
	<g>
		<polygon class="NoName" points="207,16 196,16 196,1 166,31 196,61 196,46 207,46" fill="rgb(255,255,255)" fill-opacity="1.0" stroke="rgb(50,50,50)" stroke-width="1" />
		<g>
			<title>PF00067</title>
			<polygon class="PF00067" points="168,31 178,21 178,40" stroke-linejoin="round" width="10" height="26" fill="rgb(85,216,107)" stroke="rgb(68,172,85)" stroke-width="1" opacity="0.75" />
		</g>
		<g>
			<title>PF00067</title>
			<polygon class="PF00067" points="179,20 181,18 188,18 188,44 181,44 179,41" stroke-linejoin="round" width="9" height="26" fill="rgb(85,216,107)" stroke="rgb(68,172,85)" stroke-width="1" opacity="0.75" />
		</g>
	</g>
	<g>
		<polygon class="NoName" points="2185,16 2197,16 2197,1 2227,31 2197,61 2197,46 2185,46" fill="rgb(255,255,255)" fill-opacity="1.0" stroke="rgb(50,50,50)" stroke-width="1" />
		<g>
			<title>PF01743</title>
			<rect class="PF01743" x="2187" y="18" stroke-linejoin="round" width="12" height="26" fill="rgb(216,132,105)" stroke="rgb(172,105,84)" stroke-width="1" opacity="0.75" />
		</g>
		<g>
			<title>PF12627</title>
			<rect class="PF12627" x="2202" y="18" stroke-linejoin="round" width="6" height="26" fill="rgb(106,197,60)" stroke="rgb(84,157,47)" stroke-width="1" opacity="0.75" />
		</g>
		<g>
			<title>PF13735</title>
			<polygon class="PF13735" points="2210,18 2211,18 2224,31 2211,44 2210,44" stroke-linejoin="round" width="15" height="26" fill="rgb(198,59,118)" stroke="rgb(158,47,94)" stroke-width="1" opacity="0.75" />
		</g>
	</g>
	<g>
		<polygon class="NoName" points="213,16 228,16 228,1 258,31 228,61 228,46 213,46" fill="rgb(255,255,255)" fill-opacity="1.0" stroke="rgb(50,50,50)" stroke-width="1" />
		<g>
			<title>PF00069</title>
			<rect class="PF00069" x="214" y="18" stroke-linejoin="round" width="26" height="26" fill="rgb(104,187,65)" stroke="rgb(83,149,51)" stroke-width="1" opacity="0.75" />
		</g>
	</g>
	<g>
		<polygon class="NoName" points="286,16 286,16 286,1 262,31 286,61 286,46 286,46" fill="rgb(255,255,255)" fill-opacity="1.0" stroke="rgb(50,50,50)" stroke-width="1" />
		<g>
			<title>PF08241</title>
			<polygon class="PF08241" points="272,21 274,18 281,18 281,44 274,44 272,40" stroke-linejoin="round" width="9" height="26" fill="rgb(106,219,159)" stroke="rgb(84,175,127)" stroke-width="1" opacity="0.75" />
		</g>
	</g>
	<g>
		<polygon class="NoName" points="296,16 296,16 296,1 288,31 296,61 296,46 296,46" fill="rgb(255,255,255)" fill-opacity="1.0" stroke="rgb(50,50,50)" stroke-width="1" />
		<g>
			<title>PF00887</title>
			<polygon class="PF00887" points="290,31 293,18 296,18 296,44 293,44" stroke-linejoin="round" width="8" height="26" fill="rgb(150,185,75)" stroke="rgb(120,148,60)" stroke-width="1" opacity="0.75" />
		</g>
	</g>
	<g>
		<polygon class="NoName" points="299,16 306,16 306,1 336,31 306,61 306,46 299,46" fill="rgb(255,255,255)" fill-opacity="1.0" stroke="rgb(50,50,50)" stroke-width="1" />
		<g>
			<title>PF00248</title>
			<polygon class="PF00248" points="304,18 320,18 333,31 333,31 320,44 304,44" stroke-linejoin="round" width="29" height="26" fill="rgb(225,205,58)" stroke="rgb(180,164,46)" stroke-width="1" opacity="0.75" />
		</g>
	</g>
	<g>
		<polygon class="NoName" points="348,16 348,16 348,1 362,31 348,61 348,46 348,46" fill="rgb(255,255,255)" fill-opacity="1.0" stroke="rgb(50,50,50)" stroke-width="1" />
		<g>
			<title>PF02033</title>
			<polygon class="PF02033" points="351,18 353,18 359,31 353,44 351,44" stroke-linejoin="round" width="9" height="26" fill="rgb(221,90,110)" stroke="rgb(176,72,88)" stroke-width="1" opacity="0.75" />
		</g>
	</g>
	<g>
		<polygon class="NoName" points="362,16 370,16 370,1 400,31 370,61 370,46 362,46" fill="rgb(255,255,255)" fill-opacity="1.0" stroke="rgb(50,50,50)" stroke-width="1" />
		<g>
			<title>PF01139</title>
			<rect class="PF01139" x="364" y="18" stroke-linejoin="round" width="9" height="26" fill="rgb(183,76,169)" stroke="rgb(146,60,135)" stroke-width="1" opacity="0.75" />
		</g>
		<g>
			<title>PF01139</title>
			<polygon class="PF01139" points="374,18 384,18 397,31 384,44 374,44" stroke-linejoin="round" width="25" height="26" fill="rgb(183,76,169)" stroke="rgb(146,60,135)" stroke-width="1" opacity="0.75" />
		</g>
	</g>
	<g>
		<polygon class="NoName" points="466,16 433,16 433,1 403,31 433,61 433,46 466,46" fill="rgb(255,255,255)" fill-opacity="1.0" stroke="rgb(50,50,50)" stroke-width="1" />
		<g>
			<title>PF00150</title>
			<rect class="PF00150" x="426" y="18" stroke-linejoin="round" width="33" height="26" fill="rgb(189,82,188)" stroke="rgb(151,65,150)" stroke-width="1" opacity="0.75" />
		</g>
	</g>
	<g>
		<title>stiA</title>
		<polygon class="stiA" points="479,16 686,16 686,1 716,31 686,61 686,46 479,46" fill="rgb(252,250,181)" fill-opacity="1.0" stroke="rgb(100,100,72)" stroke-width="1" />
		<g>
			<title>PF00550</title>
			<rect class="PF00550" x="479" y="18" stroke-linejoin="round" width="6" height="26" fill="rgb(103,191,88)" stroke="rgb(82,152,70)" stroke-width="1" opacity="0.75" />
		</g>
		<g>
			<title>PF00109</title>
			<rect class="PF00109" x="487" y="18" stroke-linejoin="round" width="24" height="26" fill="rgb(112,116,228)" stroke="rgb(89,92,182)" stroke-width="1" opacity="0.75" />
		</g>
		<g>
			<title>PF02801</title>
			<rect class="PF02801" x="513" y="18" stroke-linejoin="round" width="11" height="26" fill="rgb(215,78,102)" stroke="rgb(172,62,81)" stroke-width="1" opacity="0.75" />
		</g>
		<g>
			<title>PF16197</title>
			<rect class="PF16197" x="525" y="18" stroke-linejoin="round" width="8" height="26" fill="rgb(68,179,89)" stroke="rgb(54,143,71)" stroke-width="1" opacity="0.75" />
		</g>
		<g>
			<title>PF00698</title>
			<rect class="PF00698" x="539" y="18" stroke-linejoin="round" width="31" height="26" fill="rgb(59,176,209)" stroke="rgb(47,140,167)" stroke-width="1" opacity="0.75" />
		</g>
		<g>
			<title>PF00698</title>
			<rect class="PF00698" x="583" y="18" stroke-linejoin="round" width="31" height="26" fill="rgb(59,176,209)" stroke="rgb(47,140,167)" stroke-width="1" opacity="0.75" />
		</g>
		<g>
			<title>PF14765</title>
			<rect class="PF14765" x="620" y="18" stroke-linejoin="round" width="29" height="26" fill="rgb(173,56,182)" stroke="rgb(138,44,145)" stroke-width="1" opacity="0.75" />
		</g>
		<g>
			<title>PF08659</title>
			<rect class="PF08659" x="675" y="18" stroke-linejoin="round" width="17" height="26" fill="rgb(66,209,188)" stroke="rgb(52,167,150)" stroke-width="1" opacity="0.75" />
		</g>
		<g>
			<title>PF00550</title>
			<polygon class="PF00550" points="703,21 709,27 709,35 703,41" stroke-linejoin="round" width="6" height="26" fill="rgb(103,191,88)" stroke="rgb(82,152,70)" stroke-width="1" opacity="0.75" />
		</g>
	</g>
</svg>
