<svg version="1.1" baseProfile="full" xmlns="http://www.w3.org/2000/svg" width="25" height="248">
	<line x1="1" y1="31" x2="23" y2="31" style="stroke:rgb(50,50,50); stroke-width:3 "/>
	<line x1="1" y1="93" x2="24" y2="93" style="stroke:rgb(50,50,50); stroke-width:3 "/>
	<line x1="1" y1="155" x2="23" y2="155" style="stroke:rgb(50,50,50); stroke-width:3 "/>
	<line x1="1" y1="217" x2="23" y2="217" style="stroke:rgb(50,50,50); stroke-width:3 "/>
	<g>
		<polygon class="NoName" points="1,16 1,16 1,1 23,31 1,61 1,46 1,46" fill="rgb(255,255,255)" fill-opacity="1.0" stroke="rgb(50,50,50)" stroke-width="1" />
		<g>
			<title>PF00109</title>
			<polygon class="PF00109" points="1,18 10,18 17,27 17,35 10,44 1,44" stroke-linejoin="round" width="16" height="26" fill="rgb(112,116,228)" stroke="rgb(89,92,182)" stroke-width="1" opacity="0.75" />
		</g>
		<g>
			<title>PF02801</title>
			<polygon class="PF02801" points="18,28 20,31 18,34" stroke-linejoin="round" width="5" height="26" fill="rgb(215,78,102)" stroke="rgb(172,62,81)" stroke-width="1" opacity="0.75" />
		</g>
	</g>
	<g>
		<polygon class="NoName" points="1,78 1,78 1,63 24,93 1,123 1,108 1,108" fill="rgb(255,255,255)" fill-opacity="1.0" stroke="rgb(50,50,50)" stroke-width="1" />
		<g>
			<title>PF00109</title>
			<polygon class="PF00109" points="1,80 11,80 17,88 17,98 11,106 1,106" stroke-linejoin="round" width="16" height="26" fill="rgb(112,116,228)" stroke="rgb(89,92,182)" stroke-width="1" opacity="0.75" />
		</g>
		<g>
			<title>PF02801</title>
			<polygon class="PF02801" points="18,89 21,93 18,97" stroke-linejoin="round" width="6" height="26" fill="rgb(215,78,102)" stroke="rgb(172,62,81)" stroke-width="1" opacity="0.75" />
		</g>
	</g>
	<g>
		<polygon class="NoName" points="1,140 1,140 1,125 23,155 1,185 1,170 1,170" fill="rgb(255,255,255)" fill-opacity="1.0" stroke="rgb(50,50,50)" stroke-width="1" />
		<g>
			<title>PF00109</title>
			<polygon class="PF00109" points="1,142 10,142 17,151 17,159 10,168 1,168" stroke-linejoin="round" width="16" height="26" fill="rgb(112,116,228)" stroke="rgb(89,92,182)" stroke-width="1" opacity="0.75" />
		</g>
		<g>
			<title>PF02801</title>
			<polygon class="PF02801" points="18,152 20,155 18,158" stroke-linejoin="round" width="5" height="26" fill="rgb(215,78,102)" stroke="rgb(172,62,81)" stroke-width="1" opacity="0.75" />
		</g>
	</g>
	<g>
		<polygon class="NoName" points="1,202 1,202 1,187 23,217 1,247 1,232 1,232" fill="rgb(255,255,255)" fill-opacity="1.0" stroke="rgb(50,50,50)" stroke-width="1" />
		<g>
			<title>PF00109</title>
			<polygon class="PF00109" points="1,204 10,204 17,213 17,221 10,230 1,230" stroke-linejoin="round" width="16" height="26" fill="rgb(112,116,228)" stroke="rgb(89,92,182)" stroke-width="1" opacity="0.75" />
		</g>
		<g>
			<title>PF02801</title>
			<polygon class="PF02801" points="18,214 20,217 18,220" stroke-linejoin="round" width="5" height="26" fill="rgb(215,78,102)" stroke="rgb(172,62,81)" stroke-width="1" opacity="0.75" />
		</g>
	</g>
</svg>
