<svg version="1.1" baseProfile="full" xmlns="http://www.w3.org/2000/svg" width="168" height="62">
	<line x1="1" y1="31" x2="167" y2="31" style="stroke:rgb(50,50,50); stroke-width:3 "/>
	<g>
		<polygon class="NoName" points="18,16 18,16 18,1 1,31 18,61 18,46 18,46" fill="rgb(255,255,255)" fill-opacity="1.0" stroke="rgb(50,50,50)" stroke-width="1" />
		<g>
			<title>PF01037</title>
			<polygon class="PF01037" points="3,31 10,19 10,42" stroke-linejoin="round" width="7" height="26" fill="rgb(134,72,182)" stroke="rgb(107,57,145)" stroke-width="1" opacity="0.75" />
		</g>
		<g>
			<title>PF13412</title>
			<rect class="PF13412" x="12" y="18" stroke-linejoin="round" width="4" height="26" fill="rgb(222,79,68)" stroke="rgb(177,63,54)" stroke-width="1" opacity="0.75" />
		</g>
	</g>
	<g>
		<title>hpd</title>
		<polygon class="hpd" points="21,16 29,16 29,1 59,31 29,61 29,46 21,46" fill="rgb(252,194,226)" fill-opacity="1.0" stroke="rgb(100,77,90)" stroke-width="1" />
		<g>
			<title>PF00903</title>
			<rect class="PF00903" x="23" y="18" stroke-linejoin="round" width="12" height="26" fill="rgb(50,162,189)" stroke="rgb(40,129,151)" stroke-width="1" opacity="0.75" />
		</g>
		<g>
			<title>PF00903</title>
			<polygon class="PF00903" points="39,18 43,18 54,29 54,33 43,44 39,44" stroke-linejoin="round" width="15" height="26" fill="rgb(50,162,189)" stroke="rgb(40,129,151)" stroke-width="1" opacity="0.75" />
		</g>
	</g>
	<g>
		<polygon class="NoName" points="117,16 94,16 94,1 64,31 94,61 94,46 117,46" fill="rgb(255,255,255)" fill-opacity="1.0" stroke="rgb(50,50,50)" stroke-width="1" />
		<g>
			<title>PF13432</title>
			<rect class="PF13432" x="86" y="18" stroke-linejoin="round" width="6" height="26" fill="rgb(154,205,86)" stroke="rgb(123,164,68)" stroke-width="1" opacity="0.75" />
		</g>
	</g>
	<g>
		<polygon class="NoName" points="120,16 137,16 137,1 167,31 137,61 137,46 120,46" fill="rgb(255,255,255)" fill-opacity="1.0" stroke="rgb(50,50,50)" stroke-width="1" />
		<g>
			<title>PF01565</title>
			<rect class="PF01565" x="125" y="18" stroke-linejoin="round" width="13" height="26" fill="rgb(226,88,136)" stroke="rgb(180,70,108)" stroke-width="1" opacity="0.75" />
		</g>
		<g>
			<title>PF02913</title>
			<polygon class="PF02913" points="142,18 151,18 164,31 151,44 142,44" stroke-linejoin="round" width="23" height="26" fill="rgb(111,69,188)" stroke="rgb(88,55,150)" stroke-width="1" opacity="0.75" />
		</g>
	</g>
</svg>
