<svg version="1.1" baseProfile="full" xmlns="http://www.w3.org/2000/svg" width="164" height="62">
	<line x1="1" y1="31" x2="163" y2="31" style="stroke:rgb(50,50,50); stroke-width:3 "/>
	<g>
		<polygon class="NoName" points="29,16 29,16 29,1 11,31 29,61 29,46 29,46" fill="rgb(255,255,255)" fill-opacity="1.0" stroke="rgb(50,50,50)" stroke-width="1" />
		<g>
			<title>PF01047</title>
			<polygon class="PF01047" points="18,23 21,18 23,18 23,44 21,44 18,38" stroke-linejoin="round" width="5" height="26" fill="rgb(60,185,86)" stroke="rgb(48,148,68)" stroke-width="1" opacity="0.75" />
		</g>
	</g>
	<g>
		<title>ectA</title>
		<polygon class="ectA" points="38,16 38,16 38,1 55,31 38,61 38,46 38,46" fill="rgb(244,191,254)" fill-opacity="1.0" stroke="rgb(97,76,101)" stroke-width="1" />
		<g>
			<title>PF00583</title>
			<polygon class="PF00583" points="40,18 45,18 51,28 51,34 45,44 40,44" stroke-linejoin="round" width="11" height="26" fill="rgb(121,183,50)" stroke="rgb(96,146,39)" stroke-width="1" opacity="0.75" />
		</g>
	</g>
	<g>
		<title>ectB</title>
		<polygon class="ectB" points="57,16 71,16 71,1 101,31 71,61 71,46 57,46" fill="rgb(180,250,227)" fill-opacity="1.0" stroke="rgb(72,100,90)" stroke-width="1" />
		<g>
			<title>PF00202</title>
			<polygon class="PF00202" points="58,18 85,18 98,31 98,31 85,44 58,44" stroke-linejoin="round" width="40" height="26" fill="rgb(49,163,189)" stroke="rgb(39,130,151)" stroke-width="1" opacity="0.75" />
		</g>
	</g>
	<g>
		<title>ectC</title>
		<polygon class="ectC" points="103,16 103,16 103,1 116,31 103,61 103,46 103,46" fill="rgb(252,179,192)" fill-opacity="1.0" stroke="rgb(100,71,76)" stroke-width="1" />
		<g>
			<title>PF06339</title>
			<polygon class="PF06339" points="103,18 107,18 113,31 107,44 103,44" stroke-linejoin="round" width="12" height="26" fill="rgb(225,176,81)" stroke="rgb(180,140,64)" stroke-width="1" opacity="0.75" />
		</g>
	</g>
	<g>
		<title>ask</title>
		<polygon class="ask" points="119,16 132,16 132,1 162,31 132,61 132,46 119,46" fill="rgb(245,180,254)" fill-opacity="1.0" stroke="rgb(97,72,101)" stroke-width="1" />
		<g>
			<title>PF00696</title>
			<polygon class="PF00696" points="119,18 146,18 148,20 148,42 146,44 119,44" stroke-linejoin="round" width="29" height="26" fill="rgb(148,78,224)" stroke="rgb(118,62,179)" stroke-width="1" opacity="0.75" />
		</g>
	</g>
</svg>
