<svg version="1.1" baseProfile="full" xmlns="http://www.w3.org/2000/svg" width="1090" height="62">
	<line x1="1" y1="31" x2="1089" y2="31" style="stroke:rgb(50,50,50); stroke-width:3 "/>
	<g>
		<polygon class="NoName" points="372,16 375,16 375,1 405,31 375,61 375,46 372,46" fill="rgb(255,255,255)" fill-opacity="1.0" stroke="rgb(50,50,50)" stroke-width="1" />
		<g>
			<title>PF01636</title>
			<polygon class="PF01636" points="376,18 389,18 397,26 397,36 389,44 376,44" stroke-linejoin="round" width="21" height="26" fill="rgb(106,220,228)" stroke="rgb(84,176,182)" stroke-width="1" opacity="0.75" />
		</g>
	</g>
	<g>
		<polygon class="NoName" points="406,16 413,16 413,1 443,31 413,61 413,46 406,46" fill="rgb(255,255,255)" fill-opacity="1.0" stroke="rgb(50,50,50)" stroke-width="1" />
	</g>
	<g>
		<polygon class="NoName" points="443,16 472,16 472,1 502,31 472,61 472,46 443,46" fill="rgb(255,255,255)" fill-opacity="1.0" stroke="rgb(50,50,50)" stroke-width="1" />
	</g>
	<g>
		<polygon class="NoName" points="547,16 542,16 542,1 512,31 542,61 542,46 547,46" fill="rgb(255,255,255)" fill-opacity="1.0" stroke="rgb(50,50,50)" stroke-width="1" />
	</g>
	<g>
		<title>wecA</title>
		<polygon class="wecA" points="584,16 581,16 581,1 551,31 581,61 581,46 584,46" fill="rgb(250,212,179)" fill-opacity="1.0" stroke="rgb(100,84,71)" stroke-width="1" />
		<g>
			<title>PF00953</title>
			<polygon class="PF00953" points="561,23 566,18 576,18 576,44 566,44 561,38" stroke-linejoin="round" width="15" height="26" fill="rgb(179,46,82)" stroke="rgb(143,36,65)" stroke-width="1" opacity="0.75" />
		</g>
	</g>
	<g>
		<polygon class="NoName" points="615,16 614,16 614,1 584,31 614,61 614,46 615,46" fill="rgb(255,255,255)" fill-opacity="1.0" stroke="rgb(50,50,50)" stroke-width="1" />
		<g>
			<title>PF01370</title>
			<polygon class="PF01370" points="592,25 599,18 614,18 614,44 599,44 592,36" stroke-linejoin="round" width="22" height="26" fill="rgb(98,102,214)" stroke="rgb(78,81,171)" stroke-width="1" opacity="0.75" />
		</g>
	</g>
	<g>
		<title>rmlA</title>
		<polygon class="rmlA" points="646,16 646,16 646,1 617,31 646,61 646,46 646,46" fill="rgb(192,178,253)" fill-opacity="1.0" stroke="rgb(76,71,101)" stroke-width="1" />
		<g>
			<title>PF00483</title>
			<polygon class="PF00483" points="622,28 632,18 645,18 645,44 632,44 622,33" stroke-linejoin="round" width="23" height="26" fill="rgb(198,101,87)" stroke="rgb(158,80,69)" stroke-width="1" opacity="0.75" />
		</g>
	</g>
	<g>
		<title>gpi</title>
		<polygon class="gpi" points="700,16 681,16 681,1 651,31 681,61 681,46 700,46" fill="rgb(252,210,199)" fill-opacity="1.0" stroke="rgb(100,84,79)" stroke-width="1" />
		<g>
			<title>PF00342</title>
			<polygon class="PF00342" points="653,31 666,18 695,18 695,44 666,44" stroke-linejoin="round" width="44" height="26" fill="rgb(160,69,196)" stroke="rgb(128,55,156)" stroke-width="1" opacity="0.75" />
		</g>
	</g>
	<g>
		<title>rmlB</title>
		<polygon class="rmlB" points="737,16 732,16 732,1 702,31 732,61 732,46 737,46" fill="rgb(178,254,197)" fill-opacity="1.0" stroke="rgb(71,101,78)" stroke-width="1" />
		<g>
			<title>PF16363</title>
			<polygon class="PF16363" points="704,31 717,18 734,18 734,44 717,44" stroke-linejoin="round" width="31" height="26" fill="rgb(162,221,65)" stroke="rgb(129,176,51)" stroke-width="1" opacity="0.75" />
		</g>
	</g>
	<g>
		<title>rmlD</title>
		<polygon class="rmlD" points="765,16 765,16 765,1 736,31 765,61 765,46 765,46" fill="rgb(251,250,178)" fill-opacity="1.0" stroke="rgb(100,100,71)" stroke-width="1" />
		<g>
			<title>PF04321</title>
			<polygon class="PF04321" points="738,31 751,18 765,18 765,44 751,44" stroke-linejoin="round" width="29" height="26" fill="rgb(196,203,60)" stroke="rgb(156,162,47)" stroke-width="1" opacity="0.75" />
		</g>
	</g>
	<g>
		<polygon class="NoName" points="11,16 15,16 15,1 45,31 15,61 15,46 11,46" fill="rgb(255,255,255)" fill-opacity="1.0" stroke="rgb(50,50,50)" stroke-width="1" />
		<g>
			<title>PF00535</title>
			<polygon class="PF00535" points="13,18 29,18 30,19 30,43 29,44 13,44" stroke-linejoin="round" width="17" height="26" fill="rgb(224,122,96)" stroke="rgb(179,97,76)" stroke-width="1" opacity="0.75" />
		</g>
	</g>
	<g>
		<title>rmlC</title>
		<polygon class="rmlC" points="783,16 783,16 783,1 765,31 783,61 783,46 783,46" fill="rgb(202,200,253)" fill-opacity="1.0" stroke="rgb(80,80,101)" stroke-width="1" />
		<g>
			<title>PF00908</title>
			<polygon class="PF00908" points="767,31 775,18 783,18 783,44 775,44" stroke-linejoin="round" width="17" height="26" fill="rgb(184,89,121)" stroke="rgb(147,71,96)" stroke-width="1" opacity="0.75" />
		</g>
	</g>
	<g>
		<polygon class="NoName" points="815,16 815,16 815,1 787,31 815,61 815,46 815,46" fill="rgb(255,255,255)" fill-opacity="1.0" stroke="rgb(50,50,50)" stroke-width="1" />
		<g>
			<title>PF01041</title>
			<polygon class="PF01041" points="789,31 801,18 814,18 814,44 801,44" stroke-linejoin="round" width="26" height="26" fill="rgb(59,139,191)" stroke="rgb(47,111,152)" stroke-width="1" opacity="0.75" />
		</g>
	</g>
	<g>
		<polygon class="NoName" points="858,16 846,16 846,1 816,31 846,61 846,46 858,46" fill="rgb(255,255,255)" fill-opacity="1.0" stroke="rgb(50,50,50)" stroke-width="1" />
		<g>
			<title>PF01041</title>
			<polygon class="PF01041" points="818,31 824,25 824,36" stroke-linejoin="round" width="8" height="26" fill="rgb(59,139,191)" stroke="rgb(47,111,152)" stroke-width="1" opacity="0.75" />
		</g>
		<g>
			<title>PF00571</title>
			<polygon class="PF00571" points="825,24 830,19 830,42 825,37" stroke-linejoin="round" width="5" height="26" fill="rgb(220,56,105)" stroke="rgb(176,44,84)" stroke-width="1" opacity="0.75" />
		</g>
		<g>
			<title>PF00132</title>
			<rect class="PF00132" x="839" y="18" stroke-linejoin="round" width="3" height="26" fill="rgb(89,131,202)" stroke="rgb(71,104,161)" stroke-width="1" opacity="0.75" />
		</g>
		<g>
			<title>PF00132</title>
			<rect class="PF00132" x="842" y="18" stroke-linejoin="round" width="3" height="26" fill="rgb(89,131,202)" stroke="rgb(71,104,161)" stroke-width="1" opacity="0.75" />
		</g>
	</g>
	<g>
		<title>neuC</title>
		<polygon class="neuC" points="895,16 888,16 888,1 858,31 888,61 888,46 895,46" fill="rgb(250,197,206)" fill-opacity="1.0" stroke="rgb(100,78,82)" stroke-width="1" />
		<g>
			<title>PF02350</title>
			<polygon class="PF02350" points="860,31 873,18 892,18 892,44 873,44" stroke-linejoin="round" width="33" height="26" fill="rgb(212,113,103)" stroke="rgb(169,90,82)" stroke-width="1" opacity="0.75" />
		</g>
	</g>
	<g>
		<title>neuB</title>
		<polygon class="neuB" points="929,16 926,16 926,1 896,31 926,61 926,46 929,46" fill="rgb(250,191,229)" fill-opacity="1.0" stroke="rgb(100,76,91)" stroke-width="1" />
		<g>
			<title>PF08666</title>
			<polygon class="PF08666" points="898,31 901,28 901,33" stroke-linejoin="round" width="5" height="26" fill="rgb(203,50,144)" stroke="rgb(162,40,115)" stroke-width="1" opacity="0.75" />
		</g>
		<g>
			<title>PF03102</title>
			<polygon class="PF03102" points="903,26 911,18 927,18 927,44 911,44 903,35" stroke-linejoin="round" width="24" height="26" fill="rgb(225,145,80)" stroke="rgb(180,116,64)" stroke-width="1" opacity="0.75" />
		</g>
	</g>
	<g>
		<title>neuA</title>
		<polygon class="neuA" points="953,16 953,16 953,1 930,31 953,61 953,46 953,46" fill="rgb(208,230,252)" fill-opacity="1.0" stroke="rgb(83,92,100)" stroke-width="1" />
		<g>
			<title>PF02348</title>
			<polygon class="PF02348" points="932,31 942,18 952,18 952,44 942,44" stroke-linejoin="round" width="22" height="26" fill="rgb(198,69,151)" stroke="rgb(158,55,120)" stroke-width="1" opacity="0.75" />
		</g>
	</g>
	<g>
		<title>hisH</title>
		<polygon class="hisH" points="974,16 974,16 974,1 953,31 974,61 974,46 974,46" fill="rgb(193,236,251)" fill-opacity="1.0" stroke="rgb(77,94,100)" stroke-width="1" />
		<g>
			<title>PF00117</title>
			<polygon class="PF00117" points="955,31 964,18 973,18 973,44 964,44" stroke-linejoin="round" width="20" height="26" fill="rgb(159,201,96)" stroke="rgb(127,160,76)" stroke-width="1" opacity="0.75" />
		</g>
	</g>
	<g>
		<title>hisF</title>
		<polygon class="hisF" points="1000,16 1000,16 1000,1 979,31 1000,61 1000,46 1000,46" fill="rgb(213,228,252)" fill-opacity="1.0" stroke="rgb(85,91,100)" stroke-width="1" />
		<g>
			<title>PF00977</title>
			<polygon class="PF00977" points="981,31 990,18 999,18 999,44 990,44" stroke-linejoin="round" width="20" height="26" fill="rgb(200,144,79)" stroke="rgb(160,115,63)" stroke-width="1" opacity="0.75" />
		</g>
	</g>
	<g>
		<polygon class="NoName" points="1046,16 1030,16 1030,1 1000,31 1030,61 1030,46 1046,46" fill="rgb(255,255,255)" fill-opacity="1.0" stroke="rgb(50,50,50)" stroke-width="1" />
	</g>
	<g>
		<polygon class="NoName" points="1051,16 1051,16 1051,1 1078,31 1051,61 1051,46 1051,46" fill="rgb(255,255,255)" fill-opacity="1.0" stroke="rgb(50,50,50)" stroke-width="1" />
		<g>
			<title>PF13649</title>
			<polygon class="PF13649" points="1055,18 1063,18 1064,19 1064,43 1063,44 1055,44" stroke-linejoin="round" width="9" height="26" fill="rgb(227,135,74)" stroke="rgb(181,108,59)" stroke-width="1" opacity="0.75" />
		</g>
	</g>
	<g>
		<polygon class="NoName" points="44,16 44,16 44,1 73,31 44,61 44,46 44,46" fill="rgb(255,255,255)" fill-opacity="1.0" stroke="rgb(50,50,50)" stroke-width="1" />
		<g>
			<title>PF00535</title>
			<polygon class="PF00535" points="44,18 57,18 62,23 62,39 57,44 44,44" stroke-linejoin="round" width="18" height="26" fill="rgb(224,122,96)" stroke="rgb(179,97,76)" stroke-width="1" opacity="0.75" />
		</g>
	</g>
	<g>
		<polygon class="NoName" points="1080,16 1080,16 1080,1 1089,31 1080,61 1080,46 1080,46" fill="rgb(255,255,255)" fill-opacity="1.0" stroke="rgb(50,50,50)" stroke-width="1" />
	</g>
	<g>
		<polygon class="NoName" points="113,16 105,16 105,1 75,31 105,61 105,46 113,46" fill="rgb(255,255,255)" fill-opacity="1.0" stroke="rgb(50,50,50)" stroke-width="1" />
	</g>
	<g>
		<title>wzt</title>
		<polygon class="wzt" points="160,16 143,16 143,1 113,31 143,61 143,46 160,46" fill="rgb(254,204,209)" fill-opacity="1.0" stroke="rgb(101,81,83)" stroke-width="1" />
		<g>
			<title>PF00005</title>
			<rect class="PF00005" x="139" y="18" stroke-linejoin="round" width="13" height="26" fill="rgb(129,201,63)" stroke="rgb(103,160,50)" stroke-width="1" opacity="0.75" />
		</g>
	</g>
	<g>
		<title>wzm</title>
		<polygon class="wzm" points="188,16 188,16 188,1 160,31 188,61 188,46 188,46" fill="rgb(234,201,254)" fill-opacity="1.0" stroke="rgb(93,80,101)" stroke-width="1" />
		<g>
			<title>PF01061</title>
			<polygon class="PF01061" points="163,30 174,18 183,18 183,44 174,44 163,31" stroke-linejoin="round" width="20" height="26" fill="rgb(139,217,106)" stroke="rgb(111,173,84)" stroke-width="1" opacity="0.75" />
		</g>
	</g>
	<g>
		<polygon class="NoName" points="242,16 218,16 218,1 188,31 218,61 218,46 242,46" fill="rgb(255,255,255)" fill-opacity="1.0" stroke="rgb(50,50,50)" stroke-width="1" />
	</g>
	<g>
		<polygon class="NoName" points="300,16 280,16 280,1 250,31 280,61 280,46 300,46" fill="rgb(255,255,255)" fill-opacity="1.0" stroke="rgb(50,50,50)" stroke-width="1" />
	</g>
	<g>
		<polygon class="NoName" points="311,16 311,16 311,1 335,31 311,61 311,46 311,46" fill="rgb(255,255,255)" fill-opacity="1.0" stroke="rgb(50,50,50)" stroke-width="1" />
		<g>
			<title>PF08242</title>
			<polygon class="PF08242" points="315,18 322,18 324,21 324,41 322,44 315,44" stroke-linejoin="round" width="9" height="26" fill="rgb(187,59,115)" stroke="rgb(149,47,92)" stroke-width="1" opacity="0.75" />
		</g>
	</g>
	<g>
		<polygon class="NoName" points="336,16 342,16 342,1 372,31 342,61 342,46 336,46" fill="rgb(255,255,255)" fill-opacity="1.0" stroke="rgb(50,50,50)" stroke-width="1" />
		<g>
			<title>PF03102</title>
			<polygon class="PF03102" points="341,18 356,18 364,26 364,36 356,44 341,44" stroke-linejoin="round" width="23" height="26" fill="rgb(225,145,80)" stroke="rgb(180,116,64)" stroke-width="1" opacity="0.75" />
		</g>
		<g>
			<title>PF08666</title>
			<polygon class="PF08666" points="366,28 369,31 366,34" stroke-linejoin="round" width="5" height="26" fill="rgb(203,50,144)" stroke="rgb(162,40,115)" stroke-width="1" opacity="0.75" />
		</g>
	</g>
</svg>
