<svg version="1.1" baseProfile="full" xmlns="http://www.w3.org/2000/svg" width="582" height="62">
	<line x1="1" y1="31" x2="581" y2="31" style="stroke:rgb(50,50,50); stroke-width:3 "/>
	<g>
		<polygon class="NoName" points="580,16 580,16 580,1 551,31 580,61 580,46 580,46" fill="rgb(255,255,255)" fill-opacity="1.0" stroke="rgb(50,50,50)" stroke-width="1" />
		<g>
			<title>PF02668</title>
			<polygon class="PF02668" points="553,31 566,18 578,18 578,44 566,44" stroke-linejoin="round" width="27" height="26" fill="rgb(180,79,217)" stroke="rgb(144,63,173)" stroke-width="1" opacity="0.75" />
		</g>
	</g>
	<g>
		<polygon class="NoName" points="19,16 19,16 19,1 1,31 19,61 19,46 19,46" fill="rgb(255,255,255)" fill-opacity="1.0" stroke="rgb(50,50,50)" stroke-width="1" />
		<g>
			<title>PF04073</title>
			<polygon class="PF04073" points="3,31 11,18 14,18 14,44 11,44" stroke-linejoin="round" width="12" height="26" fill="rgb(87,163,195)" stroke="rgb(69,130,156)" stroke-width="1" opacity="0.75" />
		</g>
	</g>
	<g>
		<title>ambE</title>
		<polygon class="ambE" points="233,16 51,16 51,1 21,31 51,61 51,46 233,46" fill="rgb(251,223,191)" fill-opacity="1.0" stroke="rgb(100,89,76)" stroke-width="1" />
		<g>
			<title>PF00975</title>
			<polygon class="PF00975" points="23,31 36,18 44,18 44,44 36,44" stroke-linejoin="round" width="22" height="26" fill="rgb(207,80,138)" stroke="rgb(165,63,110)" stroke-width="1" opacity="0.75" />
		</g>
		<g>
			<title>PF00550</title>
			<rect class="PF00550" x="48" y="18" stroke-linejoin="round" width="6" height="26" fill="rgb(103,191,88)" stroke="rgb(82,152,70)" stroke-width="1" opacity="0.75" />
		</g>
		<g>
			<title>PF00668</title>
			<rect class="PF00668" x="54" y="18" stroke-linejoin="round" width="43" height="26" fill="rgb(224,184,98)" stroke="rgb(179,147,78)" stroke-width="1" opacity="0.75" />
		</g>
		<g>
			<title>PF00550</title>
			<rect class="PF00550" x="101" y="18" stroke-linejoin="round" width="6" height="26" fill="rgb(103,191,88)" stroke="rgb(82,152,70)" stroke-width="1" opacity="0.75" />
		</g>
		<g>
			<title>PF05050</title>
			<rect class="PF05050" x="118" y="18" stroke-linejoin="round" width="19" height="26" fill="rgb(95,204,52)" stroke="rgb(76,163,41)" stroke-width="1" opacity="0.75" />
		</g>
		<g>
			<title>PF00501</title>
			<rect class="PF00501" x="148" y="18" stroke-linejoin="round" width="39" height="26" fill="rgb(60,217,223)" stroke="rgb(48,173,178)" stroke-width="1" opacity="0.75" />
		</g>
	</g>
	<g>
		<title>ambD</title>
		<polygon class="ambD" points="268,16 264,16 264,1 234,31 264,61 264,46 268,46" fill="rgb(209,221,250)" fill-opacity="1.0" stroke="rgb(83,88,100)" stroke-width="1" />
		<g>
			<title>PF02668</title>
			<polygon class="PF02668" points="236,31 249,18 264,18 264,44 249,44" stroke-linejoin="round" width="30" height="26" fill="rgb(180,79,217)" stroke="rgb(144,63,173)" stroke-width="1" opacity="0.75" />
		</g>
	</g>
	<g>
		<title>ambC</title>
		<polygon class="ambC" points="304,16 298,16 298,1 268,31 298,61 298,46 304,46" fill="rgb(184,245,254)" fill-opacity="1.0" stroke="rgb(73,98,101)" stroke-width="1" />
		<g>
			<title>PF02668</title>
			<polygon class="PF02668" points="270,31 283,18 300,18 300,44 283,44" stroke-linejoin="round" width="30" height="26" fill="rgb(180,79,217)" stroke="rgb(144,63,173)" stroke-width="1" opacity="0.75" />
		</g>
	</g>
	<g>
		<title>ambB</title>
		<polygon class="ambB" points="430,16 335,16 335,1 305,31 335,61 335,46 430,46" fill="rgb(252,180,196)" fill-opacity="1.0" stroke="rgb(100,72,78)" stroke-width="1" />
		<g>
			<title>PF00668</title>
			<polygon class="PF00668" points="314,24 320,18 347,18 347,44 320,44 314,37" stroke-linejoin="round" width="33" height="26" fill="rgb(224,184,98)" stroke="rgb(179,147,78)" stroke-width="1" opacity="0.75" />
		</g>
		<g>
			<title>PF00550</title>
			<rect class="PF00550" x="349" y="18" stroke-linejoin="round" width="6" height="26" fill="rgb(103,191,88)" stroke="rgb(82,152,70)" stroke-width="1" opacity="0.75" />
		</g>
		<g>
			<title>PF13193</title>
			<rect class="PF13193" x="358" y="18" stroke-linejoin="round" width="7" height="26" fill="rgb(182,50,118)" stroke="rgb(145,39,94)" stroke-width="1" opacity="0.75" />
		</g>
		<g>
			<title>PF00501</title>
			<rect class="PF00501" x="366" y="18" stroke-linejoin="round" width="38" height="26" fill="rgb(60,217,223)" stroke="rgb(48,173,178)" stroke-width="1" opacity="0.75" />
		</g>
	</g>
	<g>
		<title>ambA</title>
		<polygon class="ambA" points="453,16 453,16 453,1 433,31 453,61 453,46 453,46" fill="rgb(252,194,232)" fill-opacity="1.0" stroke="rgb(100,77,92)" stroke-width="1" />
		<g>
			<title>PF01810</title>
			<polygon class="PF01810" points="435,31 444,18 451,18 451,44 444,44" stroke-linejoin="round" width="17" height="26" fill="rgb(198,75,167)" stroke="rgb(158,60,133)" stroke-width="1" opacity="0.75" />
		</g>
	</g>
	<g>
		<polygon class="NoName" points="486,16 486,16 486,1 458,31 486,61 486,46 486,46" fill="rgb(255,255,255)" fill-opacity="1.0" stroke="rgb(50,50,50)" stroke-width="1" />
		<g>
			<title>PF00528</title>
			<polygon class="PF00528" points="460,31 472,18 476,18 476,44 472,44" stroke-linejoin="round" width="18" height="26" fill="rgb(77,208,225)" stroke="rgb(61,166,180)" stroke-width="1" opacity="0.75" />
		</g>
	</g>
	<g>
		<polygon class="NoName" points="515,16 515,16 515,1 487,31 515,61 515,46 515,46" fill="rgb(255,255,255)" fill-opacity="1.0" stroke="rgb(50,50,50)" stroke-width="1" />
		<g>
			<title>PF00005</title>
			<polygon class="PF00005" points="497,23 501,18 511,18 511,44 501,44 497,38" stroke-linejoin="round" width="14" height="26" fill="rgb(129,201,63)" stroke="rgb(103,160,50)" stroke-width="1" opacity="0.75" />
		</g>
	</g>
	<g>
		<polygon class="NoName" points="549,16 545,16 545,1 515,31 545,61 545,46 549,46" fill="rgb(255,255,255)" fill-opacity="1.0" stroke="rgb(50,50,50)" stroke-width="1" />
		<g>
			<title>PF13379</title>
			<polygon class="PF13379" points="521,27 530,18 545,18 545,44 530,44 521,34" stroke-linejoin="round" width="24" height="26" fill="rgb(139,182,81)" stroke="rgb(111,145,64)" stroke-width="1" opacity="0.75" />
		</g>
	</g>
</svg>
