<svg version="1.1" baseProfile="full" xmlns="http://www.w3.org/2000/svg" width="521" height="62">
	<line x1="1" y1="31" x2="520" y2="31" style="stroke:rgb(50,50,50); stroke-width:3 "/>
	<g>
		<title>tpdF</title>
		<polygon class="tpdF" points="351,16 384,16 384,1 414,31 384,61 384,46 351,46" fill="rgb(181,251,228)" fill-opacity="1.0" stroke="rgb(72,100,91)" stroke-width="1" />
		<g>
			<title>PF02624</title>
			<polygon class="PF02624" points="389,18 398,18 407,27 407,35 398,44 389,44" stroke-linejoin="round" width="18" height="26" fill="rgb(76,84,185)" stroke="rgb(60,67,148)" stroke-width="1" opacity="0.75" />
		</g>
	</g>
	<g>
		<title>tpdG</title>
		<polygon class="tpdG" points="414,16 445,16 445,1 475,31 445,61 445,46 414,46" fill="rgb(214,249,183)" fill-opacity="1.0" stroke="rgb(85,99,73)" stroke-width="1" />
		<g>
			<title>PF02624</title>
			<polygon class="PF02624" points="437,18 459,18 470,29 470,33 459,44 437,44" stroke-linejoin="round" width="33" height="26" fill="rgb(76,84,185)" stroke="rgb(60,67,148)" stroke-width="1" opacity="0.75" />
		</g>
	</g>
	<g>
		<title>tpdH</title>
		<polygon class="tpdH" points="476,16 490,16 490,1 520,31 490,61 490,46 476,46" fill="rgb(252,203,250)" fill-opacity="1.0" stroke="rgb(100,81,100)" stroke-width="1" />
		<g>
			<title>PF01546</title>
			<polygon class="PF01546" points="486,18 504,18 517,31 517,31 504,44 486,44" stroke-linejoin="round" width="31" height="26" fill="rgb(88,213,108)" stroke="rgb(70,170,86)" stroke-width="1" opacity="0.75" />
		</g>
	</g>
	<g>
		<title>tpdI</title>
		<polygon class="tpdI" points="41,16 31,16 31,1 1,31 31,61 31,46 41,46" fill="rgb(242,181,250)" fill-opacity="1.0" stroke="rgb(96,72,100)" stroke-width="1" />
		<g>
			<title>PF04055</title>
			<rect class="PF04055" x="22" y="18" stroke-linejoin="round" width="17" height="26" fill="rgb(149,56,222)" stroke="rgb(119,44,177)" stroke-width="1" opacity="0.75" />
		</g>
	</g>
	<g>
		<title>tpdJ1</title>
		<polygon class="tpdJ1" points="79,16 71,16 71,1 41,31 71,61 71,46 79,46" fill="rgb(237,250,189)" fill-opacity="1.0" stroke="rgb(94,100,75)" stroke-width="1" />
		<g>
			<title>PF00067</title>
			<polygon class="PF00067" points="43,31 56,18 64,18 64,44 56,44" stroke-linejoin="round" width="22" height="26" fill="rgb(85,216,107)" stroke="rgb(68,172,85)" stroke-width="1" opacity="0.75" />
		</g>
		<g>
			<title>PF00067</title>
			<rect class="PF00067" x="67" y="18" stroke-linejoin="round" width="10" height="26" fill="rgb(85,216,107)" stroke="rgb(68,172,85)" stroke-width="1" opacity="0.75" />
		</g>
	</g>
	<g>
		<title>tpdJ2</title>
		<polygon class="tpdJ2" points="119,16 109,16 109,1 79,31 109,61 109,46 119,46" fill="rgb(252,217,213)" fill-opacity="1.0" stroke="rgb(100,86,85)" stroke-width="1" />
		<g>
			<title>PF00067</title>
			<polygon class="PF00067" points="81,31 94,18 115,18 115,44 94,44" stroke-linejoin="round" width="36" height="26" fill="rgb(85,216,107)" stroke="rgb(68,172,85)" stroke-width="1" opacity="0.75" />
		</g>
	</g>
	<g>
		<title>tpdR</title>
		<polygon class="tpdR" points="144,16 144,16 144,1 120,31 144,61 144,46 144,46" fill="rgb(241,199,253)" fill-opacity="1.0" stroke="rgb(96,79,101)" stroke-width="1" />
		<g>
			<title>PF00440</title>
			<rect class="PF00440" x="137" y="18" stroke-linejoin="round" width="4" height="26" fill="rgb(73,212,190)" stroke="rgb(58,169,152)" stroke-width="1" opacity="0.75" />
		</g>
	</g>
	<g>
		<title>tpdA</title>
		<polygon class="tpdA" points="156,16 156,16 156,1 161,31 156,61 156,46 156,46" fill="rgb(179,251,190)" fill-opacity="1.0" stroke="rgb(71,100,76)" stroke-width="1" />
	</g>
	<g>
		<title>tpdB</title>
		<polygon class="tpdB" points="163,16 220,16 220,1 250,31 220,61 220,46 163,46" fill="rgb(182,250,223)" fill-opacity="1.0" stroke="rgb(72,100,89)" stroke-width="1" />
		<g>
			<title>PF04738</title>
			<polygon class="PF04738" points="178,18 234,18 245,29 245,33 234,44 178,44" stroke-linejoin="round" width="67" height="26" fill="rgb(219,60,229)" stroke="rgb(175,47,183)" stroke-width="1" opacity="0.75" />
		</g>
	</g>
	<g>
		<title>tpdC</title>
		<polygon class="tpdC" points="250,16 250,16 250,1 277,31 250,61 250,46 250,46" fill="rgb(250,188,248)" fill-opacity="1.0" stroke="rgb(100,75,99)" stroke-width="1" />
		<g>
			<title>PF14028</title>
			<polygon class="PF14028" points="250,18 262,18 267,23 267,39 262,44 250,44" stroke-linejoin="round" width="17" height="26" fill="rgb(107,223,113)" stroke="rgb(85,178,90)" stroke-width="1" opacity="0.75" />
		</g>
	</g>
	<g>
		<title>tpdD</title>
		<polygon class="tpdD" points="277,16 279,16 279,1 309,31 279,61 279,46 277,46" fill="rgb(254,231,196)" fill-opacity="1.0" stroke="rgb(101,92,78)" stroke-width="1" />
		<g>
			<title>PF14028</title>
			<polygon class="PF14028" points="277,18 293,18 306,31 293,44 277,44" stroke-linejoin="round" width="30" height="26" fill="rgb(107,223,113)" stroke="rgb(85,178,90)" stroke-width="1" opacity="0.75" />
		</g>
	</g>
	<g>
		<title>tpdE</title>
		<polygon class="tpdE" points="309,16 321,16 321,1 351,31 321,61 321,46 309,46" fill="rgb(191,252,240)" fill-opacity="1.0" stroke="rgb(76,100,96)" stroke-width="1" />
		<g>
			<title>PF00881</title>
			<polygon class="PF00881" points="332,18 335,18 348,31 335,44 332,44" stroke-linejoin="round" width="18" height="26" fill="rgb(79,118,187)" stroke="rgb(63,94,149)" stroke-width="1" opacity="0.75" />
		</g>
	</g>
</svg>
