<svg version="1.1" baseProfile="full" xmlns="http://www.w3.org/2000/svg" width="1275" height="62">
	<line x1="1" y1="31" x2="1274" y2="31" style="stroke:rgb(50,50,50); stroke-width:3 "/>
	<g>
		<polygon class="NoName" points="444,16 444,16 444,1 418,31 444,61 444,46 444,46" fill="rgb(255,255,255)" fill-opacity="1.0" stroke="rgb(50,50,50)" stroke-width="1" />
		<g>
			<title>PF13847</title>
			<polygon class="PF13847" points="425,25 431,18 441,18 441,44 431,44 425,36" stroke-linejoin="round" width="16" height="26" fill="rgb(214,74,181)" stroke="rgb(171,59,144)" stroke-width="1" opacity="0.75" />
		</g>
	</g>
	<g>
		<polygon class="NoName" points="494,16 476,16 476,1 446,31 476,61 476,46 494,46" fill="rgb(255,255,255)" fill-opacity="1.0" stroke="rgb(50,50,50)" stroke-width="1" />
		<g>
			<title>PF01523</title>
			<polygon class="PF01523" points="461,18 461,18 491,18 491,44 461,44 461,43" stroke-linejoin="round" width="30" height="26" fill="rgb(83,181,55)" stroke="rgb(66,144,44)" stroke-width="1" opacity="0.75" />
		</g>
	</g>
	<g>
		<polygon class="NoName" points="519,16 519,16 519,1 494,31 519,61 519,46 519,46" fill="rgb(255,255,255)" fill-opacity="1.0" stroke="rgb(50,50,50)" stroke-width="1" />
		<g>
			<title>PF13649</title>
			<polygon class="PF13649" points="505,20 507,18 514,18 514,44 507,44 505,41" stroke-linejoin="round" width="9" height="26" fill="rgb(227,135,74)" stroke="rgb(181,108,59)" stroke-width="1" opacity="0.75" />
		</g>
	</g>
	<g>
		<polygon class="NoName" points="521,16 521,16 521,1 540,31 521,61 521,46 521,46" fill="rgb(255,255,255)" fill-opacity="1.0" stroke="rgb(50,50,50)" stroke-width="1" />
		<g>
			<title>PF13242</title>
			<polygon class="PF13242" points="532,23 537,31 532,39" stroke-linejoin="round" width="6" height="26" fill="rgb(202,89,70)" stroke="rgb(161,71,56)" stroke-width="1" opacity="0.75" />
		</g>
	</g>
	<g>
		<polygon class="NoName" points="584,16 571,16 571,1 541,31 571,61 571,46 584,46" fill="rgb(255,255,255)" fill-opacity="1.0" stroke="rgb(50,50,50)" stroke-width="1" />
		<g>
			<title>PF03720</title>
			<polygon class="PF03720" points="543,31 552,22 552,39" stroke-linejoin="round" width="9" height="26" fill="rgb(221,130,74)" stroke="rgb(176,103,59)" stroke-width="1" opacity="0.75" />
		</g>
		<g>
			<title>PF00984</title>
			<polygon class="PF00984" points="555,19 556,18 564,18 564,44 556,44 555,42" stroke-linejoin="round" width="9" height="26" fill="rgb(69,189,184)" stroke="rgb(55,151,147)" stroke-width="1" opacity="0.75" />
		</g>
		<g>
			<title>PF03721</title>
			<rect class="PF03721" x="566" y="18" stroke-linejoin="round" width="18" height="26" fill="rgb(156,194,58)" stroke="rgb(124,155,46)" stroke-width="1" opacity="0.75" />
		</g>
	</g>
	<g>
		<polygon class="NoName" points="616,16 614,16 614,1 584,31 614,61 614,46 616,46" fill="rgb(255,255,255)" fill-opacity="1.0" stroke="rgb(50,50,50)" stroke-width="1" />
		<g>
			<title>PF01370</title>
			<polygon class="PF01370" points="592,25 599,18 616,18 616,44 599,44 592,36" stroke-linejoin="round" width="24" height="26" fill="rgb(98,102,214)" stroke="rgb(78,81,171)" stroke-width="1" opacity="0.75" />
		</g>
	</g>
	<g>
		<polygon class="NoName" points="645,16 645,16 645,1 617,31 645,61 645,46 645,46" fill="rgb(255,255,255)" fill-opacity="1.0" stroke="rgb(50,50,50)" stroke-width="1" />
		<g>
			<title>PF13580</title>
			<polygon class="PF13580" points="622,28 631,18 635,18 635,44 631,44 622,33" stroke-linejoin="round" width="13" height="26" fill="rgb(87,217,81)" stroke="rgb(69,173,64)" stroke-width="1" opacity="0.75" />
		</g>
	</g>
	<g>
		<polygon class="NoName" points="678,16 675,16 675,1 645,31 675,61 675,46 678,46" fill="rgb(255,255,255)" fill-opacity="1.0" stroke="rgb(50,50,50)" stroke-width="1" />
		<g>
			<title>PF02894</title>
			<polygon class="PF02894" points="655,23 660,18 664,18 664,44 660,44 655,38" stroke-linejoin="round" width="9" height="26" fill="rgb(195,223,82)" stroke="rgb(155,178,65)" stroke-width="1" opacity="0.75" />
		</g>
		<g>
			<title>PF01408</title>
			<rect class="PF01408" x="666" y="18" stroke-linejoin="round" width="11" height="26" fill="rgb(76,117,190)" stroke="rgb(60,93,152)" stroke-width="1" opacity="0.75" />
		</g>
	</g>
	<g>
		<polygon class="NoName" points="711,16 709,16 709,1 679,31 709,61 709,46 711,46" fill="rgb(255,255,255)" fill-opacity="1.0" stroke="rgb(50,50,50)" stroke-width="1" />
		<g>
			<title>PF08544</title>
			<polygon class="PF08544" points="681,31 689,23 689,38" stroke-linejoin="round" width="8" height="26" fill="rgb(95,112,219)" stroke="rgb(76,89,175)" stroke-width="1" opacity="0.75" />
		</g>
		<g>
			<title>PF00288</title>
			<rect class="PF00288" x="696" y="18" stroke-linejoin="round" width="6" height="26" fill="rgb(190,54,91)" stroke="rgb(152,43,72)" stroke-width="1" opacity="0.75" />
		</g>
	</g>
	<g>
		<polygon class="NoName" points="734,16 734,16 734,1 711,31 734,61 734,46 734,46" fill="rgb(255,255,255)" fill-opacity="1.0" stroke="rgb(50,50,50)" stroke-width="1" />
		<g>
			<title>PF12804</title>
			<polygon class="PF12804" points="715,29 723,18 732,18 732,44 723,44 715,32" stroke-linejoin="round" width="17" height="26" fill="rgb(52,209,196)" stroke="rgb(41,167,156)" stroke-width="1" opacity="0.75" />
		</g>
	</g>
	<g>
		<polygon class="NoName" points="1,16 1,16 1,1 16,31 1,61 1,46 1,46" fill="rgb(255,255,255)" fill-opacity="1.0" stroke="rgb(50,50,50)" stroke-width="1" />
	</g>
	<g>
		<polygon class="NoName" points="773,16 765,16 765,1 735,31 765,61 765,46 773,46" fill="rgb(255,255,255)" fill-opacity="1.0" stroke="rgb(50,50,50)" stroke-width="1" />
		<g>
			<title>PF01041</title>
			<polygon class="PF01041" points="737,31 750,18 771,18 771,44 750,44" stroke-linejoin="round" width="36" height="26" fill="rgb(59,139,191)" stroke="rgb(47,111,152)" stroke-width="1" opacity="0.75" />
		</g>
	</g>
	<g>
		<polygon class="NoName" points="795,16 795,16 795,1 773,31 795,61 795,46 795,46" fill="rgb(255,255,255)" fill-opacity="1.0" stroke="rgb(50,50,50)" stroke-width="1" />
		<g>
			<title>PF00923</title>
			<polygon class="PF00923" points="775,31 785,18 794,18 794,44 785,44" stroke-linejoin="round" width="21" height="26" fill="rgb(208,111,74)" stroke="rgb(166,88,59)" stroke-width="1" opacity="0.75" />
		</g>
	</g>
	<g>
		<polygon class="NoName" points="833,16 827,16 827,1 797,31 827,61 827,46 833,46" fill="rgb(255,255,255)" fill-opacity="1.0" stroke="rgb(50,50,50)" stroke-width="1" />
		<g>
			<title>PF01523</title>
			<polygon class="PF01523" points="810,20 812,18 827,18 827,44 812,44 810,41" stroke-linejoin="round" width="17" height="26" fill="rgb(83,181,55)" stroke="rgb(66,144,44)" stroke-width="1" opacity="0.75" />
		</g>
	</g>
	<g>
		<polygon class="NoName" points="877,16 864,16 864,1 834,31 864,61 864,46 877,46" fill="rgb(255,255,255)" fill-opacity="1.0" stroke="rgb(50,50,50)" stroke-width="1" />
		<g>
			<title>PF00534</title>
			<polygon class="PF00534" points="836,31 849,18 853,18 853,44 849,44" stroke-linejoin="round" width="17" height="26" fill="rgb(228,92,150)" stroke="rgb(182,73,119)" stroke-width="1" opacity="0.75" />
		</g>
	</g>
	<g>
		<polygon class="NoName" points="902,16 902,16 902,1 878,31 902,61 902,46 902,46" fill="rgb(255,255,255)" fill-opacity="1.0" stroke="rgb(50,50,50)" stroke-width="1" />
		<g>
			<title>PF11716</title>
			<polygon class="PF11716" points="887,22 890,18 900,18 900,44 890,44 887,39" stroke-linejoin="round" width="13" height="26" fill="rgb(214,107,221)" stroke="rgb(171,85,176)" stroke-width="1" opacity="0.75" />
		</g>
	</g>
	<g>
		<polygon class="NoName" points="912,16 917,16 917,1 947,31 917,61 917,46 912,46" fill="rgb(255,255,255)" fill-opacity="1.0" stroke="rgb(50,50,50)" stroke-width="1" />
		<g>
			<title>PF13847</title>
			<polygon class="PF13847" points="929,18 931,18 939,26 939,36 931,44 929,44" stroke-linejoin="round" width="10" height="26" fill="rgb(214,74,181)" stroke="rgb(171,59,144)" stroke-width="1" opacity="0.75" />
		</g>
	</g>
	<g>
		<polygon class="NoName" points="977,16 977,16 977,1 949,31 977,61 977,46 977,46" fill="rgb(255,255,255)" fill-opacity="1.0" stroke="rgb(50,50,50)" stroke-width="1" />
		<g>
			<title>PF00398</title>
			<polygon class="PF00398" points="951,31 963,18 975,18 975,44 963,44" stroke-linejoin="round" width="24" height="26" fill="rgb(71,217,122)" stroke="rgb(56,173,97)" stroke-width="1" opacity="0.75" />
		</g>
	</g>
	<g>
		<polygon class="NoName" points="1009,16 1009,16 1009,1 980,31 1009,61 1009,46 1009,46" fill="rgb(255,255,255)" fill-opacity="1.0" stroke="rgb(50,50,50)" stroke-width="1" />
		<g>
			<title>PF02567</title>
			<polygon class="PF02567" points="982,31 995,18 1008,18 1008,44 995,44" stroke-linejoin="round" width="27" height="26" fill="rgb(223,91,96)" stroke="rgb(178,72,76)" stroke-width="1" opacity="0.75" />
		</g>
	</g>
	<g>
		<polygon class="NoName" points="1039,16 1039,16 1039,1 1010,31 1039,61 1039,46 1039,46" fill="rgb(255,255,255)" fill-opacity="1.0" stroke="rgb(50,50,50)" stroke-width="1" />
		<g>
			<title>PF00296</title>
			<polygon class="PF00296" points="1014,29 1025,18 1039,18 1039,44 1025,44 1014,32" stroke-linejoin="round" width="25" height="26" fill="rgb(180,112,78)" stroke="rgb(144,89,62)" stroke-width="1" opacity="0.75" />
		</g>
	</g>
	<g>
		<polygon class="NoName" points="1066,16 1066,16 1066,1 1044,31 1066,61 1066,46 1066,46" fill="rgb(255,255,255)" fill-opacity="1.0" stroke="rgb(50,50,50)" stroke-width="1" />
	</g>
	<g>
		<polygon class="NoName" points="84,16 102,16 102,1 132,31 102,61 102,46 84,46" fill="rgb(255,255,255)" fill-opacity="1.0" stroke="rgb(50,50,50)" stroke-width="1" />
		<g>
			<title>PF07690</title>
			<polygon class="PF07690" points="87,18 116,18 126,28 126,34 116,44 87,44" stroke-linejoin="round" width="39" height="26" fill="rgb(193,224,74)" stroke="rgb(154,179,59)" stroke-width="1" opacity="0.75" />
		</g>
	</g>
	<g>
		<polygon class="NoName" points="1145,16 1120,16 1120,1 1090,31 1120,61 1120,46 1145,46" fill="rgb(255,255,255)" fill-opacity="1.0" stroke="rgb(50,50,50)" stroke-width="1" />
		<g>
			<title>PF00005</title>
			<polygon class="PF00005" points="1096,27 1105,18 1109,18 1109,44 1105,44 1096,34" stroke-linejoin="round" width="13" height="26" fill="rgb(129,201,63)" stroke="rgb(103,160,50)" stroke-width="1" opacity="0.75" />
		</g>
		<g>
			<title>PF00005</title>
			<rect class="PF00005" x="1128" y="18" stroke-linejoin="round" width="14" height="26" fill="rgb(129,201,63)" stroke="rgb(103,160,50)" stroke-width="1" opacity="0.75" />
		</g>
	</g>
	<g>
		<polygon class="NoName" points="1195,16 1189,16 1189,1 1159,31 1189,61 1189,46 1195,46" fill="rgb(255,255,255)" fill-opacity="1.0" stroke="rgb(50,50,50)" stroke-width="1" />
		<g>
			<title>PF00805</title>
			<polygon class="PF00805" points="1163,29 1165,27 1165,34 1163,32" stroke-linejoin="round" width="2" height="26" fill="rgb(186,52,164)" stroke="rgb(148,41,131)" stroke-width="1" opacity="0.75" />
		</g>
		<g>
			<title>PF00805</title>
			<polygon class="PF00805" points="1166,26 1169,23 1169,38 1166,35" stroke-linejoin="round" width="3" height="26" fill="rgb(186,52,164)" stroke="rgb(148,41,131)" stroke-width="1" opacity="0.75" />
		</g>
		<g>
			<title>PF00805</title>
			<polygon class="PF00805" points="1173,19 1174,18 1176,18 1176,44 1174,44 1173,42" stroke-linejoin="round" width="3" height="26" fill="rgb(186,52,164)" stroke="rgb(148,41,131)" stroke-width="1" opacity="0.75" />
		</g>
	</g>
	<g>
		<polygon class="NoName" points="1219,16 1219,16 1219,1 1202,31 1219,61 1219,46 1219,46" fill="rgb(255,255,255)" fill-opacity="1.0" stroke="rgb(50,50,50)" stroke-width="1" />
	</g>
	<g>
		<polygon class="NoName" points="1227,16 1239,16 1239,1 1269,31 1239,61 1239,46 1227,46" fill="rgb(255,255,255)" fill-opacity="1.0" stroke="rgb(50,50,50)" stroke-width="1" />
		<g>
			<title>PF13520</title>
			<polygon class="PF13520" points="1228,18 1253,18 1266,31 1253,44 1228,44" stroke-linejoin="round" width="39" height="26" fill="rgb(180,217,107)" stroke="rgb(144,173,85)" stroke-width="1" opacity="0.75" />
		</g>
	</g>
	<g>
		<polygon class="NoName" points="144,16 174,16 174,1 204,31 174,61 174,46 144,46" fill="rgb(255,255,255)" fill-opacity="1.0" stroke="rgb(50,50,50)" stroke-width="1" />
		<g>
			<title>PF01019</title>
			<polygon class="PF01019" points="146,18 188,18 201,31 188,44 146,44" stroke-linejoin="round" width="56" height="26" fill="rgb(117,205,100)" stroke="rgb(93,164,80)" stroke-width="1" opacity="0.75" />
		</g>
	</g>
	<g>
		<polygon class="NoName" points="208,16 208,16 208,1 223,31 208,61 208,46 208,46" fill="rgb(255,255,255)" fill-opacity="1.0" stroke="rgb(50,50,50)" stroke-width="1" />
		<g>
			<title>PF00903</title>
			<polygon class="PF00903" points="209,18 214,18 220,31 214,44 209,44" stroke-linejoin="round" width="13" height="26" fill="rgb(50,162,189)" stroke="rgb(40,129,151)" stroke-width="1" opacity="0.75" />
		</g>
	</g>
	<g>
		<polygon class="NoName" points="223,16 224,16 224,1 254,31 224,61 224,46 223,46" fill="rgb(255,255,255)" fill-opacity="1.0" stroke="rgb(50,50,50)" stroke-width="1" />
	</g>
	<g>
		<polygon class="NoName" points="309,16 288,16 288,1 258,31 288,61 288,46 309,46" fill="rgb(255,255,255)" fill-opacity="1.0" stroke="rgb(50,50,50)" stroke-width="1" />
		<g>
			<title>PF13193</title>
			<polygon class="PF13193" points="260,31 266,25 266,36" stroke-linejoin="round" width="7" height="26" fill="rgb(182,50,118)" stroke="rgb(145,39,94)" stroke-width="1" opacity="0.75" />
		</g>
		<g>
			<title>PF00501</title>
			<polygon class="PF00501" points="267,24 273,18 307,18 307,44 273,44 267,37" stroke-linejoin="round" width="40" height="26" fill="rgb(60,217,223)" stroke="rgb(48,173,178)" stroke-width="1" opacity="0.75" />
		</g>
	</g>
	<g>
		<polygon class="NoName" points="310,16 315,16 315,1 345,31 315,61 315,46 310,46" fill="rgb(255,255,255)" fill-opacity="1.0" stroke="rgb(50,50,50)" stroke-width="1" />
	</g>
	<g>
		<polygon class="NoName" points="373,16 373,16 373,1 346,31 373,61 373,46 373,46" fill="rgb(255,255,255)" fill-opacity="1.0" stroke="rgb(50,50,50)" stroke-width="1" />
		<g>
			<title>PF02585</title>
			<polygon class="PF02585" points="358,20 360,18 372,18 372,44 360,44 358,41" stroke-linejoin="round" width="14" height="26" fill="rgb(97,215,95)" stroke="rgb(77,172,76)" stroke-width="1" opacity="0.75" />
		</g>
	</g>
	<g>
		<polygon class="NoName" points="417,16 405,16 405,1 375,31 405,61 405,46 417,46" fill="rgb(255,255,255)" fill-opacity="1.0" stroke="rgb(50,50,50)" stroke-width="1" />
		<g>
			<title>PF00155</title>
			<polygon class="PF00155" points="377,31 390,18 411,18 411,44 390,44" stroke-linejoin="round" width="35" height="26" fill="rgb(89,113,198)" stroke="rgb(71,90,158)" stroke-width="1" opacity="0.75" />
		</g>
	</g>
</svg>
