<svg version="1.1" baseProfile="full" xmlns="http://www.w3.org/2000/svg" width="228" height="62">
	<line x1="1" y1="31" x2="227" y2="31" style="stroke:rgb(50,50,50); stroke-width:3 "/>
	<g>
		<title>gccI</title>
		<polygon class="gccI" points="7,16 7,16 7,1 16,31 7,61 7,46 7,46" fill="rgb(219,196,250)" fill-opacity="1.0" stroke="rgb(87,78,100)" stroke-width="1" />
	</g>
	<g>
		<title>gccH</title>
		<polygon class="gccH" points="42,16 42,16 42,1 31,31 42,61 42,46 42,46" fill="rgb(246,252,212)" fill-opacity="1.0" stroke="rgb(98,100,84)" stroke-width="1" />
	</g>
	<g>
		<title>gccA</title>
		<polygon class="gccA" points="44,16 56,16 56,1 86,31 56,61 56,46 44,46" fill="rgb(201,225,253)" fill-opacity="1.0" stroke="rgb(80,90,101)" stroke-width="1" />
		<g>
			<title>PF00535</title>
			<rect class="PF00535" x="48" y="18" stroke-linejoin="round" width="17" height="26" fill="rgb(224,122,96)" stroke="rgb(179,97,76)" stroke-width="1" opacity="0.75" />
		</g>
	</g>
	<g>
		<title>gccB</title>
		<polygon class="gccB" points="86,16 126,16 126,1 156,31 126,61 126,46 86,46" fill="rgb(253,188,206)" fill-opacity="1.0" stroke="rgb(101,75,82)" stroke-width="1" />
		<g>
			<title>PF03412</title>
			<rect class="PF03412" x="86" y="18" stroke-linejoin="round" width="13" height="26" fill="rgb(214,226,77)" stroke="rgb(171,180,61)" stroke-width="1" opacity="0.75" />
		</g>
		<g>
			<title>PF00664</title>
			<rect class="PF00664" x="102" y="18" stroke-linejoin="round" width="27" height="26" fill="rgb(149,226,73)" stroke="rgb(119,180,58)" stroke-width="1" opacity="0.75" />
		</g>
		<g>
			<title>PF00005</title>
			<polygon class="PF00005" points="135,18 140,18 149,27 149,35 140,44 135,44" stroke-linejoin="round" width="14" height="26" fill="rgb(129,201,63)" stroke="rgb(103,160,50)" stroke-width="1" opacity="0.75" />
		</g>
	</g>
	<g>
		<title>gccC</title>
		<polygon class="gccC" points="156,16 156,16 156,1 170,31 156,61 156,46 156,46" fill="rgb(208,230,250)" fill-opacity="1.0" stroke="rgb(83,92,100)" stroke-width="1" />
		<g>
			<title>PF00085</title>
			<polygon class="PF00085" points="159,18 161,18 167,31 161,44 159,44" stroke-linejoin="round" width="10" height="26" fill="rgb(220,109,180)" stroke="rgb(176,87,144)" stroke-width="1" opacity="0.75" />
		</g>
	</g>
	<g>
		<title>gccD</title>
		<polygon class="gccD" points="170,16 170,16 170,1 187,31 170,61 170,46 170,46" fill="rgb(250,191,247)" fill-opacity="1.0" stroke="rgb(100,76,98)" stroke-width="1" />
	</g>
	<g>
		<title>gccE</title>
		<polygon class="gccE" points="187,16 187,16 187,1 212,31 187,61 187,46 187,46" fill="rgb(230,250,204)" fill-opacity="1.0" stroke="rgb(92,100,81)" stroke-width="1" />
		<g>
			<title>PF04397</title>
			<polygon class="PF04397" points="203,24 209,31 203,38" stroke-linejoin="round" width="9" height="26" fill="rgb(207,76,174)" stroke="rgb(165,60,139)" stroke-width="1" opacity="0.75" />
		</g>
	</g>
	<g>
		<title>gccF</title>
		<polygon class="gccF" points="215,16 215,16 215,1 221,31 215,61 215,46 215,46" fill="rgb(250,237,197)" fill-opacity="1.0" stroke="rgb(100,94,78)" stroke-width="1" />
	</g>
</svg>
