<svg version="1.1" baseProfile="full" xmlns="http://www.w3.org/2000/svg" width="232" height="62">
	<line x1="1" y1="31" x2="231" y2="31" style="stroke:rgb(50,50,50); stroke-width:3 "/>
	<g>
		<title>ectR</title>
		<polygon class="ectR" points="46,16 46,16 46,1 28,31 46,61 46,46 46,46" fill="rgb(253,198,250)" fill-opacity="1.0" stroke="rgb(101,79,100)" stroke-width="1" />
		<g>
			<title>PF01047</title>
			<polygon class="PF01047" points="34,24 38,18 39,18 39,44 38,44 34,37" stroke-linejoin="round" width="5" height="26" fill="rgb(60,185,86)" stroke="rgb(48,148,68)" stroke-width="1" opacity="0.75" />
		</g>
	</g>
	<g>
		<title>ectA</title>
		<polygon class="ectA" points="57,16 57,16 57,1 74,31 57,61 57,46 57,46" fill="rgb(244,191,254)" fill-opacity="1.0" stroke="rgb(97,76,101)" stroke-width="1" />
		<g>
			<title>PF00583</title>
			<polygon class="PF00583" points="59,18 64,18 70,28 70,34 64,44 59,44" stroke-linejoin="round" width="11" height="26" fill="rgb(121,183,50)" stroke="rgb(96,146,39)" stroke-width="1" opacity="0.75" />
		</g>
	</g>
	<g>
		<title>ectB</title>
		<polygon class="ectB" points="76,16 90,16 90,1 120,31 90,61 90,46 76,46" fill="rgb(180,250,227)" fill-opacity="1.0" stroke="rgb(72,100,90)" stroke-width="1" />
		<g>
			<title>PF00202</title>
			<polygon class="PF00202" points="77,18 104,18 117,31 117,31 104,44 77,44" stroke-linejoin="round" width="40" height="26" fill="rgb(49,163,189)" stroke="rgb(39,130,151)" stroke-width="1" opacity="0.75" />
		</g>
	</g>
	<g>
		<title>ectC</title>
		<polygon class="ectC" points="122,16 122,16 122,1 135,31 122,61 122,46 122,46" fill="rgb(252,179,192)" fill-opacity="1.0" stroke="rgb(100,71,76)" stroke-width="1" />
		<g>
			<title>PF06339</title>
			<polygon class="PF06339" points="122,18 126,18 132,31 126,44 122,44" stroke-linejoin="round" width="12" height="26" fill="rgb(225,176,81)" stroke="rgb(180,140,64)" stroke-width="1" opacity="0.75" />
		</g>
	</g>
	<g>
		<title>ask</title>
		<polygon class="ask" points="138,16 156,16 156,1 186,31 156,61 156,46 138,46" fill="rgb(245,180,254)" fill-opacity="1.0" stroke="rgb(97,72,101)" stroke-width="1" />
		<g>
			<title>PF00696</title>
			<rect class="PF00696" x="138" y="18" stroke-linejoin="round" width="29" height="26" fill="rgb(148,78,224)" stroke="rgb(118,62,179)" stroke-width="1" opacity="0.75" />
		</g>
		<g>
			<title>PF13840</title>
			<polygon class="PF13840" points="177,25 183,31 183,31 177,37" stroke-linejoin="round" width="6" height="26" fill="rgb(227,81,80)" stroke="rgb(181,64,64)" stroke-width="1" opacity="0.75" />
		</g>
	</g>
	<g>
		<title>phy</title>
		<polygon class="phy" points="198,16 200,16 200,1 230,31 200,61 200,46 198,46" fill="rgb(244,250,208)" fill-opacity="1.0" stroke="rgb(97,100,83)" stroke-width="1" />
		<g>
			<title>PF05721</title>
			<polygon class="PF05721" points="203,18 214,18 224,28 224,34 214,44 203,44" stroke-linejoin="round" width="21" height="26" fill="rgb(72,132,214)" stroke="rgb(57,105,171)" stroke-width="1" opacity="0.75" />
		</g>
	</g>
</svg>
