<svg version="1.1" baseProfile="full" xmlns="http://www.w3.org/2000/svg" width="2170" height="62">
	<line x1="1" y1="31" x2="2169" y2="31" style="stroke:rgb(50,50,50); stroke-width:3 "/>
	<g>
		<title>vcm5</title>
		<polygon class="vcm5" points="1187,16 1196,16 1196,1 1226,31 1196,61 1196,46 1187,46" fill="rgb(221,252,198)" fill-opacity="1.0" stroke="rgb(88,100,79)" stroke-width="1" />
		<g>
			<title>PF00067</title>
			<polygon class="PF00067" points="1213,21 1223,31 1213,41" stroke-linejoin="round" width="11" height="26" fill="rgb(85,216,107)" stroke="rgb(68,172,85)" stroke-width="1" opacity="0.75" />
		</g>
	</g>
	<g>
		<title>vcm6</title>
		<polygon class="vcm6" points="1237,16 1247,16 1247,1 1277,31 1247,61 1247,46 1237,46" fill="rgb(252,240,207)" fill-opacity="1.0" stroke="rgb(100,96,82)" stroke-width="1" />
		<g>
			<title>PF00067</title>
			<polygon class="PF00067" points="1255,18 1261,18 1274,31 1261,44 1255,44" stroke-linejoin="round" width="21" height="26" fill="rgb(85,216,107)" stroke="rgb(68,172,85)" stroke-width="1" opacity="0.75" />
		</g>
	</g>
	<g>
		<title>vcm7</title>
		<polygon class="vcm7" points="1282,16 1292,16 1292,1 1322,31 1292,61 1292,46 1282,46" fill="rgb(252,191,243)" fill-opacity="1.0" stroke="rgb(100,76,97)" stroke-width="1" />
		<g>
			<title>PF00067</title>
			<polygon class="PF00067" points="1309,21 1319,31 1319,31 1309,41" stroke-linejoin="round" width="10" height="26" fill="rgb(85,216,107)" stroke="rgb(68,172,85)" stroke-width="1" opacity="0.75" />
		</g>
	</g>
	<g>
		<title>vcm8</title>
		<polygon class="vcm8" points="1324,16 1343,16 1343,1 1373,31 1343,61 1343,46 1324,46" fill="rgb(196,226,254)" fill-opacity="1.0" stroke="rgb(78,90,101)" stroke-width="1" />
		<g>
			<title>PF04820</title>
			<rect class="PF04820" x="1324" y="18" stroke-linejoin="round" width="9" height="26" fill="rgb(179,74,194)" stroke="rgb(143,59,155)" stroke-width="1" opacity="0.75" />
		</g>
		<g>
			<title>PF04820</title>
			<polygon class="PF04820" points="1333,18 1357,18 1366,27 1366,35 1357,44 1333,44" stroke-linejoin="round" width="33" height="26" fill="rgb(179,74,194)" stroke="rgb(143,59,155)" stroke-width="1" opacity="0.75" />
		</g>
	</g>
	<g>
		<title>vcm9</title>
		<polygon class="vcm9" points="1375,16 1385,16 1385,1 1415,31 1385,61 1385,46 1375,46" fill="rgb(251,200,201)" fill-opacity="1.0" stroke="rgb(100,80,80)" stroke-width="1" />
		<g>
			<title>PF03033</title>
			<rect class="PF03033" x="1375" y="18" stroke-linejoin="round" width="13" height="26" fill="rgb(157,218,79)" stroke="rgb(125,174,63)" stroke-width="1" opacity="0.75" />
		</g>
	</g>
	<g>
		<title>vcm10</title>
		<polygon class="vcm10" points="1418,16 1428,16 1428,1 1458,31 1428,61 1428,46 1418,46" fill="rgb(250,175,210)" fill-opacity="1.0" stroke="rgb(100,69,84)" stroke-width="1" />
		<g>
			<title>PF03033</title>
			<rect class="PF03033" x="1418" y="18" stroke-linejoin="round" width="13" height="26" fill="rgb(157,218,79)" stroke="rgb(125,174,63)" stroke-width="1" opacity="0.75" />
		</g>
		<g>
			<title>PF04101</title>
			<polygon class="PF04101" points="1447,23 1455,31 1447,39" stroke-linejoin="round" width="10" height="26" fill="rgb(211,90,140)" stroke="rgb(168,72,112)" stroke-width="1" opacity="0.75" />
		</g>
	</g>
	<g>
		<title>vcm11</title>
		<polygon class="vcm11" points="1459,16 1469,16 1469,1 1499,31 1469,61 1469,46 1459,46" fill="rgb(180,250,186)" fill-opacity="1.0" stroke="rgb(72,100,74)" stroke-width="1" />
		<g>
			<title>PF08421</title>
			<rect class="PF08421" x="1459" y="18" stroke-linejoin="round" width="5" height="26" fill="rgb(209,96,160)" stroke="rgb(167,76,128)" stroke-width="1" opacity="0.75" />
		</g>
		<g>
			<title>PF13489</title>
			<rect class="PF13489" x="1466" y="18" stroke-linejoin="round" width="16" height="26" fill="rgb(188,189,66)" stroke="rgb(150,151,52)" stroke-width="1" opacity="0.75" />
		</g>
		<g>
			<title>PF08484</title>
			<polygon class="PF08484" points="1483,18 1483,18 1496,31 1483,44 1483,44" stroke-linejoin="round" width="15" height="26" fill="rgb(229,72,107)" stroke="rgb(183,57,85)" stroke-width="1" opacity="0.75" />
		</g>
	</g>
	<g>
		<polygon class="NoName" points="1500,16 1500,16 1500,1 1527,31 1500,61 1500,46 1500,46" fill="rgb(255,255,255)" fill-opacity="1.0" stroke="rgb(50,50,50)" stroke-width="1" />
		<g>
			<title>PF02585</title>
			<polygon class="PF02585" points="1501,18 1512,18 1517,23 1517,39 1512,44 1501,44" stroke-linejoin="round" width="16" height="26" fill="rgb(97,215,95)" stroke="rgb(77,172,76)" stroke-width="1" opacity="0.75" />
		</g>
	</g>
	<g>
		<title>vcm12</title>
		<polygon class="vcm12" points="1529,16 1529,16 1529,1 1557,31 1529,61 1529,46 1529,46" fill="rgb(212,197,249)" fill-opacity="1.0" stroke="rgb(84,78,99)" stroke-width="1" />
		<g>
			<title>PF13649</title>
			<polygon class="PF13649" points="1535,18 1542,18 1544,21 1544,41 1542,44 1535,44" stroke-linejoin="round" width="9" height="26" fill="rgb(227,135,74)" stroke="rgb(181,108,59)" stroke-width="1" opacity="0.75" />
		</g>
	</g>
	<g>
		<title>vcm13</title>
		<polygon class="vcm13" points="1600,16 1587,16 1587,1 1557,31 1587,61 1587,46 1600,46" fill="rgb(220,251,203)" fill-opacity="1.0" stroke="rgb(88,100,81)" stroke-width="1" />
		<g>
			<title>PF00155</title>
			<polygon class="PF00155" points="1559,31 1572,18 1594,18 1594,44 1572,44" stroke-linejoin="round" width="36" height="26" fill="rgb(89,113,198)" stroke="rgb(71,90,158)" stroke-width="1" opacity="0.75" />
		</g>
	</g>
	<g>
		<title>vanH</title>
		<polygon class="vanH" points="1,16 5,16 5,1 35,31 5,61 5,46 1,46" fill="rgb(251,199,217)" fill-opacity="1.0" stroke="rgb(100,79,86)" stroke-width="1" />
		<g>
			<title>PF02826</title>
			<polygon class="PF02826" points="14,18 19,18 32,31 32,31 19,44 14,44" stroke-linejoin="round" width="18" height="26" fill="rgb(192,197,93)" stroke="rgb(153,157,74)" stroke-width="1" opacity="0.75" />
		</g>
	</g>
	<g>
		<title>vcm14</title>
		<polygon class="vcm14" points="1608,16 1608,16 1608,1 1635,31 1608,61 1608,46 1608,46" fill="rgb(250,192,250)" fill-opacity="1.0" stroke="rgb(100,76,100)" stroke-width="1" />
		<g>
			<title>PF12697</title>
			<polygon class="PF12697" points="1610,18 1620,18 1632,31 1620,44 1610,44" stroke-linejoin="round" width="23" height="26" fill="rgb(113,71,219)" stroke="rgb(90,56,175)" stroke-width="1" opacity="0.75" />
		</g>
	</g>
	<g>
		<title>vcm15</title>
		<polygon class="vcm15" points="1637,16 1663,16 1663,1 1693,31 1663,61 1663,46 1637,46" fill="rgb(209,254,189)" fill-opacity="1.0" stroke="rgb(83,101,75)" stroke-width="1" />
		<g>
			<title>PF00501</title>
			<rect class="PF00501" x="1637" y="18" stroke-linejoin="round" width="38" height="26" fill="rgb(60,217,223)" stroke="rgb(48,173,178)" stroke-width="1" opacity="0.75" />
		</g>
		<g>
			<title>PF13193</title>
			<polygon class="PF13193" points="1676,18 1677,18 1683,24 1683,38 1677,44 1676,44" stroke-linejoin="round" width="7" height="26" fill="rgb(182,50,118)" stroke="rgb(145,39,94)" stroke-width="1" opacity="0.75" />
		</g>
		<g>
			<title>PF00550</title>
			<polygon class="PF00550" points="1686,27 1690,31 1686,35" stroke-linejoin="round" width="6" height="26" fill="rgb(103,191,88)" stroke="rgb(82,152,70)" stroke-width="1" opacity="0.75" />
		</g>
	</g>
	<g>
		<title>vcm16</title>
		<polygon class="vcm16" points="1694,16 1703,16 1703,1 1733,31 1703,61 1703,46 1694,46" fill="rgb(251,215,194)" fill-opacity="1.0" stroke="rgb(100,86,77)" stroke-width="1" />
		<g>
			<title>PF00067</title>
			<polygon class="PF00067" points="1720,21 1729,30 1729,32 1720,41" stroke-linejoin="round" width="9" height="26" fill="rgb(85,216,107)" stroke="rgb(68,172,85)" stroke-width="1" opacity="0.75" />
		</g>
	</g>
	<g>
		<title>vcm17</title>
		<polygon class="vcm17" points="1737,16 1741,16 1741,1 1771,31 1741,61 1741,46 1737,46" fill="rgb(198,242,251)" fill-opacity="1.0" stroke="rgb(79,96,100)" stroke-width="1" />
		<g>
			<title>PF14696</title>
			<rect class="PF14696" x="1737" y="18" stroke-linejoin="round" width="13" height="26" fill="rgb(50,199,116)" stroke="rgb(40,159,92)" stroke-width="1" opacity="0.75" />
		</g>
		<g>
			<title>PF00903</title>
			<polygon class="PF00903" points="1751,18 1755,18 1765,28 1765,34 1755,44 1751,44" stroke-linejoin="round" width="14" height="26" fill="rgb(50,162,189)" stroke="rgb(40,129,151)" stroke-width="1" opacity="0.75" />
		</g>
	</g>
	<g>
		<title>vcm18</title>
		<polygon class="vcm18" points="1772,16 1778,16 1778,1 1808,31 1778,61 1778,46 1772,46" fill="rgb(180,236,249)" fill-opacity="1.0" stroke="rgb(72,94,99)" stroke-width="1" />
		<g>
			<title>PF01070</title>
			<polygon class="PF01070" points="1773,18 1792,18 1805,31 1792,44 1773,44" stroke-linejoin="round" width="34" height="26" fill="rgb(59,82,204)" stroke="rgb(47,65,163)" stroke-width="1" opacity="0.75" />
		</g>
	</g>
	<g>
		<polygon class="NoName" points="1815,16 1824,16 1824,1 1854,31 1824,61 1824,46 1815,46" fill="rgb(255,255,255)" fill-opacity="1.0" stroke="rgb(50,50,50)" stroke-width="1" />
	</g>
	<g>
		<title>vcm19</title>
		<polygon class="vcm19" points="1860,16 1876,16 1876,1 1906,31 1876,61 1876,46 1860,46" fill="rgb(224,254,198)" fill-opacity="1.0" stroke="rgb(89,101,79)" stroke-width="1" />
		<g>
			<title>PF03559</title>
			<rect class="PF03559" x="1863" y="18" stroke-linejoin="round" width="20" height="26" fill="rgb(74,201,66)" stroke="rgb(59,160,52)" stroke-width="1" opacity="0.75" />
		</g>
		<g>
			<title>PF03559</title>
			<polygon class="PF03559" points="1885,18 1890,18 1903,31 1890,44 1885,44" stroke-linejoin="round" width="20" height="26" fill="rgb(74,201,66)" stroke="rgb(59,160,52)" stroke-width="1" opacity="0.75" />
		</g>
	</g>
	<g>
		<title>vcm20</title>
		<polygon class="vcm20" points="1907,16 1909,16 1909,1 1939,31 1909,61 1909,46 1907,46" fill="rgb(234,207,250)" fill-opacity="1.0" stroke="rgb(93,82,100)" stroke-width="1" />
		<g>
			<title>PF01370</title>
			<polygon class="PF01370" points="1907,18 1923,18 1930,25 1930,37 1923,44 1907,44" stroke-linejoin="round" width="23" height="26" fill="rgb(98,102,214)" stroke="rgb(78,81,171)" stroke-width="1" opacity="0.75" />
		</g>
	</g>
	<g>
		<title>vcm21</title>
		<polygon class="vcm21" points="1940,16 1947,16 1947,1 1977,31 1947,61 1947,46 1940,46" fill="rgb(247,193,250)" fill-opacity="1.0" stroke="rgb(98,77,100)" stroke-width="1" />
		<g>
			<title>PF01041</title>
			<polygon class="PF01041" points="1941,18 1961,18 1974,31 1961,44 1941,44" stroke-linejoin="round" width="34" height="26" fill="rgb(59,139,191)" stroke="rgb(47,111,152)" stroke-width="1" opacity="0.75" />
		</g>
	</g>
	<g>
		<title>vcm22</title>
		<polygon class="vcm22" points="1977,16 1977,16 1977,1 1997,31 1977,61 1977,46 1977,46" fill="rgb(247,208,250)" fill-opacity="1.0" stroke="rgb(98,83,100)" stroke-width="1" />
		<g>
			<title>PF00908</title>
			<polygon class="PF00908" points="1977,18 1985,18 1994,31 1994,31 1985,44 1977,44" stroke-linejoin="round" width="17" height="26" fill="rgb(184,89,121)" stroke="rgb(147,71,96)" stroke-width="1" opacity="0.75" />
		</g>
	</g>
	<g>
		<title>vanA</title>
		<polygon class="vanA" points="35,16 39,16 39,1 69,31 39,61 39,46 35,46" fill="rgb(189,250,216)" fill-opacity="1.0" stroke="rgb(75,100,86)" stroke-width="1" />
		<g>
			<title>PF01820</title>
			<rect class="PF01820" x="35" y="18" stroke-linejoin="round" width="11" height="26" fill="rgb(55,160,179)" stroke="rgb(44,127,143)" stroke-width="1" opacity="0.75" />
		</g>
		<g>
			<title>PF07478</title>
			<polygon class="PF07478" points="48,18 53,18 66,31 53,44 48,44" stroke-linejoin="round" width="19" height="26" fill="rgb(202,54,160)" stroke="rgb(161,43,127)" stroke-width="1" opacity="0.75" />
		</g>
	</g>
	<g>
		<title>vcm23</title>
		<polygon class="vcm23" points="2001,16 2008,16 2008,1 2038,31 2008,61 2008,46 2001,46" fill="rgb(204,253,253)" fill-opacity="1.0" stroke="rgb(81,101,101)" stroke-width="1" />
		<g>
			<title>PF00195</title>
			<polygon class="PF00195" points="2009,18 2022,18 2023,19 2023,43 2022,44 2009,44" stroke-linejoin="round" width="14" height="26" fill="rgb(60,181,161)" stroke="rgb(47,144,128)" stroke-width="1" opacity="0.75" />
		</g>
		<g>
			<title>PF02797</title>
			<polygon class="PF02797" points="2025,21 2035,31 2025,41" stroke-linejoin="round" width="12" height="26" fill="rgb(139,212,63)" stroke="rgb(111,169,50)" stroke-width="1" opacity="0.75" />
		</g>
	</g>
	<g>
		<title>vcm24</title>
		<polygon class="vcm24" points="2039,16 2039,16 2039,1 2060,31 2039,61 2039,46 2039,46" fill="rgb(206,253,230)" fill-opacity="1.0" stroke="rgb(82,101,92)" stroke-width="1" />
		<g>
			<title>PF00378</title>
			<polygon class="PF00378" points="2044,18 2048,18 2057,31 2048,44 2044,44" stroke-linejoin="round" width="14" height="26" fill="rgb(218,72,181)" stroke="rgb(174,57,144)" stroke-width="1" opacity="0.75" />
		</g>
	</g>
	<g>
		<title>vcm25</title>
		<polygon class="vcm25" points="2060,16 2070,16 2070,1 2100,31 2070,61 2070,46 2060,46" fill="rgb(186,251,222)" fill-opacity="1.0" stroke="rgb(74,100,88)" stroke-width="1" />
		<g>
			<title>PF00378</title>
			<polygon class="PF00378" points="2074,18 2084,18 2096,30 2096,32 2084,44 2074,44" stroke-linejoin="round" width="22" height="26" fill="rgb(218,72,181)" stroke="rgb(174,57,144)" stroke-width="1" opacity="0.75" />
		</g>
	</g>
	<g>
		<title>vcm26</title>
		<polygon class="vcm26" points="2101,16 2101,16 2101,1 2127,31 2101,61 2101,46 2101,46" fill="rgb(226,250,198)" fill-opacity="1.0" stroke="rgb(90,100,79)" stroke-width="1" />
		<g>
			<title>PF00378</title>
			<polygon class="PF00378" points="2101,18 2113,18 2124,31 2113,44 2101,44" stroke-linejoin="round" width="25" height="26" fill="rgb(218,72,181)" stroke="rgb(174,57,144)" stroke-width="1" opacity="0.75" />
		</g>
	</g>
	<g>
		<polygon class="NoName" points="2133,16 2138,16 2138,1 2168,31 2138,61 2138,46 2133,46" fill="rgb(255,255,255)" fill-opacity="1.0" stroke="rgb(50,50,50)" stroke-width="1" />
		<g>
			<title>PF00793</title>
			<polygon class="PF00793" points="2136,18 2152,18 2165,31 2152,44 2136,44" stroke-linejoin="round" width="31" height="26" fill="rgb(223,103,208)" stroke="rgb(178,82,166)" stroke-width="1" opacity="0.75" />
		</g>
	</g>
	<g>
		<title>vanX</title>
		<polygon class="vanX" points="69,16 69,16 69,1 89,31 69,61 69,46 69,46" fill="rgb(187,197,251)" fill-opacity="1.0" stroke="rgb(74,78,100)" stroke-width="1" />
		<g>
			<title>PF01427</title>
			<polygon class="PF01427" points="69,18 77,18 86,31 77,44 69,44" stroke-linejoin="round" width="20" height="26" fill="rgb(224,66,206)" stroke="rgb(179,52,164)" stroke-width="1" opacity="0.75" />
		</g>
	</g>
	<g>
		<title>vtrR</title>
		<polygon class="vtrR" points="123,16 125,16 125,1 155,31 125,61 125,46 123,46" fill="rgb(253,243,194)" fill-opacity="1.0" stroke="rgb(101,97,77)" stroke-width="1" />
		<g>
			<title>PF02195</title>
			<rect class="PF02195" x="124" y="18" stroke-linejoin="round" width="8" height="26" fill="rgb(55,214,209)" stroke="rgb(44,171,167)" stroke-width="1" opacity="0.75" />
		</g>
		<g>
			<title>PF13412</title>
			<polygon class="PF13412" points="140,19 143,22 143,40 140,43" stroke-linejoin="round" width="3" height="26" fill="rgb(222,79,68)" stroke="rgb(177,63,54)" stroke-width="1" opacity="0.75" />
		</g>
	</g>
	<g>
		<title>vcm1</title>
		<polygon class="vcm1" points="160,16 160,16 160,1 188,31 160,61 160,46 160,46" fill="rgb(202,253,235)" fill-opacity="1.0" stroke="rgb(80,101,93)" stroke-width="1" />
		<g>
			<title>PF02153</title>
			<polygon class="PF02153" points="162,18 173,18 185,31 173,44 162,44" stroke-linejoin="round" width="24" height="26" fill="rgb(90,185,212)" stroke="rgb(72,148,169)" stroke-width="1" opacity="0.75" />
		</g>
	</g>
	<g>
		<polygon class="NoName" points="187,16 228,16 228,1 258,31 228,61 228,46 187,46" fill="rgb(255,255,255)" fill-opacity="1.0" stroke="rgb(50,50,50)" stroke-width="1" />
		<g>
			<title>PF00664</title>
			<rect class="PF00664" x="197" y="18" stroke-linejoin="round" width="27" height="26" fill="rgb(149,226,73)" stroke="rgb(119,180,58)" stroke-width="1" opacity="0.75" />
		</g>
		<g>
			<title>PF00005</title>
			<polygon class="PF00005" points="232,18 242,18 246,22 246,40 242,44 232,44" stroke-linejoin="round" width="14" height="26" fill="rgb(129,201,63)" stroke="rgb(103,160,50)" stroke-width="1" opacity="0.75" />
		</g>
	</g>
	<g>
		<title>vcm2</title>
		<polygon class="vcm2" points="258,16 543,16 543,1 573,31 543,61 543,46 258,46" fill="rgb(250,214,208)" fill-opacity="1.0" stroke="rgb(100,85,83)" stroke-width="1" />
		<g>
			<title>PF00501</title>
			<rect class="PF00501" x="259" y="18" stroke-linejoin="round" width="38" height="26" fill="rgb(60,217,223)" stroke="rgb(48,173,178)" stroke-width="1" opacity="0.75" />
		</g>
		<g>
			<title>PF13193</title>
			<rect class="PF13193" x="299" y="18" stroke-linejoin="round" width="6" height="26" fill="rgb(182,50,118)" stroke="rgb(145,39,94)" stroke-width="1" opacity="0.75" />
		</g>
		<g>
			<title>PF00550</title>
			<rect class="PF00550" x="308" y="18" stroke-linejoin="round" width="6" height="26" fill="rgb(103,191,88)" stroke="rgb(82,152,70)" stroke-width="1" opacity="0.75" />
		</g>
		<g>
			<title>PF00668</title>
			<rect class="PF00668" x="318" y="18" stroke-linejoin="round" width="42" height="26" fill="rgb(224,184,98)" stroke="rgb(179,147,78)" stroke-width="1" opacity="0.75" />
		</g>
		<g>
			<title>PF00501</title>
			<rect class="PF00501" x="362" y="18" stroke-linejoin="round" width="38" height="26" fill="rgb(60,217,223)" stroke="rgb(48,173,178)" stroke-width="1" opacity="0.75" />
		</g>
		<g>
			<title>PF13193</title>
			<rect class="PF13193" x="401" y="18" stroke-linejoin="round" width="6" height="26" fill="rgb(182,50,118)" stroke="rgb(145,39,94)" stroke-width="1" opacity="0.75" />
		</g>
		<g>
			<title>PF00550</title>
			<rect class="PF00550" x="410" y="18" stroke-linejoin="round" width="6" height="26" fill="rgb(103,191,88)" stroke="rgb(82,152,70)" stroke-width="1" opacity="0.75" />
		</g>
		<g>
			<title>PF00668</title>
			<rect class="PF00668" x="420" y="18" stroke-linejoin="round" width="44" height="26" fill="rgb(224,184,98)" stroke="rgb(179,147,78)" stroke-width="1" opacity="0.75" />
		</g>
		<g>
			<title>PF00668</title>
			<rect class="PF00668" x="466" y="18" stroke-linejoin="round" width="43" height="26" fill="rgb(224,184,98)" stroke="rgb(179,147,78)" stroke-width="1" opacity="0.75" />
		</g>
		<g>
			<title>PF00501</title>
			<rect class="PF00501" x="512" y="18" stroke-linejoin="round" width="40" height="26" fill="rgb(60,217,223)" stroke="rgb(48,173,178)" stroke-width="1" opacity="0.75" />
		</g>
		<g>
			<title>PF13193</title>
			<polygon class="PF13193" points="553,18 557,18 560,21 560,41 557,44 553,44" stroke-linejoin="round" width="7" height="26" fill="rgb(182,50,118)" stroke="rgb(145,39,94)" stroke-width="1" opacity="0.75" />
		</g>
		<g>
			<title>PF00550</title>
			<polygon class="PF00550" points="563,24 569,30 569,32 563,38" stroke-linejoin="round" width="6" height="26" fill="rgb(103,191,88)" stroke="rgb(82,152,70)" stroke-width="1" opacity="0.75" />
		</g>
	</g>
	<g>
		<title>vcm3</title>
		<polygon class="vcm3" points="585,16 960,16 960,1 990,31 960,61 960,46 585,46" fill="rgb(211,209,251)" fill-opacity="1.0" stroke="rgb(84,83,100)" stroke-width="1" />
		<g>
			<title>PF00668</title>
			<rect class="PF00668" x="585" y="18" stroke-linejoin="round" width="43" height="26" fill="rgb(224,184,98)" stroke="rgb(179,147,78)" stroke-width="1" opacity="0.75" />
		</g>
		<g>
			<title>PF00501</title>
			<rect class="PF00501" x="631" y="18" stroke-linejoin="round" width="39" height="26" fill="rgb(60,217,223)" stroke="rgb(48,173,178)" stroke-width="1" opacity="0.75" />
		</g>
		<g>
			<title>PF13193</title>
			<rect class="PF13193" x="671" y="18" stroke-linejoin="round" width="7" height="26" fill="rgb(182,50,118)" stroke="rgb(145,39,94)" stroke-width="1" opacity="0.75" />
		</g>
		<g>
			<title>PF00550</title>
			<rect class="PF00550" x="680" y="18" stroke-linejoin="round" width="6" height="26" fill="rgb(103,191,88)" stroke="rgb(82,152,70)" stroke-width="1" opacity="0.75" />
		</g>
		<g>
			<title>PF00668</title>
			<rect class="PF00668" x="690" y="18" stroke-linejoin="round" width="34" height="26" fill="rgb(224,184,98)" stroke="rgb(179,147,78)" stroke-width="1" opacity="0.75" />
		</g>
		<g>
			<title>PF00668</title>
			<rect class="PF00668" x="734" y="18" stroke-linejoin="round" width="43" height="26" fill="rgb(224,184,98)" stroke="rgb(179,147,78)" stroke-width="1" opacity="0.75" />
		</g>
		<g>
			<title>PF00501</title>
			<rect class="PF00501" x="779" y="18" stroke-linejoin="round" width="39" height="26" fill="rgb(60,217,223)" stroke="rgb(48,173,178)" stroke-width="1" opacity="0.75" />
		</g>
		<g>
			<title>PF13193</title>
			<rect class="PF13193" x="819" y="18" stroke-linejoin="round" width="7" height="26" fill="rgb(182,50,118)" stroke="rgb(145,39,94)" stroke-width="1" opacity="0.75" />
		</g>
		<g>
			<title>PF00550</title>
			<rect class="PF00550" x="829" y="18" stroke-linejoin="round" width="6" height="26" fill="rgb(103,191,88)" stroke="rgb(82,152,70)" stroke-width="1" opacity="0.75" />
		</g>
		<g>
			<title>PF00668</title>
			<rect class="PF00668" x="839" y="18" stroke-linejoin="round" width="41" height="26" fill="rgb(224,184,98)" stroke="rgb(179,147,78)" stroke-width="1" opacity="0.75" />
		</g>
		<g>
			<title>PF00668</title>
			<rect class="PF00668" x="884" y="18" stroke-linejoin="round" width="43" height="26" fill="rgb(224,184,98)" stroke="rgb(179,147,78)" stroke-width="1" opacity="0.75" />
		</g>
		<g>
			<title>PF00501</title>
			<rect class="PF00501" x="930" y="18" stroke-linejoin="round" width="38" height="26" fill="rgb(60,217,223)" stroke="rgb(48,173,178)" stroke-width="1" opacity="0.75" />
		</g>
		<g>
			<title>PF13193</title>
			<polygon class="PF13193" points="969,18 974,18 976,20 976,42 974,44 969,44" stroke-linejoin="round" width="7" height="26" fill="rgb(182,50,118)" stroke="rgb(145,39,94)" stroke-width="1" opacity="0.75" />
		</g>
		<g>
			<title>PF00550</title>
			<polygon class="PF00550" points="979,23 985,29 985,33 979,39" stroke-linejoin="round" width="6" height="26" fill="rgb(103,191,88)" stroke="rgb(82,152,70)" stroke-width="1" opacity="0.75" />
		</g>
	</g>
	<g>
		<title>vcm4</title>
		<polygon class="vcm4" points="991,16 1146,16 1146,1 1176,31 1146,61 1146,46 991,46" fill="rgb(252,191,200)" fill-opacity="1.0" stroke="rgb(100,76,80)" stroke-width="1" />
		<g>
			<title>PF00668</title>
			<rect class="PF00668" x="992" y="18" stroke-linejoin="round" width="43" height="26" fill="rgb(224,184,98)" stroke="rgb(179,147,78)" stroke-width="1" opacity="0.75" />
		</g>
		<g>
			<title>PF00501</title>
			<rect class="PF00501" x="1038" y="18" stroke-linejoin="round" width="39" height="26" fill="rgb(60,217,223)" stroke="rgb(48,173,178)" stroke-width="1" opacity="0.75" />
		</g>
		<g>
			<title>PF13193</title>
			<rect class="PF13193" x="1078" y="18" stroke-linejoin="round" width="7" height="26" fill="rgb(182,50,118)" stroke="rgb(145,39,94)" stroke-width="1" opacity="0.75" />
		</g>
		<g>
			<title>PF00550</title>
			<rect class="PF00550" x="1088" y="18" stroke-linejoin="round" width="6" height="26" fill="rgb(103,191,88)" stroke="rgb(82,152,70)" stroke-width="1" opacity="0.75" />
		</g>
		<g>
			<title>PF00668</title>
			<rect class="PF00668" x="1095" y="18" stroke-linejoin="round" width="45" height="26" fill="rgb(224,184,98)" stroke="rgb(179,147,78)" stroke-width="1" opacity="0.75" />
		</g>
		<g>
			<title>PF00975</title>
			<polygon class="PF00975" points="1153,18 1160,18 1173,31 1160,44 1153,44" stroke-linejoin="round" width="22" height="26" fill="rgb(207,80,138)" stroke="rgb(165,63,110)" stroke-width="1" opacity="0.75" />
		</g>
	</g>
</svg>
