<svg version="1.1" baseProfile="full" xmlns="http://www.w3.org/2000/svg" width="1056" height="62">
	<line x1="1" y1="31" x2="1055" y2="31" style="stroke:rgb(50,50,50); stroke-width:3 "/>
	<g>
		<polygon class="NoName" points="442,16 442,16 442,1 420,31 442,61 442,46 442,46" fill="rgb(255,255,255)" fill-opacity="1.0" stroke="rgb(50,50,50)" stroke-width="1" />
		<g>
			<title>PF00353</title>
			<polygon class="PF00353" points="426,26 427,24 427,37 426,35" stroke-linejoin="round" width="1" height="26" fill="rgb(73,143,181)" stroke="rgb(58,114,144)" stroke-width="1" opacity="0.75" />
		</g>
		<g>
			<title>PF00353</title>
			<polygon class="PF00353" points="429,22 430,20 430,41 429,39" stroke-linejoin="round" width="1" height="26" fill="rgb(73,143,181)" stroke="rgb(58,114,144)" stroke-width="1" opacity="0.75" />
		</g>
		<g>
			<title>PF00353</title>
			<polygon class="PF00353" points="432,18 432,18 433,18 433,44 432,44 432,43" stroke-linejoin="round" width="1" height="26" fill="rgb(73,143,181)" stroke="rgb(58,114,144)" stroke-width="1" opacity="0.75" />
		</g>
		<g>
			<title>PF00353</title>
			<rect class="PF00353" x="434" y="18" stroke-linejoin="round" width="1" height="26" fill="rgb(73,143,181)" stroke="rgb(58,114,144)" stroke-width="1" opacity="0.75" />
		</g>
		<g>
			<title>PF00353</title>
			<rect class="PF00353" x="436" y="18" stroke-linejoin="round" width="1" height="26" fill="rgb(73,143,181)" stroke="rgb(58,114,144)" stroke-width="1" opacity="0.75" />
		</g>
		<g>
			<title>PF00353</title>
			<rect class="PF00353" x="438" y="18" stroke-linejoin="round" width="1" height="26" fill="rgb(73,143,181)" stroke="rgb(58,114,144)" stroke-width="1" opacity="0.75" />
		</g>
		<g>
			<title>PF00353</title>
			<rect class="PF00353" x="439" y="18" stroke-linejoin="round" width="1" height="26" fill="rgb(73,143,181)" stroke="rgb(58,114,144)" stroke-width="1" opacity="0.75" />
		</g>
	</g>
	<g>
		<polygon class="NoName" points="498,16 481,16 481,1 451,31 481,61 481,46 498,46" fill="rgb(255,255,255)" fill-opacity="1.0" stroke="rgb(50,50,50)" stroke-width="1" />
		<g>
			<title>PF13437</title>
			<polygon class="PF13437" points="454,30 465,19 465,42 454,31" stroke-linejoin="round" width="11" height="26" fill="rgb(82,200,102)" stroke="rgb(65,160,81)" stroke-width="1" opacity="0.75" />
		</g>
	</g>
	<g>
		<polygon class="NoName" points="557,16 528,16 528,1 498,31 528,61 528,46 557,46" fill="rgb(255,255,255)" fill-opacity="1.0" stroke="rgb(50,50,50)" stroke-width="1" />
		<g>
			<title>PF00005</title>
			<polygon class="PF00005" points="505,26 513,18 519,18 519,44 513,44 505,35" stroke-linejoin="round" width="14" height="26" fill="rgb(129,201,63)" stroke="rgb(103,160,50)" stroke-width="1" opacity="0.75" />
		</g>
		<g>
			<title>PF00664</title>
			<rect class="PF00664" x="526" y="18" stroke-linejoin="round" width="26" height="26" fill="rgb(149,226,73)" stroke="rgb(119,180,58)" stroke-width="1" opacity="0.75" />
		</g>
	</g>
	<g>
		<polygon class="NoName" points="564,16 564,16 564,1 583,31 564,61 564,46 564,46" fill="rgb(255,255,255)" fill-opacity="1.0" stroke="rgb(50,50,50)" stroke-width="1" />
		<g>
			<title>PF12802</title>
			<polygon class="PF12802" points="571,18 572,18 577,26 577,36 572,44 571,44" stroke-linejoin="round" width="6" height="26" fill="rgb(46,89,185)" stroke="rgb(36,71,148)" stroke-width="1" opacity="0.75" />
		</g>
	</g>
	<g>
		<polygon class="NoName" points="588,16 599,16 599,1 629,31 599,61 599,46 588,46" fill="rgb(255,255,255)" fill-opacity="1.0" stroke="rgb(50,50,50)" stroke-width="1" />
		<g>
			<title>PF12000</title>
			<rect class="PF12000" x="590" y="18" stroke-linejoin="round" width="16" height="26" fill="rgb(114,224,74)" stroke="rgb(91,179,59)" stroke-width="1" opacity="0.75" />
		</g>
		<g>
			<title>PF00534</title>
			<polygon class="PF00534" points="608,18 613,18 625,30 625,32 613,44 608,44" stroke-linejoin="round" width="17" height="26" fill="rgb(228,92,150)" stroke="rgb(182,73,119)" stroke-width="1" opacity="0.75" />
		</g>
	</g>
	<g>
		<polygon class="NoName" points="636,16 655,16 655,1 685,31 655,61 655,46 636,46" fill="rgb(255,255,255)" fill-opacity="1.0" stroke="rgb(50,50,50)" stroke-width="1" />
	</g>
	<g>
		<polygon class="NoName" points="686,16 693,16 693,1 723,31 693,61 693,46 686,46" fill="rgb(255,255,255)" fill-opacity="1.0" stroke="rgb(50,50,50)" stroke-width="1" />
		<g>
			<title>PF00535</title>
			<rect class="PF00535" x="686" y="18" stroke-linejoin="round" width="17" height="26" fill="rgb(224,122,96)" stroke="rgb(179,97,76)" stroke-width="1" opacity="0.75" />
		</g>
	</g>
	<g>
		<polygon class="NoName" points="727,16 743,16 743,1 773,31 743,61 743,46 727,46" fill="rgb(255,255,255)" fill-opacity="1.0" stroke="rgb(50,50,50)" stroke-width="1" />
		<g>
			<title>PF13439</title>
			<rect class="PF13439" x="733" y="18" stroke-linejoin="round" width="17" height="26" fill="rgb(162,57,186)" stroke="rgb(129,45,148)" stroke-width="1" opacity="0.75" />
		</g>
		<g>
			<title>PF00534</title>
			<polygon class="PF00534" points="752,18 757,18 768,29 768,33 757,44 752,44" stroke-linejoin="round" width="16" height="26" fill="rgb(228,92,150)" stroke="rgb(182,73,119)" stroke-width="1" opacity="0.75" />
		</g>
	</g>
	<g>
		<polygon class="NoName" points="775,16 784,16 784,1 814,31 784,61 784,46 775,46" fill="rgb(255,255,255)" fill-opacity="1.0" stroke="rgb(50,50,50)" stroke-width="1" />
		<g>
			<title>PF04230</title>
			<polygon class="PF04230" points="780,18 798,18 807,27 807,35 798,44 780,44" stroke-linejoin="round" width="27" height="26" fill="rgb(211,93,213)" stroke="rgb(168,74,170)" stroke-width="1" opacity="0.75" />
		</g>
	</g>
	<g>
		<polygon class="NoName" points="816,16 825,16 825,1 855,31 825,61 825,46 816,46" fill="rgb(255,255,255)" fill-opacity="1.0" stroke="rgb(50,50,50)" stroke-width="1" />
		<g>
			<title>PF04230</title>
			<polygon class="PF04230" points="820,18 839,18 848,27 848,35 839,44 820,44" stroke-linejoin="round" width="28" height="26" fill="rgb(211,93,213)" stroke="rgb(168,74,170)" stroke-width="1" opacity="0.75" />
		</g>
	</g>
	<g>
		<polygon class="NoName" points="12,16 12,16 12,1 35,31 12,61 12,46 12,46" fill="rgb(255,255,255)" fill-opacity="1.0" stroke="rgb(50,50,50)" stroke-width="1" />
		<g>
			<title>PF13419</title>
			<polygon class="PF13419" points="14,18 22,18 31,30 31,32 22,44 14,44" stroke-linejoin="round" width="17" height="26" fill="rgb(60,223,188)" stroke="rgb(48,178,150)" stroke-width="1" opacity="0.75" />
		</g>
	</g>
	<g>
		<polygon class="NoName" points="854,16 863,16 863,1 893,31 863,61 863,46 854,46" fill="rgb(255,255,255)" fill-opacity="1.0" stroke="rgb(50,50,50)" stroke-width="1" />
	</g>
	<g>
		<polygon class="NoName" points="894,16 894,16 894,1 923,31 894,61 894,46 894,46" fill="rgb(255,255,255)" fill-opacity="1.0" stroke="rgb(50,50,50)" stroke-width="1" />
		<g>
			<title>PF00483</title>
			<polygon class="PF00483" points="894,18 907,18 917,28 917,34 907,44 894,44" stroke-linejoin="round" width="23" height="26" fill="rgb(198,101,87)" stroke="rgb(158,80,69)" stroke-width="1" opacity="0.75" />
		</g>
	</g>
	<g>
		<polygon class="NoName" points="923,16 923,16 923,1 941,31 923,61 923,46 923,46" fill="rgb(255,255,255)" fill-opacity="1.0" stroke="rgb(50,50,50)" stroke-width="1" />
		<g>
			<title>PF00908</title>
			<polygon class="PF00908" points="923,18 930,18 938,31 930,44 923,44" stroke-linejoin="round" width="17" height="26" fill="rgb(184,89,121)" stroke="rgb(147,71,96)" stroke-width="1" opacity="0.75" />
		</g>
	</g>
	<g>
		<polygon class="NoName" points="943,16 948,16 948,1 978,31 948,61 948,46 943,46" fill="rgb(255,255,255)" fill-opacity="1.0" stroke="rgb(50,50,50)" stroke-width="1" />
		<g>
			<title>PF16363</title>
			<polygon class="PF16363" points="943,18 962,18 975,31 975,31 962,44 943,44" stroke-linejoin="round" width="32" height="26" fill="rgb(162,221,65)" stroke="rgb(129,176,51)" stroke-width="1" opacity="0.75" />
		</g>
	</g>
	<g>
		<polygon class="NoName" points="981,16 981,16 981,1 1008,31 981,61 981,46 981,46" fill="rgb(255,255,255)" fill-opacity="1.0" stroke="rgb(50,50,50)" stroke-width="1" />
		<g>
			<title>PF04321</title>
			<polygon class="PF04321" points="981,18 993,18 1005,31 993,44 981,44" stroke-linejoin="round" width="26" height="26" fill="rgb(196,203,60)" stroke="rgb(156,162,47)" stroke-width="1" opacity="0.75" />
		</g>
	</g>
	<g>
		<polygon class="NoName" points="1037,16 1037,16 1037,1 1010,31 1037,61 1037,46 1037,46" fill="rgb(255,255,255)" fill-opacity="1.0" stroke="rgb(50,50,50)" stroke-width="1" />
		<g>
			<title>PF13289</title>
			<polygon class="PF13289" points="1012,31 1024,18 1026,18 1026,44 1024,44" stroke-linejoin="round" width="14" height="26" fill="rgb(70,187,154)" stroke="rgb(56,149,123)" stroke-width="1" opacity="0.75" />
		</g>
	</g>
	<g>
		<polygon class="NoName" points="90,16 67,16 67,1 37,31 67,61 67,46 90,46" fill="rgb(255,255,255)" fill-opacity="1.0" stroke="rgb(50,50,50)" stroke-width="1" />
		<g>
			<title>PF00496</title>
			<polygon class="PF00496" points="45,25 52,18 80,18 80,44 52,44 45,36" stroke-linejoin="round" width="35" height="26" fill="rgb(199,94,116)" stroke="rgb(159,75,92)" stroke-width="1" opacity="0.75" />
		</g>
	</g>
	<g>
		<polygon class="NoName" points="127,16 125,16 125,1 95,31 125,61 125,46 127,46" fill="rgb(255,255,255)" fill-opacity="1.0" stroke="rgb(50,50,50)" stroke-width="1" />
	</g>
	<g>
		<polygon class="NoName" points="174,16 159,16 159,1 129,31 159,61 159,46 174,46" fill="rgb(255,255,255)" fill-opacity="1.0" stroke="rgb(50,50,50)" stroke-width="1" />
		<g>
			<title>PF00534</title>
			<polygon class="PF00534" points="133,29 144,18 149,18 149,44 144,44 133,32" stroke-linejoin="round" width="16" height="26" fill="rgb(228,92,150)" stroke="rgb(182,73,119)" stroke-width="1" opacity="0.75" />
		</g>
		<g>
			<title>PF13439</title>
			<rect class="PF13439" x="150" y="18" stroke-linejoin="round" width="20" height="26" fill="rgb(162,57,186)" stroke="rgb(129,45,148)" stroke-width="1" opacity="0.75" />
		</g>
	</g>
	<g>
		<polygon class="NoName" points="246,16 209,16 209,1 179,31 209,61 209,46 246,46" fill="rgb(255,255,255)" fill-opacity="1.0" stroke="rgb(50,50,50)" stroke-width="1" />
	</g>
	<g>
		<polygon class="NoName" points="270,16 270,16 270,1 247,31 270,61 270,46 270,46" fill="rgb(255,255,255)" fill-opacity="1.0" stroke="rgb(50,50,50)" stroke-width="1" />
	</g>
	<g>
		<polygon class="NoName" points="313,16 301,16 301,1 271,31 301,61 301,46 313,46" fill="rgb(255,255,255)" fill-opacity="1.0" stroke="rgb(50,50,50)" stroke-width="1" />
		<g>
			<title>PF00534</title>
			<polygon class="PF00534" points="273,31 286,18 289,18 289,44 286,44" stroke-linejoin="round" width="16" height="26" fill="rgb(228,92,150)" stroke="rgb(182,73,119)" stroke-width="1" opacity="0.75" />
		</g>
		<g>
			<title>PF13439</title>
			<rect class="PF13439" x="290" y="18" stroke-linejoin="round" width="20" height="26" fill="rgb(162,57,186)" stroke="rgb(129,45,148)" stroke-width="1" opacity="0.75" />
		</g>
	</g>
	<g>
		<polygon class="NoName" points="341,16 341,16 341,1 313,31 341,61 341,46 341,46" fill="rgb(255,255,255)" fill-opacity="1.0" stroke="rgb(50,50,50)" stroke-width="1" />
		<g>
			<title>PF08241</title>
			<polygon class="PF08241" points="322,24 327,18 333,18 333,44 327,44 322,37" stroke-linejoin="round" width="11" height="26" fill="rgb(106,219,159)" stroke="rgb(84,175,127)" stroke-width="1" opacity="0.75" />
		</g>
	</g>
	<g>
		<polygon class="NoName" points="416,16 371,16 371,1 341,31 371,61 371,46 416,46" fill="rgb(255,255,255)" fill-opacity="1.0" stroke="rgb(50,50,50)" stroke-width="1" />
		<g>
			<title>PF00535</title>
			<polygon class="PF00535" points="351,23 356,18 369,18 369,44 356,44 351,38" stroke-linejoin="round" width="18" height="26" fill="rgb(224,122,96)" stroke="rgb(179,97,76)" stroke-width="1" opacity="0.75" />
		</g>
	</g>
</svg>
