<svg version="1.1" baseProfile="full" xmlns="http://www.w3.org/2000/svg" width="229" height="62">
	<line x1="1" y1="31" x2="228" y2="31" style="stroke:rgb(50,50,50); stroke-width:3 "/>
	<g>
		<polygon class="NoName" points="1,16 1,16 1,1 27,31 1,61 1,46 1,46" fill="rgb(255,255,255)" fill-opacity="1.0" stroke="rgb(50,50,50)" stroke-width="1" />
		<g>
			<title>PF08241</title>
			<polygon class="PF08241" points="7,18 13,18 16,22 16,40 13,44 7,44" stroke-linejoin="round" width="9" height="26" fill="rgb(106,219,159)" stroke="rgb(84,175,127)" stroke-width="1" opacity="0.75" />
		</g>
	</g>
	<g>
		<title>mvdA</title>
		<polygon class="mvdA" points="29,16 58,16 58,1 88,31 58,61 58,46 29,46" fill="rgb(198,252,200)" fill-opacity="1.0" stroke="rgb(79,100,80)" stroke-width="1" />
		<g>
			<title>PF06472</title>
			<rect class="PF06472" x="33" y="18" stroke-linejoin="round" width="26" height="26" fill="rgb(120,179,45)" stroke="rgb(96,143,36)" stroke-width="1" opacity="0.75" />
		</g>
		<g>
			<title>PF00005</title>
			<polygon class="PF00005" points="68,18 72,18 81,27 81,35 72,44 68,44" stroke-linejoin="round" width="13" height="26" fill="rgb(129,201,63)" stroke="rgb(103,160,50)" stroke-width="1" opacity="0.75" />
		</g>
	</g>
	<g>
		<title>mvdB</title>
		<polygon class="mvdB" points="92,16 92,16 92,1 110,31 92,61 92,46 92,46" fill="rgb(240,206,252)" fill-opacity="1.0" stroke="rgb(96,82,100)" stroke-width="1" />
		<g>
			<title>PF13302</title>
			<polygon class="PF13302" points="92,18 99,18 107,30 107,32 99,44 92,44" stroke-linejoin="round" width="15" height="26" fill="rgb(105,146,215)" stroke="rgb(84,116,172)" stroke-width="1" opacity="0.75" />
		</g>
	</g>
	<g>
		<title>mvdC</title>
		<polygon class="mvdC" points="112,16 114,16 114,1 144,31 114,61 114,46 112,46" fill="rgb(252,250,195)" fill-opacity="1.0" stroke="rgb(100,100,77)" stroke-width="1" />
	</g>
	<g>
		<title>mvdD</title>
		<polygon class="mvdD" points="145,16 148,16 148,1 178,31 148,61 148,46 145,46" fill="rgb(205,250,232)" fill-opacity="1.0" stroke="rgb(82,100,92)" stroke-width="1" />
	</g>
	<g>
		<title>mvdE</title>
		<polygon class="mvdE" points="182,16 182,16 182,1 186,31 182,61 182,46 182,46" fill="rgb(249,212,252)" fill-opacity="1.0" stroke="rgb(99,84,100)" stroke-width="1" />
		<g>
			<title>PF12559</title>
			<polygon class="PF12559" points="182,17 183,31 182,45" stroke-linejoin="round" width="4" height="26" fill="rgb(179,147,51)" stroke="rgb(143,117,40)" stroke-width="1" opacity="0.75" />
		</g>
	</g>
	<g>
		<title>mvdF</title>
		<polygon class="mvdF" points="194,16 194,16 194,1 199,31 194,61 194,46 194,46" fill="rgb(201,209,251)" fill-opacity="1.0" stroke="rgb(80,83,100)" stroke-width="1" />
		<g>
			<title>PF12559</title>
			<polygon class="PF12559" points="194,18 194,18 196,31 194,44 194,44" stroke-linejoin="round" width="4" height="26" fill="rgb(179,147,51)" stroke="rgb(143,117,40)" stroke-width="1" opacity="0.75" />
		</g>
	</g>
	<g>
		<polygon class="NoName" points="203,16 203,16 203,1 227,31 203,61 203,46 203,46" fill="rgb(255,255,255)" fill-opacity="1.0" stroke="rgb(50,50,50)" stroke-width="1" />
		<g>
			<title>PF13561</title>
			<polygon class="PF13561" points="204,18 214,18 224,31 214,44 204,44" stroke-linejoin="round" width="22" height="26" fill="rgb(73,205,127)" stroke="rgb(58,164,101)" stroke-width="1" opacity="0.75" />
		</g>
	</g>
</svg>
