<svg version="1.1" baseProfile="full" xmlns="http://www.w3.org/2000/svg" width="660" height="62">
	<line x1="1" y1="31" x2="659" y2="31" style="stroke:rgb(50,50,50); stroke-width:3 "/>
	<g>
		<title>stbA</title>
		<polygon class="stbA" points="230,16 34,16 34,1 4,31 34,61 34,46 230,46" fill="rgb(192,249,216)" fill-opacity="1.0" stroke="rgb(76,99,86)" stroke-width="1" />
		<g>
			<title>PF07859</title>
			<rect class="PF07859" x="23" y="18" stroke-linejoin="round" width="15" height="26" fill="rgb(183,51,179)" stroke="rgb(146,40,143)" stroke-width="1" opacity="0.75" />
		</g>
		<g>
			<title>PF00550</title>
			<rect class="PF00550" x="48" y="18" stroke-linejoin="round" width="6" height="26" fill="rgb(103,191,88)" stroke="rgb(82,152,70)" stroke-width="1" opacity="0.75" />
		</g>
		<g>
			<title>PF00550</title>
			<rect class="PF00550" x="59" y="18" stroke-linejoin="round" width="6" height="26" fill="rgb(103,191,88)" stroke="rgb(82,152,70)" stroke-width="1" opacity="0.75" />
		</g>
		<g>
			<title>PF14765</title>
			<rect class="PF14765" x="71" y="18" stroke-linejoin="round" width="27" height="26" fill="rgb(173,56,182)" stroke="rgb(138,44,145)" stroke-width="1" opacity="0.75" />
		</g>
		<g>
			<title>PF00698</title>
			<rect class="PF00698" x="108" y="18" stroke-linejoin="round" width="31" height="26" fill="rgb(59,176,209)" stroke="rgb(47,140,167)" stroke-width="1" opacity="0.75" />
		</g>
		<g>
			<title>PF16197</title>
			<rect class="PF16197" x="142" y="18" stroke-linejoin="round" width="11" height="26" fill="rgb(68,179,89)" stroke="rgb(54,143,71)" stroke-width="1" opacity="0.75" />
		</g>
		<g>
			<title>PF02801</title>
			<rect class="PF02801" x="154" y="18" stroke-linejoin="round" width="11" height="26" fill="rgb(215,78,102)" stroke="rgb(172,62,81)" stroke-width="1" opacity="0.75" />
		</g>
		<g>
			<title>PF00109</title>
			<rect class="PF00109" x="167" y="18" stroke-linejoin="round" width="25" height="26" fill="rgb(112,116,228)" stroke="rgb(89,92,182)" stroke-width="1" opacity="0.75" />
		</g>
	</g>
	<g>
		<title>stbB</title>
		<polygon class="stbB" points="519,16 439,16 439,1 409,31 439,61 439,46 519,46" fill="rgb(199,199,253)" fill-opacity="1.0" stroke="rgb(79,79,101)" stroke-width="1" />
		<g>
			<title>PF07993</title>
			<rect class="PF07993" x="425" y="18" stroke-linejoin="round" width="24" height="26" fill="rgb(100,212,204)" stroke="rgb(80,169,163)" stroke-width="1" opacity="0.75" />
		</g>
		<g>
			<title>PF00550</title>
			<rect class="PF00550" x="454" y="18" stroke-linejoin="round" width="7" height="26" fill="rgb(103,191,88)" stroke="rgb(82,152,70)" stroke-width="1" opacity="0.75" />
		</g>
		<g>
			<title>PF00501</title>
			<rect class="PF00501" x="481" y="18" stroke-linejoin="round" width="33" height="26" fill="rgb(60,217,223)" stroke="rgb(48,173,178)" stroke-width="1" opacity="0.75" />
		</g>
	</g>
	<g>
		<title>stbC</title>
		<polygon class="stbC" points="622,16 625,16 625,1 655,31 625,61 625,46 622,46" fill="rgb(219,208,253)" fill-opacity="1.0" stroke="rgb(87,83,101)" stroke-width="1" />
		<g>
			<title>PF01040</title>
			<polygon class="PF01040" points="627,18 639,18 651,30 651,32 639,44 627,44" stroke-linejoin="round" width="24" height="26" fill="rgb(189,57,100)" stroke="rgb(151,45,80)" stroke-width="1" opacity="0.75" />
		</g>
	</g>
</svg>
