<svg version="1.1" baseProfile="full" xmlns="http://www.w3.org/2000/svg" width="9254" height="62">
	<line x1="1" y1="31" x2="9253" y2="31" style="stroke:rgb(50,50,50); stroke-width:3 "/>
	<g>
		<title>chr3.CM0292.210.r2.m</title>
		<polygon class="chr3.CM0292.210.r2.m" points="6041,16 6059,16 6059,1 6089,31 6059,61 6059,46 6041,46" fill="rgb(193,253,182)" fill-opacity="1.0" stroke="rgb(77,101,72)" stroke-width="1" />
	</g>
	<g>
		<title>chr3.CM0292.230.r2.m</title>
		<polygon class="chr3.CM0292.230.r2.m" points="6455,16 6455,16 6455,1 6469,31 6455,61 6455,46 6455,46" fill="rgb(250,223,204)" fill-opacity="1.0" stroke="rgb(100,89,81)" stroke-width="1" />
		<g>
			<title>PF13456</title>
			<polygon class="PF13456" points="6456,18 6460,18 6465,28 6465,34 6460,44 6456,44" stroke-linejoin="round" width="9" height="26" fill="rgb(198,123,86)" stroke="rgb(158,98,68)" stroke-width="1" opacity="0.75" />
		</g>
	</g>
	<g>
		<title>chr3.CM0292.240.r2.m</title>
		<polygon class="chr3.CM0292.240.r2.m" points="6727,16 6759,16 6759,1 6789,31 6759,61 6759,46 6727,46" fill="rgb(232,179,253)" fill-opacity="1.0" stroke="rgb(92,71,101)" stroke-width="1" />
		<g>
			<title>PF13966</title>
			<rect class="PF13966" x="6752" y="18" stroke-linejoin="round" width="8" height="26" fill="rgb(63,179,104)" stroke="rgb(50,143,83)" stroke-width="1" opacity="0.75" />
		</g>
	</g>
	<g>
		<title>chr3.CM0292.270.r2.d</title>
		<polygon class="chr3.CM0292.270.r2.d" points="7406,16 7489,16 7489,1 7519,31 7489,61 7489,46 7406,46" fill="rgb(250,203,187)" fill-opacity="1.0" stroke="rgb(100,81,74)" stroke-width="1" />
		<g>
			<title>PF13460</title>
			<rect class="PF13460" x="7408" y="18" stroke-linejoin="round" width="12" height="26" fill="rgb(188,201,78)" stroke="rgb(150,160,62)" stroke-width="1" opacity="0.75" />
		</g>
	</g>
	<g>
		<title>chr3.CM0292.280.r2.d</title>
		<polygon class="chr3.CM0292.280.r2.d" points="7754,16 7618,16 7618,1 7588,31 7618,61 7618,46 7754,46" fill="rgb(252,185,189)" fill-opacity="1.0" stroke="rgb(100,74,75)" stroke-width="1" />
	</g>
	<g>
		<title>chr3.CM0292.290.r2.d</title>
		<polygon class="chr3.CM0292.290.r2.d" points="7781,16 7781,16 7781,1 7771,31 7781,61 7781,46 7781,46" fill="rgb(254,242,214)" fill-opacity="1.0" stroke="rgb(101,96,85)" stroke-width="1" />
	</g>
	<g>
		<title>chr3.CM0292.320.r2.m</title>
		<polygon class="chr3.CM0292.320.r2.m" points="8553,16 8504,16 8504,1 8474,31 8504,61 8504,46 8553,46" fill="rgb(181,178,254)" fill-opacity="1.0" stroke="rgb(72,71,101)" stroke-width="1" />
	</g>
	<g>
		<title>chr3.CM0292.330.r2.m</title>
		<polygon class="chr3.CM0292.330.r2.m" points="8774,16 8773,16 8773,1 8743,31 8773,61 8773,46 8774,46" fill="rgb(254,234,189)" fill-opacity="1.0" stroke="rgb(101,93,75)" stroke-width="1" />
	</g>
	<g>
		<title>chr3.CM0292.340.r2.m</title>
		<polygon class="chr3.CM0292.340.r2.m" points="9246,16 9246,16 9246,1 9253,31 9246,61 9246,46 9246,46" fill="rgb(203,251,193)" fill-opacity="1.0" stroke="rgb(81,100,77)" stroke-width="1" />
	</g>
	<g>
		<title>chr3.CM0292.30.r2.m</title>
		<polygon class="chr3.CM0292.30.r2.m" points="1,16 1,16 1,1 7,31 1,61 1,46 1,46" fill="rgb(192,249,250)" fill-opacity="1.0" stroke="rgb(76,99,100)" stroke-width="1" />
	</g>
	<g>
		<title>chr3.CM0292.40.r2.m</title>
		<polygon class="chr3.CM0292.40.r2.m" points="353,16 57,16 57,1 27,31 57,61 57,46 353,46" fill="rgb(190,202,253)" fill-opacity="1.0" stroke="rgb(76,80,101)" stroke-width="1" />
		<g>
			<title>PF13243</title>
			<rect class="PF13243" x="277" y="18" stroke-linejoin="round" width="33" height="26" fill="rgb(191,58,201)" stroke="rgb(152,46,160)" stroke-width="1" opacity="0.75" />
		</g>
		<g>
			<title>PF13249</title>
			<rect class="PF13249" x="312" y="18" stroke-linejoin="round" width="30" height="26" fill="rgb(88,190,89)" stroke="rgb(70,152,71)" stroke-width="1" opacity="0.75" />
		</g>
	</g>
	<g>
		<title>chr3.CM0292.50.r2.m</title>
		<polygon class="chr3.CM0292.50.r2.m" points="497,16 497,16 497,1 523,31 497,61 497,46 497,46" fill="rgb(175,250,226)" fill-opacity="1.0" stroke="rgb(69,100,90)" stroke-width="1" />
		<g>
			<title>PF04774</title>
			<rect class="PF04774" x="497" y="18" stroke-linejoin="round" width="6" height="26" fill="rgb(79,217,132)" stroke="rgb(63,173,105)" stroke-width="1" opacity="0.75" />
		</g>
	</g>
	<g>
		<title>chr3.CM0292.80.r2.m</title>
		<polygon class="chr3.CM0292.80.r2.m" points="1920,16 2019,16 2019,1 2049,31 2019,61 2019,46 1920,46" fill="rgb(252,208,205)" fill-opacity="1.0" stroke="rgb(100,83,82)" stroke-width="1" />
	</g>
	<g>
		<title>chr3.CM0292.90.r2.m</title>
		<polygon class="chr3.CM0292.90.r2.m" points="2097,16 2097,16 2097,1 2103,31 2097,61 2097,46 2097,46" fill="rgb(180,252,207)" fill-opacity="1.0" stroke="rgb(72,100,82)" stroke-width="1" />
	</g>
	<g>
		<title>chr3.CM0292.100.r2.m</title>
		<polygon class="chr3.CM0292.100.r2.m" points="2145,16 2145,16 2145,1 2124,31 2145,61 2145,46 2145,46" fill="rgb(254,206,254)" fill-opacity="1.0" stroke="rgb(101,82,101)" stroke-width="1" />
		<g>
			<title>PF04564</title>
			<polygon class="PF04564" points="2133,21 2135,18 2140,18 2140,44 2135,44 2133,40" stroke-linejoin="round" width="7" height="26" fill="rgb(223,108,158)" stroke="rgb(178,86,126)" stroke-width="1" opacity="0.75" />
		</g>
	</g>
	<g>
		<title>chr3.CM0292.110.r2.m</title>
		<polygon class="chr3.CM0292.110.r2.m" points="2254,16 2227,16 2227,1 2197,31 2227,61 2227,46 2254,46" fill="rgb(183,250,193)" fill-opacity="1.0" stroke="rgb(73,100,77)" stroke-width="1" />
		<g>
			<title>PF00067</title>
			<polygon class="PF00067" points="2205,25 2212,18 2249,18 2249,44 2212,44 2205,36" stroke-linejoin="round" width="44" height="26" fill="rgb(85,216,107)" stroke="rgb(68,172,85)" stroke-width="1" opacity="0.75" />
		</g>
	</g>
	<g>
		<title>chr3.CM0292.120.r2.m</title>
		<polygon class="chr3.CM0292.120.r2.m" points="2353,16 2353,16 2353,1 2368,31 2353,61 2353,46 2353,46" fill="rgb(191,250,224)" fill-opacity="1.0" stroke="rgb(76,100,89)" stroke-width="1" />
	</g>
	<g>
		<title>chr3.CM0292.180.r2.m</title>
		<polygon class="chr3.CM0292.180.r2.m" points="5317,16 5399,16 5399,1 5429,31 5399,61 5399,46 5317,46" fill="rgb(254,180,251)" fill-opacity="1.0" stroke="rgb(101,72,100)" stroke-width="1" />
		<g>
			<title>PF00067</title>
			<rect class="PF00067" x="5320" y="18" stroke-linejoin="round" width="35" height="26" fill="rgb(85,216,107)" stroke="rgb(68,172,85)" stroke-width="1" opacity="0.75" />
		</g>
		<g>
			<title>PF00067</title>
			<rect class="PF00067" x="5357" y="18" stroke-linejoin="round" width="6" height="26" fill="rgb(85,216,107)" stroke="rgb(68,172,85)" stroke-width="1" opacity="0.75" />
		</g>
	</g>
</svg>
