<svg version="1.1" baseProfile="full" xmlns="http://www.w3.org/2000/svg" width="529" height="62">
	<line x1="1" y1="31" x2="528" y2="31" style="stroke:rgb(50,50,50); stroke-width:3 "/>
	<g>
		<polygon class="NoName" points="402,16 406,16 406,1 436,31 406,61 406,46 402,46" fill="rgb(255,255,255)" fill-opacity="1.0" stroke="rgb(50,50,50)" stroke-width="1" />
		<g>
			<title>PF08545</title>
			<polygon class="PF08545" points="416,18 420,18 423,21 423,41 420,44 416,44" stroke-linejoin="round" width="7" height="26" fill="rgb(189,102,84)" stroke="rgb(151,81,67)" stroke-width="1" opacity="0.75" />
		</g>
		<g>
			<title>PF08541</title>
			<polygon class="PF08541" points="427,25 433,31 427,37" stroke-linejoin="round" width="8" height="26" fill="rgb(146,207,81)" stroke="rgb(116,165,64)" stroke-width="1" opacity="0.75" />
		</g>
	</g>
	<g>
		<polygon class="NoName" points="436,16 436,16 436,1 466,31 436,61 436,46 436,46" fill="rgb(255,255,255)" fill-opacity="1.0" stroke="rgb(50,50,50)" stroke-width="1" />
		<g>
			<title>PF13561</title>
			<polygon class="PF13561" points="437,18 450,18 462,30 462,32 450,44 437,44" stroke-linejoin="round" width="25" height="26" fill="rgb(73,205,127)" stroke="rgb(58,164,101)" stroke-width="1" opacity="0.75" />
		</g>
	</g>
	<g>
		<polygon class="NoName" points="466,16 466,16 466,1 493,31 466,61 466,46 466,46" fill="rgb(255,255,255)" fill-opacity="1.0" stroke="rgb(50,50,50)" stroke-width="1" />
		<g>
			<title>PF13561</title>
			<polygon class="PF13561" points="467,18 478,18 490,31 478,44 467,44" stroke-linejoin="round" width="25" height="26" fill="rgb(73,205,127)" stroke="rgb(58,164,101)" stroke-width="1" opacity="0.75" />
		</g>
	</g>
	<g>
		<polygon class="NoName" points="29,16 29,16 29,1 12,31 29,61 29,46 29,46" fill="rgb(255,255,255)" fill-opacity="1.0" stroke="rgb(50,50,50)" stroke-width="1" />
		<g>
			<title>PF01661</title>
			<polygon class="PF01661" points="15,29 21,18 26,18 26,44 21,44 15,32" stroke-linejoin="round" width="11" height="26" fill="rgb(65,211,62)" stroke="rgb(51,168,49)" stroke-width="1" opacity="0.75" />
		</g>
	</g>
	<g>
		<polygon class="NoName" points="80,16 61,16 61,1 31,31 61,61 61,46 80,46" fill="rgb(255,255,255)" fill-opacity="1.0" stroke="rgb(50,50,50)" stroke-width="1" />
		<g>
			<title>PF13450</title>
			<rect class="PF13450" x="69" y="18" stroke-linejoin="round" width="7" height="26" fill="rgb(91,180,227)" stroke="rgb(72,144,181)" stroke-width="1" opacity="0.75" />
		</g>
	</g>
	<g>
		<polygon class="NoName" points="109,16 109,16 109,1 81,31 109,61 109,46 109,46" fill="rgb(255,255,255)" fill-opacity="1.0" stroke="rgb(50,50,50)" stroke-width="1" />
		<g>
			<title>PF00459</title>
			<polygon class="PF00459" points="83,31 95,18 107,18 107,44 95,44" stroke-linejoin="round" width="26" height="26" fill="rgb(67,210,137)" stroke="rgb(53,168,109)" stroke-width="1" opacity="0.75" />
		</g>
	</g>
	<g>
		<polygon class="NoName" points="156,16 156,16 156,1 182,31 156,61 156,46 156,46" fill="rgb(255,255,255)" fill-opacity="1.0" stroke="rgb(50,50,50)" stroke-width="1" />
		<g>
			<title>PF00378</title>
			<polygon class="PF00378" points="157,18 168,18 179,31 168,44 157,44" stroke-linejoin="round" width="23" height="26" fill="rgb(218,72,181)" stroke="rgb(174,57,144)" stroke-width="1" opacity="0.75" />
		</g>
	</g>
	<g>
		<polygon class="NoName" points="197,16 198,16 198,1 228,31 198,61 198,46 197,46" fill="rgb(255,255,255)" fill-opacity="1.0" stroke="rgb(50,50,50)" stroke-width="1" />
		<g>
			<title>PF00005</title>
			<rect class="PF00005" x="199" y="18" stroke-linejoin="round" width="13" height="26" fill="rgb(129,201,63)" stroke="rgb(103,160,50)" stroke-width="1" opacity="0.75" />
		</g>
	</g>
	<g>
		<polygon class="NoName" points="232,16 232,16 232,1 258,31 232,61 232,46 232,46" fill="rgb(255,255,255)" fill-opacity="1.0" stroke="rgb(50,50,50)" stroke-width="1" />
	</g>
	<g>
		<polygon class="NoName" points="267,16 278,16 278,1 308,31 278,61 278,46 267,46" fill="rgb(255,255,255)" fill-opacity="1.0" stroke="rgb(50,50,50)" stroke-width="1" />
		<g>
			<title>PF00109</title>
			<rect class="PF00109" x="267" y="18" stroke-linejoin="round" width="24" height="26" fill="rgb(112,116,228)" stroke="rgb(89,92,182)" stroke-width="1" opacity="0.75" />
		</g>
		<g>
			<title>PF02801</title>
			<polygon class="PF02801" points="292,18 292,18 303,29 303,33 292,44 292,44" stroke-linejoin="round" width="11" height="26" fill="rgb(215,78,102)" stroke="rgb(172,62,81)" stroke-width="1" opacity="0.75" />
		</g>
	</g>
	<g>
		<polygon class="NoName" points="308,16 337,16 337,1 367,31 337,61 337,46 308,46" fill="rgb(255,255,255)" fill-opacity="1.0" stroke="rgb(50,50,50)" stroke-width="1" />
		<g>
			<title>PF01144</title>
			<rect class="PF01144" x="309" y="18" stroke-linejoin="round" width="22" height="26" fill="rgb(106,96,228)" stroke="rgb(84,76,182)" stroke-width="1" opacity="0.75" />
		</g>
	</g>
	<g>
		<polygon class="NoName" points="367,16 371,16 371,1 401,31 371,61 371,46 367,46" fill="rgb(255,255,255)" fill-opacity="1.0" stroke="rgb(50,50,50)" stroke-width="1" />
		<g>
			<title>PF08545</title>
			<polygon class="PF08545" points="381,18 385,18 388,21 388,41 385,44 381,44" stroke-linejoin="round" width="7" height="26" fill="rgb(189,102,84)" stroke="rgb(151,81,67)" stroke-width="1" opacity="0.75" />
		</g>
		<g>
			<title>PF08541</title>
			<polygon class="PF08541" points="392,25 398,31 392,37" stroke-linejoin="round" width="8" height="26" fill="rgb(146,207,81)" stroke="rgb(116,165,64)" stroke-width="1" opacity="0.75" />
		</g>
	</g>
</svg>
