<svg version="1.1" baseProfile="full" xmlns="http://www.w3.org/2000/svg" width="1398" height="62">
	<line x1="1" y1="31" x2="1397" y2="31" style="stroke:rgb(50,50,50); stroke-width:3 "/>
	<g>
		<title>hxlR</title>
		<polygon class="hxlR" points="254,16 254,16 254,1 266,31 254,61 254,46 254,46" fill="rgb(187,220,251)" fill-opacity="1.0" stroke="rgb(74,88,100)" stroke-width="1" />
		<g>
			<title>PF01638</title>
			<polygon class="PF01638" points="255,18 258,18 263,31 258,44 255,44" stroke-linejoin="round" width="9" height="26" fill="rgb(91,150,227)" stroke="rgb(72,119,181)" stroke-width="1" opacity="0.75" />
		</g>
	</g>
	<g>
		<title>xy02</title>
		<polygon class="xy02" points="283,16 283,16 283,1 272,31 283,61 283,46 283,46" fill="rgb(248,251,181)" fill-opacity="1.0" stroke="rgb(99,100,72)" stroke-width="1" />
	</g>
	<g>
		<title>srfAA</title>
		<polygon class="srfAA" points="286,16 614,16 614,1 644,31 614,61 614,46 286,46" fill="rgb(193,251,191)" fill-opacity="1.0" stroke="rgb(77,100,76)" stroke-width="1" />
		<g>
			<title>PF00668</title>
			<rect class="PF00668" x="286" y="18" stroke-linejoin="round" width="44" height="26" fill="rgb(224,184,98)" stroke="rgb(179,147,78)" stroke-width="1" opacity="0.75" />
		</g>
		<g>
			<title>PF00501</title>
			<rect class="PF00501" x="332" y="18" stroke-linejoin="round" width="40" height="26" fill="rgb(60,217,223)" stroke="rgb(48,173,178)" stroke-width="1" opacity="0.75" />
		</g>
		<g>
			<title>PF13193</title>
			<rect class="PF13193" x="373" y="18" stroke-linejoin="round" width="7" height="26" fill="rgb(182,50,118)" stroke="rgb(145,39,94)" stroke-width="1" opacity="0.75" />
		</g>
		<g>
			<title>PF00550</title>
			<rect class="PF00550" x="383" y="18" stroke-linejoin="round" width="6" height="26" fill="rgb(103,191,88)" stroke="rgb(82,152,70)" stroke-width="1" opacity="0.75" />
		</g>
		<g>
			<title>PF00668</title>
			<rect class="PF00668" x="391" y="18" stroke-linejoin="round" width="43" height="26" fill="rgb(224,184,98)" stroke="rgb(179,147,78)" stroke-width="1" opacity="0.75" />
		</g>
		<g>
			<title>PF00501</title>
			<rect class="PF00501" x="437" y="18" stroke-linejoin="round" width="39" height="26" fill="rgb(60,217,223)" stroke="rgb(48,173,178)" stroke-width="1" opacity="0.75" />
		</g>
		<g>
			<title>PF13193</title>
			<rect class="PF13193" x="477" y="18" stroke-linejoin="round" width="7" height="26" fill="rgb(182,50,118)" stroke="rgb(145,39,94)" stroke-width="1" opacity="0.75" />
		</g>
		<g>
			<title>PF00550</title>
			<rect class="PF00550" x="487" y="18" stroke-linejoin="round" width="6" height="26" fill="rgb(103,191,88)" stroke="rgb(82,152,70)" stroke-width="1" opacity="0.75" />
		</g>
		<g>
			<title>PF00668</title>
			<rect class="PF00668" x="495" y="18" stroke-linejoin="round" width="43" height="26" fill="rgb(224,184,98)" stroke="rgb(179,147,78)" stroke-width="1" opacity="0.75" />
		</g>
		<g>
			<title>PF00501</title>
			<rect class="PF00501" x="541" y="18" stroke-linejoin="round" width="38" height="26" fill="rgb(60,217,223)" stroke="rgb(48,173,178)" stroke-width="1" opacity="0.75" />
		</g>
		<g>
			<title>PF13193</title>
			<rect class="PF13193" x="580" y="18" stroke-linejoin="round" width="7" height="26" fill="rgb(182,50,118)" stroke="rgb(145,39,94)" stroke-width="1" opacity="0.75" />
		</g>
		<g>
			<title>PF00550</title>
			<rect class="PF00550" x="590" y="18" stroke-linejoin="round" width="6" height="26" fill="rgb(103,191,88)" stroke="rgb(82,152,70)" stroke-width="1" opacity="0.75" />
		</g>
		<g>
			<title>PF00668</title>
			<polygon class="PF00668" points="598,18 628,18 641,31 628,44 598,44" stroke-linejoin="round" width="45" height="26" fill="rgb(224,184,98)" stroke="rgb(179,147,78)" stroke-width="1" opacity="0.75" />
		</g>
	</g>
	<g>
		<title>srfAB</title>
		<polygon class="srfAB" points="645,16 973,16 973,1 1003,31 973,61 973,46 645,46" fill="rgb(194,250,200)" fill-opacity="1.0" stroke="rgb(77,100,80)" stroke-width="1" />
		<g>
			<title>PF00668</title>
			<rect class="PF00668" x="645" y="18" stroke-linejoin="round" width="44" height="26" fill="rgb(224,184,98)" stroke="rgb(179,147,78)" stroke-width="1" opacity="0.75" />
		</g>
		<g>
			<title>PF00501</title>
			<rect class="PF00501" x="692" y="18" stroke-linejoin="round" width="39" height="26" fill="rgb(60,217,223)" stroke="rgb(48,173,178)" stroke-width="1" opacity="0.75" />
		</g>
		<g>
			<title>PF13193</title>
			<rect class="PF13193" x="732" y="18" stroke-linejoin="round" width="7" height="26" fill="rgb(182,50,118)" stroke="rgb(145,39,94)" stroke-width="1" opacity="0.75" />
		</g>
		<g>
			<title>PF00550</title>
			<rect class="PF00550" x="742" y="18" stroke-linejoin="round" width="6" height="26" fill="rgb(103,191,88)" stroke="rgb(82,152,70)" stroke-width="1" opacity="0.75" />
		</g>
		<g>
			<title>PF00668</title>
			<rect class="PF00668" x="750" y="18" stroke-linejoin="round" width="43" height="26" fill="rgb(224,184,98)" stroke="rgb(179,147,78)" stroke-width="1" opacity="0.75" />
		</g>
		<g>
			<title>PF00501</title>
			<rect class="PF00501" x="795" y="18" stroke-linejoin="round" width="40" height="26" fill="rgb(60,217,223)" stroke="rgb(48,173,178)" stroke-width="1" opacity="0.75" />
		</g>
		<g>
			<title>PF13193</title>
			<rect class="PF13193" x="836" y="18" stroke-linejoin="round" width="7" height="26" fill="rgb(182,50,118)" stroke="rgb(145,39,94)" stroke-width="1" opacity="0.75" />
		</g>
		<g>
			<title>PF00550</title>
			<rect class="PF00550" x="846" y="18" stroke-linejoin="round" width="6" height="26" fill="rgb(103,191,88)" stroke="rgb(82,152,70)" stroke-width="1" opacity="0.75" />
		</g>
		<g>
			<title>PF00668</title>
			<rect class="PF00668" x="854" y="18" stroke-linejoin="round" width="43" height="26" fill="rgb(224,184,98)" stroke="rgb(179,147,78)" stroke-width="1" opacity="0.75" />
		</g>
		<g>
			<title>PF00501</title>
			<rect class="PF00501" x="899" y="18" stroke-linejoin="round" width="38" height="26" fill="rgb(60,217,223)" stroke="rgb(48,173,178)" stroke-width="1" opacity="0.75" />
		</g>
		<g>
			<title>PF13193</title>
			<rect class="PF13193" x="939" y="18" stroke-linejoin="round" width="7" height="26" fill="rgb(182,50,118)" stroke="rgb(145,39,94)" stroke-width="1" opacity="0.75" />
		</g>
		<g>
			<title>PF00550</title>
			<rect class="PF00550" x="949" y="18" stroke-linejoin="round" width="6" height="26" fill="rgb(103,191,88)" stroke="rgb(82,152,70)" stroke-width="1" opacity="0.75" />
		</g>
		<g>
			<title>PF00668</title>
			<polygon class="PF00668" points="956,18 987,18 1000,31 987,44 956,44" stroke-linejoin="round" width="45" height="26" fill="rgb(224,184,98)" stroke="rgb(179,147,78)" stroke-width="1" opacity="0.75" />
		</g>
	</g>
	<g>
		<title>comS</title>
		<polygon class="comS" points="749,16 749,16 749,1 753,31 749,61 749,46 749,46" fill="rgb(250,198,205)" fill-opacity="1.0" stroke="rgb(100,79,82)" stroke-width="1" />
	</g>
	<g>
		<title>srfAC</title>
		<polygon class="srfAC" points="1005,16 1102,16 1102,1 1132,31 1102,61 1102,46 1005,46" fill="rgb(187,199,253)" fill-opacity="1.0" stroke="rgb(74,79,101)" stroke-width="1" />
		<g>
			<title>PF00668</title>
			<rect class="PF00668" x="1005" y="18" stroke-linejoin="round" width="44" height="26" fill="rgb(224,184,98)" stroke="rgb(179,147,78)" stroke-width="1" opacity="0.75" />
		</g>
		<g>
			<title>PF00501</title>
			<rect class="PF00501" x="1052" y="18" stroke-linejoin="round" width="39" height="26" fill="rgb(60,217,223)" stroke="rgb(48,173,178)" stroke-width="1" opacity="0.75" />
		</g>
		<g>
			<title>PF13193</title>
			<rect class="PF13193" x="1092" y="18" stroke-linejoin="round" width="7" height="26" fill="rgb(182,50,118)" stroke="rgb(145,39,94)" stroke-width="1" opacity="0.75" />
		</g>
		<g>
			<title>PF00550</title>
			<rect class="PF00550" x="1102" y="18" stroke-linejoin="round" width="6" height="26" fill="rgb(103,191,88)" stroke="rgb(82,152,70)" stroke-width="1" opacity="0.75" />
		</g>
		<g>
			<title>PF00975</title>
			<polygon class="PF00975" points="1110,18 1116,18 1129,31 1116,44 1110,44" stroke-linejoin="round" width="20" height="26" fill="rgb(207,80,138)" stroke="rgb(165,63,110)" stroke-width="1" opacity="0.75" />
		</g>
	</g>
	<g>
		<title>srfAD</title>
		<polygon class="srfAD" points="1133,16 1133,16 1133,1 1157,31 1133,61 1133,46 1133,46" fill="rgb(249,199,205)" fill-opacity="1.0" stroke="rgb(99,79,82)" stroke-width="1" />
		<g>
			<title>PF00975</title>
			<polygon class="PF00975" points="1134,18 1144,18 1154,31 1144,44 1134,44" stroke-linejoin="round" width="22" height="26" fill="rgb(207,80,138)" stroke="rgb(165,63,110)" stroke-width="1" opacity="0.75" />
		</g>
	</g>
	<g>
		<title>aat</title>
		<polygon class="aat" points="1161,16 1175,16 1175,1 1205,31 1175,61 1175,46 1161,46" fill="rgb(203,211,252)" fill-opacity="1.0" stroke="rgb(81,84,100)" stroke-width="1" />
		<g>
			<title>PF00155</title>
			<polygon class="PF00155" points="1167,18 1189,18 1202,31 1189,44 1167,44" stroke-linejoin="round" width="36" height="26" fill="rgb(89,113,198)" stroke="rgb(71,90,158)" stroke-width="1" opacity="0.75" />
		</g>
	</g>
	<g>
		<title>ycxc</title>
		<polygon class="ycxc" points="1261,16 1254,16 1254,1 1224,31 1254,61 1254,46 1261,46" fill="rgb(182,254,200)" fill-opacity="1.0" stroke="rgb(72,101,80)" stroke-width="1" />
		<g>
			<title>PF00892</title>
			<polygon class="PF00892" points="1226,31 1239,18 1240,18 1240,44 1239,44" stroke-linejoin="round" width="14" height="26" fill="rgb(105,217,77)" stroke="rgb(84,173,61)" stroke-width="1" opacity="0.75" />
		</g>
		<g>
			<title>PF00892</title>
			<rect class="PF00892" x="1241" y="18" stroke-linejoin="round" width="13" height="26" fill="rgb(105,217,77)" stroke="rgb(84,173,61)" stroke-width="1" opacity="0.75" />
		</g>
	</g>
	<g>
		<title>ycxD</title>
		<polygon class="ycxD" points="1260,16 1273,16 1273,1 1303,31 1273,61 1273,46 1260,46" fill="rgb(252,181,232)" fill-opacity="1.0" stroke="rgb(100,72,92)" stroke-width="1" />
		<g>
			<title>PF00392</title>
			<rect class="PF00392" x="1260" y="18" stroke-linejoin="round" width="6" height="26" fill="rgb(160,85,194)" stroke="rgb(127,68,155)" stroke-width="1" opacity="0.75" />
		</g>
		<g>
			<title>PF00155</title>
			<polygon class="PF00155" points="1267,18 1287,18 1300,31 1287,44 1267,44" stroke-linejoin="round" width="35" height="26" fill="rgb(89,113,198)" stroke="rgb(71,90,158)" stroke-width="1" opacity="0.75" />
		</g>
	</g>
	<g>
		<title>yciC</title>
		<polygon class="yciC" points="3,16 15,16 15,1 45,31 15,61 15,46 3,46" fill="rgb(199,254,183)" fill-opacity="1.0" stroke="rgb(79,101,73)" stroke-width="1" />
		<g>
			<title>PF02492</title>
			<rect class="PF02492" x="6" y="18" stroke-linejoin="round" width="20" height="26" fill="rgb(79,112,178)" stroke="rgb(63,89,142)" stroke-width="1" opacity="0.75" />
		</g>
		<g>
			<title>PF07683</title>
			<polygon class="PF07683" points="31,20 42,31 42,31 31,42" stroke-linejoin="round" width="11" height="26" fill="rgb(172,98,218)" stroke="rgb(137,78,174)" stroke-width="1" opacity="0.75" />
		</g>
	</g>
	<g>
		<title>sfp</title>
		<polygon class="sfp" points="1326,16 1326,16 1326,1 1304,31 1326,61 1326,46 1326,46" fill="rgb(254,203,234)" fill-opacity="1.0" stroke="rgb(101,81,93)" stroke-width="1" />
		<g>
			<title>PF01648</title>
			<polygon class="PF01648" points="1306,31 1316,18 1316,43" stroke-linejoin="round" width="10" height="26" fill="rgb(85,184,135)" stroke="rgb(68,147,108)" stroke-width="1" opacity="0.75" />
		</g>
	</g>
	<g>
		<title>yczE</title>
		<polygon class="yczE" points="1351,16 1351,16 1351,1 1330,31 1351,61 1351,46 1351,46" fill="rgb(195,254,246)" fill-opacity="1.0" stroke="rgb(77,101,98)" stroke-width="1" />
		<g>
			<title>PF02588</title>
			<polygon class="PF02588" points="1332,31 1341,18 1349,18 1349,44 1341,44" stroke-linejoin="round" width="19" height="26" fill="rgb(155,63,204)" stroke="rgb(123,50,163)" stroke-width="1" opacity="0.75" />
		</g>
	</g>
	<g>
		<title>yckI</title>
		<polygon class="yckI" points="1378,16 1378,16 1378,1 1354,31 1378,61 1378,46 1378,46" fill="rgb(253,187,229)" fill-opacity="1.0" stroke="rgb(101,74,91)" stroke-width="1" />
		<g>
			<title>PF00005</title>
			<polygon class="PF00005" points="1361,25 1366,18 1376,18 1376,44 1366,44 1361,36" stroke-linejoin="round" width="15" height="26" fill="rgb(129,201,63)" stroke="rgb(103,160,50)" stroke-width="1" opacity="0.75" />
		</g>
	</g>
	<g>
		<title>yckJ</title>
		<polygon class="yckJ" points="1395,16 1395,16 1395,1 1379,31 1395,61 1395,46 1395,46" fill="rgb(224,183,251)" fill-opacity="1.0" stroke="rgb(89,73,100)" stroke-width="1" />
		<g>
			<title>PF00528</title>
			<polygon class="PF00528" points="1381,31 1388,18 1395,18 1395,44 1388,44" stroke-linejoin="round" width="16" height="26" fill="rgb(77,208,225)" stroke="rgb(61,166,180)" stroke-width="1" opacity="0.75" />
		</g>
	</g>
	<g>
		<title>yx01</title>
		<polygon class="yx01" points="47,16 54,16 54,1 84,31 54,61 54,46 47,46" fill="rgb(251,178,195)" fill-opacity="1.0" stroke="rgb(100,71,77)" stroke-width="1" />
		<g>
			<title>PF13823</title>
			<rect class="PF13823" x="47" y="18" stroke-linejoin="round" width="2" height="26" fill="rgb(221,55,66)" stroke="rgb(176,44,52)" stroke-width="1" opacity="0.75" />
		</g>
		<g>
			<title>PF08240</title>
			<rect class="PF08240" x="49" y="18" stroke-linejoin="round" width="12" height="26" fill="rgb(211,65,138)" stroke="rgb(168,51,110)" stroke-width="1" opacity="0.75" />
		</g>
		<g>
			<title>PF00107</title>
			<polygon class="PF00107" points="66,18 68,18 73,23 73,39 68,44 66,44" stroke-linejoin="round" width="7" height="26" fill="rgb(81,108,215)" stroke="rgb(64,86,172)" stroke-width="1" opacity="0.75" />
		</g>
	</g>
	<g>
		<title>yckC</title>
		<polygon class="yckC" points="86,16 86,16 86,1 100,31 86,61 86,46 86,46" fill="rgb(190,179,250)" fill-opacity="1.0" stroke="rgb(76,71,100)" stroke-width="1" />
		<g>
			<title>PF06271</title>
			<polygon class="PF06271" points="86,18 91,18 97,31 91,44 86,44" stroke-linejoin="round" width="12" height="26" fill="rgb(75,173,207)" stroke="rgb(60,138,165)" stroke-width="1" opacity="0.75" />
		</g>
	</g>
	<g>
		<title>yckD</title>
		<polygon class="yckD" points="103,16 103,16 103,1 113,31 103,61 103,46 103,46" fill="rgb(226,253,212)" fill-opacity="1.0" stroke="rgb(90,101,84)" stroke-width="1" />
		<g>
			<title>PF10925</title>
			<polygon class="PF10925" points="106,18 106,18 110,31 106,44 106,44" stroke-linejoin="round" width="5" height="26" fill="rgb(194,169,75)" stroke="rgb(155,135,60)" stroke-width="1" opacity="0.75" />
		</g>
	</g>
	<g>
		<title>yckE</title>
		<polygon class="yckE" points="117,16 134,16 134,1 164,31 134,61 134,46 117,46" fill="rgb(252,212,221)" fill-opacity="1.0" stroke="rgb(100,84,88)" stroke-width="1" />
		<g>
			<title>PF00232</title>
			<polygon class="PF00232" points="117,18 148,18 161,31 148,44 117,44" stroke-linejoin="round" width="47" height="26" fill="rgb(175,56,195)" stroke="rgb(140,44,156)" stroke-width="1" opacity="0.75" />
		</g>
	</g>
	<g>
		<title>nin</title>
		<polygon class="nin" points="179,16 179,16 179,1 166,31 179,61 179,46 179,46" fill="rgb(209,234,253)" fill-opacity="1.0" stroke="rgb(83,93,101)" stroke-width="1" />
		<g>
			<title>PF11033</title>
			<polygon class="PF11033" points="168,31 174,18 178,18 178,44 174,44" stroke-linejoin="round" width="12" height="26" fill="rgb(226,214,112)" stroke="rgb(180,171,89)" stroke-width="1" opacity="0.75" />
		</g>
	</g>
	<g>
		<title>nuc</title>
		<polygon class="nuc" points="194,16 194,16 194,1 180,31 194,61 194,46 194,46" fill="rgb(194,199,254)" fill-opacity="1.0" stroke="rgb(77,79,101)" stroke-width="1" />
		<g>
			<title>PF14040</title>
			<polygon class="PF14040" points="182,31 188,18 189,18 189,44 188,44" stroke-linejoin="round" width="9" height="26" fill="rgb(226,110,190)" stroke="rgb(180,88,151)" stroke-width="1" opacity="0.75" />
		</g>
	</g>
	<g>
		<title>hxlB</title>
		<polygon class="hxlB" points="225,16 225,16 225,1 207,31 225,61 225,46 225,46" fill="rgb(253,187,202)" fill-opacity="1.0" stroke="rgb(101,74,80)" stroke-width="1" />
		<g>
			<title>PF01380</title>
			<polygon class="PF01380" points="209,31 217,18 222,18 222,44 217,44" stroke-linejoin="round" width="13" height="26" fill="rgb(212,106,227)" stroke="rgb(169,84,181)" stroke-width="1" opacity="0.75" />
		</g>
	</g>
	<g>
		<title>hxlA</title>
		<polygon class="hxlA" points="246,16 246,16 246,1 225,31 246,61 246,46 246,46" fill="rgb(254,223,209)" fill-opacity="1.0" stroke="rgb(101,89,83)" stroke-width="1" />
		<g>
			<title>PF00215</title>
			<polygon class="PF00215" points="227,31 236,18 245,18 245,44 236,44" stroke-linejoin="round" width="20" height="26" fill="rgb(127,77,227)" stroke="rgb(101,61,181)" stroke-width="1" opacity="0.75" />
		</g>
	</g>
</svg>
