<svg version="1.1" baseProfile="full" xmlns="http://www.w3.org/2000/svg" width="460" height="62">
	<line x1="1" y1="31" x2="459" y2="31" style="stroke:rgb(50,50,50); stroke-width:3 "/>
	<g>
		<title>SCO6768</title>
		<polygon class="SCO6768" points="320,16 355,16 355,1 385,31 355,61 355,46 320,46" fill="rgb(207,221,253)" fill-opacity="1.0" stroke="rgb(82,88,101)" stroke-width="1" />
		<g>
			<title>PF13292</title>
			<rect class="PF13292" x="320" y="18" stroke-linejoin="round" width="27" height="26" fill="rgb(46,179,173)" stroke="rgb(36,143,138)" stroke-width="1" opacity="0.75" />
		</g>
		<g>
			<title>PF02779</title>
			<rect class="PF02779" x="351" y="18" stroke-linejoin="round" width="16" height="26" fill="rgb(189,186,84)" stroke="rgb(151,148,67)" stroke-width="1" opacity="0.75" />
		</g>
		<g>
			<title>PF02780</title>
			<polygon class="PF02780" points="369,18 369,18 380,29 380,33 369,44 369,44" stroke-linejoin="round" width="11" height="26" fill="rgb(76,206,101)" stroke="rgb(60,164,80)" stroke-width="1" opacity="0.75" />
		</g>
	</g>
	<g>
		<title>SCO6769</title>
		<polygon class="SCO6769" points="386,16 402,16 402,1 432,31 402,61 402,46 386,46" fill="rgb(253,177,202)" fill-opacity="1.0" stroke="rgb(101,70,80)" stroke-width="1" />
		<g>
			<title>PF00202</title>
			<polygon class="PF00202" points="389,18 416,18 429,31 429,31 416,44 389,44" stroke-linejoin="round" width="40" height="26" fill="rgb(49,163,189)" stroke="rgb(39,130,151)" stroke-width="1" opacity="0.75" />
		</g>
	</g>
	<g>
		<title>SCO6770</title>
		<polygon class="SCO6770" points="435,16 435,16 435,1 455,31 435,61 435,46 435,46" fill="rgb(186,250,193)" fill-opacity="1.0" stroke="rgb(74,100,77)" stroke-width="1" />
		<g>
			<title>PF13560</title>
			<rect class="PF13560" x="436" y="18" stroke-linejoin="round" width="6" height="26" fill="rgb(207,145,90)" stroke="rgb(165,116,72)" stroke-width="1" opacity="0.75" />
		</g>
		<g>
			<title>PF07883</title>
			<polygon class="PF07883" points="446,22 452,31 446,40" stroke-linejoin="round" width="7" height="26" fill="rgb(211,192,74)" stroke="rgb(168,153,59)" stroke-width="1" opacity="0.75" />
		</g>
	</g>
	<g>
		<title>SCO6771</title>
		<polygon class="SCO6771" points="455,16 455,16 455,1 459,31 455,61 455,46 455,46" fill="rgb(254,251,185)" fill-opacity="1.0" stroke="rgb(101,100,74)" stroke-width="1" />
	</g>
	<g>
		<title>SCO6759</title>
		<polygon class="SCO6759" points="1,16 1,16 1,1 31,31 1,61 1,46 1,46" fill="rgb(185,254,202)" fill-opacity="1.0" stroke="rgb(74,101,80)" stroke-width="1" />
		<g>
			<title>PF00494</title>
			<polygon class="PF00494" points="2,18 15,18 28,31 15,44 2,44" stroke-linejoin="round" width="27" height="26" fill="rgb(178,91,49)" stroke="rgb(142,72,39)" stroke-width="1" opacity="0.75" />
		</g>
	</g>
	<g>
		<title>SCO6760</title>
		<polygon class="SCO6760" points="31,16 32,16 32,1 62,31 32,61 32,46 31,46" fill="rgb(252,212,228)" fill-opacity="1.0" stroke="rgb(100,84,91)" stroke-width="1" />
		<g>
			<title>PF00494</title>
			<polygon class="PF00494" points="33,18 46,18 59,31 59,31 46,44 33,44" stroke-linejoin="round" width="26" height="26" fill="rgb(178,91,49)" stroke="rgb(142,72,39)" stroke-width="1" opacity="0.75" />
		</g>
	</g>
	<g>
		<title>SCO6761</title>
		<polygon class="SCO6761" points="62,16 62,16 62,1 67,31 62,61 62,46 62,46" fill="rgb(233,180,252)" fill-opacity="1.0" stroke="rgb(93,72,100)" stroke-width="1" />
	</g>
	<g>
		<title>SCO6762</title>
		<polygon class="SCO6762" points="68,16 85,16 85,1 115,31 85,61 85,46 68,46" fill="rgb(182,253,210)" fill-opacity="1.0" stroke="rgb(72,101,84)" stroke-width="1" />
		<g>
			<title>PF01593</title>
			<polygon class="PF01593" points="71,18 99,18 112,31 99,44 71,44" stroke-linejoin="round" width="42" height="26" fill="rgb(184,74,52)" stroke="rgb(147,59,41)" stroke-width="1" opacity="0.75" />
		</g>
	</g>
	<g>
		<title>SCO6763</title>
		<polygon class="SCO6763" points="115,16 122,16 122,1 152,31 122,61 122,46 115,46" fill="rgb(254,249,209)" fill-opacity="1.0" stroke="rgb(101,99,83)" stroke-width="1" />
		<g>
			<title>PF00348</title>
			<polygon class="PF00348" points="122,18 136,18 146,28 146,34 136,44 122,44" stroke-linejoin="round" width="24" height="26" fill="rgb(61,206,65)" stroke="rgb(48,164,52)" stroke-width="1" opacity="0.75" />
		</g>
	</g>
	<g>
		<title>SCO6764</title>
		<polygon class="SCO6764" points="157,16 195,16 195,1 225,31 195,61 195,46 157,46" fill="rgb(238,209,252)" fill-opacity="1.0" stroke="rgb(95,83,100)" stroke-width="1" />
		<g>
			<title>PF13249</title>
			<rect class="PF13249" x="161" y="18" stroke-linejoin="round" width="28" height="26" fill="rgb(88,190,89)" stroke="rgb(70,152,71)" stroke-width="1" opacity="0.75" />
		</g>
		<g>
			<title>PF13243</title>
			<polygon class="PF13243" points="190,18 209,18 221,30 221,32 209,44 190,44" stroke-linejoin="round" width="31" height="26" fill="rgb(191,58,201)" stroke="rgb(152,46,160)" stroke-width="1" opacity="0.75" />
		</g>
	</g>
	<g>
		<title>SCO6765</title>
		<polygon class="SCO6765" points="225,16 225,16 225,1 246,31 225,61 225,46 225,46" fill="rgb(252,203,252)" fill-opacity="1.0" stroke="rgb(100,81,100)" stroke-width="1" />
		<g>
			<title>PF01048</title>
			<polygon class="PF01048" points="226,18 234,18 242,29 242,33 234,44 226,44" stroke-linejoin="round" width="16" height="26" fill="rgb(75,186,148)" stroke="rgb(60,148,118)" stroke-width="1" opacity="0.75" />
		</g>
	</g>
	<g>
		<title>SCO6766</title>
		<polygon class="SCO6766" points="247,16 251,16 251,1 281,31 251,61 251,46 247,46" fill="rgb(242,251,199)" fill-opacity="1.0" stroke="rgb(96,100,79)" stroke-width="1" />
		<g>
			<title>PF04055</title>
			<rect class="PF04055" x="250" y="18" stroke-linejoin="round" width="15" height="26" fill="rgb(149,56,222)" stroke="rgb(119,44,177)" stroke-width="1" opacity="0.75" />
		</g>
		<g>
			<title>PF11946</title>
			<polygon class="PF11946" points="266,19 278,31 266,43" stroke-linejoin="round" width="13" height="26" fill="rgb(193,51,57)" stroke="rgb(154,40,45)" stroke-width="1" opacity="0.75" />
		</g>
	</g>
	<g>
		<title>SCO6767</title>
		<polygon class="SCO6767" points="281,16 289,16 289,1 319,31 289,61 289,46 281,46" fill="rgb(228,195,251)" fill-opacity="1.0" stroke="rgb(91,78,100)" stroke-width="1" />
		<g>
			<title>PF04551</title>
			<polygon class="PF04551" points="283,18 303,18 316,31 303,44 283,44" stroke-linejoin="round" width="34" height="26" fill="rgb(61,170,205)" stroke="rgb(48,136,164)" stroke-width="1" opacity="0.75" />
		</g>
	</g>
</svg>
