<svg version="1.1" baseProfile="full" xmlns="http://www.w3.org/2000/svg" width="282" height="62">
	<line x1="1" y1="31" x2="281" y2="31" style="stroke:rgb(50,50,50); stroke-width:3 "/>
	<g>
		<title>mcmM</title>
		<polygon class="mcmM" points="261,16 261,16 261,1 239,31 261,61 261,46 261,46" fill="rgb(184,208,253)" fill-opacity="1.0" stroke="rgb(73,83,101)" stroke-width="1" />
		<g>
			<title>PF02517</title>
			<polygon class="PF02517" points="241,31 251,18 259,18 259,44 251,44" stroke-linejoin="round" width="19" height="26" fill="rgb(150,86,216)" stroke="rgb(120,68,172)" stroke-width="1" opacity="0.75" />
		</g>
	</g>
	<g>
		<polygon class="NoName" points="281,16 281,16 281,1 266,31 281,61 281,46 281,46" fill="rgb(255,255,255)" fill-opacity="1.0" stroke="rgb(50,50,50)" stroke-width="1" />
	</g>
	<g>
		<title>mchX</title>
		<polygon class="mchX" points="1,16 1,16 1,1 5,31 1,61 1,46 1,46" fill="rgb(225,253,178)" fill-opacity="1.0" stroke="rgb(90,101,71)" stroke-width="1" />
	</g>
	<g>
		<title>mchI</title>
		<polygon class="mchI" points="7,16 7,16 7,1 14,31 7,61 7,46 7,46" fill="rgb(187,180,251)" fill-opacity="1.0" stroke="rgb(74,72,100)" stroke-width="1" />
	</g>
	<g>
		<title>mchB</title>
		<polygon class="mchB" points="14,16 14,16 14,1 21,31 14,61 14,46 14,46" fill="rgb(204,193,252)" fill-opacity="1.0" stroke="rgb(81,77,100)" stroke-width="1" />
	</g>
	<g>
		<title>mchC</title>
		<polygon class="mchC" points="31,16 52,16 52,1 82,31 52,61 52,46 31,46" fill="rgb(178,252,231)" fill-opacity="1.0" stroke="rgb(71,100,92)" stroke-width="1" />
	</g>
	<g>
		<title>mchD</title>
		<polygon class="mchD" points="83,16 83,16 83,1 98,31 83,61 83,46 83,46" fill="rgb(208,253,222)" fill-opacity="1.0" stroke="rgb(83,101,88)" stroke-width="1" />
		<g>
			<title>PF02794</title>
			<polygon class="PF02794" points="84,18 89,18 95,31 89,44 84,44" stroke-linejoin="round" width="12" height="26" fill="rgb(53,200,189)" stroke="rgb(42,160,151)" stroke-width="1" opacity="0.75" />
		</g>
	</g>
	<g>
		<title>mchE</title>
		<polygon class="mchE" points="105,16 116,16 116,1 146,31 116,61 116,46 105,46" fill="rgb(192,254,208)" fill-opacity="1.0" stroke="rgb(76,101,83)" stroke-width="1" />
		<g>
			<title>PF13437</title>
			<polygon class="PF13437" points="129,18 130,18 139,27 139,35 130,44 129,44" stroke-linejoin="round" width="10" height="26" fill="rgb(82,200,102)" stroke="rgb(65,160,81)" stroke-width="1" opacity="0.75" />
		</g>
	</g>
	<g>
		<title>mchF</title>
		<polygon class="mchF" points="146,16 185,16 185,1 215,31 185,61 185,46 146,46" fill="rgb(250,236,186)" fill-opacity="1.0" stroke="rgb(100,94,74)" stroke-width="1" />
		<g>
			<title>PF03412</title>
			<rect class="PF03412" x="148" y="18" stroke-linejoin="round" width="13" height="26" fill="rgb(214,226,77)" stroke="rgb(171,180,61)" stroke-width="1" opacity="0.75" />
		</g>
		<g>
			<title>PF00664</title>
			<rect class="PF00664" x="163" y="18" stroke-linejoin="round" width="27" height="26" fill="rgb(149,226,73)" stroke="rgb(119,180,58)" stroke-width="1" opacity="0.75" />
		</g>
		<g>
			<title>PF00005</title>
			<polygon class="PF00005" points="196,18 199,18 210,29 210,33 199,44 196,44" stroke-linejoin="round" width="14" height="26" fill="rgb(129,201,63)" stroke="rgb(103,160,50)" stroke-width="1" opacity="0.75" />
		</g>
	</g>
	<g>
		<title>mcmI</title>
		<polygon class="mcmI" points="217,16 217,16 217,1 224,31 217,61 217,46 217,46" fill="rgb(213,252,214)" fill-opacity="1.0" stroke="rgb(85,100,85)" stroke-width="1" />
	</g>
	<g>
		<title>mcmA</title>
		<polygon class="mcmA" points="224,16 224,16 224,1 233,31 224,61 224,46 224,46" fill="rgb(234,254,198)" fill-opacity="1.0" stroke="rgb(93,101,79)" stroke-width="1" />
	</g>
</svg>
