<svg version="1.1" baseProfile="full" xmlns="http://www.w3.org/2000/svg" width="853" height="62">
	<line x1="1" y1="31" x2="852" y2="31" style="stroke:rgb(50,50,50); stroke-width:3 "/>
	<g>
		<title>epaJ</title>
		<polygon class="epaJ" points="313,16 313,16 313,1 297,31 313,61 313,46 313,46" fill="rgb(226,205,252)" fill-opacity="1.0" stroke="rgb(90,82,100)" stroke-width="1" />
		<g>
			<title>PF03284</title>
			<polygon class="PF03284" points="299,31 306,18 312,18 312,44 306,44" stroke-linejoin="round" width="15" height="26" fill="rgb(179,85,75)" stroke="rgb(143,68,60)" stroke-width="1" opacity="0.75" />
		</g>
	</g>
	<g>
		<title>epaK</title>
		<polygon class="epaK" points="338,16 338,16 338,1 315,31 338,61 338,46 338,46" fill="rgb(210,207,254)" fill-opacity="1.0" stroke="rgb(84,82,101)" stroke-width="1" />
		<g>
			<title>PF10590</title>
			<polygon class="PF10590" points="317,31 319,29 319,32" stroke-linejoin="round" width="4" height="26" fill="rgb(86,221,142)" stroke="rgb(68,176,113)" stroke-width="1" opacity="0.75" />
		</g>
		<g>
			<title>PF01243</title>
			<polygon class="PF01243" points="324,22 327,18 332,18 332,44 327,44 324,39" stroke-linejoin="round" width="8" height="26" fill="rgb(177,193,67)" stroke="rgb(141,154,53)" stroke-width="1" opacity="0.75" />
		</g>
	</g>
	<g>
		<title>epaL</title>
		<polygon class="epaL" points="365,16 365,16 365,1 338,31 365,61 365,46 365,46" fill="rgb(254,188,183)" fill-opacity="1.0" stroke="rgb(101,75,73)" stroke-width="1" />
		<g>
			<title>PF02567</title>
			<polygon class="PF02567" points="340,31 352,18 364,18 364,44 352,44" stroke-linejoin="round" width="26" height="26" fill="rgb(223,91,96)" stroke="rgb(178,72,76)" stroke-width="1" opacity="0.75" />
		</g>
	</g>
	<g>
		<title>epaM</title>
		<polygon class="epaM" points="438,16 401,16 401,1 371,31 401,61 401,46 438,46" fill="rgb(221,195,251)" fill-opacity="1.0" stroke="rgb(88,78,100)" stroke-width="1" />
		<g>
			<title>PF00117</title>
			<polygon class="PF00117" points="373,31 386,18 390,18 390,44 386,44" stroke-linejoin="round" width="18" height="26" fill="rgb(159,201,96)" stroke="rgb(127,160,76)" stroke-width="1" opacity="0.75" />
		</g>
		<g>
			<title>PF00425</title>
			<rect class="PF00425" x="396" y="18" stroke-linejoin="round" width="26" height="26" fill="rgb(188,116,88)" stroke="rgb(150,92,70)" stroke-width="1" opacity="0.75" />
		</g>
	</g>
	<g>
		<title>epaN</title>
		<polygon class="epaN" points="458,16 458,16 458,1 438,31 458,61 458,46 458,46" fill="rgb(178,236,251)" fill-opacity="1.0" stroke="rgb(71,94,100)" stroke-width="1" />
		<g>
			<title>PF00857</title>
			<polygon class="PF00857" points="440,31 449,18 455,18 455,44 449,44" stroke-linejoin="round" width="17" height="26" fill="rgb(144,224,70)" stroke="rgb(115,179,56)" stroke-width="1" opacity="0.75" />
		</g>
	</g>
	<g>
		<title>epaO</title>
		<polygon class="epaO" points="501,16 492,16 492,1 462,31 492,61 492,46 501,46" fill="rgb(251,178,205)" fill-opacity="1.0" stroke="rgb(100,71,82)" stroke-width="1" />
		<g>
			<title>PF01474</title>
			<polygon class="PF01474" points="464,31 477,18 484,18 484,44 477,44" stroke-linejoin="round" width="22" height="26" fill="rgb(126,217,84)" stroke="rgb(100,173,67)" stroke-width="1" opacity="0.75" />
		</g>
		<g>
			<title>PF01474</title>
			<rect class="PF01474" x="484" y="18" stroke-linejoin="round" width="16" height="26" fill="rgb(126,217,84)" stroke="rgb(100,173,67)" stroke-width="1" opacity="0.75" />
		</g>
	</g>
	<g>
		<title>epaP</title>
		<polygon class="epaP" points="519,16 519,16 519,1 503,31 519,61 519,46 519,46" fill="rgb(180,253,209)" fill-opacity="1.0" stroke="rgb(72,101,83)" stroke-width="1" />
		<g>
			<title>PF03284</title>
			<polygon class="PF03284" points="505,31 512,18 518,18 518,44 512,44" stroke-linejoin="round" width="15" height="26" fill="rgb(179,85,75)" stroke="rgb(143,68,60)" stroke-width="1" opacity="0.75" />
		</g>
	</g>
	<g>
		<title>epaQ</title>
		<polygon class="epaQ" points="572,16 560,16 560,1 530,31 560,61 560,46 572,46" fill="rgb(252,202,220)" fill-opacity="1.0" stroke="rgb(100,80,88)" stroke-width="1" />
		<g>
			<title>PF14759</title>
			<polygon class="PF14759" points="532,31 539,24 539,37" stroke-linejoin="round" width="8" height="26" fill="rgb(71,86,184)" stroke="rgb(56,68,147)" stroke-width="1" opacity="0.75" />
		</g>
		<g>
			<title>PF07992</title>
			<polygon class="PF07992" points="541,22 545,18 570,18 570,44 545,44 541,39" stroke-linejoin="round" width="29" height="26" fill="rgb(83,223,167)" stroke="rgb(66,178,133)" stroke-width="1" opacity="0.75" />
		</g>
	</g>
	<g>
		<title>epaR</title>
		<polygon class="epaR" points="582,16 582,16 582,1 572,31 582,61 582,46 582,46" fill="rgb(252,202,218)" fill-opacity="1.0" stroke="rgb(100,80,87)" stroke-width="1" />
		<g>
			<title>PF00111</title>
			<polygon class="PF00111" points="574,31 578,18 581,18 581,44 578,44" stroke-linejoin="round" width="8" height="26" fill="rgb(60,59,191)" stroke="rgb(48,47,152)" stroke-width="1" opacity="0.75" />
		</g>
	</g>
	<g>
		<title>epaS</title>
		<polygon class="epaS" points="621,16 621,16 621,1 591,31 621,61 621,46 621,46" fill="rgb(193,253,243)" fill-opacity="1.0" stroke="rgb(77,101,97)" stroke-width="1" />
		<g>
			<title>PF03466</title>
			<polygon class="PF03466" points="593,31 606,18 612,18 612,44 606,44" stroke-linejoin="round" width="20" height="26" fill="rgb(55,136,195)" stroke="rgb(44,108,156)" stroke-width="1" opacity="0.75" />
		</g>
		<g>
			<title>PF00126</title>
			<rect class="PF00126" x="615" y="18" stroke-linejoin="round" width="5" height="26" fill="rgb(125,227,79)" stroke="rgb(99,181,63)" stroke-width="1" opacity="0.75" />
		</g>
	</g>
	<g>
		<title>epaA</title>
		<polygon class="epaA" points="5,16 5,16 5,1 35,31 5,61 5,46 5,46" fill="rgb(197,253,208)" fill-opacity="1.0" stroke="rgb(78,101,83)" stroke-width="1" />
		<g>
			<title>PF11468</title>
			<polygon class="PF11468" points="5,18 19,18 32,31 19,44 5,44" stroke-linejoin="round" width="29" height="26" fill="rgb(121,52,185)" stroke="rgb(96,41,148)" stroke-width="1" opacity="0.75" />
		</g>
	</g>
	<g>
		<title>epaT</title>
		<polygon class="epaT" points="630,16 643,16 643,1 673,31 643,61 643,46 630,46" fill="rgb(252,248,210)" fill-opacity="1.0" stroke="rgb(100,99,84)" stroke-width="1" />
		<g>
			<title>PF01654</title>
			<rect class="PF01654" x="630" y="18" stroke-linejoin="round" width="26" height="26" fill="rgb(64,127,201)" stroke="rgb(51,101,160)" stroke-width="1" opacity="0.75" />
		</g>
		<g>
			<title>PF01654</title>
			<polygon class="PF01654" points="656,18 657,18 670,31 670,31 657,44 656,44" stroke-linejoin="round" width="14" height="26" fill="rgb(64,127,201)" stroke="rgb(51,101,160)" stroke-width="1" opacity="0.75" />
		</g>
	</g>
	<g>
		<title>epaU</title>
		<polygon class="epaU" points="676,16 682,16 682,1 712,31 682,61 682,46 676,46" fill="rgb(233,252,207)" fill-opacity="1.0" stroke="rgb(93,100,82)" stroke-width="1" />
		<g>
			<title>PF02322</title>
			<polygon class="PF02322" points="676,18 696,18 709,31 696,44 676,44" stroke-linejoin="round" width="34" height="26" fill="rgb(228,79,211)" stroke="rgb(182,63,168)" stroke-width="1" opacity="0.75" />
		</g>
	</g>
	<g>
		<polygon class="NoName" points="714,16 743,16 743,1 773,31 743,61 743,46 714,46" fill="rgb(255,255,255)" fill-opacity="1.0" stroke="rgb(50,50,50)" stroke-width="1" />
		<g>
			<title>PF00664</title>
			<rect class="PF00664" x="715" y="18" stroke-linejoin="round" width="26" height="26" fill="rgb(149,226,73)" stroke="rgb(119,180,58)" stroke-width="1" opacity="0.75" />
		</g>
		<g>
			<title>PF00005</title>
			<polygon class="PF00005" points="752,18 757,18 766,27 766,35 757,44 752,44" stroke-linejoin="round" width="14" height="26" fill="rgb(129,201,63)" stroke="rgb(103,160,50)" stroke-width="1" opacity="0.75" />
		</g>
	</g>
	<g>
		<polygon class="NoName" points="777,16 804,16 804,1 834,31 804,61 804,46 777,46" fill="rgb(255,255,255)" fill-opacity="1.0" stroke="rgb(50,50,50)" stroke-width="1" />
		<g>
			<title>PF00664</title>
			<rect class="PF00664" x="779" y="18" stroke-linejoin="round" width="26" height="26" fill="rgb(149,226,73)" stroke="rgb(119,180,58)" stroke-width="1" opacity="0.75" />
		</g>
		<g>
			<title>PF00005</title>
			<polygon class="PF00005" points="813,18 818,18 827,27 827,35 818,44 813,44" stroke-linejoin="round" width="14" height="26" fill="rgb(129,201,63)" stroke="rgb(103,160,50)" stroke-width="1" opacity="0.75" />
		</g>
	</g>
	<g>
		<title>epaB</title>
		<polygon class="epaB" points="41,16 45,16 45,1 75,31 45,61 45,46 41,46" fill="rgb(246,253,204)" fill-opacity="1.0" stroke="rgb(98,101,81)" stroke-width="1" />
		<g>
			<title>PF00288</title>
			<rect class="PF00288" x="52" y="18" stroke-linejoin="round" width="6" height="26" fill="rgb(190,54,91)" stroke="rgb(152,43,72)" stroke-width="1" opacity="0.75" />
		</g>
		<g>
			<title>PF08544</title>
			<polygon class="PF08544" points="65,24 72,31 65,38" stroke-linejoin="round" width="8" height="26" fill="rgb(95,112,219)" stroke="rgb(76,89,175)" stroke-width="1" opacity="0.75" />
		</g>
	</g>
	<g>
		<title>epaC</title>
		<polygon class="epaC" points="75,16 80,16 80,1 110,31 80,61 80,46 75,46" fill="rgb(210,250,203)" fill-opacity="1.0" stroke="rgb(84,100,81)" stroke-width="1" />
		<g>
			<title>PF00288</title>
			<rect class="PF00288" x="86" y="18" stroke-linejoin="round" width="5" height="26" fill="rgb(190,54,91)" stroke="rgb(152,43,72)" stroke-width="1" opacity="0.75" />
		</g>
	</g>
	<g>
		<title>epaD</title>
		<polygon class="epaD" points="110,16 121,16 121,1 151,31 121,61 121,46 110,46" fill="rgb(251,210,238)" fill-opacity="1.0" stroke="rgb(100,84,95)" stroke-width="1" />
		<g>
			<title>PF00288</title>
			<rect class="PF00288" x="121" y="18" stroke-linejoin="round" width="7" height="26" fill="rgb(190,54,91)" stroke="rgb(152,43,72)" stroke-width="1" opacity="0.75" />
		</g>
		<g>
			<title>PF08544</title>
			<polygon class="PF08544" points="137,20 146,29 146,33 137,42" stroke-linejoin="round" width="9" height="26" fill="rgb(95,112,219)" stroke="rgb(76,89,175)" stroke-width="1" opacity="0.75" />
		</g>
	</g>
	<g>
		<title>epaE</title>
		<polygon class="epaE" points="152,16 158,16 158,1 188,31 158,61 158,46 152,46" fill="rgb(208,251,253)" fill-opacity="1.0" stroke="rgb(83,100,101)" stroke-width="1" />
		<g>
			<title>PF01070</title>
			<polygon class="PF01070" points="163,18 172,18 184,30 184,32 172,44 163,44" stroke-linejoin="round" width="21" height="26" fill="rgb(59,82,204)" stroke="rgb(47,65,163)" stroke-width="1" opacity="0.75" />
		</g>
	</g>
	<g>
		<title>epaF</title>
		<polygon class="epaF" points="188,16 193,16 193,1 223,31 193,61 193,46 188,46" fill="rgb(252,182,176)" fill-opacity="1.0" stroke="rgb(100,72,70)" stroke-width="1" />
		<g>
			<title>PF00368</title>
			<polygon class="PF00368" points="188,18 207,18 220,31 207,44 188,44" stroke-linejoin="round" width="33" height="26" fill="rgb(67,203,137)" stroke="rgb(53,162,109)" stroke-width="1" opacity="0.75" />
		</g>
	</g>
	<g>
		<title>epaG</title>
		<polygon class="epaG" points="223,16 232,16 232,1 262,31 232,61 232,46 223,46" fill="rgb(253,179,190)" fill-opacity="1.0" stroke="rgb(101,71,76)" stroke-width="1" />
		<g>
			<title>PF01154</title>
			<rect class="PF01154" x="223" y="18" stroke-linejoin="round" width="16" height="26" fill="rgb(88,216,218)" stroke="rgb(70,172,174)" stroke-width="1" opacity="0.75" />
		</g>
		<g>
			<title>PF08540</title>
			<polygon class="PF08540" points="249,21 257,29 257,33 249,41" stroke-linejoin="round" width="8" height="26" fill="rgb(49,194,86)" stroke="rgb(39,155,68)" stroke-width="1" opacity="0.75" />
		</g>
	</g>
	<g>
		<title>epaH</title>
		<polygon class="epaH" points="273,16 273,16 273,1 268,31 273,61 273,46 273,46" fill="rgb(252,205,239)" fill-opacity="1.0" stroke="rgb(100,82,95)" stroke-width="1" />
	</g>
	<g>
		<title>epaI</title>
		<polygon class="epaI" points="294,16 294,16 294,1 274,31 294,61 294,46 294,46" fill="rgb(251,248,203)" fill-opacity="1.0" stroke="rgb(100,99,81)" stroke-width="1" />
	</g>
</svg>
