<svg version="1.1" baseProfile="full" xmlns="http://www.w3.org/2000/svg" width="959" height="62">
	<line x1="1" y1="31" x2="958" y2="31" style="stroke:rgb(50,50,50); stroke-width:3 "/>
	<g>
		<title>sanH</title>
		<polygon class="sanH" points="392,16 392,16 392,1 400,31 392,61 392,46 392,46" fill="rgb(250,192,194)" fill-opacity="1.0" stroke="rgb(100,76,77)" stroke-width="1" />
		<g>
			<title>PF00550</title>
			<polygon class="PF00550" points="392,18 394,18 397,31 394,44 392,44" stroke-linejoin="round" width="7" height="26" fill="rgb(103,191,88)" stroke="rgb(82,152,70)" stroke-width="1" opacity="0.75" />
		</g>
	</g>
	<g>
		<title>sanI</title>
		<polygon class="sanI" points="400,16 400,16 400,1 415,31 400,61 400,46 400,46" fill="rgb(177,188,252)" fill-opacity="1.0" stroke="rgb(70,75,100)" stroke-width="1" />
		<g>
			<title>PF10604</title>
			<polygon class="PF10604" points="400,18 406,18 412,31 406,44 400,44" stroke-linejoin="round" width="14" height="26" fill="rgb(105,204,74)" stroke="rgb(84,163,59)" stroke-width="1" opacity="0.75" />
		</g>
	</g>
	<g>
		<title>sanJ</title>
		<polygon class="sanJ" points="415,16 415,16 415,1 426,31 415,61 415,46 415,46" fill="rgb(252,226,210)" fill-opacity="1.0" stroke="rgb(100,90,84)" stroke-width="1" />
		<g>
			<title>PF03992</title>
			<polygon class="PF03992" points="415,18 418,18 422,26 422,36 418,44 415,44" stroke-linejoin="round" width="7" height="26" fill="rgb(193,84,127)" stroke="rgb(154,67,101)" stroke-width="1" opacity="0.75" />
		</g>
	</g>
	<g>
		<title>sanK</title>
		<polygon class="sanK" points="427,16 427,16 427,1 441,31 427,61 427,46 427,46" fill="rgb(185,197,251)" fill-opacity="1.0" stroke="rgb(74,78,100)" stroke-width="1" />
		<g>
			<title>PF02036</title>
			<polygon class="PF02036" points="430,18 432,18 438,31 432,44 430,44" stroke-linejoin="round" width="10" height="26" fill="rgb(56,163,207)" stroke="rgb(44,130,165)" stroke-width="1" opacity="0.75" />
		</g>
	</g>
	<g>
		<title>sanL</title>
		<polygon class="sanL" points="473,16 473,16 473,1 449,31 473,61 473,46 473,46" fill="rgb(251,210,234)" fill-opacity="1.0" stroke="rgb(100,84,93)" stroke-width="1" />
		<g>
			<title>PF04486</title>
			<polygon class="PF04486" points="451,31 460,20 460,41" stroke-linejoin="round" width="11" height="26" fill="rgb(75,209,181)" stroke="rgb(60,167,144)" stroke-width="1" opacity="0.75" />
		</g>
		<g>
			<title>PF04486</title>
			<polygon class="PF04486" points="461,19 461,18 473,18 473,44 461,44 461,42" stroke-linejoin="round" width="12" height="26" fill="rgb(75,209,181)" stroke="rgb(60,167,144)" stroke-width="1" opacity="0.75" />
		</g>
	</g>
	<g>
		<title>sanM</title>
		<polygon class="sanM" points="492,16 492,16 492,1 478,31 492,61 492,46 492,46" fill="rgb(253,206,224)" fill-opacity="1.0" stroke="rgb(101,82,89)" stroke-width="1" />
		<g>
			<title>PF08592</title>
			<polygon class="PF08592" points="480,31 486,18 490,18 490,44 486,44" stroke-linejoin="round" width="12" height="26" fill="rgb(75,196,107)" stroke="rgb(60,156,85)" stroke-width="1" opacity="0.75" />
		</g>
	</g>
	<g>
		<title>sanM1</title>
		<polygon class="sanM1" points="500,16 500,16 500,1 515,31 500,61 500,46 500,46" fill="rgb(252,221,185)" fill-opacity="1.0" stroke="rgb(100,88,74)" stroke-width="1" />
		<g>
			<title>PF08592</title>
			<polygon class="PF08592" points="502,18 506,18 512,31 506,44 502,44" stroke-linejoin="round" width="13" height="26" fill="rgb(75,196,107)" stroke="rgb(60,156,85)" stroke-width="1" opacity="0.75" />
		</g>
	</g>
	<g>
		<title>sanN</title>
		<polygon class="sanN" points="522,16 527,16 527,1 557,31 527,61 527,46 522,46" fill="rgb(251,250,206)" fill-opacity="1.0" stroke="rgb(100,100,82)" stroke-width="1" />
		<g>
			<title>PF00891</title>
			<polygon class="PF00891" points="532,18 541,18 554,31 541,44 532,44" stroke-linejoin="round" width="23" height="26" fill="rgb(50,51,190)" stroke="rgb(39,40,152)" stroke-width="1" opacity="0.75" />
		</g>
	</g>
	<g>
		<title>sanO</title>
		<polygon class="sanO" points="561,16 561,16 561,1 586,31 561,61 561,46 561,46" fill="rgb(254,219,209)" fill-opacity="1.0" stroke="rgb(101,87,83)" stroke-width="1" />
		<g>
			<title>PF13561</title>
			<polygon class="PF13561" points="562,18 572,18 583,31 572,44 562,44" stroke-linejoin="round" width="23" height="26" fill="rgb(73,205,127)" stroke="rgb(58,164,101)" stroke-width="1" opacity="0.75" />
		</g>
	</g>
	<g>
		<title>sanP</title>
		<polygon class="sanP" points="585,16 585,16 585,1 595,31 585,61 585,46 585,46" fill="rgb(253,235,201)" fill-opacity="1.0" stroke="rgb(101,94,80)" stroke-width="1" />
		<g>
			<title>PF03992</title>
			<polygon class="PF03992" points="586,18 588,18 592,31 588,44 586,44" stroke-linejoin="round" width="7" height="26" fill="rgb(193,84,127)" stroke="rgb(154,67,101)" stroke-width="1" opacity="0.75" />
		</g>
	</g>
	<g>
		<title>san1</title>
		<polygon class="san1" points="57,16 31,16 31,1 1,31 31,61 31,46 57,46" fill="rgb(230,250,177)" fill-opacity="1.0" stroke="rgb(92,100,70)" stroke-width="1" />
		<g>
			<title>PF01039</title>
			<polygon class="PF01039" points="3,31 16,18 49,18 49,44 16,44" stroke-linejoin="round" width="48" height="26" fill="rgb(180,136,60)" stroke="rgb(144,108,48)" stroke-width="1" opacity="0.75" />
		</g>
	</g>
	<g>
		<title>sanQ</title>
		<polygon class="sanQ" points="596,16 596,16 596,1 606,31 596,61 596,46 596,46" fill="rgb(249,195,199)" fill-opacity="1.0" stroke="rgb(99,78,79)" stroke-width="1" />
		<g>
			<title>PF03992</title>
			<polygon class="PF03992" points="596,18 599,18 603,29 603,33 599,44 596,44" stroke-linejoin="round" width="7" height="26" fill="rgb(193,84,127)" stroke="rgb(154,67,101)" stroke-width="1" opacity="0.75" />
		</g>
	</g>
	<g>
		<title>sanS</title>
		<polygon class="sanS" points="644,16 641,16 641,1 611,31 641,61 641,46 644,46" fill="rgb(236,252,194)" fill-opacity="1.0" stroke="rgb(94,100,77)" stroke-width="1" />
		<g>
			<title>PF08541</title>
			<polygon class="PF08541" points="613,31 620,24 620,37" stroke-linejoin="round" width="9" height="26" fill="rgb(146,207,81)" stroke="rgb(116,165,64)" stroke-width="1" opacity="0.75" />
		</g>
		<g>
			<title>PF08545</title>
			<polygon class="PF08545" points="625,19 626,18 632,18 632,44 626,44 625,42" stroke-linejoin="round" width="7" height="26" fill="rgb(189,102,84)" stroke="rgb(151,81,67)" stroke-width="1" opacity="0.75" />
		</g>
	</g>
	<g>
		<title>sanT1</title>
		<polygon class="sanT1" points="678,16 675,16 675,1 645,31 675,61 675,46 678,46" fill="rgb(221,251,181)" fill-opacity="1.0" stroke="rgb(88,100,72)" stroke-width="1" />
	</g>
	<g>
		<title>sanX</title>
		<polygon class="sanX" points="687,16 687,16 687,1 697,31 687,61 687,46 687,46" fill="rgb(206,199,250)" fill-opacity="1.0" stroke="rgb(82,79,100)" stroke-width="1" />
	</g>
	<g>
		<title>sanR</title>
		<polygon class="sanR" points="720,16 720,16 720,1 706,31 720,61 720,46 720,46" fill="rgb(212,195,252)" fill-opacity="1.0" stroke="rgb(84,77,100)" stroke-width="1" />
		<g>
			<title>PF12802</title>
			<polygon class="PF12802" points="711,25 714,18 717,18 717,44 714,44 711,36" stroke-linejoin="round" width="6" height="26" fill="rgb(46,89,185)" stroke="rgb(36,71,148)" stroke-width="1" opacity="0.75" />
		</g>
	</g>
	<g>
		<title>sanU</title>
		<polygon class="sanU" points="729,16 729,16 729,1 743,31 729,61 729,46 729,46" fill="rgb(254,233,182)" fill-opacity="1.0" stroke="rgb(101,93,72)" stroke-width="1" />
	</g>
	<g>
		<title>sanV</title>
		<polygon class="sanV" points="748,16 781,16 781,1 811,31 781,61 781,46 748,46" fill="rgb(207,252,194)" fill-opacity="1.0" stroke="rgb(82,100,77)" stroke-width="1" />
		<g>
			<title>PF13537</title>
			<rect class="PF13537" x="752" y="18" stroke-linejoin="round" width="13" height="26" fill="rgb(200,63,57)" stroke="rgb(160,50,45)" stroke-width="1" opacity="0.75" />
		</g>
		<g>
			<title>PF00733</title>
			<polygon class="PF00733" points="773,18 795,18 808,31 795,44 773,44" stroke-linejoin="round" width="37" height="26" fill="rgb(97,201,176)" stroke="rgb(77,160,140)" stroke-width="1" opacity="0.75" />
		</g>
	</g>
	<g>
		<title>sanR1</title>
		<polygon class="sanR1" points="880,16 849,16 849,1 819,31 849,61 849,46 880,46" fill="rgb(250,196,253)" fill-opacity="1.0" stroke="rgb(100,78,101)" stroke-width="1" />
		<g>
			<title>PF03704</title>
			<rect class="PF03704" x="854" y="18" stroke-linejoin="round" width="14" height="26" fill="rgb(217,89,196)" stroke="rgb(173,71,156)" stroke-width="1" opacity="0.75" />
		</g>
		<g>
			<title>PF00486</title>
			<rect class="PF00486" x="870" y="18" stroke-linejoin="round" width="8" height="26" fill="rgb(204,153,57)" stroke="rgb(163,122,45)" stroke-width="1" opacity="0.75" />
		</g>
	</g>
	<g>
		<title>sanT2</title>
		<polygon class="sanT2" points="887,16 908,16 908,1 938,31 908,61 908,46 887,46" fill="rgb(240,213,251)" fill-opacity="1.0" stroke="rgb(96,85,100)" stroke-width="1" />
		<g>
			<title>PF07690</title>
			<polygon class="PF07690" points="890,18 922,18 929,25 929,37 922,44 890,44" stroke-linejoin="round" width="39" height="26" fill="rgb(193,224,74)" stroke="rgb(154,179,59)" stroke-width="1" opacity="0.75" />
		</g>
	</g>
	<g>
		<title>sanW</title>
		<polygon class="sanW" points="942,16 942,16 942,1 958,31 942,61 942,46 942,46" fill="rgb(250,211,215)" fill-opacity="1.0" stroke="rgb(100,84,86)" stroke-width="1" />
		<g>
			<title>PF01648</title>
			<polygon class="PF01648" points="946,18 948,18 955,31 948,44 946,44" stroke-linejoin="round" width="11" height="26" fill="rgb(85,184,135)" stroke="rgb(68,147,108)" stroke-width="1" opacity="0.75" />
		</g>
	</g>
	<g>
		<title>san2</title>
		<polygon class="san2" points="60,16 64,16 64,1 94,31 64,61 64,46 60,46" fill="rgb(234,250,204)" fill-opacity="1.0" stroke="rgb(93,100,81)" stroke-width="1" />
		<g>
			<title>PF00698</title>
			<polygon class="PF00698" points="61,18 78,18 91,31 78,44 61,44" stroke-linejoin="round" width="31" height="26" fill="rgb(59,176,209)" stroke="rgb(47,140,167)" stroke-width="1" opacity="0.75" />
		</g>
	</g>
	<g>
		<title>san3</title>
		<polygon class="san3" points="186,16 123,16 123,1 93,31 123,61 123,46 186,46" fill="rgb(185,250,220)" fill-opacity="1.0" stroke="rgb(73,100,88)" stroke-width="1" />
		<g>
			<title>PF07731</title>
			<polygon class="PF07731" points="95,31 105,21 105,40" stroke-linejoin="round" width="11" height="26" fill="rgb(183,55,192)" stroke="rgb(146,44,153)" stroke-width="1" opacity="0.75" />
		</g>
		<g>
			<title>PF00394</title>
			<rect class="PF00394" x="116" y="18" stroke-linejoin="round" width="10" height="26" fill="rgb(172,188,74)" stroke="rgb(137,150,59)" stroke-width="1" opacity="0.75" />
		</g>
		<g>
			<title>PF07732</title>
			<rect class="PF07732" x="129" y="18" stroke-linejoin="round" width="11" height="26" fill="rgb(80,81,179)" stroke="rgb(63,64,143)" stroke-width="1" opacity="0.75" />
		</g>
	</g>
	<g>
		<title>sanC</title>
		<polygon class="sanC" points="190,16 190,16 190,1 214,31 190,61 190,46 190,46" fill="rgb(209,253,240)" fill-opacity="1.0" stroke="rgb(83,101,96)" stroke-width="1" />
		<g>
			<title>PF13561</title>
			<polygon class="PF13561" points="191,18 201,18 211,31 201,44 191,44" stroke-linejoin="round" width="23" height="26" fill="rgb(73,205,127)" stroke="rgb(58,164,101)" stroke-width="1" opacity="0.75" />
		</g>
	</g>
	<g>
		<title>sanT</title>
		<polygon class="sanT" points="218,16 239,16 239,1 269,31 239,61 239,46 218,46" fill="rgb(253,243,214)" fill-opacity="1.0" stroke="rgb(101,97,85)" stroke-width="1" />
		<g>
			<title>PF00854</title>
			<polygon class="PF00854" points="229,18 253,18 266,31 266,31 253,44 229,44" stroke-linejoin="round" width="37" height="26" fill="rgb(90,189,52)" stroke="rgb(71,151,41)" stroke-width="1" opacity="0.75" />
		</g>
	</g>
	<g>
		<title>sanD</title>
		<polygon class="sanD" points="274,16 274,16 274,1 284,31 274,61 274,46 274,46" fill="rgb(230,197,252)" fill-opacity="1.0" stroke="rgb(92,78,100)" stroke-width="1" />
		<g>
			<title>PF04673</title>
			<polygon class="PF04673" points="274,18 277,18 281,31 277,44 274,44" stroke-linejoin="round" width="10" height="26" fill="rgb(49,187,78)" stroke="rgb(39,149,62)" stroke-width="1" opacity="0.75" />
		</g>
	</g>
	<g>
		<title>sanE</title>
		<polygon class="sanE" points="289,16 289,16 289,1 303,31 289,61 289,46 289,46" fill="rgb(209,177,250)" fill-opacity="1.0" stroke="rgb(83,70,100)" stroke-width="1" />
		<g>
			<title>PF07883</title>
			<polygon class="PF07883" points="293,18 294,18 300,30 300,32 294,44 293,44" stroke-linejoin="round" width="7" height="26" fill="rgb(211,192,74)" stroke="rgb(168,153,59)" stroke-width="1" opacity="0.75" />
		</g>
	</g>
	<g>
		<title>sanF</title>
		<polygon class="sanF" points="303,16 315,16 315,1 345,31 315,61 315,46 303,46" fill="rgb(202,254,196)" fill-opacity="1.0" stroke="rgb(80,101,78)" stroke-width="1" />
		<g>
			<title>PF00109</title>
			<rect class="PF00109" x="303" y="18" stroke-linejoin="round" width="24" height="26" fill="rgb(112,116,228)" stroke="rgb(89,92,182)" stroke-width="1" opacity="0.75" />
		</g>
		<g>
			<title>PF02801</title>
			<polygon class="PF02801" points="329,18 329,18 340,29 340,33 329,44 329,44" stroke-linejoin="round" width="11" height="26" fill="rgb(215,78,102)" stroke="rgb(172,62,81)" stroke-width="1" opacity="0.75" />
		</g>
	</g>
	<g>
		<title>sanG</title>
		<polygon class="sanG" points="345,16 357,16 357,1 387,31 357,61 357,46 345,46" fill="rgb(250,216,203)" fill-opacity="1.0" stroke="rgb(100,86,81)" stroke-width="1" />
		<g>
			<title>PF00109</title>
			<rect class="PF00109" x="347" y="18" stroke-linejoin="round" width="24" height="26" fill="rgb(112,116,228)" stroke="rgb(89,92,182)" stroke-width="1" opacity="0.75" />
		</g>
		<g>
			<title>PF02801</title>
			<polygon class="PF02801" points="372,19 383,30 383,32 372,43" stroke-linejoin="round" width="11" height="26" fill="rgb(215,78,102)" stroke="rgb(172,62,81)" stroke-width="1" opacity="0.75" />
		</g>
	</g>
</svg>
