<svg version="1.1" baseProfile="full" xmlns="http://www.w3.org/2000/svg" width="1853" height="62">
	<line x1="1" y1="31" x2="1852" y2="31" style="stroke:rgb(50,50,50); stroke-width:3 "/>
	<g>
		<title>cal31</title>
		<polygon class="cal31" points="264,16 256,16 256,1 226,31 256,61 256,46 264,46" fill="rgb(205,252,206)" fill-opacity="1.0" stroke="rgb(82,100,82)" stroke-width="1" />
		<g>
			<title>PF02801</title>
			<polygon class="PF02801" points="230,29 241,18 241,43 230,32" stroke-linejoin="round" width="11" height="26" fill="rgb(215,78,102)" stroke="rgb(172,62,81)" stroke-width="1" opacity="0.75" />
		</g>
		<g>
			<title>PF00109</title>
			<rect class="PF00109" x="242" y="18" stroke-linejoin="round" width="21" height="26" fill="rgb(112,116,228)" stroke="rgb(89,92,182)" stroke-width="1" opacity="0.75" />
		</g>
	</g>
	<g>
		<title>cal30</title>
		<polygon class="cal30" points="305,16 294,16 294,1 264,31 294,61 294,46 305,46" fill="rgb(251,245,210)" fill-opacity="1.0" stroke="rgb(100,98,84)" stroke-width="1" />
		<g>
			<title>PF02801</title>
			<polygon class="PF02801" points="268,29 279,18 279,43 268,32" stroke-linejoin="round" width="11" height="26" fill="rgb(215,78,102)" stroke="rgb(172,62,81)" stroke-width="1" opacity="0.75" />
		</g>
		<g>
			<title>PF00109</title>
			<rect class="PF00109" x="280" y="18" stroke-linejoin="round" width="23" height="26" fill="rgb(112,116,228)" stroke="rgb(89,92,182)" stroke-width="1" opacity="0.75" />
		</g>
	</g>
	<g>
		<title>cal29</title>
		<polygon class="cal29" points="317,16 317,16 317,1 309,31 317,61 317,46 317,46" fill="rgb(197,212,250)" fill-opacity="1.0" stroke="rgb(78,84,100)" stroke-width="1" />
		<g>
			<title>PF00550</title>
			<polygon class="PF00550" points="311,31 314,18 315,18 315,44 314,44" stroke-linejoin="round" width="6" height="26" fill="rgb(103,191,88)" stroke="rgb(82,152,70)" stroke-width="1" opacity="0.75" />
		</g>
	</g>
	<g>
		<title>cal28</title>
		<polygon class="cal28" points="380,16 353,16 353,1 323,31 353,61 353,46 380,46" fill="rgb(251,186,179)" fill-opacity="1.0" stroke="rgb(100,74,71)" stroke-width="1" />
		<g>
			<title>PF01593</title>
			<rect class="PF01593" x="341" y="18" stroke-linejoin="round" width="37" height="26" fill="rgb(184,74,52)" stroke="rgb(147,59,41)" stroke-width="1" opacity="0.75" />
		</g>
	</g>
	<g>
		<title>cal27</title>
		<polygon class="cal27" points="407,16 407,16 407,1 383,31 407,61 407,46 407,46" fill="rgb(200,201,253)" fill-opacity="1.0" stroke="rgb(80,80,101)" stroke-width="1" />
		<g>
			<title>PF01323</title>
			<polygon class="PF01323" points="386,30 395,18 405,18 405,44 395,44 386,31" stroke-linejoin="round" width="19" height="26" fill="rgb(221,114,99)" stroke="rgb(176,91,79)" stroke-width="1" opacity="0.75" />
		</g>
	</g>
	<g>
		<title>cal26</title>
		<polygon class="cal26" points="441,16 438,16 438,1 408,31 438,61 438,46 441,46" fill="rgb(208,201,252)" fill-opacity="1.0" stroke="rgb(83,80,100)" stroke-width="1" />
	</g>
	<g>
		<title>cal25</title>
		<polygon class="cal25" points="469,16 469,16 469,1 442,31 469,61 469,46 469,46" fill="rgb(254,185,226)" fill-opacity="1.0" stroke="rgb(101,74,90)" stroke-width="1" />
		<g>
			<title>PF12697</title>
			<polygon class="PF12697" points="444,31 456,18 466,18 466,44 456,44" stroke-linejoin="round" width="22" height="26" fill="rgb(113,71,219)" stroke="rgb(90,56,175)" stroke-width="1" opacity="0.75" />
		</g>
	</g>
	<g>
		<title>cal24</title>
		<polygon class="cal24" points="524,16 514,16 514,1 484,31 514,61 514,46 524,46" fill="rgb(207,195,254)" fill-opacity="1.0" stroke="rgb(82,77,101)" stroke-width="1" />
		<g>
			<title>PF14759</title>
			<polygon class="PF14759" points="486,31 491,26 491,35" stroke-linejoin="round" width="7" height="26" fill="rgb(71,86,184)" stroke="rgb(56,68,147)" stroke-width="1" opacity="0.75" />
		</g>
		<g>
			<title>PF07992</title>
			<polygon class="PF07992" points="494,23 499,18 523,18 523,44 499,44 494,38" stroke-linejoin="round" width="29" height="26" fill="rgb(83,223,167)" stroke="rgb(66,178,133)" stroke-width="1" opacity="0.75" />
		</g>
	</g>
	<g>
		<title>cal23</title>
		<polygon class="cal23" points="584,16 554,16 554,1 524,31 554,61 554,46 584,46" fill="rgb(254,228,199)" fill-opacity="1.0" stroke="rgb(101,91,79)" stroke-width="1" />
		<g>
			<title>PF00550</title>
			<polygon class="PF00550" points="526,31 531,26 531,35" stroke-linejoin="round" width="6" height="26" fill="rgb(103,191,88)" stroke="rgb(82,152,70)" stroke-width="1" opacity="0.75" />
		</g>
		<g>
			<title>PF13193</title>
			<polygon class="PF13193" points="533,24 539,18 540,18 540,44 539,44 533,37" stroke-linejoin="round" width="7" height="26" fill="rgb(182,50,118)" stroke="rgb(145,39,94)" stroke-width="1" opacity="0.75" />
		</g>
		<g>
			<title>PF00501</title>
			<rect class="PF00501" x="542" y="18" stroke-linejoin="round" width="39" height="26" fill="rgb(60,217,223)" stroke="rgb(48,173,178)" stroke-width="1" opacity="0.75" />
		</g>
	</g>
	<g>
		<title>cal22</title>
		<polygon class="cal22" points="682,16 615,16 615,1 585,31 615,61 615,46 682,46" fill="rgb(253,215,205)" fill-opacity="1.0" stroke="rgb(101,86,82)" stroke-width="1" />
		<g>
			<title>PF00550</title>
			<polygon class="PF00550" points="587,31 591,27 591,34" stroke-linejoin="round" width="6" height="26" fill="rgb(103,191,88)" stroke="rgb(82,152,70)" stroke-width="1" opacity="0.75" />
		</g>
		<g>
			<title>PF13193</title>
			<polygon class="PF13193" points="595,23 600,18 602,18 602,44 600,44 595,38" stroke-linejoin="round" width="7" height="26" fill="rgb(182,50,118)" stroke="rgb(145,39,94)" stroke-width="1" opacity="0.75" />
		</g>
		<g>
			<title>PF00501</title>
			<rect class="PF00501" x="604" y="18" stroke-linejoin="round" width="39" height="26" fill="rgb(60,217,223)" stroke="rgb(48,173,178)" stroke-width="1" opacity="0.75" />
		</g>
	</g>
	<g>
		<title>cal40</title>
		<polygon class="cal40" points="30,16 30,16 30,1 2,31 30,61 30,46 30,46" fill="rgb(252,186,226)" fill-opacity="1.0" stroke="rgb(100,74,90)" stroke-width="1" />
		<g>
			<title>PF01061</title>
			<polygon class="PF01061" points="5,30 16,18 26,18 26,44 16,44 5,31" stroke-linejoin="round" width="21" height="26" fill="rgb(139,217,106)" stroke="rgb(111,173,84)" stroke-width="1" opacity="0.75" />
		</g>
	</g>
	<g>
		<title>cal21</title>
		<polygon class="cal21" points="711,16 711,16 711,1 684,31 711,61 711,46 711,46" fill="rgb(188,252,245)" fill-opacity="1.0" stroke="rgb(75,100,98)" stroke-width="1" />
		<g>
			<title>PF13561</title>
			<polygon class="PF13561" points="686,31 698,18 710,18 710,44 698,44" stroke-linejoin="round" width="26" height="26" fill="rgb(73,205,127)" stroke="rgb(58,164,101)" stroke-width="1" opacity="0.75" />
		</g>
	</g>
	<g>
		<title>cal20</title>
		<polygon class="cal20" points="736,16 736,16 736,1 713,31 736,61 736,46 736,46" fill="rgb(189,251,236)" fill-opacity="1.0" stroke="rgb(75,100,94)" stroke-width="1" />
		<g>
			<title>PF00975</title>
			<polygon class="PF00975" points="715,31 725,18 735,18 735,44 725,44" stroke-linejoin="round" width="22" height="26" fill="rgb(207,80,138)" stroke="rgb(165,63,110)" stroke-width="1" opacity="0.75" />
		</g>
	</g>
	<g>
		<title>cal19</title>
		<polygon class="cal19" points="927,16 768,16 768,1 738,31 768,61 768,46 927,46" fill="rgb(177,208,251)" fill-opacity="1.0" stroke="rgb(70,83,100)" stroke-width="1" />
		<g>
			<title>PF00975</title>
			<polygon class="PF00975" points="740,31 753,18 762,18 762,44 753,44" stroke-linejoin="round" width="23" height="26" fill="rgb(207,80,138)" stroke="rgb(165,63,110)" stroke-width="1" opacity="0.75" />
		</g>
		<g>
			<title>PF00550</title>
			<rect class="PF00550" x="764" y="18" stroke-linejoin="round" width="6" height="26" fill="rgb(103,191,88)" stroke="rgb(82,152,70)" stroke-width="1" opacity="0.75" />
		</g>
		<g>
			<title>PF13193</title>
			<rect class="PF13193" x="773" y="18" stroke-linejoin="round" width="7" height="26" fill="rgb(182,50,118)" stroke="rgb(145,39,94)" stroke-width="1" opacity="0.75" />
		</g>
		<g>
			<title>PF00501</title>
			<rect class="PF00501" x="782" y="18" stroke-linejoin="round" width="40" height="26" fill="rgb(60,217,223)" stroke="rgb(48,173,178)" stroke-width="1" opacity="0.75" />
		</g>
		<g>
			<title>PF00668</title>
			<rect class="PF00668" x="825" y="18" stroke-linejoin="round" width="45" height="26" fill="rgb(224,184,98)" stroke="rgb(179,147,78)" stroke-width="1" opacity="0.75" />
		</g>
		<g>
			<title>PF00550</title>
			<rect class="PF00550" x="872" y="18" stroke-linejoin="round" width="6" height="26" fill="rgb(103,191,88)" stroke="rgb(82,152,70)" stroke-width="1" opacity="0.75" />
		</g>
		<g>
			<title>PF00668</title>
			<rect class="PF00668" x="883" y="18" stroke-linejoin="round" width="43" height="26" fill="rgb(224,184,98)" stroke="rgb(179,147,78)" stroke-width="1" opacity="0.75" />
		</g>
	</g>
	<g>
		<title>cal18</title>
		<polygon class="cal18" points="1185,16 958,16 958,1 928,31 958,61 958,46 1185,46" fill="rgb(252,191,253)" fill-opacity="1.0" stroke="rgb(100,76,101)" stroke-width="1" />
		<g>
			<title>PF00668</title>
			<polygon class="PF00668" points="938,23 943,18 977,18 977,44 943,44 938,38" stroke-linejoin="round" width="39" height="26" fill="rgb(224,184,98)" stroke="rgb(179,147,78)" stroke-width="1" opacity="0.75" />
		</g>
		<g>
			<title>PF00550</title>
			<rect class="PF00550" x="980" y="18" stroke-linejoin="round" width="6" height="26" fill="rgb(103,191,88)" stroke="rgb(82,152,70)" stroke-width="1" opacity="0.75" />
		</g>
		<g>
			<title>PF13193</title>
			<rect class="PF13193" x="988" y="18" stroke-linejoin="round" width="7" height="26" fill="rgb(182,50,118)" stroke="rgb(145,39,94)" stroke-width="1" opacity="0.75" />
		</g>
		<g>
			<title>PF00501</title>
			<rect class="PF00501" x="997" y="18" stroke-linejoin="round" width="39" height="26" fill="rgb(60,217,223)" stroke="rgb(48,173,178)" stroke-width="1" opacity="0.75" />
		</g>
		<g>
			<title>PF00668</title>
			<rect class="PF00668" x="1038" y="18" stroke-linejoin="round" width="43" height="26" fill="rgb(224,184,98)" stroke="rgb(179,147,78)" stroke-width="1" opacity="0.75" />
		</g>
		<g>
			<title>PF00550</title>
			<rect class="PF00550" x="1084" y="18" stroke-linejoin="round" width="6" height="26" fill="rgb(103,191,88)" stroke="rgb(82,152,70)" stroke-width="1" opacity="0.75" />
		</g>
		<g>
			<title>PF13193</title>
			<rect class="PF13193" x="1093" y="18" stroke-linejoin="round" width="7" height="26" fill="rgb(182,50,118)" stroke="rgb(145,39,94)" stroke-width="1" opacity="0.75" />
		</g>
		<g>
			<title>PF00501</title>
			<rect class="PF00501" x="1101" y="18" stroke-linejoin="round" width="37" height="26" fill="rgb(60,217,223)" stroke="rgb(48,173,178)" stroke-width="1" opacity="0.75" />
		</g>
		<g>
			<title>PF00668</title>
			<rect class="PF00668" x="1141" y="18" stroke-linejoin="round" width="43" height="26" fill="rgb(224,184,98)" stroke="rgb(179,147,78)" stroke-width="1" opacity="0.75" />
		</g>
	</g>
	<g>
		<title>cal17</title>
		<polygon class="cal17" points="1441,16 1215,16 1215,1 1185,31 1215,61 1215,46 1441,46" fill="rgb(251,184,193)" fill-opacity="1.0" stroke="rgb(100,73,77)" stroke-width="1" />
		<g>
			<title>PF00550</title>
			<polygon class="PF00550" points="1188,30 1194,24 1194,37 1188,31" stroke-linejoin="round" width="6" height="26" fill="rgb(103,191,88)" stroke="rgb(82,152,70)" stroke-width="1" opacity="0.75" />
		</g>
		<g>
			<title>PF13649</title>
			<rect class="PF13649" x="1224" y="18" stroke-linejoin="round" width="9" height="26" fill="rgb(227,135,74)" stroke="rgb(181,108,59)" stroke-width="1" opacity="0.75" />
		</g>
		<g>
			<title>PF00501</title>
			<rect class="PF00501" x="1246" y="18" stroke-linejoin="round" width="39" height="26" fill="rgb(60,217,223)" stroke="rgb(48,173,178)" stroke-width="1" opacity="0.75" />
		</g>
		<g>
			<title>PF00668</title>
			<rect class="PF00668" x="1287" y="18" stroke-linejoin="round" width="45" height="26" fill="rgb(224,184,98)" stroke="rgb(179,147,78)" stroke-width="1" opacity="0.75" />
		</g>
		<g>
			<title>PF00550</title>
			<rect class="PF00550" x="1335" y="18" stroke-linejoin="round" width="6" height="26" fill="rgb(103,191,88)" stroke="rgb(82,152,70)" stroke-width="1" opacity="0.75" />
		</g>
		<g>
			<title>PF13193</title>
			<rect class="PF13193" x="1344" y="18" stroke-linejoin="round" width="7" height="26" fill="rgb(182,50,118)" stroke="rgb(145,39,94)" stroke-width="1" opacity="0.75" />
		</g>
		<g>
			<title>PF00501</title>
			<rect class="PF00501" x="1352" y="18" stroke-linejoin="round" width="42" height="26" fill="rgb(60,217,223)" stroke="rgb(48,173,178)" stroke-width="1" opacity="0.75" />
		</g>
		<g>
			<title>PF00668</title>
			<rect class="PF00668" x="1397" y="18" stroke-linejoin="round" width="44" height="26" fill="rgb(224,184,98)" stroke="rgb(179,147,78)" stroke-width="1" opacity="0.75" />
		</g>
	</g>
	<g>
		<title>cal16</title>
		<polygon class="cal16" points="1451,16 1461,16 1461,1 1491,31 1461,61 1461,46 1451,46" fill="rgb(181,253,193)" fill-opacity="1.0" stroke="rgb(72,101,77)" stroke-width="1" />
		<g>
			<title>PF00067</title>
			<polygon class="PF00067" points="1468,18 1475,18 1488,31 1475,44 1468,44" stroke-linejoin="round" width="22" height="26" fill="rgb(85,216,107)" stroke="rgb(68,172,85)" stroke-width="1" opacity="0.75" />
		</g>
	</g>
	<g>
		<title>cal15</title>
		<polygon class="cal15" points="1492,16 1492,16 1492,1 1498,31 1492,61 1492,46 1492,46" fill="rgb(250,194,188)" fill-opacity="1.0" stroke="rgb(100,77,75)" stroke-width="1" />
		<g>
			<title>PF13459</title>
			<polygon class="PF13459" points="1492,18 1492,18 1495,31 1492,44 1492,44" stroke-linejoin="round" width="5" height="26" fill="rgb(138,59,179)" stroke="rgb(110,47,143)" stroke-width="1" opacity="0.75" />
		</g>
	</g>
	<g>
		<title>cal14</title>
		<polygon class="cal14" points="1503,16 1503,16 1503,1 1528,31 1503,61 1503,46 1503,46" fill="rgb(254,249,193)" fill-opacity="1.0" stroke="rgb(101,99,77)" stroke-width="1" />
	</g>
	<g>
		<title>cal13</title>
		<polygon class="cal13" points="1562,16 1561,16 1561,1 1531,31 1561,61 1561,46 1562,46" fill="rgb(252,193,198)" fill-opacity="1.0" stroke="rgb(100,77,79)" stroke-width="1" />
		<g>
			<title>PF07977</title>
			<polygon class="PF07977" points="1533,31 1545,19 1545,42" stroke-linejoin="round" width="12" height="26" fill="rgb(66,205,188)" stroke="rgb(52,164,150)" stroke-width="1" opacity="0.75" />
		</g>
		<g>
			<title>PF07977</title>
			<rect class="PF07977" x="1548" y="18" stroke-linejoin="round" width="13" height="26" fill="rgb(66,205,188)" stroke="rgb(52,164,150)" stroke-width="1" opacity="0.75" />
		</g>
	</g>
	<g>
		<title>cal12</title>
		<polygon class="cal12" points="1577,16 1577,16 1577,1 1563,31 1577,61 1577,46 1577,46" fill="rgb(212,240,251)" fill-opacity="1.0" stroke="rgb(84,96,100)" stroke-width="1" />
	</g>
	<g>
		<title>cal39</title>
		<polygon class="cal39" points="62,16 61,16 61,1 31,31 61,61 61,46 62,46" fill="rgb(187,204,251)" fill-opacity="1.0" stroke="rgb(74,81,100)" stroke-width="1" />
		<g>
			<title>PF00005</title>
			<polygon class="PF00005" points="46,18 46,18 60,18 60,44 46,44 46,43" stroke-linejoin="round" width="14" height="26" fill="rgb(129,201,63)" stroke="rgb(103,160,50)" stroke-width="1" opacity="0.75" />
		</g>
	</g>
	<g>
		<title>cal11</title>
		<polygon class="cal11" points="1590,16 1590,16 1590,1 1577,31 1590,61 1590,46 1590,46" fill="rgb(251,177,199)" fill-opacity="1.0" stroke="rgb(100,70,79)" stroke-width="1" />
	</g>
	<g>
		<title>cal10</title>
		<polygon class="cal10" points="1603,16 1603,16 1603,1 1591,31 1603,61 1603,46 1603,46" fill="rgb(254,184,180)" fill-opacity="1.0" stroke="rgb(101,73,72)" stroke-width="1" />
		<g>
			<title>PF02635</title>
			<polygon class="PF02635" points="1593,31 1598,18 1601,18 1601,44 1598,44" stroke-linejoin="round" width="10" height="26" fill="rgb(60,184,153)" stroke="rgb(48,147,122)" stroke-width="1" opacity="0.75" />
		</g>
	</g>
	<g>
		<title>cal9</title>
		<polygon class="cal9" points="1611,16 1611,16 1611,1 1603,31 1611,61 1611,46 1611,46" fill="rgb(189,254,197)" fill-opacity="1.0" stroke="rgb(75,101,78)" stroke-width="1" />
		<g>
			<title>PF00550</title>
			<polygon class="PF00550" points="1605,31 1608,18 1610,18 1610,44 1608,44" stroke-linejoin="round" width="6" height="26" fill="rgb(103,191,88)" stroke="rgb(82,152,70)" stroke-width="1" opacity="0.75" />
		</g>
	</g>
	<g>
		<title>cal8</title>
		<polygon class="cal8" points="1618,16 1629,16 1629,1 1659,31 1629,61 1629,46 1618,46" fill="rgb(252,211,222)" fill-opacity="1.0" stroke="rgb(100,84,88)" stroke-width="1" />
		<g>
			<title>PF00109</title>
			<rect class="PF00109" x="1623" y="18" stroke-linejoin="round" width="19" height="26" fill="rgb(112,116,228)" stroke="rgb(89,92,182)" stroke-width="1" opacity="0.75" />
		</g>
		<g>
			<title>PF02801</title>
			<polygon class="PF02801" points="1643,18 1643,18 1654,29 1654,33 1643,44 1643,44" stroke-linejoin="round" width="11" height="26" fill="rgb(215,78,102)" stroke="rgb(172,62,81)" stroke-width="1" opacity="0.75" />
		</g>
	</g>
	<g>
		<title>cal7</title>
		<polygon class="cal7" points="1660,16 1663,16 1663,1 1693,31 1663,61 1663,46 1660,46" fill="rgb(198,239,254)" fill-opacity="1.0" stroke="rgb(79,95,101)" stroke-width="1" />
		<g>
			<title>PF00109</title>
			<polygon class="PF00109" points="1662,18 1677,18 1678,19 1678,43 1677,44 1662,44" stroke-linejoin="round" width="16" height="26" fill="rgb(112,116,228)" stroke="rgb(89,92,182)" stroke-width="1" opacity="0.75" />
		</g>
	</g>
	<g>
		<title>cal6</title>
		<polygon class="cal6" points="1696,16 1698,16 1698,1 1728,31 1698,61 1698,46 1696,46" fill="rgb(252,207,213)" fill-opacity="1.0" stroke="rgb(100,82,85)" stroke-width="1" />
	</g>
	<g>
		<title>cal5</title>
		<polygon class="cal5" points="1757,16 1757,16 1757,1 1731,31 1757,61 1757,46 1757,46" fill="rgb(229,253,190)" fill-opacity="1.0" stroke="rgb(91,101,76)" stroke-width="1" />
		<g>
			<title>PF00975</title>
			<polygon class="PF00975" points="1733,31 1744,18 1754,18 1754,44 1744,44" stroke-linejoin="round" width="22" height="26" fill="rgb(207,80,138)" stroke="rgb(165,63,110)" stroke-width="1" opacity="0.75" />
		</g>
	</g>
	<g>
		<title>cal4</title>
		<polygon class="cal4" points="1764,16 1764,16 1764,1 1757,31 1764,61 1764,46 1764,46" fill="rgb(252,185,238)" fill-opacity="1.0" stroke="rgb(100,74,95)" stroke-width="1" />
		<g>
			<title>PF03621</title>
			<polygon class="PF03621" points="1759,31 1762,18 1763,18 1763,44 1762,44" stroke-linejoin="round" width="5" height="26" fill="rgb(212,165,97)" stroke="rgb(169,132,77)" stroke-width="1" opacity="0.75" />
		</g>
	</g>
	<g>
		<title>cal3</title>
		<polygon class="cal3" points="1774,16 1774,16 1774,1 1766,31 1774,61 1774,46 1774,46" fill="rgb(240,214,252)" fill-opacity="1.0" stroke="rgb(96,85,100)" stroke-width="1" />
		<g>
			<title>PF00126</title>
			<polygon class="PF00126" points="1769,27 1771,18 1773,18 1773,44 1771,44 1769,34" stroke-linejoin="round" width="4" height="26" fill="rgb(125,227,79)" stroke="rgb(99,181,63)" stroke-width="1" opacity="0.75" />
		</g>
	</g>
	<g>
		<title>cal2</title>
		<polygon class="cal2" points="1806,16 1806,16 1806,1 1785,31 1806,61 1806,46 1806,46" fill="rgb(229,195,251)" fill-opacity="1.0" stroke="rgb(91,78,100)" stroke-width="1" />
		<g>
			<title>PF00196</title>
			<polygon class="PF00196" points="1787,31 1791,25 1791,36" stroke-linejoin="round" width="5" height="26" fill="rgb(219,94,82)" stroke="rgb(175,75,65)" stroke-width="1" opacity="0.75" />
		</g>
		<g>
			<title>PF00072</title>
			<polygon class="PF00072" points="1794,21 1796,18 1805,18 1805,44 1796,44 1794,40" stroke-linejoin="round" width="11" height="26" fill="rgb(100,107,203)" stroke="rgb(80,85,162)" stroke-width="1" opacity="0.75" />
		</g>
	</g>
	<g>
		<title>cal38</title>
		<polygon class="cal38" points="84,16 84,16 84,1 67,31 84,61 84,46 84,46" fill="rgb(249,206,235)" fill-opacity="1.0" stroke="rgb(99,82,94)" stroke-width="1" />
		<g>
			<title>PF04073</title>
			<polygon class="PF04073" points="69,31 76,18 81,18 81,44 76,44" stroke-linejoin="round" width="12" height="26" fill="rgb(87,163,195)" stroke="rgb(69,130,156)" stroke-width="1" opacity="0.75" />
		</g>
	</g>
	<g>
		<title>cal1</title>
		<polygon class="cal1" points="1847,16 1836,16 1836,1 1806,31 1836,61 1836,46 1847,46" fill="rgb(190,245,252)" fill-opacity="1.0" stroke="rgb(76,97,100)" stroke-width="1" />
		<g>
			<title>PF02518</title>
			<polygon class="PF02518" points="1808,31 1814,25 1814,36" stroke-linejoin="round" width="8" height="26" fill="rgb(80,94,225)" stroke="rgb(64,75,180)" stroke-width="1" opacity="0.75" />
		</g>
		<g>
			<title>PF07730</title>
			<polygon class="PF07730" points="1818,21 1821,18 1824,18 1824,44 1821,44 1818,40" stroke-linejoin="round" width="6" height="26" fill="rgb(190,53,146)" stroke="rgb(152,42,116)" stroke-width="1" opacity="0.75" />
		</g>
	</g>
	<g>
		<title>cal37</title>
		<polygon class="cal37" points="109,16 109,16 109,1 85,31 109,61 109,46 109,46" fill="rgb(212,202,252)" fill-opacity="1.0" stroke="rgb(84,80,100)" stroke-width="1" />
		<g>
			<title>PF13561</title>
			<polygon class="PF13561" points="87,31 97,18 108,18 108,44 97,44" stroke-linejoin="round" width="23" height="26" fill="rgb(73,205,127)" stroke="rgb(58,164,101)" stroke-width="1" opacity="0.75" />
		</g>
	</g>
	<g>
		<title>cal36</title>
		<polygon class="cal36" points="128,16 128,16 128,1 112,31 128,61 128,46 128,46" fill="rgb(250,216,180)" fill-opacity="1.0" stroke="rgb(100,86,72)" stroke-width="1" />
		<g>
			<title>PF07977</title>
			<polygon class="PF07977" points="114,31 121,18 126,18 126,44 121,44" stroke-linejoin="round" width="12" height="26" fill="rgb(66,205,188)" stroke="rgb(52,164,150)" stroke-width="1" opacity="0.75" />
		</g>
	</g>
	<g>
		<title>cal35</title>
		<polygon class="cal35" points="141,16 141,16 141,1 128,31 141,61 141,46 141,46" fill="rgb(178,253,247)" fill-opacity="1.0" stroke="rgb(71,101,98)" stroke-width="1" />
		<g>
			<title>PF07977</title>
			<polygon class="PF07977" points="130,31 136,18 139,18 139,44 136,44" stroke-linejoin="round" width="10" height="26" fill="rgb(66,205,188)" stroke="rgb(52,164,150)" stroke-width="1" opacity="0.75" />
		</g>
	</g>
	<g>
		<title>cal34</title>
		<polygon class="cal34" points="149,16 149,16 149,1 141,31 149,61 149,46 149,46" fill="rgb(217,250,200)" fill-opacity="1.0" stroke="rgb(86,100,80)" stroke-width="1" />
		<g>
			<title>PF00550</title>
			<polygon class="PF00550" points="143,31 146,18 147,18 147,44 146,44" stroke-linejoin="round" width="6" height="26" fill="rgb(103,191,88)" stroke="rgb(82,152,70)" stroke-width="1" opacity="0.75" />
		</g>
	</g>
	<g>
		<title>cal33</title>
		<polygon class="cal33" points="191,16 184,16 184,1 154,31 184,61 184,46 191,46" fill="rgb(202,252,230)" fill-opacity="1.0" stroke="rgb(80,100,92)" stroke-width="1" />
		<g>
			<title>PF00109</title>
			<polygon class="PF00109" points="167,20 169,18 189,18 189,44 169,44 167,41" stroke-linejoin="round" width="22" height="26" fill="rgb(112,116,228)" stroke="rgb(89,92,182)" stroke-width="1" opacity="0.75" />
		</g>
	</g>
	<g>
		<title>cal32</title>
		<polygon class="cal32" points="225,16 224,16 224,1 194,31 224,61 224,46 225,46" fill="rgb(206,228,249)" fill-opacity="1.0" stroke="rgb(82,91,99)" stroke-width="1" />
		<g>
			<title>PF00109</title>
			<polygon class="PF00109" points="207,20 209,18 221,18 221,44 209,44 207,41" stroke-linejoin="round" width="14" height="26" fill="rgb(112,116,228)" stroke="rgb(89,92,182)" stroke-width="1" opacity="0.75" />
		</g>
	</g>
</svg>
