<svg version="1.1" baseProfile="full" xmlns="http://www.w3.org/2000/svg" width="8808" height="62">
	<line x1="1" y1="31" x2="8807" y2="31" style="stroke:rgb(50,50,50); stroke-width:3 "/>
	<g>
		<polygon class="NoName" points="7763,16 7763,16 7763,1 7758,31 7763,61 7763,46 7763,46" fill="rgb(255,255,255)" fill-opacity="1.0" stroke="rgb(50,50,50)" stroke-width="1" />
	</g>
	<g>
		<polygon class="NoName" points="7758,16 7758,16 7758,1 7770,31 7758,61 7758,46 7758,46" fill="rgb(255,255,255)" fill-opacity="1.0" stroke="rgb(50,50,50)" stroke-width="1" />
	</g>
	<g>
		<polygon class="NoName" points="7852,16 7852,16 7852,1 7856,31 7852,61 7852,46 7852,46" fill="rgb(255,255,255)" fill-opacity="1.0" stroke="rgb(50,50,50)" stroke-width="1" />
	</g>
	<g>
		<polygon class="NoName" points="7855,16 7855,16 7855,1 7859,31 7855,61 7855,46 7855,46" fill="rgb(255,255,255)" fill-opacity="1.0" stroke="rgb(50,50,50)" stroke-width="1" />
	</g>
	<g>
		<polygon class="NoName" points="8589,16 8606,16 8606,1 8636,31 8606,61 8606,46 8589,46" fill="rgb(255,255,255)" fill-opacity="1.0" stroke="rgb(50,50,50)" stroke-width="1" />
		<g>
			<title>PF00290</title>
			<rect class="PF00290" x="8598" y="18" stroke-linejoin="round" width="20" height="26" fill="rgb(101,209,118)" stroke="rgb(80,167,94)" stroke-width="1" opacity="0.75" />
		</g>
	</g>
	<g>
		<polygon class="NoName" points="8589,16 8611,16 8611,1 8641,31 8611,61 8611,46 8589,46" fill="rgb(255,255,255)" fill-opacity="1.0" stroke="rgb(50,50,50)" stroke-width="1" />
		<g>
			<title>PF00290</title>
			<rect class="PF00290" x="8598" y="18" stroke-linejoin="round" width="25" height="26" fill="rgb(101,209,118)" stroke="rgb(80,167,94)" stroke-width="1" opacity="0.75" />
		</g>
	</g>
	<g>
		<polygon class="NoName" points="8589,16 8611,16 8611,1 8641,31 8611,61 8611,46 8589,46" fill="rgb(255,255,255)" fill-opacity="1.0" stroke="rgb(50,50,50)" stroke-width="1" />
		<g>
			<title>PF00290</title>
			<rect class="PF00290" x="8598" y="18" stroke-linejoin="round" width="25" height="26" fill="rgb(101,209,118)" stroke="rgb(80,167,94)" stroke-width="1" opacity="0.75" />
		</g>
	</g>
	<g>
		<polygon class="NoName" points="8741,16 8768,16 8768,1 8798,31 8768,61 8768,46 8741,46" fill="rgb(255,255,255)" fill-opacity="1.0" stroke="rgb(50,50,50)" stroke-width="1" />
		<g>
			<title>PF00067</title>
			<polygon class="PF00067" points="8748,18 8782,18 8794,30 8794,32 8782,44 8748,44" stroke-linejoin="round" width="46" height="26" fill="rgb(85,216,107)" stroke="rgb(68,172,85)" stroke-width="1" opacity="0.75" />
		</g>
	</g>
	<g>
		<polygon class="NoName" points="8756,16 8768,16 8768,1 8798,31 8768,61 8768,46 8756,46" fill="rgb(255,255,255)" fill-opacity="1.0" stroke="rgb(50,50,50)" stroke-width="1" />
		<g>
			<title>PF00067</title>
			<polygon class="PF00067" points="8756,18 8782,18 8794,30 8794,32 8782,44 8756,44" stroke-linejoin="round" width="38" height="26" fill="rgb(85,216,107)" stroke="rgb(68,172,85)" stroke-width="1" opacity="0.75" />
		</g>
	</g>
	<g>
		<polygon class="NoName" points="71,16 39,16 39,1 9,31 39,61 39,46 71,46" fill="rgb(255,255,255)" fill-opacity="1.0" stroke="rgb(50,50,50)" stroke-width="1" />
		<g>
			<title>PF00067</title>
			<polygon class="PF00067" points="18,24 24,18 65,18 65,44 24,44 18,37" stroke-linejoin="round" width="47" height="26" fill="rgb(85,216,107)" stroke="rgb(68,172,85)" stroke-width="1" opacity="0.75" />
		</g>
	</g>
	<g>
		<polygon class="NoName" points="49,16 43,16 43,1 13,31 43,61 43,46 49,46" fill="rgb(255,255,255)" fill-opacity="1.0" stroke="rgb(50,50,50)" stroke-width="1" />
		<g>
			<title>PF00067</title>
			<rect class="PF00067" x="32" y="18" stroke-linejoin="round" width="16" height="26" fill="rgb(85,216,107)" stroke="rgb(68,172,85)" stroke-width="1" opacity="0.75" />
		</g>
	</g>
	<g>
		<polygon class="NoName" points="49,16 43,16 43,1 13,31 43,61 43,46 49,46" fill="rgb(255,255,255)" fill-opacity="1.0" stroke="rgb(50,50,50)" stroke-width="1" />
		<g>
			<title>PF00067</title>
			<rect class="PF00067" x="32" y="18" stroke-linejoin="round" width="16" height="26" fill="rgb(85,216,107)" stroke="rgb(68,172,85)" stroke-width="1" opacity="0.75" />
		</g>
	</g>
	<g>
		<polygon class="NoName" points="72,16 43,16 43,1 13,31 43,61 43,46 72,46" fill="rgb(255,255,255)" fill-opacity="1.0" stroke="rgb(50,50,50)" stroke-width="1" />
		<g>
			<title>PF00067</title>
			<rect class="PF00067" x="36" y="18" stroke-linejoin="round" width="29" height="26" fill="rgb(85,216,107)" stroke="rgb(68,172,85)" stroke-width="1" opacity="0.75" />
		</g>
	</g>
	<g>
		<polygon class="NoName" points="71,16 62,16 62,1 32,31 62,61 62,46 71,46" fill="rgb(255,255,255)" fill-opacity="1.0" stroke="rgb(50,50,50)" stroke-width="1" />
		<g>
			<title>PF00067</title>
			<polygon class="PF00067" points="39,26 47,18 66,18 66,44 47,44 39,35" stroke-linejoin="round" width="27" height="26" fill="rgb(85,216,107)" stroke="rgb(68,172,85)" stroke-width="1" opacity="0.75" />
		</g>
	</g>
	<g>
		<polygon class="NoName" points="1664,16 1639,16 1639,1 1609,31 1639,61 1639,46 1664,46" fill="rgb(255,255,255)" fill-opacity="1.0" stroke="rgb(50,50,50)" stroke-width="1" />
		<g>
			<title>PF00067</title>
			<polygon class="PF00067" points="1612,30 1624,18 1658,18 1658,44 1624,44 1612,31" stroke-linejoin="round" width="46" height="26" fill="rgb(85,216,107)" stroke="rgb(68,172,85)" stroke-width="1" opacity="0.75" />
		</g>
	</g>
	<g>
		<polygon class="NoName" points="3677,16 3707,16 3707,1 3737,31 3707,61 3707,46 3677,46" fill="rgb(255,255,255)" fill-opacity="1.0" stroke="rgb(50,50,50)" stroke-width="1" />
		<g>
			<title>PF00067</title>
			<polygon class="PF00067" points="3682,18 3721,18 3729,26 3729,36 3721,44 3682,44" stroke-linejoin="round" width="47" height="26" fill="rgb(85,216,107)" stroke="rgb(68,172,85)" stroke-width="1" opacity="0.75" />
		</g>
	</g>
	<g>
		<polygon class="NoName" points="7110,16 7091,16 7091,1 7061,31 7091,61 7091,46 7110,46" fill="rgb(255,255,255)" fill-opacity="1.0" stroke="rgb(50,50,50)" stroke-width="1" />
		<g>
			<title>PF00201</title>
			<polygon class="PF00201" points="7067,27 7076,18 7086,18 7086,44 7076,44 7067,34" stroke-linejoin="round" width="19" height="26" fill="rgb(225,150,107)" stroke="rgb(180,120,85)" stroke-width="1" opacity="0.75" />
		</g>
	</g>
	<g>
		<polygon class="NoName" points="7111,16 7093,16 7093,1 7063,31 7093,61 7093,46 7111,46" fill="rgb(255,255,255)" fill-opacity="1.0" stroke="rgb(50,50,50)" stroke-width="1" />
	</g>
</svg>
