<svg version="1.1" baseProfile="full" xmlns="http://www.w3.org/2000/svg" width="132" height="310">
	<line x1="1" y1="31" x2="68" y2="31" style="stroke:rgb(50,50,50); stroke-width:3 "/>
	<line x1="1" y1="93" x2="131" y2="93" style="stroke:rgb(50,50,50); stroke-width:3 "/>
	<line x1="1" y1="155" x2="32" y2="155" style="stroke:rgb(50,50,50); stroke-width:3 "/>
	<line x1="1" y1="217" x2="60" y2="217" style="stroke:rgb(50,50,50); stroke-width:3 "/>
	<line x1="1" y1="279" x2="102" y2="279" style="stroke:rgb(50,50,50); stroke-width:3 "/>
	<g>
		<title>UGTB1</title>
		<polygon class="UGTB1" points="16,16 29,16 29,1 59,31 29,61 29,46 16,46" fill="rgb(252,194,186)" fill-opacity="1.0" stroke="rgb(100,77,74)" stroke-width="1" />
		<g>
			<title>PF03033</title>
			<rect class="PF03033" x="16" y="18" stroke-linejoin="round" width="12" height="26" fill="rgb(157,218,79)" stroke="rgb(125,174,63)" stroke-width="1" opacity="0.75" />
		</g>
		<g>
			<title>PF00201</title>
			<polygon class="PF00201" points="42,18 43,18 56,31 43,44 42,44" stroke-linejoin="round" width="16" height="26" fill="rgb(225,150,107)" stroke="rgb(180,120,85)" stroke-width="1" opacity="0.75" />
		</g>
	</g>
	<g>
		<title>mdr</title>
		<polygon class="mdr" points="1,78 101,78 101,63 131,93 101,123 101,108 1,108" fill="rgb(193,214,252)" fill-opacity="1.0" stroke="rgb(77,85,100)" stroke-width="1" />
		<g>
			<title>PF00664</title>
			<rect class="PF00664" x="7" y="80" stroke-linejoin="round" width="27" height="26" fill="rgb(149,226,73)" stroke="rgb(119,180,58)" stroke-width="1" opacity="0.75" />
		</g>
		<g>
			<title>PF00005</title>
			<rect class="PF00005" x="42" y="80" stroke-linejoin="round" width="15" height="26" fill="rgb(129,201,63)" stroke="rgb(103,160,50)" stroke-width="1" opacity="0.75" />
		</g>
		<g>
			<title>PF00664</title>
			<rect class="PF00664" x="73" y="80" stroke-linejoin="round" width="27" height="26" fill="rgb(149,226,73)" stroke="rgb(119,180,58)" stroke-width="1" opacity="0.75" />
		</g>
		<g>
			<title>PF00005</title>
			<polygon class="PF00005" points="108,80 115,80 123,88 123,98 115,106 108,106" stroke-linejoin="round" width="15" height="26" fill="rgb(129,201,63)" stroke="rgb(103,160,50)" stroke-width="1" opacity="0.75" />
		</g>
	</g>
	<g>
		<polygon class="NoName" points="2,140 2,140 2,125 28,155 2,185 2,170 2,170" fill="rgb(255,255,255)" fill-opacity="1.0" stroke="rgb(50,50,50)" stroke-width="1" />
		<g>
			<title>PF12464</title>
			<rect class="PF12464" x="6" y="142" stroke-linejoin="round" width="6" height="26" fill="rgb(188,228,87)" stroke="rgb(150,182,69)" stroke-width="1" opacity="0.75" />
		</g>
		<g>
			<title>PF00132</title>
			<polygon class="PF00132" points="19,148 22,152 22,158 19,162" stroke-linejoin="round" width="3" height="26" fill="rgb(89,131,202)" stroke="rgb(71,104,161)" stroke-width="1" opacity="0.75" />
		</g>
	</g>
	<g>
		<title>UGTA1</title>
		<polygon class="UGTA1" points="8,202 24,202 24,187 54,217 24,247 24,232 8,232" fill="rgb(251,218,210)" fill-opacity="1.0" stroke="rgb(100,87,84)" stroke-width="1" />
		<g>
			<title>PF00201</title>
			<polygon class="PF00201" points="28,204 38,204 49,215 49,219 38,230 28,230" stroke-linejoin="round" width="21" height="26" fill="rgb(225,150,107)" stroke="rgb(180,120,85)" stroke-width="1" opacity="0.75" />
		</g>
	</g>
	<g>
		<polygon class="NoName" points="9,264 32,264 32,249 62,279 32,309 32,294 9,294" fill="rgb(255,255,255)" fill-opacity="1.0" stroke="rgb(50,50,50)" stroke-width="1" />
		<g>
			<title>PF00067</title>
			<polygon class="PF00067" points="15,266 46,266 59,279 46,292 15,292" stroke-linejoin="round" width="46" height="26" fill="rgb(85,216,107)" stroke="rgb(68,172,85)" stroke-width="1" opacity="0.75" />
		</g>
	</g>
	<g>
		<polygon class="NoName" points="79,264 79,264 79,249 93,279 79,309 79,294 79,294" fill="rgb(255,255,255)" fill-opacity="1.0" stroke="rgb(50,50,50)" stroke-width="1" />
	</g>
</svg>
