<svg version="1.1" baseProfile="full" xmlns="http://www.w3.org/2000/svg" width="2579" height="62">
	<line x1="1" y1="31" x2="2578" y2="31" style="stroke:rgb(50,50,50); stroke-width:3 "/>
	<g>
		<title>batG</title>
		<polygon class="batG" points="1756,16 1765,16 1765,1 1795,31 1765,61 1765,46 1756,46" fill="rgb(252,214,219)" fill-opacity="1.0" stroke="rgb(100,85,87)" stroke-width="1" />
		<g>
			<title>PF12242</title>
			<rect class="PF12242" x="1756" y="18" stroke-linejoin="round" width="7" height="26" fill="rgb(94,89,227)" stroke="rgb(75,71,181)" stroke-width="1" opacity="0.75" />
		</g>
		<g>
			<title>PF12241</title>
			<polygon class="PF12241" points="1764,18 1779,18 1787,26 1787,36 1779,44 1764,44" stroke-linejoin="round" width="23" height="26" fill="rgb(99,216,209)" stroke="rgb(79,172,167)" stroke-width="1" opacity="0.75" />
		</g>
		<g>
			<title>PF07055</title>
			<polygon class="PF07055" points="1787,26 1792,31 1787,36" stroke-linejoin="round" width="6" height="26" fill="rgb(223,68,84)" stroke="rgb(178,54,67)" stroke-width="1" opacity="0.75" />
		</g>
	</g>
	<g>
		<title>batH</title>
		<polygon class="batH" points="1800,16 1802,16 1802,1 1832,31 1802,61 1802,46 1800,46" fill="rgb(250,247,208)" fill-opacity="1.0" stroke="rgb(100,98,83)" stroke-width="1" />
		<g>
			<title>PF00698</title>
			<polygon class="PF00698" points="1800,18 1816,18 1829,31 1816,44 1800,44" stroke-linejoin="round" width="31" height="26" fill="rgb(59,176,209)" stroke="rgb(47,140,167)" stroke-width="1" opacity="0.75" />
		</g>
	</g>
	<g>
		<title>batI</title>
		<polygon class="batI" points="1832,16 1832,16 1832,1 1858,31 1832,61 1832,46 1832,46" fill="rgb(201,252,228)" fill-opacity="1.0" stroke="rgb(80,100,91)" stroke-width="1" />
		<g>
			<title>PF01648</title>
			<polygon class="PF01648" points="1843,18 1844,18 1853,29 1853,33 1844,44 1843,44" stroke-linejoin="round" width="10" height="26" fill="rgb(85,184,135)" stroke="rgb(68,147,108)" stroke-width="1" opacity="0.75" />
		</g>
	</g>
	<g>
		<title>batJ</title>
		<polygon class="batJ" points="1859,16 1859,16 1859,1 1887,31 1859,61 1859,46 1859,46" fill="rgb(216,250,177)" fill-opacity="1.0" stroke="rgb(86,100,70)" stroke-width="1" />
		<g>
			<title>PF00698</title>
			<polygon class="PF00698" points="1859,18 1872,18 1884,31 1872,44 1859,44" stroke-linejoin="round" width="28" height="26" fill="rgb(59,176,209)" stroke="rgb(47,140,167)" stroke-width="1" opacity="0.75" />
		</g>
	</g>
	<g>
		<title>batK</title>
		<polygon class="batK" points="1889,16 1904,16 1904,1 1934,31 1904,61 1904,46 1889,46" fill="rgb(235,199,251)" fill-opacity="1.0" stroke="rgb(94,79,100)" stroke-width="1" />
		<g>
			<title>PF03060</title>
			<rect class="PF03060" x="1891" y="18" stroke-linejoin="round" width="27" height="26" fill="rgb(100,193,226)" stroke="rgb(80,154,180)" stroke-width="1" opacity="0.75" />
		</g>
	</g>
	<g>
		<title>batL</title>
		<polygon class="batL" points="1937,16 1979,16 1979,1 2009,31 1979,61 1979,46 1937,46" fill="rgb(249,250,184)" fill-opacity="1.0" stroke="rgb(99,100,73)" stroke-width="1" />
		<g>
			<title>PF02475</title>
			<rect class="PF02475" x="1974" y="18" stroke-linejoin="round" width="12" height="26" fill="rgb(199,133,87)" stroke="rgb(159,106,69)" stroke-width="1" opacity="0.75" />
		</g>
	</g>
	<g>
		<title>batM</title>
		<polygon class="batM" points="2010,16 2011,16 2011,1 2041,31 2011,61 2011,46 2010,46" fill="rgb(229,254,195)" fill-opacity="1.0" stroke="rgb(91,101,77)" stroke-width="1" />
		<g>
			<title>PF00106</title>
			<polygon class="PF00106" points="2012,18 2025,18 2031,24 2031,38 2025,44 2012,44" stroke-linejoin="round" width="19" height="26" fill="rgb(182,219,73)" stroke="rgb(145,175,58)" stroke-width="1" opacity="0.75" />
		</g>
	</g>
	<g>
		<title>batN</title>
		<polygon class="batN" points="2071,16 2071,16 2071,1 2096,31 2071,61 2071,46 2071,46" fill="rgb(191,251,230)" fill-opacity="1.0" stroke="rgb(76,100,92)" stroke-width="1" />
	</g>
	<g>
		<title>batO</title>
		<polygon class="batO" points="2097,16 2097,16 2097,1 2107,31 2097,61 2097,46 2097,46" fill="rgb(253,229,209)" fill-opacity="1.0" stroke="rgb(101,91,83)" stroke-width="1" />
	</g>
	<g>
		<title>batP</title>
		<polygon class="batP" points="2108,16 2164,16 2164,1 2194,31 2164,61 2164,46 2108,46" fill="rgb(196,254,184)" fill-opacity="1.0" stroke="rgb(78,101,73)" stroke-width="1" />
		<g>
			<title>PF00202</title>
			<rect class="PF00202" x="2109" y="18" stroke-linejoin="round" width="39" height="26" fill="rgb(49,163,189)" stroke="rgb(39,130,151)" stroke-width="1" opacity="0.75" />
		</g>
	</g>
	<g>
		<title>bat1</title>
		<polygon class="bat1" points="1,16 195,16 195,1 225,31 195,61 195,46 1,46" fill="rgb(182,254,211)" fill-opacity="1.0" stroke="rgb(72,101,84)" stroke-width="1" />
		<g>
			<title>PF00550</title>
			<rect class="PF00550" x="47" y="18" stroke-linejoin="round" width="6" height="26" fill="rgb(103,191,88)" stroke="rgb(82,152,70)" stroke-width="1" opacity="0.75" />
		</g>
		<g>
			<title>PF00109</title>
			<rect class="PF00109" x="57" y="18" stroke-linejoin="round" width="24" height="26" fill="rgb(112,116,228)" stroke="rgb(89,92,182)" stroke-width="1" opacity="0.75" />
		</g>
		<g>
			<title>PF02801</title>
			<rect class="PF02801" x="82" y="18" stroke-linejoin="round" width="12" height="26" fill="rgb(215,78,102)" stroke="rgb(172,62,81)" stroke-width="1" opacity="0.75" />
		</g>
		<g>
			<title>PF16197</title>
			<rect class="PF16197" x="95" y="18" stroke-linejoin="round" width="11" height="26" fill="rgb(68,179,89)" stroke="rgb(54,143,71)" stroke-width="1" opacity="0.75" />
		</g>
		<g>
			<title>PF08659</title>
			<rect class="PF08659" x="143" y="18" stroke-linejoin="round" width="17" height="26" fill="rgb(66,209,188)" stroke="rgb(52,167,150)" stroke-width="1" opacity="0.75" />
		</g>
		<g>
			<title>PF08242</title>
			<rect class="PF08242" x="188" y="18" stroke-linejoin="round" width="10" height="26" fill="rgb(187,59,115)" stroke="rgb(149,47,92)" stroke-width="1" opacity="0.75" />
		</g>
		<g>
			<title>PF00550</title>
			<polygon class="PF00550" points="212,21 218,27 218,35 212,41" stroke-linejoin="round" width="6" height="26" fill="rgb(103,191,88)" stroke="rgb(82,152,70)" stroke-width="1" opacity="0.75" />
		</g>
	</g>
	<g>
		<title>batQ</title>
		<polygon class="batQ" points="2195,16 2213,16 2213,1 2243,31 2213,61 2213,46 2195,46" fill="rgb(250,244,185)" fill-opacity="1.0" stroke="rgb(100,97,73)" stroke-width="1" />
		<g>
			<title>PF09924</title>
			<polygon class="PF09924" points="2211,18 2227,18 2240,31 2227,44 2211,44" stroke-linejoin="round" width="30" height="26" fill="rgb(212,197,83)" stroke="rgb(169,157,66)" stroke-width="1" opacity="0.75" />
		</g>
	</g>
	<g>
		<title>batR</title>
		<polygon class="batR" points="2244,16 2257,16 2257,1 2287,31 2257,61 2257,46 2244,46" fill="rgb(218,191,250)" fill-opacity="1.0" stroke="rgb(87,76,100)" stroke-width="1" />
		<g>
			<title>PF01266</title>
			<polygon class="PF01266" points="2246,18 2271,18 2282,29 2282,33 2271,44 2246,44" stroke-linejoin="round" width="36" height="26" fill="rgb(123,179,59)" stroke="rgb(98,143,47)" stroke-width="1" opacity="0.75" />
		</g>
	</g>
	<g>
		<title>batS</title>
		<polygon class="batS" points="2289,16 2314,16 2314,1 2344,31 2314,61 2314,46 2289,46" fill="rgb(214,221,252)" fill-opacity="1.0" stroke="rgb(85,88,100)" stroke-width="1" />
		<g>
			<title>PF00755</title>
			<polygon class="PF00755" points="2294,18 2328,18 2341,31 2328,44 2294,44" stroke-linejoin="round" width="49" height="26" fill="rgb(97,225,203)" stroke="rgb(77,180,162)" stroke-width="1" opacity="0.75" />
		</g>
	</g>
	<g>
		<title>batT</title>
		<polygon class="batT" points="2346,16 2346,16 2346,1 2372,31 2346,61 2346,46 2346,46" fill="rgb(253,224,204)" fill-opacity="1.0" stroke="rgb(101,89,81)" stroke-width="1" />
		<g>
			<title>PF00106</title>
			<polygon class="PF00106" points="2346,18 2358,18 2365,26 2365,36 2358,44 2346,44" stroke-linejoin="round" width="19" height="26" fill="rgb(182,219,73)" stroke="rgb(145,175,58)" stroke-width="1" opacity="0.75" />
		</g>
	</g>
	<g>
		<title>batU</title>
		<polygon class="batU" points="2373,16 2377,16 2377,1 2407,31 2377,61 2377,46 2373,46" fill="rgb(252,204,253)" fill-opacity="1.0" stroke="rgb(100,81,101)" stroke-width="1" />
		<g>
			<title>PF00111</title>
			<rect class="PF00111" x="2374" y="18" stroke-linejoin="round" width="7" height="26" fill="rgb(60,59,191)" stroke="rgb(48,47,152)" stroke-width="1" opacity="0.75" />
		</g>
		<g>
			<title>PF00175</title>
			<polygon class="PF00175" points="2394,21 2404,31 2394,41" stroke-linejoin="round" width="11" height="26" fill="rgb(177,211,96)" stroke="rgb(141,168,76)" stroke-width="1" opacity="0.75" />
		</g>
	</g>
	<g>
		<title>batV</title>
		<polygon class="batV" points="2407,16 2414,16 2414,1 2444,31 2414,61 2414,46 2407,46" fill="rgb(211,220,251)" fill-opacity="1.0" stroke="rgb(84,88,100)" stroke-width="1" />
		<g>
			<title>PF00487</title>
			<polygon class="PF00487" points="2417,18 2428,18 2439,29 2439,33 2428,44 2417,44" stroke-linejoin="round" width="22" height="26" fill="rgb(104,51,205)" stroke="rgb(83,40,164)" stroke-width="1" opacity="0.75" />
		</g>
	</g>
	<g>
		<title>batW</title>
		<polygon class="batW" points="2445,16 2445,16 2445,1 2472,31 2445,61 2445,46 2445,46" fill="rgb(253,209,216)" fill-opacity="1.0" stroke="rgb(101,83,86)" stroke-width="1" />
		<g>
			<title>PF00487</title>
			<polygon class="PF00487" points="2448,18 2457,18 2469,31 2457,44 2448,44" stroke-linejoin="round" width="23" height="26" fill="rgb(104,51,205)" stroke="rgb(83,40,164)" stroke-width="1" opacity="0.75" />
		</g>
	</g>
	<g>
		<title>batX</title>
		<polygon class="batX" points="2472,16 2472,16 2472,1 2480,31 2472,61 2472,46 2472,46" fill="rgb(253,244,186)" fill-opacity="1.0" stroke="rgb(101,97,74)" stroke-width="1" />
		<g>
			<title>PF00550</title>
			<polygon class="PF00550" points="2474,18 2474,18 2477,31 2474,44 2474,44" stroke-linejoin="round" width="5" height="26" fill="rgb(103,191,88)" stroke="rgb(82,152,70)" stroke-width="1" opacity="0.75" />
		</g>
	</g>
	<g>
		<title>batY</title>
		<polygon class="batY" points="2484,16 2511,16 2511,1 2541,31 2511,61 2511,46 2484,46" fill="rgb(216,181,252)" fill-opacity="1.0" stroke="rgb(86,72,100)" stroke-width="1" />
		<g>
			<title>PF00501</title>
			<polygon class="PF00501" points="2486,18 2525,18 2530,23 2530,39 2525,44 2486,44" stroke-linejoin="round" width="44" height="26" fill="rgb(60,217,223)" stroke="rgb(48,173,178)" stroke-width="1" opacity="0.75" />
		</g>
	</g>
	<g>
		<title>batZ</title>
		<polygon class="batZ" points="2543,16 2547,16 2547,1 2577,31 2547,61 2547,46 2543,46" fill="rgb(200,250,244)" fill-opacity="1.0" stroke="rgb(80,100,97)" stroke-width="1" />
		<g>
			<title>PF00487</title>
			<polygon class="PF00487" points="2548,18 2561,18 2574,31 2574,31 2561,44 2548,44" stroke-linejoin="round" width="26" height="26" fill="rgb(104,51,205)" stroke="rgb(83,40,164)" stroke-width="1" opacity="0.75" />
		</g>
	</g>
	<g>
		<title>bat2</title>
		<polygon class="bat2" points="225,16 996,16 996,1 1026,31 996,61 996,46 225,46" fill="rgb(182,250,176)" fill-opacity="1.0" stroke="rgb(72,100,70)" stroke-width="1" />
		<g>
			<title>PF00668</title>
			<rect class="PF00668" x="227" y="18" stroke-linejoin="round" width="45" height="26" fill="rgb(224,184,98)" stroke="rgb(179,147,78)" stroke-width="1" opacity="0.75" />
		</g>
		<g>
			<title>PF00501</title>
			<rect class="PF00501" x="275" y="18" stroke-linejoin="round" width="40" height="26" fill="rgb(60,217,223)" stroke="rgb(48,173,178)" stroke-width="1" opacity="0.75" />
		</g>
		<g>
			<title>PF13193</title>
			<rect class="PF13193" x="316" y="18" stroke-linejoin="round" width="7" height="26" fill="rgb(182,50,118)" stroke="rgb(145,39,94)" stroke-width="1" opacity="0.75" />
		</g>
		<g>
			<title>PF00550</title>
			<rect class="PF00550" x="327" y="18" stroke-linejoin="round" width="6" height="26" fill="rgb(103,191,88)" stroke="rgb(82,152,70)" stroke-width="1" opacity="0.75" />
		</g>
		<g>
			<title>PF00109</title>
			<rect class="PF00109" x="338" y="18" stroke-linejoin="round" width="25" height="26" fill="rgb(112,116,228)" stroke="rgb(89,92,182)" stroke-width="1" opacity="0.75" />
		</g>
		<g>
			<title>PF02801</title>
			<rect class="PF02801" x="364" y="18" stroke-linejoin="round" width="11" height="26" fill="rgb(215,78,102)" stroke="rgb(172,62,81)" stroke-width="1" opacity="0.75" />
		</g>
		<g>
			<title>PF16197</title>
			<rect class="PF16197" x="376" y="18" stroke-linejoin="round" width="11" height="26" fill="rgb(68,179,89)" stroke="rgb(54,143,71)" stroke-width="1" opacity="0.75" />
		</g>
		<g>
			<title>PF08659</title>
			<rect class="PF08659" x="426" y="18" stroke-linejoin="round" width="17" height="26" fill="rgb(66,209,188)" stroke="rgb(52,167,150)" stroke-width="1" opacity="0.75" />
		</g>
		<g>
			<title>PF00550</title>
			<rect class="PF00550" x="453" y="18" stroke-linejoin="round" width="6" height="26" fill="rgb(103,191,88)" stroke="rgb(82,152,70)" stroke-width="1" opacity="0.75" />
		</g>
		<g>
			<title>PF00109</title>
			<rect class="PF00109" x="465" y="18" stroke-linejoin="round" width="25" height="26" fill="rgb(112,116,228)" stroke="rgb(89,92,182)" stroke-width="1" opacity="0.75" />
		</g>
		<g>
			<title>PF02801</title>
			<rect class="PF02801" x="491" y="18" stroke-linejoin="round" width="11" height="26" fill="rgb(215,78,102)" stroke="rgb(172,62,81)" stroke-width="1" opacity="0.75" />
		</g>
		<g>
			<title>PF16197</title>
			<rect class="PF16197" x="503" y="18" stroke-linejoin="round" width="11" height="26" fill="rgb(68,179,89)" stroke="rgb(54,143,71)" stroke-width="1" opacity="0.75" />
		</g>
		<g>
			<title>PF08659</title>
			<rect class="PF08659" x="547" y="18" stroke-linejoin="round" width="18" height="26" fill="rgb(66,209,188)" stroke="rgb(52,167,150)" stroke-width="1" opacity="0.75" />
		</g>
		<g>
			<title>PF00550</title>
			<rect class="PF00550" x="575" y="18" stroke-linejoin="round" width="6" height="26" fill="rgb(103,191,88)" stroke="rgb(82,152,70)" stroke-width="1" opacity="0.75" />
		</g>
		<g>
			<title>PF00109</title>
			<rect class="PF00109" x="587" y="18" stroke-linejoin="round" width="25" height="26" fill="rgb(112,116,228)" stroke="rgb(89,92,182)" stroke-width="1" opacity="0.75" />
		</g>
		<g>
			<title>PF02801</title>
			<rect class="PF02801" x="613" y="18" stroke-linejoin="round" width="11" height="26" fill="rgb(215,78,102)" stroke="rgb(172,62,81)" stroke-width="1" opacity="0.75" />
		</g>
		<g>
			<title>PF16197</title>
			<rect class="PF16197" x="625" y="18" stroke-linejoin="round" width="12" height="26" fill="rgb(68,179,89)" stroke="rgb(54,143,71)" stroke-width="1" opacity="0.75" />
		</g>
		<g>
			<title>PF00550</title>
			<rect class="PF00550" x="657" y="18" stroke-linejoin="round" width="6" height="26" fill="rgb(103,191,88)" stroke="rgb(82,152,70)" stroke-width="1" opacity="0.75" />
		</g>
		<g>
			<title>PF00550</title>
			<rect class="PF00550" x="669" y="18" stroke-linejoin="round" width="6" height="26" fill="rgb(103,191,88)" stroke="rgb(82,152,70)" stroke-width="1" opacity="0.75" />
		</g>
		<g>
			<title>PF00550</title>
			<rect class="PF00550" x="684" y="18" stroke-linejoin="round" width="6" height="26" fill="rgb(103,191,88)" stroke="rgb(82,152,70)" stroke-width="1" opacity="0.75" />
		</g>
		<g>
			<title>PF00109</title>
			<rect class="PF00109" x="698" y="18" stroke-linejoin="round" width="24" height="26" fill="rgb(112,116,228)" stroke="rgb(89,92,182)" stroke-width="1" opacity="0.75" />
		</g>
		<g>
			<title>PF02801</title>
			<rect class="PF02801" x="723" y="18" stroke-linejoin="round" width="11" height="26" fill="rgb(215,78,102)" stroke="rgb(172,62,81)" stroke-width="1" opacity="0.75" />
		</g>
		<g>
			<title>PF16197</title>
			<rect class="PF16197" x="736" y="18" stroke-linejoin="round" width="12" height="26" fill="rgb(68,179,89)" stroke="rgb(54,143,71)" stroke-width="1" opacity="0.75" />
		</g>
		<g>
			<title>PF14765</title>
			<rect class="PF14765" x="759" y="18" stroke-linejoin="round" width="29" height="26" fill="rgb(173,56,182)" stroke="rgb(138,44,145)" stroke-width="1" opacity="0.75" />
		</g>
		<g>
			<title>PF08659</title>
			<rect class="PF08659" x="808" y="18" stroke-linejoin="round" width="18" height="26" fill="rgb(66,209,188)" stroke="rgb(52,167,150)" stroke-width="1" opacity="0.75" />
		</g>
		<g>
			<title>PF00550</title>
			<rect class="PF00550" x="836" y="18" stroke-linejoin="round" width="6" height="26" fill="rgb(103,191,88)" stroke="rgb(82,152,70)" stroke-width="1" opacity="0.75" />
		</g>
		<g>
			<title>PF00109</title>
			<rect class="PF00109" x="849" y="18" stroke-linejoin="round" width="25" height="26" fill="rgb(112,116,228)" stroke="rgb(89,92,182)" stroke-width="1" opacity="0.75" />
		</g>
		<g>
			<title>PF02801</title>
			<rect class="PF02801" x="875" y="18" stroke-linejoin="round" width="11" height="26" fill="rgb(215,78,102)" stroke="rgb(172,62,81)" stroke-width="1" opacity="0.75" />
		</g>
		<g>
			<title>PF16197</title>
			<rect class="PF16197" x="887" y="18" stroke-linejoin="round" width="12" height="26" fill="rgb(68,179,89)" stroke="rgb(54,143,71)" stroke-width="1" opacity="0.75" />
		</g>
		<g>
			<title>PF08659</title>
			<rect class="PF08659" x="935" y="18" stroke-linejoin="round" width="19" height="26" fill="rgb(66,209,188)" stroke="rgb(52,167,150)" stroke-width="1" opacity="0.75" />
		</g>
		<g>
			<title>PF00550</title>
			<rect class="PF00550" x="964" y="18" stroke-linejoin="round" width="6" height="26" fill="rgb(103,191,88)" stroke="rgb(82,152,70)" stroke-width="1" opacity="0.75" />
		</g>
		<g>
			<title>PF00109</title>
			<rect class="PF00109" x="976" y="18" stroke-linejoin="round" width="23" height="26" fill="rgb(112,116,228)" stroke="rgb(89,92,182)" stroke-width="1" opacity="0.75" />
		</g>
		<g>
			<title>PF02801</title>
			<polygon class="PF02801" points="1000,18 1010,18 1011,19 1011,43 1010,44 1000,44" stroke-linejoin="round" width="11" height="26" fill="rgb(215,78,102)" stroke="rgb(172,62,81)" stroke-width="1" opacity="0.75" />
		</g>
	</g>
	<g>
		<title>bat3</title>
		<polygon class="bat3" points="1028,16 1513,16 1513,1 1543,31 1513,61 1513,46 1028,46" fill="rgb(254,203,214)" fill-opacity="1.0" stroke="rgb(101,81,85)" stroke-width="1" />
		<g>
			<title>PF14765</title>
			<rect class="PF14765" x="1029" y="18" stroke-linejoin="round" width="26" height="26" fill="rgb(173,56,182)" stroke="rgb(138,44,145)" stroke-width="1" opacity="0.75" />
		</g>
		<g>
			<title>PF00550</title>
			<rect class="PF00550" x="1058" y="18" stroke-linejoin="round" width="6" height="26" fill="rgb(103,191,88)" stroke="rgb(82,152,70)" stroke-width="1" opacity="0.75" />
		</g>
		<g>
			<title>PF00109</title>
			<rect class="PF00109" x="1070" y="18" stroke-linejoin="round" width="25" height="26" fill="rgb(112,116,228)" stroke="rgb(89,92,182)" stroke-width="1" opacity="0.75" />
		</g>
		<g>
			<title>PF02801</title>
			<rect class="PF02801" x="1096" y="18" stroke-linejoin="round" width="11" height="26" fill="rgb(215,78,102)" stroke="rgb(172,62,81)" stroke-width="1" opacity="0.75" />
		</g>
		<g>
			<title>PF16197</title>
			<rect class="PF16197" x="1108" y="18" stroke-linejoin="round" width="12" height="26" fill="rgb(68,179,89)" stroke="rgb(54,143,71)" stroke-width="1" opacity="0.75" />
		</g>
		<g>
			<title>PF14765</title>
			<rect class="PF14765" x="1133" y="18" stroke-linejoin="round" width="30" height="26" fill="rgb(173,56,182)" stroke="rgb(138,44,145)" stroke-width="1" opacity="0.75" />
		</g>
		<g>
			<title>PF08659</title>
			<rect class="PF08659" x="1183" y="18" stroke-linejoin="round" width="18" height="26" fill="rgb(66,209,188)" stroke="rgb(52,167,150)" stroke-width="1" opacity="0.75" />
		</g>
		<g>
			<title>PF00550</title>
			<rect class="PF00550" x="1211" y="18" stroke-linejoin="round" width="6" height="26" fill="rgb(103,191,88)" stroke="rgb(82,152,70)" stroke-width="1" opacity="0.75" />
		</g>
		<g>
			<title>PF00109</title>
			<rect class="PF00109" x="1223" y="18" stroke-linejoin="round" width="24" height="26" fill="rgb(112,116,228)" stroke="rgb(89,92,182)" stroke-width="1" opacity="0.75" />
		</g>
		<g>
			<title>PF02801</title>
			<rect class="PF02801" x="1249" y="18" stroke-linejoin="round" width="12" height="26" fill="rgb(215,78,102)" stroke="rgb(172,62,81)" stroke-width="1" opacity="0.75" />
		</g>
		<g>
			<title>PF16197</title>
			<rect class="PF16197" x="1262" y="18" stroke-linejoin="round" width="12" height="26" fill="rgb(68,179,89)" stroke="rgb(54,143,71)" stroke-width="1" opacity="0.75" />
		</g>
		<g>
			<title>PF00550</title>
			<rect class="PF00550" x="1302" y="18" stroke-linejoin="round" width="6" height="26" fill="rgb(103,191,88)" stroke="rgb(82,152,70)" stroke-width="1" opacity="0.75" />
		</g>
		<g>
			<title>PF00550</title>
			<rect class="PF00550" x="1315" y="18" stroke-linejoin="round" width="6" height="26" fill="rgb(103,191,88)" stroke="rgb(82,152,70)" stroke-width="1" opacity="0.75" />
		</g>
		<g>
			<title>PF00378</title>
			<rect class="PF00378" x="1327" y="18" stroke-linejoin="round" width="23" height="26" fill="rgb(218,72,181)" stroke="rgb(174,57,144)" stroke-width="1" opacity="0.75" />
		</g>
		<g>
			<title>PF00109</title>
			<rect class="PF00109" x="1355" y="18" stroke-linejoin="round" width="24" height="26" fill="rgb(112,116,228)" stroke="rgb(89,92,182)" stroke-width="1" opacity="0.75" />
		</g>
		<g>
			<title>PF02801</title>
			<rect class="PF02801" x="1380" y="18" stroke-linejoin="round" width="11" height="26" fill="rgb(215,78,102)" stroke="rgb(172,62,81)" stroke-width="1" opacity="0.75" />
		</g>
		<g>
			<title>PF16197</title>
			<rect class="PF16197" x="1392" y="18" stroke-linejoin="round" width="11" height="26" fill="rgb(68,179,89)" stroke="rgb(54,143,71)" stroke-width="1" opacity="0.75" />
		</g>
		<g>
			<title>PF00550</title>
			<rect class="PF00550" x="1425" y="18" stroke-linejoin="round" width="6" height="26" fill="rgb(103,191,88)" stroke="rgb(82,152,70)" stroke-width="1" opacity="0.75" />
		</g>
		<g>
			<title>PF00109</title>
			<rect class="PF00109" x="1439" y="18" stroke-linejoin="round" width="24" height="26" fill="rgb(112,116,228)" stroke="rgb(89,92,182)" stroke-width="1" opacity="0.75" />
		</g>
		<g>
			<title>PF02801</title>
			<rect class="PF02801" x="1465" y="18" stroke-linejoin="round" width="11" height="26" fill="rgb(215,78,102)" stroke="rgb(172,62,81)" stroke-width="1" opacity="0.75" />
		</g>
		<g>
			<title>PF16197</title>
			<rect class="PF16197" x="1477" y="18" stroke-linejoin="round" width="12" height="26" fill="rgb(68,179,89)" stroke="rgb(54,143,71)" stroke-width="1" opacity="0.75" />
		</g>
		<g>
			<title>PF00550</title>
			<rect class="PF00550" x="1507" y="18" stroke-linejoin="round" width="6" height="26" fill="rgb(103,191,88)" stroke="rgb(82,152,70)" stroke-width="1" opacity="0.75" />
		</g>
	</g>
	<g>
		<title>batA</title>
		<polygon class="batA" points="1547,16 1547,16 1547,1 1555,31 1547,61 1547,46 1547,46" fill="rgb(204,250,195)" fill-opacity="1.0" stroke="rgb(81,100,78)" stroke-width="1" />
		<g>
			<title>PF00550</title>
			<polygon class="PF00550" points="1547,18 1549,18 1552,31 1549,44 1547,44" stroke-linejoin="round" width="6" height="26" fill="rgb(103,191,88)" stroke="rgb(82,152,70)" stroke-width="1" opacity="0.75" />
		</g>
	</g>
	<g>
		<title>batB</title>
		<polygon class="batB" points="1555,16 1565,16 1565,1 1595,31 1565,61 1565,46 1555,46" fill="rgb(203,253,191)" fill-opacity="1.0" stroke="rgb(81,101,76)" stroke-width="1" />
		<g>
			<title>PF00109</title>
			<rect class="PF00109" x="1555" y="18" stroke-linejoin="round" width="24" height="26" fill="rgb(112,116,228)" stroke="rgb(89,92,182)" stroke-width="1" opacity="0.75" />
		</g>
		<g>
			<title>PF02801</title>
			<polygon class="PF02801" points="1580,19 1591,30 1591,32 1580,43" stroke-linejoin="round" width="11" height="26" fill="rgb(215,78,102)" stroke="rgb(172,62,81)" stroke-width="1" opacity="0.75" />
		</g>
	</g>
	<g>
		<title>batC</title>
		<polygon class="batC" points="1597,16 1609,16 1609,1 1639,31 1609,61 1609,46 1597,46" fill="rgb(203,254,193)" fill-opacity="1.0" stroke="rgb(81,101,77)" stroke-width="1" />
		<g>
			<title>PF01154</title>
			<rect class="PF01154" x="1597" y="18" stroke-linejoin="round" width="17" height="26" fill="rgb(88,216,218)" stroke="rgb(70,172,174)" stroke-width="1" opacity="0.75" />
		</g>
		<g>
			<title>PF08540</title>
			<polygon class="PF08540" points="1623,18 1623,18 1636,31 1623,44 1623,44" stroke-linejoin="round" width="15" height="26" fill="rgb(49,194,86)" stroke="rgb(39,155,68)" stroke-width="1" opacity="0.75" />
		</g>
	</g>
	<g>
		<title>batD</title>
		<polygon class="batD" points="1639,16 1639,16 1639,1 1664,31 1639,61 1639,46 1639,46" fill="rgb(190,252,211)" fill-opacity="1.0" stroke="rgb(76,100,84)" stroke-width="1" />
		<g>
			<title>PF00378</title>
			<polygon class="PF00378" points="1640,18 1650,18 1661,31 1650,44 1640,44" stroke-linejoin="round" width="24" height="26" fill="rgb(218,72,181)" stroke="rgb(174,57,144)" stroke-width="1" opacity="0.75" />
		</g>
	</g>
	<g>
		<title>batE</title>
		<polygon class="batE" points="1665,16 1665,16 1665,1 1690,31 1665,61 1665,46 1665,46" fill="rgb(254,210,204)" fill-opacity="1.0" stroke="rgb(101,84,81)" stroke-width="1" />
		<g>
			<title>PF00378</title>
			<polygon class="PF00378" points="1666,18 1676,18 1687,31 1676,44 1666,44" stroke-linejoin="round" width="23" height="26" fill="rgb(218,72,181)" stroke="rgb(174,57,144)" stroke-width="1" opacity="0.75" />
		</g>
	</g>
	<g>
		<title>batF</title>
		<polygon class="batF" points="1694,16 1722,16 1722,1 1752,31 1722,61 1722,46 1694,46" fill="rgb(185,236,254)" fill-opacity="1.0" stroke="rgb(74,94,101)" stroke-width="1" />
		<g>
			<title>PF02543</title>
			<rect class="PF02543" x="1694" y="18" stroke-linejoin="round" width="35" height="26" fill="rgb(146,218,61)" stroke="rgb(116,174,48)" stroke-width="1" opacity="0.75" />
		</g>
		<g>
			<title>PF16861</title>
			<polygon class="PF16861" points="1735,18 1736,18 1749,31 1736,44 1735,44" stroke-linejoin="round" width="16" height="26" fill="rgb(183,87,154)" stroke="rgb(146,69,123)" stroke-width="1" opacity="0.75" />
		</g>
	</g>
</svg>
