<svg version="1.1" baseProfile="full" xmlns="http://www.w3.org/2000/svg" width="981" height="62">
	<line x1="1" y1="31" x2="980" y2="31" style="stroke:rgb(50,50,50); stroke-width:3 "/>
	<g>
		<title>sa1</title>
		<polygon class="sa1" points="284,16 284,16 284,1 307,31 284,61 284,46 284,46" fill="rgb(186,182,250)" fill-opacity="1.0" stroke="rgb(74,72,100)" stroke-width="1" />
		<g>
			<title>PF00697</title>
			<polygon class="PF00697" points="284,18 294,18 304,31 294,44 284,44" stroke-linejoin="round" width="21" height="26" fill="rgb(123,74,199)" stroke="rgb(98,59,159)" stroke-width="1" opacity="0.75" />
		</g>
	</g>
	<g>
		<title>sa2</title>
		<polygon class="sa2" points="310,16 310,16 310,1 332,31 310,61 310,46 310,46" fill="rgb(193,176,250)" fill-opacity="1.0" stroke="rgb(77,70,100)" stroke-width="1" />
		<g>
			<title>PF14681</title>
			<polygon class="PF14681" points="311,18 319,18 329,31 319,44 311,44" stroke-linejoin="round" width="20" height="26" fill="rgb(62,144,207)" stroke="rgb(49,115,165)" stroke-width="1" opacity="0.75" />
		</g>
	</g>
	<g>
		<title>sa3</title>
		<polygon class="sa3" points="332,16 332,16 332,1 362,31 332,61 332,46 332,46" fill="rgb(248,251,195)" fill-opacity="1.0" stroke="rgb(99,100,78)" stroke-width="1" />
		<g>
			<title>PF00892</title>
			<rect class="PF00892" x="333" y="18" stroke-linejoin="round" width="12" height="26" fill="rgb(105,217,77)" stroke="rgb(84,173,61)" stroke-width="1" opacity="0.75" />
		</g>
		<g>
			<title>PF00892</title>
			<polygon class="PF00892" points="346,18 346,18 359,31 359,31 346,44 346,44" stroke-linejoin="round" width="13" height="26" fill="rgb(105,217,77)" stroke="rgb(84,173,61)" stroke-width="1" opacity="0.75" />
		</g>
	</g>
	<g>
		<title>sa4</title>
		<polygon class="sa4" points="369,16 369,16 369,1 376,31 369,61 369,46 369,46" fill="rgb(250,249,193)" fill-opacity="1.0" stroke="rgb(100,99,77)" stroke-width="1" />
		<g>
			<title>PF01361</title>
			<polygon class="PF01361" points="369,18 370,18 373,31 370,44 369,44" stroke-linejoin="round" width="5" height="26" fill="rgb(223,210,102)" stroke="rgb(178,168,81)" stroke-width="1" opacity="0.75" />
		</g>
	</g>
	<g>
		<title>sa5</title>
		<polygon class="sa5" points="377,16 378,16 378,1 408,31 378,61 378,46 377,46" fill="rgb(189,252,196)" fill-opacity="1.0" stroke="rgb(75,100,78)" stroke-width="1" />
		<g>
			<title>PF04227</title>
			<polygon class="PF04227" points="378,18 392,18 405,31 392,44 378,44" stroke-linejoin="round" width="28" height="26" fill="rgb(186,184,81)" stroke="rgb(148,147,64)" stroke-width="1" opacity="0.75" />
		</g>
	</g>
	<g>
		<title>sa6</title>
		<polygon class="sa6" points="411,16 417,16 417,1 447,31 417,61 417,46 411,46" fill="rgb(251,239,199)" fill-opacity="1.0" stroke="rgb(100,95,79)" stroke-width="1" />
		<g>
			<title>PF00724</title>
			<polygon class="PF00724" points="411,18 431,18 443,30 443,32 431,44 411,44" stroke-linejoin="round" width="32" height="26" fill="rgb(157,188,65)" stroke="rgb(125,150,52)" stroke-width="1" opacity="0.75" />
		</g>
	</g>
	<g>
		<title>sa7</title>
		<polygon class="sa7" points="447,16 449,16 449,1 479,31 449,61 449,46 447,46" fill="rgb(195,230,250)" fill-opacity="1.0" stroke="rgb(78,92,100)" stroke-width="1" />
		<g>
			<title>PF13793</title>
			<rect class="PF13793" x="447" y="18" stroke-linejoin="round" width="11" height="26" fill="rgb(198,87,51)" stroke="rgb(158,69,40)" stroke-width="1" opacity="0.75" />
		</g>
		<g>
			<title>PF14572</title>
			<polygon class="PF14572" points="467,22 476,31 467,40" stroke-linejoin="round" width="11" height="26" fill="rgb(229,120,92)" stroke="rgb(183,96,73)" stroke-width="1" opacity="0.75" />
		</g>
	</g>
	<g>
		<title>sa8</title>
		<polygon class="sa8" points="489,16 587,16 587,1 617,31 587,61 587,46 489,46" fill="rgb(195,204,254)" fill-opacity="1.0" stroke="rgb(77,81,101)" stroke-width="1" />
		<g>
			<title>PF00501</title>
			<rect class="PF00501" x="491" y="18" stroke-linejoin="round" width="40" height="26" fill="rgb(60,217,223)" stroke="rgb(48,173,178)" stroke-width="1" opacity="0.75" />
		</g>
		<g>
			<title>PF00550</title>
			<rect class="PF00550" x="583" y="18" stroke-linejoin="round" width="6" height="26" fill="rgb(103,191,88)" stroke="rgb(82,152,70)" stroke-width="1" opacity="0.75" />
		</g>
		<g>
			<title>PF00975</title>
			<polygon class="PF00975" points="592,18 601,18 609,26 609,36 601,44 592,44" stroke-linejoin="round" width="17" height="26" fill="rgb(207,80,138)" stroke="rgb(165,63,110)" stroke-width="1" opacity="0.75" />
		</g>
	</g>
	<g>
		<title>sa9</title>
		<polygon class="sa9" points="626,16 626,16 626,1 653,31 626,61 626,46 626,46" fill="rgb(227,205,254)" fill-opacity="1.0" stroke="rgb(90,82,101)" stroke-width="1" />
		<g>
			<title>PF00486</title>
			<rect class="PF00486" x="627" y="18" stroke-linejoin="round" width="7" height="26" fill="rgb(204,153,57)" stroke="rgb(163,122,45)" stroke-width="1" opacity="0.75" />
		</g>
		<g>
			<title>PF03704</title>
			<polygon class="PF03704" points="636,18 638,18 650,31 650,31 638,44 636,44" stroke-linejoin="round" width="14" height="26" fill="rgb(217,89,196)" stroke="rgb(173,71,156)" stroke-width="1" opacity="0.75" />
		</g>
	</g>
	<g>
		<title>sa10</title>
		<polygon class="sa10" points="688,16 687,16 687,1 657,31 687,61 687,46 688,46" fill="rgb(187,233,252)" fill-opacity="1.0" stroke="rgb(74,93,100)" stroke-width="1" />
		<g>
			<title>PF00725</title>
			<polygon class="PF00725" points="661,29 669,21 669,40 661,32" stroke-linejoin="round" width="8" height="26" fill="rgb(180,78,60)" stroke="rgb(144,62,48)" stroke-width="1" opacity="0.75" />
		</g>
		<g>
			<title>PF02737</title>
			<polygon class="PF02737" points="670,20 672,18 687,18 687,44 672,44 670,41" stroke-linejoin="round" width="17" height="26" fill="rgb(212,65,199)" stroke="rgb(169,52,159)" stroke-width="1" opacity="0.75" />
		</g>
	</g>
	<g>
		<title>aur1N</title>
		<polygon class="aur1N" points="1,16 23,16 23,1 53,31 23,61 23,46 1,46" fill="rgb(251,194,193)" fill-opacity="1.0" stroke="rgb(100,77,77)" stroke-width="1" />
		<g>
			<title>PF01039</title>
			<polygon class="PF01039" points="4,18 37,18 50,31 37,44 4,44" stroke-linejoin="round" width="48" height="26" fill="rgb(180,136,60)" stroke="rgb(144,108,48)" stroke-width="1" opacity="0.75" />
		</g>
	</g>
	<g>
		<title>sa11</title>
		<polygon class="sa11" points="723,16 718,16 718,1 688,31 718,61 718,46 723,46" fill="rgb(234,251,200)" fill-opacity="1.0" stroke="rgb(93,100,80)" stroke-width="1" />
		<g>
			<title>PF00296</title>
			<polygon class="PF00296" points="691,30 703,18 722,18 722,44 703,44 691,31" stroke-linejoin="round" width="31" height="26" fill="rgb(180,112,78)" stroke="rgb(144,89,62)" stroke-width="1" opacity="0.75" />
		</g>
	</g>
	<g>
		<title>sa12</title>
		<polygon class="sa12" points="739,16 739,16 739,1 724,31 739,61 739,46 739,46" fill="rgb(222,250,206)" fill-opacity="1.0" stroke="rgb(88,100,82)" stroke-width="1" />
		<g>
			<title>PF13577</title>
			<polygon class="PF13577" points="726,31 733,18 737,18 737,44 733,44" stroke-linejoin="round" width="12" height="26" fill="rgb(68,223,209)" stroke="rgb(54,178,167)" stroke-width="1" opacity="0.75" />
		</g>
	</g>
	<g>
		<title>sa13</title>
		<polygon class="sa13" points="780,16 772,16 772,1 742,31 772,61 772,46 780,46" fill="rgb(250,232,177)" fill-opacity="1.0" stroke="rgb(100,92,70)" stroke-width="1" />
		<g>
			<title>PF08028</title>
			<polygon class="PF08028" points="744,31 756,19 756,42" stroke-linejoin="round" width="12" height="26" fill="rgb(106,185,56)" stroke="rgb(84,148,44)" stroke-width="1" opacity="0.75" />
		</g>
	</g>
	<g>
		<title>sa14</title>
		<polygon class="sa14" points="789,16 789,16 789,1 819,31 789,61 789,46 789,46" fill="rgb(180,192,253)" fill-opacity="1.0" stroke="rgb(72,76,101)" stroke-width="1" />
		<g>
			<title>PF00483</title>
			<polygon class="PF00483" points="789,18 803,18 812,27 812,35 803,44 789,44" stroke-linejoin="round" width="23" height="26" fill="rgb(198,101,87)" stroke="rgb(158,80,69)" stroke-width="1" opacity="0.75" />
		</g>
	</g>
	<g>
		<title>sa15</title>
		<polygon class="sa15" points="842,16 842,16 842,1 823,31 842,61 842,46 842,46" fill="rgb(254,214,188)" fill-opacity="1.0" stroke="rgb(101,85,75)" stroke-width="1" />
		<g>
			<title>PF03358</title>
			<polygon class="PF03358" points="827,28 833,18 841,18 841,44 833,44 827,33" stroke-linejoin="round" width="14" height="26" fill="rgb(90,228,61)" stroke="rgb(72,182,48)" stroke-width="1" opacity="0.75" />
		</g>
	</g>
	<g>
		<title>sa16</title>
		<polygon class="sa16" points="860,16 860,16 860,1 846,31 860,61 860,46 860,46" fill="rgb(208,189,252)" fill-opacity="1.0" stroke="rgb(83,75,100)" stroke-width="1" />
		<g>
			<title>PF13577</title>
			<polygon class="PF13577" points="848,31 854,18 858,18 858,44 854,44" stroke-linejoin="round" width="12" height="26" fill="rgb(68,223,209)" stroke="rgb(54,178,167)" stroke-width="1" opacity="0.75" />
		</g>
	</g>
	<g>
		<title>sa17</title>
		<polygon class="sa17" points="867,16 867,16 867,1 884,31 867,61 867,46 867,46" fill="rgb(195,245,252)" fill-opacity="1.0" stroke="rgb(77,98,100)" stroke-width="1" />
	</g>
	<g>
		<title>sa18</title>
		<polygon class="sa18" points="888,16 888,16 888,1 906,31 888,61 888,46 888,46" fill="rgb(250,185,195)" fill-opacity="1.0" stroke="rgb(100,73,78)" stroke-width="1" />
		<g>
			<title>PF08592</title>
			<polygon class="PF08592" points="891,18 895,18 903,31 895,44 891,44" stroke-linejoin="round" width="13" height="26" fill="rgb(75,196,107)" stroke="rgb(60,156,85)" stroke-width="1" opacity="0.75" />
		</g>
	</g>
	<g>
		<title>sa19</title>
		<polygon class="sa19" points="923,16 923,16 923,1 907,31 923,61 923,46 923,46" fill="rgb(254,214,246)" fill-opacity="1.0" stroke="rgb(101,85,98)" stroke-width="1" />
		<g>
			<title>PF08592</title>
			<polygon class="PF08592" points="909,31 916,18 920,18 920,44 916,44" stroke-linejoin="round" width="13" height="26" fill="rgb(75,196,107)" stroke="rgb(60,156,85)" stroke-width="1" opacity="0.75" />
		</g>
	</g>
	<g>
		<title>gdhA</title>
		<polygon class="gdhA" points="932,16 947,16 947,1 977,31 947,61 947,46 932,46" fill="rgb(200,243,254)" fill-opacity="1.0" stroke="rgb(80,97,101)" stroke-width="1" />
		<g>
			<title>PF02812</title>
			<rect class="PF02812" x="937" y="18" stroke-linejoin="round" width="12" height="26" fill="rgb(157,52,200)" stroke="rgb(125,41,160)" stroke-width="1" opacity="0.75" />
		</g>
		<g>
			<title>PF00208</title>
			<polygon class="PF00208" points="952,18 961,18 974,31 961,44 952,44" stroke-linejoin="round" width="24" height="26" fill="rgb(181,160,45)" stroke="rgb(144,128,36)" stroke-width="1" opacity="0.75" />
		</g>
	</g>
	<g>
		<title>aur1X2</title>
		<polygon class="aur1X2" points="54,16 54,16 54,1 61,31 54,61 54,46 54,46" fill="rgb(238,250,212)" fill-opacity="1.0" stroke="rgb(95,100,84)" stroke-width="1" />
		<g>
			<title>PF13822</title>
			<polygon class="PF13822" points="54,18 55,18 58,31 55,44 54,44" stroke-linejoin="round" width="6" height="26" fill="rgb(226,73,128)" stroke="rgb(180,58,102)" stroke-width="1" opacity="0.75" />
		</g>
	</g>
	<g>
		<title>aur1T</title>
		<polygon class="aur1T" points="65,16 68,16 68,1 98,31 68,61 68,46 65,46" fill="rgb(184,251,223)" fill-opacity="1.0" stroke="rgb(73,100,89)" stroke-width="1" />
		<g>
			<title>PF16363</title>
			<polygon class="PF16363" points="65,18 82,18 95,31 95,31 82,44 65,44" stroke-linejoin="round" width="30" height="26" fill="rgb(162,221,65)" stroke="rgb(129,176,51)" stroke-width="1" opacity="0.75" />
		</g>
	</g>
	<g>
		<title>aur1Q</title>
		<polygon class="aur1Q" points="99,16 112,16 112,1 142,31 112,61 112,46 99,46" fill="rgb(210,254,227)" fill-opacity="1.0" stroke="rgb(84,101,90)" stroke-width="1" />
		<g>
			<title>PF01041</title>
			<polygon class="PF01041" points="102,18 126,18 139,31 126,44 102,44" stroke-linejoin="round" width="38" height="26" fill="rgb(59,139,191)" stroke="rgb(47,111,152)" stroke-width="1" opacity="0.75" />
		</g>
	</g>
	<g>
		<title>aur1S</title>
		<polygon class="aur1S" points="142,16 158,16 158,1 188,31 158,61 158,46 142,46" fill="rgb(205,196,253)" fill-opacity="1.0" stroke="rgb(82,78,101)" stroke-width="1" />
		<g>
			<title>PF03559</title>
			<rect class="PF03559" x="145" y="18" stroke-linejoin="round" width="20" height="26" fill="rgb(74,201,66)" stroke="rgb(59,160,52)" stroke-width="1" opacity="0.75" />
		</g>
		<g>
			<title>PF03559</title>
			<polygon class="PF03559" points="167,18 172,18 185,31 172,44 167,44" stroke-linejoin="round" width="20" height="26" fill="rgb(74,201,66)" stroke="rgb(59,160,52)" stroke-width="1" opacity="0.75" />
		</g>
	</g>
	<g>
		<title>aur1V</title>
		<polygon class="aur1V" points="189,16 191,16 191,1 221,31 191,61 191,46 189,46" fill="rgb(178,250,208)" fill-opacity="1.0" stroke="rgb(71,100,83)" stroke-width="1" />
		<g>
			<title>PF01408</title>
			<rect class="PF01408" x="189" y="18" stroke-linejoin="round" width="11" height="26" fill="rgb(76,117,190)" stroke="rgb(60,93,152)" stroke-width="1" opacity="0.75" />
		</g>
	</g>
	<g>
		<title>aur1X</title>
		<polygon class="aur1X" points="224,16 224,16 224,1 240,31 224,61 224,46 224,46" fill="rgb(235,254,187)" fill-opacity="1.0" stroke="rgb(93,101,74)" stroke-width="1" />
		<g>
			<title>PF13577</title>
			<polygon class="PF13577" points="225,18 230,18 237,31 230,44 225,44" stroke-linejoin="round" width="13" height="26" fill="rgb(68,223,209)" stroke="rgb(54,178,167)" stroke-width="1" opacity="0.75" />
		</g>
	</g>
	<g>
		<title>aur1W</title>
		<polygon class="aur1W" points="240,16 240,16 240,1 246,31 240,61 240,46 240,46" fill="rgb(221,194,249)" fill-opacity="1.0" stroke="rgb(88,77,99)" stroke-width="1" />
	</g>
	<g>
		<title>aur1U</title>
		<polygon class="aur1U" points="248,16 248,16 248,1 278,31 248,61 248,46 248,46" fill="rgb(202,249,187)" fill-opacity="1.0" stroke="rgb(80,99,74)" stroke-width="1" />
		<g>
			<title>PF12697</title>
			<polygon class="PF12697" points="252,18 262,18 275,31 262,44 252,44" stroke-linejoin="round" width="24" height="26" fill="rgb(113,71,219)" stroke="rgb(90,56,175)" stroke-width="1" opacity="0.75" />
		</g>
	</g>
</svg>
