<svg version="1.1" baseProfile="full" xmlns="http://www.w3.org/2000/svg" width="271" height="62">
	<line x1="1" y1="31" x2="270" y2="31" style="stroke:rgb(50,50,50); stroke-width:3 "/>
	<g>
		<title>dauE</title>
		<polygon class="dauE" points="1,16 1,16 1,1 8,31 1,61 1,46 1,46" fill="rgb(251,240,188)" fill-opacity="1.0" stroke="rgb(100,96,75)" stroke-width="1" />
		<g>
			<title>PF13561</title>
			<polygon class="PF13561" points="1,18 2,18 5,31 2,44 1,44" stroke-linejoin="round" width="7" height="26" fill="rgb(73,205,127)" stroke="rgb(58,164,101)" stroke-width="1" opacity="0.75" />
		</g>
	</g>
	<g>
		<title>dauA</title>
		<polygon class="dauA" points="44,16 43,16 43,1 13,31 43,61 43,46 44,46" fill="rgb(208,201,253)" fill-opacity="1.0" stroke="rgb(83,80,101)" stroke-width="1" />
		<g>
			<title>PF10604</title>
			<polygon class="PF10604" points="15,31 28,18 28,43" stroke-linejoin="round" width="15" height="26" fill="rgb(105,204,74)" stroke="rgb(84,163,59)" stroke-width="1" opacity="0.75" />
		</g>
		<g>
			<title>PF10604</title>
			<rect class="PF10604" x="29" y="18" stroke-linejoin="round" width="14" height="26" fill="rgb(105,204,74)" stroke="rgb(84,163,59)" stroke-width="1" opacity="0.75" />
		</g>
	</g>
	<g>
		<title>dauB</title>
		<polygon class="dauB" points="71,16 71,16 71,1 45,31 71,61 71,46 71,46" fill="rgb(195,251,241)" fill-opacity="1.0" stroke="rgb(78,100,96)" stroke-width="1" />
		<g>
			<title>PF00106</title>
			<polygon class="PF00106" points="50,28 58,18 69,18 69,44 58,44 50,33" stroke-linejoin="round" width="19" height="26" fill="rgb(182,219,73)" stroke="rgb(145,175,58)" stroke-width="1" opacity="0.75" />
		</g>
	</g>
	<g>
		<polygon class="NoName" points="78,16 78,16 78,1 91,31 78,61 78,46 78,46" fill="rgb(255,255,255)" fill-opacity="1.0" stroke="rgb(50,50,50)" stroke-width="1" />
		<g>
			<title>PF03992</title>
			<polygon class="PF03992" points="79,18 82,18 87,27 87,35 82,44 79,44" stroke-linejoin="round" width="8" height="26" fill="rgb(193,84,127)" stroke="rgb(154,67,101)" stroke-width="1" opacity="0.75" />
		</g>
	</g>
	<g>
		<polygon class="NoName" points="91,16 102,16 102,1 132,31 102,61 102,46 91,46" fill="rgb(255,255,255)" fill-opacity="1.0" stroke="rgb(50,50,50)" stroke-width="1" />
		<g>
			<title>PF00109</title>
			<rect class="PF00109" x="91" y="18" stroke-linejoin="round" width="24" height="26" fill="rgb(112,116,228)" stroke="rgb(89,92,182)" stroke-width="1" opacity="0.75" />
		</g>
		<g>
			<title>PF02801</title>
			<polygon class="PF02801" points="116,18 116,18 127,29 127,33 116,44 116,44" stroke-linejoin="round" width="11" height="26" fill="rgb(215,78,102)" stroke="rgb(172,62,81)" stroke-width="1" opacity="0.75" />
		</g>
	</g>
	<g>
		<polygon class="NoName" points="136,16 145,16 145,1 175,31 145,61 145,46 136,46" fill="rgb(255,255,255)" fill-opacity="1.0" stroke="rgb(50,50,50)" stroke-width="1" />
		<g>
			<title>PF00109</title>
			<rect class="PF00109" x="136" y="18" stroke-linejoin="round" width="23" height="26" fill="rgb(112,116,228)" stroke="rgb(89,92,182)" stroke-width="1" opacity="0.75" />
		</g>
		<g>
			<title>PF02801</title>
			<polygon class="PF02801" points="160,19 170,29 170,33 160,43" stroke-linejoin="round" width="10" height="26" fill="rgb(215,78,102)" stroke="rgb(172,62,81)" stroke-width="1" opacity="0.75" />
		</g>
	</g>
	<g>
		<polygon class="NoName" points="175,16 180,16 180,1 210,31 180,61 180,46 175,46" fill="rgb(255,255,255)" fill-opacity="1.0" stroke="rgb(50,50,50)" stroke-width="1" />
		<g>
			<title>PF08545</title>
			<rect class="PF08545" x="186" y="18" stroke-linejoin="round" width="7" height="26" fill="rgb(189,102,84)" stroke="rgb(151,81,67)" stroke-width="1" opacity="0.75" />
		</g>
		<g>
			<title>PF08541</title>
			<polygon class="PF08541" points="199,23 207,31 199,39" stroke-linejoin="round" width="9" height="26" fill="rgb(146,207,81)" stroke="rgb(116,165,64)" stroke-width="1" opacity="0.75" />
		</g>
	</g>
	<g>
		<polygon class="NoName" points="211,16 214,16 214,1 244,31 214,61 214,46 211,46" fill="rgb(255,255,255)" fill-opacity="1.0" stroke="rgb(50,50,50)" stroke-width="1" />
		<g>
			<title>PF00698</title>
			<polygon class="PF00698" points="211,18 228,18 240,30 240,32 228,44 211,44" stroke-linejoin="round" width="29" height="26" fill="rgb(59,176,209)" stroke="rgb(47,140,167)" stroke-width="1" opacity="0.75" />
		</g>
	</g>
	<g>
		<title>dauC</title>
		<polygon class="dauC" points="270,16 270,16 270,1 251,31 270,61 270,46 270,46" fill="rgb(252,211,208)" fill-opacity="1.0" stroke="rgb(100,84,83)" stroke-width="1" />
		<g>
			<title>PF13649</title>
			<polygon class="PF13649" points="258,23 261,18 267,18 267,44 261,44 258,38" stroke-linejoin="round" width="9" height="26" fill="rgb(227,135,74)" stroke="rgb(181,108,59)" stroke-width="1" opacity="0.75" />
		</g>
	</g>
</svg>
