<svg version="1.1" baseProfile="full" xmlns="http://www.w3.org/2000/svg" width="4259" height="62">
	<line x1="1" y1="31" x2="4258" y2="31" style="stroke:rgb(50,50,50); stroke-width:3 "/>
	<g>
		<title>ozmD</title>
		<polygon class="ozmD" points="587,16 581,16 581,1 551,31 581,61 581,46 587,46" fill="rgb(252,197,213)" fill-opacity="1.0" stroke="rgb(100,78,85)" stroke-width="1" />
		<g>
			<title>PF00441</title>
			<polygon class="PF00441" points="553,31 565,19 565,42" stroke-linejoin="round" width="14" height="26" fill="rgb(85,191,117)" stroke="rgb(68,152,93)" stroke-width="1" opacity="0.75" />
		</g>
		<g>
			<title>PF02770</title>
			<rect class="PF02770" x="567" y="18" stroke-linejoin="round" width="9" height="26" fill="rgb(225,186,97)" stroke="rgb(180,148,77)" stroke-width="1" opacity="0.75" />
		</g>
		<g>
			<title>PF02771</title>
			<rect class="PF02771" x="577" y="18" stroke-linejoin="round" width="10" height="26" fill="rgb(105,135,218)" stroke="rgb(84,108,174)" stroke-width="1" opacity="0.75" />
		</g>
	</g>
	<g>
		<title>ozmE</title>
		<polygon class="ozmE" points="597,16 597,16 597,1 588,31 597,61 597,46 597,46" fill="rgb(238,254,203)" fill-opacity="1.0" stroke="rgb(95,101,81)" stroke-width="1" />
		<g>
			<title>PF00550</title>
			<polygon class="PF00550" points="590,31 594,18 596,18 596,44 594,44" stroke-linejoin="round" width="7" height="26" fill="rgb(103,191,88)" stroke="rgb(82,152,70)" stroke-width="1" opacity="0.75" />
		</g>
	</g>
	<g>
		<title>ozmF</title>
		<polygon class="ozmF" points="619,16 619,16 619,1 597,31 619,61 619,46 619,46" fill="rgb(254,199,210)" fill-opacity="1.0" stroke="rgb(101,79,84)" stroke-width="1" />
		<g>
			<title>PF01596</title>
			<polygon class="PF01596" points="599,31 609,18 617,18 617,44 609,44" stroke-linejoin="round" width="20" height="26" fill="rgb(168,187,48)" stroke="rgb(134,149,38)" stroke-width="1" opacity="0.75" />
		</g>
	</g>
	<g>
		<title>ozmG</title>
		<polygon class="ozmG" points="648,16 648,16 648,1 620,31 648,61 648,46 648,46" fill="rgb(234,197,252)" fill-opacity="1.0" stroke="rgb(93,78,100)" stroke-width="1" />
		<g>
			<title>PF00725</title>
			<polygon class="PF00725" points="622,31 629,24 629,37" stroke-linejoin="round" width="9" height="26" fill="rgb(180,78,60)" stroke="rgb(144,62,48)" stroke-width="1" opacity="0.75" />
		</g>
		<g>
			<title>PF02737</title>
			<polygon class="PF02737" points="630,23 634,18 647,18 647,44 634,44 630,38" stroke-linejoin="round" width="17" height="26" fill="rgb(212,65,199)" stroke="rgb(169,52,159)" stroke-width="1" opacity="0.75" />
		</g>
	</g>
	<g>
		<title>ozmH</title>
		<polygon class="ozmH" points="684,16 1427,16 1427,1 1457,31 1427,61 1427,46 684,46" fill="rgb(243,207,251)" fill-opacity="1.0" stroke="rgb(97,82,100)" stroke-width="1" />
		<g>
			<title>PF00109</title>
			<rect class="PF00109" x="687" y="18" stroke-linejoin="round" width="24" height="26" fill="rgb(112,116,228)" stroke="rgb(89,92,182)" stroke-width="1" opacity="0.75" />
		</g>
		<g>
			<title>PF02801</title>
			<rect class="PF02801" x="713" y="18" stroke-linejoin="round" width="12" height="26" fill="rgb(215,78,102)" stroke="rgb(172,62,81)" stroke-width="1" opacity="0.75" />
		</g>
		<g>
			<title>PF16197</title>
			<rect class="PF16197" x="725" y="18" stroke-linejoin="round" width="11" height="26" fill="rgb(68,179,89)" stroke="rgb(54,143,71)" stroke-width="1" opacity="0.75" />
		</g>
		<g>
			<title>PF08659</title>
			<rect class="PF08659" x="781" y="18" stroke-linejoin="round" width="17" height="26" fill="rgb(66,209,188)" stroke="rgb(52,167,150)" stroke-width="1" opacity="0.75" />
		</g>
		<g>
			<title>PF08242</title>
			<rect class="PF08242" x="825" y="18" stroke-linejoin="round" width="10" height="26" fill="rgb(187,59,115)" stroke="rgb(149,47,92)" stroke-width="1" opacity="0.75" />
		</g>
		<g>
			<title>PF00550</title>
			<rect class="PF00550" x="846" y="18" stroke-linejoin="round" width="6" height="26" fill="rgb(103,191,88)" stroke="rgb(82,152,70)" stroke-width="1" opacity="0.75" />
		</g>
		<g>
			<title>PF00668</title>
			<rect class="PF00668" x="854" y="18" stroke-linejoin="round" width="42" height="26" fill="rgb(224,184,98)" stroke="rgb(179,147,78)" stroke-width="1" opacity="0.75" />
		</g>
		<g>
			<title>PF00501</title>
			<rect class="PF00501" x="899" y="18" stroke-linejoin="round" width="38" height="26" fill="rgb(60,217,223)" stroke="rgb(48,173,178)" stroke-width="1" opacity="0.75" />
		</g>
		<g>
			<title>PF13193</title>
			<rect class="PF13193" x="938" y="18" stroke-linejoin="round" width="7" height="26" fill="rgb(182,50,118)" stroke="rgb(145,39,94)" stroke-width="1" opacity="0.75" />
		</g>
		<g>
			<title>PF00550</title>
			<rect class="PF00550" x="950" y="18" stroke-linejoin="round" width="6" height="26" fill="rgb(103,191,88)" stroke="rgb(82,152,70)" stroke-width="1" opacity="0.75" />
		</g>
		<g>
			<title>PF00109</title>
			<rect class="PF00109" x="960" y="18" stroke-linejoin="round" width="24" height="26" fill="rgb(112,116,228)" stroke="rgb(89,92,182)" stroke-width="1" opacity="0.75" />
		</g>
		<g>
			<title>PF02801</title>
			<rect class="PF02801" x="985" y="18" stroke-linejoin="round" width="13" height="26" fill="rgb(215,78,102)" stroke="rgb(172,62,81)" stroke-width="1" opacity="0.75" />
		</g>
		<g>
			<title>PF16197</title>
			<rect class="PF16197" x="999" y="18" stroke-linejoin="round" width="12" height="26" fill="rgb(68,179,89)" stroke="rgb(54,143,71)" stroke-width="1" opacity="0.75" />
		</g>
		<g>
			<title>PF14765</title>
			<rect class="PF14765" x="1023" y="18" stroke-linejoin="round" width="26" height="26" fill="rgb(173,56,182)" stroke="rgb(138,44,145)" stroke-width="1" opacity="0.75" />
		</g>
		<g>
			<title>PF08659</title>
			<rect class="PF08659" x="1069" y="18" stroke-linejoin="round" width="16" height="26" fill="rgb(66,209,188)" stroke="rgb(52,167,150)" stroke-width="1" opacity="0.75" />
		</g>
		<g>
			<title>PF00550</title>
			<rect class="PF00550" x="1094" y="18" stroke-linejoin="round" width="6" height="26" fill="rgb(103,191,88)" stroke="rgb(82,152,70)" stroke-width="1" opacity="0.75" />
		</g>
		<g>
			<title>PF00109</title>
			<rect class="PF00109" x="1106" y="18" stroke-linejoin="round" width="24" height="26" fill="rgb(112,116,228)" stroke="rgb(89,92,182)" stroke-width="1" opacity="0.75" />
		</g>
		<g>
			<title>PF02801</title>
			<rect class="PF02801" x="1131" y="18" stroke-linejoin="round" width="11" height="26" fill="rgb(215,78,102)" stroke="rgb(172,62,81)" stroke-width="1" opacity="0.75" />
		</g>
		<g>
			<title>PF16197</title>
			<rect class="PF16197" x="1144" y="18" stroke-linejoin="round" width="11" height="26" fill="rgb(68,179,89)" stroke="rgb(54,143,71)" stroke-width="1" opacity="0.75" />
		</g>
		<g>
			<title>PF14765</title>
			<rect class="PF14765" x="1163" y="18" stroke-linejoin="round" width="26" height="26" fill="rgb(173,56,182)" stroke="rgb(138,44,145)" stroke-width="1" opacity="0.75" />
		</g>
		<g>
			<title>PF00550</title>
			<rect class="PF00550" x="1191" y="18" stroke-linejoin="round" width="6" height="26" fill="rgb(103,191,88)" stroke="rgb(82,152,70)" stroke-width="1" opacity="0.75" />
		</g>
		<g>
			<title>PF08242</title>
			<rect class="PF08242" x="1220" y="18" stroke-linejoin="round" width="10" height="26" fill="rgb(187,59,115)" stroke="rgb(149,47,92)" stroke-width="1" opacity="0.75" />
		</g>
		<g>
			<title>PF08659</title>
			<rect class="PF08659" x="1255" y="18" stroke-linejoin="round" width="19" height="26" fill="rgb(66,209,188)" stroke="rgb(52,167,150)" stroke-width="1" opacity="0.75" />
		</g>
		<g>
			<title>PF00550</title>
			<rect class="PF00550" x="1285" y="18" stroke-linejoin="round" width="6" height="26" fill="rgb(103,191,88)" stroke="rgb(82,152,70)" stroke-width="1" opacity="0.75" />
		</g>
		<g>
			<title>PF00109</title>
			<rect class="PF00109" x="1296" y="18" stroke-linejoin="round" width="23" height="26" fill="rgb(112,116,228)" stroke="rgb(89,92,182)" stroke-width="1" opacity="0.75" />
		</g>
		<g>
			<title>PF02801</title>
			<rect class="PF02801" x="1320" y="18" stroke-linejoin="round" width="11" height="26" fill="rgb(215,78,102)" stroke="rgb(172,62,81)" stroke-width="1" opacity="0.75" />
		</g>
		<g>
			<title>PF00109</title>
			<rect class="PF00109" x="1339" y="18" stroke-linejoin="round" width="24" height="26" fill="rgb(112,116,228)" stroke="rgb(89,92,182)" stroke-width="1" opacity="0.75" />
		</g>
		<g>
			<title>PF02801</title>
			<rect class="PF02801" x="1364" y="18" stroke-linejoin="round" width="11" height="26" fill="rgb(215,78,102)" stroke="rgb(172,62,81)" stroke-width="1" opacity="0.75" />
		</g>
		<g>
			<title>PF16197</title>
			<rect class="PF16197" x="1376" y="18" stroke-linejoin="round" width="11" height="26" fill="rgb(68,179,89)" stroke="rgb(54,143,71)" stroke-width="1" opacity="0.75" />
		</g>
		<g>
			<title>PF08659</title>
			<rect class="PF08659" x="1419" y="18" stroke-linejoin="round" width="18" height="26" fill="rgb(66,209,188)" stroke="rgb(52,167,150)" stroke-width="1" opacity="0.75" />
		</g>
		<g>
			<title>PF00550</title>
			<polygon class="PF00550" points="1444,21 1450,27 1450,35 1444,41" stroke-linejoin="round" width="6" height="26" fill="rgb(103,191,88)" stroke="rgb(82,152,70)" stroke-width="1" opacity="0.75" />
		</g>
	</g>
	<g>
		<title>ozmJ</title>
		<polygon class="ozmJ" points="1458,16 1720,16 1720,1 1750,31 1720,61 1720,46 1458,46" fill="rgb(253,210,246)" fill-opacity="1.0" stroke="rgb(101,84,98)" stroke-width="1" />
		<g>
			<title>PF00109</title>
			<rect class="PF00109" x="1463" y="18" stroke-linejoin="round" width="22" height="26" fill="rgb(112,116,228)" stroke="rgb(89,92,182)" stroke-width="1" opacity="0.75" />
		</g>
		<g>
			<title>PF02801</title>
			<rect class="PF02801" x="1487" y="18" stroke-linejoin="round" width="11" height="26" fill="rgb(215,78,102)" stroke="rgb(172,62,81)" stroke-width="1" opacity="0.75" />
		</g>
		<g>
			<title>PF16197</title>
			<rect class="PF16197" x="1499" y="18" stroke-linejoin="round" width="9" height="26" fill="rgb(68,179,89)" stroke="rgb(54,143,71)" stroke-width="1" opacity="0.75" />
		</g>
		<g>
			<title>PF00109</title>
			<rect class="PF00109" x="1549" y="18" stroke-linejoin="round" width="24" height="26" fill="rgb(112,116,228)" stroke="rgb(89,92,182)" stroke-width="1" opacity="0.75" />
		</g>
		<g>
			<title>PF02801</title>
			<rect class="PF02801" x="1574" y="18" stroke-linejoin="round" width="11" height="26" fill="rgb(215,78,102)" stroke="rgb(172,62,81)" stroke-width="1" opacity="0.75" />
		</g>
		<g>
			<title>PF16197</title>
			<rect class="PF16197" x="1587" y="18" stroke-linejoin="round" width="11" height="26" fill="rgb(68,179,89)" stroke="rgb(54,143,71)" stroke-width="1" opacity="0.75" />
		</g>
		<g>
			<title>PF14765</title>
			<rect class="PF14765" x="1609" y="18" stroke-linejoin="round" width="27" height="26" fill="rgb(173,56,182)" stroke="rgb(138,44,145)" stroke-width="1" opacity="0.75" />
		</g>
		<g>
			<title>PF08240</title>
			<rect class="PF08240" x="1659" y="18" stroke-linejoin="round" width="10" height="26" fill="rgb(211,65,138)" stroke="rgb(168,51,110)" stroke-width="1" opacity="0.75" />
		</g>
		<g>
			<title>PF00107</title>
			<rect class="PF00107" x="1671" y="18" stroke-linejoin="round" width="11" height="26" fill="rgb(81,108,215)" stroke="rgb(64,86,172)" stroke-width="1" opacity="0.75" />
		</g>
		<g>
			<title>PF08659</title>
			<rect class="PF08659" x="1689" y="18" stroke-linejoin="round" width="17" height="26" fill="rgb(66,209,188)" stroke="rgb(52,167,150)" stroke-width="1" opacity="0.75" />
		</g>
		<g>
			<title>PF00550</title>
			<rect class="PF00550" x="1717" y="18" stroke-linejoin="round" width="6" height="26" fill="rgb(103,191,88)" stroke="rgb(82,152,70)" stroke-width="1" opacity="0.75" />
		</g>
	</g>
	<g>
		<title>ozmK</title>
		<polygon class="ozmK" points="1751,16 1841,16 1841,1 1871,31 1841,61 1841,46 1751,46" fill="rgb(194,242,251)" fill-opacity="1.0" stroke="rgb(77,96,100)" stroke-width="1" />
		<g>
			<title>PF00550</title>
			<rect class="PF00550" x="1751" y="18" stroke-linejoin="round" width="6" height="26" fill="rgb(103,191,88)" stroke="rgb(82,152,70)" stroke-width="1" opacity="0.75" />
		</g>
		<g>
			<title>PF00109</title>
			<rect class="PF00109" x="1759" y="18" stroke-linejoin="round" width="23" height="26" fill="rgb(112,116,228)" stroke="rgb(89,92,182)" stroke-width="1" opacity="0.75" />
		</g>
		<g>
			<title>PF02801</title>
			<rect class="PF02801" x="1783" y="18" stroke-linejoin="round" width="11" height="26" fill="rgb(215,78,102)" stroke="rgb(172,62,81)" stroke-width="1" opacity="0.75" />
		</g>
		<g>
			<title>PF16197</title>
			<rect class="PF16197" x="1795" y="18" stroke-linejoin="round" width="11" height="26" fill="rgb(68,179,89)" stroke="rgb(54,143,71)" stroke-width="1" opacity="0.75" />
		</g>
		<g>
			<title>PF08242</title>
			<rect class="PF08242" x="1839" y="18" stroke-linejoin="round" width="10" height="26" fill="rgb(187,59,115)" stroke="rgb(149,47,92)" stroke-width="1" opacity="0.75" />
		</g>
		<g>
			<title>PF00550</title>
			<polygon class="PF00550" points="1862,25 1868,31 1868,31 1862,37" stroke-linejoin="round" width="6" height="26" fill="rgb(103,191,88)" stroke="rgb(82,152,70)" stroke-width="1" opacity="0.75" />
		</g>
	</g>
	<g>
		<title>ozmL</title>
		<polygon class="ozmL" points="1874,16 2043,16 2043,1 2073,31 2043,61 2043,46 1874,46" fill="rgb(189,252,178)" fill-opacity="1.0" stroke="rgb(75,100,71)" stroke-width="1" />
		<g>
			<title>PF00668</title>
			<rect class="PF00668" x="1878" y="18" stroke-linejoin="round" width="44" height="26" fill="rgb(224,184,98)" stroke="rgb(179,147,78)" stroke-width="1" opacity="0.75" />
		</g>
		<g>
			<title>PF00501</title>
			<rect class="PF00501" x="1924" y="18" stroke-linejoin="round" width="40" height="26" fill="rgb(60,217,223)" stroke="rgb(48,173,178)" stroke-width="1" opacity="0.75" />
		</g>
		<g>
			<title>PF13193</title>
			<rect class="PF13193" x="1965" y="18" stroke-linejoin="round" width="7" height="26" fill="rgb(182,50,118)" stroke="rgb(145,39,94)" stroke-width="1" opacity="0.75" />
		</g>
		<g>
			<title>PF08242</title>
			<rect class="PF08242" x="1976" y="18" stroke-linejoin="round" width="10" height="26" fill="rgb(187,59,115)" stroke="rgb(149,47,92)" stroke-width="1" opacity="0.75" />
		</g>
		<g>
			<title>PF00550</title>
			<rect class="PF00550" x="2016" y="18" stroke-linejoin="round" width="6" height="26" fill="rgb(103,191,88)" stroke="rgb(82,152,70)" stroke-width="1" opacity="0.75" />
		</g>
		<g>
			<title>PF00668</title>
			<polygon class="PF00668" points="2026,18 2057,18 2070,31 2070,31 2057,44 2026,44" stroke-linejoin="round" width="44" height="26" fill="rgb(224,184,98)" stroke="rgb(179,147,78)" stroke-width="1" opacity="0.75" />
		</g>
	</g>
	<g>
		<title>ozmM</title>
		<polygon class="ozmM" points="2075,16 2149,16 2149,1 2179,31 2149,61 2149,46 2075,46" fill="rgb(199,208,254)" fill-opacity="1.0" stroke="rgb(79,83,101)" stroke-width="1" />
		<g>
			<title>PF00698</title>
			<rect class="PF00698" x="2075" y="18" stroke-linejoin="round" width="29" height="26" fill="rgb(59,176,209)" stroke="rgb(47,140,167)" stroke-width="1" opacity="0.75" />
		</g>
		<g>
			<title>PF00698</title>
			<rect class="PF00698" x="2106" y="18" stroke-linejoin="round" width="28" height="26" fill="rgb(59,176,209)" stroke="rgb(47,140,167)" stroke-width="1" opacity="0.75" />
		</g>
	</g>
	<g>
		<title>ozmN</title>
		<polygon class="ozmN" points="2181,16 2648,16 2648,1 2678,31 2648,61 2648,46 2181,46" fill="rgb(250,202,248)" fill-opacity="1.0" stroke="rgb(100,80,99)" stroke-width="1" />
		<g>
			<title>PF00109</title>
			<rect class="PF00109" x="2182" y="18" stroke-linejoin="round" width="25" height="26" fill="rgb(112,116,228)" stroke="rgb(89,92,182)" stroke-width="1" opacity="0.75" />
		</g>
		<g>
			<title>PF02801</title>
			<rect class="PF02801" x="2208" y="18" stroke-linejoin="round" width="11" height="26" fill="rgb(215,78,102)" stroke="rgb(172,62,81)" stroke-width="1" opacity="0.75" />
		</g>
		<g>
			<title>PF16197</title>
			<rect class="PF16197" x="2220" y="18" stroke-linejoin="round" width="11" height="26" fill="rgb(68,179,89)" stroke="rgb(54,143,71)" stroke-width="1" opacity="0.75" />
		</g>
		<g>
			<title>PF14765</title>
			<rect class="PF14765" x="2242" y="18" stroke-linejoin="round" width="29" height="26" fill="rgb(173,56,182)" stroke="rgb(138,44,145)" stroke-width="1" opacity="0.75" />
		</g>
		<g>
			<title>PF08659</title>
			<rect class="PF08659" x="2293" y="18" stroke-linejoin="round" width="18" height="26" fill="rgb(66,209,188)" stroke="rgb(52,167,150)" stroke-width="1" opacity="0.75" />
		</g>
		<g>
			<title>PF00550</title>
			<rect class="PF00550" x="2321" y="18" stroke-linejoin="round" width="6" height="26" fill="rgb(103,191,88)" stroke="rgb(82,152,70)" stroke-width="1" opacity="0.75" />
		</g>
		<g>
			<title>PF00109</title>
			<rect class="PF00109" x="2333" y="18" stroke-linejoin="round" width="24" height="26" fill="rgb(112,116,228)" stroke="rgb(89,92,182)" stroke-width="1" opacity="0.75" />
		</g>
		<g>
			<title>PF02801</title>
			<rect class="PF02801" x="2359" y="18" stroke-linejoin="round" width="11" height="26" fill="rgb(215,78,102)" stroke="rgb(172,62,81)" stroke-width="1" opacity="0.75" />
		</g>
		<g>
			<title>PF16197</title>
			<rect class="PF16197" x="2371" y="18" stroke-linejoin="round" width="12" height="26" fill="rgb(68,179,89)" stroke="rgb(54,143,71)" stroke-width="1" opacity="0.75" />
		</g>
		<g>
			<title>PF14765</title>
			<rect class="PF14765" x="2393" y="18" stroke-linejoin="round" width="28" height="26" fill="rgb(173,56,182)" stroke="rgb(138,44,145)" stroke-width="1" opacity="0.75" />
		</g>
		<g>
			<title>PF08659</title>
			<rect class="PF08659" x="2446" y="18" stroke-linejoin="round" width="18" height="26" fill="rgb(66,209,188)" stroke="rgb(52,167,150)" stroke-width="1" opacity="0.75" />
		</g>
		<g>
			<title>PF00550</title>
			<rect class="PF00550" x="2476" y="18" stroke-linejoin="round" width="6" height="26" fill="rgb(103,191,88)" stroke="rgb(82,152,70)" stroke-width="1" opacity="0.75" />
		</g>
		<g>
			<title>PF00109</title>
			<rect class="PF00109" x="2487" y="18" stroke-linejoin="round" width="25" height="26" fill="rgb(112,116,228)" stroke="rgb(89,92,182)" stroke-width="1" opacity="0.75" />
		</g>
		<g>
			<title>PF02801</title>
			<rect class="PF02801" x="2513" y="18" stroke-linejoin="round" width="11" height="26" fill="rgb(215,78,102)" stroke="rgb(172,62,81)" stroke-width="1" opacity="0.75" />
		</g>
		<g>
			<title>PF16197</title>
			<rect class="PF16197" x="2525" y="18" stroke-linejoin="round" width="11" height="26" fill="rgb(68,179,89)" stroke="rgb(54,143,71)" stroke-width="1" opacity="0.75" />
		</g>
		<g>
			<title>PF14765</title>
			<rect class="PF14765" x="2550" y="18" stroke-linejoin="round" width="27" height="26" fill="rgb(173,56,182)" stroke="rgb(138,44,145)" stroke-width="1" opacity="0.75" />
		</g>
		<g>
			<title>PF08659</title>
			<rect class="PF08659" x="2599" y="18" stroke-linejoin="round" width="17" height="26" fill="rgb(66,209,188)" stroke="rgb(52,167,150)" stroke-width="1" opacity="0.75" />
		</g>
		<g>
			<title>PF08242</title>
			<rect class="PF08242" x="2644" y="18" stroke-linejoin="round" width="10" height="26" fill="rgb(187,59,115)" stroke="rgb(149,47,92)" stroke-width="1" opacity="0.75" />
		</g>
		<g>
			<title>PF00550</title>
			<polygon class="PF00550" points="2666,22 2672,28 2672,34 2666,40" stroke-linejoin="round" width="6" height="26" fill="rgb(103,191,88)" stroke="rgb(82,152,70)" stroke-width="1" opacity="0.75" />
		</g>
	</g>
	<g>
		<polygon class="NoName" points="191,16 195,16 195,1 225,31 195,61 195,46 191,46" fill="rgb(255,255,255)" fill-opacity="1.0" stroke="rgb(50,50,50)" stroke-width="1" />
		<g>
			<title>PF07859</title>
			<polygon class="PF07859" points="201,18 209,18 221,30 221,32 209,44 201,44" stroke-linejoin="round" width="20" height="26" fill="rgb(183,51,179)" stroke="rgb(146,40,143)" stroke-width="1" opacity="0.75" />
		</g>
	</g>
	<g>
		<title>ozmO</title>
		<polygon class="ozmO" points="2678,16 2767,16 2767,1 2797,31 2767,61 2767,46 2678,46" fill="rgb(243,253,179)" fill-opacity="1.0" stroke="rgb(97,101,71)" stroke-width="1" />
		<g>
			<title>PF00551</title>
			<rect class="PF00551" x="2683" y="18" stroke-linejoin="round" width="11" height="26" fill="rgb(111,183,66)" stroke="rgb(88,146,52)" stroke-width="1" opacity="0.75" />
		</g>
		<g>
			<title>PF00501</title>
			<rect class="PF00501" x="2736" y="18" stroke-linejoin="round" width="39" height="26" fill="rgb(60,217,223)" stroke="rgb(48,173,178)" stroke-width="1" opacity="0.75" />
		</g>
		<g>
			<title>PF13193</title>
			<polygon class="PF13193" points="2776,18 2781,18 2783,20 2783,42 2781,44 2776,44" stroke-linejoin="round" width="7" height="26" fill="rgb(182,50,118)" stroke="rgb(145,39,94)" stroke-width="1" opacity="0.75" />
		</g>
		<g>
			<title>PF00550</title>
			<polygon class="PF00550" points="2787,24 2793,30 2793,32 2787,38" stroke-linejoin="round" width="6" height="26" fill="rgb(103,191,88)" stroke="rgb(82,152,70)" stroke-width="1" opacity="0.75" />
		</g>
	</g>
	<g>
		<title>ozmP</title>
		<polygon class="ozmP" points="2800,16 2808,16 2808,1 2838,31 2808,61 2808,46 2800,46" fill="rgb(207,226,250)" fill-opacity="1.0" stroke="rgb(82,90,100)" stroke-width="1" />
	</g>
	<g>
		<title>ozmQ</title>
		<polygon class="ozmQ" points="2838,16 2892,16 2892,1 2922,31 2892,61 2892,46 2838,46" fill="rgb(176,203,251)" fill-opacity="1.0" stroke="rgb(70,81,100)" stroke-width="1" />
		<g>
			<title>PF00109</title>
			<rect class="PF00109" x="2839" y="18" stroke-linejoin="round" width="25" height="26" fill="rgb(112,116,228)" stroke="rgb(89,92,182)" stroke-width="1" opacity="0.75" />
		</g>
		<g>
			<title>PF02801</title>
			<rect class="PF02801" x="2865" y="18" stroke-linejoin="round" width="12" height="26" fill="rgb(215,78,102)" stroke="rgb(172,62,81)" stroke-width="1" opacity="0.75" />
		</g>
		<g>
			<title>PF16197</title>
			<rect class="PF16197" x="2877" y="18" stroke-linejoin="round" width="11" height="26" fill="rgb(68,179,89)" stroke="rgb(54,143,71)" stroke-width="1" opacity="0.75" />
		</g>
		<g>
			<title>PF00550</title>
			<polygon class="PF00550" points="2911,23 2917,29 2917,33 2911,39" stroke-linejoin="round" width="6" height="26" fill="rgb(103,191,88)" stroke="rgb(82,152,70)" stroke-width="1" opacity="0.75" />
		</g>
	</g>
	<g>
		<title>ozmR</title>
		<polygon class="ozmR" points="2976,16 2976,16 2976,1 2946,31 2976,61 2976,46 2976,46" fill="rgb(253,207,227)" fill-opacity="1.0" stroke="rgb(101,82,90)" stroke-width="1" />
		<g>
			<title>PF03466</title>
			<polygon class="PF03466" points="2948,31 2961,18 2966,18 2966,44 2961,44" stroke-linejoin="round" width="20" height="26" fill="rgb(55,136,195)" stroke="rgb(44,108,156)" stroke-width="1" opacity="0.75" />
		</g>
		<g>
			<title>PF00126</title>
			<rect class="PF00126" x="2969" y="18" stroke-linejoin="round" width="5" height="26" fill="rgb(125,227,79)" stroke="rgb(99,181,63)" stroke-width="1" opacity="0.75" />
		</g>
	</g>
	<g>
		<title>ozmS</title>
		<polygon class="ozmS" points="2978,16 2978,16 2978,1 2999,31 2978,61 2978,46 2978,46" fill="rgb(250,188,235)" fill-opacity="1.0" stroke="rgb(100,75,93)" stroke-width="1" />
		<g>
			<title>PF01810</title>
			<polygon class="PF01810" points="2980,18 2987,18 2996,31 2987,44 2980,44" stroke-linejoin="round" width="18" height="26" fill="rgb(198,75,167)" stroke="rgb(158,60,133)" stroke-width="1" opacity="0.75" />
		</g>
	</g>
	<g>
		<title>ozmT</title>
		<polygon class="ozmT" points="3045,16 3031,16 3031,1 3001,31 3031,61 3031,46 3045,46" fill="rgb(222,252,196)" fill-opacity="1.0" stroke="rgb(88,100,78)" stroke-width="1" />
		<g>
			<title>PF03129</title>
			<polygon class="PF03129" points="3003,31 3010,24 3010,37" stroke-linejoin="round" width="8" height="26" fill="rgb(115,202,95)" stroke="rgb(92,161,76)" stroke-width="1" opacity="0.75" />
		</g>
		<g>
			<title>PF00587</title>
			<polygon class="PF00587" points="3012,22 3016,18 3033,18 3033,44 3016,44 3012,39" stroke-linejoin="round" width="21" height="26" fill="rgb(228,96,220)" stroke="rgb(182,76,176)" stroke-width="1" opacity="0.75" />
		</g>
	</g>
	<g>
		<title>ozmU</title>
		<polygon class="ozmU" points="3178,16 3115,16 3115,1 3085,31 3115,61 3115,46 3178,46" fill="rgb(250,202,192)" fill-opacity="1.0" stroke="rgb(100,80,76)" stroke-width="1" />
		<g>
			<title>PF00931</title>
			<rect class="PF00931" x="3121" y="18" stroke-linejoin="round" width="25" height="26" fill="rgb(165,94,211)" stroke="rgb(132,75,168)" stroke-width="1" opacity="0.75" />
		</g>
		<g>
			<title>PF03704</title>
			<rect class="PF03704" x="3153" y="18" stroke-linejoin="round" width="14" height="26" fill="rgb(217,89,196)" stroke="rgb(173,71,156)" stroke-width="1" opacity="0.75" />
		</g>
		<g>
			<title>PF00486</title>
			<rect class="PF00486" x="3169" y="18" stroke-linejoin="round" width="6" height="26" fill="rgb(204,153,57)" stroke="rgb(163,122,45)" stroke-width="1" opacity="0.75" />
		</g>
	</g>
	<g>
		<title>ozmV</title>
		<polygon class="ozmV" points="3184,16 3198,16 3198,1 3228,31 3198,61 3198,46 3184,46" fill="rgb(252,205,187)" fill-opacity="1.0" stroke="rgb(100,82,74)" stroke-width="1" />
		<g>
			<title>PF00067</title>
			<polygon class="PF00067" points="3214,20 3225,31 3214,42" stroke-linejoin="round" width="12" height="26" fill="rgb(85,216,107)" stroke="rgb(68,172,85)" stroke-width="1" opacity="0.75" />
		</g>
	</g>
	<g>
		<title>ozmW</title>
		<polygon class="ozmW" points="3238,16 3238,16 3238,1 3260,31 3238,61 3238,46 3238,46" fill="rgb(254,187,179)" fill-opacity="1.0" stroke="rgb(101,74,71)" stroke-width="1" />
		<g>
			<title>PF13419</title>
			<polygon class="PF13419" points="3238,18 3247,18 3255,28 3255,34 3247,44 3238,44" stroke-linejoin="round" width="17" height="26" fill="rgb(60,223,188)" stroke="rgb(48,178,150)" stroke-width="1" opacity="0.75" />
		</g>
	</g>
	<g>
		<polygon class="NoName" points="3273,16 3273,16 3273,1 3301,31 3273,61 3273,46 3273,46" fill="rgb(255,255,255)" fill-opacity="1.0" stroke="rgb(50,50,50)" stroke-width="1" />
		<g>
			<title>PF04542</title>
			<rect class="PF04542" x="3277" y="18" stroke-linejoin="round" width="6" height="26" fill="rgb(184,59,197)" stroke="rgb(147,47,157)" stroke-width="1" opacity="0.75" />
		</g>
		<g>
			<title>PF04539</title>
			<polygon class="PF04539" points="3285,18 3286,18 3292,25 3292,37 3286,44 3285,44" stroke-linejoin="round" width="7" height="26" fill="rgb(66,187,131)" stroke="rgb(52,149,104)" stroke-width="1" opacity="0.75" />
		</g>
		<g>
			<title>PF04545</title>
			<polygon class="PF04545" points="3294,27 3298,31 3298,31 3294,35" stroke-linejoin="round" width="4" height="26" fill="rgb(75,207,224)" stroke="rgb(60,165,179)" stroke-width="1" opacity="0.75" />
		</g>
	</g>
	<g>
		<polygon class="NoName" points="258,16 255,16 255,1 225,31 255,61 255,46 258,46" fill="rgb(255,255,255)" fill-opacity="1.0" stroke="rgb(50,50,50)" stroke-width="1" />
		<g>
			<title>PF12833</title>
			<polygon class="PF12833" points="227,31 233,25 233,36" stroke-linejoin="round" width="8" height="26" fill="rgb(216,58,224)" stroke="rgb(172,46,179)" stroke-width="1" opacity="0.75" />
		</g>
		<g>
			<title>PF14525</title>
			<polygon class="PF14525" points="237,21 240,18 254,18 254,44 240,44 237,40" stroke-linejoin="round" width="17" height="26" fill="rgb(226,106,111)" stroke="rgb(180,84,88)" stroke-width="1" opacity="0.75" />
		</g>
	</g>
	<g>
		<polygon class="NoName" points="3316,16 3320,16 3320,1 3350,31 3320,61 3320,46 3316,46" fill="rgb(255,255,255)" fill-opacity="1.0" stroke="rgb(50,50,50)" stroke-width="1" />
		<g>
			<title>PF14716</title>
			<rect class="PF14716" x="3316" y="18" stroke-linejoin="round" width="6" height="26" fill="rgb(83,210,138)" stroke="rgb(66,168,110)" stroke-width="1" opacity="0.75" />
		</g>
		<g>
			<title>PF02811</title>
			<polygon class="PF02811" points="3326,18 3334,18 3342,26 3342,36 3334,44 3326,44" stroke-linejoin="round" width="16" height="26" fill="rgb(167,87,219)" stroke="rgb(133,69,175)" stroke-width="1" opacity="0.75" />
		</g>
	</g>
	<g>
		<polygon class="NoName" points="3421,16 3381,16 3381,1 3351,31 3381,61 3381,46 3421,46" fill="rgb(255,255,255)" fill-opacity="1.0" stroke="rgb(50,50,50)" stroke-width="1" />
		<g>
			<title>PF02738</title>
			<polygon class="PF02738" points="3357,27 3366,18 3407,18 3407,44 3366,44 3357,34" stroke-linejoin="round" width="50" height="26" fill="rgb(194,143,89)" stroke="rgb(155,114,71)" stroke-width="1" opacity="0.75" />
		</g>
		<g>
			<title>PF01315</title>
			<rect class="PF01315" x="3408" y="18" stroke-linejoin="round" width="10" height="26" fill="rgb(127,182,88)" stroke="rgb(101,145,70)" stroke-width="1" opacity="0.75" />
		</g>
	</g>
	<g>
		<polygon class="NoName" points="3455,16 3452,16 3452,1 3422,31 3452,61 3452,46 3455,46" fill="rgb(255,255,255)" fill-opacity="1.0" stroke="rgb(50,50,50)" stroke-width="1" />
		<g>
			<title>PF03450</title>
			<polygon class="PF03450" points="3424,31 3431,24 3431,37" stroke-linejoin="round" width="9" height="26" fill="rgb(68,181,100)" stroke="rgb(54,144,80)" stroke-width="1" opacity="0.75" />
		</g>
		<g>
			<title>PF00941</title>
			<polygon class="PF00941" points="3433,22 3437,18 3454,18 3454,44 3437,44 3433,39" stroke-linejoin="round" width="21" height="26" fill="rgb(67,160,198)" stroke="rgb(53,128,158)" stroke-width="1" opacity="0.75" />
		</g>
	</g>
	<g>
		<polygon class="NoName" points="3472,16 3472,16 3472,1 3455,31 3472,61 3472,46 3472,46" fill="rgb(255,255,255)" fill-opacity="1.0" stroke="rgb(50,50,50)" stroke-width="1" />
		<g>
			<title>PF01799</title>
			<polygon class="PF01799" points="3457,31 3464,19 3464,42" stroke-linejoin="round" width="9" height="26" fill="rgb(67,193,124)" stroke="rgb(53,154,99)" stroke-width="1" opacity="0.75" />
		</g>
		<g>
			<title>PF00111</title>
			<polygon class="PF00111" points="3464,19 3464,18 3471,18 3471,44 3464,44 3464,42" stroke-linejoin="round" width="7" height="26" fill="rgb(60,59,191)" stroke="rgb(48,47,152)" stroke-width="1" opacity="0.75" />
		</g>
	</g>
	<g>
		<polygon class="NoName" points="336,16 289,16 289,1 259,31 289,61 289,46 336,46" fill="rgb(255,255,255)" fill-opacity="1.0" stroke="rgb(50,50,50)" stroke-width="1" />
		<g>
			<title>PF04632</title>
			<polygon class="PF04632" points="261,31 274,18 293,18 293,44 274,44" stroke-linejoin="round" width="33" height="26" fill="rgb(191,67,61)" stroke="rgb(152,53,48)" stroke-width="1" opacity="0.75" />
		</g>
	</g>
	<g>
		<polygon class="NoName" points="342,16 342,16 342,1 357,31 342,61 342,46 342,46" fill="rgb(255,255,255)" fill-opacity="1.0" stroke="rgb(50,50,50)" stroke-width="1" />
		<g>
			<title>PF00578</title>
			<polygon class="PF00578" points="342,18 348,18 354,30 354,32 348,44 342,44" stroke-linejoin="round" width="12" height="26" fill="rgb(166,71,190)" stroke="rgb(132,56,152)" stroke-width="1" opacity="0.75" />
		</g>
	</g>
	<g>
		<polygon class="NoName" points="392,16 388,16 388,1 358,31 388,61 388,46 392,46" fill="rgb(255,255,255)" fill-opacity="1.0" stroke="rgb(50,50,50)" stroke-width="1" />
		<g>
			<title>PF13377</title>
			<polygon class="PF13377" points="360,31 373,18 374,18 374,44 373,44" stroke-linejoin="round" width="15" height="26" fill="rgb(101,208,189)" stroke="rgb(80,166,151)" stroke-width="1" opacity="0.75" />
		</g>
		<g>
			<title>PF00356</title>
			<rect class="PF00356" x="387" y="18" stroke-linejoin="round" width="4" height="26" fill="rgb(66,188,63)" stroke="rgb(52,150,50)" stroke-width="1" opacity="0.75" />
		</g>
	</g>
	<g>
		<polygon class="NoName" points="401,16 402,16 402,1 432,31 402,61 402,46 401,46" fill="rgb(255,255,255)" fill-opacity="1.0" stroke="rgb(50,50,50)" stroke-width="1" />
		<g>
			<title>PF01156</title>
			<polygon class="PF01156" points="401,18 416,18 429,31 416,44 401,44" stroke-linejoin="round" width="29" height="26" fill="rgb(156,80,217)" stroke="rgb(124,64,173)" stroke-width="1" opacity="0.75" />
		</g>
	</g>
	<g>
		<title>ozmA</title>
		<polygon class="ozmA" points="433,16 451,16 451,1 481,31 451,61 451,46 433,46" fill="rgb(212,251,197)" fill-opacity="1.0" stroke="rgb(84,100,78)" stroke-width="1" />
		<g>
			<title>PF07690</title>
			<polygon class="PF07690" points="435,18 465,18 475,28 475,34 465,44 435,44" stroke-linejoin="round" width="40" height="26" fill="rgb(193,224,74)" stroke="rgb(154,179,59)" stroke-width="1" opacity="0.75" />
		</g>
	</g>
	<g>
		<title>ozmB</title>
		<polygon class="ozmB" points="518,16 512,16 512,1 482,31 512,61 512,46 518,46" fill="rgb(252,185,197)" fill-opacity="1.0" stroke="rgb(100,74,78)" stroke-width="1" />
	</g>
	<g>
		<title>ozmC</title>
		<polygon class="ozmC" points="551,16 549,16 549,1 519,31 549,61 549,46 551,46" fill="rgb(250,254,209)" fill-opacity="1.0" stroke="rgb(100,101,83)" stroke-width="1" />
		<g>
			<title>PF08541</title>
			<polygon class="PF08541" points="521,31 528,24 528,37" stroke-linejoin="round" width="9" height="26" fill="rgb(146,207,81)" stroke="rgb(116,165,64)" stroke-width="1" opacity="0.75" />
		</g>
	</g>
</svg>
