<svg version="1.1" baseProfile="full" xmlns="http://www.w3.org/2000/svg" width="1340" height="62">
	<line x1="1" y1="31" x2="1339" y2="31" style="stroke:rgb(50,50,50); stroke-width:3 "/>
	<g>
		<title>barI</title>
		<polygon class="barI" points="960,16 931,16 931,1 901,31 931,61 931,46 960,46" fill="rgb(253,218,184)" fill-opacity="1.0" stroke="rgb(101,87,73)" stroke-width="1" />
	</g>
	<g>
		<title>barJ</title>
		<polygon class="barJ" points="1010,16 991,16 991,1 961,31 991,61 991,46 1010,46" fill="rgb(252,231,182)" fill-opacity="1.0" stroke="rgb(100,92,72)" stroke-width="1" />
		<g>
			<title>PF01593</title>
			<polygon class="PF01593" points="970,24 976,18 1008,18 1008,44 976,44 970,37" stroke-linejoin="round" width="38" height="26" fill="rgb(184,74,52)" stroke="rgb(147,59,41)" stroke-width="1" opacity="0.75" />
		</g>
	</g>
	<g>
		<title>barK</title>
		<polygon class="barK" points="1056,16 1051,16 1051,1 1021,31 1051,61 1051,46 1056,46" fill="rgb(184,252,179)" fill-opacity="1.0" stroke="rgb(73,100,71)" stroke-width="1" />
		<g>
			<title>PF00535</title>
			<rect class="PF00535" x="1039" y="18" stroke-linejoin="round" width="15" height="26" fill="rgb(224,122,96)" stroke="rgb(179,97,76)" stroke-width="1" opacity="0.75" />
		</g>
	</g>
	<g>
		<title>barA</title>
		<polygon class="barA" points="185,16 185,16 185,1 194,31 185,61 185,46 185,46" fill="rgb(254,244,201)" fill-opacity="1.0" stroke="rgb(101,97,80)" stroke-width="1" />
		<g>
			<title>PF00550</title>
			<polygon class="PF00550" points="187,18 187,18 191,31 187,44 187,44" stroke-linejoin="round" width="6" height="26" fill="rgb(103,191,88)" stroke="rgb(82,152,70)" stroke-width="1" opacity="0.75" />
		</g>
	</g>
	<g>
		<title>barB1</title>
		<polygon class="barB1" points="195,16 195,16 195,1 225,31 195,61 195,46 195,46" fill="rgb(242,200,254)" fill-opacity="1.0" stroke="rgb(96,80,101)" stroke-width="1" />
		<g>
			<title>PF05721</title>
			<polygon class="PF05721" points="197,18 209,18 219,28 219,34 209,44 197,44" stroke-linejoin="round" width="22" height="26" fill="rgb(72,132,214)" stroke="rgb(57,105,171)" stroke-width="1" opacity="0.75" />
		</g>
	</g>
	<g>
		<title>barB2</title>
		<polygon class="barB2" points="228,16 228,16 228,1 257,31 228,61 228,46 228,46" fill="rgb(250,195,235)" fill-opacity="1.0" stroke="rgb(100,78,94)" stroke-width="1" />
		<g>
			<title>PF05721</title>
			<polygon class="PF05721" points="230,18 241,18 252,29 252,33 241,44 230,44" stroke-linejoin="round" width="22" height="26" fill="rgb(72,132,214)" stroke="rgb(57,105,171)" stroke-width="1" opacity="0.75" />
		</g>
	</g>
	<g>
		<title>barC</title>
		<polygon class="barC" points="262,16 262,16 262,1 288,31 262,61 262,46 262,46" fill="rgb(248,250,178)" fill-opacity="1.0" stroke="rgb(99,100,71)" stroke-width="1" />
		<g>
			<title>PF00975</title>
			<polygon class="PF00975" points="264,18 274,18 285,31 274,44 264,44" stroke-linejoin="round" width="22" height="26" fill="rgb(207,80,138)" stroke="rgb(165,63,110)" stroke-width="1" opacity="0.75" />
		</g>
	</g>
	<g>
		<title>barD</title>
		<polygon class="barD" points="290,16 311,16 311,1 341,31 311,61 311,46 290,46" fill="rgb(179,252,235)" fill-opacity="1.0" stroke="rgb(71,100,93)" stroke-width="1" />
		<g>
			<title>PF00501</title>
			<polygon class="PF00501" points="290,18 325,18 330,23 330,39 325,44 290,44" stroke-linejoin="round" width="40" height="26" fill="rgb(60,217,223)" stroke="rgb(48,173,178)" stroke-width="1" opacity="0.75" />
		</g>
		<g>
			<title>PF13193</title>
			<polygon class="PF13193" points="332,25 338,31 332,37" stroke-linejoin="round" width="7" height="26" fill="rgb(182,50,118)" stroke="rgb(145,39,94)" stroke-width="1" opacity="0.75" />
		</g>
	</g>
	<g>
		<title>barE</title>
		<polygon class="barE" points="344,16 484,16 484,1 514,31 484,61 484,46 344,46" fill="rgb(233,202,251)" fill-opacity="1.0" stroke="rgb(93,80,100)" stroke-width="1" />
		<g>
			<title>PF00501</title>
			<rect class="PF00501" x="348" y="18" stroke-linejoin="round" width="41" height="26" fill="rgb(60,217,223)" stroke="rgb(48,173,178)" stroke-width="1" opacity="0.75" />
		</g>
		<g>
			<title>PF00550</title>
			<rect class="PF00550" x="404" y="18" stroke-linejoin="round" width="6" height="26" fill="rgb(103,191,88)" stroke="rgb(82,152,70)" stroke-width="1" opacity="0.75" />
		</g>
		<g>
			<title>PF00109</title>
			<rect class="PF00109" x="413" y="18" stroke-linejoin="round" width="26" height="26" fill="rgb(112,116,228)" stroke="rgb(89,92,182)" stroke-width="1" opacity="0.75" />
		</g>
		<g>
			<title>PF02801</title>
			<rect class="PF02801" x="440" y="18" stroke-linejoin="round" width="11" height="26" fill="rgb(215,78,102)" stroke="rgb(172,62,81)" stroke-width="1" opacity="0.75" />
		</g>
		<g>
			<title>PF16197</title>
			<rect class="PF16197" x="452" y="18" stroke-linejoin="round" width="12" height="26" fill="rgb(68,179,89)" stroke="rgb(54,143,71)" stroke-width="1" opacity="0.75" />
		</g>
		<g>
			<title>PF00698</title>
			<polygon class="PF00698" points="469,18 498,18 501,21 501,41 498,44 469,44" stroke-linejoin="round" width="32" height="26" fill="rgb(59,176,209)" stroke="rgb(47,140,167)" stroke-width="1" opacity="0.75" />
		</g>
	</g>
	<g>
		<title>barF</title>
		<polygon class="barF" points="516,16 536,16 536,1 566,31 536,61 536,46 516,46" fill="rgb(237,213,252)" fill-opacity="1.0" stroke="rgb(94,85,100)" stroke-width="1" />
		<g>
			<title>PF08242</title>
			<rect class="PF08242" x="528" y="18" stroke-linejoin="round" width="9" height="26" fill="rgb(187,59,115)" stroke="rgb(149,47,92)" stroke-width="1" opacity="0.75" />
		</g>
		<g>
			<title>PF00550</title>
			<polygon class="PF00550" points="556,24 562,30 562,32 556,38" stroke-linejoin="round" width="6" height="26" fill="rgb(103,191,88)" stroke="rgb(82,152,70)" stroke-width="1" opacity="0.75" />
		</g>
	</g>
	<g>
		<title>barG</title>
		<polygon class="barG" points="567,16 825,16 825,1 855,31 825,61 825,46 567,46" fill="rgb(253,237,194)" fill-opacity="1.0" stroke="rgb(101,94,77)" stroke-width="1" />
		<g>
			<title>PF00668</title>
			<rect class="PF00668" x="572" y="18" stroke-linejoin="round" width="45" height="26" fill="rgb(224,184,98)" stroke="rgb(179,147,78)" stroke-width="1" opacity="0.75" />
		</g>
		<g>
			<title>PF00501</title>
			<rect class="PF00501" x="620" y="18" stroke-linejoin="round" width="39" height="26" fill="rgb(60,217,223)" stroke="rgb(48,173,178)" stroke-width="1" opacity="0.75" />
		</g>
		<g>
			<title>PF08241</title>
			<rect class="PF08241" x="671" y="18" stroke-linejoin="round" width="10" height="26" fill="rgb(106,219,159)" stroke="rgb(84,175,127)" stroke-width="1" opacity="0.75" />
		</g>
		<g>
			<title>PF00550</title>
			<rect class="PF00550" x="711" y="18" stroke-linejoin="round" width="6" height="26" fill="rgb(103,191,88)" stroke="rgb(82,152,70)" stroke-width="1" opacity="0.75" />
		</g>
		<g>
			<title>PF00668</title>
			<rect class="PF00668" x="721" y="18" stroke-linejoin="round" width="44" height="26" fill="rgb(224,184,98)" stroke="rgb(179,147,78)" stroke-width="1" opacity="0.75" />
		</g>
		<g>
			<title>PF00501</title>
			<rect class="PF00501" x="768" y="18" stroke-linejoin="round" width="39" height="26" fill="rgb(60,217,223)" stroke="rgb(48,173,178)" stroke-width="1" opacity="0.75" />
		</g>
		<g>
			<title>PF13193</title>
			<rect class="PF13193" x="809" y="18" stroke-linejoin="round" width="8" height="26" fill="rgb(182,50,118)" stroke="rgb(145,39,94)" stroke-width="1" opacity="0.75" />
		</g>
		<g>
			<title>PF00550</title>
			<rect class="PF00550" x="820" y="18" stroke-linejoin="round" width="6" height="26" fill="rgb(103,191,88)" stroke="rgb(82,152,70)" stroke-width="1" opacity="0.75" />
		</g>
		<g>
			<title>PF00975</title>
			<polygon class="PF00975" points="829,18 839,18 852,31 839,44 829,44" stroke-linejoin="round" width="25" height="26" fill="rgb(207,80,138)" stroke="rgb(165,63,110)" stroke-width="1" opacity="0.75" />
		</g>
	</g>
	<g>
		<title>barH</title>
		<polygon class="barH" points="857,16 863,16 863,1 893,31 863,61 863,46 857,46" fill="rgb(248,252,189)" fill-opacity="1.0" stroke="rgb(99,100,75)" stroke-width="1" />
		<g>
			<title>PF04909</title>
			<polygon class="PF04909" points="857,18 877,18 890,31 877,44 857,44" stroke-linejoin="round" width="35" height="26" fill="rgb(95,225,123)" stroke="rgb(76,180,98)" stroke-width="1" opacity="0.75" />
		</g>
	</g>
</svg>
