<svg version="1.1" baseProfile="full" xmlns="http://www.w3.org/2000/svg" width="675" height="62">
	<line x1="1" y1="31" x2="674" y2="31" style="stroke:rgb(50,50,50); stroke-width:3 "/>
	<g>
		<title>godR</title>
		<polygon class="godR" points="431,16 431,16 431,1 454,31 431,61 431,46 431,46" fill="rgb(251,200,251)" fill-opacity="1.0" stroke="rgb(100,80,100)" stroke-width="1" />
	</g>
	<g>
		<polygon class="NoName" points="480,16 480,16 480,1 496,31 480,61 480,46 480,46" fill="rgb(255,255,255)" fill-opacity="1.0" stroke="rgb(50,50,50)" stroke-width="1" />
		<g>
			<title>PF13340</title>
			<polygon class="PF13340" points="481,18 486,18 488,21 488,41 486,44 481,44" stroke-linejoin="round" width="7" height="26" fill="rgb(196,73,104)" stroke="rgb(156,58,83)" stroke-width="1" opacity="0.75" />
		</g>
	</g>
	<g>
		<polygon class="NoName" points="492,16 492,16 492,1 506,31 492,61 492,46 492,46" fill="rgb(255,255,255)" fill-opacity="1.0" stroke="rgb(50,50,50)" stroke-width="1" />
		<g>
			<title>PF01609</title>
			<polygon class="PF01609" points="492,18 497,18 503,31 497,44 492,44" stroke-linejoin="round" width="13" height="26" fill="rgb(229,102,99)" stroke="rgb(183,81,79)" stroke-width="1" opacity="0.75" />
		</g>
	</g>
	<g>
		<polygon class="NoName" points="539,16 539,16 539,1 509,31 539,61 539,46 539,46" fill="rgb(255,255,255)" fill-opacity="1.0" stroke="rgb(50,50,50)" stroke-width="1" />
		<g>
			<title>PF13359</title>
			<polygon class="PF13359" points="511,31 524,18 525,18 525,44 524,44" stroke-linejoin="round" width="16" height="26" fill="rgb(89,93,205)" stroke="rgb(71,74,164)" stroke-width="1" opacity="0.75" />
		</g>
		<g>
			<title>PF13613</title>
			<rect class="PF13613" x="528" y="18" stroke-linejoin="round" width="5" height="26" fill="rgb(71,220,91)" stroke="rgb(56,176,72)" stroke-width="1" opacity="0.75" />
		</g>
	</g>
	<g>
		<title>godI</title>
		<polygon class="godI" points="616,16 595,16 595,1 565,31 595,61 595,46 616,46" fill="rgb(183,189,253)" fill-opacity="1.0" stroke="rgb(73,75,101)" stroke-width="1" />
		<g>
			<title>PF02978</title>
			<polygon class="PF02978" points="574,24 580,18 583,18 583,44 580,44 574,37" stroke-linejoin="round" width="9" height="26" fill="rgb(109,179,74)" stroke="rgb(87,143,59)" stroke-width="1" opacity="0.75" />
		</g>
		<g>
			<title>PF00448</title>
			<rect class="PF00448" x="587" y="18" stroke-linejoin="round" width="19" height="26" fill="rgb(107,219,168)" stroke="rgb(85,175,134)" stroke-width="1" opacity="0.75" />
		</g>
		<g>
			<title>PF02881</title>
			<rect class="PF02881" x="608" y="18" stroke-linejoin="round" width="7" height="26" fill="rgb(179,66,186)" stroke="rgb(143,52,148)" stroke-width="1" opacity="0.75" />
		</g>
	</g>
	<g>
		<polygon class="NoName" points="632,16 632,16 632,1 625,31 632,61 632,46 632,46" fill="rgb(255,255,255)" fill-opacity="1.0" stroke="rgb(50,50,50)" stroke-width="1" />
	</g>
	<g>
		<polygon class="NoName" points="644,16 644,16 644,1 632,31 644,61 644,46 644,46" fill="rgb(255,255,255)" fill-opacity="1.0" stroke="rgb(50,50,50)" stroke-width="1" />
		<g>
			<title>PF13808</title>
			<polygon class="PF13808" points="635,28 639,18 644,18 644,44 639,44 635,33" stroke-linejoin="round" width="9" height="26" fill="rgb(95,129,194)" stroke="rgb(76,103,155)" stroke-width="1" opacity="0.75" />
		</g>
	</g>
	<g>
		<polygon class="NoName" points="1,16 1,16 1,1 8,31 1,61 1,46 1,46" fill="rgb(255,255,255)" fill-opacity="1.0" stroke="rgb(50,50,50)" stroke-width="1" />
	</g>
	<g>
		<title>godA</title>
		<polygon class="godA" points="20,16 20,16 20,1 25,31 20,61 20,46 20,46" fill="rgb(208,250,235)" fill-opacity="1.0" stroke="rgb(83,100,93)" stroke-width="1" />
	</g>
	<g>
		<title>godB</title>
		<polygon class="godB" points="44,16 69,16 69,1 99,31 69,61 69,46 44,46" fill="rgb(250,209,225)" fill-opacity="1.0" stroke="rgb(100,83,90)" stroke-width="1" />
		<g>
			<title>PF00005</title>
			<polygon class="PF00005" points="79,18 83,18 92,27 92,35 83,44 79,44" stroke-linejoin="round" width="13" height="26" fill="rgb(129,201,63)" stroke="rgb(103,160,50)" stroke-width="1" opacity="0.75" />
		</g>
	</g>
	<g>
		<title>godC</title>
		<polygon class="godC" points="99,16 124,16 124,1 154,31 124,61 124,46 99,46" fill="rgb(254,197,220)" fill-opacity="1.0" stroke="rgb(101,78,88)" stroke-width="1" />
		<g>
			<title>PF00005</title>
			<polygon class="PF00005" points="133,18 138,18 147,27 147,35 138,44 133,44" stroke-linejoin="round" width="14" height="26" fill="rgb(129,201,63)" stroke="rgb(103,160,50)" stroke-width="1" opacity="0.75" />
		</g>
	</g>
	<g>
		<title>godD</title>
		<polygon class="godD" points="160,16 203,16 203,1 233,31 203,61 203,46 160,46" fill="rgb(211,213,252)" fill-opacity="1.0" stroke="rgb(84,85,100)" stroke-width="1" />
		<g>
			<title>PF02624</title>
			<polygon class="PF02624" points="196,18 217,18 229,30 229,32 217,44 196,44" stroke-linejoin="round" width="33" height="26" fill="rgb(76,84,185)" stroke="rgb(60,67,148)" stroke-width="1" opacity="0.75" />
		</g>
	</g>
	<g>
		<title>godE</title>
		<polygon class="godE" points="233,16 255,16 255,1 285,31 255,61 255,46 233,46" fill="rgb(209,250,232)" fill-opacity="1.0" stroke="rgb(83,100,92)" stroke-width="1" />
		<g>
			<title>PF00881</title>
			<polygon class="PF00881" points="262,18 269,18 280,29 280,33 269,44 262,44" stroke-linejoin="round" width="18" height="26" fill="rgb(79,118,187)" stroke="rgb(63,94,149)" stroke-width="1" opacity="0.75" />
		</g>
	</g>
	<g>
		<title>godF</title>
		<polygon class="godF" points="285,16 341,16 341,1 371,31 341,61 341,46 285,46" fill="rgb(211,204,252)" fill-opacity="1.0" stroke="rgb(84,81,100)" stroke-width="1" />
	</g>
	<g>
		<title>godG</title>
		<polygon class="godG" points="378,16 378,16 378,1 401,31 378,61 378,46 378,46" fill="rgb(253,183,227)" fill-opacity="1.0" stroke="rgb(101,73,90)" stroke-width="1" />
		<g>
			<title>PF14028</title>
			<polygon class="PF14028" points="378,18 388,18 398,31 388,44 378,44" stroke-linejoin="round" width="22" height="26" fill="rgb(107,223,113)" stroke="rgb(85,178,90)" stroke-width="1" opacity="0.75" />
		</g>
	</g>
	<g>
		<title>godH</title>
		<polygon class="godH" points="400,16 400,16 400,1 422,31 400,61 400,46 400,46" fill="rgb(252,244,192)" fill-opacity="1.0" stroke="rgb(100,97,76)" stroke-width="1" />
		<g>
			<title>PF13302</title>
			<polygon class="PF13302" points="401,18 409,18 415,25 415,37 409,44 401,44" stroke-linejoin="round" width="14" height="26" fill="rgb(105,146,215)" stroke="rgb(84,116,172)" stroke-width="1" opacity="0.75" />
		</g>
	</g>
</svg>
