<svg version="1.1" baseProfile="full" xmlns="http://www.w3.org/2000/svg" width="3860" height="62">
	<line x1="1" y1="31" x2="3859" y2="31" style="stroke:rgb(50,50,50); stroke-width:3 "/>
	<g>
		<title>apoD2</title>
		<polygon class="apoD2" points="422,16 422,16 422,1 403,31 422,61 422,46 422,46" fill="rgb(191,201,250)" fill-opacity="1.0" stroke="rgb(76,80,100)" stroke-width="1" />
		<g>
			<title>PF00866</title>
			<polygon class="PF00866" points="405,31 413,18 417,18 417,44 413,44" stroke-linejoin="round" width="14" height="26" fill="rgb(202,87,131)" stroke="rgb(161,69,104)" stroke-width="1" opacity="0.75" />
		</g>
	</g>
	<g>
		<title>apoD3</title>
		<polygon class="apoD3" points="434,16 434,16 434,1 423,31 434,61 434,46 434,46" fill="rgb(196,224,254)" fill-opacity="1.0" stroke="rgb(78,89,101)" stroke-width="1" />
		<g>
			<title>PF00355</title>
			<polygon class="PF00355" points="425,31 430,18 432,18 432,44 430,44" stroke-linejoin="round" width="8" height="26" fill="rgb(186,77,145)" stroke="rgb(148,61,115)" stroke-width="1" opacity="0.75" />
		</g>
	</g>
	<g>
		<title>apoM4</title>
		<polygon class="apoM4" points="467,16 465,16 465,1 435,31 465,61 465,46 467,46" fill="rgb(220,253,190)" fill-opacity="1.0" stroke="rgb(88,101,76)" stroke-width="1" />
		<g>
			<title>PF08241</title>
			<polygon class="PF08241" points="446,22 450,18 455,18 455,44 450,44 446,39" stroke-linejoin="round" width="9" height="26" fill="rgb(106,219,159)" stroke="rgb(84,175,127)" stroke-width="1" opacity="0.75" />
		</g>
	</g>
	<g>
		<title>apoS11</title>
		<polygon class="apoS11" points="481,16 481,16 481,1 507,31 481,61 481,46 481,46" fill="rgb(180,193,254)" fill-opacity="1.0" stroke="rgb(72,77,101)" stroke-width="1" />
		<g>
			<title>PF00975</title>
			<polygon class="PF00975" points="484,18 493,18 504,31 493,44 484,44" stroke-linejoin="round" width="22" height="26" fill="rgb(207,80,138)" stroke="rgb(165,63,110)" stroke-width="1" opacity="0.75" />
		</g>
	</g>
	<g>
		<title>apoR4</title>
		<polygon class="apoR4" points="513,16 587,16 587,1 617,31 587,61 587,46 513,46" fill="rgb(204,254,232)" fill-opacity="1.0" stroke="rgb(81,101,92)" stroke-width="1" />
		<g>
			<title>PF00486</title>
			<rect class="PF00486" x="516" y="18" stroke-linejoin="round" width="7" height="26" fill="rgb(204,153,57)" stroke="rgb(163,122,45)" stroke-width="1" opacity="0.75" />
		</g>
		<g>
			<title>PF03704</title>
			<rect class="PF03704" x="524" y="18" stroke-linejoin="round" width="14" height="26" fill="rgb(217,89,196)" stroke="rgb(173,71,156)" stroke-width="1" opacity="0.75" />
		</g>
		<g>
			<title>PF00931</title>
			<rect class="PF00931" x="543" y="18" stroke-linejoin="round" width="27" height="26" fill="rgb(165,94,211)" stroke="rgb(132,75,168)" stroke-width="1" opacity="0.75" />
		</g>
	</g>
	<g>
		<title>apoM3</title>
		<polygon class="apoM3" points="623,16 623,16 623,1 649,31 623,61 623,46 623,46" fill="rgb(207,252,230)" fill-opacity="1.0" stroke="rgb(82,100,92)" stroke-width="1" />
		<g>
			<title>PF05050</title>
			<polygon class="PF05050" points="628,18 635,18 646,31 646,31 635,44 628,44" stroke-linejoin="round" width="18" height="26" fill="rgb(95,204,52)" stroke="rgb(76,163,41)" stroke-width="1" opacity="0.75" />
		</g>
	</g>
	<g>
		<title>apoM2</title>
		<polygon class="apoM2" points="654,16 654,16 654,1 671,31 654,61 654,46 654,46" fill="rgb(250,208,197)" fill-opacity="1.0" stroke="rgb(100,83,78)" stroke-width="1" />
		<g>
			<title>PF01596</title>
			<polygon class="PF01596" points="654,18 661,18 668,31 661,44 654,44" stroke-linejoin="round" width="17" height="26" fill="rgb(168,187,48)" stroke="rgb(134,149,38)" stroke-width="1" opacity="0.75" />
		</g>
	</g>
	<g>
		<title>apoE</title>
		<polygon class="apoE" points="716,16 710,16 710,1 680,31 710,61 710,46 716,46" fill="rgb(196,228,253)" fill-opacity="1.0" stroke="rgb(78,91,101)" stroke-width="1" />
	</g>
	<g>
		<title>apoI</title>
		<polygon class="apoI" points="753,16 746,16 746,1 716,31 746,61 746,46 753,46" fill="rgb(252,234,188)" fill-opacity="1.0" stroke="rgb(100,93,75)" stroke-width="1" />
		<g>
			<title>PF00441</title>
			<polygon class="PF00441" points="718,31 731,18 731,43" stroke-linejoin="round" width="14" height="26" fill="rgb(85,191,117)" stroke="rgb(68,152,93)" stroke-width="1" opacity="0.75" />
		</g>
		<g>
			<title>PF02770</title>
			<rect class="PF02770" x="733" y="18" stroke-linejoin="round" width="9" height="26" fill="rgb(225,186,97)" stroke="rgb(180,148,77)" stroke-width="1" opacity="0.75" />
		</g>
		<g>
			<title>PF02771</title>
			<rect class="PF02771" x="742" y="18" stroke-linejoin="round" width="10" height="26" fill="rgb(105,135,218)" stroke="rgb(84,108,174)" stroke-width="1" opacity="0.75" />
		</g>
	</g>
	<g>
		<title>apoJ</title>
		<polygon class="apoJ" points="762,16 762,16 762,1 753,31 762,61 762,46 762,46" fill="rgb(238,207,252)" fill-opacity="1.0" stroke="rgb(95,82,100)" stroke-width="1" />
		<g>
			<title>PF00550</title>
			<polygon class="PF00550" points="755,31 759,18 760,18 760,44 759,44" stroke-linejoin="round" width="6" height="26" fill="rgb(103,191,88)" stroke="rgb(82,152,70)" stroke-width="1" opacity="0.75" />
		</g>
	</g>
	<g>
		<title>apoF</title>
		<polygon class="apoF" points="1,16 19,16 19,1 49,31 19,61 19,46 1,46" fill="rgb(241,190,253)" fill-opacity="1.0" stroke="rgb(96,76,101)" stroke-width="1" />
		<g>
			<title>PF03403</title>
			<rect class="PF03403" x="13" y="18" stroke-linejoin="round" width="17" height="26" fill="rgb(179,184,62)" stroke="rgb(143,147,49)" stroke-width="1" opacity="0.75" />
		</g>
		<g>
			<title>PF03403</title>
			<polygon class="PF03403" points="32,18 33,18 46,31 33,44 32,44" stroke-linejoin="round" width="15" height="26" fill="rgb(179,184,62)" stroke="rgb(143,147,49)" stroke-width="1" opacity="0.75" />
		</g>
	</g>
	<g>
		<title>apoK</title>
		<polygon class="apoK" points="791,16 791,16 791,1 763,31 791,61 791,46 791,46" fill="rgb(253,214,179)" fill-opacity="1.0" stroke="rgb(101,85,71)" stroke-width="1" />
		<g>
			<title>PF00725</title>
			<polygon class="PF00725" points="765,31 772,24 772,37" stroke-linejoin="round" width="9" height="26" fill="rgb(180,78,60)" stroke="rgb(144,62,48)" stroke-width="1" opacity="0.75" />
		</g>
		<g>
			<title>PF02737</title>
			<polygon class="PF02737" points="773,23 777,18 790,18 790,44 777,44 773,38" stroke-linejoin="round" width="17" height="26" fill="rgb(212,65,199)" stroke="rgb(169,52,159)" stroke-width="1" opacity="0.75" />
		</g>
	</g>
	<g>
		<title>apoS10</title>
		<polygon class="apoS10" points="946,16 828,16 828,1 798,31 828,61 828,46 946,46" fill="rgb(254,212,191)" fill-opacity="1.0" stroke="rgb(101,84,76)" stroke-width="1" />
		<g>
			<title>PF08659</title>
			<polygon class="PF08659" points="804,27 813,18 820,18 820,44 813,44 804,34" stroke-linejoin="round" width="16" height="26" fill="rgb(66,209,188)" stroke="rgb(52,167,150)" stroke-width="1" opacity="0.75" />
		</g>
		<g>
			<title>PF14765</title>
			<rect class="PF14765" x="836" y="18" stroke-linejoin="round" width="26" height="26" fill="rgb(173,56,182)" stroke="rgb(138,44,145)" stroke-width="1" opacity="0.75" />
		</g>
		<g>
			<title>PF00698</title>
			<rect class="PF00698" x="866" y="18" stroke-linejoin="round" width="31" height="26" fill="rgb(59,176,209)" stroke="rgb(47,140,167)" stroke-width="1" opacity="0.75" />
		</g>
		<g>
			<title>PF16197</title>
			<rect class="PF16197" x="901" y="18" stroke-linejoin="round" width="10" height="26" fill="rgb(68,179,89)" stroke="rgb(54,143,71)" stroke-width="1" opacity="0.75" />
		</g>
		<g>
			<title>PF02801</title>
			<rect class="PF02801" x="913" y="18" stroke-linejoin="round" width="10" height="26" fill="rgb(215,78,102)" stroke="rgb(172,62,81)" stroke-width="1" opacity="0.75" />
		</g>
		<g>
			<title>PF00109</title>
			<rect class="PF00109" x="926" y="18" stroke-linejoin="round" width="16" height="26" fill="rgb(112,116,228)" stroke="rgb(89,92,182)" stroke-width="1" opacity="0.75" />
		</g>
		<g>
			<title>PF08990</title>
			<rect class="PF08990" x="944" y="18" stroke-linejoin="round" width="2" height="26" fill="rgb(180,75,55)" stroke="rgb(144,60,44)" stroke-width="1" opacity="0.75" />
		</g>
	</g>
	<g>
		<title>apoR3</title>
		<polygon class="apoR3" points="991,16 987,16 987,1 957,31 987,61 987,46 991,46" fill="rgb(196,251,195)" fill-opacity="1.0" stroke="rgb(78,100,78)" stroke-width="1" />
		<g>
			<title>PF02195</title>
			<rect class="PF02195" x="980" y="18" stroke-linejoin="round" width="8" height="26" fill="rgb(55,214,209)" stroke="rgb(44,171,167)" stroke-width="1" opacity="0.75" />
		</g>
	</g>
	<g>
		<title>apoR2</title>
		<polygon class="apoR2" points="1076,16 1036,16 1036,1 1006,31 1036,61 1036,46 1076,46" fill="rgb(192,228,254)" fill-opacity="1.0" stroke="rgb(76,91,101)" stroke-width="1" />
		<g>
			<title>PF00931</title>
			<rect class="PF00931" x="1023" y="18" stroke-linejoin="round" width="27" height="26" fill="rgb(165,94,211)" stroke="rgb(132,75,168)" stroke-width="1" opacity="0.75" />
		</g>
		<g>
			<title>PF03704</title>
			<rect class="PF03704" x="1053" y="18" stroke-linejoin="round" width="14" height="26" fill="rgb(217,89,196)" stroke="rgb(173,71,156)" stroke-width="1" opacity="0.75" />
		</g>
		<g>
			<title>PF00486</title>
			<rect class="PF00486" x="1069" y="18" stroke-linejoin="round" width="7" height="26" fill="rgb(204,153,57)" stroke="rgb(163,122,45)" stroke-width="1" opacity="0.75" />
		</g>
	</g>
	<g>
		<title>apoC</title>
		<polygon class="apoC" points="1126,16 1123,16 1123,1 1093,31 1123,61 1123,46 1126,46" fill="rgb(233,252,186)" fill-opacity="1.0" stroke="rgb(93,100,74)" stroke-width="1" />
		<g>
			<title>PF02894</title>
			<polygon class="PF02894" points="1102,24 1108,18 1112,18 1112,44 1108,44 1102,37" stroke-linejoin="round" width="10" height="26" fill="rgb(195,223,82)" stroke="rgb(155,178,65)" stroke-width="1" opacity="0.75" />
		</g>
		<g>
			<title>PF01408</title>
			<rect class="PF01408" x="1114" y="18" stroke-linejoin="round" width="12" height="26" fill="rgb(76,117,190)" stroke="rgb(60,93,152)" stroke-width="1" opacity="0.75" />
		</g>
	</g>
	<g>
		<title>apoB</title>
		<polygon class="apoB" points="1184,16 1158,16 1158,1 1128,31 1158,61 1158,46 1184,46" fill="rgb(204,251,198)" fill-opacity="1.0" stroke="rgb(81,100,79)" stroke-width="1" />
		<g>
			<title>PF05199</title>
			<polygon class="PF05199" points="1130,31 1140,21 1140,40" stroke-linejoin="round" width="12" height="26" fill="rgb(186,52,106)" stroke="rgb(148,41,84)" stroke-width="1" opacity="0.75" />
		</g>
		<g>
			<title>PF00732</title>
			<rect class="PF00732" x="1150" y="18" stroke-linejoin="round" width="31" height="26" fill="rgb(180,89,214)" stroke="rgb(143,71,171)" stroke-width="1" opacity="0.75" />
		</g>
	</g>
	<g>
		<title>apoG</title>
		<polygon class="apoG" points="1188,16 1188,16 1188,1 1206,31 1188,61 1188,46 1188,46" fill="rgb(176,177,251)" fill-opacity="1.0" stroke="rgb(70,70,100)" stroke-width="1" />
		<g>
			<title>PF08327</title>
			<polygon class="PF08327" points="1191,18 1195,18 1202,29 1202,33 1195,44 1191,44" stroke-linejoin="round" width="11" height="26" fill="rgb(81,199,171)" stroke="rgb(64,159,136)" stroke-width="1" opacity="0.75" />
		</g>
	</g>
	<g>
		<title>apoP</title>
		<polygon class="apoP" points="1252,16 1243,16 1243,1 1213,31 1243,61 1243,46 1252,46" fill="rgb(205,195,253)" fill-opacity="1.0" stroke="rgb(82,78,101)" stroke-width="1" />
		<g>
			<title>PF00067</title>
			<polygon class="PF00067" points="1215,31 1228,18 1249,18 1249,44 1228,44" stroke-linejoin="round" width="36" height="26" fill="rgb(85,216,107)" stroke="rgb(68,172,85)" stroke-width="1" opacity="0.75" />
		</g>
	</g>
	<g>
		<title>apoS8</title>
		<polygon class="apoS8" points="1441,16 1284,16 1284,1 1254,31 1284,61 1284,46 1441,46" fill="rgb(202,251,198)" fill-opacity="1.0" stroke="rgb(80,100,79)" stroke-width="1" />
		<g>
			<title>PF00975</title>
			<polygon class="PF00975" points="1256,31 1269,18 1276,18 1276,44 1269,44" stroke-linejoin="round" width="21" height="26" fill="rgb(207,80,138)" stroke="rgb(165,63,110)" stroke-width="1" opacity="0.75" />
		</g>
		<g>
			<title>PF00550</title>
			<rect class="PF00550" x="1285" y="18" stroke-linejoin="round" width="6" height="26" fill="rgb(103,191,88)" stroke="rgb(82,152,70)" stroke-width="1" opacity="0.75" />
		</g>
		<g>
			<title>PF08659</title>
			<rect class="PF08659" x="1302" y="18" stroke-linejoin="round" width="17" height="26" fill="rgb(66,209,188)" stroke="rgb(52,167,150)" stroke-width="1" opacity="0.75" />
		</g>
		<g>
			<title>PF14765</title>
			<rect class="PF14765" x="1341" y="18" stroke-linejoin="round" width="27" height="26" fill="rgb(173,56,182)" stroke="rgb(138,44,145)" stroke-width="1" opacity="0.75" />
		</g>
		<g>
			<title>PF00698</title>
			<rect class="PF00698" x="1373" y="18" stroke-linejoin="round" width="31" height="26" fill="rgb(59,176,209)" stroke="rgb(47,140,167)" stroke-width="1" opacity="0.75" />
		</g>
		<g>
			<title>PF16197</title>
			<rect class="PF16197" x="1408" y="18" stroke-linejoin="round" width="11" height="26" fill="rgb(68,179,89)" stroke="rgb(54,143,71)" stroke-width="1" opacity="0.75" />
		</g>
		<g>
			<title>PF02801</title>
			<rect class="PF02801" x="1419" y="18" stroke-linejoin="round" width="11" height="26" fill="rgb(215,78,102)" stroke="rgb(172,62,81)" stroke-width="1" opacity="0.75" />
		</g>
		<g>
			<title>PF00109</title>
			<rect class="PF00109" x="1432" y="18" stroke-linejoin="round" width="9" height="26" fill="rgb(112,116,228)" stroke="rgb(89,92,182)" stroke-width="1" opacity="0.75" />
		</g>
	</g>
	<g>
		<title>apoGT1</title>
		<polygon class="apoGT1" points="1499,16 1492,16 1492,1 1462,31 1492,61 1492,46 1499,46" fill="rgb(189,185,254)" fill-opacity="1.0" stroke="rgb(75,74,101)" stroke-width="1" />
		<g>
			<title>PF06722</title>
			<polygon class="PF06722" points="1473,22 1477,18 1482,18 1482,44 1477,44 1473,39" stroke-linejoin="round" width="9" height="26" fill="rgb(200,129,88)" stroke="rgb(160,103,70)" stroke-width="1" opacity="0.75" />
		</g>
	</g>
	<g>
		<title>apoH4</title>
		<polygon class="apoH4" points="82,16 79,16 79,1 49,31 79,61 79,46 82,46" fill="rgb(194,252,231)" fill-opacity="1.0" stroke="rgb(77,100,92)" stroke-width="1" />
		<g>
			<title>PF01370</title>
			<polygon class="PF01370" points="57,25 64,18 81,18 81,44 64,44 57,36" stroke-linejoin="round" width="24" height="26" fill="rgb(98,102,214)" stroke="rgb(78,81,171)" stroke-width="1" opacity="0.75" />
		</g>
	</g>
	<g>
		<title>apoS7</title>
		<polygon class="apoS7" points="1851,16 1531,16 1531,1 1501,31 1531,61 1531,46 1851,46" fill="rgb(234,182,250)" fill-opacity="1.0" stroke="rgb(93,72,100)" stroke-width="1" />
		<g>
			<title>PF00550</title>
			<polygon class="PF00550" points="1508,26 1514,20 1514,41 1508,35" stroke-linejoin="round" width="6" height="26" fill="rgb(103,191,88)" stroke="rgb(82,152,70)" stroke-width="1" opacity="0.75" />
		</g>
		<g>
			<title>PF08659</title>
			<rect class="PF08659" x="1525" y="18" stroke-linejoin="round" width="17" height="26" fill="rgb(66,209,188)" stroke="rgb(52,167,150)" stroke-width="1" opacity="0.75" />
		</g>
		<g>
			<title>PF14765</title>
			<rect class="PF14765" x="1561" y="18" stroke-linejoin="round" width="27" height="26" fill="rgb(173,56,182)" stroke="rgb(138,44,145)" stroke-width="1" opacity="0.75" />
		</g>
		<g>
			<title>PF00698</title>
			<rect class="PF00698" x="1593" y="18" stroke-linejoin="round" width="31" height="26" fill="rgb(59,176,209)" stroke="rgb(47,140,167)" stroke-width="1" opacity="0.75" />
		</g>
		<g>
			<title>PF16197</title>
			<rect class="PF16197" x="1629" y="18" stroke-linejoin="round" width="11" height="26" fill="rgb(68,179,89)" stroke="rgb(54,143,71)" stroke-width="1" opacity="0.75" />
		</g>
		<g>
			<title>PF02801</title>
			<rect class="PF02801" x="1640" y="18" stroke-linejoin="round" width="11" height="26" fill="rgb(215,78,102)" stroke="rgb(172,62,81)" stroke-width="1" opacity="0.75" />
		</g>
		<g>
			<title>PF00109</title>
			<rect class="PF00109" x="1653" y="18" stroke-linejoin="round" width="25" height="26" fill="rgb(112,116,228)" stroke="rgb(89,92,182)" stroke-width="1" opacity="0.75" />
		</g>
		<g>
			<title>PF00550</title>
			<rect class="PF00550" x="1680" y="18" stroke-linejoin="round" width="6" height="26" fill="rgb(103,191,88)" stroke="rgb(82,152,70)" stroke-width="1" opacity="0.75" />
		</g>
		<g>
			<title>PF08659</title>
			<rect class="PF08659" x="1697" y="18" stroke-linejoin="round" width="17" height="26" fill="rgb(66,209,188)" stroke="rgb(52,167,150)" stroke-width="1" opacity="0.75" />
		</g>
		<g>
			<title>PF14765</title>
			<rect class="PF14765" x="1732" y="18" stroke-linejoin="round" width="27" height="26" fill="rgb(173,56,182)" stroke="rgb(138,44,145)" stroke-width="1" opacity="0.75" />
		</g>
		<g>
			<title>PF00698</title>
			<rect class="PF00698" x="1764" y="18" stroke-linejoin="round" width="31" height="26" fill="rgb(59,176,209)" stroke="rgb(47,140,167)" stroke-width="1" opacity="0.75" />
		</g>
		<g>
			<title>PF16197</title>
			<rect class="PF16197" x="1798" y="18" stroke-linejoin="round" width="11" height="26" fill="rgb(68,179,89)" stroke="rgb(54,143,71)" stroke-width="1" opacity="0.75" />
		</g>
		<g>
			<title>PF02801</title>
			<rect class="PF02801" x="1810" y="18" stroke-linejoin="round" width="11" height="26" fill="rgb(215,78,102)" stroke="rgb(172,62,81)" stroke-width="1" opacity="0.75" />
		</g>
		<g>
			<title>PF00109</title>
			<rect class="PF00109" x="1822" y="18" stroke-linejoin="round" width="25" height="26" fill="rgb(112,116,228)" stroke="rgb(89,92,182)" stroke-width="1" opacity="0.75" />
		</g>
		<g>
			<title>PF08990</title>
			<rect class="PF08990" x="1848" y="18" stroke-linejoin="round" width="2" height="26" fill="rgb(180,75,55)" stroke="rgb(144,60,44)" stroke-width="1" opacity="0.75" />
		</g>
	</g>
	<g>
		<title>apoS6</title>
		<polygon class="apoS6" points="2183,16 1882,16 1882,1 1852,31 1882,61 1882,46 2183,46" fill="rgb(253,240,188)" fill-opacity="1.0" stroke="rgb(101,96,75)" stroke-width="1" />
		<g>
			<title>PF00550</title>
			<polygon class="PF00550" points="1860,25 1866,19 1866,42 1860,36" stroke-linejoin="round" width="6" height="26" fill="rgb(103,191,88)" stroke="rgb(82,152,70)" stroke-width="1" opacity="0.75" />
		</g>
		<g>
			<title>PF08659</title>
			<rect class="PF08659" x="1876" y="18" stroke-linejoin="round" width="17" height="26" fill="rgb(66,209,188)" stroke="rgb(52,167,150)" stroke-width="1" opacity="0.75" />
		</g>
		<g>
			<title>PF00698</title>
			<rect class="PF00698" x="1925" y="18" stroke-linejoin="round" width="31" height="26" fill="rgb(59,176,209)" stroke="rgb(47,140,167)" stroke-width="1" opacity="0.75" />
		</g>
		<g>
			<title>PF16197</title>
			<rect class="PF16197" x="1959" y="18" stroke-linejoin="round" width="11" height="26" fill="rgb(68,179,89)" stroke="rgb(54,143,71)" stroke-width="1" opacity="0.75" />
		</g>
		<g>
			<title>PF02801</title>
			<rect class="PF02801" x="1970" y="18" stroke-linejoin="round" width="11" height="26" fill="rgb(215,78,102)" stroke="rgb(172,62,81)" stroke-width="1" opacity="0.75" />
		</g>
		<g>
			<title>PF00109</title>
			<rect class="PF00109" x="1983" y="18" stroke-linejoin="round" width="25" height="26" fill="rgb(112,116,228)" stroke="rgb(89,92,182)" stroke-width="1" opacity="0.75" />
		</g>
		<g>
			<title>PF00550</title>
			<rect class="PF00550" x="2010" y="18" stroke-linejoin="round" width="6" height="26" fill="rgb(103,191,88)" stroke="rgb(82,152,70)" stroke-width="1" opacity="0.75" />
		</g>
		<g>
			<title>PF08659</title>
			<rect class="PF08659" x="2027" y="18" stroke-linejoin="round" width="17" height="26" fill="rgb(66,209,188)" stroke="rgb(52,167,150)" stroke-width="1" opacity="0.75" />
		</g>
		<g>
			<title>PF14765</title>
			<rect class="PF14765" x="2067" y="18" stroke-linejoin="round" width="26" height="26" fill="rgb(173,56,182)" stroke="rgb(138,44,145)" stroke-width="1" opacity="0.75" />
		</g>
		<g>
			<title>PF00698</title>
			<rect class="PF00698" x="2099" y="18" stroke-linejoin="round" width="30" height="26" fill="rgb(59,176,209)" stroke="rgb(47,140,167)" stroke-width="1" opacity="0.75" />
		</g>
		<g>
			<title>PF16197</title>
			<rect class="PF16197" x="2132" y="18" stroke-linejoin="round" width="11" height="26" fill="rgb(68,179,89)" stroke="rgb(54,143,71)" stroke-width="1" opacity="0.75" />
		</g>
		<g>
			<title>PF02801</title>
			<rect class="PF02801" x="2144" y="18" stroke-linejoin="round" width="11" height="26" fill="rgb(215,78,102)" stroke="rgb(172,62,81)" stroke-width="1" opacity="0.75" />
		</g>
		<g>
			<title>PF00109</title>
			<rect class="PF00109" x="2156" y="18" stroke-linejoin="round" width="23" height="26" fill="rgb(112,116,228)" stroke="rgb(89,92,182)" stroke-width="1" opacity="0.75" />
		</g>
	</g>
	<g>
		<title>apoS5</title>
		<polygon class="apoS5" points="2709,16 2213,16 2213,1 2183,31 2213,61 2213,46 2709,46" fill="rgb(207,250,236)" fill-opacity="1.0" stroke="rgb(82,100,94)" stroke-width="1" />
		<g>
			<title>PF00550</title>
			<polygon class="PF00550" points="2191,25 2197,19 2197,42 2191,36" stroke-linejoin="round" width="6" height="26" fill="rgb(103,191,88)" stroke="rgb(82,152,70)" stroke-width="1" opacity="0.75" />
		</g>
		<g>
			<title>PF08659</title>
			<rect class="PF08659" x="2209" y="18" stroke-linejoin="round" width="17" height="26" fill="rgb(66,209,188)" stroke="rgb(52,167,150)" stroke-width="1" opacity="0.75" />
		</g>
		<g>
			<title>PF14765</title>
			<rect class="PF14765" x="2245" y="18" stroke-linejoin="round" width="27" height="26" fill="rgb(173,56,182)" stroke="rgb(138,44,145)" stroke-width="1" opacity="0.75" />
		</g>
		<g>
			<title>PF00698</title>
			<rect class="PF00698" x="2277" y="18" stroke-linejoin="round" width="31" height="26" fill="rgb(59,176,209)" stroke="rgb(47,140,167)" stroke-width="1" opacity="0.75" />
		</g>
		<g>
			<title>PF16197</title>
			<rect class="PF16197" x="2311" y="18" stroke-linejoin="round" width="11" height="26" fill="rgb(68,179,89)" stroke="rgb(54,143,71)" stroke-width="1" opacity="0.75" />
		</g>
		<g>
			<title>PF02801</title>
			<rect class="PF02801" x="2323" y="18" stroke-linejoin="round" width="11" height="26" fill="rgb(215,78,102)" stroke="rgb(172,62,81)" stroke-width="1" opacity="0.75" />
		</g>
		<g>
			<title>PF00109</title>
			<rect class="PF00109" x="2336" y="18" stroke-linejoin="round" width="25" height="26" fill="rgb(112,116,228)" stroke="rgb(89,92,182)" stroke-width="1" opacity="0.75" />
		</g>
		<g>
			<title>PF00550</title>
			<rect class="PF00550" x="2363" y="18" stroke-linejoin="round" width="6" height="26" fill="rgb(103,191,88)" stroke="rgb(82,152,70)" stroke-width="1" opacity="0.75" />
		</g>
		<g>
			<title>PF08659</title>
			<rect class="PF08659" x="2380" y="18" stroke-linejoin="round" width="17" height="26" fill="rgb(66,209,188)" stroke="rgb(52,167,150)" stroke-width="1" opacity="0.75" />
		</g>
		<g>
			<title>PF13602</title>
			<rect class="PF13602" x="2399" y="18" stroke-linejoin="round" width="13" height="26" fill="rgb(101,131,226)" stroke="rgb(80,104,180)" stroke-width="1" opacity="0.75" />
		</g>
		<g>
			<title>PF14765</title>
			<rect class="PF14765" x="2448" y="18" stroke-linejoin="round" width="27" height="26" fill="rgb(173,56,182)" stroke="rgb(138,44,145)" stroke-width="1" opacity="0.75" />
		</g>
		<g>
			<title>PF00698</title>
			<rect class="PF00698" x="2481" y="18" stroke-linejoin="round" width="31" height="26" fill="rgb(59,176,209)" stroke="rgb(47,140,167)" stroke-width="1" opacity="0.75" />
		</g>
		<g>
			<title>PF16197</title>
			<rect class="PF16197" x="2515" y="18" stroke-linejoin="round" width="11" height="26" fill="rgb(68,179,89)" stroke="rgb(54,143,71)" stroke-width="1" opacity="0.75" />
		</g>
		<g>
			<title>PF02801</title>
			<rect class="PF02801" x="2526" y="18" stroke-linejoin="round" width="11" height="26" fill="rgb(215,78,102)" stroke="rgb(172,62,81)" stroke-width="1" opacity="0.75" />
		</g>
		<g>
			<title>PF00109</title>
			<rect class="PF00109" x="2539" y="18" stroke-linejoin="round" width="25" height="26" fill="rgb(112,116,228)" stroke="rgb(89,92,182)" stroke-width="1" opacity="0.75" />
		</g>
		<g>
			<title>PF00550</title>
			<rect class="PF00550" x="2566" y="18" stroke-linejoin="round" width="6" height="26" fill="rgb(103,191,88)" stroke="rgb(82,152,70)" stroke-width="1" opacity="0.75" />
		</g>
		<g>
			<title>PF08659</title>
			<rect class="PF08659" x="2583" y="18" stroke-linejoin="round" width="17" height="26" fill="rgb(66,209,188)" stroke="rgb(52,167,150)" stroke-width="1" opacity="0.75" />
		</g>
		<g>
			<title>PF00698</title>
			<rect class="PF00698" x="2625" y="18" stroke-linejoin="round" width="30" height="26" fill="rgb(59,176,209)" stroke="rgb(47,140,167)" stroke-width="1" opacity="0.75" />
		</g>
		<g>
			<title>PF16197</title>
			<rect class="PF16197" x="2658" y="18" stroke-linejoin="round" width="11" height="26" fill="rgb(68,179,89)" stroke="rgb(54,143,71)" stroke-width="1" opacity="0.75" />
		</g>
		<g>
			<title>PF02801</title>
			<rect class="PF02801" x="2669" y="18" stroke-linejoin="round" width="11" height="26" fill="rgb(215,78,102)" stroke="rgb(172,62,81)" stroke-width="1" opacity="0.75" />
		</g>
		<g>
			<title>PF00109</title>
			<rect class="PF00109" x="2682" y="18" stroke-linejoin="round" width="24" height="26" fill="rgb(112,116,228)" stroke="rgb(89,92,182)" stroke-width="1" opacity="0.75" />
		</g>
		<g>
			<title>PF08990</title>
			<rect class="PF08990" x="2707" y="18" stroke-linejoin="round" width="2" height="26" fill="rgb(180,75,55)" stroke="rgb(144,60,44)" stroke-width="1" opacity="0.75" />
		</g>
	</g>
	<g>
		<title>apoS4</title>
		<polygon class="apoS4" points="2823,16 2741,16 2741,1 2711,31 2741,61 2741,46 2823,46" fill="rgb(213,251,249)" fill-opacity="1.0" stroke="rgb(85,100,99)" stroke-width="1" />
		<g>
			<title>PF00550</title>
			<polygon class="PF00550" points="2719,25 2725,19 2725,42 2719,36" stroke-linejoin="round" width="6" height="26" fill="rgb(103,191,88)" stroke="rgb(82,152,70)" stroke-width="1" opacity="0.75" />
		</g>
		<g>
			<title>PF08659</title>
			<rect class="PF08659" x="2736" y="18" stroke-linejoin="round" width="17" height="26" fill="rgb(66,209,188)" stroke="rgb(52,167,150)" stroke-width="1" opacity="0.75" />
		</g>
		<g>
			<title>PF00698</title>
			<rect class="PF00698" x="2785" y="18" stroke-linejoin="round" width="30" height="26" fill="rgb(59,176,209)" stroke="rgb(47,140,167)" stroke-width="1" opacity="0.75" />
		</g>
	</g>
	<g>
		<title>apoS3</title>
		<polygon class="apoS3" points="2871,16 2856,16 2856,1 2826,31 2856,61 2856,46 2871,46" fill="rgb(244,252,179)" fill-opacity="1.0" stroke="rgb(97,100,71)" stroke-width="1" />
		<g>
			<title>PF16197</title>
			<polygon class="PF16197" points="2828,31 2830,29 2830,32" stroke-linejoin="round" width="4" height="26" fill="rgb(68,179,89)" stroke="rgb(54,143,71)" stroke-width="1" opacity="0.75" />
		</g>
		<g>
			<title>PF02801</title>
			<polygon class="PF02801" points="2830,29 2841,18 2841,43 2830,32" stroke-linejoin="round" width="11" height="26" fill="rgb(215,78,102)" stroke="rgb(172,62,81)" stroke-width="1" opacity="0.75" />
		</g>
		<g>
			<title>PF00109</title>
			<rect class="PF00109" x="2843" y="18" stroke-linejoin="round" width="25" height="26" fill="rgb(112,116,228)" stroke="rgb(89,92,182)" stroke-width="1" opacity="0.75" />
		</g>
		<g>
			<title>PF08990</title>
			<rect class="PF08990" x="2868" y="18" stroke-linejoin="round" width="2" height="26" fill="rgb(180,75,55)" stroke="rgb(144,60,44)" stroke-width="1" opacity="0.75" />
		</g>
	</g>
	<g>
		<title>apoS2</title>
		<polygon class="apoS2" points="3051,16 2903,16 2903,1 2873,31 2903,61 2903,46 3051,46" fill="rgb(185,211,254)" fill-opacity="1.0" stroke="rgb(74,84,101)" stroke-width="1" />
		<g>
			<title>PF00550</title>
			<polygon class="PF00550" points="2881,25 2887,19 2887,42 2881,36" stroke-linejoin="round" width="6" height="26" fill="rgb(103,191,88)" stroke="rgb(82,152,70)" stroke-width="1" opacity="0.75" />
		</g>
		<g>
			<title>PF08659</title>
			<rect class="PF08659" x="2898" y="18" stroke-linejoin="round" width="17" height="26" fill="rgb(66,209,188)" stroke="rgb(52,167,150)" stroke-width="1" opacity="0.75" />
		</g>
		<g>
			<title>PF14765</title>
			<rect class="PF14765" x="2934" y="18" stroke-linejoin="round" width="26" height="26" fill="rgb(173,56,182)" stroke="rgb(138,44,145)" stroke-width="1" opacity="0.75" />
		</g>
		<g>
			<title>PF00698</title>
			<rect class="PF00698" x="2966" y="18" stroke-linejoin="round" width="30" height="26" fill="rgb(59,176,209)" stroke="rgb(47,140,167)" stroke-width="1" opacity="0.75" />
		</g>
		<g>
			<title>PF16197</title>
			<rect class="PF16197" x="2999" y="18" stroke-linejoin="round" width="11" height="26" fill="rgb(68,179,89)" stroke="rgb(54,143,71)" stroke-width="1" opacity="0.75" />
		</g>
		<g>
			<title>PF02801</title>
			<rect class="PF02801" x="3011" y="18" stroke-linejoin="round" width="11" height="26" fill="rgb(215,78,102)" stroke="rgb(172,62,81)" stroke-width="1" opacity="0.75" />
		</g>
		<g>
			<title>PF00109</title>
			<rect class="PF00109" x="3023" y="18" stroke-linejoin="round" width="24" height="26" fill="rgb(112,116,228)" stroke="rgb(89,92,182)" stroke-width="1" opacity="0.75" />
		</g>
		<g>
			<title>PF08990</title>
			<rect class="PF08990" x="3049" y="18" stroke-linejoin="round" width="2" height="26" fill="rgb(180,75,55)" stroke="rgb(144,60,44)" stroke-width="1" opacity="0.75" />
		</g>
	</g>
	<g>
		<title>apoS1</title>
		<polygon class="apoS1" points="3679,16 3083,16 3083,1 3053,31 3083,61 3083,46 3679,46" fill="rgb(208,254,194)" fill-opacity="1.0" stroke="rgb(83,101,77)" stroke-width="1" />
		<g>
			<title>PF00550</title>
			<polygon class="PF00550" points="3061,25 3067,19 3067,42 3061,36" stroke-linejoin="round" width="6" height="26" fill="rgb(103,191,88)" stroke="rgb(82,152,70)" stroke-width="1" opacity="0.75" />
		</g>
		<g>
			<title>PF08659</title>
			<rect class="PF08659" x="3078" y="18" stroke-linejoin="round" width="17" height="26" fill="rgb(66,209,188)" stroke="rgb(52,167,150)" stroke-width="1" opacity="0.75" />
		</g>
		<g>
			<title>PF00698</title>
			<rect class="PF00698" x="3126" y="18" stroke-linejoin="round" width="31" height="26" fill="rgb(59,176,209)" stroke="rgb(47,140,167)" stroke-width="1" opacity="0.75" />
		</g>
		<g>
			<title>PF16197</title>
			<rect class="PF16197" x="3161" y="18" stroke-linejoin="round" width="11" height="26" fill="rgb(68,179,89)" stroke="rgb(54,143,71)" stroke-width="1" opacity="0.75" />
		</g>
		<g>
			<title>PF02801</title>
			<rect class="PF02801" x="3173" y="18" stroke-linejoin="round" width="11" height="26" fill="rgb(215,78,102)" stroke="rgb(172,62,81)" stroke-width="1" opacity="0.75" />
		</g>
		<g>
			<title>PF00109</title>
			<rect class="PF00109" x="3185" y="18" stroke-linejoin="round" width="24" height="26" fill="rgb(112,116,228)" stroke="rgb(89,92,182)" stroke-width="1" opacity="0.75" />
		</g>
		<g>
			<title>PF00550</title>
			<rect class="PF00550" x="3212" y="18" stroke-linejoin="round" width="6" height="26" fill="rgb(103,191,88)" stroke="rgb(82,152,70)" stroke-width="1" opacity="0.75" />
		</g>
		<g>
			<title>PF08659</title>
			<rect class="PF08659" x="3229" y="18" stroke-linejoin="round" width="17" height="26" fill="rgb(66,209,188)" stroke="rgb(52,167,150)" stroke-width="1" opacity="0.75" />
		</g>
		<g>
			<title>PF00698</title>
			<rect class="PF00698" x="3276" y="18" stroke-linejoin="round" width="31" height="26" fill="rgb(59,176,209)" stroke="rgb(47,140,167)" stroke-width="1" opacity="0.75" />
		</g>
		<g>
			<title>PF16197</title>
			<rect class="PF16197" x="3310" y="18" stroke-linejoin="round" width="11" height="26" fill="rgb(68,179,89)" stroke="rgb(54,143,71)" stroke-width="1" opacity="0.75" />
		</g>
		<g>
			<title>PF02801</title>
			<rect class="PF02801" x="3321" y="18" stroke-linejoin="round" width="11" height="26" fill="rgb(215,78,102)" stroke="rgb(172,62,81)" stroke-width="1" opacity="0.75" />
		</g>
		<g>
			<title>PF00109</title>
			<rect class="PF00109" x="3334" y="18" stroke-linejoin="round" width="25" height="26" fill="rgb(112,116,228)" stroke="rgb(89,92,182)" stroke-width="1" opacity="0.75" />
		</g>
		<g>
			<title>PF00550</title>
			<rect class="PF00550" x="3361" y="18" stroke-linejoin="round" width="6" height="26" fill="rgb(103,191,88)" stroke="rgb(82,152,70)" stroke-width="1" opacity="0.75" />
		</g>
		<g>
			<title>PF08659</title>
			<rect class="PF08659" x="3377" y="18" stroke-linejoin="round" width="17" height="26" fill="rgb(66,209,188)" stroke="rgb(52,167,150)" stroke-width="1" opacity="0.75" />
		</g>
		<g>
			<title>PF14765</title>
			<rect class="PF14765" x="3413" y="18" stroke-linejoin="round" width="26" height="26" fill="rgb(173,56,182)" stroke="rgb(138,44,145)" stroke-width="1" opacity="0.75" />
		</g>
		<g>
			<title>PF00698</title>
			<rect class="PF00698" x="3444" y="18" stroke-linejoin="round" width="31" height="26" fill="rgb(59,176,209)" stroke="rgb(47,140,167)" stroke-width="1" opacity="0.75" />
		</g>
		<g>
			<title>PF16197</title>
			<rect class="PF16197" x="3478" y="18" stroke-linejoin="round" width="11" height="26" fill="rgb(68,179,89)" stroke="rgb(54,143,71)" stroke-width="1" opacity="0.75" />
		</g>
		<g>
			<title>PF02801</title>
			<rect class="PF02801" x="3490" y="18" stroke-linejoin="round" width="11" height="26" fill="rgb(215,78,102)" stroke="rgb(172,62,81)" stroke-width="1" opacity="0.75" />
		</g>
		<g>
			<title>PF00109</title>
			<rect class="PF00109" x="3502" y="18" stroke-linejoin="round" width="24" height="26" fill="rgb(112,116,228)" stroke="rgb(89,92,182)" stroke-width="1" opacity="0.75" />
		</g>
		<g>
			<title>PF00550</title>
			<rect class="PF00550" x="3528" y="18" stroke-linejoin="round" width="6" height="26" fill="rgb(103,191,88)" stroke="rgb(82,152,70)" stroke-width="1" opacity="0.75" />
		</g>
		<g>
			<title>PF08659</title>
			<rect class="PF08659" x="3545" y="18" stroke-linejoin="round" width="17" height="26" fill="rgb(66,209,188)" stroke="rgb(52,167,150)" stroke-width="1" opacity="0.75" />
		</g>
		<g>
			<title>PF00698</title>
			<rect class="PF00698" x="3592" y="18" stroke-linejoin="round" width="32" height="26" fill="rgb(59,176,209)" stroke="rgb(47,140,167)" stroke-width="1" opacity="0.75" />
		</g>
		<g>
			<title>PF16197</title>
			<rect class="PF16197" x="3628" y="18" stroke-linejoin="round" width="11" height="26" fill="rgb(68,179,89)" stroke="rgb(54,143,71)" stroke-width="1" opacity="0.75" />
		</g>
		<g>
			<title>PF02801</title>
			<rect class="PF02801" x="3639" y="18" stroke-linejoin="round" width="11" height="26" fill="rgb(215,78,102)" stroke="rgb(172,62,81)" stroke-width="1" opacity="0.75" />
		</g>
		<g>
			<title>PF00109</title>
			<rect class="PF00109" x="3652" y="18" stroke-linejoin="round" width="24" height="26" fill="rgb(112,116,228)" stroke="rgb(89,92,182)" stroke-width="1" opacity="0.75" />
		</g>
	</g>
	<g>
		<title>apoM1</title>
		<polygon class="apoM1" points="3690,16 3690,16 3690,1 3716,31 3690,61 3690,46 3690,46" fill="rgb(176,176,251)" fill-opacity="1.0" stroke="rgb(70,70,100)" stroke-width="1" />
		<g>
			<title>PF05711</title>
			<polygon class="PF05711" points="3691,18 3702,18 3713,31 3702,44 3691,44" stroke-linejoin="round" width="24" height="26" fill="rgb(175,228,98)" stroke="rgb(139,182,78)" stroke-width="1" opacity="0.75" />
		</g>
	</g>
	<g>
		<title>apoA</title>
		<polygon class="apoA" points="3732,16 3739,16 3739,1 3769,31 3739,61 3739,46 3732,46" fill="rgb(250,213,246)" fill-opacity="1.0" stroke="rgb(100,85,98)" stroke-width="1" />
	</g>
	<g>
		<title>apoR1</title>
		<polygon class="apoR1" points="3859,16 3794,16 3794,1 3764,31 3794,61 3794,46 3859,46" fill="rgb(211,196,252)" fill-opacity="1.0" stroke="rgb(84,78,100)" stroke-width="1" />
		<g>
			<title>PF13424</title>
			<polygon class="PF13424" points="3769,28 3776,21 3776,40 3769,33" stroke-linejoin="round" width="7" height="26" fill="rgb(147,215,101)" stroke="rgb(117,172,80)" stroke-width="1" opacity="0.75" />
		</g>
		<g>
			<title>PF00931</title>
			<rect class="PF00931" x="3804" y="18" stroke-linejoin="round" width="25" height="26" fill="rgb(165,94,211)" stroke="rgb(132,75,168)" stroke-width="1" opacity="0.75" />
		</g>
		<g>
			<title>PF03704</title>
			<rect class="PF03704" x="3833" y="18" stroke-linejoin="round" width="14" height="26" fill="rgb(217,89,196)" stroke="rgb(173,71,156)" stroke-width="1" opacity="0.75" />
		</g>
		<g>
			<title>PF00486</title>
			<rect class="PF00486" x="3848" y="18" stroke-linejoin="round" width="7" height="26" fill="rgb(204,153,57)" stroke="rgb(163,122,45)" stroke-width="1" opacity="0.75" />
		</g>
	</g>
	<g>
		<title>apoGT3</title>
		<polygon class="apoGT3" points="95,16 107,16 107,1 137,31 107,61 107,46 95,46" fill="rgb(212,230,254)" fill-opacity="1.0" stroke="rgb(84,92,101)" stroke-width="1" />
		<g>
			<title>PF06722</title>
			<polygon class="PF06722" points="114,18 121,18 123,20 123,42 121,44 114,44" stroke-linejoin="round" width="9" height="26" fill="rgb(200,129,88)" stroke="rgb(160,103,70)" stroke-width="1" opacity="0.75" />
		</g>
	</g>
	<g>
		<title>apoH3</title>
		<polygon class="apoH3" points="138,16 141,16 141,1 171,31 141,61 141,46 138,46" fill="rgb(206,253,217)" fill-opacity="1.0" stroke="rgb(82,101,86)" stroke-width="1" />
		<g>
			<title>PF01370</title>
			<polygon class="PF01370" points="140,18 155,18 162,25 162,37 155,44 140,44" stroke-linejoin="round" width="22" height="26" fill="rgb(98,102,214)" stroke="rgb(78,81,171)" stroke-width="1" opacity="0.75" />
		</g>
	</g>
	<g>
		<title>apoM5</title>
		<polygon class="apoM5" points="214,16 202,16 202,1 172,31 202,61 202,46 214,46" fill="rgb(226,254,185)" fill-opacity="1.0" stroke="rgb(90,101,74)" stroke-width="1" />
		<g>
			<title>PF08484</title>
			<polygon class="PF08484" points="174,31 187,18 187,43" stroke-linejoin="round" width="15" height="26" fill="rgb(229,72,107)" stroke="rgb(183,57,85)" stroke-width="1" opacity="0.75" />
		</g>
		<g>
			<title>PF13489</title>
			<rect class="PF13489" x="188" y="18" stroke-linejoin="round" width="16" height="26" fill="rgb(188,189,66)" stroke="rgb(150,151,52)" stroke-width="1" opacity="0.75" />
		</g>
		<g>
			<title>PF08421</title>
			<rect class="PF08421" x="206" y="18" stroke-linejoin="round" width="5" height="26" fill="rgb(209,96,160)" stroke="rgb(167,76,128)" stroke-width="1" opacity="0.75" />
		</g>
	</g>
	<g>
		<title>apoH2</title>
		<polygon class="apoH2" points="247,16 245,16 245,1 215,31 245,61 245,46 247,46" fill="rgb(254,212,225)" fill-opacity="1.0" stroke="rgb(101,84,90)" stroke-width="1" />
		<g>
			<title>PF01408</title>
			<rect class="PF01408" x="235" y="18" stroke-linejoin="round" width="11" height="26" fill="rgb(76,117,190)" stroke="rgb(60,93,152)" stroke-width="1" opacity="0.75" />
		</g>
	</g>
	<g>
		<title>apoH1</title>
		<polygon class="apoH1" points="295,16 277,16 277,1 247,31 277,61 277,46 295,46" fill="rgb(252,196,201)" fill-opacity="1.0" stroke="rgb(100,78,80)" stroke-width="1" />
		<g>
			<title>PF03559</title>
			<polygon class="PF03559" points="249,31 262,18 268,18 268,44 262,44" stroke-linejoin="round" width="20" height="26" fill="rgb(74,201,66)" stroke="rgb(59,160,52)" stroke-width="1" opacity="0.75" />
		</g>
		<g>
			<title>PF03559</title>
			<rect class="PF03559" x="270" y="18" stroke-linejoin="round" width="20" height="26" fill="rgb(74,201,66)" stroke="rgb(59,160,52)" stroke-width="1" opacity="0.75" />
		</g>
	</g>
	<g>
		<title>apoGT2</title>
		<polygon class="apoGT2" points="312,16 321,16 321,1 351,31 321,61 321,46 312,46" fill="rgb(192,254,178)" fill-opacity="1.0" stroke="rgb(76,101,71)" stroke-width="1" />
		<g>
			<title>PF06722</title>
			<polygon class="PF06722" points="329,18 335,18 338,21 338,41 335,44 329,44" stroke-linejoin="round" width="9" height="26" fill="rgb(200,129,88)" stroke="rgb(160,103,70)" stroke-width="1" opacity="0.75" />
		</g>
	</g>
	<g>
		<title>apoD1</title>
		<polygon class="apoD1" points="401,16 389,16 389,1 359,31 389,61 389,46 401,46" fill="rgb(179,185,250)" fill-opacity="1.0" stroke="rgb(71,73,100)" stroke-width="1" />
		<g>
			<title>PF00848</title>
			<polygon class="PF00848" points="361,31 374,18 385,18 385,44 374,44" stroke-linejoin="round" width="25" height="26" fill="rgb(76,134,184)" stroke="rgb(60,107,147)" stroke-width="1" opacity="0.75" />
		</g>
		<g>
			<title>PF00355</title>
			<rect class="PF00355" x="386" y="18" stroke-linejoin="round" width="10" height="26" fill="rgb(186,77,145)" stroke="rgb(148,61,115)" stroke-width="1" opacity="0.75" />
		</g>
	</g>
</svg>
