<svg version="1.1" baseProfile="full" xmlns="http://www.w3.org/2000/svg" width="1157" height="62">
	<line x1="1" y1="31" x2="1156" y2="31" style="stroke:rgb(50,50,50); stroke-width:3 "/>
	<g>
		<title>banF</title>
		<polygon class="banF" points="36,16 31,16 31,1 1,31 31,61 31,46 36,46" fill="rgb(200,251,233)" fill-opacity="1.0" stroke="rgb(80,100,93)" stroke-width="1" />
		<g>
			<title>PF02321</title>
			<polygon class="PF02321" points="3,31 9,25 9,36" stroke-linejoin="round" width="8" height="26" fill="rgb(205,57,201)" stroke="rgb(164,45,160)" stroke-width="1" opacity="0.75" />
		</g>
		<g>
			<title>PF02321</title>
			<polygon class="PF02321" points="11,23 16,18 29,18 29,44 16,44 11,38" stroke-linejoin="round" width="18" height="26" fill="rgb(205,57,201)" stroke="rgb(164,45,160)" stroke-width="1" opacity="0.75" />
		</g>
	</g>
	<g>
		<title>banG</title>
		<polygon class="banG" points="64,16 64,16 64,1 38,31 64,61 64,46 64,46" fill="rgb(195,214,253)" fill-opacity="1.0" stroke="rgb(78,85,101)" stroke-width="1" />
		<g>
			<title>PF00196</title>
			<polygon class="PF00196" points="40,31 43,28 43,33" stroke-linejoin="round" width="5" height="26" fill="rgb(219,94,82)" stroke="rgb(175,75,65)" stroke-width="1" opacity="0.75" />
		</g>
	</g>
	<g>
		<title>banA</title>
		<polygon class="banA" points="81,16 264,16 264,1 294,31 264,61 264,46 81,46" fill="rgb(235,254,207)" fill-opacity="1.0" stroke="rgb(93,101,82)" stroke-width="1" />
		<g>
			<title>PF00668</title>
			<rect class="PF00668" x="82" y="18" stroke-linejoin="round" width="44" height="26" fill="rgb(224,184,98)" stroke="rgb(179,147,78)" stroke-width="1" opacity="0.75" />
		</g>
		<g>
			<title>PF00501</title>
			<rect class="PF00501" x="129" y="18" stroke-linejoin="round" width="38" height="26" fill="rgb(60,217,223)" stroke="rgb(48,173,178)" stroke-width="1" opacity="0.75" />
		</g>
		<g>
			<title>PF13193</title>
			<rect class="PF13193" x="168" y="18" stroke-linejoin="round" width="6" height="26" fill="rgb(182,50,118)" stroke="rgb(145,39,94)" stroke-width="1" opacity="0.75" />
		</g>
		<g>
			<title>PF00550</title>
			<rect class="PF00550" x="178" y="18" stroke-linejoin="round" width="6" height="26" fill="rgb(103,191,88)" stroke="rgb(82,152,70)" stroke-width="1" opacity="0.75" />
		</g>
		<g>
			<title>PF00668</title>
			<rect class="PF00668" x="189" y="18" stroke-linejoin="round" width="43" height="26" fill="rgb(224,184,98)" stroke="rgb(179,147,78)" stroke-width="1" opacity="0.75" />
		</g>
		<g>
			<title>PF00501</title>
			<rect class="PF00501" x="235" y="18" stroke-linejoin="round" width="39" height="26" fill="rgb(60,217,223)" stroke="rgb(48,173,178)" stroke-width="1" opacity="0.75" />
		</g>
		<g>
			<title>PF13193</title>
			<polygon class="PF13193" points="276,18 278,18 283,23 283,39 278,44 276,44" stroke-linejoin="round" width="7" height="26" fill="rgb(182,50,118)" stroke="rgb(145,39,94)" stroke-width="1" opacity="0.75" />
		</g>
		<g>
			<title>PF00550</title>
			<polygon class="PF00550" points="286,26 291,31 286,36" stroke-linejoin="round" width="6" height="26" fill="rgb(103,191,88)" stroke="rgb(82,152,70)" stroke-width="1" opacity="0.75" />
		</g>
	</g>
	<g>
		<title>banB</title>
		<polygon class="banB" points="303,16 706,16 706,1 736,31 706,61 706,46 303,46" fill="rgb(251,221,185)" fill-opacity="1.0" stroke="rgb(100,88,74)" stroke-width="1" />
		<g>
			<title>PF00668</title>
			<rect class="PF00668" x="312" y="18" stroke-linejoin="round" width="43" height="26" fill="rgb(224,184,98)" stroke="rgb(179,147,78)" stroke-width="1" opacity="0.75" />
		</g>
		<g>
			<title>PF00501</title>
			<rect class="PF00501" x="358" y="18" stroke-linejoin="round" width="40" height="26" fill="rgb(60,217,223)" stroke="rgb(48,173,178)" stroke-width="1" opacity="0.75" />
		</g>
		<g>
			<title>PF13193</title>
			<rect class="PF13193" x="399" y="18" stroke-linejoin="round" width="7" height="26" fill="rgb(182,50,118)" stroke="rgb(145,39,94)" stroke-width="1" opacity="0.75" />
		</g>
		<g>
			<title>PF00550</title>
			<rect class="PF00550" x="409" y="18" stroke-linejoin="round" width="6" height="26" fill="rgb(103,191,88)" stroke="rgb(82,152,70)" stroke-width="1" opacity="0.75" />
		</g>
		<g>
			<title>PF00668</title>
			<rect class="PF00668" x="421" y="18" stroke-linejoin="round" width="43" height="26" fill="rgb(224,184,98)" stroke="rgb(179,147,78)" stroke-width="1" opacity="0.75" />
		</g>
		<g>
			<title>PF00501</title>
			<rect class="PF00501" x="466" y="18" stroke-linejoin="round" width="38" height="26" fill="rgb(60,217,223)" stroke="rgb(48,173,178)" stroke-width="1" opacity="0.75" />
		</g>
		<g>
			<title>PF13193</title>
			<rect class="PF13193" x="505" y="18" stroke-linejoin="round" width="6" height="26" fill="rgb(182,50,118)" stroke="rgb(145,39,94)" stroke-width="1" opacity="0.75" />
		</g>
		<g>
			<title>PF00550</title>
			<rect class="PF00550" x="515" y="18" stroke-linejoin="round" width="6" height="26" fill="rgb(103,191,88)" stroke="rgb(82,152,70)" stroke-width="1" opacity="0.75" />
		</g>
		<g>
			<title>PF00668</title>
			<rect class="PF00668" x="526" y="18" stroke-linejoin="round" width="44" height="26" fill="rgb(224,184,98)" stroke="rgb(179,147,78)" stroke-width="1" opacity="0.75" />
		</g>
		<g>
			<title>PF00501</title>
			<rect class="PF00501" x="572" y="18" stroke-linejoin="round" width="38" height="26" fill="rgb(60,217,223)" stroke="rgb(48,173,178)" stroke-width="1" opacity="0.75" />
		</g>
		<g>
			<title>PF13193</title>
			<rect class="PF13193" x="612" y="18" stroke-linejoin="round" width="6" height="26" fill="rgb(182,50,118)" stroke="rgb(145,39,94)" stroke-width="1" opacity="0.75" />
		</g>
		<g>
			<title>PF00550</title>
			<rect class="PF00550" x="621" y="18" stroke-linejoin="round" width="6" height="26" fill="rgb(103,191,88)" stroke="rgb(82,152,70)" stroke-width="1" opacity="0.75" />
		</g>
		<g>
			<title>PF00668</title>
			<rect class="PF00668" x="632" y="18" stroke-linejoin="round" width="44" height="26" fill="rgb(224,184,98)" stroke="rgb(179,147,78)" stroke-width="1" opacity="0.75" />
		</g>
		<g>
			<title>PF00501</title>
			<rect class="PF00501" x="678" y="18" stroke-linejoin="round" width="39" height="26" fill="rgb(60,217,223)" stroke="rgb(48,173,178)" stroke-width="1" opacity="0.75" />
		</g>
		<g>
			<title>PF13193</title>
			<polygon class="PF13193" points="719,18 720,18 726,24 726,38 720,44 719,44" stroke-linejoin="round" width="7" height="26" fill="rgb(182,50,118)" stroke="rgb(145,39,94)" stroke-width="1" opacity="0.75" />
		</g>
		<g>
			<title>PF00550</title>
			<polygon class="PF00550" points="729,27 733,31 729,35" stroke-linejoin="round" width="6" height="26" fill="rgb(103,191,88)" stroke="rgb(82,152,70)" stroke-width="1" opacity="0.75" />
		</g>
	</g>
	<g>
		<title>banC</title>
		<polygon class="banC" points="736,16 982,16 982,1 1012,31 982,61 982,46 736,46" fill="rgb(216,184,251)" fill-opacity="1.0" stroke="rgb(86,73,100)" stroke-width="1" />
		<g>
			<title>PF00668</title>
			<rect class="PF00668" x="746" y="18" stroke-linejoin="round" width="44" height="26" fill="rgb(224,184,98)" stroke="rgb(179,147,78)" stroke-width="1" opacity="0.75" />
		</g>
		<g>
			<title>PF00501</title>
			<rect class="PF00501" x="793" y="18" stroke-linejoin="round" width="38" height="26" fill="rgb(60,217,223)" stroke="rgb(48,173,178)" stroke-width="1" opacity="0.75" />
		</g>
		<g>
			<title>PF13193</title>
			<rect class="PF13193" x="832" y="18" stroke-linejoin="round" width="7" height="26" fill="rgb(182,50,118)" stroke="rgb(145,39,94)" stroke-width="1" opacity="0.75" />
		</g>
		<g>
			<title>PF00550</title>
			<rect class="PF00550" x="843" y="18" stroke-linejoin="round" width="6" height="26" fill="rgb(103,191,88)" stroke="rgb(82,152,70)" stroke-width="1" opacity="0.75" />
		</g>
		<g>
			<title>PF00668</title>
			<rect class="PF00668" x="851" y="18" stroke-linejoin="round" width="44" height="26" fill="rgb(224,184,98)" stroke="rgb(179,147,78)" stroke-width="1" opacity="0.75" />
		</g>
		<g>
			<title>PF00501</title>
			<rect class="PF00501" x="897" y="18" stroke-linejoin="round" width="39" height="26" fill="rgb(60,217,223)" stroke="rgb(48,173,178)" stroke-width="1" opacity="0.75" />
		</g>
		<g>
			<title>PF13193</title>
			<rect class="PF13193" x="938" y="18" stroke-linejoin="round" width="7" height="26" fill="rgb(182,50,118)" stroke="rgb(145,39,94)" stroke-width="1" opacity="0.75" />
		</g>
		<g>
			<title>PF00550</title>
			<rect class="PF00550" x="948" y="18" stroke-linejoin="round" width="6" height="26" fill="rgb(103,191,88)" stroke="rgb(82,152,70)" stroke-width="1" opacity="0.75" />
		</g>
		<g>
			<title>PF00975</title>
			<rect class="PF00975" x="956" y="18" stroke-linejoin="round" width="26" height="26" fill="rgb(207,80,138)" stroke="rgb(165,63,110)" stroke-width="1" opacity="0.75" />
		</g>
		<g>
			<title>PF00975</title>
			<polygon class="PF00975" points="985,18 996,18 1009,31 996,44 985,44" stroke-linejoin="round" width="25" height="26" fill="rgb(207,80,138)" stroke="rgb(165,63,110)" stroke-width="1" opacity="0.75" />
		</g>
	</g>
	<g>
		<title>banD</title>
		<polygon class="banD" points="1015,16 1023,16 1023,1 1053,31 1023,61 1023,46 1015,46" fill="rgb(253,200,178)" fill-opacity="1.0" stroke="rgb(101,80,71)" stroke-width="1" />
		<g>
			<title>PF16576</title>
			<polygon class="PF16576" points="1020,18 1037,18 1041,22 1041,40 1037,44 1020,44" stroke-linejoin="round" width="21" height="26" fill="rgb(70,190,92)" stroke="rgb(56,152,73)" stroke-width="1" opacity="0.75" />
		</g>
	</g>
	<g>
		<title>banE</title>
		<polygon class="banE" points="1053,16 1088,16 1088,1 1118,31 1088,61 1088,46 1053,46" fill="rgb(194,250,233)" fill-opacity="1.0" stroke="rgb(77,100,93)" stroke-width="1" />
		<g>
			<title>PF00005</title>
			<rect class="PF00005" x="1055" y="18" stroke-linejoin="round" width="14" height="26" fill="rgb(129,201,63)" stroke="rgb(103,160,50)" stroke-width="1" opacity="0.75" />
		</g>
		<g>
			<title>PF12704</title>
			<rect class="PF12704" x="1080" y="18" stroke-linejoin="round" width="22" height="26" fill="rgb(79,76,190)" stroke="rgb(63,60,152)" stroke-width="1" opacity="0.75" />
		</g>
		<g>
			<title>PF02687</title>
			<polygon class="PF02687" points="1106,22 1115,31 1106,40" stroke-linejoin="round" width="11" height="26" fill="rgb(126,55,214)" stroke="rgb(100,44,171)" stroke-width="1" opacity="0.75" />
		</g>
	</g>
	<g>
		<title>banH</title>
		<polygon class="banH" points="1146,16 1146,16 1146,1 1121,31 1146,61 1146,46 1146,46" fill="rgb(214,250,180)" fill-opacity="1.0" stroke="rgb(85,100,72)" stroke-width="1" />
		<g>
			<title>PF00196</title>
			<polygon class="PF00196" points="1123,31 1127,26 1127,35" stroke-linejoin="round" width="5" height="26" fill="rgb(219,94,82)" stroke="rgb(175,75,65)" stroke-width="1" opacity="0.75" />
		</g>
	</g>
</svg>
