<svg version="1.1" baseProfile="full" xmlns="http://www.w3.org/2000/svg" width="390" height="62">
	<line x1="1" y1="31" x2="389" y2="31" style="stroke:rgb(50,50,50); stroke-width:3 "/>
	<g>
		<title>tnpA</title>
		<polygon class="tnpA" points="388,16 382,16 382,1 352,31 382,61 382,46 388,46" fill="rgb(193,246,253)" fill-opacity="1.0" stroke="rgb(77,98,101)" stroke-width="1" />
		<g>
			<title>PF00665</title>
			<polygon class="PF00665" points="356,29 367,18 367,43 356,32" stroke-linejoin="round" width="11" height="26" fill="rgb(93,64,200)" stroke="rgb(74,51,160)" stroke-width="1" opacity="0.75" />
		</g>
		<g>
			<title>PF13276</title>
			<rect class="PF13276" x="370" y="18" stroke-linejoin="round" width="6" height="26" fill="rgb(114,195,68)" stroke="rgb(91,156,54)" stroke-width="1" opacity="0.75" />
		</g>
		<g>
			<title>PF01527</title>
			<rect class="PF01527" x="381" y="18" stroke-linejoin="round" width="6" height="26" fill="rgb(85,212,107)" stroke="rgb(68,169,85)" stroke-width="1" opacity="0.75" />
		</g>
	</g>
	<g>
		<title>scnK</title>
		<polygon class="scnK" points="54,16 39,16 39,1 9,31 39,61 39,46 54,46" fill="rgb(204,189,249)" fill-opacity="1.0" stroke="rgb(81,75,99)" stroke-width="1" />
		<g>
			<title>PF02518</title>
			<polygon class="PF02518" points="11,31 20,22 20,39" stroke-linejoin="round" width="11" height="26" fill="rgb(80,94,225)" stroke="rgb(64,75,180)" stroke-width="1" opacity="0.75" />
		</g>
		<g>
			<title>PF00512</title>
			<rect class="PF00512" x="25" y="18" stroke-linejoin="round" width="6" height="26" fill="rgb(193,125,62)" stroke="rgb(154,100,49)" stroke-width="1" opacity="0.75" />
		</g>
	</g>
	<g>
		<title>scnR</title>
		<polygon class="scnR" points="78,16 78,16 78,1 55,31 78,61 78,46 78,46" fill="rgb(253,210,207)" fill-opacity="1.0" stroke="rgb(101,84,82)" stroke-width="1" />
		<g>
			<title>PF00486</title>
			<polygon class="PF00486" points="57,31 62,25 62,36" stroke-linejoin="round" width="7" height="26" fill="rgb(204,153,57)" stroke="rgb(163,122,45)" stroke-width="1" opacity="0.75" />
		</g>
		<g>
			<title>PF00072</title>
			<polygon class="PF00072" points="66,19 67,18 77,18 77,44 67,44 66,42" stroke-linejoin="round" width="11" height="26" fill="rgb(100,107,203)" stroke="rgb(80,85,162)" stroke-width="1" opacity="0.75" />
		</g>
	</g>
	<g>
		<title>scnA</title>
		<polygon class="scnA" points="84,16 84,16 84,1 89,31 84,61 84,46 84,46" fill="rgb(251,177,223)" fill-opacity="1.0" stroke="rgb(100,70,89)" stroke-width="1" />
		<g>
			<title>PF04604</title>
			<polygon class="PF04604" points="84,18 84,18 86,31 84,44 84,44" stroke-linejoin="round" width="4" height="26" fill="rgb(206,129,75)" stroke="rgb(164,103,60)" stroke-width="1" opacity="0.75" />
		</g>
	</g>
	<g>
		<title>scnA1</title>
		<polygon class="scnA1" points="96,16 96,16 96,1 101,31 96,61 96,46 96,46" fill="rgb(252,180,193)" fill-opacity="1.0" stroke="rgb(100,72,77)" stroke-width="1" />
		<g>
			<title>PF04604</title>
			<polygon class="PF04604" points="96,18 96,18 98,31 96,44 96,44" stroke-linejoin="round" width="5" height="26" fill="rgb(206,129,75)" stroke="rgb(164,103,60)" stroke-width="1" opacity="0.75" />
		</g>
	</g>
	<g>
		<title>scnM</title>
		<polygon class="scnM" points="102,16 164,16 164,1 194,31 164,61 164,46 102,46" fill="rgb(250,176,245)" fill-opacity="1.0" stroke="rgb(100,70,98)" stroke-width="1" />
		<g>
			<title>PF13575</title>
			<rect class="PF13575" x="111" y="18" stroke-linejoin="round" width="37" height="26" fill="rgb(228,84,217)" stroke="rgb(182,67,173)" stroke-width="1" opacity="0.75" />
		</g>
		<g>
			<title>PF05147</title>
			<polygon class="PF05147" points="159,18 178,18 191,31 178,44 159,44" stroke-linejoin="round" width="34" height="26" fill="rgb(129,182,79)" stroke="rgb(103,145,63)" stroke-width="1" opacity="0.75" />
		</g>
	</g>
	<g>
		<title>scnT</title>
		<polygon class="scnT" points="196,16 235,16 235,1 265,31 235,61 235,46 196,46" fill="rgb(206,236,252)" fill-opacity="1.0" stroke="rgb(82,94,100)" stroke-width="1" />
		<g>
			<title>PF03412</title>
			<rect class="PF03412" x="196" y="18" stroke-linejoin="round" width="13" height="26" fill="rgb(214,226,77)" stroke="rgb(171,180,61)" stroke-width="1" opacity="0.75" />
		</g>
		<g>
			<title>PF00664</title>
			<rect class="PF00664" x="211" y="18" stroke-linejoin="round" width="26" height="26" fill="rgb(149,226,73)" stroke="rgb(119,180,58)" stroke-width="1" opacity="0.75" />
		</g>
		<g>
			<title>PF00005</title>
			<polygon class="PF00005" points="243,18 249,18 256,25 256,37 249,44 243,44" stroke-linejoin="round" width="13" height="26" fill="rgb(129,201,63)" stroke="rgb(103,160,50)" stroke-width="1" opacity="0.75" />
		</g>
	</g>
	<g>
		<title>scnF</title>
		<polygon class="scnF" points="268,16 268,16 268,1 298,31 268,61 268,46 268,46" fill="rgb(248,201,252)" fill-opacity="1.0" stroke="rgb(99,80,100)" stroke-width="1" />
		<g>
			<title>PF00005</title>
			<polygon class="PF00005" points="270,18 282,18 284,20 284,42 282,44 270,44" stroke-linejoin="round" width="14" height="26" fill="rgb(129,201,63)" stroke="rgb(103,160,50)" stroke-width="1" opacity="0.75" />
		</g>
	</g>
	<g>
		<title>scnE</title>
		<polygon class="scnE" points="299,16 299,16 299,1 324,31 299,61 299,46 299,46" fill="rgb(252,211,210)" fill-opacity="1.0" stroke="rgb(100,84,84)" stroke-width="1" />
	</g>
	<g>
		<title>scnG</title>
		<polygon class="scnG" points="325,16 325,16 325,1 348,31 325,61 325,46 325,46" fill="rgb(213,253,217)" fill-opacity="1.0" stroke="rgb(85,101,86)" stroke-width="1" />
		<g>
			<title>PF12730</title>
			<polygon class="PF12730" points="325,18 335,18 342,27 342,35 335,44 325,44" stroke-linejoin="round" width="17" height="26" fill="rgb(203,161,59)" stroke="rgb(162,128,47)" stroke-width="1" opacity="0.75" />
		</g>
	</g>
</svg>
