<svg version="1.1" baseProfile="full" xmlns="http://www.w3.org/2000/svg" width="1036" height="62">
	<line x1="1" y1="31" x2="1035" y2="31" style="stroke:rgb(50,50,50); stroke-width:3 "/>
	<g>
		<title>alnQ</title>
		<polygon class="alnQ" points="242,16 245,16 245,1 275,31 245,61 245,46 242,46" fill="rgb(251,189,225)" fill-opacity="1.0" stroke="rgb(100,75,90)" stroke-width="1" />
		<g>
			<title>PF03364</title>
			<rect class="PF03364" x="244" y="18" stroke-linejoin="round" width="13" height="26" fill="rgb(221,94,106)" stroke="rgb(176,75,84)" stroke-width="1" opacity="0.75" />
		</g>
		<g>
			<title>PF10604</title>
			<polygon class="PF10604" points="258,18 259,18 272,31 259,44 258,44" stroke-linejoin="round" width="15" height="26" fill="rgb(105,204,74)" stroke="rgb(84,163,59)" stroke-width="1" opacity="0.75" />
		</g>
	</g>
	<g>
		<title>alnR</title>
		<polygon class="alnR" points="275,16 276,16 276,1 306,31 276,61 276,46 275,46" fill="rgb(200,201,252)" fill-opacity="1.0" stroke="rgb(80,80,100)" stroke-width="1" />
		<g>
			<title>PF00753</title>
			<polygon class="PF00753" points="277,18 290,18 295,23 295,39 290,44 277,44" stroke-linejoin="round" width="18" height="26" fill="rgb(206,198,96)" stroke="rgb(164,158,76)" stroke-width="1" opacity="0.75" />
		</g>
	</g>
	<g>
		<title>alnT</title>
		<polygon class="alnT" points="354,16 343,16 343,1 313,31 343,61 343,46 354,46" fill="rgb(209,184,254)" fill-opacity="1.0" stroke="rgb(83,73,101)" stroke-width="1" />
		<g>
			<title>PF08028</title>
			<polygon class="PF08028" points="315,31 328,18 328,43" stroke-linejoin="round" width="13" height="26" fill="rgb(106,185,56)" stroke="rgb(84,148,44)" stroke-width="1" opacity="0.75" />
		</g>
	</g>
	<g>
		<title>alnR2</title>
		<polygon class="alnR2" points="376,16 376,16 376,1 357,31 376,61 376,46 376,46" fill="rgb(182,185,252)" fill-opacity="1.0" stroke="rgb(72,74,100)" stroke-width="1" />
		<g>
			<title>PF00440</title>
			<rect class="PF00440" x="370" y="18" stroke-linejoin="round" width="4" height="26" fill="rgb(73,212,190)" stroke="rgb(58,169,152)" stroke-width="1" opacity="0.75" />
		</g>
	</g>
	<g>
		<title>aln3</title>
		<polygon class="aln3" points="381,16 381,16 381,1 396,31 381,61 381,46 381,46" fill="rgb(251,223,211)" fill-opacity="1.0" stroke="rgb(100,89,84)" stroke-width="1" />
		<g>
			<title>PF04075</title>
			<polygon class="PF04075" points="383,18 387,18 393,31 387,44 383,44" stroke-linejoin="round" width="12" height="26" fill="rgb(184,92,208)" stroke="rgb(147,73,166)" stroke-width="1" opacity="0.75" />
		</g>
	</g>
	<g>
		<title>aln4</title>
		<polygon class="aln4" points="396,16 401,16 401,1 431,31 401,61 401,46 396,46" fill="rgb(194,234,254)" fill-opacity="1.0" stroke="rgb(77,93,101)" stroke-width="1" />
		<g>
			<title>PF00248</title>
			<polygon class="PF00248" points="397,18 415,18 426,29 426,33 415,44 397,44" stroke-linejoin="round" width="29" height="26" fill="rgb(225,205,58)" stroke="rgb(180,164,46)" stroke-width="1" opacity="0.75" />
		</g>
	</g>
	<g>
		<title>alnO</title>
		<polygon class="alnO" points="451,16 451,16 451,1 436,31 451,61 451,46 451,46" fill="rgb(194,213,250)" fill-opacity="1.0" stroke="rgb(77,85,100)" stroke-width="1" />
		<g>
			<title>PF01243</title>
			<polygon class="PF01243" points="441,25 445,18 449,18 449,44 445,44 441,36" stroke-linejoin="round" width="8" height="26" fill="rgb(177,193,67)" stroke="rgb(141,154,53)" stroke-width="1" opacity="0.75" />
		</g>
	</g>
	<g>
		<title>aln5</title>
		<polygon class="aln5" points="468,16 468,16 468,1 451,31 468,61 468,46 468,46" fill="rgb(253,204,183)" fill-opacity="1.0" stroke="rgb(101,81,73)" stroke-width="1" />
		<g>
			<title>PF13924</title>
			<polygon class="PF13924" points="456,26 460,18 468,18 468,44 460,44 456,35" stroke-linejoin="round" width="12" height="26" fill="rgb(187,88,47)" stroke="rgb(149,70,37)" stroke-width="1" opacity="0.75" />
		</g>
	</g>
	<g>
		<title>aln6</title>
		<polygon class="aln6" points="504,16 498,16 498,1 468,31 498,61 498,46 504,46" fill="rgb(216,254,243)" fill-opacity="1.0" stroke="rgb(86,101,97)" stroke-width="1" />
	</g>
	<g>
		<title>alnB</title>
		<polygon class="alnB" points="529,16 529,16 529,1 507,31 529,61 529,46 529,46" fill="rgb(186,254,214)" fill-opacity="1.0" stroke="rgb(74,101,85)" stroke-width="1" />
		<g>
			<title>PF13419</title>
			<polygon class="PF13419" points="510,30 519,18 528,18 528,44 519,44 510,31" stroke-linejoin="round" width="18" height="26" fill="rgb(60,223,188)" stroke="rgb(48,178,150)" stroke-width="1" opacity="0.75" />
		</g>
	</g>
	<g>
		<title>alnR1</title>
		<polygon class="alnR1" points="1,16 1,16 1,1 17,31 1,61 1,46 1,46" fill="rgb(254,205,216)" fill-opacity="1.0" stroke="rgb(101,82,86)" stroke-width="1" />
		<g>
			<title>PF01047</title>
			<polygon class="PF01047" points="6,18 7,18 11,25 11,37 7,44 6,44" stroke-linejoin="round" width="5" height="26" fill="rgb(60,185,86)" stroke="rgb(48,148,68)" stroke-width="1" opacity="0.75" />
		</g>
	</g>
	<g>
		<title>alnA</title>
		<polygon class="alnA" points="560,16 560,16 560,1 530,31 560,61 560,46 560,46" fill="rgb(181,251,237)" fill-opacity="1.0" stroke="rgb(72,100,94)" stroke-width="1" />
		<g>
			<title>PF04227</title>
			<polygon class="PF04227" points="532,31 545,18 558,18 558,44 545,44" stroke-linejoin="round" width="28" height="26" fill="rgb(186,184,81)" stroke="rgb(148,147,64)" stroke-width="1" opacity="0.75" />
		</g>
	</g>
	<g>
		<title>aln7</title>
		<polygon class="aln7" points="567,16 572,16 572,1 602,31 572,61 572,46 567,46" fill="rgb(179,191,252)" fill-opacity="1.0" stroke="rgb(71,76,100)" stroke-width="1" />
	</g>
	<g>
		<title>alnR3</title>
		<polygon class="alnR3" points="634,16 634,16 634,1 607,31 634,61 634,46 634,46" fill="rgb(253,232,193)" fill-opacity="1.0" stroke="rgb(101,92,77)" stroke-width="1" />
		<g>
			<title>PF03704</title>
			<polygon class="PF03704" points="609,31 621,18 623,18 623,44 621,44" stroke-linejoin="round" width="14" height="26" fill="rgb(217,89,196)" stroke="rgb(173,71,156)" stroke-width="1" opacity="0.75" />
		</g>
		<g>
			<title>PF00486</title>
			<rect class="PF00486" x="624" y="18" stroke-linejoin="round" width="8" height="26" fill="rgb(204,153,57)" stroke="rgb(163,122,45)" stroke-width="1" opacity="0.75" />
		</g>
	</g>
	<g>
		<title>aln8</title>
		<polygon class="aln8" points="664,16 664,16 664,1 646,31 664,61 664,46 664,46" fill="rgb(251,189,250)" fill-opacity="1.0" stroke="rgb(100,75,100)" stroke-width="1" />
	</g>
	<g>
		<title>alnT1</title>
		<polygon class="alnT1" points="725,16 704,16 704,1 674,31 704,61 704,46 725,46" fill="rgb(251,184,204)" fill-opacity="1.0" stroke="rgb(100,73,81)" stroke-width="1" />
		<g>
			<title>PF07690</title>
			<polygon class="PF07690" points="682,25 689,18 722,18 722,44 689,44 682,36" stroke-linejoin="round" width="40" height="26" fill="rgb(193,224,74)" stroke="rgb(154,179,59)" stroke-width="1" opacity="0.75" />
		</g>
	</g>
	<g>
		<title>alnR8</title>
		<polygon class="alnR8" points="729,16 729,16 729,1 745,31 729,61 729,46 729,46" fill="rgb(212,188,250)" fill-opacity="1.0" stroke="rgb(84,75,100)" stroke-width="1" />
		<g>
			<title>PF12802</title>
			<polygon class="PF12802" points="733,18 735,18 738,23 738,39 735,44 733,44" stroke-linejoin="round" width="5" height="26" fill="rgb(46,89,185)" stroke="rgb(36,71,148)" stroke-width="1" opacity="0.75" />
		</g>
	</g>
	<g>
		<title>alnR4</title>
		<polygon class="alnR4" points="749,16 762,16 762,1 792,31 762,61 762,46 749,46" fill="rgb(180,251,195)" fill-opacity="1.0" stroke="rgb(72,100,78)" stroke-width="1" />
		<g>
			<title>PF07730</title>
			<polygon class="PF07730" points="771,18 776,18 777,19 777,43 776,44 771,44" stroke-linejoin="round" width="6" height="26" fill="rgb(190,53,146)" stroke="rgb(152,42,116)" stroke-width="1" opacity="0.75" />
		</g>
	</g>
	<g>
		<title>alnR5</title>
		<polygon class="alnR5" points="813,16 813,16 813,1 793,31 813,61 813,46 813,46" fill="rgb(200,199,250)" fill-opacity="1.0" stroke="rgb(80,79,100)" stroke-width="1" />
		<g>
			<title>PF00196</title>
			<polygon class="PF00196" points="795,31 798,27 798,34" stroke-linejoin="round" width="5" height="26" fill="rgb(219,94,82)" stroke="rgb(175,75,65)" stroke-width="1" opacity="0.75" />
		</g>
		<g>
			<title>PF00072</title>
			<polygon class="PF00072" points="801,22 804,18 812,18 812,44 804,44 801,39" stroke-linejoin="round" width="11" height="26" fill="rgb(100,107,203)" stroke="rgb(80,85,162)" stroke-width="1" opacity="0.75" />
		</g>
	</g>
	<g>
		<title>alnI</title>
		<polygon class="alnI" points="830,16 833,16 833,1 863,31 833,61 833,46 830,46" fill="rgb(253,215,241)" fill-opacity="1.0" stroke="rgb(101,86,96)" stroke-width="1" />
		<g>
			<title>PF08545</title>
			<polygon class="PF08545" points="841,18 847,18 848,19 848,43 847,44 841,44" stroke-linejoin="round" width="7" height="26" fill="rgb(189,102,84)" stroke="rgb(151,81,67)" stroke-width="1" opacity="0.75" />
		</g>
		<g>
			<title>PF08541</title>
			<polygon class="PF08541" points="854,25 860,31 854,37" stroke-linejoin="round" width="9" height="26" fill="rgb(146,207,81)" stroke="rgb(116,165,64)" stroke-width="1" opacity="0.75" />
		</g>
	</g>
	<g>
		<title>alnH</title>
		<polygon class="alnH" points="863,16 863,16 863,1 881,31 863,61 863,46 863,46" fill="rgb(245,252,198)" fill-opacity="1.0" stroke="rgb(98,100,79)" stroke-width="1" />
		<g>
			<title>PF01613</title>
			<polygon class="PF01613" points="865,18 870,18 878,31 870,44 865,44" stroke-linejoin="round" width="14" height="26" fill="rgb(107,197,222)" stroke="rgb(85,157,177)" stroke-width="1" opacity="0.75" />
		</g>
	</g>
	<g>
		<title>aln1</title>
		<polygon class="aln1" points="40,16 40,16 40,1 17,31 40,61 40,46 40,46" fill="rgb(182,254,241)" fill-opacity="1.0" stroke="rgb(72,101,96)" stroke-width="1" />
		<g>
			<title>PF01983</title>
			<polygon class="PF01983" points="19,31 29,18 39,18 39,44 29,44" stroke-linejoin="round" width="21" height="26" fill="rgb(181,97,82)" stroke="rgb(144,77,65)" stroke-width="1" opacity="0.75" />
		</g>
	</g>
	<g>
		<title>alnR6</title>
		<polygon class="alnR6" points="903,16 903,16 903,1 882,31 903,61 903,46 903,46" fill="rgb(199,251,191)" fill-opacity="1.0" stroke="rgb(79,100,76)" stroke-width="1" />
		<g>
			<title>PF00196</title>
			<polygon class="PF00196" points="884,31 888,25 888,36" stroke-linejoin="round" width="5" height="26" fill="rgb(219,94,82)" stroke="rgb(175,75,65)" stroke-width="1" opacity="0.75" />
		</g>
		<g>
			<title>PF00072</title>
			<polygon class="PF00072" points="892,20 893,18 903,18 903,44 893,44 892,41" stroke-linejoin="round" width="11" height="26" fill="rgb(100,107,203)" stroke="rgb(80,85,162)" stroke-width="1" opacity="0.75" />
		</g>
	</g>
	<g>
		<title>alnR7</title>
		<polygon class="alnR7" points="941,16 933,16 933,1 903,31 933,61 933,46 941,46" fill="rgb(205,230,252)" fill-opacity="1.0" stroke="rgb(82,92,100)" stroke-width="1" />
		<g>
			<title>PF07730</title>
			<polygon class="PF07730" points="918,18 918,18 924,18 924,44 918,44 918,43" stroke-linejoin="round" width="6" height="26" fill="rgb(190,53,146)" stroke="rgb(152,42,116)" stroke-width="1" opacity="0.75" />
		</g>
	</g>
	<g>
		<title>alnT2</title>
		<polygon class="alnT2" points="1030,16 986,16 986,1 956,31 986,61 986,46 1030,46" fill="rgb(182,252,178)" fill-opacity="1.0" stroke="rgb(72,100,71)" stroke-width="1" />
		<g>
			<title>PF03176</title>
			<polygon class="PF03176" points="959,30 971,18 989,18 989,44 971,44 959,31" stroke-linejoin="round" width="30" height="26" fill="rgb(228,109,193)" stroke="rgb(182,87,154)" stroke-width="1" opacity="0.75" />
		</g>
		<g>
			<title>PF03176</title>
			<rect class="PF03176" x="993" y="18" stroke-linejoin="round" width="32" height="26" fill="rgb(228,109,193)" stroke="rgb(182,87,154)" stroke-width="1" opacity="0.75" />
		</g>
	</g>
	<g>
		<title>aln2</title>
		<polygon class="aln2" points="57,16 57,16 57,1 40,31 57,61 57,46 57,46" fill="rgb(179,253,201)" fill-opacity="1.0" stroke="rgb(71,101,80)" stroke-width="1" />
		<g>
			<title>PF13577</title>
			<polygon class="PF13577" points="42,31 49,18 53,18 53,44 49,44" stroke-linejoin="round" width="12" height="26" fill="rgb(68,223,209)" stroke="rgb(54,178,167)" stroke-width="1" opacity="0.75" />
		</g>
	</g>
	<g>
		<title>alnJ</title>
		<polygon class="alnJ" points="61,16 61,16 61,1 69,31 61,61 61,46 61,46" fill="rgb(195,249,254)" fill-opacity="1.0" stroke="rgb(77,99,101)" stroke-width="1" />
		<g>
			<title>PF00550</title>
			<polygon class="PF00550" points="61,18 63,18 66,31 63,44 61,44" stroke-linejoin="round" width="6" height="26" fill="rgb(103,191,88)" stroke="rgb(82,152,70)" stroke-width="1" opacity="0.75" />
		</g>
	</g>
	<g>
		<title>alnK</title>
		<polygon class="alnK" points="110,16 99,16 99,1 69,31 99,61 99,46 110,46" fill="rgb(236,192,253)" fill-opacity="1.0" stroke="rgb(94,76,101)" stroke-width="1" />
		<g>
			<title>PF00698</title>
			<rect class="PF00698" x="90" y="18" stroke-linejoin="round" width="19" height="26" fill="rgb(59,176,209)" stroke="rgb(47,140,167)" stroke-width="1" opacity="0.75" />
		</g>
	</g>
	<g>
		<title>alnL</title>
		<polygon class="alnL" points="117,16 129,16 129,1 159,31 129,61 129,46 117,46" fill="rgb(191,250,245)" fill-opacity="1.0" stroke="rgb(76,100,98)" stroke-width="1" />
		<g>
			<title>PF00109</title>
			<rect class="PF00109" x="117" y="18" stroke-linejoin="round" width="25" height="26" fill="rgb(112,116,228)" stroke="rgb(89,92,182)" stroke-width="1" opacity="0.75" />
		</g>
		<g>
			<title>PF02801</title>
			<polygon class="PF02801" points="143,18 143,18 154,29 154,33 143,44 143,44" stroke-linejoin="round" width="11" height="26" fill="rgb(215,78,102)" stroke="rgb(172,62,81)" stroke-width="1" opacity="0.75" />
		</g>
	</g>
	<g>
		<title>alnM</title>
		<polygon class="alnM" points="159,16 171,16 171,1 201,31 171,61 171,46 159,46" fill="rgb(219,185,253)" fill-opacity="1.0" stroke="rgb(87,74,101)" stroke-width="1" />
		<g>
			<title>PF00109</title>
			<rect class="PF00109" x="160" y="18" stroke-linejoin="round" width="24" height="26" fill="rgb(112,116,228)" stroke="rgb(89,92,182)" stroke-width="1" opacity="0.75" />
		</g>
		<g>
			<title>PF02801</title>
			<polygon class="PF02801" points="186,19 197,30 197,32 186,43" stroke-linejoin="round" width="11" height="26" fill="rgb(215,78,102)" stroke="rgb(172,62,81)" stroke-width="1" opacity="0.75" />
		</g>
	</g>
	<g>
		<title>alnN</title>
		<polygon class="alnN" points="204,16 204,16 204,1 212,31 204,61 204,46 204,46" fill="rgb(250,210,246)" fill-opacity="1.0" stroke="rgb(100,84,98)" stroke-width="1" />
		<g>
			<title>PF00550</title>
			<polygon class="PF00550" points="204,18 206,18 209,31 206,44 204,44" stroke-linejoin="round" width="7" height="26" fill="rgb(103,191,88)" stroke="rgb(82,152,70)" stroke-width="1" opacity="0.75" />
		</g>
	</g>
	<g>
		<title>alnP</title>
		<polygon class="alnP" points="213,16 213,16 213,1 239,31 213,61 213,46 213,46" fill="rgb(213,252,217)" fill-opacity="1.0" stroke="rgb(85,100,86)" stroke-width="1" />
		<g>
			<title>PF00106</title>
			<polygon class="PF00106" points="213,18 225,18 232,26 232,36 225,44 213,44" stroke-linejoin="round" width="19" height="26" fill="rgb(182,219,73)" stroke="rgb(145,175,58)" stroke-width="1" opacity="0.75" />
		</g>
	</g>
</svg>
