<svg version="1.1" baseProfile="full" xmlns="http://www.w3.org/2000/svg" width="3541" height="62">
	<line x1="1" y1="31" x2="3540" y2="31" style="stroke:rgb(50,50,50); stroke-width:3 "/>
	<g>
		<polygon class="NoName" points="1218,16 1218,16 1218,1 1192,31 1218,61 1218,46 1218,46" fill="rgb(255,255,255)" fill-opacity="1.0" stroke="rgb(50,50,50)" stroke-width="1" />
	</g>
	<g>
		<polygon class="NoName" points="1435,16 1409,16 1409,1 1379,31 1409,61 1409,46 1435,46" fill="rgb(255,255,255)" fill-opacity="1.0" stroke="rgb(50,50,50)" stroke-width="1" />
		<g>
			<title>PF00561</title>
			<polygon class="PF00561" points="1386,26 1394,18 1431,18 1431,44 1394,44 1386,35" stroke-linejoin="round" width="45" height="26" fill="rgb(86,180,151)" stroke="rgb(68,144,120)" stroke-width="1" opacity="0.75" />
		</g>
	</g>
	<g>
		<polygon class="NoName" points="1557,16 1559,16 1559,1 1589,31 1559,61 1559,46 1557,46" fill="rgb(255,255,255)" fill-opacity="1.0" stroke="rgb(50,50,50)" stroke-width="1" />
		<g>
			<title>PF05721</title>
			<polygon class="PF05721" points="1559,18 1573,18 1580,25 1580,37 1573,44 1559,44" stroke-linejoin="round" width="21" height="26" fill="rgb(72,132,214)" stroke="rgb(57,105,171)" stroke-width="1" opacity="0.75" />
		</g>
	</g>
	<g>
		<polygon class="NoName" points="2391,16 1628,16 1628,1 1598,31 1628,61 1628,46 2391,46" fill="rgb(255,255,255)" fill-opacity="1.0" stroke="rgb(50,50,50)" stroke-width="1" />
		<g>
			<title>PF00668</title>
			<polygon class="PF00668" points="1602,29 1613,18 1642,18 1642,44 1613,44 1602,32" stroke-linejoin="round" width="40" height="26" fill="rgb(224,184,98)" stroke="rgb(179,147,78)" stroke-width="1" opacity="0.75" />
		</g>
		<g>
			<title>PF00550</title>
			<rect class="PF00550" x="1645" y="18" stroke-linejoin="round" width="6" height="26" fill="rgb(103,191,88)" stroke="rgb(82,152,70)" stroke-width="1" opacity="0.75" />
		</g>
		<g>
			<title>PF00501</title>
			<rect class="PF00501" x="1705" y="18" stroke-linejoin="round" width="39" height="26" fill="rgb(60,217,223)" stroke="rgb(48,173,178)" stroke-width="1" opacity="0.75" />
		</g>
		<g>
			<title>PF00668</title>
			<rect class="PF00668" x="1746" y="18" stroke-linejoin="round" width="44" height="26" fill="rgb(224,184,98)" stroke="rgb(179,147,78)" stroke-width="1" opacity="0.75" />
		</g>
		<g>
			<title>PF00550</title>
			<rect class="PF00550" x="1792" y="18" stroke-linejoin="round" width="6" height="26" fill="rgb(103,191,88)" stroke="rgb(82,152,70)" stroke-width="1" opacity="0.75" />
		</g>
		<g>
			<title>PF08241</title>
			<rect class="PF08241" x="1828" y="18" stroke-linejoin="round" width="10" height="26" fill="rgb(106,219,159)" stroke="rgb(84,175,127)" stroke-width="1" opacity="0.75" />
		</g>
		<g>
			<title>PF00501</title>
			<rect class="PF00501" x="1852" y="18" stroke-linejoin="round" width="39" height="26" fill="rgb(60,217,223)" stroke="rgb(48,173,178)" stroke-width="1" opacity="0.75" />
		</g>
		<g>
			<title>PF00668</title>
			<rect class="PF00668" x="1894" y="18" stroke-linejoin="round" width="42" height="26" fill="rgb(224,184,98)" stroke="rgb(179,147,78)" stroke-width="1" opacity="0.75" />
		</g>
		<g>
			<title>PF00550</title>
			<rect class="PF00550" x="1938" y="18" stroke-linejoin="round" width="6" height="26" fill="rgb(103,191,88)" stroke="rgb(82,152,70)" stroke-width="1" opacity="0.75" />
		</g>
		<g>
			<title>PF00501</title>
			<rect class="PF00501" x="1958" y="18" stroke-linejoin="round" width="39" height="26" fill="rgb(60,217,223)" stroke="rgb(48,173,178)" stroke-width="1" opacity="0.75" />
		</g>
		<g>
			<title>PF00668</title>
			<rect class="PF00668" x="2000" y="18" stroke-linejoin="round" width="41" height="26" fill="rgb(224,184,98)" stroke="rgb(179,147,78)" stroke-width="1" opacity="0.75" />
		</g>
		<g>
			<title>PF00550</title>
			<rect class="PF00550" x="2045" y="18" stroke-linejoin="round" width="6" height="26" fill="rgb(103,191,88)" stroke="rgb(82,152,70)" stroke-width="1" opacity="0.75" />
		</g>
		<g>
			<title>PF00501</title>
			<rect class="PF00501" x="2065" y="18" stroke-linejoin="round" width="39" height="26" fill="rgb(60,217,223)" stroke="rgb(48,173,178)" stroke-width="1" opacity="0.75" />
		</g>
		<g>
			<title>PF00668</title>
			<rect class="PF00668" x="2107" y="18" stroke-linejoin="round" width="41" height="26" fill="rgb(224,184,98)" stroke="rgb(179,147,78)" stroke-width="1" opacity="0.75" />
		</g>
		<g>
			<title>PF00668</title>
			<rect class="PF00668" x="2151" y="18" stroke-linejoin="round" width="43" height="26" fill="rgb(224,184,98)" stroke="rgb(179,147,78)" stroke-width="1" opacity="0.75" />
		</g>
		<g>
			<title>PF00550</title>
			<rect class="PF00550" x="2197" y="18" stroke-linejoin="round" width="6" height="26" fill="rgb(103,191,88)" stroke="rgb(82,152,70)" stroke-width="1" opacity="0.75" />
		</g>
		<g>
			<title>PF00501</title>
			<rect class="PF00501" x="2217" y="18" stroke-linejoin="round" width="40" height="26" fill="rgb(60,217,223)" stroke="rgb(48,173,178)" stroke-width="1" opacity="0.75" />
		</g>
		<g>
			<title>PF00668</title>
			<rect class="PF00668" x="2259" y="18" stroke-linejoin="round" width="41" height="26" fill="rgb(224,184,98)" stroke="rgb(179,147,78)" stroke-width="1" opacity="0.75" />
		</g>
		<g>
			<title>PF00550</title>
			<rect class="PF00550" x="2305" y="18" stroke-linejoin="round" width="6" height="26" fill="rgb(103,191,88)" stroke="rgb(82,152,70)" stroke-width="1" opacity="0.75" />
		</g>
		<g>
			<title>PF00501</title>
			<rect class="PF00501" x="2324" y="18" stroke-linejoin="round" width="39" height="26" fill="rgb(60,217,223)" stroke="rgb(48,173,178)" stroke-width="1" opacity="0.75" />
		</g>
		<g>
			<title>PF00668</title>
			<rect class="PF00668" x="2366" y="18" stroke-linejoin="round" width="23" height="26" fill="rgb(224,184,98)" stroke="rgb(179,147,78)" stroke-width="1" opacity="0.75" />
		</g>
	</g>
	<g>
		<polygon class="NoName" points="2495,16 2462,16 2462,1 2432,31 2462,61 2462,46 2495,46" fill="rgb(255,255,255)" fill-opacity="1.0" stroke="rgb(50,50,50)" stroke-width="1" />
		<g>
			<title>PF00067</title>
			<polygon class="PF00067" points="2442,23 2447,18 2487,18 2487,44 2447,44 2442,38" stroke-linejoin="round" width="45" height="26" fill="rgb(85,216,107)" stroke="rgb(68,172,85)" stroke-width="1" opacity="0.75" />
		</g>
	</g>
	<g>
		<polygon class="NoName" points="2545,16 2564,16 2564,1 2594,31 2564,61 2564,46 2545,46" fill="rgb(255,255,255)" fill-opacity="1.0" stroke="rgb(50,50,50)" stroke-width="1" />
		<g>
			<title>PF00248</title>
			<polygon class="PF00248" points="2549,18 2578,18 2581,21 2581,41 2578,44 2549,44" stroke-linejoin="round" width="32" height="26" fill="rgb(225,205,58)" stroke="rgb(180,164,46)" stroke-width="1" opacity="0.75" />
		</g>
	</g>
	<g>
		<polygon class="NoName" points="2611,16 2630,16 2630,1 2660,31 2630,61 2630,46 2611,46" fill="rgb(255,255,255)" fill-opacity="1.0" stroke="rgb(50,50,50)" stroke-width="1" />
		<g>
			<title>PF00282</title>
			<polygon class="PF00282" points="2616,18 2644,18 2653,27 2653,35 2644,44 2616,44" stroke-linejoin="round" width="37" height="26" fill="rgb(100,218,166)" stroke="rgb(80,174,132)" stroke-width="1" opacity="0.75" />
		</g>
	</g>
	<g>
		<polygon class="NoName" points="2721,16 2712,16 2712,1 2682,31 2712,61 2712,46 2721,46" fill="rgb(255,255,255)" fill-opacity="1.0" stroke="rgb(50,50,50)" stroke-width="1" />
		<g>
			<title>PF00006</title>
			<polygon class="PF00006" points="2692,23 2697,18 2715,18 2715,44 2697,44 2692,38" stroke-linejoin="round" width="23" height="26" fill="rgb(187,135,93)" stroke="rgb(149,108,74)" stroke-width="1" opacity="0.75" />
		</g>
	</g>
	<g>
		<polygon class="NoName" points="2804,16 2916,16 2916,1 2946,31 2916,61 2916,46 2804,46" fill="rgb(255,255,255)" fill-opacity="1.0" stroke="rgb(50,50,50)" stroke-width="1" />
		<g>
			<title>PF00664</title>
			<rect class="PF00664" x="2813" y="18" stroke-linejoin="round" width="27" height="26" fill="rgb(149,226,73)" stroke="rgb(119,180,58)" stroke-width="1" opacity="0.75" />
		</g>
		<g>
			<title>PF00005</title>
			<rect class="PF00005" x="2848" y="18" stroke-linejoin="round" width="15" height="26" fill="rgb(129,201,63)" stroke="rgb(103,160,50)" stroke-width="1" opacity="0.75" />
		</g>
		<g>
			<title>PF00664</title>
			<rect class="PF00664" x="2878" y="18" stroke-linejoin="round" width="27" height="26" fill="rgb(149,226,73)" stroke="rgb(119,180,58)" stroke-width="1" opacity="0.75" />
		</g>
		<g>
			<title>PF00005</title>
			<rect class="PF00005" x="2913" y="18" stroke-linejoin="round" width="15" height="26" fill="rgb(129,201,63)" stroke="rgb(103,160,50)" stroke-width="1" opacity="0.75" />
		</g>
	</g>
	<g>
		<polygon class="NoName" points="3200,16 3200,16 3200,1 3208,31 3200,61 3200,46 3200,46" fill="rgb(255,255,255)" fill-opacity="1.0" stroke="rgb(50,50,50)" stroke-width="1" />
	</g>
	<g>
		<polygon class="NoName" points="36,16 54,16 54,1 84,31 54,61 54,46 36,46" fill="rgb(255,255,255)" fill-opacity="1.0" stroke="rgb(50,50,50)" stroke-width="1" />
		<g>
			<title>PF02776</title>
			<rect class="PF02776" x="36" y="18" stroke-linejoin="round" width="11" height="26" fill="rgb(55,81,185)" stroke="rgb(44,64,148)" stroke-width="1" opacity="0.75" />
		</g>
		<g>
			<title>PF00205</title>
			<rect class="PF00205" x="49" y="18" stroke-linejoin="round" width="13" height="26" fill="rgb(149,194,69)" stroke="rgb(119,155,55)" stroke-width="1" opacity="0.75" />
		</g>
		<g>
			<title>PF02775</title>
			<polygon class="PF02775" points="69,19 81,31 69,43" stroke-linejoin="round" width="14" height="26" fill="rgb(156,179,45)" stroke="rgb(124,143,36)" stroke-width="1" opacity="0.75" />
		</g>
	</g>
	<g>
		<polygon class="NoName" points="3356,16 3391,16 3391,1 3421,31 3391,61 3391,46 3356,46" fill="rgb(255,255,255)" fill-opacity="1.0" stroke="rgb(50,50,50)" stroke-width="1" />
		<g>
			<title>PF07690</title>
			<rect class="PF07690" x="3367" y="18" stroke-linejoin="round" width="25" height="26" fill="rgb(193,224,74)" stroke="rgb(154,179,59)" stroke-width="1" opacity="0.75" />
		</g>
	</g>
	<g>
		<polygon class="NoName" points="3492,16 3492,16 3492,1 3467,31 3492,61 3492,46 3492,46" fill="rgb(255,255,255)" fill-opacity="1.0" stroke="rgb(50,50,50)" stroke-width="1" />
	</g>
	<g>
		<polygon class="NoName" points="211,16 183,16 183,1 153,31 183,61 183,46 211,46" fill="rgb(255,255,255)" fill-opacity="1.0" stroke="rgb(50,50,50)" stroke-width="1" />
		<g>
			<title>PF07731</title>
			<polygon class="PF07731" points="158,28 168,18 170,18 170,44 168,44 158,33" stroke-linejoin="round" width="12" height="26" fill="rgb(183,55,192)" stroke="rgb(146,44,153)" stroke-width="1" opacity="0.75" />
		</g>
		<g>
			<title>PF00394</title>
			<rect class="PF00394" x="176" y="18" stroke-linejoin="round" width="15" height="26" fill="rgb(172,188,74)" stroke="rgb(137,150,59)" stroke-width="1" opacity="0.75" />
		</g>
		<g>
			<title>PF07732</title>
			<rect class="PF07732" x="192" y="18" stroke-linejoin="round" width="11" height="26" fill="rgb(80,81,179)" stroke="rgb(63,64,143)" stroke-width="1" opacity="0.75" />
		</g>
	</g>
	<g>
		<polygon class="NoName" points="431,16 289,16 289,1 259,31 289,61 289,46 431,46" fill="rgb(255,255,255)" fill-opacity="1.0" stroke="rgb(50,50,50)" stroke-width="1" />
		<g>
			<title>PF00550</title>
			<rect class="PF00550" x="284" y="18" stroke-linejoin="round" width="6" height="26" fill="rgb(103,191,88)" stroke="rgb(82,152,70)" stroke-width="1" opacity="0.75" />
		</g>
		<g>
			<title>PF08659</title>
			<rect class="PF08659" x="304" y="18" stroke-linejoin="round" width="18" height="26" fill="rgb(66,209,188)" stroke="rgb(52,167,150)" stroke-width="1" opacity="0.75" />
		</g>
		<g>
			<title>PF13602</title>
			<rect class="PF13602" x="325" y="18" stroke-linejoin="round" width="13" height="26" fill="rgb(101,131,226)" stroke="rgb(80,104,180)" stroke-width="1" opacity="0.75" />
		</g>
		<g>
			<title>PF08240</title>
			<rect class="PF08240" x="343" y="18" stroke-linejoin="round" width="9" height="26" fill="rgb(211,65,138)" stroke="rgb(168,51,110)" stroke-width="1" opacity="0.75" />
		</g>
		<g>
			<title>PF08242</title>
			<rect class="PF08242" x="379" y="18" stroke-linejoin="round" width="9" height="26" fill="rgb(187,59,115)" stroke="rgb(149,47,92)" stroke-width="1" opacity="0.75" />
		</g>
		<g>
			<title>PF00109</title>
			<rect class="PF00109" x="406" y="18" stroke-linejoin="round" width="20" height="26" fill="rgb(112,116,228)" stroke="rgb(89,92,182)" stroke-width="1" opacity="0.75" />
		</g>
	</g>
	<g>
		<polygon class="NoName" points="472,16 505,16 505,1 535,31 505,61 505,46 472,46" fill="rgb(255,255,255)" fill-opacity="1.0" stroke="rgb(50,50,50)" stroke-width="1" />
		<g>
			<title>PF00067</title>
			<rect class="PF00067" x="480" y="18" stroke-linejoin="round" width="39" height="26" fill="rgb(85,216,107)" stroke="rgb(68,172,85)" stroke-width="1" opacity="0.75" />
		</g>
	</g>
	<g>
		<polygon class="NoName" points="563,16 593,16 593,1 623,31 593,61 593,46 563,46" fill="rgb(255,255,255)" fill-opacity="1.0" stroke="rgb(50,50,50)" stroke-width="1" />
		<g>
			<title>PF00067</title>
			<rect class="PF00067" x="563" y="18" stroke-linejoin="round" width="36" height="26" fill="rgb(85,216,107)" stroke="rgb(68,172,85)" stroke-width="1" opacity="0.75" />
		</g>
		<g>
			<title>PF00067</title>
			<polygon class="PF00067" points="603,18 607,18 609,20 609,42 607,44 603,44" stroke-linejoin="round" width="6" height="26" fill="rgb(85,216,107)" stroke="rgb(68,172,85)" stroke-width="1" opacity="0.75" />
		</g>
	</g>
	<g>
		<polygon class="NoName" points="666,16 866,16 866,1 896,31 866,61 866,46 666,46" fill="rgb(255,255,255)" fill-opacity="1.0" stroke="rgb(50,50,50)" stroke-width="1" />
		<g>
			<title>PF00501</title>
			<rect class="PF00501" x="667" y="18" stroke-linejoin="round" width="39" height="26" fill="rgb(60,217,223)" stroke="rgb(48,173,178)" stroke-width="1" opacity="0.75" />
		</g>
		<g>
			<title>PF00550</title>
			<rect class="PF00550" x="719" y="18" stroke-linejoin="round" width="6" height="26" fill="rgb(103,191,88)" stroke="rgb(82,152,70)" stroke-width="1" opacity="0.75" />
		</g>
		<g>
			<title>PF00668</title>
			<rect class="PF00668" x="731" y="18" stroke-linejoin="round" width="41" height="26" fill="rgb(224,184,98)" stroke="rgb(179,147,78)" stroke-width="1" opacity="0.75" />
		</g>
		<g>
			<title>PF00501</title>
			<rect class="PF00501" x="776" y="18" stroke-linejoin="round" width="16" height="26" fill="rgb(60,217,223)" stroke="rgb(48,173,178)" stroke-width="1" opacity="0.75" />
		</g>
		<g>
			<title>PF00501</title>
			<rect class="PF00501" x="802" y="18" stroke-linejoin="round" width="7" height="26" fill="rgb(60,217,223)" stroke="rgb(48,173,178)" stroke-width="1" opacity="0.75" />
		</g>
		<g>
			<title>PF00668</title>
			<rect class="PF00668" x="833" y="18" stroke-linejoin="round" width="44" height="26" fill="rgb(224,184,98)" stroke="rgb(179,147,78)" stroke-width="1" opacity="0.75" />
		</g>
	</g>
	<g>
		<polygon class="NoName" points="925,16 961,16 961,1 991,31 961,61 961,46 925,46" fill="rgb(255,255,255)" fill-opacity="1.0" stroke="rgb(50,50,50)" stroke-width="1" />
		<g>
			<title>PF00067</title>
			<rect class="PF00067" x="932" y="18" stroke-linejoin="round" width="40" height="26" fill="rgb(85,216,107)" stroke="rgb(68,172,85)" stroke-width="1" opacity="0.75" />
		</g>
	</g>
	<g>
		<polygon class="NoName" points="1018,16 1069,16 1069,1 1099,31 1069,61 1069,46 1018,46" fill="rgb(255,255,255)" fill-opacity="1.0" stroke="rgb(50,50,50)" stroke-width="1" />
		<g>
			<title>PF01663</title>
			<rect class="PF01663" x="1023" y="18" stroke-linejoin="round" width="28" height="26" fill="rgb(178,65,158)" stroke="rgb(142,52,126)" stroke-width="1" opacity="0.75" />
		</g>
		<g>
			<title>PF04987</title>
			<polygon class="PF04987" points="1063,18 1083,18 1088,23 1088,39 1083,44 1063,44" stroke-linejoin="round" width="25" height="26" fill="rgb(100,98,224)" stroke="rgb(80,78,179)" stroke-width="1" opacity="0.75" />
		</g>
	</g>
	<g>
		<polygon class="NoName" points="1174,16 1166,16 1166,1 1136,31 1166,61 1166,46 1174,46" fill="rgb(255,255,255)" fill-opacity="1.0" stroke="rgb(50,50,50)" stroke-width="1" />
		<g>
			<title>PF01063</title>
			<polygon class="PF01063" points="1142,27 1151,18 1167,18 1167,44 1151,44 1142,34" stroke-linejoin="round" width="25" height="26" fill="rgb(52,144,188)" stroke="rgb(41,115,150)" stroke-width="1" opacity="0.75" />
		</g>
	</g>
</svg>
