<svg version="1.1" baseProfile="full" xmlns="http://www.w3.org/2000/svg" width="2222" height="62">
	<line x1="1" y1="31" x2="2221" y2="31" style="stroke:rgb(50,50,50); stroke-width:3 "/>
	<g>
		<title>ken1</title>
		<polygon class="ken1" points="419,16 419,16 419,1 391,31 419,61 419,46 419,46" fill="rgb(181,224,251)" fill-opacity="1.0" stroke="rgb(72,89,100)" stroke-width="1" />
		<g>
			<title>PF00975</title>
			<polygon class="PF00975" points="395,29 405,18 417,18 417,44 405,44 395,32" stroke-linejoin="round" width="22" height="26" fill="rgb(207,80,138)" stroke="rgb(165,63,110)" stroke-width="1" opacity="0.75" />
		</g>
	</g>
	<g>
		<title>ken12</title>
		<polygon class="ken12" points="428,16 795,16 795,1 825,31 795,61 795,46 428,46" fill="rgb(215,195,251)" fill-opacity="1.0" stroke="rgb(86,78,100)" stroke-width="1" />
		<g>
			<title>PF00109</title>
			<rect class="PF00109" x="429" y="18" stroke-linejoin="round" width="25" height="26" fill="rgb(112,116,228)" stroke="rgb(89,92,182)" stroke-width="1" opacity="0.75" />
		</g>
		<g>
			<title>PF02801</title>
			<rect class="PF02801" x="455" y="18" stroke-linejoin="round" width="11" height="26" fill="rgb(215,78,102)" stroke="rgb(172,62,81)" stroke-width="1" opacity="0.75" />
		</g>
		<g>
			<title>PF16197</title>
			<rect class="PF16197" x="467" y="18" stroke-linejoin="round" width="11" height="26" fill="rgb(68,179,89)" stroke="rgb(54,143,71)" stroke-width="1" opacity="0.75" />
		</g>
		<g>
			<title>PF00698</title>
			<rect class="PF00698" x="480" y="18" stroke-linejoin="round" width="31" height="26" fill="rgb(59,176,209)" stroke="rgb(47,140,167)" stroke-width="1" opacity="0.75" />
		</g>
		<g>
			<title>PF14765</title>
			<rect class="PF14765" x="516" y="18" stroke-linejoin="round" width="28" height="26" fill="rgb(173,56,182)" stroke="rgb(138,44,145)" stroke-width="1" opacity="0.75" />
		</g>
		<g>
			<title>PF08240</title>
			<rect class="PF08240" x="567" y="18" stroke-linejoin="round" width="6" height="26" fill="rgb(211,65,138)" stroke="rgb(168,51,110)" stroke-width="1" opacity="0.75" />
		</g>
		<g>
			<title>PF13602</title>
			<rect class="PF13602" x="583" y="18" stroke-linejoin="round" width="12" height="26" fill="rgb(101,131,226)" stroke="rgb(80,104,180)" stroke-width="1" opacity="0.75" />
		</g>
		<g>
			<title>PF08659</title>
			<rect class="PF08659" x="596" y="18" stroke-linejoin="round" width="17" height="26" fill="rgb(66,209,188)" stroke="rgb(52,167,150)" stroke-width="1" opacity="0.75" />
		</g>
		<g>
			<title>PF00550</title>
			<rect class="PF00550" x="625" y="18" stroke-linejoin="round" width="6" height="26" fill="rgb(103,191,88)" stroke="rgb(82,152,70)" stroke-width="1" opacity="0.75" />
		</g>
		<g>
			<title>PF00109</title>
			<rect class="PF00109" x="635" y="18" stroke-linejoin="round" width="24" height="26" fill="rgb(112,116,228)" stroke="rgb(89,92,182)" stroke-width="1" opacity="0.75" />
		</g>
		<g>
			<title>PF02801</title>
			<rect class="PF02801" x="660" y="18" stroke-linejoin="round" width="11" height="26" fill="rgb(215,78,102)" stroke="rgb(172,62,81)" stroke-width="1" opacity="0.75" />
		</g>
		<g>
			<title>PF16197</title>
			<rect class="PF16197" x="672" y="18" stroke-linejoin="round" width="12" height="26" fill="rgb(68,179,89)" stroke="rgb(54,143,71)" stroke-width="1" opacity="0.75" />
		</g>
		<g>
			<title>PF00698</title>
			<rect class="PF00698" x="688" y="18" stroke-linejoin="round" width="31" height="26" fill="rgb(59,176,209)" stroke="rgb(47,140,167)" stroke-width="1" opacity="0.75" />
		</g>
		<g>
			<title>PF14765</title>
			<rect class="PF14765" x="724" y="18" stroke-linejoin="round" width="29" height="26" fill="rgb(173,56,182)" stroke="rgb(138,44,145)" stroke-width="1" opacity="0.75" />
		</g>
		<g>
			<title>PF08659</title>
			<rect class="PF08659" x="776" y="18" stroke-linejoin="round" width="18" height="26" fill="rgb(66,209,188)" stroke="rgb(52,167,150)" stroke-width="1" opacity="0.75" />
		</g>
		<g>
			<title>PF00550</title>
			<polygon class="PF00550" points="806,18 809,18 812,21 812,41 809,44 806,44" stroke-linejoin="round" width="6" height="26" fill="rgb(103,191,88)" stroke="rgb(82,152,70)" stroke-width="1" opacity="0.75" />
		</g>
	</g>
	<g>
		<title>ken13</title>
		<polygon class="ken13" points="827,16 1014,16 1014,1 1044,31 1014,61 1014,46 827,46" fill="rgb(187,249,200)" fill-opacity="1.0" stroke="rgb(74,99,80)" stroke-width="1" />
		<g>
			<title>PF08990</title>
			<rect class="PF08990" x="827" y="18" stroke-linejoin="round" width="2" height="26" fill="rgb(180,75,55)" stroke="rgb(144,60,44)" stroke-width="1" opacity="0.75" />
		</g>
		<g>
			<title>PF00109</title>
			<rect class="PF00109" x="830" y="18" stroke-linejoin="round" width="25" height="26" fill="rgb(112,116,228)" stroke="rgb(89,92,182)" stroke-width="1" opacity="0.75" />
		</g>
		<g>
			<title>PF02801</title>
			<rect class="PF02801" x="856" y="18" stroke-linejoin="round" width="11" height="26" fill="rgb(215,78,102)" stroke="rgb(172,62,81)" stroke-width="1" opacity="0.75" />
		</g>
		<g>
			<title>PF16197</title>
			<rect class="PF16197" x="868" y="18" stroke-linejoin="round" width="11" height="26" fill="rgb(68,179,89)" stroke="rgb(54,143,71)" stroke-width="1" opacity="0.75" />
		</g>
		<g>
			<title>PF00698</title>
			<rect class="PF00698" x="883" y="18" stroke-linejoin="round" width="31" height="26" fill="rgb(59,176,209)" stroke="rgb(47,140,167)" stroke-width="1" opacity="0.75" />
		</g>
		<g>
			<title>PF14765</title>
			<rect class="PF14765" x="919" y="18" stroke-linejoin="round" width="27" height="26" fill="rgb(173,56,182)" stroke="rgb(138,44,145)" stroke-width="1" opacity="0.75" />
		</g>
		<g>
			<title>PF08240</title>
			<rect class="PF08240" x="972" y="18" stroke-linejoin="round" width="6" height="26" fill="rgb(211,65,138)" stroke="rgb(168,51,110)" stroke-width="1" opacity="0.75" />
		</g>
		<g>
			<title>PF13602</title>
			<rect class="PF13602" x="987" y="18" stroke-linejoin="round" width="12" height="26" fill="rgb(101,131,226)" stroke="rgb(80,104,180)" stroke-width="1" opacity="0.75" />
		</g>
		<g>
			<title>PF08659</title>
			<rect class="PF08659" x="1001" y="18" stroke-linejoin="round" width="17" height="26" fill="rgb(66,209,188)" stroke="rgb(52,167,150)" stroke-width="1" opacity="0.75" />
		</g>
		<g>
			<title>PF00550</title>
			<polygon class="PF00550" points="1031,21 1037,27 1037,35 1031,41" stroke-linejoin="round" width="6" height="26" fill="rgb(103,191,88)" stroke="rgb(82,152,70)" stroke-width="1" opacity="0.75" />
		</g>
	</g>
	<g>
		<title>ken14</title>
		<polygon class="ken14" points="1045,16 1359,16 1359,1 1389,31 1359,61 1359,46 1045,46" fill="rgb(191,178,253)" fill-opacity="1.0" stroke="rgb(76,71,101)" stroke-width="1" />
		<g>
			<title>PF00109</title>
			<rect class="PF00109" x="1048" y="18" stroke-linejoin="round" width="25" height="26" fill="rgb(112,116,228)" stroke="rgb(89,92,182)" stroke-width="1" opacity="0.75" />
		</g>
		<g>
			<title>PF02801</title>
			<rect class="PF02801" x="1074" y="18" stroke-linejoin="round" width="11" height="26" fill="rgb(215,78,102)" stroke="rgb(172,62,81)" stroke-width="1" opacity="0.75" />
		</g>
		<g>
			<title>PF16197</title>
			<rect class="PF16197" x="1086" y="18" stroke-linejoin="round" width="11" height="26" fill="rgb(68,179,89)" stroke="rgb(54,143,71)" stroke-width="1" opacity="0.75" />
		</g>
		<g>
			<title>PF00698</title>
			<rect class="PF00698" x="1101" y="18" stroke-linejoin="round" width="31" height="26" fill="rgb(59,176,209)" stroke="rgb(47,140,167)" stroke-width="1" opacity="0.75" />
		</g>
		<g>
			<title>PF14765</title>
			<rect class="PF14765" x="1137" y="18" stroke-linejoin="round" width="27" height="26" fill="rgb(173,56,182)" stroke="rgb(138,44,145)" stroke-width="1" opacity="0.75" />
		</g>
		<g>
			<title>PF08240</title>
			<rect class="PF08240" x="1188" y="18" stroke-linejoin="round" width="7" height="26" fill="rgb(211,65,138)" stroke="rgb(168,51,110)" stroke-width="1" opacity="0.75" />
		</g>
		<g>
			<title>PF13602</title>
			<rect class="PF13602" x="1204" y="18" stroke-linejoin="round" width="12" height="26" fill="rgb(101,131,226)" stroke="rgb(80,104,180)" stroke-width="1" opacity="0.75" />
		</g>
		<g>
			<title>PF08659</title>
			<rect class="PF08659" x="1217" y="18" stroke-linejoin="round" width="17" height="26" fill="rgb(66,209,188)" stroke="rgb(52,167,150)" stroke-width="1" opacity="0.75" />
		</g>
		<g>
			<title>PF00550</title>
			<rect class="PF00550" x="1246" y="18" stroke-linejoin="round" width="6" height="26" fill="rgb(103,191,88)" stroke="rgb(82,152,70)" stroke-width="1" opacity="0.75" />
		</g>
		<g>
			<title>PF00109</title>
			<rect class="PF00109" x="1256" y="18" stroke-linejoin="round" width="25" height="26" fill="rgb(112,116,228)" stroke="rgb(89,92,182)" stroke-width="1" opacity="0.75" />
		</g>
		<g>
			<title>PF02801</title>
			<rect class="PF02801" x="1282" y="18" stroke-linejoin="round" width="11" height="26" fill="rgb(215,78,102)" stroke="rgb(172,62,81)" stroke-width="1" opacity="0.75" />
		</g>
		<g>
			<title>PF16197</title>
			<rect class="PF16197" x="1294" y="18" stroke-linejoin="round" width="12" height="26" fill="rgb(68,179,89)" stroke="rgb(54,143,71)" stroke-width="1" opacity="0.75" />
		</g>
		<g>
			<title>PF00698</title>
			<rect class="PF00698" x="1310" y="18" stroke-linejoin="round" width="32" height="26" fill="rgb(59,176,209)" stroke="rgb(47,140,167)" stroke-width="1" opacity="0.75" />
		</g>
		<g>
			<title>PF00550</title>
			<rect class="PF00550" x="1351" y="18" stroke-linejoin="round" width="6" height="26" fill="rgb(103,191,88)" stroke="rgb(82,152,70)" stroke-width="1" opacity="0.75" />
		</g>
		<g>
			<title>PF00975</title>
			<polygon class="PF00975" points="1365,18 1373,18 1386,31 1386,31 1373,44 1365,44" stroke-linejoin="round" width="21" height="26" fill="rgb(207,80,138)" stroke="rgb(165,63,110)" stroke-width="1" opacity="0.75" />
		</g>
	</g>
	<g>
		<title>ken15</title>
		<polygon class="ken15" points="1390,16 1399,16 1399,1 1429,31 1399,61 1399,46 1390,46" fill="rgb(254,227,209)" fill-opacity="1.0" stroke="rgb(101,90,83)" stroke-width="1" />
		<g>
			<title>PF01494</title>
			<polygon class="PF01494" points="1390,18 1413,18 1424,29 1424,33 1413,44 1390,44" stroke-linejoin="round" width="34" height="26" fill="rgb(182,175,59)" stroke="rgb(145,140,47)" stroke-width="1" opacity="0.75" />
		</g>
	</g>
	<g>
		<title>ken16</title>
		<polygon class="ken16" points="1432,16 2015,16 2015,1 2045,31 2015,61 2015,46 1432,46" fill="rgb(209,250,203)" fill-opacity="1.0" stroke="rgb(83,100,81)" stroke-width="1" />
		<g>
			<title>PF00501</title>
			<rect class="PF00501" x="1433" y="18" stroke-linejoin="round" width="41" height="26" fill="rgb(60,217,223)" stroke="rgb(48,173,178)" stroke-width="1" opacity="0.75" />
		</g>
		<g>
			<title>PF13193</title>
			<rect class="PF13193" x="1475" y="18" stroke-linejoin="round" width="7" height="26" fill="rgb(182,50,118)" stroke="rgb(145,39,94)" stroke-width="1" opacity="0.75" />
		</g>
		<g>
			<title>PF08659</title>
			<rect class="PF08659" x="1505" y="18" stroke-linejoin="round" width="16" height="26" fill="rgb(66,209,188)" stroke="rgb(52,167,150)" stroke-width="1" opacity="0.75" />
		</g>
		<g>
			<title>PF00550</title>
			<rect class="PF00550" x="1528" y="18" stroke-linejoin="round" width="6" height="26" fill="rgb(103,191,88)" stroke="rgb(82,152,70)" stroke-width="1" opacity="0.75" />
		</g>
		<g>
			<title>PF00109</title>
			<rect class="PF00109" x="1538" y="18" stroke-linejoin="round" width="25" height="26" fill="rgb(112,116,228)" stroke="rgb(89,92,182)" stroke-width="1" opacity="0.75" />
		</g>
		<g>
			<title>PF02801</title>
			<rect class="PF02801" x="1563" y="18" stroke-linejoin="round" width="11" height="26" fill="rgb(215,78,102)" stroke="rgb(172,62,81)" stroke-width="1" opacity="0.75" />
		</g>
		<g>
			<title>PF16197</title>
			<rect class="PF16197" x="1576" y="18" stroke-linejoin="round" width="11" height="26" fill="rgb(68,179,89)" stroke="rgb(54,143,71)" stroke-width="1" opacity="0.75" />
		</g>
		<g>
			<title>PF00698</title>
			<rect class="PF00698" x="1589" y="18" stroke-linejoin="round" width="31" height="26" fill="rgb(59,176,209)" stroke="rgb(47,140,167)" stroke-width="1" opacity="0.75" />
		</g>
		<g>
			<title>PF14765</title>
			<rect class="PF14765" x="1625" y="18" stroke-linejoin="round" width="27" height="26" fill="rgb(173,56,182)" stroke="rgb(138,44,145)" stroke-width="1" opacity="0.75" />
		</g>
		<g>
			<title>PF08659</title>
			<rect class="PF08659" x="1673" y="18" stroke-linejoin="round" width="17" height="26" fill="rgb(66,209,188)" stroke="rgb(52,167,150)" stroke-width="1" opacity="0.75" />
		</g>
		<g>
			<title>PF00550</title>
			<rect class="PF00550" x="1702" y="18" stroke-linejoin="round" width="6" height="26" fill="rgb(103,191,88)" stroke="rgb(82,152,70)" stroke-width="1" opacity="0.75" />
		</g>
		<g>
			<title>PF00109</title>
			<rect class="PF00109" x="1712" y="18" stroke-linejoin="round" width="25" height="26" fill="rgb(112,116,228)" stroke="rgb(89,92,182)" stroke-width="1" opacity="0.75" />
		</g>
		<g>
			<title>PF02801</title>
			<rect class="PF02801" x="1738" y="18" stroke-linejoin="round" width="11" height="26" fill="rgb(215,78,102)" stroke="rgb(172,62,81)" stroke-width="1" opacity="0.75" />
		</g>
		<g>
			<title>PF16197</title>
			<rect class="PF16197" x="1750" y="18" stroke-linejoin="round" width="11" height="26" fill="rgb(68,179,89)" stroke="rgb(54,143,71)" stroke-width="1" opacity="0.75" />
		</g>
		<g>
			<title>PF00698</title>
			<rect class="PF00698" x="1763" y="18" stroke-linejoin="round" width="31" height="26" fill="rgb(59,176,209)" stroke="rgb(47,140,167)" stroke-width="1" opacity="0.75" />
		</g>
		<g>
			<title>PF08659</title>
			<rect class="PF08659" x="1839" y="18" stroke-linejoin="round" width="17" height="26" fill="rgb(66,209,188)" stroke="rgb(52,167,150)" stroke-width="1" opacity="0.75" />
		</g>
		<g>
			<title>PF00550</title>
			<rect class="PF00550" x="1868" y="18" stroke-linejoin="round" width="6" height="26" fill="rgb(103,191,88)" stroke="rgb(82,152,70)" stroke-width="1" opacity="0.75" />
		</g>
		<g>
			<title>PF00109</title>
			<rect class="PF00109" x="1877" y="18" stroke-linejoin="round" width="25" height="26" fill="rgb(112,116,228)" stroke="rgb(89,92,182)" stroke-width="1" opacity="0.75" />
		</g>
		<g>
			<title>PF02801</title>
			<rect class="PF02801" x="1903" y="18" stroke-linejoin="round" width="11" height="26" fill="rgb(215,78,102)" stroke="rgb(172,62,81)" stroke-width="1" opacity="0.75" />
		</g>
		<g>
			<title>PF16197</title>
			<rect class="PF16197" x="1915" y="18" stroke-linejoin="round" width="13" height="26" fill="rgb(68,179,89)" stroke="rgb(54,143,71)" stroke-width="1" opacity="0.75" />
		</g>
		<g>
			<title>PF00698</title>
			<rect class="PF00698" x="1933" y="18" stroke-linejoin="round" width="32" height="26" fill="rgb(59,176,209)" stroke="rgb(47,140,167)" stroke-width="1" opacity="0.75" />
		</g>
		<g>
			<title>PF08659</title>
			<rect class="PF08659" x="2000" y="18" stroke-linejoin="round" width="18" height="26" fill="rgb(66,209,188)" stroke="rgb(52,167,150)" stroke-width="1" opacity="0.75" />
		</g>
		<g>
			<title>PF00550</title>
			<polygon class="PF00550" points="2029,18 2029,18 2035,24 2035,38 2029,44 2029,44" stroke-linejoin="round" width="6" height="26" fill="rgb(103,191,88)" stroke="rgb(82,152,70)" stroke-width="1" opacity="0.75" />
		</g>
	</g>
	<g>
		<title>ken17</title>
		<polygon class="ken17" points="2050,16 2064,16 2064,1 2094,31 2064,61 2064,46 2050,46" fill="rgb(254,188,189)" fill-opacity="1.0" stroke="rgb(101,75,75)" stroke-width="1" />
		<g>
			<title>PF03403</title>
			<rect class="PF03403" x="2055" y="18" stroke-linejoin="round" width="19" height="26" fill="rgb(179,184,62)" stroke="rgb(143,147,49)" stroke-width="1" opacity="0.75" />
		</g>
	</g>
	<g>
		<title>ken18</title>
		<polygon class="ken18" points="2096,16 2096,16 2096,1 2111,31 2096,61 2096,46 2096,46" fill="rgb(191,232,251)" fill-opacity="1.0" stroke="rgb(76,92,100)" stroke-width="1" />
	</g>
	<g>
		<title>ken19</title>
		<polygon class="ken19" points="2111,16 2132,16 2132,1 2162,31 2132,61 2132,46 2111,46" fill="rgb(205,185,250)" fill-opacity="1.0" stroke="rgb(82,73,100)" stroke-width="1" />
		<g>
			<title>PF01565</title>
			<rect class="PF01565" x="2114" y="18" stroke-linejoin="round" width="13" height="26" fill="rgb(226,88,136)" stroke="rgb(180,70,108)" stroke-width="1" opacity="0.75" />
		</g>
		<g>
			<title>PF08031</title>
			<polygon class="PF08031" points="2156,28 2159,31 2156,34" stroke-linejoin="round" width="5" height="26" fill="rgb(210,73,83)" stroke="rgb(168,58,66)" stroke-width="1" opacity="0.75" />
		</g>
	</g>
	<g>
		<title>ken20</title>
		<polygon class="ken20" points="2163,16 2163,16 2163,1 2182,31 2163,61 2163,46 2163,46" fill="rgb(178,250,232)" fill-opacity="1.0" stroke="rgb(71,100,92)" stroke-width="1" />
		<g>
			<title>PF13787</title>
			<polygon class="PF13787" points="2163,18 2171,18 2175,24 2175,38 2171,44 2163,44" stroke-linejoin="round" width="12" height="26" fill="rgb(95,187,87)" stroke="rgb(76,149,69)" stroke-width="1" opacity="0.75" />
		</g>
	</g>
	<g>
		<title>ken11</title>
		<polygon class="ken11" points="20,16 20,16 20,1 6,31 20,61 20,46 20,46" fill="rgb(252,245,187)" fill-opacity="1.0" stroke="rgb(100,98,74)" stroke-width="1" />
		<g>
			<title>PF01638</title>
			<polygon class="PF01638" points="8,31 14,18 16,18 16,44 14,44" stroke-linejoin="round" width="9" height="26" fill="rgb(91,150,227)" stroke="rgb(72,119,181)" stroke-width="1" opacity="0.75" />
		</g>
	</g>
	<g>
		<title>ken21</title>
		<polygon class="ken21" points="2213,16 2213,16 2213,1 2199,31 2213,61 2213,46 2213,46" fill="rgb(178,254,218)" fill-opacity="1.0" stroke="rgb(71,101,87)" stroke-width="1" />
		<g>
			<title>PF12802</title>
			<polygon class="PF12802" points="2204,25 2207,18 2209,18 2209,44 2207,44 2204,36" stroke-linejoin="round" width="5" height="26" fill="rgb(46,89,185)" stroke="rgb(36,71,148)" stroke-width="1" opacity="0.75" />
		</g>
	</g>
	<g>
		<title>ken10</title>
		<polygon class="ken10" points="79,16 55,16 55,1 25,31 55,61 55,46 79,46" fill="rgb(237,184,250)" fill-opacity="1.0" stroke="rgb(94,73,100)" stroke-width="1" />
		<g>
			<title>PF13360</title>
			<polygon class="PF13360" points="27,31 40,18 58,18 58,44 40,44" stroke-linejoin="round" width="31" height="26" fill="rgb(98,210,146)" stroke="rgb(78,168,116)" stroke-width="1" opacity="0.75" />
		</g>
		<g>
			<title>PF13360</title>
			<rect class="PF13360" x="58" y="18" stroke-linejoin="round" width="13" height="26" fill="rgb(98,210,146)" stroke="rgb(78,168,116)" stroke-width="1" opacity="0.75" />
		</g>
	</g>
	<g>
		<title>ken9</title>
		<polygon class="ken9" points="132,16 110,16 110,1 80,31 110,61 110,46 132,46" fill="rgb(251,198,243)" fill-opacity="1.0" stroke="rgb(100,79,97)" stroke-width="1" />
		<g>
			<title>PF13649</title>
			<polygon class="PF13649" points="87,26 95,18 96,18 96,44 95,44 87,35" stroke-linejoin="round" width="9" height="26" fill="rgb(227,135,74)" stroke="rgb(181,108,59)" stroke-width="1" opacity="0.75" />
		</g>
	</g>
	<g>
		<title>ken7</title>
		<polygon class="ken7" points="171,16 171,16 171,1 145,31 171,61 171,46 171,46" fill="rgb(210,206,250)" fill-opacity="1.0" stroke="rgb(84,82,100)" stroke-width="1" />
		<g>
			<title>PF00378</title>
			<polygon class="PF00378" points="147,31 158,18 170,18 170,44 158,44" stroke-linejoin="round" width="25" height="26" fill="rgb(218,72,181)" stroke="rgb(174,57,144)" stroke-width="1" opacity="0.75" />
		</g>
	</g>
	<g>
		<title>ken6</title>
		<polygon class="ken6" points="220,16 201,16 201,1 171,31 201,61 201,46 220,46" fill="rgb(204,233,250)" fill-opacity="1.0" stroke="rgb(81,93,100)" stroke-width="1" />
		<g>
			<title>PF00171</title>
			<polygon class="PF00171" points="173,31 186,18 217,18 217,44 186,44" stroke-linejoin="round" width="45" height="26" fill="rgb(105,213,139)" stroke="rgb(84,170,111)" stroke-width="1" opacity="0.75" />
		</g>
	</g>
	<g>
		<title>ken5</title>
		<polygon class="ken5" points="276,16 250,16 250,1 220,31 250,61 250,46 276,46" fill="rgb(202,199,250)" fill-opacity="1.0" stroke="rgb(80,79,100)" stroke-width="1" />
		<g>
			<title>PF02775</title>
			<polygon class="PF02775" points="222,31 235,18 236,18 236,44 235,44" stroke-linejoin="round" width="15" height="26" fill="rgb(156,179,45)" stroke="rgb(124,143,36)" stroke-width="1" opacity="0.75" />
		</g>
		<g>
			<title>PF00205</title>
			<rect class="PF00205" x="244" y="18" stroke-linejoin="round" width="13" height="26" fill="rgb(149,194,69)" stroke="rgb(119,155,55)" stroke-width="1" opacity="0.75" />
		</g>
		<g>
			<title>PF02776</title>
			<rect class="PF02776" x="259" y="18" stroke-linejoin="round" width="16" height="26" fill="rgb(55,81,185)" stroke="rgb(44,64,148)" stroke-width="1" opacity="0.75" />
		</g>
	</g>
	<g>
		<title>ken4</title>
		<polygon class="ken4" points="321,16 306,16 306,1 276,31 306,61 306,46 321,46" fill="rgb(198,179,251)" fill-opacity="1.0" stroke="rgb(79,71,100)" stroke-width="1" />
		<g>
			<title>PF00378</title>
			<polygon class="PF00378" points="280,29 291,18 293,18 293,44 291,44 280,32" stroke-linejoin="round" width="13" height="26" fill="rgb(218,72,181)" stroke="rgb(174,57,144)" stroke-width="1" opacity="0.75" />
		</g>
	</g>
	<g>
		<title>ken3</title>
		<polygon class="ken3" points="347,16 347,16 347,1 324,31 347,61 347,46 347,46" fill="rgb(207,243,250)" fill-opacity="1.0" stroke="rgb(82,97,100)" stroke-width="1" />
		<g>
			<title>PF00378</title>
			<polygon class="PF00378" points="326,31 336,18 340,18 340,44 336,44" stroke-linejoin="round" width="16" height="26" fill="rgb(218,72,181)" stroke="rgb(174,57,144)" stroke-width="1" opacity="0.75" />
		</g>
	</g>
	<g>
		<title>ken2</title>
		<polygon class="ken2" points="388,16 382,16 382,1 352,31 382,61 382,46 388,46" fill="rgb(201,250,244)" fill-opacity="1.0" stroke="rgb(80,100,97)" stroke-width="1" />
		<g>
			<title>PF02797</title>
			<polygon class="PF02797" points="354,31 366,19 366,42" stroke-linejoin="round" width="14" height="26" fill="rgb(139,212,63)" stroke="rgb(111,169,50)" stroke-width="1" opacity="0.75" />
		</g>
		<g>
			<title>PF00195</title>
			<polygon class="PF00195" points="367,18 367,18 386,18 386,44 367,44 367,43" stroke-linejoin="round" width="19" height="26" fill="rgb(60,181,161)" stroke="rgb(47,144,128)" stroke-width="1" opacity="0.75" />
		</g>
	</g>
</svg>
