<svg version="1.1" baseProfile="full" xmlns="http://www.w3.org/2000/svg" width="1196" height="62">
	<line x1="1" y1="31" x2="1195" y2="31" style="stroke:rgb(50,50,50); stroke-width:3 "/>
	<g>
		<polygon class="NoName" points="412,16 401,16 401,1 371,31 401,61 401,46 412,46" fill="rgb(255,255,255)" fill-opacity="1.0" stroke="rgb(50,50,50)" stroke-width="1" />
		<g>
			<title>PF01494</title>
			<polygon class="PF01494" points="373,31 382,22 382,39" stroke-linejoin="round" width="9" height="26" fill="rgb(182,175,59)" stroke="rgb(145,140,47)" stroke-width="1" opacity="0.75" />
		</g>
		<g>
			<title>PF13450</title>
			<rect class="PF13450" x="405" y="18" stroke-linejoin="round" width="5" height="26" fill="rgb(91,180,227)" stroke="rgb(72,144,181)" stroke-width="1" opacity="0.75" />
		</g>
	</g>
	<g>
		<polygon class="NoName" points="441,16 441,16 441,1 413,31 441,61 441,46 441,46" fill="rgb(255,255,255)" fill-opacity="1.0" stroke="rgb(50,50,50)" stroke-width="1" />
		<g>
			<title>PF00296</title>
			<polygon class="PF00296" points="415,31 427,18 441,18 441,44 427,44" stroke-linejoin="round" width="27" height="26" fill="rgb(180,112,78)" stroke="rgb(144,89,62)" stroke-width="1" opacity="0.75" />
		</g>
	</g>
	<g>
		<polygon class="NoName" points="456,16 459,16 459,1 489,31 459,61 459,46 456,46" fill="rgb(255,255,255)" fill-opacity="1.0" stroke="rgb(50,50,50)" stroke-width="1" />
		<g>
			<title>PF00296</title>
			<polygon class="PF00296" points="456,18 473,18 486,31 486,31 473,44 456,44" stroke-linejoin="round" width="30" height="26" fill="rgb(180,112,78)" stroke="rgb(144,89,62)" stroke-width="1" opacity="0.75" />
		</g>
	</g>
	<g>
		<polygon class="NoName" points="546,16 529,16 529,1 499,31 529,61 529,46 546,46" fill="rgb(255,255,255)" fill-opacity="1.0" stroke="rgb(50,50,50)" stroke-width="1" />
		<g>
			<title>PF04820</title>
			<polygon class="PF04820" points="505,27 514,18 537,18 537,44 514,44 505,34" stroke-linejoin="round" width="32" height="26" fill="rgb(179,74,194)" stroke="rgb(143,59,155)" stroke-width="1" opacity="0.75" />
		</g>
	</g>
	<g>
		<polygon class="NoName" points="584,16 580,16 580,1 550,31 580,61 580,46 584,46" fill="rgb(255,255,255)" fill-opacity="1.0" stroke="rgb(50,50,50)" stroke-width="1" />
	</g>
	<g>
		<polygon class="NoName" points="632,16 618,16 618,1 588,31 618,61 618,46 632,46" fill="rgb(255,255,255)" fill-opacity="1.0" stroke="rgb(50,50,50)" stroke-width="1" />
		<g>
			<title>PF00999</title>
			<polygon class="PF00999" points="590,31 603,18 629,18 629,44 603,44" stroke-linejoin="round" width="39" height="26" fill="rgb(229,67,191)" stroke="rgb(183,53,152)" stroke-width="1" opacity="0.75" />
		</g>
	</g>
	<g>
		<polygon class="NoName" points="689,16 669,16 669,1 639,31 669,61 669,46 689,46" fill="rgb(255,255,255)" fill-opacity="1.0" stroke="rgb(50,50,50)" stroke-width="1" />
		<g>
			<title>PF13229</title>
			<polygon class="PF13229" points="646,26 654,18 666,18 666,44 654,44 646,35" stroke-linejoin="round" width="20" height="26" fill="rgb(197,72,157)" stroke="rgb(157,57,125)" stroke-width="1" opacity="0.75" />
		</g>
	</g>
	<g>
		<polygon class="NoName" points="719,16 719,16 719,1 696,31 719,61 719,46 719,46" fill="rgb(255,255,255)" fill-opacity="1.0" stroke="rgb(50,50,50)" stroke-width="1" />
		<g>
			<title>PF03070</title>
			<polygon class="PF03070" points="698,31 708,18 717,18 717,44 708,44" stroke-linejoin="round" width="21" height="26" fill="rgb(95,149,219)" stroke="rgb(76,119,175)" stroke-width="1" opacity="0.75" />
		</g>
	</g>
	<g>
		<polygon class="NoName" points="773,16 749,16 749,1 719,31 749,61 749,46 773,46" fill="rgb(255,255,255)" fill-opacity="1.0" stroke="rgb(50,50,50)" stroke-width="1" />
		<g>
			<title>PF01494</title>
			<rect class="PF01494" x="736" y="18" stroke-linejoin="round" width="35" height="26" fill="rgb(182,175,59)" stroke="rgb(145,140,47)" stroke-width="1" opacity="0.75" />
		</g>
	</g>
	<g>
		<polygon class="NoName" points="798,16 798,16 798,1 774,31 798,61 798,46 798,46" fill="rgb(255,255,255)" fill-opacity="1.0" stroke="rgb(50,50,50)" stroke-width="1" />
		<g>
			<title>PF13561</title>
			<polygon class="PF13561" points="776,31 786,18 797,18 797,44 786,44" stroke-linejoin="round" width="23" height="26" fill="rgb(73,205,127)" stroke="rgb(58,164,101)" stroke-width="1" opacity="0.75" />
		</g>
	</g>
	<g>
		<polygon class="NoName" points="12,16 44,16 44,1 74,31 44,61 44,46 12,46" fill="rgb(255,255,255)" fill-opacity="1.0" stroke="rgb(50,50,50)" stroke-width="1" />
		<g>
			<title>PF00486</title>
			<rect class="PF00486" x="13" y="18" stroke-linejoin="round" width="7" height="26" fill="rgb(204,153,57)" stroke="rgb(163,122,45)" stroke-width="1" opacity="0.75" />
		</g>
		<g>
			<title>PF03704</title>
			<rect class="PF03704" x="21" y="18" stroke-linejoin="round" width="14" height="26" fill="rgb(217,89,196)" stroke="rgb(173,71,156)" stroke-width="1" opacity="0.75" />
		</g>
		<g>
			<title>PF00931</title>
			<polygon class="PF00931" points="40,18 58,18 61,21 61,41 58,44 40,44" stroke-linejoin="round" width="21" height="26" fill="rgb(165,94,211)" stroke="rgb(132,75,168)" stroke-width="1" opacity="0.75" />
		</g>
	</g>
	<g>
		<polygon class="NoName" points="815,16 815,16 815,1 800,31 815,61 815,46 815,46" fill="rgb(255,255,255)" fill-opacity="1.0" stroke="rgb(50,50,50)" stroke-width="1" />
		<g>
			<title>PF08592</title>
			<polygon class="PF08592" points="802,31 809,18 814,18 814,44 809,44" stroke-linejoin="round" width="14" height="26" fill="rgb(75,196,107)" stroke="rgb(60,156,85)" stroke-width="1" opacity="0.75" />
		</g>
	</g>
	<g>
		<polygon class="NoName" points="831,16 831,16 831,1 815,31 831,61 831,46 831,46" fill="rgb(255,255,255)" fill-opacity="1.0" stroke="rgb(50,50,50)" stroke-width="1" />
		<g>
			<title>PF10604</title>
			<polygon class="PF10604" points="817,31 824,18 830,18 830,44 824,44" stroke-linejoin="round" width="14" height="26" fill="rgb(105,204,74)" stroke="rgb(84,163,59)" stroke-width="1" opacity="0.75" />
		</g>
	</g>
	<g>
		<polygon class="NoName" points="841,16 841,16 841,1 833,31 841,61 841,46 841,46" fill="rgb(255,255,255)" fill-opacity="1.0" stroke="rgb(50,50,50)" stroke-width="1" />
		<g>
			<title>PF00550</title>
			<polygon class="PF00550" points="835,31 838,18 840,18 840,44 838,44" stroke-linejoin="round" width="7" height="26" fill="rgb(103,191,88)" stroke="rgb(82,152,70)" stroke-width="1" opacity="0.75" />
		</g>
	</g>
	<g>
		<polygon class="NoName" points="882,16 872,16 872,1 842,31 872,61 872,46 882,46" fill="rgb(255,255,255)" fill-opacity="1.0" stroke="rgb(50,50,50)" stroke-width="1" />
		<g>
			<title>PF02801</title>
			<polygon class="PF02801" points="846,29 857,18 857,43 846,32" stroke-linejoin="round" width="11" height="26" fill="rgb(215,78,102)" stroke="rgb(172,62,81)" stroke-width="1" opacity="0.75" />
		</g>
		<g>
			<title>PF00109</title>
			<rect class="PF00109" x="858" y="18" stroke-linejoin="round" width="24" height="26" fill="rgb(112,116,228)" stroke="rgb(89,92,182)" stroke-width="1" opacity="0.75" />
		</g>
	</g>
	<g>
		<polygon class="NoName" points="925,16 913,16 913,1 883,31 913,61 913,46 925,46" fill="rgb(255,255,255)" fill-opacity="1.0" stroke="rgb(50,50,50)" stroke-width="1" />
		<g>
			<title>PF02801</title>
			<polygon class="PF02801" points="887,29 898,18 898,43 887,32" stroke-linejoin="round" width="11" height="26" fill="rgb(215,78,102)" stroke="rgb(172,62,81)" stroke-width="1" opacity="0.75" />
		</g>
		<g>
			<title>PF00109</title>
			<rect class="PF00109" x="899" y="18" stroke-linejoin="round" width="25" height="26" fill="rgb(112,116,228)" stroke="rgb(89,92,182)" stroke-width="1" opacity="0.75" />
		</g>
	</g>
	<g>
		<polygon class="NoName" points="940,16 940,16 940,1 925,31 940,61 940,46 940,46" fill="rgb(255,255,255)" fill-opacity="1.0" stroke="rgb(50,50,50)" stroke-width="1" />
		<g>
			<title>PF07883</title>
			<polygon class="PF07883" points="928,29 934,18 935,18 935,44 934,44 928,32" stroke-linejoin="round" width="7" height="26" fill="rgb(211,192,74)" stroke="rgb(168,153,59)" stroke-width="1" opacity="0.75" />
		</g>
	</g>
	<g>
		<polygon class="NoName" points="950,16 950,16 950,1 940,31 950,61 950,46 950,46" fill="rgb(255,255,255)" fill-opacity="1.0" stroke="rgb(50,50,50)" stroke-width="1" />
		<g>
			<title>PF04673</title>
			<polygon class="PF04673" points="942,31 946,18 950,18 950,44 946,44" stroke-linejoin="round" width="10" height="26" fill="rgb(49,187,78)" stroke="rgb(39,149,62)" stroke-width="1" opacity="0.75" />
		</g>
	</g>
	<g>
		<polygon class="NoName" points="963,16 963,16 963,1 992,31 963,61 963,46 963,46" fill="rgb(255,255,255)" fill-opacity="1.0" stroke="rgb(50,50,50)" stroke-width="1" />
		<g>
			<title>PF03446</title>
			<polygon class="PF03446" points="963,18 976,18 978,20 978,42 976,44 963,44" stroke-linejoin="round" width="15" height="26" fill="rgb(205,164,98)" stroke="rgb(164,131,78)" stroke-width="1" opacity="0.75" />
		</g>
		<g>
			<title>PF14833</title>
			<polygon class="PF14833" points="979,21 989,31 979,41" stroke-linejoin="round" width="12" height="26" fill="rgb(141,199,89)" stroke="rgb(112,159,71)" stroke-width="1" opacity="0.75" />
		</g>
	</g>
	<g>
		<polygon class="NoName" points="1048,16 1022,16 1022,1 992,31 1022,61 1022,46 1048,46" fill="rgb(255,255,255)" fill-opacity="1.0" stroke="rgb(50,50,50)" stroke-width="1" />
		<g>
			<title>PF01593</title>
			<rect class="PF01593" x="1018" y="18" stroke-linejoin="round" width="27" height="26" fill="rgb(184,74,52)" stroke="rgb(147,59,41)" stroke-width="1" opacity="0.75" />
		</g>
	</g>
	<g>
		<polygon class="NoName" points="1073,16 1073,16 1073,1 1049,31 1073,61 1073,46 1073,46" fill="rgb(255,255,255)" fill-opacity="1.0" stroke="rgb(50,50,50)" stroke-width="1" />
		<g>
			<title>PF13561</title>
			<polygon class="PF13561" points="1051,31 1061,18 1072,18 1072,44 1061,44" stroke-linejoin="round" width="23" height="26" fill="rgb(73,205,127)" stroke="rgb(58,164,101)" stroke-width="1" opacity="0.75" />
		</g>
	</g>
	<g>
		<polygon class="NoName" points="87,16 87,16 87,1 97,31 87,61 87,46 87,46" fill="rgb(255,255,255)" fill-opacity="1.0" stroke="rgb(50,50,50)" stroke-width="1" />
		<g>
			<title>PF03992</title>
			<polygon class="PF03992" points="87,18 90,18 94,29 94,33 90,44 87,44" stroke-linejoin="round" width="7" height="26" fill="rgb(193,84,127)" stroke="rgb(154,67,101)" stroke-width="1" opacity="0.75" />
		</g>
	</g>
	<g>
		<polygon class="NoName" points="1093,16 1093,16 1093,1 1117,31 1093,61 1093,46 1093,46" fill="rgb(255,255,255)" fill-opacity="1.0" stroke="rgb(50,50,50)" stroke-width="1" />
		<g>
			<title>PF13561</title>
			<polygon class="PF13561" points="1094,18 1104,18 1114,31 1104,44 1094,44" stroke-linejoin="round" width="23" height="26" fill="rgb(73,205,127)" stroke="rgb(58,164,101)" stroke-width="1" opacity="0.75" />
		</g>
	</g>
	<g>
		<polygon class="NoName" points="1117,16 1117,16 1117,1 1129,31 1117,61 1117,46 1117,46" fill="rgb(255,255,255)" fill-opacity="1.0" stroke="rgb(50,50,50)" stroke-width="1" />
		<g>
			<title>PF04486</title>
			<polygon class="PF04486" points="1117,18 1121,18 1126,31 1121,44 1117,44" stroke-linejoin="round" width="11" height="26" fill="rgb(75,209,181)" stroke="rgb(60,167,144)" stroke-width="1" opacity="0.75" />
		</g>
	</g>
	<g>
		<polygon class="NoName" points="1133,16 1133,16 1133,1 1161,31 1133,61 1133,46 1133,46" fill="rgb(255,255,255)" fill-opacity="1.0" stroke="rgb(50,50,50)" stroke-width="1" />
		<g>
			<title>PF00296</title>
			<polygon class="PF00296" points="1133,18 1146,18 1158,31 1146,44 1133,44" stroke-linejoin="round" width="27" height="26" fill="rgb(180,112,78)" stroke="rgb(144,89,62)" stroke-width="1" opacity="0.75" />
		</g>
	</g>
	<g>
		<polygon class="NoName" points="1161,16 1161,16 1161,1 1176,31 1161,61 1161,46 1161,46" fill="rgb(255,255,255)" fill-opacity="1.0" stroke="rgb(50,50,50)" stroke-width="1" />
		<g>
			<title>PF08592</title>
			<polygon class="PF08592" points="1162,18 1167,18 1173,31 1167,44 1162,44" stroke-linejoin="round" width="12" height="26" fill="rgb(75,196,107)" stroke="rgb(60,156,85)" stroke-width="1" opacity="0.75" />
		</g>
	</g>
	<g>
		<polygon class="NoName" points="98,16 98,16 98,1 109,31 98,61 98,46 98,46" fill="rgb(255,255,255)" fill-opacity="1.0" stroke="rgb(50,50,50)" stroke-width="1" />
		<g>
			<title>PF03992</title>
			<polygon class="PF03992" points="100,18 101,18 106,31 101,44 100,44" stroke-linejoin="round" width="7" height="26" fill="rgb(193,84,127)" stroke="rgb(154,67,101)" stroke-width="1" opacity="0.75" />
		</g>
	</g>
	<g>
		<polygon class="NoName" points="169,16 150,16 150,1 120,31 150,61 150,46 169,46" fill="rgb(255,255,255)" fill-opacity="1.0" stroke="rgb(50,50,50)" stroke-width="1" />
		<g>
			<title>PF01266</title>
			<rect class="PF01266" x="150" y="18" stroke-linejoin="round" width="17" height="26" fill="rgb(123,179,59)" stroke="rgb(98,143,47)" stroke-width="1" opacity="0.75" />
		</g>
	</g>
	<g>
		<polygon class="NoName" points="191,16 191,16 191,1 171,31 191,61 191,46 191,46" fill="rgb(255,255,255)" fill-opacity="1.0" stroke="rgb(50,50,50)" stroke-width="1" />
		<g>
			<title>PF00881</title>
			<polygon class="PF00881" points="173,31 182,18 189,18 189,44 182,44" stroke-linejoin="round" width="16" height="26" fill="rgb(79,118,187)" stroke="rgb(63,94,149)" stroke-width="1" opacity="0.75" />
		</g>
	</g>
	<g>
		<polygon class="NoName" points="254,16 222,16 222,1 192,31 222,61 222,46 254,46" fill="rgb(255,255,255)" fill-opacity="1.0" stroke="rgb(50,50,50)" stroke-width="1" />
		<g>
			<title>PF00733</title>
			<polygon class="PF00733" points="194,31 207,18 229,18 229,44 207,44" stroke-linejoin="round" width="37" height="26" fill="rgb(97,201,176)" stroke="rgb(77,160,140)" stroke-width="1" opacity="0.75" />
		</g>
		<g>
			<title>PF13537</title>
			<rect class="PF13537" x="237" y="18" stroke-linejoin="round" width="12" height="26" fill="rgb(200,63,57)" stroke="rgb(160,50,45)" stroke-width="1" opacity="0.75" />
		</g>
	</g>
	<g>
		<polygon class="NoName" points="269,16 273,16 273,1 303,31 273,61 273,46 269,46" fill="rgb(255,255,255)" fill-opacity="1.0" stroke="rgb(50,50,50)" stroke-width="1" />
		<g>
			<title>PF16864</title>
			<rect class="PF16864" x="270" y="18" stroke-linejoin="round" width="8" height="26" fill="rgb(84,199,85)" stroke="rgb(67,159,68)" stroke-width="1" opacity="0.75" />
		</g>
		<g>
			<title>PF00891</title>
			<polygon class="PF00891" points="279,18 287,18 300,31 287,44 279,44" stroke-linejoin="round" width="22" height="26" fill="rgb(50,51,190)" stroke="rgb(39,40,152)" stroke-width="1" opacity="0.75" />
		</g>
	</g>
	<g>
		<polygon class="NoName" points="332,16 332,16 332,1 304,31 332,61 332,46 332,46" fill="rgb(255,255,255)" fill-opacity="1.0" stroke="rgb(50,50,50)" stroke-width="1" />
		<g>
			<title>PF13460</title>
			<polygon class="PF13460" points="314,23 318,18 331,18 331,44 318,44 314,38" stroke-linejoin="round" width="17" height="26" fill="rgb(188,201,78)" stroke="rgb(150,160,62)" stroke-width="1" opacity="0.75" />
		</g>
	</g>
	<g>
		<polygon class="NoName" points="370,16 367,16 367,1 337,31 367,61 367,46 370,46" fill="rgb(255,255,255)" fill-opacity="1.0" stroke="rgb(50,50,50)" stroke-width="1" />
		<g>
			<title>PF00891</title>
			<polygon class="PF00891" points="339,31 352,18 360,18 360,44 352,44" stroke-linejoin="round" width="22" height="26" fill="rgb(50,51,190)" stroke="rgb(39,40,152)" stroke-width="1" opacity="0.75" />
		</g>
		<g>
			<title>PF16864</title>
			<rect class="PF16864" x="361" y="18" stroke-linejoin="round" width="8" height="26" fill="rgb(84,199,85)" stroke="rgb(67,159,68)" stroke-width="1" opacity="0.75" />
		</g>
	</g>
</svg>
