<svg version="1.1" baseProfile="full" xmlns="http://www.w3.org/2000/svg" width="702" height="62">
	<line x1="1" y1="31" x2="701" y2="31" style="stroke:rgb(50,50,50); stroke-width:3 "/>
	<g>
		<title>sol6</title>
		<polygon class="sol6" points="81,16 56,16 56,1 26,31 56,61 56,46 81,46" fill="rgb(251,244,197)" fill-opacity="1.0" stroke="rgb(100,97,78)" stroke-width="1" />
		<g>
			<title>PF00067</title>
			<polygon class="PF00067" points="36,23 41,18 76,18 76,44 41,44 36,38" stroke-linejoin="round" width="40" height="26" fill="rgb(85,216,107)" stroke="rgb(68,172,85)" stroke-width="1" opacity="0.75" />
		</g>
	</g>
	<g>
		<title>sol5</title>
		<polygon class="sol5" points="104,16 132,16 132,1 162,31 132,61 132,46 104,46" fill="rgb(199,254,192)" fill-opacity="1.0" stroke="rgb(79,101,76)" stroke-width="1" />
		<g>
			<title>PF01565</title>
			<rect class="PF01565" x="113" y="18" stroke-linejoin="round" width="13" height="26" fill="rgb(226,88,136)" stroke="rgb(180,70,108)" stroke-width="1" opacity="0.75" />
		</g>
	</g>
	<g>
		<title>sol4</title>
		<polygon class="sol4" points="203,16 231,16 231,1 261,31 231,61 231,46 203,46" fill="rgb(236,202,250)" fill-opacity="1.0" stroke="rgb(94,80,100)" stroke-width="1" />
		<g>
			<title>PF04082</title>
			<rect class="PF04082" x="205" y="18" stroke-linejoin="round" width="16" height="26" fill="rgb(51,172,200)" stroke="rgb(40,137,160)" stroke-width="1" opacity="0.75" />
		</g>
	</g>
	<g>
		<title>sol3</title>
		<polygon class="sol3" points="277,16 277,16 277,1 307,31 277,61 277,46 277,46" fill="rgb(231,251,195)" fill-opacity="1.0" stroke="rgb(92,100,78)" stroke-width="1" />
		<g>
			<title>PF00106</title>
			<polygon class="PF00106" points="279,18 291,18 293,20 293,42 291,44 279,44" stroke-linejoin="round" width="14" height="26" fill="rgb(182,219,73)" stroke="rgb(145,175,58)" stroke-width="1" opacity="0.75" />
		</g>
	</g>
	<g>
		<title>sol2</title>
		<polygon class="sol2" points="374,16 355,16 355,1 325,31 355,61 355,46 374,46" fill="rgb(252,204,198)" fill-opacity="1.0" stroke="rgb(100,81,79)" stroke-width="1" />
		<g>
			<title>PF00891</title>
			<polygon class="PF00891" points="333,25 340,18 356,18 356,44 340,44 333,36" stroke-linejoin="round" width="23" height="26" fill="rgb(50,51,190)" stroke="rgb(39,40,152)" stroke-width="1" opacity="0.75" />
		</g>
	</g>
	<g>
		<title>sol1</title>
		<polygon class="sol1" points="418,16 658,16 658,1 688,31 658,61 658,46 418,46" fill="rgb(182,231,251)" fill-opacity="1.0" stroke="rgb(72,92,100)" stroke-width="1" />
		<g>
			<title>PF00109</title>
			<rect class="PF00109" x="419" y="18" stroke-linejoin="round" width="25" height="26" fill="rgb(112,116,228)" stroke="rgb(89,92,182)" stroke-width="1" opacity="0.75" />
		</g>
		<g>
			<title>PF02801</title>
			<rect class="PF02801" x="445" y="18" stroke-linejoin="round" width="11" height="26" fill="rgb(215,78,102)" stroke="rgb(172,62,81)" stroke-width="1" opacity="0.75" />
		</g>
		<g>
			<title>PF16197</title>
			<rect class="PF16197" x="457" y="18" stroke-linejoin="round" width="10" height="26" fill="rgb(68,179,89)" stroke="rgb(54,143,71)" stroke-width="1" opacity="0.75" />
		</g>
		<g>
			<title>PF00698</title>
			<rect class="PF00698" x="479" y="18" stroke-linejoin="round" width="33" height="26" fill="rgb(59,176,209)" stroke="rgb(47,140,167)" stroke-width="1" opacity="0.75" />
		</g>
		<g>
			<title>PF14765</title>
			<rect class="PF14765" x="519" y="18" stroke-linejoin="round" width="30" height="26" fill="rgb(173,56,182)" stroke="rgb(138,44,145)" stroke-width="1" opacity="0.75" />
		</g>
		<g>
			<title>PF08242</title>
			<rect class="PF08242" x="568" y="18" stroke-linejoin="round" width="10" height="26" fill="rgb(187,59,115)" stroke="rgb(149,47,92)" stroke-width="1" opacity="0.75" />
		</g>
		<g>
			<title>PF00107</title>
			<rect class="PF00107" x="621" y="18" stroke-linejoin="round" width="12" height="26" fill="rgb(81,108,215)" stroke="rgb(64,86,172)" stroke-width="1" opacity="0.75" />
		</g>
		<g>
			<title>PF08659</title>
			<rect class="PF08659" x="641" y="18" stroke-linejoin="round" width="17" height="26" fill="rgb(66,209,188)" stroke="rgb(52,167,150)" stroke-width="1" opacity="0.75" />
		</g>
		<g>
			<title>PF00550</title>
			<polygon class="PF00550" points="674,20 680,26 680,36 674,42" stroke-linejoin="round" width="6" height="26" fill="rgb(103,191,88)" stroke="rgb(82,152,70)" stroke-width="1" opacity="0.75" />
		</g>
	</g>
</svg>
