<svg version="1.1" baseProfile="full" xmlns="http://www.w3.org/2000/svg" width="260" height="62">
	<line x1="1" y1="31" x2="259" y2="31" style="stroke:rgb(50,50,50); stroke-width:3 "/>
	<g>
		<polygon class="NoName" points="136,16 178,16 178,1 208,31 178,61 178,46 136,46" fill="rgb(255,255,255)" fill-opacity="1.0" stroke="rgb(50,50,50)" stroke-width="1" />
		<g>
			<title>PF03412</title>
			<rect class="PF03412" x="136" y="18" stroke-linejoin="round" width="13" height="26" fill="rgb(214,226,77)" stroke="rgb(171,180,61)" stroke-width="1" opacity="0.75" />
		</g>
		<g>
			<title>PF00664</title>
			<rect class="PF00664" x="152" y="18" stroke-linejoin="round" width="27" height="26" fill="rgb(149,226,73)" stroke="rgb(119,180,58)" stroke-width="1" opacity="0.75" />
		</g>
		<g>
			<title>PF00005</title>
			<polygon class="PF00005" points="186,18 192,18 201,27 201,35 192,44 186,44" stroke-linejoin="round" width="15" height="26" fill="rgb(129,201,63)" stroke="rgb(103,160,50)" stroke-width="1" opacity="0.75" />
		</g>
	</g>
	<g>
		<polygon class="NoName" points="208,16 216,16 216,1 246,31 216,61 216,46 208,46" fill="rgb(255,255,255)" fill-opacity="1.0" stroke="rgb(50,50,50)" stroke-width="1" />
		<g>
			<title>PF13437</title>
			<polygon class="PF13437" points="232,20 243,31 243,31 232,42" stroke-linejoin="round" width="11" height="26" fill="rgb(82,200,102)" stroke="rgb(65,160,81)" stroke-width="1" opacity="0.75" />
		</g>
	</g>
	<g>
		<polygon class="NoName" points="251,16 251,16 251,1 258,31 251,61 251,46 251,46" fill="rgb(255,255,255)" fill-opacity="1.0" stroke="rgb(50,50,50)" stroke-width="1" />
	</g>
	<g>
		<polygon class="NoName" points="7,16 7,16 7,1 2,31 7,61 7,46 7,46" fill="rgb(255,255,255)" fill-opacity="1.0" stroke="rgb(50,50,50)" stroke-width="1" />
	</g>
	<g>
		<polygon class="NoName" points="11,16 11,16 11,1 19,31 11,61 11,46 11,46" fill="rgb(255,255,255)" fill-opacity="1.0" stroke="rgb(50,50,50)" stroke-width="1" />
	</g>
	<g>
		<polygon class="NoName" points="20,16 20,16 20,1 26,31 20,61 20,46 20,46" fill="rgb(255,255,255)" fill-opacity="1.0" stroke="rgb(50,50,50)" stroke-width="1" />
		<g>
			<title>PF10439</title>
			<polygon class="PF10439" points="20,18 20,18 23,31 20,44 20,44" stroke-linejoin="round" width="6" height="26" fill="rgb(158,186,86)" stroke="rgb(126,148,68)" stroke-width="1" opacity="0.75" />
		</g>
	</g>
	<g>
		<polygon class="NoName" points="27,16 27,16 27,1 33,31 27,61 27,46 27,46" fill="rgb(255,255,255)" fill-opacity="1.0" stroke="rgb(50,50,50)" stroke-width="1" />
		<g>
			<title>PF10439</title>
			<polygon class="PF10439" points="27,18 27,18 30,31 27,44 27,44" stroke-linejoin="round" width="6" height="26" fill="rgb(158,186,86)" stroke="rgb(126,148,68)" stroke-width="1" opacity="0.75" />
		</g>
	</g>
	<g>
		<polygon class="NoName" points="38,16 38,16 38,1 43,31 38,61 38,46 38,46" fill="rgb(255,255,255)" fill-opacity="1.0" stroke="rgb(50,50,50)" stroke-width="1" />
	</g>
	<g>
		<polygon class="NoName" points="48,16 48,16 48,1 51,31 48,61 48,46 48,46" fill="rgb(255,255,255)" fill-opacity="1.0" stroke="rgb(50,50,50)" stroke-width="1" />
		<g>
			<title>PF03047</title>
			<polygon class="PF03047" points="48,22 48,31 48,40" stroke-linejoin="round" width="2" height="26" fill="rgb(94,149,201)" stroke="rgb(75,119,160)" stroke-width="1" opacity="0.75" />
		</g>
	</g>
	<g>
		<polygon class="NoName" points="52,16 65,16 65,1 95,31 65,61 65,46 52,46" fill="rgb(255,255,255)" fill-opacity="1.0" stroke="rgb(50,50,50)" stroke-width="1" />
		<g>
			<title>PF14501</title>
			<polygon class="PF14501" points="84,23 92,31 84,39" stroke-linejoin="round" width="10" height="26" fill="rgb(137,71,210)" stroke="rgb(109,56,168)" stroke-width="1" opacity="0.75" />
		</g>
	</g>
	<g>
		<polygon class="NoName" points="95,16 95,16 95,1 121,31 95,61 95,46 95,46" fill="rgb(255,255,255)" fill-opacity="1.0" stroke="rgb(50,50,50)" stroke-width="1" />
		<g>
			<title>PF00072</title>
			<polygon class="PF00072" points="95,18 107,18 108,20 108,42 107,44 95,44" stroke-linejoin="round" width="13" height="26" fill="rgb(100,107,203)" stroke="rgb(80,85,162)" stroke-width="1" opacity="0.75" />
		</g>
		<g>
			<title>PF04397</title>
			<polygon class="PF04397" points="111,23 118,31 111,39" stroke-linejoin="round" width="9" height="26" fill="rgb(207,76,174)" stroke="rgb(165,60,139)" stroke-width="1" opacity="0.75" />
		</g>
	</g>
	<g>
		<polygon class="NoName" points="123,16 123,16 123,1 131,31 123,61 123,46 123,46" fill="rgb(255,255,255)" fill-opacity="1.0" stroke="rgb(50,50,50)" stroke-width="1" />
	</g>
</svg>
