<svg version="1.1" baseProfile="full" xmlns="http://www.w3.org/2000/svg" width="1502" height="62">
	<line x1="1" y1="31" x2="1501" y2="31" style="stroke:rgb(50,50,50); stroke-width:3 "/>
	<g>
		<title>mkB</title>
		<polygon class="mkB" points="321,16 82,16 82,1 52,31 82,61 82,46 321,46" fill="rgb(250,177,224)" fill-opacity="1.0" stroke="rgb(100,70,89)" stroke-width="1" />
		<g>
			<title>PF00550</title>
			<polygon class="PF00550" points="67,18 67,18 73,18 73,44 67,44 67,43" stroke-linejoin="round" width="6" height="26" fill="rgb(103,191,88)" stroke="rgb(82,152,70)" stroke-width="1" opacity="0.75" />
		</g>
		<g>
			<title>PF08659</title>
			<rect class="PF08659" x="87" y="18" stroke-linejoin="round" width="17" height="26" fill="rgb(66,209,188)" stroke="rgb(52,167,150)" stroke-width="1" opacity="0.75" />
		</g>
		<g>
			<title>PF13602</title>
			<rect class="PF13602" x="106" y="18" stroke-linejoin="round" width="14" height="26" fill="rgb(101,131,226)" stroke="rgb(80,104,180)" stroke-width="1" opacity="0.75" />
		</g>
		<g>
			<title>PF08242</title>
			<rect class="PF08242" x="167" y="18" stroke-linejoin="round" width="10" height="26" fill="rgb(187,59,115)" stroke="rgb(149,47,92)" stroke-width="1" opacity="0.75" />
		</g>
		<g>
			<title>PF14765</title>
			<rect class="PF14765" x="196" y="18" stroke-linejoin="round" width="31" height="26" fill="rgb(173,56,182)" stroke="rgb(138,44,145)" stroke-width="1" opacity="0.75" />
		</g>
		<g>
			<title>PF00698</title>
			<rect class="PF00698" x="234" y="18" stroke-linejoin="round" width="32" height="26" fill="rgb(59,176,209)" stroke="rgb(47,140,167)" stroke-width="1" opacity="0.75" />
		</g>
		<g>
			<title>PF16197</title>
			<rect class="PF16197" x="269" y="18" stroke-linejoin="round" width="13" height="26" fill="rgb(68,179,89)" stroke="rgb(54,143,71)" stroke-width="1" opacity="0.75" />
		</g>
		<g>
			<title>PF02801</title>
			<rect class="PF02801" x="283" y="18" stroke-linejoin="round" width="11" height="26" fill="rgb(215,78,102)" stroke="rgb(172,62,81)" stroke-width="1" opacity="0.75" />
		</g>
		<g>
			<title>PF00109</title>
			<rect class="PF00109" x="295" y="18" stroke-linejoin="round" width="25" height="26" fill="rgb(112,116,228)" stroke="rgb(89,92,182)" stroke-width="1" opacity="0.75" />
		</g>
	</g>
	<g>
		<title>mkI</title>
		<polygon class="mkI" points="477,16 436,16 436,1 406,31 436,61 436,46 477,46" fill="rgb(213,254,195)" fill-opacity="1.0" stroke="rgb(85,101,77)" stroke-width="1" />
		<g>
			<title>PF07690</title>
			<rect class="PF07690" x="433" y="18" stroke-linejoin="round" width="41" height="26" fill="rgb(193,224,74)" stroke="rgb(154,179,59)" stroke-width="1" opacity="0.75" />
		</g>
	</g>
	<g>
		<title>mkH</title>
		<polygon class="mkH" points="583,16 565,16 565,1 535,31 565,61 565,46 583,46" fill="rgb(214,197,251)" fill-opacity="1.0" stroke="rgb(85,78,100)" stroke-width="1" />
		<g>
			<title>PF00172</title>
			<rect class="PF00172" x="577" y="18" stroke-linejoin="round" width="4" height="26" fill="rgb(121,178,76)" stroke="rgb(96,142,60)" stroke-width="1" opacity="0.75" />
		</g>
	</g>
	<g>
		<title>mkG</title>
		<polygon class="mkG" points="616,16 697,16 697,1 727,31 697,61 697,46 616,46" fill="rgb(254,178,223)" fill-opacity="1.0" stroke="rgb(101,71,89)" stroke-width="1" />
		<g>
			<title>PF13323</title>
			<rect class="PF13323" x="617" y="18" stroke-linejoin="round" width="15" height="26" fill="rgb(109,62,205)" stroke="rgb(87,49,164)" stroke-width="1" opacity="0.75" />
		</g>
		<g>
			<title>PF12349</title>
			<rect class="PF12349" x="640" y="18" stroke-linejoin="round" width="17" height="26" fill="rgb(126,60,182)" stroke="rgb(100,48,145)" stroke-width="1" opacity="0.75" />
		</g>
		<g>
			<title>PF00368</title>
			<polygon class="PF00368" points="682,18 711,18 720,27 720,35 711,44 682,44" stroke-linejoin="round" width="38" height="26" fill="rgb(67,203,137)" stroke="rgb(53,162,109)" stroke-width="1" opacity="0.75" />
		</g>
	</g>
	<g>
		<title>mkF</title>
		<polygon class="mkF" points="753,16 770,16 770,1 800,31 770,61 770,46 753,46" fill="rgb(251,214,206)" fill-opacity="1.0" stroke="rgb(100,85,82)" stroke-width="1" />
		<g>
			<title>PF00144</title>
			<polygon class="PF00144" points="756,18 784,18 792,26 792,36 784,44 756,44" stroke-linejoin="round" width="36" height="26" fill="rgb(92,159,200)" stroke="rgb(73,127,160)" stroke-width="1" opacity="0.75" />
		</g>
	</g>
	<g>
		<title>mkE</title>
		<polygon class="mkE" points="849,16 839,16 839,1 809,31 839,61 839,46 849,46" fill="rgb(214,217,252)" fill-opacity="1.0" stroke="rgb(85,86,100)" stroke-width="1" />
		<g>
			<title>PF00107</title>
			<polygon class="PF00107" points="822,20 824,18 832,18 832,44 824,44 822,41" stroke-linejoin="round" width="10" height="26" fill="rgb(81,108,215)" stroke="rgb(64,86,172)" stroke-width="1" opacity="0.75" />
		</g>
		<g>
			<title>PF08240</title>
			<rect class="PF08240" x="837" y="18" stroke-linejoin="round" width="8" height="26" fill="rgb(211,65,138)" stroke="rgb(168,51,110)" stroke-width="1" opacity="0.75" />
		</g>
	</g>
	<g>
		<title>mkD</title>
		<polygon class="mkD" points="865,16 865,16 865,1 891,31 865,61 865,46 865,46" fill="rgb(223,191,250)" fill-opacity="1.0" stroke="rgb(89,76,100)" stroke-width="1" />
		<g>
			<title>PF03959</title>
			<polygon class="PF03959" points="866,18 877,18 888,31 877,44 866,44" stroke-linejoin="round" width="23" height="26" fill="rgb(54,166,181)" stroke="rgb(43,132,144)" stroke-width="1" opacity="0.75" />
		</g>
	</g>
	<g>
		<title>mkA</title>
		<polygon class="mkA" points="1371,16 1078,16 1078,1 1048,31 1078,61 1078,46 1371,46" fill="rgb(254,235,183)" fill-opacity="1.0" stroke="rgb(101,93,73)" stroke-width="1" />
		<g>
			<title>PF00668</title>
			<polygon class="PF00668" points="1063,18 1063,18 1107,18 1107,44 1063,44 1063,43" stroke-linejoin="round" width="44" height="26" fill="rgb(224,184,98)" stroke="rgb(179,147,78)" stroke-width="1" opacity="0.75" />
		</g>
		<g>
			<title>PF00550</title>
			<rect class="PF00550" x="1114" y="18" stroke-linejoin="round" width="6" height="26" fill="rgb(103,191,88)" stroke="rgb(82,152,70)" stroke-width="1" opacity="0.75" />
		</g>
		<g>
			<title>PF08659</title>
			<rect class="PF08659" x="1133" y="18" stroke-linejoin="round" width="18" height="26" fill="rgb(66,209,188)" stroke="rgb(52,167,150)" stroke-width="1" opacity="0.75" />
		</g>
		<g>
			<title>PF08242</title>
			<rect class="PF08242" x="1212" y="18" stroke-linejoin="round" width="10" height="26" fill="rgb(187,59,115)" stroke="rgb(149,47,92)" stroke-width="1" opacity="0.75" />
		</g>
		<g>
			<title>PF14765</title>
			<rect class="PF14765" x="1240" y="18" stroke-linejoin="round" width="31" height="26" fill="rgb(173,56,182)" stroke="rgb(138,44,145)" stroke-width="1" opacity="0.75" />
		</g>
		<g>
			<title>PF00698</title>
			<rect class="PF00698" x="1277" y="18" stroke-linejoin="round" width="34" height="26" fill="rgb(59,176,209)" stroke="rgb(47,140,167)" stroke-width="1" opacity="0.75" />
		</g>
		<g>
			<title>PF16197</title>
			<rect class="PF16197" x="1314" y="18" stroke-linejoin="round" width="12" height="26" fill="rgb(68,179,89)" stroke="rgb(54,143,71)" stroke-width="1" opacity="0.75" />
		</g>
		<g>
			<title>PF02801</title>
			<rect class="PF02801" x="1327" y="18" stroke-linejoin="round" width="12" height="26" fill="rgb(215,78,102)" stroke="rgb(172,62,81)" stroke-width="1" opacity="0.75" />
		</g>
		<g>
			<title>PF00109</title>
			<rect class="PF00109" x="1341" y="18" stroke-linejoin="round" width="25" height="26" fill="rgb(112,116,228)" stroke="rgb(89,92,182)" stroke-width="1" opacity="0.75" />
		</g>
	</g>
	<g>
		<title>mkC</title>
		<polygon class="mkC" points="1382,16 1409,16 1409,1 1439,31 1409,61 1409,46 1382,46" fill="rgb(250,216,180)" fill-opacity="1.0" stroke="rgb(100,86,72)" stroke-width="1" />
		<g>
			<title>PF00067</title>
			<polygon class="PF00067" points="1394,18 1423,18 1433,28 1433,34 1423,44 1394,44" stroke-linejoin="round" width="39" height="26" fill="rgb(85,216,107)" stroke="rgb(68,172,85)" stroke-width="1" opacity="0.75" />
		</g>
	</g>
</svg>
