<svg version="1.1" baseProfile="full" xmlns="http://www.w3.org/2000/svg" width="211" height="62">
	<line x1="1" y1="31" x2="210" y2="31" style="stroke:rgb(50,50,50); stroke-width:3 "/>
	<g>
		<title>dox5</title>
		<polygon class="dox5" points="1,16 8,16 8,1 38,31 8,61 8,46 1,46" fill="rgb(253,214,219)" fill-opacity="1.0" stroke="rgb(101,85,87)" stroke-width="1" />
		<g>
			<title>PF02775</title>
			<polygon class="PF02775" points="9,18 22,18 23,19 23,43 22,44 9,44" stroke-linejoin="round" width="14" height="26" fill="rgb(156,179,45)" stroke="rgb(124,143,36)" stroke-width="1" opacity="0.75" />
		</g>
	</g>
	<g>
		<title>dox6</title>
		<polygon class="dox6" points="39,16 57,16 57,1 87,31 57,61 57,46 39,46" fill="rgb(252,211,228)" fill-opacity="1.0" stroke="rgb(100,84,91)" stroke-width="1" />
		<g>
			<title>PF00999</title>
			<polygon class="PF00999" points="40,18 71,18 79,26 79,36 71,44 40,44" stroke-linejoin="round" width="39" height="26" fill="rgb(229,67,191)" stroke="rgb(183,53,152)" stroke-width="1" opacity="0.75" />
		</g>
	</g>
	<g>
		<title>dox7</title>
		<polygon class="dox7" points="90,16 98,16 98,1 128,31 98,61 98,46 90,46" fill="rgb(251,216,212)" fill-opacity="1.0" stroke="rgb(100,86,84)" stroke-width="1" />
		<g>
			<title>PF02771</title>
			<rect class="PF02771" x="90" y="18" stroke-linejoin="round" width="11" height="26" fill="rgb(105,135,218)" stroke="rgb(84,108,174)" stroke-width="1" opacity="0.75" />
		</g>
		<g>
			<title>PF02770</title>
			<rect class="PF02770" x="102" y="18" stroke-linejoin="round" width="9" height="26" fill="rgb(225,186,97)" stroke="rgb(180,148,77)" stroke-width="1" opacity="0.75" />
		</g>
		<g>
			<title>PF00441</title>
			<polygon class="PF00441" points="112,18 112,18 125,31 112,44 112,44" stroke-linejoin="round" width="14" height="26" fill="rgb(85,191,117)" stroke="rgb(68,152,93)" stroke-width="1" opacity="0.75" />
		</g>
	</g>
	<g>
		<title>dox8</title>
		<polygon class="dox8" points="129,16 148,16 148,1 178,31 148,61 148,46 129,46" fill="rgb(254,181,202)" fill-opacity="1.0" stroke="rgb(101,72,80)" stroke-width="1" />
		<g>
			<title>PF00501</title>
			<polygon class="PF00501" points="129,18 162,18 167,23 167,39 162,44 129,44" stroke-linejoin="round" width="38" height="26" fill="rgb(60,217,223)" stroke="rgb(48,173,178)" stroke-width="1" opacity="0.75" />
		</g>
		<g>
			<title>PF13193</title>
			<polygon class="PF13193" points="169,25 175,31 169,37" stroke-linejoin="round" width="7" height="26" fill="rgb(182,50,118)" stroke="rgb(145,39,94)" stroke-width="1" opacity="0.75" />
		</g>
	</g>
	<g>
		<title>dox9</title>
		<polygon class="dox9" points="178,16 178,16 178,1 196,31 178,61 178,46 178,46" fill="rgb(230,211,252)" fill-opacity="1.0" stroke="rgb(92,84,100)" stroke-width="1" />
		<g>
			<title>PF01613</title>
			<polygon class="PF01613" points="181,18 185,18 193,31 185,44 181,44" stroke-linejoin="round" width="14" height="26" fill="rgb(107,197,222)" stroke="rgb(85,157,177)" stroke-width="1" opacity="0.75" />
		</g>
	</g>
	<g>
		<title>dox10</title>
		<polygon class="dox10" points="209,16 209,16 209,1 200,31 209,61 209,46 209,46" fill="rgb(240,251,184)" fill-opacity="1.0" stroke="rgb(96,100,73)" stroke-width="1" />
		<g>
			<title>PF00550</title>
			<polygon class="PF00550" points="202,31 206,18 208,18 208,44 206,44" stroke-linejoin="round" width="6" height="26" fill="rgb(103,191,88)" stroke="rgb(82,152,70)" stroke-width="1" opacity="0.75" />
		</g>
	</g>
</svg>
