<svg version="1.1" baseProfile="full" xmlns="http://www.w3.org/2000/svg" width="164" height="62">
	<line x1="1" y1="31" x2="163" y2="31" style="stroke:rgb(50,50,50); stroke-width:3 "/>
	<g>
		<title>cpsD</title>
		<polygon class="cpsD" points="1,16 1,16 1,1 5,31 1,61 1,46 1,46" fill="rgb(219,178,254)" fill-opacity="1.0" stroke="rgb(87,71,101)" stroke-width="1" />
	</g>
	<g>
		<title>cpsE</title>
		<polygon class="cpsE" points="13,16 22,16 22,1 52,31 22,61 22,46 13,46" fill="rgb(195,254,200)" fill-opacity="1.0" stroke="rgb(77,101,80)" stroke-width="1" />
		<g>
			<title>PF02397</title>
			<polygon class="PF02397" points="32,18 36,18 49,31 36,44 32,44" stroke-linejoin="round" width="18" height="26" fill="rgb(57,165,209)" stroke="rgb(45,131,167)" stroke-width="1" opacity="0.75" />
		</g>
	</g>
	<g>
		<title>cpsF</title>
		<polygon class="cpsF" points="52,16 52,16 52,1 67,31 52,61 52,46 52,46" fill="rgb(252,202,177)" fill-opacity="1.0" stroke="rgb(100,80,70)" stroke-width="1" />
		<g>
			<title>PF08660</title>
			<polygon class="PF08660" points="52,18 58,18 64,31 58,44 52,44" stroke-linejoin="round" width="14" height="26" fill="rgb(171,179,66)" stroke="rgb(136,143,52)" stroke-width="1" opacity="0.75" />
		</g>
	</g>
	<g>
		<title>cpsG</title>
		<polygon class="cpsG" points="67,16 67,16 67,1 83,31 67,61 67,46 67,46" fill="rgb(198,252,202)" fill-opacity="1.0" stroke="rgb(79,100,80)" stroke-width="1" />
		<g>
			<title>PF04101</title>
			<polygon class="PF04101" points="67,18 73,18 80,31 73,44 67,44" stroke-linejoin="round" width="15" height="26" fill="rgb(211,90,140)" stroke="rgb(168,72,112)" stroke-width="1" opacity="0.75" />
		</g>
	</g>
	<g>
		<title>cpsH</title>
		<polygon class="cpsH" points="87,16 95,16 95,1 125,31 95,61 95,46 87,46" fill="rgb(206,232,251)" fill-opacity="1.0" stroke="rgb(82,92,100)" stroke-width="1" />
		<g>
			<title>PF04932</title>
			<polygon class="PF04932" points="104,18 109,18 117,26 117,36 109,44 104,44" stroke-linejoin="round" width="13" height="26" fill="rgb(106,219,107)" stroke="rgb(84,175,85)" stroke-width="1" opacity="0.75" />
		</g>
	</g>
	<g>
		<title>cpsI</title>
		<polygon class="cpsI" points="125,16 127,16 127,1 157,31 127,61 127,46 125,46" fill="rgb(184,254,235)" fill-opacity="1.0" stroke="rgb(73,101,93)" stroke-width="1" />
		<g>
			<title>PF00535</title>
			<rect class="PF00535" x="125" y="18" stroke-linejoin="round" width="16" height="26" fill="rgb(224,122,96)" stroke="rgb(179,97,76)" stroke-width="1" opacity="0.75" />
		</g>
	</g>
	<g>
		<title>cpsJ</title>
		<polygon class="cpsJ" points="158,16 158,16 158,1 163,31 158,61 158,46 158,46" fill="rgb(251,201,187)" fill-opacity="1.0" stroke="rgb(100,80,74)" stroke-width="1" />
		<g>
			<title>PF00535</title>
			<polygon class="PF00535" points="159,20 160,31 159,42" stroke-linejoin="round" width="4" height="26" fill="rgb(224,122,96)" stroke="rgb(179,97,76)" stroke-width="1" opacity="0.75" />
		</g>
	</g>
</svg>
