<svg version="1.1" baseProfile="full" xmlns="http://www.w3.org/2000/svg" width="204" height="372">
	<line x1="1" y1="31" x2="53" y2="31" style="stroke:rgb(50,50,50); stroke-width:3 "/>
	<line x1="1" y1="93" x2="49" y2="93" style="stroke:rgb(50,50,50); stroke-width:3 "/>
	<line x1="1" y1="155" x2="33" y2="155" style="stroke:rgb(50,50,50); stroke-width:3 "/>
	<line x1="1" y1="217" x2="61" y2="217" style="stroke:rgb(50,50,50); stroke-width:3 "/>
	<line x1="1" y1="279" x2="75" y2="279" style="stroke:rgb(50,50,50); stroke-width:3 "/>
	<line x1="1" y1="341" x2="203" y2="341" style="stroke:rgb(50,50,50); stroke-width:3 "/>
	<g>
		<title>bik2</title>
		<polygon class="bik2" points="1,16 23,16 23,1 53,31 23,61 23,46 1,46" fill="rgb(246,208,251)" fill-opacity="1.0" stroke="rgb(98,83,100)" stroke-width="1" />
		<g>
			<title>PF01494</title>
			<rect class="PF01494" x="1" y="18" stroke-linejoin="round" width="36" height="26" fill="rgb(182,175,59)" stroke="rgb(145,140,47)" stroke-width="1" opacity="0.75" />
		</g>
	</g>
	<g>
		<title>bik3</title>
		<polygon class="bik3" points="1,78 19,78 19,63 49,93 19,123 19,108 1,108" fill="rgb(222,253,197)" fill-opacity="1.0" stroke="rgb(88,101,78)" stroke-width="1" />
		<g>
			<title>PF00891</title>
			<polygon class="PF00891" points="20,80 33,80 42,89 42,97 33,106 20,106" stroke-linejoin="round" width="22" height="26" fill="rgb(50,51,190)" stroke="rgb(39,40,152)" stroke-width="1" opacity="0.75" />
		</g>
	</g>
	<g>
		<title>bik4</title>
		<polygon class="bik4" points="1,140 3,140 3,125 33,155 3,185 3,170 1,170" fill="rgb(253,218,195)" fill-opacity="1.0" stroke="rgb(101,87,78)" stroke-width="1" />
		<g>
			<title>PF05368</title>
			<polygon class="PF05368" points="1,142 17,142 23,148 23,162 17,168 1,168" stroke-linejoin="round" width="22" height="26" fill="rgb(97,49,192)" stroke="rgb(77,39,153)" stroke-width="1" opacity="0.75" />
		</g>
	</g>
	<g>
		<title>bik6</title>
		<polygon class="bik6" points="1,202 31,202 31,187 61,217 31,247 31,232 1,232" fill="rgb(195,251,253)" fill-opacity="1.0" stroke="rgb(78,100,101)" stroke-width="1" />
		<g>
			<title>PF07690</title>
			<rect class="PF07690" x="5" y="204" stroke-linejoin="round" width="38" height="26" fill="rgb(193,224,74)" stroke="rgb(154,179,59)" stroke-width="1" opacity="0.75" />
		</g>
	</g>
	<g>
		<title>bik5</title>
		<polygon class="bik5" points="1,264 45,264 45,249 75,279 45,309 45,294 1,294" fill="rgb(211,247,252)" fill-opacity="1.0" stroke="rgb(84,98,100)" stroke-width="1" />
		<g>
			<title>PF04082</title>
			<rect class="PF04082" x="18" y="266" stroke-linejoin="round" width="20" height="26" fill="rgb(51,172,200)" stroke="rgb(40,137,160)" stroke-width="1" opacity="0.75" />
		</g>
	</g>
	<g>
		<title>bik1</title>
		<polygon class="bik1" points="1,326 173,326 173,311 203,341 173,371 173,356 1,356" fill="rgb(219,253,195)" fill-opacity="1.0" stroke="rgb(87,101,78)" stroke-width="1" />
		<g>
			<title>PF16073</title>
			<rect class="PF16073" x="1" y="328" stroke-linejoin="round" width="9" height="26" fill="rgb(77,115,183)" stroke="rgb(61,91,146)" stroke-width="1" opacity="0.75" />
		</g>
		<g>
			<title>PF16073</title>
			<rect class="PF16073" x="10" y="328" stroke-linejoin="round" width="11" height="26" fill="rgb(77,115,183)" stroke="rgb(61,91,146)" stroke-width="1" opacity="0.75" />
		</g>
		<g>
			<title>PF00109</title>
			<rect class="PF00109" x="34" y="328" stroke-linejoin="round" width="24" height="26" fill="rgb(112,116,228)" stroke="rgb(89,92,182)" stroke-width="1" opacity="0.75" />
		</g>
		<g>
			<title>PF02801</title>
			<rect class="PF02801" x="60" y="328" stroke-linejoin="round" width="12" height="26" fill="rgb(215,78,102)" stroke="rgb(172,62,81)" stroke-width="1" opacity="0.75" />
		</g>
		<g>
			<title>PF00698</title>
			<rect class="PF00698" x="88" y="328" stroke-linejoin="round" width="31" height="26" fill="rgb(59,176,209)" stroke="rgb(47,140,167)" stroke-width="1" opacity="0.75" />
		</g>
		<g>
			<title>PF14765</title>
			<rect class="PF14765" x="127" y="328" stroke-linejoin="round" width="30" height="26" fill="rgb(173,56,182)" stroke="rgb(138,44,145)" stroke-width="1" opacity="0.75" />
		</g>
		<g>
			<title>PF00550</title>
			<rect class="PF00550" x="163" y="328" stroke-linejoin="round" width="6" height="26" fill="rgb(103,191,88)" stroke="rgb(82,152,70)" stroke-width="1" opacity="0.75" />
		</g>
		<g>
			<title>PF00975</title>
			<polygon class="PF00975" points="176,328 187,328 191,332 191,350 187,354 176,354" stroke-linejoin="round" width="15" height="26" fill="rgb(207,80,138)" stroke="rgb(165,63,110)" stroke-width="1" opacity="0.75" />
		</g>
	</g>
</svg>
