<svg version="1.1" baseProfile="full" xmlns="http://www.w3.org/2000/svg" width="2760" height="62">
	<line x1="1" y1="31" x2="2759" y2="31" style="stroke:rgb(50,50,50); stroke-width:3 "/>
	<g>
		<title>asm28</title>
		<polygon class="asm28" points="347,16 347,16 347,1 362,31 347,61 347,46 347,46" fill="rgb(183,250,189)" fill-opacity="1.0" stroke="rgb(73,100,75)" stroke-width="1" />
		<g>
			<title>PF14325</title>
			<polygon class="PF14325" points="348,18 353,18 359,31 353,44 348,44" stroke-linejoin="round" width="12" height="26" fill="rgb(199,204,89)" stroke="rgb(159,163,71)" stroke-width="1" opacity="0.75" />
		</g>
	</g>
	<g>
		<title>asm27</title>
		<polygon class="asm27" points="398,16 394,16 394,1 364,31 394,61 394,46 398,46" fill="rgb(208,214,252)" fill-opacity="1.0" stroke="rgb(83,85,100)" stroke-width="1" />
		<g>
			<title>PF00106</title>
			<polygon class="PF00106" points="377,20 379,18 396,18 396,44 379,44 377,41" stroke-linejoin="round" width="19" height="26" fill="rgb(182,219,73)" stroke="rgb(145,175,58)" stroke-width="1" opacity="0.75" />
		</g>
	</g>
	<g>
		<title>asm26</title>
		<polygon class="asm26" points="404,16 404,16 404,1 412,31 404,61 404,46 404,46" fill="rgb(218,253,178)" fill-opacity="1.0" stroke="rgb(87,101,71)" stroke-width="1" />
	</g>
	<g>
		<title>asm25</title>
		<polygon class="asm25" points="456,16 446,16 446,1 416,31 446,61 446,46 456,46" fill="rgb(199,233,250)" fill-opacity="1.0" stroke="rgb(79,93,100)" stroke-width="1" />
		<g>
			<title>PF00201</title>
			<polygon class="PF00201" points="419,30 428,21 428,40 419,31" stroke-linejoin="round" width="9" height="26" fill="rgb(225,150,107)" stroke="rgb(180,120,85)" stroke-width="1" opacity="0.75" />
		</g>
	</g>
	<g>
		<title>asmB</title>
		<polygon class="asmB" points="766,16 489,16 489,1 459,31 489,61 489,46 766,46" fill="rgb(253,204,213)" fill-opacity="1.0" stroke="rgb(101,81,85)" stroke-width="1" />
		<g>
			<title>PF00550</title>
			<polygon class="PF00550" points="467,25 473,19 473,42 467,36" stroke-linejoin="round" width="6" height="26" fill="rgb(103,191,88)" stroke="rgb(82,152,70)" stroke-width="1" opacity="0.75" />
		</g>
		<g>
			<title>PF00698</title>
			<rect class="PF00698" x="507" y="18" stroke-linejoin="round" width="30" height="26" fill="rgb(59,176,209)" stroke="rgb(47,140,167)" stroke-width="1" opacity="0.75" />
		</g>
		<g>
			<title>PF16197</title>
			<rect class="PF16197" x="541" y="18" stroke-linejoin="round" width="12" height="26" fill="rgb(68,179,89)" stroke="rgb(54,143,71)" stroke-width="1" opacity="0.75" />
		</g>
		<g>
			<title>PF02801</title>
			<rect class="PF02801" x="553" y="18" stroke-linejoin="round" width="11" height="26" fill="rgb(215,78,102)" stroke="rgb(172,62,81)" stroke-width="1" opacity="0.75" />
		</g>
		<g>
			<title>PF00109</title>
			<rect class="PF00109" x="565" y="18" stroke-linejoin="round" width="24" height="26" fill="rgb(112,116,228)" stroke="rgb(89,92,182)" stroke-width="1" opacity="0.75" />
		</g>
		<g>
			<title>PF00550</title>
			<rect class="PF00550" x="593" y="18" stroke-linejoin="round" width="6" height="26" fill="rgb(103,191,88)" stroke="rgb(82,152,70)" stroke-width="1" opacity="0.75" />
		</g>
		<g>
			<title>PF08659</title>
			<rect class="PF08659" x="608" y="18" stroke-linejoin="round" width="17" height="26" fill="rgb(66,209,188)" stroke="rgb(52,167,150)" stroke-width="1" opacity="0.75" />
		</g>
		<g>
			<title>PF14765</title>
			<rect class="PF14765" x="639" y="18" stroke-linejoin="round" width="26" height="26" fill="rgb(173,56,182)" stroke="rgb(138,44,145)" stroke-width="1" opacity="0.75" />
		</g>
		<g>
			<title>PF00698</title>
			<rect class="PF00698" x="670" y="18" stroke-linejoin="round" width="31" height="26" fill="rgb(59,176,209)" stroke="rgb(47,140,167)" stroke-width="1" opacity="0.75" />
		</g>
		<g>
			<title>PF02801</title>
			<rect class="PF02801" x="725" y="18" stroke-linejoin="round" width="11" height="26" fill="rgb(215,78,102)" stroke="rgb(172,62,81)" stroke-width="1" opacity="0.75" />
		</g>
		<g>
			<title>PF00109</title>
			<rect class="PF00109" x="738" y="18" stroke-linejoin="round" width="25" height="26" fill="rgb(112,116,228)" stroke="rgb(89,92,182)" stroke-width="1" opacity="0.75" />
		</g>
	</g>
	<g>
		<title>asmA</title>
		<polygon class="asmA" points="1235,16 797,16 797,1 767,31 797,61 797,46 1235,46" fill="rgb(250,225,191)" fill-opacity="1.0" stroke="rgb(100,90,76)" stroke-width="1" />
		<g>
			<title>PF00550</title>
			<polygon class="PF00550" points="770,30 777,23 777,38 770,31" stroke-linejoin="round" width="7" height="26" fill="rgb(103,191,88)" stroke="rgb(82,152,70)" stroke-width="1" opacity="0.75" />
		</g>
		<g>
			<title>PF08659</title>
			<rect class="PF08659" x="784" y="18" stroke-linejoin="round" width="16" height="26" fill="rgb(66,209,188)" stroke="rgb(52,167,150)" stroke-width="1" opacity="0.75" />
		</g>
		<g>
			<title>PF14765</title>
			<rect class="PF14765" x="816" y="18" stroke-linejoin="round" width="27" height="26" fill="rgb(173,56,182)" stroke="rgb(138,44,145)" stroke-width="1" opacity="0.75" />
		</g>
		<g>
			<title>PF00698</title>
			<rect class="PF00698" x="848" y="18" stroke-linejoin="round" width="30" height="26" fill="rgb(59,176,209)" stroke="rgb(47,140,167)" stroke-width="1" opacity="0.75" />
		</g>
		<g>
			<title>PF02801</title>
			<rect class="PF02801" x="901" y="18" stroke-linejoin="round" width="11" height="26" fill="rgb(215,78,102)" stroke="rgb(172,62,81)" stroke-width="1" opacity="0.75" />
		</g>
		<g>
			<title>PF00109</title>
			<rect class="PF00109" x="914" y="18" stroke-linejoin="round" width="25" height="26" fill="rgb(112,116,228)" stroke="rgb(89,92,182)" stroke-width="1" opacity="0.75" />
		</g>
		<g>
			<title>PF00550</title>
			<rect class="PF00550" x="942" y="18" stroke-linejoin="round" width="6" height="26" fill="rgb(103,191,88)" stroke="rgb(82,152,70)" stroke-width="1" opacity="0.75" />
		</g>
		<g>
			<title>PF08659</title>
			<rect class="PF08659" x="957" y="18" stroke-linejoin="round" width="17" height="26" fill="rgb(66,209,188)" stroke="rgb(52,167,150)" stroke-width="1" opacity="0.75" />
		</g>
		<g>
			<title>PF13602</title>
			<rect class="PF13602" x="976" y="18" stroke-linejoin="round" width="12" height="26" fill="rgb(101,131,226)" stroke="rgb(80,104,180)" stroke-width="1" opacity="0.75" />
		</g>
		<g>
			<title>PF14765</title>
			<rect class="PF14765" x="1020" y="18" stroke-linejoin="round" width="26" height="26" fill="rgb(173,56,182)" stroke="rgb(138,44,145)" stroke-width="1" opacity="0.75" />
		</g>
		<g>
			<title>PF00698</title>
			<rect class="PF00698" x="1051" y="18" stroke-linejoin="round" width="30" height="26" fill="rgb(59,176,209)" stroke="rgb(47,140,167)" stroke-width="1" opacity="0.75" />
		</g>
		<g>
			<title>PF16197</title>
			<rect class="PF16197" x="1085" y="18" stroke-linejoin="round" width="11" height="26" fill="rgb(68,179,89)" stroke="rgb(54,143,71)" stroke-width="1" opacity="0.75" />
		</g>
		<g>
			<title>PF02801</title>
			<rect class="PF02801" x="1096" y="18" stroke-linejoin="round" width="11" height="26" fill="rgb(215,78,102)" stroke="rgb(172,62,81)" stroke-width="1" opacity="0.75" />
		</g>
		<g>
			<title>PF00109</title>
			<rect class="PF00109" x="1109" y="18" stroke-linejoin="round" width="24" height="26" fill="rgb(112,116,228)" stroke="rgb(89,92,182)" stroke-width="1" opacity="0.75" />
		</g>
		<g>
			<title>PF00550</title>
			<rect class="PF00550" x="1136" y="18" stroke-linejoin="round" width="7" height="26" fill="rgb(103,191,88)" stroke="rgb(82,152,70)" stroke-width="1" opacity="0.75" />
		</g>
		<g>
			<title>PF13193</title>
			<rect class="PF13193" x="1186" y="18" stroke-linejoin="round" width="7" height="26" fill="rgb(182,50,118)" stroke="rgb(145,39,94)" stroke-width="1" opacity="0.75" />
		</g>
		<g>
			<title>PF00501</title>
			<rect class="PF00501" x="1194" y="18" stroke-linejoin="round" width="39" height="26" fill="rgb(60,217,223)" stroke="rgb(48,173,178)" stroke-width="1" opacity="0.75" />
		</g>
	</g>
	<g>
		<title>asm24</title>
		<polygon class="asm24" points="1286,16 1278,16 1278,1 1248,31 1278,61 1278,46 1286,46" fill="rgb(215,251,212)" fill-opacity="1.0" stroke="rgb(86,100,84)" stroke-width="1" />
		<g>
			<title>PF01041</title>
			<polygon class="PF01041" points="1250,31 1263,18 1284,18 1284,44 1263,44" stroke-linejoin="round" width="36" height="26" fill="rgb(59,139,191)" stroke="rgb(47,111,152)" stroke-width="1" opacity="0.75" />
		</g>
	</g>
	<g>
		<title>asm23</title>
		<polygon class="asm23" points="1295,16 1295,16 1295,1 1309,31 1295,61 1295,46 1295,46" fill="rgb(253,229,177)" fill-opacity="1.0" stroke="rgb(101,91,70)" stroke-width="1" />
		<g>
			<title>PF01220</title>
			<polygon class="PF01220" points="1295,18 1300,18 1306,31 1300,44 1295,44" stroke-linejoin="round" width="13" height="26" fill="rgb(130,67,203)" stroke="rgb(103,53,162)" stroke-width="1" opacity="0.75" />
		</g>
	</g>
	<g>
		<title>asm22</title>
		<polygon class="asm22" points="1343,16 1343,16 1343,1 1318,31 1343,61 1343,46 1343,46" fill="rgb(252,200,191)" fill-opacity="1.0" stroke="rgb(100,80,76)" stroke-width="1" />
		<g>
			<title>PF00480</title>
			<polygon class="PF00480" points="1320,31 1331,18 1342,18 1342,44 1331,44" stroke-linejoin="round" width="24" height="26" fill="rgb(205,99,210)" stroke="rgb(163,79,168)" stroke-width="1" opacity="0.75" />
		</g>
	</g>
	<g>
		<title>asm21</title>
		<polygon class="asm21" points="1435,16 1399,16 1399,1 1369,31 1399,61 1399,46 1435,46" fill="rgb(210,233,250)" fill-opacity="1.0" stroke="rgb(84,93,100)" stroke-width="1" />
		<g>
			<title>PF16861</title>
			<polygon class="PF16861" points="1378,24 1384,18 1395,18 1395,44 1384,44 1378,37" stroke-linejoin="round" width="17" height="26" fill="rgb(183,87,154)" stroke="rgb(146,69,123)" stroke-width="1" opacity="0.75" />
		</g>
		<g>
			<title>PF02543</title>
			<rect class="PF02543" x="1401" y="18" stroke-linejoin="round" width="33" height="26" fill="rgb(146,218,61)" stroke="rgb(116,174,48)" stroke-width="1" opacity="0.75" />
		</g>
	</g>
	<g>
		<title>asm37</title>
		<polygon class="asm37" points="1,16 26,16 26,1 56,31 26,61 26,46 1,46" fill="rgb(214,252,202)" fill-opacity="1.0" stroke="rgb(85,100,80)" stroke-width="1" />
		<g>
			<title>PF16173</title>
			<rect class="PF16173" x="17" y="18" stroke-linejoin="round" width="16" height="26" fill="rgb(173,205,93)" stroke="rgb(138,164,74)" stroke-width="1" opacity="0.75" />
		</g>
		<g>
			<title>PF16116</title>
			<polygon class="PF16116" points="34,18 40,18 53,31 40,44 34,44" stroke-linejoin="round" width="20" height="26" fill="rgb(84,186,57)" stroke="rgb(67,148,45)" stroke-width="1" opacity="0.75" />
		</g>
	</g>
	<g>
		<title>asm20</title>
		<polygon class="asm20" points="1444,16 1444,16 1444,1 1455,31 1444,61 1444,46 1444,46" fill="rgb(212,253,244)" fill-opacity="1.0" stroke="rgb(84,101,97)" stroke-width="1" />
		<g>
			<title>PF03795</title>
			<polygon class="PF03795" points="1444,18 1447,18 1452,31 1447,44 1444,44" stroke-linejoin="round" width="11" height="26" fill="rgb(54,71,186)" stroke="rgb(43,56,148)" stroke-width="1" opacity="0.75" />
		</g>
	</g>
	<g>
		<title>asm19</title>
		<polygon class="asm19" points="1493,16 1486,16 1486,1 1456,31 1486,61 1486,46 1493,46" fill="rgb(251,207,248)" fill-opacity="1.0" stroke="rgb(100,82,99)" stroke-width="1" />
		<g>
			<title>PF01757</title>
			<polygon class="PF01757" points="1458,31 1471,18 1492,18 1492,44 1471,44" stroke-linejoin="round" width="34" height="26" fill="rgb(50,152,200)" stroke="rgb(40,121,160)" stroke-width="1" opacity="0.75" />
		</g>
	</g>
	<g>
		<title>asm18</title>
		<polygon class="asm18" points="1585,16 1524,16 1524,1 1494,31 1524,61 1524,46 1585,46" fill="rgb(250,194,223)" fill-opacity="1.0" stroke="rgb(100,77,89)" stroke-width="1" />
		<g>
			<title>PF13191</title>
			<rect class="PF13191" x="1517" y="18" stroke-linejoin="round" width="18" height="26" fill="rgb(186,102,77)" stroke="rgb(148,81,61)" stroke-width="1" opacity="0.75" />
		</g>
		<g>
			<title>PF03704</title>
			<rect class="PF03704" x="1560" y="18" stroke-linejoin="round" width="14" height="26" fill="rgb(217,89,196)" stroke="rgb(173,71,156)" stroke-width="1" opacity="0.75" />
		</g>
		<g>
			<title>PF00486</title>
			<rect class="PF00486" x="1576" y="18" stroke-linejoin="round" width="7" height="26" fill="rgb(204,153,57)" stroke="rgb(163,122,45)" stroke-width="1" opacity="0.75" />
		</g>
	</g>
	<g>
		<title>asm17</title>
		<polygon class="asm17" points="1608,16 1608,16 1608,1 1592,31 1608,61 1608,46 1608,46" fill="rgb(215,207,253)" fill-opacity="1.0" stroke="rgb(86,82,101)" stroke-width="1" />
		<g>
			<title>PF01596</title>
			<polygon class="PF01596" points="1594,31 1601,18 1608,18 1608,44 1601,44" stroke-linejoin="round" width="16" height="26" fill="rgb(168,187,48)" stroke="rgb(134,149,38)" stroke-width="1" opacity="0.75" />
		</g>
	</g>
	<g>
		<title>asm16</title>
		<polygon class="asm16" points="1656,16 1643,16 1643,1 1613,31 1643,61 1643,46 1656,46" fill="rgb(231,196,253)" fill-opacity="1.0" stroke="rgb(92,78,101)" stroke-width="1" />
	</g>
	<g>
		<title>asm15</title>
		<polygon class="asm15" points="1695,16 1690,16 1690,1 1660,31 1690,61 1690,46 1695,46" fill="rgb(251,230,212)" fill-opacity="1.0" stroke="rgb(100,92,84)" stroke-width="1" />
		<g>
			<title>PF00441</title>
			<polygon class="PF00441" points="1662,31 1675,18 1675,43" stroke-linejoin="round" width="15" height="26" fill="rgb(85,191,117)" stroke="rgb(68,152,93)" stroke-width="1" opacity="0.75" />
		</g>
		<g>
			<title>PF02770</title>
			<rect class="PF02770" x="1676" y="18" stroke-linejoin="round" width="9" height="26" fill="rgb(225,186,97)" stroke="rgb(180,148,77)" stroke-width="1" opacity="0.75" />
		</g>
		<g>
			<title>PF02771</title>
			<rect class="PF02771" x="1686" y="18" stroke-linejoin="round" width="9" height="26" fill="rgb(105,135,218)" stroke="rgb(84,108,174)" stroke-width="1" opacity="0.75" />
		</g>
	</g>
	<g>
		<title>asm14</title>
		<polygon class="asm14" points="1706,16 1706,16 1706,1 1697,31 1706,61 1706,46 1706,46" fill="rgb(222,253,201)" fill-opacity="1.0" stroke="rgb(88,101,80)" stroke-width="1" />
		<g>
			<title>PF00550</title>
			<polygon class="PF00550" points="1699,31 1703,18 1705,18 1705,44 1703,44" stroke-linejoin="round" width="7" height="26" fill="rgb(103,191,88)" stroke="rgb(82,152,70)" stroke-width="1" opacity="0.75" />
		</g>
	</g>
	<g>
		<title>asm13</title>
		<polygon class="asm13" points="1740,16 1736,16 1736,1 1706,31 1736,61 1736,46 1740,46" fill="rgb(204,181,250)" fill-opacity="1.0" stroke="rgb(81,72,100)" stroke-width="1" />
		<g>
			<title>PF00725</title>
			<polygon class="PF00725" points="1708,31 1716,23 1716,38" stroke-linejoin="round" width="9" height="26" fill="rgb(180,78,60)" stroke="rgb(144,62,48)" stroke-width="1" opacity="0.75" />
		</g>
		<g>
			<title>PF02737</title>
			<polygon class="PF02737" points="1716,23 1721,18 1733,18 1733,44 1721,44 1716,38" stroke-linejoin="round" width="17" height="26" fill="rgb(212,65,199)" stroke="rgb(169,52,159)" stroke-width="1" opacity="0.75" />
		</g>
	</g>
	<g>
		<title>asm12</title>
		<polygon class="asm12" points="1749,16 1763,16 1763,1 1793,31 1763,61 1763,46 1749,46" fill="rgb(253,197,196)" fill-opacity="1.0" stroke="rgb(101,78,78)" stroke-width="1" />
		<g>
			<title>PF04820</title>
			<polygon class="PF04820" points="1757,18 1777,18 1784,25 1784,37 1777,44 1757,44" stroke-linejoin="round" width="27" height="26" fill="rgb(179,74,194)" stroke="rgb(143,59,155)" stroke-width="1" opacity="0.75" />
		</g>
	</g>
	<g>
		<title>asm11</title>
		<polygon class="asm11" points="1796,16 1814,16 1814,1 1844,31 1814,61 1814,46 1796,46" fill="rgb(252,200,209)" fill-opacity="1.0" stroke="rgb(100,80,83)" stroke-width="1" />
		<g>
			<title>PF01494</title>
			<rect class="PF01494" x="1796" y="18" stroke-linejoin="round" width="31" height="26" fill="rgb(182,175,59)" stroke="rgb(145,140,47)" stroke-width="1" opacity="0.75" />
		</g>
	</g>
	<g>
		<title>asm36</title>
		<polygon class="asm36" points="61,16 61,16 61,1 71,31 61,61 61,46 61,46" fill="rgb(189,254,254)" fill-opacity="1.0" stroke="rgb(75,101,101)" stroke-width="1" />
	</g>
	<g>
		<title>asm10</title>
		<polygon class="asm10" points="1844,16 1844,16 1844,1 1873,31 1844,61 1844,46 1844,46" fill="rgb(252,199,253)" fill-opacity="1.0" stroke="rgb(100,79,101)" stroke-width="1" />
		<g>
			<title>PF04072</title>
			<polygon class="PF04072" points="1846,18 1857,18 1863,24 1863,38 1857,44 1846,44" stroke-linejoin="round" width="17" height="26" fill="rgb(94,159,219)" stroke="rgb(75,127,175)" stroke-width="1" opacity="0.75" />
		</g>
	</g>
	<g>
		<title>asm9</title>
		<polygon class="asm9" points="1908,16 1908,16 1908,1 1882,31 1908,61 1908,46 1908,46" fill="rgb(226,254,200)" fill-opacity="1.0" stroke="rgb(90,101,80)" stroke-width="1" />
		<g>
			<title>PF00797</title>
			<polygon class="PF00797" points="1884,31 1895,18 1905,18 1905,44 1895,44" stroke-linejoin="round" width="23" height="26" fill="rgb(68,124,226)" stroke="rgb(54,99,180)" stroke-width="1" opacity="0.75" />
		</g>
	</g>
	<g>
		<title>asmD</title>
		<polygon class="asmD" points="2240,16 1938,16 1938,1 1908,31 1938,61 1938,46 2240,46" fill="rgb(251,191,240)" fill-opacity="1.0" stroke="rgb(100,76,96)" stroke-width="1" />
		<g>
			<title>PF00550</title>
			<polygon class="PF00550" points="1910,31 1915,26 1915,35" stroke-linejoin="round" width="6" height="26" fill="rgb(103,191,88)" stroke="rgb(82,152,70)" stroke-width="1" opacity="0.75" />
		</g>
		<g>
			<title>PF08659</title>
			<rect class="PF08659" x="1925" y="18" stroke-linejoin="round" width="17" height="26" fill="rgb(66,209,188)" stroke="rgb(52,167,150)" stroke-width="1" opacity="0.75" />
		</g>
		<g>
			<title>PF00698</title>
			<rect class="PF00698" x="1985" y="18" stroke-linejoin="round" width="30" height="26" fill="rgb(59,176,209)" stroke="rgb(47,140,167)" stroke-width="1" opacity="0.75" />
		</g>
		<g>
			<title>PF02801</title>
			<rect class="PF02801" x="2037" y="18" stroke-linejoin="round" width="11" height="26" fill="rgb(215,78,102)" stroke="rgb(172,62,81)" stroke-width="1" opacity="0.75" />
		</g>
		<g>
			<title>PF00109</title>
			<rect class="PF00109" x="2049" y="18" stroke-linejoin="round" width="23" height="26" fill="rgb(112,116,228)" stroke="rgb(89,92,182)" stroke-width="1" opacity="0.75" />
		</g>
		<g>
			<title>PF00550</title>
			<rect class="PF00550" x="2075" y="18" stroke-linejoin="round" width="6" height="26" fill="rgb(103,191,88)" stroke="rgb(82,152,70)" stroke-width="1" opacity="0.75" />
		</g>
		<g>
			<title>PF08659</title>
			<rect class="PF08659" x="2090" y="18" stroke-linejoin="round" width="17" height="26" fill="rgb(66,209,188)" stroke="rgb(52,167,150)" stroke-width="1" opacity="0.75" />
		</g>
		<g>
			<title>PF14765</title>
			<rect class="PF14765" x="2123" y="18" stroke-linejoin="round" width="26" height="26" fill="rgb(173,56,182)" stroke="rgb(138,44,145)" stroke-width="1" opacity="0.75" />
		</g>
		<g>
			<title>PF00698</title>
			<rect class="PF00698" x="2154" y="18" stroke-linejoin="round" width="30" height="26" fill="rgb(59,176,209)" stroke="rgb(47,140,167)" stroke-width="1" opacity="0.75" />
		</g>
		<g>
			<title>PF16197</title>
			<rect class="PF16197" x="2188" y="18" stroke-linejoin="round" width="11" height="26" fill="rgb(68,179,89)" stroke="rgb(54,143,71)" stroke-width="1" opacity="0.75" />
		</g>
		<g>
			<title>PF02801</title>
			<rect class="PF02801" x="2199" y="18" stroke-linejoin="round" width="11" height="26" fill="rgb(215,78,102)" stroke="rgb(172,62,81)" stroke-width="1" opacity="0.75" />
		</g>
		<g>
			<title>PF00109</title>
			<rect class="PF00109" x="2212" y="18" stroke-linejoin="round" width="25" height="26" fill="rgb(112,116,228)" stroke="rgb(89,92,182)" stroke-width="1" opacity="0.75" />
		</g>
		<g>
			<title>PF08990</title>
			<rect class="PF08990" x="2237" y="18" stroke-linejoin="round" width="2" height="26" fill="rgb(180,75,55)" stroke="rgb(144,60,44)" stroke-width="1" opacity="0.75" />
		</g>
	</g>
	<g>
		<title>asmC</title>
		<polygon class="asmC" points="2400,16 2271,16 2271,1 2241,31 2271,61 2271,46 2400,46" fill="rgb(231,180,250)" fill-opacity="1.0" stroke="rgb(92,72,100)" stroke-width="1" />
		<g>
			<title>PF00550</title>
			<polygon class="PF00550" points="2250,24 2256,18 2256,43 2250,37" stroke-linejoin="round" width="6" height="26" fill="rgb(103,191,88)" stroke="rgb(82,152,70)" stroke-width="1" opacity="0.75" />
		</g>
		<g>
			<title>PF08659</title>
			<rect class="PF08659" x="2267" y="18" stroke-linejoin="round" width="17" height="26" fill="rgb(66,209,188)" stroke="rgb(52,167,150)" stroke-width="1" opacity="0.75" />
		</g>
		<g>
			<title>PF00698</title>
			<rect class="PF00698" x="2313" y="18" stroke-linejoin="round" width="30" height="26" fill="rgb(59,176,209)" stroke="rgb(47,140,167)" stroke-width="1" opacity="0.75" />
		</g>
		<g>
			<title>PF16197</title>
			<rect class="PF16197" x="2349" y="18" stroke-linejoin="round" width="9" height="26" fill="rgb(68,179,89)" stroke="rgb(54,143,71)" stroke-width="1" opacity="0.75" />
		</g>
		<g>
			<title>PF02801</title>
			<rect class="PF02801" x="2358" y="18" stroke-linejoin="round" width="11" height="26" fill="rgb(215,78,102)" stroke="rgb(172,62,81)" stroke-width="1" opacity="0.75" />
		</g>
		<g>
			<title>PF00109</title>
			<rect class="PF00109" x="2371" y="18" stroke-linejoin="round" width="25" height="26" fill="rgb(112,116,228)" stroke="rgb(89,92,182)" stroke-width="1" opacity="0.75" />
		</g>
		<g>
			<title>PF08990</title>
			<rect class="PF08990" x="2397" y="18" stroke-linejoin="round" width="2" height="26" fill="rgb(180,75,55)" stroke="rgb(144,60,44)" stroke-width="1" opacity="0.75" />
		</g>
	</g>
	<g>
		<title>asm8</title>
		<polygon class="asm8" points="2513,16 2432,16 2432,1 2402,31 2432,61 2432,46 2513,46" fill="rgb(211,252,199)" fill-opacity="1.0" stroke="rgb(84,100,79)" stroke-width="1" />
		<g>
			<title>PF00196</title>
			<polygon class="PF00196" points="2404,31 2408,27 2408,34" stroke-linejoin="round" width="5" height="26" fill="rgb(219,94,82)" stroke="rgb(175,75,65)" stroke-width="1" opacity="0.75" />
		</g>
	</g>
	<g>
		<title>asm7</title>
		<polygon class="asm7" points="2520,16 2524,16 2524,1 2554,31 2524,61 2524,46 2520,46" fill="rgb(199,251,199)" fill-opacity="1.0" stroke="rgb(79,100,79)" stroke-width="1" />
		<g>
			<title>PF00891</title>
			<polygon class="PF00891" points="2530,18 2538,18 2551,31 2538,44 2530,44" stroke-linejoin="round" width="22" height="26" fill="rgb(50,51,190)" stroke="rgb(39,40,152)" stroke-width="1" opacity="0.75" />
		</g>
	</g>
	<g>
		<title>asm6</title>
		<polygon class="asm6" points="2568,16 2568,16 2568,1 2559,31 2568,61 2568,46 2568,46" fill="rgb(177,250,210)" fill-opacity="1.0" stroke="rgb(70,100,84)" stroke-width="1" />
	</g>
	<g>
		<title>asm5</title>
		<polygon class="asm5" points="2611,16 2600,16 2600,1 2570,31 2600,61 2600,46 2611,46" fill="rgb(209,250,210)" fill-opacity="1.0" stroke="rgb(83,100,84)" stroke-width="1" />
		<g>
			<title>PF00999</title>
			<polygon class="PF00999" points="2572,31 2585,18 2609,18 2609,44 2585,44" stroke-linejoin="round" width="38" height="26" fill="rgb(229,67,191)" stroke="rgb(183,53,152)" stroke-width="1" opacity="0.75" />
		</g>
	</g>
	<g>
		<title>asm4</title>
		<polygon class="asm4" points="2686,16 2642,16 2642,1 2612,31 2642,61 2642,46 2686,46" fill="rgb(187,253,203)" fill-opacity="1.0" stroke="rgb(74,101,81)" stroke-width="1" />
		<g>
			<title>PF00005</title>
			<polygon class="PF00005" points="2619,26 2627,18 2633,18 2633,44 2627,44 2619,35" stroke-linejoin="round" width="14" height="26" fill="rgb(129,201,63)" stroke="rgb(103,160,50)" stroke-width="1" opacity="0.75" />
		</g>
		<g>
			<title>PF00664</title>
			<rect class="PF00664" x="2640" y="18" stroke-linejoin="round" width="28" height="26" fill="rgb(149,226,73)" stroke="rgb(119,180,58)" stroke-width="1" opacity="0.75" />
		</g>
	</g>
	<g>
		<title>asm3</title>
		<polygon class="asm3" points="2696,16 2696,16 2696,1 2688,31 2696,61 2696,46 2696,46" fill="rgb(254,219,200)" fill-opacity="1.0" stroke="rgb(101,87,80)" stroke-width="1" />
		<g>
			<title>PF17195</title>
			<polygon class="PF17195" points="2690,31 2693,18 2694,18 2694,44 2693,44" stroke-linejoin="round" width="4" height="26" fill="rgb(59,186,68)" stroke="rgb(47,148,54)" stroke-width="1" opacity="0.75" />
		</g>
	</g>
	<g>
		<title>asm35</title>
		<polygon class="asm35" points="110,16 101,16 101,1 71,31 101,61 101,46 110,46" fill="rgb(254,217,189)" fill-opacity="1.0" stroke="rgb(101,86,75)" stroke-width="1" />
		<g>
			<title>PF07690</title>
			<polygon class="PF07690" points="74,30 86,18 108,18 108,44 86,44 74,31" stroke-linejoin="round" width="34" height="26" fill="rgb(193,224,74)" stroke="rgb(154,179,59)" stroke-width="1" opacity="0.75" />
		</g>
	</g>
	<g>
		<title>asm2</title>
		<polygon class="asm2" points="2723,16 2723,16 2723,1 2702,31 2723,61 2723,46 2723,46" fill="rgb(250,235,185)" fill-opacity="1.0" stroke="rgb(100,93,73)" stroke-width="1" />
		<g>
			<title>PF00440</title>
			<rect class="PF00440" x="2717" y="18" stroke-linejoin="round" width="4" height="26" fill="rgb(73,212,190)" stroke="rgb(58,169,152)" stroke-width="1" opacity="0.75" />
		</g>
	</g>
	<g>
		<title>asm1</title>
		<polygon class="asm1" points="2731,16 2731,16 2731,1 2755,31 2731,61 2731,46 2731,46" fill="rgb(190,222,250)" fill-opacity="1.0" stroke="rgb(76,88,100)" stroke-width="1" />
		<g>
			<title>PF08240</title>
			<rect class="PF08240" x="2731" y="18" stroke-linejoin="round" width="5" height="26" fill="rgb(211,65,138)" stroke="rgb(168,51,110)" stroke-width="1" opacity="0.75" />
		</g>
		<g>
			<title>PF13602</title>
			<polygon class="PF13602" points="2743,20 2752,31 2743,42" stroke-linejoin="round" width="11" height="26" fill="rgb(101,131,226)" stroke="rgb(80,104,180)" stroke-width="1" opacity="0.75" />
		</g>
	</g>
	<g>
		<title>asm34</title>
		<polygon class="asm34" points="135,16 135,16 135,1 115,31 135,61 135,46 135,46" fill="rgb(249,227,176)" fill-opacity="1.0" stroke="rgb(99,90,70)" stroke-width="1" />
		<g>
			<title>PF00440</title>
			<rect class="PF00440" x="129" y="18" stroke-linejoin="round" width="4" height="26" fill="rgb(73,212,190)" stroke="rgb(58,169,152)" stroke-width="1" opacity="0.75" />
		</g>
	</g>
	<g>
		<title>asm33</title>
		<polygon class="asm33" points="139,16 139,16 139,1 158,31 139,61 139,46 139,46" fill="rgb(227,251,203)" fill-opacity="1.0" stroke="rgb(90,100,81)" stroke-width="1" />
		<g>
			<title>PF01872</title>
			<polygon class="PF01872" points="139,18 147,18 155,31 147,44 139,44" stroke-linejoin="round" width="18" height="26" fill="rgb(225,80,120)" stroke="rgb(180,64,95)" stroke-width="1" opacity="0.75" />
		</g>
	</g>
	<g>
		<title>asm32</title>
		<polygon class="asm32" points="168,16 168,16 168,1 162,31 168,61 168,46 168,46" fill="rgb(204,250,187)" fill-opacity="1.0" stroke="rgb(81,100,74)" stroke-width="1" />
	</g>
	<g>
		<title>asm31</title>
		<polygon class="asm31" points="181,16 185,16 185,1 215,31 185,61 185,46 181,46" fill="rgb(252,184,221)" fill-opacity="1.0" stroke="rgb(100,73,88)" stroke-width="1" />
		<g>
			<title>PF00140</title>
			<rect class="PF00140" x="185" y="18" stroke-linejoin="round" width="3" height="26" fill="rgb(210,210,74)" stroke="rgb(168,168,59)" stroke-width="1" opacity="0.75" />
		</g>
		<g>
			<title>PF04542</title>
			<rect class="PF04542" x="192" y="18" stroke-linejoin="round" width="7" height="26" fill="rgb(184,59,197)" stroke="rgb(147,47,157)" stroke-width="1" opacity="0.75" />
		</g>
		<g>
			<title>PF04539</title>
			<polygon class="PF04539" points="200,19 207,26 207,36 200,43" stroke-linejoin="round" width="7" height="26" fill="rgb(66,187,131)" stroke="rgb(52,149,104)" stroke-width="1" opacity="0.75" />
		</g>
		<g>
			<title>PF04545</title>
			<polygon class="PF04545" points="209,28 212,31 209,34" stroke-linejoin="round" width="5" height="26" fill="rgb(75,207,224)" stroke="rgb(60,165,179)" stroke-width="1" opacity="0.75" />
		</g>
	</g>
	<g>
		<title>asm30</title>
		<polygon class="asm30" points="317,16 247,16 247,1 217,31 247,61 247,46 317,46" fill="rgb(224,184,251)" fill-opacity="1.0" stroke="rgb(89,73,100)" stroke-width="1" />
		<g>
			<title>PF00175</title>
			<polygon class="PF00175" points="219,31 229,21 229,40" stroke-linejoin="round" width="10" height="26" fill="rgb(177,211,96)" stroke="rgb(141,168,76)" stroke-width="1" opacity="0.75" />
		</g>
		<g>
			<title>PF00667</title>
			<polygon class="PF00667" points="232,18 232,18 251,18 251,44 232,44 232,43" stroke-linejoin="round" width="19" height="26" fill="rgb(145,74,201)" stroke="rgb(116,59,160)" stroke-width="1" opacity="0.75" />
		</g>
		<g>
			<title>PF00258</title>
			<rect class="PF00258" x="255" y="18" stroke-linejoin="round" width="13" height="26" fill="rgb(77,169,183)" stroke="rgb(61,135,146)" stroke-width="1" opacity="0.75" />
		</g>
		<g>
			<title>PF00067</title>
			<rect class="PF00067" x="271" y="18" stroke-linejoin="round" width="44" height="26" fill="rgb(85,216,107)" stroke="rgb(68,172,85)" stroke-width="1" opacity="0.75" />
		</g>
	</g>
	<g>
		<title>asm29</title>
		<polygon class="asm29" points="323,16 323,16 323,1 342,31 323,61 323,46 323,46" fill="rgb(220,253,178)" fill-opacity="1.0" stroke="rgb(88,101,71)" stroke-width="1" />
		<g>
			<title>PF00440</title>
			<rect class="PF00440" x="324" y="18" stroke-linejoin="round" width="4" height="26" fill="rgb(73,212,190)" stroke="rgb(58,169,152)" stroke-width="1" opacity="0.75" />
		</g>
	</g>
</svg>
