<svg version="1.1" baseProfile="full" xmlns="http://www.w3.org/2000/svg" width="1388" height="62">
	<line x1="1" y1="31" x2="1387" y2="31" style="stroke:rgb(50,50,50); stroke-width:3 "/>
	<g>
		<title>galJ</title>
		<polygon class="galJ" points="357,16 357,16 357,1 347,31 357,61 357,46 357,46" fill="rgb(214,249,195)" fill-opacity="1.0" stroke="rgb(85,99,78)" stroke-width="1" />
		<g>
			<title>PF00550</title>
			<polygon class="PF00550" points="349,31 353,18 354,18 354,44 353,44" stroke-linejoin="round" width="6" height="26" fill="rgb(103,191,88)" stroke="rgb(82,152,70)" stroke-width="1" opacity="0.75" />
		</g>
	</g>
	<g>
		<title>galK</title>
		<polygon class="galK" points="386,16 386,16 386,1 357,31 386,61 386,46 386,46" fill="rgb(204,252,246)" fill-opacity="1.0" stroke="rgb(81,100,98)" stroke-width="1" />
		<g>
			<title>PF00725</title>
			<polygon class="PF00725" points="359,31 366,24 366,37" stroke-linejoin="round" width="9" height="26" fill="rgb(180,78,60)" stroke="rgb(144,62,48)" stroke-width="1" opacity="0.75" />
		</g>
		<g>
			<title>PF02737</title>
			<polygon class="PF02737" points="367,23 372,18 385,18 385,44 372,44 367,38" stroke-linejoin="round" width="18" height="26" fill="rgb(212,65,199)" stroke="rgb(169,52,159)" stroke-width="1" opacity="0.75" />
		</g>
	</g>
	<g>
		<polygon class="NoName" points="424,16 418,16 418,1 388,31 418,61 418,46 424,46" fill="rgb(255,255,255)" fill-opacity="1.0" stroke="rgb(50,50,50)" stroke-width="1" />
		<g>
			<title>PF00355</title>
			<rect class="PF00355" x="411" y="18" stroke-linejoin="round" width="9" height="26" fill="rgb(186,77,145)" stroke="rgb(148,61,115)" stroke-width="1" opacity="0.75" />
		</g>
	</g>
	<g>
		<polygon class="NoName" points="474,16 455,16 455,1 425,31 455,61 455,46 474,46" fill="rgb(255,255,255)" fill-opacity="1.0" stroke="rgb(50,50,50)" stroke-width="1" />
		<g>
			<title>PF00067</title>
			<polygon class="PF00067" points="429,29 440,18 472,18 472,44 440,44 429,32" stroke-linejoin="round" width="43" height="26" fill="rgb(85,216,107)" stroke="rgb(68,172,85)" stroke-width="1" opacity="0.75" />
		</g>
	</g>
	<g>
		<polygon class="NoName" points="505,16 504,16 504,1 474,31 504,61 504,46 505,46" fill="rgb(255,255,255)" fill-opacity="1.0" stroke="rgb(50,50,50)" stroke-width="1" />
		<g>
			<title>PF08541</title>
			<polygon class="PF08541" points="476,31 484,23 484,38" stroke-linejoin="round" width="9" height="26" fill="rgb(146,207,81)" stroke="rgb(116,165,64)" stroke-width="1" opacity="0.75" />
		</g>
	</g>
	<g>
		<polygon class="NoName" points="713,16 539,16 539,1 509,31 539,61 539,46 713,46" fill="rgb(255,255,255)" fill-opacity="1.0" stroke="rgb(50,50,50)" stroke-width="1" />
		<g>
			<title>PF14765</title>
			<polygon class="PF14765" points="511,31 524,18 537,18 537,44 524,44" stroke-linejoin="round" width="27" height="26" fill="rgb(173,56,182)" stroke="rgb(138,44,145)" stroke-width="1" opacity="0.75" />
		</g>
		<g>
			<title>PF08659</title>
			<rect class="PF08659" x="548" y="18" stroke-linejoin="round" width="22" height="26" fill="rgb(66,209,188)" stroke="rgb(52,167,150)" stroke-width="1" opacity="0.75" />
		</g>
		<g>
			<title>PF00109</title>
			<rect class="PF00109" x="611" y="18" stroke-linejoin="round" width="17" height="26" fill="rgb(112,116,228)" stroke="rgb(89,92,182)" stroke-width="1" opacity="0.75" />
		</g>
		<g>
			<title>PF02801</title>
			<rect class="PF02801" x="640" y="18" stroke-linejoin="round" width="11" height="26" fill="rgb(215,78,102)" stroke="rgb(172,62,81)" stroke-width="1" opacity="0.75" />
		</g>
		<g>
			<title>PF00109</title>
			<rect class="PF00109" x="652" y="18" stroke-linejoin="round" width="27" height="26" fill="rgb(112,116,228)" stroke="rgb(89,92,182)" stroke-width="1" opacity="0.75" />
		</g>
		<g>
			<title>PF13561</title>
			<rect class="PF13561" x="691" y="18" stroke-linejoin="round" width="22" height="26" fill="rgb(73,205,127)" stroke="rgb(58,164,101)" stroke-width="1" opacity="0.75" />
		</g>
	</g>
	<g>
		<polygon class="NoName" points="766,16 746,16 746,1 716,31 746,61 746,46 766,46" fill="rgb(255,255,255)" fill-opacity="1.0" stroke="rgb(50,50,50)" stroke-width="1" />
		<g>
			<title>PF00550</title>
			<polygon class="PF00550" points="718,31 723,26 723,35" stroke-linejoin="round" width="6" height="26" fill="rgb(103,191,88)" stroke="rgb(82,152,70)" stroke-width="1" opacity="0.75" />
		</g>
		<g>
			<title>PF00698</title>
			<rect class="PF00698" x="738" y="18" stroke-linejoin="round" width="27" height="26" fill="rgb(59,176,209)" stroke="rgb(47,140,167)" stroke-width="1" opacity="0.75" />
		</g>
	</g>
	<g>
		<polygon class="NoName" points="790,16 810,16 810,1 840,31 810,61 810,46 790,46" fill="rgb(255,255,255)" fill-opacity="1.0" stroke="rgb(50,50,50)" stroke-width="1" />
		<g>
			<title>PF01593</title>
			<polygon class="PF01593" points="800,18 824,18 837,31 824,44 800,44" stroke-linejoin="round" width="39" height="26" fill="rgb(184,74,52)" stroke="rgb(147,59,41)" stroke-width="1" opacity="0.75" />
		</g>
	</g>
	<g>
		<polygon class="NoName" points="876,16 876,16 876,1 848,31 876,61 876,46 876,46" fill="rgb(255,255,255)" fill-opacity="1.0" stroke="rgb(50,50,50)" stroke-width="1" />
		<g>
			<title>PF01614</title>
			<polygon class="PF01614" points="850,31 861,20 861,41" stroke-linejoin="round" width="12" height="26" fill="rgb(58,93,180)" stroke="rgb(46,74,144)" stroke-width="1" opacity="0.75" />
		</g>
		<g>
			<title>PF09339</title>
			<rect class="PF09339" x="867" y="18" stroke-linejoin="round" width="5" height="26" fill="rgb(135,102,222)" stroke="rgb(108,81,177)" stroke-width="1" opacity="0.75" />
		</g>
	</g>
	<g>
		<polygon class="NoName" points="879,16 881,16 881,1 911,31 881,61 881,46 879,46" fill="rgb(255,255,255)" fill-opacity="1.0" stroke="rgb(50,50,50)" stroke-width="1" />
		<g>
			<title>PF00701</title>
			<polygon class="PF00701" points="881,18 895,18 908,31 895,44 881,44" stroke-linejoin="round" width="28" height="26" fill="rgb(80,204,82)" stroke="rgb(64,163,65)" stroke-width="1" opacity="0.75" />
		</g>
	</g>
	<g>
		<polygon class="NoName" points="29,16 29,16 29,1 11,31 29,61 29,46 29,46" fill="rgb(255,255,255)" fill-opacity="1.0" stroke="rgb(50,50,50)" stroke-width="1" />
		<g>
			<title>PF00440</title>
			<rect class="PF00440" x="23" y="18" stroke-linejoin="round" width="4" height="26" fill="rgb(73,212,190)" stroke="rgb(58,169,152)" stroke-width="1" opacity="0.75" />
		</g>
	</g>
	<g>
		<polygon class="NoName" points="916,16 930,16 930,1 960,31 930,61 930,46 916,46" fill="rgb(255,255,255)" fill-opacity="1.0" stroke="rgb(50,50,50)" stroke-width="1" />
		<g>
			<title>PF02447</title>
			<polygon class="PF02447" points="916,18 944,18 957,31 944,44 916,44" stroke-linejoin="round" width="43" height="26" fill="rgb(199,95,202)" stroke="rgb(159,76,161)" stroke-width="1" opacity="0.75" />
		</g>
	</g>
	<g>
		<polygon class="NoName" points="963,16 977,16 977,1 1007,31 977,61 977,46 963,46" fill="rgb(255,255,255)" fill-opacity="1.0" stroke="rgb(50,50,50)" stroke-width="1" />
		<g>
			<title>PF13378</title>
			<polygon class="PF13378" points="981,18 991,18 1003,30 1003,32 991,44 981,44" stroke-linejoin="round" width="22" height="26" fill="rgb(191,184,94)" stroke="rgb(152,147,75)" stroke-width="1" opacity="0.75" />
		</g>
	</g>
	<g>
		<polygon class="NoName" points="1082,16 1077,16 1077,1 1047,31 1077,61 1077,46 1082,46" fill="rgb(255,255,255)" fill-opacity="1.0" stroke="rgb(50,50,50)" stroke-width="1" />
		<g>
			<title>PF02310</title>
			<polygon class="PF02310" points="1049,31 1060,20 1060,41" stroke-linejoin="round" width="11" height="26" fill="rgb(145,190,60)" stroke="rgb(115,152,48)" stroke-width="1" opacity="0.75" />
		</g>
		<g>
			<title>PF02607</title>
			<polygon class="PF02607" points="1062,18 1062,18 1069,18 1069,44 1062,44 1062,43" stroke-linejoin="round" width="7" height="26" fill="rgb(190,55,206)" stroke="rgb(152,44,164)" stroke-width="1" opacity="0.75" />
		</g>
		<g>
			<title>PF13411</title>
			<rect class="PF13411" x="1074" y="18" stroke-linejoin="round" width="6" height="26" fill="rgb(100,202,107)" stroke="rgb(80,161,85)" stroke-width="1" opacity="0.75" />
		</g>
	</g>
	<g>
		<polygon class="NoName" points="1109,16 1109,16 1109,1 1090,31 1109,61 1109,46 1109,46" fill="rgb(255,255,255)" fill-opacity="1.0" stroke="rgb(50,50,50)" stroke-width="1" />
		<g>
			<title>PF08281</title>
			<polygon class="PF08281" points="1092,31 1095,26 1095,35" stroke-linejoin="round" width="5" height="26" fill="rgb(222,103,144)" stroke="rgb(177,82,115)" stroke-width="1" opacity="0.75" />
		</g>
		<g>
			<title>PF04542</title>
			<polygon class="PF04542" points="1099,20 1100,18 1105,18 1105,44 1100,44 1099,41" stroke-linejoin="round" width="6" height="26" fill="rgb(184,59,197)" stroke="rgb(147,47,157)" stroke-width="1" opacity="0.75" />
		</g>
	</g>
	<g>
		<polygon class="NoName" points="1123,16 1123,16 1123,1 1151,31 1123,61 1123,46 1123,46" fill="rgb(255,255,255)" fill-opacity="1.0" stroke="rgb(50,50,50)" stroke-width="1" />
		<g>
			<title>PF14344</title>
			<polygon class="PF14344" points="1126,18 1136,18 1137,19 1137,43 1136,44 1126,44" stroke-linejoin="round" width="11" height="26" fill="rgb(222,95,149)" stroke="rgb(177,76,119)" stroke-width="1" opacity="0.75" />
		</g>
	</g>
	<g>
		<polygon class="NoName" points="1152,16 1152,16 1152,1 1172,31 1152,61 1152,46 1152,46" fill="rgb(255,255,255)" fill-opacity="1.0" stroke="rgb(50,50,50)" stroke-width="1" />
		<g>
			<title>PF04203</title>
			<polygon class="PF04203" points="1157,18 1160,18 1169,31 1160,44 1157,44" stroke-linejoin="round" width="14" height="26" fill="rgb(213,184,62)" stroke="rgb(170,147,49)" stroke-width="1" opacity="0.75" />
		</g>
	</g>
	<g>
		<polygon class="NoName" points="1173,16 1173,16 1173,1 1188,31 1173,61 1173,46 1173,46" fill="rgb(255,255,255)" fill-opacity="1.0" stroke="rgb(50,50,50)" stroke-width="1" />
	</g>
	<g>
		<polygon class="NoName" points="1233,16 1232,16 1232,1 1202,31 1232,61 1232,46 1233,46" fill="rgb(255,255,255)" fill-opacity="1.0" stroke="rgb(50,50,50)" stroke-width="1" />
		<g>
			<title>PF00487</title>
			<polygon class="PF00487" points="1205,30 1217,18 1232,18 1232,44 1217,44 1205,31" stroke-linejoin="round" width="27" height="26" fill="rgb(104,51,205)" stroke="rgb(83,40,164)" stroke-width="1" opacity="0.75" />
		</g>
	</g>
	<g>
		<polygon class="NoName" points="1273,16 1270,16 1270,1 1240,31 1270,61 1270,46 1273,46" fill="rgb(255,255,255)" fill-opacity="1.0" stroke="rgb(50,50,50)" stroke-width="1" />
		<g>
			<title>PF00111</title>
			<polygon class="PF00111" points="1242,31 1247,26 1247,35" stroke-linejoin="round" width="7" height="26" fill="rgb(60,59,191)" stroke="rgb(48,47,152)" stroke-width="1" opacity="0.75" />
		</g>
		<g>
			<title>PF00175</title>
			<polygon class="PF00175" points="1251,22 1255,18 1260,18 1260,44 1255,44 1251,39" stroke-linejoin="round" width="9" height="26" fill="rgb(177,211,96)" stroke="rgb(141,168,76)" stroke-width="1" opacity="0.75" />
		</g>
		<g>
			<title>PF00970</title>
			<rect class="PF00970" x="1261" y="18" stroke-linejoin="round" width="9" height="26" fill="rgb(212,194,103)" stroke="rgb(169,155,82)" stroke-width="1" opacity="0.75" />
		</g>
	</g>
	<g>
		<polygon class="NoName" points="1278,16 1286,16 1286,1 1316,31 1286,61 1286,46 1278,46" fill="rgb(255,255,255)" fill-opacity="1.0" stroke="rgb(50,50,50)" stroke-width="1" />
		<g>
			<title>PF13556</title>
			<polygon class="PF13556" points="1309,27 1313,31 1309,35" stroke-linejoin="round" width="5" height="26" fill="rgb(180,199,81)" stroke="rgb(144,159,64)" stroke-width="1" opacity="0.75" />
		</g>
	</g>
	<g>
		<polygon class="NoName" points="46,16 46,16 46,1 72,31 46,61 46,46 46,46" fill="rgb(255,255,255)" fill-opacity="1.0" stroke="rgb(50,50,50)" stroke-width="1" />
		<g>
			<title>PF00106</title>
			<polygon class="PF00106" points="47,18 58,18 66,28 66,34 58,44 47,44" stroke-linejoin="round" width="19" height="26" fill="rgb(182,219,73)" stroke="rgb(145,175,58)" stroke-width="1" opacity="0.75" />
		</g>
	</g>
	<g>
		<polygon class="NoName" points="1386,16 1384,16 1384,1 1354,31 1384,61 1384,46 1386,46" fill="rgb(255,255,255)" fill-opacity="1.0" stroke="rgb(50,50,50)" stroke-width="1" />
	</g>
	<g>
		<polygon class="NoName" points="84,16 89,16 89,1 119,31 89,61 89,46 84,46" fill="rgb(255,255,255)" fill-opacity="1.0" stroke="rgb(50,50,50)" stroke-width="1" />
		<g>
			<title>PF00724</title>
			<polygon class="PF00724" points="84,18 103,18 116,31 116,31 103,44 84,44" stroke-linejoin="round" width="32" height="26" fill="rgb(157,188,65)" stroke="rgb(125,150,52)" stroke-width="1" opacity="0.75" />
		</g>
	</g>
	<g>
		<polygon class="NoName" points="121,16 121,16 121,1 151,31 121,61 121,46 121,46" fill="rgb(255,255,255)" fill-opacity="1.0" stroke="rgb(50,50,50)" stroke-width="1" />
		<g>
			<title>PF07859</title>
			<polygon class="PF07859" points="128,18 135,18 148,31 148,31 135,44 128,44" stroke-linejoin="round" width="20" height="26" fill="rgb(183,51,179)" stroke="rgb(146,40,143)" stroke-width="1" opacity="0.75" />
		</g>
	</g>
	<g>
		<polygon class="NoName" points="198,16 193,16 193,1 163,31 193,61 193,46 198,46" fill="rgb(255,255,255)" fill-opacity="1.0" stroke="rgb(50,50,50)" stroke-width="1" />
		<g>
			<title>PF12833</title>
			<polygon class="PF12833" points="165,31 173,23 173,38" stroke-linejoin="round" width="8" height="26" fill="rgb(216,58,224)" stroke="rgb(172,46,179)" stroke-width="1" opacity="0.75" />
		</g>
	</g>
	<g>
		<polygon class="NoName" points="203,16 214,16 214,1 244,31 214,61 214,46 203,46" fill="rgb(255,255,255)" fill-opacity="1.0" stroke="rgb(50,50,50)" stroke-width="1" />
		<g>
			<title>PF16864</title>
			<rect class="PF16864" x="211" y="18" stroke-linejoin="round" width="7" height="26" fill="rgb(84,199,85)" stroke="rgb(67,159,68)" stroke-width="1" opacity="0.75" />
		</g>
		<g>
			<title>PF00891</title>
			<polygon class="PF00891" points="220,18 228,18 241,31 228,44 220,44" stroke-linejoin="round" width="22" height="26" fill="rgb(50,51,190)" stroke="rgb(39,40,152)" stroke-width="1" opacity="0.75" />
		</g>
	</g>
	<g>
		<title>galG</title>
		<polygon class="galG" points="250,16 250,16 250,1 272,31 250,61 250,46 250,46" fill="rgb(201,185,252)" fill-opacity="1.0" stroke="rgb(80,74,100)" stroke-width="1" />
		<g>
			<title>PF01596</title>
			<polygon class="PF01596" points="251,18 259,18 269,31 259,44 251,44" stroke-linejoin="round" width="20" height="26" fill="rgb(168,187,48)" stroke="rgb(134,149,38)" stroke-width="1" opacity="0.75" />
		</g>
	</g>
	<g>
		<title>galH</title>
		<polygon class="galH" points="310,16 302,16 302,1 272,31 302,61 302,46 310,46" fill="rgb(181,252,195)" fill-opacity="1.0" stroke="rgb(72,100,77)" stroke-width="1" />
	</g>
	<g>
		<title>galI</title>
		<polygon class="galI" points="347,16 340,16 340,1 310,31 340,61 340,46 347,46" fill="rgb(189,250,228)" fill-opacity="1.0" stroke="rgb(75,100,91)" stroke-width="1" />
		<g>
			<title>PF00441</title>
			<polygon class="PF00441" points="312,31 324,19 324,42" stroke-linejoin="round" width="14" height="26" fill="rgb(85,191,117)" stroke="rgb(68,152,93)" stroke-width="1" opacity="0.75" />
		</g>
		<g>
			<title>PF02770</title>
			<rect class="PF02770" x="326" y="18" stroke-linejoin="round" width="9" height="26" fill="rgb(225,186,97)" stroke="rgb(180,148,77)" stroke-width="1" opacity="0.75" />
		</g>
		<g>
			<title>PF02771</title>
			<rect class="PF02771" x="336" y="18" stroke-linejoin="round" width="10" height="26" fill="rgb(105,135,218)" stroke="rgb(84,108,174)" stroke-width="1" opacity="0.75" />
		</g>
	</g>
</svg>
