<svg version="1.1" baseProfile="full" xmlns="http://www.w3.org/2000/svg" width="232" height="62">
	<line x1="1" y1="31" x2="231" y2="31" style="stroke:rgb(50,50,50); stroke-width:3 "/>
	<g>
		<title>cyrC</title>
		<polygon class="cyrC" points="34,16 31,16 31,1 1,31 31,61 31,46 34,46" fill="rgb(210,253,248)" fill-opacity="1.0" stroke="rgb(84,101,99)" stroke-width="1" />
		<g>
			<title>PF02801</title>
			<polygon class="PF02801" points="3,31 4,30 4,31" stroke-linejoin="round" width="3" height="26" fill="rgb(215,78,102)" stroke="rgb(172,62,81)" stroke-width="1" opacity="0.75" />
		</g>
		<g>
			<title>PF00109</title>
			<polygon class="PF00109" points="5,29 16,18 30,18 30,44 16,44 5,32" stroke-linejoin="round" width="25" height="26" fill="rgb(112,116,228)" stroke="rgb(89,92,182)" stroke-width="1" opacity="0.75" />
		</g>
	</g>
	<g>
		<title>cyrA</title>
		<polygon class="cyrA" points="52,16 61,16 61,1 91,31 61,61 61,46 52,46" fill="rgb(215,178,250)" fill-opacity="1.0" stroke="rgb(86,71,100)" stroke-width="1" />
		<g>
			<title>PF02274</title>
			<polygon class="PF02274" points="69,18 75,18 88,31 88,31 75,44 69,44" stroke-linejoin="round" width="19" height="26" fill="rgb(194,129,75)" stroke="rgb(155,103,60)" stroke-width="1" opacity="0.75" />
		</g>
	</g>
	<g>
		<title>cyrB</title>
		<polygon class="cyrB" points="92,16 201,16 201,1 231,31 201,61 201,46 92,46" fill="rgb(251,238,212)" fill-opacity="1.0" stroke="rgb(100,95,84)" stroke-width="1" />
		<g>
			<title>PF00501</title>
			<rect class="PF00501" x="94" y="18" stroke-linejoin="round" width="44" height="26" fill="rgb(60,217,223)" stroke="rgb(48,173,178)" stroke-width="1" opacity="0.75" />
		</g>
		<g>
			<title>PF13193</title>
			<rect class="PF13193" x="139" y="18" stroke-linejoin="round" width="7" height="26" fill="rgb(182,50,118)" stroke="rgb(145,39,94)" stroke-width="1" opacity="0.75" />
		</g>
		<g>
			<title>PF00550</title>
			<rect class="PF00550" x="150" y="18" stroke-linejoin="round" width="6" height="26" fill="rgb(103,191,88)" stroke="rgb(82,152,70)" stroke-width="1" opacity="0.75" />
		</g>
		<g>
			<title>PF00109</title>
			<rect class="PF00109" x="159" y="18" stroke-linejoin="round" width="25" height="26" fill="rgb(112,116,228)" stroke="rgb(89,92,182)" stroke-width="1" opacity="0.75" />
		</g>
		<g>
			<title>PF02801</title>
			<rect class="PF02801" x="185" y="18" stroke-linejoin="round" width="12" height="26" fill="rgb(215,78,102)" stroke="rgb(172,62,81)" stroke-width="1" opacity="0.75" />
		</g>
		<g>
			<title>PF16197</title>
			<rect class="PF16197" x="198" y="18" stroke-linejoin="round" width="11" height="26" fill="rgb(68,179,89)" stroke="rgb(54,143,71)" stroke-width="1" opacity="0.75" />
		</g>
		<g>
			<title>PF00698</title>
			<polygon class="PF00698" points="212,18 215,18 228,31 215,44 212,44" stroke-linejoin="round" width="18" height="26" fill="rgb(59,176,209)" stroke="rgb(47,140,167)" stroke-width="1" opacity="0.75" />
		</g>
	</g>
</svg>
