<svg version="1.1" baseProfile="full" xmlns="http://www.w3.org/2000/svg" width="1012" height="62">
	<line x1="1" y1="31" x2="1011" y2="31" style="stroke:rgb(50,50,50); stroke-width:3 "/>
	<g>
		<title>pacJ</title>
		<polygon class="pacJ" points="338,16 338,16 338,1 345,31 338,61 338,46 338,46" fill="rgb(241,202,250)" fill-opacity="1.0" stroke="rgb(96,80,100)" stroke-width="1" />
		<g>
			<title>PF03621</title>
			<polygon class="PF03621" points="338,18 339,18 342,27 342,35 339,44 338,44" stroke-linejoin="round" width="4" height="26" fill="rgb(212,165,97)" stroke="rgb(169,132,77)" stroke-width="1" opacity="0.75" />
		</g>
	</g>
	<g>
		<title>pacK</title>
		<polygon class="pacK" points="351,16 365,16 365,1 395,31 365,61 365,46 351,46" fill="rgb(196,234,252)" fill-opacity="1.0" stroke="rgb(78,93,100)" stroke-width="1" />
		<g>
			<title>PF01565</title>
			<rect class="PF01565" x="354" y="18" stroke-linejoin="round" width="13" height="26" fill="rgb(226,88,136)" stroke="rgb(180,70,108)" stroke-width="1" opacity="0.75" />
		</g>
	</g>
	<g>
		<title>pacL</title>
		<polygon class="pacL" points="484,16 429,16 429,1 399,31 429,61 429,46 484,46" fill="rgb(251,222,186)" fill-opacity="1.0" stroke="rgb(100,88,74)" stroke-width="1" />
		<g>
			<title>PF00550</title>
			<polygon class="PF00550" points="401,31 405,27 405,34" stroke-linejoin="round" width="6" height="26" fill="rgb(103,191,88)" stroke="rgb(82,152,70)" stroke-width="1" opacity="0.75" />
		</g>
		<g>
			<title>PF13193</title>
			<polygon class="PF13193" points="408,24 414,18 415,18 415,44 414,44 408,37" stroke-linejoin="round" width="7" height="26" fill="rgb(182,50,118)" stroke="rgb(145,39,94)" stroke-width="1" opacity="0.75" />
		</g>
		<g>
			<title>PF00501</title>
			<rect class="PF00501" x="416" y="18" stroke-linejoin="round" width="39" height="26" fill="rgb(60,217,223)" stroke="rgb(48,173,178)" stroke-width="1" opacity="0.75" />
		</g>
		<g>
			<title>PF00668</title>
			<rect class="PF00668" x="458" y="18" stroke-linejoin="round" width="24" height="26" fill="rgb(224,184,98)" stroke="rgb(179,147,78)" stroke-width="1" opacity="0.75" />
		</g>
	</g>
	<g>
		<title>pacM</title>
		<polygon class="pacM" points="499,16 499,16 499,1 487,31 499,61 499,46 499,46" fill="rgb(241,204,250)" fill-opacity="1.0" stroke="rgb(96,81,100)" stroke-width="1" />
	</g>
	<g>
		<title>pacN</title>
		<polygon class="pacN" points="557,16 530,16 530,1 500,31 530,61 530,46 557,46" fill="rgb(201,251,187)" fill-opacity="1.0" stroke="rgb(80,100,74)" stroke-width="1" />
		<g>
			<title>PF00668</title>
			<polygon class="PF00668" points="513,20 515,18 557,18 557,44 515,44 513,41" stroke-linejoin="round" width="44" height="26" fill="rgb(224,184,98)" stroke="rgb(179,147,78)" stroke-width="1" opacity="0.75" />
		</g>
	</g>
	<g>
		<title>pacO</title>
		<polygon class="pacO" points="577,16 599,16 599,1 629,31 599,61 599,46 577,46" fill="rgb(197,193,251)" fill-opacity="1.0" stroke="rgb(78,77,100)" stroke-width="1" />
		<g>
			<title>PF00501</title>
			<polygon class="PF00501" points="579,18 613,18 619,24 619,38 613,44 579,44" stroke-linejoin="round" width="40" height="26" fill="rgb(60,217,223)" stroke="rgb(48,173,178)" stroke-width="1" opacity="0.75" />
		</g>
		<g>
			<title>PF13193</title>
			<polygon class="PF13193" points="620,25 626,31 620,37" stroke-linejoin="round" width="7" height="26" fill="rgb(182,50,118)" stroke="rgb(145,39,94)" stroke-width="1" opacity="0.75" />
		</g>
	</g>
	<g>
		<title>pacP</title>
		<polygon class="pacP" points="648,16 702,16 702,1 732,31 702,61 702,46 648,46" fill="rgb(251,178,190)" fill-opacity="1.0" stroke="rgb(100,71,75)" stroke-width="1" />
		<g>
			<title>PF00501</title>
			<rect class="PF00501" x="651" y="18" stroke-linejoin="round" width="39" height="26" fill="rgb(60,217,223)" stroke="rgb(48,173,178)" stroke-width="1" opacity="0.75" />
		</g>
		<g>
			<title>PF13193</title>
			<rect class="PF13193" x="691" y="18" stroke-linejoin="round" width="7" height="26" fill="rgb(182,50,118)" stroke="rgb(145,39,94)" stroke-width="1" opacity="0.75" />
		</g>
		<g>
			<title>PF00550</title>
			<rect class="PF00550" x="701" y="18" stroke-linejoin="round" width="6" height="26" fill="rgb(103,191,88)" stroke="rgb(82,152,70)" stroke-width="1" opacity="0.75" />
		</g>
		<g>
			<title>PF00975</title>
			<polygon class="PF00975" points="709,18 716,18 724,26 724,36 716,44 709,44" stroke-linejoin="round" width="15" height="26" fill="rgb(207,80,138)" stroke="rgb(165,63,110)" stroke-width="1" opacity="0.75" />
		</g>
	</g>
	<g>
		<title>pacQ</title>
		<polygon class="pacQ" points="732,16 751,16 751,1 781,31 751,61 751,46 732,46" fill="rgb(180,254,207)" fill-opacity="1.0" stroke="rgb(72,101,82)" stroke-width="1" />
		<g>
			<title>PF00206</title>
			<rect class="PF00206" x="736" y="18" stroke-linejoin="round" width="25" height="26" fill="rgb(217,92,141)" stroke="rgb(173,73,112)" stroke-width="1" opacity="0.75" />
		</g>
	</g>
	<g>
		<title>pacR</title>
		<polygon class="pacR" points="782,16 783,16 783,1 813,31 783,61 783,46 782,46" fill="rgb(251,220,178)" fill-opacity="1.0" stroke="rgb(100,88,71)" stroke-width="1" />
		<g>
			<title>PF00288</title>
			<rect class="PF00288" x="791" y="18" stroke-linejoin="round" width="5" height="26" fill="rgb(190,54,91)" stroke="rgb(152,43,72)" stroke-width="1" opacity="0.75" />
		</g>
	</g>
	<g>
		<title>pacS</title>
		<polygon class="pacS" points="813,16 858,16 858,1 888,31 858,61 858,46 813,46" fill="rgb(250,181,193)" fill-opacity="1.0" stroke="rgb(100,72,77)" stroke-width="1" />
		<g>
			<title>PF00291</title>
			<rect class="PF00291" x="813" y="18" stroke-linejoin="round" width="29" height="26" fill="rgb(180,55,145)" stroke="rgb(144,44,116)" stroke-width="1" opacity="0.75" />
		</g>
		<g>
			<title>PF13535</title>
			<polygon class="PF13535" points="861,18 872,18 876,22 876,40 872,44 861,44" stroke-linejoin="round" width="15" height="26" fill="rgb(197,156,74)" stroke="rgb(157,124,59)" stroke-width="1" opacity="0.75" />
		</g>
	</g>
	<g>
		<title>pacA</title>
		<polygon class="pacA" points="1,16 1,16 1,1 26,31 1,61 1,46 1,46" fill="rgb(252,206,197)" fill-opacity="1.0" stroke="rgb(100,82,78)" stroke-width="1" />
	</g>
	<g>
		<title>pacT</title>
		<polygon class="pacT" points="890,16 895,16 895,1 925,31 895,61 895,46 890,46" fill="rgb(192,250,251)" fill-opacity="1.0" stroke="rgb(76,100,100)" stroke-width="1" />
		<g>
			<title>PF01212</title>
			<polygon class="PF01212" points="890,18 909,18 918,27 918,35 909,44 890,44" stroke-linejoin="round" width="28" height="26" fill="rgb(121,182,62)" stroke="rgb(96,145,49)" stroke-width="1" opacity="0.75" />
		</g>
	</g>
	<g>
		<title>pacU</title>
		<polygon class="pacU" points="930,16 950,16 950,1 980,31 950,61 950,46 930,46" fill="rgb(190,216,254)" fill-opacity="1.0" stroke="rgb(76,86,101)" stroke-width="1" />
		<g>
			<title>PF00501</title>
			<polygon class="PF00501" points="930,18 964,18 970,24 970,38 964,44 930,44" stroke-linejoin="round" width="40" height="26" fill="rgb(60,217,223)" stroke="rgb(48,173,178)" stroke-width="1" opacity="0.75" />
		</g>
	</g>
	<g>
		<title>pacV</title>
		<polygon class="pacV" points="986,16 986,16 986,1 1011,31 986,61 986,46 986,46" fill="rgb(217,200,254)" fill-opacity="1.0" stroke="rgb(86,80,101)" stroke-width="1" />
		<g>
			<title>PF13649</title>
			<polygon class="PF13649" points="994,18 997,18 1003,25 1003,37 997,44 994,44" stroke-linejoin="round" width="9" height="26" fill="rgb(227,135,74)" stroke="rgb(181,108,59)" stroke-width="1" opacity="0.75" />
		</g>
	</g>
	<g>
		<title>pacB</title>
		<polygon class="pacB" points="57,16 57,16 57,1 29,31 57,61 57,46 57,46" fill="rgb(204,198,253)" fill-opacity="1.0" stroke="rgb(81,79,101)" stroke-width="1" />
	</g>
	<g>
		<title>pacC</title>
		<polygon class="pacC" points="111,16 103,16 103,1 73,31 103,61 103,46 111,46" fill="rgb(241,208,253)" fill-opacity="1.0" stroke="rgb(96,83,101)" stroke-width="1" />
		<g>
			<title>PF05977</title>
			<polygon class="PF05977" points="75,31 88,18 110,18 110,44 88,44" stroke-linejoin="round" width="37" height="26" fill="rgb(80,62,217)" stroke="rgb(64,49,173)" stroke-width="1" opacity="0.75" />
		</g>
	</g>
	<g>
		<title>pacD</title>
		<polygon class="pacD" points="124,16 133,16 133,1 163,31 133,61 133,46 124,46" fill="rgb(215,182,250)" fill-opacity="1.0" stroke="rgb(86,72,100)" stroke-width="1" />
	</g>
	<g>
		<title>pacE</title>
		<polygon class="pacE" points="165,16 177,16 177,1 207,31 177,61 177,46 165,46" fill="rgb(232,254,208)" fill-opacity="1.0" stroke="rgb(92,101,83)" stroke-width="1" />
		<g>
			<title>PF00202</title>
			<polygon class="PF00202" points="166,18 191,18 204,31 191,44 166,44" stroke-linejoin="round" width="40" height="26" fill="rgb(49,163,189)" stroke="rgb(39,130,151)" stroke-width="1" opacity="0.75" />
		</g>
	</g>
	<g>
		<title>pacF</title>
		<polygon class="pacF" points="212,16 213,16 213,1 243,31 213,61 213,46 212,46" fill="rgb(248,201,252)" fill-opacity="1.0" stroke="rgb(99,80,100)" stroke-width="1" />
		<g>
			<title>PF02668</title>
			<polygon class="PF02668" points="212,18 227,18 240,31 227,44 212,44" stroke-linejoin="round" width="30" height="26" fill="rgb(180,79,217)" stroke="rgb(144,63,173)" stroke-width="1" opacity="0.75" />
		</g>
	</g>
	<g>
		<title>pacG</title>
		<polygon class="pacG" points="247,16 247,16 247,1 271,31 247,61 247,46 247,46" fill="rgb(233,250,194)" fill-opacity="1.0" stroke="rgb(93,100,77)" stroke-width="1" />
	</g>
	<g>
		<title>pacH</title>
		<polygon class="pacH" points="280,16 280,16 280,1 289,31 280,61 280,46 280,46" fill="rgb(198,253,234)" fill-opacity="1.0" stroke="rgb(79,101,93)" stroke-width="1" />
		<g>
			<title>PF00550</title>
			<polygon class="PF00550" points="281,18 282,18 286,31 282,44 281,44" stroke-linejoin="round" width="6" height="26" fill="rgb(103,191,88)" stroke="rgb(82,152,70)" stroke-width="1" opacity="0.75" />
		</g>
	</g>
	<g>
		<title>pacI</title>
		<polygon class="pacI" points="289,16 301,16 301,1 331,31 301,61 301,46 289,46" fill="rgb(251,227,208)" fill-opacity="1.0" stroke="rgb(100,90,83)" stroke-width="1" />
		<g>
			<title>PF00668</title>
			<polygon class="PF00668" points="291,18 315,18 320,23 320,39 315,44 291,44" stroke-linejoin="round" width="29" height="26" fill="rgb(224,184,98)" stroke="rgb(179,147,78)" stroke-width="1" opacity="0.75" />
		</g>
	</g>
</svg>
