<svg version="1.1" baseProfile="full" xmlns="http://www.w3.org/2000/svg" width="1931" height="62">
	<line x1="1" y1="31" x2="1930" y2="31" style="stroke:rgb(50,50,50); stroke-width:3 "/>
	<g>
		<title>SCO6274</title>
		<polygon class="SCO6274" points="920,16 593,16 593,1 563,31 593,61 593,46 920,46" fill="rgb(251,219,212)" fill-opacity="1.0" stroke="rgb(100,87,84)" stroke-width="1" />
		<g>
			<title>PF00550</title>
			<polygon class="PF00550" points="571,25 577,19 577,42 571,36" stroke-linejoin="round" width="6" height="26" fill="rgb(103,191,88)" stroke="rgb(82,152,70)" stroke-width="1" opacity="0.75" />
		</g>
		<g>
			<title>PF08659</title>
			<rect class="PF08659" x="589" y="18" stroke-linejoin="round" width="17" height="26" fill="rgb(66,209,188)" stroke="rgb(52,167,150)" stroke-width="1" opacity="0.75" />
		</g>
		<g>
			<title>PF14765</title>
			<rect class="PF14765" x="628" y="18" stroke-linejoin="round" width="10" height="26" fill="rgb(173,56,182)" stroke="rgb(138,44,145)" stroke-width="1" opacity="0.75" />
		</g>
		<g>
			<title>PF14765</title>
			<rect class="PF14765" x="637" y="18" stroke-linejoin="round" width="13" height="26" fill="rgb(173,56,182)" stroke="rgb(138,44,145)" stroke-width="1" opacity="0.75" />
		</g>
		<g>
			<title>PF00698</title>
			<rect class="PF00698" x="656" y="18" stroke-linejoin="round" width="31" height="26" fill="rgb(59,176,209)" stroke="rgb(47,140,167)" stroke-width="1" opacity="0.75" />
		</g>
		<g>
			<title>PF16197</title>
			<rect class="PF16197" x="691" y="18" stroke-linejoin="round" width="12" height="26" fill="rgb(68,179,89)" stroke="rgb(54,143,71)" stroke-width="1" opacity="0.75" />
		</g>
		<g>
			<title>PF02801</title>
			<rect class="PF02801" x="703" y="18" stroke-linejoin="round" width="11" height="26" fill="rgb(215,78,102)" stroke="rgb(172,62,81)" stroke-width="1" opacity="0.75" />
		</g>
		<g>
			<title>PF00109</title>
			<rect class="PF00109" x="716" y="18" stroke-linejoin="round" width="25" height="26" fill="rgb(112,116,228)" stroke="rgb(89,92,182)" stroke-width="1" opacity="0.75" />
		</g>
		<g>
			<title>PF00550</title>
			<rect class="PF00550" x="743" y="18" stroke-linejoin="round" width="6" height="26" fill="rgb(103,191,88)" stroke="rgb(82,152,70)" stroke-width="1" opacity="0.75" />
		</g>
		<g>
			<title>PF08659</title>
			<rect class="PF08659" x="761" y="18" stroke-linejoin="round" width="17" height="26" fill="rgb(66,209,188)" stroke="rgb(52,167,150)" stroke-width="1" opacity="0.75" />
		</g>
		<g>
			<title>PF14765</title>
			<rect class="PF14765" x="798" y="18" stroke-linejoin="round" width="28" height="26" fill="rgb(173,56,182)" stroke="rgb(138,44,145)" stroke-width="1" opacity="0.75" />
		</g>
		<g>
			<title>PF00698</title>
			<rect class="PF00698" x="831" y="18" stroke-linejoin="round" width="31" height="26" fill="rgb(59,176,209)" stroke="rgb(47,140,167)" stroke-width="1" opacity="0.75" />
		</g>
		<g>
			<title>PF16197</title>
			<rect class="PF16197" x="866" y="18" stroke-linejoin="round" width="12" height="26" fill="rgb(68,179,89)" stroke="rgb(54,143,71)" stroke-width="1" opacity="0.75" />
		</g>
		<g>
			<title>PF02801</title>
			<rect class="PF02801" x="879" y="18" stroke-linejoin="round" width="11" height="26" fill="rgb(215,78,102)" stroke="rgb(172,62,81)" stroke-width="1" opacity="0.75" />
		</g>
		<g>
			<title>PF00109</title>
			<rect class="PF00109" x="892" y="18" stroke-linejoin="round" width="25" height="26" fill="rgb(112,116,228)" stroke="rgb(89,92,182)" stroke-width="1" opacity="0.75" />
		</g>
		<g>
			<title>PF08990</title>
			<rect class="PF08990" x="918" y="18" stroke-linejoin="round" width="2" height="26" fill="rgb(180,75,55)" stroke="rgb(144,60,44)" stroke-width="1" opacity="0.75" />
		</g>
	</g>
	<g>
		<title>SCO6275</title>
		<polygon class="SCO6275" points="1381,16 956,16 956,1 926,31 956,61 956,46 1381,46" fill="rgb(205,254,249)" fill-opacity="1.0" stroke="rgb(82,101,99)" stroke-width="1" />
		<g>
			<title>PF00550</title>
			<polygon class="PF00550" points="934,25 940,19 940,42 934,36" stroke-linejoin="round" width="6" height="26" fill="rgb(103,191,88)" stroke="rgb(82,152,70)" stroke-width="1" opacity="0.75" />
		</g>
		<g>
			<title>PF08659</title>
			<rect class="PF08659" x="951" y="18" stroke-linejoin="round" width="17" height="26" fill="rgb(66,209,188)" stroke="rgb(52,167,150)" stroke-width="1" opacity="0.75" />
		</g>
		<g>
			<title>PF14765</title>
			<rect class="PF14765" x="988" y="18" stroke-linejoin="round" width="27" height="26" fill="rgb(173,56,182)" stroke="rgb(138,44,145)" stroke-width="1" opacity="0.75" />
		</g>
		<g>
			<title>PF00698</title>
			<rect class="PF00698" x="1021" y="18" stroke-linejoin="round" width="32" height="26" fill="rgb(59,176,209)" stroke="rgb(47,140,167)" stroke-width="1" opacity="0.75" />
		</g>
		<g>
			<title>PF16197</title>
			<rect class="PF16197" x="1056" y="18" stroke-linejoin="round" width="11" height="26" fill="rgb(68,179,89)" stroke="rgb(54,143,71)" stroke-width="1" opacity="0.75" />
		</g>
		<g>
			<title>PF02801</title>
			<rect class="PF02801" x="1068" y="18" stroke-linejoin="round" width="11" height="26" fill="rgb(215,78,102)" stroke="rgb(172,62,81)" stroke-width="1" opacity="0.75" />
		</g>
		<g>
			<title>PF00109</title>
			<rect class="PF00109" x="1081" y="18" stroke-linejoin="round" width="25" height="26" fill="rgb(112,116,228)" stroke="rgb(89,92,182)" stroke-width="1" opacity="0.75" />
		</g>
		<g>
			<title>PF00550</title>
			<rect class="PF00550" x="1109" y="18" stroke-linejoin="round" width="6" height="26" fill="rgb(103,191,88)" stroke="rgb(82,152,70)" stroke-width="1" opacity="0.75" />
		</g>
		<g>
			<title>PF08659</title>
			<rect class="PF08659" x="1126" y="18" stroke-linejoin="round" width="17" height="26" fill="rgb(66,209,188)" stroke="rgb(52,167,150)" stroke-width="1" opacity="0.75" />
		</g>
		<g>
			<title>PF14765</title>
			<rect class="PF14765" x="1162" y="18" stroke-linejoin="round" width="28" height="26" fill="rgb(173,56,182)" stroke="rgb(138,44,145)" stroke-width="1" opacity="0.75" />
		</g>
		<g>
			<title>PF00698</title>
			<rect class="PF00698" x="1194" y="18" stroke-linejoin="round" width="32" height="26" fill="rgb(59,176,209)" stroke="rgb(47,140,167)" stroke-width="1" opacity="0.75" />
		</g>
		<g>
			<title>PF16197</title>
			<rect class="PF16197" x="1230" y="18" stroke-linejoin="round" width="12" height="26" fill="rgb(68,179,89)" stroke="rgb(54,143,71)" stroke-width="1" opacity="0.75" />
		</g>
		<g>
			<title>PF02801</title>
			<rect class="PF02801" x="1242" y="18" stroke-linejoin="round" width="11" height="26" fill="rgb(215,78,102)" stroke="rgb(172,62,81)" stroke-width="1" opacity="0.75" />
		</g>
		<g>
			<title>PF00109</title>
			<rect class="PF00109" x="1255" y="18" stroke-linejoin="round" width="25" height="26" fill="rgb(112,116,228)" stroke="rgb(89,92,182)" stroke-width="1" opacity="0.75" />
		</g>
		<g>
			<title>PF00550</title>
			<rect class="PF00550" x="1282" y="18" stroke-linejoin="round" width="6" height="26" fill="rgb(103,191,88)" stroke="rgb(82,152,70)" stroke-width="1" opacity="0.75" />
		</g>
		<g>
			<title>PF00698</title>
			<rect class="PF00698" x="1298" y="18" stroke-linejoin="round" width="29" height="26" fill="rgb(59,176,209)" stroke="rgb(47,140,167)" stroke-width="1" opacity="0.75" />
		</g>
		<g>
			<title>PF16197</title>
			<rect class="PF16197" x="1330" y="18" stroke-linejoin="round" width="11" height="26" fill="rgb(68,179,89)" stroke="rgb(54,143,71)" stroke-width="1" opacity="0.75" />
		</g>
		<g>
			<title>PF02801</title>
			<rect class="PF02801" x="1342" y="18" stroke-linejoin="round" width="12" height="26" fill="rgb(215,78,102)" stroke="rgb(172,62,81)" stroke-width="1" opacity="0.75" />
		</g>
		<g>
			<title>PF00109</title>
			<rect class="PF00109" x="1355" y="18" stroke-linejoin="round" width="24" height="26" fill="rgb(112,116,228)" stroke="rgb(89,92,182)" stroke-width="1" opacity="0.75" />
		</g>
	</g>
	<g>
		<title>SCO6276</title>
		<polygon class="SCO6276" points="1392,16 1406,16 1406,1 1436,31 1406,61 1406,46 1392,46" fill="rgb(218,200,251)" fill-opacity="1.0" stroke="rgb(87,80,100)" stroke-width="1" />
		<g>
			<title>PF01494</title>
			<polygon class="PF01494" points="1392,18 1420,18 1426,24 1426,38 1420,44 1392,44" stroke-linejoin="round" width="34" height="26" fill="rgb(182,175,59)" stroke="rgb(145,140,47)" stroke-width="1" opacity="0.75" />
		</g>
	</g>
	<g>
		<title>SCO6277</title>
		<polygon class="SCO6277" points="1436,16 1436,16 1436,1 1464,31 1436,61 1436,46 1436,46" fill="rgb(186,250,239)" fill-opacity="1.0" stroke="rgb(74,100,95)" stroke-width="1" />
		<g>
			<title>PF00561</title>
			<polygon class="PF00561" points="1438,18 1449,18 1461,31 1449,44 1438,44" stroke-linejoin="round" width="24" height="26" fill="rgb(86,180,151)" stroke="rgb(68,144,120)" stroke-width="1" opacity="0.75" />
		</g>
	</g>
	<g>
		<title>SCO6278</title>
		<polygon class="SCO6278" points="1466,16 1490,16 1490,1 1520,31 1490,61 1490,46 1466,46" fill="rgb(180,224,254)" fill-opacity="1.0" stroke="rgb(72,89,101)" stroke-width="1" />
		<g>
			<title>PF07690</title>
			<polygon class="PF07690" points="1468,18 1504,18 1507,21 1507,41 1504,44 1468,44" stroke-linejoin="round" width="39" height="26" fill="rgb(193,224,74)" stroke="rgb(154,179,59)" stroke-width="1" opacity="0.75" />
		</g>
	</g>
	<g>
		<title>SCO6279</title>
		<polygon class="SCO6279" points="1521,16 1542,16 1542,1 1572,31 1542,61 1542,46 1521,46" fill="rgb(221,252,195)" fill-opacity="1.0" stroke="rgb(88,100,77)" stroke-width="1" />
		<g>
			<title>PF00202</title>
			<polygon class="PF00202" points="1523,18 1556,18 1569,31 1556,44 1523,44" stroke-linejoin="round" width="48" height="26" fill="rgb(49,163,189)" stroke="rgb(39,130,151)" stroke-width="1" opacity="0.75" />
		</g>
	</g>
	<g>
		<title>SCO6280</title>
		<polygon class="SCO6280" points="1583,16 1607,16 1607,1 1637,31 1607,61 1607,46 1583,46" fill="rgb(252,230,211)" fill-opacity="1.0" stroke="rgb(100,92,84)" stroke-width="1" />
		<g>
			<title>PF00486</title>
			<rect class="PF00486" x="1584" y="18" stroke-linejoin="round" width="8" height="26" fill="rgb(204,153,57)" stroke="rgb(163,122,45)" stroke-width="1" opacity="0.75" />
		</g>
		<g>
			<title>PF03704</title>
			<rect class="PF03704" x="1593" y="18" stroke-linejoin="round" width="14" height="26" fill="rgb(217,89,196)" stroke="rgb(173,71,156)" stroke-width="1" opacity="0.75" />
		</g>
	</g>
	<g>
		<title>SCO6281</title>
		<polygon class="SCO6281" points="1646,16 1670,16 1670,1 1700,31 1670,61 1670,46 1646,46" fill="rgb(253,212,196)" fill-opacity="1.0" stroke="rgb(101,84,78)" stroke-width="1" />
		<g>
			<title>PF01565</title>
			<rect class="PF01565" x="1653" y="18" stroke-linejoin="round" width="13" height="26" fill="rgb(226,88,136)" stroke="rgb(180,70,108)" stroke-width="1" opacity="0.75" />
		</g>
		<g>
			<title>PF08031</title>
			<polygon class="PF08031" points="1695,29 1697,31 1695,33" stroke-linejoin="round" width="5" height="26" fill="rgb(210,73,83)" stroke="rgb(168,58,66)" stroke-width="1" opacity="0.75" />
		</g>
	</g>
	<g>
		<title>SCO6282</title>
		<polygon class="SCO6282" points="1734,16 1734,16 1734,1 1708,31 1734,61 1734,46 1734,46" fill="rgb(205,212,253)" fill-opacity="1.0" stroke="rgb(82,84,101)" stroke-width="1" />
		<g>
			<title>PF13561</title>
			<polygon class="PF13561" points="1710,31 1721,18 1732,18 1732,44 1721,44" stroke-linejoin="round" width="24" height="26" fill="rgb(73,205,127)" stroke="rgb(58,164,101)" stroke-width="1" opacity="0.75" />
		</g>
	</g>
	<g>
		<title>SCO6283</title>
		<polygon class="SCO6283" points="1738,16 1738,16 1738,1 1766,31 1738,61 1738,46 1738,46" fill="rgb(228,193,251)" fill-opacity="1.0" stroke="rgb(91,77,100)" stroke-width="1" />
		<g>
			<title>PF13460</title>
			<polygon class="PF13460" points="1739,18 1751,18 1755,23 1755,39 1751,44 1739,44" stroke-linejoin="round" width="16" height="26" fill="rgb(188,201,78)" stroke="rgb(150,160,62)" stroke-width="1" opacity="0.75" />
		</g>
	</g>
	<g>
		<title>SCO6265</title>
		<polygon class="SCO6265" points="22,16 22,16 22,1 1,31 22,61 22,46 22,46" fill="rgb(197,204,253)" fill-opacity="1.0" stroke="rgb(78,81,101)" stroke-width="1" />
		<g>
			<title>PF00440</title>
			<rect class="PF00440" x="16" y="18" stroke-linejoin="round" width="4" height="26" fill="rgb(73,212,190)" stroke="rgb(58,169,152)" stroke-width="1" opacity="0.75" />
		</g>
	</g>
	<g>
		<title>SCO6284</title>
		<polygon class="SCO6284" points="1772,16 1795,16 1795,1 1825,31 1795,61 1795,46 1772,46" fill="rgb(254,242,208)" fill-opacity="1.0" stroke="rgb(101,96,83)" stroke-width="1" />
		<g>
			<title>PF01039</title>
			<polygon class="PF01039" points="1776,18 1809,18 1822,31 1809,44 1776,44" stroke-linejoin="round" width="48" height="26" fill="rgb(180,136,60)" stroke="rgb(144,108,48)" stroke-width="1" opacity="0.75" />
		</g>
	</g>
	<g>
		<title>SCO6285</title>
		<polygon class="SCO6285" points="1826,16 1826,16 1826,1 1834,31 1826,61 1826,46 1826,46" fill="rgb(250,226,209)" fill-opacity="1.0" stroke="rgb(100,90,83)" stroke-width="1" />
	</g>
	<g>
		<title>SCO6286</title>
		<polygon class="SCO6286" points="1862,16 1862,16 1862,1 1840,31 1862,61 1862,46 1862,46" fill="rgb(246,252,212)" fill-opacity="1.0" stroke="rgb(98,100,84)" stroke-width="1" />
		<g>
			<title>PF00440</title>
			<rect class="PF00440" x="1856" y="18" stroke-linejoin="round" width="4" height="26" fill="rgb(73,212,190)" stroke="rgb(58,169,152)" stroke-width="1" opacity="0.75" />
		</g>
	</g>
	<g>
		<title>SCO6287</title>
		<polygon class="SCO6287" points="1870,16 1870,16 1870,1 1896,31 1870,61 1870,46 1870,46" fill="rgb(186,237,254)" fill-opacity="1.0" stroke="rgb(74,94,101)" stroke-width="1" />
		<g>
			<title>PF00975</title>
			<polygon class="PF00975" points="1871,18 1882,18 1893,31 1893,31 1882,44 1871,44" stroke-linejoin="round" width="22" height="26" fill="rgb(207,80,138)" stroke="rgb(165,63,110)" stroke-width="1" opacity="0.75" />
		</g>
	</g>
	<g>
		<title>SCO6288</title>
		<polygon class="SCO6288" points="1902,16 1902,16 1902,1 1929,31 1902,61 1902,46 1902,46" fill="rgb(177,228,250)" fill-opacity="1.0" stroke="rgb(70,91,100)" stroke-width="1" />
		<g>
			<title>PF00486</title>
			<rect class="PF00486" x="1903" y="18" stroke-linejoin="round" width="8" height="26" fill="rgb(204,153,57)" stroke="rgb(163,122,45)" stroke-width="1" opacity="0.75" />
		</g>
		<g>
			<title>PF03704</title>
			<polygon class="PF03704" points="1911,18 1914,18 1925,30 1925,32 1914,44 1911,44" stroke-linejoin="round" width="14" height="26" fill="rgb(217,89,196)" stroke="rgb(173,71,156)" stroke-width="1" opacity="0.75" />
		</g>
	</g>
	<g>
		<title>SCO6266</title>
		<polygon class="SCO6266" points="26,16 27,16 27,1 57,31 27,61 27,46 26,46" fill="rgb(203,197,252)" fill-opacity="1.0" stroke="rgb(81,78,100)" stroke-width="1" />
		<g>
			<title>PF03756</title>
			<rect class="PF03756" x="28" y="18" stroke-linejoin="round" width="13" height="26" fill="rgb(178,81,93)" stroke="rgb(142,64,74)" stroke-width="1" opacity="0.75" />
		</g>
		<g>
			<title>PF03756</title>
			<polygon class="PF03756" points="45,22 54,31 45,40" stroke-linejoin="round" width="11" height="26" fill="rgb(178,81,93)" stroke="rgb(142,64,74)" stroke-width="1" opacity="0.75" />
		</g>
	</g>
	<g>
		<title>SCO6267</title>
		<polygon class="SCO6267" points="61,16 61,16 61,1 89,31 61,61 61,46 61,46" fill="rgb(252,180,182)" fill-opacity="1.0" stroke="rgb(100,72,72)" stroke-width="1" />
		<g>
			<title>PF13460</title>
			<polygon class="PF13460" points="61,18 74,18 78,23 78,39 74,44 61,44" stroke-linejoin="round" width="17" height="26" fill="rgb(188,201,78)" stroke="rgb(150,160,62)" stroke-width="1" opacity="0.75" />
		</g>
	</g>
	<g>
		<title>SCO6268</title>
		<polygon class="SCO6268" points="117,16 117,16 117,1 92,31 117,61 117,46 117,46" fill="rgb(250,199,243)" fill-opacity="1.0" stroke="rgb(100,79,97)" stroke-width="1" />
		<g>
			<title>PF13581</title>
			<polygon class="PF13581" points="94,31 105,18 107,18 107,44 105,44" stroke-linejoin="round" width="14" height="26" fill="rgb(86,179,88)" stroke="rgb(68,143,70)" stroke-width="1" opacity="0.75" />
		</g>
	</g>
	<g>
		<title>SCO6269</title>
		<polygon class="SCO6269" points="156,16 151,16 151,1 121,31 151,61 151,46 156,46" fill="rgb(188,253,234)" fill-opacity="1.0" stroke="rgb(75,101,93)" stroke-width="1" />
		<g>
			<title>PF02775</title>
			<polygon class="PF02775" points="135,19 136,18 149,18 149,44 136,44 135,42" stroke-linejoin="round" width="14" height="26" fill="rgb(156,179,45)" stroke="rgb(124,143,36)" stroke-width="1" opacity="0.75" />
		</g>
	</g>
	<g>
		<title>SCO6270</title>
		<polygon class="SCO6270" points="219,16 186,16 186,1 156,31 186,61 186,46 219,46" fill="rgb(246,185,254)" fill-opacity="1.0" stroke="rgb(98,74,101)" stroke-width="1" />
		<g>
			<title>PF17147</title>
			<polygon class="PF17147" points="158,31 166,23 166,38" stroke-linejoin="round" width="9" height="26" fill="rgb(179,47,158)" stroke="rgb(143,37,126)" stroke-width="1" opacity="0.75" />
		</g>
		<g>
			<title>PF01855</title>
			<polygon class="PF01855" points="169,20 171,18 192,18 192,44 171,44 169,41" stroke-linejoin="round" width="23" height="26" fill="rgb(146,196,83)" stroke="rgb(116,156,66)" stroke-width="1" opacity="0.75" />
		</g>
		<g>
			<title>PF01558</title>
			<rect class="PF01558" x="197" y="18" stroke-linejoin="round" width="19" height="26" fill="rgb(89,196,208)" stroke="rgb(71,156,166)" stroke-width="1" opacity="0.75" />
		</g>
	</g>
	<g>
		<title>SCO6271</title>
		<polygon class="SCO6271" points="278,16 249,16 249,1 219,31 249,61 249,46 278,46" fill="rgb(203,251,251)" fill-opacity="1.0" stroke="rgb(81,100,100)" stroke-width="1" />
		<g>
			<title>PF00364</title>
			<polygon class="PF00364" points="221,31 225,27 225,34" stroke-linejoin="round" width="6" height="26" fill="rgb(67,214,213)" stroke="rgb(53,171,170)" stroke-width="1" opacity="0.75" />
		</g>
		<g>
			<title>PF02785</title>
			<polygon class="PF02785" points="233,19 234,18 244,18 244,44 234,44 233,42" stroke-linejoin="round" width="11" height="26" fill="rgb(82,186,211)" stroke="rgb(65,148,168)" stroke-width="1" opacity="0.75" />
		</g>
		<g>
			<title>PF02786</title>
			<rect class="PF02786" x="245" y="18" stroke-linejoin="round" width="20" height="26" fill="rgb(190,97,205)" stroke="rgb(151,77,164)" stroke-width="1" opacity="0.75" />
		</g>
		<g>
			<title>PF00289</title>
			<rect class="PF00289" x="267" y="18" stroke-linejoin="round" width="10" height="26" fill="rgb(59,114,187)" stroke="rgb(47,91,149)" stroke-width="1" opacity="0.75" />
		</g>
	</g>
	<g>
		<title>SCO6272</title>
		<polygon class="SCO6272" points="289,16 314,16 314,1 344,31 314,61 314,46 289,46" fill="rgb(197,251,238)" fill-opacity="1.0" stroke="rgb(78,100,95)" stroke-width="1" />
		<g>
			<title>PF01565</title>
			<rect class="PF01565" x="297" y="18" stroke-linejoin="round" width="13" height="26" fill="rgb(226,88,136)" stroke="rgb(180,70,108)" stroke-width="1" opacity="0.75" />
		</g>
		<g>
			<title>PF08031</title>
			<polygon class="PF08031" points="338,28 341,31 338,34" stroke-linejoin="round" width="5" height="26" fill="rgb(210,73,83)" stroke="rgb(168,58,66)" stroke-width="1" opacity="0.75" />
		</g>
	</g>
	<g>
		<title>SCO6273</title>
		<polygon class="SCO6273" points="561,16 376,16 376,1 346,31 376,61 376,46 561,46" fill="rgb(183,254,228)" fill-opacity="1.0" stroke="rgb(73,101,91)" stroke-width="1" />
		<g>
			<title>PF07993</title>
			<polygon class="PF07993" points="358,21 361,18 381,18 381,44 361,44 358,40" stroke-linejoin="round" width="23" height="26" fill="rgb(100,212,204)" stroke="rgb(80,169,163)" stroke-width="1" opacity="0.75" />
		</g>
		<g>
			<title>PF00550</title>
			<rect class="PF00550" x="386" y="18" stroke-linejoin="round" width="6" height="26" fill="rgb(103,191,88)" stroke="rgb(82,152,70)" stroke-width="1" opacity="0.75" />
		</g>
		<g>
			<title>PF08659</title>
			<rect class="PF08659" x="403" y="18" stroke-linejoin="round" width="17" height="26" fill="rgb(66,209,188)" stroke="rgb(52,167,150)" stroke-width="1" opacity="0.75" />
		</g>
		<g>
			<title>PF14765</title>
			<rect class="PF14765" x="441" y="18" stroke-linejoin="round" width="27" height="26" fill="rgb(173,56,182)" stroke="rgb(138,44,145)" stroke-width="1" opacity="0.75" />
		</g>
		<g>
			<title>PF00698</title>
			<rect class="PF00698" x="473" y="18" stroke-linejoin="round" width="31" height="26" fill="rgb(59,176,209)" stroke="rgb(47,140,167)" stroke-width="1" opacity="0.75" />
		</g>
		<g>
			<title>PF16197</title>
			<rect class="PF16197" x="508" y="18" stroke-linejoin="round" width="11" height="26" fill="rgb(68,179,89)" stroke="rgb(54,143,71)" stroke-width="1" opacity="0.75" />
		</g>
		<g>
			<title>PF02801</title>
			<rect class="PF02801" x="520" y="18" stroke-linejoin="round" width="11" height="26" fill="rgb(215,78,102)" stroke="rgb(172,62,81)" stroke-width="1" opacity="0.75" />
		</g>
		<g>
			<title>PF00109</title>
			<rect class="PF00109" x="533" y="18" stroke-linejoin="round" width="24" height="26" fill="rgb(112,116,228)" stroke="rgb(89,92,182)" stroke-width="1" opacity="0.75" />
		</g>
		<g>
			<title>PF08990</title>
			<rect class="PF08990" x="558" y="18" stroke-linejoin="round" width="2" height="26" fill="rgb(180,75,55)" stroke="rgb(144,60,44)" stroke-width="1" opacity="0.75" />
		</g>
	</g>
</svg>
