<svg version="1.1" baseProfile="full" xmlns="http://www.w3.org/2000/svg" width="588" height="62">
	<line x1="1" y1="31" x2="587" y2="31" style="stroke:rgb(50,50,50); stroke-width:3 "/>
	<g>
		<title>bmbI</title>
		<polygon class="bmbI" points="404,16 415,16 415,1 445,31 415,61 415,46 404,46" fill="rgb(194,228,254)" fill-opacity="1.0" stroke="rgb(77,91,101)" stroke-width="1" />
		<g>
			<title>PF00067</title>
			<polygon class="PF00067" points="435,24 441,30 441,32 435,38" stroke-linejoin="round" width="6" height="26" fill="rgb(85,216,107)" stroke="rgb(68,172,85)" stroke-width="1" opacity="0.75" />
		</g>
	</g>
	<g>
		<title>bmbJ</title>
		<polygon class="bmbJ" points="445,16 482,16 482,1 512,31 482,61 482,46 445,46" fill="rgb(253,207,218)" fill-opacity="1.0" stroke="rgb(101,82,87)" stroke-width="1" />
		<g>
			<title>PF04055</title>
			<rect class="PF04055" x="475" y="18" stroke-linejoin="round" width="16" height="26" fill="rgb(149,56,222)" stroke="rgb(119,44,177)" stroke-width="1" opacity="0.75" />
		</g>
	</g>
	<g>
		<title>bmbR</title>
		<polygon class="bmbR" points="517,16 517,16 517,1 535,31 517,61 517,46 517,46" fill="rgb(223,179,254)" fill-opacity="1.0" stroke="rgb(89,71,101)" stroke-width="1" />
		<g>
			<title>PF09860</title>
			<polygon class="PF09860" points="528,24 532,31 528,38" stroke-linejoin="round" width="6" height="26" fill="rgb(169,56,213)" stroke="rgb(135,44,170)" stroke-width="1" opacity="0.75" />
		</g>
	</g>
	<g>
		<title>bmbK</title>
		<polygon class="bmbK" points="536,16 556,16 556,1 586,31 556,61 556,46 536,46" fill="rgb(190,188,252)" fill-opacity="1.0" stroke="rgb(76,75,100)" stroke-width="1" />
		<g>
			<title>PF02789</title>
			<rect class="PF02789" x="536" y="18" stroke-linejoin="round" width="12" height="26" fill="rgb(216,155,96)" stroke="rgb(172,124,76)" stroke-width="1" opacity="0.75" />
		</g>
		<g>
			<title>PF00883</title>
			<polygon class="PF00883" points="552,18 570,18 583,31 583,31 570,44 552,44" stroke-linejoin="round" width="31" height="26" fill="rgb(81,178,163)" stroke="rgb(64,142,130)" stroke-width="1" opacity="0.75" />
		</g>
	</g>
	<g>
		<title>bmbT</title>
		<polygon class="bmbT" points="45,16 31,16 31,1 1,31 31,61 31,46 45,46" fill="rgb(231,196,252)" fill-opacity="1.0" stroke="rgb(92,78,100)" stroke-width="1" />
		<g>
			<title>PF05977</title>
			<polygon class="PF05977" points="3,31 16,18 44,18 44,44 16,44" stroke-linejoin="round" width="42" height="26" fill="rgb(80,62,217)" stroke="rgb(64,49,173)" stroke-width="1" opacity="0.75" />
		</g>
	</g>
	<g>
		<title>bmbA</title>
		<polygon class="bmbA" points="88,16 88,16 88,1 60,31 88,61 88,46 88,46" fill="rgb(250,227,178)" fill-opacity="1.0" stroke="rgb(100,90,71)" stroke-width="1" />
		<g>
			<title>PF04072</title>
			<polygon class="PF04072" points="70,23 74,18 85,18 85,44 74,44 70,38" stroke-linejoin="round" width="15" height="26" fill="rgb(94,159,219)" stroke="rgb(75,127,175)" stroke-width="1" opacity="0.75" />
		</g>
	</g>
	<g>
		<title>bmbB</title>
		<polygon class="bmbB" points="102,16 135,16 135,1 165,31 135,61 135,46 102,46" fill="rgb(227,251,183)" fill-opacity="1.0" stroke="rgb(90,100,73)" stroke-width="1" />
		<g>
			<title>PF04055</title>
			<rect class="PF04055" x="128" y="18" stroke-linejoin="round" width="16" height="26" fill="rgb(149,56,222)" stroke="rgb(119,44,177)" stroke-width="1" opacity="0.75" />
		</g>
	</g>
	<g>
		<title>bmbC</title>
		<polygon class="bmbC" points="170,16 170,16 170,1 174,31 170,61 170,46 170,46" fill="rgb(254,212,193)" fill-opacity="1.0" stroke="rgb(101,84,77)" stroke-width="1" />
	</g>
	<g>
		<title>bmbD</title>
		<polygon class="bmbD" points="177,16 188,16 188,1 218,31 188,61 188,46 177,46" fill="rgb(209,252,204)" fill-opacity="1.0" stroke="rgb(83,100,81)" stroke-width="1" />
	</g>
	<g>
		<title>bmbE</title>
		<polygon class="bmbE" points="214,16 230,16 230,1 260,31 230,61 230,46 214,46" fill="rgb(180,252,248)" fill-opacity="1.0" stroke="rgb(72,100,99)" stroke-width="1" />
		<g>
			<title>PF02624</title>
			<polygon class="PF02624" points="223,18 244,18 257,31 257,31 244,44 223,44" stroke-linejoin="round" width="34" height="26" fill="rgb(76,84,185)" stroke="rgb(60,67,148)" stroke-width="1" opacity="0.75" />
		</g>
	</g>
	<g>
		<title>bmbF</title>
		<polygon class="bmbF" points="261,16 298,16 298,1 328,31 298,61 298,46 261,46" fill="rgb(221,180,253)" fill-opacity="1.0" stroke="rgb(88,72,101)" stroke-width="1" />
		<g>
			<title>PF04055</title>
			<rect class="PF04055" x="288" y="18" stroke-linejoin="round" width="16" height="26" fill="rgb(149,56,222)" stroke="rgb(119,44,177)" stroke-width="1" opacity="0.75" />
		</g>
	</g>
	<g>
		<title>bmbG</title>
		<polygon class="bmbG" points="329,16 332,16 332,1 362,31 332,61 332,46 329,46" fill="rgb(229,178,254)" fill-opacity="1.0" stroke="rgb(91,71,101)" stroke-width="1" />
		<g>
			<title>PF00561</title>
			<rect class="PF00561" x="330" y="18" stroke-linejoin="round" width="14" height="26" fill="rgb(86,180,151)" stroke="rgb(68,144,120)" stroke-width="1" opacity="0.75" />
		</g>
	</g>
	<g>
		<title>bmbH</title>
		<polygon class="bmbH" points="362,16 373,16 373,1 403,31 373,61 373,46 362,46" fill="rgb(254,189,202)" fill-opacity="1.0" stroke="rgb(101,75,80)" stroke-width="1" />
	</g>
</svg>
