<svg version="1.1" baseProfile="full" xmlns="http://www.w3.org/2000/svg" width="460" height="62">
	<line x1="1" y1="31" x2="459" y2="31" style="stroke:rgb(50,50,50); stroke-width:3 "/>
	<g>
		<title>bra10</title>
		<polygon class="bra10" points="381,16 382,16 382,1 412,31 382,61 382,46 381,46" fill="rgb(192,199,250)" fill-opacity="1.0" stroke="rgb(76,79,100)" stroke-width="1" />
		<g>
			<title>PF00535</title>
			<polygon class="PF00535" points="381,18 396,18 397,19 397,43 396,44 381,44" stroke-linejoin="round" width="16" height="26" fill="rgb(224,122,96)" stroke="rgb(179,97,76)" stroke-width="1" opacity="0.75" />
		</g>
	</g>
	<g>
		<title>bra11</title>
		<polygon class="bra11" points="412,16 416,16 416,1 446,31 416,61 416,46 412,46" fill="rgb(203,254,209)" fill-opacity="1.0" stroke="rgb(81,101,83)" stroke-width="1" />
		<g>
			<title>PF00891</title>
			<polygon class="PF00891" points="423,18 430,18 443,31 430,44 423,44" stroke-linejoin="round" width="21" height="26" fill="rgb(50,51,190)" stroke="rgb(39,40,152)" stroke-width="1" opacity="0.75" />
		</g>
	</g>
	<g>
		<title>bra1</title>
		<polygon class="bra1" points="9,16 13,16 13,1 43,31 13,61 13,46 9,46" fill="rgb(199,187,250)" fill-opacity="1.0" stroke="rgb(79,74,100)" stroke-width="1" />
		<g>
			<title>PF00155</title>
			<polygon class="PF00155" points="10,18 27,18 40,31 27,44 10,44" stroke-linejoin="round" width="31" height="26" fill="rgb(89,113,198)" stroke="rgb(71,90,158)" stroke-width="1" opacity="0.75" />
		</g>
	</g>
	<g>
		<title>bra2</title>
		<polygon class="bra2" points="43,16 46,16 46,1 76,31 46,61 46,46 43,46" fill="rgb(197,242,252)" fill-opacity="1.0" stroke="rgb(78,96,100)" stroke-width="1" />
		<g>
			<title>PF00348</title>
			<polygon class="PF00348" points="46,18 60,18 71,29 71,33 60,44 46,44" stroke-linejoin="round" width="25" height="26" fill="rgb(61,206,65)" stroke="rgb(48,164,52)" stroke-width="1" opacity="0.75" />
		</g>
	</g>
	<g>
		<title>bra3</title>
		<polygon class="bra3" points="76,16 78,16 78,1 108,31 78,61 78,46 76,46" fill="rgb(229,251,208)" fill-opacity="1.0" stroke="rgb(91,100,83)" stroke-width="1" />
		<g>
			<title>PF01040</title>
			<polygon class="PF01040" points="78,18 92,18 102,28 102,34 92,44 78,44" stroke-linejoin="round" width="24" height="26" fill="rgb(189,57,100)" stroke="rgb(151,45,80)" stroke-width="1" opacity="0.75" />
		</g>
	</g>
	<g>
		<title>bra4</title>
		<polygon class="bra4" points="109,16 134,16 134,1 164,31 134,61 134,46 109,46" fill="rgb(242,199,251)" fill-opacity="1.0" stroke="rgb(96,79,100)" stroke-width="1" />
		<g>
			<title>PF00432</title>
			<rect class="PF00432" x="115" y="18" stroke-linejoin="round" width="3" height="26" fill="rgb(218,215,79)" stroke="rgb(174,172,63)" stroke-width="1" opacity="0.75" />
		</g>
		<g>
			<title>PF13243</title>
			<polygon class="PF13243" points="135,18 148,18 161,31 148,44 135,44" stroke-linejoin="round" width="28" height="26" fill="rgb(191,58,201)" stroke="rgb(152,46,160)" stroke-width="1" opacity="0.75" />
		</g>
	</g>
	<g>
		<title>bra5</title>
		<polygon class="bra5" points="164,16 176,16 176,1 206,31 176,61 176,46 164,46" fill="rgb(197,230,251)" fill-opacity="1.0" stroke="rgb(78,92,100)" stroke-width="1" />
		<g>
			<title>PF01494</title>
			<polygon class="PF01494" points="164,18 190,18 198,26 198,36 190,44 164,44" stroke-linejoin="round" width="34" height="26" fill="rgb(182,175,59)" stroke="rgb(145,140,47)" stroke-width="1" opacity="0.75" />
		</g>
	</g>
	<g>
		<title>bra6</title>
		<polygon class="bra6" points="206,16 216,16 216,1 246,31 216,61 216,46 206,46" fill="rgb(251,189,201)" fill-opacity="1.0" stroke="rgb(100,75,80)" stroke-width="1" />
		<g>
			<title>PF00067</title>
			<polygon class="PF00067" points="233,21 242,30 242,32 233,41" stroke-linejoin="round" width="9" height="26" fill="rgb(85,216,107)" stroke="rgb(68,172,85)" stroke-width="1" opacity="0.75" />
		</g>
	</g>
	<g>
		<title>bra7</title>
		<polygon class="bra7" points="254,16 277,16 277,1 307,31 277,61 277,46 254,46" fill="rgb(253,237,180)" fill-opacity="1.0" stroke="rgb(101,94,72)" stroke-width="1" />
		<g>
			<title>PF00501</title>
			<polygon class="PF00501" points="254,18 291,18 295,22 295,40 291,44 254,44" stroke-linejoin="round" width="41" height="26" fill="rgb(60,217,223)" stroke="rgb(48,173,178)" stroke-width="1" opacity="0.75" />
		</g>
		<g>
			<title>PF13193</title>
			<polygon class="PF13193" points="296,23 303,30 303,32 296,39" stroke-linejoin="round" width="7" height="26" fill="rgb(182,50,118)" stroke="rgb(145,39,94)" stroke-width="1" opacity="0.75" />
		</g>
	</g>
	<g>
		<title>bra8</title>
		<polygon class="bra8" points="309,16 310,16 310,1 340,31 310,61 310,46 309,46" fill="rgb(209,250,210)" fill-opacity="1.0" stroke="rgb(83,100,84)" stroke-width="1" />
	</g>
	<g>
		<title>bra9</title>
		<polygon class="bra9" points="340,16 351,16 351,1 381,31 351,61 351,46 340,46" fill="rgb(250,180,187)" fill-opacity="1.0" stroke="rgb(100,72,74)" stroke-width="1" />
		<g>
			<title>PF16911</title>
			<polygon class="PF16911" points="369,22 378,31 369,40" stroke-linejoin="round" width="11" height="26" fill="rgb(219,98,127)" stroke="rgb(175,78,101)" stroke-width="1" opacity="0.75" />
		</g>
	</g>
</svg>
