<svg version="1.1" baseProfile="full" xmlns="http://www.w3.org/2000/svg" width="394" height="62">
	<line x1="1" y1="31" x2="393" y2="31" style="stroke:rgb(50,50,50); stroke-width:3 "/>
	<g>
		<title>waaQ</title>
		<polygon class="waaQ" points="352,16 348,16 348,1 318,31 348,61 348,46 352,46" fill="rgb(250,239,210)" fill-opacity="1.0" stroke="rgb(100,95,84)" stroke-width="1" />
		<g>
			<title>PF01075</title>
			<polygon class="PF01075" points="321,30 333,18 346,18 346,44 333,44 321,31" stroke-linejoin="round" width="25" height="26" fill="rgb(200,89,91)" stroke="rgb(160,71,72)" stroke-width="1" opacity="0.75" />
		</g>
	</g>
	<g>
		<title>waaL</title>
		<polygon class="waaL" points="5,16 15,16 15,1 45,31 15,61 15,46 5,46" fill="rgb(252,245,192)" fill-opacity="1.0" stroke="rgb(100,98,76)" stroke-width="1" />
		<g>
			<title>PF04932</title>
			<polygon class="PF04932" points="24,18 29,18 39,28 39,34 29,44 24,44" stroke-linejoin="round" width="15" height="26" fill="rgb(106,219,107)" stroke="rgb(84,175,85)" stroke-width="1" opacity="0.75" />
		</g>
	</g>
	<g>
		<title>waaZ</title>
		<polygon class="waaZ" points="86,16 86,16 86,1 59,31 86,61 86,46 86,46" fill="rgb(253,186,236)" fill-opacity="1.0" stroke="rgb(101,74,94)" stroke-width="1" />
	</g>
	<g>
		<title>waaY</title>
		<polygon class="waaY" points="114,16 114,16 114,1 91,31 114,61 114,46 114,46" fill="rgb(251,204,221)" fill-opacity="1.0" stroke="rgb(100,81,88)" stroke-width="1" />
		<g>
			<title>PF06176</title>
			<polygon class="PF06176" points="93,31 103,18 113,18 113,44 103,44" stroke-linejoin="round" width="22" height="26" fill="rgb(88,95,197)" stroke="rgb(70,76,157)" stroke-width="1" opacity="0.75" />
		</g>
	</g>
	<g>
		<title>waaJ</title>
		<polygon class="waaJ" points="148,16 145,16 145,1 115,31 145,61 145,46 148,46" fill="rgb(251,229,204)" fill-opacity="1.0" stroke="rgb(100,91,81)" stroke-width="1" />
		<g>
			<title>PF08437</title>
			<polygon class="PF08437" points="117,31 120,28 120,33" stroke-linejoin="round" width="5" height="26" fill="rgb(118,204,65)" stroke="rgb(94,163,52)" stroke-width="1" opacity="0.75" />
		</g>
		<g>
			<title>PF01501</title>
			<polygon class="PF01501" points="121,27 130,18 145,18 145,44 130,44 121,34" stroke-linejoin="round" width="24" height="26" fill="rgb(208,74,95)" stroke="rgb(166,59,76)" stroke-width="1" opacity="0.75" />
		</g>
	</g>
	<g>
		<title>waaI</title>
		<polygon class="waaI" points="182,16 179,16 179,1 149,31 179,61 179,46 182,46" fill="rgb(207,251,201)" fill-opacity="1.0" stroke="rgb(82,100,80)" stroke-width="1" />
		<g>
			<title>PF08437</title>
			<polygon class="PF08437" points="151,31 154,28 154,33" stroke-linejoin="round" width="5" height="26" fill="rgb(118,204,65)" stroke="rgb(94,163,52)" stroke-width="1" opacity="0.75" />
		</g>
		<g>
			<title>PF01501</title>
			<polygon class="PF01501" points="155,27 164,18 179,18 179,44 164,44 155,34" stroke-linejoin="round" width="24" height="26" fill="rgb(208,74,95)" stroke="rgb(166,59,76)" stroke-width="1" opacity="0.75" />
		</g>
	</g>
	<g>
		<title>waaB</title>
		<polygon class="waaB" points="219,16 213,16 213,1 183,31 213,61 213,46 219,46" fill="rgb(251,245,208)" fill-opacity="1.0" stroke="rgb(100,98,83)" stroke-width="1" />
		<g>
			<title>PF00534</title>
			<polygon class="PF00534" points="185,31 198,18 202,18 202,44 198,44" stroke-linejoin="round" width="17" height="26" fill="rgb(228,92,150)" stroke="rgb(182,73,119)" stroke-width="1" opacity="0.75" />
		</g>
		<g>
			<title>PF13439</title>
			<rect class="PF13439" x="202" y="18" stroke-linejoin="round" width="15" height="26" fill="rgb(162,57,186)" stroke="rgb(129,45,148)" stroke-width="1" opacity="0.75" />
		</g>
	</g>
	<g>
		<title>waaH</title>
		<polygon class="waaH" points="253,16 252,16 252,1 222,31 252,61 252,46 253,46" fill="rgb(253,232,189)" fill-opacity="1.0" stroke="rgb(101,92,75)" stroke-width="1" />
		<g>
			<title>PF07922</title>
			<polygon class="PF07922" points="224,31 237,18 250,18 250,44 237,44" stroke-linejoin="round" width="26" height="26" fill="rgb(109,183,59)" stroke="rgb(87,146,47)" stroke-width="1" opacity="0.75" />
		</g>
	</g>
	<g>
		<title>waaP</title>
		<polygon class="waaP" points="280,16 280,16 280,1 254,31 280,61 280,46 280,46" fill="rgb(250,233,199)" fill-opacity="1.0" stroke="rgb(100,93,79)" stroke-width="1" />
		<g>
			<title>PF06293</title>
			<polygon class="PF06293" points="257,30 267,18 278,18 278,44 267,44 257,31" stroke-linejoin="round" width="21" height="26" fill="rgb(64,86,229)" stroke="rgb(51,68,183)" stroke-width="1" opacity="0.75" />
		</g>
	</g>
	<g>
		<title>waaG</title>
		<polygon class="waaG" points="318,16 311,16 311,1 281,31 311,61 311,46 318,46" fill="rgb(209,253,250)" fill-opacity="1.0" stroke="rgb(83,101,100)" stroke-width="1" />
		<g>
			<title>PF00534</title>
			<polygon class="PF00534" points="283,31 296,18 299,18 299,44 296,44" stroke-linejoin="round" width="16" height="26" fill="rgb(228,92,150)" stroke="rgb(182,73,119)" stroke-width="1" opacity="0.75" />
		</g>
		<g>
			<title>PF13439</title>
			<rect class="PF13439" x="301" y="18" stroke-linejoin="round" width="16" height="26" fill="rgb(162,57,186)" stroke="rgb(129,45,148)" stroke-width="1" opacity="0.75" />
		</g>
	</g>
</svg>
