<svg version="1.1" baseProfile="full" xmlns="http://www.w3.org/2000/svg" width="254" height="62">
	<line x1="1" y1="31" x2="253" y2="31" style="stroke:rgb(50,50,50); stroke-width:3 "/>
	<g>
		<title>kasA</title>
		<polygon class="kasA" points="1,16 1,16 1,1 26,31 1,61 1,46 1,46" fill="rgb(250,185,207)" fill-opacity="1.0" stroke="rgb(100,73,82)" stroke-width="1" />
		<g>
			<title>PF00534</title>
			<polygon class="PF00534" points="6,18 12,18 23,31 23,31 12,44 6,44" stroke-linejoin="round" width="17" height="26" fill="rgb(228,92,150)" stroke="rgb(182,73,119)" stroke-width="1" opacity="0.75" />
		</g>
	</g>
	<g>
		<title>ORF_B</title>
		<polygon class="ORF_B" points="39,16 39,16 39,1 64,31 39,61 39,46 39,46" fill="rgb(221,254,211)" fill-opacity="1.0" stroke="rgb(88,101,84)" stroke-width="1" />
	</g>
	<g>
		<title>kasC</title>
		<polygon class="kasC" points="65,16 78,16 78,1 108,31 78,61 78,46 65,46" fill="rgb(200,252,235)" fill-opacity="1.0" stroke="rgb(80,100,93)" stroke-width="1" />
		<g>
			<title>PF00202</title>
			<polygon class="PF00202" points="65,18 92,18 105,31 92,44 65,44" stroke-linejoin="round" width="41" height="26" fill="rgb(49,163,189)" stroke="rgb(39,130,151)" stroke-width="1" opacity="0.75" />
		</g>
	</g>
	<g>
		<title>kasD</title>
		<polygon class="kasD" points="109,16 112,16 112,1 142,31 112,61 112,46 109,46" fill="rgb(253,204,185)" fill-opacity="1.0" stroke="rgb(101,81,74)" stroke-width="1" />
		<g>
			<title>PF16363</title>
			<polygon class="PF16363" points="110,18 126,18 139,31 139,31 126,44 110,44" stroke-linejoin="round" width="29" height="26" fill="rgb(162,221,65)" stroke="rgb(129,176,51)" stroke-width="1" opacity="0.75" />
		</g>
	</g>
	<g>
		<title>ORF_E</title>
		<polygon class="ORF_E" points="142,16 142,16 142,1 168,31 142,61 142,46 142,46" fill="rgb(190,206,254)" fill-opacity="1.0" stroke="rgb(76,82,101)" stroke-width="1" />
	</g>
	<g>
		<title>ORF_F</title>
		<polygon class="ORF_F" points="168,16 168,16 168,1 191,31 168,61 168,46 168,46" fill="rgb(185,187,251)" fill-opacity="1.0" stroke="rgb(74,74,100)" stroke-width="1" />
		<g>
			<title>PF08445</title>
			<polygon class="PF08445" points="183,24 188,31 183,38" stroke-linejoin="round" width="8" height="26" fill="rgb(215,89,80)" stroke="rgb(172,71,64)" stroke-width="1" opacity="0.75" />
		</g>
	</g>
	<g>
		<title>ORF_G</title>
		<polygon class="ORF_G" points="204,16 204,16 204,1 192,31 204,61 204,46 204,46" fill="rgb(254,178,204)" fill-opacity="1.0" stroke="rgb(101,71,81)" stroke-width="1" />
	</g>
	<g>
		<title>kac338</title>
		<polygon class="kac338" points="211,16 211,16 211,1 225,31 211,61 211,46 211,46" fill="rgb(188,251,195)" fill-opacity="1.0" stroke="rgb(75,100,78)" stroke-width="1" />
		<g>
			<title>PF00583</title>
			<polygon class="PF00583" points="213,18 216,18 222,31 216,44 213,44" stroke-linejoin="round" width="10" height="26" fill="rgb(121,183,50)" stroke="rgb(96,146,39)" stroke-width="1" opacity="0.75" />
		</g>
	</g>
	<g>
		<title>ORF_I</title>
		<polygon class="ORF_I" points="237,16 237,16 237,1 244,31 237,61 237,46 237,46" fill="rgb(223,202,251)" fill-opacity="1.0" stroke="rgb(89,80,100)" stroke-width="1" />
		<g>
			<title>PF03992</title>
			<polygon class="PF03992" points="237,18 238,18 241,31 238,44 237,44" stroke-linejoin="round" width="5" height="26" fill="rgb(193,84,127)" stroke="rgb(154,67,101)" stroke-width="1" opacity="0.75" />
		</g>
	</g>
</svg>
