<svg version="1.1" baseProfile="full" xmlns="http://www.w3.org/2000/svg" width="363" height="62">
	<line x1="1" y1="31" x2="362" y2="31" style="stroke:rgb(50,50,50); stroke-width:3 "/>
	<g>
		<polygon class="NoName" points="1,16 15,16 15,1 45,31 15,61 15,46 1,46" fill="rgb(255,255,255)" fill-opacity="1.0" stroke="rgb(50,50,50)" stroke-width="1" />
	</g>
	<g>
		<polygon class="NoName" points="76,16 76,16 76,1 48,31 76,61 76,46 76,46" fill="rgb(255,255,255)" fill-opacity="1.0" stroke="rgb(50,50,50)" stroke-width="1" />
		<g>
			<title>PF08450</title>
			<polygon class="PF08450" points="51,30 62,18 74,18 74,44 62,44 51,31" stroke-linejoin="round" width="23" height="26" fill="rgb(210,60,225)" stroke="rgb(168,48,180)" stroke-width="1" opacity="0.75" />
		</g>
	</g>
	<g>
		<polygon class="NoName" points="102,16 102,16 102,1 77,31 102,61 102,46 102,46" fill="rgb(255,255,255)" fill-opacity="1.0" stroke="rgb(50,50,50)" stroke-width="1" />
		<g>
			<title>PF01614</title>
			<polygon class="PF01614" points="79,31 89,19 89,42" stroke-linejoin="round" width="12" height="26" fill="rgb(58,93,180)" stroke="rgb(46,74,144)" stroke-width="1" opacity="0.75" />
		</g>
		<g>
			<title>PF09339</title>
			<rect class="PF09339" x="97" y="18" stroke-linejoin="round" width="5" height="26" fill="rgb(135,102,222)" stroke="rgb(108,81,177)" stroke-width="1" opacity="0.75" />
		</g>
	</g>
	<g>
		<polygon class="NoName" points="108,16 108,16 108,1 128,31 108,61 108,46 108,46" fill="rgb(255,255,255)" fill-opacity="1.0" stroke="rgb(50,50,50)" stroke-width="1" />
	</g>
	<g>
		<polygon class="NoName" points="138,16 152,16 152,1 182,31 152,61 152,46 138,46" fill="rgb(255,255,255)" fill-opacity="1.0" stroke="rgb(50,50,50)" stroke-width="1" />
		<g>
			<title>PF00501</title>
			<polygon class="PF00501" points="140,18 166,18 172,24 172,38 166,44 140,44" stroke-linejoin="round" width="32" height="26" fill="rgb(60,217,223)" stroke="rgb(48,173,178)" stroke-width="1" opacity="0.75" />
		</g>
		<g>
			<title>PF13193</title>
			<polygon class="PF13193" points="173,25 179,31 173,37" stroke-linejoin="round" width="7" height="26" fill="rgb(182,50,118)" stroke="rgb(145,39,94)" stroke-width="1" opacity="0.75" />
		</g>
	</g>
	<g>
		<polygon class="NoName" points="315,16 223,16 223,1 193,31 223,61 223,46 315,46" fill="rgb(255,255,255)" fill-opacity="1.0" stroke="rgb(50,50,50)" stroke-width="1" />
		<g>
			<title>PF00082</title>
			<rect class="PF00082" x="266" y="18" stroke-linejoin="round" width="26" height="26" fill="rgb(193,159,94)" stroke="rgb(154,127,75)" stroke-width="1" opacity="0.75" />
		</g>
	</g>
	<g>
		<polygon class="NoName" points="327,16 331,16 331,1 361,31 331,61 331,46 327,46" fill="rgb(255,255,255)" fill-opacity="1.0" stroke="rgb(50,50,50)" stroke-width="1" />
		<g>
			<title>PF06723</title>
			<polygon class="PF06723" points="328,18 345,18 358,31 345,44 328,44" stroke-linejoin="round" width="32" height="26" fill="rgb(55,204,164)" stroke="rgb(44,163,131)" stroke-width="1" opacity="0.75" />
		</g>
	</g>
</svg>
