<svg version="1.1" baseProfile="full" xmlns="http://www.w3.org/2000/svg" width="423" height="62">
	<line x1="1" y1="31" x2="422" y2="31" style="stroke:rgb(50,50,50); stroke-width:3 "/>
	<g>
		<title>spaF</title>
		<polygon class="spaF" points="422,16 422,16 422,1 399,31 422,61 422,46 422,46" fill="rgb(252,245,202)" fill-opacity="1.0" stroke="rgb(100,98,80)" stroke-width="1" />
		<g>
			<title>PF00005</title>
			<polygon class="PF00005" points="406,25 411,18 419,18 419,44 411,44 406,36" stroke-linejoin="round" width="13" height="26" fill="rgb(129,201,63)" stroke="rgb(103,160,50)" stroke-width="1" opacity="0.75" />
		</g>
	</g>
	<g>
		<title>sunA</title>
		<polygon class="sunA" points="1,16 1,16 1,1 6,31 1,61 1,46 1,46" fill="rgb(203,206,251)" fill-opacity="1.0" stroke="rgb(81,82,100)" stroke-width="1" />
		<g>
			<title>PF02052</title>
			<polygon class="PF02052" points="1,18 1,18 3,31 1,44 1,44" stroke-linejoin="round" width="3" height="26" fill="rgb(66,195,175)" stroke="rgb(52,156,140)" stroke-width="1" opacity="0.75" />
		</g>
	</g>
	<g>
		<title>spaB</title>
		<polygon class="spaB" points="32,16 106,16 106,1 136,31 106,61 106,46 32,46" fill="rgb(253,232,188)" fill-opacity="1.0" stroke="rgb(101,92,75)" stroke-width="1" />
		<g>
			<title>PF04738</title>
			<rect class="PF04738" x="36" y="18" stroke-linejoin="round" width="65" height="26" fill="rgb(219,60,229)" stroke="rgb(175,47,183)" stroke-width="1" opacity="0.75" />
		</g>
		<g>
			<title>PF14028</title>
			<polygon class="PF14028" points="109,18 120,18 133,31 120,44 109,44" stroke-linejoin="round" width="26" height="26" fill="rgb(107,223,113)" stroke="rgb(85,178,90)" stroke-width="1" opacity="0.75" />
		</g>
	</g>
	<g>
		<title>spaT</title>
		<polygon class="spaT" points="142,16 173,16 173,1 203,31 173,61 173,46 142,46" fill="rgb(252,224,177)" fill-opacity="1.0" stroke="rgb(100,89,70)" stroke-width="1" />
		<g>
			<title>PF00005</title>
			<polygon class="PF00005" points="179,18 187,18 193,24 193,38 187,44 179,44" stroke-linejoin="round" width="14" height="26" fill="rgb(129,201,63)" stroke="rgb(103,160,50)" stroke-width="1" opacity="0.75" />
		</g>
	</g>
	<g>
		<title>spaC</title>
		<polygon class="spaC" points="202,16 215,16 215,1 245,31 215,61 215,46 202,46" fill="rgb(251,224,211)" fill-opacity="1.0" stroke="rgb(100,89,84)" stroke-width="1" />
		<g>
			<title>PF05147</title>
			<polygon class="PF05147" points="206,18 229,18 242,31 229,44 206,44" stroke-linejoin="round" width="38" height="26" fill="rgb(129,182,79)" stroke="rgb(103,145,63)" stroke-width="1" opacity="0.75" />
		</g>
	</g>
	<g>
		<title>spaR</title>
		<polygon class="spaR" points="257,16 257,16 257,1 280,31 257,61 257,46 257,46" fill="rgb(250,227,209)" fill-opacity="1.0" stroke="rgb(100,90,83)" stroke-width="1" />
		<g>
			<title>PF00072</title>
			<rect class="PF00072" x="257" y="18" stroke-linejoin="round" width="10" height="26" fill="rgb(100,107,203)" stroke="rgb(80,85,162)" stroke-width="1" opacity="0.75" />
		</g>
		<g>
			<title>PF00486</title>
			<polygon class="PF00486" points="271,23 277,31 271,39" stroke-linejoin="round" width="7" height="26" fill="rgb(204,153,57)" stroke="rgb(163,122,45)" stroke-width="1" opacity="0.75" />
		</g>
	</g>
	<g>
		<title>spaK</title>
		<polygon class="spaK" points="280,16 297,16 297,1 327,31 297,61 297,46 280,46" fill="rgb(254,241,191)" fill-opacity="1.0" stroke="rgb(101,96,76)" stroke-width="1" />
		<g>
			<title>PF00512</title>
			<rect class="PF00512" x="304" y="18" stroke-linejoin="round" width="6" height="26" fill="rgb(193,125,62)" stroke="rgb(154,100,49)" stroke-width="1" opacity="0.75" />
		</g>
		<g>
			<title>PF02518</title>
			<polygon class="PF02518" points="316,23 324,31 316,39" stroke-linejoin="round" width="11" height="26" fill="rgb(80,94,225)" stroke="rgb(64,75,180)" stroke-width="1" opacity="0.75" />
		</g>
	</g>
	<g>
		<title>spaI</title>
		<polygon class="spaI" points="344,16 344,16 344,1 330,31 344,61 344,46 344,46" fill="rgb(228,251,189)" fill-opacity="1.0" stroke="rgb(91,100,75)" stroke-width="1" />
	</g>
	<g>
		<title>spaG</title>
		<polygon class="spaG" points="367,16 367,16 367,1 347,31 367,61 367,46 367,46" fill="rgb(177,231,252)" fill-opacity="1.0" stroke="rgb(70,92,100)" stroke-width="1" />
		<g>
			<title>PF12730</title>
			<polygon class="PF12730" points="355,22 358,18 367,18 367,44 358,44 355,39" stroke-linejoin="round" width="12" height="26" fill="rgb(203,161,59)" stroke="rgb(162,128,47)" stroke-width="1" opacity="0.75" />
		</g>
	</g>
	<g>
		<title>spaE</title>
		<polygon class="spaE" points="397,16 397,16 397,1 373,31 397,61 397,46 397,46" fill="rgb(251,246,202)" fill-opacity="1.0" stroke="rgb(100,98,80)" stroke-width="1" />
		<g>
			<title>PF12730</title>
			<polygon class="PF12730" points="380,25 385,18 397,18 397,44 385,44 380,36" stroke-linejoin="round" width="17" height="26" fill="rgb(203,161,59)" stroke="rgb(162,128,47)" stroke-width="1" opacity="0.75" />
		</g>
	</g>
</svg>
