<svg version="1.1" baseProfile="full" xmlns="http://www.w3.org/2000/svg" width="845" height="62">
	<line x1="1" y1="31" x2="844" y2="31" style="stroke:rgb(50,50,50); stroke-width:3 "/>
	<g>
		<title>frnJ</title>
		<polygon class="frnJ" points="425,16 425,16 425,1 433,31 425,61 425,46 425,46" fill="rgb(254,187,219)" fill-opacity="1.0" stroke="rgb(101,74,87)" stroke-width="1" />
		<g>
			<title>PF00550</title>
			<polygon class="PF00550" points="426,18 427,18 430,31 427,44 426,44" stroke-linejoin="round" width="6" height="26" fill="rgb(103,191,88)" stroke="rgb(82,152,70)" stroke-width="1" opacity="0.75" />
		</g>
	</g>
	<g>
		<title>frnK</title>
		<polygon class="frnK" points="472,16 467,16 467,1 437,31 467,61 467,46 472,46" fill="rgb(192,227,251)" fill-opacity="1.0" stroke="rgb(76,90,100)" stroke-width="1" />
		<g>
			<title>PF00698</title>
			<polygon class="PF00698" points="443,27 452,18 469,18 469,44 452,44 443,34" stroke-linejoin="round" width="26" height="26" fill="rgb(59,176,209)" stroke="rgb(47,140,167)" stroke-width="1" opacity="0.75" />
		</g>
	</g>
	<g>
		<title>frnL</title>
		<polygon class="frnL" points="478,16 490,16 490,1 520,31 490,61 490,46 478,46" fill="rgb(219,208,252)" fill-opacity="1.0" stroke="rgb(87,83,100)" stroke-width="1" />
		<g>
			<title>PF00109</title>
			<rect class="PF00109" x="478" y="18" stroke-linejoin="round" width="25" height="26" fill="rgb(112,116,228)" stroke="rgb(89,92,182)" stroke-width="1" opacity="0.75" />
		</g>
		<g>
			<title>PF02801</title>
			<polygon class="PF02801" points="504,18 504,18 515,29 515,33 504,44 504,44" stroke-linejoin="round" width="11" height="26" fill="rgb(215,78,102)" stroke="rgb(172,62,81)" stroke-width="1" opacity="0.75" />
		</g>
	</g>
	<g>
		<title>frnM</title>
		<polygon class="frnM" points="524,16 536,16 536,1 566,31 536,61 536,46 524,46" fill="rgb(199,252,242)" fill-opacity="1.0" stroke="rgb(79,100,96)" stroke-width="1" />
		<g>
			<title>PF00109</title>
			<rect class="PF00109" x="526" y="18" stroke-linejoin="round" width="23" height="26" fill="rgb(112,116,228)" stroke="rgb(89,92,182)" stroke-width="1" opacity="0.75" />
		</g>
		<g>
			<title>PF02801</title>
			<polygon class="PF02801" points="550,18 550,18 561,29 561,33 550,44 550,44" stroke-linejoin="round" width="11" height="26" fill="rgb(215,78,102)" stroke="rgb(172,62,81)" stroke-width="1" opacity="0.75" />
		</g>
	</g>
	<g>
		<title>frnN</title>
		<polygon class="frnN" points="569,16 569,16 569,1 577,31 569,61 569,46 569,46" fill="rgb(205,249,190)" fill-opacity="1.0" stroke="rgb(82,99,76)" stroke-width="1" />
		<g>
			<title>PF00550</title>
			<polygon class="PF00550" points="569,18 571,18 574,31 571,44 569,44" stroke-linejoin="round" width="6" height="26" fill="rgb(103,191,88)" stroke="rgb(82,152,70)" stroke-width="1" opacity="0.75" />
		</g>
	</g>
	<g>
		<title>frnO</title>
		<polygon class="frnO" points="596,16 596,16 596,1 580,31 596,61 596,46 596,46" fill="rgb(250,202,204)" fill-opacity="1.0" stroke="rgb(100,80,81)" stroke-width="1" />
		<g>
			<title>PF13577</title>
			<polygon class="PF13577" points="582,31 589,18 593,18 593,44 589,44" stroke-linejoin="round" width="13" height="26" fill="rgb(68,223,209)" stroke="rgb(54,178,167)" stroke-width="1" opacity="0.75" />
		</g>
	</g>
	<g>
		<title>frnP</title>
		<polygon class="frnP" points="601,16 601,16 601,1 628,31 601,61 601,46 601,46" fill="rgb(229,204,250)" fill-opacity="1.0" stroke="rgb(91,81,100)" stroke-width="1" />
		<g>
			<title>PF00106</title>
			<polygon class="PF00106" points="602,18 613,18 621,27 621,35 613,44 602,44" stroke-linejoin="round" width="19" height="26" fill="rgb(182,219,73)" stroke="rgb(145,175,58)" stroke-width="1" opacity="0.75" />
		</g>
	</g>
	<g>
		<title>frnQ</title>
		<polygon class="frnQ" points="628,16 631,16 631,1 661,31 631,61 631,46 628,46" fill="rgb(238,177,251)" fill-opacity="1.0" stroke="rgb(95,70,100)" stroke-width="1" />
		<g>
			<title>PF03364</title>
			<rect class="PF03364" x="630" y="18" stroke-linejoin="round" width="12" height="26" fill="rgb(221,94,106)" stroke="rgb(176,75,84)" stroke-width="1" opacity="0.75" />
		</g>
		<g>
			<title>PF10604</title>
			<polygon class="PF10604" points="644,18 645,18 658,31 645,44 644,44" stroke-linejoin="round" width="16" height="26" fill="rgb(105,204,74)" stroke="rgb(84,163,59)" stroke-width="1" opacity="0.75" />
		</g>
	</g>
	<g>
		<title>frnR</title>
		<polygon class="frnR" points="661,16 662,16 662,1 692,31 662,61 662,46 661,46" fill="rgb(202,237,253)" fill-opacity="1.0" stroke="rgb(80,94,101)" stroke-width="1" />
		<g>
			<title>PF00753</title>
			<polygon class="PF00753" points="664,18 676,18 682,24 682,38 676,44 664,44" stroke-linejoin="round" width="18" height="26" fill="rgb(206,198,96)" stroke="rgb(164,158,76)" stroke-width="1" opacity="0.75" />
		</g>
	</g>
	<g>
		<title>frnS</title>
		<polygon class="frnS" points="728,16 728,16 728,1 698,31 728,61 728,46 728,46" fill="rgb(253,185,226)" fill-opacity="1.0" stroke="rgb(101,74,90)" stroke-width="1" />
		<g>
			<title>PF05368</title>
			<polygon class="PF05368" points="702,29 713,18 726,18 726,44 713,44 702,32" stroke-linejoin="round" width="24" height="26" fill="rgb(97,49,192)" stroke="rgb(77,39,153)" stroke-width="1" opacity="0.75" />
		</g>
	</g>
	<g>
		<title>frnA</title>
		<polygon class="frnA" points="53,16 100,16 100,1 130,31 100,61 100,46 53,46" fill="rgb(186,184,253)" fill-opacity="1.0" stroke="rgb(74,73,101)" stroke-width="1" />
		<g>
			<title>PF03816</title>
			<rect class="PF03816" x="59" y="18" stroke-linejoin="round" width="16" height="26" fill="rgb(212,80,62)" stroke="rgb(169,64,49)" stroke-width="1" opacity="0.75" />
		</g>
		<g>
			<title>PF00496</title>
			<polygon class="PF00496" points="85,18 114,18 122,26 122,36 114,44 85,44" stroke-linejoin="round" width="37" height="26" fill="rgb(199,94,116)" stroke="rgb(159,75,92)" stroke-width="1" opacity="0.75" />
		</g>
	</g>
	<g>
		<title>frnT</title>
		<polygon class="frnT" points="767,16 758,16 758,1 728,31 758,61 758,46 767,46" fill="rgb(189,252,203)" fill-opacity="1.0" stroke="rgb(75,100,81)" stroke-width="1" />
		<g>
			<title>PF08028</title>
			<polygon class="PF08028" points="730,31 741,20 741,41" stroke-linejoin="round" width="12" height="26" fill="rgb(106,185,56)" stroke="rgb(84,148,44)" stroke-width="1" opacity="0.75" />
		</g>
	</g>
	<g>
		<title>frnU</title>
		<polygon class="frnU" points="781,16 781,16 781,1 771,31 781,61 781,46 781,46" fill="rgb(221,206,254)" fill-opacity="1.0" stroke="rgb(88,82,101)" stroke-width="1" />
		<g>
			<title>PF03992</title>
			<polygon class="PF03992" points="773,31 777,18 780,18 780,44 777,44" stroke-linejoin="round" width="7" height="26" fill="rgb(193,84,127)" stroke="rgb(154,67,101)" stroke-width="1" opacity="0.75" />
		</g>
	</g>
	<g>
		<title>gapX</title>
		<polygon class="gapX" points="834,16 818,16 818,1 788,31 818,61 818,46 834,46" fill="rgb(252,211,212)" fill-opacity="1.0" stroke="rgb(100,84,84)" stroke-width="1" />
		<g>
			<title>PF02800</title>
			<polygon class="PF02800" points="791,30 803,18 806,18 806,44 803,44 791,31" stroke-linejoin="round" width="15" height="26" fill="rgb(160,186,82)" stroke="rgb(128,148,65)" stroke-width="1" opacity="0.75" />
		</g>
		<g>
			<title>PF00044</title>
			<rect class="PF00044" x="812" y="18" stroke-linejoin="round" width="11" height="26" fill="rgb(212,98,148)" stroke="rgb(169,78,118)" stroke-width="1" opacity="0.75" />
		</g>
	</g>
	<g>
		<title>frnB</title>
		<polygon class="frnB" points="130,16 132,16 132,1 162,31 132,61 132,46 130,46" fill="rgb(214,254,230)" fill-opacity="1.0" stroke="rgb(85,101,92)" stroke-width="1" />
		<g>
			<title>PF00528</title>
			<polygon class="PF00528" points="141,18 146,18 159,31 146,44 141,44" stroke-linejoin="round" width="19" height="26" fill="rgb(77,208,225)" stroke="rgb(61,166,180)" stroke-width="1" opacity="0.75" />
		</g>
	</g>
	<g>
		<title>frnC</title>
		<polygon class="frnC" points="165,16 165,16 165,1 192,31 165,61 165,46 165,46" fill="rgb(241,250,208)" fill-opacity="1.0" stroke="rgb(96,100,83)" stroke-width="1" />
		<g>
			<title>PF00528</title>
			<polygon class="PF00528" points="174,18 177,18 189,31 177,44 174,44" stroke-linejoin="round" width="18" height="26" fill="rgb(77,208,225)" stroke="rgb(61,166,180)" stroke-width="1" opacity="0.75" />
		</g>
	</g>
	<g>
		<title>frnD</title>
		<polygon class="frnD" points="193,16 215,16 215,1 245,31 215,61 215,46 193,46" fill="rgb(201,250,178)" fill-opacity="1.0" stroke="rgb(80,100,71)" stroke-width="1" />
		<g>
			<title>PF00005</title>
			<rect class="PF00005" x="196" y="18" stroke-linejoin="round" width="15" height="26" fill="rgb(129,201,63)" stroke="rgb(103,160,50)" stroke-width="1" opacity="0.75" />
		</g>
		<g>
			<title>PF08352</title>
			<rect class="PF08352" x="217" y="18" stroke-linejoin="round" width="4" height="26" fill="rgb(90,183,173)" stroke="rgb(72,146,138)" stroke-width="1" opacity="0.75" />
		</g>
		<g>
			<title>PF00005</title>
			<polygon class="PF00005" points="223,18 229,18 236,25 236,37 229,44 223,44" stroke-linejoin="round" width="13" height="26" fill="rgb(129,201,63)" stroke="rgb(103,160,50)" stroke-width="1" opacity="0.75" />
		</g>
		<g>
			<title>PF08352</title>
			<polygon class="PF08352" points="242,31 242,31 242,31" stroke-linejoin="round" width="2" height="26" fill="rgb(90,183,173)" stroke="rgb(72,146,138)" stroke-width="1" opacity="0.75" />
		</g>
	</g>
	<g>
		<title>frnE</title>
		<polygon class="frnE" points="249,16 249,16 249,1 270,31 249,61 249,46 249,46" fill="rgb(254,212,226)" fill-opacity="1.0" stroke="rgb(101,84,90)" stroke-width="1" />
		<g>
			<title>PF01323</title>
			<polygon class="PF01323" points="249,18 258,18 267,31 258,44 249,44" stroke-linejoin="round" width="20" height="26" fill="rgb(221,114,99)" stroke="rgb(176,91,79)" stroke-width="1" opacity="0.75" />
		</g>
	</g>
	<g>
		<title>frnF</title>
		<polygon class="frnF" points="276,16 297,16 297,1 327,31 297,61 297,46 276,46" fill="rgb(248,252,193)" fill-opacity="1.0" stroke="rgb(99,100,77)" stroke-width="1" />
		<g>
			<title>PF07690</title>
			<polygon class="PF07690" points="279,18 311,18 318,25 318,37 311,44 279,44" stroke-linejoin="round" width="39" height="26" fill="rgb(193,224,74)" stroke="rgb(154,179,59)" stroke-width="1" opacity="0.75" />
		</g>
	</g>
	<g>
		<title>frnG</title>
		<polygon class="frnG" points="337,16 337,16 337,1 365,31 337,61 337,46 337,46" fill="rgb(193,250,220)" fill-opacity="1.0" stroke="rgb(77,100,88)" stroke-width="1" />
		<g>
			<title>PF00486</title>
			<rect class="PF00486" x="338" y="18" stroke-linejoin="round" width="7" height="26" fill="rgb(204,153,57)" stroke="rgb(163,122,45)" stroke-width="1" opacity="0.75" />
		</g>
		<g>
			<title>PF03704</title>
			<polygon class="PF03704" points="347,18 350,18 361,30 361,32 350,44 347,44" stroke-linejoin="round" width="14" height="26" fill="rgb(217,89,196)" stroke="rgb(173,71,156)" stroke-width="1" opacity="0.75" />
		</g>
	</g>
	<g>
		<title>frnH</title>
		<polygon class="frnH" points="385,16 385,16 385,1 368,31 385,61 385,46 385,46" fill="rgb(220,253,191)" fill-opacity="1.0" stroke="rgb(88,101,76)" stroke-width="1" />
		<g>
			<title>PF01613</title>
			<polygon class="PF01613" points="370,31 377,18 382,18 382,44 377,44" stroke-linejoin="round" width="14" height="26" fill="rgb(107,197,222)" stroke="rgb(85,157,177)" stroke-width="1" opacity="0.75" />
		</g>
	</g>
	<g>
		<title>frnI</title>
		<polygon class="frnI" points="418,16 415,16 415,1 385,31 415,61 415,46 418,46" fill="rgb(200,253,247)" fill-opacity="1.0" stroke="rgb(80,101,98)" stroke-width="1" />
		<g>
			<title>PF08541</title>
			<polygon class="PF08541" points="387,31 394,24 394,37" stroke-linejoin="round" width="9" height="26" fill="rgb(146,207,81)" stroke="rgb(116,165,64)" stroke-width="1" opacity="0.75" />
		</g>
		<g>
			<title>PF08545</title>
			<polygon class="PF08545" points="399,19 400,18 406,18 406,44 400,44 399,42" stroke-linejoin="round" width="7" height="26" fill="rgb(189,102,84)" stroke="rgb(151,81,67)" stroke-width="1" opacity="0.75" />
		</g>
	</g>
</svg>
