<svg version="1.1" baseProfile="full" xmlns="http://www.w3.org/2000/svg" width="212" height="62">
	<line x1="1" y1="31" x2="211" y2="31" style="stroke:rgb(50,50,50); stroke-width:3 "/>
	<g>
		<polygon class="NoName" points="16,16 16,16 16,1 39,31 16,61 16,46 16,46" fill="rgb(255,255,255)" fill-opacity="1.0" stroke="rgb(50,50,50)" stroke-width="1" />
		<g>
			<title>PF00072</title>
			<polygon class="PF00072" points="16,18 26,18 27,19 27,43 26,44 16,44" stroke-linejoin="round" width="11" height="26" fill="rgb(100,107,203)" stroke="rgb(80,85,162)" stroke-width="1" opacity="0.75" />
		</g>
		<g>
			<title>PF04397</title>
			<polygon class="PF04397" points="29,22 36,31 29,40" stroke-linejoin="round" width="9" height="26" fill="rgb(207,76,174)" stroke="rgb(165,60,139)" stroke-width="1" opacity="0.75" />
		</g>
	</g>
	<g>
		<polygon class="NoName" points="45,16 54,16 54,1 84,31 54,61 54,46 45,46" fill="rgb(255,255,255)" fill-opacity="1.0" stroke="rgb(50,50,50)" stroke-width="1" />
		<g>
			<title>PF14501</title>
			<polygon class="PF14501" points="73,23 81,31 73,39" stroke-linejoin="round" width="10" height="26" fill="rgb(137,71,210)" stroke="rgb(109,56,168)" stroke-width="1" opacity="0.75" />
		</g>
	</g>
	<g>
		<title>bviB</title>
		<polygon class="bviB" points="102,16 102,16 102,1 130,31 102,61 102,46 102,46" fill="rgb(206,206,251)" fill-opacity="1.0" stroke="rgb(82,82,100)" stroke-width="1" />
		<g>
			<title>PF00005</title>
			<polygon class="PF00005" points="104,18 115,18 117,21 117,41 115,44 104,44" stroke-linejoin="round" width="13" height="26" fill="rgb(129,201,63)" stroke="rgb(103,160,50)" stroke-width="1" opacity="0.75" />
		</g>
	</g>
	<g>
		<title>bviC</title>
		<polygon class="bviC" points="130,16 130,16 130,1 151,31 130,61 130,46 130,46" fill="rgb(200,251,215)" fill-opacity="1.0" stroke="rgb(80,100,86)" stroke-width="1" />
		<g>
			<title>PF13346</title>
			<polygon class="PF13346" points="130,18 139,18 148,31 139,44 130,44" stroke-linejoin="round" width="20" height="26" fill="rgb(176,207,85)" stroke="rgb(140,165,67)" stroke-width="1" opacity="0.75" />
		</g>
	</g>
	<g>
		<title>bviD</title>
		<polygon class="bviD" points="152,16 152,16 152,1 157,31 152,61 152,46 152,46" fill="rgb(208,188,252)" fill-opacity="1.0" stroke="rgb(83,75,100)" stroke-width="1" />
	</g>
	<g>
		<title>bviA</title>
		<polygon class="bviA" points="160,16 160,16 160,1 168,31 160,61 160,46 160,46" fill="rgb(222,191,250)" fill-opacity="1.0" stroke="rgb(88,76,100)" stroke-width="1" />
		<g>
			<title>PF12173</title>
			<polygon class="PF12173" points="160,18 162,18 165,31 162,44 160,44" stroke-linejoin="round" width="7" height="26" fill="rgb(121,181,84)" stroke="rgb(96,144,67)" stroke-width="1" opacity="0.75" />
		</g>
	</g>
	<g>
		<title>bviE</title>
		<polygon class="bviE" points="171,16 171,16 171,1 187,31 171,61 171,46 171,46" fill="rgb(202,254,224)" fill-opacity="1.0" stroke="rgb(80,101,89)" stroke-width="1" />
		<g>
			<title>PF01944</title>
			<polygon class="PF01944" points="172,18 177,18 184,31 177,44 172,44" stroke-linejoin="round" width="14" height="26" fill="rgb(96,132,207)" stroke="rgb(76,105,165)" stroke-width="1" opacity="0.75" />
		</g>
	</g>
	<g>
		<polygon class="NoName" points="190,16 190,16 190,1 202,31 190,61 190,46 190,46" fill="rgb(255,255,255)" fill-opacity="1.0" stroke="rgb(50,50,50)" stroke-width="1" />
	</g>
</svg>
