<svg version="1.1" baseProfile="full" xmlns="http://www.w3.org/2000/svg" width="4011" height="124">
	<line x1="1" y1="31" x2="4010" y2="31" style="stroke:rgb(50,50,50); stroke-width:3 "/>
	<line x1="1" y1="93" x2="1584" y2="93" style="stroke:rgb(50,50,50); stroke-width:3 "/>
	<g>
		<title>ecdA</title>
		<polygon class="ecdA" points="1376,16 2076,16 2076,1 2106,31 2076,61 2076,46 1376,46" fill="rgb(250,185,229)" fill-opacity="1.0" stroke="rgb(100,73,91)" stroke-width="1" />
		<g>
			<title>PF00550</title>
			<rect class="PF00550" x="1377" y="18" stroke-linejoin="round" width="6" height="26" fill="rgb(103,191,88)" stroke="rgb(82,152,70)" stroke-width="1" opacity="0.75" />
		</g>
		<g>
			<title>PF00668</title>
			<rect class="PF00668" x="1389" y="18" stroke-linejoin="round" width="42" height="26" fill="rgb(224,184,98)" stroke="rgb(179,147,78)" stroke-width="1" opacity="0.75" />
		</g>
		<g>
			<title>PF00501</title>
			<rect class="PF00501" x="1433" y="18" stroke-linejoin="round" width="39" height="26" fill="rgb(60,217,223)" stroke="rgb(48,173,178)" stroke-width="1" opacity="0.75" />
		</g>
		<g>
			<title>PF00550</title>
			<rect class="PF00550" x="1485" y="18" stroke-linejoin="round" width="6" height="26" fill="rgb(103,191,88)" stroke="rgb(82,152,70)" stroke-width="1" opacity="0.75" />
		</g>
		<g>
			<title>PF00668</title>
			<rect class="PF00668" x="1496" y="18" stroke-linejoin="round" width="42" height="26" fill="rgb(224,184,98)" stroke="rgb(179,147,78)" stroke-width="1" opacity="0.75" />
		</g>
		<g>
			<title>PF00501</title>
			<rect class="PF00501" x="1541" y="18" stroke-linejoin="round" width="40" height="26" fill="rgb(60,217,223)" stroke="rgb(48,173,178)" stroke-width="1" opacity="0.75" />
		</g>
		<g>
			<title>PF00550</title>
			<rect class="PF00550" x="1595" y="18" stroke-linejoin="round" width="6" height="26" fill="rgb(103,191,88)" stroke="rgb(82,152,70)" stroke-width="1" opacity="0.75" />
		</g>
		<g>
			<title>PF00668</title>
			<rect class="PF00668" x="1607" y="18" stroke-linejoin="round" width="42" height="26" fill="rgb(224,184,98)" stroke="rgb(179,147,78)" stroke-width="1" opacity="0.75" />
		</g>
		<g>
			<title>PF00501</title>
			<rect class="PF00501" x="1652" y="18" stroke-linejoin="round" width="39" height="26" fill="rgb(60,217,223)" stroke="rgb(48,173,178)" stroke-width="1" opacity="0.75" />
		</g>
		<g>
			<title>PF00550</title>
			<rect class="PF00550" x="1705" y="18" stroke-linejoin="round" width="6" height="26" fill="rgb(103,191,88)" stroke="rgb(82,152,70)" stroke-width="1" opacity="0.75" />
		</g>
		<g>
			<title>PF00668</title>
			<rect class="PF00668" x="1717" y="18" stroke-linejoin="round" width="41" height="26" fill="rgb(224,184,98)" stroke="rgb(179,147,78)" stroke-width="1" opacity="0.75" />
		</g>
		<g>
			<title>PF00501</title>
			<rect class="PF00501" x="1761" y="18" stroke-linejoin="round" width="40" height="26" fill="rgb(60,217,223)" stroke="rgb(48,173,178)" stroke-width="1" opacity="0.75" />
		</g>
		<g>
			<title>PF00550</title>
			<rect class="PF00550" x="1816" y="18" stroke-linejoin="round" width="6" height="26" fill="rgb(103,191,88)" stroke="rgb(82,152,70)" stroke-width="1" opacity="0.75" />
		</g>
		<g>
			<title>PF00668</title>
			<rect class="PF00668" x="1826" y="18" stroke-linejoin="round" width="42" height="26" fill="rgb(224,184,98)" stroke="rgb(179,147,78)" stroke-width="1" opacity="0.75" />
		</g>
		<g>
			<title>PF00501</title>
			<rect class="PF00501" x="1871" y="18" stroke-linejoin="round" width="40" height="26" fill="rgb(60,217,223)" stroke="rgb(48,173,178)" stroke-width="1" opacity="0.75" />
		</g>
		<g>
			<title>PF00550</title>
			<rect class="PF00550" x="1926" y="18" stroke-linejoin="round" width="6" height="26" fill="rgb(103,191,88)" stroke="rgb(82,152,70)" stroke-width="1" opacity="0.75" />
		</g>
		<g>
			<title>PF00668</title>
			<rect class="PF00668" x="1938" y="18" stroke-linejoin="round" width="42" height="26" fill="rgb(224,184,98)" stroke="rgb(179,147,78)" stroke-width="1" opacity="0.75" />
		</g>
		<g>
			<title>PF00501</title>
			<rect class="PF00501" x="1982" y="18" stroke-linejoin="round" width="39" height="26" fill="rgb(60,217,223)" stroke="rgb(48,173,178)" stroke-width="1" opacity="0.75" />
		</g>
		<g>
			<title>PF00550</title>
			<rect class="PF00550" x="2035" y="18" stroke-linejoin="round" width="6" height="26" fill="rgb(103,191,88)" stroke="rgb(82,152,70)" stroke-width="1" opacity="0.75" />
		</g>
		<g>
			<title>PF00668</title>
			<rect class="PF00668" x="2047" y="18" stroke-linejoin="round" width="42" height="26" fill="rgb(224,184,98)" stroke="rgb(179,147,78)" stroke-width="1" opacity="0.75" />
		</g>
	</g>
	<g>
		<title>ecdG</title>
		<polygon class="ecdG" points="2113,16 2121,16 2121,1 2151,31 2121,61 2121,46 2113,46" fill="rgb(213,179,254)" fill-opacity="1.0" stroke="rgb(85,71,101)" stroke-width="1" />
		<g>
			<title>PF03171</title>
			<polygon class="PF03171" points="2129,18 2135,18 2139,22 2139,40 2135,44 2129,44" stroke-linejoin="round" width="10" height="26" fill="rgb(184,68,180)" stroke="rgb(147,54,144)" stroke-width="1" opacity="0.75" />
		</g>
	</g>
	<g>
		<title>ecdH</title>
		<polygon class="ecdH" points="2165,16 2187,16 2187,1 2217,31 2187,61 2187,46 2165,46" fill="rgb(223,250,205)" fill-opacity="1.0" stroke="rgb(89,100,82)" stroke-width="1" />
		<g>
			<title>PF00067</title>
			<polygon class="PF00067" points="2178,18 2201,18 2214,31 2214,31 2201,44 2178,44" stroke-linejoin="round" width="36" height="26" fill="rgb(85,216,107)" stroke="rgb(68,172,85)" stroke-width="1" opacity="0.75" />
		</g>
	</g>
	<g>
		<title>ecdI</title>
		<polygon class="ecdI" points="2283,16 2249,16 2249,1 2219,31 2249,61 2249,46 2283,46" fill="rgb(179,250,210)" fill-opacity="1.0" stroke="rgb(71,100,84)" stroke-width="1" />
		<g>
			<title>PF13193</title>
			<polygon class="PF13193" points="2228,24 2234,18 2236,18 2236,44 2234,44 2228,37" stroke-linejoin="round" width="8" height="26" fill="rgb(182,50,118)" stroke="rgb(145,39,94)" stroke-width="1" opacity="0.75" />
		</g>
		<g>
			<title>PF00501</title>
			<rect class="PF00501" x="2237" y="18" stroke-linejoin="round" width="43" height="26" fill="rgb(60,217,223)" stroke="rgb(48,173,178)" stroke-width="1" opacity="0.75" />
		</g>
	</g>
	<g>
		<title>ecdJ</title>
		<polygon class="ecdJ" points="2334,16 2375,16 2375,1 2405,31 2375,61 2375,46 2334,46" fill="rgb(253,203,187)" fill-opacity="1.0" stroke="rgb(101,81,74)" stroke-width="1" />
	</g>
	<g>
		<title>ecdK</title>
		<polygon class="ecdK" points="2446,16 2439,16 2439,1 2409,31 2439,61 2439,46 2446,46" fill="rgb(193,200,254)" fill-opacity="1.0" stroke="rgb(77,80,101)" stroke-width="1" />
		<g>
			<title>PF03171</title>
			<polygon class="PF03171" points="2416,26 2424,18 2427,18 2427,44 2424,44 2416,35" stroke-linejoin="round" width="11" height="26" fill="rgb(184,68,180)" stroke="rgb(147,54,144)" stroke-width="1" opacity="0.75" />
		</g>
		<g>
			<title>PF14226</title>
			<rect class="PF14226" x="2433" y="18" stroke-linejoin="round" width="12" height="26" fill="rgb(122,206,79)" stroke="rgb(97,164,63)" stroke-width="1" opacity="0.75" />
		</g>
	</g>
	<g>
		<title>ecdL</title>
		<polygon class="ecdL" points="2455,16 2598,16 2598,1 2628,31 2598,61 2598,46 2455,46" fill="rgb(195,251,197)" fill-opacity="1.0" stroke="rgb(78,100,78)" stroke-width="1" />
		<g>
			<title>PF00005</title>
			<rect class="PF00005" x="2517" y="18" stroke-linejoin="round" width="13" height="26" fill="rgb(129,201,63)" stroke="rgb(103,160,50)" stroke-width="1" opacity="0.75" />
		</g>
		<g>
			<title>PF00664</title>
			<rect class="PF00664" x="2546" y="18" stroke-linejoin="round" width="26" height="26" fill="rgb(149,226,73)" stroke="rgb(119,180,58)" stroke-width="1" opacity="0.75" />
		</g>
		<g>
			<title>PF00005</title>
			<rect class="PF00005" x="2579" y="18" stroke-linejoin="round" width="14" height="26" fill="rgb(129,201,63)" stroke="rgb(103,160,50)" stroke-width="1" opacity="0.75" />
		</g>
	</g>
	<g>
		<polygon class="NoName" points="2964,16 2766,16 2766,1 2736,31 2766,61 2766,46 2964,46" fill="rgb(255,255,255)" fill-opacity="1.0" stroke="rgb(50,50,50)" stroke-width="1" />
		<g>
			<title>PF12757</title>
			<rect class="PF12757" x="2859" y="18" stroke-linejoin="round" width="14" height="26" fill="rgb(200,80,81)" stroke="rgb(160,64,64)" stroke-width="1" opacity="0.75" />
		</g>
		<g>
			<title>PF07690</title>
			<rect class="PF07690" x="2914" y="18" stroke-linejoin="round" width="42" height="26" fill="rgb(193,224,74)" stroke="rgb(154,179,59)" stroke-width="1" opacity="0.75" />
		</g>
	</g>
	<g>
		<polygon class="NoName" points="3089,16 3111,16 3111,1 3141,31 3111,61 3111,46 3089,46" fill="rgb(255,255,255)" fill-opacity="1.0" stroke="rgb(50,50,50)" stroke-width="1" />
		<g>
			<title>PF00432</title>
			<rect class="PF00432" x="3094" y="18" stroke-linejoin="round" width="5" height="26" fill="rgb(218,215,79)" stroke="rgb(174,172,63)" stroke-width="1" opacity="0.75" />
		</g>
		<g>
			<title>PF00432</title>
			<rect class="PF00432" x="3101" y="18" stroke-linejoin="round" width="4" height="26" fill="rgb(218,215,79)" stroke="rgb(174,172,63)" stroke-width="1" opacity="0.75" />
		</g>
		<g>
			<title>PF00432</title>
			<rect class="PF00432" x="3107" y="18" stroke-linejoin="round" width="2" height="26" fill="rgb(218,215,79)" stroke="rgb(174,172,63)" stroke-width="1" opacity="0.75" />
		</g>
		<g>
			<title>PF00432</title>
			<rect class="PF00432" x="3119" y="18" stroke-linejoin="round" width="2" height="26" fill="rgb(218,215,79)" stroke="rgb(174,172,63)" stroke-width="1" opacity="0.75" />
		</g>
	</g>
	<g>
		<polygon class="NoName" points="3187,16 3253,16 3253,1 3283,31 3253,61 3253,46 3187,46" fill="rgb(255,255,255)" fill-opacity="1.0" stroke="rgb(50,50,50)" stroke-width="1" />
		<g>
			<title>PF00069</title>
			<rect class="PF00069" x="3189" y="18" stroke-linejoin="round" width="24" height="26" fill="rgb(104,187,65)" stroke="rgb(83,149,51)" stroke-width="1" opacity="0.75" />
		</g>
	</g>
	<g>
		<polygon class="NoName" points="84,16 50,16 50,1 20,31 50,61 50,46 84,46" fill="rgb(255,255,255)" fill-opacity="1.0" stroke="rgb(50,50,50)" stroke-width="1" />
		<g>
			<title>PF00067</title>
			<polygon class="PF00067" points="35,18 35,18 81,18 81,44 35,44 35,43" stroke-linejoin="round" width="46" height="26" fill="rgb(85,216,107)" stroke="rgb(68,172,85)" stroke-width="1" opacity="0.75" />
		</g>
	</g>
	<g>
		<polygon class="NoName" points="3316,16 3337,16 3337,1 3367,31 3337,61 3337,46 3316,46" fill="rgb(255,255,255)" fill-opacity="1.0" stroke="rgb(50,50,50)" stroke-width="1" />
		<g>
			<title>PF08512</title>
			<rect class="PF08512" x="3342" y="18" stroke-linejoin="round" width="9" height="26" fill="rgb(187,66,119)" stroke="rgb(149,52,95)" stroke-width="1" opacity="0.75" />
		</g>
	</g>
	<g>
		<polygon class="NoName" points="3437,16 3458,16 3458,1 3488,31 3458,61 3458,46 3437,46" fill="rgb(255,255,255)" fill-opacity="1.0" stroke="rgb(50,50,50)" stroke-width="1" />
		<g>
			<title>PF00069</title>
			<rect class="PF00069" x="3438" y="18" stroke-linejoin="round" width="27" height="26" fill="rgb(104,187,65)" stroke="rgb(83,149,51)" stroke-width="1" opacity="0.75" />
		</g>
	</g>
	<g>
		<polygon class="NoName" points="3755,16 3761,16 3761,1 3791,31 3761,61 3761,46 3755,46" fill="rgb(255,255,255)" fill-opacity="1.0" stroke="rgb(50,50,50)" stroke-width="1" />
		<g>
			<title>PF00615</title>
			<rect class="PF00615" x="3761" y="18" stroke-linejoin="round" width="13" height="26" fill="rgb(87,127,190)" stroke="rgb(69,101,152)" stroke-width="1" opacity="0.75" />
		</g>
	</g>
	<g>
		<polygon class="NoName" points="3882,16 3845,16 3845,1 3815,31 3845,61 3845,46 3882,46" fill="rgb(255,255,255)" fill-opacity="1.0" stroke="rgb(50,50,50)" stroke-width="1" />
		<g>
			<title>PF04884</title>
			<rect class="PF04884" x="3853" y="18" stroke-linejoin="round" width="19" height="26" fill="rgb(215,101,170)" stroke="rgb(172,80,135)" stroke-width="1" opacity="0.75" />
		</g>
	</g>
	<g>
		<polygon class="NoName" points="23,78 39,78 39,63 69,93 39,123 39,108 23,108" fill="rgb(255,255,255)" fill-opacity="1.0" stroke="rgb(50,50,50)" stroke-width="1" />
		<g>
			<title>PF01321</title>
			<rect class="PF01321" x="25" y="80" stroke-linejoin="round" width="14" height="26" fill="rgb(125,184,70)" stroke="rgb(100,147,56)" stroke-width="1" opacity="0.75" />
		</g>
		<g>
			<title>PF00557</title>
			<polygon class="PF00557" points="40,80 53,80 61,88 61,98 53,106 40,106" stroke-linejoin="round" width="21" height="26" fill="rgb(217,177,88)" stroke="rgb(173,141,70)" stroke-width="1" opacity="0.75" />
		</g>
	</g>
	<g>
		<polygon class="NoName" points="136,78 186,78 186,63 216,93 186,123 186,108 136,108" fill="rgb(255,255,255)" fill-opacity="1.0" stroke="rgb(50,50,50)" stroke-width="1" />
		<g>
			<title>PF11951</title>
			<polygon class="PF11951" points="171,80 200,80 210,90 210,96 200,106 171,106" stroke-linejoin="round" width="39" height="26" fill="rgb(102,165,217)" stroke="rgb(81,132,173)" stroke-width="1" opacity="0.75" />
		</g>
	</g>
	<g>
		<polygon class="NoName" points="286,78 260,78 260,63 230,93 260,123 260,108 286,108" fill="rgb(255,255,255)" fill-opacity="1.0" stroke="rgb(50,50,50)" stroke-width="1" />
		<g>
			<title>PF00171</title>
			<polygon class="PF00171" points="237,88 245,80 283,80 283,106 245,106 237,97" stroke-linejoin="round" width="46" height="26" fill="rgb(105,213,139)" stroke="rgb(84,170,111)" stroke-width="1" opacity="0.75" />
		</g>
	</g>
	<g>
		<polygon class="NoName" points="322,78 364,78 364,63 394,93 364,123 364,108 322,108" fill="rgb(255,255,255)" fill-opacity="1.0" stroke="rgb(50,50,50)" stroke-width="1" />
		<g>
			<title>PF02727</title>
			<rect class="PF02727" x="322" y="80" stroke-linejoin="round" width="9" height="26" fill="rgb(97,214,141)" stroke="rgb(77,171,112)" stroke-width="1" opacity="0.75" />
		</g>
		<g>
			<title>PF01179</title>
			<polygon class="PF01179" points="346,80 378,80 387,89 387,97 378,106 346,106" stroke-linejoin="round" width="41" height="26" fill="rgb(197,95,110)" stroke="rgb(157,76,88)" stroke-width="1" opacity="0.75" />
		</g>
	</g>
	<g>
		<polygon class="NoName" points="596,78 456,78 456,63 426,93 456,123 456,108 596,108" fill="rgb(255,255,255)" fill-opacity="1.0" stroke="rgb(50,50,50)" stroke-width="1" />
		<g>
			<title>PF01048</title>
			<rect class="PF01048" x="443" y="80" stroke-linejoin="round" width="29" height="26" fill="rgb(75,186,148)" stroke="rgb(60,148,118)" stroke-width="1" opacity="0.75" />
		</g>
	</g>
	<g>
		<polygon class="NoName" points="639,78 646,78 646,63 676,93 646,123 646,108 639,108" fill="rgb(255,255,255)" fill-opacity="1.0" stroke="rgb(50,50,50)" stroke-width="1" />
		<g>
			<title>PF01636</title>
			<polygon class="PF01636" points="642,80 660,80 662,82 662,104 660,106 642,106" stroke-linejoin="round" width="20" height="26" fill="rgb(106,220,228)" stroke="rgb(84,176,182)" stroke-width="1" opacity="0.75" />
		</g>
	</g>
	<g>
		<polygon class="NoName" points="118,16 156,16 156,1 186,31 156,61 156,46 118,46" fill="rgb(255,255,255)" fill-opacity="1.0" stroke="rgb(50,50,50)" stroke-width="1" />
	</g>
	<g>
		<title>htyF</title>
		<polygon class="htyF" points="749,78 810,78 810,63 840,93 810,123 810,108 749,108" fill="rgb(250,251,209)" fill-opacity="1.0" stroke="rgb(100,100,83)" stroke-width="1" />
		<g>
			<title>PF00067</title>
			<rect class="PF00067" x="763" y="80" stroke-linejoin="round" width="37" height="26" fill="rgb(85,216,107)" stroke="rgb(68,172,85)" stroke-width="1" opacity="0.75" />
		</g>
	</g>
	<g>
		<title>htyE</title>
		<polygon class="htyE" points="856,78 862,78 862,63 892,93 862,123 862,108 856,108" fill="rgb(193,254,180)" fill-opacity="1.0" stroke="rgb(77,101,72)" stroke-width="1" />
		<g>
			<title>PF14226</title>
			<rect class="PF14226" x="856" y="80" stroke-linejoin="round" width="12" height="26" fill="rgb(122,206,79)" stroke="rgb(97,164,63)" stroke-width="1" opacity="0.75" />
		</g>
		<g>
			<title>PF03171</title>
			<polygon class="PF03171" points="873,80 876,80 884,88 884,98 876,106 873,106" stroke-linejoin="round" width="11" height="26" fill="rgb(184,68,180)" stroke="rgb(147,54,144)" stroke-width="1" opacity="0.75" />
		</g>
	</g>
	<g>
		<title>htyA</title>
		<polygon class="htyA" points="960,78 928,78 928,63 898,93 928,123 928,108 960,108" fill="rgb(181,250,206)" fill-opacity="1.0" stroke="rgb(72,100,82)" stroke-width="1" />
		<g>
			<title>PF00682</title>
			<rect class="PF00682" x="928" y="80" stroke-linejoin="round" width="28" height="26" fill="rgb(84,228,141)" stroke="rgb(67,182,112)" stroke-width="1" opacity="0.75" />
		</g>
	</g>
	<g>
		<title>htyB</title>
		<polygon class="htyB" points="1011,78 997,78 997,63 967,93 997,123 997,108 1011,108" fill="rgb(250,212,249)" fill-opacity="1.0" stroke="rgb(100,84,99)" stroke-width="1" />
		<g>
			<title>PF01063</title>
			<polygon class="PF01063" points="979,83 982,80 1004,80 1004,106 982,106 979,102" stroke-linejoin="round" width="25" height="26" fill="rgb(52,144,188)" stroke="rgb(41,115,150)" stroke-width="1" opacity="0.75" />
		</g>
	</g>
	<g>
		<title>htyC</title>
		<polygon class="htyC" points="1019,78 1037,78 1037,63 1067,93 1037,123 1037,108 1019,108" fill="rgb(236,253,214)" fill-opacity="1.0" stroke="rgb(94,101,85)" stroke-width="1" />
		<g>
			<title>PF00180</title>
			<polygon class="PF00180" points="1019,80 1051,80 1053,82 1053,104 1051,106 1019,106" stroke-linejoin="round" width="34" height="26" fill="rgb(109,54,206)" stroke="rgb(87,43,164)" stroke-width="1" opacity="0.75" />
		</g>
	</g>
	<g>
		<title>htyD</title>
		<polygon class="htyD" points="1073,78 1163,78 1163,63 1193,93 1163,123 1163,108 1073,108" fill="rgb(193,253,181)" fill-opacity="1.0" stroke="rgb(77,101,72)" stroke-width="1" />
		<g>
			<title>PF00330</title>
			<rect class="PF00330" x="1095" y="80" stroke-linejoin="round" width="35" height="26" fill="rgb(180,189,85)" stroke="rgb(144,151,68)" stroke-width="1" opacity="0.75" />
		</g>
		<g>
			<title>PF00694</title>
			<rect class="PF00694" x="1143" y="80" stroke-linejoin="round" width="7" height="26" fill="rgb(63,185,92)" stroke="rgb(50,148,73)" stroke-width="1" opacity="0.75" />
		</g>
	</g>
	<g>
		<polygon class="NoName" points="1370,78 1384,78 1384,63 1414,93 1384,123 1384,108 1370,108" fill="rgb(255,255,255)" fill-opacity="1.0" stroke="rgb(50,50,50)" stroke-width="1" />
		<g>
			<title>PF03188</title>
			<polygon class="PF03188" points="1388,80 1398,80 1400,82 1400,104 1398,106 1388,106" stroke-linejoin="round" width="12" height="26" fill="rgb(101,152,219)" stroke="rgb(80,121,175)" stroke-width="1" opacity="0.75" />
		</g>
	</g>
	<g>
		<polygon class="NoName" points="1462,78 1452,78 1452,63 1422,93 1452,123 1452,108 1462,108" fill="rgb(255,255,255)" fill-opacity="1.0" stroke="rgb(50,50,50)" stroke-width="1" />
	</g>
	<g>
		<polygon class="NoName" points="1565,78 1564,78 1564,63 1534,93 1564,123 1564,108 1565,108" fill="rgb(255,255,255)" fill-opacity="1.0" stroke="rgb(50,50,50)" stroke-width="1" />
	</g>
	<g>
		<polygon class="NoName" points="234,16 250,16 250,1 280,31 250,61 250,46 234,46" fill="rgb(255,255,255)" fill-opacity="1.0" stroke="rgb(50,50,50)" stroke-width="1" />
		<g>
			<title>PF00923</title>
			<polygon class="PF00923" points="237,18 264,18 267,21 267,41 264,44 237,44" stroke-linejoin="round" width="30" height="26" fill="rgb(208,111,74)" stroke="rgb(166,88,59)" stroke-width="1" opacity="0.75" />
		</g>
	</g>
	<g>
		<polygon class="NoName" points="298,16 313,16 313,1 343,31 313,61 313,46 298,46" fill="rgb(255,255,255)" fill-opacity="1.0" stroke="rgb(50,50,50)" stroke-width="1" />
		<g>
			<title>PF00657</title>
			<rect class="PF00657" x="301" y="18" stroke-linejoin="round" width="26" height="26" fill="rgb(151,210,92)" stroke="rgb(120,168,73)" stroke-width="1" opacity="0.75" />
		</g>
	</g>
	<g>
		<title>ecdB</title>
		<polygon class="ecdB" points="916,16 883,16 883,1 853,31 883,61 883,46 916,46" fill="rgb(192,253,178)" fill-opacity="1.0" stroke="rgb(76,101,71)" stroke-width="1" />
		<g>
			<title>PF00172</title>
			<rect class="PF00172" x="912" y="18" stroke-linejoin="round" width="3" height="26" fill="rgb(121,178,76)" stroke="rgb(96,142,60)" stroke-width="1" opacity="0.75" />
		</g>
	</g>
	<g>
		<title>ecdC</title>
		<polygon class="ecdC" points="948,16 985,16 985,1 1015,31 985,61 985,46 948,46" fill="rgb(253,214,225)" fill-opacity="1.0" stroke="rgb(101,85,90)" stroke-width="1" />
		<g>
			<title>PF00083</title>
			<rect class="PF00083" x="953" y="18" stroke-linejoin="round" width="46" height="26" fill="rgb(48,186,105)" stroke="rgb(38,148,84)" stroke-width="1" opacity="0.75" />
		</g>
	</g>
	<g>
		<title>ecdD</title>
		<polygon class="ecdD" points="1098,16 1067,16 1067,1 1037,31 1067,61 1067,46 1098,46" fill="rgb(199,202,252)" fill-opacity="1.0" stroke="rgb(79,80,100)" stroke-width="1" />
		<g>
			<title>PF00083</title>
			<polygon class="PF00083" points="1049,21 1052,18 1095,18 1095,44 1052,44 1049,40" stroke-linejoin="round" width="46" height="26" fill="rgb(48,186,105)" stroke="rgb(38,148,84)" stroke-width="1" opacity="0.75" />
		</g>
	</g>
	<g>
		<title>ecdE</title>
		<polygon class="ecdE" points="1210,16 1168,16 1168,1 1138,31 1168,61 1168,46 1210,46" fill="rgb(185,216,254)" fill-opacity="1.0" stroke="rgb(74,86,101)" stroke-width="1" />
		<g>
			<title>PF08244</title>
			<polygon class="PF08244" points="1144,27 1151,20 1151,41 1144,34" stroke-linejoin="round" width="7" height="26" fill="rgb(209,64,201)" stroke="rgb(167,51,160)" stroke-width="1" opacity="0.75" />
		</g>
		<g>
			<title>PF00251</title>
			<rect class="PF00251" x="1156" y="18" stroke-linejoin="round" width="11" height="26" fill="rgb(108,183,84)" stroke="rgb(86,146,67)" stroke-width="1" opacity="0.75" />
		</g>
		<g>
			<title>PF00251</title>
			<rect class="PF00251" x="1176" y="18" stroke-linejoin="round" width="30" height="26" fill="rgb(108,183,84)" stroke="rgb(86,146,67)" stroke-width="1" opacity="0.75" />
		</g>
	</g>
	<g>
		<title>ecdF</title>
		<polygon class="ecdF" points="1237,16 1272,16 1272,1 1302,31 1272,61 1272,46 1237,46" fill="rgb(254,251,213)" fill-opacity="1.0" stroke="rgb(101,100,85)" stroke-width="1" />
		<g>
			<title>PF00251</title>
			<rect class="PF00251" x="1239" y="18" stroke-linejoin="round" width="32" height="26" fill="rgb(108,183,84)" stroke="rgb(86,146,67)" stroke-width="1" opacity="0.75" />
		</g>
		<g>
			<title>PF08244</title>
			<rect class="PF08244" x="1276" y="18" stroke-linejoin="round" width="7" height="26" fill="rgb(209,64,201)" stroke="rgb(167,51,160)" stroke-width="1" opacity="0.75" />
		</g>
	</g>
</svg>
