<svg version="1.1" baseProfile="full" xmlns="http://www.w3.org/2000/svg" width="1416" height="62">
	<line x1="1" y1="31" x2="1415" y2="31" style="stroke:rgb(50,50,50); stroke-width:3 "/>
	<g>
		<title>clz10</title>
		<polygon class="clz10" points="745,16 745,16 745,1 753,31 745,61 745,46 745,46" fill="rgb(253,210,211)" fill-opacity="1.0" stroke="rgb(101,84,84)" stroke-width="1" />
		<g>
			<title>PF00550</title>
			<polygon class="PF00550" points="745,18 747,18 750,31 747,44 745,44" stroke-linejoin="round" width="7" height="26" fill="rgb(103,191,88)" stroke="rgb(82,152,70)" stroke-width="1" opacity="0.75" />
		</g>
	</g>
	<g>
		<title>clz11</title>
		<polygon class="clz11" points="753,16 765,16 765,1 795,31 765,61 765,46 753,46" fill="rgb(250,209,186)" fill-opacity="1.0" stroke="rgb(100,83,74)" stroke-width="1" />
		<g>
			<title>PF00109</title>
			<rect class="PF00109" x="754" y="18" stroke-linejoin="round" width="24" height="26" fill="rgb(112,116,228)" stroke="rgb(89,92,182)" stroke-width="1" opacity="0.75" />
		</g>
		<g>
			<title>PF02801</title>
			<polygon class="PF02801" points="779,18 779,18 790,29 790,33 779,44 779,44" stroke-linejoin="round" width="11" height="26" fill="rgb(215,78,102)" stroke="rgb(172,62,81)" stroke-width="1" opacity="0.75" />
		</g>
	</g>
	<g>
		<title>clz12</title>
		<polygon class="clz12" points="806,16 806,16 806,1 828,31 806,61 806,46 806,46" fill="rgb(246,179,254)" fill-opacity="1.0" stroke="rgb(98,71,101)" stroke-width="1" />
		<g>
			<title>PF00440</title>
			<rect class="PF00440" x="807" y="18" stroke-linejoin="round" width="4" height="26" fill="rgb(73,212,190)" stroke="rgb(58,169,152)" stroke-width="1" opacity="0.75" />
		</g>
	</g>
	<g>
		<title>clz13</title>
		<polygon class="clz13" points="843,16 843,16 843,1 864,31 843,61 843,46 843,46" fill="rgb(210,252,221)" fill-opacity="1.0" stroke="rgb(84,100,88)" stroke-width="1" />
		<g>
			<title>PF00196</title>
			<polygon class="PF00196" points="856,24 861,31 861,31 856,38" stroke-linejoin="round" width="5" height="26" fill="rgb(219,94,82)" stroke="rgb(175,75,65)" stroke-width="1" opacity="0.75" />
		</g>
	</g>
	<g>
		<title>clz14</title>
		<polygon class="clz14" points="916,16 898,16 898,1 868,31 898,61 898,46 916,46" fill="rgb(204,188,253)" fill-opacity="1.0" stroke="rgb(81,75,101)" stroke-width="1" />
		<g>
			<title>PF13193</title>
			<polygon class="PF13193" points="870,31 876,25 876,36" stroke-linejoin="round" width="7" height="26" fill="rgb(182,50,118)" stroke="rgb(145,39,94)" stroke-width="1" opacity="0.75" />
		</g>
		<g>
			<title>PF00501</title>
			<polygon class="PF00501" points="877,24 883,18 915,18 915,44 883,44 877,37" stroke-linejoin="round" width="38" height="26" fill="rgb(60,217,223)" stroke="rgb(48,173,178)" stroke-width="1" opacity="0.75" />
		</g>
	</g>
	<g>
		<title>clz15</title>
		<polygon class="clz15" points="955,16 947,16 947,1 917,31 947,61 947,46 955,46" fill="rgb(253,200,254)" fill-opacity="1.0" stroke="rgb(101,80,101)" stroke-width="1" />
		<g>
			<title>PF00441</title>
			<polygon class="PF00441" points="919,31 931,19 931,42" stroke-linejoin="round" width="14" height="26" fill="rgb(85,191,117)" stroke="rgb(68,152,93)" stroke-width="1" opacity="0.75" />
		</g>
		<g>
			<title>PF02770</title>
			<rect class="PF02770" x="933" y="18" stroke-linejoin="round" width="9" height="26" fill="rgb(225,186,97)" stroke="rgb(180,148,77)" stroke-width="1" opacity="0.75" />
		</g>
		<g>
			<title>PF02771</title>
			<rect class="PF02771" x="943" y="18" stroke-linejoin="round" width="10" height="26" fill="rgb(105,135,218)" stroke="rgb(84,108,174)" stroke-width="1" opacity="0.75" />
		</g>
	</g>
	<g>
		<title>clz16</title>
		<polygon class="clz16" points="975,16 989,16 989,1 1019,31 989,61 989,46 975,46" fill="rgb(188,253,254)" fill-opacity="1.0" stroke="rgb(75,101,101)" stroke-width="1" />
		<g>
			<title>PF00999</title>
			<polygon class="PF00999" points="976,18 1003,18 1015,30 1015,32 1003,44 976,44" stroke-linejoin="round" width="39" height="26" fill="rgb(229,67,191)" stroke="rgb(183,53,152)" stroke-width="1" opacity="0.75" />
		</g>
	</g>
	<g>
		<title>clz17</title>
		<polygon class="clz17" points="1020,16 1020,16 1020,1 1046,31 1020,61 1020,46 1020,46" fill="rgb(254,213,206)" fill-opacity="1.0" stroke="rgb(101,85,82)" stroke-width="1" />
		<g>
			<title>PF01648</title>
			<polygon class="PF01648" points="1031,18 1032,18 1038,25 1038,37 1032,44 1031,44" stroke-linejoin="round" width="7" height="26" fill="rgb(85,184,135)" stroke="rgb(68,147,108)" stroke-width="1" opacity="0.75" />
		</g>
	</g>
	<g>
		<title>clz18</title>
		<polygon class="clz18" points="1048,16 1048,16 1048,1 1057,31 1048,61 1048,46 1048,46" fill="rgb(198,254,215)" fill-opacity="1.0" stroke="rgb(79,101,85)" stroke-width="1" />
	</g>
	<g>
		<title>clz19</title>
		<polygon class="clz19" points="1068,16 1068,16 1068,1 1091,31 1068,61 1068,46 1068,46" fill="rgb(249,237,191)" fill-opacity="1.0" stroke="rgb(99,94,76)" stroke-width="1" />
		<g>
			<title>PF00440</title>
			<rect class="PF00440" x="1069" y="18" stroke-linejoin="round" width="4" height="26" fill="rgb(73,212,190)" stroke="rgb(58,169,152)" stroke-width="1" opacity="0.75" />
		</g>
	</g>
	<g>
		<title>clz1</title>
		<polygon class="clz1" points="53,16 32,16 32,1 2,31 32,61 32,46 53,46" fill="rgb(248,252,185)" fill-opacity="1.0" stroke="rgb(99,100,74)" stroke-width="1" />
		<g>
			<title>PF02782</title>
			<polygon class="PF02782" points="11,24 17,18 29,18 29,44 17,44 11,37" stroke-linejoin="round" width="18" height="26" fill="rgb(204,103,85)" stroke="rgb(163,82,68)" stroke-width="1" opacity="0.75" />
		</g>
		<g>
			<title>PF00370</title>
			<rect class="PF00370" x="30" y="18" stroke-linejoin="round" width="22" height="26" fill="rgb(83,186,105)" stroke="rgb(66,148,83)" stroke-width="1" opacity="0.75" />
		</g>
	</g>
	<g>
		<title>clz20</title>
		<polygon class="clz20" points="1091,16 1091,16 1091,1 1111,31 1091,61 1091,46 1091,46" fill="rgb(195,249,253)" fill-opacity="1.0" stroke="rgb(78,99,101)" stroke-width="1" />
		<g>
			<title>PF00440</title>
			<rect class="PF00440" x="1092" y="18" stroke-linejoin="round" width="4" height="26" fill="rgb(73,212,190)" stroke="rgb(58,169,152)" stroke-width="1" opacity="0.75" />
		</g>
	</g>
	<g>
		<title>clz21</title>
		<polygon class="clz21" points="1114,16 1114,16 1114,1 1138,31 1114,61 1114,46 1114,46" fill="rgb(186,236,254)" fill-opacity="1.0" stroke="rgb(74,94,101)" stroke-width="1" />
		<g>
			<title>PF00975</title>
			<polygon class="PF00975" points="1114,18 1125,18 1135,31 1125,44 1114,44" stroke-linejoin="round" width="22" height="26" fill="rgb(207,80,138)" stroke="rgb(165,63,110)" stroke-width="1" opacity="0.75" />
		</g>
	</g>
	<g>
		<title>clz22</title>
		<polygon class="clz22" points="1171,16 1171,16 1171,1 1142,31 1171,61 1171,46 1171,46" fill="rgb(204,216,254)" fill-opacity="1.0" stroke="rgb(81,86,101)" stroke-width="1" />
		<g>
			<title>PF00089</title>
			<polygon class="PF00089" points="1144,31 1157,18 1161,18 1161,44 1157,44" stroke-linejoin="round" width="19" height="26" fill="rgb(207,127,78)" stroke="rgb(165,101,62)" stroke-width="1" opacity="0.75" />
		</g>
	</g>
	<g>
		<title>clz23</title>
		<polygon class="clz23" points="1225,16 1205,16 1205,1 1175,31 1205,61 1205,46 1225,46" fill="rgb(230,254,193)" fill-opacity="1.0" stroke="rgb(92,101,77)" stroke-width="1" />
		<g>
			<title>PF07690</title>
			<polygon class="PF07690" points="1182,26 1190,18 1221,18 1221,44 1190,44 1182,35" stroke-linejoin="round" width="39" height="26" fill="rgb(193,224,74)" stroke="rgb(154,179,59)" stroke-width="1" opacity="0.75" />
		</g>
	</g>
	<g>
		<title>clz24</title>
		<polygon class="clz24" points="1247,16 1247,16 1247,1 1228,31 1247,61 1247,46 1247,46" fill="rgb(206,194,250)" fill-opacity="1.0" stroke="rgb(82,77,100)" stroke-width="1" />
		<g>
			<title>PF03358</title>
			<polygon class="PF03358" points="1232,28 1238,18 1246,18 1246,44 1238,44 1232,33" stroke-linejoin="round" width="14" height="26" fill="rgb(90,228,61)" stroke="rgb(72,182,48)" stroke-width="1" opacity="0.75" />
		</g>
	</g>
	<g>
		<title>clz25</title>
		<polygon class="clz25" points="1253,16 1253,16 1253,1 1277,31 1253,61 1253,46 1253,46" fill="rgb(253,187,233)" fill-opacity="1.0" stroke="rgb(101,74,93)" stroke-width="1" />
		<g>
			<title>PF00440</title>
			<rect class="PF00440" x="1256" y="18" stroke-linejoin="round" width="4" height="26" fill="rgb(73,212,190)" stroke="rgb(58,169,152)" stroke-width="1" opacity="0.75" />
		</g>
		<g>
			<title>PF02909</title>
			<polygon class="PF02909" points="1262,18 1264,18 1274,31 1264,44 1262,44" stroke-linejoin="round" width="15" height="26" fill="rgb(151,203,75)" stroke="rgb(120,162,60)" stroke-width="1" opacity="0.75" />
		</g>
	</g>
	<g>
		<title>clz26</title>
		<polygon class="clz26" points="1280,16 1280,16 1280,1 1295,31 1280,61 1280,46 1280,46" fill="rgb(199,213,252)" fill-opacity="1.0" stroke="rgb(79,85,100)" stroke-width="1" />
	</g>
	<g>
		<title>clz2</title>
		<polygon class="clz2" points="78,16 78,16 78,1 59,31 78,61 78,46 78,46" fill="rgb(184,250,189)" fill-opacity="1.0" stroke="rgb(73,100,75)" stroke-width="1" />
	</g>
	<g>
		<title>clz3</title>
		<polygon class="clz3" points="79,16 79,16 79,1 105,31 79,61 79,46 79,46" fill="rgb(251,222,211)" fill-opacity="1.0" stroke="rgb(100,88,84)" stroke-width="1" />
		<g>
			<title>PF13561</title>
			<polygon class="PF13561" points="80,18 91,18 102,31 91,44 80,44" stroke-linejoin="round" width="24" height="26" fill="rgb(73,205,127)" stroke="rgb(58,164,101)" stroke-width="1" opacity="0.75" />
		</g>
	</g>
	<g>
		<title>clz4</title>
		<polygon class="clz4" points="111,16 120,16 120,1 150,31 120,61 120,46 111,46" fill="rgb(210,215,253)" fill-opacity="1.0" stroke="rgb(84,86,101)" stroke-width="1" />
	</g>
	<g>
		<title>clz5</title>
		<polygon class="clz5" points="150,16 164,16 164,1 194,31 164,61 164,46 150,46" fill="rgb(215,251,190)" fill-opacity="1.0" stroke="rgb(86,100,76)" stroke-width="1" />
		<g>
			<title>PF04820</title>
			<polygon class="PF04820" points="157,18 178,18 189,29 189,33 178,44 157,44" stroke-linejoin="round" width="32" height="26" fill="rgb(179,74,194)" stroke="rgb(143,59,155)" stroke-width="1" opacity="0.75" />
		</g>
	</g>
	<g>
		<title>clz6</title>
		<polygon class="clz6" points="197,16 463,16 463,1 493,31 463,61 463,46 197,46" fill="rgb(213,207,250)" fill-opacity="1.0" stroke="rgb(85,82,100)" stroke-width="1" />
		<g>
			<title>PF00109</title>
			<rect class="PF00109" x="198" y="18" stroke-linejoin="round" width="25" height="26" fill="rgb(112,116,228)" stroke="rgb(89,92,182)" stroke-width="1" opacity="0.75" />
		</g>
		<g>
			<title>PF02801</title>
			<rect class="PF02801" x="224" y="18" stroke-linejoin="round" width="11" height="26" fill="rgb(215,78,102)" stroke="rgb(172,62,81)" stroke-width="1" opacity="0.75" />
		</g>
		<g>
			<title>PF16197</title>
			<rect class="PF16197" x="236" y="18" stroke-linejoin="round" width="11" height="26" fill="rgb(68,179,89)" stroke="rgb(54,143,71)" stroke-width="1" opacity="0.75" />
		</g>
		<g>
			<title>PF00698</title>
			<rect class="PF00698" x="252" y="18" stroke-linejoin="round" width="31" height="26" fill="rgb(59,176,209)" stroke="rgb(47,140,167)" stroke-width="1" opacity="0.75" />
		</g>
		<g>
			<title>PF00550</title>
			<rect class="PF00550" x="297" y="18" stroke-linejoin="round" width="6" height="26" fill="rgb(103,191,88)" stroke="rgb(82,152,70)" stroke-width="1" opacity="0.75" />
		</g>
		<g>
			<title>PF00109</title>
			<rect class="PF00109" x="307" y="18" stroke-linejoin="round" width="23" height="26" fill="rgb(112,116,228)" stroke="rgb(89,92,182)" stroke-width="1" opacity="0.75" />
		</g>
		<g>
			<title>PF02801</title>
			<rect class="PF02801" x="331" y="18" stroke-linejoin="round" width="11" height="26" fill="rgb(215,78,102)" stroke="rgb(172,62,81)" stroke-width="1" opacity="0.75" />
		</g>
		<g>
			<title>PF16197</title>
			<rect class="PF16197" x="343" y="18" stroke-linejoin="round" width="11" height="26" fill="rgb(68,179,89)" stroke="rgb(54,143,71)" stroke-width="1" opacity="0.75" />
		</g>
		<g>
			<title>PF00698</title>
			<rect class="PF00698" x="361" y="18" stroke-linejoin="round" width="31" height="26" fill="rgb(59,176,209)" stroke="rgb(47,140,167)" stroke-width="1" opacity="0.75" />
		</g>
		<g>
			<title>PF14765</title>
			<rect class="PF14765" x="397" y="18" stroke-linejoin="round" width="28" height="26" fill="rgb(173,56,182)" stroke="rgb(138,44,145)" stroke-width="1" opacity="0.75" />
		</g>
		<g>
			<title>PF08659</title>
			<rect class="PF08659" x="452" y="18" stroke-linejoin="round" width="18" height="26" fill="rgb(66,209,188)" stroke="rgb(52,167,150)" stroke-width="1" opacity="0.75" />
		</g>
		<g>
			<title>PF00550</title>
			<polygon class="PF00550" points="480,21 486,27 486,35 480,41" stroke-linejoin="round" width="6" height="26" fill="rgb(103,191,88)" stroke="rgb(82,152,70)" stroke-width="1" opacity="0.75" />
		</g>
	</g>
	<g>
		<title>clz7</title>
		<polygon class="clz7" points="493,16 606,16 606,1 636,31 606,61 606,46 493,46" fill="rgb(223,207,252)" fill-opacity="1.0" stroke="rgb(89,82,100)" stroke-width="1" />
		<g>
			<title>PF00109</title>
			<rect class="PF00109" x="496" y="18" stroke-linejoin="round" width="25" height="26" fill="rgb(112,116,228)" stroke="rgb(89,92,182)" stroke-width="1" opacity="0.75" />
		</g>
		<g>
			<title>PF02801</title>
			<rect class="PF02801" x="522" y="18" stroke-linejoin="round" width="11" height="26" fill="rgb(215,78,102)" stroke="rgb(172,62,81)" stroke-width="1" opacity="0.75" />
		</g>
		<g>
			<title>PF16197</title>
			<rect class="PF16197" x="534" y="18" stroke-linejoin="round" width="11" height="26" fill="rgb(68,179,89)" stroke="rgb(54,143,71)" stroke-width="1" opacity="0.75" />
		</g>
		<g>
			<title>PF00698</title>
			<rect class="PF00698" x="549" y="18" stroke-linejoin="round" width="32" height="26" fill="rgb(59,176,209)" stroke="rgb(47,140,167)" stroke-width="1" opacity="0.75" />
		</g>
		<g>
			<title>PF00550</title>
			<rect class="PF00550" x="589" y="18" stroke-linejoin="round" width="6" height="26" fill="rgb(103,191,88)" stroke="rgb(82,152,70)" stroke-width="1" opacity="0.75" />
		</g>
		<g>
			<title>PF07993</title>
			<polygon class="PF07993" points="601,18 620,18 624,22 624,40 620,44 601,44" stroke-linejoin="round" width="23" height="26" fill="rgb(100,212,204)" stroke="rgb(80,169,163)" stroke-width="1" opacity="0.75" />
		</g>
	</g>
	<g>
		<title>clz8</title>
		<polygon class="clz8" points="636,16 660,16 660,1 690,31 660,61 660,46 636,46" fill="rgb(254,250,189)" fill-opacity="1.0" stroke="rgb(101,100,75)" stroke-width="1" />
	</g>
	<g>
		<title>clz9</title>
		<polygon class="clz9" points="691,16 711,16 711,1 741,31 711,61 711,46 691,46" fill="rgb(208,253,237)" fill-opacity="1.0" stroke="rgb(83,101,94)" stroke-width="1" />
		<g>
			<title>PF01565</title>
			<rect class="PF01565" x="697" y="18" stroke-linejoin="round" width="13" height="26" fill="rgb(226,88,136)" stroke="rgb(180,70,108)" stroke-width="1" opacity="0.75" />
		</g>
		<g>
			<title>PF08031</title>
			<polygon class="PF08031" points="734,27 738,31 738,31 734,35" stroke-linejoin="round" width="4" height="26" fill="rgb(210,73,83)" stroke="rgb(168,58,66)" stroke-width="1" opacity="0.75" />
		</g>
	</g>
</svg>
