<svg version="1.1" baseProfile="full" xmlns="http://www.w3.org/2000/svg" width="273" height="62">
	<line x1="1" y1="31" x2="272" y2="31" style="stroke:rgb(50,50,50); stroke-width:3 "/>
	<g>
		<title>thnI</title>
		<polygon class="thnI" points="262,16 262,16 262,1 271,31 262,61 262,46 262,46" fill="rgb(243,208,254)" fill-opacity="1.0" stroke="rgb(97,83,101)" stroke-width="1" />
	</g>
	<g>
		<title>thnP</title>
		<polygon class="thnP" points="47,16 31,16 31,1 1,31 31,61 31,46 47,46" fill="rgb(206,235,252)" fill-opacity="1.0" stroke="rgb(82,93,100)" stroke-width="1" />
		<g>
			<title>PF00082</title>
			<polygon class="PF00082" points="3,31 16,18 33,18 33,44 16,44" stroke-linejoin="round" width="31" height="26" fill="rgb(193,159,94)" stroke="rgb(154,127,75)" stroke-width="1" opacity="0.75" />
		</g>
	</g>
	<g>
		<title>thnE</title>
		<polygon class="thnE" points="75,16 75,16 75,1 54,31 75,61 75,46 75,46" fill="rgb(198,240,250)" fill-opacity="1.0" stroke="rgb(79,96,100)" stroke-width="1" />
		<g>
			<title>PF13346</title>
			<polygon class="PF13346" points="56,31 65,18 74,18 74,44 65,44" stroke-linejoin="round" width="20" height="26" fill="rgb(176,207,85)" stroke="rgb(140,165,67)" stroke-width="1" opacity="0.75" />
		</g>
	</g>
	<g>
		<title>thnD</title>
		<polygon class="thnD" points="104,16 104,16 104,1 76,31 104,61 104,46 104,46" fill="rgb(251,208,232)" fill-opacity="1.0" stroke="rgb(100,83,92)" stroke-width="1" />
		<g>
			<title>PF00005</title>
			<polygon class="PF00005" points="89,20 90,18 102,18 102,44 90,44 89,41" stroke-linejoin="round" width="13" height="26" fill="rgb(129,201,63)" stroke="rgb(103,160,50)" stroke-width="1" opacity="0.75" />
		</g>
	</g>
	<g>
		<title>thnR</title>
		<polygon class="thnR" points="116,16 116,16 116,1 104,31 116,61 116,46 116,46" fill="rgb(194,212,254)" fill-opacity="1.0" stroke="rgb(77,84,101)" stroke-width="1" />
		<g>
			<title>PF00392</title>
			<polygon class="PF00392" points="109,23 111,18 115,18 115,44 111,44 109,38" stroke-linejoin="round" width="6" height="26" fill="rgb(160,85,194)" stroke="rgb(127,68,155)" stroke-width="1" opacity="0.75" />
		</g>
	</g>
	<g>
		<title>thnA1</title>
		<polygon class="thnA1" points="128,16 128,16 128,1 132,31 128,61 128,46 128,46" fill="rgb(216,254,181)" fill-opacity="1.0" stroke="rgb(86,101,72)" stroke-width="1" />
	</g>
	<g>
		<title>thnA2</title>
		<polygon class="thnA2" points="136,16 136,16 136,1 140,31 136,61 136,46 136,46" fill="rgb(227,250,185)" fill-opacity="1.0" stroke="rgb(90,100,73)" stroke-width="1" />
	</g>
	<g>
		<title>thnA3</title>
		<polygon class="thnA3" points="143,16 143,16 143,1 147,31 143,61 143,46 143,46" fill="rgb(251,209,240)" fill-opacity="1.0" stroke="rgb(100,83,96)" stroke-width="1" />
	</g>
	<g>
		<title>thnB</title>
		<polygon class="thnB" points="153,16 169,16 169,1 199,31 169,61 169,46 153,46" fill="rgb(223,251,186)" fill-opacity="1.0" stroke="rgb(89,100,74)" stroke-width="1" />
		<g>
			<title>PF05402</title>
			<rect class="PF05402" x="155" y="18" stroke-linejoin="round" width="7" height="26" fill="rgb(124,62,188)" stroke="rgb(99,49,150)" stroke-width="1" opacity="0.75" />
		</g>
		<g>
			<title>PF04055</title>
			<rect class="PF04055" x="165" y="18" stroke-linejoin="round" width="15" height="26" fill="rgb(149,56,222)" stroke="rgb(119,44,177)" stroke-width="1" opacity="0.75" />
		</g>
		<g>
			<title>PF13186</title>
			<polygon class="PF13186" points="187,22 194,29 194,33 187,40" stroke-linejoin="round" width="7" height="26" fill="rgb(183,66,65)" stroke="rgb(146,52,51)" stroke-width="1" opacity="0.75" />
		</g>
	</g>
	<g>
		<title>thnT</title>
		<polygon class="thnT" points="204,16 231,16 231,1 261,31 231,61 231,46 204,46" fill="rgb(176,230,251)" fill-opacity="1.0" stroke="rgb(70,92,100)" stroke-width="1" />
		<g>
			<title>PF00664</title>
			<rect class="PF00664" x="207" y="18" stroke-linejoin="round" width="27" height="26" fill="rgb(149,226,73)" stroke="rgb(119,180,58)" stroke-width="1" opacity="0.75" />
		</g>
		<g>
			<title>PF00005</title>
			<polygon class="PF00005" points="240,18 245,18 254,27 254,35 245,44 240,44" stroke-linejoin="round" width="14" height="26" fill="rgb(129,201,63)" stroke="rgb(103,160,50)" stroke-width="1" opacity="0.75" />
		</g>
	</g>
</svg>
