<svg version="1.1" baseProfile="full" xmlns="http://www.w3.org/2000/svg" width="1215" height="62">
	<line x1="1" y1="31" x2="1214" y2="31" style="stroke:rgb(50,50,50); stroke-width:3 "/>
	<g>
		<title>vioJ</title>
		<polygon class="vioJ" points="687,16 696,16 696,1 726,31 696,61 696,46 687,46" fill="rgb(189,237,251)" fill-opacity="1.0" stroke="rgb(75,94,100)" stroke-width="1" />
		<g>
			<title>PF02771</title>
			<rect class="PF02771" x="687" y="18" stroke-linejoin="round" width="11" height="26" fill="rgb(105,135,218)" stroke="rgb(84,108,174)" stroke-width="1" opacity="0.75" />
		</g>
		<g>
			<title>PF02770</title>
			<rect class="PF02770" x="699" y="18" stroke-linejoin="round" width="10" height="26" fill="rgb(225,186,97)" stroke="rgb(180,148,77)" stroke-width="1" opacity="0.75" />
		</g>
		<g>
			<title>PF00441</title>
			<polygon class="PF00441" points="710,18 710,18 723,31 710,44 710,44" stroke-linejoin="round" width="14" height="26" fill="rgb(85,191,117)" stroke="rgb(68,152,93)" stroke-width="1" opacity="0.75" />
		</g>
	</g>
	<g>
		<title>vioK</title>
		<polygon class="vioK" points="728,16 734,16 734,1 764,31 734,61 734,46 728,46" fill="rgb(251,189,209)" fill-opacity="1.0" stroke="rgb(100,75,83)" stroke-width="1" />
		<g>
			<title>PF02423</title>
			<polygon class="PF02423" points="729,18 748,18 761,31 748,44 729,44" stroke-linejoin="round" width="33" height="26" fill="rgb(221,120,93)" stroke="rgb(176,96,74)" stroke-width="1" opacity="0.75" />
		</g>
	</g>
	<g>
		<title>vioL</title>
		<polygon class="vioL" points="764,16 764,16 764,1 794,31 764,61 764,46 764,46" fill="rgb(184,220,252)" fill-opacity="1.0" stroke="rgb(73,88,100)" stroke-width="1" />
		<g>
			<title>PF02729</title>
			<rect class="PF02729" x="764" y="18" stroke-linejoin="round" width="13" height="26" fill="rgb(223,74,58)" stroke="rgb(178,59,46)" stroke-width="1" opacity="0.75" />
		</g>
		<g>
			<title>PF00185</title>
			<polygon class="PF00185" points="779,19 791,31 779,43" stroke-linejoin="round" width="15" height="26" fill="rgb(215,107,106)" stroke="rgb(172,85,84)" stroke-width="1" opacity="0.75" />
		</g>
	</g>
	<g>
		<title>vioM</title>
		<polygon class="vioM" points="795,16 810,16 810,1 840,31 810,61 810,46 795,46" fill="rgb(249,226,211)" fill-opacity="1.0" stroke="rgb(99,90,84)" stroke-width="1" />
		<g>
			<title>PF00668</title>
			<polygon class="PF00668" points="795,18 824,18 837,31 837,31 824,44 795,44" stroke-linejoin="round" width="42" height="26" fill="rgb(224,184,98)" stroke="rgb(179,147,78)" stroke-width="1" opacity="0.75" />
		</g>
	</g>
	<g>
		<title>vioN</title>
		<polygon class="vioN" points="840,16 840,16 840,1 846,31 840,61 840,46 840,46" fill="rgb(254,202,198)" fill-opacity="1.0" stroke="rgb(101,80,79)" stroke-width="1" />
		<g>
			<title>PF03621</title>
			<polygon class="PF03621" points="840,18 840,18 843,31 840,44 840,44" stroke-linejoin="round" width="4" height="26" fill="rgb(212,165,97)" stroke="rgb(169,132,77)" stroke-width="1" opacity="0.75" />
		</g>
	</g>
	<g>
		<title>vioO</title>
		<polygon class="vioO" points="847,16 878,16 878,1 908,31 878,61 878,46 847,46" fill="rgb(253,205,198)" fill-opacity="1.0" stroke="rgb(101,82,79)" stroke-width="1" />
		<g>
			<title>PF00501</title>
			<rect class="PF00501" x="848" y="18" stroke-linejoin="round" width="40" height="26" fill="rgb(60,217,223)" stroke="rgb(48,173,178)" stroke-width="1" opacity="0.75" />
		</g>
		<g>
			<title>PF13193</title>
			<polygon class="PF13193" points="889,18 892,18 896,22 896,40 892,44 889,44" stroke-linejoin="round" width="7" height="26" fill="rgb(182,50,118)" stroke="rgb(145,39,94)" stroke-width="1" opacity="0.75" />
		</g>
		<g>
			<title>PF00550</title>
			<polygon class="PF00550" points="900,26 905,31 900,36" stroke-linejoin="round" width="6" height="26" fill="rgb(103,191,88)" stroke="rgb(82,152,70)" stroke-width="1" opacity="0.75" />
		</g>
	</g>
	<g>
		<title>vioP</title>
		<polygon class="vioP" points="911,16 925,16 925,1 955,31 925,61 925,46 911,46" fill="rgb(250,183,213)" fill-opacity="1.0" stroke="rgb(100,73,85)" stroke-width="1" />
	</g>
	<g>
		<title>vph</title>
		<polygon class="vph" points="985,16 985,16 985,1 956,31 985,61 985,46 985,46" fill="rgb(197,253,235)" fill-opacity="1.0" stroke="rgb(78,101,94)" stroke-width="1" />
		<g>
			<title>PF01636</title>
			<polygon class="PF01636" points="958,31 971,18 981,18 981,44 971,44" stroke-linejoin="round" width="23" height="26" fill="rgb(106,220,228)" stroke="rgb(84,176,182)" stroke-width="1" opacity="0.75" />
		</g>
	</g>
	<g>
		<title>vioQ</title>
		<polygon class="vioQ" points="987,16 991,16 991,1 1021,31 991,61 991,46 987,46" fill="rgb(176,250,191)" fill-opacity="1.0" stroke="rgb(70,100,76)" stroke-width="1" />
		<g>
			<title>PF00355</title>
			<rect class="PF00355" x="989" y="18" stroke-linejoin="round" width="9" height="26" fill="rgb(186,77,145)" stroke="rgb(148,61,115)" stroke-width="1" opacity="0.75" />
		</g>
	</g>
	<g>
		<title>vioR</title>
		<polygon class="vioR" points="1045,16 1045,16 1045,1 1022,31 1045,61 1045,46 1045,46" fill="rgb(246,188,250)" fill-opacity="1.0" stroke="rgb(98,75,100)" stroke-width="1" />
		<g>
			<title>PF00196</title>
			<polygon class="PF00196" points="1024,31 1028,26 1028,35" stroke-linejoin="round" width="5" height="26" fill="rgb(219,94,82)" stroke="rgb(175,75,65)" stroke-width="1" opacity="0.75" />
		</g>
		<g>
			<title>PF00072</title>
			<polygon class="PF00072" points="1032,21 1034,18 1043,18 1043,44 1034,44 1032,40" stroke-linejoin="round" width="11" height="26" fill="rgb(100,107,203)" stroke="rgb(80,85,162)" stroke-width="1" opacity="0.75" />
		</g>
	</g>
	<g>
		<title>vioA</title>
		<polygon class="vioA" points="14,16 196,16 196,1 226,31 196,61 196,46 14,46" fill="rgb(226,185,253)" fill-opacity="1.0" stroke="rgb(90,74,101)" stroke-width="1" />
		<g>
			<title>PF00501</title>
			<rect class="PF00501" x="17" y="18" stroke-linejoin="round" width="40" height="26" fill="rgb(60,217,223)" stroke="rgb(48,173,178)" stroke-width="1" opacity="0.75" />
		</g>
		<g>
			<title>PF13193</title>
			<rect class="PF13193" x="58" y="18" stroke-linejoin="round" width="7" height="26" fill="rgb(182,50,118)" stroke="rgb(145,39,94)" stroke-width="1" opacity="0.75" />
		</g>
		<g>
			<title>PF00550</title>
			<rect class="PF00550" x="69" y="18" stroke-linejoin="round" width="6" height="26" fill="rgb(103,191,88)" stroke="rgb(82,152,70)" stroke-width="1" opacity="0.75" />
		</g>
		<g>
			<title>PF00668</title>
			<rect class="PF00668" x="76" y="18" stroke-linejoin="round" width="44" height="26" fill="rgb(224,184,98)" stroke="rgb(179,147,78)" stroke-width="1" opacity="0.75" />
		</g>
		<g>
			<title>PF00501</title>
			<rect class="PF00501" x="123" y="18" stroke-linejoin="round" width="40" height="26" fill="rgb(60,217,223)" stroke="rgb(48,173,178)" stroke-width="1" opacity="0.75" />
		</g>
		<g>
			<title>PF13193</title>
			<rect class="PF13193" x="164" y="18" stroke-linejoin="round" width="7" height="26" fill="rgb(182,50,118)" stroke="rgb(145,39,94)" stroke-width="1" opacity="0.75" />
		</g>
		<g>
			<title>PF00550</title>
			<rect class="PF00550" x="175" y="18" stroke-linejoin="round" width="6" height="26" fill="rgb(103,191,88)" stroke="rgb(82,152,70)" stroke-width="1" opacity="0.75" />
		</g>
		<g>
			<title>PF00668</title>
			<polygon class="PF00668" points="183,18 210,18 223,31 210,44 183,44" stroke-linejoin="round" width="42" height="26" fill="rgb(224,184,98)" stroke="rgb(179,147,78)" stroke-width="1" opacity="0.75" />
		</g>
	</g>
	<g>
		<title>vioS</title>
		<polygon class="vioS" points="1059,16 1074,16 1074,1 1104,31 1074,61 1074,46 1059,46" fill="rgb(250,208,192)" fill-opacity="1.0" stroke="rgb(100,83,76)" stroke-width="1" />
		<g>
			<title>PF00245</title>
			<polygon class="PF00245" points="1063,18 1088,18 1099,29 1099,33 1088,44 1063,44" stroke-linejoin="round" width="36" height="26" fill="rgb(172,203,66)" stroke="rgb(137,162,52)" stroke-width="1" opacity="0.75" />
		</g>
	</g>
	<g>
		<title>vioT</title>
		<polygon class="vioT" points="1210,16 1154,16 1154,1 1124,31 1154,61 1154,46 1210,46" fill="rgb(208,250,223)" fill-opacity="1.0" stroke="rgb(83,100,89)" stroke-width="1" />
		<g>
			<title>PF13432</title>
			<rect class="PF13432" x="1161" y="18" stroke-linejoin="round" width="5" height="26" fill="rgb(154,205,86)" stroke="rgb(123,164,68)" stroke-width="1" opacity="0.75" />
		</g>
		<g>
			<title>PF13191</title>
			<rect class="PF13191" x="1194" y="18" stroke-linejoin="round" width="15" height="26" fill="rgb(186,102,77)" stroke="rgb(148,81,61)" stroke-width="1" opacity="0.75" />
		</g>
	</g>
	<g>
		<title>vioB</title>
		<polygon class="vioB" points="233,16 237,16 237,1 267,31 237,61 237,46 233,46" fill="rgb(194,222,251)" fill-opacity="1.0" stroke="rgb(77,88,100)" stroke-width="1" />
		<g>
			<title>PF00291</title>
			<polygon class="PF00291" points="233,18 251,18 261,28 261,34 251,44 233,44" stroke-linejoin="round" width="28" height="26" fill="rgb(180,55,145)" stroke="rgb(144,44,116)" stroke-width="1" opacity="0.75" />
		</g>
	</g>
	<g>
		<title>vioC</title>
		<polygon class="vioC" points="268,16 273,16 273,1 303,31 273,61 273,46 268,46" fill="rgb(204,182,252)" fill-opacity="1.0" stroke="rgb(81,72,100)" stroke-width="1" />
		<g>
			<title>PF02668</title>
			<polygon class="PF02668" points="281,18 287,18 300,31 287,44 281,44" stroke-linejoin="round" width="20" height="26" fill="rgb(180,79,217)" stroke="rgb(144,63,173)" stroke-width="1" opacity="0.75" />
		</g>
	</g>
	<g>
		<title>vioD</title>
		<polygon class="vioD" points="304,16 313,16 313,1 343,31 313,61 313,46 304,46" fill="rgb(253,239,204)" fill-opacity="1.0" stroke="rgb(101,95,81)" stroke-width="1" />
		<g>
			<title>PF00155</title>
			<polygon class="PF00155" points="309,18 327,18 340,31 340,31 327,44 309,44" stroke-linejoin="round" width="31" height="26" fill="rgb(89,113,198)" stroke="rgb(71,90,158)" stroke-width="1" opacity="0.75" />
		</g>
	</g>
	<g>
		<title>vioE</title>
		<polygon class="vioE" points="342,16 356,16 356,1 386,31 356,61 356,46 342,46" fill="rgb(195,251,222)" fill-opacity="1.0" stroke="rgb(78,100,88)" stroke-width="1" />
		<g>
			<title>PF05977</title>
			<polygon class="PF05977" points="344,18 370,18 383,31 383,31 370,44 344,44" stroke-linejoin="round" width="39" height="26" fill="rgb(80,62,217)" stroke="rgb(64,49,173)" stroke-width="1" opacity="0.75" />
		</g>
	</g>
	<g>
		<title>vioF</title>
		<polygon class="vioF" points="387,16 464,16 464,1 494,31 464,61 464,46 387,46" fill="rgb(223,213,253)" fill-opacity="1.0" stroke="rgb(89,85,101)" stroke-width="1" />
		<g>
			<title>PF00501</title>
			<rect class="PF00501" x="391" y="18" stroke-linejoin="round" width="42" height="26" fill="rgb(60,217,223)" stroke="rgb(48,173,178)" stroke-width="1" opacity="0.75" />
		</g>
		<g>
			<title>PF13193</title>
			<rect class="PF13193" x="434" y="18" stroke-linejoin="round" width="7" height="26" fill="rgb(182,50,118)" stroke="rgb(145,39,94)" stroke-width="1" opacity="0.75" />
		</g>
		<g>
			<title>PF00550</title>
			<rect class="PF00550" x="444" y="18" stroke-linejoin="round" width="6" height="26" fill="rgb(103,191,88)" stroke="rgb(82,152,70)" stroke-width="1" opacity="0.75" />
		</g>
		<g>
			<title>PF00668</title>
			<polygon class="PF00668" points="452,18 478,18 487,27 487,35 478,44 452,44" stroke-linejoin="round" width="35" height="26" fill="rgb(224,184,98)" stroke="rgb(179,147,78)" stroke-width="1" opacity="0.75" />
		</g>
	</g>
	<g>
		<title>vioG</title>
		<polygon class="vioG" points="497,16 575,16 575,1 605,31 575,61 575,46 497,46" fill="rgb(254,220,206)" fill-opacity="1.0" stroke="rgb(101,88,82)" stroke-width="1" />
		<g>
			<title>PF00501</title>
			<rect class="PF00501" x="501" y="18" stroke-linejoin="round" width="41" height="26" fill="rgb(60,217,223)" stroke="rgb(48,173,178)" stroke-width="1" opacity="0.75" />
		</g>
		<g>
			<title>PF13193</title>
			<rect class="PF13193" x="544" y="18" stroke-linejoin="round" width="7" height="26" fill="rgb(182,50,118)" stroke="rgb(145,39,94)" stroke-width="1" opacity="0.75" />
		</g>
		<g>
			<title>PF00550</title>
			<rect class="PF00550" x="554" y="18" stroke-linejoin="round" width="6" height="26" fill="rgb(103,191,88)" stroke="rgb(82,152,70)" stroke-width="1" opacity="0.75" />
		</g>
		<g>
			<title>PF00668</title>
			<rect class="PF00668" x="566" y="18" stroke-linejoin="round" width="14" height="26" fill="rgb(224,184,98)" stroke="rgb(179,147,78)" stroke-width="1" opacity="0.75" />
		</g>
	</g>
	<g>
		<title>vioH</title>
		<polygon class="vioH" points="606,16 606,16 606,1 632,31 606,61 606,46 606,46" fill="rgb(251,197,201)" fill-opacity="1.0" stroke="rgb(100,78,80)" stroke-width="1" />
		<g>
			<title>PF00975</title>
			<polygon class="PF00975" points="608,18 618,18 629,31 618,44 608,44" stroke-linejoin="round" width="23" height="26" fill="rgb(207,80,138)" stroke="rgb(165,63,110)" stroke-width="1" opacity="0.75" />
		</g>
	</g>
	<g>
		<title>vioI</title>
		<polygon class="vioI" points="632,16 657,16 657,1 687,31 657,61 657,46 632,46" fill="rgb(252,187,202)" fill-opacity="1.0" stroke="rgb(100,74,80)" stroke-width="1" />
		<g>
			<title>PF00550</title>
			<rect class="PF00550" x="634" y="18" stroke-linejoin="round" width="6" height="26" fill="rgb(103,191,88)" stroke="rgb(82,152,70)" stroke-width="1" opacity="0.75" />
		</g>
		<g>
			<title>PF00668</title>
			<polygon class="PF00668" points="643,18 671,18 684,31 671,44 643,44" stroke-linejoin="round" width="43" height="26" fill="rgb(224,184,98)" stroke="rgb(179,147,78)" stroke-width="1" opacity="0.75" />
		</g>
	</g>
</svg>
