<svg version="1.1" baseProfile="full" xmlns="http://www.w3.org/2000/svg" width="4980" height="62">
	<line x1="1" y1="31" x2="4979" y2="31" style="stroke:rgb(50,50,50); stroke-width:3 "/>
	<g>
		<polygon class="NoName" points="3805,16 3841,16 3841,1 3871,31 3841,61 3841,46 3805,46" fill="rgb(255,255,255)" fill-opacity="1.0" stroke="rgb(50,50,50)" stroke-width="1" />
	</g>
	<g>
		<polygon class="NoName" points="4193,16 4389,16 4389,1 4419,31 4389,61 4389,46 4193,46" fill="rgb(255,255,255)" fill-opacity="1.0" stroke="rgb(50,50,50)" stroke-width="1" />
		<g>
			<title>PF01397</title>
			<rect class="PF01397" x="4214" y="18" stroke-linejoin="round" width="19" height="26" fill="rgb(74,159,219)" stroke="rgb(59,127,175)" stroke-width="1" opacity="0.75" />
		</g>
		<g>
			<title>PF03936</title>
			<rect class="PF03936" x="4238" y="18" stroke-linejoin="round" width="26" height="26" fill="rgb(219,91,215)" stroke="rgb(175,72,171)" stroke-width="1" opacity="0.75" />
		</g>
	</g>
	<g>
		<polygon class="NoName" points="4520,16 4464,16 4464,1 4434,31 4464,61 4464,46 4520,46" fill="rgb(255,255,255)" fill-opacity="1.0" stroke="rgb(50,50,50)" stroke-width="1" />
		<g>
			<title>PF01255</title>
			<rect class="PF01255" x="4488" y="18" stroke-linejoin="round" width="21" height="26" fill="rgb(129,224,60)" stroke="rgb(103,179,48)" stroke-width="1" opacity="0.75" />
		</g>
	</g>
	<g>
		<polygon class="NoName" points="4596,16 4815,16 4815,1 4845,31 4815,61 4815,46 4596,46" fill="rgb(255,255,255)" fill-opacity="1.0" stroke="rgb(50,50,50)" stroke-width="1" />
		<g>
			<title>PF01397</title>
			<rect class="PF01397" x="4616" y="18" stroke-linejoin="round" width="19" height="26" fill="rgb(74,159,219)" stroke="rgb(59,127,175)" stroke-width="1" opacity="0.75" />
		</g>
		<g>
			<title>PF03936</title>
			<rect class="PF03936" x="4640" y="18" stroke-linejoin="round" width="26" height="26" fill="rgb(219,91,215)" stroke="rgb(175,72,171)" stroke-width="1" opacity="0.75" />
		</g>
	</g>
	<g>
		<polygon class="NoName" points="4913,16 4949,16 4949,1 4979,31 4949,61 4949,46 4913,46" fill="rgb(255,255,255)" fill-opacity="1.0" stroke="rgb(50,50,50)" stroke-width="1" />
		<g>
			<title>PF00067</title>
			<rect class="PF00067" x="4916" y="18" stroke-linejoin="round" width="47" height="26" fill="rgb(85,216,107)" stroke="rgb(68,172,85)" stroke-width="1" opacity="0.75" />
		</g>
	</g>
	<g>
		<polygon class="NoName" points="382,16 145,16 145,1 115,31 145,61 145,46 382,46" fill="rgb(255,255,255)" fill-opacity="1.0" stroke="rgb(50,50,50)" stroke-width="1" />
		<g>
			<title>PF05199</title>
			<rect class="PF05199" x="309" y="18" stroke-linejoin="round" width="14" height="26" fill="rgb(186,52,106)" stroke="rgb(148,41,84)" stroke-width="1" opacity="0.75" />
		</g>
		<g>
			<title>PF00732</title>
			<rect class="PF00732" x="333" y="18" stroke-linejoin="round" width="26" height="26" fill="rgb(180,89,214)" stroke="rgb(143,71,171)" stroke-width="1" opacity="0.75" />
		</g>
	</g>
	<g>
		<polygon class="NoName" points="1387,16 1387,16 1387,1 1395,31 1387,61 1387,46 1387,46" fill="rgb(255,255,255)" fill-opacity="1.0" stroke="rgb(50,50,50)" stroke-width="1" />
	</g>
	<g>
		<polygon class="NoName" points="1753,16 1753,16 1753,1 1760,31 1753,61 1753,46 1753,46" fill="rgb(255,255,255)" fill-opacity="1.0" stroke="rgb(50,50,50)" stroke-width="1" />
	</g>
	<g>
		<polygon class="NoName" points="1984,16 1794,16 1794,1 1764,31 1794,61 1794,46 1984,46" fill="rgb(255,255,255)" fill-opacity="1.0" stroke="rgb(50,50,50)" stroke-width="1" />
		<g>
			<title>PF03936</title>
			<rect class="PF03936" x="1912" y="18" stroke-linejoin="round" width="26" height="26" fill="rgb(219,91,215)" stroke="rgb(175,72,171)" stroke-width="1" opacity="0.75" />
		</g>
		<g>
			<title>PF01397</title>
			<rect class="PF01397" x="1943" y="18" stroke-linejoin="round" width="19" height="26" fill="rgb(74,159,219)" stroke="rgb(59,127,175)" stroke-width="1" opacity="0.75" />
		</g>
	</g>
	<g>
		<polygon class="NoName" points="2146,16 2146,16 2146,1 2162,31 2146,61 2146,46 2146,46" fill="rgb(255,255,255)" fill-opacity="1.0" stroke="rgb(50,50,50)" stroke-width="1" />
	</g>
	<g>
		<polygon class="NoName" points="2764,16 2396,16 2396,1 2366,31 2396,61 2396,46 2764,46" fill="rgb(255,255,255)" fill-opacity="1.0" stroke="rgb(50,50,50)" stroke-width="1" />
	</g>
	<g>
		<polygon class="NoName" points="2896,16 2880,16 2880,1 2850,31 2880,61 2880,46 2896,46" fill="rgb(255,255,255)" fill-opacity="1.0" stroke="rgb(50,50,50)" stroke-width="1" />
	</g>
	<g>
		<polygon class="NoName" points="3014,16 3038,16 3038,1 3068,31 3038,61 3038,46 3014,46" fill="rgb(255,255,255)" fill-opacity="1.0" stroke="rgb(50,50,50)" stroke-width="1" />
	</g>
	<g>
		<polygon class="NoName" points="3532,16 3607,16 3607,1 3637,31 3607,61 3607,46 3532,46" fill="rgb(255,255,255)" fill-opacity="1.0" stroke="rgb(50,50,50)" stroke-width="1" />
		<g>
			<title>PF01255</title>
			<rect class="PF01255" x="3540" y="18" stroke-linejoin="round" width="21" height="26" fill="rgb(129,224,60)" stroke="rgb(103,179,48)" stroke-width="1" opacity="0.75" />
		</g>
	</g>
</svg>
