<svg version="1.1" baseProfile="full" xmlns="http://www.w3.org/2000/svg" width="1399" height="62">
	<line x1="1" y1="31" x2="1398" y2="31" style="stroke:rgb(50,50,50); stroke-width:3 "/>
	<g>
		<polygon class="NoName" points="1087,16 1087,16 1087,1 1093,31 1087,61 1087,46 1087,46" fill="rgb(255,255,255)" fill-opacity="1.0" stroke="rgb(50,50,50)" stroke-width="1" />
	</g>
	<g>
		<polygon class="NoName" points="1118,16 1118,16 1118,1 1092,31 1118,61 1118,46 1118,46" fill="rgb(255,255,255)" fill-opacity="1.0" stroke="rgb(50,50,50)" stroke-width="1" />
		<g>
			<title>PF11575</title>
			<polygon class="PF11575" points="1094,31 1096,29 1096,32" stroke-linejoin="round" width="2" height="26" fill="rgb(216,71,91)" stroke="rgb(172,56,72)" stroke-width="1" opacity="0.75" />
		</g>
		<g>
			<title>PF06276</title>
			<polygon class="PF06276" points="1097,28 1105,18 1111,18 1111,44 1105,44 1097,33" stroke-linejoin="round" width="14" height="26" fill="rgb(76,151,221)" stroke="rgb(60,120,176)" stroke-width="1" opacity="0.75" />
		</g>
	</g>
	<g>
		<title>ISRta4-p</title>
		<polygon class="ISRta4-p" points="1157,16 1157,16 1157,1 1133,31 1157,61 1157,46 1157,46" fill="rgb(251,203,240)" fill-opacity="1.0" stroke="rgb(100,81,96)" stroke-width="1" />
		<g>
			<title>PF02371</title>
			<polygon class="PF02371" points="1137,29 1145,19 1145,42 1137,32" stroke-linejoin="round" width="8" height="26" fill="rgb(104,204,65)" stroke="rgb(83,163,52)" stroke-width="1" opacity="0.75" />
		</g>
	</g>
	<g>
		<title>yojI</title>
		<polygon class="yojI" points="1175,16 1199,16 1199,1 1229,31 1199,61 1199,46 1175,46" fill="rgb(193,212,252)" fill-opacity="1.0" stroke="rgb(77,84,100)" stroke-width="1" />
		<g>
			<title>PF00005</title>
			<polygon class="PF00005" points="1209,18 1213,18 1222,27 1222,35 1213,44 1209,44" stroke-linejoin="round" width="13" height="26" fill="rgb(129,201,63)" stroke="rgb(103,160,50)" stroke-width="1" opacity="0.75" />
		</g>
	</g>
	<g>
		<polygon class="NoName" points="1229,16 1234,16 1234,1 1264,31 1234,61 1234,46 1229,46" fill="rgb(255,255,255)" fill-opacity="1.0" stroke="rgb(50,50,50)" stroke-width="1" />
		<g>
			<title>PF07859</title>
			<polygon class="PF07859" points="1238,18 1248,18 1258,28 1258,34 1248,44 1238,44" stroke-linejoin="round" width="20" height="26" fill="rgb(183,51,179)" stroke="rgb(146,40,143)" stroke-width="1" opacity="0.75" />
		</g>
	</g>
	<g>
		<title>iucB</title>
		<polygon class="iucB" points="1267,16 1273,16 1273,1 1303,31 1273,61 1273,46 1267,46" fill="rgb(251,185,243)" fill-opacity="1.0" stroke="rgb(100,74,97)" stroke-width="1" />
		<g>
			<title>PF13523</title>
			<polygon class="PF13523" points="1284,18 1287,18 1298,29 1298,33 1287,44 1284,44" stroke-linejoin="round" width="14" height="26" fill="rgb(106,224,203)" stroke="rgb(84,179,162)" stroke-width="1" opacity="0.75" />
		</g>
	</g>
	<g>
		<title>iucD</title>
		<polygon class="iucD" points="1303,16 1318,16 1318,1 1348,31 1318,61 1318,46 1303,46" fill="rgb(248,251,205)" fill-opacity="1.0" stroke="rgb(99,100,82)" stroke-width="1" />
		<g>
			<title>PF13434</title>
			<polygon class="PF13434" points="1303,18 1332,18 1338,24 1338,38 1332,44 1303,44" stroke-linejoin="round" width="35" height="26" fill="rgb(81,213,119)" stroke="rgb(64,170,95)" stroke-width="1" opacity="0.75" />
		</g>
	</g>
	<g>
		<polygon class="NoName" points="1373,16 1373,16 1373,1 1347,31 1373,61 1373,46 1373,46" fill="rgb(255,255,255)" fill-opacity="1.0" stroke="rgb(50,50,50)" stroke-width="1" />
		<g>
			<title>PF01648</title>
			<polygon class="PF01648" points="1349,31 1358,21 1358,40" stroke-linejoin="round" width="11" height="26" fill="rgb(85,184,135)" stroke="rgb(68,147,108)" stroke-width="1" opacity="0.75" />
		</g>
	</g>
	<g>
		<polygon class="NoName" points="1379,16 1379,16 1379,1 1398,31 1379,61 1379,46 1379,46" fill="rgb(255,255,255)" fill-opacity="1.0" stroke="rgb(50,50,50)" stroke-width="1" />
		<g>
			<title>PF04542</title>
			<polygon class="PF04542" points="1382,18 1387,18 1388,19 1388,43 1387,44 1382,44" stroke-linejoin="round" width="6" height="26" fill="rgb(184,59,197)" stroke="rgb(147,47,157)" stroke-width="1" opacity="0.75" />
		</g>
		<g>
			<title>PF08281</title>
			<polygon class="PF08281" points="1392,26 1395,31 1392,36" stroke-linejoin="round" width="5" height="26" fill="rgb(222,103,144)" stroke="rgb(177,82,115)" stroke-width="1" opacity="0.75" />
		</g>
	</g>
	<g>
		<polygon class="NoName" points="1,16 1,16 1,1 14,31 1,61 1,46 1,46" fill="rgb(255,255,255)" fill-opacity="1.0" stroke="rgb(50,50,50)" stroke-width="1" />
		<g>
			<title>PF03364</title>
			<polygon class="PF03364" points="2,18 5,18 11,31 5,44 2,44" stroke-linejoin="round" width="12" height="26" fill="rgb(221,94,106)" stroke="rgb(176,75,84)" stroke-width="1" opacity="0.75" />
		</g>
	</g>
	<g>
		<polygon class="NoName" points="22,16 22,16 22,1 29,31 22,61 22,46 22,46" fill="rgb(255,255,255)" fill-opacity="1.0" stroke="rgb(50,50,50)" stroke-width="1" />
		<g>
			<title>PF03621</title>
			<polygon class="PF03621" points="22,18 23,18 26,31 23,44 22,44" stroke-linejoin="round" width="5" height="26" fill="rgb(212,165,97)" stroke="rgb(169,132,77)" stroke-width="1" opacity="0.75" />
		</g>
	</g>
	<g>
		<title>lgrE</title>
		<polygon class="lgrE" points="29,16 29,16 29,1 53,31 29,61 29,46 29,46" fill="rgb(209,205,251)" fill-opacity="1.0" stroke="rgb(83,82,100)" stroke-width="1" />
		<g>
			<title>PF00975</title>
			<polygon class="PF00975" points="29,18 40,18 50,31 40,44 29,44" stroke-linejoin="round" width="22" height="26" fill="rgb(207,80,138)" stroke="rgb(165,63,110)" stroke-width="1" opacity="0.75" />
		</g>
	</g>
	<g>
		<polygon class="NoName" points="55,16 175,16 175,1 205,31 175,61 175,46 55,46" fill="rgb(255,255,255)" fill-opacity="1.0" stroke="rgb(50,50,50)" stroke-width="1" />
		<g>
			<title>PF00501</title>
			<rect class="PF00501" x="56" y="18" stroke-linejoin="round" width="43" height="26" fill="rgb(60,217,223)" stroke="rgb(48,173,178)" stroke-width="1" opacity="0.75" />
		</g>
		<g>
			<title>PF00550</title>
			<rect class="PF00550" x="114" y="18" stroke-linejoin="round" width="6" height="26" fill="rgb(103,191,88)" stroke="rgb(82,152,70)" stroke-width="1" opacity="0.75" />
		</g>
		<g>
			<title>PF00668</title>
			<rect class="PF00668" x="122" y="18" stroke-linejoin="round" width="44" height="26" fill="rgb(224,184,98)" stroke="rgb(179,147,78)" stroke-width="1" opacity="0.75" />
		</g>
		<g>
			<title>PF02668</title>
			<polygon class="PF02668" points="172,18 189,18 201,30 201,32 189,44 172,44" stroke-linejoin="round" width="29" height="26" fill="rgb(180,79,217)" stroke="rgb(144,63,173)" stroke-width="1" opacity="0.75" />
		</g>
	</g>
	<g>
		<polygon class="NoName" points="206,16 282,16 282,1 312,31 282,61 282,46 206,46" fill="rgb(255,255,255)" fill-opacity="1.0" stroke="rgb(50,50,50)" stroke-width="1" />
		<g>
			<title>PF00668</title>
			<rect class="PF00668" x="215" y="18" stroke-linejoin="round" width="21" height="26" fill="rgb(224,184,98)" stroke="rgb(179,147,78)" stroke-width="1" opacity="0.75" />
		</g>
		<g>
			<title>PF00501</title>
			<rect class="PF00501" x="249" y="18" stroke-linejoin="round" width="40" height="26" fill="rgb(60,217,223)" stroke="rgb(48,173,178)" stroke-width="1" opacity="0.75" />
		</g>
		<g>
			<title>PF00550</title>
			<polygon class="PF00550" points="301,23 307,29 307,33 301,39" stroke-linejoin="round" width="6" height="26" fill="rgb(103,191,88)" stroke="rgb(82,152,70)" stroke-width="1" opacity="0.75" />
		</g>
	</g>
	<g>
		<polygon class="NoName" points="313,16 542,16 542,1 572,31 542,61 542,46 313,46" fill="rgb(255,255,255)" fill-opacity="1.0" stroke="rgb(50,50,50)" stroke-width="1" />
		<g>
			<title>PF00668</title>
			<rect class="PF00668" x="316" y="18" stroke-linejoin="round" width="44" height="26" fill="rgb(224,184,98)" stroke="rgb(179,147,78)" stroke-width="1" opacity="0.75" />
		</g>
		<g>
			<title>PF00501</title>
			<rect class="PF00501" x="363" y="18" stroke-linejoin="round" width="40" height="26" fill="rgb(60,217,223)" stroke="rgb(48,173,178)" stroke-width="1" opacity="0.75" />
		</g>
		<g>
			<title>PF13193</title>
			<rect class="PF13193" x="404" y="18" stroke-linejoin="round" width="7" height="26" fill="rgb(182,50,118)" stroke="rgb(145,39,94)" stroke-width="1" opacity="0.75" />
		</g>
		<g>
			<title>PF00550</title>
			<rect class="PF00550" x="414" y="18" stroke-linejoin="round" width="6" height="26" fill="rgb(103,191,88)" stroke="rgb(82,152,70)" stroke-width="1" opacity="0.75" />
		</g>
		<g>
			<title>PF00668</title>
			<rect class="PF00668" x="422" y="18" stroke-linejoin="round" width="43" height="26" fill="rgb(224,184,98)" stroke="rgb(179,147,78)" stroke-width="1" opacity="0.75" />
		</g>
		<g>
			<title>PF00668</title>
			<rect class="PF00668" x="468" y="18" stroke-linejoin="round" width="42" height="26" fill="rgb(224,184,98)" stroke="rgb(179,147,78)" stroke-width="1" opacity="0.75" />
		</g>
		<g>
			<title>PF00501</title>
			<rect class="PF00501" x="512" y="18" stroke-linejoin="round" width="40" height="26" fill="rgb(60,217,223)" stroke="rgb(48,173,178)" stroke-width="1" opacity="0.75" />
		</g>
		<g>
			<title>PF13193</title>
			<polygon class="PF13193" points="553,18 556,18 560,22 560,40 556,44 553,44" stroke-linejoin="round" width="7" height="26" fill="rgb(182,50,118)" stroke="rgb(145,39,94)" stroke-width="1" opacity="0.75" />
		</g>
		<g>
			<title>PF00550</title>
			<polygon class="PF00550" points="563,25 569,31 569,31 563,37" stroke-linejoin="round" width="6" height="26" fill="rgb(103,191,88)" stroke="rgb(82,152,70)" stroke-width="1" opacity="0.75" />
		</g>
	</g>
	<g>
		<polygon class="NoName" points="573,16 938,16 938,1 968,31 938,61 938,46 573,46" fill="rgb(255,255,255)" fill-opacity="1.0" stroke="rgb(50,50,50)" stroke-width="1" />
		<g>
			<title>PF00668</title>
			<rect class="PF00668" x="578" y="18" stroke-linejoin="round" width="44" height="26" fill="rgb(224,184,98)" stroke="rgb(179,147,78)" stroke-width="1" opacity="0.75" />
		</g>
		<g>
			<title>PF00501</title>
			<rect class="PF00501" x="624" y="18" stroke-linejoin="round" width="40" height="26" fill="rgb(60,217,223)" stroke="rgb(48,173,178)" stroke-width="1" opacity="0.75" />
		</g>
		<g>
			<title>PF13193</title>
			<rect class="PF13193" x="665" y="18" stroke-linejoin="round" width="7" height="26" fill="rgb(182,50,118)" stroke="rgb(145,39,94)" stroke-width="1" opacity="0.75" />
		</g>
		<g>
			<title>PF00550</title>
			<rect class="PF00550" x="675" y="18" stroke-linejoin="round" width="6" height="26" fill="rgb(103,191,88)" stroke="rgb(82,152,70)" stroke-width="1" opacity="0.75" />
		</g>
		<g>
			<title>PF00668</title>
			<rect class="PF00668" x="683" y="18" stroke-linejoin="round" width="43" height="26" fill="rgb(224,184,98)" stroke="rgb(179,147,78)" stroke-width="1" opacity="0.75" />
		</g>
		<g>
			<title>PF00668</title>
			<rect class="PF00668" x="729" y="18" stroke-linejoin="round" width="43" height="26" fill="rgb(224,184,98)" stroke="rgb(179,147,78)" stroke-width="1" opacity="0.75" />
		</g>
		<g>
			<title>PF00501</title>
			<rect class="PF00501" x="774" y="18" stroke-linejoin="round" width="39" height="26" fill="rgb(60,217,223)" stroke="rgb(48,173,178)" stroke-width="1" opacity="0.75" />
		</g>
		<g>
			<title>PF13193</title>
			<rect class="PF13193" x="814" y="18" stroke-linejoin="round" width="7" height="26" fill="rgb(182,50,118)" stroke="rgb(145,39,94)" stroke-width="1" opacity="0.75" />
		</g>
		<g>
			<title>PF00550</title>
			<rect class="PF00550" x="824" y="18" stroke-linejoin="round" width="6" height="26" fill="rgb(103,191,88)" stroke="rgb(82,152,70)" stroke-width="1" opacity="0.75" />
		</g>
		<g>
			<title>PF00668</title>
			<rect class="PF00668" x="835" y="18" stroke-linejoin="round" width="43" height="26" fill="rgb(224,184,98)" stroke="rgb(179,147,78)" stroke-width="1" opacity="0.75" />
		</g>
		<g>
			<title>PF00501</title>
			<rect class="PF00501" x="881" y="18" stroke-linejoin="round" width="40" height="26" fill="rgb(60,217,223)" stroke="rgb(48,173,178)" stroke-width="1" opacity="0.75" />
		</g>
		<g>
			<title>PF13193</title>
			<rect class="PF13193" x="922" y="18" stroke-linejoin="round" width="7" height="26" fill="rgb(182,50,118)" stroke="rgb(145,39,94)" stroke-width="1" opacity="0.75" />
		</g>
		<g>
			<title>PF00550</title>
			<rect class="PF00550" x="932" y="18" stroke-linejoin="round" width="6" height="26" fill="rgb(103,191,88)" stroke="rgb(82,152,70)" stroke-width="1" opacity="0.75" />
		</g>
		<g>
			<title>PF00975</title>
			<polygon class="PF00975" points="941,18 952,18 958,24 958,38 952,44 941,44" stroke-linejoin="round" width="17" height="26" fill="rgb(207,80,138)" stroke="rgb(165,63,110)" stroke-width="1" opacity="0.75" />
		</g>
	</g>
	<g>
		<title>fhuA2</title>
		<polygon class="fhuA2" points="971,16 1014,16 1014,1 1044,31 1014,61 1014,46 971,46" fill="rgb(251,209,197)" fill-opacity="1.0" stroke="rgb(100,83,78)" stroke-width="1" />
		<g>
			<title>PF07715</title>
			<rect class="PF07715" x="979" y="18" stroke-linejoin="round" width="10" height="26" fill="rgb(99,133,214)" stroke="rgb(79,106,171)" stroke-width="1" opacity="0.75" />
		</g>
		<g>
			<title>PF00593</title>
			<polygon class="PF00593" points="996,18 1028,18 1041,31 1028,44 996,44" stroke-linejoin="round" width="48" height="26" fill="rgb(171,200,51)" stroke="rgb(136,160,40)" stroke-width="1" opacity="0.75" />
		</g>
	</g>
	<g>
		<polygon class="NoName" points="1048,16 1057,16 1057,1 1087,31 1057,61 1057,46 1048,46" fill="rgb(255,255,255)" fill-opacity="1.0" stroke="rgb(50,50,50)" stroke-width="1" />
		<g>
			<title>PF03929</title>
			<polygon class="PF03929" points="1049,18 1071,18 1084,31 1084,31 1071,44 1049,44" stroke-linejoin="round" width="35" height="26" fill="rgb(68,227,157)" stroke="rgb(54,181,125)" stroke-width="1" opacity="0.75" />
		</g>
	</g>
</svg>
