<svg version="1.1" baseProfile="full" xmlns="http://www.w3.org/2000/svg" width="1896" height="62">
	<line x1="1" y1="31" x2="1895" y2="31" style="stroke:rgb(50,50,50); stroke-width:3 "/>
	<g>
		<title>penDE</title>
		<polygon class="penDE" points="1273,16 1285,16 1285,1 1315,31 1285,61 1285,46 1273,46" fill="rgb(190,251,235)" fill-opacity="1.0" stroke="rgb(76,100,93)" stroke-width="1" />
		<g>
			<title>PF03417</title>
			<polygon class="PF03417" points="1283,18 1299,18 1305,24 1305,38 1299,44 1283,44" stroke-linejoin="round" width="22" height="26" fill="rgb(101,81,194)" stroke="rgb(80,64,155)" stroke-width="1" opacity="0.75" />
		</g>
	</g>
	<g>
		<polygon class="NoName" points="1401,16 1379,16 1379,1 1349,31 1379,61 1379,46 1401,46" fill="rgb(255,255,255)" fill-opacity="1.0" stroke="rgb(50,50,50)" stroke-width="1" />
		<g>
			<title>PF01266</title>
			<polygon class="PF01266" points="1363,19 1364,18 1390,18 1390,44 1364,44 1363,42" stroke-linejoin="round" width="27" height="26" fill="rgb(123,179,59)" stroke="rgb(98,143,47)" stroke-width="1" opacity="0.75" />
		</g>
	</g>
	<g>
		<polygon class="NoName" points="1419,16 1434,16 1434,1 1464,31 1434,61 1434,46 1419,46" fill="rgb(255,255,255)" fill-opacity="1.0" stroke="rgb(50,50,50)" stroke-width="1" />
		<g>
			<title>PF03435</title>
			<rect class="PF03435" x="1420" y="18" stroke-linejoin="round" width="12" height="26" fill="rgb(90,186,91)" stroke="rgb(72,148,72)" stroke-width="1" opacity="0.75" />
		</g>
	</g>
	<g>
		<polygon class="NoName" points="1565,16 1565,16 1565,1 1580,31 1565,61 1565,46 1565,46" fill="rgb(255,255,255)" fill-opacity="1.0" stroke="rgb(50,50,50)" stroke-width="1" />
		<g>
			<title>PF00172</title>
			<rect class="PF00172" x="1567" y="18" stroke-linejoin="round" width="4" height="26" fill="rgb(121,178,76)" stroke="rgb(96,142,60)" stroke-width="1" opacity="0.75" />
		</g>
	</g>
	<g>
		<polygon class="NoName" points="1760,16 1760,16 1760,1 1742,31 1760,61 1760,46 1760,46" fill="rgb(255,255,255)" fill-opacity="1.0" stroke="rgb(50,50,50)" stroke-width="1" />
		<g>
			<title>PF00903</title>
			<polygon class="PF00903" points="1748,24 1752,18 1759,18 1759,44 1752,44 1748,37" stroke-linejoin="round" width="11" height="26" fill="rgb(50,162,189)" stroke="rgb(40,129,151)" stroke-width="1" opacity="0.75" />
		</g>
	</g>
	<g>
		<polygon class="NoName" points="1811,16 1813,16 1813,1 1843,31 1813,61 1813,46 1811,46" fill="rgb(255,255,255)" fill-opacity="1.0" stroke="rgb(50,50,50)" stroke-width="1" />
	</g>
	<g>
		<polygon class="NoName" points="1851,16 1859,16 1859,1 1889,31 1859,61 1859,46 1851,46" fill="rgb(255,255,255)" fill-opacity="1.0" stroke="rgb(50,50,50)" stroke-width="1" />
		<g>
			<title>PF04116</title>
			<polygon class="PF04116" points="1868,18 1873,18 1881,26 1881,36 1873,44 1868,44" stroke-linejoin="round" width="13" height="26" fill="rgb(171,60,209)" stroke="rgb(136,48,167)" stroke-width="1" opacity="0.75" />
		</g>
	</g>
	<g>
		<polygon class="NoName" points="95,16 95,16 95,1 66,31 95,61 95,46 95,46" fill="rgb(255,255,255)" fill-opacity="1.0" stroke="rgb(50,50,50)" stroke-width="1" />
	</g>
	<g>
		<polygon class="NoName" points="157,16 147,16 147,1 117,31 147,61 147,46 157,46" fill="rgb(255,255,255)" fill-opacity="1.0" stroke="rgb(50,50,50)" stroke-width="1" />
		<g>
			<title>PF04666</title>
			<rect class="PF04666" x="133" y="18" stroke-linejoin="round" width="19" height="26" fill="rgb(96,204,143)" stroke="rgb(76,163,114)" stroke-width="1" opacity="0.75" />
		</g>
	</g>
	<g>
		<polygon class="NoName" points="173,16 183,16 183,1 213,31 183,61 183,46 173,46" fill="rgb(255,255,255)" fill-opacity="1.0" stroke="rgb(50,50,50)" stroke-width="1" />
	</g>
	<g>
		<polygon class="NoName" points="252,16 300,16 300,1 330,31 300,61 300,46 252,46" fill="rgb(255,255,255)" fill-opacity="1.0" stroke="rgb(50,50,50)" stroke-width="1" />
	</g>
	<g>
		<polygon class="NoName" points="416,16 416,16 416,1 445,31 416,61 416,46 416,46" fill="rgb(255,255,255)" fill-opacity="1.0" stroke="rgb(50,50,50)" stroke-width="1" />
	</g>
	<g>
		<polygon class="NoName" points="522,16 490,16 490,1 460,31 490,61 490,46 522,46" fill="rgb(255,255,255)" fill-opacity="1.0" stroke="rgb(50,50,50)" stroke-width="1" />
		<g>
			<title>PF13679</title>
			<rect class="PF13679" x="483" y="18" stroke-linejoin="round" width="24" height="26" fill="rgb(227,117,66)" stroke="rgb(181,93,52)" stroke-width="1" opacity="0.75" />
		</g>
	</g>
	<g>
		<polygon class="NoName" points="607,16 574,16 574,1 544,31 574,61 574,46 607,46" fill="rgb(255,255,255)" fill-opacity="1.0" stroke="rgb(50,50,50)" stroke-width="1" />
	</g>
	<g>
		<title>pcbAB</title>
		<polygon class="pcbAB" points="1155,16 808,16 808,1 778,31 808,61 808,46 1155,46" fill="rgb(250,210,234)" fill-opacity="1.0" stroke="rgb(100,84,93)" stroke-width="1" />
		<g>
			<title>PF00975</title>
			<polygon class="PF00975" points="780,31 793,18 799,18 799,44 793,44" stroke-linejoin="round" width="21" height="26" fill="rgb(207,80,138)" stroke="rgb(165,63,110)" stroke-width="1" opacity="0.75" />
		</g>
		<g>
			<title>PF00668</title>
			<rect class="PF00668" x="801" y="18" stroke-linejoin="round" width="42" height="26" fill="rgb(224,184,98)" stroke="rgb(179,147,78)" stroke-width="1" opacity="0.75" />
		</g>
		<g>
			<title>PF00550</title>
			<rect class="PF00550" x="846" y="18" stroke-linejoin="round" width="6" height="26" fill="rgb(103,191,88)" stroke="rgb(82,152,70)" stroke-width="1" opacity="0.75" />
		</g>
		<g>
			<title>PF13193</title>
			<rect class="PF13193" x="855" y="18" stroke-linejoin="round" width="8" height="26" fill="rgb(182,50,118)" stroke="rgb(145,39,94)" stroke-width="1" opacity="0.75" />
		</g>
		<g>
			<title>PF00501</title>
			<rect class="PF00501" x="864" y="18" stroke-linejoin="round" width="40" height="26" fill="rgb(60,217,223)" stroke="rgb(48,173,178)" stroke-width="1" opacity="0.75" />
		</g>
		<g>
			<title>PF00668</title>
			<rect class="PF00668" x="907" y="18" stroke-linejoin="round" width="45" height="26" fill="rgb(224,184,98)" stroke="rgb(179,147,78)" stroke-width="1" opacity="0.75" />
		</g>
		<g>
			<title>PF00550</title>
			<rect class="PF00550" x="955" y="18" stroke-linejoin="round" width="6" height="26" fill="rgb(103,191,88)" stroke="rgb(82,152,70)" stroke-width="1" opacity="0.75" />
		</g>
		<g>
			<title>PF13193</title>
			<rect class="PF13193" x="964" y="18" stroke-linejoin="round" width="7" height="26" fill="rgb(182,50,118)" stroke="rgb(145,39,94)" stroke-width="1" opacity="0.75" />
		</g>
		<g>
			<title>PF00501</title>
			<rect class="PF00501" x="972" y="18" stroke-linejoin="round" width="41" height="26" fill="rgb(60,217,223)" stroke="rgb(48,173,178)" stroke-width="1" opacity="0.75" />
		</g>
		<g>
			<title>PF00668</title>
			<rect class="PF00668" x="1015" y="18" stroke-linejoin="round" width="45" height="26" fill="rgb(224,184,98)" stroke="rgb(179,147,78)" stroke-width="1" opacity="0.75" />
		</g>
		<g>
			<title>PF00550</title>
			<rect class="PF00550" x="1063" y="18" stroke-linejoin="round" width="6" height="26" fill="rgb(103,191,88)" stroke="rgb(82,152,70)" stroke-width="1" opacity="0.75" />
		</g>
		<g>
			<title>PF00501</title>
			<rect class="PF00501" x="1081" y="18" stroke-linejoin="round" width="41" height="26" fill="rgb(60,217,223)" stroke="rgb(48,173,178)" stroke-width="1" opacity="0.75" />
		</g>
	</g>
	<g>
		<title>pcbC</title>
		<polygon class="pcbC" points="1189,16 1192,16 1192,1 1222,31 1192,61 1192,46 1189,46" fill="rgb(191,254,185)" fill-opacity="1.0" stroke="rgb(76,101,74)" stroke-width="1" />
		<g>
			<title>PF14226</title>
			<rect class="PF14226" x="1189" y="18" stroke-linejoin="round" width="12" height="26" fill="rgb(122,206,79)" stroke="rgb(97,164,63)" stroke-width="1" opacity="0.75" />
		</g>
		<g>
			<title>PF03171</title>
			<polygon class="PF03171" points="1207,19 1217,29 1217,33 1207,43" stroke-linejoin="round" width="10" height="26" fill="rgb(184,68,180)" stroke="rgb(147,54,144)" stroke-width="1" opacity="0.75" />
		</g>
	</g>
</svg>
