<svg version="1.1" baseProfile="full" xmlns="http://www.w3.org/2000/svg" width="84" height="62">
	<line x1="1" y1="31" x2="83" y2="31" style="stroke:rgb(50,50,50); stroke-width:3 "/>
	<g>
		<title>moaA</title>
		<polygon class="moaA" points="8,16 10,16 10,1 40,31 10,61 10,46 8,46" fill="rgb(252,189,230)" fill-opacity="1.0" stroke="rgb(100,75,92)" stroke-width="1" />
		<g>
			<title>PF04055</title>
			<rect class="PF04055" x="9" y="18" stroke-linejoin="round" width="15" height="26" fill="rgb(149,56,222)" stroke="rgb(119,44,177)" stroke-width="1" opacity="0.75" />
		</g>
		<g>
			<title>PF06463</title>
			<polygon class="PF06463" points="26,20 37,31 26,42" stroke-linejoin="round" width="12" height="26" fill="rgb(149,103,225)" stroke="rgb(119,82,180)" stroke-width="1" opacity="0.75" />
		</g>
	</g>
	<g>
		<title>moaD</title>
		<polygon class="moaD" points="41,16 41,16 41,1 49,31 41,61 41,46 41,46" fill="rgb(254,197,197)" fill-opacity="1.0" stroke="rgb(101,78,78)" stroke-width="1" />
		<g>
			<title>PF02597</title>
			<polygon class="PF02597" points="41,18 43,18 46,31 43,44 41,44" stroke-linejoin="round" width="7" height="26" fill="rgb(73,117,196)" stroke="rgb(58,93,156)" stroke-width="1" opacity="0.75" />
		</g>
	</g>
	<g>
		<title>moaB</title>
		<polygon class="moaB" points="49,16 49,16 49,1 74,31 49,61 49,46 49,46" fill="rgb(254,212,243)" fill-opacity="1.0" stroke="rgb(101,84,97)" stroke-width="1" />
		<g>
			<title>PF00899</title>
			<polygon class="PF00899" points="50,18 60,18 71,31 60,44 50,44" stroke-linejoin="round" width="23" height="26" fill="rgb(82,50,180)" stroke="rgb(65,39,144)" stroke-width="1" opacity="0.75" />
		</g>
	</g>
	<g>
		<title>moaC</title>
		<polygon class="moaC" points="75,16 75,16 75,1 82,31 75,61 75,46 75,46" fill="rgb(187,250,223)" fill-opacity="1.0" stroke="rgb(74,100,89)" stroke-width="1" />
		<g>
			<title>PF01967</title>
			<polygon class="PF01967" points="75,18 76,18 79,31 76,44 75,44" stroke-linejoin="round" width="5" height="26" fill="rgb(81,126,206)" stroke="rgb(64,100,164)" stroke-width="1" opacity="0.75" />
		</g>
	</g>
</svg>
