<svg version="1.1" baseProfile="full" xmlns="http://www.w3.org/2000/svg" width="200" height="62">
	<line x1="1" y1="31" x2="199" y2="31" style="stroke:rgb(50,50,50); stroke-width:3 "/>
	<g>
		<title>cnbA</title>
		<polygon class="cnbA" points="22,16 38,16 38,1 68,31 38,61 38,46 22,46" fill="rgb(231,208,250)" fill-opacity="1.0" stroke="rgb(92,83,100)" stroke-width="1" />
		<g>
			<title>PF00027</title>
			<rect class="PF00027" x="33" y="18" stroke-linejoin="round" width="8" height="26" fill="rgb(138,95,204)" stroke="rgb(110,76,163)" stroke-width="1" opacity="0.75" />
		</g>
	</g>
	<g>
		<title>mtf</title>
		<polygon class="mtf" points="72,16 72,16 72,1 101,31 72,61 72,46 72,46" fill="rgb(184,190,251)" fill-opacity="1.0" stroke="rgb(73,76,100)" stroke-width="1" />
		<g>
			<title>PF13649</title>
			<polygon class="PF13649" points="81,18 85,18 90,23 90,39 85,44 81,44" stroke-linejoin="round" width="9" height="26" fill="rgb(227,135,74)" stroke="rgb(181,108,59)" stroke-width="1" opacity="0.75" />
		</g>
	</g>
	<g>
		<title>mic</title>
		<polygon class="mic" points="104,16 113,16 113,1 143,31 113,61 113,46 104,46" fill="rgb(211,226,253)" fill-opacity="1.0" stroke="rgb(84,90,101)" stroke-width="1" />
	</g>
	<g>
		<title>cnbB</title>
		<polygon class="cnbB" points="146,16 162,16 162,1 192,31 162,61 162,46 146,46" fill="rgb(208,254,251)" fill-opacity="1.0" stroke="rgb(83,101,100)" stroke-width="1" />
		<g>
			<title>PF00027</title>
			<rect class="PF00027" x="157" y="18" stroke-linejoin="round" width="8" height="26" fill="rgb(138,95,204)" stroke="rgb(110,76,163)" stroke-width="1" opacity="0.75" />
		</g>
	</g>
</svg>
