<svg version="1.1" baseProfile="full" xmlns="http://www.w3.org/2000/svg" width="2494" height="62">
	<line x1="1" y1="31" x2="2493" y2="31" style="stroke:rgb(50,50,50); stroke-width:3 "/>
	<g>
		<title>borD</title>
		<polygon class="borD" points="334,16 334,16 334,1 309,31 334,61 334,46 334,46" fill="rgb(198,252,212)" fill-opacity="1.0" stroke="rgb(79,100,84)" stroke-width="1" />
		<g>
			<title>PF13561</title>
			<polygon class="PF13561" points="311,31 322,18 332,18 332,44 322,44" stroke-linejoin="round" width="23" height="26" fill="rgb(73,205,127)" stroke="rgb(58,164,101)" stroke-width="1" opacity="0.75" />
		</g>
	</g>
	<g>
		<title>borE</title>
		<polygon class="borE" points="373,16 364,16 364,1 334,31 364,61 364,46 373,46" fill="rgb(242,250,209)" fill-opacity="1.0" stroke="rgb(96,100,83)" stroke-width="1" />
		<g>
			<title>PF13378</title>
			<polygon class="PF13378" points="336,31 349,18 357,18 357,44 349,44" stroke-linejoin="round" width="21" height="26" fill="rgb(191,184,94)" stroke="rgb(152,147,75)" stroke-width="1" opacity="0.75" />
		</g>
	</g>
	<g>
		<title>borF</title>
		<polygon class="borF" points="400,16 400,16 400,1 373,31 400,61 400,46 400,46" fill="rgb(178,198,252)" fill-opacity="1.0" stroke="rgb(71,79,100)" stroke-width="1" />
		<g>
			<title>PF12146</title>
			<polygon class="PF12146" points="375,31 387,18 398,18 398,44 387,44" stroke-linejoin="round" width="23" height="26" fill="rgb(140,98,205)" stroke="rgb(112,78,164)" stroke-width="1" opacity="0.75" />
		</g>
	</g>
	<g>
		<title>borG</title>
		<polygon class="borG" points="454,16 430,16 430,1 400,31 430,61 430,46 454,46" fill="rgb(221,183,250)" fill-opacity="1.0" stroke="rgb(88,73,100)" stroke-width="1" />
		<g>
			<title>PF02775</title>
			<polygon class="PF02775" points="402,31 415,18 415,43" stroke-linejoin="round" width="14" height="26" fill="rgb(156,179,45)" stroke="rgb(124,143,36)" stroke-width="1" opacity="0.75" />
		</g>
		<g>
			<title>PF00205</title>
			<rect class="PF00205" x="421" y="18" stroke-linejoin="round" width="13" height="26" fill="rgb(149,194,69)" stroke="rgb(119,155,55)" stroke-width="1" opacity="0.75" />
		</g>
		<g>
			<title>PF02776</title>
			<rect class="PF02776" x="437" y="18" stroke-linejoin="round" width="16" height="26" fill="rgb(55,81,185)" stroke="rgb(44,64,148)" stroke-width="1" opacity="0.75" />
		</g>
	</g>
	<g>
		<title>borH</title>
		<polygon class="borH" points="522,16 484,16 484,1 454,31 484,61 484,46 522,46" fill="rgb(250,236,200)" fill-opacity="1.0" stroke="rgb(100,94,80)" stroke-width="1" />
		<g>
			<title>PF02515</title>
			<polygon class="PF02515" points="463,24 469,18 485,18 485,44 469,44 463,37" stroke-linejoin="round" width="22" height="26" fill="rgb(226,102,90)" stroke="rgb(180,81,72)" stroke-width="1" opacity="0.75" />
		</g>
		<g>
			<title>PF02515</title>
			<rect class="PF02515" x="487" y="18" stroke-linejoin="round" width="28" height="26" fill="rgb(226,102,90)" stroke="rgb(180,81,72)" stroke-width="1" opacity="0.75" />
		</g>
	</g>
	<g>
		<title>borA1</title>
		<polygon class="borA1" points="540,16 597,16 597,1 627,31 597,61 597,46 540,46" fill="rgb(186,254,218)" fill-opacity="1.0" stroke="rgb(74,101,87)" stroke-width="1" />
		<g>
			<title>PF00109</title>
			<rect class="PF00109" x="541" y="18" stroke-linejoin="round" width="12" height="26" fill="rgb(112,116,228)" stroke="rgb(89,92,182)" stroke-width="1" opacity="0.75" />
		</g>
		<g>
			<title>PF00698</title>
			<rect class="PF00698" x="572" y="18" stroke-linejoin="round" width="32" height="26" fill="rgb(59,176,209)" stroke="rgb(47,140,167)" stroke-width="1" opacity="0.75" />
		</g>
		<g>
			<title>PF00550</title>
			<polygon class="PF00550" points="609,18 611,18 616,23 616,39 611,44 609,44" stroke-linejoin="round" width="7" height="26" fill="rgb(103,191,88)" stroke="rgb(82,152,70)" stroke-width="1" opacity="0.75" />
		</g>
	</g>
	<g>
		<title>borA2</title>
		<polygon class="borA2" points="630,16 757,16 757,1 787,31 757,61 757,46 630,46" fill="rgb(253,195,251)" fill-opacity="1.0" stroke="rgb(101,78,100)" stroke-width="1" />
		<g>
			<title>PF08990</title>
			<rect class="PF08990" x="630" y="18" stroke-linejoin="round" width="2" height="26" fill="rgb(180,75,55)" stroke="rgb(144,60,44)" stroke-width="1" opacity="0.75" />
		</g>
		<g>
			<title>PF00109</title>
			<rect class="PF00109" x="633" y="18" stroke-linejoin="round" width="25" height="26" fill="rgb(112,116,228)" stroke="rgb(89,92,182)" stroke-width="1" opacity="0.75" />
		</g>
		<g>
			<title>PF02801</title>
			<rect class="PF02801" x="659" y="18" stroke-linejoin="round" width="11" height="26" fill="rgb(215,78,102)" stroke="rgb(172,62,81)" stroke-width="1" opacity="0.75" />
		</g>
		<g>
			<title>PF16197</title>
			<rect class="PF16197" x="671" y="18" stroke-linejoin="round" width="11" height="26" fill="rgb(68,179,89)" stroke="rgb(54,143,71)" stroke-width="1" opacity="0.75" />
		</g>
		<g>
			<title>PF00698</title>
			<rect class="PF00698" x="685" y="18" stroke-linejoin="round" width="30" height="26" fill="rgb(59,176,209)" stroke="rgb(47,140,167)" stroke-width="1" opacity="0.75" />
		</g>
		<g>
			<title>PF08659</title>
			<rect class="PF08659" x="743" y="18" stroke-linejoin="round" width="17" height="26" fill="rgb(66,209,188)" stroke="rgb(52,167,150)" stroke-width="1" opacity="0.75" />
		</g>
		<g>
			<title>PF00550</title>
			<polygon class="PF00550" points="772,19 778,25 778,37 772,43" stroke-linejoin="round" width="6" height="26" fill="rgb(103,191,88)" stroke="rgb(82,152,70)" stroke-width="1" opacity="0.75" />
		</g>
	</g>
	<g>
		<title>borA3</title>
		<polygon class="borA3" points="790,16 1110,16 1110,1 1140,31 1110,61 1110,46 790,46" fill="rgb(250,232,196)" fill-opacity="1.0" stroke="rgb(100,92,78)" stroke-width="1" />
		<g>
			<title>PF08990</title>
			<rect class="PF08990" x="790" y="18" stroke-linejoin="round" width="2" height="26" fill="rgb(180,75,55)" stroke="rgb(144,60,44)" stroke-width="1" opacity="0.75" />
		</g>
		<g>
			<title>PF00109</title>
			<rect class="PF00109" x="793" y="18" stroke-linejoin="round" width="25" height="26" fill="rgb(112,116,228)" stroke="rgb(89,92,182)" stroke-width="1" opacity="0.75" />
		</g>
		<g>
			<title>PF02801</title>
			<rect class="PF02801" x="819" y="18" stroke-linejoin="round" width="11" height="26" fill="rgb(215,78,102)" stroke="rgb(172,62,81)" stroke-width="1" opacity="0.75" />
		</g>
		<g>
			<title>PF16197</title>
			<rect class="PF16197" x="831" y="18" stroke-linejoin="round" width="11" height="26" fill="rgb(68,179,89)" stroke="rgb(54,143,71)" stroke-width="1" opacity="0.75" />
		</g>
		<g>
			<title>PF00698</title>
			<rect class="PF00698" x="845" y="18" stroke-linejoin="round" width="30" height="26" fill="rgb(59,176,209)" stroke="rgb(47,140,167)" stroke-width="1" opacity="0.75" />
		</g>
		<g>
			<title>PF14765</title>
			<rect class="PF14765" x="881" y="18" stroke-linejoin="round" width="27" height="26" fill="rgb(173,56,182)" stroke="rgb(138,44,145)" stroke-width="1" opacity="0.75" />
		</g>
		<g>
			<title>PF08659</title>
			<rect class="PF08659" x="925" y="18" stroke-linejoin="round" width="17" height="26" fill="rgb(66,209,188)" stroke="rgb(52,167,150)" stroke-width="1" opacity="0.75" />
		</g>
		<g>
			<title>PF00550</title>
			<rect class="PF00550" x="953" y="18" stroke-linejoin="round" width="6" height="26" fill="rgb(103,191,88)" stroke="rgb(82,152,70)" stroke-width="1" opacity="0.75" />
		</g>
		<g>
			<title>PF00109</title>
			<rect class="PF00109" x="962" y="18" stroke-linejoin="round" width="25" height="26" fill="rgb(112,116,228)" stroke="rgb(89,92,182)" stroke-width="1" opacity="0.75" />
		</g>
		<g>
			<title>PF02801</title>
			<rect class="PF02801" x="988" y="18" stroke-linejoin="round" width="11" height="26" fill="rgb(215,78,102)" stroke="rgb(172,62,81)" stroke-width="1" opacity="0.75" />
		</g>
		<g>
			<title>PF16197</title>
			<rect class="PF16197" x="1000" y="18" stroke-linejoin="round" width="11" height="26" fill="rgb(68,179,89)" stroke="rgb(54,143,71)" stroke-width="1" opacity="0.75" />
		</g>
		<g>
			<title>PF00698</title>
			<rect class="PF00698" x="1014" y="18" stroke-linejoin="round" width="30" height="26" fill="rgb(59,176,209)" stroke="rgb(47,140,167)" stroke-width="1" opacity="0.75" />
		</g>
		<g>
			<title>PF14765</title>
			<rect class="PF14765" x="1050" y="18" stroke-linejoin="round" width="26" height="26" fill="rgb(173,56,182)" stroke="rgb(138,44,145)" stroke-width="1" opacity="0.75" />
		</g>
		<g>
			<title>PF08659</title>
			<rect class="PF08659" x="1096" y="18" stroke-linejoin="round" width="17" height="26" fill="rgb(66,209,188)" stroke="rgb(52,167,150)" stroke-width="1" opacity="0.75" />
		</g>
		<g>
			<title>PF00550</title>
			<polygon class="PF00550" points="1124,18 1124,18 1130,24 1130,38 1124,44 1124,44" stroke-linejoin="round" width="6" height="26" fill="rgb(103,191,88)" stroke="rgb(82,152,70)" stroke-width="1" opacity="0.75" />
		</g>
	</g>
	<g>
		<title>borA4</title>
		<polygon class="borA4" points="1141,16 1271,16 1271,1 1301,31 1271,61 1271,46 1141,46" fill="rgb(253,179,249)" fill-opacity="1.0" stroke="rgb(101,71,99)" stroke-width="1" />
		<g>
			<title>PF00109</title>
			<rect class="PF00109" x="1143" y="18" stroke-linejoin="round" width="25" height="26" fill="rgb(112,116,228)" stroke="rgb(89,92,182)" stroke-width="1" opacity="0.75" />
		</g>
		<g>
			<title>PF02801</title>
			<rect class="PF02801" x="1168" y="18" stroke-linejoin="round" width="11" height="26" fill="rgb(215,78,102)" stroke="rgb(172,62,81)" stroke-width="1" opacity="0.75" />
		</g>
		<g>
			<title>PF16197</title>
			<rect class="PF16197" x="1180" y="18" stroke-linejoin="round" width="11" height="26" fill="rgb(68,179,89)" stroke="rgb(54,143,71)" stroke-width="1" opacity="0.75" />
		</g>
		<g>
			<title>PF00698</title>
			<rect class="PF00698" x="1195" y="18" stroke-linejoin="round" width="30" height="26" fill="rgb(59,176,209)" stroke="rgb(47,140,167)" stroke-width="1" opacity="0.75" />
		</g>
		<g>
			<title>PF08659</title>
			<rect class="PF08659" x="1257" y="18" stroke-linejoin="round" width="17" height="26" fill="rgb(66,209,188)" stroke="rgb(52,167,150)" stroke-width="1" opacity="0.75" />
		</g>
		<g>
			<title>PF00550</title>
			<polygon class="PF00550" points="1285,18 1285,18 1291,24 1291,38 1285,44 1285,44" stroke-linejoin="round" width="6" height="26" fill="rgb(103,191,88)" stroke="rgb(82,152,70)" stroke-width="1" opacity="0.75" />
		</g>
	</g>
	<g>
		<title>borA5</title>
		<polygon class="borA5" points="1302,16 1487,16 1487,1 1517,31 1487,61 1487,46 1302,46" fill="rgb(246,250,179)" fill-opacity="1.0" stroke="rgb(98,100,71)" stroke-width="1" />
		<g>
			<title>PF08990</title>
			<rect class="PF08990" x="1304" y="18" stroke-linejoin="round" width="2" height="26" fill="rgb(180,75,55)" stroke="rgb(144,60,44)" stroke-width="1" opacity="0.75" />
		</g>
		<g>
			<title>PF00109</title>
			<rect class="PF00109" x="1307" y="18" stroke-linejoin="round" width="24" height="26" fill="rgb(112,116,228)" stroke="rgb(89,92,182)" stroke-width="1" opacity="0.75" />
		</g>
		<g>
			<title>PF02801</title>
			<rect class="PF02801" x="1333" y="18" stroke-linejoin="round" width="11" height="26" fill="rgb(215,78,102)" stroke="rgb(172,62,81)" stroke-width="1" opacity="0.75" />
		</g>
		<g>
			<title>PF16197</title>
			<rect class="PF16197" x="1345" y="18" stroke-linejoin="round" width="11" height="26" fill="rgb(68,179,89)" stroke="rgb(54,143,71)" stroke-width="1" opacity="0.75" />
		</g>
		<g>
			<title>PF00698</title>
			<rect class="PF00698" x="1359" y="18" stroke-linejoin="round" width="31" height="26" fill="rgb(59,176,209)" stroke="rgb(47,140,167)" stroke-width="1" opacity="0.75" />
		</g>
		<g>
			<title>PF14765</title>
			<rect class="PF14765" x="1396" y="18" stroke-linejoin="round" width="26" height="26" fill="rgb(173,56,182)" stroke="rgb(138,44,145)" stroke-width="1" opacity="0.75" />
		</g>
		<g>
			<title>PF08240</title>
			<rect class="PF08240" x="1444" y="18" stroke-linejoin="round" width="6" height="26" fill="rgb(211,65,138)" stroke="rgb(168,51,110)" stroke-width="1" opacity="0.75" />
		</g>
		<g>
			<title>PF13602</title>
			<rect class="PF13602" x="1459" y="18" stroke-linejoin="round" width="13" height="26" fill="rgb(101,131,226)" stroke="rgb(80,104,180)" stroke-width="1" opacity="0.75" />
		</g>
		<g>
			<title>PF08659</title>
			<rect class="PF08659" x="1474" y="18" stroke-linejoin="round" width="17" height="26" fill="rgb(66,209,188)" stroke="rgb(52,167,150)" stroke-width="1" opacity="0.75" />
		</g>
		<g>
			<title>PF00550</title>
			<polygon class="PF00550" points="1502,19 1508,25 1508,37 1502,43" stroke-linejoin="round" width="6" height="26" fill="rgb(103,191,88)" stroke="rgb(82,152,70)" stroke-width="1" opacity="0.75" />
		</g>
	</g>
	<g>
		<polygon class="NoName" points="1,16 1,16 1,1 11,31 1,61 1,46 1,46" fill="rgb(255,255,255)" fill-opacity="1.0" stroke="rgb(50,50,50)" stroke-width="1" />
		<g>
			<title>PF14219</title>
			<polygon class="PF14219" points="1,18 4,18 8,31 4,44 1,44" stroke-linejoin="round" width="8" height="26" fill="rgb(177,190,93)" stroke="rgb(141,152,74)" stroke-width="1" opacity="0.75" />
		</g>
	</g>
	<g>
		<title>borA6</title>
		<polygon class="borA6" points="1518,16 1662,16 1662,1 1692,31 1662,61 1662,46 1518,46" fill="rgb(252,243,206)" fill-opacity="1.0" stroke="rgb(100,97,82)" stroke-width="1" />
		<g>
			<title>PF08990</title>
			<rect class="PF08990" x="1518" y="18" stroke-linejoin="round" width="2" height="26" fill="rgb(180,75,55)" stroke="rgb(144,60,44)" stroke-width="1" opacity="0.75" />
		</g>
		<g>
			<title>PF00109</title>
			<rect class="PF00109" x="1521" y="18" stroke-linejoin="round" width="24" height="26" fill="rgb(112,116,228)" stroke="rgb(89,92,182)" stroke-width="1" opacity="0.75" />
		</g>
		<g>
			<title>PF02801</title>
			<rect class="PF02801" x="1547" y="18" stroke-linejoin="round" width="11" height="26" fill="rgb(215,78,102)" stroke="rgb(172,62,81)" stroke-width="1" opacity="0.75" />
		</g>
		<g>
			<title>PF16197</title>
			<rect class="PF16197" x="1559" y="18" stroke-linejoin="round" width="11" height="26" fill="rgb(68,179,89)" stroke="rgb(54,143,71)" stroke-width="1" opacity="0.75" />
		</g>
		<g>
			<title>PF00698</title>
			<rect class="PF00698" x="1573" y="18" stroke-linejoin="round" width="30" height="26" fill="rgb(59,176,209)" stroke="rgb(47,140,167)" stroke-width="1" opacity="0.75" />
		</g>
		<g>
			<title>PF08659</title>
			<rect class="PF08659" x="1628" y="18" stroke-linejoin="round" width="17" height="26" fill="rgb(66,209,188)" stroke="rgb(52,167,150)" stroke-width="1" opacity="0.75" />
		</g>
		<g>
			<title>PF00550</title>
			<rect class="PF00550" x="1655" y="18" stroke-linejoin="round" width="6" height="26" fill="rgb(103,191,88)" stroke="rgb(82,152,70)" stroke-width="1" opacity="0.75" />
		</g>
		<g>
			<title>PF00975</title>
			<polygon class="PF00975" points="1670,18 1676,18 1683,25 1683,37 1676,44 1670,44" stroke-linejoin="round" width="13" height="26" fill="rgb(207,80,138)" stroke="rgb(165,63,110)" stroke-width="1" opacity="0.75" />
		</g>
	</g>
	<g>
		<title>borI</title>
		<polygon class="borI" points="1692,16 1704,16 1704,1 1734,31 1704,61 1704,46 1692,46" fill="rgb(188,250,245)" fill-opacity="1.0" stroke="rgb(75,100,97)" stroke-width="1" />
		<g>
			<title>PF00067</title>
			<polygon class="PF00067" points="1709,18 1718,18 1731,31 1731,31 1718,44 1709,44" stroke-linejoin="round" width="22" height="26" fill="rgb(85,216,107)" stroke="rgb(68,172,85)" stroke-width="1" opacity="0.75" />
		</g>
	</g>
	<g>
		<title>borJ</title>
		<polygon class="borJ" points="1738,16 1753,16 1753,1 1783,31 1753,61 1753,46 1738,46" fill="rgb(214,253,221)" fill-opacity="1.0" stroke="rgb(85,101,88)" stroke-width="1" />
		<g>
			<title>PF00202</title>
			<polygon class="PF00202" points="1740,18 1767,18 1780,31 1767,44 1740,44" stroke-linejoin="round" width="42" height="26" fill="rgb(49,163,189)" stroke="rgb(39,130,151)" stroke-width="1" opacity="0.75" />
		</g>
	</g>
	<g>
		<title>borK</title>
		<polygon class="borK" points="1783,16 1786,16 1786,1 1816,31 1786,61 1786,46 1783,46" fill="rgb(177,207,250)" fill-opacity="1.0" stroke="rgb(70,82,100)" stroke-width="1" />
		<g>
			<title>PF08240</title>
			<rect class="PF08240" x="1786" y="18" stroke-linejoin="round" width="6" height="26" fill="rgb(211,65,138)" stroke="rgb(168,51,110)" stroke-width="1" opacity="0.75" />
		</g>
		<g>
			<title>PF00107</title>
			<polygon class="PF00107" points="1799,18 1800,18 1811,29 1811,33 1800,44 1799,44" stroke-linejoin="round" width="12" height="26" fill="rgb(81,108,215)" stroke="rgb(64,86,172)" stroke-width="1" opacity="0.75" />
		</g>
	</g>
	<g>
		<title>borL</title>
		<polygon class="borL" points="1817,16 1842,16 1842,1 1872,31 1842,61 1842,46 1817,46" fill="rgb(253,214,246)" fill-opacity="1.0" stroke="rgb(101,85,98)" stroke-width="1" />
		<g>
			<title>PF03321</title>
			<polygon class="PF03321" points="1819,18 1856,18 1869,31 1856,44 1819,44" stroke-linejoin="round" width="51" height="26" fill="rgb(220,187,68)" stroke="rgb(176,149,54)" stroke-width="1" opacity="0.75" />
		</g>
	</g>
	<g>
		<title>borM</title>
		<polygon class="borM" points="1873,16 1873,16 1873,1 1903,31 1873,61 1873,46 1873,46" fill="rgb(192,231,254)" fill-opacity="1.0" stroke="rgb(76,92,101)" stroke-width="1" />
		<g>
			<title>PF00296</title>
			<polygon class="PF00296" points="1873,18 1887,18 1897,28 1897,34 1887,44 1873,44" stroke-linejoin="round" width="24" height="26" fill="rgb(180,112,78)" stroke="rgb(144,89,62)" stroke-width="1" opacity="0.75" />
		</g>
	</g>
	<g>
		<title>borN</title>
		<polygon class="borN" points="1904,16 1904,16 1904,1 1928,31 1904,61 1904,46 1904,46" fill="rgb(192,251,213)" fill-opacity="1.0" stroke="rgb(76,100,85)" stroke-width="1" />
		<g>
			<title>PF10370</title>
			<rect class="PF10370" x="1904" y="18" stroke-linejoin="round" width="5" height="26" fill="rgb(120,52,207)" stroke="rgb(95,41,165)" stroke-width="1" opacity="0.75" />
		</g>
		<g>
			<title>PF01557</title>
			<polygon class="PF01557" points="1909,18 1915,18 1925,31 1915,44 1909,44" stroke-linejoin="round" width="19" height="26" fill="rgb(71,203,125)" stroke="rgb(56,162,100)" stroke-width="1" opacity="0.75" />
		</g>
	</g>
	<g>
		<title>borO</title>
		<polygon class="borO" points="1932,16 1969,16 1969,1 1999,31 1969,61 1969,46 1932,46" fill="rgb(232,252,183)" fill-opacity="1.0" stroke="rgb(92,100,73)" stroke-width="1" />
		<g>
			<title>PF07973</title>
			<rect class="PF07973" x="1950" y="18" stroke-linejoin="round" width="5" height="26" fill="rgb(220,97,228)" stroke="rgb(176,77,182)" stroke-width="1" opacity="0.75" />
		</g>
		<g>
			<title>PF00587</title>
			<polygon class="PF00587" points="1966,18 1983,18 1987,22 1987,40 1983,44 1966,44" stroke-linejoin="round" width="21" height="26" fill="rgb(228,96,220)" stroke="rgb(182,76,176)" stroke-width="1" opacity="0.75" />
		</g>
		<g>
			<title>PF03129</title>
			<polygon class="PF03129" points="1988,23 1996,31 1996,31 1988,39" stroke-linejoin="round" width="8" height="26" fill="rgb(115,202,95)" stroke="rgb(92,161,76)" stroke-width="1" opacity="0.75" />
		</g>
	</g>
	<g>
		<polygon class="NoName" points="2018,16 2018,16 2018,1 2006,31 2018,61 2018,46 2018,46" fill="rgb(255,255,255)" fill-opacity="1.0" stroke="rgb(50,50,50)" stroke-width="1" />
		<g>
			<title>PF12802</title>
			<polygon class="PF12802" points="2011,23 2013,18 2016,18 2016,44 2013,44 2011,38" stroke-linejoin="round" width="5" height="26" fill="rgb(46,89,185)" stroke="rgb(36,71,148)" stroke-width="1" opacity="0.75" />
		</g>
	</g>
	<g>
		<polygon class="NoName" points="2021,16 2021,16 2021,1 2033,31 2021,61 2021,46 2021,46" fill="rgb(255,255,255)" fill-opacity="1.0" stroke="rgb(50,50,50)" stroke-width="1" />
		<g>
			<title>PF13466</title>
			<polygon class="PF13466" points="2024,18 2025,18 2030,31 2025,44 2024,44" stroke-linejoin="round" width="7" height="26" fill="rgb(206,83,63)" stroke="rgb(164,66,50)" stroke-width="1" opacity="0.75" />
		</g>
	</g>
	<g>
		<polygon class="NoName" points="17,16 73,16 73,1 103,31 73,61 73,46 17,46" fill="rgb(255,255,255)" fill-opacity="1.0" stroke="rgb(50,50,50)" stroke-width="1" />
		<g>
			<title>PF14447</title>
			<rect class="PF14447" x="29" y="18" stroke-linejoin="round" width="4" height="26" fill="rgb(61,113,195)" stroke="rgb(48,90,156)" stroke-width="1" opacity="0.75" />
		</g>
	</g>
	<g>
		<polygon class="NoName" points="2040,16 2040,16 2040,1 2048,31 2040,61 2040,46 2040,46" fill="rgb(255,255,255)" fill-opacity="1.0" stroke="rgb(50,50,50)" stroke-width="1" />
		<g>
			<title>PF17196</title>
			<polygon class="PF17196" points="2040,18 2042,18 2045,31 2042,44 2040,44" stroke-linejoin="round" width="6" height="26" fill="rgb(82,224,127)" stroke="rgb(65,179,101)" stroke-width="1" opacity="0.75" />
		</g>
	</g>
	<g>
		<polygon class="NoName" points="2051,16 2051,16 2051,1 2058,31 2051,61 2051,46 2051,46" fill="rgb(255,255,255)" fill-opacity="1.0" stroke="rgb(50,50,50)" stroke-width="1" />
	</g>
	<g>
		<polygon class="NoName" points="2076,16 2076,16 2076,1 2059,31 2076,61 2076,46 2076,46" fill="rgb(255,255,255)" fill-opacity="1.0" stroke="rgb(50,50,50)" stroke-width="1" />
		<g>
			<title>PF13581</title>
			<polygon class="PF13581" points="2061,31 2068,18 2070,18 2070,44 2068,44" stroke-linejoin="round" width="11" height="26" fill="rgb(86,179,88)" stroke="rgb(68,143,70)" stroke-width="1" opacity="0.75" />
		</g>
	</g>
	<g>
		<polygon class="NoName" points="2097,16 2097,16 2097,1 2087,31 2097,61 2097,46 2097,46" fill="rgb(255,255,255)" fill-opacity="1.0" stroke="rgb(50,50,50)" stroke-width="1" />
		<g>
			<title>PF13673</title>
			<polygon class="PF13673" points="2089,31 2093,18 2095,18 2095,44 2093,44" stroke-linejoin="round" width="7" height="26" fill="rgb(88,180,95)" stroke="rgb(70,144,76)" stroke-width="1" opacity="0.75" />
		</g>
	</g>
	<g>
		<polygon class="NoName" points="2103,16 2103,16 2103,1 2097,31 2103,61 2103,46 2103,46" fill="rgb(255,255,255)" fill-opacity="1.0" stroke="rgb(50,50,50)" stroke-width="1" />
	</g>
	<g>
		<polygon class="NoName" points="2169,16 2136,16 2136,1 2106,31 2136,61 2136,46 2169,46" fill="rgb(255,255,255)" fill-opacity="1.0" stroke="rgb(50,50,50)" stroke-width="1" />
		<g>
			<title>PF06241</title>
			<rect class="PF06241" x="2132" y="18" stroke-linejoin="round" width="10" height="26" fill="rgb(225,107,224)" stroke="rgb(180,85,179)" stroke-width="1" opacity="0.75" />
		</g>
	</g>
	<g>
		<polygon class="NoName" points="2180,16 2180,16 2180,1 2196,31 2180,61 2180,46 2180,46" fill="rgb(255,255,255)" fill-opacity="1.0" stroke="rgb(50,50,50)" stroke-width="1" />
		<g>
			<title>PF01814</title>
			<polygon class="PF01814" points="2180,18 2186,18 2191,26 2191,36 2186,44 2180,44" stroke-linejoin="round" width="11" height="26" fill="rgb(120,91,227)" stroke="rgb(95,72,181)" stroke-width="1" opacity="0.75" />
		</g>
	</g>
	<g>
		<polygon class="NoName" points="2277,16 2229,16 2229,1 2199,31 2229,61 2229,46 2277,46" fill="rgb(255,255,255)" fill-opacity="1.0" stroke="rgb(50,50,50)" stroke-width="1" />
		<g>
			<title>PF01568</title>
			<polygon class="PF01568" points="2201,31 2210,22 2210,39" stroke-linejoin="round" width="10" height="26" fill="rgb(184,132,64)" stroke="rgb(147,105,51)" stroke-width="1" opacity="0.75" />
		</g>
		<g>
			<title>PF00384</title>
			<rect class="PF00384" x="2222" y="18" stroke-linejoin="round" width="41" height="26" fill="rgb(65,194,78)" stroke="rgb(52,155,62)" stroke-width="1" opacity="0.75" />
		</g>
	</g>
	<g>
		<polygon class="NoName" points="2294,16 2294,16 2294,1 2277,31 2294,61 2294,46 2294,46" fill="rgb(255,255,255)" fill-opacity="1.0" stroke="rgb(50,50,50)" stroke-width="1" />
		<g>
			<title>PF03364</title>
			<polygon class="PF03364" points="2282,26 2286,18 2293,18 2293,44 2286,44 2282,35" stroke-linejoin="round" width="11" height="26" fill="rgb(221,94,106)" stroke="rgb(176,75,84)" stroke-width="1" opacity="0.75" />
		</g>
	</g>
	<g>
		<polygon class="NoName" points="2323,16 2323,16 2323,1 2348,31 2323,61 2323,46 2323,46" fill="rgb(255,255,255)" fill-opacity="1.0" stroke="rgb(50,50,50)" stroke-width="1" />
		<g>
			<title>PF04476</title>
			<polygon class="PF04476" points="2323,18 2334,18 2345,31 2334,44 2323,44" stroke-linejoin="round" width="23" height="26" fill="rgb(53,182,128)" stroke="rgb(42,145,102)" stroke-width="1" opacity="0.75" />
		</g>
	</g>
	<g>
		<polygon class="NoName" points="127,16 127,16 127,1 106,31 127,61 127,46 127,46" fill="rgb(255,255,255)" fill-opacity="1.0" stroke="rgb(50,50,50)" stroke-width="1" />
		<g>
			<title>PF01966</title>
			<polygon class="PF01966" points="111,27 117,18 123,18 123,44 117,44 111,34" stroke-linejoin="round" width="12" height="26" fill="rgb(92,193,119)" stroke="rgb(73,154,95)" stroke-width="1" opacity="0.75" />
		</g>
	</g>
	<g>
		<polygon class="NoName" points="2349,16 2365,16 2365,1 2395,31 2365,61 2365,46 2349,46" fill="rgb(255,255,255)" fill-opacity="1.0" stroke="rgb(50,50,50)" stroke-width="1" />
		<g>
			<title>PF00171</title>
			<polygon class="PF00171" points="2349,18 2379,18 2392,31 2379,44 2349,44" stroke-linejoin="round" width="44" height="26" fill="rgb(105,213,139)" stroke="rgb(84,170,111)" stroke-width="1" opacity="0.75" />
		</g>
	</g>
	<g>
		<polygon class="NoName" points="2395,16 2402,16 2402,1 2432,31 2402,61 2402,46 2395,46" fill="rgb(255,255,255)" fill-opacity="1.0" stroke="rgb(50,50,50)" stroke-width="1" />
		<g>
			<title>PF08240</title>
			<rect class="PF08240" x="2398" y="18" stroke-linejoin="round" width="12" height="26" fill="rgb(211,65,138)" stroke="rgb(168,51,110)" stroke-width="1" opacity="0.75" />
		</g>
		<g>
			<title>PF00107</title>
			<polygon class="PF00107" points="2415,18 2416,18 2426,28 2426,34 2416,44 2415,44" stroke-linejoin="round" width="11" height="26" fill="rgb(81,108,215)" stroke="rgb(64,86,172)" stroke-width="1" opacity="0.75" />
		</g>
	</g>
	<g>
		<polygon class="NoName" points="2435,16 2435,16 2435,1 2465,31 2435,61 2435,46 2435,46" fill="rgb(255,255,255)" fill-opacity="1.0" stroke="rgb(50,50,50)" stroke-width="1" />
		<g>
			<title>PF04072</title>
			<polygon class="PF04072" points="2437,18 2449,18 2455,24 2455,38 2449,44 2437,44" stroke-linejoin="round" width="18" height="26" fill="rgb(94,159,219)" stroke="rgb(75,127,175)" stroke-width="1" opacity="0.75" />
		</g>
	</g>
	<g>
		<polygon class="NoName" points="2485,16 2485,16 2485,1 2467,31 2485,61 2485,46 2485,46" fill="rgb(255,255,255)" fill-opacity="1.0" stroke="rgb(50,50,50)" stroke-width="1" />
		<g>
			<title>PF13499</title>
			<polygon class="PF13499" points="2476,19 2477,18 2483,18 2483,44 2477,44 2476,42" stroke-linejoin="round" width="7" height="26" fill="rgb(176,79,197)" stroke="rgb(140,63,157)" stroke-width="1" opacity="0.75" />
		</g>
	</g>
	<g>
		<polygon class="NoName" points="165,16 162,16 162,1 132,31 162,61 162,46 165,46" fill="rgb(255,255,255)" fill-opacity="1.0" stroke="rgb(50,50,50)" stroke-width="1" />
		<g>
			<title>PF12833</title>
			<polygon class="PF12833" points="134,31 140,25 140,36" stroke-linejoin="round" width="7" height="26" fill="rgb(216,58,224)" stroke="rgb(172,46,179)" stroke-width="1" opacity="0.75" />
		</g>
		<g>
			<title>PF01965</title>
			<polygon class="PF01965" points="147,18 147,18 163,18 163,44 147,44 147,43" stroke-linejoin="round" width="16" height="26" fill="rgb(66,224,145)" stroke="rgb(52,179,116)" stroke-width="1" opacity="0.75" />
		</g>
	</g>
	<g>
		<polygon class="NoName" points="171,16 171,16 171,1 198,31 171,61 171,46 171,46" fill="rgb(255,255,255)" fill-opacity="1.0" stroke="rgb(50,50,50)" stroke-width="1" />
		<g>
			<title>PF00561</title>
			<polygon class="PF00561" points="173,18 183,18 195,31 183,44 173,44" stroke-linejoin="round" width="24" height="26" fill="rgb(86,180,151)" stroke="rgb(68,144,120)" stroke-width="1" opacity="0.75" />
		</g>
	</g>
	<g>
		<polygon class="NoName" points="217,16 217,16 217,1 199,31 217,61 217,46 217,46" fill="rgb(255,255,255)" fill-opacity="1.0" stroke="rgb(50,50,50)" stroke-width="1" />
		<g>
			<title>PF02627</title>
			<polygon class="PF02627" points="205,24 209,18 213,18 213,44 209,44 205,37" stroke-linejoin="round" width="8" height="26" fill="rgb(58,205,164)" stroke="rgb(46,164,131)" stroke-width="1" opacity="0.75" />
		</g>
	</g>
	<g>
		<polygon class="NoName" points="219,16 221,16 221,1 251,31 221,61 221,46 219,46" fill="rgb(255,255,255)" fill-opacity="1.0" stroke="rgb(50,50,50)" stroke-width="1" />
		<g>
			<title>PF02678</title>
			<rect class="PF02678" x="223" y="18" stroke-linejoin="round" width="10" height="26" fill="rgb(139,213,61)" stroke="rgb(111,170,48)" stroke-width="1" opacity="0.75" />
		</g>
		<g>
			<title>PF05726</title>
			<polygon class="PF05726" points="238,21 248,31 248,31 238,41" stroke-linejoin="round" width="10" height="26" fill="rgb(68,194,205)" stroke="rgb(54,155,164)" stroke-width="1" opacity="0.75" />
		</g>
	</g>
	<g>
		<title>borB</title>
		<polygon class="borB" points="280,16 280,16 280,1 254,31 280,61 280,46 280,46" fill="rgb(254,213,196)" fill-opacity="1.0" stroke="rgb(101,85,78)" stroke-width="1" />
		<g>
			<title>PF00975</title>
			<polygon class="PF00975" points="256,31 267,18 277,18 277,44 267,44" stroke-linejoin="round" width="22" height="26" fill="rgb(207,80,138)" stroke="rgb(165,63,110)" stroke-width="1" opacity="0.75" />
		</g>
	</g>
	<g>
		<title>borC</title>
		<polygon class="borC" points="306,16 306,16 306,1 280,31 306,61 306,46 306,46" fill="rgb(254,228,208)" fill-opacity="1.0" stroke="rgb(101,91,83)" stroke-width="1" />
		<g>
			<title>PF13561</title>
			<polygon class="PF13561" points="282,31 293,18 304,18 304,44 293,44" stroke-linejoin="round" width="23" height="26" fill="rgb(73,205,127)" stroke="rgb(58,164,101)" stroke-width="1" opacity="0.75" />
		</g>
	</g>
</svg>
