<svg version="1.1" baseProfile="full" xmlns="http://www.w3.org/2000/svg" width="733" height="62">
	<line x1="1" y1="31" x2="732" y2="31" style="stroke:rgb(50,50,50); stroke-width:3 "/>
	<g>
		<polygon class="NoName" points="16,16 16,16 16,1 1,31 16,61 16,46 16,46" fill="rgb(255,255,255)" fill-opacity="1.0" stroke="rgb(50,50,50)" stroke-width="1" />
		<g>
			<title>PF00172</title>
			<polygon class="PF00172" points="8,21 10,18 11,18 11,44 10,44 8,40" stroke-linejoin="round" width="3" height="26" fill="rgb(121,178,76)" stroke="rgb(96,142,60)" stroke-width="1" opacity="0.75" />
		</g>
	</g>
	<g>
		<title>tens1</title>
		<polygon class="tens1" points="58,16 83,16 83,1 113,31 83,61 83,46 58,46" fill="rgb(226,253,193)" fill-opacity="1.0" stroke="rgb(90,101,77)" stroke-width="1" />
		<g>
			<title>PF00067</title>
			<polygon class="PF00067" points="62,18 97,18 107,28 107,34 97,44 62,44" stroke-linejoin="round" width="45" height="26" fill="rgb(85,216,107)" stroke="rgb(68,172,85)" stroke-width="1" opacity="0.75" />
		</g>
	</g>
	<g>
		<title>tens2</title>
		<polygon class="tens2" points="181,16 156,16 156,1 126,31 156,61 156,46 181,46" fill="rgb(203,251,234)" fill-opacity="1.0" stroke="rgb(81,100,93)" stroke-width="1" />
		<g>
			<title>PF00067</title>
			<polygon class="PF00067" points="128,31 141,18 176,18 176,44 141,44" stroke-linejoin="round" width="48" height="26" fill="rgb(85,216,107)" stroke="rgb(68,172,85)" stroke-width="1" opacity="0.75" />
		</g>
	</g>
	<g>
		<title>tens3</title>
		<polygon class="tens3" points="242,16 234,16 234,1 204,31 234,61 234,46 242,46" fill="rgb(216,209,249)" fill-opacity="1.0" stroke="rgb(86,83,99)" stroke-width="1" />
		<g>
			<title>PF00107</title>
			<polygon class="PF00107" points="214,23 219,18 222,18 222,44 219,44 214,38" stroke-linejoin="round" width="8" height="26" fill="rgb(81,108,215)" stroke="rgb(64,86,172)" stroke-width="1" opacity="0.75" />
		</g>
	</g>
	<g>
		<title>tens</title>
		<polygon class="tens" points="265,16 666,16 666,1 696,31 666,61 666,46 265,46" fill="rgb(246,197,250)" fill-opacity="1.0" stroke="rgb(98,78,100)" stroke-width="1" />
		<g>
			<title>PF00109</title>
			<rect class="PF00109" x="266" y="18" stroke-linejoin="round" width="25" height="26" fill="rgb(112,116,228)" stroke="rgb(89,92,182)" stroke-width="1" opacity="0.75" />
		</g>
		<g>
			<title>PF02801</title>
			<rect class="PF02801" x="292" y="18" stroke-linejoin="round" width="12" height="26" fill="rgb(215,78,102)" stroke="rgb(172,62,81)" stroke-width="1" opacity="0.75" />
		</g>
		<g>
			<title>PF16197</title>
			<rect class="PF16197" x="305" y="18" stroke-linejoin="round" width="13" height="26" fill="rgb(68,179,89)" stroke="rgb(54,143,71)" stroke-width="1" opacity="0.75" />
		</g>
		<g>
			<title>PF00698</title>
			<rect class="PF00698" x="323" y="18" stroke-linejoin="round" width="34" height="26" fill="rgb(59,176,209)" stroke="rgb(47,140,167)" stroke-width="1" opacity="0.75" />
		</g>
		<g>
			<title>PF14765</title>
			<rect class="PF14765" x="364" y="18" stroke-linejoin="round" width="32" height="26" fill="rgb(173,56,182)" stroke="rgb(138,44,145)" stroke-width="1" opacity="0.75" />
		</g>
		<g>
			<title>PF08242</title>
			<rect class="PF08242" x="414" y="18" stroke-linejoin="round" width="10" height="26" fill="rgb(187,59,115)" stroke="rgb(149,47,92)" stroke-width="1" opacity="0.75" />
		</g>
		<g>
			<title>PF08659</title>
			<rect class="PF08659" x="485" y="18" stroke-linejoin="round" width="17" height="26" fill="rgb(66,209,188)" stroke="rgb(52,167,150)" stroke-width="1" opacity="0.75" />
		</g>
		<g>
			<title>PF00550</title>
			<rect class="PF00550" x="516" y="18" stroke-linejoin="round" width="6" height="26" fill="rgb(103,191,88)" stroke="rgb(82,152,70)" stroke-width="1" opacity="0.75" />
		</g>
		<g>
			<title>PF00668</title>
			<rect class="PF00668" x="537" y="18" stroke-linejoin="round" width="45" height="26" fill="rgb(224,184,98)" stroke="rgb(179,147,78)" stroke-width="1" opacity="0.75" />
		</g>
		<g>
			<title>PF00501</title>
			<rect class="PF00501" x="584" y="18" stroke-linejoin="round" width="42" height="26" fill="rgb(60,217,223)" stroke="rgb(48,173,178)" stroke-width="1" opacity="0.75" />
		</g>
		<g>
			<title>PF00550</title>
			<rect class="PF00550" x="640" y="18" stroke-linejoin="round" width="7" height="26" fill="rgb(103,191,88)" stroke="rgb(82,152,70)" stroke-width="1" opacity="0.75" />
		</g>
		<g>
			<title>PF07993</title>
			<rect class="PF07993" x="654" y="18" stroke-linejoin="round" width="24" height="26" fill="rgb(100,212,204)" stroke="rgb(80,169,163)" stroke-width="1" opacity="0.75" />
		</g>
	</g>
</svg>
