<svg version="1.1" baseProfile="full" xmlns="http://www.w3.org/2000/svg" width="1388" height="124">
	<line x1="1" y1="31" x2="1387" y2="31" style="stroke:rgb(50,50,50); stroke-width:3 "/>
	<line x1="1" y1="93" x2="177" y2="93" style="stroke:rgb(50,50,50); stroke-width:3 "/>
	<g>
		<title>cahG</title>
		<polygon class="cahG" points="819,16 819,16 819,1 792,31 819,61 819,46 819,46" fill="rgb(227,188,253)" fill-opacity="1.0" stroke="rgb(90,75,101)" stroke-width="1" />
		<g>
			<title>PF12697</title>
			<polygon class="PF12697" points="794,31 806,18 816,18 816,44 806,44" stroke-linejoin="round" width="23" height="26" fill="rgb(113,71,219)" stroke="rgb(90,56,175)" stroke-width="1" opacity="0.75" />
		</g>
	</g>
	<g>
		<title>cahH</title>
		<polygon class="cahH" points="863,16 850,16 850,1 820,31 850,61 850,46 863,46" fill="rgb(212,236,252)" fill-opacity="1.0" stroke="rgb(84,94,100)" stroke-width="1" />
		<g>
			<title>PF05977</title>
			<polygon class="PF05977" points="822,31 835,18 861,18 861,44 835,44" stroke-linejoin="round" width="40" height="26" fill="rgb(80,62,217)" stroke="rgb(64,49,173)" stroke-width="1" opacity="0.75" />
		</g>
	</g>
	<g>
		<title>cahI</title>
		<polygon class="cahI" points="907,16 893,16 893,1 863,31 893,61 893,46 907,46" fill="rgb(254,214,188)" fill-opacity="1.0" stroke="rgb(101,85,75)" stroke-width="1" />
		<g>
			<title>PF00425</title>
			<polygon class="PF00425" points="865,31 878,18 889,18 889,44 878,44" stroke-linejoin="round" width="25" height="26" fill="rgb(188,116,88)" stroke="rgb(150,92,70)" stroke-width="1" opacity="0.75" />
		</g>
	</g>
	<g>
		<title>cahJ</title>
		<polygon class="cahJ" points="915,16 939,16 939,1 969,31 939,61 939,46 915,46" fill="rgb(250,242,188)" fill-opacity="1.0" stroke="rgb(100,96,75)" stroke-width="1" />
		<g>
			<title>PF00501</title>
			<polygon class="PF00501" points="918,18 953,18 958,23 958,39 953,44 918,44" stroke-linejoin="round" width="40" height="26" fill="rgb(60,217,223)" stroke="rgb(48,173,178)" stroke-width="1" opacity="0.75" />
		</g>
		<g>
			<title>PF13193</title>
			<polygon class="PF13193" points="959,24 966,31 966,31 959,38" stroke-linejoin="round" width="7" height="26" fill="rgb(182,50,118)" stroke="rgb(145,39,94)" stroke-width="1" opacity="0.75" />
		</g>
	</g>
	<g>
		<title>cahT2</title>
		<polygon class="cahT2" points="970,16 975,16 975,1 1005,31 975,61 975,46 970,46" fill="rgb(251,193,214)" fill-opacity="1.0" stroke="rgb(100,77,85)" stroke-width="1" />
		<g>
			<title>PF01032</title>
			<polygon class="PF01032" points="973,18 989,18 1002,31 989,44 973,44" stroke-linejoin="round" width="31" height="26" fill="rgb(210,177,70)" stroke="rgb(168,141,56)" stroke-width="1" opacity="0.75" />
		</g>
	</g>
	<g>
		<title>cahT3</title>
		<polygon class="cahT3" points="1005,16 1010,16 1010,1 1040,31 1010,61 1010,46 1005,46" fill="rgb(253,200,218)" fill-opacity="1.0" stroke="rgb(101,80,87)" stroke-width="1" />
		<g>
			<title>PF01032</title>
			<polygon class="PF01032" points="1008,18 1024,18 1037,31 1024,44 1008,44" stroke-linejoin="round" width="31" height="26" fill="rgb(210,177,70)" stroke="rgb(168,141,56)" stroke-width="1" opacity="0.75" />
		</g>
	</g>
	<g>
		<polygon class="NoName" points="1104,16 1073,16 1073,1 1043,31 1073,61 1073,46 1104,46" fill="rgb(255,255,255)" fill-opacity="1.0" stroke="rgb(50,50,50)" stroke-width="1" />
		<g>
			<title>PF00111</title>
			<polygon class="PF00111" points="1045,31 1050,26 1050,35" stroke-linejoin="round" width="7" height="26" fill="rgb(60,59,191)" stroke="rgb(48,47,152)" stroke-width="1" opacity="0.75" />
		</g>
		<g>
			<title>PF00175</title>
			<polygon class="PF00175" points="1054,22 1058,18 1064,18 1064,44 1058,44 1054,39" stroke-linejoin="round" width="10" height="26" fill="rgb(177,211,96)" stroke="rgb(141,168,76)" stroke-width="1" opacity="0.75" />
		</g>
		<g>
			<title>PF00970</title>
			<rect class="PF00970" x="1066" y="18" stroke-linejoin="round" width="9" height="26" fill="rgb(212,194,103)" stroke="rgb(169,155,82)" stroke-width="1" opacity="0.75" />
		</g>
		<g>
			<title>PF03473</title>
			<rect class="PF03473" x="1078" y="18" stroke-linejoin="round" width="11" height="26" fill="rgb(96,194,162)" stroke="rgb(76,155,129)" stroke-width="1" opacity="0.75" />
		</g>
		<g>
			<title>PF03476</title>
			<rect class="PF03476" x="1092" y="18" stroke-linejoin="round" width="11" height="26" fill="rgb(209,103,209)" stroke="rgb(167,82,167)" stroke-width="1" opacity="0.75" />
		</g>
	</g>
	<g>
		<polygon class="NoName" points="1140,16 1134,16 1134,1 1104,31 1134,61 1134,46 1140,46" fill="rgb(255,255,255)" fill-opacity="1.0" stroke="rgb(50,50,50)" stroke-width="1" />
		<g>
			<title>PF03417</title>
			<polygon class="PF03417" points="1106,31 1119,18 1128,18 1128,44 1119,44" stroke-linejoin="round" width="23" height="26" fill="rgb(101,81,194)" stroke="rgb(80,64,155)" stroke-width="1" opacity="0.75" />
		</g>
	</g>
	<g>
		<polygon class="NoName" points="1174,16 1170,16 1170,1 1140,31 1170,61 1170,46 1174,46" fill="rgb(255,255,255)" fill-opacity="1.0" stroke="rgb(50,50,50)" stroke-width="1" />
		<g>
			<title>PF03576</title>
			<polygon class="PF03576" points="1142,31 1155,18 1170,18 1170,44 1155,44" stroke-linejoin="round" width="30" height="26" fill="rgb(222,70,152)" stroke="rgb(177,56,121)" stroke-width="1" opacity="0.75" />
		</g>
	</g>
	<g>
		<title>cahT4</title>
		<polygon class="cahT4" points="1199,16 1199,16 1199,1 1174,31 1199,61 1199,46 1199,46" fill="rgb(254,192,198)" fill-opacity="1.0" stroke="rgb(101,76,79)" stroke-width="1" />
		<g>
			<title>PF00005</title>
			<polygon class="PF00005" points="1181,25 1187,18 1196,18 1196,44 1187,44 1181,36" stroke-linejoin="round" width="15" height="26" fill="rgb(129,201,63)" stroke="rgb(103,160,50)" stroke-width="1" opacity="0.75" />
		</g>
	</g>
	<g>
		<title>cahMO</title>
		<polygon class="cahMO" points="45,16 31,16 31,1 1,31 31,61 31,46 45,46" fill="rgb(251,214,201)" fill-opacity="1.0" stroke="rgb(100,85,80)" stroke-width="1" />
		<g>
			<title>PF13434</title>
			<polygon class="PF13434" points="9,25 16,18 44,18 44,44 16,44 9,36" stroke-linejoin="round" width="35" height="26" fill="rgb(81,213,119)" stroke="rgb(64,170,95)" stroke-width="1" opacity="0.75" />
		</g>
	</g>
	<g>
		<title>cahT5</title>
		<polygon class="cahT5" points="1232,16 1229,16 1229,1 1199,31 1229,61 1229,46 1232,46" fill="rgb(240,249,193)" fill-opacity="1.0" stroke="rgb(96,99,77)" stroke-width="1" />
		<g>
			<title>PF08352</title>
			<polygon class="PF08352" points="1202,30 1208,24 1208,37 1202,31" stroke-linejoin="round" width="6" height="26" fill="rgb(90,183,173)" stroke="rgb(72,146,138)" stroke-width="1" opacity="0.75" />
		</g>
		<g>
			<title>PF00005</title>
			<polygon class="PF00005" points="1214,18 1214,18 1229,18 1229,44 1214,44 1214,43" stroke-linejoin="round" width="15" height="26" fill="rgb(129,201,63)" stroke="rgb(103,160,50)" stroke-width="1" opacity="0.75" />
		</g>
	</g>
	<g>
		<title>cahT6</title>
		<polygon class="cahT6" points="1260,16 1260,16 1260,1 1232,31 1260,61 1260,46 1260,46" fill="rgb(250,253,183)" fill-opacity="1.0" stroke="rgb(100,101,73)" stroke-width="1" />
		<g>
			<title>PF00528</title>
			<polygon class="PF00528" points="1234,31 1246,18 1250,18 1250,44 1246,44" stroke-linejoin="round" width="18" height="26" fill="rgb(77,208,225)" stroke="rgb(61,166,180)" stroke-width="1" opacity="0.75" />
		</g>
	</g>
	<g>
		<title>cahT7</title>
		<polygon class="cahT7" points="1293,16 1291,16 1291,1 1261,31 1291,61 1291,46 1293,46" fill="rgb(185,201,250)" fill-opacity="1.0" stroke="rgb(73,80,100)" stroke-width="1" />
		<g>
			<title>PF00528</title>
			<polygon class="PF00528" points="1263,31 1276,18 1281,18 1281,44 1276,44" stroke-linejoin="round" width="20" height="26" fill="rgb(77,208,225)" stroke="rgb(61,166,180)" stroke-width="1" opacity="0.75" />
		</g>
	</g>
	<g>
		<title>cahT8</title>
		<polygon class="cahT8" points="1344,16 1323,16 1323,1 1293,31 1323,61 1323,46 1344,46" fill="rgb(216,176,250)" fill-opacity="1.0" stroke="rgb(86,70,100)" stroke-width="1" />
		<g>
			<title>PF00496</title>
			<polygon class="PF00496" points="1301,25 1308,18 1336,18 1336,44 1308,44 1301,36" stroke-linejoin="round" width="35" height="26" fill="rgb(199,94,116)" stroke="rgb(159,75,92)" stroke-width="1" opacity="0.75" />
		</g>
	</g>
	<g>
		<title>cahR</title>
		<polygon class="cahR" points="1387,16 1384,16 1384,1 1354,31 1384,61 1384,46 1387,46" fill="rgb(182,254,245)" fill-opacity="1.0" stroke="rgb(72,101,97)" stroke-width="1" />
		<g>
			<title>PF13377</title>
			<polygon class="PF13377" points="1356,31 1369,18 1370,18 1370,44 1369,44" stroke-linejoin="round" width="16" height="26" fill="rgb(101,208,189)" stroke="rgb(80,166,151)" stroke-width="1" opacity="0.75" />
		</g>
		<g>
			<title>PF00356</title>
			<rect class="PF00356" x="1381" y="18" stroke-linejoin="round" width="4" height="26" fill="rgb(66,188,63)" stroke="rgb(52,150,50)" stroke-width="1" opacity="0.75" />
		</g>
	</g>
	<g>
		<title>cahMSAS</title>
		<polygon class="cahMSAS" points="1,78 147,78 147,63 177,93 147,123 147,108 1,108" fill="rgb(199,254,211)" fill-opacity="1.0" stroke="rgb(79,101,84)" stroke-width="1" />
		<g>
			<title>PF00109</title>
			<rect class="PF00109" x="2" y="80" stroke-linejoin="round" width="25" height="26" fill="rgb(112,116,228)" stroke="rgb(89,92,182)" stroke-width="1" opacity="0.75" />
		</g>
		<g>
			<title>PF02801</title>
			<rect class="PF02801" x="28" y="80" stroke-linejoin="round" width="11" height="26" fill="rgb(215,78,102)" stroke="rgb(172,62,81)" stroke-width="1" opacity="0.75" />
		</g>
		<g>
			<title>PF16197</title>
			<rect class="PF16197" x="40" y="80" stroke-linejoin="round" width="12" height="26" fill="rgb(68,179,89)" stroke="rgb(54,143,71)" stroke-width="1" opacity="0.75" />
		</g>
		<g>
			<title>PF00698</title>
			<rect class="PF00698" x="56" y="80" stroke-linejoin="round" width="31" height="26" fill="rgb(59,176,209)" stroke="rgb(47,140,167)" stroke-width="1" opacity="0.75" />
		</g>
		<g>
			<title>PF14765</title>
			<rect class="PF14765" x="92" y="80" stroke-linejoin="round" width="27" height="26" fill="rgb(173,56,182)" stroke="rgb(138,44,145)" stroke-width="1" opacity="0.75" />
		</g>
		<g>
			<title>PF08659</title>
			<rect class="PF08659" x="141" y="80" stroke-linejoin="round" width="19" height="26" fill="rgb(66,209,188)" stroke="rgb(52,167,150)" stroke-width="1" opacity="0.75" />
		</g>
		<g>
			<title>PF00550</title>
			<polygon class="PF00550" points="169,88 174,93 169,98" stroke-linejoin="round" width="6" height="26" fill="rgb(103,191,88)" stroke="rgb(82,152,70)" stroke-width="1" opacity="0.75" />
		</g>
	</g>
	<g>
		<title>cahFT</title>
		<polygon class="cahFT" points="47,16 48,16 48,1 78,31 48,61 48,46 47,46" fill="rgb(178,188,253)" fill-opacity="1.0" stroke="rgb(71,75,101)" stroke-width="1" />
		<g>
			<title>PF00551</title>
			<polygon class="PF00551" points="47,18 62,18 64,20 64,42 62,44 47,44" stroke-linejoin="round" width="17" height="26" fill="rgb(111,183,66)" stroke="rgb(88,146,52)" stroke-width="1" opacity="0.75" />
		</g>
		<g>
			<title>PF02911</title>
			<polygon class="PF02911" points="67,23 75,31 67,39" stroke-linejoin="round" width="10" height="26" fill="rgb(74,115,225)" stroke="rgb(59,92,180)" stroke-width="1" opacity="0.75" />
		</g>
	</g>
	<g>
		<title>cahT1</title>
		<polygon class="cahT1" points="94,16 97,16 97,1 127,31 97,61 97,46 94,46" fill="rgb(252,198,229)" fill-opacity="1.0" stroke="rgb(100,79,91)" stroke-width="1" />
		<g>
			<title>PF01497</title>
			<polygon class="PF01497" points="100,18 111,18 124,31 124,31 111,44 100,44" stroke-linejoin="round" width="24" height="26" fill="rgb(183,226,104)" stroke="rgb(146,180,83)" stroke-width="1" opacity="0.75" />
		</g>
	</g>
	<g>
		<polygon class="NoName" points="246,16 160,16 160,1 130,31 160,61 160,46 246,46" fill="rgb(255,255,255)" fill-opacity="1.0" stroke="rgb(50,50,50)" stroke-width="1" />
		<g>
			<title>PF00550</title>
			<polygon class="PF00550" points="133,30 139,24 139,37 133,31" stroke-linejoin="round" width="6" height="26" fill="rgb(103,191,88)" stroke="rgb(82,152,70)" stroke-width="1" opacity="0.75" />
		</g>
		<g>
			<title>PF13193</title>
			<polygon class="PF13193" points="143,20 145,18 150,18 150,44 145,44 143,41" stroke-linejoin="round" width="7" height="26" fill="rgb(182,50,118)" stroke="rgb(145,39,94)" stroke-width="1" opacity="0.75" />
		</g>
		<g>
			<title>PF00501</title>
			<rect class="PF00501" x="150" y="18" stroke-linejoin="round" width="39" height="26" fill="rgb(60,217,223)" stroke="rgb(48,173,178)" stroke-width="1" opacity="0.75" />
		</g>
		<g>
			<title>PF00668</title>
			<rect class="PF00668" x="193" y="18" stroke-linejoin="round" width="42" height="26" fill="rgb(224,184,98)" stroke="rgb(179,147,78)" stroke-width="1" opacity="0.75" />
		</g>
		<g>
			<title>PF00550</title>
			<rect class="PF00550" x="238" y="18" stroke-linejoin="round" width="6" height="26" fill="rgb(103,191,88)" stroke="rgb(82,152,70)" stroke-width="1" opacity="0.75" />
		</g>
	</g>
	<g>
		<title>cahB</title>
		<polygon class="cahB" points="510,16 278,16 278,1 248,31 278,61 278,46 510,46" fill="rgb(183,250,215)" fill-opacity="1.0" stroke="rgb(73,100,86)" stroke-width="1" />
		<g>
			<title>PF00668</title>
			<polygon class="PF00668" points="250,31 263,18 292,18 292,44 263,44" stroke-linejoin="round" width="42" height="26" fill="rgb(224,184,98)" stroke="rgb(179,147,78)" stroke-width="1" opacity="0.75" />
		</g>
		<g>
			<title>PF00550</title>
			<rect class="PF00550" x="296" y="18" stroke-linejoin="round" width="6" height="26" fill="rgb(103,191,88)" stroke="rgb(82,152,70)" stroke-width="1" opacity="0.75" />
		</g>
		<g>
			<title>PF13193</title>
			<rect class="PF13193" x="305" y="18" stroke-linejoin="round" width="7" height="26" fill="rgb(182,50,118)" stroke="rgb(145,39,94)" stroke-width="1" opacity="0.75" />
		</g>
		<g>
			<title>PF00501</title>
			<rect class="PF00501" x="314" y="18" stroke-linejoin="round" width="39" height="26" fill="rgb(60,217,223)" stroke="rgb(48,173,178)" stroke-width="1" opacity="0.75" />
		</g>
		<g>
			<title>PF00668</title>
			<rect class="PF00668" x="355" y="18" stroke-linejoin="round" width="44" height="26" fill="rgb(224,184,98)" stroke="rgb(179,147,78)" stroke-width="1" opacity="0.75" />
		</g>
		<g>
			<title>PF00550</title>
			<rect class="PF00550" x="401" y="18" stroke-linejoin="round" width="6" height="26" fill="rgb(103,191,88)" stroke="rgb(82,152,70)" stroke-width="1" opacity="0.75" />
		</g>
		<g>
			<title>PF13193</title>
			<rect class="PF13193" x="410" y="18" stroke-linejoin="round" width="7" height="26" fill="rgb(182,50,118)" stroke="rgb(145,39,94)" stroke-width="1" opacity="0.75" />
		</g>
		<g>
			<title>PF00501</title>
			<rect class="PF00501" x="418" y="18" stroke-linejoin="round" width="40" height="26" fill="rgb(60,217,223)" stroke="rgb(48,173,178)" stroke-width="1" opacity="0.75" />
		</g>
		<g>
			<title>PF00668</title>
			<rect class="PF00668" x="461" y="18" stroke-linejoin="round" width="44" height="26" fill="rgb(224,184,98)" stroke="rgb(179,147,78)" stroke-width="1" opacity="0.75" />
		</g>
	</g>
	<g>
		<title>cahC</title>
		<polygon class="cahC" points="661,16 541,16 541,1 511,31 541,61 541,46 661,46" fill="rgb(228,182,252)" fill-opacity="1.0" stroke="rgb(91,72,100)" stroke-width="1" />
		<g>
			<title>PF00668</title>
			<polygon class="PF00668" points="513,31 526,18 554,18 554,44 526,44" stroke-linejoin="round" width="43" height="26" fill="rgb(224,184,98)" stroke="rgb(179,147,78)" stroke-width="1" opacity="0.75" />
		</g>
		<g>
			<title>PF00550</title>
			<rect class="PF00550" x="556" y="18" stroke-linejoin="round" width="6" height="26" fill="rgb(103,191,88)" stroke="rgb(82,152,70)" stroke-width="1" opacity="0.75" />
		</g>
		<g>
			<title>PF13193</title>
			<rect class="PF13193" x="565" y="18" stroke-linejoin="round" width="7" height="26" fill="rgb(182,50,118)" stroke="rgb(145,39,94)" stroke-width="1" opacity="0.75" />
		</g>
		<g>
			<title>PF00501</title>
			<rect class="PF00501" x="573" y="18" stroke-linejoin="round" width="40" height="26" fill="rgb(60,217,223)" stroke="rgb(48,173,178)" stroke-width="1" opacity="0.75" />
		</g>
		<g>
			<title>PF00668</title>
			<rect class="PF00668" x="616" y="18" stroke-linejoin="round" width="43" height="26" fill="rgb(224,184,98)" stroke="rgb(179,147,78)" stroke-width="1" opacity="0.75" />
		</g>
	</g>
	<g>
		<title>cahD</title>
		<polygon class="cahD" points="766,16 691,16 691,1 661,31 691,61 691,46 766,46" fill="rgb(182,254,184)" fill-opacity="1.0" stroke="rgb(72,101,73)" stroke-width="1" />
		<g>
			<title>PF00550</title>
			<polygon class="PF00550" points="664,30 670,24 670,37 664,31" stroke-linejoin="round" width="6" height="26" fill="rgb(103,191,88)" stroke="rgb(82,152,70)" stroke-width="1" opacity="0.75" />
		</g>
		<g>
			<title>PF13193</title>
			<polygon class="PF13193" points="673,21 676,18 680,18 680,44 676,44 673,40" stroke-linejoin="round" width="7" height="26" fill="rgb(182,50,118)" stroke="rgb(145,39,94)" stroke-width="1" opacity="0.75" />
		</g>
		<g>
			<title>PF00501</title>
			<rect class="PF00501" x="681" y="18" stroke-linejoin="round" width="39" height="26" fill="rgb(60,217,223)" stroke="rgb(48,173,178)" stroke-width="1" opacity="0.75" />
		</g>
		<g>
			<title>PF00668</title>
			<rect class="PF00668" x="722" y="18" stroke-linejoin="round" width="43" height="26" fill="rgb(224,184,98)" stroke="rgb(179,147,78)" stroke-width="1" opacity="0.75" />
		</g>
	</g>
	<g>
		<title>cahE</title>
		<polygon class="cahE" points="774,16 774,16 774,1 767,31 774,61 774,46 774,46" fill="rgb(201,191,252)" fill-opacity="1.0" stroke="rgb(80,76,100)" stroke-width="1" />
		<g>
			<title>PF03621</title>
			<polygon class="PF03621" points="769,31 772,18 774,18 774,44 772,44" stroke-linejoin="round" width="5" height="26" fill="rgb(212,165,97)" stroke="rgb(169,132,77)" stroke-width="1" opacity="0.75" />
		</g>
	</g>
	<g>
		<title>cahF</title>
		<polygon class="cahF" points="790,16 790,16 790,1 774,31 790,61 790,46 790,46" fill="rgb(199,198,251)" fill-opacity="1.0" stroke="rgb(79,79,100)" stroke-width="1" />
		<g>
			<title>PF02261</title>
			<polygon class="PF02261" points="778,27 783,18 789,18 789,44 783,44 778,34" stroke-linejoin="round" width="11" height="26" fill="rgb(223,94,196)" stroke="rgb(178,75,156)" stroke-width="1" opacity="0.75" />
		</g>
	</g>
</svg>
