<svg version="1.1" baseProfile="full" xmlns="http://www.w3.org/2000/svg" width="1274" height="62">
	<line x1="1" y1="31" x2="1273" y2="31" style="stroke:rgb(50,50,50); stroke-width:3 "/>
	<g>
		<polygon class="NoName" points="407,16 407,16 407,1 429,31 407,61 407,46 407,46" fill="rgb(255,255,255)" fill-opacity="1.0" stroke="rgb(50,50,50)" stroke-width="1" />
		<g>
			<title>PF12697</title>
			<polygon class="PF12697" points="407,18 416,18 426,31 416,44 407,44" stroke-linejoin="round" width="20" height="26" fill="rgb(113,71,219)" stroke="rgb(90,56,175)" stroke-width="1" opacity="0.75" />
		</g>
	</g>
	<g>
		<polygon class="NoName" points="438,16 447,16 447,1 477,31 447,61 447,46 438,46" fill="rgb(255,255,255)" fill-opacity="1.0" stroke="rgb(50,50,50)" stroke-width="1" />
		<g>
			<title>PF01263</title>
			<polygon class="PF01263" points="443,18 461,18 474,31 461,44 443,44" stroke-linejoin="round" width="33" height="26" fill="rgb(76,203,227)" stroke="rgb(60,162,181)" stroke-width="1" opacity="0.75" />
		</g>
	</g>
	<g>
		<polygon class="NoName" points="480,16 487,16 487,1 517,31 487,61 487,46 480,46" fill="rgb(255,255,255)" fill-opacity="1.0" stroke="rgb(50,50,50)" stroke-width="1" />
		<g>
			<title>PF13407</title>
			<polygon class="PF13407" points="486,18 501,18 512,29 512,33 501,44 486,44" stroke-linejoin="round" width="26" height="26" fill="rgb(124,182,50)" stroke="rgb(99,145,39)" stroke-width="1" opacity="0.75" />
		</g>
	</g>
	<g>
		<polygon class="NoName" points="518,16 523,16 523,1 553,31 523,61 523,46 518,46" fill="rgb(255,255,255)" fill-opacity="1.0" stroke="rgb(50,50,50)" stroke-width="1" />
		<g>
			<title>PF02653</title>
			<polygon class="PF02653" points="524,18 537,18 550,31 550,31 537,44 524,44" stroke-linejoin="round" width="26" height="26" fill="rgb(69,130,196)" stroke="rgb(55,104,156)" stroke-width="1" opacity="0.75" />
		</g>
	</g>
	<g>
		<polygon class="NoName" points="553,16 553,16 553,1 578,31 553,61 553,46 553,46" fill="rgb(255,255,255)" fill-opacity="1.0" stroke="rgb(50,50,50)" stroke-width="1" />
		<g>
			<title>PF00005</title>
			<polygon class="PF00005" points="555,18 564,18 570,25 570,37 564,44 555,44" stroke-linejoin="round" width="15" height="26" fill="rgb(129,201,63)" stroke="rgb(103,160,50)" stroke-width="1" opacity="0.75" />
		</g>
	</g>
	<g>
		<polygon class="NoName" points="603,16 603,16 603,1 578,31 603,61 603,46 603,46" fill="rgb(255,255,255)" fill-opacity="1.0" stroke="rgb(50,50,50)" stroke-width="1" />
		<g>
			<title>PF04672</title>
			<polygon class="PF04672" points="580,31 591,18 603,18 603,44 591,44" stroke-linejoin="round" width="25" height="26" fill="rgb(125,181,73)" stroke="rgb(99,144,58)" stroke-width="1" opacity="0.75" />
		</g>
	</g>
	<g>
		<polygon class="NoName" points="632,16 632,16 632,1 604,31 632,61 632,46 632,46" fill="rgb(255,255,255)" fill-opacity="1.0" stroke="rgb(50,50,50)" stroke-width="1" />
		<g>
			<title>PF00528</title>
			<polygon class="PF00528" points="606,31 618,18 622,18 622,44 618,44" stroke-linejoin="round" width="18" height="26" fill="rgb(77,208,225)" stroke="rgb(61,166,180)" stroke-width="1" opacity="0.75" />
		</g>
	</g>
	<g>
		<polygon class="NoName" points="664,16 664,16 664,1 634,31 664,61 664,46 664,46" fill="rgb(255,255,255)" fill-opacity="1.0" stroke="rgb(50,50,50)" stroke-width="1" />
		<g>
			<title>PF00528</title>
			<polygon class="PF00528" points="636,31 649,18 655,18 655,44 649,44" stroke-linejoin="round" width="21" height="26" fill="rgb(77,208,225)" stroke="rgb(61,166,180)" stroke-width="1" opacity="0.75" />
		</g>
	</g>
	<g>
		<polygon class="NoName" points="708,16 694,16 694,1 664,31 694,61 694,46 708,46" fill="rgb(255,255,255)" fill-opacity="1.0" stroke="rgb(50,50,50)" stroke-width="1" />
		<g>
			<title>PF01547</title>
			<polygon class="PF01547" points="674,23 679,18 700,18 700,44 679,44 674,38" stroke-linejoin="round" width="26" height="26" fill="rgb(195,119,75)" stroke="rgb(156,95,60)" stroke-width="1" opacity="0.75" />
		</g>
	</g>
	<g>
		<title>garA</title>
		<polygon class="garA" points="720,16 720,16 720,1 726,31 720,61 720,46 720,46" fill="rgb(252,220,182)" fill-opacity="1.0" stroke="rgb(100,88,72)" stroke-width="1" />
	</g>
	<g>
		<polygon class="NoName" points="16,16 16,16 16,1 2,31 16,61 16,46 16,46" fill="rgb(255,255,255)" fill-opacity="1.0" stroke="rgb(50,50,50)" stroke-width="1" />
	</g>
	<g>
		<title>garM</title>
		<polygon class="garM" points="728,16 803,16 803,1 833,31 803,61 803,46 728,46" fill="rgb(186,205,250)" fill-opacity="1.0" stroke="rgb(74,82,100)" stroke-width="1" />
		<g>
			<title>PF13575</title>
			<rect class="PF13575" x="748" y="18" stroke-linejoin="round" width="37" height="26" fill="rgb(228,84,217)" stroke="rgb(182,67,173)" stroke-width="1" opacity="0.75" />
		</g>
		<g>
			<title>PF05147</title>
			<polygon class="PF05147" points="797,18 817,18 830,31 817,44 797,44" stroke-linejoin="round" width="34" height="26" fill="rgb(129,182,79)" stroke="rgb(103,145,63)" stroke-width="1" opacity="0.75" />
		</g>
	</g>
	<g>
		<title>garO</title>
		<polygon class="garO" points="835,16 838,16 838,1 868,31 838,61 838,46 835,46" fill="rgb(254,250,190)" fill-opacity="1.0" stroke="rgb(101,100,76)" stroke-width="1" />
		<g>
			<title>PF00296</title>
			<polygon class="PF00296" points="835,18 852,18 865,31 865,31 852,44 835,44" stroke-linejoin="round" width="30" height="26" fill="rgb(180,112,78)" stroke="rgb(144,89,62)" stroke-width="1" opacity="0.75" />
		</g>
	</g>
	<g>
		<title>garR1</title>
		<polygon class="garR1" points="893,16 893,16 893,1 870,31 893,61 893,46 893,46" fill="rgb(254,247,185)" fill-opacity="1.0" stroke="rgb(101,98,74)" stroke-width="1" />
		<g>
			<title>PF00196</title>
			<polygon class="PF00196" points="872,31 876,26 876,35" stroke-linejoin="round" width="5" height="26" fill="rgb(219,94,82)" stroke="rgb(175,75,65)" stroke-width="1" opacity="0.75" />
		</g>
		<g>
			<title>PF00072</title>
			<polygon class="PF00072" points="880,21 882,18 891,18 891,44 882,44 880,40" stroke-linejoin="round" width="11" height="26" fill="rgb(100,107,203)" stroke="rgb(80,85,162)" stroke-width="1" opacity="0.75" />
		</g>
	</g>
	<g>
		<title>garH</title>
		<polygon class="garH" points="978,16 927,16 927,1 897,31 927,61 927,46 978,46" fill="rgb(177,200,252)" fill-opacity="1.0" stroke="rgb(70,80,100)" stroke-width="1" />
		<g>
			<title>PF02687</title>
			<polygon class="PF02687" points="899,31 908,22 908,39" stroke-linejoin="round" width="11" height="26" fill="rgb(126,55,214)" stroke="rgb(100,44,171)" stroke-width="1" opacity="0.75" />
		</g>
		<g>
			<title>PF02687</title>
			<rect class="PF02687" x="941" y="18" stroke-linejoin="round" width="11" height="26" fill="rgb(126,55,214)" stroke="rgb(100,44,171)" stroke-width="1" opacity="0.75" />
		</g>
	</g>
	<g>
		<title>garT</title>
		<polygon class="garT" points="1004,16 1004,16 1004,1 978,31 1004,61 1004,46 1004,46" fill="rgb(207,182,254)" fill-opacity="1.0" stroke="rgb(82,72,101)" stroke-width="1" />
		<g>
			<title>PF00005</title>
			<polygon class="PF00005" points="985,25 991,18 999,18 999,44 991,44 985,36" stroke-linejoin="round" width="14" height="26" fill="rgb(129,201,63)" stroke="rgb(103,160,50)" stroke-width="1" opacity="0.75" />
		</g>
	</g>
	<g>
		<title>garK</title>
		<polygon class="garK" points="1008,16 1015,16 1015,1 1045,31 1015,61 1015,46 1008,46" fill="rgb(253,208,253)" fill-opacity="1.0" stroke="rgb(101,83,101)" stroke-width="1" />
		<g>
			<title>PF07730</title>
			<polygon class="PF07730" points="1025,18 1029,18 1031,20 1031,42 1029,44 1025,44" stroke-linejoin="round" width="6" height="26" fill="rgb(190,53,146)" stroke="rgb(152,42,116)" stroke-width="1" opacity="0.75" />
		</g>
	</g>
	<g>
		<title>garR</title>
		<polygon class="garR" points="1045,16 1045,16 1045,1 1067,31 1045,61 1045,46 1045,46" fill="rgb(208,185,254)" fill-opacity="1.0" stroke="rgb(83,74,101)" stroke-width="1" />
		<g>
			<title>PF00072</title>
			<polygon class="PF00072" points="1045,18 1054,18 1056,20 1056,42 1054,44 1045,44" stroke-linejoin="round" width="11" height="26" fill="rgb(100,107,203)" stroke="rgb(80,85,162)" stroke-width="1" opacity="0.75" />
		</g>
		<g>
			<title>PF00196</title>
			<polygon class="PF00196" points="1060,25 1064,31 1060,37" stroke-linejoin="round" width="5" height="26" fill="rgb(219,94,82)" stroke="rgb(175,75,65)" stroke-width="1" opacity="0.75" />
		</g>
	</g>
	<g>
		<polygon class="NoName" points="1070,16 1120,16 1120,1 1150,31 1120,61 1120,46 1070,46" fill="rgb(255,255,255)" fill-opacity="1.0" stroke="rgb(50,50,50)" stroke-width="1" />
		<g>
			<title>PF00912</title>
			<rect class="PF00912" x="1077" y="18" stroke-linejoin="round" width="18" height="26" fill="rgb(172,107,216)" stroke="rgb(137,85,172)" stroke-width="1" opacity="0.75" />
		</g>
		<g>
			<title>PF00905</title>
			<polygon class="PF00905" points="1106,18 1134,18 1137,21 1137,41 1134,44 1106,44" stroke-linejoin="round" width="31" height="26" fill="rgb(161,226,87)" stroke="rgb(128,180,69)" stroke-width="1" opacity="0.75" />
		</g>
	</g>
	<g>
		<polygon class="NoName" points="1174,16 1174,16 1174,1 1149,31 1174,61 1174,46 1174,46" fill="rgb(255,255,255)" fill-opacity="1.0" stroke="rgb(50,50,50)" stroke-width="1" />
		<g>
			<title>PF05050</title>
			<polygon class="PF05050" points="1151,31 1162,18 1169,18 1169,44 1162,44" stroke-linejoin="round" width="19" height="26" fill="rgb(95,204,52)" stroke="rgb(76,163,41)" stroke-width="1" opacity="0.75" />
		</g>
	</g>
	<g>
		<polygon class="NoName" points="1201,16 1201,16 1201,1 1175,31 1201,61 1201,46 1201,46" fill="rgb(255,255,255)" fill-opacity="1.0" stroke="rgb(50,50,50)" stroke-width="1" />
		<g>
			<title>PF12697</title>
			<polygon class="PF12697" points="1177,31 1188,18 1198,18 1198,44 1188,44" stroke-linejoin="round" width="21" height="26" fill="rgb(113,71,219)" stroke="rgb(90,56,175)" stroke-width="1" opacity="0.75" />
		</g>
	</g>
	<g>
		<polygon class="NoName" points="95,16 95,16 95,1 80,31 95,61 95,46 95,46" fill="rgb(255,255,255)" fill-opacity="1.0" stroke="rgb(50,50,50)" stroke-width="1" />
	</g>
	<g>
		<polygon class="NoName" points="1206,16 1206,16 1206,1 1228,31 1206,61 1206,46 1206,46" fill="rgb(255,255,255)" fill-opacity="1.0" stroke="rgb(50,50,50)" stroke-width="1" />
		<g>
			<title>PF13185</title>
			<polygon class="PF13185" points="1206,18 1215,18 1218,21 1218,41 1215,44 1206,44" stroke-linejoin="round" width="12" height="26" fill="rgb(158,189,90)" stroke="rgb(126,151,72)" stroke-width="1" opacity="0.75" />
		</g>
		<g>
			<title>PF00196</title>
			<polygon class="PF00196" points="1220,24 1225,31 1225,31 1220,38" stroke-linejoin="round" width="5" height="26" fill="rgb(219,94,82)" stroke="rgb(175,75,65)" stroke-width="1" opacity="0.75" />
		</g>
	</g>
	<g>
		<polygon class="NoName" points="1228,16 1228,16 1228,1 1256,31 1228,61 1228,46 1228,46" fill="rgb(255,255,255)" fill-opacity="1.0" stroke="rgb(50,50,50)" stroke-width="1" />
		<g>
			<title>PF01116</title>
			<polygon class="PF01116" points="1228,18 1241,18 1253,31 1241,44 1228,44" stroke-linejoin="round" width="28" height="26" fill="rgb(188,67,71)" stroke="rgb(150,53,56)" stroke-width="1" opacity="0.75" />
		</g>
	</g>
	<g>
		<polygon class="NoName" points="1253,16 1253,16 1253,1 1272,31 1253,61 1253,46 1253,46" fill="rgb(255,255,255)" fill-opacity="1.0" stroke="rgb(50,50,50)" stroke-width="1" />
		<g>
			<title>PF13419</title>
			<polygon class="PF13419" points="1256,18 1261,18 1269,31 1261,44 1256,44" stroke-linejoin="round" width="15" height="26" fill="rgb(60,223,188)" stroke="rgb(48,178,150)" stroke-width="1" opacity="0.75" />
		</g>
	</g>
	<g>
		<polygon class="NoName" points="147,16 126,16 126,1 96,31 126,61 126,46 147,46" fill="rgb(255,255,255)" fill-opacity="1.0" stroke="rgb(50,50,50)" stroke-width="1" />
		<g>
			<title>PF00004</title>
			<polygon class="PF00004" points="107,22 111,18 119,18 119,44 111,44 107,39" stroke-linejoin="round" width="12" height="26" fill="rgb(57,194,204)" stroke="rgb(45,155,163)" stroke-width="1" opacity="0.75" />
		</g>
	</g>
	<g>
		<polygon class="NoName" points="200,16 200,16 200,1 180,31 200,61 200,46 200,46" fill="rgb(255,255,255)" fill-opacity="1.0" stroke="rgb(50,50,50)" stroke-width="1" />
		<g>
			<title>PF01670</title>
			<polygon class="PF01670" points="182,31 191,18 199,18 199,44 191,44" stroke-linejoin="round" width="19" height="26" fill="rgb(214,54,209)" stroke="rgb(171,43,167)" stroke-width="1" opacity="0.75" />
		</g>
	</g>
	<g>
		<polygon class="NoName" points="217,16 217,16 217,1 195,31 217,61 217,46 217,46" fill="rgb(255,255,255)" fill-opacity="1.0" stroke="rgb(50,50,50)" stroke-width="1" />
		<g>
			<title>PF00553</title>
			<polygon class="PF00553" points="203,23 207,18 212,18 212,44 207,44 203,38" stroke-linejoin="round" width="9" height="26" fill="rgb(224,89,220)" stroke="rgb(179,71,176)" stroke-width="1" opacity="0.75" />
		</g>
	</g>
	<g>
		<polygon class="NoName" points="221,16 221,16 221,1 237,31 221,61 221,46 221,46" fill="rgb(255,255,255)" fill-opacity="1.0" stroke="rgb(50,50,50)" stroke-width="1" />
		<g>
			<title>PF00383</title>
			<polygon class="PF00383" points="221,18 227,18 231,25 231,37 227,44 221,44" stroke-linejoin="round" width="10" height="26" fill="rgb(91,149,216)" stroke="rgb(72,119,172)" stroke-width="1" opacity="0.75" />
		</g>
	</g>
	<g>
		<polygon class="NoName" points="259,16 270,16 270,1 300,31 270,61 270,46 259,46" fill="rgb(255,255,255)" fill-opacity="1.0" stroke="rgb(50,50,50)" stroke-width="1" />
	</g>
	<g>
		<polygon class="NoName" points="320,16 320,16 320,1 298,31 320,61 320,46 320,46" fill="rgb(255,255,255)" fill-opacity="1.0" stroke="rgb(50,50,50)" stroke-width="1" />
	</g>
	<g>
		<polygon class="NoName" points="396,16 367,16 367,1 337,31 367,61 367,46 396,46" fill="rgb(255,255,255)" fill-opacity="1.0" stroke="rgb(50,50,50)" stroke-width="1" />
		<g>
			<title>PF02775</title>
			<polygon class="PF02775" points="342,28 352,18 357,18 357,44 352,44 342,33" stroke-linejoin="round" width="15" height="26" fill="rgb(156,179,45)" stroke="rgb(124,143,36)" stroke-width="1" opacity="0.75" />
		</g>
		<g>
			<title>PF00205</title>
			<rect class="PF00205" x="363" y="18" stroke-linejoin="round" width="13" height="26" fill="rgb(149,194,69)" stroke="rgb(119,155,55)" stroke-width="1" opacity="0.75" />
		</g>
		<g>
			<title>PF02776</title>
			<rect class="PF02776" x="379" y="18" stroke-linejoin="round" width="17" height="26" fill="rgb(55,81,185)" stroke="rgb(44,64,148)" stroke-width="1" opacity="0.75" />
		</g>
	</g>
</svg>
