<svg version="1.1" baseProfile="full" xmlns="http://www.w3.org/2000/svg" width="752" height="62">
	<line x1="1" y1="31" x2="751" y2="31" style="stroke:rgb(50,50,50); stroke-width:3 "/>
	<g>
		<title>encB</title>
		<polygon class="encB" points="337,16 347,16 347,1 377,31 347,61 347,46 337,46" fill="rgb(196,252,205)" fill-opacity="1.0" stroke="rgb(78,100,82)" stroke-width="1" />
		<g>
			<title>PF00109</title>
			<rect class="PF00109" x="337" y="18" stroke-linejoin="round" width="24" height="26" fill="rgb(112,116,228)" stroke="rgb(89,92,182)" stroke-width="1" opacity="0.75" />
		</g>
		<g>
			<title>PF02801</title>
			<polygon class="PF02801" points="362,19 373,30 373,32 362,43" stroke-linejoin="round" width="11" height="26" fill="rgb(215,78,102)" stroke="rgb(172,62,81)" stroke-width="1" opacity="0.75" />
		</g>
	</g>
	<g>
		<title>encC</title>
		<polygon class="encC" points="379,16 379,16 379,1 387,31 379,61 379,46 379,46" fill="rgb(188,216,252)" fill-opacity="1.0" stroke="rgb(75,86,100)" stroke-width="1" />
		<g>
			<title>PF00550</title>
			<polygon class="PF00550" points="379,18 381,18 384,31 381,44 379,44" stroke-linejoin="round" width="7" height="26" fill="rgb(103,191,88)" stroke="rgb(82,152,70)" stroke-width="1" opacity="0.75" />
		</g>
	</g>
	<g>
		<title>encL</title>
		<polygon class="encL" points="389,16 393,16 393,1 423,31 393,61 393,46 389,46" fill="rgb(194,253,209)" fill-opacity="1.0" stroke="rgb(77,101,83)" stroke-width="1" />
		<g>
			<title>PF00698</title>
			<polygon class="PF00698" points="390,18 407,18 420,31 407,44 390,44" stroke-linejoin="round" width="31" height="26" fill="rgb(59,176,209)" stroke="rgb(47,140,167)" stroke-width="1" opacity="0.75" />
		</g>
	</g>
	<g>
		<title>encM</title>
		<polygon class="encM" points="425,16 441,16 441,1 471,31 441,61 441,46 425,46" fill="rgb(239,214,254)" fill-opacity="1.0" stroke="rgb(95,85,101)" stroke-width="1" />
		<g>
			<title>PF01565</title>
			<rect class="PF01565" x="429" y="18" stroke-linejoin="round" width="13" height="26" fill="rgb(226,88,136)" stroke="rgb(180,70,108)" stroke-width="1" opacity="0.75" />
		</g>
		<g>
			<title>PF08031</title>
			<polygon class="PF08031" points="466,29 468,31 466,33" stroke-linejoin="round" width="4" height="26" fill="rgb(210,73,83)" stroke="rgb(168,58,66)" stroke-width="1" opacity="0.75" />
		</g>
	</g>
	<g>
		<title>encN</title>
		<polygon class="encN" points="475,16 497,16 497,1 527,31 497,61 497,46 475,46" fill="rgb(252,230,214)" fill-opacity="1.0" stroke="rgb(100,92,85)" stroke-width="1" />
		<g>
			<title>PF00501</title>
			<polygon class="PF00501" points="476,18 511,18 516,23 516,39 511,44 476,44" stroke-linejoin="round" width="40" height="26" fill="rgb(60,217,223)" stroke="rgb(48,173,178)" stroke-width="1" opacity="0.75" />
		</g>
		<g>
			<title>PF13193</title>
			<polygon class="PF13193" points="517,24 524,31 524,31 517,38" stroke-linejoin="round" width="7" height="26" fill="rgb(182,50,118)" stroke="rgb(145,39,94)" stroke-width="1" opacity="0.75" />
		</g>
	</g>
	<g>
		<title>encO</title>
		<polygon class="encO" points="542,16 542,16 542,1 529,31 542,61 542,46 542,46" fill="rgb(223,253,183)" fill-opacity="1.0" stroke="rgb(89,101,73)" stroke-width="1" />
		<g>
			<title>PF14534</title>
			<polygon class="PF14534" points="531,31 537,18 540,18 540,44 537,44" stroke-linejoin="round" width="10" height="26" fill="rgb(63,159,224)" stroke="rgb(50,127,179)" stroke-width="1" opacity="0.75" />
		</g>
	</g>
	<g>
		<title>encP</title>
		<polygon class="encP" points="595,16 573,16 573,1 543,31 573,61 573,46 595,46" fill="rgb(251,198,195)" fill-opacity="1.0" stroke="rgb(100,79,78)" stroke-width="1" />
		<g>
			<title>PF00221</title>
			<polygon class="PF00221" points="546,30 558,18 593,18 593,44 558,44 546,31" stroke-linejoin="round" width="47" height="26" fill="rgb(182,133,62)" stroke="rgb(145,106,49)" stroke-width="1" opacity="0.75" />
		</g>
	</g>
	<g>
		<title>encQ</title>
		<polygon class="encQ" points="613,16 613,16 613,1 605,31 613,61 613,46 613,46" fill="rgb(253,218,206)" fill-opacity="1.0" stroke="rgb(101,87,82)" stroke-width="1" />
		<g>
			<title>PF13459</title>
			<polygon class="PF13459" points="607,31 610,18 611,18 611,44 610,44" stroke-linejoin="round" width="5" height="26" fill="rgb(138,59,179)" stroke="rgb(110,47,143)" stroke-width="1" opacity="0.75" />
		</g>
	</g>
	<g>
		<title>encR</title>
		<polygon class="encR" points="653,16 643,16 643,1 613,31 643,61 643,46 653,46" fill="rgb(178,252,225)" fill-opacity="1.0" stroke="rgb(71,100,90)" stroke-width="1" />
		<g>
			<title>PF00067</title>
			<polygon class="PF00067" points="615,31 625,21 625,40" stroke-linejoin="round" width="11" height="26" fill="rgb(85,216,107)" stroke="rgb(68,172,85)" stroke-width="1" opacity="0.75" />
		</g>
		<g>
			<title>PF00067</title>
			<polygon class="PF00067" points="626,20 628,18 635,18 635,44 628,44 626,41" stroke-linejoin="round" width="9" height="26" fill="rgb(85,216,107)" stroke="rgb(68,172,85)" stroke-width="1" opacity="0.75" />
		</g>
	</g>
	<g>
		<title>encS</title>
		<polygon class="encS" points="678,16 678,16 678,1 657,31 678,61 678,46 678,46" fill="rgb(195,249,235)" fill-opacity="1.0" stroke="rgb(78,99,94)" stroke-width="1" />
		<g>
			<title>PF13977</title>
			<polygon class="PF13977" points="659,31 668,18 669,18 669,44 668,44" stroke-linejoin="round" width="11" height="26" fill="rgb(99,210,174)" stroke="rgb(79,168,139)" stroke-width="1" opacity="0.75" />
		</g>
		<g>
			<title>PF00440</title>
			<rect class="PF00440" x="672" y="18" stroke-linejoin="round" width="4" height="26" fill="rgb(73,212,190)" stroke="rgb(58,169,152)" stroke-width="1" opacity="0.75" />
		</g>
	</g>
	<g>
		<title>encE</title>
		<polygon class="encE" points="18,16 18,16 18,1 34,31 18,61 18,46 18,46" fill="rgb(201,252,190)" fill-opacity="1.0" stroke="rgb(80,100,76)" stroke-width="1" />
		<g>
			<title>PF13411</title>
			<rect class="PF13411" x="18" y="18" stroke-linejoin="round" width="6" height="26" fill="rgb(100,202,107)" stroke="rgb(80,161,85)" stroke-width="1" opacity="0.75" />
		</g>
	</g>
	<g>
		<title>encT</title>
		<polygon class="encT" points="681,16 699,16 699,1 729,31 699,61 699,46 681,46" fill="rgb(186,188,253)" fill-opacity="1.0" stroke="rgb(74,75,101)" stroke-width="1" />
		<g>
			<title>PF07690</title>
			<polygon class="PF07690" points="684,18 713,18 723,28 723,34 713,44 684,44" stroke-linejoin="round" width="39" height="26" fill="rgb(193,224,74)" stroke="rgb(154,179,59)" stroke-width="1" opacity="0.75" />
		</g>
	</g>
	<g>
		<title>encF</title>
		<polygon class="encF" points="59,16 59,16 59,1 87,31 59,61 59,46 59,46" fill="rgb(210,189,251)" fill-opacity="1.0" stroke="rgb(84,75,100)" stroke-width="1" />
		<g>
			<title>PF00486</title>
			<rect class="PF00486" x="60" y="18" stroke-linejoin="round" width="7" height="26" fill="rgb(204,153,57)" stroke="rgb(163,122,45)" stroke-width="1" opacity="0.75" />
		</g>
		<g>
			<title>PF03704</title>
			<polygon class="PF03704" points="69,18 72,18 83,30 83,32 72,44 69,44" stroke-linejoin="round" width="14" height="26" fill="rgb(217,89,196)" stroke="rgb(173,71,156)" stroke-width="1" opacity="0.75" />
		</g>
	</g>
	<g>
		<title>encG</title>
		<polygon class="encG" points="106,16 106,16 106,1 90,31 106,61 106,46 106,46" fill="rgb(202,250,182)" fill-opacity="1.0" stroke="rgb(80,100,72)" stroke-width="1" />
		<g>
			<title>PF13577</title>
			<polygon class="PF13577" points="92,31 99,18 103,18 103,44 99,44" stroke-linejoin="round" width="12" height="26" fill="rgb(68,223,209)" stroke="rgb(54,178,167)" stroke-width="1" opacity="0.75" />
		</g>
	</g>
	<g>
		<title>encH</title>
		<polygon class="encH" points="111,16 134,16 134,1 164,31 134,61 134,46 111,46" fill="rgb(252,254,185)" fill-opacity="1.0" stroke="rgb(100,101,74)" stroke-width="1" />
		<g>
			<title>PF00501</title>
			<polygon class="PF00501" points="114,18 148,18 153,23 153,39 148,44 114,44" stroke-linejoin="round" width="39" height="26" fill="rgb(60,217,223)" stroke="rgb(48,173,178)" stroke-width="1" opacity="0.75" />
		</g>
		<g>
			<title>PF13193</title>
			<polygon class="PF13193" points="154,24 161,31 161,31 154,38" stroke-linejoin="round" width="7" height="26" fill="rgb(182,50,118)" stroke="rgb(145,39,94)" stroke-width="1" opacity="0.75" />
		</g>
	</g>
	<g>
		<title>encI</title>
		<polygon class="encI" points="165,16 165,16 165,1 190,31 165,61 165,46 165,46" fill="rgb(195,253,247)" fill-opacity="1.0" stroke="rgb(78,101,98)" stroke-width="1" />
		<g>
			<title>PF00378</title>
			<polygon class="PF00378" points="166,18 176,18 187,31 176,44 166,44" stroke-linejoin="round" width="23" height="26" fill="rgb(218,72,181)" stroke="rgb(174,57,144)" stroke-width="1" opacity="0.75" />
		</g>
	</g>
	<g>
		<title>encJ</title>
		<polygon class="encJ" points="236,16 226,16 226,1 196,31 226,61 226,46 236,46" fill="rgb(209,232,254)" fill-opacity="1.0" stroke="rgb(83,92,101)" stroke-width="1" />
		<g>
			<title>PF02803</title>
			<polygon class="PF02803" points="198,31 208,21 208,40" stroke-linejoin="round" width="12" height="26" fill="rgb(218,187,56)" stroke="rgb(174,149,44)" stroke-width="1" opacity="0.75" />
		</g>
		<g>
			<title>PF00108</title>
			<polygon class="PF00108" points="209,20 211,18 234,18 234,44 211,44 209,41" stroke-linejoin="round" width="25" height="26" fill="rgb(82,90,195)" stroke="rgb(65,72,156)" stroke-width="1" opacity="0.75" />
		</g>
	</g>
	<g>
		<title>encK</title>
		<polygon class="encK" points="260,16 260,16 260,1 236,31 260,61 260,46 260,46" fill="rgb(209,211,251)" fill-opacity="1.0" stroke="rgb(83,84,100)" stroke-width="1" />
		<g>
			<title>PF13489</title>
			<polygon class="PF13489" points="239,30 248,18 257,18 257,44 248,44 239,31" stroke-linejoin="round" width="18" height="26" fill="rgb(188,189,66)" stroke="rgb(150,151,52)" stroke-width="1" opacity="0.75" />
		</g>
	</g>
	<g>
		<title>encD</title>
		<polygon class="encD" points="287,16 287,16 287,1 261,31 287,61 287,46 287,46" fill="rgb(253,246,191)" fill-opacity="1.0" stroke="rgb(101,98,76)" stroke-width="1" />
		<g>
			<title>PF00106</title>
			<polygon class="PF00106" points="266,28 274,18 285,18 285,44 274,44 266,33" stroke-linejoin="round" width="19" height="26" fill="rgb(182,219,73)" stroke="rgb(145,175,58)" stroke-width="1" opacity="0.75" />
		</g>
	</g>
	<g>
		<title>encA</title>
		<polygon class="encA" points="294,16 306,16 306,1 336,31 306,61 306,46 294,46" fill="rgb(249,190,187)" fill-opacity="1.0" stroke="rgb(99,76,74)" stroke-width="1" />
		<g>
			<title>PF00109</title>
			<rect class="PF00109" x="294" y="18" stroke-linejoin="round" width="25" height="26" fill="rgb(112,116,228)" stroke="rgb(89,92,182)" stroke-width="1" opacity="0.75" />
		</g>
		<g>
			<title>PF02801</title>
			<polygon class="PF02801" points="320,18 320,18 331,29 331,33 320,44 320,44" stroke-linejoin="round" width="11" height="26" fill="rgb(215,78,102)" stroke="rgb(172,62,81)" stroke-width="1" opacity="0.75" />
		</g>
	</g>
</svg>
