<svg version="1.1" baseProfile="full" xmlns="http://www.w3.org/2000/svg" width="1438" height="62">
	<line x1="1" y1="31" x2="1437" y2="31" style="stroke:rgb(50,50,50); stroke-width:3 "/>
	<g>
		<title>mpy6</title>
		<polygon class="mpy6" points="619,16 424,16 424,1 394,31 424,61 424,46 619,46" fill="rgb(198,221,251)" fill-opacity="1.0" stroke="rgb(79,88,100)" stroke-width="1" />
		<g>
			<title>PF07993</title>
			<polygon class="PF07993" points="407,20 409,18 430,18 430,44 409,44 407,41" stroke-linejoin="round" width="23" height="26" fill="rgb(100,212,204)" stroke="rgb(80,169,163)" stroke-width="1" opacity="0.75" />
		</g>
		<g>
			<title>PF00550</title>
			<rect class="PF00550" x="437" y="18" stroke-linejoin="round" width="6" height="26" fill="rgb(103,191,88)" stroke="rgb(82,152,70)" stroke-width="1" opacity="0.75" />
		</g>
		<g>
			<title>PF08659</title>
			<rect class="PF08659" x="453" y="18" stroke-linejoin="round" width="19" height="26" fill="rgb(66,209,188)" stroke="rgb(52,167,150)" stroke-width="1" opacity="0.75" />
		</g>
		<g>
			<title>PF00698</title>
			<rect class="PF00698" x="530" y="18" stroke-linejoin="round" width="31" height="26" fill="rgb(59,176,209)" stroke="rgb(47,140,167)" stroke-width="1" opacity="0.75" />
		</g>
		<g>
			<title>PF16197</title>
			<rect class="PF16197" x="566" y="18" stroke-linejoin="round" width="11" height="26" fill="rgb(68,179,89)" stroke="rgb(54,143,71)" stroke-width="1" opacity="0.75" />
		</g>
		<g>
			<title>PF02801</title>
			<rect class="PF02801" x="578" y="18" stroke-linejoin="round" width="11" height="26" fill="rgb(215,78,102)" stroke="rgb(172,62,81)" stroke-width="1" opacity="0.75" />
		</g>
		<g>
			<title>PF00109</title>
			<rect class="PF00109" x="590" y="18" stroke-linejoin="round" width="25" height="26" fill="rgb(112,116,228)" stroke="rgb(89,92,182)" stroke-width="1" opacity="0.75" />
		</g>
	</g>
	<g>
		<title>mpy7</title>
		<polygon class="mpy7" points="844,16 650,16 650,1 620,31 650,61 650,46 844,46" fill="rgb(236,254,179)" fill-opacity="1.0" stroke="rgb(94,101,71)" stroke-width="1" />
		<g>
			<title>PF00550</title>
			<polygon class="PF00550" points="628,25 634,19 634,42 628,36" stroke-linejoin="round" width="6" height="26" fill="rgb(103,191,88)" stroke="rgb(82,152,70)" stroke-width="1" opacity="0.75" />
		</g>
		<g>
			<title>PF16197</title>
			<rect class="PF16197" x="678" y="18" stroke-linejoin="round" width="11" height="26" fill="rgb(68,179,89)" stroke="rgb(54,143,71)" stroke-width="1" opacity="0.75" />
		</g>
		<g>
			<title>PF02801</title>
			<rect class="PF02801" x="690" y="18" stroke-linejoin="round" width="11" height="26" fill="rgb(215,78,102)" stroke="rgb(172,62,81)" stroke-width="1" opacity="0.75" />
		</g>
		<g>
			<title>PF00109</title>
			<rect class="PF00109" x="703" y="18" stroke-linejoin="round" width="24" height="26" fill="rgb(112,116,228)" stroke="rgb(89,92,182)" stroke-width="1" opacity="0.75" />
		</g>
		<g>
			<title>PF00550</title>
			<rect class="PF00550" x="738" y="18" stroke-linejoin="round" width="6" height="26" fill="rgb(103,191,88)" stroke="rgb(82,152,70)" stroke-width="1" opacity="0.75" />
		</g>
		<g>
			<title>PF00698</title>
			<rect class="PF00698" x="757" y="18" stroke-linejoin="round" width="31" height="26" fill="rgb(59,176,209)" stroke="rgb(47,140,167)" stroke-width="1" opacity="0.75" />
		</g>
		<g>
			<title>PF16197</title>
			<rect class="PF16197" x="793" y="18" stroke-linejoin="round" width="12" height="26" fill="rgb(68,179,89)" stroke="rgb(54,143,71)" stroke-width="1" opacity="0.75" />
		</g>
		<g>
			<title>PF02801</title>
			<rect class="PF02801" x="806" y="18" stroke-linejoin="round" width="11" height="26" fill="rgb(215,78,102)" stroke="rgb(172,62,81)" stroke-width="1" opacity="0.75" />
		</g>
		<g>
			<title>PF00109</title>
			<rect class="PF00109" x="818" y="18" stroke-linejoin="round" width="25" height="26" fill="rgb(112,116,228)" stroke="rgb(89,92,182)" stroke-width="1" opacity="0.75" />
		</g>
	</g>
	<g>
		<title>mpy8</title>
		<polygon class="mpy8" points="848,16 852,16 852,1 882,31 852,61 852,46 848,46" fill="rgb(238,253,207)" fill-opacity="1.0" stroke="rgb(95,101,82)" stroke-width="1" />
		<g>
			<title>PF01648</title>
			<polygon class="PF01648" points="858,18 866,18 867,19 867,43 866,44 858,44" stroke-linejoin="round" width="9" height="26" fill="rgb(85,184,135)" stroke="rgb(68,147,108)" stroke-width="1" opacity="0.75" />
		</g>
	</g>
	<g>
		<title>mpy9</title>
		<polygon class="mpy9" points="882,16 882,16 882,1 910,31 882,61 882,46 882,46" fill="rgb(206,248,250)" fill-opacity="1.0" stroke="rgb(82,99,100)" stroke-width="1" />
		<g>
			<title>PF00975</title>
			<polygon class="PF00975" points="884,18 895,18 906,30 906,32 895,44 884,44" stroke-linejoin="round" width="22" height="26" fill="rgb(207,80,138)" stroke="rgb(165,63,110)" stroke-width="1" opacity="0.75" />
		</g>
	</g>
	<g>
		<title>mpy10</title>
		<polygon class="mpy10" points="916,16 944,16 944,1 974,31 944,61 944,46 916,46" fill="rgb(187,233,252)" fill-opacity="1.0" stroke="rgb(74,93,100)" stroke-width="1" />
		<g>
			<title>PF01494</title>
			<rect class="PF01494" x="917" y="18" stroke-linejoin="round" width="27" height="26" fill="rgb(182,175,59)" stroke="rgb(145,140,47)" stroke-width="1" opacity="0.75" />
		</g>
	</g>
	<g>
		<title>mpy11</title>
		<polygon class="mpy11" points="976,16 1001,16 1001,1 1031,31 1001,61 1001,46 976,46" fill="rgb(183,231,251)" fill-opacity="1.0" stroke="rgb(73,92,100)" stroke-width="1" />
		<g>
			<title>PF01494</title>
			<rect class="PF01494" x="977" y="18" stroke-linejoin="round" width="20" height="26" fill="rgb(182,175,59)" stroke="rgb(145,140,47)" stroke-width="1" opacity="0.75" />
		</g>
	</g>
	<g>
		<title>mpy12</title>
		<polygon class="mpy12" points="1032,16 1032,16 1032,1 1056,31 1032,61 1032,46 1032,46" fill="rgb(250,254,212)" fill-opacity="1.0" stroke="rgb(100,101,84)" stroke-width="1" />
		<g>
			<title>PF01061</title>
			<polygon class="PF01061" points="1032,18 1043,18 1052,30 1052,32 1043,44 1032,44" stroke-linejoin="round" width="20" height="26" fill="rgb(139,217,106)" stroke="rgb(111,173,84)" stroke-width="1" opacity="0.75" />
		</g>
	</g>
	<g>
		<title>mpy13</title>
		<polygon class="mpy13" points="1059,16 1059,16 1059,1 1083,31 1059,61 1059,46 1059,46" fill="rgb(179,254,231)" fill-opacity="1.0" stroke="rgb(71,101,92)" stroke-width="1" />
		<g>
			<title>PF01061</title>
			<polygon class="PF01061" points="1059,18 1070,18 1079,30 1079,32 1070,44 1059,44" stroke-linejoin="round" width="20" height="26" fill="rgb(139,217,106)" stroke="rgb(111,173,84)" stroke-width="1" opacity="0.75" />
		</g>
	</g>
	<g>
		<title>mpy14</title>
		<polygon class="mpy14" points="1084,16 1084,16 1084,1 1108,31 1084,61 1084,46 1084,46" fill="rgb(229,190,251)" fill-opacity="1.0" stroke="rgb(91,76,100)" stroke-width="1" />
		<g>
			<title>PF00005</title>
			<polygon class="PF00005" points="1086,18 1095,18 1099,23 1099,39 1095,44 1086,44" stroke-linejoin="round" width="13" height="26" fill="rgb(129,201,63)" stroke="rgb(103,160,50)" stroke-width="1" opacity="0.75" />
		</g>
	</g>
	<g>
		<title>mpy15</title>
		<polygon class="mpy15" points="1113,16 1113,16 1113,1 1121,31 1113,61 1113,46 1113,46" fill="rgb(213,202,250)" fill-opacity="1.0" stroke="rgb(85,80,100)" stroke-width="1" />
		<g>
			<title>PF00550</title>
			<polygon class="PF00550" points="1113,18 1115,18 1118,31 1115,44 1113,44" stroke-linejoin="round" width="7" height="26" fill="rgb(103,191,88)" stroke="rgb(82,152,70)" stroke-width="1" opacity="0.75" />
		</g>
	</g>
	<g>
		<polygon class="NoName" points="18,16 18,16 18,1 1,31 18,61 18,46 18,46" fill="rgb(255,255,255)" fill-opacity="1.0" stroke="rgb(50,50,50)" stroke-width="1" />
		<g>
			<title>PF07931</title>
			<polygon class="PF07931" points="3,31 10,18 18,18 18,44 10,44" stroke-linejoin="round" width="17" height="26" fill="rgb(172,201,89)" stroke="rgb(137,160,71)" stroke-width="1" opacity="0.75" />
		</g>
	</g>
	<g>
		<title>mpy16</title>
		<polygon class="mpy16" points="1122,16 1136,16 1136,1 1166,31 1136,61 1136,46 1122,46" fill="rgb(211,253,199)" fill-opacity="1.0" stroke="rgb(84,101,79)" stroke-width="1" />
		<g>
			<title>PF04820</title>
			<polygon class="PF04820" points="1131,18 1150,18 1160,28 1160,34 1150,44 1131,44" stroke-linejoin="round" width="29" height="26" fill="rgb(179,74,194)" stroke="rgb(143,59,155)" stroke-width="1" opacity="0.75" />
		</g>
	</g>
	<g>
		<polygon class="NoName" points="1170,16 1202,16 1202,1 1232,31 1202,61 1202,46 1170,46" fill="rgb(255,255,255)" fill-opacity="1.0" stroke="rgb(50,50,50)" stroke-width="1" />
		<g>
			<title>PF01558</title>
			<rect class="PF01558" x="1172" y="18" stroke-linejoin="round" width="19" height="26" fill="rgb(89,196,208)" stroke="rgb(71,156,166)" stroke-width="1" opacity="0.75" />
		</g>
		<g>
			<title>PF01855</title>
			<polygon class="PF01855" points="1195,18 1216,18 1218,20 1218,42 1216,44 1195,44" stroke-linejoin="round" width="23" height="26" fill="rgb(146,196,83)" stroke="rgb(116,156,66)" stroke-width="1" opacity="0.75" />
		</g>
	</g>
	<g>
		<polygon class="NoName" points="1232,16 1238,16 1238,1 1268,31 1238,61 1238,46 1232,46" fill="rgb(255,255,255)" fill-opacity="1.0" stroke="rgb(50,50,50)" stroke-width="1" />
		<g>
			<title>PF02775</title>
			<rect class="PF02775" x="1238" y="18" stroke-linejoin="round" width="14" height="26" fill="rgb(156,179,45)" stroke="rgb(124,143,36)" stroke-width="1" opacity="0.75" />
		</g>
	</g>
	<g>
		<polygon class="NoName" points="1297,16 1297,16 1297,1 1276,31 1297,61 1297,46 1297,46" fill="rgb(255,255,255)" fill-opacity="1.0" stroke="rgb(50,50,50)" stroke-width="1" />
		<g>
			<title>PF00440</title>
			<rect class="PF00440" x="1288" y="18" stroke-linejoin="round" width="4" height="26" fill="rgb(73,212,190)" stroke="rgb(58,169,152)" stroke-width="1" opacity="0.75" />
		</g>
	</g>
	<g>
		<polygon class="NoName" points="1370,16 1341,16 1341,1 1311,31 1341,61 1341,46 1370,46" fill="rgb(255,255,255)" fill-opacity="1.0" stroke="rgb(50,50,50)" stroke-width="1" />
		<g>
			<title>PF13360</title>
			<polygon class="PF13360" points="1315,29 1326,18 1334,18 1334,44 1326,44 1315,32" stroke-linejoin="round" width="19" height="26" fill="rgb(98,210,146)" stroke="rgb(78,168,116)" stroke-width="1" opacity="0.75" />
		</g>
	</g>
	<g>
		<polygon class="NoName" points="1395,16 1406,16 1406,1 1436,31 1406,61 1406,46 1395,46" fill="rgb(255,255,255)" fill-opacity="1.0" stroke="rgb(50,50,50)" stroke-width="1" />
		<g>
			<title>PF13546</title>
			<polygon class="PF13546" points="1398,18 1420,18 1423,21 1423,41 1420,44 1398,44" stroke-linejoin="round" width="25" height="26" fill="rgb(119,52,208)" stroke="rgb(95,41,166)" stroke-width="1" opacity="0.75" />
		</g>
	</g>
	<g>
		<polygon class="NoName" points="34,16 34,16 34,1 56,31 34,61 34,46 34,46" fill="rgb(255,255,255)" fill-opacity="1.0" stroke="rgb(50,50,50)" stroke-width="1" />
		<g>
			<title>PF04264</title>
			<polygon class="PF04264" points="39,18 43,18 53,31 43,44 39,44" stroke-linejoin="round" width="16" height="26" fill="rgb(170,111,224)" stroke="rgb(135,88,179)" stroke-width="1" opacity="0.75" />
		</g>
	</g>
	<g>
		<polygon class="NoName" points="125,16 90,16 90,1 60,31 90,61 90,46 125,46" fill="rgb(255,255,255)" fill-opacity="1.0" stroke="rgb(50,50,50)" stroke-width="1" />
		<g>
			<title>PF00183</title>
			<polygon class="PF00183" points="62,31 75,18 106,18 106,44 75,44" stroke-linejoin="round" width="46" height="26" fill="rgb(214,64,55)" stroke="rgb(171,51,44)" stroke-width="1" opacity="0.75" />
		</g>
		<g>
			<title>PF13589</title>
			<rect class="PF13589" x="107" y="18" stroke-linejoin="round" width="16" height="26" fill="rgb(220,68,225)" stroke="rgb(176,54,180)" stroke-width="1" opacity="0.75" />
		</g>
	</g>
	<g>
		<polygon class="NoName" points="139,16 140,16 140,1 170,31 140,61 140,46 139,46" fill="rgb(255,255,255)" fill-opacity="1.0" stroke="rgb(50,50,50)" stroke-width="1" />
		<g>
			<title>PF00248</title>
			<polygon class="PF00248" points="139,18 154,18 167,31 154,44 139,44" stroke-linejoin="round" width="30" height="26" fill="rgb(225,205,58)" stroke="rgb(180,164,46)" stroke-width="1" opacity="0.75" />
		</g>
	</g>
	<g>
		<title>mpy1</title>
		<polygon class="mpy1" points="195,16 195,16 195,1 177,31 195,61 195,46 195,46" fill="rgb(185,207,253)" fill-opacity="1.0" stroke="rgb(74,82,101)" stroke-width="1" />
		<g>
			<title>PF01613</title>
			<polygon class="PF01613" points="179,31 187,18 191,18 191,44 187,44" stroke-linejoin="round" width="14" height="26" fill="rgb(107,197,222)" stroke="rgb(85,157,177)" stroke-width="1" opacity="0.75" />
		</g>
	</g>
	<g>
		<title>mpy2</title>
		<polygon class="mpy2" points="250,16 226,16 226,1 196,31 226,61 226,46 250,46" fill="rgb(195,197,254)" fill-opacity="1.0" stroke="rgb(77,78,101)" stroke-width="1" />
		<g>
			<title>PF13193</title>
			<polygon class="PF13193" points="198,31 204,25 204,36" stroke-linejoin="round" width="7" height="26" fill="rgb(182,50,118)" stroke="rgb(145,39,94)" stroke-width="1" opacity="0.75" />
		</g>
		<g>
			<title>PF00501</title>
			<polygon class="PF00501" points="205,24 211,18 248,18 248,44 211,44 205,37" stroke-linejoin="round" width="43" height="26" fill="rgb(60,217,223)" stroke="rgb(48,173,178)" stroke-width="1" opacity="0.75" />
		</g>
	</g>
	<g>
		<title>mpy3</title>
		<polygon class="mpy3" points="288,16 280,16 280,1 250,31 280,61 280,46 288,46" fill="rgb(251,244,178)" fill-opacity="1.0" stroke="rgb(100,97,71)" stroke-width="1" />
		<g>
			<title>PF00441</title>
			<polygon class="PF00441" points="252,31 265,18 265,43" stroke-linejoin="round" width="15" height="26" fill="rgb(85,191,117)" stroke="rgb(68,152,93)" stroke-width="1" opacity="0.75" />
		</g>
		<g>
			<title>PF02770</title>
			<rect class="PF02770" x="266" y="18" stroke-linejoin="round" width="9" height="26" fill="rgb(225,186,97)" stroke="rgb(180,148,77)" stroke-width="1" opacity="0.75" />
		</g>
		<g>
			<title>PF02771</title>
			<rect class="PF02771" x="276" y="18" stroke-linejoin="round" width="10" height="26" fill="rgb(105,135,218)" stroke="rgb(84,108,174)" stroke-width="1" opacity="0.75" />
		</g>
	</g>
	<g>
		<title>mpy4</title>
		<polygon class="mpy4" points="334,16 319,16 319,1 289,31 319,61 319,46 334,46" fill="rgb(196,253,215)" fill-opacity="1.0" stroke="rgb(78,101,86)" stroke-width="1" />
		<g>
			<title>PF00999</title>
			<polygon class="PF00999" points="292,30 304,18 331,18 331,44 304,44 292,31" stroke-linejoin="round" width="39" height="26" fill="rgb(229,67,191)" stroke="rgb(183,53,152)" stroke-width="1" opacity="0.75" />
		</g>
	</g>
	<g>
		<title>mpy5</title>
		<polygon class="mpy5" points="393,16 365,16 365,1 335,31 365,61 365,46 393,46" fill="rgb(187,254,231)" fill-opacity="1.0" stroke="rgb(74,101,92)" stroke-width="1" />
	</g>
</svg>
