<svg version="1.1" baseProfile="full" xmlns="http://www.w3.org/2000/svg" width="185" height="248">
	<line x1="1" y1="31" x2="184" y2="31" style="stroke:rgb(50,50,50); stroke-width:3 "/>
	<line x1="1" y1="93" x2="59" y2="93" style="stroke:rgb(50,50,50); stroke-width:3 "/>
	<line x1="1" y1="155" x2="83" y2="155" style="stroke:rgb(50,50,50); stroke-width:3 "/>
	<line x1="1" y1="217" x2="54" y2="217" style="stroke:rgb(50,50,50); stroke-width:3 "/>
	<g>
		<polygon class="NoName" points="1,16 37,16 37,1 67,31 37,61 37,46 1,46" fill="rgb(255,255,255)" fill-opacity="1.0" stroke="rgb(50,50,50)" stroke-width="1" />
		<g>
			<title>PF00676</title>
			<rect class="PF00676" x="3" y="18" stroke-linejoin="round" width="29" height="26" fill="rgb(180,115,48)" stroke="rgb(144,92,38)" stroke-width="1" opacity="0.75" />
		</g>
		<g>
			<title>PF02779</title>
			<polygon class="PF02779" points="35,18 51,18 52,19 52,43 51,44 35,44" stroke-linejoin="round" width="17" height="26" fill="rgb(189,186,84)" stroke="rgb(151,148,67)" stroke-width="1" opacity="0.75" />
		</g>
		<g>
			<title>PF02780</title>
			<polygon class="PF02780" points="54,21 64,31 54,41" stroke-linejoin="round" width="12" height="26" fill="rgb(76,206,101)" stroke="rgb(60,164,80)" stroke-width="1" opacity="0.75" />
		</g>
	</g>
	<g>
		<polygon class="NoName" points="68,16 90,16 90,1 120,31 90,61 90,46 68,46" fill="rgb(255,255,255)" fill-opacity="1.0" stroke="rgb(50,50,50)" stroke-width="1" />
		<g>
			<title>PF00364</title>
			<rect class="PF00364" x="68" y="18" stroke-linejoin="round" width="7" height="26" fill="rgb(67,214,213)" stroke="rgb(53,171,170)" stroke-width="1" opacity="0.75" />
		</g>
		<g>
			<title>PF00198</title>
			<polygon class="PF00198" points="88,18 104,18 107,21 107,41 104,44 88,44" stroke-linejoin="round" width="19" height="26" fill="rgb(204,74,202)" stroke="rgb(163,59,161)" stroke-width="1" opacity="0.75" />
		</g>
		<g>
			<title>PF00550</title>
			<polygon class="PF00550" points="109,23 115,29 115,33 109,39" stroke-linejoin="round" width="6" height="26" fill="rgb(103,191,88)" stroke="rgb(82,152,70)" stroke-width="1" opacity="0.75" />
		</g>
	</g>
	<g>
		<polygon class="NoName" points="120,16 151,16 151,1 181,31 151,61 151,46 120,46" fill="rgb(255,255,255)" fill-opacity="1.0" stroke="rgb(50,50,50)" stroke-width="1" />
		<g>
			<title>PF00109</title>
			<rect class="PF00109" x="124" y="18" stroke-linejoin="round" width="24" height="26" fill="rgb(112,116,228)" stroke="rgb(89,92,182)" stroke-width="1" opacity="0.75" />
		</g>
		<g>
			<title>PF02801</title>
			<rect class="PF02801" x="149" y="18" stroke-linejoin="round" width="12" height="26" fill="rgb(215,78,102)" stroke="rgb(172,62,81)" stroke-width="1" opacity="0.75" />
		</g>
		<g>
			<title>PF16197</title>
			<polygon class="PF16197" points="161,18 165,18 172,25 172,37 165,44 161,44" stroke-linejoin="round" width="11" height="26" fill="rgb(68,179,89)" stroke="rgb(54,143,71)" stroke-width="1" opacity="0.75" />
		</g>
	</g>
	<g>
		<title>fadD</title>
		<polygon class="fadD" points="1,78 27,78 27,63 57,93 27,123 27,108 1,108" fill="rgb(177,195,250)" fill-opacity="1.0" stroke="rgb(70,78,100)" stroke-width="1" />
		<g>
			<title>PF00501</title>
			<polygon class="PF00501" points="3,80 41,80 46,85 46,101 41,106 3,106" stroke-linejoin="round" width="43" height="26" fill="rgb(60,217,223)" stroke="rgb(48,173,178)" stroke-width="1" opacity="0.75" />
		</g>
		<g>
			<title>PF13193</title>
			<polygon class="PF13193" points="47,86 54,93 54,93 47,100" stroke-linejoin="round" width="7" height="26" fill="rgb(182,50,118)" stroke="rgb(145,39,94)" stroke-width="1" opacity="0.75" />
		</g>
	</g>
	<g>
		<polygon class="NoName" points="1,140 2,140 2,125 32,155 2,185 2,170 1,170" fill="rgb(255,255,255)" fill-opacity="1.0" stroke="rgb(50,50,50)" stroke-width="1" />
	</g>
	<g>
		<polygon class="NoName" points="32,140 40,140 40,125 70,155 40,185 40,170 32,170" fill="rgb(255,255,255)" fill-opacity="1.0" stroke="rgb(50,50,50)" stroke-width="1" />
		<g>
			<title>PF08541</title>
			<polygon class="PF08541" points="60,148 67,155 67,155 60,162" stroke-linejoin="round" width="7" height="26" fill="rgb(146,207,81)" stroke="rgb(116,165,64)" stroke-width="1" opacity="0.75" />
		</g>
	</g>
	<g>
		<polygon class="NoName" points="73,140 73,140 73,125 81,155 73,185 73,170 73,170" fill="rgb(255,255,255)" fill-opacity="1.0" stroke="rgb(50,50,50)" stroke-width="1" />
		<g>
			<title>PF00550</title>
			<polygon class="PF00550" points="73,142 75,142 78,155 75,168 73,168" stroke-linejoin="round" width="6" height="26" fill="rgb(103,191,88)" stroke="rgb(82,152,70)" stroke-width="1" opacity="0.75" />
		</g>
	</g>
	<g>
		<polygon class="NoName" points="54,202 31,202 31,187 1,217 31,247 31,232 54,232" fill="rgb(255,255,255)" fill-opacity="1.0" stroke="rgb(50,50,50)" stroke-width="1" />
		<g>
			<title>PF00221</title>
			<polygon class="PF00221" points="4,216 16,204 51,204 51,230 16,230 4,217" stroke-linejoin="round" width="47" height="26" fill="rgb(182,133,62)" stroke="rgb(145,106,49)" stroke-width="1" opacity="0.75" />
		</g>
	</g>
</svg>
