<svg version="1.1" baseProfile="full" xmlns="http://www.w3.org/2000/svg" width="756" height="62">
	<line x1="1" y1="31" x2="755" y2="31" style="stroke:rgb(50,50,50); stroke-width:3 "/>
	<g>
		<title>SCO0498</title>
		<polygon class="SCO0498" points="717,16 702,16 702,1 672,31 702,61 702,46 717,46" fill="rgb(241,254,210)" fill-opacity="1.0" stroke="rgb(96,101,84)" stroke-width="1" />
		<g>
			<title>PF13434</title>
			<polygon class="PF13434" points="681,24 687,18 715,18 715,44 687,44 681,37" stroke-linejoin="round" width="34" height="26" fill="rgb(81,213,119)" stroke="rgb(64,170,95)" stroke-width="1" opacity="0.75" />
		</g>
	</g>
	<g>
		<title>SCO0499</title>
		<polygon class="SCO0499" points="723,16 724,16 724,1 754,31 724,61 724,46 723,46" fill="rgb(250,210,227)" fill-opacity="1.0" stroke="rgb(100,84,90)" stroke-width="1" />
		<g>
			<title>PF00551</title>
			<polygon class="PF00551" points="723,18 738,18 740,20 740,42 738,44 723,44" stroke-linejoin="round" width="17" height="26" fill="rgb(111,183,66)" stroke="rgb(88,146,52)" stroke-width="1" opacity="0.75" />
		</g>
		<g>
			<title>PF02911</title>
			<polygon class="PF02911" points="743,23 751,31 743,39" stroke-linejoin="round" width="10" height="26" fill="rgb(74,115,225)" stroke="rgb(59,92,180)" stroke-width="1" opacity="0.75" />
		</g>
	</g>
	<g>
		<title>SCO0489</title>
		<polygon class="SCO0489" points="8,16 8,16 8,1 1,31 8,61 8,46 8,46" fill="rgb(205,220,252)" fill-opacity="1.0" stroke="rgb(82,88,100)" stroke-width="1" />
		<g>
			<title>PF03621</title>
			<polygon class="PF03621" points="3,31 6,18 7,18 7,44 6,44" stroke-linejoin="round" width="5" height="26" fill="rgb(212,165,97)" stroke="rgb(169,132,77)" stroke-width="1" opacity="0.75" />
		</g>
	</g>
	<g>
		<title>SCO0490</title>
		<polygon class="SCO0490" points="11,16 17,16 17,1 47,31 17,61 17,46 11,46" fill="rgb(241,250,202)" fill-opacity="1.0" stroke="rgb(96,100,80)" stroke-width="1" />
		<g>
			<title>PF00756</title>
			<polygon class="PF00756" points="25,18 31,18 44,31 31,44 25,44" stroke-linejoin="round" width="21" height="26" fill="rgb(217,132,77)" stroke="rgb(173,105,61)" stroke-width="1" opacity="0.75" />
		</g>
	</g>
	<g>
		<title>SCO0491</title>
		<polygon class="SCO0491" points="104,16 80,16 80,1 50,31 80,61 80,46 104,46" fill="rgb(239,211,252)" fill-opacity="1.0" stroke="rgb(95,84,100)" stroke-width="1" />
		<g>
			<title>PF00005</title>
			<polygon class="PF00005" points="57,26 65,18 71,18 71,44 65,44 57,35" stroke-linejoin="round" width="14" height="26" fill="rgb(129,201,63)" stroke="rgb(103,160,50)" stroke-width="1" opacity="0.75" />
		</g>
		<g>
			<title>PF00664</title>
			<rect class="PF00664" x="77" y="18" stroke-linejoin="round" width="26" height="26" fill="rgb(149,226,73)" stroke="rgb(119,180,58)" stroke-width="1" opacity="0.75" />
		</g>
	</g>
	<g>
		<title>SCO0492</title>
		<polygon class="SCO0492" points="470,16 136,16 136,1 106,31 136,61 136,46 470,46" fill="rgb(180,253,205)" fill-opacity="1.0" stroke="rgb(72,101,82)" stroke-width="1" />
		<g>
			<title>PF00550</title>
			<polygon class="PF00550" points="108,31 112,27 112,34" stroke-linejoin="round" width="6" height="26" fill="rgb(103,191,88)" stroke="rgb(82,152,70)" stroke-width="1" opacity="0.75" />
		</g>
		<g>
			<title>PF13193</title>
			<polygon class="PF13193" points="116,23 121,18 123,18 123,44 121,44 116,38" stroke-linejoin="round" width="7" height="26" fill="rgb(182,50,118)" stroke="rgb(145,39,94)" stroke-width="1" opacity="0.75" />
		</g>
		<g>
			<title>PF00501</title>
			<rect class="PF00501" x="124" y="18" stroke-linejoin="round" width="40" height="26" fill="rgb(60,217,223)" stroke="rgb(48,173,178)" stroke-width="1" opacity="0.75" />
		</g>
		<g>
			<title>PF00668</title>
			<rect class="PF00668" x="167" y="18" stroke-linejoin="round" width="41" height="26" fill="rgb(224,184,98)" stroke="rgb(179,147,78)" stroke-width="1" opacity="0.75" />
		</g>
		<g>
			<title>PF00668</title>
			<rect class="PF00668" x="208" y="18" stroke-linejoin="round" width="35" height="26" fill="rgb(224,184,98)" stroke="rgb(179,147,78)" stroke-width="1" opacity="0.75" />
		</g>
		<g>
			<title>PF00550</title>
			<rect class="PF00550" x="249" y="18" stroke-linejoin="round" width="6" height="26" fill="rgb(103,191,88)" stroke="rgb(82,152,70)" stroke-width="1" opacity="0.75" />
		</g>
		<g>
			<title>PF13193</title>
			<rect class="PF13193" x="258" y="18" stroke-linejoin="round" width="6" height="26" fill="rgb(182,50,118)" stroke="rgb(145,39,94)" stroke-width="1" opacity="0.75" />
		</g>
		<g>
			<title>PF00501</title>
			<rect class="PF00501" x="266" y="18" stroke-linejoin="round" width="41" height="26" fill="rgb(60,217,223)" stroke="rgb(48,173,178)" stroke-width="1" opacity="0.75" />
		</g>
		<g>
			<title>PF00668</title>
			<rect class="PF00668" x="309" y="18" stroke-linejoin="round" width="41" height="26" fill="rgb(224,184,98)" stroke="rgb(179,147,78)" stroke-width="1" opacity="0.75" />
		</g>
		<g>
			<title>PF00668</title>
			<rect class="PF00668" x="354" y="18" stroke-linejoin="round" width="42" height="26" fill="rgb(224,184,98)" stroke="rgb(179,147,78)" stroke-width="1" opacity="0.75" />
		</g>
		<g>
			<title>PF00550</title>
			<rect class="PF00550" x="399" y="18" stroke-linejoin="round" width="6" height="26" fill="rgb(103,191,88)" stroke="rgb(82,152,70)" stroke-width="1" opacity="0.75" />
		</g>
		<g>
			<title>PF13193</title>
			<rect class="PF13193" x="408" y="18" stroke-linejoin="round" width="7" height="26" fill="rgb(182,50,118)" stroke="rgb(145,39,94)" stroke-width="1" opacity="0.75" />
		</g>
		<g>
			<title>PF00501</title>
			<rect class="PF00501" x="416" y="18" stroke-linejoin="round" width="39" height="26" fill="rgb(60,217,223)" stroke="rgb(48,173,178)" stroke-width="1" opacity="0.75" />
		</g>
	</g>
	<g>
		<title>SCO0493</title>
		<polygon class="SCO0493" points="532,16 502,16 502,1 472,31 502,61 502,46 532,46" fill="rgb(198,252,223)" fill-opacity="1.0" stroke="rgb(79,100,89)" stroke-width="1" />
		<g>
			<title>PF00005</title>
			<polygon class="PF00005" points="479,26 487,18 493,18 493,44 487,44 479,35" stroke-linejoin="round" width="14" height="26" fill="rgb(129,201,63)" stroke="rgb(103,160,50)" stroke-width="1" opacity="0.75" />
		</g>
		<g>
			<title>PF00664</title>
			<rect class="PF00664" x="501" y="18" stroke-linejoin="round" width="27" height="26" fill="rgb(149,226,73)" stroke="rgb(119,180,58)" stroke-width="1" opacity="0.75" />
		</g>
	</g>
	<g>
		<title>SCO0494</title>
		<polygon class="SCO0494" points="568,16 563,16 563,1 533,31 563,61 563,46 568,46" fill="rgb(216,254,186)" fill-opacity="1.0" stroke="rgb(86,101,74)" stroke-width="1" />
		<g>
			<title>PF01497</title>
			<polygon class="PF01497" points="535,31 548,18 559,18 559,44 548,44" stroke-linejoin="round" width="24" height="26" fill="rgb(183,226,104)" stroke="rgb(146,180,83)" stroke-width="1" opacity="0.75" />
		</g>
	</g>
	<g>
		<title>SCO0495</title>
		<polygon class="SCO0495" points="597,16 597,16 597,1 569,31 597,61 597,46 597,46" fill="rgb(252,216,192)" fill-opacity="1.0" stroke="rgb(100,86,76)" stroke-width="1" />
		<g>
			<title>PF00005</title>
			<polygon class="PF00005" points="579,23 583,18 593,18 593,44 583,44 579,38" stroke-linejoin="round" width="14" height="26" fill="rgb(129,201,63)" stroke="rgb(103,160,50)" stroke-width="1" opacity="0.75" />
		</g>
	</g>
	<g>
		<title>SCO0496</title>
		<polygon class="SCO0496" points="635,16 629,16 629,1 599,31 629,61 629,46 635,46" fill="rgb(186,231,253)" fill-opacity="1.0" stroke="rgb(74,92,101)" stroke-width="1" />
		<g>
			<title>PF01032</title>
			<polygon class="PF01032" points="601,31 614,18 630,18 630,44 614,44" stroke-linejoin="round" width="31" height="26" fill="rgb(210,177,70)" stroke="rgb(168,141,56)" stroke-width="1" opacity="0.75" />
		</g>
	</g>
	<g>
		<title>SCO0497</title>
		<polygon class="SCO0497" points="671,16 666,16 666,1 636,31 666,61 666,46 671,46" fill="rgb(249,183,250)" fill-opacity="1.0" stroke="rgb(99,73,100)" stroke-width="1" />
		<g>
			<title>PF01032</title>
			<polygon class="PF01032" points="638,31 651,18 667,18 667,44 651,44" stroke-linejoin="round" width="31" height="26" fill="rgb(210,177,70)" stroke="rgb(168,141,56)" stroke-width="1" opacity="0.75" />
		</g>
	</g>
</svg>
