<svg version="1.1" baseProfile="full" xmlns="http://www.w3.org/2000/svg" width="3909" height="62">
	<line x1="1" y1="31" x2="3908" y2="31" style="stroke:rgb(50,50,50); stroke-width:3 "/>
	<g>
		<title>sdnE</title>
		<polygon class="sdnE" points="1147,16 1121,16 1121,1 1091,31 1121,61 1121,46 1147,46" fill="rgb(213,187,250)" fill-opacity="1.0" stroke="rgb(85,74,100)" stroke-width="1" />
		<g>
			<title>PF00067</title>
			<polygon class="PF00067" points="1096,28 1106,18 1142,18 1142,44 1106,44 1096,33" stroke-linejoin="round" width="46" height="26" fill="rgb(85,216,107)" stroke="rgb(68,172,85)" stroke-width="1" opacity="0.75" />
		</g>
	</g>
	<g>
		<title>sdnF</title>
		<polygon class="sdnF" points="1170,16 1207,16 1207,1 1237,31 1207,61 1207,46 1170,46" fill="rgb(197,196,251)" fill-opacity="1.0" stroke="rgb(78,78,100)" stroke-width="1" />
		<g>
			<title>PF00067</title>
			<rect class="PF00067" x="1175" y="18" stroke-linejoin="round" width="45" height="26" fill="rgb(85,216,107)" stroke="rgb(68,172,85)" stroke-width="1" opacity="0.75" />
		</g>
	</g>
	<g>
		<title>sdnG</title>
		<polygon class="sdnG" points="1270,16 1270,16 1270,1 1248,31 1270,61 1270,46 1270,46" fill="rgb(213,191,253)" fill-opacity="1.0" stroke="rgb(85,76,101)" stroke-width="1" />
		<g>
			<title>PF12680</title>
			<polygon class="PF12680" points="1258,20 1260,18 1268,18 1268,44 1260,44 1258,41" stroke-linejoin="round" width="10" height="26" fill="rgb(184,69,155)" stroke="rgb(147,55,124)" stroke-width="1" opacity="0.75" />
		</g>
	</g>
	<g>
		<title>sdnH</title>
		<polygon class="sdnH" points="1288,16 1328,16 1328,1 1358,31 1328,61 1328,46 1288,46" fill="rgb(189,220,253)" fill-opacity="1.0" stroke="rgb(75,88,101)" stroke-width="1" />
		<g>
			<title>PF00067</title>
			<rect class="PF00067" x="1298" y="18" stroke-linejoin="round" width="41" height="26" fill="rgb(85,216,107)" stroke="rgb(68,172,85)" stroke-width="1" opacity="0.75" />
		</g>
	</g>
	<g>
		<title>sdnI</title>
		<polygon class="sdnI" points="1446,16 1416,16 1416,1 1386,31 1416,61 1416,46 1446,46" fill="rgb(186,232,252)" fill-opacity="1.0" stroke="rgb(74,92,100)" stroke-width="1" />
		<g>
			<title>PF16363</title>
			<rect class="PF16363" x="1413" y="18" stroke-linejoin="round" width="32" height="26" fill="rgb(162,221,65)" stroke="rgb(129,176,51)" stroke-width="1" opacity="0.75" />
		</g>
	</g>
	<g>
		<title>sdnJ</title>
		<polygon class="sdnJ" points="1474,16 1499,16 1499,1 1529,31 1499,61 1499,46 1474,46" fill="rgb(235,212,253)" fill-opacity="1.0" stroke="rgb(94,84,101)" stroke-width="1" />
	</g>
	<g>
		<title>sdnK</title>
		<polygon class="sdnK" points="1549,16 1556,16 1556,1 1586,31 1556,61 1556,46 1549,46" fill="rgb(197,251,252)" fill-opacity="1.0" stroke="rgb(78,100,100)" stroke-width="1" />
		<g>
			<title>PF00106</title>
			<rect class="PF00106" x="1552" y="18" stroke-linejoin="round" width="15" height="26" fill="rgb(182,219,73)" stroke="rgb(145,175,58)" stroke-width="1" opacity="0.75" />
		</g>
	</g>
	<g>
		<title>sdnL</title>
		<polygon class="sdnL" points="1640,16 1629,16 1629,1 1599,31 1629,61 1629,46 1640,46" fill="rgb(238,254,193)" fill-opacity="1.0" stroke="rgb(95,101,77)" stroke-width="1" />
		<g>
			<title>PF08242</title>
			<polygon class="PF08242" points="1607,25 1614,18 1617,18 1617,44 1614,44 1607,36" stroke-linejoin="round" width="10" height="26" fill="rgb(187,59,115)" stroke="rgb(149,47,92)" stroke-width="1" opacity="0.75" />
		</g>
	</g>
	<g>
		<title>sdnM</title>
		<polygon class="sdnM" points="1715,16 1693,16 1693,1 1663,31 1693,61 1693,46 1715,46" fill="rgb(251,198,215)" fill-opacity="1.0" stroke="rgb(100,79,86)" stroke-width="1" />
	</g>
	<g>
		<title>sdnN</title>
		<polygon class="sdnN" points="1780,16 1764,16 1764,1 1734,31 1764,61 1764,46 1780,46" fill="rgb(233,190,253)" fill-opacity="1.0" stroke="rgb(93,76,101)" stroke-width="1" />
		<g>
			<title>PF01494</title>
			<polygon class="PF01494" points="1747,20 1749,18 1780,18 1780,44 1749,44 1747,41" stroke-linejoin="round" width="33" height="26" fill="rgb(182,175,59)" stroke="rgb(145,140,47)" stroke-width="1" opacity="0.75" />
		</g>
	</g>
	<g>
		<polygon class="NoName" points="149,16 148,16 148,1 118,31 148,61 148,46 149,46" fill="rgb(255,255,255)" fill-opacity="1.0" stroke="rgb(50,50,50)" stroke-width="1" />
		<g>
			<title>PF00581</title>
			<polygon class="PF00581" points="120,31 129,22 129,39" stroke-linejoin="round" width="11" height="26" fill="rgb(145,191,76)" stroke="rgb(116,152,60)" stroke-width="1" opacity="0.75" />
		</g>
		<g>
			<title>PF00581</title>
			<polygon class="PF00581" points="133,18 133,18 145,18 145,44 133,44 133,43" stroke-linejoin="round" width="12" height="26" fill="rgb(145,191,76)" stroke="rgb(116,152,60)" stroke-width="1" opacity="0.75" />
		</g>
	</g>
	<g>
		<title>sdnO</title>
		<polygon class="sdnO" points="1804,16 2082,16 2082,1 2112,31 2082,61 2082,46 1804,46" fill="rgb(192,185,250)" fill-opacity="1.0" stroke="rgb(76,73,100)" stroke-width="1" />
		<g>
			<title>PF00109</title>
			<rect class="PF00109" x="1804" y="18" stroke-linejoin="round" width="25" height="26" fill="rgb(112,116,228)" stroke="rgb(89,92,182)" stroke-width="1" opacity="0.75" />
		</g>
		<g>
			<title>PF02801</title>
			<rect class="PF02801" x="1830" y="18" stroke-linejoin="round" width="11" height="26" fill="rgb(215,78,102)" stroke="rgb(172,62,81)" stroke-width="1" opacity="0.75" />
		</g>
		<g>
			<title>PF16197</title>
			<rect class="PF16197" x="1842" y="18" stroke-linejoin="round" width="12" height="26" fill="rgb(68,179,89)" stroke="rgb(54,143,71)" stroke-width="1" opacity="0.75" />
		</g>
		<g>
			<title>PF00698</title>
			<rect class="PF00698" x="1858" y="18" stroke-linejoin="round" width="32" height="26" fill="rgb(59,176,209)" stroke="rgb(47,140,167)" stroke-width="1" opacity="0.75" />
		</g>
		<g>
			<title>PF14765</title>
			<rect class="PF14765" x="1897" y="18" stroke-linejoin="round" width="34" height="26" fill="rgb(173,56,182)" stroke="rgb(138,44,145)" stroke-width="1" opacity="0.75" />
		</g>
		<g>
			<title>PF08659</title>
			<rect class="PF08659" x="2010" y="18" stroke-linejoin="round" width="18" height="26" fill="rgb(66,209,188)" stroke="rgb(52,167,150)" stroke-width="1" opacity="0.75" />
		</g>
		<g>
			<title>PF00550</title>
			<rect class="PF00550" x="2041" y="18" stroke-linejoin="round" width="6" height="26" fill="rgb(103,191,88)" stroke="rgb(82,152,70)" stroke-width="1" opacity="0.75" />
		</g>
		<g>
			<title>PF00755</title>
			<polygon class="PF00755" points="2053,18 2096,18 2109,31 2096,44 2053,44" stroke-linejoin="round" width="58" height="26" fill="rgb(97,225,203)" stroke="rgb(77,180,162)" stroke-width="1" opacity="0.75" />
		</g>
	</g>
	<g>
		<title>sdnP</title>
		<polygon class="sdnP" points="2144,16 2144,16 2144,1 2173,31 2144,61 2144,46 2144,46" fill="rgb(198,191,250)" fill-opacity="1.0" stroke="rgb(79,76,100)" stroke-width="1" />
	</g>
	<g>
		<title>sdnQ</title>
		<polygon class="sdnQ" points="2213,16 2240,16 2240,1 2270,31 2240,61 2240,46 2213,46" fill="rgb(245,203,251)" fill-opacity="1.0" stroke="rgb(98,81,100)" stroke-width="1" />
		<g>
			<title>PF00067</title>
			<polygon class="PF00067" points="2222,18 2254,18 2266,30 2266,32 2254,44 2222,44" stroke-linejoin="round" width="44" height="26" fill="rgb(85,216,107)" stroke="rgb(68,172,85)" stroke-width="1" opacity="0.75" />
		</g>
	</g>
	<g>
		<title>sdnR</title>
		<polygon class="sdnR" points="2367,16 2398,16 2398,1 2428,31 2398,61 2398,46 2367,46" fill="rgb(252,248,194)" fill-opacity="1.0" stroke="rgb(100,99,77)" stroke-width="1" />
		<g>
			<title>PF00144</title>
			<rect class="PF00144" x="2371" y="18" stroke-linejoin="round" width="34" height="26" fill="rgb(92,159,200)" stroke="rgb(73,127,160)" stroke-width="1" opacity="0.75" />
		</g>
	</g>
	<g>
		<title>sdnS</title>
		<polygon class="sdnS" points="2567,16 2517,16 2517,1 2487,31 2517,61 2517,46 2567,46" fill="rgb(195,250,239)" fill-opacity="1.0" stroke="rgb(78,100,95)" stroke-width="1" />
		<g>
			<title>PF00172</title>
			<rect class="PF00172" x="2561" y="18" stroke-linejoin="round" width="4" height="26" fill="rgb(121,178,76)" stroke="rgb(96,142,60)" stroke-width="1" opacity="0.75" />
		</g>
	</g>
	<g>
		<title>sdnT</title>
		<polygon class="sdnT" points="2623,16 2654,16 2654,1 2684,31 2654,61 2654,46 2623,46" fill="rgb(228,250,209)" fill-opacity="1.0" stroke="rgb(91,100,83)" stroke-width="1" />
		<g>
			<title>PF00067</title>
			<polygon class="PF00067" points="2628,18 2668,18 2677,27 2677,35 2668,44 2628,44" stroke-linejoin="round" width="49" height="26" fill="rgb(85,216,107)" stroke="rgb(68,172,85)" stroke-width="1" opacity="0.75" />
		</g>
	</g>
	<g>
		<polygon class="NoName" points="2729,16 2729,16 2729,1 2754,31 2729,61 2729,46 2729,46" fill="rgb(255,255,255)" fill-opacity="1.0" stroke="rgb(50,50,50)" stroke-width="1" />
		<g>
			<title>PF14099</title>
			<polygon class="PF14099" points="2731,18 2740,18 2751,31 2740,44 2731,44" stroke-linejoin="round" width="21" height="26" fill="rgb(194,179,93)" stroke="rgb(155,143,74)" stroke-width="1" opacity="0.75" />
		</g>
	</g>
	<g>
		<polygon class="NoName" points="2812,16 2827,16 2827,1 2857,31 2827,61 2827,46 2812,46" fill="rgb(255,255,255)" fill-opacity="1.0" stroke="rgb(50,50,50)" stroke-width="1" />
		<g>
			<title>PF07859</title>
			<polygon class="PF07859" points="2824,18 2841,18 2845,22 2845,40 2841,44 2824,44" stroke-linejoin="round" width="21" height="26" fill="rgb(183,51,179)" stroke="rgb(146,40,143)" stroke-width="1" opacity="0.75" />
		</g>
	</g>
	<g>
		<polygon class="NoName" points="2935,16 2970,16 2970,1 3000,31 2970,61 2970,46 2935,46" fill="rgb(255,255,255)" fill-opacity="1.0" stroke="rgb(50,50,50)" stroke-width="1" />
		<g>
			<title>PF03055</title>
			<polygon class="PF03055" points="2939,18 2984,18 2997,31 2997,31 2984,44 2939,44" stroke-linejoin="round" width="58" height="26" fill="rgb(67,104,178)" stroke="rgb(53,83,142)" stroke-width="1" opacity="0.75" />
		</g>
	</g>
	<g>
		<polygon class="NoName" points="3140,16 3153,16 3153,1 3183,31 3153,61 3153,46 3140,46" fill="rgb(255,255,255)" fill-opacity="1.0" stroke="rgb(50,50,50)" stroke-width="1" />
		<g>
			<title>PF02668</title>
			<polygon class="PF02668" points="3151,18 3167,18 3177,28 3177,34 3167,44 3151,44" stroke-linejoin="round" width="26" height="26" fill="rgb(180,79,217)" stroke="rgb(144,63,173)" stroke-width="1" opacity="0.75" />
		</g>
	</g>
	<g>
		<polygon class="NoName" points="257,16 312,16 312,1 342,31 312,61 312,46 257,46" fill="rgb(255,255,255)" fill-opacity="1.0" stroke="rgb(50,50,50)" stroke-width="1" />
	</g>
	<g>
		<polygon class="NoName" points="3275,16 3226,16 3226,1 3196,31 3226,61 3226,46 3275,46" fill="rgb(255,255,255)" fill-opacity="1.0" stroke="rgb(50,50,50)" stroke-width="1" />
	</g>
	<g>
		<polygon class="NoName" points="3340,16 3363,16 3363,1 3393,31 3363,61 3363,46 3340,46" fill="rgb(255,255,255)" fill-opacity="1.0" stroke="rgb(50,50,50)" stroke-width="1" />
		<g>
			<title>PF07714</title>
			<rect class="PF07714" x="3362" y="18" stroke-linejoin="round" width="14" height="26" fill="rgb(90,143,181)" stroke="rgb(72,114,144)" stroke-width="1" opacity="0.75" />
		</g>
	</g>
	<g>
		<polygon class="NoName" points="3477,16 3430,16 3430,1 3400,31 3430,61 3430,46 3477,46" fill="rgb(255,255,255)" fill-opacity="1.0" stroke="rgb(50,50,50)" stroke-width="1" />
		<g>
			<title>PF01425</title>
			<rect class="PF01425" x="3420" y="18" stroke-linejoin="round" width="47" height="26" fill="rgb(195,142,64)" stroke="rgb(156,113,51)" stroke-width="1" opacity="0.75" />
		</g>
	</g>
	<g>
		<polygon class="NoName" points="3631,16 3658,16 3658,1 3688,31 3658,61 3658,46 3631,46" fill="rgb(255,255,255)" fill-opacity="1.0" stroke="rgb(50,50,50)" stroke-width="1" />
		<g>
			<title>PF00355</title>
			<rect class="PF00355" x="3631" y="18" stroke-linejoin="round" width="9" height="26" fill="rgb(186,77,145)" stroke="rgb(148,61,115)" stroke-width="1" opacity="0.75" />
		</g>
		<g>
			<title>PF07992</title>
			<polygon class="PF07992" points="3644,18 3672,18 3674,20 3674,42 3672,44 3644,44" stroke-linejoin="round" width="30" height="26" fill="rgb(83,223,167)" stroke="rgb(66,178,133)" stroke-width="1" opacity="0.75" />
		</g>
		<g>
			<title>PF14759</title>
			<polygon class="PF14759" points="3677,23 3684,30 3684,32 3677,39" stroke-linejoin="round" width="7" height="26" fill="rgb(71,86,184)" stroke="rgb(56,68,147)" stroke-width="1" opacity="0.75" />
		</g>
	</g>
	<g>
		<polygon class="NoName" points="3807,16 3767,16 3767,1 3737,31 3767,61 3767,46 3807,46" fill="rgb(255,255,255)" fill-opacity="1.0" stroke="rgb(50,50,50)" stroke-width="1" />
		<g>
			<title>PF00083</title>
			<rect class="PF00083" x="3757" y="18" stroke-linejoin="round" width="46" height="26" fill="rgb(48,186,105)" stroke="rgb(38,148,84)" stroke-width="1" opacity="0.75" />
		</g>
	</g>
	<g>
		<polygon class="NoName" points="399,16 384,16 384,1 354,31 384,61 384,46 399,46" fill="rgb(255,255,255)" fill-opacity="1.0" stroke="rgb(50,50,50)" stroke-width="1" />
		<g>
			<title>PF02668</title>
			<polygon class="PF02668" points="365,22 369,18 391,18 391,44 369,44 365,39" stroke-linejoin="round" width="26" height="26" fill="rgb(180,79,217)" stroke="rgb(144,63,173)" stroke-width="1" opacity="0.75" />
		</g>
	</g>
	<g>
		<polygon class="NoName" points="516,16 496,16 496,1 466,31 496,61 496,46 516,46" fill="rgb(255,255,255)" fill-opacity="1.0" stroke="rgb(50,50,50)" stroke-width="1" />
		<g>
			<title>PF13649</title>
			<polygon class="PF13649" points="474,25 481,18 484,18 484,44 481,44 474,36" stroke-linejoin="round" width="10" height="26" fill="rgb(227,135,74)" stroke="rgb(181,108,59)" stroke-width="1" opacity="0.75" />
		</g>
	</g>
	<g>
		<polygon class="NoName" points="587,16 571,16 571,1 541,31 571,61 571,46 587,46" fill="rgb(255,255,255)" fill-opacity="1.0" stroke="rgb(50,50,50)" stroke-width="1" />
		<g>
			<title>PF00172</title>
			<rect class="PF00172" x="580" y="18" stroke-linejoin="round" width="3" height="26" fill="rgb(121,178,76)" stroke="rgb(96,142,60)" stroke-width="1" opacity="0.75" />
		</g>
	</g>
	<g>
		<title>sdnA</title>
		<polygon class="sdnA" points="832,16 809,16 809,1 779,31 809,61 809,46 832,46" fill="rgb(251,204,212)" fill-opacity="1.0" stroke="rgb(100,81,84)" stroke-width="1" />
	</g>
	<g>
		<title>sdnB</title>
		<polygon class="sdnB" points="926,16 893,16 893,1 863,31 893,61 893,46 926,46" fill="rgb(205,254,218)" fill-opacity="1.0" stroke="rgb(82,101,87)" stroke-width="1" />
		<g>
			<title>PF00067</title>
			<polygon class="PF00067" points="872,24 878,18 909,18 909,44 878,44 872,37" stroke-linejoin="round" width="37" height="26" fill="rgb(85,216,107)" stroke="rgb(68,172,85)" stroke-width="1" opacity="0.75" />
		</g>
	</g>
	<g>
		<title>sdnC</title>
		<polygon class="sdnC" points="939,16 967,16 967,1 997,31 967,61 967,46 939,46" fill="rgb(213,250,200)" fill-opacity="1.0" stroke="rgb(85,100,80)" stroke-width="1" />
		<g>
			<title>PF00348</title>
			<polygon class="PF00348" points="961,18 981,18 986,23 986,39 981,44 961,44" stroke-linejoin="round" width="25" height="26" fill="rgb(61,206,65)" stroke="rgb(48,164,52)" stroke-width="1" opacity="0.75" />
		</g>
	</g>
	<g>
		<title>sdnD</title>
		<polygon class="sdnD" points="1046,16 1046,16 1046,1 1020,31 1046,61 1046,46 1046,46" fill="rgb(215,251,209)" fill-opacity="1.0" stroke="rgb(86,100,83)" stroke-width="1" />
		<g>
			<title>PF05050</title>
			<polygon class="PF05050" points="1022,31 1033,18 1040,18 1040,44 1033,44" stroke-linejoin="round" width="18" height="26" fill="rgb(95,204,52)" stroke="rgb(76,163,41)" stroke-width="1" opacity="0.75" />
		</g>
	</g>
</svg>
