<svg version="1.1" baseProfile="full" xmlns="http://www.w3.org/2000/svg" width="371" height="62">
	<line x1="1" y1="31" x2="370" y2="31" style="stroke:rgb(50,50,50); stroke-width:3 "/>
	<g>
		<title>bmp7</title>
		<polygon class="bmp7" points="321,16 340,16 340,1 370,31 340,61 340,46 321,46" fill="rgb(218,250,208)" fill-opacity="1.0" stroke="rgb(87,100,83)" stroke-width="1" />
		<g>
			<title>PF00067</title>
			<polygon class="PF00067" points="323,18 354,18 367,31 354,44 323,44" stroke-linejoin="round" width="46" height="26" fill="rgb(85,216,107)" stroke="rgb(68,172,85)" stroke-width="1" opacity="0.75" />
		</g>
	</g>
	<g>
		<title>bmp10</title>
		<polygon class="bmp10" points="40,16 31,16 31,1 1,31 31,61 31,46 40,46" fill="rgb(207,215,252)" fill-opacity="1.0" stroke="rgb(82,86,100)" stroke-width="1" />
		<g>
			<title>PF14759</title>
			<polygon class="PF14759" points="3,31 7,27 7,34" stroke-linejoin="round" width="6" height="26" fill="rgb(71,86,184)" stroke="rgb(56,68,147)" stroke-width="1" opacity="0.75" />
		</g>
		<g>
			<title>PF07992</title>
			<polygon class="PF07992" points="9,25 16,18 39,18 39,44 16,44 9,36" stroke-linejoin="round" width="30" height="26" fill="rgb(83,223,167)" stroke="rgb(66,178,133)" stroke-width="1" opacity="0.75" />
		</g>
	</g>
	<g>
		<title>bmp9</title>
		<polygon class="bmp9" points="51,16 51,16 51,1 41,31 51,61 51,46 51,46" fill="rgb(253,208,224)" fill-opacity="1.0" stroke="rgb(101,83,89)" stroke-width="1" />
		<g>
			<title>PF00111</title>
			<polygon class="PF00111" points="43,31 47,18 50,18 50,44 47,44" stroke-linejoin="round" width="8" height="26" fill="rgb(60,59,191)" stroke="rgb(48,47,152)" stroke-width="1" opacity="0.75" />
		</g>
	</g>
	<g>
		<title>bmp8</title>
		<polygon class="bmp8" points="71,16 71,16 71,1 52,31 71,61 71,46 71,46" fill="rgb(212,249,191)" fill-opacity="1.0" stroke="rgb(84,99,76)" stroke-width="1" />
	</g>
	<g>
		<title>bmp1</title>
		<polygon class="bmp1" points="80,16 85,16 85,1 115,31 85,61 85,46 80,46" fill="rgb(231,201,250)" fill-opacity="1.0" stroke="rgb(92,80,100)" stroke-width="1" />
		<g>
			<title>PF00550</title>
			<rect class="PF00550" x="80" y="18" stroke-linejoin="round" width="7" height="26" fill="rgb(103,191,88)" stroke="rgb(82,152,70)" stroke-width="1" opacity="0.75" />
		</g>
		<g>
			<title>PF12697</title>
			<polygon class="PF12697" points="92,18 99,18 112,31 99,44 92,44" stroke-linejoin="round" width="21" height="26" fill="rgb(113,71,219)" stroke="rgb(90,56,175)" stroke-width="1" opacity="0.75" />
		</g>
	</g>
	<g>
		<title>bmp2</title>
		<polygon class="bmp2" points="115,16 125,16 125,1 155,31 125,61 125,46 115,46" fill="rgb(237,209,252)" fill-opacity="1.0" stroke="rgb(94,83,100)" stroke-width="1" />
		<g>
			<title>PF04820</title>
			<polygon class="PF04820" points="123,18 139,18 150,29 150,33 139,44 123,44" stroke-linejoin="round" width="27" height="26" fill="rgb(179,74,194)" stroke="rgb(143,59,155)" stroke-width="1" opacity="0.75" />
		</g>
	</g>
	<g>
		<title>bmp3</title>
		<polygon class="bmp3" points="156,16 164,16 164,1 194,31 164,61 164,46 156,46" fill="rgb(243,216,254)" fill-opacity="1.0" stroke="rgb(97,86,101)" stroke-width="1" />
		<g>
			<title>PF02771</title>
			<rect class="PF02771" x="156" y="18" stroke-linejoin="round" width="11" height="26" fill="rgb(105,135,218)" stroke="rgb(84,108,174)" stroke-width="1" opacity="0.75" />
		</g>
		<g>
			<title>PF02770</title>
			<rect class="PF02770" x="168" y="18" stroke-linejoin="round" width="9" height="26" fill="rgb(225,186,97)" stroke="rgb(180,148,77)" stroke-width="1" opacity="0.75" />
		</g>
		<g>
			<title>PF00441</title>
			<polygon class="PF00441" points="178,18 178,18 191,31 178,44 178,44" stroke-linejoin="round" width="14" height="26" fill="rgb(85,191,117)" stroke="rgb(68,152,93)" stroke-width="1" opacity="0.75" />
		</g>
	</g>
	<g>
		<title>bmp4</title>
		<polygon class="bmp4" points="194,16 215,16 215,1 245,31 215,61 215,46 194,46" fill="rgb(251,186,227)" fill-opacity="1.0" stroke="rgb(100,74,90)" stroke-width="1" />
		<g>
			<title>PF00501</title>
			<polygon class="PF00501" points="195,18 229,18 235,24 235,38 229,44 195,44" stroke-linejoin="round" width="40" height="26" fill="rgb(60,217,223)" stroke="rgb(48,173,178)" stroke-width="1" opacity="0.75" />
		</g>
		<g>
			<title>PF13193</title>
			<polygon class="PF13193" points="235,24 242,31 242,31 235,38" stroke-linejoin="round" width="7" height="26" fill="rgb(182,50,118)" stroke="rgb(145,39,94)" stroke-width="1" opacity="0.75" />
		</g>
	</g>
	<g>
		<title>bmp5</title>
		<polygon class="bmp5" points="247,16 268,16 268,1 298,31 268,61 268,46 247,46" fill="rgb(252,236,202)" fill-opacity="1.0" stroke="rgb(100,94,80)" stroke-width="1" />
		<g>
			<title>PF00743</title>
			<polygon class="PF00743" points="247,18 282,18 295,31 295,31 282,44 247,44" stroke-linejoin="round" width="48" height="26" fill="rgb(203,74,151)" stroke="rgb(162,59,120)" stroke-width="1" opacity="0.75" />
		</g>
	</g>
	<g>
		<title>bmp6</title>
		<polygon class="bmp6" points="300,16 300,16 300,1 321,31 300,61 300,46 300,46" fill="rgb(250,207,201)" fill-opacity="1.0" stroke="rgb(100,82,80)" stroke-width="1" />
		<g>
			<title>PF01947</title>
			<polygon class="PF01947" points="303,18 309,18 318,31 318,31 309,44 303,44" stroke-linejoin="round" width="15" height="26" fill="rgb(200,80,201)" stroke="rgb(160,64,160)" stroke-width="1" opacity="0.75" />
		</g>
	</g>
</svg>
