<svg version="1.1" baseProfile="full" xmlns="http://www.w3.org/2000/svg" width="1608" height="62">
	<line x1="1" y1="31" x2="1607" y2="31" style="stroke:rgb(50,50,50); stroke-width:3 "/>
	<g>
		<title>mppB</title>
		<polygon class="mppB" points="611,16 947,16 947,1 977,31 947,61 947,46 611,46" fill="rgb(254,232,186)" fill-opacity="1.0" stroke="rgb(101,92,74)" stroke-width="1" />
		<g>
			<title>PF00668</title>
			<rect class="PF00668" x="616" y="18" stroke-linejoin="round" width="44" height="26" fill="rgb(224,184,98)" stroke="rgb(179,147,78)" stroke-width="1" opacity="0.75" />
		</g>
		<g>
			<title>PF00501</title>
			<rect class="PF00501" x="663" y="18" stroke-linejoin="round" width="40" height="26" fill="rgb(60,217,223)" stroke="rgb(48,173,178)" stroke-width="1" opacity="0.75" />
		</g>
		<g>
			<title>PF13193</title>
			<rect class="PF13193" x="704" y="18" stroke-linejoin="round" width="7" height="26" fill="rgb(182,50,118)" stroke="rgb(145,39,94)" stroke-width="1" opacity="0.75" />
		</g>
		<g>
			<title>PF00550</title>
			<rect class="PF00550" x="714" y="18" stroke-linejoin="round" width="6" height="26" fill="rgb(103,191,88)" stroke="rgb(82,152,70)" stroke-width="1" opacity="0.75" />
		</g>
		<g>
			<title>PF00668</title>
			<rect class="PF00668" x="722" y="18" stroke-linejoin="round" width="46" height="26" fill="rgb(224,184,98)" stroke="rgb(179,147,78)" stroke-width="1" opacity="0.75" />
		</g>
		<g>
			<title>PF00668</title>
			<rect class="PF00668" x="770" y="18" stroke-linejoin="round" width="45" height="26" fill="rgb(224,184,98)" stroke="rgb(179,147,78)" stroke-width="1" opacity="0.75" />
		</g>
		<g>
			<title>PF00501</title>
			<rect class="PF00501" x="817" y="18" stroke-linejoin="round" width="40" height="26" fill="rgb(60,217,223)" stroke="rgb(48,173,178)" stroke-width="1" opacity="0.75" />
		</g>
		<g>
			<title>PF13193</title>
			<rect class="PF13193" x="859" y="18" stroke-linejoin="round" width="7" height="26" fill="rgb(182,50,118)" stroke="rgb(145,39,94)" stroke-width="1" opacity="0.75" />
		</g>
		<g>
			<title>PF00550</title>
			<rect class="PF00550" x="869" y="18" stroke-linejoin="round" width="6" height="26" fill="rgb(103,191,88)" stroke="rgb(82,152,70)" stroke-width="1" opacity="0.75" />
		</g>
		<g>
			<title>PF00668</title>
			<rect class="PF00668" x="877" y="18" stroke-linejoin="round" width="44" height="26" fill="rgb(224,184,98)" stroke="rgb(179,147,78)" stroke-width="1" opacity="0.75" />
		</g>
		<g>
			<title>PF00550</title>
			<rect class="PF00550" x="925" y="18" stroke-linejoin="round" width="6" height="26" fill="rgb(103,191,88)" stroke="rgb(82,152,70)" stroke-width="1" opacity="0.75" />
		</g>
		<g>
			<title>PF00668</title>
			<polygon class="PF00668" points="933,18 961,18 974,31 961,44 933,44" stroke-linejoin="round" width="44" height="26" fill="rgb(224,184,98)" stroke="rgb(179,147,78)" stroke-width="1" opacity="0.75" />
		</g>
	</g>
	<g>
		<title>mppK</title>
		<polygon class="mppK" points="978,16 992,16 992,1 1022,31 992,61 992,46 978,46" fill="rgb(252,215,211)" fill-opacity="1.0" stroke="rgb(100,86,84)" stroke-width="1" />
		<g>
			<title>PF00144</title>
			<polygon class="PF00144" points="978,18 1006,18 1011,23 1011,39 1006,44 978,44" stroke-linejoin="round" width="33" height="26" fill="rgb(92,159,200)" stroke="rgb(73,127,160)" stroke-width="1" opacity="0.75" />
		</g>
	</g>
	<g>
		<title>mppL</title>
		<polygon class="mppL" points="1022,16 1037,16 1037,1 1067,31 1037,61 1037,46 1022,46" fill="rgb(253,187,231)" fill-opacity="1.0" stroke="rgb(101,74,92)" stroke-width="1" />
		<g>
			<title>PF07690</title>
			<rect class="PF07690" x="1024" y="18" stroke-linejoin="round" width="26" height="26" fill="rgb(193,224,74)" stroke="rgb(154,179,59)" stroke-width="1" opacity="0.75" />
		</g>
	</g>
	<g>
		<title>mppM</title>
		<polygon class="mppM" points="1073,16 1083,16 1083,1 1113,31 1083,61 1083,46 1073,46" fill="rgb(223,210,253)" fill-opacity="1.0" stroke="rgb(89,84,101)" stroke-width="1" />
		<g>
			<title>PF01757</title>
			<polygon class="PF01757" points="1076,18 1097,18 1110,31 1110,31 1097,44 1076,44" stroke-linejoin="round" width="34" height="26" fill="rgb(50,152,200)" stroke="rgb(40,121,160)" stroke-width="1" opacity="0.75" />
		</g>
	</g>
	<g>
		<title>mppN</title>
		<polygon class="mppN" points="1115,16 1130,16 1130,1 1160,31 1130,61 1130,46 1115,46" fill="rgb(254,238,193)" fill-opacity="1.0" stroke="rgb(101,95,77)" stroke-width="1" />
		<g>
			<title>PF01757</title>
			<polygon class="PF01757" points="1122,18 1144,18 1156,30 1156,32 1144,44 1122,44" stroke-linejoin="round" width="34" height="26" fill="rgb(50,152,200)" stroke="rgb(40,121,160)" stroke-width="1" opacity="0.75" />
		</g>
	</g>
	<g>
		<title>mppO</title>
		<polygon class="mppO" points="1164,16 1168,16 1168,1 1198,31 1168,61 1168,46 1164,46" fill="rgb(252,206,243)" fill-opacity="1.0" stroke="rgb(100,82,97)" stroke-width="1" />
		<g>
			<title>PF02668</title>
			<polygon class="PF02668" points="1166,18 1182,18 1195,31 1195,31 1182,44 1166,44" stroke-linejoin="round" width="29" height="26" fill="rgb(180,79,217)" stroke="rgb(144,63,173)" stroke-width="1" opacity="0.75" />
		</g>
	</g>
	<g>
		<title>mppP</title>
		<polygon class="mppP" points="1213,16 1213,16 1213,1 1242,31 1213,61 1213,46 1213,46" fill="rgb(203,217,251)" fill-opacity="1.0" stroke="rgb(81,86,100)" stroke-width="1" />
		<g>
			<title>PF00155</title>
			<polygon class="PF00155" points="1213,18 1226,18 1239,31 1226,44 1213,44" stroke-linejoin="round" width="28" height="26" fill="rgb(89,113,198)" stroke="rgb(71,90,158)" stroke-width="1" opacity="0.75" />
		</g>
	</g>
	<g>
		<title>mppQ</title>
		<polygon class="mppQ" points="1243,16 1254,16 1254,1 1284,31 1254,61 1254,46 1243,46" fill="rgb(254,227,198)" fill-opacity="1.0" stroke="rgb(101,90,79)" stroke-width="1" />
		<g>
			<title>PF00155</title>
			<polygon class="PF00155" points="1248,18 1268,18 1281,31 1268,44 1248,44" stroke-linejoin="round" width="34" height="26" fill="rgb(89,113,198)" stroke="rgb(71,90,158)" stroke-width="1" opacity="0.75" />
		</g>
	</g>
	<g>
		<title>mppR</title>
		<polygon class="mppR" points="1283,16 1283,16 1283,1 1313,31 1283,61 1283,46 1283,46" fill="rgb(251,215,205)" fill-opacity="1.0" stroke="rgb(100,86,82)" stroke-width="1" />
		<g>
			<title>PF06314</title>
			<polygon class="PF06314" points="1286,18 1297,18 1310,31 1297,44 1286,44" stroke-linejoin="round" width="25" height="26" fill="rgb(80,180,156)" stroke="rgb(64,144,124)" stroke-width="1" opacity="0.75" />
		</g>
	</g>
	<g>
		<title>mppS</title>
		<polygon class="mppS" points="1313,16 1316,16 1316,1 1346,31 1316,61 1316,46 1313,46" fill="rgb(178,253,188)" fill-opacity="1.0" stroke="rgb(71,101,75)" stroke-width="1" />
		<g>
			<title>PF12840</title>
			<polygon class="PF12840" points="1334,22 1339,27 1339,35 1334,40" stroke-linejoin="round" width="5" height="26" fill="rgb(157,225,93)" stroke="rgb(125,180,74)" stroke-width="1" opacity="0.75" />
		</g>
	</g>
	<g>
		<title>mppC</title>
		<polygon class="mppC" points="3,16 5,16 5,1 35,31 5,61 5,46 3,46" fill="rgb(183,208,252)" fill-opacity="1.0" stroke="rgb(73,83,100)" stroke-width="1" />
		<g>
			<title>PF00583</title>
			<rect class="PF00583" x="5" y="18" stroke-linejoin="round" width="11" height="26" fill="rgb(121,183,50)" stroke="rgb(96,146,39)" stroke-width="1" opacity="0.75" />
		</g>
	</g>
	<g>
		<title>mppT</title>
		<polygon class="mppT" points="1348,16 1348,16 1348,1 1355,31 1348,61 1348,46 1348,46" fill="rgb(249,231,203)" fill-opacity="1.0" stroke="rgb(99,92,81)" stroke-width="1" />
		<g>
			<title>PF03621</title>
			<polygon class="PF03621" points="1348,18 1349,18 1352,31 1349,44 1348,44" stroke-linejoin="round" width="5" height="26" fill="rgb(212,165,97)" stroke="rgb(169,132,77)" stroke-width="1" opacity="0.75" />
		</g>
	</g>
	<g>
		<title>mppU</title>
		<polygon class="mppU" points="1360,16 1360,16 1360,1 1382,31 1360,61 1360,46 1360,46" fill="rgb(200,254,232)" fill-opacity="1.0" stroke="rgb(80,101,92)" stroke-width="1" />
		<g>
			<title>PF00072</title>
			<polygon class="PF00072" points="1360,18 1369,18 1371,20 1371,42 1369,44 1360,44" stroke-linejoin="round" width="11" height="26" fill="rgb(100,107,203)" stroke="rgb(80,85,162)" stroke-width="1" opacity="0.75" />
		</g>
		<g>
			<title>PF00196</title>
			<polygon class="PF00196" points="1375,25 1379,31 1375,37" stroke-linejoin="round" width="5" height="26" fill="rgb(219,94,82)" stroke="rgb(175,75,65)" stroke-width="1" opacity="0.75" />
		</g>
	</g>
	<g>
		<title>mppV</title>
		<polygon class="mppV" points="1387,16 1396,16 1396,1 1426,31 1396,61 1396,46 1387,46" fill="rgb(209,245,253)" fill-opacity="1.0" stroke="rgb(83,98,101)" stroke-width="1" />
		<g>
			<title>PF07730</title>
			<rect class="PF07730" x="1404" y="18" stroke-linejoin="round" width="6" height="26" fill="rgb(190,53,146)" stroke="rgb(152,42,116)" stroke-width="1" opacity="0.75" />
		</g>
	</g>
	<g>
		<title>mppW</title>
		<polygon class="mppW" points="1428,16 1428,16 1428,1 1442,31 1428,61 1428,46 1428,46" fill="rgb(214,240,254)" fill-opacity="1.0" stroke="rgb(85,95,101)" stroke-width="1" />
	</g>
	<g>
		<title>mppX</title>
		<polygon class="mppX" points="1442,16 1442,16 1442,1 1472,31 1442,61 1442,46 1442,46" fill="rgb(215,210,251)" fill-opacity="1.0" stroke="rgb(86,84,100)" stroke-width="1" />
		<g>
			<title>PF00005</title>
			<polygon class="PF00005" points="1443,18 1456,18 1457,19 1457,43 1456,44 1443,44" stroke-linejoin="round" width="14" height="26" fill="rgb(129,201,63)" stroke="rgb(103,160,50)" stroke-width="1" opacity="0.75" />
		</g>
	</g>
	<g>
		<title>mppY</title>
		<polygon class="mppY" points="1473,16 1497,16 1497,1 1527,31 1497,61 1497,46 1473,46" fill="rgb(254,211,240)" fill-opacity="1.0" stroke="rgb(101,84,95)" stroke-width="1" />
	</g>
	<g>
		<title>mppZ</title>
		<polygon class="mppZ" points="1547,16 1559,16 1559,1 1589,31 1559,61 1559,46 1547,46" fill="rgb(242,253,203)" fill-opacity="1.0" stroke="rgb(96,101,81)" stroke-width="1" />
		<g>
			<title>PF13472</title>
			<polygon class="PF13472" points="1568,18 1573,18 1586,31 1573,44 1568,44" stroke-linejoin="round" width="19" height="26" fill="rgb(116,68,184)" stroke="rgb(92,54,147)" stroke-width="1" opacity="0.75" />
		</g>
	</g>
	<g>
		<title>mppZ1</title>
		<polygon class="mppZ1" points="1593,16 1593,16 1593,1 1606,31 1593,61 1593,46 1593,46" fill="rgb(201,201,252)" fill-opacity="1.0" stroke="rgb(80,80,100)" stroke-width="1" />
	</g>
	<g>
		<title>mppD</title>
		<polygon class="mppD" points="35,16 52,16 52,1 82,31 52,61 52,46 35,46" fill="rgb(198,213,251)" fill-opacity="1.0" stroke="rgb(79,85,100)" stroke-width="1" />
		<g>
			<title>PF01547</title>
			<polygon class="PF01547" points="41,18 66,18 70,22 70,40 66,44 41,44" stroke-linejoin="round" width="29" height="26" fill="rgb(195,119,75)" stroke="rgb(156,95,60)" stroke-width="1" opacity="0.75" />
		</g>
	</g>
	<g>
		<title>mppE</title>
		<polygon class="mppE" points="84,16 84,16 84,1 114,31 84,61 84,46 84,46" fill="rgb(204,231,251)" fill-opacity="1.0" stroke="rgb(81,92,100)" stroke-width="1" />
		<g>
			<title>PF00528</title>
			<polygon class="PF00528" points="93,18 98,18 111,31 98,44 93,44" stroke-linejoin="round" width="20" height="26" fill="rgb(77,208,225)" stroke="rgb(61,166,180)" stroke-width="1" opacity="0.75" />
		</g>
	</g>
	<g>
		<title>mppF</title>
		<polygon class="mppF" points="114,16 114,16 114,1 143,31 114,61 114,46 114,46" fill="rgb(250,229,205)" fill-opacity="1.0" stroke="rgb(100,91,82)" stroke-width="1" />
		<g>
			<title>PF00528</title>
			<polygon class="PF00528" points="123,18 127,18 140,31 127,44 123,44" stroke-linejoin="round" width="20" height="26" fill="rgb(77,208,225)" stroke="rgb(61,166,180)" stroke-width="1" opacity="0.75" />
		</g>
	</g>
	<g>
		<title>mppG</title>
		<polygon class="mppG" points="146,16 158,16 158,1 188,31 158,61 158,46 146,46" fill="rgb(254,185,213)" fill-opacity="1.0" stroke="rgb(101,74,85)" stroke-width="1" />
		<g>
			<title>PF00535</title>
			<rect class="PF00535" x="149" y="18" stroke-linejoin="round" width="17" height="26" fill="rgb(224,122,96)" stroke="rgb(179,97,76)" stroke-width="1" opacity="0.75" />
		</g>
		<g>
			<title>PF04138</title>
			<polygon class="PF04138" points="174,20 185,31 185,31 174,42" stroke-linejoin="round" width="11" height="26" fill="rgb(72,221,86)" stroke="rgb(57,176,68)" stroke-width="1" opacity="0.75" />
		</g>
	</g>
	<g>
		<title>mppH</title>
		<polygon class="mppH" points="195,16 212,16 212,1 242,31 212,61 212,46 195,46" fill="rgb(253,213,241)" fill-opacity="1.0" stroke="rgb(101,85,96)" stroke-width="1" />
		<g>
			<title>PF13231</title>
			<rect class="PF13231" x="198" y="18" stroke-linejoin="round" width="16" height="26" fill="rgb(149,96,194)" stroke="rgb(119,76,155)" stroke-width="1" opacity="0.75" />
		</g>
	</g>
	<g>
		<title>mppI</title>
		<polygon class="mppI" points="244,16 265,16 265,1 295,31 265,61 265,46 244,46" fill="rgb(250,180,241)" fill-opacity="1.0" stroke="rgb(100,72,96)" stroke-width="1" />
		<g>
			<title>PF13231</title>
			<rect class="PF13231" x="251" y="18" stroke-linejoin="round" width="16" height="26" fill="rgb(149,96,194)" stroke="rgb(119,76,155)" stroke-width="1" opacity="0.75" />
		</g>
	</g>
	<g>
		<title>mppJ</title>
		<polygon class="mppJ" points="301,16 304,16 304,1 334,31 304,61 304,46 301,46" fill="rgb(214,254,228)" fill-opacity="1.0" stroke="rgb(85,101,91)" stroke-width="1" />
		<g>
			<title>PF13649</title>
			<polygon class="PF13649" points="317,18 318,18 327,27 327,35 318,44 317,44" stroke-linejoin="round" width="10" height="26" fill="rgb(227,135,74)" stroke="rgb(181,108,59)" stroke-width="1" opacity="0.75" />
		</g>
	</g>
	<g>
		<title>mppA</title>
		<polygon class="mppA" points="336,16 580,16 580,1 610,31 580,61 580,46 336,46" fill="rgb(181,222,252)" fill-opacity="1.0" stroke="rgb(72,88,100)" stroke-width="1" />
		<g>
			<title>PF00501</title>
			<rect class="PF00501" x="337" y="18" stroke-linejoin="round" width="41" height="26" fill="rgb(60,217,223)" stroke="rgb(48,173,178)" stroke-width="1" opacity="0.75" />
		</g>
		<g>
			<title>PF13193</title>
			<rect class="PF13193" x="379" y="18" stroke-linejoin="round" width="7" height="26" fill="rgb(182,50,118)" stroke="rgb(145,39,94)" stroke-width="1" opacity="0.75" />
		</g>
		<g>
			<title>PF00550</title>
			<rect class="PF00550" x="389" y="18" stroke-linejoin="round" width="6" height="26" fill="rgb(103,191,88)" stroke="rgb(82,152,70)" stroke-width="1" opacity="0.75" />
		</g>
		<g>
			<title>PF00668</title>
			<rect class="PF00668" x="397" y="18" stroke-linejoin="round" width="44" height="26" fill="rgb(224,184,98)" stroke="rgb(179,147,78)" stroke-width="1" opacity="0.75" />
		</g>
		<g>
			<title>PF00501</title>
			<rect class="PF00501" x="444" y="18" stroke-linejoin="round" width="39" height="26" fill="rgb(60,217,223)" stroke="rgb(48,173,178)" stroke-width="1" opacity="0.75" />
		</g>
		<g>
			<title>PF13193</title>
			<rect class="PF13193" x="485" y="18" stroke-linejoin="round" width="7" height="26" fill="rgb(182,50,118)" stroke="rgb(145,39,94)" stroke-width="1" opacity="0.75" />
		</g>
		<g>
			<title>PF00550</title>
			<rect class="PF00550" x="495" y="18" stroke-linejoin="round" width="6" height="26" fill="rgb(103,191,88)" stroke="rgb(82,152,70)" stroke-width="1" opacity="0.75" />
		</g>
		<g>
			<title>PF00668</title>
			<rect class="PF00668" x="505" y="18" stroke-linejoin="round" width="44" height="26" fill="rgb(224,184,98)" stroke="rgb(179,147,78)" stroke-width="1" opacity="0.75" />
		</g>
		<g>
			<title>PF00501</title>
			<rect class="PF00501" x="552" y="18" stroke-linejoin="round" width="39" height="26" fill="rgb(60,217,223)" stroke="rgb(48,173,178)" stroke-width="1" opacity="0.75" />
		</g>
		<g>
			<title>PF13193</title>
			<polygon class="PF13193" points="592,18 594,18 599,23 599,39 594,44 592,44" stroke-linejoin="round" width="7" height="26" fill="rgb(182,50,118)" stroke="rgb(145,39,94)" stroke-width="1" opacity="0.75" />
		</g>
		<g>
			<title>PF00550</title>
			<polygon class="PF00550" points="602,26 607,31 602,36" stroke-linejoin="round" width="6" height="26" fill="rgb(103,191,88)" stroke="rgb(82,152,70)" stroke-width="1" opacity="0.75" />
		</g>
	</g>
</svg>
