<svg version="1.1" baseProfile="full" xmlns="http://www.w3.org/2000/svg" width="1754" height="62">
	<line x1="1" y1="31" x2="1753" y2="31" style="stroke:rgb(50,50,50); stroke-width:3 "/>
	<g>
		<title>smdF</title>
		<polygon class="smdF" points="333,16 333,16 333,1 362,31 333,61 333,46 333,46" fill="rgb(196,199,254)" fill-opacity="1.0" stroke="rgb(78,79,101)" stroke-width="1" />
		<g>
			<title>PF00698</title>
			<polygon class="PF00698" points="333,18 346,18 359,31 346,44 333,44" stroke-linejoin="round" width="27" height="26" fill="rgb(59,176,209)" stroke="rgb(47,140,167)" stroke-width="1" opacity="0.75" />
		</g>
	</g>
	<g>
		<title>smdG</title>
		<polygon class="smdG" points="363,16 363,16 363,1 371,31 363,61 363,46 363,46" fill="rgb(253,179,220)" fill-opacity="1.0" stroke="rgb(101,71,88)" stroke-width="1" />
		<g>
			<title>PF00550</title>
			<polygon class="PF00550" points="363,18 365,18 368,31 365,44 363,44" stroke-linejoin="round" width="7" height="26" fill="rgb(103,191,88)" stroke="rgb(82,152,70)" stroke-width="1" opacity="0.75" />
		</g>
	</g>
	<g>
		<title>smdH</title>
		<polygon class="smdH" points="373,16 409,16 409,1 439,31 409,61 409,46 373,46" fill="rgb(214,212,251)" fill-opacity="1.0" stroke="rgb(85,84,100)" stroke-width="1" />
		<g>
			<title>PF13537</title>
			<rect class="PF13537" x="377" y="18" stroke-linejoin="round" width="11" height="26" fill="rgb(200,63,57)" stroke="rgb(160,50,45)" stroke-width="1" opacity="0.75" />
		</g>
		<g>
			<title>PF00733</title>
			<polygon class="PF00733" points="397,18 423,18 435,30 435,32 423,44 397,44" stroke-linejoin="round" width="38" height="26" fill="rgb(97,201,176)" stroke="rgb(77,160,140)" stroke-width="1" opacity="0.75" />
		</g>
	</g>
	<g>
		<title>smdI</title>
		<polygon class="smdI" points="439,16 1047,16 1047,1 1077,31 1047,61 1047,46 439,46" fill="rgb(197,252,239)" fill-opacity="1.0" stroke="rgb(78,100,95)" stroke-width="1" />
		<g>
			<title>PF00109</title>
			<rect class="PF00109" x="440" y="18" stroke-linejoin="round" width="24" height="26" fill="rgb(112,116,228)" stroke="rgb(89,92,182)" stroke-width="1" opacity="0.75" />
		</g>
		<g>
			<title>PF02801</title>
			<rect class="PF02801" x="465" y="18" stroke-linejoin="round" width="12" height="26" fill="rgb(215,78,102)" stroke="rgb(172,62,81)" stroke-width="1" opacity="0.75" />
		</g>
		<g>
			<title>PF16197</title>
			<rect class="PF16197" x="478" y="18" stroke-linejoin="round" width="12" height="26" fill="rgb(68,179,89)" stroke="rgb(54,143,71)" stroke-width="1" opacity="0.75" />
		</g>
		<g>
			<title>PF14765</title>
			<rect class="PF14765" x="500" y="18" stroke-linejoin="round" width="28" height="26" fill="rgb(173,56,182)" stroke="rgb(138,44,145)" stroke-width="1" opacity="0.75" />
		</g>
		<g>
			<title>PF08659</title>
			<rect class="PF08659" x="562" y="18" stroke-linejoin="round" width="18" height="26" fill="rgb(66,209,188)" stroke="rgb(52,167,150)" stroke-width="1" opacity="0.75" />
		</g>
		<g>
			<title>PF00550</title>
			<rect class="PF00550" x="588" y="18" stroke-linejoin="round" width="6" height="26" fill="rgb(103,191,88)" stroke="rgb(82,152,70)" stroke-width="1" opacity="0.75" />
		</g>
		<g>
			<title>PF00109</title>
			<rect class="PF00109" x="600" y="18" stroke-linejoin="round" width="25" height="26" fill="rgb(112,116,228)" stroke="rgb(89,92,182)" stroke-width="1" opacity="0.75" />
		</g>
		<g>
			<title>PF02801</title>
			<rect class="PF02801" x="626" y="18" stroke-linejoin="round" width="11" height="26" fill="rgb(215,78,102)" stroke="rgb(172,62,81)" stroke-width="1" opacity="0.75" />
		</g>
		<g>
			<title>PF16197</title>
			<rect class="PF16197" x="638" y="18" stroke-linejoin="round" width="12" height="26" fill="rgb(68,179,89)" stroke="rgb(54,143,71)" stroke-width="1" opacity="0.75" />
		</g>
		<g>
			<title>PF00550</title>
			<rect class="PF00550" x="691" y="18" stroke-linejoin="round" width="6" height="26" fill="rgb(103,191,88)" stroke="rgb(82,152,70)" stroke-width="1" opacity="0.75" />
		</g>
		<g>
			<title>PF00109</title>
			<rect class="PF00109" x="702" y="18" stroke-linejoin="round" width="24" height="26" fill="rgb(112,116,228)" stroke="rgb(89,92,182)" stroke-width="1" opacity="0.75" />
		</g>
		<g>
			<title>PF02801</title>
			<rect class="PF02801" x="727" y="18" stroke-linejoin="round" width="11" height="26" fill="rgb(215,78,102)" stroke="rgb(172,62,81)" stroke-width="1" opacity="0.75" />
		</g>
		<g>
			<title>PF16197</title>
			<rect class="PF16197" x="739" y="18" stroke-linejoin="round" width="12" height="26" fill="rgb(68,179,89)" stroke="rgb(54,143,71)" stroke-width="1" opacity="0.75" />
		</g>
		<g>
			<title>PF08659</title>
			<rect class="PF08659" x="780" y="18" stroke-linejoin="round" width="18" height="26" fill="rgb(66,209,188)" stroke="rgb(52,167,150)" stroke-width="1" opacity="0.75" />
		</g>
		<g>
			<title>PF00550</title>
			<rect class="PF00550" x="807" y="18" stroke-linejoin="round" width="6" height="26" fill="rgb(103,191,88)" stroke="rgb(82,152,70)" stroke-width="1" opacity="0.75" />
		</g>
		<g>
			<title>PF00109</title>
			<rect class="PF00109" x="819" y="18" stroke-linejoin="round" width="25" height="26" fill="rgb(112,116,228)" stroke="rgb(89,92,182)" stroke-width="1" opacity="0.75" />
		</g>
		<g>
			<title>PF02801</title>
			<rect class="PF02801" x="845" y="18" stroke-linejoin="round" width="11" height="26" fill="rgb(215,78,102)" stroke="rgb(172,62,81)" stroke-width="1" opacity="0.75" />
		</g>
		<g>
			<title>PF16197</title>
			<rect class="PF16197" x="857" y="18" stroke-linejoin="round" width="11" height="26" fill="rgb(68,179,89)" stroke="rgb(54,143,71)" stroke-width="1" opacity="0.75" />
		</g>
		<g>
			<title>PF00550</title>
			<rect class="PF00550" x="882" y="18" stroke-linejoin="round" width="6" height="26" fill="rgb(103,191,88)" stroke="rgb(82,152,70)" stroke-width="1" opacity="0.75" />
		</g>
		<g>
			<title>PF00109</title>
			<rect class="PF00109" x="891" y="18" stroke-linejoin="round" width="23" height="26" fill="rgb(112,116,228)" stroke="rgb(89,92,182)" stroke-width="1" opacity="0.75" />
		</g>
		<g>
			<title>PF02801</title>
			<rect class="PF02801" x="916" y="18" stroke-linejoin="round" width="11" height="26" fill="rgb(215,78,102)" stroke="rgb(172,62,81)" stroke-width="1" opacity="0.75" />
		</g>
		<g>
			<title>PF16197</title>
			<rect class="PF16197" x="928" y="18" stroke-linejoin="round" width="11" height="26" fill="rgb(68,179,89)" stroke="rgb(54,143,71)" stroke-width="1" opacity="0.75" />
		</g>
		<g>
			<title>PF14765</title>
			<rect class="PF14765" x="952" y="18" stroke-linejoin="round" width="28" height="26" fill="rgb(173,56,182)" stroke="rgb(138,44,145)" stroke-width="1" opacity="0.75" />
		</g>
		<g>
			<title>PF08659</title>
			<rect class="PF08659" x="1002" y="18" stroke-linejoin="round" width="17" height="26" fill="rgb(66,209,188)" stroke="rgb(52,167,150)" stroke-width="1" opacity="0.75" />
		</g>
		<g>
			<title>PF08242</title>
			<rect class="PF08242" x="1046" y="18" stroke-linejoin="round" width="10" height="26" fill="rgb(187,59,115)" stroke="rgb(149,47,92)" stroke-width="1" opacity="0.75" />
		</g>
		<g>
			<title>PF00550</title>
			<polygon class="PF00550" points="1068,25 1074,31 1074,31 1068,37" stroke-linejoin="round" width="6" height="26" fill="rgb(103,191,88)" stroke="rgb(82,152,70)" stroke-width="1" opacity="0.75" />
		</g>
	</g>
	<g>
		<title>smdJ</title>
		<polygon class="smdJ" points="1077,16 1077,16 1077,1 1098,31 1077,61 1077,46 1077,46" fill="rgb(254,216,208)" fill-opacity="1.0" stroke="rgb(101,86,83)" stroke-width="1" />
		<g>
			<title>PF02441</title>
			<polygon class="PF02441" points="1078,18 1086,18 1095,31 1086,44 1078,44" stroke-linejoin="round" width="18" height="26" fill="rgb(199,95,88)" stroke="rgb(159,76,70)" stroke-width="1" opacity="0.75" />
		</g>
	</g>
	<g>
		<title>smdK</title>
		<polygon class="smdK" points="1098,16 1117,16 1117,1 1147,31 1117,61 1117,46 1098,46" fill="rgb(191,177,251)" fill-opacity="1.0" stroke="rgb(76,70,100)" stroke-width="1" />
		<g>
			<title>PF01977</title>
			<polygon class="PF01977" points="1099,18 1131,18 1141,28 1141,34 1131,44 1099,44" stroke-linejoin="round" width="42" height="26" fill="rgb(124,53,196)" stroke="rgb(99,42,156)" stroke-width="1" opacity="0.75" />
		</g>
	</g>
	<g>
		<polygon class="NoName" points="1166,16 1166,16 1166,1 1148,31 1166,61 1166,46 1166,46" fill="rgb(255,255,255)" fill-opacity="1.0" stroke="rgb(50,50,50)" stroke-width="1" />
	</g>
	<g>
		<polygon class="NoName" points="1239,16 1197,16 1197,1 1167,31 1197,61 1197,46 1239,46" fill="rgb(255,255,255)" fill-opacity="1.0" stroke="rgb(50,50,50)" stroke-width="1" />
	</g>
	<g>
		<polygon class="NoName" points="1256,16 1256,16 1256,1 1241,31 1256,61 1256,46 1256,46" fill="rgb(255,255,255)" fill-opacity="1.0" stroke="rgb(50,50,50)" stroke-width="1" />
	</g>
	<g>
		<polygon class="NoName" points="1306,16 1290,16 1290,1 1260,31 1290,61 1290,46 1306,46" fill="rgb(255,255,255)" fill-opacity="1.0" stroke="rgb(50,50,50)" stroke-width="1" />
		<g>
			<title>PF00296</title>
			<polygon class="PF00296" points="1267,26 1275,18 1304,18 1304,44 1275,44 1267,35" stroke-linejoin="round" width="37" height="26" fill="rgb(180,112,78)" stroke="rgb(144,89,62)" stroke-width="1" opacity="0.75" />
		</g>
	</g>
	<g>
		<polygon class="NoName" points="47,16 31,16 31,1 1,31 31,61 31,46 47,46" fill="rgb(255,255,255)" fill-opacity="1.0" stroke="rgb(50,50,50)" stroke-width="1" />
		<g>
			<title>PF13193</title>
			<polygon class="PF13193" points="3,31 8,26 8,35" stroke-linejoin="round" width="6" height="26" fill="rgb(182,50,118)" stroke="rgb(145,39,94)" stroke-width="1" opacity="0.75" />
		</g>
		<g>
			<title>PF00501</title>
			<polygon class="PF00501" points="10,24 16,18 46,18 46,44 16,44 10,37" stroke-linejoin="round" width="36" height="26" fill="rgb(60,217,223)" stroke="rgb(48,173,178)" stroke-width="1" opacity="0.75" />
		</g>
	</g>
	<g>
		<polygon class="NoName" points="1334,16 1334,16 1334,1 1307,31 1334,61 1334,46 1334,46" fill="rgb(255,255,255)" fill-opacity="1.0" stroke="rgb(50,50,50)" stroke-width="1" />
		<g>
			<title>PF00528</title>
			<polygon class="PF00528" points="1309,31 1321,18 1325,18 1325,44 1321,44" stroke-linejoin="round" width="18" height="26" fill="rgb(77,208,225)" stroke="rgb(61,166,180)" stroke-width="1" opacity="0.75" />
		</g>
	</g>
	<g>
		<polygon class="NoName" points="1364,16 1364,16 1364,1 1335,31 1364,61 1364,46 1364,46" fill="rgb(255,255,255)" fill-opacity="1.0" stroke="rgb(50,50,50)" stroke-width="1" />
		<g>
			<title>PF00528</title>
			<polygon class="PF00528" points="1337,31 1350,18 1355,18 1355,44 1350,44" stroke-linejoin="round" width="20" height="26" fill="rgb(77,208,225)" stroke="rgb(61,166,180)" stroke-width="1" opacity="0.75" />
		</g>
	</g>
	<g>
		<polygon class="NoName" points="1408,16 1394,16 1394,1 1364,31 1394,61 1394,46 1408,46" fill="rgb(255,255,255)" fill-opacity="1.0" stroke="rgb(50,50,50)" stroke-width="1" />
		<g>
			<title>PF01547</title>
			<polygon class="PF01547" points="1373,24 1379,18 1403,18 1403,44 1379,44 1373,37" stroke-linejoin="round" width="30" height="26" fill="rgb(195,119,75)" stroke="rgb(156,95,60)" stroke-width="1" opacity="0.75" />
		</g>
	</g>
	<g>
		<polygon class="NoName" points="1450,16 1440,16 1440,1 1410,31 1440,61 1440,46 1450,46" fill="rgb(255,255,255)" fill-opacity="1.0" stroke="rgb(50,50,50)" stroke-width="1" />
		<g>
			<title>PF08028</title>
			<polygon class="PF08028" points="1412,31 1425,18 1425,43" stroke-linejoin="round" width="13" height="26" fill="rgb(106,185,56)" stroke="rgb(84,148,44)" stroke-width="1" opacity="0.75" />
		</g>
		<g>
			<title>PF02771</title>
			<rect class="PF02771" x="1438" y="18" stroke-linejoin="round" width="11" height="26" fill="rgb(105,135,218)" stroke="rgb(84,108,174)" stroke-width="1" opacity="0.75" />
		</g>
	</g>
	<g>
		<polygon class="NoName" points="1490,16 1481,16 1481,1 1451,31 1481,61 1481,46 1490,46" fill="rgb(255,255,255)" fill-opacity="1.0" stroke="rgb(50,50,50)" stroke-width="1" />
		<g>
			<title>PF08028</title>
			<polygon class="PF08028" points="1453,31 1466,18 1466,43" stroke-linejoin="round" width="13" height="26" fill="rgb(106,185,56)" stroke="rgb(84,148,44)" stroke-width="1" opacity="0.75" />
		</g>
		<g>
			<title>PF02770</title>
			<rect class="PF02770" x="1469" y="18" stroke-linejoin="round" width="9" height="26" fill="rgb(225,186,97)" stroke="rgb(180,148,77)" stroke-width="1" opacity="0.75" />
		</g>
		<g>
			<title>PF02771</title>
			<rect class="PF02771" x="1479" y="18" stroke-linejoin="round" width="10" height="26" fill="rgb(105,135,218)" stroke="rgb(84,108,174)" stroke-width="1" opacity="0.75" />
		</g>
	</g>
	<g>
		<polygon class="NoName" points="1529,16 1521,16 1521,1 1491,31 1521,61 1521,46 1529,46" fill="rgb(255,255,255)" fill-opacity="1.0" stroke="rgb(50,50,50)" stroke-width="1" />
		<g>
			<title>PF00296</title>
			<polygon class="PF00296" points="1496,28 1506,18 1529,18 1529,44 1506,44 1496,33" stroke-linejoin="round" width="33" height="26" fill="rgb(180,112,78)" stroke="rgb(144,89,62)" stroke-width="1" opacity="0.75" />
		</g>
	</g>
	<g>
		<polygon class="NoName" points="1571,16 1561,16 1561,1 1531,31 1561,61 1561,46 1571,46" fill="rgb(255,255,255)" fill-opacity="1.0" stroke="rgb(50,50,50)" stroke-width="1" />
		<g>
			<title>PF08028</title>
			<polygon class="PF08028" points="1533,31 1546,18 1546,43" stroke-linejoin="round" width="13" height="26" fill="rgb(106,185,56)" stroke="rgb(84,148,44)" stroke-width="1" opacity="0.75" />
		</g>
		<g>
			<title>PF02770</title>
			<rect class="PF02770" x="1549" y="18" stroke-linejoin="round" width="9" height="26" fill="rgb(225,186,97)" stroke="rgb(180,148,77)" stroke-width="1" opacity="0.75" />
		</g>
		<g>
			<title>PF02771</title>
			<rect class="PF02771" x="1558" y="18" stroke-linejoin="round" width="10" height="26" fill="rgb(105,135,218)" stroke="rgb(84,108,174)" stroke-width="1" opacity="0.75" />
		</g>
	</g>
	<g>
		<polygon class="NoName" points="1589,16 1589,16 1589,1 1571,31 1589,61 1589,46 1589,46" fill="rgb(255,255,255)" fill-opacity="1.0" stroke="rgb(50,50,50)" stroke-width="1" />
		<g>
			<title>PF03358</title>
			<polygon class="PF03358" points="1574,29 1581,18 1588,18 1588,44 1581,44 1574,32" stroke-linejoin="round" width="14" height="26" fill="rgb(90,228,61)" stroke="rgb(72,182,48)" stroke-width="1" opacity="0.75" />
		</g>
	</g>
	<g>
		<polygon class="NoName" points="1631,16 1621,16 1621,1 1591,31 1621,61 1621,46 1631,46" fill="rgb(255,255,255)" fill-opacity="1.0" stroke="rgb(50,50,50)" stroke-width="1" />
		<g>
			<title>PF08028</title>
			<polygon class="PF08028" points="1593,31 1606,18 1606,43" stroke-linejoin="round" width="13" height="26" fill="rgb(106,185,56)" stroke="rgb(84,148,44)" stroke-width="1" opacity="0.75" />
		</g>
		<g>
			<title>PF02771</title>
			<rect class="PF02771" x="1619" y="18" stroke-linejoin="round" width="10" height="26" fill="rgb(105,135,218)" stroke="rgb(84,108,174)" stroke-width="1" opacity="0.75" />
		</g>
	</g>
	<g>
		<polygon class="NoName" points="1671,16 1663,16 1663,1 1633,31 1663,61 1663,46 1671,46" fill="rgb(255,255,255)" fill-opacity="1.0" stroke="rgb(50,50,50)" stroke-width="1" />
		<g>
			<title>PF00296</title>
			<polygon class="PF00296" points="1637,29 1648,18 1669,18 1669,44 1648,44 1637,32" stroke-linejoin="round" width="32" height="26" fill="rgb(180,112,78)" stroke="rgb(144,89,62)" stroke-width="1" opacity="0.75" />
		</g>
	</g>
	<g>
		<polygon class="NoName" points="81,16 77,16 77,1 47,31 77,61 77,46 81,46" fill="rgb(255,255,255)" fill-opacity="1.0" stroke="rgb(50,50,50)" stroke-width="1" />
		<g>
			<title>PF01959</title>
			<polygon class="PF01959" points="49,31 62,18 81,18 81,44 62,44" stroke-linejoin="round" width="34" height="26" fill="rgb(199,181,86)" stroke="rgb(159,144,68)" stroke-width="1" opacity="0.75" />
		</g>
	</g>
	<g>
		<polygon class="NoName" points="1688,16 1688,16 1688,1 1718,31 1688,61 1688,46 1688,46" fill="rgb(255,255,255)" fill-opacity="1.0" stroke="rgb(50,50,50)" stroke-width="1" />
		<g>
			<title>PF00126</title>
			<rect class="PF00126" x="1688" y="18" stroke-linejoin="round" width="5" height="26" fill="rgb(125,227,79)" stroke="rgb(99,181,63)" stroke-width="1" opacity="0.75" />
		</g>
		<g>
			<title>PF03466</title>
			<polygon class="PF03466" points="1697,18 1702,18 1715,31 1702,44 1697,44" stroke-linejoin="round" width="21" height="26" fill="rgb(55,136,195)" stroke="rgb(44,108,156)" stroke-width="1" opacity="0.75" />
		</g>
	</g>
	<g>
		<polygon class="NoName" points="1751,16 1749,16 1749,1 1719,31 1749,61 1749,46 1751,46" fill="rgb(255,255,255)" fill-opacity="1.0" stroke="rgb(50,50,50)" stroke-width="1" />
		<g>
			<title>PF00296</title>
			<polygon class="PF00296" points="1722,30 1734,18 1751,18 1751,44 1734,44 1722,31" stroke-linejoin="round" width="29" height="26" fill="rgb(180,112,78)" stroke="rgb(144,89,62)" stroke-width="1" opacity="0.75" />
		</g>
	</g>
	<g>
		<polygon class="NoName" points="107,16 107,16 107,1 81,31 107,61 107,46 107,46" fill="rgb(255,255,255)" fill-opacity="1.0" stroke="rgb(50,50,50)" stroke-width="1" />
		<g>
			<title>PF01791</title>
			<polygon class="PF01791" points="84,30 94,18 105,18 105,44 94,44 84,31" stroke-linejoin="round" width="21" height="26" fill="rgb(151,59,198)" stroke="rgb(120,47,158)" stroke-width="1" opacity="0.75" />
		</g>
	</g>
	<g>
		<polygon class="NoName" points="117,16 117,16 117,1 137,31 117,61 117,46 117,46" fill="rgb(255,255,255)" fill-opacity="1.0" stroke="rgb(50,50,50)" stroke-width="1" />
		<g>
			<title>PF03358</title>
			<polygon class="PF03358" points="121,18 125,18 129,23 129,39 125,44 121,44" stroke-linejoin="round" width="8" height="26" fill="rgb(90,228,61)" stroke="rgb(72,182,48)" stroke-width="1" opacity="0.75" />
		</g>
	</g>
	<g>
		<title>smdA</title>
		<polygon class="smdA" points="137,16 159,16 159,1 189,31 159,61 159,46 137,46" fill="rgb(182,226,251)" fill-opacity="1.0" stroke="rgb(72,90,100)" stroke-width="1" />
		<g>
			<title>PF07690</title>
			<polygon class="PF07690" points="138,18 173,18 178,23 178,39 173,44 138,44" stroke-linejoin="round" width="40" height="26" fill="rgb(193,224,74)" stroke="rgb(154,179,59)" stroke-width="1" opacity="0.75" />
		</g>
	</g>
	<g>
		<title>smdB</title>
		<polygon class="smdB" points="188,16 188,16 188,1 218,31 188,61 188,46 188,46" fill="rgb(196,253,199)" fill-opacity="1.0" stroke="rgb(78,101,79)" stroke-width="1" />
		<g>
			<title>PF00126</title>
			<rect class="PF00126" x="188" y="18" stroke-linejoin="round" width="5" height="26" fill="rgb(125,227,79)" stroke="rgb(99,181,63)" stroke-width="1" opacity="0.75" />
		</g>
		<g>
			<title>PF03466</title>
			<polygon class="PF03466" points="197,18 202,18 215,31 202,44 197,44" stroke-linejoin="round" width="19" height="26" fill="rgb(55,136,195)" stroke="rgb(44,108,156)" stroke-width="1" opacity="0.75" />
		</g>
	</g>
	<g>
		<title>smdC</title>
		<polygon class="smdC" points="271,16 257,16 257,1 227,31 257,61 257,46 271,46" fill="rgb(253,248,199)" fill-opacity="1.0" stroke="rgb(101,99,79)" stroke-width="1" />
		<g>
			<title>PF02518</title>
			<polygon class="PF02518" points="230,30 241,19 241,42 230,31" stroke-linejoin="round" width="11" height="26" fill="rgb(80,94,225)" stroke="rgb(64,75,180)" stroke-width="1" opacity="0.75" />
		</g>
		<g>
			<title>PF00512</title>
			<rect class="PF00512" x="245" y="18" stroke-linejoin="round" width="6" height="26" fill="rgb(193,125,62)" stroke="rgb(154,100,49)" stroke-width="1" opacity="0.75" />
		</g>
	</g>
	<g>
		<title>smdD</title>
		<polygon class="smdD" points="294,16 294,16 294,1 271,31 294,61 294,46 294,46" fill="rgb(188,252,252)" fill-opacity="1.0" stroke="rgb(75,100,100)" stroke-width="1" />
		<g>
			<title>PF00486</title>
			<polygon class="PF00486" points="273,31 277,26 277,35" stroke-linejoin="round" width="6" height="26" fill="rgb(204,153,57)" stroke="rgb(163,122,45)" stroke-width="1" opacity="0.75" />
		</g>
		<g>
			<title>PF00072</title>
			<polygon class="PF00072" points="281,21 283,18 292,18 292,44 283,44 281,40" stroke-linejoin="round" width="11" height="26" fill="rgb(100,107,203)" stroke="rgb(80,85,162)" stroke-width="1" opacity="0.75" />
		</g>
	</g>
	<g>
		<title>smdE</title>
		<polygon class="smdE" points="322,16 322,16 322,1 297,31 322,61 322,46 322,46" fill="rgb(219,253,199)" fill-opacity="1.0" stroke="rgb(87,101,79)" stroke-width="1" />
		<g>
			<title>PF00975</title>
			<polygon class="PF00975" points="299,31 310,18 319,18 319,44 310,44" stroke-linejoin="round" width="22" height="26" fill="rgb(207,80,138)" stroke="rgb(165,63,110)" stroke-width="1" opacity="0.75" />
		</g>
	</g>
</svg>
