<svg version="1.1" baseProfile="full" xmlns="http://www.w3.org/2000/svg" width="2077" height="62">
	<line x1="1" y1="31" x2="2076" y2="31" style="stroke:rgb(50,50,50); stroke-width:3 "/>
	<g>
		<title>mscF</title>
		<polygon class="mscF" points="943,16 1132,16 1132,1 1162,31 1132,61 1132,46 943,46" fill="rgb(183,224,251)" fill-opacity="1.0" stroke="rgb(73,89,100)" stroke-width="1" />
		<g>
			<title>PF00550</title>
			<rect class="PF00550" x="943" y="18" stroke-linejoin="round" width="6" height="26" fill="rgb(103,191,88)" stroke="rgb(82,152,70)" stroke-width="1" opacity="0.75" />
		</g>
		<g>
			<title>PF00202</title>
			<rect class="PF00202" x="969" y="18" stroke-linejoin="round" width="37" height="26" fill="rgb(49,163,189)" stroke="rgb(39,130,151)" stroke-width="1" opacity="0.75" />
		</g>
		<g>
			<title>PF00296</title>
			<rect class="PF00296" x="1017" y="18" stroke-linejoin="round" width="31" height="26" fill="rgb(180,112,78)" stroke="rgb(144,89,62)" stroke-width="1" opacity="0.75" />
		</g>
		<g>
			<title>PF00668</title>
			<rect class="PF00668" x="1053" y="18" stroke-linejoin="round" width="43" height="26" fill="rgb(224,184,98)" stroke="rgb(179,147,78)" stroke-width="1" opacity="0.75" />
		</g>
		<g>
			<title>PF00501</title>
			<rect class="PF00501" x="1099" y="18" stroke-linejoin="round" width="41" height="26" fill="rgb(60,217,223)" stroke="rgb(48,173,178)" stroke-width="1" opacity="0.75" />
		</g>
		<g>
			<title>PF13193</title>
			<polygon class="PF13193" points="1141,18 1146,18 1148,20 1148,42 1146,44 1141,44" stroke-linejoin="round" width="7" height="26" fill="rgb(182,50,118)" stroke="rgb(145,39,94)" stroke-width="1" opacity="0.75" />
		</g>
		<g>
			<title>PF00550</title>
			<polygon class="PF00550" points="1151,23 1157,29 1157,33 1151,39" stroke-linejoin="round" width="6" height="26" fill="rgb(103,191,88)" stroke="rgb(82,152,70)" stroke-width="1" opacity="0.75" />
		</g>
	</g>
	<g>
		<title>mscG</title>
		<polygon class="mscG" points="1162,16 1283,16 1283,1 1313,31 1283,61 1283,46 1162,46" fill="rgb(183,250,213)" fill-opacity="1.0" stroke="rgb(73,100,85)" stroke-width="1" />
		<g>
			<title>PF00109</title>
			<rect class="PF00109" x="1163" y="18" stroke-linejoin="round" width="25" height="26" fill="rgb(112,116,228)" stroke="rgb(89,92,182)" stroke-width="1" opacity="0.75" />
		</g>
		<g>
			<title>PF02801</title>
			<rect class="PF02801" x="1188" y="18" stroke-linejoin="round" width="11" height="26" fill="rgb(215,78,102)" stroke="rgb(172,62,81)" stroke-width="1" opacity="0.75" />
		</g>
		<g>
			<title>PF16197</title>
			<rect class="PF16197" x="1201" y="18" stroke-linejoin="round" width="11" height="26" fill="rgb(68,179,89)" stroke="rgb(54,143,71)" stroke-width="1" opacity="0.75" />
		</g>
		<g>
			<title>PF00698</title>
			<rect class="PF00698" x="1215" y="18" stroke-linejoin="round" width="32" height="26" fill="rgb(59,176,209)" stroke="rgb(47,140,167)" stroke-width="1" opacity="0.75" />
		</g>
		<g>
			<title>PF08659</title>
			<rect class="PF08659" x="1275" y="18" stroke-linejoin="round" width="17" height="26" fill="rgb(66,209,188)" stroke="rgb(52,167,150)" stroke-width="1" opacity="0.75" />
		</g>
		<g>
			<title>PF00550</title>
			<polygon class="PF00550" points="1302,23 1308,29 1308,33 1302,39" stroke-linejoin="round" width="6" height="26" fill="rgb(103,191,88)" stroke="rgb(82,152,70)" stroke-width="1" opacity="0.75" />
		</g>
	</g>
	<g>
		<title>mscH</title>
		<polygon class="mscH" points="1316,16 1696,16 1696,1 1726,31 1696,61 1696,46 1316,46" fill="rgb(251,190,190)" fill-opacity="1.0" stroke="rgb(100,76,76)" stroke-width="1" />
		<g>
			<title>PF00668</title>
			<rect class="PF00668" x="1320" y="18" stroke-linejoin="round" width="44" height="26" fill="rgb(224,184,98)" stroke="rgb(179,147,78)" stroke-width="1" opacity="0.75" />
		</g>
		<g>
			<title>PF00501</title>
			<rect class="PF00501" x="1367" y="18" stroke-linejoin="round" width="40" height="26" fill="rgb(60,217,223)" stroke="rgb(48,173,178)" stroke-width="1" opacity="0.75" />
		</g>
		<g>
			<title>PF13649</title>
			<rect class="PF13649" x="1419" y="18" stroke-linejoin="round" width="9" height="26" fill="rgb(227,135,74)" stroke="rgb(181,108,59)" stroke-width="1" opacity="0.75" />
		</g>
		<g>
			<title>PF00550</title>
			<rect class="PF00550" x="1460" y="18" stroke-linejoin="round" width="6" height="26" fill="rgb(103,191,88)" stroke="rgb(82,152,70)" stroke-width="1" opacity="0.75" />
		</g>
		<g>
			<title>PF00668</title>
			<rect class="PF00668" x="1468" y="18" stroke-linejoin="round" width="44" height="26" fill="rgb(224,184,98)" stroke="rgb(179,147,78)" stroke-width="1" opacity="0.75" />
		</g>
		<g>
			<title>PF00501</title>
			<rect class="PF00501" x="1515" y="18" stroke-linejoin="round" width="38" height="26" fill="rgb(60,217,223)" stroke="rgb(48,173,178)" stroke-width="1" opacity="0.75" />
		</g>
		<g>
			<title>PF13193</title>
			<rect class="PF13193" x="1554" y="18" stroke-linejoin="round" width="7" height="26" fill="rgb(182,50,118)" stroke="rgb(145,39,94)" stroke-width="1" opacity="0.75" />
		</g>
		<g>
			<title>PF00550</title>
			<rect class="PF00550" x="1565" y="18" stroke-linejoin="round" width="6" height="26" fill="rgb(103,191,88)" stroke="rgb(82,152,70)" stroke-width="1" opacity="0.75" />
		</g>
		<g>
			<title>PF00668</title>
			<rect class="PF00668" x="1572" y="18" stroke-linejoin="round" width="45" height="26" fill="rgb(224,184,98)" stroke="rgb(179,147,78)" stroke-width="1" opacity="0.75" />
		</g>
		<g>
			<title>PF00668</title>
			<rect class="PF00668" x="1620" y="18" stroke-linejoin="round" width="44" height="26" fill="rgb(224,184,98)" stroke="rgb(179,147,78)" stroke-width="1" opacity="0.75" />
		</g>
		<g>
			<title>PF00501</title>
			<rect class="PF00501" x="1666" y="18" stroke-linejoin="round" width="40" height="26" fill="rgb(60,217,223)" stroke="rgb(48,173,178)" stroke-width="1" opacity="0.75" />
		</g>
		<g>
			<title>PF13193</title>
			<polygon class="PF13193" points="1707,18 1710,18 1714,22 1714,40 1710,44 1707,44" stroke-linejoin="round" width="7" height="26" fill="rgb(182,50,118)" stroke="rgb(145,39,94)" stroke-width="1" opacity="0.75" />
		</g>
		<g>
			<title>PF00550</title>
			<polygon class="PF00550" points="1717,25 1723,31 1723,31 1717,37" stroke-linejoin="round" width="6" height="26" fill="rgb(103,191,88)" stroke="rgb(82,152,70)" stroke-width="1" opacity="0.75" />
		</g>
	</g>
	<g>
		<title>mscI</title>
		<polygon class="mscI" points="1727,16 1993,16 1993,1 2023,31 1993,61 1993,46 1727,46" fill="rgb(198,251,229)" fill-opacity="1.0" stroke="rgb(79,100,91)" stroke-width="1" />
		<g>
			<title>PF00668</title>
			<rect class="PF00668" x="1734" y="18" stroke-linejoin="round" width="44" height="26" fill="rgb(224,184,98)" stroke="rgb(179,147,78)" stroke-width="1" opacity="0.75" />
		</g>
		<g>
			<title>PF00501</title>
			<rect class="PF00501" x="1781" y="18" stroke-linejoin="round" width="40" height="26" fill="rgb(60,217,223)" stroke="rgb(48,173,178)" stroke-width="1" opacity="0.75" />
		</g>
		<g>
			<title>PF13193</title>
			<rect class="PF13193" x="1821" y="18" stroke-linejoin="round" width="7" height="26" fill="rgb(182,50,118)" stroke="rgb(145,39,94)" stroke-width="1" opacity="0.75" />
		</g>
		<g>
			<title>PF00550</title>
			<rect class="PF00550" x="1832" y="18" stroke-linejoin="round" width="6" height="26" fill="rgb(103,191,88)" stroke="rgb(82,152,70)" stroke-width="1" opacity="0.75" />
		</g>
		<g>
			<title>PF00109</title>
			<rect class="PF00109" x="1841" y="18" stroke-linejoin="round" width="24" height="26" fill="rgb(112,116,228)" stroke="rgb(89,92,182)" stroke-width="1" opacity="0.75" />
		</g>
		<g>
			<title>PF02801</title>
			<rect class="PF02801" x="1867" y="18" stroke-linejoin="round" width="11" height="26" fill="rgb(215,78,102)" stroke="rgb(172,62,81)" stroke-width="1" opacity="0.75" />
		</g>
		<g>
			<title>PF16197</title>
			<rect class="PF16197" x="1879" y="18" stroke-linejoin="round" width="11" height="26" fill="rgb(68,179,89)" stroke="rgb(54,143,71)" stroke-width="1" opacity="0.75" />
		</g>
		<g>
			<title>PF00698</title>
			<rect class="PF00698" x="1894" y="18" stroke-linejoin="round" width="27" height="26" fill="rgb(59,176,209)" stroke="rgb(47,140,167)" stroke-width="1" opacity="0.75" />
		</g>
		<g>
			<title>PF08659</title>
			<rect class="PF08659" x="1957" y="18" stroke-linejoin="round" width="20" height="26" fill="rgb(66,209,188)" stroke="rgb(52,167,150)" stroke-width="1" opacity="0.75" />
		</g>
		<g>
			<title>PF00550</title>
			<rect class="PF00550" x="1986" y="18" stroke-linejoin="round" width="6" height="26" fill="rgb(103,191,88)" stroke="rgb(82,152,70)" stroke-width="1" opacity="0.75" />
		</g>
		<g>
			<title>PF00975</title>
			<polygon class="PF00975" points="1995,18 2007,18 2020,31 2007,44 1995,44" stroke-linejoin="round" width="26" height="26" fill="rgb(207,80,138)" stroke="rgb(165,63,110)" stroke-width="1" opacity="0.75" />
		</g>
	</g>
	<g>
		<title>mscL</title>
		<polygon class="mscL" points="2076,16 2053,16 2053,1 2023,31 2053,61 2053,46 2076,46" fill="rgb(250,204,179)" fill-opacity="1.0" stroke="rgb(100,81,71)" stroke-width="1" />
		<g>
			<title>PF04820</title>
			<polygon class="PF04820" points="2028,28 2038,18 2072,18 2072,44 2038,44 2028,33" stroke-linejoin="round" width="44" height="26" fill="rgb(179,74,194)" stroke="rgb(143,59,155)" stroke-width="1" opacity="0.75" />
		</g>
	</g>
	<g>
		<title>mscK</title>
		<polygon class="mscK" points="46,16 31,16 31,1 1,31 31,61 31,46 46,46" fill="rgb(231,183,254)" fill-opacity="1.0" stroke="rgb(92,73,101)" stroke-width="1" />
		<g>
			<title>PF07690</title>
			<polygon class="PF07690" points="3,31 16,18 20,18 20,44 16,44" stroke-linejoin="round" width="19" height="26" fill="rgb(193,224,74)" stroke="rgb(154,179,59)" stroke-width="1" opacity="0.75" />
		</g>
		<g>
			<title>PF07690</title>
			<rect class="PF07690" x="19" y="18" stroke-linejoin="round" width="20" height="26" fill="rgb(193,224,74)" stroke="rgb(154,179,59)" stroke-width="1" opacity="0.75" />
		</g>
	</g>
	<g>
		<title>mscJ</title>
		<polygon class="mscJ" points="101,16 101,16 101,1 127,31 101,61 101,46 101,46" fill="rgb(243,210,250)" fill-opacity="1.0" stroke="rgb(97,84,100)" stroke-width="1" />
		<g>
			<title>PF00975</title>
			<polygon class="PF00975" points="103,18 113,18 124,31 113,44 103,44" stroke-linejoin="round" width="22" height="26" fill="rgb(207,80,138)" stroke="rgb(165,63,110)" stroke-width="1" opacity="0.75" />
		</g>
	</g>
	<g>
		<title>mscA</title>
		<polygon class="mscA" points="138,16 461,16 461,1 491,31 461,61 461,46 138,46" fill="rgb(250,183,253)" fill-opacity="1.0" stroke="rgb(100,73,101)" stroke-width="1" />
		<g>
			<title>PF00501</title>
			<rect class="PF00501" x="157" y="18" stroke-linejoin="round" width="43" height="26" fill="rgb(60,217,223)" stroke="rgb(48,173,178)" stroke-width="1" opacity="0.75" />
		</g>
		<g>
			<title>PF05185</title>
			<rect class="PF05185" x="260" y="18" stroke-linejoin="round" width="28" height="26" fill="rgb(130,195,89)" stroke="rgb(104,156,71)" stroke-width="1" opacity="0.75" />
		</g>
		<g>
			<title>PF00550</title>
			<rect class="PF00550" x="299" y="18" stroke-linejoin="round" width="6" height="26" fill="rgb(103,191,88)" stroke="rgb(82,152,70)" stroke-width="1" opacity="0.75" />
		</g>
		<g>
			<title>PF00109</title>
			<rect class="PF00109" x="308" y="18" stroke-linejoin="round" width="26" height="26" fill="rgb(112,116,228)" stroke="rgb(89,92,182)" stroke-width="1" opacity="0.75" />
		</g>
		<g>
			<title>PF02801</title>
			<rect class="PF02801" x="335" y="18" stroke-linejoin="round" width="11" height="26" fill="rgb(215,78,102)" stroke="rgb(172,62,81)" stroke-width="1" opacity="0.75" />
		</g>
		<g>
			<title>PF16197</title>
			<rect class="PF16197" x="347" y="18" stroke-linejoin="round" width="11" height="26" fill="rgb(68,179,89)" stroke="rgb(54,143,71)" stroke-width="1" opacity="0.75" />
		</g>
		<g>
			<title>PF00698</title>
			<rect class="PF00698" x="362" y="18" stroke-linejoin="round" width="31" height="26" fill="rgb(59,176,209)" stroke="rgb(47,140,167)" stroke-width="1" opacity="0.75" />
		</g>
		<g>
			<title>PF14765</title>
			<rect class="PF14765" x="398" y="18" stroke-linejoin="round" width="28" height="26" fill="rgb(173,56,182)" stroke="rgb(138,44,145)" stroke-width="1" opacity="0.75" />
		</g>
		<g>
			<title>PF08659</title>
			<rect class="PF08659" x="451" y="18" stroke-linejoin="round" width="17" height="26" fill="rgb(66,209,188)" stroke="rgb(52,167,150)" stroke-width="1" opacity="0.75" />
		</g>
		<g>
			<title>PF00550</title>
			<polygon class="PF00550" points="478,21 484,27 484,35 478,41" stroke-linejoin="round" width="6" height="26" fill="rgb(103,191,88)" stroke="rgb(82,152,70)" stroke-width="1" opacity="0.75" />
		</g>
	</g>
	<g>
		<title>mscB</title>
		<polygon class="mscB" points="491,16 548,16 548,1 578,31 548,61 548,46 491,46" fill="rgb(251,215,183)" fill-opacity="1.0" stroke="rgb(100,86,73)" stroke-width="1" />
		<g>
			<title>PF00109</title>
			<rect class="PF00109" x="494" y="18" stroke-linejoin="round" width="25" height="26" fill="rgb(112,116,228)" stroke="rgb(89,92,182)" stroke-width="1" opacity="0.75" />
		</g>
		<g>
			<title>PF02801</title>
			<rect class="PF02801" x="520" y="18" stroke-linejoin="round" width="11" height="26" fill="rgb(215,78,102)" stroke="rgb(172,62,81)" stroke-width="1" opacity="0.75" />
		</g>
		<g>
			<title>PF16197</title>
			<rect class="PF16197" x="532" y="18" stroke-linejoin="round" width="11" height="26" fill="rgb(68,179,89)" stroke="rgb(54,143,71)" stroke-width="1" opacity="0.75" />
		</g>
		<g>
			<title>PF00698</title>
			<rect class="PF00698" x="546" y="18" stroke-linejoin="round" width="13" height="26" fill="rgb(59,176,209)" stroke="rgb(47,140,167)" stroke-width="1" opacity="0.75" />
		</g>
	</g>
	<g>
		<title>mscC</title>
		<polygon class="mscC" points="579,16 704,16 704,1 734,31 704,61 704,46 579,46" fill="rgb(209,254,240)" fill-opacity="1.0" stroke="rgb(83,101,96)" stroke-width="1" />
		<g>
			<title>PF00109</title>
			<rect class="PF00109" x="582" y="18" stroke-linejoin="round" width="25" height="26" fill="rgb(112,116,228)" stroke="rgb(89,92,182)" stroke-width="1" opacity="0.75" />
		</g>
		<g>
			<title>PF02801</title>
			<rect class="PF02801" x="608" y="18" stroke-linejoin="round" width="11" height="26" fill="rgb(215,78,102)" stroke="rgb(172,62,81)" stroke-width="1" opacity="0.75" />
		</g>
		<g>
			<title>PF16197</title>
			<rect class="PF16197" x="620" y="18" stroke-linejoin="round" width="11" height="26" fill="rgb(68,179,89)" stroke="rgb(54,143,71)" stroke-width="1" opacity="0.75" />
		</g>
		<g>
			<title>PF00698</title>
			<rect class="PF00698" x="634" y="18" stroke-linejoin="round" width="32" height="26" fill="rgb(59,176,209)" stroke="rgb(47,140,167)" stroke-width="1" opacity="0.75" />
		</g>
		<g>
			<title>PF08659</title>
			<rect class="PF08659" x="694" y="18" stroke-linejoin="round" width="17" height="26" fill="rgb(66,209,188)" stroke="rgb(52,167,150)" stroke-width="1" opacity="0.75" />
		</g>
		<g>
			<title>PF00550</title>
			<polygon class="PF00550" points="722,22 728,28 728,34 722,40" stroke-linejoin="round" width="6" height="26" fill="rgb(103,191,88)" stroke="rgb(82,152,70)" stroke-width="1" opacity="0.75" />
		</g>
	</g>
	<g>
		<title>mscD</title>
		<polygon class="mscD" points="734,16 788,16 788,1 818,31 788,61 788,46 734,46" fill="rgb(251,206,221)" fill-opacity="1.0" stroke="rgb(100,82,88)" stroke-width="1" />
		<g>
			<title>PF00109</title>
			<rect class="PF00109" x="737" y="18" stroke-linejoin="round" width="25" height="26" fill="rgb(112,116,228)" stroke="rgb(89,92,182)" stroke-width="1" opacity="0.75" />
		</g>
		<g>
			<title>PF02801</title>
			<rect class="PF02801" x="763" y="18" stroke-linejoin="round" width="11" height="26" fill="rgb(215,78,102)" stroke="rgb(172,62,81)" stroke-width="1" opacity="0.75" />
		</g>
		<g>
			<title>PF16197</title>
			<rect class="PF16197" x="775" y="18" stroke-linejoin="round" width="11" height="26" fill="rgb(68,179,89)" stroke="rgb(54,143,71)" stroke-width="1" opacity="0.75" />
		</g>
		<g>
			<title>PF00698</title>
			<rect class="PF00698" x="790" y="18" stroke-linejoin="round" width="11" height="26" fill="rgb(59,176,209)" stroke="rgb(47,140,167)" stroke-width="1" opacity="0.75" />
		</g>
	</g>
	<g>
		<title>mscM</title>
		<polygon class="mscM" points="820,16 833,16 833,1 863,31 833,61 833,46 820,46" fill="rgb(214,245,252)" fill-opacity="1.0" stroke="rgb(85,98,100)" stroke-width="1" />
		<g>
			<title>PF02668</title>
			<polygon class="PF02668" points="823,18 847,18 858,29 858,33 847,44 823,44" stroke-linejoin="round" width="35" height="26" fill="rgb(180,79,217)" stroke="rgb(144,63,173)" stroke-width="1" opacity="0.75" />
		</g>
	</g>
	<g>
		<title>mscN</title>
		<polygon class="mscN" points="890,16 890,16 890,1 863,31 890,61 890,46 890,46" fill="rgb(230,204,250)" fill-opacity="1.0" stroke="rgb(92,81,100)" stroke-width="1" />
		<g>
			<title>PF13578</title>
			<polygon class="PF13578" points="870,26 877,18 886,18 886,44 877,44 870,35" stroke-linejoin="round" width="16" height="26" fill="rgb(106,221,159)" stroke="rgb(84,176,127)" stroke-width="1" opacity="0.75" />
		</g>
	</g>
	<g>
		<title>mscE</title>
		<polygon class="mscE" points="930,16 922,16 922,1 892,31 922,61 922,46 930,46" fill="rgb(252,177,219)" fill-opacity="1.0" stroke="rgb(100,70,87)" stroke-width="1" />
		<g>
			<title>PF04909</title>
			<polygon class="PF04909" points="894,31 907,18 927,18 927,44 907,44" stroke-linejoin="round" width="35" height="26" fill="rgb(95,225,123)" stroke="rgb(76,180,98)" stroke-width="1" opacity="0.75" />
		</g>
	</g>
</svg>
