<svg version="1.1" baseProfile="full" xmlns="http://www.w3.org/2000/svg" width="119" height="62">
	<line x1="1" y1="31" x2="118" y2="31" style="stroke:rgb(50,50,50); stroke-width:3 "/>
	<g>
		<title>aciB</title>
		<polygon class="aciB" points="5,16 5,16 5,1 22,31 5,61 5,46 5,46" fill="rgb(240,250,194)" fill-opacity="1.0" stroke="rgb(96,100,77)" stroke-width="1" />
	</g>
	<g>
		<title>aciC</title>
		<polygon class="aciC" points="24,16 24,16 24,1 30,31 24,61 24,46 24,46" fill="rgb(239,214,253)" fill-opacity="1.0" stroke="rgb(95,85,101)" stroke-width="1" />
	</g>
	<g>
		<title>aciA</title>
		<polygon class="aciA" points="33,16 33,16 33,1 42,31 33,61 33,46 33,46" fill="rgb(209,231,254)" fill-opacity="1.0" stroke="rgb(83,92,101)" stroke-width="1" />
		<g>
			<title>PF12173</title>
			<polygon class="PF12173" points="33,18 35,18 39,31 35,44 33,44" stroke-linejoin="round" width="9" height="26" fill="rgb(121,181,84)" stroke="rgb(96,144,67)" stroke-width="1" opacity="0.75" />
		</g>
	</g>
	<g>
		<title>aciD</title>
		<polygon class="aciD" points="45,16 45,16 45,1 61,31 45,61 45,46 45,46" fill="rgb(183,184,250)" fill-opacity="1.0" stroke="rgb(73,73,100)" stroke-width="1" />
		<g>
			<title>PF01944</title>
			<polygon class="PF01944" points="45,18 51,18 58,31 51,44 45,44" stroke-linejoin="round" width="14" height="26" fill="rgb(96,132,207)" stroke="rgb(76,105,165)" stroke-width="1" opacity="0.75" />
		</g>
	</g>
	<g>
		<title>aciI</title>
		<polygon class="aciI" points="62,16 62,16 62,1 67,31 62,61 62,46 62,46" fill="rgb(190,252,224)" fill-opacity="1.0" stroke="rgb(76,100,89)" stroke-width="1" />
	</g>
	<g>
		<title>aciT</title>
		<polygon class="aciT" points="69,16 69,16 69,1 91,31 69,61 69,46 69,46" fill="rgb(250,195,182)" fill-opacity="1.0" stroke="rgb(100,78,72)" stroke-width="1" />
		<g>
			<title>PF00005</title>
			<polygon class="PF00005" points="71,18 78,18 83,24 83,38 78,44 71,44" stroke-linejoin="round" width="12" height="26" fill="rgb(129,201,63)" stroke="rgb(103,160,50)" stroke-width="1" opacity="0.75" />
		</g>
	</g>
	<g>
		<title>aciE</title>
		<polygon class="aciE" points="91,16 91,16 91,1 112,31 91,61 91,46 91,46" fill="rgb(251,213,237)" fill-opacity="1.0" stroke="rgb(100,85,94)" stroke-width="1" />
		<g>
			<title>PF13346</title>
			<polygon class="PF13346" points="91,18 100,18 109,31 100,44 91,44" stroke-linejoin="round" width="20" height="26" fill="rgb(176,207,85)" stroke="rgb(140,165,67)" stroke-width="1" opacity="0.75" />
		</g>
	</g>
</svg>
