<svg version="1.1" baseProfile="full" xmlns="http://www.w3.org/2000/svg" width="216" height="62">
	<line x1="1" y1="31" x2="215" y2="31" style="stroke:rgb(50,50,50); stroke-width:3 "/>
	<g>
		<title>phaB</title>
		<polygon class="phaB" points="21,16 21,16 21,1 1,31 21,61 21,46 21,46" fill="rgb(201,250,209)" fill-opacity="1.0" stroke="rgb(80,100,83)" stroke-width="1" />
		<g>
			<title>PF00106</title>
			<polygon class="PF00106" points="6,27 12,18 21,18 21,44 12,44 6,34" stroke-linejoin="round" width="15" height="26" fill="rgb(182,219,73)" stroke="rgb(145,175,58)" stroke-width="1" opacity="0.75" />
		</g>
	</g>
	<g>
		<title>phaP</title>
		<polygon class="phaP" points="41,16 41,16 41,1 29,31 41,61 41,46 41,46" fill="rgb(182,239,250)" fill-opacity="1.0" stroke="rgb(72,95,100)" stroke-width="1" />
		<g>
			<title>PF09361</title>
			<polygon class="PF09361" points="31,31 36,18 39,18 39,44 36,44" stroke-linejoin="round" width="9" height="26" fill="rgb(150,71,183)" stroke="rgb(120,56,146)" stroke-width="1" opacity="0.75" />
		</g>
	</g>
	<g>
		<polygon class="NoName" points="57,16 57,16 57,1 46,31 57,61 57,46 57,46" fill="rgb(255,255,255)" fill-opacity="1.0" stroke="rgb(50,50,50)" stroke-width="1" />
		<g>
			<title>PF05233</title>
			<polygon class="PF05233" points="53,17 53,18 56,18 56,44 53,44 53,44" stroke-linejoin="round" width="3" height="26" fill="rgb(90,173,181)" stroke="rgb(72,138,144)" stroke-width="1" opacity="0.75" />
		</g>
	</g>
	<g>
		<title>phaA</title>
		<polygon class="phaA" points="107,16 98,16 98,1 68,31 98,61 98,46 107,46" fill="rgb(212,252,186)" fill-opacity="1.0" stroke="rgb(84,100,74)" stroke-width="1" />
		<g>
			<title>PF02803</title>
			<polygon class="PF02803" points="70,31 80,21 80,40" stroke-linejoin="round" width="12" height="26" fill="rgb(218,187,56)" stroke="rgb(174,149,44)" stroke-width="1" opacity="0.75" />
		</g>
		<g>
			<title>PF00108</title>
			<polygon class="PF00108" points="81,20 83,18 106,18 106,44 83,44 81,41" stroke-linejoin="round" width="25" height="26" fill="rgb(82,90,195)" stroke="rgb(65,72,156)" stroke-width="1" opacity="0.75" />
		</g>
	</g>
	<g>
		<polygon class="NoName" points="72,16 74,16 74,1 104,31 74,61 74,46 72,46" fill="rgb(255,255,255)" fill-opacity="1.0" stroke="rgb(50,50,50)" stroke-width="1" />
	</g>
	<g>
		<title>phaE</title>
		<polygon class="phaE" points="121,16 128,16 128,1 158,31 128,61 128,46 121,46" fill="rgb(198,254,246)" fill-opacity="1.0" stroke="rgb(79,101,98)" stroke-width="1" />
		<g>
			<title>PF09712</title>
			<polygon class="PF09712" points="122,18 142,18 151,27 151,35 142,44 122,44" stroke-linejoin="round" width="29" height="26" fill="rgb(219,141,78)" stroke="rgb(175,112,62)" stroke-width="1" opacity="0.75" />
		</g>
	</g>
	<g>
		<title>phaC</title>
		<polygon class="phaC" points="159,16 164,16 164,1 194,31 164,61 164,46 159,46" fill="rgb(252,222,185)" fill-opacity="1.0" stroke="rgb(100,88,74)" stroke-width="1" />
		<g>
			<title>PF00561</title>
			<polygon class="PF00561" points="165,18 178,18 191,31 191,31 178,44 165,44" stroke-linejoin="round" width="26" height="26" fill="rgb(86,180,151)" stroke="rgb(68,144,120)" stroke-width="1" opacity="0.75" />
		</g>
	</g>
</svg>
