<svg version="1.1" baseProfile="full" xmlns="http://www.w3.org/2000/svg" width="1342" height="62">
	<line x1="1" y1="31" x2="1341" y2="31" style="stroke:rgb(50,50,50); stroke-width:3 "/>
	<g>
		<title>patN</title>
		<polygon class="patN" points="712,16 712,16 712,1 741,31 712,61 712,46 712,46" fill="rgb(218,254,188)" fill-opacity="1.0" stroke="rgb(87,101,75)" stroke-width="1" />
		<g>
			<title>PF13561</title>
			<polygon class="PF13561" points="713,18 725,18 736,29 736,33 725,44 713,44" stroke-linejoin="round" width="23" height="26" fill="rgb(73,205,127)" stroke="rgb(58,164,101)" stroke-width="1" opacity="0.75" />
		</g>
	</g>
	<g>
		<title>patO</title>
		<polygon class="patO" points="764,16 799,16 799,1 829,31 799,61 799,46 764,46" fill="rgb(221,183,253)" fill-opacity="1.0" stroke="rgb(88,73,101)" stroke-width="1" />
		<g>
			<title>PF01565</title>
			<rect class="PF01565" x="776" y="18" stroke-linejoin="round" width="14" height="26" fill="rgb(226,88,136)" stroke="rgb(180,70,108)" stroke-width="1" opacity="0.75" />
		</g>
		<g>
			<title>PF08031</title>
			<polygon class="PF08031" points="814,19 818,23 818,39 814,43" stroke-linejoin="round" width="4" height="26" fill="rgb(210,73,83)" stroke="rgb(168,58,66)" stroke-width="1" opacity="0.75" />
		</g>
	</g>
	<g>
		<title>patL</title>
		<polygon class="patL" points="950,16 899,16 899,1 869,31 899,61 899,46 950,46" fill="rgb(227,253,178)" fill-opacity="1.0" stroke="rgb(90,101,71)" stroke-width="1" />
		<g>
			<title>PF04082</title>
			<rect class="PF04082" x="905" y="18" stroke-linejoin="round" width="22" height="26" fill="rgb(51,172,200)" stroke="rgb(40,137,160)" stroke-width="1" opacity="0.75" />
		</g>
		<g>
			<title>PF00172</title>
			<rect class="PF00172" x="943" y="18" stroke-linejoin="round" width="3" height="26" fill="rgb(121,178,76)" stroke="rgb(96,142,60)" stroke-width="1" opacity="0.75" />
		</g>
	</g>
	<g>
		<title>patI</title>
		<polygon class="patI" points="1067,16 1035,16 1035,1 1005,31 1035,61 1035,46 1067,46" fill="rgb(197,218,251)" fill-opacity="1.0" stroke="rgb(78,87,100)" stroke-width="1" />
		<g>
			<title>PF00067</title>
			<polygon class="PF00067" points="1018,20 1020,18 1063,18 1063,44 1020,44 1018,41" stroke-linejoin="round" width="45" height="26" fill="rgb(85,216,107)" stroke="rgb(68,172,85)" stroke-width="1" opacity="0.75" />
		</g>
	</g>
	<g>
		<title>patJ</title>
		<polygon class="patJ" points="1126,16 1119,16 1119,1 1089,31 1119,61 1119,46 1126,46" fill="rgb(209,254,228)" fill-opacity="1.0" stroke="rgb(83,101,91)" stroke-width="1" />
	</g>
	<g>
		<title>patK</title>
		<polygon class="patK" points="1154,16 1304,16 1304,1 1334,31 1304,61 1304,46 1154,46" fill="rgb(250,196,194)" fill-opacity="1.0" stroke="rgb(100,78,77)" stroke-width="1" />
		<g>
			<title>PF00109</title>
			<rect class="PF00109" x="1157" y="18" stroke-linejoin="round" width="25" height="26" fill="rgb(112,116,228)" stroke="rgb(89,92,182)" stroke-width="1" opacity="0.75" />
		</g>
		<g>
			<title>PF02801</title>
			<rect class="PF02801" x="1183" y="18" stroke-linejoin="round" width="11" height="26" fill="rgb(215,78,102)" stroke="rgb(172,62,81)" stroke-width="1" opacity="0.75" />
		</g>
		<g>
			<title>PF16197</title>
			<rect class="PF16197" x="1195" y="18" stroke-linejoin="round" width="11" height="26" fill="rgb(68,179,89)" stroke="rgb(54,143,71)" stroke-width="1" opacity="0.75" />
		</g>
		<g>
			<title>PF00698</title>
			<rect class="PF00698" x="1210" y="18" stroke-linejoin="round" width="31" height="26" fill="rgb(59,176,209)" stroke="rgb(47,140,167)" stroke-width="1" opacity="0.75" />
		</g>
		<g>
			<title>PF14765</title>
			<rect class="PF14765" x="1246" y="18" stroke-linejoin="round" width="27" height="26" fill="rgb(173,56,182)" stroke="rgb(138,44,145)" stroke-width="1" opacity="0.75" />
		</g>
		<g>
			<title>PF08659</title>
			<rect class="PF08659" x="1295" y="18" stroke-linejoin="round" width="19" height="26" fill="rgb(66,209,188)" stroke="rgb(52,167,150)" stroke-width="1" opacity="0.75" />
		</g>
		<g>
			<title>PF00550</title>
			<polygon class="PF00550" points="1324,24 1330,30 1330,32 1324,38" stroke-linejoin="round" width="6" height="26" fill="rgb(103,191,88)" stroke="rgb(82,152,70)" stroke-width="1" opacity="0.75" />
		</g>
	</g>
	<g>
		<title>patH</title>
		<polygon class="patH" points="68,16 37,16 37,1 7,31 37,61 37,46 68,46" fill="rgb(250,203,252)" fill-opacity="1.0" stroke="rgb(100,81,100)" stroke-width="1" />
		<g>
			<title>PF00067</title>
			<polygon class="PF00067" points="19,21 22,18 64,18 64,44 22,44 19,40" stroke-linejoin="round" width="45" height="26" fill="rgb(85,216,107)" stroke="rgb(68,172,85)" stroke-width="1" opacity="0.75" />
		</g>
	</g>
	<g>
		<title>patG</title>
		<polygon class="patG" points="128,16 124,16 124,1 94,31 124,61 124,46 128,46" fill="rgb(181,251,212)" fill-opacity="1.0" stroke="rgb(72,100,84)" stroke-width="1" />
		<g>
			<title>PF04909</title>
			<polygon class="PF04909" points="96,31 109,18 127,18 127,44 109,44" stroke-linejoin="round" width="31" height="26" fill="rgb(95,225,123)" stroke="rgb(76,180,98)" stroke-width="1" opacity="0.75" />
		</g>
	</g>
	<g>
		<title>patF</title>
		<polygon class="patF" points="165,16 165,16 165,1 145,31 165,61 165,46 165,46" fill="rgb(200,251,240)" fill-opacity="1.0" stroke="rgb(80,100,96)" stroke-width="1" />
	</g>
	<g>
		<title>patE</title>
		<polygon class="patE" points="179,16 215,16 215,1 245,31 215,61 215,46 179,46" fill="rgb(219,251,190)" fill-opacity="1.0" stroke="rgb(87,100,76)" stroke-width="1" />
		<g>
			<title>PF00732</title>
			<rect class="PF00732" x="184" y="18" stroke-linejoin="round" width="31" height="26" fill="rgb(180,89,214)" stroke="rgb(143,71,171)" stroke-width="1" opacity="0.75" />
		</g>
		<g>
			<title>PF05199</title>
			<polygon class="PF05199" points="227,18 229,18 240,29 240,33 229,44 227,44" stroke-linejoin="round" width="13" height="26" fill="rgb(186,52,106)" stroke="rgb(148,41,84)" stroke-width="1" opacity="0.75" />
		</g>
	</g>
	<g>
		<title>patD</title>
		<polygon class="patD" points="305,16 285,16 285,1 255,31 285,61 285,46 305,46" fill="rgb(253,199,219)" fill-opacity="1.0" stroke="rgb(101,79,87)" stroke-width="1" />
		<g>
			<title>PF00107</title>
			<rect class="PF00107" x="274" y="18" stroke-linejoin="round" width="12" height="26" fill="rgb(81,108,215)" stroke="rgb(64,86,172)" stroke-width="1" opacity="0.75" />
		</g>
		<g>
			<title>PF08240</title>
			<rect class="PF08240" x="291" y="18" stroke-linejoin="round" width="10" height="26" fill="rgb(211,65,138)" stroke="rgb(168,51,110)" stroke-width="1" opacity="0.75" />
		</g>
	</g>
	<g>
		<title>patC</title>
		<polygon class="patC" points="380,16 352,16 352,1 322,31 352,61 352,46 380,46" fill="rgb(251,220,194)" fill-opacity="1.0" stroke="rgb(100,88,77)" stroke-width="1" />
		<g>
			<title>PF07690</title>
			<polygon class="PF07690" points="334,21 337,18 375,18 375,44 337,44 334,40" stroke-linejoin="round" width="41" height="26" fill="rgb(193,224,74)" stroke="rgb(154,179,59)" stroke-width="1" opacity="0.75" />
		</g>
	</g>
	<g>
		<title>patB</title>
		<polygon class="patB" points="403,16 437,16 437,1 467,31 437,61 437,46 403,46" fill="rgb(225,207,252)" fill-opacity="1.0" stroke="rgb(90,82,100)" stroke-width="1" />
		<g>
			<title>PF00135</title>
			<polygon class="PF00135" points="405,18 451,18 458,25 458,37 451,44 405,44" stroke-linejoin="round" width="53" height="26" fill="rgb(204,82,64)" stroke="rgb(163,65,51)" stroke-width="1" opacity="0.75" />
		</g>
	</g>
	<g>
		<title>patA</title>
		<polygon class="patA" points="523,16 519,16 519,1 489,31 519,61 519,46 523,46" fill="rgb(253,245,207)" fill-opacity="1.0" stroke="rgb(101,98,82)" stroke-width="1" />
		<g>
			<title>PF01184</title>
			<polygon class="PF01184" points="500,22 504,18 520,18 520,44 504,44 500,39" stroke-linejoin="round" width="20" height="26" fill="rgb(191,119,90)" stroke="rgb(152,95,72)" stroke-width="1" opacity="0.75" />
		</g>
	</g>
	<g>
		<title>patM</title>
		<polygon class="patM" points="696,16 575,16 575,1 545,31 575,61 575,46 696,46" fill="rgb(220,252,185)" fill-opacity="1.0" stroke="rgb(88,100,74)" stroke-width="1" />
		<g>
			<title>PF06422</title>
			<polygon class="PF06422" points="557,21 560,18 561,18 561,44 560,44 557,40" stroke-linejoin="round" width="4" height="26" fill="rgb(48,108,186)" stroke="rgb(38,86,148)" stroke-width="1" opacity="0.75" />
		</g>
		<g>
			<title>PF01061</title>
			<rect class="PF01061" x="567" y="18" stroke-linejoin="round" width="21" height="26" fill="rgb(139,217,106)" stroke="rgb(111,173,84)" stroke-width="1" opacity="0.75" />
		</g>
		<g>
			<title>PF00005</title>
			<rect class="PF00005" x="602" y="18" stroke-linejoin="round" width="15" height="26" fill="rgb(129,201,63)" stroke="rgb(103,160,50)" stroke-width="1" opacity="0.75" />
		</g>
		<g>
			<title>PF06422</title>
			<rect class="PF06422" x="623" y="18" stroke-linejoin="round" width="8" height="26" fill="rgb(48,108,186)" stroke="rgb(38,86,148)" stroke-width="1" opacity="0.75" />
		</g>
		<g>
			<title>PF01061</title>
			<rect class="PF01061" x="633" y="18" stroke-linejoin="round" width="20" height="26" fill="rgb(139,217,106)" stroke="rgb(111,173,84)" stroke-width="1" opacity="0.75" />
		</g>
		<g>
			<title>PF00005</title>
			<rect class="PF00005" x="669" y="18" stroke-linejoin="round" width="15" height="26" fill="rgb(129,201,63)" stroke="rgb(103,160,50)" stroke-width="1" opacity="0.75" />
		</g>
	</g>
</svg>
