<svg version="1.1" baseProfile="full" xmlns="http://www.w3.org/2000/svg" width="1681" height="62">
	<line x1="1" y1="31" x2="1680" y2="31" style="stroke:rgb(50,50,50); stroke-width:3 "/>
	<g>
		<title>azicX</title>
		<polygon class="azicX" points="439,16 439,16 439,1 426,31 439,61 439,46 439,46" fill="rgb(240,250,181)" fill-opacity="1.0" stroke="rgb(96,100,72)" stroke-width="1" />
		<g>
			<title>PF01243</title>
			<polygon class="PF01243" points="429,29 434,18 438,18 438,44 434,44 429,32" stroke-linejoin="round" width="9" height="26" fill="rgb(177,193,67)" stroke="rgb(141,154,53)" stroke-width="1" opacity="0.75" />
		</g>
	</g>
	<g>
		<title>azicU3</title>
		<polygon class="azicU3" points="456,16 456,16 456,1 441,31 456,61 456,46 456,46" fill="rgb(182,207,252)" fill-opacity="1.0" stroke="rgb(72,82,100)" stroke-width="1" />
		<g>
			<title>PF13577</title>
			<polygon class="PF13577" points="443,31 450,18 454,18 454,44 450,44" stroke-linejoin="round" width="12" height="26" fill="rgb(68,223,209)" stroke="rgb(54,178,167)" stroke-width="1" opacity="0.75" />
		</g>
	</g>
	<g>
		<title>azicR3</title>
		<polygon class="azicR3" points="484,16 484,16 484,1 507,31 484,61 484,46 484,46" fill="rgb(252,239,181)" fill-opacity="1.0" stroke="rgb(100,95,72)" stroke-width="1" />
		<g>
			<title>PF00072</title>
			<rect class="PF00072" x="484" y="18" stroke-linejoin="round" width="10" height="26" fill="rgb(100,107,203)" stroke="rgb(80,85,162)" stroke-width="1" opacity="0.75" />
		</g>
		<g>
			<title>PF00486</title>
			<polygon class="PF00486" points="498,23 504,31 498,39" stroke-linejoin="round" width="7" height="26" fill="rgb(204,153,57)" stroke="rgb(163,122,45)" stroke-width="1" opacity="0.75" />
		</g>
	</g>
	<g>
		<title>azicO4</title>
		<polygon class="azicO4" points="515,16 535,16 535,1 565,31 535,61 535,46 515,46" fill="rgb(252,178,188)" fill-opacity="1.0" stroke="rgb(100,71,75)" stroke-width="1" />
		<g>
			<title>PF01494</title>
			<rect class="PF01494" x="515" y="18" stroke-linejoin="round" width="33" height="26" fill="rgb(182,175,59)" stroke="rgb(145,140,47)" stroke-width="1" opacity="0.75" />
		</g>
	</g>
	<g>
		<title>azicA</title>
		<polygon class="azicA" points="566,16 578,16 578,1 608,31 578,61 578,46 566,46" fill="rgb(250,189,239)" fill-opacity="1.0" stroke="rgb(100,75,95)" stroke-width="1" />
		<g>
			<title>PF00109</title>
			<rect class="PF00109" x="566" y="18" stroke-linejoin="round" width="25" height="26" fill="rgb(112,116,228)" stroke="rgb(89,92,182)" stroke-width="1" opacity="0.75" />
		</g>
		<g>
			<title>PF02801</title>
			<polygon class="PF02801" points="592,18 592,18 603,29 603,33 592,44 592,44" stroke-linejoin="round" width="11" height="26" fill="rgb(215,78,102)" stroke="rgb(172,62,81)" stroke-width="1" opacity="0.75" />
		</g>
	</g>
	<g>
		<title>azicB</title>
		<polygon class="azicB" points="608,16 618,16 618,1 648,31 618,61 618,46 608,46" fill="rgb(254,184,245)" fill-opacity="1.0" stroke="rgb(101,73,98)" stroke-width="1" />
		<g>
			<title>PF00109</title>
			<rect class="PF00109" x="608" y="18" stroke-linejoin="round" width="24" height="26" fill="rgb(112,116,228)" stroke="rgb(89,92,182)" stroke-width="1" opacity="0.75" />
		</g>
		<g>
			<title>PF02801</title>
			<polygon class="PF02801" points="633,19 644,30 644,32 633,43" stroke-linejoin="round" width="11" height="26" fill="rgb(215,78,102)" stroke="rgb(172,62,81)" stroke-width="1" opacity="0.75" />
		</g>
	</g>
	<g>
		<title>azicC</title>
		<polygon class="azicC" points="648,16 648,16 648,1 656,31 648,61 648,46 648,46" fill="rgb(250,194,217)" fill-opacity="1.0" stroke="rgb(100,77,86)" stroke-width="1" />
		<g>
			<title>PF00550</title>
			<polygon class="PF00550" points="649,18 650,18 653,31 650,44 649,44" stroke-linejoin="round" width="6" height="26" fill="rgb(103,191,88)" stroke="rgb(82,152,70)" stroke-width="1" opacity="0.75" />
		</g>
	</g>
	<g>
		<title>azicD</title>
		<polygon class="azicD" points="658,16 658,16 658,1 683,31 658,61 658,46 658,46" fill="rgb(196,183,251)" fill-opacity="1.0" stroke="rgb(78,73,100)" stroke-width="1" />
		<g>
			<title>PF00106</title>
			<polygon class="PF00106" points="658,18 669,18 677,27 677,35 669,44 658,44" stroke-linejoin="round" width="19" height="26" fill="rgb(182,219,73)" stroke="rgb(145,175,58)" stroke-width="1" opacity="0.75" />
		</g>
	</g>
	<g>
		<title>azicE</title>
		<polygon class="azicE" points="684,16 685,16 685,1 715,31 685,61 685,46 684,46" fill="rgb(254,241,199)" fill-opacity="1.0" stroke="rgb(101,96,79)" stroke-width="1" />
		<g>
			<title>PF10604</title>
			<rect class="PF10604" x="684" y="18" stroke-linejoin="round" width="14" height="26" fill="rgb(105,204,74)" stroke="rgb(84,163,59)" stroke-width="1" opacity="0.75" />
		</g>
		<g>
			<title>PF03364</title>
			<polygon class="PF03364" points="700,19 712,31 700,43" stroke-linejoin="round" width="13" height="26" fill="rgb(221,94,106)" stroke="rgb(176,75,84)" stroke-width="1" opacity="0.75" />
		</g>
	</g>
	<g>
		<title>azicO5</title>
		<polygon class="azicO5" points="716,16 731,16 731,1 761,31 731,61 731,46 716,46" fill="rgb(212,253,220)" fill-opacity="1.0" stroke="rgb(84,101,88)" stroke-width="1" />
		<g>
			<title>PF01494</title>
			<polygon class="PF01494" points="716,18 745,18 748,21 748,41 745,44 716,44" stroke-linejoin="round" width="32" height="26" fill="rgb(182,175,59)" stroke="rgb(145,140,47)" stroke-width="1" opacity="0.75" />
		</g>
	</g>
	<g>
		<title>azicR2</title>
		<polygon class="azicR2" points="39,16 39,16 39,1 18,31 39,61 39,46 39,46" fill="rgb(248,254,206)" fill-opacity="1.0" stroke="rgb(99,101,82)" stroke-width="1" />
		<g>
			<title>PF00196</title>
			<polygon class="PF00196" points="20,31 24,25 24,36" stroke-linejoin="round" width="5" height="26" fill="rgb(219,94,82)" stroke="rgb(175,75,65)" stroke-width="1" opacity="0.75" />
		</g>
		<g>
			<title>PF00072</title>
			<polygon class="PF00072" points="27,21 29,18 37,18 37,44 29,44 27,40" stroke-linejoin="round" width="10" height="26" fill="rgb(100,107,203)" stroke="rgb(80,85,162)" stroke-width="1" opacity="0.75" />
		</g>
	</g>
	<g>
		<title>azicF</title>
		<polygon class="azicF" points="761,16 761,16 761,1 786,31 761,61 761,46 761,46" fill="rgb(254,205,238)" fill-opacity="1.0" stroke="rgb(101,82,95)" stroke-width="1" />
		<g>
			<title>PF13561</title>
			<polygon class="PF13561" points="761,18 772,18 783,31 772,44 761,44" stroke-linejoin="round" width="23" height="26" fill="rgb(73,205,127)" stroke="rgb(58,164,101)" stroke-width="1" opacity="0.75" />
		</g>
	</g>
	<g>
		<title>azicG</title>
		<polygon class="azicG" points="787,16 808,16 808,1 838,31 808,61 808,46 787,46" fill="rgb(243,254,180)" fill-opacity="1.0" stroke="rgb(97,101,72)" stroke-width="1" />
		<g>
			<title>PF01039</title>
			<polygon class="PF01039" points="790,18 822,18 835,31 822,44 790,44" stroke-linejoin="round" width="48" height="26" fill="rgb(180,136,60)" stroke="rgb(144,108,48)" stroke-width="1" opacity="0.75" />
		</g>
	</g>
	<g>
		<title>azicH</title>
		<polygon class="azicH" points="844,16 844,16 844,1 863,31 844,61 844,46 844,46" fill="rgb(179,235,254)" fill-opacity="1.0" stroke="rgb(71,93,101)" stroke-width="1" />
		<g>
			<title>PF03358</title>
			<polygon class="PF03358" points="844,18 852,18 858,27 858,35 852,44 844,44" stroke-linejoin="round" width="14" height="26" fill="rgb(90,228,61)" stroke="rgb(72,182,48)" stroke-width="1" opacity="0.75" />
		</g>
	</g>
	<g>
		<title>azicO6</title>
		<polygon class="azicO6" points="864,16 864,16 864,1 891,31 864,61 864,46 864,46" fill="rgb(252,240,206)" fill-opacity="1.0" stroke="rgb(100,96,82)" stroke-width="1" />
		<g>
			<title>PF00296</title>
			<polygon class="PF00296" points="864,18 876,18 888,31 876,44 864,44" stroke-linejoin="round" width="25" height="26" fill="rgb(180,112,78)" stroke="rgb(144,89,62)" stroke-width="1" opacity="0.75" />
		</g>
	</g>
	<g>
		<title>azicO7</title>
		<polygon class="azicO7" points="892,16 898,16 898,1 928,31 898,61 898,46 892,46" fill="rgb(191,239,254)" fill-opacity="1.0" stroke="rgb(76,95,101)" stroke-width="1" />
		<g>
			<title>PF01494</title>
			<rect class="PF01494" x="898" y="18" stroke-linejoin="round" width="9" height="26" fill="rgb(182,175,59)" stroke="rgb(145,140,47)" stroke-width="1" opacity="0.75" />
		</g>
		<g>
			<title>PF01494</title>
			<polygon class="PF01494" points="907,18 912,18 913,19 913,43 912,44 907,44" stroke-linejoin="round" width="6" height="26" fill="rgb(182,175,59)" stroke="rgb(145,140,47)" stroke-width="1" opacity="0.75" />
		</g>
	</g>
	<g>
		<title>azicU4</title>
		<polygon class="azicU4" points="955,16 955,16 955,1 960,31 955,61 955,46 955,46" fill="rgb(199,244,250)" fill-opacity="1.0" stroke="rgb(79,97,100)" stroke-width="1" />
	</g>
	<g>
		<title>azicU5</title>
		<polygon class="azicU5" points="968,16 973,16 973,1 1003,31 973,61 973,46 968,46" fill="rgb(188,212,251)" fill-opacity="1.0" stroke="rgb(75,84,100)" stroke-width="1" />
	</g>
	<g>
		<title>azicU6</title>
		<polygon class="azicU6" points="1041,16 1041,16 1041,1 1027,31 1041,61 1041,46 1041,46" fill="rgb(235,254,216)" fill-opacity="1.0" stroke="rgb(93,101,86)" stroke-width="1" />
	</g>
	<g>
		<title>azicI</title>
		<polygon class="azicI" points="1064,16 1068,16 1068,1 1098,31 1068,61 1068,46 1064,46" fill="rgb(205,227,252)" fill-opacity="1.0" stroke="rgb(82,90,100)" stroke-width="1" />
		<g>
			<title>PF00487</title>
			<polygon class="PF00487" points="1070,18 1082,18 1095,31 1095,31 1082,44 1070,44" stroke-linejoin="round" width="25" height="26" fill="rgb(104,51,205)" stroke="rgb(83,40,164)" stroke-width="1" opacity="0.75" />
		</g>
	</g>
	<g>
		<title>azicU7</title>
		<polygon class="azicU7" points="1128,16 1128,16 1128,1 1100,31 1128,61 1128,46 1128,46" fill="rgb(191,194,250)" fill-opacity="1.0" stroke="rgb(76,77,100)" stroke-width="1" />
		<g>
			<title>PF02517</title>
			<polygon class="PF02517" points="1106,27 1114,18 1124,18 1124,44 1114,44 1106,34" stroke-linejoin="round" width="18" height="26" fill="rgb(150,86,216)" stroke="rgb(120,68,172)" stroke-width="1" opacity="0.75" />
		</g>
	</g>
	<g>
		<title>azicR1</title>
		<polygon class="azicR1" points="79,16 69,16 69,1 39,31 69,61 69,46 79,46" fill="rgb(188,250,220)" fill-opacity="1.0" stroke="rgb(75,100,88)" stroke-width="1" />
		<g>
			<title>PF02518</title>
			<polygon class="PF02518" points="41,31 48,24 48,37" stroke-linejoin="round" width="9" height="26" fill="rgb(80,94,225)" stroke="rgb(64,75,180)" stroke-width="1" opacity="0.75" />
		</g>
		<g>
			<title>PF07730</title>
			<polygon class="PF07730" points="52,20 54,18 58,18 58,44 54,44 52,41" stroke-linejoin="round" width="6" height="26" fill="rgb(190,53,146)" stroke="rgb(152,42,116)" stroke-width="1" opacity="0.75" />
		</g>
	</g>
	<g>
		<title>azicR5</title>
		<polygon class="azicR5" points="1154,16 1154,16 1154,1 1133,31 1154,61 1154,46 1154,46" fill="rgb(254,185,222)" fill-opacity="1.0" stroke="rgb(101,74,88)" stroke-width="1" />
		<g>
			<title>PF00196</title>
			<polygon class="PF00196" points="1135,31 1138,27 1138,34" stroke-linejoin="round" width="5" height="26" fill="rgb(219,94,82)" stroke="rgb(175,75,65)" stroke-width="1" opacity="0.75" />
		</g>
		<g>
			<title>PF00072</title>
			<polygon class="PF00072" points="1142,21 1144,18 1153,18 1153,44 1144,44 1142,40" stroke-linejoin="round" width="11" height="26" fill="rgb(100,107,203)" stroke="rgb(80,85,162)" stroke-width="1" opacity="0.75" />
		</g>
	</g>
	<g>
		<title>azicR4</title>
		<polygon class="azicR4" points="1192,16 1184,16 1184,1 1154,31 1184,61 1184,46 1192,46" fill="rgb(211,237,250)" fill-opacity="1.0" stroke="rgb(84,94,100)" stroke-width="1" />
		<g>
			<title>PF07730</title>
			<polygon class="PF07730" points="1168,19 1169,18 1174,18 1174,44 1169,44 1168,42" stroke-linejoin="round" width="6" height="26" fill="rgb(190,53,146)" stroke="rgb(152,42,116)" stroke-width="1" opacity="0.75" />
		</g>
	</g>
	<g>
		<title>azicK</title>
		<polygon class="azicK" points="1230,16 1228,16 1228,1 1198,31 1228,61 1228,46 1230,46" fill="rgb(253,195,225)" fill-opacity="1.0" stroke="rgb(101,78,89)" stroke-width="1" />
		<g>
			<title>PF00698</title>
			<polygon class="PF00698" points="1200,31 1213,18 1229,18 1229,44 1213,44" stroke-linejoin="round" width="29" height="26" fill="rgb(59,176,209)" stroke="rgb(47,140,167)" stroke-width="1" opacity="0.75" />
		</g>
	</g>
	<g>
		<title>azicJ</title>
		<polygon class="azicJ" points="1240,16 1240,16 1240,1 1230,31 1240,61 1240,46 1240,46" fill="rgb(253,186,248)" fill-opacity="1.0" stroke="rgb(101,74,99)" stroke-width="1" />
		<g>
			<title>PF04673</title>
			<polygon class="PF04673" points="1232,31 1236,18 1240,18 1240,44 1236,44" stroke-linejoin="round" width="10" height="26" fill="rgb(49,187,78)" stroke="rgb(39,149,62)" stroke-width="1" opacity="0.75" />
		</g>
	</g>
	<g>
		<title>azicU8</title>
		<polygon class="azicU8" points="1268,16 1268,16 1268,1 1242,31 1268,61 1268,46 1268,46" fill="rgb(250,223,196)" fill-opacity="1.0" stroke="rgb(100,89,78)" stroke-width="1" />
		<g>
			<title>PF04672</title>
			<polygon class="PF04672" points="1244,31 1255,18 1268,18 1268,44 1255,44" stroke-linejoin="round" width="26" height="26" fill="rgb(125,181,73)" stroke="rgb(99,144,58)" stroke-width="1" opacity="0.75" />
		</g>
	</g>
	<g>
		<title>azicL</title>
		<polygon class="azicL" points="1275,16 1279,16 1279,1 1309,31 1279,61 1279,46 1275,46" fill="rgb(253,199,195)" fill-opacity="1.0" stroke="rgb(101,79,78)" stroke-width="1" />
		<g>
			<title>PF00891</title>
			<polygon class="PF00891" points="1284,18 1293,18 1306,31 1293,44 1284,44" stroke-linejoin="round" width="23" height="26" fill="rgb(50,51,190)" stroke="rgb(39,40,152)" stroke-width="1" opacity="0.75" />
		</g>
	</g>
	<g>
		<title>azicU9</title>
		<polygon class="azicU9" points="1309,16 1316,16 1316,1 1346,31 1316,61 1316,46 1309,46" fill="rgb(220,211,253)" fill-opacity="1.0" stroke="rgb(88,84,101)" stroke-width="1" />
	</g>
	<g>
		<title>azicM</title>
		<polygon class="azicM" points="1346,16 1365,16 1365,1 1395,31 1365,61 1365,46 1346,46" fill="rgb(202,223,251)" fill-opacity="1.0" stroke="rgb(80,89,100)" stroke-width="1" />
		<g>
			<title>PF00501</title>
			<polygon class="PF00501" points="1346,18 1379,18 1385,24 1385,38 1379,44 1346,44" stroke-linejoin="round" width="39" height="26" fill="rgb(60,217,223)" stroke="rgb(48,173,178)" stroke-width="1" opacity="0.75" />
		</g>
		<g>
			<title>PF13193</title>
			<polygon class="PF13193" points="1387,26 1392,31 1387,36" stroke-linejoin="round" width="6" height="26" fill="rgb(182,50,118)" stroke="rgb(145,39,94)" stroke-width="1" opacity="0.75" />
		</g>
	</g>
	<g>
		<title>azicN</title>
		<polygon class="azicN" points="1396,16 1405,16 1405,1 1435,31 1405,61 1405,46 1396,46" fill="rgb(217,189,254)" fill-opacity="1.0" stroke="rgb(86,75,101)" stroke-width="1" />
		<g>
			<title>PF02784</title>
			<polygon class="PF02784" points="1397,18 1419,18 1421,20 1421,42 1419,44 1397,44" stroke-linejoin="round" width="24" height="26" fill="rgb(106,204,212)" stroke="rgb(84,163,169)" stroke-width="1" opacity="0.75" />
		</g>
		<g>
			<title>PF00278</title>
			<polygon class="PF00278" points="1422,21 1432,31 1432,31 1422,41" stroke-linejoin="round" width="10" height="26" fill="rgb(195,86,191)" stroke="rgb(156,68,152)" stroke-width="1" opacity="0.75" />
		</g>
	</g>
	<g>
		<title>azicP</title>
		<polygon class="azicP" points="1435,16 1435,16 1435,1 1443,31 1435,61 1435,46 1435,46" fill="rgb(214,252,200)" fill-opacity="1.0" stroke="rgb(85,100,80)" stroke-width="1" />
		<g>
			<title>PF00550</title>
			<polygon class="PF00550" points="1435,18 1437,18 1440,31 1437,44 1435,44" stroke-linejoin="round" width="6" height="26" fill="rgb(103,191,88)" stroke="rgb(82,152,70)" stroke-width="1" opacity="0.75" />
		</g>
	</g>
	<g>
		<title>azicO1</title>
		<polygon class="azicO1" points="134,16 111,16 111,1 81,31 111,61 111,46 134,46" fill="rgb(249,254,209)" fill-opacity="1.0" stroke="rgb(99,101,83)" stroke-width="1" />
		<g>
			<title>PF08031</title>
			<polygon class="PF08031" points="83,31 86,28 86,33" stroke-linejoin="round" width="5" height="26" fill="rgb(210,73,83)" stroke="rgb(168,58,66)" stroke-width="1" opacity="0.75" />
		</g>
		<g>
			<title>PF01565</title>
			<rect class="PF01565" x="114" y="18" stroke-linejoin="round" width="13" height="26" fill="rgb(226,88,136)" stroke="rgb(180,70,108)" stroke-width="1" opacity="0.75" />
		</g>
	</g>
	<g>
		<title>azicQ</title>
		<polygon class="azicQ" points="1444,16 1452,16 1452,1 1482,31 1452,61 1452,46 1444,46" fill="rgb(250,243,210)" fill-opacity="1.0" stroke="rgb(100,97,84)" stroke-width="1" />
		<g>
			<title>PF02771</title>
			<rect class="PF02771" x="1444" y="18" stroke-linejoin="round" width="10" height="26" fill="rgb(105,135,218)" stroke="rgb(84,108,174)" stroke-width="1" opacity="0.75" />
		</g>
		<g>
			<title>PF08028</title>
			<polygon class="PF08028" points="1467,19 1479,31 1479,31 1467,43" stroke-linejoin="round" width="12" height="26" fill="rgb(106,185,56)" stroke="rgb(84,148,44)" stroke-width="1" opacity="0.75" />
		</g>
	</g>
	<g>
		<title>azicS</title>
		<polygon class="azicS" points="1482,16 1488,16 1488,1 1518,31 1488,61 1488,46 1482,46" fill="rgb(214,254,184)" fill-opacity="1.0" stroke="rgb(85,101,73)" stroke-width="1" />
		<g>
			<title>PF02770</title>
			<rect class="PF02770" x="1491" y="18" stroke-linejoin="round" width="9" height="26" fill="rgb(225,186,97)" stroke="rgb(180,148,77)" stroke-width="1" opacity="0.75" />
		</g>
		<g>
			<title>PF00441</title>
			<polygon class="PF00441" points="1502,18 1502,18 1515,31 1502,44 1502,44" stroke-linejoin="round" width="14" height="26" fill="rgb(85,191,117)" stroke="rgb(68,152,93)" stroke-width="1" opacity="0.75" />
		</g>
	</g>
	<g>
		<title>azicT</title>
		<polygon class="azicT" points="1517,16 1517,16 1517,1 1533,31 1517,61 1517,46 1517,46" fill="rgb(250,237,208)" fill-opacity="1.0" stroke="rgb(100,94,83)" stroke-width="1" />
	</g>
	<g>
		<title>azicU10</title>
		<polygon class="azicU10" points="1534,16 1534,16 1534,1 1564,31 1534,61 1534,46 1534,46" fill="rgb(253,198,205)" fill-opacity="1.0" stroke="rgb(101,79,82)" stroke-width="1" />
	</g>
	<g>
		<title>azicV</title>
		<polygon class="azicV" points="1564,16 1582,16 1582,1 1612,31 1582,61 1582,46 1564,46" fill="rgb(254,249,186)" fill-opacity="1.0" stroke="rgb(101,99,74)" stroke-width="1" />
		<g>
			<title>PF00501</title>
			<polygon class="PF00501" points="1564,18 1596,18 1602,24 1602,38 1596,44 1564,44" stroke-linejoin="round" width="38" height="26" fill="rgb(60,217,223)" stroke="rgb(48,173,178)" stroke-width="1" opacity="0.75" />
		</g>
		<g>
			<title>PF13193</title>
			<polygon class="PF13193" points="1604,26 1609,31 1604,36" stroke-linejoin="round" width="7" height="26" fill="rgb(182,50,118)" stroke="rgb(145,39,94)" stroke-width="1" opacity="0.75" />
		</g>
	</g>
	<g>
		<title>azicW</title>
		<polygon class="azicW" points="1622,16 1640,16 1640,1 1670,31 1640,61 1640,46 1622,46" fill="rgb(250,233,201)" fill-opacity="1.0" stroke="rgb(100,93,80)" stroke-width="1" />
		<g>
			<title>PF07690</title>
			<polygon class="PF07690" points="1624,18 1654,18 1663,27 1663,35 1654,44 1624,44" stroke-linejoin="round" width="39" height="26" fill="rgb(193,224,74)" stroke="rgb(154,179,59)" stroke-width="1" opacity="0.75" />
		</g>
	</g>
	<g>
		<title>azicZ</title>
		<polygon class="azicZ" points="143,16 143,16 143,1 166,31 143,61 143,46 143,46" fill="rgb(205,251,230)" fill-opacity="1.0" stroke="rgb(82,100,92)" stroke-width="1" />
		<g>
			<title>PF01177</title>
			<polygon class="PF01177" points="143,18 153,18 163,31 153,44 143,44" stroke-linejoin="round" width="21" height="26" fill="rgb(137,211,53)" stroke="rgb(109,168,42)" stroke-width="1" opacity="0.75" />
		</g>
	</g>
	<g>
		<title>azicU1</title>
		<polygon class="azicU1" points="226,16 197,16 197,1 167,31 197,61 197,46 226,46" fill="rgb(181,254,208)" fill-opacity="1.0" stroke="rgb(72,101,83)" stroke-width="1" />
	</g>
	<g>
		<title>azicU2</title>
		<polygon class="azicU2" points="272,16 256,16 256,1 226,31 256,61 256,46 272,46" fill="rgb(193,250,196)" fill-opacity="1.0" stroke="rgb(77,100,78)" stroke-width="1" />
	</g>
	<g>
		<title>azicO2</title>
		<polygon class="azicO2" points="317,16 309,16 309,1 279,31 309,61 309,46 317,46" fill="rgb(211,228,254)" fill-opacity="1.0" stroke="rgb(84,91,101)" stroke-width="1" />
		<g>
			<title>PF00067</title>
			<polygon class="PF00067" points="281,31 294,18 314,18 314,44 294,44" stroke-linejoin="round" width="34" height="26" fill="rgb(85,216,107)" stroke="rgb(68,172,85)" stroke-width="1" opacity="0.75" />
		</g>
	</g>
	<g>
		<title>azicO3</title>
		<polygon class="azicO3" points="329,16 348,16 348,1 378,31 348,61 348,46 329,46" fill="rgb(180,247,250)" fill-opacity="1.0" stroke="rgb(72,98,100)" stroke-width="1" />
		<g>
			<title>PF01494</title>
			<rect class="PF01494" x="329" y="18" stroke-linejoin="round" width="33" height="26" fill="rgb(182,175,59)" stroke="rgb(145,140,47)" stroke-width="1" opacity="0.75" />
		</g>
	</g>
	<g>
		<title>azicY</title>
		<polygon class="azicY" points="424,16 410,16 410,1 380,31 410,61 410,46 424,46" fill="rgb(212,215,251)" fill-opacity="1.0" stroke="rgb(84,86,100)" stroke-width="1" />
		<g>
			<title>PF07690</title>
			<polygon class="PF07690" points="382,31 395,18 398,18 398,44 395,44" stroke-linejoin="round" width="18" height="26" fill="rgb(193,224,74)" stroke="rgb(154,179,59)" stroke-width="1" opacity="0.75" />
		</g>
		<g>
			<title>PF07690</title>
			<rect class="PF07690" x="400" y="18" stroke-linejoin="round" width="22" height="26" fill="rgb(193,224,74)" stroke="rgb(154,179,59)" stroke-width="1" opacity="0.75" />
		</g>
	</g>
</svg>
