<svg version="1.1" baseProfile="full" xmlns="http://www.w3.org/2000/svg" width="2271" height="62">
	<line x1="1" y1="31" x2="2270" y2="31" style="stroke:rgb(50,50,50); stroke-width:3 "/>
	<g>
		<title>lkmAIII</title>
		<polygon class="lkmAIII" points="702,16 403,16 403,1 373,31 403,61 403,46 702,46" fill="rgb(249,177,220)" fill-opacity="1.0" stroke="rgb(99,70,88)" stroke-width="1" />
		<g>
			<title>PF00975</title>
			<polygon class="PF00975" points="375,31 388,18 393,18 393,44 388,44" stroke-linejoin="round" width="20" height="26" fill="rgb(207,80,138)" stroke="rgb(165,63,110)" stroke-width="1" opacity="0.75" />
		</g>
		<g>
			<title>PF00550</title>
			<rect class="PF00550" x="401" y="18" stroke-linejoin="round" width="6" height="26" fill="rgb(103,191,88)" stroke="rgb(82,152,70)" stroke-width="1" opacity="0.75" />
		</g>
		<g>
			<title>PF08659</title>
			<rect class="PF08659" x="418" y="18" stroke-linejoin="round" width="17" height="26" fill="rgb(66,209,188)" stroke="rgb(52,167,150)" stroke-width="1" opacity="0.75" />
		</g>
		<g>
			<title>PF00698</title>
			<rect class="PF00698" x="463" y="18" stroke-linejoin="round" width="31" height="26" fill="rgb(59,176,209)" stroke="rgb(47,140,167)" stroke-width="1" opacity="0.75" />
		</g>
		<g>
			<title>PF16197</title>
			<rect class="PF16197" x="498" y="18" stroke-linejoin="round" width="12" height="26" fill="rgb(68,179,89)" stroke="rgb(54,143,71)" stroke-width="1" opacity="0.75" />
		</g>
		<g>
			<title>PF02801</title>
			<rect class="PF02801" x="511" y="18" stroke-linejoin="round" width="11" height="26" fill="rgb(215,78,102)" stroke="rgb(172,62,81)" stroke-width="1" opacity="0.75" />
		</g>
		<g>
			<title>PF00109</title>
			<rect class="PF00109" x="523" y="18" stroke-linejoin="round" width="24" height="26" fill="rgb(112,116,228)" stroke="rgb(89,92,182)" stroke-width="1" opacity="0.75" />
		</g>
		<g>
			<title>PF00550</title>
			<rect class="PF00550" x="552" y="18" stroke-linejoin="round" width="6" height="26" fill="rgb(103,191,88)" stroke="rgb(82,152,70)" stroke-width="1" opacity="0.75" />
		</g>
		<g>
			<title>PF08659</title>
			<rect class="PF08659" x="569" y="18" stroke-linejoin="round" width="17" height="26" fill="rgb(66,209,188)" stroke="rgb(52,167,150)" stroke-width="1" opacity="0.75" />
		</g>
		<g>
			<title>PF00698</title>
			<rect class="PF00698" x="613" y="18" stroke-linejoin="round" width="31" height="26" fill="rgb(59,176,209)" stroke="rgb(47,140,167)" stroke-width="1" opacity="0.75" />
		</g>
		<g>
			<title>PF16197</title>
			<rect class="PF16197" x="648" y="18" stroke-linejoin="round" width="12" height="26" fill="rgb(68,179,89)" stroke="rgb(54,143,71)" stroke-width="1" opacity="0.75" />
		</g>
		<g>
			<title>PF02801</title>
			<rect class="PF02801" x="661" y="18" stroke-linejoin="round" width="11" height="26" fill="rgb(215,78,102)" stroke="rgb(172,62,81)" stroke-width="1" opacity="0.75" />
		</g>
		<g>
			<title>PF00109</title>
			<rect class="PF00109" x="673" y="18" stroke-linejoin="round" width="24" height="26" fill="rgb(112,116,228)" stroke="rgb(89,92,182)" stroke-width="1" opacity="0.75" />
		</g>
		<g>
			<title>PF08990</title>
			<rect class="PF08990" x="698" y="18" stroke-linejoin="round" width="2" height="26" fill="rgb(180,75,55)" stroke="rgb(144,60,44)" stroke-width="1" opacity="0.75" />
		</g>
	</g>
	<g>
		<title>lkmAII</title>
		<polygon class="lkmAII" points="1068,16 733,16 733,1 703,31 733,61 733,46 1068,46" fill="rgb(235,254,201)" fill-opacity="1.0" stroke="rgb(93,101,80)" stroke-width="1" />
		<g>
			<title>PF00550</title>
			<polygon class="PF00550" points="712,24 718,18 718,43 712,37" stroke-linejoin="round" width="6" height="26" fill="rgb(103,191,88)" stroke="rgb(82,152,70)" stroke-width="1" opacity="0.75" />
		</g>
		<g>
			<title>PF08659</title>
			<rect class="PF08659" x="729" y="18" stroke-linejoin="round" width="17" height="26" fill="rgb(66,209,188)" stroke="rgb(52,167,150)" stroke-width="1" opacity="0.75" />
		</g>
		<g>
			<title>PF00107</title>
			<rect class="PF00107" x="753" y="18" stroke-linejoin="round" width="11" height="26" fill="rgb(81,108,215)" stroke="rgb(64,86,172)" stroke-width="1" opacity="0.75" />
		</g>
		<g>
			<title>PF08240</title>
			<rect class="PF08240" x="770" y="18" stroke-linejoin="round" width="6" height="26" fill="rgb(211,65,138)" stroke="rgb(168,51,110)" stroke-width="1" opacity="0.75" />
		</g>
		<g>
			<title>PF14765</title>
			<rect class="PF14765" x="798" y="18" stroke-linejoin="round" width="27" height="26" fill="rgb(173,56,182)" stroke="rgb(138,44,145)" stroke-width="1" opacity="0.75" />
		</g>
		<g>
			<title>PF00698</title>
			<rect class="PF00698" x="830" y="18" stroke-linejoin="round" width="31" height="26" fill="rgb(59,176,209)" stroke="rgb(47,140,167)" stroke-width="1" opacity="0.75" />
		</g>
		<g>
			<title>PF16197</title>
			<rect class="PF16197" x="866" y="18" stroke-linejoin="round" width="14" height="26" fill="rgb(68,179,89)" stroke="rgb(54,143,71)" stroke-width="1" opacity="0.75" />
		</g>
		<g>
			<title>PF02801</title>
			<rect class="PF02801" x="880" y="18" stroke-linejoin="round" width="11" height="26" fill="rgb(215,78,102)" stroke="rgb(172,62,81)" stroke-width="1" opacity="0.75" />
		</g>
		<g>
			<title>PF00109</title>
			<rect class="PF00109" x="892" y="18" stroke-linejoin="round" width="25" height="26" fill="rgb(112,116,228)" stroke="rgb(89,92,182)" stroke-width="1" opacity="0.75" />
		</g>
		<g>
			<title>PF00550</title>
			<rect class="PF00550" x="920" y="18" stroke-linejoin="round" width="6" height="26" fill="rgb(103,191,88)" stroke="rgb(82,152,70)" stroke-width="1" opacity="0.75" />
		</g>
		<g>
			<title>PF08659</title>
			<rect class="PF08659" x="937" y="18" stroke-linejoin="round" width="16" height="26" fill="rgb(66,209,188)" stroke="rgb(52,167,150)" stroke-width="1" opacity="0.75" />
		</g>
		<g>
			<title>PF00698</title>
			<rect class="PF00698" x="980" y="18" stroke-linejoin="round" width="32" height="26" fill="rgb(59,176,209)" stroke="rgb(47,140,167)" stroke-width="1" opacity="0.75" />
		</g>
		<g>
			<title>PF16197</title>
			<rect class="PF16197" x="1015" y="18" stroke-linejoin="round" width="11" height="26" fill="rgb(68,179,89)" stroke="rgb(54,143,71)" stroke-width="1" opacity="0.75" />
		</g>
		<g>
			<title>PF02801</title>
			<rect class="PF02801" x="1028" y="18" stroke-linejoin="round" width="11" height="26" fill="rgb(215,78,102)" stroke="rgb(172,62,81)" stroke-width="1" opacity="0.75" />
		</g>
		<g>
			<title>PF00109</title>
			<rect class="PF00109" x="1040" y="18" stroke-linejoin="round" width="25" height="26" fill="rgb(112,116,228)" stroke="rgb(89,92,182)" stroke-width="1" opacity="0.75" />
		</g>
		<g>
			<title>PF08990</title>
			<rect class="PF08990" x="1066" y="18" stroke-linejoin="round" width="2" height="26" fill="rgb(180,75,55)" stroke="rgb(144,60,44)" stroke-width="1" opacity="0.75" />
		</g>
	</g>
	<g>
		<title>lkmAI</title>
		<polygon class="lkmAI" points="1434,16 1099,16 1099,1 1069,31 1099,61 1099,46 1434,46" fill="rgb(199,180,249)" fill-opacity="1.0" stroke="rgb(79,72,99)" stroke-width="1" />
		<g>
			<title>PF00550</title>
			<polygon class="PF00550" points="1079,23 1084,18 1085,18 1085,44 1084,44 1079,38" stroke-linejoin="round" width="6" height="26" fill="rgb(103,191,88)" stroke="rgb(82,152,70)" stroke-width="1" opacity="0.75" />
		</g>
		<g>
			<title>PF08659</title>
			<rect class="PF08659" x="1096" y="18" stroke-linejoin="round" width="17" height="26" fill="rgb(66,209,188)" stroke="rgb(52,167,150)" stroke-width="1" opacity="0.75" />
		</g>
		<g>
			<title>PF00698</title>
			<rect class="PF00698" x="1139" y="18" stroke-linejoin="round" width="31" height="26" fill="rgb(59,176,209)" stroke="rgb(47,140,167)" stroke-width="1" opacity="0.75" />
		</g>
		<g>
			<title>PF16197</title>
			<rect class="PF16197" x="1174" y="18" stroke-linejoin="round" width="12" height="26" fill="rgb(68,179,89)" stroke="rgb(54,143,71)" stroke-width="1" opacity="0.75" />
		</g>
		<g>
			<title>PF02801</title>
			<rect class="PF02801" x="1187" y="18" stroke-linejoin="round" width="11" height="26" fill="rgb(215,78,102)" stroke="rgb(172,62,81)" stroke-width="1" opacity="0.75" />
		</g>
		<g>
			<title>PF00109</title>
			<rect class="PF00109" x="1199" y="18" stroke-linejoin="round" width="24" height="26" fill="rgb(112,116,228)" stroke="rgb(89,92,182)" stroke-width="1" opacity="0.75" />
		</g>
		<g>
			<title>PF00550</title>
			<rect class="PF00550" x="1227" y="18" stroke-linejoin="round" width="6" height="26" fill="rgb(103,191,88)" stroke="rgb(82,152,70)" stroke-width="1" opacity="0.75" />
		</g>
		<g>
			<title>PF08659</title>
			<rect class="PF08659" x="1244" y="18" stroke-linejoin="round" width="17" height="26" fill="rgb(66,209,188)" stroke="rgb(52,167,150)" stroke-width="1" opacity="0.75" />
		</g>
		<g>
			<title>PF00698</title>
			<rect class="PF00698" x="1288" y="18" stroke-linejoin="round" width="32" height="26" fill="rgb(59,176,209)" stroke="rgb(47,140,167)" stroke-width="1" opacity="0.75" />
		</g>
		<g>
			<title>PF16197</title>
			<rect class="PF16197" x="1325" y="18" stroke-linejoin="round" width="12" height="26" fill="rgb(68,179,89)" stroke="rgb(54,143,71)" stroke-width="1" opacity="0.75" />
		</g>
		<g>
			<title>PF02801</title>
			<rect class="PF02801" x="1337" y="18" stroke-linejoin="round" width="11" height="26" fill="rgb(215,78,102)" stroke="rgb(172,62,81)" stroke-width="1" opacity="0.75" />
		</g>
		<g>
			<title>PF00109</title>
			<rect class="PF00109" x="1350" y="18" stroke-linejoin="round" width="25" height="26" fill="rgb(112,116,228)" stroke="rgb(89,92,182)" stroke-width="1" opacity="0.75" />
		</g>
		<g>
			<title>PF00550</title>
			<rect class="PF00550" x="1378" y="18" stroke-linejoin="round" width="6" height="26" fill="rgb(103,191,88)" stroke="rgb(82,152,70)" stroke-width="1" opacity="0.75" />
		</g>
		<g>
			<title>PF00698</title>
			<rect class="PF00698" x="1391" y="18" stroke-linejoin="round" width="31" height="26" fill="rgb(59,176,209)" stroke="rgb(47,140,167)" stroke-width="1" opacity="0.75" />
		</g>
	</g>
	<g>
		<title>lkmJ</title>
		<polygon class="lkmJ" points="1449,16 1459,16 1459,1 1489,31 1459,61 1459,46 1449,46" fill="rgb(186,252,191)" fill-opacity="1.0" stroke="rgb(74,100,76)" stroke-width="1" />
		<g>
			<title>PF01757</title>
			<polygon class="PF01757" points="1451,18 1473,18 1485,30 1485,32 1473,44 1451,44" stroke-linejoin="round" width="34" height="26" fill="rgb(50,152,200)" stroke="rgb(40,121,160)" stroke-width="1" opacity="0.75" />
		</g>
	</g>
	<g>
		<title>lkmK</title>
		<polygon class="lkmK" points="1489,16 1499,16 1499,1 1529,31 1499,61 1499,46 1489,46" fill="rgb(249,214,254)" fill-opacity="1.0" stroke="rgb(99,85,101)" stroke-width="1" />
		<g>
			<title>PF00067</title>
			<polygon class="PF00067" points="1493,18 1513,18 1526,31 1526,31 1513,44 1493,44" stroke-linejoin="round" width="33" height="26" fill="rgb(85,216,107)" stroke="rgb(68,172,85)" stroke-width="1" opacity="0.75" />
		</g>
	</g>
	<g>
		<title>lkmCIV</title>
		<polygon class="lkmCIV" points="1530,16 1540,16 1540,1 1570,31 1540,61 1540,46 1530,46" fill="rgb(251,224,200)" fill-opacity="1.0" stroke="rgb(100,89,80)" stroke-width="1" />
		<g>
			<title>PF01041</title>
			<polygon class="PF01041" points="1533,18 1554,18 1567,31 1554,44 1533,44" stroke-linejoin="round" width="35" height="26" fill="rgb(59,139,191)" stroke="rgb(47,111,152)" stroke-width="1" opacity="0.75" />
		</g>
	</g>
	<g>
		<title>lkmCV</title>
		<polygon class="lkmCV" points="1571,16 1590,16 1590,1 1620,31 1590,61 1590,46 1571,46" fill="rgb(181,254,201)" fill-opacity="1.0" stroke="rgb(72,101,80)" stroke-width="1" />
	</g>
	<g>
		<title>lkmL</title>
		<polygon class="lkmL" points="1663,16 1651,16 1651,1 1621,31 1651,61 1651,46 1663,46" fill="rgb(253,249,208)" fill-opacity="1.0" stroke="rgb(101,99,83)" stroke-width="1" />
		<g>
			<title>PF06722</title>
			<polygon class="PF06722" points="1633,21 1636,18 1642,18 1642,44 1636,44 1633,40" stroke-linejoin="round" width="9" height="26" fill="rgb(200,129,88)" stroke="rgb(160,103,70)" stroke-width="1" opacity="0.75" />
		</g>
	</g>
	<g>
		<title>lkmBIV</title>
		<polygon class="lkmBIV" points="1669,16 1671,16 1671,1 1701,31 1671,61 1671,46 1669,46" fill="rgb(191,190,250)" fill-opacity="1.0" stroke="rgb(76,76,100)" stroke-width="1" />
		<g>
			<title>PF01370</title>
			<polygon class="PF01370" points="1670,18 1685,18 1692,25 1692,37 1685,44 1670,44" stroke-linejoin="round" width="22" height="26" fill="rgb(98,102,214)" stroke="rgb(78,81,171)" stroke-width="1" opacity="0.75" />
		</g>
	</g>
	<g>
		<title>lkmCVI</title>
		<polygon class="lkmCVI" points="1732,16 1732,16 1732,1 1702,31 1732,61 1732,46 1732,46" fill="rgb(178,202,250)" fill-opacity="1.0" stroke="rgb(71,80,100)" stroke-width="1" />
		<g>
			<title>PF01408</title>
			<rect class="PF01408" x="1722" y="18" stroke-linejoin="round" width="10" height="26" fill="rgb(76,117,190)" stroke="rgb(60,93,152)" stroke-width="1" opacity="0.75" />
		</g>
	</g>
	<g>
		<title>lkmD</title>
		<polygon class="lkmD" points="33,16 31,16 31,1 1,31 31,61 31,46 33,46" fill="rgb(180,202,252)" fill-opacity="1.0" stroke="rgb(72,80,100)" stroke-width="1" />
		<g>
			<title>PF16363</title>
			<polygon class="PF16363" points="3,31 16,18 33,18 33,44 16,44" stroke-linejoin="round" width="30" height="26" fill="rgb(162,221,65)" stroke="rgb(129,176,51)" stroke-width="1" opacity="0.75" />
		</g>
	</g>
	<g>
		<title>lkmM</title>
		<polygon class="lkmM" points="1778,16 1769,16 1769,1 1739,31 1769,61 1769,46 1778,46" fill="rgb(209,179,254)" fill-opacity="1.0" stroke="rgb(83,71,101)" stroke-width="1" />
		<g>
			<title>PF00201</title>
			<polygon class="PF00201" points="1741,31 1754,18 1756,18 1756,44 1754,44" stroke-linejoin="round" width="15" height="26" fill="rgb(225,150,107)" stroke="rgb(180,120,85)" stroke-width="1" opacity="0.75" />
		</g>
	</g>
	<g>
		<title>lkmN</title>
		<polygon class="lkmN" points="1793,16 1819,16 1819,1 1849,31 1819,61 1819,46 1793,46" fill="rgb(209,253,231)" fill-opacity="1.0" stroke="rgb(83,101,92)" stroke-width="1" />
		<g>
			<title>PF00005</title>
			<rect class="PF00005" x="1797" y="18" stroke-linejoin="round" width="17" height="26" fill="rgb(129,201,63)" stroke="rgb(103,160,50)" stroke-width="1" opacity="0.75" />
		</g>
		<g>
			<title>PF00005</title>
			<polygon class="PF00005" points="1832,18 1833,18 1844,29 1844,33 1833,44 1832,44" stroke-linejoin="round" width="12" height="26" fill="rgb(129,201,63)" stroke="rgb(103,160,50)" stroke-width="1" opacity="0.75" />
		</g>
	</g>
	<g>
		<title>lkmO</title>
		<polygon class="lkmO" points="1852,16 1852,16 1852,1 1881,31 1852,61 1852,46 1852,46" fill="rgb(184,230,251)" fill-opacity="1.0" stroke="rgb(73,92,100)" stroke-width="1" />
	</g>
	<g>
		<title>lkmBVII</title>
		<polygon class="lkmBVII" points="1882,16 1882,16 1882,1 1903,31 1882,61 1882,46 1882,46" fill="rgb(253,192,244)" fill-opacity="1.0" stroke="rgb(101,76,97)" stroke-width="1" />
		<g>
			<title>PF00908</title>
			<polygon class="PF00908" points="1883,18 1891,18 1900,31 1900,31 1891,44 1883,44" stroke-linejoin="round" width="17" height="26" fill="rgb(184,89,121)" stroke="rgb(147,71,96)" stroke-width="1" opacity="0.75" />
		</g>
	</g>
	<g>
		<title>lkmP</title>
		<polygon class="lkmP" points="1953,16 1936,16 1936,1 1906,31 1936,61 1936,46 1953,46" fill="rgb(198,239,251)" fill-opacity="1.0" stroke="rgb(79,95,100)" stroke-width="1" />
		<g>
			<title>PF05221</title>
			<polygon class="PF05221" points="1908,31 1921,18 1952,18 1952,44 1921,44" stroke-linejoin="round" width="46" height="26" fill="rgb(55,203,152)" stroke="rgb(44,162,121)" stroke-width="1" opacity="0.75" />
		</g>
	</g>
	<g>
		<title>lkmQ</title>
		<polygon class="lkmQ" points="1981,16 1981,16 1981,1 1953,31 1981,61 1981,46 1981,46" fill="rgb(251,224,194)" fill-opacity="1.0" stroke="rgb(100,89,77)" stroke-width="1" />
		<g>
			<title>PF02219</title>
			<polygon class="PF02219" points="1955,31 1967,18 1981,18 1981,44 1967,44" stroke-linejoin="round" width="27" height="26" fill="rgb(209,76,219)" stroke="rgb(167,60,175)" stroke-width="1" opacity="0.75" />
		</g>
	</g>
	<g>
		<title>lkmR</title>
		<polygon class="lkmR" points="2095,16 2012,16 2012,1 1982,31 2012,61 2012,46 2095,46" fill="rgb(233,250,206)" fill-opacity="1.0" stroke="rgb(93,100,82)" stroke-width="1" />
		<g>
			<title>PF02965</title>
			<polygon class="PF02965" points="1984,31 1997,18 2002,18 2002,44 1997,44" stroke-linejoin="round" width="20" height="26" fill="rgb(60,212,227)" stroke="rgb(48,169,181)" stroke-width="1" opacity="0.75" />
		</g>
		<g>
			<title>PF02310</title>
			<rect class="PF02310" x="2012" y="18" stroke-linejoin="round" width="12" height="26" fill="rgb(145,190,60)" stroke="rgb(115,152,48)" stroke-width="1" opacity="0.75" />
		</g>
		<g>
			<title>PF02607</title>
			<rect class="PF02607" x="2025" y="18" stroke-linejoin="round" width="7" height="26" fill="rgb(190,55,206)" stroke="rgb(152,44,164)" stroke-width="1" opacity="0.75" />
		</g>
		<g>
			<title>PF00809</title>
			<rect class="PF00809" x="2039" y="18" stroke-linejoin="round" width="23" height="26" fill="rgb(192,119,62)" stroke="rgb(153,95,49)" stroke-width="1" opacity="0.75" />
		</g>
		<g>
			<title>PF02574</title>
			<rect class="PF02574" x="2066" y="18" stroke-linejoin="round" width="29" height="26" fill="rgb(130,111,228)" stroke="rgb(103,88,182)" stroke-width="1" opacity="0.75" />
		</g>
	</g>
	<g>
		<title>lkmS</title>
		<polygon class="lkmS" points="2129,16 2126,16 2126,1 2096,31 2126,61 2126,46 2129,46" fill="rgb(189,253,246)" fill-opacity="1.0" stroke="rgb(75,101,98)" stroke-width="1" />
		<g>
			<title>PF00294</title>
			<polygon class="PF00294" points="2099,30 2111,18 2128,18 2128,44 2111,44 2099,31" stroke-linejoin="round" width="29" height="26" fill="rgb(153,96,212)" stroke="rgb(122,76,169)" stroke-width="1" opacity="0.75" />
		</g>
	</g>
	<g>
		<title>lkmT</title>
		<polygon class="lkmT" points="2173,16 2163,16 2163,1 2133,31 2163,61 2163,46 2173,46" fill="rgb(205,233,254)" fill-opacity="1.0" stroke="rgb(82,93,101)" stroke-width="1" />
		<g>
			<title>PF02773</title>
			<polygon class="PF02773" points="2135,31 2147,19 2147,42" stroke-linejoin="round" width="13" height="26" fill="rgb(192,53,113)" stroke="rgb(153,42,90)" stroke-width="1" opacity="0.75" />
		</g>
		<g>
			<title>PF02772</title>
			<polygon class="PF02772" points="2148,18 2148,18 2160,18 2160,44 2148,44 2148,43" stroke-linejoin="round" width="12" height="26" fill="rgb(81,223,98)" stroke="rgb(64,178,78)" stroke-width="1" opacity="0.75" />
		</g>
		<g>
			<title>PF00438</title>
			<rect class="PF00438" x="2163" y="18" stroke-linejoin="round" width="9" height="26" fill="rgb(202,217,80)" stroke="rgb(161,173,64)" stroke-width="1" opacity="0.75" />
		</g>
	</g>
	<g>
		<title>lkmU</title>
		<polygon class="lkmU" points="2219,16 2214,16 2214,1 2184,31 2214,61 2214,46 2219,46" fill="rgb(212,254,194)" fill-opacity="1.0" stroke="rgb(84,101,77)" stroke-width="1" />
		<g>
			<title>PF00483</title>
			<polygon class="PF00483" points="2195,22 2199,18 2218,18 2218,44 2199,44 2195,39" stroke-linejoin="round" width="23" height="26" fill="rgb(198,101,87)" stroke="rgb(158,80,69)" stroke-width="1" opacity="0.75" />
		</g>
	</g>
	<g>
		<title>lkmE</title>
		<polygon class="lkmE" points="60,16 60,16 60,1 34,31 60,61 60,46 60,46" fill="rgb(251,184,216)" fill-opacity="1.0" stroke="rgb(100,73,86)" stroke-width="1" />
		<g>
			<title>PF00975</title>
			<polygon class="PF00975" points="36,31 47,18 57,18 57,44 47,44" stroke-linejoin="round" width="22" height="26" fill="rgb(207,80,138)" stroke="rgb(165,63,110)" stroke-width="1" opacity="0.75" />
		</g>
	</g>
	<g>
		<title>lkmBVI</title>
		<polygon class="lkmBVI" points="2222,16 2240,16 2240,1 2270,31 2240,61 2240,46 2222,46" fill="rgb(250,179,239)" fill-opacity="1.0" stroke="rgb(100,71,95)" stroke-width="1" />
		<g>
			<title>PF03559</title>
			<rect class="PF03559" x="2225" y="18" stroke-linejoin="round" width="20" height="26" fill="rgb(74,201,66)" stroke="rgb(59,160,52)" stroke-width="1" opacity="0.75" />
		</g>
		<g>
			<title>PF03559</title>
			<polygon class="PF03559" points="2248,18 2254,18 2267,31 2254,44 2248,44" stroke-linejoin="round" width="20" height="26" fill="rgb(74,201,66)" stroke="rgb(59,160,52)" stroke-width="1" opacity="0.75" />
		</g>
	</g>
	<g>
		<title>lkmF</title>
		<polygon class="lkmF" points="100,16 90,16 90,1 60,31 90,61 90,46 100,46" fill="rgb(253,199,215)" fill-opacity="1.0" stroke="rgb(101,79,85)" stroke-width="1" />
		<g>
			<title>PF00067</title>
			<polygon class="PF00067" points="62,31 75,18 82,18 82,44 75,44" stroke-linejoin="round" width="20" height="26" fill="rgb(85,216,107)" stroke="rgb(68,172,85)" stroke-width="1" opacity="0.75" />
		</g>
	</g>
	<g>
		<title>lkmBIII</title>
		<polygon class="lkmBIII" points="143,16 132,16 132,1 102,31 132,61 132,46 143,46" fill="rgb(251,239,204)" fill-opacity="1.0" stroke="rgb(100,95,81)" stroke-width="1" />
		<g>
			<title>PF08484</title>
			<polygon class="PF08484" points="104,31 117,18 117,43" stroke-linejoin="round" width="15" height="26" fill="rgb(229,72,107)" stroke="rgb(183,57,85)" stroke-width="1" opacity="0.75" />
		</g>
		<g>
			<title>PF13489</title>
			<rect class="PF13489" x="119" y="18" stroke-linejoin="round" width="15" height="26" fill="rgb(188,189,66)" stroke="rgb(150,151,52)" stroke-width="1" opacity="0.75" />
		</g>
		<g>
			<title>PF08421</title>
			<rect class="PF08421" x="136" y="18" stroke-linejoin="round" width="6" height="26" fill="rgb(209,96,160)" stroke="rgb(167,76,128)" stroke-width="1" opacity="0.75" />
		</g>
	</g>
	<g>
		<title>lkmG</title>
		<polygon class="lkmG" points="171,16 171,16 171,1 144,31 171,61 171,46 171,46" fill="rgb(209,253,229)" fill-opacity="1.0" stroke="rgb(83,101,91)" stroke-width="1" />
		<g>
			<title>PF08241</title>
			<polygon class="PF08241" points="154,22 158,18 163,18 163,44 158,44 154,39" stroke-linejoin="round" width="9" height="26" fill="rgb(106,219,159)" stroke="rgb(84,175,127)" stroke-width="1" opacity="0.75" />
		</g>
	</g>
	<g>
		<title>lkmBII</title>
		<polygon class="lkmBII" points="205,16 202,16 202,1 172,31 202,61 202,46 205,46" fill="rgb(209,201,253)" fill-opacity="1.0" stroke="rgb(83,80,101)" stroke-width="1" />
		<g>
			<title>PF00248</title>
			<polygon class="PF00248" points="174,31 187,18 202,18 202,44 187,44" stroke-linejoin="round" width="29" height="26" fill="rgb(225,205,58)" stroke="rgb(180,164,46)" stroke-width="1" opacity="0.75" />
		</g>
	</g>
	<g>
		<title>lkmH</title>
		<polygon class="lkmH" points="288,16 237,16 237,1 207,31 237,61 237,46 288,46" fill="rgb(233,250,187)" fill-opacity="1.0" stroke="rgb(93,100,74)" stroke-width="1" />
		<g>
			<title>PF14310</title>
			<polygon class="PF14310" points="209,31 215,25 215,36" stroke-linejoin="round" width="7" height="26" fill="rgb(206,58,194)" stroke="rgb(164,46,155)" stroke-width="1" opacity="0.75" />
		</g>
		<g>
			<title>PF01915</title>
			<polygon class="PF01915" points="219,21 222,18 252,18 252,44 222,44 219,40" stroke-linejoin="round" width="33" height="26" fill="rgb(181,96,75)" stroke="rgb(144,76,59)" stroke-width="1" opacity="0.75" />
		</g>
		<g>
			<title>PF00933</title>
			<rect class="PF00933" x="256" y="18" stroke-linejoin="round" width="25" height="26" fill="rgb(179,79,172)" stroke="rgb(143,63,137)" stroke-width="1" opacity="0.75" />
		</g>
	</g>
	<g>
		<title>lkmI</title>
		<polygon class="lkmI" points="336,16 324,16 324,1 294,31 324,61 324,46 336,46" fill="rgb(214,210,250)" fill-opacity="1.0" stroke="rgb(85,84,100)" stroke-width="1" />
		<g>
			<title>PF06722</title>
			<polygon class="PF06722" points="306,21 309,18 315,18 315,44 309,44 306,40" stroke-linejoin="round" width="9" height="26" fill="rgb(200,129,88)" stroke="rgb(160,103,70)" stroke-width="1" opacity="0.75" />
		</g>
	</g>
	<g>
		<title>lkmCII</title>
		<polygon class="lkmCII" points="373,16 367,16 367,1 337,31 367,61 367,46 373,46" fill="rgb(251,188,192)" fill-opacity="1.0" stroke="rgb(100,75,76)" stroke-width="1" />
		<g>
			<title>PF00067</title>
			<polygon class="PF00067" points="343,27 349,21 349,40 343,34" stroke-linejoin="round" width="6" height="26" fill="rgb(85,216,107)" stroke="rgb(68,172,85)" stroke-width="1" opacity="0.75" />
		</g>
	</g>
</svg>
