<svg version="1.1" baseProfile="full" xmlns="http://www.w3.org/2000/svg" width="1788" height="62">
	<line x1="1" y1="31" x2="1787" y2="31" style="stroke:rgb(50,50,50); stroke-width:3 "/>
	<g>
		<polygon class="NoName" points="1144,16 1144,16 1144,1 1164,31 1144,61 1144,46 1144,46" fill="rgb(255,255,255)" fill-opacity="1.0" stroke="rgb(50,50,50)" stroke-width="1" />
		<g>
			<title>PF00857</title>
			<polygon class="PF00857" points="1146,18 1152,18 1161,31 1152,44 1146,44" stroke-linejoin="round" width="17" height="26" fill="rgb(144,224,70)" stroke="rgb(115,179,56)" stroke-width="1" opacity="0.75" />
		</g>
	</g>
	<g>
		<polygon class="NoName" points="1241,16 1221,16 1221,1 1191,31 1221,61 1221,46 1241,46" fill="rgb(255,255,255)" fill-opacity="1.0" stroke="rgb(50,50,50)" stroke-width="1" />
		<g>
			<title>PF00891</title>
			<polygon class="PF00891" points="1200,24 1206,18 1222,18 1222,44 1206,44 1200,37" stroke-linejoin="round" width="22" height="26" fill="rgb(50,51,190)" stroke="rgb(39,40,152)" stroke-width="1" opacity="0.75" />
		</g>
	</g>
	<g>
		<polygon class="NoName" points="1394,16 1352,16 1352,1 1322,31 1352,61 1352,46 1394,46" fill="rgb(255,255,255)" fill-opacity="1.0" stroke="rgb(50,50,50)" stroke-width="1" />
		<g>
			<title>PF03723</title>
			<polygon class="PF03723" points="1334,21 1337,18 1355,18 1355,44 1337,44 1334,40" stroke-linejoin="round" width="21" height="26" fill="rgb(222,184,109)" stroke="rgb(177,147,87)" stroke-width="1" opacity="0.75" />
		</g>
		<g>
			<title>PF00372</title>
			<rect class="PF00372" x="1358" y="18" stroke-linejoin="round" width="29" height="26" fill="rgb(70,193,187)" stroke="rgb(56,154,149)" stroke-width="1" opacity="0.75" />
		</g>
	</g>
	<g>
		<polygon class="NoName" points="1422,16 1423,16 1423,1 1453,31 1423,61 1423,46 1422,46" fill="rgb(255,255,255)" fill-opacity="1.0" stroke="rgb(50,50,50)" stroke-width="1" />
		<g>
			<title>PF05721</title>
			<polygon class="PF05721" points="1424,18 1437,18 1443,24 1443,38 1437,44 1424,44" stroke-linejoin="round" width="19" height="26" fill="rgb(72,132,214)" stroke="rgb(57,105,171)" stroke-width="1" opacity="0.75" />
		</g>
	</g>
	<g>
		<polygon class="NoName" points="1498,16 1749,16 1749,1 1779,31 1749,61 1749,46 1498,46" fill="rgb(255,255,255)" fill-opacity="1.0" stroke="rgb(50,50,50)" stroke-width="1" />
		<g>
			<title>PF00501</title>
			<rect class="PF00501" x="1521" y="18" stroke-linejoin="round" width="39" height="26" fill="rgb(60,217,223)" stroke="rgb(48,173,178)" stroke-width="1" opacity="0.75" />
		</g>
		<g>
			<title>PF00550</title>
			<rect class="PF00550" x="1573" y="18" stroke-linejoin="round" width="6" height="26" fill="rgb(103,191,88)" stroke="rgb(82,152,70)" stroke-width="1" opacity="0.75" />
		</g>
		<g>
			<title>PF00668</title>
			<rect class="PF00668" x="1584" y="18" stroke-linejoin="round" width="43" height="26" fill="rgb(224,184,98)" stroke="rgb(179,147,78)" stroke-width="1" opacity="0.75" />
		</g>
		<g>
			<title>PF00501</title>
			<rect class="PF00501" x="1630" y="18" stroke-linejoin="round" width="40" height="26" fill="rgb(60,217,223)" stroke="rgb(48,173,178)" stroke-width="1" opacity="0.75" />
		</g>
		<g>
			<title>PF00550</title>
			<rect class="PF00550" x="1726" y="18" stroke-linejoin="round" width="6" height="26" fill="rgb(103,191,88)" stroke="rgb(82,152,70)" stroke-width="1" opacity="0.75" />
		</g>
		<g>
			<title>PF00668</title>
			<polygon class="PF00668" points="1737,18 1763,18 1768,23 1768,39 1763,44 1737,44" stroke-linejoin="round" width="31" height="26" fill="rgb(224,184,98)" stroke="rgb(179,147,78)" stroke-width="1" opacity="0.75" />
		</g>
	</g>
	<g>
		<polygon class="NoName" points="7,16 20,16 20,1 50,31 20,61 20,46 7,46" fill="rgb(255,255,255)" fill-opacity="1.0" stroke="rgb(50,50,50)" stroke-width="1" />
		<g>
			<title>PF01494</title>
			<rect class="PF01494" x="7" y="18" stroke-linejoin="round" width="18" height="26" fill="rgb(182,175,59)" stroke="rgb(145,140,47)" stroke-width="1" opacity="0.75" />
		</g>
		<g>
			<title>PF01494</title>
			<polygon class="PF01494" points="39,23 47,31 47,31 39,39" stroke-linejoin="round" width="8" height="26" fill="rgb(182,175,59)" stroke="rgb(145,140,47)" stroke-width="1" opacity="0.75" />
		</g>
	</g>
	<g>
		<polygon class="NoName" points="124,16 104,16 104,1 74,31 104,61 104,46 124,46" fill="rgb(255,255,255)" fill-opacity="1.0" stroke="rgb(50,50,50)" stroke-width="1" />
		<g>
			<title>PF00067</title>
			<polygon class="PF00067" points="81,26 89,18 123,18 123,44 89,44 81,35" stroke-linejoin="round" width="42" height="26" fill="rgb(85,216,107)" stroke="rgb(68,172,85)" stroke-width="1" opacity="0.75" />
		</g>
	</g>
	<g>
		<polygon class="NoName" points="228,16 211,16 211,1 181,31 211,61 211,46 228,46" fill="rgb(255,255,255)" fill-opacity="1.0" stroke="rgb(50,50,50)" stroke-width="1" />
		<g>
			<title>PF00891</title>
			<polygon class="PF00891" points="190,24 196,18 209,18 209,44 196,44 190,37" stroke-linejoin="round" width="19" height="26" fill="rgb(50,51,190)" stroke="rgb(39,40,152)" stroke-width="1" opacity="0.75" />
		</g>
	</g>
	<g>
		<polygon class="NoName" points="282,16 282,16 282,1 255,31 282,61 282,46 282,46" fill="rgb(255,255,255)" fill-opacity="1.0" stroke="rgb(50,50,50)" stroke-width="1" />
		<g>
			<title>PF13561</title>
			<polygon class="PF13561" points="257,31 269,18 279,18 279,44 269,44" stroke-linejoin="round" width="24" height="26" fill="rgb(73,205,127)" stroke="rgb(58,164,101)" stroke-width="1" opacity="0.75" />
		</g>
	</g>
	<g>
		<polygon class="NoName" points="334,16 358,16 358,1 388,31 358,61 358,46 334,46" fill="rgb(255,255,255)" fill-opacity="1.0" stroke="rgb(50,50,50)" stroke-width="1" />
		<g>
			<title>PF01494</title>
			<rect class="PF01494" x="334" y="18" stroke-linejoin="round" width="34" height="26" fill="rgb(182,175,59)" stroke="rgb(145,140,47)" stroke-width="1" opacity="0.75" />
		</g>
	</g>
	<g>
		<polygon class="NoName" points="428,16 439,16 439,1 469,31 439,61 439,46 428,46" fill="rgb(255,255,255)" fill-opacity="1.0" stroke="rgb(50,50,50)" stroke-width="1" />
	</g>
	<g>
		<polygon class="NoName" points="524,16 539,16 539,1 569,31 539,61 539,46 524,46" fill="rgb(255,255,255)" fill-opacity="1.0" stroke="rgb(50,50,50)" stroke-width="1" />
		<g>
			<title>PF11991</title>
			<polygon class="PF11991" points="528,18 553,18 561,26 561,36 553,44 528,44" stroke-linejoin="round" width="33" height="26" fill="rgb(197,197,93)" stroke="rgb(157,157,74)" stroke-width="1" opacity="0.75" />
		</g>
	</g>
	<g>
		<polygon class="NoName" points="639,16 609,16 609,1 579,31 609,61 609,46 639,46" fill="rgb(255,255,255)" fill-opacity="1.0" stroke="rgb(50,50,50)" stroke-width="1" />
		<g>
			<title>PF08031</title>
			<polygon class="PF08031" points="583,29 587,25 587,36 583,32" stroke-linejoin="round" width="4" height="26" fill="rgb(210,73,83)" stroke="rgb(168,58,66)" stroke-width="1" opacity="0.75" />
		</g>
		<g>
			<title>PF01565</title>
			<rect class="PF01565" x="612" y="18" stroke-linejoin="round" width="14" height="26" fill="rgb(226,88,136)" stroke="rgb(180,70,108)" stroke-width="1" opacity="0.75" />
		</g>
	</g>
	<g>
		<polygon class="NoName" points="687,16 705,16 705,1 735,31 705,61 705,46 687,46" fill="rgb(255,255,255)" fill-opacity="1.0" stroke="rgb(50,50,50)" stroke-width="1" />
		<g>
			<title>PF11991</title>
			<polygon class="PF11991" points="692,18 719,18 728,27 728,35 719,44 692,44" stroke-linejoin="round" width="36" height="26" fill="rgb(197,197,93)" stroke="rgb(157,157,74)" stroke-width="1" opacity="0.75" />
		</g>
	</g>
</svg>
