<svg version="1.1" baseProfile="full" xmlns="http://www.w3.org/2000/svg" width="732" height="62">
	<line x1="1" y1="31" x2="731" y2="31" style="stroke:rgb(50,50,50); stroke-width:3 "/>
	<g>
		<polygon class="NoName" points="387,16 356,16 356,1 326,31 356,61 356,46 387,46" fill="rgb(255,255,255)" fill-opacity="1.0" stroke="rgb(50,50,50)" stroke-width="1" />
		<g>
			<title>PF05147</title>
			<rect class="PF05147" x="346" y="18" stroke-linejoin="round" width="36" height="26" fill="rgb(129,182,79)" stroke="rgb(103,145,63)" stroke-width="1" opacity="0.75" />
		</g>
	</g>
	<g>
		<polygon class="NoName" points="413,16 413,16 413,1 386,31 413,61 413,46 413,46" fill="rgb(255,255,255)" fill-opacity="1.0" stroke="rgb(50,50,50)" stroke-width="1" />
		<g>
			<title>PF14028</title>
			<polygon class="PF14028" points="388,31 400,18 406,18 406,44 400,44" stroke-linejoin="round" width="19" height="26" fill="rgb(107,223,113)" stroke="rgb(85,178,90)" stroke-width="1" opacity="0.75" />
		</g>
		<g>
			<title>PF14028</title>
			<rect class="PF14028" x="406" y="18" stroke-linejoin="round" width="7" height="26" fill="rgb(107,223,113)" stroke="rgb(85,178,90)" stroke-width="1" opacity="0.75" />
		</g>
	</g>
	<g>
		<polygon class="NoName" points="499,16 444,16 444,1 414,31 444,61 444,46 499,46" fill="rgb(255,255,255)" fill-opacity="1.0" stroke="rgb(50,50,50)" stroke-width="1" />
		<g>
			<title>PF04738</title>
			<polygon class="PF04738" points="420,27 429,18 485,18 485,44 429,44 420,34" stroke-linejoin="round" width="65" height="26" fill="rgb(219,60,229)" stroke="rgb(175,47,183)" stroke-width="1" opacity="0.75" />
		</g>
	</g>
	<g>
		<polygon class="NoName" points="574,16 531,16 531,1 501,31 531,61 531,46 574,46" fill="rgb(255,255,255)" fill-opacity="1.0" stroke="rgb(50,50,50)" stroke-width="1" />
		<g>
			<title>PF00005</title>
			<polygon class="PF00005" points="508,26 516,18 522,18 522,44 516,44 508,35" stroke-linejoin="round" width="14" height="26" fill="rgb(129,201,63)" stroke="rgb(103,160,50)" stroke-width="1" opacity="0.75" />
		</g>
		<g>
			<title>PF00664</title>
			<rect class="PF00664" x="529" y="18" stroke-linejoin="round" width="27" height="26" fill="rgb(149,226,73)" stroke="rgb(119,180,58)" stroke-width="1" opacity="0.75" />
		</g>
		<g>
			<title>PF03412</title>
			<rect class="PF03412" x="561" y="18" stroke-linejoin="round" width="12" height="26" fill="rgb(214,226,77)" stroke="rgb(171,180,61)" stroke-width="1" opacity="0.75" />
		</g>
	</g>
	<g>
		<polygon class="NoName" points="622,16 609,16 609,1 579,31 609,61 609,46 622,46" fill="rgb(255,255,255)" fill-opacity="1.0" stroke="rgb(50,50,50)" stroke-width="1" />
		<g>
			<title>PF02321</title>
			<polygon class="PF02321" points="581,31 594,18 597,18 597,44 594,44" stroke-linejoin="round" width="18" height="26" fill="rgb(205,57,201)" stroke="rgb(164,45,160)" stroke-width="1" opacity="0.75" />
		</g>
		<g>
			<title>PF02321</title>
			<rect class="PF02321" x="599" y="18" stroke-linejoin="round" width="19" height="26" fill="rgb(205,57,201)" stroke="rgb(164,45,160)" stroke-width="1" opacity="0.75" />
		</g>
	</g>
	<g>
		<polygon class="NoName" points="675,16 653,16 653,1 623,31 653,61 653,46 675,46" fill="rgb(255,255,255)" fill-opacity="1.0" stroke="rgb(50,50,50)" stroke-width="1" />
		<g>
			<title>PF07690</title>
			<polygon class="PF07690" points="634,22 638,18 673,18 673,44 638,44 634,39" stroke-linejoin="round" width="39" height="26" fill="rgb(193,224,74)" stroke="rgb(154,179,59)" stroke-width="1" opacity="0.75" />
		</g>
	</g>
	<g>
		<polygon class="NoName" points="710,16 706,16 706,1 676,31 706,61 706,46 710,46" fill="rgb(255,255,255)" fill-opacity="1.0" stroke="rgb(50,50,50)" stroke-width="1" />
		<g>
			<title>PF16576</title>
			<polygon class="PF16576" points="681,28 691,18 699,18 699,44 691,44 681,33" stroke-linejoin="round" width="18" height="26" fill="rgb(70,190,92)" stroke="rgb(56,152,73)" stroke-width="1" opacity="0.75" />
		</g>
	</g>
	<g>
		<polygon class="NoName" points="716,16 716,16 716,1 731,31 716,61 716,46 716,46" fill="rgb(255,255,255)" fill-opacity="1.0" stroke="rgb(50,50,50)" stroke-width="1" />
		<g>
			<title>PF12802</title>
			<polygon class="PF12802" points="720,18 722,18 725,24 725,38 722,44 720,44" stroke-linejoin="round" width="5" height="26" fill="rgb(46,89,185)" stroke="rgb(36,71,148)" stroke-width="1" opacity="0.75" />
		</g>
	</g>
	<g>
		<polygon class="NoName" points="30,16 30,16 30,1 1,31 30,61 30,46 30,46" fill="rgb(255,255,255)" fill-opacity="1.0" stroke="rgb(50,50,50)" stroke-width="1" />
		<g>
			<title>PF12833</title>
			<polygon class="PF12833" points="3,31 8,26 8,35" stroke-linejoin="round" width="7" height="26" fill="rgb(216,58,224)" stroke="rgb(172,46,179)" stroke-width="1" opacity="0.75" />
		</g>
		<g>
			<title>PF02311</title>
			<rect class="PF02311" x="20" y="18" stroke-linejoin="round" width="6" height="26" fill="rgb(81,203,213)" stroke="rgb(64,162,170)" stroke-width="1" opacity="0.75" />
		</g>
	</g>
	<g>
		<polygon class="NoName" points="35,16 45,16 45,1 75,31 45,61 45,46 35,46" fill="rgb(255,255,255)" fill-opacity="1.0" stroke="rgb(50,50,50)" stroke-width="1" />
		<g>
			<title>PF07690</title>
			<polygon class="PF07690" points="36,18 59,18 70,29 70,33 59,44 36,44" stroke-linejoin="round" width="34" height="26" fill="rgb(193,224,74)" stroke="rgb(154,179,59)" stroke-width="1" opacity="0.75" />
		</g>
	</g>
	<g>
		<polygon class="NoName" points="78,16 78,16 78,1 105,31 78,61 78,46 78,46" fill="rgb(255,255,255)" fill-opacity="1.0" stroke="rgb(50,50,50)" stroke-width="1" />
	</g>
	<g>
		<polygon class="NoName" points="106,16 106,16 106,1 119,31 106,61 106,46 106,46" fill="rgb(255,255,255)" fill-opacity="1.0" stroke="rgb(50,50,50)" stroke-width="1" />
	</g>
	<g>
		<polygon class="NoName" points="121,16 121,16 121,1 144,31 121,61 121,46 121,46" fill="rgb(255,255,255)" fill-opacity="1.0" stroke="rgb(50,50,50)" stroke-width="1" />
		<g>
			<title>PF00005</title>
			<polygon class="PF00005" points="122,18 131,18 136,24 136,38 131,44 122,44" stroke-linejoin="round" width="14" height="26" fill="rgb(129,201,63)" stroke="rgb(103,160,50)" stroke-width="1" opacity="0.75" />
		</g>
	</g>
	<g>
		<polygon class="NoName" points="145,16 162,16 162,1 192,31 162,61 162,46 145,46" fill="rgb(255,255,255)" fill-opacity="1.0" stroke="rgb(50,50,50)" stroke-width="1" />
		<g>
			<title>PF12040</title>
			<polygon class="PF12040" points="172,18 176,18 187,29 187,33 176,44 172,44" stroke-linejoin="round" width="15" height="26" fill="rgb(179,178,52)" stroke="rgb(143,142,41)" stroke-width="1" opacity="0.75" />
		</g>
	</g>
	<g>
		<polygon class="NoName" points="192,16 210,16 210,1 240,31 210,61 210,46 192,46" fill="rgb(255,255,255)" fill-opacity="1.0" stroke="rgb(50,50,50)" stroke-width="1" />
		<g>
			<title>PF12040</title>
			<polygon class="PF12040" points="221,18 224,18 235,29 235,33 224,44 221,44" stroke-linejoin="round" width="14" height="26" fill="rgb(179,178,52)" stroke="rgb(143,142,41)" stroke-width="1" opacity="0.75" />
		</g>
	</g>
	<g>
		<polygon class="NoName" points="241,16 282,16 282,1 312,31 282,61 282,46 241,46" fill="rgb(255,255,255)" fill-opacity="1.0" stroke="rgb(50,50,50)" stroke-width="1" />
		<g>
			<title>PF07715</title>
			<rect class="PF07715" x="246" y="18" stroke-linejoin="round" width="10" height="26" fill="rgb(99,133,214)" stroke="rgb(79,106,171)" stroke-width="1" opacity="0.75" />
		</g>
	</g>
	<g>
		<polygon class="NoName" points="315,16 315,16 315,1 321,31 315,61 315,46 315,46" fill="rgb(255,255,255)" fill-opacity="1.0" stroke="rgb(50,50,50)" stroke-width="1" />
	</g>
</svg>
