<svg version="1.1" baseProfile="full" xmlns="http://www.w3.org/2000/svg" width="504" height="62">
	<line x1="1" y1="31" x2="503" y2="31" style="stroke:rgb(50,50,50); stroke-width:3 "/>
	<g>
		<title>fkbG</title>
		<polygon class="fkbG" points="477,16 477,16 477,1 499,31 477,61 477,46 477,46" fill="rgb(250,230,192)" fill-opacity="1.0" stroke="rgb(100,92,76)" stroke-width="1" />
		<g>
			<title>PF01596</title>
			<polygon class="PF01596" points="478,18 486,18 496,31 486,44 478,44" stroke-linejoin="round" width="20" height="26" fill="rgb(168,187,48)" stroke="rgb(134,149,38)" stroke-width="1" opacity="0.75" />
		</g>
	</g>
	<g>
		<title>allA</title>
		<polygon class="allA" points="93,16 106,16 106,1 136,31 106,61 106,46 93,46" fill="rgb(253,193,192)" fill-opacity="1.0" stroke="rgb(101,77,76)" stroke-width="1" />
		<g>
			<title>PF00698</title>
			<polygon class="PF00698" points="93,18 120,18 124,22 124,40 120,44 93,44" stroke-linejoin="round" width="31" height="26" fill="rgb(59,176,209)" stroke="rgb(47,140,167)" stroke-width="1" opacity="0.75" />
		</g>
		<g>
			<title>PF00550</title>
			<polygon class="PF00550" points="127,25 133,31 133,31 127,37" stroke-linejoin="round" width="6" height="26" fill="rgb(103,191,88)" stroke="rgb(82,152,70)" stroke-width="1" opacity="0.75" />
		</g>
	</g>
	<g>
		<title>allK</title>
		<polygon class="allK" points="136,16 185,16 185,1 215,31 185,61 185,46 136,46" fill="rgb(184,199,252)" fill-opacity="1.0" stroke="rgb(73,79,100)" stroke-width="1" />
		<g>
			<title>PF00109</title>
			<rect class="PF00109" x="137" y="18" stroke-linejoin="round" width="12" height="26" fill="rgb(112,116,228)" stroke="rgb(89,92,182)" stroke-width="1" opacity="0.75" />
		</g>
		<g>
			<title>PF00109</title>
			<rect class="PF00109" x="156" y="18" stroke-linejoin="round" width="8" height="26" fill="rgb(112,116,228)" stroke="rgb(89,92,182)" stroke-width="1" opacity="0.75" />
		</g>
		<g>
			<title>PF02801</title>
			<rect class="PF02801" x="165" y="18" stroke-linejoin="round" width="11" height="26" fill="rgb(215,78,102)" stroke="rgb(172,62,81)" stroke-width="1" opacity="0.75" />
		</g>
		<g>
			<title>PF00109</title>
			<polygon class="PF00109" points="188,18 199,18 205,24 205,38 199,44 188,44" stroke-linejoin="round" width="17" height="26" fill="rgb(112,116,228)" stroke="rgb(89,92,182)" stroke-width="1" opacity="0.75" />
		</g>
	</g>
	<g>
		<title>allR</title>
		<polygon class="allR" points="216,16 230,16 230,1 260,31 230,61 230,46 216,46" fill="rgb(249,210,234)" fill-opacity="1.0" stroke="rgb(99,84,93)" stroke-width="1" />
		<g>
			<title>PF08240</title>
			<rect class="PF08240" x="222" y="18" stroke-linejoin="round" width="12" height="26" fill="rgb(211,65,138)" stroke="rgb(168,51,110)" stroke-width="1" opacity="0.75" />
		</g>
		<g>
			<title>PF00107</title>
			<polygon class="PF00107" points="239,18 244,18 253,27 253,35 244,44 239,44" stroke-linejoin="round" width="14" height="26" fill="rgb(81,108,215)" stroke="rgb(64,86,172)" stroke-width="1" opacity="0.75" />
		</g>
	</g>
	<g>
		<title>allD</title>
		<polygon class="allD" points="260,16 268,16 268,1 298,31 268,61 268,46 260,46" fill="rgb(222,253,208)" fill-opacity="1.0" stroke="rgb(88,101,83)" stroke-width="1" />
		<g>
			<title>PF02771</title>
			<rect class="PF02771" x="260" y="18" stroke-linejoin="round" width="10" height="26" fill="rgb(105,135,218)" stroke="rgb(84,108,174)" stroke-width="1" opacity="0.75" />
		</g>
		<g>
			<title>PF02770</title>
			<rect class="PF02770" x="271" y="18" stroke-linejoin="round" width="9" height="26" fill="rgb(225,186,97)" stroke="rgb(180,148,77)" stroke-width="1" opacity="0.75" />
		</g>
		<g>
			<title>PF00441</title>
			<polygon class="PF00441" points="281,18 282,18 295,31 282,44 281,44" stroke-linejoin="round" width="16" height="26" fill="rgb(85,191,117)" stroke="rgb(68,152,93)" stroke-width="1" opacity="0.75" />
		</g>
	</g>
	<g>
		<title>allM</title>
		<polygon class="allM" points="338,16 330,16 330,1 300,31 330,61 330,46 338,46" fill="rgb(237,179,252)" fill-opacity="1.0" stroke="rgb(94,71,100)" stroke-width="1" />
		<g>
			<title>PF01053</title>
			<polygon class="PF01053" points="302,31 315,18 337,18 337,44 315,44" stroke-linejoin="round" width="37" height="26" fill="rgb(142,222,85)" stroke="rgb(113,177,67)" stroke-width="1" opacity="0.75" />
		</g>
	</g>
	<g>
		<title>allN</title>
		<polygon class="allN" points="340,16 340,16 340,1 355,31 340,61 340,46 340,46" fill="rgb(250,206,240)" fill-opacity="1.0" stroke="rgb(100,82,96)" stroke-width="1" />
		<g>
			<title>PF13404</title>
			<rect class="PF13404" x="340" y="18" stroke-linejoin="round" width="4" height="26" fill="rgb(190,195,86)" stroke="rgb(152,156,68)" stroke-width="1" opacity="0.75" />
		</g>
		<g>
			<title>PF01037</title>
			<polygon class="PF01037" points="347,20 352,31 347,42" stroke-linejoin="round" width="6" height="26" fill="rgb(134,72,182)" stroke="rgb(107,57,145)" stroke-width="1" opacity="0.75" />
		</g>
	</g>
	<g>
		<title>allP</title>
		<polygon class="allP" points="359,16 370,16 370,1 400,31 370,61 370,46 359,46" fill="rgb(202,250,215)" fill-opacity="1.0" stroke="rgb(80,100,85)" stroke-width="1" />
		<g>
			<title>PF00067</title>
			<polygon class="PF00067" points="386,20 397,31 397,31 386,42" stroke-linejoin="round" width="11" height="26" fill="rgb(85,216,107)" stroke="rgb(68,172,85)" stroke-width="1" opacity="0.75" />
		</g>
	</g>
	<g>
		<title>allO</title>
		<polygon class="allO" points="406,16 415,16 415,1 445,31 415,61 415,46 406,46" fill="rgb(202,251,232)" fill-opacity="1.0" stroke="rgb(80,100,92)" stroke-width="1" />
		<g>
			<title>PF02771</title>
			<rect class="PF02771" x="407" y="18" stroke-linejoin="round" width="8" height="26" fill="rgb(105,135,218)" stroke="rgb(84,108,174)" stroke-width="1" opacity="0.75" />
		</g>
		<g>
			<title>PF08028</title>
			<polygon class="PF08028" points="429,18 429,18 442,31 442,31 429,44 429,44" stroke-linejoin="round" width="13" height="26" fill="rgb(106,185,56)" stroke="rgb(84,148,44)" stroke-width="1" opacity="0.75" />
		</g>
	</g>
	<g>
		<title>allS</title>
		<polygon class="allS" points="449,16 449,16 449,1 470,31 449,61 449,46 449,46" fill="rgb(251,209,199)" fill-opacity="1.0" stroke="rgb(100,83,79)" stroke-width="1" />
		<g>
			<title>PF13561</title>
			<polygon class="PF13561" points="449,18 458,18 467,31 458,44 449,44" stroke-linejoin="round" width="21" height="26" fill="rgb(73,205,127)" stroke="rgb(58,164,101)" stroke-width="1" opacity="0.75" />
		</g>
	</g>
</svg>
