<svg version="1.1" baseProfile="full" xmlns="http://www.w3.org/2000/svg" width="1181" height="62">
	<line x1="1" y1="31" x2="1180" y2="31" style="stroke:rgb(50,50,50); stroke-width:3 "/>
	<g>
		<polygon class="NoName" points="604,16 640,16 640,1 670,31 640,61 640,46 604,46" fill="rgb(255,255,255)" fill-opacity="1.0" stroke="rgb(50,50,50)" stroke-width="1" />
		<g>
			<title>PF00676</title>
			<rect class="PF00676" x="606" y="18" stroke-linejoin="round" width="28" height="26" fill="rgb(180,115,48)" stroke="rgb(144,92,38)" stroke-width="1" opacity="0.75" />
		</g>
		<g>
			<title>PF02779</title>
			<rect class="PF02779" x="636" y="18" stroke-linejoin="round" width="17" height="26" fill="rgb(189,186,84)" stroke="rgb(151,148,67)" stroke-width="1" opacity="0.75" />
		</g>
		<g>
			<title>PF02780</title>
			<polygon class="PF02780" points="657,21 667,31 657,41" stroke-linejoin="round" width="11" height="26" fill="rgb(76,206,101)" stroke="rgb(60,164,80)" stroke-width="1" opacity="0.75" />
		</g>
	</g>
	<g>
		<polygon class="NoName" points="670,16 676,16 676,1 706,31 676,61 676,46 670,46" fill="rgb(255,255,255)" fill-opacity="1.0" stroke="rgb(50,50,50)" stroke-width="1" />
		<g>
			<title>PF00364</title>
			<rect class="PF00364" x="670" y="18" stroke-linejoin="round" width="7" height="26" fill="rgb(67,214,213)" stroke="rgb(53,171,170)" stroke-width="1" opacity="0.75" />
		</g>
		<g>
			<title>PF00198</title>
			<polygon class="PF00198" points="685,18 690,18 703,31 690,44 685,44" stroke-linejoin="round" width="20" height="26" fill="rgb(204,74,202)" stroke="rgb(163,59,161)" stroke-width="1" opacity="0.75" />
		</g>
	</g>
	<g>
		<polygon class="NoName" points="709,16 728,16 728,1 758,31 728,61 728,46 709,46" fill="rgb(255,255,255)" fill-opacity="1.0" stroke="rgb(50,50,50)" stroke-width="1" />
		<g>
			<title>PF01494</title>
			<rect class="PF01494" x="709" y="18" stroke-linejoin="round" width="33" height="26" fill="rgb(182,175,59)" stroke="rgb(145,140,47)" stroke-width="1" opacity="0.75" />
		</g>
	</g>
	<g>
		<polygon class="NoName" points="780,16 780,16 780,1 758,31 780,61 780,46 780,46" fill="rgb(255,255,255)" fill-opacity="1.0" stroke="rgb(50,50,50)" stroke-width="1" />
		<g>
			<title>PF01596</title>
			<polygon class="PF01596" points="760,31 770,18 778,18 778,44 770,44" stroke-linejoin="round" width="20" height="26" fill="rgb(168,187,48)" stroke="rgb(134,149,38)" stroke-width="1" opacity="0.75" />
		</g>
	</g>
	<g>
		<polygon class="NoName" points="796,16 796,16 796,1 780,31 796,61 796,46 796,46" fill="rgb(255,255,255)" fill-opacity="1.0" stroke="rgb(50,50,50)" stroke-width="1" />
	</g>
	<g>
		<polygon class="NoName" points="814,16 814,16 814,1 803,31 814,61 814,46 814,46" fill="rgb(255,255,255)" fill-opacity="1.0" stroke="rgb(50,50,50)" stroke-width="1" />
	</g>
	<g>
		<polygon class="NoName" points="889,16 845,16 845,1 815,31 845,61 845,46 889,46" fill="rgb(255,255,255)" fill-opacity="1.0" stroke="rgb(50,50,50)" stroke-width="1" />
		<g>
			<title>PF01804</title>
			<polygon class="PF01804" points="817,31 830,18 888,18 888,44 830,44" stroke-linejoin="round" width="73" height="26" fill="rgb(62,133,186)" stroke="rgb(49,106,148)" stroke-width="1" opacity="0.75" />
		</g>
	</g>
	<g>
		<polygon class="NoName" points="945,16 927,16 927,1 897,31 927,61 927,46 945,46" fill="rgb(255,255,255)" fill-opacity="1.0" stroke="rgb(50,50,50)" stroke-width="1" />
		<g>
			<title>PF02637</title>
			<polygon class="PF02637" points="899,31 912,18 912,43" stroke-linejoin="round" width="15" height="26" fill="rgb(84,191,125)" stroke="rgb(67,152,99)" stroke-width="1" opacity="0.75" />
		</g>
		<g>
			<title>PF02934</title>
			<rect class="PF02934" x="916" y="18" stroke-linejoin="round" width="28" height="26" fill="rgb(66,215,132)" stroke="rgb(52,172,105)" stroke-width="1" opacity="0.75" />
		</g>
	</g>
	<g>
		<polygon class="NoName" points="985,16 976,16 976,1 946,31 976,61 976,46 985,46" fill="rgb(255,255,255)" fill-opacity="1.0" stroke="rgb(50,50,50)" stroke-width="1" />
		<g>
			<title>PF01425</title>
			<polygon class="PF01425" points="948,31 961,18 985,18 985,44 961,44" stroke-linejoin="round" width="37" height="26" fill="rgb(195,142,64)" stroke="rgb(156,113,51)" stroke-width="1" opacity="0.75" />
		</g>
	</g>
	<g>
		<polygon class="NoName" points="1006,16 1006,16 1006,1 996,31 1006,61 1006,46 1006,46" fill="rgb(255,255,255)" fill-opacity="1.0" stroke="rgb(50,50,50)" stroke-width="1" />
		<g>
			<title>PF02686</title>
			<polygon class="PF02686" points="998,31 1002,18 1003,18 1003,44 1002,44" stroke-linejoin="round" width="7" height="26" fill="rgb(80,186,201)" stroke="rgb(64,148,160)" stroke-width="1" opacity="0.75" />
		</g>
	</g>
	<g>
		<polygon class="NoName" points="39,16 31,16 31,1 1,31 31,61 31,46 39,46" fill="rgb(255,255,255)" fill-opacity="1.0" stroke="rgb(50,50,50)" stroke-width="1" />
		<g>
			<title>PF02785</title>
			<polygon class="PF02785" points="3,31 6,28 6,33" stroke-linejoin="round" width="5" height="26" fill="rgb(82,186,211)" stroke="rgb(65,148,168)" stroke-width="1" opacity="0.75" />
		</g>
		<g>
			<title>PF02786</title>
			<polygon class="PF02786" points="7,27 16,18 27,18 27,44 16,44 7,34" stroke-linejoin="round" width="20" height="26" fill="rgb(190,97,205)" stroke="rgb(151,77,164)" stroke-width="1" opacity="0.75" />
		</g>
		<g>
			<title>PF00289</title>
			<rect class="PF00289" x="28" y="18" stroke-linejoin="round" width="10" height="26" fill="rgb(59,114,187)" stroke="rgb(47,91,149)" stroke-width="1" opacity="0.75" />
		</g>
	</g>
	<g>
		<polygon class="NoName" points="1013,16 1031,16 1031,1 1061,31 1031,61 1031,46 1013,46" fill="rgb(255,255,255)" fill-opacity="1.0" stroke="rgb(50,50,50)" stroke-width="1" />
		<g>
			<title>PF01523</title>
			<rect class="PF01523" x="1016" y="18" stroke-linejoin="round" width="29" height="26" fill="rgb(83,181,55)" stroke="rgb(66,144,44)" stroke-width="1" opacity="0.75" />
		</g>
	</g>
	<g>
		<polygon class="NoName" points="1066,16 1066,16 1066,1 1083,31 1066,61 1066,46 1066,46" fill="rgb(255,255,255)" fill-opacity="1.0" stroke="rgb(50,50,50)" stroke-width="1" />
		<g>
			<title>PF01202</title>
			<polygon class="PF01202" points="1067,18 1073,18 1080,31 1073,44 1067,44" stroke-linejoin="round" width="15" height="26" fill="rgb(62,197,58)" stroke="rgb(49,157,46)" stroke-width="1" opacity="0.75" />
		</g>
	</g>
	<g>
		<polygon class="NoName" points="1104,16 1104,16 1104,1 1091,31 1104,61 1104,46 1104,46" fill="rgb(255,255,255)" fill-opacity="1.0" stroke="rgb(50,50,50)" stroke-width="1" />
		<g>
			<title>PF01258</title>
			<polygon class="PF01258" points="1093,31 1094,29 1094,32" stroke-linejoin="round" width="3" height="26" fill="rgb(77,182,70)" stroke="rgb(61,145,56)" stroke-width="1" opacity="0.75" />
		</g>
	</g>
	<g>
		<polygon class="NoName" points="1138,16 1138,16 1138,1 1108,31 1138,61 1138,46 1138,46" fill="rgb(255,255,255)" fill-opacity="1.0" stroke="rgb(50,50,50)" stroke-width="1" />
		<g>
			<title>PF00892</title>
			<polygon class="PF00892" points="1110,31 1121,20 1121,41" stroke-linejoin="round" width="13" height="26" fill="rgb(105,217,77)" stroke="rgb(84,173,61)" stroke-width="1" opacity="0.75" />
		</g>
		<g>
			<title>PF00892</title>
			<polygon class="PF00892" points="1122,19 1123,18 1135,18 1135,44 1123,44 1122,42" stroke-linejoin="round" width="13" height="26" fill="rgb(105,217,77)" stroke="rgb(84,173,61)" stroke-width="1" opacity="0.75" />
		</g>
	</g>
	<g>
		<title>polA</title>
		<polygon class="polA" points="1148,16 1148,16 1148,1 1168,31 1148,61 1148,46 1148,46" fill="rgb(203,250,234)" fill-opacity="1.0" stroke="rgb(81,100,93)" stroke-width="1" />
		<g>
			<title>PF02739</title>
			<polygon class="PF02739" points="1148,18 1156,18 1160,23 1160,39 1156,44 1148,44" stroke-linejoin="round" width="12" height="26" fill="rgb(118,228,108)" stroke="rgb(94,182,86)" stroke-width="1" opacity="0.75" />
		</g>
	</g>
	<g>
		<polygon class="NoName" points="1169,16 1169,16 1169,1 1180,31 1169,61 1169,46 1169,46" fill="rgb(255,255,255)" fill-opacity="1.0" stroke="rgb(50,50,50)" stroke-width="1" />
		<g>
			<title>PF10977</title>
			<polygon class="PF10977" points="1172,18 1172,18 1177,31 1172,44 1172,44" stroke-linejoin="round" width="7" height="26" fill="rgb(95,198,159)" stroke="rgb(76,158,127)" stroke-width="1" opacity="0.75" />
		</g>
	</g>
	<g>
		<polygon class="NoName" points="56,16 56,16 56,1 41,31 56,61 56,46 56,46" fill="rgb(255,255,255)" fill-opacity="1.0" stroke="rgb(50,50,50)" stroke-width="1" />
		<g>
			<title>PF00364</title>
			<polygon class="PF00364" points="43,31 48,21 48,40" stroke-linejoin="round" width="7" height="26" fill="rgb(67,214,213)" stroke="rgb(53,171,170)" stroke-width="1" opacity="0.75" />
		</g>
	</g>
	<g>
		<polygon class="NoName" points="96,16 96,16 96,1 70,31 96,61 96,46 96,46" fill="rgb(255,255,255)" fill-opacity="1.0" stroke="rgb(50,50,50)" stroke-width="1" />
		<g>
			<title>PF01026</title>
			<polygon class="PF01026" points="72,31 83,18 95,18 95,44 83,44" stroke-linejoin="round" width="25" height="26" fill="rgb(91,81,210)" stroke="rgb(72,64,168)" stroke-width="1" opacity="0.75" />
		</g>
	</g>
	<g>
		<polygon class="NoName" points="129,16 129,16 129,1 99,31 129,61 129,46 129,46" fill="rgb(255,255,255)" fill-opacity="1.0" stroke="rgb(50,50,50)" stroke-width="1" />
		<g>
			<title>PF13177</title>
			<polygon class="PF13177" points="114,18 114,18 128,18 128,44 114,44 114,43" stroke-linejoin="round" width="14" height="26" fill="rgb(188,69,141)" stroke="rgb(150,55,112)" stroke-width="1" opacity="0.75" />
		</g>
	</g>
	<g>
		<polygon class="NoName" points="143,16 143,16 143,1 169,31 143,61 143,46 143,46" fill="rgb(255,255,255)" fill-opacity="1.0" stroke="rgb(50,50,50)" stroke-width="1" />
	</g>
	<g>
		<polygon class="NoName" points="172,16 178,16 178,1 208,31 178,61 178,46 172,46" fill="rgb(255,255,255)" fill-opacity="1.0" stroke="rgb(50,50,50)" stroke-width="1" />
		<g>
			<title>PF00891</title>
			<polygon class="PF00891" points="184,18 192,18 205,31 192,44 184,44" stroke-linejoin="round" width="22" height="26" fill="rgb(50,51,190)" stroke="rgb(39,40,152)" stroke-width="1" opacity="0.75" />
		</g>
	</g>
	<g>
		<polygon class="NoName" points="209,16 243,16 243,1 273,31 243,61 243,46 209,46" fill="rgb(255,255,255)" fill-opacity="1.0" stroke="rgb(50,50,50)" stroke-width="1" />
		<g>
			<title>PF00668</title>
			<rect class="PF00668" x="210" y="18" stroke-linejoin="round" width="43" height="26" fill="rgb(224,184,98)" stroke="rgb(179,147,78)" stroke-width="1" opacity="0.75" />
		</g>
		<g>
			<title>PF00550</title>
			<polygon class="PF00550" points="263,24 269,30 269,32 263,38" stroke-linejoin="round" width="6" height="26" fill="rgb(103,191,88)" stroke="rgb(82,152,70)" stroke-width="1" opacity="0.75" />
		</g>
	</g>
	<g>
		<polygon class="NoName" points="278,16 392,16 392,1 422,31 392,61 392,46 278,46" fill="rgb(255,255,255)" fill-opacity="1.0" stroke="rgb(50,50,50)" stroke-width="1" />
		<g>
			<title>PF00668</title>
			<rect class="PF00668" x="278" y="18" stroke-linejoin="round" width="42" height="26" fill="rgb(224,184,98)" stroke="rgb(179,147,78)" stroke-width="1" opacity="0.75" />
		</g>
		<g>
			<title>PF00501</title>
			<rect class="PF00501" x="323" y="18" stroke-linejoin="round" width="40" height="26" fill="rgb(60,217,223)" stroke="rgb(48,173,178)" stroke-width="1" opacity="0.75" />
		</g>
		<g>
			<title>PF13193</title>
			<rect class="PF13193" x="363" y="18" stroke-linejoin="round" width="7" height="26" fill="rgb(182,50,118)" stroke="rgb(145,39,94)" stroke-width="1" opacity="0.75" />
		</g>
		<g>
			<title>PF00550</title>
			<rect class="PF00550" x="374" y="18" stroke-linejoin="round" width="6" height="26" fill="rgb(103,191,88)" stroke="rgb(82,152,70)" stroke-width="1" opacity="0.75" />
		</g>
		<g>
			<title>PF07993</title>
			<polygon class="PF07993" points="385,18 406,18 408,20 408,42 406,44 385,44" stroke-linejoin="round" width="23" height="26" fill="rgb(100,212,204)" stroke="rgb(80,169,163)" stroke-width="1" opacity="0.75" />
		</g>
	</g>
	<g>
		<polygon class="NoName" points="425,16 574,16 574,1 604,31 574,61 574,46 425,46" fill="rgb(255,255,255)" fill-opacity="1.0" stroke="rgb(50,50,50)" stroke-width="1" />
		<g>
			<title>PF00501</title>
			<rect class="PF00501" x="427" y="18" stroke-linejoin="round" width="45" height="26" fill="rgb(60,217,223)" stroke="rgb(48,173,178)" stroke-width="1" opacity="0.75" />
		</g>
		<g>
			<title>PF00668</title>
			<rect class="PF00668" x="496" y="18" stroke-linejoin="round" width="43" height="26" fill="rgb(224,184,98)" stroke="rgb(179,147,78)" stroke-width="1" opacity="0.75" />
		</g>
		<g>
			<title>PF00501</title>
			<rect class="PF00501" x="542" y="18" stroke-linejoin="round" width="41" height="26" fill="rgb(60,217,223)" stroke="rgb(48,173,178)" stroke-width="1" opacity="0.75" />
		</g>
		<g>
			<title>PF13193</title>
			<polygon class="PF13193" points="584,18 588,18 591,21 591,41 588,44 584,44" stroke-linejoin="round" width="7" height="26" fill="rgb(182,50,118)" stroke="rgb(145,39,94)" stroke-width="1" opacity="0.75" />
		</g>
		<g>
			<title>PF00550</title>
			<polygon class="PF00550" points="595,25 601,31 601,31 595,37" stroke-linejoin="round" width="6" height="26" fill="rgb(103,191,88)" stroke="rgb(82,152,70)" stroke-width="1" opacity="0.75" />
		</g>
	</g>
</svg>
