<svg version="1.1" baseProfile="full" xmlns="http://www.w3.org/2000/svg" width="741" height="62">
	<line x1="1" y1="31" x2="740" y2="31" style="stroke:rgb(50,50,50); stroke-width:3 "/>
	<g>
		<polygon class="NoName" points="240,16 244,16 244,1 274,31 244,61 244,46 240,46" fill="rgb(255,255,255)" fill-opacity="1.0" stroke="rgb(50,50,50)" stroke-width="1" />
		<g>
			<title>PF00535</title>
			<rect class="PF00535" x="240" y="18" stroke-linejoin="round" width="16" height="26" fill="rgb(224,122,96)" stroke="rgb(179,97,76)" stroke-width="1" opacity="0.75" />
		</g>
	</g>
	<g>
		<polygon class="NoName" points="275,16 279,16 279,1 309,31 279,61 279,46 275,46" fill="rgb(255,255,255)" fill-opacity="1.0" stroke="rgb(50,50,50)" stroke-width="1" />
		<g>
			<title>PF00535</title>
			<rect class="PF00535" x="275" y="18" stroke-linejoin="round" width="17" height="26" fill="rgb(224,122,96)" stroke="rgb(179,97,76)" stroke-width="1" opacity="0.75" />
		</g>
	</g>
	<g>
		<polygon class="NoName" points="309,16 315,16 315,1 345,31 315,61 315,46 309,46" fill="rgb(255,255,255)" fill-opacity="1.0" stroke="rgb(50,50,50)" stroke-width="1" />
		<g>
			<title>PF13450</title>
			<rect class="PF13450" x="309" y="18" stroke-linejoin="round" width="6" height="26" fill="rgb(91,180,227)" stroke="rgb(72,144,181)" stroke-width="1" opacity="0.75" />
		</g>
		<g>
			<title>PF03275</title>
			<polygon class="PF03275" points="323,18 329,18 342,31 329,44 323,44" stroke-linejoin="round" width="20" height="26" fill="rgb(169,187,61)" stroke="rgb(135,149,48)" stroke-width="1" opacity="0.75" />
		</g>
	</g>
	<g>
		<polygon class="NoName" points="346,16 355,16 355,1 385,31 355,61 355,46 346,46" fill="rgb(255,255,255)" fill-opacity="1.0" stroke="rgb(50,50,50)" stroke-width="1" />
	</g>
	<g>
		<polygon class="NoName" points="433,16 436,16 436,1 466,31 436,61 436,46 433,46" fill="rgb(255,255,255)" fill-opacity="1.0" stroke="rgb(50,50,50)" stroke-width="1" />
		<g>
			<title>PF01757</title>
			<polygon class="PF01757" points="433,18 450,18 463,31 450,44 433,44" stroke-linejoin="round" width="32" height="26" fill="rgb(50,152,200)" stroke="rgb(40,121,160)" stroke-width="1" opacity="0.75" />
		</g>
	</g>
	<g>
		<polygon class="NoName" points="559,16 573,16 573,1 603,31 573,61 573,46 559,46" fill="rgb(255,255,255)" fill-opacity="1.0" stroke="rgb(50,50,50)" stroke-width="1" />
		<g>
			<title>PF00078</title>
			<polygon class="PF00078" points="579,18 587,18 593,24 593,38 587,44 579,44" stroke-linejoin="round" width="14" height="26" fill="rgb(85,219,135)" stroke="rgb(68,175,108)" stroke-width="1" opacity="0.75" />
		</g>
	</g>
	<g>
		<polygon class="NoName" points="16,16 19,16 19,1 49,31 19,61 19,46 16,46" fill="rgb(255,255,255)" fill-opacity="1.0" stroke="rgb(50,50,50)" stroke-width="1" />
		<g>
			<title>PF03816</title>
			<polygon class="PF03816" points="26,18 33,18 40,25 40,37 33,44 26,44" stroke-linejoin="round" width="14" height="26" fill="rgb(212,80,62)" stroke="rgb(169,64,49)" stroke-width="1" opacity="0.75" />
		</g>
	</g>
	<g>
		<polygon class="NoName" points="49,16 49,16 49,1 77,31 49,61 49,46 49,46" fill="rgb(255,255,255)" fill-opacity="1.0" stroke="rgb(50,50,50)" stroke-width="1" />
		<g>
			<title>PF02706</title>
			<polygon class="PF02706" points="49,18 62,18 66,23 66,39 62,44 49,44" stroke-linejoin="round" width="17" height="26" fill="rgb(184,132,90)" stroke="rgb(147,105,72)" stroke-width="1" opacity="0.75" />
		</g>
	</g>
	<g>
		<polygon class="NoName" points="79,16 79,16 79,1 104,31 79,61 79,46 79,46" fill="rgb(255,255,255)" fill-opacity="1.0" stroke="rgb(50,50,50)" stroke-width="1" />
		<g>
			<title>PF13614</title>
			<polygon class="PF13614" points="84,18 90,18 101,31 101,31 90,44 84,44" stroke-linejoin="round" width="17" height="26" fill="rgb(144,187,62)" stroke="rgb(115,149,49)" stroke-width="1" opacity="0.75" />
		</g>
	</g>
	<g>
		<polygon class="NoName" points="104,16 104,16 104,1 129,31 104,61 104,46 104,46" fill="rgb(255,255,255)" fill-opacity="1.0" stroke="rgb(50,50,50)" stroke-width="1" />
	</g>
	<g>
		<polygon class="NoName" points="131,16 131,16 131,1 153,31 131,61 131,46 131,46" fill="rgb(255,255,255)" fill-opacity="1.0" stroke="rgb(50,50,50)" stroke-width="1" />
		<g>
			<title>PF02397</title>
			<polygon class="PF02397" points="133,18 140,18 150,31 140,44 133,44" stroke-linejoin="round" width="18" height="26" fill="rgb(57,165,209)" stroke="rgb(45,131,167)" stroke-width="1" opacity="0.75" />
		</g>
	</g>
	<g>
		<polygon class="NoName" points="153,16 153,16 153,1 168,31 153,61 153,46 153,46" fill="rgb(255,255,255)" fill-opacity="1.0" stroke="rgb(50,50,50)" stroke-width="1" />
		<g>
			<title>PF08660</title>
			<polygon class="PF08660" points="158,18 159,18 165,31 159,44 158,44" stroke-linejoin="round" width="9" height="26" fill="rgb(171,179,66)" stroke="rgb(136,143,52)" stroke-width="1" opacity="0.75" />
		</g>
	</g>
	<g>
		<polygon class="NoName" points="168,16 168,16 168,1 184,31 168,61 168,46 168,46" fill="rgb(255,255,255)" fill-opacity="1.0" stroke="rgb(50,50,50)" stroke-width="1" />
		<g>
			<title>PF04101</title>
			<polygon class="PF04101" points="168,18 174,18 181,31 174,44 168,44" stroke-linejoin="round" width="16" height="26" fill="rgb(211,90,140)" stroke="rgb(168,72,112)" stroke-width="1" opacity="0.75" />
		</g>
	</g>
	<g>
		<polygon class="NoName" points="185,16 185,16 185,1 209,31 185,61 185,46 185,46" fill="rgb(255,255,255)" fill-opacity="1.0" stroke="rgb(50,50,50)" stroke-width="1" />
		<g>
			<title>PF04488</title>
			<rect class="PF04488" x="186" y="18" stroke-linejoin="round" width="8" height="26" fill="rgb(175,85,208)" stroke="rgb(139,68,166)" stroke-width="1" opacity="0.75" />
		</g>
	</g>
	<g>
		<polygon class="NoName" points="209,16 209,16 209,1 239,31 209,61 209,46 209,46" fill="rgb(255,255,255)" fill-opacity="1.0" stroke="rgb(50,50,50)" stroke-width="1" />
		<g>
			<title>PF00535</title>
			<polygon class="PF00535" points="210,18 223,18 226,21 226,41 223,44 210,44" stroke-linejoin="round" width="16" height="26" fill="rgb(224,122,96)" stroke="rgb(179,97,76)" stroke-width="1" opacity="0.75" />
		</g>
	</g>
</svg>
