<svg version="1.1" baseProfile="full" xmlns="http://www.w3.org/2000/svg" width="1653" height="62">
	<line x1="1" y1="31" x2="1652" y2="31" style="stroke:rgb(50,50,50); stroke-width:3 "/>
	<g>
		<title>fenE</title>
		<polygon class="fenE" points="457,16 361,16 361,1 331,31 361,61 361,46 457,46" fill="rgb(244,252,180)" fill-opacity="1.0" stroke="rgb(97,100,72)" stroke-width="1" />
		<g>
			<title>PF00975</title>
			<polygon class="PF00975" points="338,26 346,18 351,18 351,44 346,44 338,35" stroke-linejoin="round" width="13" height="26" fill="rgb(207,80,138)" stroke="rgb(165,63,110)" stroke-width="1" opacity="0.75" />
		</g>
		<g>
			<title>PF00550</title>
			<rect class="PF00550" x="354" y="18" stroke-linejoin="round" width="6" height="26" fill="rgb(103,191,88)" stroke="rgb(82,152,70)" stroke-width="1" opacity="0.75" />
		</g>
		<g>
			<title>PF13193</title>
			<rect class="PF13193" x="363" y="18" stroke-linejoin="round" width="7" height="26" fill="rgb(182,50,118)" stroke="rgb(145,39,94)" stroke-width="1" opacity="0.75" />
		</g>
		<g>
			<title>PF00501</title>
			<rect class="PF00501" x="371" y="18" stroke-linejoin="round" width="39" height="26" fill="rgb(60,217,223)" stroke="rgb(48,173,178)" stroke-width="1" opacity="0.75" />
		</g>
		<g>
			<title>PF00668</title>
			<rect class="PF00668" x="412" y="18" stroke-linejoin="round" width="44" height="26" fill="rgb(224,184,98)" stroke="rgb(179,147,78)" stroke-width="1" opacity="0.75" />
		</g>
	</g>
	<g>
		<title>fenD</title>
		<polygon class="fenD" points="817,16 488,16 488,1 458,31 488,61 488,46 817,46" fill="rgb(252,204,215)" fill-opacity="1.0" stroke="rgb(100,81,85)" stroke-width="1" />
		<g>
			<title>PF00668</title>
			<polygon class="PF00668" points="460,31 473,18 505,18 505,44 473,44" stroke-linejoin="round" width="46" height="26" fill="rgb(224,184,98)" stroke="rgb(179,147,78)" stroke-width="1" opacity="0.75" />
		</g>
		<g>
			<title>PF00550</title>
			<rect class="PF00550" x="507" y="18" stroke-linejoin="round" width="6" height="26" fill="rgb(103,191,88)" stroke="rgb(82,152,70)" stroke-width="1" opacity="0.75" />
		</g>
		<g>
			<title>PF13193</title>
			<rect class="PF13193" x="516" y="18" stroke-linejoin="round" width="7" height="26" fill="rgb(182,50,118)" stroke="rgb(145,39,94)" stroke-width="1" opacity="0.75" />
		</g>
		<g>
			<title>PF00501</title>
			<rect class="PF00501" x="524" y="18" stroke-linejoin="round" width="39" height="26" fill="rgb(60,217,223)" stroke="rgb(48,173,178)" stroke-width="1" opacity="0.75" />
		</g>
		<g>
			<title>PF00668</title>
			<rect class="PF00668" x="566" y="18" stroke-linejoin="round" width="42" height="26" fill="rgb(224,184,98)" stroke="rgb(179,147,78)" stroke-width="1" opacity="0.75" />
		</g>
		<g>
			<title>PF00550</title>
			<rect class="PF00550" x="610" y="18" stroke-linejoin="round" width="6" height="26" fill="rgb(103,191,88)" stroke="rgb(82,152,70)" stroke-width="1" opacity="0.75" />
		</g>
		<g>
			<title>PF13193</title>
			<rect class="PF13193" x="619" y="18" stroke-linejoin="round" width="6" height="26" fill="rgb(182,50,118)" stroke="rgb(145,39,94)" stroke-width="1" opacity="0.75" />
		</g>
		<g>
			<title>PF00501</title>
			<rect class="PF00501" x="627" y="18" stroke-linejoin="round" width="40" height="26" fill="rgb(60,217,223)" stroke="rgb(48,173,178)" stroke-width="1" opacity="0.75" />
		</g>
		<g>
			<title>PF00668</title>
			<rect class="PF00668" x="669" y="18" stroke-linejoin="round" width="42" height="26" fill="rgb(224,184,98)" stroke="rgb(179,147,78)" stroke-width="1" opacity="0.75" />
		</g>
		<g>
			<title>PF00550</title>
			<rect class="PF00550" x="713" y="18" stroke-linejoin="round" width="6" height="26" fill="rgb(103,191,88)" stroke="rgb(82,152,70)" stroke-width="1" opacity="0.75" />
		</g>
		<g>
			<title>PF13193</title>
			<rect class="PF13193" x="722" y="18" stroke-linejoin="round" width="7" height="26" fill="rgb(182,50,118)" stroke="rgb(145,39,94)" stroke-width="1" opacity="0.75" />
		</g>
		<g>
			<title>PF00501</title>
			<rect class="PF00501" x="730" y="18" stroke-linejoin="round" width="39" height="26" fill="rgb(60,217,223)" stroke="rgb(48,173,178)" stroke-width="1" opacity="0.75" />
		</g>
		<g>
			<title>PF00668</title>
			<rect class="PF00668" x="772" y="18" stroke-linejoin="round" width="44" height="26" fill="rgb(224,184,98)" stroke="rgb(179,147,78)" stroke-width="1" opacity="0.75" />
		</g>
	</g>
	<g>
		<title>fenC</title>
		<polygon class="fenC" points="1073,16 848,16 848,1 818,31 848,61 848,46 1073,46" fill="rgb(251,207,187)" fill-opacity="1.0" stroke="rgb(100,82,74)" stroke-width="1" />
		<g>
			<title>PF00668</title>
			<polygon class="PF00668" points="820,31 833,18 864,18 864,44 833,44" stroke-linejoin="round" width="45" height="26" fill="rgb(224,184,98)" stroke="rgb(179,147,78)" stroke-width="1" opacity="0.75" />
		</g>
		<g>
			<title>PF00550</title>
			<rect class="PF00550" x="866" y="18" stroke-linejoin="round" width="6" height="26" fill="rgb(103,191,88)" stroke="rgb(82,152,70)" stroke-width="1" opacity="0.75" />
		</g>
		<g>
			<title>PF13193</title>
			<rect class="PF13193" x="875" y="18" stroke-linejoin="round" width="7" height="26" fill="rgb(182,50,118)" stroke="rgb(145,39,94)" stroke-width="1" opacity="0.75" />
		</g>
		<g>
			<title>PF00501</title>
			<rect class="PF00501" x="883" y="18" stroke-linejoin="round" width="39" height="26" fill="rgb(60,217,223)" stroke="rgb(48,173,178)" stroke-width="1" opacity="0.75" />
		</g>
		<g>
			<title>PF00668</title>
			<rect class="PF00668" x="924" y="18" stroke-linejoin="round" width="42" height="26" fill="rgb(224,184,98)" stroke="rgb(179,147,78)" stroke-width="1" opacity="0.75" />
		</g>
		<g>
			<title>PF00550</title>
			<rect class="PF00550" x="968" y="18" stroke-linejoin="round" width="6" height="26" fill="rgb(103,191,88)" stroke="rgb(82,152,70)" stroke-width="1" opacity="0.75" />
		</g>
		<g>
			<title>PF13193</title>
			<rect class="PF13193" x="978" y="18" stroke-linejoin="round" width="6" height="26" fill="rgb(182,50,118)" stroke="rgb(145,39,94)" stroke-width="1" opacity="0.75" />
		</g>
		<g>
			<title>PF00501</title>
			<rect class="PF00501" x="985" y="18" stroke-linejoin="round" width="40" height="26" fill="rgb(60,217,223)" stroke="rgb(48,173,178)" stroke-width="1" opacity="0.75" />
		</g>
		<g>
			<title>PF00668</title>
			<rect class="PF00668" x="1028" y="18" stroke-linejoin="round" width="44" height="26" fill="rgb(224,184,98)" stroke="rgb(179,147,78)" stroke-width="1" opacity="0.75" />
		</g>
	</g>
	<g>
		<title>fenB</title>
		<polygon class="fenB" points="1330,16 1104,16 1104,1 1074,31 1104,61 1104,46 1330,46" fill="rgb(208,217,254)" fill-opacity="1.0" stroke="rgb(83,86,101)" stroke-width="1" />
		<g>
			<title>PF00668</title>
			<polygon class="PF00668" points="1076,31 1089,18 1121,18 1121,44 1089,44" stroke-linejoin="round" width="46" height="26" fill="rgb(224,184,98)" stroke="rgb(179,147,78)" stroke-width="1" opacity="0.75" />
		</g>
		<g>
			<title>PF00550</title>
			<rect class="PF00550" x="1122" y="18" stroke-linejoin="round" width="6" height="26" fill="rgb(103,191,88)" stroke="rgb(82,152,70)" stroke-width="1" opacity="0.75" />
		</g>
		<g>
			<title>PF13193</title>
			<rect class="PF13193" x="1131" y="18" stroke-linejoin="round" width="7" height="26" fill="rgb(182,50,118)" stroke="rgb(145,39,94)" stroke-width="1" opacity="0.75" />
		</g>
		<g>
			<title>PF00501</title>
			<rect class="PF00501" x="1140" y="18" stroke-linejoin="round" width="39" height="26" fill="rgb(60,217,223)" stroke="rgb(48,173,178)" stroke-width="1" opacity="0.75" />
		</g>
		<g>
			<title>PF00668</title>
			<rect class="PF00668" x="1181" y="18" stroke-linejoin="round" width="43" height="26" fill="rgb(224,184,98)" stroke="rgb(179,147,78)" stroke-width="1" opacity="0.75" />
		</g>
		<g>
			<title>PF00550</title>
			<rect class="PF00550" x="1226" y="18" stroke-linejoin="round" width="6" height="26" fill="rgb(103,191,88)" stroke="rgb(82,152,70)" stroke-width="1" opacity="0.75" />
		</g>
		<g>
			<title>PF13193</title>
			<rect class="PF13193" x="1235" y="18" stroke-linejoin="round" width="7" height="26" fill="rgb(182,50,118)" stroke="rgb(145,39,94)" stroke-width="1" opacity="0.75" />
		</g>
		<g>
			<title>PF00501</title>
			<rect class="PF00501" x="1243" y="18" stroke-linejoin="round" width="39" height="26" fill="rgb(60,217,223)" stroke="rgb(48,173,178)" stroke-width="1" opacity="0.75" />
		</g>
		<g>
			<title>PF00668</title>
			<rect class="PF00668" x="1284" y="18" stroke-linejoin="round" width="45" height="26" fill="rgb(224,184,98)" stroke="rgb(179,147,78)" stroke-width="1" opacity="0.75" />
		</g>
	</g>
	<g>
		<title>fenA</title>
		<polygon class="fenA" points="1586,16 1361,16 1361,1 1331,31 1361,61 1361,46 1586,46" fill="rgb(254,225,198)" fill-opacity="1.0" stroke="rgb(101,90,79)" stroke-width="1" />
		<g>
			<title>PF00668</title>
			<polygon class="PF00668" points="1333,31 1346,18 1377,18 1377,44 1346,44" stroke-linejoin="round" width="45" height="26" fill="rgb(224,184,98)" stroke="rgb(179,147,78)" stroke-width="1" opacity="0.75" />
		</g>
		<g>
			<title>PF00550</title>
			<rect class="PF00550" x="1378" y="18" stroke-linejoin="round" width="6" height="26" fill="rgb(103,191,88)" stroke="rgb(82,152,70)" stroke-width="1" opacity="0.75" />
		</g>
		<g>
			<title>PF13193</title>
			<rect class="PF13193" x="1387" y="18" stroke-linejoin="round" width="7" height="26" fill="rgb(182,50,118)" stroke="rgb(145,39,94)" stroke-width="1" opacity="0.75" />
		</g>
		<g>
			<title>PF00501</title>
			<rect class="PF00501" x="1395" y="18" stroke-linejoin="round" width="40" height="26" fill="rgb(60,217,223)" stroke="rgb(48,173,178)" stroke-width="1" opacity="0.75" />
		</g>
		<g>
			<title>PF00668</title>
			<rect class="PF00668" x="1438" y="18" stroke-linejoin="round" width="42" height="26" fill="rgb(224,184,98)" stroke="rgb(179,147,78)" stroke-width="1" opacity="0.75" />
		</g>
		<g>
			<title>PF00550</title>
			<rect class="PF00550" x="1482" y="18" stroke-linejoin="round" width="6" height="26" fill="rgb(103,191,88)" stroke="rgb(82,152,70)" stroke-width="1" opacity="0.75" />
		</g>
		<g>
			<title>PF13193</title>
			<rect class="PF13193" x="1491" y="18" stroke-linejoin="round" width="6" height="26" fill="rgb(182,50,118)" stroke="rgb(145,39,94)" stroke-width="1" opacity="0.75" />
		</g>
		<g>
			<title>PF00501</title>
			<rect class="PF00501" x="1499" y="18" stroke-linejoin="round" width="40" height="26" fill="rgb(60,217,223)" stroke="rgb(48,173,178)" stroke-width="1" opacity="0.75" />
		</g>
		<g>
			<title>PF00668</title>
			<rect class="PF00668" x="1541" y="18" stroke-linejoin="round" width="44" height="26" fill="rgb(224,184,98)" stroke="rgb(179,147,78)" stroke-width="1" opacity="0.75" />
		</g>
	</g>
	<g>
		<title>dacC</title>
		<polygon class="dacC" points="1652,16 1633,16 1633,1 1603,31 1633,61 1633,46 1652,46" fill="rgb(250,202,247)" fill-opacity="1.0" stroke="rgb(100,80,98)" stroke-width="1" />
		<g>
			<title>PF02113</title>
			<polygon class="PF02113" points="1605,31 1618,18 1648,18 1648,44 1618,44" stroke-linejoin="round" width="45" height="26" fill="rgb(222,106,76)" stroke="rgb(177,84,60)" stroke-width="1" opacity="0.75" />
		</g>
	</g>
	<g>
		<title>yngE</title>
		<polygon class="yngE" points="52,16 31,16 31,1 1,31 31,61 31,46 52,46" fill="rgb(239,253,205)" fill-opacity="1.0" stroke="rgb(95,101,82)" stroke-width="1" />
		<g>
			<title>PF01039</title>
			<polygon class="PF01039" points="3,31 16,18 49,18 49,44 16,44" stroke-linejoin="round" width="48" height="26" fill="rgb(180,136,60)" stroke="rgb(144,108,48)" stroke-width="1" opacity="0.75" />
		</g>
	</g>
	<g>
		<title>yngF</title>
		<polygon class="yngF" points="78,16 78,16 78,1 52,31 78,61 78,46 78,46" fill="rgb(215,204,250)" fill-opacity="1.0" stroke="rgb(85,81,100)" stroke-width="1" />
		<g>
			<title>PF00378</title>
			<polygon class="PF00378" points="54,31 65,18 76,18 76,44 65,44" stroke-linejoin="round" width="24" height="26" fill="rgb(218,72,181)" stroke="rgb(174,57,144)" stroke-width="1" opacity="0.75" />
		</g>
	</g>
	<g>
		<title>yngG</title>
		<polygon class="yngG" points="109,16 109,16 109,1 79,31 109,61 109,46 109,46" fill="rgb(254,236,195)" fill-opacity="1.0" stroke="rgb(101,94,77)" stroke-width="1" />
		<g>
			<title>PF00682</title>
			<polygon class="PF00682" points="81,31 94,18 108,18 108,44 94,44" stroke-linejoin="round" width="27" height="26" fill="rgb(84,228,141)" stroke="rgb(67,182,112)" stroke-width="1" opacity="0.75" />
		</g>
	</g>
	<g>
		<polygon class="NoName" points="116,16 116,16 116,1 109,31 116,61 116,46 116,46" fill="rgb(255,255,255)" fill-opacity="1.0" stroke="rgb(50,50,50)" stroke-width="1" />
		<g>
			<title>PF00364</title>
			<polygon class="PF00364" points="111,31 114,18 115,18 115,44 114,44" stroke-linejoin="round" width="6" height="26" fill="rgb(67,214,213)" stroke="rgb(53,171,170)" stroke-width="1" opacity="0.75" />
		</g>
	</g>
	<g>
		<title>yngH</title>
		<polygon class="yngH" points="161,16 146,16 146,1 116,31 146,61 146,46 161,46" fill="rgb(251,215,203)" fill-opacity="1.0" stroke="rgb(100,86,81)" stroke-width="1" />
		<g>
			<title>PF02785</title>
			<polygon class="PF02785" points="118,31 126,23 126,38" stroke-linejoin="round" width="10" height="26" fill="rgb(82,186,211)" stroke="rgb(65,148,168)" stroke-width="1" opacity="0.75" />
		</g>
		<g>
			<title>PF02786</title>
			<polygon class="PF02786" points="128,21 131,18 148,18 148,44 131,44 128,40" stroke-linejoin="round" width="20" height="26" fill="rgb(190,97,205)" stroke="rgb(151,77,164)" stroke-width="1" opacity="0.75" />
		</g>
		<g>
			<title>PF00289</title>
			<rect class="PF00289" x="150" y="18" stroke-linejoin="round" width="10" height="26" fill="rgb(59,114,187)" stroke="rgb(47,91,149)" stroke-width="1" opacity="0.75" />
		</g>
	</g>
	<g>
		<title>yngI</title>
		<polygon class="yngI" points="216,16 192,16 192,1 162,31 192,61 192,46 216,46" fill="rgb(250,212,215)" fill-opacity="1.0" stroke="rgb(100,84,85)" stroke-width="1" />
		<g>
			<title>PF13193</title>
			<polygon class="PF13193" points="164,31 170,25 170,36" stroke-linejoin="round" width="7" height="26" fill="rgb(182,50,118)" stroke="rgb(145,39,94)" stroke-width="1" opacity="0.75" />
		</g>
		<g>
			<title>PF00501</title>
			<polygon class="PF00501" points="172,23 177,18 215,18 215,44 177,44 172,38" stroke-linejoin="round" width="43" height="26" fill="rgb(60,217,223)" stroke="rgb(48,173,178)" stroke-width="1" opacity="0.75" />
		</g>
	</g>
	<g>
		<title>yngJ</title>
		<polygon class="yngJ" points="256,16 248,16 248,1 218,31 248,61 248,46 256,46" fill="rgb(185,253,241)" fill-opacity="1.0" stroke="rgb(74,101,96)" stroke-width="1" />
		<g>
			<title>PF00441</title>
			<polygon class="PF00441" points="220,31 232,19 232,42" stroke-linejoin="round" width="14" height="26" fill="rgb(85,191,117)" stroke="rgb(68,152,93)" stroke-width="1" opacity="0.75" />
		</g>
		<g>
			<title>PF02770</title>
			<rect class="PF02770" x="234" y="18" stroke-linejoin="round" width="9" height="26" fill="rgb(225,186,97)" stroke="rgb(180,148,77)" stroke-width="1" opacity="0.75" />
		</g>
		<g>
			<title>PF02771</title>
			<rect class="PF02771" x="244" y="18" stroke-linejoin="round" width="11" height="26" fill="rgb(105,135,218)" stroke="rgb(84,108,174)" stroke-width="1" opacity="0.75" />
		</g>
	</g>
	<g>
		<title>yngK</title>
		<polygon class="yngK" points="312,16 291,16 291,1 261,31 291,61 291,46 312,46" fill="rgb(204,254,230)" fill-opacity="1.0" stroke="rgb(81,101,92)" stroke-width="1" />
		<g>
			<title>PF02638</title>
			<polygon class="PF02638" points="276,18 276,18 308,18 308,44 276,44 276,43" stroke-linejoin="round" width="32" height="26" fill="rgb(213,157,96)" stroke="rgb(170,125,76)" stroke-width="1" opacity="0.75" />
		</g>
	</g>
	<g>
		<title>yngL</title>
		<polygon class="yngL" points="330,16 330,16 330,1 316,31 330,61 330,46 330,46" fill="rgb(252,191,244)" fill-opacity="1.0" stroke="rgb(100,76,97)" stroke-width="1" />
		<g>
			<title>PF07098</title>
			<polygon class="PF07098" points="318,31 324,18 326,18 326,44 324,44" stroke-linejoin="round" width="9" height="26" fill="rgb(62,62,180)" stroke="rgb(49,49,144)" stroke-width="1" opacity="0.75" />
		</g>
	</g>
</svg>
