<svg version="1.1" baseProfile="full" xmlns="http://www.w3.org/2000/svg" width="3358" height="62">
	<line x1="1" y1="31" x2="3357" y2="31" style="stroke:rgb(50,50,50); stroke-width:3 "/>
	<g>
		<title>ambA</title>
		<polygon class="ambA" points="487,16 563,16 563,1 593,31 563,61 563,46 487,46" fill="rgb(252,194,232)" fill-opacity="1.0" stroke="rgb(100,77,92)" stroke-width="1" />
		<g>
			<title>PF00109</title>
			<rect class="PF00109" x="489" y="18" stroke-linejoin="round" width="24" height="26" fill="rgb(112,116,228)" stroke="rgb(89,92,182)" stroke-width="1" opacity="0.75" />
		</g>
		<g>
			<title>PF02801</title>
			<rect class="PF02801" x="515" y="18" stroke-linejoin="round" width="11" height="26" fill="rgb(215,78,102)" stroke="rgb(172,62,81)" stroke-width="1" opacity="0.75" />
		</g>
		<g>
			<title>PF16197</title>
			<rect class="PF16197" x="527" y="18" stroke-linejoin="round" width="12" height="26" fill="rgb(68,179,89)" stroke="rgb(54,143,71)" stroke-width="1" opacity="0.75" />
		</g>
		<g>
			<title>PF00698</title>
			<rect class="PF00698" x="543" y="18" stroke-linejoin="round" width="31" height="26" fill="rgb(59,176,209)" stroke="rgb(47,140,167)" stroke-width="1" opacity="0.75" />
		</g>
		<g>
			<title>PF00550</title>
			<polygon class="PF00550" points="581,22 587,28 587,34 581,40" stroke-linejoin="round" width="6" height="26" fill="rgb(103,191,88)" stroke="rgb(82,152,70)" stroke-width="1" opacity="0.75" />
		</g>
	</g>
	<g>
		<title>ambB</title>
		<polygon class="ambB" points="595,16 934,16 934,1 964,31 934,61 934,46 595,46" fill="rgb(252,180,196)" fill-opacity="1.0" stroke="rgb(100,72,78)" stroke-width="1" />
		<g>
			<title>PF00109</title>
			<rect class="PF00109" x="598" y="18" stroke-linejoin="round" width="25" height="26" fill="rgb(112,116,228)" stroke="rgb(89,92,182)" stroke-width="1" opacity="0.75" />
		</g>
		<g>
			<title>PF02801</title>
			<rect class="PF02801" x="624" y="18" stroke-linejoin="round" width="11" height="26" fill="rgb(215,78,102)" stroke="rgb(172,62,81)" stroke-width="1" opacity="0.75" />
		</g>
		<g>
			<title>PF16197</title>
			<rect class="PF16197" x="636" y="18" stroke-linejoin="round" width="12" height="26" fill="rgb(68,179,89)" stroke="rgb(54,143,71)" stroke-width="1" opacity="0.75" />
		</g>
		<g>
			<title>PF00698</title>
			<rect class="PF00698" x="651" y="18" stroke-linejoin="round" width="31" height="26" fill="rgb(59,176,209)" stroke="rgb(47,140,167)" stroke-width="1" opacity="0.75" />
		</g>
		<g>
			<title>PF08659</title>
			<rect class="PF08659" x="708" y="18" stroke-linejoin="round" width="18" height="26" fill="rgb(66,209,188)" stroke="rgb(52,167,150)" stroke-width="1" opacity="0.75" />
		</g>
		<g>
			<title>PF00550</title>
			<rect class="PF00550" x="737" y="18" stroke-linejoin="round" width="6" height="26" fill="rgb(103,191,88)" stroke="rgb(82,152,70)" stroke-width="1" opacity="0.75" />
		</g>
		<g>
			<title>PF00109</title>
			<rect class="PF00109" x="746" y="18" stroke-linejoin="round" width="25" height="26" fill="rgb(112,116,228)" stroke="rgb(89,92,182)" stroke-width="1" opacity="0.75" />
		</g>
		<g>
			<title>PF02801</title>
			<rect class="PF02801" x="772" y="18" stroke-linejoin="round" width="11" height="26" fill="rgb(215,78,102)" stroke="rgb(172,62,81)" stroke-width="1" opacity="0.75" />
		</g>
		<g>
			<title>PF16197</title>
			<rect class="PF16197" x="784" y="18" stroke-linejoin="round" width="11" height="26" fill="rgb(68,179,89)" stroke="rgb(54,143,71)" stroke-width="1" opacity="0.75" />
		</g>
		<g>
			<title>PF00698</title>
			<rect class="PF00698" x="800" y="18" stroke-linejoin="round" width="32" height="26" fill="rgb(59,176,209)" stroke="rgb(47,140,167)" stroke-width="1" opacity="0.75" />
		</g>
		<g>
			<title>PF14765</title>
			<rect class="PF14765" x="837" y="18" stroke-linejoin="round" width="28" height="26" fill="rgb(173,56,182)" stroke="rgb(138,44,145)" stroke-width="1" opacity="0.75" />
		</g>
		<g>
			<title>PF13602</title>
			<rect class="PF13602" x="904" y="18" stroke-linejoin="round" width="13" height="26" fill="rgb(101,131,226)" stroke="rgb(80,104,180)" stroke-width="1" opacity="0.75" />
		</g>
		<g>
			<title>PF08659</title>
			<rect class="PF08659" x="919" y="18" stroke-linejoin="round" width="18" height="26" fill="rgb(66,209,188)" stroke="rgb(52,167,150)" stroke-width="1" opacity="0.75" />
		</g>
		<g>
			<title>PF00550</title>
			<polygon class="PF00550" points="948,18 948,18 954,24 954,38 948,44 948,44" stroke-linejoin="round" width="6" height="26" fill="rgb(103,191,88)" stroke="rgb(82,152,70)" stroke-width="1" opacity="0.75" />
		</g>
	</g>
	<g>
		<title>ambC</title>
		<polygon class="ambC" points="964,16 1299,16 1299,1 1329,31 1299,61 1299,46 964,46" fill="rgb(184,245,254)" fill-opacity="1.0" stroke="rgb(73,98,101)" stroke-width="1" />
		<g>
			<title>PF00109</title>
			<rect class="PF00109" x="967" y="18" stroke-linejoin="round" width="25" height="26" fill="rgb(112,116,228)" stroke="rgb(89,92,182)" stroke-width="1" opacity="0.75" />
		</g>
		<g>
			<title>PF02801</title>
			<rect class="PF02801" x="993" y="18" stroke-linejoin="round" width="11" height="26" fill="rgb(215,78,102)" stroke="rgb(172,62,81)" stroke-width="1" opacity="0.75" />
		</g>
		<g>
			<title>PF16197</title>
			<rect class="PF16197" x="1005" y="18" stroke-linejoin="round" width="12" height="26" fill="rgb(68,179,89)" stroke="rgb(54,143,71)" stroke-width="1" opacity="0.75" />
		</g>
		<g>
			<title>PF00698</title>
			<rect class="PF00698" x="1021" y="18" stroke-linejoin="round" width="31" height="26" fill="rgb(59,176,209)" stroke="rgb(47,140,167)" stroke-width="1" opacity="0.75" />
		</g>
		<g>
			<title>PF14765</title>
			<rect class="PF14765" x="1057" y="18" stroke-linejoin="round" width="28" height="26" fill="rgb(173,56,182)" stroke="rgb(138,44,145)" stroke-width="1" opacity="0.75" />
		</g>
		<g>
			<title>PF08659</title>
			<rect class="PF08659" x="1106" y="18" stroke-linejoin="round" width="18" height="26" fill="rgb(66,209,188)" stroke="rgb(52,167,150)" stroke-width="1" opacity="0.75" />
		</g>
		<g>
			<title>PF00550</title>
			<rect class="PF00550" x="1135" y="18" stroke-linejoin="round" width="6" height="26" fill="rgb(103,191,88)" stroke="rgb(82,152,70)" stroke-width="1" opacity="0.75" />
		</g>
		<g>
			<title>PF00109</title>
			<rect class="PF00109" x="1145" y="18" stroke-linejoin="round" width="25" height="26" fill="rgb(112,116,228)" stroke="rgb(89,92,182)" stroke-width="1" opacity="0.75" />
		</g>
		<g>
			<title>PF02801</title>
			<rect class="PF02801" x="1171" y="18" stroke-linejoin="round" width="11" height="26" fill="rgb(215,78,102)" stroke="rgb(172,62,81)" stroke-width="1" opacity="0.75" />
		</g>
		<g>
			<title>PF16197</title>
			<rect class="PF16197" x="1183" y="18" stroke-linejoin="round" width="11" height="26" fill="rgb(68,179,89)" stroke="rgb(54,143,71)" stroke-width="1" opacity="0.75" />
		</g>
		<g>
			<title>PF00698</title>
			<rect class="PF00698" x="1199" y="18" stroke-linejoin="round" width="32" height="26" fill="rgb(59,176,209)" stroke="rgb(47,140,167)" stroke-width="1" opacity="0.75" />
		</g>
		<g>
			<title>PF14765</title>
			<rect class="PF14765" x="1236" y="18" stroke-linejoin="round" width="28" height="26" fill="rgb(173,56,182)" stroke="rgb(138,44,145)" stroke-width="1" opacity="0.75" />
		</g>
		<g>
			<title>PF08659</title>
			<rect class="PF08659" x="1285" y="18" stroke-linejoin="round" width="18" height="26" fill="rgb(66,209,188)" stroke="rgb(52,167,150)" stroke-width="1" opacity="0.75" />
		</g>
		<g>
			<title>PF00550</title>
			<polygon class="PF00550" points="1314,19 1320,25 1320,37 1314,43" stroke-linejoin="round" width="6" height="26" fill="rgb(103,191,88)" stroke="rgb(82,152,70)" stroke-width="1" opacity="0.75" />
		</g>
	</g>
	<g>
		<title>ambD</title>
		<polygon class="ambD" points="1329,16 1488,16 1488,1 1518,31 1488,61 1488,46 1329,46" fill="rgb(209,221,250)" fill-opacity="1.0" stroke="rgb(83,88,100)" stroke-width="1" />
		<g>
			<title>PF00109</title>
			<rect class="PF00109" x="1332" y="18" stroke-linejoin="round" width="25" height="26" fill="rgb(112,116,228)" stroke="rgb(89,92,182)" stroke-width="1" opacity="0.75" />
		</g>
		<g>
			<title>PF02801</title>
			<rect class="PF02801" x="1358" y="18" stroke-linejoin="round" width="11" height="26" fill="rgb(215,78,102)" stroke="rgb(172,62,81)" stroke-width="1" opacity="0.75" />
		</g>
		<g>
			<title>PF16197</title>
			<rect class="PF16197" x="1370" y="18" stroke-linejoin="round" width="12" height="26" fill="rgb(68,179,89)" stroke="rgb(54,143,71)" stroke-width="1" opacity="0.75" />
		</g>
		<g>
			<title>PF00698</title>
			<rect class="PF00698" x="1387" y="18" stroke-linejoin="round" width="32" height="26" fill="rgb(59,176,209)" stroke="rgb(47,140,167)" stroke-width="1" opacity="0.75" />
		</g>
		<g>
			<title>PF14765</title>
			<rect class="PF14765" x="1424" y="18" stroke-linejoin="round" width="28" height="26" fill="rgb(173,56,182)" stroke="rgb(138,44,145)" stroke-width="1" opacity="0.75" />
		</g>
		<g>
			<title>PF08659</title>
			<rect class="PF08659" x="1473" y="18" stroke-linejoin="round" width="18" height="26" fill="rgb(66,209,188)" stroke="rgb(52,167,150)" stroke-width="1" opacity="0.75" />
		</g>
		<g>
			<title>PF00550</title>
			<polygon class="PF00550" points="1502,18 1502,18 1508,24 1508,38 1502,44 1502,44" stroke-linejoin="round" width="6" height="26" fill="rgb(103,191,88)" stroke="rgb(82,152,70)" stroke-width="1" opacity="0.75" />
		</g>
	</g>
	<g>
		<title>ambE</title>
		<polygon class="ambE" points="1518,16 1838,16 1838,1 1868,31 1838,61 1838,46 1518,46" fill="rgb(251,223,191)" fill-opacity="1.0" stroke="rgb(100,89,76)" stroke-width="1" />
		<g>
			<title>PF00109</title>
			<rect class="PF00109" x="1521" y="18" stroke-linejoin="round" width="25" height="26" fill="rgb(112,116,228)" stroke="rgb(89,92,182)" stroke-width="1" opacity="0.75" />
		</g>
		<g>
			<title>PF02801</title>
			<rect class="PF02801" x="1547" y="18" stroke-linejoin="round" width="11" height="26" fill="rgb(215,78,102)" stroke="rgb(172,62,81)" stroke-width="1" opacity="0.75" />
		</g>
		<g>
			<title>PF16197</title>
			<rect class="PF16197" x="1559" y="18" stroke-linejoin="round" width="11" height="26" fill="rgb(68,179,89)" stroke="rgb(54,143,71)" stroke-width="1" opacity="0.75" />
		</g>
		<g>
			<title>PF00698</title>
			<rect class="PF00698" x="1574" y="18" stroke-linejoin="round" width="31" height="26" fill="rgb(59,176,209)" stroke="rgb(47,140,167)" stroke-width="1" opacity="0.75" />
		</g>
		<g>
			<title>PF14765</title>
			<rect class="PF14765" x="1611" y="18" stroke-linejoin="round" width="28" height="26" fill="rgb(173,56,182)" stroke="rgb(138,44,145)" stroke-width="1" opacity="0.75" />
		</g>
		<g>
			<title>PF08659</title>
			<rect class="PF08659" x="1660" y="18" stroke-linejoin="round" width="18" height="26" fill="rgb(66,209,188)" stroke="rgb(52,167,150)" stroke-width="1" opacity="0.75" />
		</g>
		<g>
			<title>PF00550</title>
			<rect class="PF00550" x="1689" y="18" stroke-linejoin="round" width="6" height="26" fill="rgb(103,191,88)" stroke="rgb(82,152,70)" stroke-width="1" opacity="0.75" />
		</g>
		<g>
			<title>PF00109</title>
			<rect class="PF00109" x="1698" y="18" stroke-linejoin="round" width="24" height="26" fill="rgb(112,116,228)" stroke="rgb(89,92,182)" stroke-width="1" opacity="0.75" />
		</g>
		<g>
			<title>PF02801</title>
			<rect class="PF02801" x="1724" y="18" stroke-linejoin="round" width="11" height="26" fill="rgb(215,78,102)" stroke="rgb(172,62,81)" stroke-width="1" opacity="0.75" />
		</g>
		<g>
			<title>PF16197</title>
			<rect class="PF16197" x="1736" y="18" stroke-linejoin="round" width="11" height="26" fill="rgb(68,179,89)" stroke="rgb(54,143,71)" stroke-width="1" opacity="0.75" />
		</g>
		<g>
			<title>PF00698</title>
			<rect class="PF00698" x="1752" y="18" stroke-linejoin="round" width="32" height="26" fill="rgb(59,176,209)" stroke="rgb(47,140,167)" stroke-width="1" opacity="0.75" />
		</g>
		<g>
			<title>PF14765</title>
			<rect class="PF14765" x="1787" y="18" stroke-linejoin="round" width="27" height="26" fill="rgb(173,56,182)" stroke="rgb(138,44,145)" stroke-width="1" opacity="0.75" />
		</g>
		<g>
			<title>PF08659</title>
			<polygon class="PF08659" points="1843,18 1852,18 1861,27 1861,35 1852,44 1843,44" stroke-linejoin="round" width="18" height="26" fill="rgb(66,209,188)" stroke="rgb(52,167,150)" stroke-width="1" opacity="0.75" />
		</g>
	</g>
	<g>
		<title>ambF</title>
		<polygon class="ambF" points="1869,16 2058,16 2058,1 2088,31 2058,61 2058,46 1869,46" fill="rgb(247,254,207)" fill-opacity="1.0" stroke="rgb(98,101,82)" stroke-width="1" />
		<g>
			<title>PF00550</title>
			<rect class="PF00550" x="1870" y="18" stroke-linejoin="round" width="6" height="26" fill="rgb(103,191,88)" stroke="rgb(82,152,70)" stroke-width="1" opacity="0.75" />
		</g>
		<g>
			<title>PF00109</title>
			<rect class="PF00109" x="1889" y="18" stroke-linejoin="round" width="24" height="26" fill="rgb(112,116,228)" stroke="rgb(89,92,182)" stroke-width="1" opacity="0.75" />
		</g>
		<g>
			<title>PF02801</title>
			<rect class="PF02801" x="1914" y="18" stroke-linejoin="round" width="11" height="26" fill="rgb(215,78,102)" stroke="rgb(172,62,81)" stroke-width="1" opacity="0.75" />
		</g>
		<g>
			<title>PF16197</title>
			<rect class="PF16197" x="1926" y="18" stroke-linejoin="round" width="10" height="26" fill="rgb(68,179,89)" stroke="rgb(54,143,71)" stroke-width="1" opacity="0.75" />
		</g>
		<g>
			<title>PF00550</title>
			<rect class="PF00550" x="1962" y="18" stroke-linejoin="round" width="6" height="26" fill="rgb(103,191,88)" stroke="rgb(82,152,70)" stroke-width="1" opacity="0.75" />
		</g>
		<g>
			<title>PF00550</title>
			<rect class="PF00550" x="1980" y="18" stroke-linejoin="round" width="6" height="26" fill="rgb(103,191,88)" stroke="rgb(82,152,70)" stroke-width="1" opacity="0.75" />
		</g>
		<g>
			<title>PF00561</title>
			<rect class="PF00561" x="1994" y="18" stroke-linejoin="round" width="11" height="26" fill="rgb(86,180,151)" stroke="rgb(68,144,120)" stroke-width="1" opacity="0.75" />
		</g>
		<g>
			<title>PF00202</title>
			<polygon class="PF00202" points="2059,18 2072,18 2084,30 2084,32 2072,44 2059,44" stroke-linejoin="round" width="25" height="26" fill="rgb(49,163,189)" stroke="rgb(39,130,151)" stroke-width="1" opacity="0.75" />
		</g>
	</g>
	<g>
		<title>ambI</title>
		<polygon class="ambI" points="2089,16 2103,16 2103,1 2133,31 2103,61 2103,46 2089,46" fill="rgb(254,220,202)" fill-opacity="1.0" stroke="rgb(101,88,80)" stroke-width="1" />
		<g>
			<title>PF00743</title>
			<polygon class="PF00743" points="2089,18 2117,18 2125,26 2125,36 2117,44 2089,44" stroke-linejoin="round" width="36" height="26" fill="rgb(203,74,151)" stroke="rgb(162,59,120)" stroke-width="1" opacity="0.75" />
		</g>
	</g>
	<g>
		<title>ambG</title>
		<polygon class="ambG" points="2139,16 2183,16 2183,1 2213,31 2183,61 2183,46 2139,46" fill="rgb(230,190,250)" fill-opacity="1.0" stroke="rgb(92,76,100)" stroke-width="1" />
		<g>
			<title>PF00501</title>
			<rect class="PF00501" x="2141" y="18" stroke-linejoin="round" width="45" height="26" fill="rgb(60,217,223)" stroke="rgb(48,173,178)" stroke-width="1" opacity="0.75" />
		</g>
		<g>
			<title>PF00550</title>
			<polygon class="PF00550" points="2201,22 2207,28 2207,34 2201,40" stroke-linejoin="round" width="6" height="26" fill="rgb(103,191,88)" stroke="rgb(82,152,70)" stroke-width="1" opacity="0.75" />
		</g>
	</g>
	<g>
		<title>ambH</title>
		<polygon class="ambH" points="2214,16 2361,16 2361,1 2391,31 2361,61 2361,46 2214,46" fill="rgb(196,234,253)" fill-opacity="1.0" stroke="rgb(78,93,101)" stroke-width="1" />
		<g>
			<title>PF00109</title>
			<rect class="PF00109" x="2217" y="18" stroke-linejoin="round" width="24" height="26" fill="rgb(112,116,228)" stroke="rgb(89,92,182)" stroke-width="1" opacity="0.75" />
		</g>
		<g>
			<title>PF02801</title>
			<rect class="PF02801" x="2242" y="18" stroke-linejoin="round" width="11" height="26" fill="rgb(215,78,102)" stroke="rgb(172,62,81)" stroke-width="1" opacity="0.75" />
		</g>
		<g>
			<title>PF16197</title>
			<rect class="PF16197" x="2254" y="18" stroke-linejoin="round" width="12" height="26" fill="rgb(68,179,89)" stroke="rgb(54,143,71)" stroke-width="1" opacity="0.75" />
		</g>
		<g>
			<title>PF00698</title>
			<rect class="PF00698" x="2270" y="18" stroke-linejoin="round" width="31" height="26" fill="rgb(59,176,209)" stroke="rgb(47,140,167)" stroke-width="1" opacity="0.75" />
		</g>
		<g>
			<title>PF08659</title>
			<rect class="PF08659" x="2330" y="18" stroke-linejoin="round" width="17" height="26" fill="rgb(66,209,188)" stroke="rgb(52,167,150)" stroke-width="1" opacity="0.75" />
		</g>
		<g>
			<title>PF00550</title>
			<rect class="PF00550" x="2357" y="18" stroke-linejoin="round" width="6" height="26" fill="rgb(103,191,88)" stroke="rgb(82,152,70)" stroke-width="1" opacity="0.75" />
		</g>
		<g>
			<title>PF00975</title>
			<polygon class="PF00975" points="2367,18 2375,18 2388,31 2375,44 2367,44" stroke-linejoin="round" width="22" height="26" fill="rgb(207,80,138)" stroke="rgb(165,63,110)" stroke-width="1" opacity="0.75" />
		</g>
	</g>
	<g>
		<title>ambJ</title>
		<polygon class="ambJ" points="2392,16 2409,16 2409,1 2439,31 2409,61 2409,46 2392,46" fill="rgb(185,204,254)" fill-opacity="1.0" stroke="rgb(74,81,101)" stroke-width="1" />
		<g>
			<title>PF01494</title>
			<polygon class="PF01494" points="2392,18 2423,18 2426,21 2426,41 2423,44 2392,44" stroke-linejoin="round" width="34" height="26" fill="rgb(182,175,59)" stroke="rgb(145,140,47)" stroke-width="1" opacity="0.75" />
		</g>
	</g>
	<g>
		<polygon class="NoName" points="33,16 31,16 31,1 1,31 31,61 31,46 33,46" fill="rgb(255,255,255)" fill-opacity="1.0" stroke="rgb(50,50,50)" stroke-width="1" />
		<g>
			<title>PF00158</title>
			<polygon class="PF00158" points="3,31 16,18 16,43" stroke-linejoin="round" width="15" height="26" fill="rgb(101,145,216)" stroke="rgb(80,115,172)" stroke-width="1" opacity="0.75" />
		</g>
		<g>
			<title>PF00072</title>
			<rect class="PF00072" x="20" y="18" stroke-linejoin="round" width="11" height="26" fill="rgb(100,107,203)" stroke="rgb(80,85,162)" stroke-width="1" opacity="0.75" />
		</g>
	</g>
	<g>
		<title>ambP</title>
		<polygon class="ambP" points="2492,16 2487,16 2487,1 2457,31 2487,61 2487,46 2492,46" fill="rgb(252,224,205)" fill-opacity="1.0" stroke="rgb(100,89,82)" stroke-width="1" />
		<g>
			<title>PF00355</title>
			<rect class="PF00355" x="2482" y="18" stroke-linejoin="round" width="9" height="26" fill="rgb(186,77,145)" stroke="rgb(148,61,115)" stroke-width="1" opacity="0.75" />
		</g>
	</g>
	<g>
		<title>ambO</title>
		<polygon class="ambO" points="2530,16 2523,16 2523,1 2493,31 2523,61 2523,46 2530,46" fill="rgb(253,222,178)" fill-opacity="1.0" stroke="rgb(101,88,71)" stroke-width="1" />
		<g>
			<title>PF13738</title>
			<rect class="PF13738" x="2510" y="18" stroke-linejoin="round" width="19" height="26" fill="rgb(213,91,84)" stroke="rgb(170,72,67)" stroke-width="1" opacity="0.75" />
		</g>
	</g>
	<g>
		<title>ambN</title>
		<polygon class="ambN" points="2587,16 2563,16 2563,1 2533,31 2563,61 2563,46 2587,46" fill="rgb(226,253,201)" fill-opacity="1.0" stroke="rgb(90,101,80)" stroke-width="1" />
		<g>
			<title>PF00171</title>
			<polygon class="PF00171" points="2537,29 2548,18 2583,18 2583,44 2548,44 2537,32" stroke-linejoin="round" width="46" height="26" fill="rgb(105,213,139)" stroke="rgb(84,170,111)" stroke-width="1" opacity="0.75" />
		</g>
	</g>
	<g>
		<title>ambQ</title>
		<polygon class="ambQ" points="2588,16 2611,16 2611,1 2641,31 2611,61 2611,46 2588,46" fill="rgb(250,241,201)" fill-opacity="1.0" stroke="rgb(100,96,80)" stroke-width="1" />
		<g>
			<title>PF04116</title>
			<rect class="PF04116" x="2607" y="18" stroke-linejoin="round" width="13" height="26" fill="rgb(171,60,209)" stroke="rgb(136,48,167)" stroke-width="1" opacity="0.75" />
		</g>
	</g>
	<g>
		<title>ambR</title>
		<polygon class="ambR" points="2644,16 2658,16 2658,1 2688,31 2658,61 2658,46 2644,46" fill="rgb(210,253,224)" fill-opacity="1.0" stroke="rgb(84,101,89)" stroke-width="1" />
		<g>
			<title>PF00202</title>
			<polygon class="PF00202" points="2647,18 2672,18 2685,31 2685,31 2672,44 2647,44" stroke-linejoin="round" width="38" height="26" fill="rgb(49,163,189)" stroke="rgb(39,130,151)" stroke-width="1" opacity="0.75" />
		</g>
	</g>
	<g>
		<title>ambS</title>
		<polygon class="ambS" points="2692,16 2698,16 2698,1 2728,31 2698,61 2698,46 2692,46" fill="rgb(214,250,253)" fill-opacity="1.0" stroke="rgb(85,100,101)" stroke-width="1" />
		<g>
			<title>PF08241</title>
			<polygon class="PF08241" points="2709,18 2712,18 2718,24 2718,38 2712,44 2709,44" stroke-linejoin="round" width="9" height="26" fill="rgb(106,219,159)" stroke="rgb(84,175,127)" stroke-width="1" opacity="0.75" />
		</g>
	</g>
	<g>
		<title>ambM</title>
		<polygon class="ambM" points="2768,16 2759,16 2759,1 2729,31 2759,61 2759,46 2768,46" fill="rgb(212,253,225)" fill-opacity="1.0" stroke="rgb(84,101,90)" stroke-width="1" />
		<g>
			<title>PF13489</title>
			<polygon class="PF13489" points="2731,31 2744,18 2750,18 2750,44 2744,44" stroke-linejoin="round" width="19" height="26" fill="rgb(188,189,66)" stroke="rgb(150,151,52)" stroke-width="1" opacity="0.75" />
		</g>
	</g>
	<g>
		<polygon class="NoName" points="2781,16 2781,16 2781,1 2773,31 2781,61 2781,46 2781,46" fill="rgb(255,255,255)" fill-opacity="1.0" stroke="rgb(50,50,50)" stroke-width="1" />
	</g>
	<g>
		<polygon class="NoName" points="2791,16 2791,16 2791,1 2783,31 2791,61 2791,46 2791,46" fill="rgb(255,255,255)" fill-opacity="1.0" stroke="rgb(50,50,50)" stroke-width="1" />
	</g>
	<g>
		<polygon class="NoName" points="2805,16 2805,16 2805,1 2792,31 2805,61 2805,46 2805,46" fill="rgb(255,255,255)" fill-opacity="1.0" stroke="rgb(50,50,50)" stroke-width="1" />
	</g>
	<g>
		<polygon class="NoName" points="65,16 63,16 63,1 33,31 63,61 63,46 65,46" fill="rgb(255,255,255)" fill-opacity="1.0" stroke="rgb(50,50,50)" stroke-width="1" />
	</g>
	<g>
		<title>amb7</title>
		<polygon class="amb7" points="3014,16 2836,16 2836,1 2806,31 2836,61 2836,46 3014,46" fill="rgb(250,205,248)" fill-opacity="1.0" stroke="rgb(100,82,99)" stroke-width="1" />
		<g>
			<title>PF00072</title>
			<polygon class="PF00072" points="2808,31 2817,22 2817,39" stroke-linejoin="round" width="11" height="26" fill="rgb(100,107,203)" stroke="rgb(80,85,162)" stroke-width="1" opacity="0.75" />
		</g>
		<g>
			<title>PF00072</title>
			<rect class="PF00072" x="2833" y="18" stroke-linejoin="round" width="10" height="26" fill="rgb(100,107,203)" stroke="rgb(80,85,162)" stroke-width="1" opacity="0.75" />
		</g>
		<g>
			<title>PF02518</title>
			<rect class="PF02518" x="2850" y="18" stroke-linejoin="round" width="12" height="26" fill="rgb(80,94,225)" stroke="rgb(64,75,180)" stroke-width="1" opacity="0.75" />
		</g>
		<g>
			<title>PF00512</title>
			<rect class="PF00512" x="2867" y="18" stroke-linejoin="round" width="6" height="26" fill="rgb(193,125,62)" stroke="rgb(154,100,49)" stroke-width="1" opacity="0.75" />
		</g>
		<g>
			<title>PF13185</title>
			<rect class="PF13185" x="2882" y="18" stroke-linejoin="round" width="13" height="26" fill="rgb(158,189,90)" stroke="rgb(126,151,72)" stroke-width="1" opacity="0.75" />
		</g>
		<g>
			<title>PF00672</title>
			<rect class="PF00672" x="2935" y="18" stroke-linejoin="round" width="5" height="26" fill="rgb(124,89,195)" stroke="rgb(99,71,156)" stroke-width="1" opacity="0.75" />
		</g>
		<g>
			<title>PF00672</title>
			<rect class="PF00672" x="2944" y="18" stroke-linejoin="round" width="5" height="26" fill="rgb(124,89,195)" stroke="rgb(99,71,156)" stroke-width="1" opacity="0.75" />
		</g>
		<g>
			<title>PF00672</title>
			<rect class="PF00672" x="2963" y="18" stroke-linejoin="round" width="5" height="26" fill="rgb(124,89,195)" stroke="rgb(99,71,156)" stroke-width="1" opacity="0.75" />
		</g>
		<g>
			<title>PF00672</title>
			<rect class="PF00672" x="2981" y="18" stroke-linejoin="round" width="5" height="26" fill="rgb(124,89,195)" stroke="rgb(99,71,156)" stroke-width="1" opacity="0.75" />
		</g>
	</g>
	<g>
		<title>amb8</title>
		<polygon class="amb8" points="3046,16 3046,16 3046,1 3023,31 3046,61 3046,46 3046,46" fill="rgb(250,207,210)" fill-opacity="1.0" stroke="rgb(100,82,84)" stroke-width="1" />
		<g>
			<title>PF01638</title>
			<polygon class="PF01638" points="3027,29 3035,18 3036,18 3036,44 3035,44 3027,32" stroke-linejoin="round" width="9" height="26" fill="rgb(91,150,227)" stroke="rgb(72,119,181)" stroke-width="1" opacity="0.75" />
		</g>
	</g>
	<g>
		<title>amb9</title>
		<polygon class="amb9" points="3042,16 3049,16 3049,1 3079,31 3049,61 3049,46 3042,46" fill="rgb(203,210,251)" fill-opacity="1.0" stroke="rgb(81,84,100)" stroke-width="1" />
		<g>
			<title>PF00724</title>
			<polygon class="PF00724" points="3042,18 3063,18 3075,30 3075,32 3063,44 3042,44" stroke-linejoin="round" width="33" height="26" fill="rgb(157,188,65)" stroke="rgb(125,150,52)" stroke-width="1" opacity="0.75" />
		</g>
	</g>
	<g>
		<polygon class="NoName" points="3085,16 3153,16 3153,1 3183,31 3153,61 3153,46 3085,46" fill="rgb(255,255,255)" fill-opacity="1.0" stroke="rgb(50,50,50)" stroke-width="1" />
		<g>
			<title>PF13646</title>
			<polygon class="PF13646" points="3160,18 3167,18 3168,19 3168,43 3167,44 3160,44" stroke-linejoin="round" width="8" height="26" fill="rgb(161,180,58)" stroke="rgb(128,144,46)" stroke-width="1" opacity="0.75" />
		</g>
	</g>
	<g>
		<polygon class="NoName" points="3330,16 3264,16 3264,1 3234,31 3264,61 3264,46 3330,46" fill="rgb(255,255,255)" fill-opacity="1.0" stroke="rgb(50,50,50)" stroke-width="1" />
		<g>
			<title>PF02518</title>
			<polygon class="PF02518" points="3236,31 3245,22 3245,39" stroke-linejoin="round" width="11" height="26" fill="rgb(80,94,225)" stroke="rgb(64,75,180)" stroke-width="1" opacity="0.75" />
		</g>
		<g>
			<title>PF13426</title>
			<rect class="PF13426" x="3258" y="18" stroke-linejoin="round" width="10" height="26" fill="rgb(182,140,74)" stroke="rgb(145,112,59)" stroke-width="1" opacity="0.75" />
		</g>
		<g>
			<title>PF08447</title>
			<rect class="PF08447" x="3272" y="18" stroke-linejoin="round" width="8" height="26" fill="rgb(222,97,193)" stroke="rgb(177,77,154)" stroke-width="1" opacity="0.75" />
		</g>
		<g>
			<title>PF13185</title>
			<rect class="PF13185" x="3284" y="18" stroke-linejoin="round" width="14" height="26" fill="rgb(158,189,90)" stroke="rgb(126,151,72)" stroke-width="1" opacity="0.75" />
		</g>
		<g>
			<title>PF13426</title>
			<rect class="PF13426" x="3301" y="18" stroke-linejoin="round" width="11" height="26" fill="rgb(182,140,74)" stroke="rgb(145,112,59)" stroke-width="1" opacity="0.75" />
		</g>
		<g>
			<title>PF08448</title>
			<rect class="PF08448" x="3315" y="18" stroke-linejoin="round" width="11" height="26" fill="rgb(50,90,192)" stroke="rgb(40,71,153)" stroke-width="1" opacity="0.75" />
		</g>
	</g>
	<g>
		<polygon class="NoName" points="93,16 93,16 93,1 71,31 93,61 93,46 93,46" fill="rgb(255,255,255)" fill-opacity="1.0" stroke="rgb(50,50,50)" stroke-width="1" />
		<g>
			<title>PF00782</title>
			<polygon class="PF00782" points="73,31 82,19 82,42" stroke-linejoin="round" width="11" height="26" fill="rgb(154,195,61)" stroke="rgb(123,156,48)" stroke-width="1" opacity="0.75" />
		</g>
	</g>
	<g>
		<title>amb1</title>
		<polygon class="amb1" points="124,16 123,16 123,1 93,31 123,61 123,46 124,46" fill="rgb(208,213,253)" fill-opacity="1.0" stroke="rgb(83,85,101)" stroke-width="1" />
		<g>
			<title>PF03466</title>
			<polygon class="PF03466" points="95,31 108,18 114,18 114,44 108,44" stroke-linejoin="round" width="20" height="26" fill="rgb(55,136,195)" stroke="rgb(44,108,156)" stroke-width="1" opacity="0.75" />
		</g>
		<g>
			<title>PF00126</title>
			<rect class="PF00126" x="118" y="18" stroke-linejoin="round" width="5" height="26" fill="rgb(125,227,79)" stroke="rgb(99,181,63)" stroke-width="1" opacity="0.75" />
		</g>
	</g>
	<g>
		<title>amb2</title>
		<polygon class="amb2" points="178,16 188,16 188,1 218,31 188,61 188,46 178,46" fill="rgb(249,213,210)" fill-opacity="1.0" stroke="rgb(99,85,84)" stroke-width="1" />
		<g>
			<title>PF00067</title>
			<polygon class="PF00067" points="185,18 202,18 215,31 202,44 185,44" stroke-linejoin="round" width="31" height="26" fill="rgb(85,216,107)" stroke="rgb(68,172,85)" stroke-width="1" opacity="0.75" />
		</g>
	</g>
	<g>
		<title>amb3</title>
		<polygon class="amb3" points="223,16 223,16 223,1 249,31 223,61 223,46 223,46" fill="rgb(191,252,193)" fill-opacity="1.0" stroke="rgb(76,100,77)" stroke-width="1" />
		<g>
			<title>PF02518</title>
			<polygon class="PF02518" points="236,20 246,31 236,42" stroke-linejoin="round" width="12" height="26" fill="rgb(80,94,225)" stroke="rgb(64,75,180)" stroke-width="1" opacity="0.75" />
		</g>
	</g>
	<g>
		<title>amb4</title>
		<polygon class="amb4" points="249,16 265,16 265,1 295,31 265,61 265,46 249,46" fill="rgb(194,213,252)" fill-opacity="1.0" stroke="rgb(77,85,100)" stroke-width="1" />
		<g>
			<title>PF00072</title>
			<rect class="PF00072" x="249" y="18" stroke-linejoin="round" width="11" height="26" fill="rgb(100,107,203)" stroke="rgb(80,85,162)" stroke-width="1" opacity="0.75" />
		</g>
		<g>
			<title>PF00158</title>
			<rect class="PF00158" x="263" y="18" stroke-linejoin="round" width="16" height="26" fill="rgb(101,145,216)" stroke="rgb(80,115,172)" stroke-width="1" opacity="0.75" />
		</g>
		<g>
			<title>PF02954</title>
			<polygon class="PF02954" points="289,28 292,31 289,34" stroke-linejoin="round" width="4" height="26" fill="rgb(168,63,200)" stroke="rgb(134,50,160)" stroke-width="1" opacity="0.75" />
		</g>
	</g>
	<g>
		<title>amb5</title>
		<polygon class="amb5" points="372,16 352,16 352,1 322,31 352,61 352,46 372,46" fill="rgb(231,250,197)" fill-opacity="1.0" stroke="rgb(92,100,78)" stroke-width="1" />
		<g>
			<title>PF02518</title>
			<polygon class="PF02518" points="324,31 334,21 334,40" stroke-linejoin="round" width="11" height="26" fill="rgb(80,94,225)" stroke="rgb(64,75,180)" stroke-width="1" opacity="0.75" />
		</g>
		<g>
			<title>PF00512</title>
			<rect class="PF00512" x="339" y="18" stroke-linejoin="round" width="6" height="26" fill="rgb(193,125,62)" stroke="rgb(154,100,49)" stroke-width="1" opacity="0.75" />
		</g>
		<g>
			<title>PF00672</title>
			<rect class="PF00672" x="346" y="18" stroke-linejoin="round" width="7" height="26" fill="rgb(124,89,195)" stroke="rgb(99,71,156)" stroke-width="1" opacity="0.75" />
		</g>
	</g>
	<g>
		<title>amb6</title>
		<polygon class="amb6" points="374,16 391,16 391,1 421,31 391,61 391,46 374,46" fill="rgb(209,222,252)" fill-opacity="1.0" stroke="rgb(83,88,100)" stroke-width="1" />
		<g>
			<title>PF05762</title>
			<polygon class="PF05762" points="397,18 405,18 418,31 405,44 397,44" stroke-linejoin="round" width="22" height="26" fill="rgb(222,87,201)" stroke="rgb(177,69,160)" stroke-width="1" opacity="0.75" />
		</g>
	</g>
</svg>
