<svg version="1.1" baseProfile="full" xmlns="http://www.w3.org/2000/svg" width="864" height="62">
	<line x1="1" y1="31" x2="863" y2="31" style="stroke:rgb(50,50,50); stroke-width:3 "/>
	<g>
		<title>aknB</title>
		<polygon class="aknB" points="323,16 335,16 335,1 365,31 335,61 335,46 323,46" fill="rgb(176,192,251)" fill-opacity="1.0" stroke="rgb(70,76,100)" stroke-width="1" />
		<g>
			<title>PF00109</title>
			<rect class="PF00109" x="323" y="18" stroke-linejoin="round" width="25" height="26" fill="rgb(112,116,228)" stroke="rgb(89,92,182)" stroke-width="1" opacity="0.75" />
		</g>
		<g>
			<title>PF02801</title>
			<polygon class="PF02801" points="349,18 349,18 360,29 360,33 349,44 349,44" stroke-linejoin="round" width="11" height="26" fill="rgb(215,78,102)" stroke="rgb(172,62,81)" stroke-width="1" opacity="0.75" />
		</g>
	</g>
	<g>
		<title>aknC</title>
		<polygon class="aknC" points="366,16 376,16 376,1 406,31 376,61 376,46 366,46" fill="rgb(248,204,251)" fill-opacity="1.0" stroke="rgb(99,81,100)" stroke-width="1" />
		<g>
			<title>PF00109</title>
			<rect class="PF00109" x="366" y="18" stroke-linejoin="round" width="24" height="26" fill="rgb(112,116,228)" stroke="rgb(89,92,182)" stroke-width="1" opacity="0.75" />
		</g>
		<g>
			<title>PF02801</title>
			<polygon class="PF02801" points="391,19 402,30 402,32 391,43" stroke-linejoin="round" width="11" height="26" fill="rgb(215,78,102)" stroke="rgb(172,62,81)" stroke-width="1" opacity="0.75" />
		</g>
	</g>
	<g>
		<title>aknD</title>
		<polygon class="aknD" points="423,16 423,16 423,1 432,31 423,61 423,46 423,46" fill="rgb(253,205,231)" fill-opacity="1.0" stroke="rgb(101,82,92)" stroke-width="1" />
		<g>
			<title>PF00550</title>
			<polygon class="PF00550" points="423,18 425,18 429,31 425,44 423,44" stroke-linejoin="round" width="7" height="26" fill="rgb(103,191,88)" stroke="rgb(82,152,70)" stroke-width="1" opacity="0.75" />
		</g>
	</g>
	<g>
		<title>aknE2</title>
		<polygon class="aknE2" points="433,16 440,16 440,1 470,31 440,61 440,46 433,46" fill="rgb(191,254,232)" fill-opacity="1.0" stroke="rgb(76,101,92)" stroke-width="1" />
		<g>
			<title>PF08541</title>
			<polygon class="PF08541" points="459,23 467,31 459,39" stroke-linejoin="round" width="9" height="26" fill="rgb(146,207,81)" stroke="rgb(116,165,64)" stroke-width="1" opacity="0.75" />
		</g>
	</g>
	<g>
		<title>aknF</title>
		<polygon class="aknF" points="469,16 473,16 473,1 503,31 473,61 473,46 469,46" fill="rgb(251,193,235)" fill-opacity="1.0" stroke="rgb(100,77,94)" stroke-width="1" />
		<g>
			<title>PF00698</title>
			<polygon class="PF00698" points="470,18 487,18 499,30 499,32 487,44 470,44" stroke-linejoin="round" width="29" height="26" fill="rgb(59,176,209)" stroke="rgb(47,140,167)" stroke-width="1" opacity="0.75" />
		</g>
	</g>
	<g>
		<title>aknG</title>
		<polygon class="aknG" points="534,16 534,16 534,1 506,31 534,61 534,46 534,46" fill="rgb(226,250,180)" fill-opacity="1.0" stroke="rgb(90,100,72)" stroke-width="1" />
		<g>
			<title>PF13649</title>
			<polygon class="PF13649" points="520,18 520,18 529,18 529,44 520,44 520,43" stroke-linejoin="round" width="9" height="26" fill="rgb(227,135,74)" stroke="rgb(181,108,59)" stroke-width="1" opacity="0.75" />
		</g>
	</g>
	<g>
		<title>aknH</title>
		<polygon class="aknH" points="541,16 541,16 541,1 555,31 541,61 541,46 541,46" fill="rgb(250,198,212)" fill-opacity="1.0" stroke="rgb(100,79,84)" stroke-width="1" />
		<g>
			<title>PF07366</title>
			<polygon class="PF07366" points="541,18 546,18 552,31 546,44 541,44" stroke-linejoin="round" width="12" height="26" fill="rgb(206,89,111)" stroke="rgb(164,71,88)" stroke-width="1" opacity="0.75" />
		</g>
	</g>
	<g>
		<title>aclI</title>
		<polygon class="aclI" points="557,16 557,16 557,1 585,31 557,61 557,46 557,46" fill="rgb(179,253,194)" fill-opacity="1.0" stroke="rgb(71,101,77)" stroke-width="1" />
		<g>
			<title>PF00486</title>
			<rect class="PF00486" x="558" y="18" stroke-linejoin="round" width="8" height="26" fill="rgb(204,153,57)" stroke="rgb(163,122,45)" stroke-width="1" opacity="0.75" />
		</g>
		<g>
			<title>PF03704</title>
			<polygon class="PF03704" points="567,18 570,18 581,30 581,32 570,44 567,44" stroke-linejoin="round" width="14" height="26" fill="rgb(217,89,196)" stroke="rgb(173,71,156)" stroke-width="1" opacity="0.75" />
		</g>
	</g>
	<g>
		<title>aclJ</title>
		<polygon class="aclJ" points="588,16 588,16 588,1 603,31 588,61 588,46 588,46" fill="rgb(239,211,253)" fill-opacity="1.0" stroke="rgb(95,84,101)" stroke-width="1" />
		<g>
			<title>PF04075</title>
			<polygon class="PF04075" points="590,18 594,18 600,31 594,44 590,44" stroke-linejoin="round" width="12" height="26" fill="rgb(184,92,208)" stroke="rgb(147,73,166)" stroke-width="1" opacity="0.75" />
		</g>
	</g>
	<g>
		<title>aclO</title>
		<polygon class="aclO" points="612,16 631,16 631,1 661,31 631,61 631,46 612,46" fill="rgb(218,198,249)" fill-opacity="1.0" stroke="rgb(87,79,99)" stroke-width="1" />
		<g>
			<title>PF01565</title>
			<rect class="PF01565" x="614" y="18" stroke-linejoin="round" width="13" height="26" fill="rgb(226,88,136)" stroke="rgb(180,70,108)" stroke-width="1" opacity="0.75" />
		</g>
		<g>
			<title>PF08031</title>
			<polygon class="PF08031" points="655,28 658,31 655,34" stroke-linejoin="round" width="5" height="26" fill="rgb(210,73,83)" stroke="rgb(168,58,66)" stroke-width="1" opacity="0.75" />
		</g>
	</g>
	<g>
		<title>aclY</title>
		<polygon class="aclY" points="35,16 35,16 35,1 6,31 35,61 35,46 35,46" fill="rgb(188,254,186)" fill-opacity="1.0" stroke="rgb(75,101,74)" stroke-width="1" />
		<g>
			<title>PF00483</title>
			<polygon class="PF00483" points="11,28 21,18 34,18 34,44 21,44 11,33" stroke-linejoin="round" width="23" height="26" fill="rgb(198,101,87)" stroke="rgb(158,80,69)" stroke-width="1" opacity="0.75" />
		</g>
	</g>
	<g>
		<title>aclP</title>
		<polygon class="aclP" points="687,16 687,16 687,1 663,31 687,61 687,46 687,46" fill="rgb(226,250,209)" fill-opacity="1.0" stroke="rgb(90,100,83)" stroke-width="1" />
		<g>
			<title>PF13649</title>
			<polygon class="PF13649" points="674,20 675,18 683,18 683,44 675,44 674,41" stroke-linejoin="round" width="9" height="26" fill="rgb(227,135,74)" stroke="rgb(181,108,59)" stroke-width="1" opacity="0.75" />
		</g>
	</g>
	<g>
		<title>aclQ</title>
		<polygon class="aclQ" points="714,16 714,16 714,1 688,31 714,61 714,46 714,46" fill="rgb(205,212,253)" fill-opacity="1.0" stroke="rgb(82,84,101)" stroke-width="1" />
		<g>
			<title>PF13460</title>
			<polygon class="PF13460" points="698,22 701,18 714,18 714,44 701,44 698,39" stroke-linejoin="round" width="16" height="26" fill="rgb(188,201,78)" stroke="rgb(150,160,62)" stroke-width="1" opacity="0.75" />
		</g>
	</g>
	<g>
		<title>aclR</title>
		<polygon class="aclR" points="724,16 724,16 724,1 737,31 724,61 724,46 724,46" fill="rgb(251,182,190)" fill-opacity="1.0" stroke="rgb(100,72,76)" stroke-width="1" />
		<g>
			<title>PF07366</title>
			<polygon class="PF07366" points="724,18 728,18 734,31 728,44 724,44" stroke-linejoin="round" width="11" height="26" fill="rgb(206,89,111)" stroke="rgb(164,71,88)" stroke-width="1" opacity="0.75" />
		</g>
	</g>
	<g>
		<title>aclS</title>
		<polygon class="aclS" points="743,16 743,16 743,1 764,31 743,61 743,46 743,46" fill="rgb(247,189,250)" fill-opacity="1.0" stroke="rgb(98,75,100)" stroke-width="1" />
		<g>
			<title>PF03551</title>
			<rect class="PF03551" x="744" y="18" stroke-linejoin="round" width="7" height="26" fill="rgb(210,176,95)" stroke="rgb(168,140,76)" stroke-width="1" opacity="0.75" />
		</g>
	</g>
	<g>
		<title>acrV</title>
		<polygon class="acrV" points="768,16 772,16 772,1 802,31 772,61 772,46 768,46" fill="rgb(250,182,225)" fill-opacity="1.0" stroke="rgb(100,72,89)" stroke-width="1" />
		<g>
			<title>PF00005</title>
			<rect class="PF00005" x="772" y="18" stroke-linejoin="round" width="14" height="26" fill="rgb(129,201,63)" stroke="rgb(103,160,50)" stroke-width="1" opacity="0.75" />
		</g>
	</g>
	<g>
		<title>acrW</title>
		<polygon class="acrW" points="803,16 803,16 803,1 831,31 803,61 803,46 803,46" fill="rgb(180,252,253)" fill-opacity="1.0" stroke="rgb(72,100,101)" stroke-width="1" />
		<g>
			<title>PF01061</title>
			<polygon class="PF01061" points="806,18 816,18 827,30 827,32 816,44 806,44" stroke-linejoin="round" width="21" height="26" fill="rgb(139,217,106)" stroke="rgb(111,173,84)" stroke-width="1" opacity="0.75" />
		</g>
	</g>
	<g>
		<title>aclZ</title>
		<polygon class="aclZ" points="43,16 50,16 50,1 80,31 50,61 50,46 43,46" fill="rgb(224,193,254)" fill-opacity="1.0" stroke="rgb(89,77,101)" stroke-width="1" />
		<g>
			<title>PF01041</title>
			<polygon class="PF01041" points="44,18 64,18 77,31 64,44 44,44" stroke-linejoin="round" width="34" height="26" fill="rgb(59,139,191)" stroke="rgb(47,111,152)" stroke-width="1" opacity="0.75" />
		</g>
	</g>
	<g>
		<title>aclN</title>
		<polygon class="aclN" points="128,16 113,16 113,1 83,31 113,61 113,46 128,46" fill="rgb(213,250,251)" fill-opacity="1.0" stroke="rgb(85,100,100)" stroke-width="1" />
		<g>
			<title>PF03559</title>
			<polygon class="PF03559" points="85,31 98,18 104,18 104,44 98,44" stroke-linejoin="round" width="20" height="26" fill="rgb(74,201,66)" stroke="rgb(59,160,52)" stroke-width="1" opacity="0.75" />
		</g>
		<g>
			<title>PF03559</title>
			<rect class="PF03559" x="105" y="18" stroke-linejoin="round" width="20" height="26" fill="rgb(74,201,66)" stroke="rgb(59,160,52)" stroke-width="1" opacity="0.75" />
		</g>
	</g>
	<g>
		<title>aclM</title>
		<polygon class="aclM" points="162,16 162,16 162,1 133,31 162,61 162,46 162,46" fill="rgb(208,252,212)" fill-opacity="1.0" stroke="rgb(83,100,84)" stroke-width="1" />
		<g>
			<title>PF01370</title>
			<polygon class="PF01370" points="140,26 148,18 162,18 162,44 148,44 140,35" stroke-linejoin="round" width="22" height="26" fill="rgb(98,102,214)" stroke="rgb(78,81,171)" stroke-width="1" opacity="0.75" />
		</g>
	</g>
	<g>
		<title>aclL</title>
		<polygon class="aclL" points="184,16 184,16 184,1 164,31 184,61 184,46 184,46" fill="rgb(220,252,176)" fill-opacity="1.0" stroke="rgb(88,100,70)" stroke-width="1" />
		<g>
			<title>PF00908</title>
			<polygon class="PF00908" points="166,31 175,18 183,18 183,44 175,44" stroke-linejoin="round" width="17" height="26" fill="rgb(184,89,121)" stroke="rgb(147,71,96)" stroke-width="1" opacity="0.75" />
		</g>
	</g>
	<g>
		<title>aclK</title>
		<polygon class="aclK" points="228,16 214,16 214,1 184,31 214,61 214,46 228,46" fill="rgb(202,207,251)" fill-opacity="1.0" stroke="rgb(80,82,100)" stroke-width="1" />
		<g>
			<title>PF06722</title>
			<polygon class="PF06722" points="197,20 199,18 206,18 206,44 199,44 197,41" stroke-linejoin="round" width="9" height="26" fill="rgb(200,129,88)" stroke="rgb(160,103,70)" stroke-width="1" opacity="0.75" />
		</g>
	</g>
	<g>
		<title>aknE1</title>
		<polygon class="aknE1" points="276,16 261,16 261,1 231,31 261,61 261,46 276,46" fill="rgb(187,199,253)" fill-opacity="1.0" stroke="rgb(74,79,101)" stroke-width="1" />
		<g>
			<title>PF13577</title>
			<polygon class="PF13577" points="233,31 243,21 243,40" stroke-linejoin="round" width="12" height="26" fill="rgb(68,223,209)" stroke="rgb(54,178,167)" stroke-width="1" opacity="0.75" />
		</g>
		<g>
			<title>PF10604</title>
			<polygon class="PF10604" points="245,19 246,18 260,18 260,44 246,44 245,42" stroke-linejoin="round" width="15" height="26" fill="rgb(105,204,74)" stroke="rgb(84,163,59)" stroke-width="1" opacity="0.75" />
		</g>
		<g>
			<title>PF10604</title>
			<rect class="PF10604" x="261" y="18" stroke-linejoin="round" width="14" height="26" fill="rgb(105,204,74)" stroke="rgb(84,163,59)" stroke-width="1" opacity="0.75" />
		</g>
	</g>
	<g>
		<title>aknA</title>
		<polygon class="aknA" points="304,16 304,16 304,1 278,31 304,61 304,46 304,46" fill="rgb(249,189,250)" fill-opacity="1.0" stroke="rgb(99,75,100)" stroke-width="1" />
		<g>
			<title>PF00106</title>
			<polygon class="PF00106" points="283,28 291,18 302,18 302,44 291,44 283,33" stroke-linejoin="round" width="19" height="26" fill="rgb(182,219,73)" stroke="rgb(145,175,58)" stroke-width="1" opacity="0.75" />
		</g>
	</g>
	<g>
		<title>aknX</title>
		<polygon class="aknX" points="311,16 311,16 311,1 323,31 311,61 311,46 311,46" fill="rgb(254,244,182)" fill-opacity="1.0" stroke="rgb(101,97,72)" stroke-width="1" />
		<g>
			<title>PF03992</title>
			<polygon class="PF03992" points="312,18 315,18 319,27 319,35 315,44 312,44" stroke-linejoin="round" width="7" height="26" fill="rgb(193,84,127)" stroke="rgb(154,67,101)" stroke-width="1" opacity="0.75" />
		</g>
	</g>
</svg>
