<svg version="1.1" baseProfile="full" xmlns="http://www.w3.org/2000/svg" width="2230" height="62">
	<line x1="1" y1="31" x2="2229" y2="31" style="stroke:rgb(50,50,50); stroke-width:3 "/>
	<g>
		<title>tnp1</title>
		<polygon class="tnp1" points="1107,16 1107,16 1107,1 1125,31 1107,61 1107,46 1107,46" fill="rgb(253,239,213)" fill-opacity="1.0" stroke="rgb(101,95,85)" stroke-width="1" />
	</g>
	<g>
		<title>int2</title>
		<polygon class="int2" points="1137,16 1137,16 1137,1 1119,31 1137,61 1137,46 1137,46" fill="rgb(247,254,181)" fill-opacity="1.0" stroke="rgb(98,101,72)" stroke-width="1" />
	</g>
	<g>
		<title>tnp2</title>
		<polygon class="tnp2" points="1210,16 1185,16 1185,1 1155,31 1185,61 1185,46 1210,46" fill="rgb(251,185,209)" fill-opacity="1.0" stroke="rgb(100,74,83)" stroke-width="1" />
		<g>
			<title>PF07592</title>
			<polygon class="PF07592" points="1170,18 1170,18 1200,18 1200,44 1170,44 1170,43" stroke-linejoin="round" width="30" height="26" fill="rgb(208,208,80)" stroke="rgb(166,166,64)" stroke-width="1" opacity="0.75" />
		</g>
	</g>
	<g>
		<title>tnp3</title>
		<polygon class="tnp3" points="1210,16 1214,16 1214,1 1244,31 1214,61 1214,46 1210,46" fill="rgb(214,254,236)" fill-opacity="1.0" stroke="rgb(85,101,94)" stroke-width="1" />
		<g>
			<title>PF13546</title>
			<rect class="PF13546" x="1211" y="18" stroke-linejoin="round" width="15" height="26" fill="rgb(119,52,208)" stroke="rgb(95,41,166)" stroke-width="1" opacity="0.75" />
		</g>
	</g>
	<g>
		<title>griR</title>
		<polygon class="griR" points="1296,16 1289,16 1289,1 1259,31 1289,61 1289,46 1296,46" fill="rgb(181,233,250)" fill-opacity="1.0" stroke="rgb(72,93,100)" stroke-width="1" />
		<g>
			<title>PF02768</title>
			<polygon class="PF02768" points="1261,31 1271,21 1271,40" stroke-linejoin="round" width="12" height="26" fill="rgb(51,193,80)" stroke="rgb(40,154,63)" stroke-width="1" opacity="0.75" />
		</g>
		<g>
			<title>PF02767</title>
			<polygon class="PF02767" points="1272,20 1274,18 1283,18 1283,44 1274,44 1272,41" stroke-linejoin="round" width="11" height="26" fill="rgb(74,212,191)" stroke="rgb(59,169,152)" stroke-width="1" opacity="0.75" />
		</g>
		<g>
			<title>PF00712</title>
			<rect class="PF00712" x="1284" y="18" stroke-linejoin="round" width="11" height="26" fill="rgb(201,83,112)" stroke="rgb(160,66,89)" stroke-width="1" opacity="0.75" />
		</g>
	</g>
	<g>
		<title>griB</title>
		<polygon class="griB" points="1322,16 1708,16 1708,1 1738,31 1708,61 1708,46 1322,46" fill="rgb(224,253,198)" fill-opacity="1.0" stroke="rgb(89,101,79)" stroke-width="1" />
		<g>
			<title>PF00501</title>
			<rect class="PF00501" x="1324" y="18" stroke-linejoin="round" width="41" height="26" fill="rgb(60,217,223)" stroke="rgb(48,173,178)" stroke-width="1" opacity="0.75" />
		</g>
		<g>
			<title>PF08241</title>
			<rect class="PF08241" x="1378" y="18" stroke-linejoin="round" width="10" height="26" fill="rgb(106,219,159)" stroke="rgb(84,175,127)" stroke-width="1" opacity="0.75" />
		</g>
		<g>
			<title>PF00550</title>
			<rect class="PF00550" x="1422" y="18" stroke-linejoin="round" width="6" height="26" fill="rgb(103,191,88)" stroke="rgb(82,152,70)" stroke-width="1" opacity="0.75" />
		</g>
		<g>
			<title>PF00668</title>
			<rect class="PF00668" x="1430" y="18" stroke-linejoin="round" width="45" height="26" fill="rgb(224,184,98)" stroke="rgb(179,147,78)" stroke-width="1" opacity="0.75" />
		</g>
		<g>
			<title>PF00501</title>
			<rect class="PF00501" x="1477" y="18" stroke-linejoin="round" width="41" height="26" fill="rgb(60,217,223)" stroke="rgb(48,173,178)" stroke-width="1" opacity="0.75" />
		</g>
		<g>
			<title>PF13193</title>
			<rect class="PF13193" x="1519" y="18" stroke-linejoin="round" width="8" height="26" fill="rgb(182,50,118)" stroke="rgb(145,39,94)" stroke-width="1" opacity="0.75" />
		</g>
		<g>
			<title>PF00550</title>
			<rect class="PF00550" x="1530" y="18" stroke-linejoin="round" width="6" height="26" fill="rgb(103,191,88)" stroke="rgb(82,152,70)" stroke-width="1" opacity="0.75" />
		</g>
		<g>
			<title>PF00668</title>
			<rect class="PF00668" x="1538" y="18" stroke-linejoin="round" width="45" height="26" fill="rgb(224,184,98)" stroke="rgb(179,147,78)" stroke-width="1" opacity="0.75" />
		</g>
		<g>
			<title>PF00501</title>
			<rect class="PF00501" x="1585" y="18" stroke-linejoin="round" width="39" height="26" fill="rgb(60,217,223)" stroke="rgb(48,173,178)" stroke-width="1" opacity="0.75" />
		</g>
		<g>
			<title>PF08241</title>
			<rect class="PF08241" x="1638" y="18" stroke-linejoin="round" width="10" height="26" fill="rgb(106,219,159)" stroke="rgb(84,175,127)" stroke-width="1" opacity="0.75" />
		</g>
		<g>
			<title>PF00550</title>
			<rect class="PF00550" x="1682" y="18" stroke-linejoin="round" width="6" height="26" fill="rgb(103,191,88)" stroke="rgb(82,152,70)" stroke-width="1" opacity="0.75" />
		</g>
		<g>
			<title>PF00668</title>
			<polygon class="PF00668" points="1689,18 1722,18 1735,31 1735,31 1722,44 1689,44" stroke-linejoin="round" width="46" height="26" fill="rgb(224,184,98)" stroke="rgb(179,147,78)" stroke-width="1" opacity="0.75" />
		</g>
	</g>
	<g>
		<title>griC</title>
		<polygon class="griC" points="1739,16 1841,16 1841,1 1871,31 1841,61 1841,46 1739,46" fill="rgb(254,206,219)" fill-opacity="1.0" stroke="rgb(101,82,87)" stroke-width="1" />
		<g>
			<title>PF00668</title>
			<rect class="PF00668" x="1739" y="18" stroke-linejoin="round" width="43" height="26" fill="rgb(224,184,98)" stroke="rgb(179,147,78)" stroke-width="1" opacity="0.75" />
		</g>
		<g>
			<title>PF00501</title>
			<rect class="PF00501" x="1785" y="18" stroke-linejoin="round" width="40" height="26" fill="rgb(60,217,223)" stroke="rgb(48,173,178)" stroke-width="1" opacity="0.75" />
		</g>
		<g>
			<title>PF13193</title>
			<rect class="PF13193" x="1826" y="18" stroke-linejoin="round" width="7" height="26" fill="rgb(182,50,118)" stroke="rgb(145,39,94)" stroke-width="1" opacity="0.75" />
		</g>
		<g>
			<title>PF00550</title>
			<rect class="PF00550" x="1836" y="18" stroke-linejoin="round" width="6" height="26" fill="rgb(103,191,88)" stroke="rgb(82,152,70)" stroke-width="1" opacity="0.75" />
		</g>
		<g>
			<title>PF00975</title>
			<polygon class="PF00975" points="1845,18 1855,18 1868,31 1855,44 1845,44" stroke-linejoin="round" width="24" height="26" fill="rgb(207,80,138)" stroke="rgb(165,63,110)" stroke-width="1" opacity="0.75" />
		</g>
	</g>
	<g>
		<title>griD</title>
		<polygon class="griD" points="1871,16 1871,16 1871,1 1878,31 1871,61 1871,46 1871,46" fill="rgb(215,212,252)" fill-opacity="1.0" stroke="rgb(85,84,100)" stroke-width="1" />
		<g>
			<title>PF03621</title>
			<polygon class="PF03621" points="1871,18 1872,18 1875,31 1872,44 1871,44" stroke-linejoin="round" width="5" height="26" fill="rgb(212,165,97)" stroke="rgb(169,132,77)" stroke-width="1" opacity="0.75" />
		</g>
	</g>
	<g>
		<title>griE</title>
		<polygon class="griE" points="1882,16 1882,16 1882,1 1909,31 1882,61 1882,46 1882,46" fill="rgb(253,195,185)" fill-opacity="1.0" stroke="rgb(101,77,74)" stroke-width="1" />
		<g>
			<title>PF05721</title>
			<polygon class="PF05721" points="1883,18 1894,18 1904,29 1904,33 1894,44 1883,44" stroke-linejoin="round" width="21" height="26" fill="rgb(72,132,214)" stroke="rgb(57,105,171)" stroke-width="1" opacity="0.75" />
		</g>
	</g>
	<g>
		<title>griF</title>
		<polygon class="griF" points="1908,16 1917,16 1917,1 1947,31 1917,61 1917,46 1908,46" fill="rgb(227,193,250)" fill-opacity="1.0" stroke="rgb(90,77,100)" stroke-width="1" />
		<g>
			<title>PF08240</title>
			<rect class="PF08240" x="1912" y="18" stroke-linejoin="round" width="12" height="26" fill="rgb(211,65,138)" stroke="rgb(168,51,110)" stroke-width="1" opacity="0.75" />
		</g>
		<g>
			<title>PF00107</title>
			<polygon class="PF00107" points="1928,18 1931,18 1941,28 1941,34 1931,44 1928,44" stroke-linejoin="round" width="13" height="26" fill="rgb(81,108,215)" stroke="rgb(64,86,172)" stroke-width="1" opacity="0.75" />
		</g>
	</g>
	<g>
		<polygon class="NoName" points="28,16 39,16 39,1 69,31 39,61 39,46 28,46" fill="rgb(255,255,255)" fill-opacity="1.0" stroke="rgb(50,50,50)" stroke-width="1" />
		<g>
			<title>PF13560</title>
			<rect class="PF13560" x="28" y="18" stroke-linejoin="round" width="6" height="26" fill="rgb(207,145,90)" stroke="rgb(165,116,72)" stroke-width="1" opacity="0.75" />
		</g>
	</g>
	<g>
		<title>griG</title>
		<polygon class="griG" points="1949,16 1949,16 1949,1 1975,31 1949,61 1949,46 1949,46" fill="rgb(230,254,191)" fill-opacity="1.0" stroke="rgb(92,101,76)" stroke-width="1" />
		<g>
			<title>PF12697</title>
			<polygon class="PF12697" points="1950,18 1961,18 1972,31 1961,44 1950,44" stroke-linejoin="round" width="24" height="26" fill="rgb(113,71,219)" stroke="rgb(90,56,175)" stroke-width="1" opacity="0.75" />
		</g>
	</g>
	<g>
		<title>griH</title>
		<polygon class="griH" points="1975,16 1975,16 1975,1 2005,31 1975,61 1975,46 1975,46" fill="rgb(251,200,238)" fill-opacity="1.0" stroke="rgb(100,80,95)" stroke-width="1" />
		<g>
			<title>PF00296</title>
			<polygon class="PF00296" points="1975,18 1989,18 1998,27 1998,35 1989,44 1975,44" stroke-linejoin="round" width="23" height="26" fill="rgb(180,112,78)" stroke="rgb(144,89,62)" stroke-width="1" opacity="0.75" />
		</g>
	</g>
	<g>
		<polygon class="NoName" points="2053,16 2053,16 2053,1 2039,31 2053,61 2053,46 2053,46" fill="rgb(255,255,255)" fill-opacity="1.0" stroke="rgb(50,50,50)" stroke-width="1" />
		<g>
			<title>PF01243</title>
			<polygon class="PF01243" points="2044,25 2047,18 2052,18 2052,44 2047,44 2044,36" stroke-linejoin="round" width="8" height="26" fill="rgb(177,193,67)" stroke="rgb(141,154,53)" stroke-width="1" opacity="0.75" />
		</g>
	</g>
	<g>
		<polygon class="NoName" points="2073,16 2073,16 2073,1 2094,31 2073,61 2073,46 2073,46" fill="rgb(255,255,255)" fill-opacity="1.0" stroke="rgb(50,50,50)" stroke-width="1" />
	</g>
	<g>
		<polygon class="NoName" points="2095,16 2102,16 2102,1 2132,31 2102,61 2102,46 2095,46" fill="rgb(255,255,255)" fill-opacity="1.0" stroke="rgb(50,50,50)" stroke-width="1" />
	</g>
	<g>
		<polygon class="NoName" points="2133,16 2142,16 2142,1 2172,31 2142,61 2142,46 2133,46" fill="rgb(255,255,255)" fill-opacity="1.0" stroke="rgb(50,50,50)" stroke-width="1" />
		<g>
			<title>PF01979</title>
			<polygon class="PF01979" points="2138,18 2156,18 2169,31 2156,44 2138,44" stroke-linejoin="round" width="33" height="26" fill="rgb(210,93,184)" stroke="rgb(168,74,147)" stroke-width="1" opacity="0.75" />
		</g>
	</g>
	<g>
		<polygon class="NoName" points="2204,16 2204,16 2204,1 2174,31 2204,61 2204,46 2204,46" fill="rgb(255,255,255)" fill-opacity="1.0" stroke="rgb(50,50,50)" stroke-width="1" />
		<g>
			<title>PF13560</title>
			<rect class="PF13560" x="2197" y="18" stroke-linejoin="round" width="5" height="26" fill="rgb(207,145,90)" stroke="rgb(165,116,72)" stroke-width="1" opacity="0.75" />
		</g>
	</g>
	<g>
		<polygon class="NoName" points="73,16 73,16 73,1 87,31 73,61 73,46 73,46" fill="rgb(255,255,255)" fill-opacity="1.0" stroke="rgb(50,50,50)" stroke-width="1" />
	</g>
	<g>
		<polygon class="NoName" points="88,16 88,16 88,1 94,31 88,61 88,46 88,46" fill="rgb(255,255,255)" fill-opacity="1.0" stroke="rgb(50,50,50)" stroke-width="1" />
	</g>
	<g>
		<polygon class="NoName" points="102,16 105,16 105,1 135,31 105,61 105,46 102,46" fill="rgb(255,255,255)" fill-opacity="1.0" stroke="rgb(50,50,50)" stroke-width="1" />
	</g>
	<g>
		<polygon class="NoName" points="137,16 157,16 157,1 187,31 157,61 157,46 137,46" fill="rgb(255,255,255)" fill-opacity="1.0" stroke="rgb(50,50,50)" stroke-width="1" />
		<g>
			<title>PF13520</title>
			<polygon class="PF13520" points="140,18 171,18 184,31 184,31 171,44 140,44" stroke-linejoin="round" width="44" height="26" fill="rgb(180,217,107)" stroke="rgb(144,173,85)" stroke-width="1" opacity="0.75" />
		</g>
	</g>
	<g>
		<polygon class="NoName" points="188,16 206,16 206,1 236,31 206,61 206,46 188,46" fill="rgb(255,255,255)" fill-opacity="1.0" stroke="rgb(50,50,50)" stroke-width="1" />
		<g>
			<title>PF00120</title>
			<polygon class="PF00120" points="202,18 220,18 233,31 220,44 202,44" stroke-linejoin="round" width="33" height="26" fill="rgb(195,227,89)" stroke="rgb(155,181,71)" stroke-width="1" opacity="0.75" />
		</g>
	</g>
	<g>
		<polygon class="NoName" points="242,16 242,16 242,1 271,31 242,61 242,46 242,46" fill="rgb(255,255,255)" fill-opacity="1.0" stroke="rgb(50,50,50)" stroke-width="1" />
		<g>
			<title>PF01636</title>
			<polygon class="PF01636" points="244,18 255,18 268,31 268,31 255,44 244,44" stroke-linejoin="round" width="24" height="26" fill="rgb(106,220,228)" stroke="rgb(84,176,182)" stroke-width="1" opacity="0.75" />
		</g>
	</g>
	<g>
		<title>griA</title>
		<polygon class="griA" points="1063,16 314,16 314,1 284,31 314,61 314,46 1063,46" fill="rgb(224,253,212)" fill-opacity="1.0" stroke="rgb(89,101,84)" stroke-width="1" />
		<g>
			<title>PF00668</title>
			<polygon class="PF00668" points="286,31 299,18 330,18 330,44 299,44" stroke-linejoin="round" width="45" height="26" fill="rgb(224,184,98)" stroke="rgb(179,147,78)" stroke-width="1" opacity="0.75" />
		</g>
		<g>
			<title>PF00550</title>
			<rect class="PF00550" x="332" y="18" stroke-linejoin="round" width="6" height="26" fill="rgb(103,191,88)" stroke="rgb(82,152,70)" stroke-width="1" opacity="0.75" />
		</g>
		<g>
			<title>PF13193</title>
			<rect class="PF13193" x="341" y="18" stroke-linejoin="round" width="8" height="26" fill="rgb(182,50,118)" stroke="rgb(145,39,94)" stroke-width="1" opacity="0.75" />
		</g>
		<g>
			<title>PF00501</title>
			<rect class="PF00501" x="350" y="18" stroke-linejoin="round" width="39" height="26" fill="rgb(60,217,223)" stroke="rgb(48,173,178)" stroke-width="1" opacity="0.75" />
		</g>
		<g>
			<title>PF00668</title>
			<rect class="PF00668" x="392" y="18" stroke-linejoin="round" width="45" height="26" fill="rgb(224,184,98)" stroke="rgb(179,147,78)" stroke-width="1" opacity="0.75" />
		</g>
		<g>
			<title>PF00550</title>
			<rect class="PF00550" x="439" y="18" stroke-linejoin="round" width="6" height="26" fill="rgb(103,191,88)" stroke="rgb(82,152,70)" stroke-width="1" opacity="0.75" />
		</g>
		<g>
			<title>PF13193</title>
			<rect class="PF13193" x="448" y="18" stroke-linejoin="round" width="7" height="26" fill="rgb(182,50,118)" stroke="rgb(145,39,94)" stroke-width="1" opacity="0.75" />
		</g>
		<g>
			<title>PF00501</title>
			<rect class="PF00501" x="456" y="18" stroke-linejoin="round" width="41" height="26" fill="rgb(60,217,223)" stroke="rgb(48,173,178)" stroke-width="1" opacity="0.75" />
		</g>
		<g>
			<title>PF00668</title>
			<rect class="PF00668" x="499" y="18" stroke-linejoin="round" width="45" height="26" fill="rgb(224,184,98)" stroke="rgb(179,147,78)" stroke-width="1" opacity="0.75" />
		</g>
		<g>
			<title>PF00550</title>
			<rect class="PF00550" x="546" y="18" stroke-linejoin="round" width="6" height="26" fill="rgb(103,191,88)" stroke="rgb(82,152,70)" stroke-width="1" opacity="0.75" />
		</g>
		<g>
			<title>PF13193</title>
			<rect class="PF13193" x="555" y="18" stroke-linejoin="round" width="8" height="26" fill="rgb(182,50,118)" stroke="rgb(145,39,94)" stroke-width="1" opacity="0.75" />
		</g>
		<g>
			<title>PF00501</title>
			<rect class="PF00501" x="564" y="18" stroke-linejoin="round" width="39" height="26" fill="rgb(60,217,223)" stroke="rgb(48,173,178)" stroke-width="1" opacity="0.75" />
		</g>
		<g>
			<title>PF00668</title>
			<rect class="PF00668" x="606" y="18" stroke-linejoin="round" width="45" height="26" fill="rgb(224,184,98)" stroke="rgb(179,147,78)" stroke-width="1" opacity="0.75" />
		</g>
		<g>
			<title>PF00550</title>
			<rect class="PF00550" x="653" y="18" stroke-linejoin="round" width="6" height="26" fill="rgb(103,191,88)" stroke="rgb(82,152,70)" stroke-width="1" opacity="0.75" />
		</g>
		<g>
			<title>PF08241</title>
			<rect class="PF08241" x="692" y="18" stroke-linejoin="round" width="10" height="26" fill="rgb(106,219,159)" stroke="rgb(84,175,127)" stroke-width="1" opacity="0.75" />
		</g>
		<g>
			<title>PF00501</title>
			<rect class="PF00501" x="716" y="18" stroke-linejoin="round" width="41" height="26" fill="rgb(60,217,223)" stroke="rgb(48,173,178)" stroke-width="1" opacity="0.75" />
		</g>
		<g>
			<title>PF00668</title>
			<rect class="PF00668" x="759" y="18" stroke-linejoin="round" width="45" height="26" fill="rgb(224,184,98)" stroke="rgb(179,147,78)" stroke-width="1" opacity="0.75" />
		</g>
		<g>
			<title>PF00550</title>
			<rect class="PF00550" x="806" y="18" stroke-linejoin="round" width="6" height="26" fill="rgb(103,191,88)" stroke="rgb(82,152,70)" stroke-width="1" opacity="0.75" />
		</g>
		<g>
			<title>PF13193</title>
			<rect class="PF13193" x="815" y="18" stroke-linejoin="round" width="7" height="26" fill="rgb(182,50,118)" stroke="rgb(145,39,94)" stroke-width="1" opacity="0.75" />
		</g>
		<g>
			<title>PF00501</title>
			<rect class="PF00501" x="824" y="18" stroke-linejoin="round" width="41" height="26" fill="rgb(60,217,223)" stroke="rgb(48,173,178)" stroke-width="1" opacity="0.75" />
		</g>
		<g>
			<title>PF00668</title>
			<rect class="PF00668" x="867" y="18" stroke-linejoin="round" width="45" height="26" fill="rgb(224,184,98)" stroke="rgb(179,147,78)" stroke-width="1" opacity="0.75" />
		</g>
		<g>
			<title>PF00550</title>
			<rect class="PF00550" x="914" y="18" stroke-linejoin="round" width="6" height="26" fill="rgb(103,191,88)" stroke="rgb(82,152,70)" stroke-width="1" opacity="0.75" />
		</g>
		<g>
			<title>PF08241</title>
			<rect class="PF08241" x="952" y="18" stroke-linejoin="round" width="10" height="26" fill="rgb(106,219,159)" stroke="rgb(84,175,127)" stroke-width="1" opacity="0.75" />
		</g>
		<g>
			<title>PF00501</title>
			<rect class="PF00501" x="976" y="18" stroke-linejoin="round" width="41" height="26" fill="rgb(60,217,223)" stroke="rgb(48,173,178)" stroke-width="1" opacity="0.75" />
		</g>
		<g>
			<title>PF00668</title>
			<rect class="PF00668" x="1019" y="18" stroke-linejoin="round" width="44" height="26" fill="rgb(224,184,98)" stroke="rgb(179,147,78)" stroke-width="1" opacity="0.75" />
		</g>
	</g>
	<g>
		<title>int1</title>
		<polygon class="int1" points="1104,16 1104,16 1104,1 1093,31 1104,61 1104,46 1104,46" fill="rgb(251,186,229)" fill-opacity="1.0" stroke="rgb(100,74,91)" stroke-width="1" />
		<g>
			<title>PF00665</title>
			<polygon class="PF00665" points="1095,31 1100,18 1103,18 1103,44 1100,44" stroke-linejoin="round" width="10" height="26" fill="rgb(93,64,200)" stroke="rgb(74,51,160)" stroke-width="1" opacity="0.75" />
		</g>
	</g>
</svg>
