<svg version="1.1" baseProfile="full" xmlns="http://www.w3.org/2000/svg" width="1636" height="62">
	<line x1="1" y1="31" x2="1635" y2="31" style="stroke:rgb(50,50,50); stroke-width:3 "/>
	<g>
		<title>rphK</title>
		<polygon class="rphK" points="750,16 757,16 757,1 787,31 757,61 757,46 750,46" fill="rgb(254,205,220)" fill-opacity="1.0" stroke="rgb(101,82,88)" stroke-width="1" />
		<g>
			<title>PF01370</title>
			<polygon class="PF01370" points="751,18 771,18 773,20 773,42 771,44 751,44" stroke-linejoin="round" width="22" height="26" fill="rgb(98,102,214)" stroke="rgb(78,81,171)" stroke-width="1" opacity="0.75" />
		</g>
	</g>
	<g>
		<title>rphJ</title>
		<polygon class="rphJ" points="789,16 801,16 801,1 831,31 801,61 801,46 789,46" fill="rgb(210,253,201)" fill-opacity="1.0" stroke="rgb(84,101,80)" stroke-width="1" />
		<g>
			<title>PF00975</title>
			<rect class="PF00975" x="789" y="18" stroke-linejoin="round" width="22" height="26" fill="rgb(207,80,138)" stroke="rgb(165,63,110)" stroke-width="1" opacity="0.75" />
		</g>
	</g>
	<g>
		<title>rphG2</title>
		<polygon class="rphG2" points="833,16 847,16 847,1 877,31 847,61 847,46 833,46" fill="rgb(241,254,187)" fill-opacity="1.0" stroke="rgb(96,101,74)" stroke-width="1" />
		<g>
			<title>PF00355</title>
			<rect class="PF00355" x="833" y="18" stroke-linejoin="round" width="9" height="26" fill="rgb(186,77,145)" stroke="rgb(148,61,115)" stroke-width="1" opacity="0.75" />
		</g>
		<g>
			<title>PF00848</title>
			<polygon class="PF00848" points="847,18 861,18 863,20 863,42 861,44 847,44" stroke-linejoin="round" width="16" height="26" fill="rgb(76,134,184)" stroke="rgb(60,107,147)" stroke-width="1" opacity="0.75" />
		</g>
	</g>
	<g>
		<title>rphG3</title>
		<polygon class="rphG3" points="882,16 884,16 884,1 914,31 884,61 884,46 882,46" fill="rgb(251,178,202)" fill-opacity="1.0" stroke="rgb(100,71,80)" stroke-width="1" />
	</g>
	<g>
		<title>rphG4</title>
		<polygon class="rphG4" points="915,16 921,16 921,1 951,31 921,61 921,46 915,46" fill="rgb(188,216,254)" fill-opacity="1.0" stroke="rgb(75,86,101)" stroke-width="1" />
		<g>
			<title>PF00355</title>
			<rect class="PF00355" x="915" y="18" stroke-linejoin="round" width="9" height="26" fill="rgb(186,77,145)" stroke="rgb(148,61,115)" stroke-width="1" opacity="0.75" />
		</g>
		<g>
			<title>PF00848</title>
			<polygon class="PF00848" points="924,18 935,18 941,24 941,38 935,44 924,44" stroke-linejoin="round" width="17" height="26" fill="rgb(76,134,184)" stroke="rgb(60,107,147)" stroke-width="1" opacity="0.75" />
		</g>
	</g>
	<g>
		<title>rphI</title>
		<polygon class="rphI" points="953,16 959,16 959,1 989,31 959,61 959,46 953,46" fill="rgb(253,236,200)" fill-opacity="1.0" stroke="rgb(101,94,80)" stroke-width="1" />
		<g>
			<title>PF13649</title>
			<polygon class="PF13649" points="972,18 973,18 981,26 981,36 973,44 972,44" stroke-linejoin="round" width="9" height="26" fill="rgb(227,135,74)" stroke="rgb(181,108,59)" stroke-width="1" opacity="0.75" />
		</g>
	</g>
	<g>
		<title>rphH</title>
		<polygon class="rphH" points="1002,16 1080,16 1080,1 1110,31 1080,61 1080,46 1002,46" fill="rgb(213,209,250)" fill-opacity="1.0" stroke="rgb(85,83,100)" stroke-width="1" />
		<g>
			<title>PF01326</title>
			<rect class="PF01326" x="1020" y="18" stroke-linejoin="round" width="31" height="26" fill="rgb(112,180,78)" stroke="rgb(89,144,62)" stroke-width="1" opacity="0.75" />
		</g>
		<g>
			<title>PF00391</title>
			<polygon class="PF00391" points="1101,25 1107,31 1101,37" stroke-linejoin="round" width="7" height="26" fill="rgb(206,59,219)" stroke="rgb(164,47,175)" stroke-width="1" opacity="0.75" />
		</g>
	</g>
	<g>
		<title>rphG</title>
		<polygon class="rphG" points="1114,16 1122,16 1122,1 1152,31 1122,61 1122,46 1114,46" fill="rgb(243,254,215)" fill-opacity="1.0" stroke="rgb(97,101,86)" stroke-width="1" />
		<g>
			<title>PF00355</title>
			<rect class="PF00355" x="1114" y="18" stroke-linejoin="round" width="9" height="26" fill="rgb(186,77,145)" stroke="rgb(148,61,115)" stroke-width="1" opacity="0.75" />
		</g>
		<g>
			<title>PF00848</title>
			<polygon class="PF00848" points="1129,18 1136,18 1147,29 1147,33 1136,44 1129,44" stroke-linejoin="round" width="18" height="26" fill="rgb(76,134,184)" stroke="rgb(60,107,147)" stroke-width="1" opacity="0.75" />
		</g>
	</g>
	<g>
		<title>rphZ</title>
		<polygon class="rphZ" points="1189,16 1189,16 1189,1 1167,31 1189,61 1189,46 1189,46" fill="rgb(224,253,213)" fill-opacity="1.0" stroke="rgb(89,101,85)" stroke-width="1" />
	</g>
	<g>
		<title>rphV</title>
		<polygon class="rphV" points="1241,16 1226,16 1226,1 1196,31 1226,61 1226,46 1241,46" fill="rgb(182,218,251)" fill-opacity="1.0" stroke="rgb(72,87,100)" stroke-width="1" />
	</g>
	<g>
		<title>rphY</title>
		<polygon class="rphY" points="96,16 96,16 96,1 86,31 96,61 96,46 96,46" fill="rgb(186,206,253)" fill-opacity="1.0" stroke="rgb(74,82,101)" stroke-width="1" />
		<g>
			<title>PF11639</title>
			<polygon class="PF11639" points="88,31 92,18 96,18 96,44 92,44" stroke-linejoin="round" width="10" height="26" fill="rgb(212,82,116)" stroke="rgb(169,65,92)" stroke-width="1" opacity="0.75" />
		</g>
	</g>
	<g>
		<title>rphU</title>
		<polygon class="rphU" points="1269,16 1269,16 1269,1 1241,31 1269,61 1269,46 1269,46" fill="rgb(250,203,226)" fill-opacity="1.0" stroke="rgb(100,81,90)" stroke-width="1" />
	</g>
	<g>
		<title>rphT</title>
		<polygon class="rphT" points="1299,16 1299,16 1299,1 1270,31 1299,61 1299,46 1299,46" fill="rgb(184,226,253)" fill-opacity="1.0" stroke="rgb(73,90,101)" stroke-width="1" />
	</g>
	<g>
		<title>rphP</title>
		<polygon class="rphP" points="1332,16 1336,16 1336,1 1366,31 1336,61 1336,46 1332,46" fill="rgb(203,251,225)" fill-opacity="1.0" stroke="rgb(81,100,90)" stroke-width="1" />
		<g>
			<title>PF08545</title>
			<rect class="PF08545" x="1342" y="18" stroke-linejoin="round" width="8" height="26" fill="rgb(189,102,84)" stroke="rgb(151,81,67)" stroke-width="1" opacity="0.75" />
		</g>
		<g>
			<title>PF08541</title>
			<polygon class="PF08541" points="1356,24 1363,31 1356,38" stroke-linejoin="round" width="8" height="26" fill="rgb(146,207,81)" stroke="rgb(116,165,64)" stroke-width="1" opacity="0.75" />
		</g>
	</g>
	<g>
		<title>rphO</title>
		<polygon class="rphO" points="1369,16 1369,16 1369,1 1378,31 1369,61 1369,46 1369,46" fill="rgb(250,208,245)" fill-opacity="1.0" stroke="rgb(100,83,98)" stroke-width="1" />
	</g>
	<g>
		<title>rphN</title>
		<polygon class="rphN" points="1378,16 1411,16 1411,1 1441,31 1411,61 1411,46 1378,46" fill="rgb(201,253,230)" fill-opacity="1.0" stroke="rgb(80,101,92)" stroke-width="1" />
		<g>
			<title>PF00550</title>
			<rect class="PF00550" x="1388" y="18" stroke-linejoin="round" width="6" height="26" fill="rgb(103,191,88)" stroke="rgb(82,152,70)" stroke-width="1" opacity="0.75" />
		</g>
		<g>
			<title>PF00155</title>
			<polygon class="PF00155" points="1405,18 1425,18 1438,31 1425,44 1405,44" stroke-linejoin="round" width="34" height="26" fill="rgb(89,113,198)" stroke="rgb(71,90,158)" stroke-width="1" opacity="0.75" />
		</g>
	</g>
	<g>
		<title>rphW</title>
		<polygon class="rphW" points="140,16 130,16 130,1 100,31 130,61 130,46 140,46" fill="rgb(252,235,207)" fill-opacity="1.0" stroke="rgb(100,93,82)" stroke-width="1" />
		<g>
			<title>PF00441</title>
			<polygon class="PF00441" points="102,31 115,18 115,43" stroke-linejoin="round" width="14" height="26" fill="rgb(85,191,117)" stroke="rgb(68,152,93)" stroke-width="1" opacity="0.75" />
		</g>
		<g>
			<title>PF02770</title>
			<rect class="PF02770" x="117" y="18" stroke-linejoin="round" width="9" height="26" fill="rgb(225,186,97)" stroke="rgb(180,148,77)" stroke-width="1" opacity="0.75" />
		</g>
		<g>
			<title>PF02771</title>
			<rect class="PF02771" x="127" y="18" stroke-linejoin="round" width="12" height="26" fill="rgb(105,135,218)" stroke="rgb(84,108,174)" stroke-width="1" opacity="0.75" />
		</g>
	</g>
	<g>
		<title>rphX</title>
		<polygon class="rphX" points="232,16 170,16 170,1 140,31 170,61 170,46 232,46" fill="rgb(193,250,248)" fill-opacity="1.0" stroke="rgb(77,100,99)" stroke-width="1" />
		<g>
			<title>PF02801</title>
			<polygon class="PF02801" points="145,28 155,18 156,18 156,44 155,44 145,33" stroke-linejoin="round" width="11" height="26" fill="rgb(215,78,102)" stroke="rgb(172,62,81)" stroke-width="1" opacity="0.75" />
		</g>
		<g>
			<title>PF00109</title>
			<rect class="PF00109" x="157" y="18" stroke-linejoin="round" width="30" height="26" fill="rgb(112,116,228)" stroke="rgb(89,92,182)" stroke-width="1" opacity="0.75" />
		</g>
		<g>
			<title>PF02801</title>
			<rect class="PF02801" x="194" y="18" stroke-linejoin="round" width="10" height="26" fill="rgb(215,78,102)" stroke="rgb(172,62,81)" stroke-width="1" opacity="0.75" />
		</g>
		<g>
			<title>PF00109</title>
			<rect class="PF00109" x="206" y="18" stroke-linejoin="round" width="24" height="26" fill="rgb(112,116,228)" stroke="rgb(89,92,182)" stroke-width="1" opacity="0.75" />
		</g>
	</g>
	<g>
		<title>rphD</title>
		<polygon class="rphD" points="263,16 263,16 263,1 238,31 263,61 263,46 263,46" fill="rgb(234,199,254)" fill-opacity="1.0" stroke="rgb(93,79,101)" stroke-width="1" />
		<g>
			<title>PF03704</title>
			<polygon class="PF03704" points="240,31 251,18 254,18 254,44 251,44" stroke-linejoin="round" width="14" height="26" fill="rgb(217,89,196)" stroke="rgb(173,71,156)" stroke-width="1" opacity="0.75" />
		</g>
	</g>
	<g>
		<title>rphA1</title>
		<polygon class="rphA1" points="359,16 312,16 312,1 282,31 312,61 312,46 359,46" fill="rgb(252,179,227)" fill-opacity="1.0" stroke="rgb(100,71,90)" stroke-width="1" />
		<g>
			<title>PF02687</title>
			<polygon class="PF02687" points="284,31 294,21 294,40" stroke-linejoin="round" width="11" height="26" fill="rgb(126,55,214)" stroke="rgb(100,44,171)" stroke-width="1" opacity="0.75" />
		</g>
		<g>
			<title>PF02687</title>
			<rect class="PF02687" x="321" y="18" stroke-linejoin="round" width="12" height="26" fill="rgb(126,55,214)" stroke="rgb(100,44,171)" stroke-width="1" opacity="0.75" />
		</g>
		<g>
			<title>PF12704</title>
			<rect class="PF12704" x="336" y="18" stroke-linejoin="round" width="21" height="26" fill="rgb(79,76,190)" stroke="rgb(63,60,152)" stroke-width="1" opacity="0.75" />
		</g>
	</g>
	<g>
		<title>rphA2</title>
		<polygon class="rphA2" points="384,16 384,16 384,1 360,31 384,61 384,46 384,46" fill="rgb(200,251,232)" fill-opacity="1.0" stroke="rgb(80,100,92)" stroke-width="1" />
		<g>
			<title>PF00005</title>
			<polygon class="PF00005" points="366,26 372,18 380,18 380,44 372,44 366,35" stroke-linejoin="round" width="14" height="26" fill="rgb(129,201,63)" stroke="rgb(103,160,50)" stroke-width="1" opacity="0.75" />
		</g>
	</g>
	<g>
		<title>rphA3</title>
		<polygon class="rphA3" points="410,16 410,16 410,1 388,31 410,61 410,46 410,46" fill="rgb(250,252,177)" fill-opacity="1.0" stroke="rgb(100,100,70)" stroke-width="1" />
		<g>
			<title>PF13977</title>
			<polygon class="PF13977" points="392,28 400,18 401,18 401,44 400,44 392,33" stroke-linejoin="round" width="9" height="26" fill="rgb(99,210,174)" stroke="rgb(79,168,139)" stroke-width="1" opacity="0.75" />
		</g>
		<g>
			<title>PF00440</title>
			<rect class="PF00440" x="404" y="18" stroke-linejoin="round" width="4" height="26" fill="rgb(73,212,190)" stroke="rgb(58,169,152)" stroke-width="1" opacity="0.75" />
		</g>
	</g>
	<g>
		<title>rphM</title>
		<polygon class="rphM" points="444,16 476,16 476,1 506,31 476,61 476,46 444,46" fill="rgb(252,214,204)" fill-opacity="1.0" stroke="rgb(100,85,81)" stroke-width="1" />
		<g>
			<title>PF00501</title>
			<rect class="PF00501" x="445" y="18" stroke-linejoin="round" width="42" height="26" fill="rgb(60,217,223)" stroke="rgb(48,173,178)" stroke-width="1" opacity="0.75" />
		</g>
		<g>
			<title>PF13193</title>
			<polygon class="PF13193" points="488,18 490,18 496,24 496,38 490,44 488,44" stroke-linejoin="round" width="8" height="26" fill="rgb(182,50,118)" stroke="rgb(145,39,94)" stroke-width="1" opacity="0.75" />
		</g>
	</g>
	<g>
		<title>rphL</title>
		<polygon class="rphL" points="510,16 720,16 720,1 750,31 720,61 720,46 510,46" fill="rgb(192,250,235)" fill-opacity="1.0" stroke="rgb(76,100,93)" stroke-width="1" />
		<g>
			<title>PF00501</title>
			<rect class="PF00501" x="510" y="18" stroke-linejoin="round" width="40" height="26" fill="rgb(60,217,223)" stroke="rgb(48,173,178)" stroke-width="1" opacity="0.75" />
		</g>
		<g>
			<title>PF00550</title>
			<rect class="PF00550" x="576" y="18" stroke-linejoin="round" width="6" height="26" fill="rgb(103,191,88)" stroke="rgb(82,152,70)" stroke-width="1" opacity="0.75" />
		</g>
		<g>
			<title>PF00109</title>
			<rect class="PF00109" x="586" y="18" stroke-linejoin="round" width="23" height="26" fill="rgb(112,116,228)" stroke="rgb(89,92,182)" stroke-width="1" opacity="0.75" />
		</g>
		<g>
			<title>PF02801</title>
			<rect class="PF02801" x="611" y="18" stroke-linejoin="round" width="11" height="26" fill="rgb(215,78,102)" stroke="rgb(172,62,81)" stroke-width="1" opacity="0.75" />
		</g>
		<g>
			<title>PF16197</title>
			<rect class="PF16197" x="623" y="18" stroke-linejoin="round" width="12" height="26" fill="rgb(68,179,89)" stroke="rgb(54,143,71)" stroke-width="1" opacity="0.75" />
		</g>
		<g>
			<title>PF00698</title>
			<rect class="PF00698" x="640" y="18" stroke-linejoin="round" width="32" height="26" fill="rgb(59,176,209)" stroke="rgb(47,140,167)" stroke-width="1" opacity="0.75" />
		</g>
		<g>
			<title>PF00155</title>
			<polygon class="PF00155" points="715,18 734,18 747,31 734,44 715,44" stroke-linejoin="round" width="34" height="26" fill="rgb(89,113,198)" stroke="rgb(71,90,158)" stroke-width="1" opacity="0.75" />
		</g>
	</g>
</svg>
