<svg version="1.1" baseProfile="full" xmlns="http://www.w3.org/2000/svg" width="585" height="62">
	<line x1="1" y1="31" x2="584" y2="31" style="stroke:rgb(50,50,50); stroke-width:3 "/>
	<g>
		<title>rebU</title>
		<polygon class="rebU" points="469,16 481,16 481,1 511,31 481,61 481,46 469,46" fill="rgb(254,184,197)" fill-opacity="1.0" stroke="rgb(101,73,78)" stroke-width="1" />
		<g>
			<title>PF00999</title>
			<polygon class="PF00999" points="470,18 495,18 508,31 508,31 495,44 470,44" stroke-linejoin="round" width="38" height="26" fill="rgb(229,67,191)" stroke="rgb(183,53,152)" stroke-width="1" opacity="0.75" />
		</g>
	</g>
	<g>
		<title>rebH</title>
		<polygon class="rebH" points="511,16 534,16 534,1 564,31 534,61 534,46 511,46" fill="rgb(198,254,214)" fill-opacity="1.0" stroke="rgb(79,101,85)" stroke-width="1" />
		<g>
			<title>PF04820</title>
			<polygon class="PF04820" points="511,18 548,18 559,29 559,33 548,44 511,44" stroke-linejoin="round" width="48" height="26" fill="rgb(179,74,194)" stroke="rgb(143,59,155)" stroke-width="1" opacity="0.75" />
		</g>
	</g>
	<g>
		<title>orf6</title>
		<polygon class="orf6" points="1,16 1,16 1,1 28,31 1,61 1,46 1,46" fill="rgb(187,250,206)" fill-opacity="1.0" stroke="rgb(74,100,82)" stroke-width="1" />
		<g>
			<title>PF01557</title>
			<polygon class="PF01557" points="4,18 13,18 25,31 25,31 13,44 4,44" stroke-linejoin="round" width="21" height="26" fill="rgb(71,203,125)" stroke="rgb(56,162,100)" stroke-width="1" opacity="0.75" />
		</g>
	</g>
	<g>
		<title>rebG</title>
		<polygon class="rebG" points="72,16 60,16 60,1 30,31 60,61 60,46 72,46" fill="rgb(187,208,251)" fill-opacity="1.0" stroke="rgb(74,83,100)" stroke-width="1" />
		<g>
			<title>PF00201</title>
			<polygon class="PF00201" points="32,31 45,18 56,18 56,44 45,44" stroke-linejoin="round" width="26" height="26" fill="rgb(225,150,107)" stroke="rgb(180,120,85)" stroke-width="1" opacity="0.75" />
		</g>
	</g>
	<g>
		<title>rebO</title>
		<polygon class="rebO" points="79,16 96,16 96,1 126,31 96,61 96,46 79,46" fill="rgb(191,183,252)" fill-opacity="1.0" stroke="rgb(76,73,100)" stroke-width="1" />
		<g>
			<title>PF01593</title>
			<polygon class="PF01593" points="80,18 110,18 123,31 110,44 80,44" stroke-linejoin="round" width="45" height="26" fill="rgb(184,74,52)" stroke="rgb(147,59,41)" stroke-width="1" opacity="0.75" />
		</g>
	</g>
	<g>
		<title>rebD</title>
		<polygon class="rebD" points="127,16 198,16 198,1 228,31 198,61 198,46 127,46" fill="rgb(208,187,250)" fill-opacity="1.0" stroke="rgb(83,74,100)" stroke-width="1" />
		<g>
			<title>PF12902</title>
			<rect class="PF12902" x="187" y="18" stroke-linejoin="round" width="24" height="26" fill="rgb(159,71,195)" stroke="rgb(127,56,156)" stroke-width="1" opacity="0.75" />
		</g>
	</g>
	<g>
		<title>rebC</title>
		<polygon class="rebC" points="228,16 251,16 251,1 281,31 251,61 251,46 228,46" fill="rgb(238,250,194)" fill-opacity="1.0" stroke="rgb(95,100,77)" stroke-width="1" />
		<g>
			<title>PF01494</title>
			<rect class="PF01494" x="228" y="18" stroke-linejoin="round" width="34" height="26" fill="rgb(182,175,59)" stroke="rgb(145,140,47)" stroke-width="1" opacity="0.75" />
		</g>
	</g>
	<g>
		<title>rebP</title>
		<polygon class="rebP" points="281,16 290,16 290,1 320,31 290,61 290,46 281,46" fill="rgb(253,236,197)" fill-opacity="1.0" stroke="rgb(101,94,78)" stroke-width="1" />
		<g>
			<title>PF00067</title>
			<polygon class="PF00067" points="298,18 304,18 307,21 307,41 304,44 298,44" stroke-linejoin="round" width="9" height="26" fill="rgb(85,216,107)" stroke="rgb(68,172,85)" stroke-width="1" opacity="0.75" />
		</g>
		<g>
			<title>PF00067</title>
			<polygon class="PF00067" points="307,21 317,31 307,41" stroke-linejoin="round" width="11" height="26" fill="rgb(85,216,107)" stroke="rgb(68,172,85)" stroke-width="1" opacity="0.75" />
		</g>
	</g>
	<g>
		<title>rebM</title>
		<polygon class="rebM" points="321,16 321,16 321,1 348,31 321,61 321,46 321,46" fill="rgb(251,221,212)" fill-opacity="1.0" stroke="rgb(100,88,84)" stroke-width="1" />
		<g>
			<title>PF08241</title>
			<polygon class="PF08241" points="327,18 333,18 336,21 336,41 333,44 327,44" stroke-linejoin="round" width="9" height="26" fill="rgb(106,219,159)" stroke="rgb(84,175,127)" stroke-width="1" opacity="0.75" />
		</g>
	</g>
	<g>
		<title>rebR</title>
		<polygon class="rebR" points="360,16 422,16 422,1 452,31 422,61 422,46 360,46" fill="rgb(254,201,232)" fill-opacity="1.0" stroke="rgb(101,80,92)" stroke-width="1" />
		<g>
			<title>PF13191</title>
			<rect class="PF13191" x="363" y="18" stroke-linejoin="round" width="15" height="26" fill="rgb(186,102,77)" stroke="rgb(148,81,61)" stroke-width="1" opacity="0.75" />
		</g>
		<g>
			<title>PF00196</title>
			<polygon class="PF00196" points="446,28 449,31 446,34" stroke-linejoin="round" width="5" height="26" fill="rgb(219,94,82)" stroke="rgb(175,75,65)" stroke-width="1" opacity="0.75" />
		</g>
	</g>
	<g>
		<title>rebF</title>
		<polygon class="rebF" points="452,16 452,16 452,1 469,31 452,61 452,46 452,46" fill="rgb(248,253,197)" fill-opacity="1.0" stroke="rgb(99,101,78)" stroke-width="1" />
		<g>
			<title>PF01613</title>
			<polygon class="PF01613" points="454,18 459,18 466,31 459,44 454,44" stroke-linejoin="round" width="14" height="26" fill="rgb(107,197,222)" stroke="rgb(85,157,177)" stroke-width="1" opacity="0.75" />
		</g>
	</g>
</svg>
