<svg version="1.1" baseProfile="full" xmlns="http://www.w3.org/2000/svg" width="719" height="62">
	<line x1="1" y1="31" x2="718" y2="31" style="stroke:rgb(50,50,50); stroke-width:3 "/>
	<g>
		<title>wzy</title>
		<polygon class="wzy" points="337,16 339,16 339,1 369,31 339,61 339,46 337,46" fill="rgb(252,220,203)" fill-opacity="1.0" stroke="rgb(100,88,81)" stroke-width="1" />
		<g>
			<title>PF14897</title>
			<polygon class="PF14897" points="337,18 353,18 366,31 353,44 337,44" stroke-linejoin="round" width="31" height="26" fill="rgb(148,193,88)" stroke="rgb(118,154,70)" stroke-width="1" opacity="0.75" />
		</g>
	</g>
	<g>
		<title>wzx</title>
		<polygon class="wzx" points="371,16 383,16 383,1 413,31 383,61 383,46 371,46" fill="rgb(235,180,250)" fill-opacity="1.0" stroke="rgb(93,72,100)" stroke-width="1" />
		<g>
			<title>PF01943</title>
			<polygon class="PF01943" points="372,18 397,18 400,21 400,41 397,44 372,44" stroke-linejoin="round" width="28" height="26" fill="rgb(71,213,101)" stroke="rgb(56,170,80)" stroke-width="1" opacity="0.75" />
		</g>
	</g>
	<g>
		<title>wbdO</title>
		<polygon class="wbdO" points="413,16 413,16 413,1 439,31 413,61 413,46 413,46" fill="rgb(207,250,228)" fill-opacity="1.0" stroke="rgb(82,100,91)" stroke-width="1" />
		<g>
			<title>PF00535</title>
			<polygon class="PF00535" points="414,18 425,18 430,24 430,38 425,44 414,44" stroke-linejoin="round" width="16" height="26" fill="rgb(224,122,96)" stroke="rgb(179,97,76)" stroke-width="1" opacity="0.75" />
		</g>
	</g>
	<g>
		<title>wbdP</title>
		<polygon class="wbdP" points="446,16 446,16 446,1 464,31 446,61 446,46 446,46" fill="rgb(251,192,242)" fill-opacity="1.0" stroke="rgb(100,76,96)" stroke-width="1" />
		<g>
			<title>PF10111</title>
			<polygon class="PF10111" points="446,18 453,18 460,29 460,33 453,44 446,44" stroke-linejoin="round" width="14" height="26" fill="rgb(77,210,64)" stroke="rgb(61,168,51)" stroke-width="1" opacity="0.75" />
		</g>
	</g>
	<g>
		<title>gnd</title>
		<polygon class="gnd" points="467,16 483,16 483,1 513,31 483,61 483,46 467,46" fill="rgb(187,253,229)" fill-opacity="1.0" stroke="rgb(74,101,91)" stroke-width="1" />
		<g>
			<title>PF03446</title>
			<rect class="PF03446" x="467" y="18" stroke-linejoin="round" width="16" height="26" fill="rgb(205,164,98)" stroke="rgb(164,131,78)" stroke-width="1" opacity="0.75" />
		</g>
		<g>
			<title>PF00393</title>
			<polygon class="PF00393" points="484,18 497,18 510,31 497,44 484,44" stroke-linejoin="round" width="28" height="26" fill="rgb(57,119,210)" stroke="rgb(45,95,168)" stroke-width="1" opacity="0.75" />
		</g>
	</g>
	<g>
		<title>col1</title>
		<polygon class="col1" points="518,16 518,16 518,1 548,31 518,61 518,46 518,46" fill="rgb(240,254,211)" fill-opacity="1.0" stroke="rgb(96,101,84)" stroke-width="1" />
		<g>
			<title>PF01370</title>
			<polygon class="PF01370" points="518,18 532,18 541,27 541,35 532,44 518,44" stroke-linejoin="round" width="23" height="26" fill="rgb(98,102,214)" stroke="rgb(78,81,171)" stroke-width="1" opacity="0.75" />
		</g>
	</g>
	<g>
		<title>col2</title>
		<polygon class="col2" points="549,16 557,16 557,1 587,31 557,61 557,46 549,46" fill="rgb(207,254,182)" fill-opacity="1.0" stroke="rgb(82,101,72)" stroke-width="1" />
		<g>
			<title>PF01041</title>
			<polygon class="PF01041" points="550,18 571,18 584,31 571,44 550,44" stroke-linejoin="round" width="36" height="26" fill="rgb(59,139,191)" stroke="rgb(47,111,152)" stroke-width="1" opacity="0.75" />
		</g>
	</g>
	<g>
		<title>ugd</title>
		<polygon class="ugd" points="624,16 632,16 632,1 662,31 632,61 632,46 624,46" fill="rgb(237,254,195)" fill-opacity="1.0" stroke="rgb(94,101,77)" stroke-width="1" />
		<g>
			<title>PF03721</title>
			<rect class="PF03721" x="624" y="18" stroke-linejoin="round" width="17" height="26" fill="rgb(156,194,58)" stroke="rgb(124,155,46)" stroke-width="1" opacity="0.75" />
		</g>
		<g>
			<title>PF00984</title>
			<polygon class="PF00984" points="643,18 646,18 652,24 652,38 646,44 643,44" stroke-linejoin="round" width="9" height="26" fill="rgb(69,189,184)" stroke="rgb(55,151,147)" stroke-width="1" opacity="0.75" />
		</g>
	</g>
	<g>
		<title>wzz</title>
		<polygon class="wzz" points="667,16 667,16 667,1 696,31 667,61 667,46 667,46" fill="rgb(181,252,219)" fill-opacity="1.0" stroke="rgb(72,100,87)" stroke-width="1" />
		<g>
			<title>PF02706</title>
			<polygon class="PF02706" points="668,18 680,18 690,28 690,34 680,44 668,44" stroke-linejoin="round" width="22" height="26" fill="rgb(184,132,90)" stroke="rgb(147,105,72)" stroke-width="1" opacity="0.75" />
		</g>
	</g>
	<g>
		<title>hisI</title>
		<polygon class="hisI" points="703,16 703,16 703,1 712,31 703,61 703,46 703,46" fill="rgb(254,196,250)" fill-opacity="1.0" stroke="rgb(101,78,100)" stroke-width="1" />
	</g>
	<g>
		<title>gne</title>
		<polygon class="gne" points="7,16 10,16 10,1 40,31 10,61 10,46 7,46" fill="rgb(205,254,207)" fill-opacity="1.0" stroke="rgb(82,101,82)" stroke-width="1" />
		<g>
			<title>PF01370</title>
			<polygon class="PF01370" points="7,18 24,18 28,22 28,40 24,44 7,44" stroke-linejoin="round" width="21" height="26" fill="rgb(98,102,214)" stroke="rgb(78,81,171)" stroke-width="1" opacity="0.75" />
		</g>
	</g>
	<g>
		<title>galF</title>
		<polygon class="galF" points="49,16 49,16 49,1 78,31 49,61 49,46 49,46" fill="rgb(253,238,199)" fill-opacity="1.0" stroke="rgb(101,95,79)" stroke-width="1" />
		<g>
			<title>PF00483</title>
			<polygon class="PF00483" points="49,18 62,18 75,31 62,44 49,44" stroke-linejoin="round" width="27" height="26" fill="rgb(198,101,87)" stroke="rgb(158,80,69)" stroke-width="1" opacity="0.75" />
		</g>
	</g>
	<g>
		<title>wbdM</title>
		<polygon class="wbdM" points="92,16 99,16 99,1 129,31 99,61 99,46 92,46" fill="rgb(202,210,253)" fill-opacity="1.0" stroke="rgb(80,84,101)" stroke-width="1" />
		<g>
			<title>PF13439</title>
			<rect class="PF13439" x="93" y="18" stroke-linejoin="round" width="16" height="26" fill="rgb(162,57,186)" stroke="rgb(129,45,148)" stroke-width="1" opacity="0.75" />
		</g>
		<g>
			<title>PF00534</title>
			<polygon class="PF00534" points="110,18 113,18 126,31 126,31 113,44 110,44" stroke-linejoin="round" width="16" height="26" fill="rgb(228,92,150)" stroke="rgb(182,73,119)" stroke-width="1" opacity="0.75" />
		</g>
	</g>
	<g>
		<title>gmd</title>
		<polygon class="gmd" points="129,16 136,16 136,1 166,31 136,61 136,46 129,46" fill="rgb(197,187,251)" fill-opacity="1.0" stroke="rgb(78,74,100)" stroke-width="1" />
		<g>
			<title>PF16363</title>
			<polygon class="PF16363" points="129,18 150,18 163,31 163,31 150,44 129,44" stroke-linejoin="round" width="34" height="26" fill="rgb(162,221,65)" stroke="rgb(129,176,51)" stroke-width="1" opacity="0.75" />
		</g>
	</g>
	<g>
		<title>fcl</title>
		<polygon class="fcl" points="173,16 173,16 173,1 196,31 173,61 173,46 173,46" fill="rgb(253,238,203)" fill-opacity="1.0" stroke="rgb(101,95,81)" stroke-width="1" />
		<g>
			<title>PF01370</title>
			<polygon class="PF01370" points="173,18 183,18 189,26 189,36 183,44 173,44" stroke-linejoin="round" width="16" height="26" fill="rgb(98,102,214)" stroke="rgb(78,81,171)" stroke-width="1" opacity="0.75" />
		</g>
	</g>
	<g>
		<title>gmm</title>
		<polygon class="gmm" points="197,16 197,16 197,1 213,31 197,61 197,46 197,46" fill="rgb(212,204,250)" fill-opacity="1.0" stroke="rgb(84,81,100)" stroke-width="1" />
		<g>
			<title>PF00293</title>
			<polygon class="PF00293" points="198,18 203,18 210,31 203,44 198,44" stroke-linejoin="round" width="13" height="26" fill="rgb(92,56,187)" stroke="rgb(73,44,149)" stroke-width="1" opacity="0.75" />
		</g>
	</g>
	<g>
		<title>manC</title>
		<polygon class="manC" points="214,16 232,16 232,1 262,31 232,61 232,46 214,46" fill="rgb(252,232,183)" fill-opacity="1.0" stroke="rgb(100,92,73)" stroke-width="1" />
		<g>
			<title>PF00483</title>
			<rect class="PF00483" x="214" y="18" stroke-linejoin="round" width="29" height="26" fill="rgb(198,101,87)" stroke="rgb(158,80,69)" stroke-width="1" opacity="0.75" />
		</g>
		<g>
			<title>PF01050</title>
			<polygon class="PF01050" points="246,18 246,18 259,31 246,44 246,44" stroke-linejoin="round" width="15" height="26" fill="rgb(53,184,51)" stroke="rgb(42,147,40)" stroke-width="1" opacity="0.75" />
		</g>
	</g>
	<g>
		<title>manB</title>
		<polygon class="manB" points="262,16 278,16 278,1 308,31 278,61 278,46 262,46" fill="rgb(191,222,253)" fill-opacity="1.0" stroke="rgb(76,88,101)" stroke-width="1" />
		<g>
			<title>PF02878</title>
			<rect class="PF02878" x="262" y="18" stroke-linejoin="round" width="13" height="26" fill="rgb(217,133,102)" stroke="rgb(173,106,81)" stroke-width="1" opacity="0.75" />
		</g>
		<g>
			<title>PF02879</title>
			<rect class="PF02879" x="277" y="18" stroke-linejoin="round" width="10" height="26" fill="rgb(192,221,60)" stroke="rgb(153,176,48)" stroke-width="1" opacity="0.75" />
		</g>
		<g>
			<title>PF02880</title>
			<polygon class="PF02880" points="288,18 292,18 299,25 299,37 292,44 288,44" stroke-linejoin="round" width="11" height="26" fill="rgb(67,204,90)" stroke="rgb(53,163,72)" stroke-width="1" opacity="0.75" />
		</g>
		<g>
			<title>PF00408</title>
			<polygon class="PF00408" points="299,25 305,31 299,37" stroke-linejoin="round" width="7" height="26" fill="rgb(74,205,143)" stroke="rgb(59,164,114)" stroke-width="1" opacity="0.75" />
		</g>
	</g>
	<g>
		<title>wbdN</title>
		<polygon class="wbdN" points="308,16 308,16 308,1 336,31 308,61 308,46 308,46" fill="rgb(201,223,251)" fill-opacity="1.0" stroke="rgb(80,89,100)" stroke-width="1" />
		<g>
			<title>PF01531</title>
			<polygon class="PF01531" points="308,18 321,18 333,31 321,44 308,44" stroke-linejoin="round" width="28" height="26" fill="rgb(101,92,208)" stroke="rgb(80,73,166)" stroke-width="1" opacity="0.75" />
		</g>
	</g>
</svg>
