<svg version="1.1" baseProfile="full" xmlns="http://www.w3.org/2000/svg" width="1152" height="62">
	<line x1="1" y1="31" x2="1151" y2="31" style="stroke:rgb(50,50,50); stroke-width:3 "/>
	<g>
		<title>wcfT</title>
		<polygon class="wcfT" points="350,16 362,16 362,1 392,31 362,61 362,46 350,46" fill="rgb(193,247,252)" fill-opacity="1.0" stroke="rgb(77,98,100)" stroke-width="1" />
	</g>
	<g>
		<title>wcfU</title>
		<polygon class="wcfU" points="392,16 392,16 392,1 416,31 392,61 392,46 392,46" fill="rgb(180,252,190)" fill-opacity="1.0" stroke="rgb(72,100,76)" stroke-width="1" />
		<g>
			<title>PF12804</title>
			<polygon class="PF12804" points="392,18 403,18 408,25 408,37 403,44 392,44" stroke-linejoin="round" width="16" height="26" fill="rgb(52,209,196)" stroke="rgb(41,167,156)" stroke-width="1" opacity="0.75" />
		</g>
	</g>
	<g>
		<title>aepX</title>
		<polygon class="aepX" points="417,16 430,16 430,1 460,31 430,61 430,46 417,46" fill="rgb(195,254,243)" fill-opacity="1.0" stroke="rgb(77,101,97)" stroke-width="1" />
		<g>
			<title>PF01467</title>
			<rect class="PF01467" x="417" y="18" stroke-linejoin="round" width="13" height="26" fill="rgb(110,215,57)" stroke="rgb(88,172,45)" stroke-width="1" opacity="0.75" />
		</g>
		<g>
			<title>PF13714</title>
			<polygon class="PF13714" points="431,18 444,18 456,30 456,32 444,44 431,44" stroke-linejoin="round" width="25" height="26" fill="rgb(215,91,155)" stroke="rgb(172,72,123)" stroke-width="1" opacity="0.75" />
		</g>
	</g>
	<g>
		<title>aepY</title>
		<polygon class="aepY" points="461,16 468,16 468,1 498,31 468,61 468,46 461,46" fill="rgb(254,198,247)" fill-opacity="1.0" stroke="rgb(101,79,98)" stroke-width="1" />
		<g>
			<title>PF02776</title>
			<rect class="PF02776" x="461" y="18" stroke-linejoin="round" width="16" height="26" fill="rgb(55,81,185)" stroke="rgb(44,64,148)" stroke-width="1" opacity="0.75" />
		</g>
		<g>
			<title>PF02775</title>
			<polygon class="PF02775" points="481,18 482,18 494,30 494,32 482,44 481,44" stroke-linejoin="round" width="13" height="26" fill="rgb(156,179,45)" stroke="rgb(124,143,36)" stroke-width="1" opacity="0.75" />
		</g>
	</g>
	<g>
		<title>aepZ</title>
		<polygon class="aepZ" points="498,16 504,16 504,1 534,31 504,61 504,46 498,46" fill="rgb(252,203,198)" fill-opacity="1.0" stroke="rgb(100,81,79)" stroke-width="1" />
		<g>
			<title>PF00266</title>
			<polygon class="PF00266" points="499,18 518,18 531,31 531,31 518,44 499,44" stroke-linejoin="round" width="32" height="26" fill="rgb(214,54,122)" stroke="rgb(171,43,97)" stroke-width="1" opacity="0.75" />
		</g>
	</g>
	<g>
		<title>wzx</title>
		<polygon class="wzx" points="536,16 555,16 555,1 585,31 555,61 555,46 536,46" fill="rgb(235,180,250)" fill-opacity="1.0" stroke="rgb(93,72,100)" stroke-width="1" />
		<g>
			<title>PF13440</title>
			<rect class="PF13440" x="545" y="18" stroke-linejoin="round" width="24" height="26" fill="rgb(90,196,165)" stroke="rgb(72,156,132)" stroke-width="1" opacity="0.75" />
		</g>
	</g>
	<g>
		<title>wcfV</title>
		<polygon class="wcfV" points="586,16 594,16 594,1 624,31 594,61 594,46 586,46" fill="rgb(251,179,202)" fill-opacity="1.0" stroke="rgb(100,71,80)" stroke-width="1" />
	</g>
	<g>
		<title>wcfW</title>
		<polygon class="wcfW" points="624,16 624,16 624,1 653,31 624,61 624,46 624,46" fill="rgb(210,252,180)" fill-opacity="1.0" stroke="rgb(84,100,72)" stroke-width="1" />
		<g>
			<title>PF01531</title>
			<polygon class="PF01531" points="632,18 637,18 650,31 637,44 632,44" stroke-linejoin="round" width="20" height="26" fill="rgb(101,92,208)" stroke="rgb(80,73,166)" stroke-width="1" opacity="0.75" />
		</g>
	</g>
	<g>
		<title>wcfX</title>
		<polygon class="wcfX" points="653,16 658,16 658,1 688,31 658,61 658,46 653,46" fill="rgb(253,227,181)" fill-opacity="1.0" stroke="rgb(101,90,72)" stroke-width="1" />
		<g>
			<title>PF01370</title>
			<polygon class="PF01370" points="653,18 672,18 680,26 680,36 672,44 653,44" stroke-linejoin="round" width="27" height="26" fill="rgb(98,102,214)" stroke="rgb(78,81,171)" stroke-width="1" opacity="0.75" />
		</g>
	</g>
	<g>
		<title>wcfY</title>
		<polygon class="wcfY" points="688,16 702,16 702,1 732,31 702,61 702,46 688,46" fill="rgb(254,191,203)" fill-opacity="1.0" stroke="rgb(101,76,81)" stroke-width="1" />
		<g>
			<title>PF03721</title>
			<rect class="PF03721" x="688" y="18" stroke-linejoin="round" width="18" height="26" fill="rgb(156,194,58)" stroke="rgb(124,155,46)" stroke-width="1" opacity="0.75" />
		</g>
		<g>
			<title>PF00984</title>
			<polygon class="PF00984" points="708,18 716,18 717,19 717,43 716,44 708,44" stroke-linejoin="round" width="9" height="26" fill="rgb(69,189,184)" stroke="rgb(55,151,147)" stroke-width="1" opacity="0.75" />
		</g>
		<g>
			<title>PF03720</title>
			<polygon class="PF03720" points="720,22 729,31 720,40" stroke-linejoin="round" width="10" height="26" fill="rgb(221,130,74)" stroke="rgb(176,103,59)" stroke-width="1" opacity="0.75" />
		</g>
	</g>
	<g>
		<polygon class="NoName" points="46,16 38,16 38,1 8,31 38,61 38,46 46,46" fill="rgb(255,255,255)" fill-opacity="1.0" stroke="rgb(50,50,50)" stroke-width="1" />
	</g>
	<g>
		<title>wcfZ</title>
		<polygon class="wcfZ" points="742,16 746,16 746,1 776,31 746,61 746,46 742,46" fill="rgb(252,220,204)" fill-opacity="1.0" stroke="rgb(100,88,81)" stroke-width="1" />
		<g>
			<title>PF00535</title>
			<rect class="PF00535" x="743" y="18" stroke-linejoin="round" width="15" height="26" fill="rgb(224,122,96)" stroke="rgb(179,97,76)" stroke-width="1" opacity="0.75" />
		</g>
	</g>
	<g>
		<title>wcgQ</title>
		<polygon class="wcgQ" points="777,16 781,16 781,1 811,31 781,61 781,46 777,46" fill="rgb(179,251,185)" fill-opacity="1.0" stroke="rgb(71,100,74)" stroke-width="1" />
		<g>
			<title>PF00535</title>
			<rect class="PF00535" x="778" y="18" stroke-linejoin="round" width="13" height="26" fill="rgb(224,122,96)" stroke="rgb(179,97,76)" stroke-width="1" opacity="0.75" />
		</g>
	</g>
	<g>
		<title>wzy</title>
		<polygon class="wzy" points="811,16 818,16 818,1 848,31 818,61 818,46 811,46" fill="rgb(252,220,203)" fill-opacity="1.0" stroke="rgb(100,88,81)" stroke-width="1" />
	</g>
	<g>
		<title>wcgR</title>
		<polygon class="wcgR" points="848,16 855,16 855,1 885,31 855,61 855,46 848,46" fill="rgb(206,240,253)" fill-opacity="1.0" stroke="rgb(82,96,101)" stroke-width="1" />
		<g>
			<title>PF13439</title>
			<rect class="PF13439" x="849" y="18" stroke-linejoin="round" width="16" height="26" fill="rgb(162,57,186)" stroke="rgb(129,45,148)" stroke-width="1" opacity="0.75" />
		</g>
		<g>
			<title>PF13692</title>
			<polygon class="PF13692" points="867,18 869,18 880,29 880,33 869,44 867,44" stroke-linejoin="round" width="13" height="26" fill="rgb(85,182,142)" stroke="rgb(68,145,113)" stroke-width="1" opacity="0.75" />
		</g>
	</g>
	<g>
		<title>wcgS</title>
		<polygon class="wcgS" points="885,16 888,16 888,1 918,31 888,61 888,46 885,46" fill="rgb(222,252,203)" fill-opacity="1.0" stroke="rgb(88,100,81)" stroke-width="1" />
		<g>
			<title>PF02719</title>
			<polygon class="PF02719" points="885,18 902,18 912,28 912,34 902,44 885,44" stroke-linejoin="round" width="27" height="26" fill="rgb(103,215,129)" stroke="rgb(82,172,103)" stroke-width="1" opacity="0.75" />
		</g>
		<g>
			<title>PF08485</title>
			<polygon class="PF08485" points="913,29 915,31 913,33" stroke-linejoin="round" width="4" height="26" fill="rgb(79,191,68)" stroke="rgb(63,152,54)" stroke-width="1" opacity="0.75" />
		</g>
	</g>
	<g>
		<title>wcgT</title>
		<polygon class="wcgT" points="919,16 926,16 926,1 956,31 926,61 926,46 919,46" fill="rgb(247,251,177)" fill-opacity="1.0" stroke="rgb(98,100,70)" stroke-width="1" />
		<g>
			<title>PF02350</title>
			<polygon class="PF02350" points="921,18 940,18 953,31 940,44 921,44" stroke-linejoin="round" width="33" height="26" fill="rgb(212,113,103)" stroke="rgb(169,90,82)" stroke-width="1" opacity="0.75" />
		</g>
	</g>
	<g>
		<title>wcgU</title>
		<polygon class="wcgU" points="957,16 957,16 957,1 985,31 957,61 957,46 957,46" fill="rgb(199,250,176)" fill-opacity="1.0" stroke="rgb(79,100,70)" stroke-width="1" />
		<g>
			<title>PF04321</title>
			<polygon class="PF04321" points="957,18 970,18 973,22 973,40 970,44 957,44" stroke-linejoin="round" width="16" height="26" fill="rgb(196,203,60)" stroke="rgb(156,162,47)" stroke-width="1" opacity="0.75" />
		</g>
	</g>
	<g>
		<title>wcgV</title>
		<polygon class="wcgV" points="986,16 996,16 996,1 1026,31 996,61 996,46 986,46" fill="rgb(253,180,248)" fill-opacity="1.0" stroke="rgb(101,72,99)" stroke-width="1" />
		<g>
			<title>PF13579</title>
			<rect class="PF13579" x="987" y="18" stroke-linejoin="round" width="18" height="26" fill="rgb(143,60,202)" stroke="rgb(114,47,161)" stroke-width="1" opacity="0.75" />
		</g>
		<g>
			<title>PF00534</title>
			<polygon class="PF00534" points="1006,18 1010,18 1023,31 1023,31 1010,44 1006,44" stroke-linejoin="round" width="17" height="26" fill="rgb(228,92,150)" stroke="rgb(182,73,119)" stroke-width="1" opacity="0.75" />
		</g>
	</g>
	<g>
		<title>wcgW</title>
		<polygon class="wcgW" points="1027,16 1030,16 1030,1 1060,31 1030,61 1030,46 1027,46" fill="rgb(183,250,211)" fill-opacity="1.0" stroke="rgb(73,100,84)" stroke-width="1" />
		<g>
			<title>PF01370</title>
			<polygon class="PF01370" points="1027,18 1044,18 1050,24 1050,38 1044,44 1027,44" stroke-linejoin="round" width="23" height="26" fill="rgb(98,102,214)" stroke="rgb(78,81,171)" stroke-width="1" opacity="0.75" />
		</g>
	</g>
	<g>
		<title>wcgX</title>
		<polygon class="wcgX" points="1060,16 1061,16 1061,1 1091,31 1061,61 1061,46 1060,46" fill="rgb(251,180,237)" fill-opacity="1.0" stroke="rgb(100,72,94)" stroke-width="1" />
		<g>
			<title>PF00953</title>
			<polygon class="PF00953" points="1066,18 1075,18 1080,23 1080,39 1075,44 1066,44" stroke-linejoin="round" width="14" height="26" fill="rgb(179,46,82)" stroke="rgb(143,36,65)" stroke-width="1" opacity="0.75" />
		</g>
	</g>
	<g>
		<polygon class="NoName" points="105,16 80,16 80,1 50,31 80,61 80,46 105,46" fill="rgb(255,255,255)" fill-opacity="1.0" stroke="rgb(50,50,50)" stroke-width="1" />
		<g>
			<title>PF00501</title>
			<polygon class="PF00501" points="60,23 65,18 104,18 104,44 65,44 60,38" stroke-linejoin="round" width="44" height="26" fill="rgb(60,217,223)" stroke="rgb(48,173,178)" stroke-width="1" opacity="0.75" />
		</g>
	</g>
	<g>
		<polygon class="NoName" points="1125,16 1125,16 1125,1 1140,31 1125,61 1125,46 1125,46" fill="rgb(255,255,255)" fill-opacity="1.0" stroke="rgb(50,50,50)" stroke-width="1" />
		<g>
			<title>PF00216</title>
			<polygon class="PF00216" points="1128,18 1131,18 1135,26 1135,36 1131,44 1128,44" stroke-linejoin="round" width="7" height="26" fill="rgb(73,205,204)" stroke="rgb(58,164,163)" stroke-width="1" opacity="0.75" />
		</g>
	</g>
	<g>
		<title>fcl</title>
		<polygon class="fcl" points="148,16 142,16 142,1 112,31 142,61 142,46 148,46" fill="rgb(253,238,203)" fill-opacity="1.0" stroke="rgb(101,95,81)" stroke-width="1" />
		<g>
			<title>PF01370</title>
			<polygon class="PF01370" points="118,27 127,18 146,18 146,44 127,44 118,34" stroke-linejoin="round" width="28" height="26" fill="rgb(98,102,214)" stroke="rgb(78,81,171)" stroke-width="1" opacity="0.75" />
		</g>
	</g>
	<g>
		<title>gmd</title>
		<polygon class="gmd" points="183,16 178,16 178,1 148,31 178,61 178,46 183,46" fill="rgb(197,187,251)" fill-opacity="1.0" stroke="rgb(78,74,100)" stroke-width="1" />
		<g>
			<title>PF16363</title>
			<polygon class="PF16363" points="150,31 163,18 182,18 182,44 163,44" stroke-linejoin="round" width="33" height="26" fill="rgb(162,221,65)" stroke="rgb(129,176,51)" stroke-width="1" opacity="0.75" />
		</g>
	</g>
	<g>
		<polygon class="NoName" points="191,16 203,16 203,1 233,31 203,61 203,46 191,46" fill="rgb(255,255,255)" fill-opacity="1.0" stroke="rgb(50,50,50)" stroke-width="1" />
		<g>
			<title>PF13173</title>
			<rect class="PF13173" x="194" y="18" stroke-linejoin="round" width="13" height="26" fill="rgb(77,222,177)" stroke="rgb(61,177,141)" stroke-width="1" opacity="0.75" />
		</g>
	</g>
	<g>
		<polygon class="NoName" points="269,16 269,16 269,1 243,31 269,61 269,46 269,46" fill="rgb(255,255,255)" fill-opacity="1.0" stroke="rgb(50,50,50)" stroke-width="1" />
		<g>
			<title>PF14297</title>
			<rect class="PF14297" x="259" y="18" stroke-linejoin="round" width="9" height="26" fill="rgb(197,55,100)" stroke="rgb(157,44,79)" stroke-width="1" opacity="0.75" />
		</g>
	</g>
	<g>
		<polygon class="NoName" points="282,16 282,16 282,1 271,31 282,61 282,46 282,46" fill="rgb(255,255,255)" fill-opacity="1.0" stroke="rgb(50,50,50)" stroke-width="1" />
	</g>
	<g>
		<title>upbY</title>
		<polygon class="upbY" points="316,16 316,16 316,1 333,31 316,61 316,46 316,46" fill="rgb(224,254,184)" fill-opacity="1.0" stroke="rgb(89,101,73)" stroke-width="1" />
		<g>
			<title>PF02357</title>
			<polygon class="PF02357" points="316,18 323,18 326,23 326,39 323,44 316,44" stroke-linejoin="round" width="10" height="26" fill="rgb(166,222,79)" stroke="rgb(132,177,63)" stroke-width="1" opacity="0.75" />
		</g>
	</g>
	<g>
		<title>upbZ</title>
		<polygon class="upbZ" points="334,16 334,16 334,1 350,31 334,61 334,46 334,46" fill="rgb(230,254,192)" fill-opacity="1.0" stroke="rgb(92,101,76)" stroke-width="1" />
		<g>
			<title>PF06603</title>
			<polygon class="PF06603" points="334,18 340,18 344,25 344,37 340,44 334,44" stroke-linejoin="round" width="10" height="26" fill="rgb(214,82,223)" stroke="rgb(171,65,178)" stroke-width="1" opacity="0.75" />
		</g>
	</g>
</svg>
