<svg version="1.1" baseProfile="full" xmlns="http://www.w3.org/2000/svg" width="1178" height="62">
	<line x1="1" y1="31" x2="1177" y2="31" style="stroke:rgb(50,50,50); stroke-width:3 "/>
	<g>
		<title>npsP4</title>
		<polygon class="npsP4" points="351,16 326,16 326,1 296,31 326,61 326,46 351,46" fill="rgb(199,222,250)" fill-opacity="1.0" stroke="rgb(79,88,100)" stroke-width="1" />
		<g>
			<title>PF00668</title>
			<polygon class="PF00668" points="306,23 311,18 350,18 350,44 311,44 306,38" stroke-linejoin="round" width="44" height="26" fill="rgb(224,184,98)" stroke="rgb(179,147,78)" stroke-width="1" opacity="0.75" />
		</g>
	</g>
	<g>
		<title>npsP5</title>
		<polygon class="npsP5" points="360,16 415,16 415,1 445,31 415,61 415,46 360,46" fill="rgb(232,254,212)" fill-opacity="1.0" stroke="rgb(92,101,84)" stroke-width="1" />
		<g>
			<title>PF00501</title>
			<rect class="PF00501" x="363" y="18" stroke-linejoin="round" width="39" height="26" fill="rgb(60,217,223)" stroke="rgb(48,173,178)" stroke-width="1" opacity="0.75" />
		</g>
		<g>
			<title>PF13193</title>
			<rect class="PF13193" x="403" y="18" stroke-linejoin="round" width="7" height="26" fill="rgb(182,50,118)" stroke="rgb(145,39,94)" stroke-width="1" opacity="0.75" />
		</g>
		<g>
			<title>PF00550</title>
			<rect class="PF00550" x="413" y="18" stroke-linejoin="round" width="6" height="26" fill="rgb(103,191,88)" stroke="rgb(82,152,70)" stroke-width="1" opacity="0.75" />
		</g>
		<g>
			<title>PF00975</title>
			<polygon class="PF00975" points="421,18 429,18 432,21 432,41 429,44 421,44" stroke-linejoin="round" width="11" height="26" fill="rgb(207,80,138)" stroke="rgb(165,63,110)" stroke-width="1" opacity="0.75" />
		</g>
	</g>
	<g>
		<title>npsG</title>
		<polygon class="npsG" points="454,16 466,16 466,1 496,31 466,61 466,46 454,46" fill="rgb(193,227,254)" fill-opacity="1.0" stroke="rgb(77,90,101)" stroke-width="1" />
		<g>
			<title>PF00206</title>
			<rect class="PF00206" x="454" y="18" stroke-linejoin="round" width="20" height="26" fill="rgb(217,92,141)" stroke="rgb(173,73,112)" stroke-width="1" opacity="0.75" />
		</g>
	</g>
	<g>
		<title>npsH</title>
		<polygon class="npsH" points="496,16 496,16 496,1 526,31 496,61 496,46 496,46" fill="rgb(178,253,242)" fill-opacity="1.0" stroke="rgb(71,101,96)" stroke-width="1" />
		<g>
			<title>PF00288</title>
			<rect class="PF00288" x="505" y="18" stroke-linejoin="round" width="5" height="26" fill="rgb(190,54,91)" stroke="rgb(152,43,72)" stroke-width="1" opacity="0.75" />
		</g>
	</g>
	<g>
		<title>npsI</title>
		<polygon class="npsI" points="527,16 572,16 572,1 602,31 572,61 572,46 527,46" fill="rgb(253,214,245)" fill-opacity="1.0" stroke="rgb(101,85,98)" stroke-width="1" />
		<g>
			<title>PF00291</title>
			<rect class="PF00291" x="527" y="18" stroke-linejoin="round" width="29" height="26" fill="rgb(180,55,145)" stroke="rgb(144,44,116)" stroke-width="1" opacity="0.75" />
		</g>
		<g>
			<title>PF13535</title>
			<polygon class="PF13535" points="575,18 586,18 590,22 590,40 586,44 575,44" stroke-linejoin="round" width="15" height="26" fill="rgb(197,156,74)" stroke="rgb(157,124,59)" stroke-width="1" opacity="0.75" />
		</g>
	</g>
	<g>
		<title>npsJ</title>
		<polygon class="npsJ" points="604,16 608,16 608,1 638,31 608,61 608,46 604,46" fill="rgb(246,200,250)" fill-opacity="1.0" stroke="rgb(98,80,100)" stroke-width="1" />
		<g>
			<title>PF01212</title>
			<polygon class="PF01212" points="604,18 622,18 632,28 632,34 622,44 604,44" stroke-linejoin="round" width="28" height="26" fill="rgb(121,182,62)" stroke="rgb(96,145,49)" stroke-width="1" opacity="0.75" />
		</g>
	</g>
	<g>
		<title>npsK</title>
		<polygon class="npsK" points="671,16 671,16 671,1 643,31 671,61 671,46 671,46" fill="rgb(178,231,252)" fill-opacity="1.0" stroke="rgb(71,92,100)" stroke-width="1" />
		<g>
			<title>PF00351</title>
			<polygon class="PF00351" points="645,31 657,18 670,18 670,44 657,44" stroke-linejoin="round" width="26" height="26" fill="rgb(178,114,49)" stroke="rgb(142,91,39)" stroke-width="1" opacity="0.75" />
		</g>
	</g>
	<g>
		<title>npsL</title>
		<polygon class="npsL" points="687,16 687,16 687,1 671,31 687,61 687,46 687,46" fill="rgb(250,213,188)" fill-opacity="1.0" stroke="rgb(100,85,75)" stroke-width="1" />
	</g>
	<g>
		<title>npsP6</title>
		<polygon class="npsP6" points="741,16 721,16 721,1 691,31 721,61 721,46 741,46" fill="rgb(207,206,252)" fill-opacity="1.0" stroke="rgb(82,82,100)" stroke-width="1" />
		<g>
			<title>PF00501</title>
			<polygon class="PF00501" points="700,24 706,18 740,18 740,44 706,44 700,37" stroke-linejoin="round" width="40" height="26" fill="rgb(60,217,223)" stroke="rgb(48,173,178)" stroke-width="1" opacity="0.75" />
		</g>
	</g>
	<g>
		<title>npsM</title>
		<polygon class="npsM" points="765,16 765,16 765,1 792,31 765,61 765,46 765,46" fill="rgb(198,252,234)" fill-opacity="1.0" stroke="rgb(79,100,93)" stroke-width="1" />
	</g>
	<g>
		<title>npsA</title>
		<polygon class="npsA" points="35,16 31,16 31,1 1,31 31,61 31,46 35,46" fill="rgb(254,215,228)" fill-opacity="1.0" stroke="rgb(101,86,91)" stroke-width="1" />
		<g>
			<title>PF12840</title>
			<polygon class="PF12840" points="4,30 9,25 9,36 4,31" stroke-linejoin="round" width="5" height="26" fill="rgb(157,225,93)" stroke="rgb(125,180,74)" stroke-width="1" opacity="0.75" />
		</g>
	</g>
	<g>
		<title>npsN</title>
		<polygon class="npsN" points="827,16 822,16 822,1 792,31 822,61 822,46 827,46" fill="rgb(191,253,188)" fill-opacity="1.0" stroke="rgb(76,101,75)" stroke-width="1" />
	</g>
	<g>
		<title>npsO</title>
		<polygon class="npsO" points="871,16 859,16 859,1 829,31 859,61 859,46 871,46" fill="rgb(194,250,237)" fill-opacity="1.0" stroke="rgb(77,100,94)" stroke-width="1" />
		<g>
			<title>PF05977</title>
			<polygon class="PF05977" points="831,31 844,18 869,18 869,44 844,44" stroke-linejoin="round" width="40" height="26" fill="rgb(80,62,217)" stroke="rgb(64,49,173)" stroke-width="1" opacity="0.75" />
		</g>
	</g>
	<g>
		<title>npsP7</title>
		<polygon class="npsP7" points="881,16 890,16 890,1 920,31 890,61 890,46 881,46" fill="rgb(179,252,250)" fill-opacity="1.0" stroke="rgb(71,100,100)" stroke-width="1" />
	</g>
	<g>
		<title>npsQ</title>
		<polygon class="npsQ" points="922,16 934,16 934,1 964,31 934,61 934,46 922,46" fill="rgb(218,212,252)" fill-opacity="1.0" stroke="rgb(87,84,100)" stroke-width="1" />
		<g>
			<title>PF00202</title>
			<polygon class="PF00202" points="923,18 948,18 961,31 948,44 923,44" stroke-linejoin="round" width="40" height="26" fill="rgb(49,163,189)" stroke="rgb(39,130,151)" stroke-width="1" opacity="0.75" />
		</g>
	</g>
	<g>
		<title>npsR</title>
		<polygon class="npsR" points="965,16 966,16 966,1 996,31 966,61 966,46 965,46" fill="rgb(206,252,214)" fill-opacity="1.0" stroke="rgb(82,100,85)" stroke-width="1" />
		<g>
			<title>PF02668</title>
			<polygon class="PF02668" points="965,18 980,18 993,31 980,44 965,44" stroke-linejoin="round" width="30" height="26" fill="rgb(180,79,217)" stroke="rgb(144,63,173)" stroke-width="1" opacity="0.75" />
		</g>
	</g>
	<g>
		<title>npsS</title>
		<polygon class="npsS" points="1000,16 1000,16 1000,1 1024,31 1000,61 1000,46 1000,46" fill="rgb(182,195,253)" fill-opacity="1.0" stroke="rgb(72,78,101)" stroke-width="1" />
	</g>
	<g>
		<title>npsT</title>
		<polygon class="npsT" points="1027,16 1027,16 1027,1 1038,31 1027,61 1027,46 1027,46" fill="rgb(193,179,251)" fill-opacity="1.0" stroke="rgb(77,71,100)" stroke-width="1" />
	</g>
	<g>
		<title>npsU</title>
		<polygon class="npsU" points="1038,16 1040,16 1040,1 1070,31 1040,61 1040,46 1038,46" fill="rgb(244,181,251)" fill-opacity="1.0" stroke="rgb(97,72,100)" stroke-width="1" />
	</g>
	<g>
		<title>npsP8</title>
		<polygon class="npsP8" points="1126,16 1104,16 1104,1 1074,31 1104,61 1104,46 1126,46" fill="rgb(250,244,204)" fill-opacity="1.0" stroke="rgb(100,97,81)" stroke-width="1" />
		<g>
			<title>PF13193</title>
			<polygon class="PF13193" points="1076,31 1082,25 1082,36" stroke-linejoin="round" width="7" height="26" fill="rgb(182,50,118)" stroke="rgb(145,39,94)" stroke-width="1" opacity="0.75" />
		</g>
		<g>
			<title>PF00501</title>
			<polygon class="PF00501" points="1084,23 1089,18 1124,18 1124,44 1089,44 1084,38" stroke-linejoin="round" width="40" height="26" fill="rgb(60,217,223)" stroke="rgb(48,173,178)" stroke-width="1" opacity="0.75" />
		</g>
	</g>
	<g>
		<title>npsV</title>
		<polygon class="npsV" points="1153,16 1153,16 1153,1 1128,31 1153,61 1153,46 1153,46" fill="rgb(188,254,224)" fill-opacity="1.0" stroke="rgb(75,101,89)" stroke-width="1" />
		<g>
			<title>PF13649</title>
			<polygon class="PF13649" points="1135,25 1141,18 1144,18 1144,44 1141,44 1135,36" stroke-linejoin="round" width="9" height="26" fill="rgb(227,135,74)" stroke="rgb(181,108,59)" stroke-width="1" opacity="0.75" />
		</g>
	</g>
	<g>
		<title>npsB</title>
		<polygon class="npsB" points="57,16 57,16 57,1 40,31 57,61 57,46 57,46" fill="rgb(204,245,252)" fill-opacity="1.0" stroke="rgb(81,98,100)" stroke-width="1" />
		<g>
			<title>PF13302</title>
			<polygon class="PF13302" points="42,31 49,18 55,18 55,44 49,44" stroke-linejoin="round" width="13" height="26" fill="rgb(105,146,215)" stroke="rgb(84,116,172)" stroke-width="1" opacity="0.75" />
		</g>
	</g>
	<g>
		<title>npsC</title>
		<polygon class="npsC" points="63,16 63,16 63,1 88,31 63,61 63,46 63,46" fill="rgb(229,213,254)" fill-opacity="1.0" stroke="rgb(91,85,101)" stroke-width="1" />
		<g>
			<title>PF03372</title>
			<polygon class="PF03372" points="63,18 74,18 85,31 74,44 63,44" stroke-linejoin="round" width="23" height="26" fill="rgb(76,66,180)" stroke="rgb(60,52,144)" stroke-width="1" opacity="0.75" />
		</g>
	</g>
	<g>
		<title>npsP1</title>
		<polygon class="npsP1" points="93,16 93,16 93,1 102,31 93,61 93,46 93,46" fill="rgb(187,242,254)" fill-opacity="1.0" stroke="rgb(74,96,101)" stroke-width="1" />
		<g>
			<title>PF00550</title>
			<polygon class="PF00550" points="94,18 95,18 99,31 95,44 94,44" stroke-linejoin="round" width="6" height="26" fill="rgb(103,191,88)" stroke="rgb(82,152,70)" stroke-width="1" opacity="0.75" />
		</g>
	</g>
	<g>
		<title>npsP2</title>
		<polygon class="npsP2" points="104,16 114,16 114,1 144,31 114,61 114,46 104,46" fill="rgb(252,200,212)" fill-opacity="1.0" stroke="rgb(100,80,84)" stroke-width="1" />
		<g>
			<title>PF00668</title>
			<polygon class="PF00668" points="104,18 128,18 133,23 133,39 128,44 104,44" stroke-linejoin="round" width="29" height="26" fill="rgb(224,184,98)" stroke="rgb(179,147,78)" stroke-width="1" opacity="0.75" />
		</g>
	</g>
	<g>
		<title>npsD</title>
		<polygon class="npsD" points="145,16 145,16 145,1 152,31 145,61 145,46 145,46" fill="rgb(250,200,181)" fill-opacity="1.0" stroke="rgb(100,80,72)" stroke-width="1" />
		<g>
			<title>PF03621</title>
			<polygon class="PF03621" points="145,18 146,18 149,27 149,35 146,44 145,44" stroke-linejoin="round" width="4" height="26" fill="rgb(212,165,97)" stroke="rgb(169,132,77)" stroke-width="1" opacity="0.75" />
		</g>
	</g>
	<g>
		<title>npsE</title>
		<polygon class="npsE" points="153,16 167,16 167,1 197,31 167,61 167,46 153,46" fill="rgb(238,251,196)" fill-opacity="1.0" stroke="rgb(95,100,78)" stroke-width="1" />
		<g>
			<title>PF01565</title>
			<rect class="PF01565" x="156" y="18" stroke-linejoin="round" width="13" height="26" fill="rgb(226,88,136)" stroke="rgb(180,70,108)" stroke-width="1" opacity="0.75" />
		</g>
	</g>
	<g>
		<title>npsP3</title>
		<polygon class="npsP3" points="283,16 228,16 228,1 198,31 228,61 228,46 283,46" fill="rgb(252,209,209)" fill-opacity="1.0" stroke="rgb(100,83,83)" stroke-width="1" />
		<g>
			<title>PF00550</title>
			<polygon class="PF00550" points="200,31 204,27 204,34" stroke-linejoin="round" width="6" height="26" fill="rgb(103,191,88)" stroke="rgb(82,152,70)" stroke-width="1" opacity="0.75" />
		</g>
		<g>
			<title>PF13193</title>
			<polygon class="PF13193" points="207,24 213,18 214,18 214,44 213,44 207,37" stroke-linejoin="round" width="7" height="26" fill="rgb(182,50,118)" stroke="rgb(145,39,94)" stroke-width="1" opacity="0.75" />
		</g>
		<g>
			<title>PF00501</title>
			<rect class="PF00501" x="215" y="18" stroke-linejoin="round" width="39" height="26" fill="rgb(60,217,223)" stroke="rgb(48,173,178)" stroke-width="1" opacity="0.75" />
		</g>
	</g>
	<g>
		<title>npsF</title>
		<polygon class="npsF" points="296,16 296,16 296,1 284,31 296,61 296,46 296,46" fill="rgb(252,199,251)" fill-opacity="1.0" stroke="rgb(100,79,100)" stroke-width="1" />
	</g>
</svg>
