<svg version="1.1" baseProfile="full" xmlns="http://www.w3.org/2000/svg" width="862" height="62">
	<line x1="1" y1="31" x2="861" y2="31" style="stroke:rgb(50,50,50); stroke-width:3 "/>
	<g>
		<title>salA</title>
		<polygon class="salA" points="1,16 143,16 143,1 173,31 143,61 143,46 1,46" fill="rgb(210,216,254)" fill-opacity="1.0" stroke="rgb(84,86,101)" stroke-width="1" />
		<g>
			<title>PF00550</title>
			<rect class="PF00550" x="5" y="18" stroke-linejoin="round" width="6" height="26" fill="rgb(103,191,88)" stroke="rgb(82,152,70)" stroke-width="1" opacity="0.75" />
		</g>
		<g>
			<title>PF00109</title>
			<rect class="PF00109" x="14" y="18" stroke-linejoin="round" width="25" height="26" fill="rgb(112,116,228)" stroke="rgb(89,92,182)" stroke-width="1" opacity="0.75" />
		</g>
		<g>
			<title>PF02801</title>
			<rect class="PF02801" x="40" y="18" stroke-linejoin="round" width="11" height="26" fill="rgb(215,78,102)" stroke="rgb(172,62,81)" stroke-width="1" opacity="0.75" />
		</g>
		<g>
			<title>PF16197</title>
			<rect class="PF16197" x="52" y="18" stroke-linejoin="round" width="14" height="26" fill="rgb(68,179,89)" stroke="rgb(54,143,71)" stroke-width="1" opacity="0.75" />
		</g>
		<g>
			<title>PF00698</title>
			<rect class="PF00698" x="69" y="18" stroke-linejoin="round" width="31" height="26" fill="rgb(59,176,209)" stroke="rgb(47,140,167)" stroke-width="1" opacity="0.75" />
		</g>
		<g>
			<title>PF08659</title>
			<rect class="PF08659" x="129" y="18" stroke-linejoin="round" width="17" height="26" fill="rgb(66,209,188)" stroke="rgb(52,167,150)" stroke-width="1" opacity="0.75" />
		</g>
		<g>
			<title>PF00550</title>
			<polygon class="PF00550" points="157,18 157,18 163,24 163,38 157,44 157,44" stroke-linejoin="round" width="6" height="26" fill="rgb(103,191,88)" stroke="rgb(82,152,70)" stroke-width="1" opacity="0.75" />
		</g>
	</g>
	<g>
		<polygon class="NoName" points="177,16 465,16 465,1 495,31 465,61 465,46 177,46" fill="rgb(255,255,255)" fill-opacity="1.0" stroke="rgb(50,50,50)" stroke-width="1" />
		<g>
			<title>PF00109</title>
			<rect class="PF00109" x="180" y="18" stroke-linejoin="round" width="24" height="26" fill="rgb(112,116,228)" stroke="rgb(89,92,182)" stroke-width="1" opacity="0.75" />
		</g>
		<g>
			<title>PF02801</title>
			<rect class="PF02801" x="205" y="18" stroke-linejoin="round" width="11" height="26" fill="rgb(215,78,102)" stroke="rgb(172,62,81)" stroke-width="1" opacity="0.75" />
		</g>
		<g>
			<title>PF16197</title>
			<rect class="PF16197" x="217" y="18" stroke-linejoin="round" width="12" height="26" fill="rgb(68,179,89)" stroke="rgb(54,143,71)" stroke-width="1" opacity="0.75" />
		</g>
		<g>
			<title>PF00698</title>
			<rect class="PF00698" x="233" y="18" stroke-linejoin="round" width="30" height="26" fill="rgb(59,176,209)" stroke="rgb(47,140,167)" stroke-width="1" opacity="0.75" />
		</g>
		<g>
			<title>PF08659</title>
			<rect class="PF08659" x="296" y="18" stroke-linejoin="round" width="17" height="26" fill="rgb(66,209,188)" stroke="rgb(52,167,150)" stroke-width="1" opacity="0.75" />
		</g>
		<g>
			<title>PF00550</title>
			<rect class="PF00550" x="324" y="18" stroke-linejoin="round" width="6" height="26" fill="rgb(103,191,88)" stroke="rgb(82,152,70)" stroke-width="1" opacity="0.75" />
		</g>
		<g>
			<title>PF00109</title>
			<rect class="PF00109" x="333" y="18" stroke-linejoin="round" width="25" height="26" fill="rgb(112,116,228)" stroke="rgb(89,92,182)" stroke-width="1" opacity="0.75" />
		</g>
		<g>
			<title>PF02801</title>
			<rect class="PF02801" x="359" y="18" stroke-linejoin="round" width="11" height="26" fill="rgb(215,78,102)" stroke="rgb(172,62,81)" stroke-width="1" opacity="0.75" />
		</g>
		<g>
			<title>PF16197</title>
			<rect class="PF16197" x="371" y="18" stroke-linejoin="round" width="14" height="26" fill="rgb(68,179,89)" stroke="rgb(54,143,71)" stroke-width="1" opacity="0.75" />
		</g>
		<g>
			<title>PF00698</title>
			<rect class="PF00698" x="389" y="18" stroke-linejoin="round" width="32" height="26" fill="rgb(59,176,209)" stroke="rgb(47,140,167)" stroke-width="1" opacity="0.75" />
		</g>
		<g>
			<title>PF08659</title>
			<rect class="PF08659" x="451" y="18" stroke-linejoin="round" width="17" height="26" fill="rgb(66,209,188)" stroke="rgb(52,167,150)" stroke-width="1" opacity="0.75" />
		</g>
		<g>
			<title>PF00550</title>
			<polygon class="PF00550" points="479,18 479,18 485,24 485,38 479,44 479,44" stroke-linejoin="round" width="6" height="26" fill="rgb(103,191,88)" stroke="rgb(82,152,70)" stroke-width="1" opacity="0.75" />
		</g>
	</g>
	<g>
		<title>salRIII</title>
		<polygon class="salRIII" points="526,16 526,16 526,1 503,31 526,61 526,46 526,46" fill="rgb(215,252,208)" fill-opacity="1.0" stroke="rgb(86,100,83)" stroke-width="1" />
		<g>
			<title>PF00196</title>
			<polygon class="PF00196" points="505,31 510,25 510,36" stroke-linejoin="round" width="5" height="26" fill="rgb(219,94,82)" stroke="rgb(175,75,65)" stroke-width="1" opacity="0.75" />
		</g>
		<g>
			<title>PF08448</title>
			<polygon class="PF08448" points="512,22 515,18 522,18 522,44 515,44 512,39" stroke-linejoin="round" width="10" height="26" fill="rgb(50,90,192)" stroke="rgb(40,71,153)" stroke-width="1" opacity="0.75" />
		</g>
	</g>
	<g>
		<title>salRII</title>
		<polygon class="salRII" points="637,16 573,16 573,1 543,31 573,61 573,46 637,46" fill="rgb(192,251,253)" fill-opacity="1.0" stroke="rgb(76,100,101)" stroke-width="1" />
		<g>
			<title>PF00196</title>
			<polygon class="PF00196" points="545,31 548,28 548,33" stroke-linejoin="round" width="5" height="26" fill="rgb(219,94,82)" stroke="rgb(175,75,65)" stroke-width="1" opacity="0.75" />
		</g>
		<g>
			<title>PF13191</title>
			<rect class="PF13191" x="619" y="18" stroke-linejoin="round" width="17" height="26" fill="rgb(186,102,77)" stroke="rgb(148,81,61)" stroke-width="1" opacity="0.75" />
		</g>
	</g>
	<g>
		<title>salRI</title>
		<polygon class="salRI" points="754,16 688,16 688,1 658,31 688,61 688,46 754,46" fill="rgb(202,231,253)" fill-opacity="1.0" stroke="rgb(80,92,101)" stroke-width="1" />
		<g>
			<title>PF00196</title>
			<polygon class="PF00196" points="660,31 664,27 664,34" stroke-linejoin="round" width="5" height="26" fill="rgb(219,94,82)" stroke="rgb(175,75,65)" stroke-width="1" opacity="0.75" />
		</g>
		<g>
			<title>PF13181</title>
			<rect class="PF13181" x="675" y="18" stroke-linejoin="round" width="3" height="26" fill="rgb(182,172,47)" stroke="rgb(145,137,37)" stroke-width="1" opacity="0.75" />
		</g>
		<g>
			<title>PF13191</title>
			<rect class="PF13191" x="735" y="18" stroke-linejoin="round" width="16" height="26" fill="rgb(186,102,77)" stroke="rgb(148,81,61)" stroke-width="1" opacity="0.75" />
		</g>
	</g>
	<g>
		<title>salC</title>
		<polygon class="salC" points="801,16 791,16 791,1 761,31 791,61 791,46 801,46" fill="rgb(253,214,194)" fill-opacity="1.0" stroke="rgb(101,85,77)" stroke-width="1" />
		<g>
			<title>PF00067</title>
			<polygon class="PF00067" points="763,31 773,21 773,40" stroke-linejoin="round" width="11" height="26" fill="rgb(85,216,107)" stroke="rgb(68,172,85)" stroke-width="1" opacity="0.75" />
		</g>
	</g>
	<g>
		<title>salD</title>
		<polygon class="salD" points="844,16 834,16 834,1 804,31 834,61 834,46 844,46" fill="rgb(249,197,253)" fill-opacity="1.0" stroke="rgb(99,78,101)" stroke-width="1" />
		<g>
			<title>PF00067</title>
			<polygon class="PF00067" points="806,31 819,18 828,18 828,44 819,44" stroke-linejoin="round" width="22" height="26" fill="rgb(85,216,107)" stroke="rgb(68,172,85)" stroke-width="1" opacity="0.75" />
		</g>
	</g>
	<g>
		<title>salE</title>
		<polygon class="salE" points="855,16 855,16 855,1 861,31 855,61 855,46 855,46" fill="rgb(250,199,216)" fill-opacity="1.0" stroke="rgb(100,79,86)" stroke-width="1" />
		<g>
			<title>PF13370</title>
			<polygon class="PF13370" points="855,18 855,18 858,31 855,44 855,44" stroke-linejoin="round" width="5" height="26" fill="rgb(220,216,65)" stroke="rgb(176,172,52)" stroke-width="1" opacity="0.75" />
		</g>
	</g>
</svg>
