<svg version="1.1" baseProfile="full" xmlns="http://www.w3.org/2000/svg" width="236" height="62">
	<line x1="1" y1="31" x2="235" y2="31" style="stroke:rgb(50,50,50); stroke-width:3 "/>
	<g>
		<title>biF</title>
		<polygon class="biF" points="49,16 34,16 34,1 4,31 34,61 34,46 49,46" fill="rgb(184,254,239)" fill-opacity="1.0" stroke="rgb(73,101,95)" stroke-width="1" />
		<g>
			<title>PF00155</title>
			<polygon class="PF00155" points="9,28 19,18 45,18 45,44 19,44 9,33" stroke-linejoin="round" width="36" height="26" fill="rgb(89,113,198)" stroke="rgb(71,90,158)" stroke-width="1" opacity="0.75" />
		</g>
	</g>
	<g>
		<title>biA1</title>
		<polygon class="biA1" points="73,16 85,16 85,1 115,31 85,61 85,46 73,46" fill="rgb(178,252,231)" fill-opacity="1.0" stroke="rgb(71,100,92)" stroke-width="1" />
		<g>
			<title>PF13500</title>
			<rect class="PF13500" x="74" y="18" stroke-linejoin="round" width="20" height="26" fill="rgb(93,118,228)" stroke="rgb(74,94,182)" stroke-width="1" opacity="0.75" />
		</g>
	</g>
	<g>
		<title>biB</title>
		<polygon class="biB" points="190,16 202,16 202,1 232,31 202,61 202,46 190,46" fill="rgb(188,253,249)" fill-opacity="1.0" stroke="rgb(75,101,99)" stroke-width="1" />
		<g>
			<title>PF04055</title>
			<rect class="PF04055" x="199" y="18" stroke-linejoin="round" width="16" height="26" fill="rgb(149,56,222)" stroke="rgb(119,44,177)" stroke-width="1" opacity="0.75" />
		</g>
		<g>
			<title>PF06968</title>
			<polygon class="PF06968" points="216,18 216,18 225,27 225,35 216,44 216,44" stroke-linejoin="round" width="9" height="26" fill="rgb(91,179,207)" stroke="rgb(72,143,165)" stroke-width="1" opacity="0.75" />
		</g>
	</g>
</svg>
