<svg version="1.1" baseProfile="full" xmlns="http://www.w3.org/2000/svg" width="112" height="62">
	<line x1="1" y1="31" x2="111" y2="31" style="stroke:rgb(50,50,50); stroke-width:3 "/>
	<g>
		<title>ectA</title>
		<polygon class="ectA" points="9,16 9,16 9,1 26,31 9,61 9,46 9,46" fill="rgb(244,191,254)" fill-opacity="1.0" stroke="rgb(97,76,101)" stroke-width="1" />
		<g>
			<title>PF00583</title>
			<polygon class="PF00583" points="11,18 16,18 22,28 22,34 16,44 11,44" stroke-linejoin="round" width="11" height="26" fill="rgb(121,183,50)" stroke="rgb(96,146,39)" stroke-width="1" opacity="0.75" />
		</g>
	</g>
	<g>
		<title>ectB</title>
		<polygon class="ectB" points="28,16 42,16 42,1 72,31 42,61 42,46 28,46" fill="rgb(180,250,227)" fill-opacity="1.0" stroke="rgb(72,100,90)" stroke-width="1" />
		<g>
			<title>PF00202</title>
			<polygon class="PF00202" points="29,18 56,18 69,31 69,31 56,44 29,44" stroke-linejoin="round" width="40" height="26" fill="rgb(49,163,189)" stroke="rgb(39,130,151)" stroke-width="1" opacity="0.75" />
		</g>
	</g>
	<g>
		<title>ectC</title>
		<polygon class="ectC" points="74,16 74,16 74,1 87,31 74,61 74,46 74,46" fill="rgb(252,179,192)" fill-opacity="1.0" stroke="rgb(100,71,76)" stroke-width="1" />
		<g>
			<title>PF06339</title>
			<polygon class="PF06339" points="74,18 78,18 84,31 78,44 74,44" stroke-linejoin="round" width="12" height="26" fill="rgb(225,176,81)" stroke="rgb(180,140,64)" stroke-width="1" opacity="0.75" />
		</g>
	</g>
	<g>
		<title>ask</title>
		<polygon class="ask" points="89,16 89,16 89,1 110,31 89,61 89,46 89,46" fill="rgb(245,180,254)" fill-opacity="1.0" stroke="rgb(97,72,101)" stroke-width="1" />
		<g>
			<title>PF00696</title>
			<polygon class="PF00696" points="89,18 98,18 107,31 98,44 89,44" stroke-linejoin="round" width="20" height="26" fill="rgb(148,78,224)" stroke="rgb(118,62,179)" stroke-width="1" opacity="0.75" />
		</g>
	</g>
</svg>
