<svg version="1.1" baseProfile="full" xmlns="http://www.w3.org/2000/svg" width="656" height="62">
	<line x1="1" y1="31" x2="655" y2="31" style="stroke:rgb(50,50,50); stroke-width:3 "/>
	<g>
		<polygon class="NoName" points="360,16 360,16 360,1 387,31 360,61 360,46 360,46" fill="rgb(255,255,255)" fill-opacity="1.0" stroke="rgb(50,50,50)" stroke-width="1" />
	</g>
	<g>
		<polygon class="NoName" points="387,16 406,16 406,1 436,31 406,61 406,46 387,46" fill="rgb(255,255,255)" fill-opacity="1.0" stroke="rgb(50,50,50)" stroke-width="1" />
		<g>
			<title>PF00005</title>
			<rect class="PF00005" x="388" y="18" stroke-linejoin="round" width="16" height="26" fill="rgb(129,201,63)" stroke="rgb(103,160,50)" stroke-width="1" opacity="0.75" />
		</g>
		<g>
			<title>PF00005</title>
			<polygon class="PF00005" points="415,18 420,18 430,28 430,34 420,44 415,44" stroke-linejoin="round" width="15" height="26" fill="rgb(129,201,63)" stroke="rgb(103,160,50)" stroke-width="1" opacity="0.75" />
		</g>
	</g>
	<g>
		<polygon class="NoName" points="454,16 454,16 454,1 436,31 454,61 454,46 454,46" fill="rgb(255,255,255)" fill-opacity="1.0" stroke="rgb(50,50,50)" stroke-width="1" />
		<g>
			<title>PF04752</title>
			<polygon class="PF04752" points="438,31 446,18 454,18 454,44 446,44" stroke-linejoin="round" width="17" height="26" fill="rgb(190,220,58)" stroke="rgb(152,176,46)" stroke-width="1" opacity="0.75" />
		</g>
	</g>
	<g>
		<polygon class="NoName" points="480,16 480,16 480,1 458,31 480,61 480,46 480,46" fill="rgb(255,255,255)" fill-opacity="1.0" stroke="rgb(50,50,50)" stroke-width="1" />
		<g>
			<title>PF01551</title>
			<polygon class="PF01551" points="460,31 469,19 469,42" stroke-linejoin="round" width="9" height="26" fill="rgb(65,169,193)" stroke="rgb(51,135,154)" stroke-width="1" opacity="0.75" />
		</g>
	</g>
	<g>
		<polygon class="NoName" points="500,16 500,16 500,1 481,31 500,61 500,46 500,46" fill="rgb(255,255,255)" fill-opacity="1.0" stroke="rgb(50,50,50)" stroke-width="1" />
	</g>
	<g>
		<title>tdaE</title>
		<polygon class="tdaE" points="540,16 531,16 531,1 501,31 531,61 531,46 540,46" fill="rgb(180,194,253)" fill-opacity="1.0" stroke="rgb(72,77,101)" stroke-width="1" />
		<g>
			<title>PF00441</title>
			<polygon class="PF00441" points="503,31 516,18 517,18 517,44 516,44" stroke-linejoin="round" width="14" height="26" fill="rgb(85,191,117)" stroke="rgb(68,152,93)" stroke-width="1" opacity="0.75" />
		</g>
		<g>
			<title>PF02770</title>
			<rect class="PF02770" x="519" y="18" stroke-linejoin="round" width="9" height="26" fill="rgb(225,186,97)" stroke="rgb(180,148,77)" stroke-width="1" opacity="0.75" />
		</g>
		<g>
			<title>PF02771</title>
			<rect class="PF02771" x="529" y="18" stroke-linejoin="round" width="11" height="26" fill="rgb(105,135,218)" stroke="rgb(84,108,174)" stroke-width="1" opacity="0.75" />
		</g>
	</g>
	<g>
		<title>tdaD</title>
		<polygon class="tdaD" points="555,16 555,16 555,1 542,31 555,61 555,46 555,46" fill="rgb(254,193,237)" fill-opacity="1.0" stroke="rgb(101,77,94)" stroke-width="1" />
		<g>
			<title>PF13279</title>
			<polygon class="PF13279" points="544,31 550,18 553,18 553,44 550,44" stroke-linejoin="round" width="11" height="26" fill="rgb(213,114,82)" stroke="rgb(170,91,65)" stroke-width="1" opacity="0.75" />
		</g>
	</g>
	<g>
		<title>tdaC</title>
		<polygon class="tdaC" points="577,16 577,16 577,1 557,31 577,61 577,46 577,46" fill="rgb(253,203,178)" fill-opacity="1.0" stroke="rgb(101,81,71)" stroke-width="1" />
	</g>
	<g>
		<title>tdaB</title>
		<polygon class="tdaB" points="617,16 617,16 617,1 594,31 617,61 617,46 617,46" fill="rgb(184,186,250)" fill-opacity="1.0" stroke="rgb(73,74,100)" stroke-width="1" />
		<g>
			<title>PF00043</title>
			<polygon class="PF00043" points="596,31 604,21 604,40" stroke-linejoin="round" width="9" height="26" fill="rgb(102,108,211)" stroke="rgb(81,86,168)" stroke-width="1" opacity="0.75" />
		</g>
		<g>
			<title>PF13417</title>
			<rect class="PF13417" x="608" y="18" stroke-linejoin="round" width="7" height="26" fill="rgb(220,154,91)" stroke="rgb(176,123,72)" stroke-width="1" opacity="0.75" />
		</g>
	</g>
	<g>
		<title>tdaA</title>
		<polygon class="tdaA" points="654,16 654,16 654,1 625,31 654,61 654,46 654,46" fill="rgb(229,182,249)" fill-opacity="1.0" stroke="rgb(91,72,99)" stroke-width="1" />
		<g>
			<title>PF03466</title>
			<polygon class="PF03466" points="627,31 640,18 645,18 645,44 640,44" stroke-linejoin="round" width="20" height="26" fill="rgb(55,136,195)" stroke="rgb(44,108,156)" stroke-width="1" opacity="0.75" />
		</g>
		<g>
			<title>PF00126</title>
			<rect class="PF00126" x="648" y="18" stroke-linejoin="round" width="5" height="26" fill="rgb(125,227,79)" stroke="rgb(99,181,63)" stroke-width="1" opacity="0.75" />
		</g>
	</g>
	<g>
		<title>paaZ</title>
		<polygon class="paaZ" points="1,16 42,16 42,1 72,31 42,61 42,46 1,46" fill="rgb(235,252,188)" fill-opacity="1.0" stroke="rgb(93,100,75)" stroke-width="1" />
		<g>
			<title>PF00171</title>
			<rect class="PF00171" x="3" y="18" stroke-linejoin="round" width="44" height="26" fill="rgb(105,213,139)" stroke="rgb(84,170,111)" stroke-width="1" opacity="0.75" />
		</g>
		<g>
			<title>PF01575</title>
			<polygon class="PF01575" points="54,18 56,18 65,27 65,35 56,44 54,44" stroke-linejoin="round" width="11" height="26" fill="rgb(218,129,86)" stroke="rgb(174,103,68)" stroke-width="1" opacity="0.75" />
		</g>
	</g>
	<g>
		<title>tdaF</title>
		<polygon class="tdaF" points="73,16 73,16 73,1 92,31 73,61 73,46 73,46" fill="rgb(207,238,250)" fill-opacity="1.0" stroke="rgb(82,95,100)" stroke-width="1" />
		<g>
			<title>PF02441</title>
			<polygon class="PF02441" points="73,18 81,18 89,31 81,44 73,44" stroke-linejoin="round" width="17" height="26" fill="rgb(199,95,88)" stroke="rgb(159,76,70)" stroke-width="1" opacity="0.75" />
		</g>
	</g>
	<g>
		<polygon class="NoName" points="108,16 108,16 108,1 94,31 108,61 108,46 108,46" fill="rgb(255,255,255)" fill-opacity="1.0" stroke="rgb(50,50,50)" stroke-width="1" />
	</g>
	<g>
		<polygon class="NoName" points="144,16 139,16 139,1 109,31 139,61 139,46 144,46" fill="rgb(255,255,255)" fill-opacity="1.0" stroke="rgb(50,50,50)" stroke-width="1" />
	</g>
	<g>
		<polygon class="NoName" points="192,16 178,16 178,1 148,31 178,61 178,46 192,46" fill="rgb(255,255,255)" fill-opacity="1.0" stroke="rgb(50,50,50)" stroke-width="1" />
	</g>
	<g>
		<polygon class="NoName" points="244,16 226,16 226,1 196,31 226,61 226,46 244,46" fill="rgb(255,255,255)" fill-opacity="1.0" stroke="rgb(50,50,50)" stroke-width="1" />
		<g>
			<title>PF00939</title>
			<polygon class="PF00939" points="198,31 211,18 241,18 241,44 211,44" stroke-linejoin="round" width="45" height="26" fill="rgb(94,204,141)" stroke="rgb(75,163,112)" stroke-width="1" opacity="0.75" />
		</g>
	</g>
	<g>
		<polygon class="NoName" points="255,16 255,16 255,1 270,31 255,61 255,46 255,46" fill="rgb(255,255,255)" fill-opacity="1.0" stroke="rgb(50,50,50)" stroke-width="1" />
		<g>
			<title>PF01980</title>
			<polygon class="PF01980" points="258,18 261,18 267,31 261,44 258,44" stroke-linejoin="round" width="11" height="26" fill="rgb(51,82,185)" stroke="rgb(40,65,148)" stroke-width="1" opacity="0.75" />
		</g>
	</g>
	<g>
		<polygon class="NoName" points="271,16 294,16 294,1 324,31 294,61 294,46 271,46" fill="rgb(255,255,255)" fill-opacity="1.0" stroke="rgb(50,50,50)" stroke-width="1" />
		<g>
			<title>PF00496</title>
			<polygon class="PF00496" points="279,18 308,18 315,25 315,37 308,44 279,44" stroke-linejoin="round" width="36" height="26" fill="rgb(199,94,116)" stroke="rgb(159,75,92)" stroke-width="1" opacity="0.75" />
		</g>
	</g>
	<g>
		<polygon class="NoName" points="325,16 329,16 329,1 359,31 329,61 329,46 325,46" fill="rgb(255,255,255)" fill-opacity="1.0" stroke="rgb(50,50,50)" stroke-width="1" />
		<g>
			<title>PF00528</title>
			<polygon class="PF00528" points="339,18 343,18 356,31 343,44 339,44" stroke-linejoin="round" width="20" height="26" fill="rgb(77,208,225)" stroke="rgb(61,166,180)" stroke-width="1" opacity="0.75" />
		</g>
	</g>
</svg>
