<svg version="1.1" baseProfile="full" xmlns="http://www.w3.org/2000/svg" width="2131" height="62">
	<line x1="1" y1="31" x2="2130" y2="31" style="stroke:rgb(50,50,50); stroke-width:3 "/>
	<g>
		<title>ctaF</title>
		<polygon class="ctaF" points="1403,16 1509,16 1509,1 1539,31 1509,61 1509,46 1403,46" fill="rgb(203,231,254)" fill-opacity="1.0" stroke="rgb(81,92,101)" stroke-width="1" />
		<g>
			<title>PF00109</title>
			<rect class="PF00109" x="1406" y="18" stroke-linejoin="round" width="25" height="26" fill="rgb(112,116,228)" stroke="rgb(89,92,182)" stroke-width="1" opacity="0.75" />
		</g>
		<g>
			<title>PF02801</title>
			<rect class="PF02801" x="1432" y="18" stroke-linejoin="round" width="11" height="26" fill="rgb(215,78,102)" stroke="rgb(172,62,81)" stroke-width="1" opacity="0.75" />
		</g>
		<g>
			<title>PF16197</title>
			<rect class="PF16197" x="1444" y="18" stroke-linejoin="round" width="11" height="26" fill="rgb(68,179,89)" stroke="rgb(54,143,71)" stroke-width="1" opacity="0.75" />
		</g>
		<g>
			<title>PF00698</title>
			<rect class="PF00698" x="1459" y="18" stroke-linejoin="round" width="31" height="26" fill="rgb(59,176,209)" stroke="rgb(47,140,167)" stroke-width="1" opacity="0.75" />
		</g>
		<g>
			<title>PF13847</title>
			<rect class="PF13847" x="1502" y="18" stroke-linejoin="round" width="15" height="26" fill="rgb(214,74,181)" stroke="rgb(171,59,144)" stroke-width="1" opacity="0.75" />
		</g>
		<g>
			<title>PF00550</title>
			<polygon class="PF00550" points="1530,25 1536,31 1536,31 1530,37" stroke-linejoin="round" width="6" height="26" fill="rgb(103,191,88)" stroke="rgb(82,152,70)" stroke-width="1" opacity="0.75" />
		</g>
	</g>
	<g>
		<title>ctaG</title>
		<polygon class="ctaG" points="1539,16 1683,16 1683,1 1713,31 1683,61 1683,46 1539,46" fill="rgb(249,252,193)" fill-opacity="1.0" stroke="rgb(99,100,77)" stroke-width="1" />
		<g>
			<title>PF00668</title>
			<rect class="PF00668" x="1545" y="18" stroke-linejoin="round" width="45" height="26" fill="rgb(224,184,98)" stroke="rgb(179,147,78)" stroke-width="1" opacity="0.75" />
		</g>
		<g>
			<title>PF00501</title>
			<rect class="PF00501" x="1592" y="18" stroke-linejoin="round" width="23" height="26" fill="rgb(60,217,223)" stroke="rgb(48,173,178)" stroke-width="1" opacity="0.75" />
		</g>
		<g>
			<title>PF00296</title>
			<rect class="PF00296" x="1614" y="18" stroke-linejoin="round" width="31" height="26" fill="rgb(180,112,78)" stroke="rgb(144,89,62)" stroke-width="1" opacity="0.75" />
		</g>
		<g>
			<title>PF00501</title>
			<rect class="PF00501" x="1646" y="18" stroke-linejoin="round" width="21" height="26" fill="rgb(60,217,223)" stroke="rgb(48,173,178)" stroke-width="1" opacity="0.75" />
		</g>
		<g>
			<title>PF13193</title>
			<rect class="PF13193" x="1668" y="18" stroke-linejoin="round" width="7" height="26" fill="rgb(182,50,118)" stroke="rgb(145,39,94)" stroke-width="1" opacity="0.75" />
		</g>
		<g>
			<title>PF00550</title>
			<rect class="PF00550" x="1679" y="18" stroke-linejoin="round" width="6" height="26" fill="rgb(103,191,88)" stroke="rgb(82,152,70)" stroke-width="1" opacity="0.75" />
		</g>
		<g>
			<title>PF00975</title>
			<polygon class="PF00975" points="1687,18 1697,18 1710,31 1697,44 1687,44" stroke-linejoin="round" width="24" height="26" fill="rgb(207,80,138)" stroke="rgb(165,63,110)" stroke-width="1" opacity="0.75" />
		</g>
	</g>
	<g>
		<polygon class="NoName" points="1715,16 1718,16 1718,1 1748,31 1718,61 1718,46 1715,46" fill="rgb(255,255,255)" fill-opacity="1.0" stroke="rgb(50,50,50)" stroke-width="1" />
		<g>
			<title>PF10370</title>
			<rect class="PF10370" x="1715" y="18" stroke-linejoin="round" width="6" height="26" fill="rgb(120,52,207)" stroke="rgb(95,41,165)" stroke-width="1" opacity="0.75" />
		</g>
		<g>
			<title>PF01557</title>
			<polygon class="PF01557" points="1722,18 1732,18 1745,31 1732,44 1722,44" stroke-linejoin="round" width="24" height="26" fill="rgb(71,203,125)" stroke="rgb(56,162,100)" stroke-width="1" opacity="0.75" />
		</g>
	</g>
	<g>
		<title>ctaJ</title>
		<polygon class="ctaJ" points="1783,16 1779,16 1779,1 1749,31 1779,61 1779,46 1783,46" fill="rgb(207,254,246)" fill-opacity="1.0" stroke="rgb(82,101,98)" stroke-width="1" />
		<g>
			<title>PF00795</title>
			<polygon class="PF00795" points="1755,27 1764,18 1781,18 1781,44 1764,44 1755,34" stroke-linejoin="round" width="26" height="26" fill="rgb(213,76,196)" stroke="rgb(170,60,156)" stroke-width="1" opacity="0.75" />
		</g>
	</g>
	<g>
		<title>ctaK</title>
		<polygon class="ctaK" points="1813,16 1813,16 1813,1 1783,31 1813,61 1813,46 1813,46" fill="rgb(196,250,211)" fill-opacity="1.0" stroke="rgb(78,100,84)" stroke-width="1" />
		<g>
			<title>PF04072</title>
			<polygon class="PF04072" points="1793,23 1798,18 1811,18 1811,44 1798,44 1793,38" stroke-linejoin="round" width="18" height="26" fill="rgb(94,159,219)" stroke="rgb(75,127,175)" stroke-width="1" opacity="0.75" />
		</g>
	</g>
	<g>
		<polygon class="NoName" points="1882,16 1866,16 1866,1 1836,31 1866,61 1866,46 1882,46" fill="rgb(255,255,255)" fill-opacity="1.0" stroke="rgb(50,50,50)" stroke-width="1" />
		<g>
			<title>PF00171</title>
			<polygon class="PF00171" points="1838,31 1851,18 1881,18 1881,44 1851,44" stroke-linejoin="round" width="45" height="26" fill="rgb(105,213,139)" stroke="rgb(84,170,111)" stroke-width="1" opacity="0.75" />
		</g>
	</g>
	<g>
		<polygon class="NoName" points="2034,16 1967,16 1967,1 1937,31 1967,61 1967,46 2034,46" fill="rgb(255,255,255)" fill-opacity="1.0" stroke="rgb(50,50,50)" stroke-width="1" />
		<g>
			<title>PF00128</title>
			<rect class="PF00128" x="1962" y="18" stroke-linejoin="round" width="34" height="26" fill="rgb(72,189,149)" stroke="rgb(57,151,119)" stroke-width="1" opacity="0.75" />
		</g>
		<g>
			<title>PF00041</title>
			<rect class="PF00041" x="2003" y="18" stroke-linejoin="round" width="7" height="26" fill="rgb(203,70,135)" stroke="rgb(162,56,107)" stroke-width="1" opacity="0.75" />
		</g>
		<g>
			<title>PF03423</title>
			<rect class="PF03423" x="2012" y="18" stroke-linejoin="round" width="10" height="26" fill="rgb(132,223,95)" stroke="rgb(105,178,76)" stroke-width="1" opacity="0.75" />
		</g>
		<g>
			<title>PF03423</title>
			<rect class="PF03423" x="2022" y="18" stroke-linejoin="round" width="10" height="26" fill="rgb(132,223,95)" stroke="rgb(105,178,76)" stroke-width="1" opacity="0.75" />
		</g>
	</g>
	<g>
		<polygon class="NoName" points="2089,16 2089,16 2089,1 2074,31 2089,61 2089,46 2089,46" fill="rgb(255,255,255)" fill-opacity="1.0" stroke="rgb(50,50,50)" stroke-width="1" />
		<g>
			<title>PF13463</title>
			<polygon class="PF13463" points="2079,25 2083,18 2085,18 2085,44 2083,44 2079,36" stroke-linejoin="round" width="6" height="26" fill="rgb(130,111,228)" stroke="rgb(103,88,182)" stroke-width="1" opacity="0.75" />
		</g>
	</g>
	<g>
		<polygon class="NoName" points="258,16 258,16 258,1 276,31 258,61 258,46 258,46" fill="rgb(255,255,255)" fill-opacity="1.0" stroke="rgb(50,50,50)" stroke-width="1" />
		<g>
			<title>PF03602</title>
			<polygon class="PF03602" points="258,18 265,18 273,31 265,44 258,44" stroke-linejoin="round" width="18" height="26" fill="rgb(220,198,67)" stroke="rgb(176,158,53)" stroke-width="1" opacity="0.75" />
		</g>
	</g>
	<g>
		<polygon class="NoName" points="296,16 305,16 305,1 335,31 305,61 305,46 296,46" fill="rgb(255,255,255)" fill-opacity="1.0" stroke="rgb(50,50,50)" stroke-width="1" />
		<g>
			<title>PF00155</title>
			<polygon class="PF00155" points="299,18 319,18 332,31 319,44 299,44" stroke-linejoin="round" width="35" height="26" fill="rgb(89,113,198)" stroke="rgb(71,90,158)" stroke-width="1" opacity="0.75" />
		</g>
	</g>
	<g>
		<polygon class="NoName" points="362,16 439,16 439,1 469,31 439,61 439,46 362,46" fill="rgb(255,255,255)" fill-opacity="1.0" stroke="rgb(50,50,50)" stroke-width="1" />
		<g>
			<title>PF02786</title>
			<rect class="PF02786" x="374" y="18" stroke-linejoin="round" width="20" height="26" fill="rgb(190,97,205)" stroke="rgb(151,77,164)" stroke-width="1" opacity="0.75" />
		</g>
		<g>
			<title>PF02787</title>
			<rect class="PF02787" x="404" y="18" stroke-linejoin="round" width="12" height="26" fill="rgb(217,64,78)" stroke="rgb(173,51,62)" stroke-width="1" opacity="0.75" />
		</g>
		<g>
			<title>PF02786</title>
			<rect class="PF02786" x="429" y="18" stroke-linejoin="round" width="20" height="26" fill="rgb(190,97,205)" stroke="rgb(151,77,164)" stroke-width="1" opacity="0.75" />
		</g>
		<g>
			<title>PF02142</title>
			<polygon class="PF02142" points="457,22 465,30 465,32 457,40" stroke-linejoin="round" width="8" height="26" fill="rgb(97,202,71)" stroke="rgb(77,161,56)" stroke-width="1" opacity="0.75" />
		</g>
	</g>
	<g>
		<polygon class="NoName" points="581,16 543,16 543,1 513,31 543,61 543,46 581,46" fill="rgb(255,255,255)" fill-opacity="1.0" stroke="rgb(50,50,50)" stroke-width="1" />
		<g>
			<title>PF02518</title>
			<polygon class="PF02518" points="515,31 524,22 524,39" stroke-linejoin="round" width="11" height="26" fill="rgb(80,94,225)" stroke="rgb(64,75,180)" stroke-width="1" opacity="0.75" />
		</g>
		<g>
			<title>PF00672</title>
			<rect class="PF00672" x="543" y="18" stroke-linejoin="round" width="7" height="26" fill="rgb(124,89,195)" stroke="rgb(99,71,156)" stroke-width="1" opacity="0.75" />
		</g>
	</g>
	<g>
		<polygon class="NoName" points="592,16 592,16 592,1 621,31 592,61 592,46 592,46" fill="rgb(255,255,255)" fill-opacity="1.0" stroke="rgb(50,50,50)" stroke-width="1" />
		<g>
			<title>PF00561</title>
			<polygon class="PF00561" points="594,18 605,18 618,31 605,44 594,44" stroke-linejoin="round" width="25" height="26" fill="rgb(86,180,151)" stroke="rgb(68,144,120)" stroke-width="1" opacity="0.75" />
		</g>
	</g>
	<g>
		<title>ctaB</title>
		<polygon class="ctaB" points="645,16 720,16 720,1 750,31 720,61 720,46 645,46" fill="rgb(207,234,253)" fill-opacity="1.0" stroke="rgb(82,93,101)" stroke-width="1" />
		<g>
			<title>PF00109</title>
			<rect class="PF00109" x="646" y="18" stroke-linejoin="round" width="25" height="26" fill="rgb(112,116,228)" stroke="rgb(89,92,182)" stroke-width="1" opacity="0.75" />
		</g>
		<g>
			<title>PF02801</title>
			<rect class="PF02801" x="672" y="18" stroke-linejoin="round" width="11" height="26" fill="rgb(215,78,102)" stroke="rgb(172,62,81)" stroke-width="1" opacity="0.75" />
		</g>
		<g>
			<title>PF16197</title>
			<rect class="PF16197" x="684" y="18" stroke-linejoin="round" width="12" height="26" fill="rgb(68,179,89)" stroke="rgb(54,143,71)" stroke-width="1" opacity="0.75" />
		</g>
		<g>
			<title>PF00698</title>
			<rect class="PF00698" x="700" y="18" stroke-linejoin="round" width="31" height="26" fill="rgb(59,176,209)" stroke="rgb(47,140,167)" stroke-width="1" opacity="0.75" />
		</g>
		<g>
			<title>PF00550</title>
			<polygon class="PF00550" points="741,25 747,31 747,31 741,37" stroke-linejoin="round" width="6" height="26" fill="rgb(103,191,88)" stroke="rgb(82,152,70)" stroke-width="1" opacity="0.75" />
		</g>
	</g>
	<g>
		<title>ctaC</title>
		<polygon class="ctaC" points="751,16 852,16 852,1 882,31 852,61 852,46 751,46" fill="rgb(206,252,238)" fill-opacity="1.0" stroke="rgb(82,100,95)" stroke-width="1" />
		<g>
			<title>PF00668</title>
			<rect class="PF00668" x="756" y="18" stroke-linejoin="round" width="44" height="26" fill="rgb(224,184,98)" stroke="rgb(179,147,78)" stroke-width="1" opacity="0.75" />
		</g>
		<g>
			<title>PF00501</title>
			<rect class="PF00501" x="802" y="18" stroke-linejoin="round" width="39" height="26" fill="rgb(60,217,223)" stroke="rgb(48,173,178)" stroke-width="1" opacity="0.75" />
		</g>
		<g>
			<title>PF13193</title>
			<rect class="PF13193" x="843" y="18" stroke-linejoin="round" width="7" height="26" fill="rgb(182,50,118)" stroke="rgb(145,39,94)" stroke-width="1" opacity="0.75" />
		</g>
		<g>
			<title>PF00550</title>
			<rect class="PF00550" x="853" y="18" stroke-linejoin="round" width="6" height="26" fill="rgb(103,191,88)" stroke="rgb(82,152,70)" stroke-width="1" opacity="0.75" />
		</g>
		<g>
			<title>PF00881</title>
			<polygon class="PF00881" points="863,18 866,18 879,31 866,44 863,44" stroke-linejoin="round" width="17" height="26" fill="rgb(79,118,187)" stroke="rgb(63,94,149)" stroke-width="1" opacity="0.75" />
		</g>
	</g>
	<g>
		<title>ctaD</title>
		<polygon class="ctaD" points="882,16 1180,16 1180,1 1210,31 1180,61 1180,46 882,46" fill="rgb(220,250,184)" fill-opacity="1.0" stroke="rgb(88,100,73)" stroke-width="1" />
		<g>
			<title>PF00668</title>
			<rect class="PF00668" x="890" y="18" stroke-linejoin="round" width="43" height="26" fill="rgb(224,184,98)" stroke="rgb(179,147,78)" stroke-width="1" opacity="0.75" />
		</g>
		<g>
			<title>PF00501</title>
			<rect class="PF00501" x="936" y="18" stroke-linejoin="round" width="39" height="26" fill="rgb(60,217,223)" stroke="rgb(48,173,178)" stroke-width="1" opacity="0.75" />
		</g>
		<g>
			<title>PF00881</title>
			<rect class="PF00881" x="987" y="18" stroke-linejoin="round" width="18" height="26" fill="rgb(79,118,187)" stroke="rgb(63,94,149)" stroke-width="1" opacity="0.75" />
		</g>
		<g>
			<title>PF13193</title>
			<rect class="PF13193" x="1006" y="18" stroke-linejoin="round" width="5" height="26" fill="rgb(182,50,118)" stroke="rgb(145,39,94)" stroke-width="1" opacity="0.75" />
		</g>
		<g>
			<title>PF00550</title>
			<rect class="PF00550" x="1015" y="18" stroke-linejoin="round" width="6" height="26" fill="rgb(103,191,88)" stroke="rgb(82,152,70)" stroke-width="1" opacity="0.75" />
		</g>
		<g>
			<title>PF00109</title>
			<rect class="PF00109" x="1027" y="18" stroke-linejoin="round" width="25" height="26" fill="rgb(112,116,228)" stroke="rgb(89,92,182)" stroke-width="1" opacity="0.75" />
		</g>
		<g>
			<title>PF02801</title>
			<rect class="PF02801" x="1053" y="18" stroke-linejoin="round" width="11" height="26" fill="rgb(215,78,102)" stroke="rgb(172,62,81)" stroke-width="1" opacity="0.75" />
		</g>
		<g>
			<title>PF16197</title>
			<rect class="PF16197" x="1065" y="18" stroke-linejoin="round" width="11" height="26" fill="rgb(68,179,89)" stroke="rgb(54,143,71)" stroke-width="1" opacity="0.75" />
		</g>
		<g>
			<title>PF00698</title>
			<rect class="PF00698" x="1080" y="18" stroke-linejoin="round" width="31" height="26" fill="rgb(59,176,209)" stroke="rgb(47,140,167)" stroke-width="1" opacity="0.75" />
		</g>
		<g>
			<title>PF14765</title>
			<rect class="PF14765" x="1116" y="18" stroke-linejoin="round" width="29" height="26" fill="rgb(173,56,182)" stroke="rgb(138,44,145)" stroke-width="1" opacity="0.75" />
		</g>
		<g>
			<title>PF08659</title>
			<rect class="PF08659" x="1170" y="18" stroke-linejoin="round" width="17" height="26" fill="rgb(66,209,188)" stroke="rgb(52,167,150)" stroke-width="1" opacity="0.75" />
		</g>
		<g>
			<title>PF00550</title>
			<polygon class="PF00550" points="1198,22 1204,28 1204,34 1198,40" stroke-linejoin="round" width="6" height="26" fill="rgb(103,191,88)" stroke="rgb(82,152,70)" stroke-width="1" opacity="0.75" />
		</g>
	</g>
	<g>
		<title>ctaE</title>
		<polygon class="ctaE" points="1213,16 1373,16 1373,1 1403,31 1373,61 1373,46 1213,46" fill="rgb(248,251,193)" fill-opacity="1.0" stroke="rgb(99,100,77)" stroke-width="1" />
		<g>
			<title>PF00109</title>
			<rect class="PF00109" x="1216" y="18" stroke-linejoin="round" width="25" height="26" fill="rgb(112,116,228)" stroke="rgb(89,92,182)" stroke-width="1" opacity="0.75" />
		</g>
		<g>
			<title>PF02801</title>
			<rect class="PF02801" x="1242" y="18" stroke-linejoin="round" width="11" height="26" fill="rgb(215,78,102)" stroke="rgb(172,62,81)" stroke-width="1" opacity="0.75" />
		</g>
		<g>
			<title>PF16197</title>
			<rect class="PF16197" x="1254" y="18" stroke-linejoin="round" width="11" height="26" fill="rgb(68,179,89)" stroke="rgb(54,143,71)" stroke-width="1" opacity="0.75" />
		</g>
		<g>
			<title>PF00698</title>
			<rect class="PF00698" x="1270" y="18" stroke-linejoin="round" width="31" height="26" fill="rgb(59,176,209)" stroke="rgb(47,140,167)" stroke-width="1" opacity="0.75" />
		</g>
		<g>
			<title>PF08242</title>
			<rect class="PF08242" x="1315" y="18" stroke-linejoin="round" width="9" height="26" fill="rgb(187,59,115)" stroke="rgb(149,47,92)" stroke-width="1" opacity="0.75" />
		</g>
		<g>
			<title>PF08659</title>
			<rect class="PF08659" x="1361" y="18" stroke-linejoin="round" width="19" height="26" fill="rgb(66,209,188)" stroke="rgb(52,167,150)" stroke-width="1" opacity="0.75" />
		</g>
		<g>
			<title>PF00550</title>
			<polygon class="PF00550" points="1390,21 1396,27 1396,35 1390,41" stroke-linejoin="round" width="6" height="26" fill="rgb(103,191,88)" stroke="rgb(82,152,70)" stroke-width="1" opacity="0.75" />
		</g>
	</g>
</svg>
