<svg version="1.1" baseProfile="full" xmlns="http://www.w3.org/2000/svg" width="237" height="62">
	<line x1="1" y1="31" x2="236" y2="31" style="stroke:rgb(50,50,50); stroke-width:3 "/>
	<g>
		<title>jadJ</title>
		<polygon class="jadJ" points="6,16 34,16 34,1 64,31 34,61 34,46 6,46" fill="rgb(180,253,236)" fill-opacity="1.0" stroke="rgb(72,101,94)" stroke-width="1" />
		<g>
			<title>PF00289</title>
			<rect class="PF00289" x="6" y="18" stroke-linejoin="round" width="10" height="26" fill="rgb(59,114,187)" stroke="rgb(47,91,149)" stroke-width="1" opacity="0.75" />
		</g>
		<g>
			<title>PF02786</title>
			<rect class="PF02786" x="17" y="18" stroke-linejoin="round" width="20" height="26" fill="rgb(190,97,205)" stroke="rgb(151,77,164)" stroke-width="1" opacity="0.75" />
		</g>
		<g>
			<title>PF02785</title>
			<polygon class="PF02785" points="39,18 48,18 49,19 49,43 48,44 39,44" stroke-linejoin="round" width="10" height="26" fill="rgb(82,186,211)" stroke="rgb(65,148,168)" stroke-width="1" opacity="0.75" />
		</g>
		<g>
			<title>PF00364</title>
			<polygon class="PF00364" points="57,27 61,31 57,35" stroke-linejoin="round" width="6" height="26" fill="rgb(67,214,213)" stroke="rgb(53,171,170)" stroke-width="1" opacity="0.75" />
		</g>
	</g>
	<g>
		<title>jadI</title>
		<polygon class="jadI" points="68,16 68,16 68,1 79,31 68,61 68,46 68,46" fill="rgb(204,253,212)" fill-opacity="1.0" stroke="rgb(81,101,84)" stroke-width="1" />
		<g>
			<title>PF04673</title>
			<polygon class="PF04673" points="68,18 71,18 76,31 71,44 68,44" stroke-linejoin="round" width="10" height="26" fill="rgb(49,187,78)" stroke="rgb(39,149,62)" stroke-width="1" opacity="0.75" />
		</g>
	</g>
	<g>
		<title>jadA</title>
		<polygon class="jadA" points="79,16 91,16 91,1 121,31 91,61 91,46 79,46" fill="rgb(254,248,213)" fill-opacity="1.0" stroke="rgb(101,99,85)" stroke-width="1" />
		<g>
			<title>PF00109</title>
			<rect class="PF00109" x="79" y="18" stroke-linejoin="round" width="25" height="26" fill="rgb(112,116,228)" stroke="rgb(89,92,182)" stroke-width="1" opacity="0.75" />
		</g>
		<g>
			<title>PF02801</title>
			<polygon class="PF02801" points="105,18 105,18 116,29 116,33 105,44 105,44" stroke-linejoin="round" width="11" height="26" fill="rgb(215,78,102)" stroke="rgb(172,62,81)" stroke-width="1" opacity="0.75" />
		</g>
	</g>
	<g>
		<polygon class="NoName" points="121,16 131,16 131,1 161,31 131,61 131,46 121,46" fill="rgb(255,255,255)" fill-opacity="1.0" stroke="rgb(50,50,50)" stroke-width="1" />
		<g>
			<title>PF00109</title>
			<rect class="PF00109" x="121" y="18" stroke-linejoin="round" width="24" height="26" fill="rgb(112,116,228)" stroke="rgb(89,92,182)" stroke-width="1" opacity="0.75" />
		</g>
		<g>
			<title>PF02801</title>
			<polygon class="PF02801" points="146,19 157,30 157,32 146,43" stroke-linejoin="round" width="11" height="26" fill="rgb(215,78,102)" stroke="rgb(172,62,81)" stroke-width="1" opacity="0.75" />
		</g>
	</g>
	<g>
		<title>acp</title>
		<polygon class="acp" points="163,16 163,16 163,1 172,31 163,61 163,46 163,46" fill="rgb(224,199,254)" fill-opacity="1.0" stroke="rgb(89,79,101)" stroke-width="1" />
		<g>
			<title>PF00550</title>
			<polygon class="PF00550" points="163,18 165,18 169,31 165,44 163,44" stroke-linejoin="round" width="7" height="26" fill="rgb(103,191,88)" stroke="rgb(82,152,70)" stroke-width="1" opacity="0.75" />
		</g>
	</g>
	<g>
		<polygon class="NoName" points="174,16 174,16 174,1 200,31 174,61 174,46 174,46" fill="rgb(255,255,255)" fill-opacity="1.0" stroke="rgb(50,50,50)" stroke-width="1" />
		<g>
			<title>PF00106</title>
			<polygon class="PF00106" points="175,18 186,18 194,28 194,34 186,44 175,44" stroke-linejoin="round" width="19" height="26" fill="rgb(182,219,73)" stroke="rgb(145,175,58)" stroke-width="1" opacity="0.75" />
		</g>
	</g>
	<g>
		<polygon class="NoName" points="202,16 203,16 203,1 233,31 203,61 203,46 202,46" fill="rgb(255,255,255)" fill-opacity="1.0" stroke="rgb(50,50,50)" stroke-width="1" />
		<g>
			<title>PF10604</title>
			<rect class="PF10604" x="202" y="18" stroke-linejoin="round" width="14" height="26" fill="rgb(105,204,74)" stroke="rgb(84,163,59)" stroke-width="1" opacity="0.75" />
		</g>
		<g>
			<title>PF10604</title>
			<polygon class="PF10604" points="217,18 217,18 230,31 217,44 217,44" stroke-linejoin="round" width="15" height="26" fill="rgb(105,204,74)" stroke="rgb(84,163,59)" stroke-width="1" opacity="0.75" />
		</g>
	</g>
</svg>
