<svg version="1.1" baseProfile="full" xmlns="http://www.w3.org/2000/svg" width="395" height="62">
	<line x1="1" y1="31" x2="394" y2="31" style="stroke:rgb(50,50,50); stroke-width:3 "/>
	<g>
		<polygon class="NoName" points="8,16 8,16 8,1 22,31 8,61 8,46 8,46" fill="rgb(255,255,255)" fill-opacity="1.0" stroke="rgb(50,50,50)" stroke-width="1" />
		<g>
			<title>PF01638</title>
			<polygon class="PF01638" points="11,18 13,18 19,30 19,32 13,44 11,44" stroke-linejoin="round" width="8" height="26" fill="rgb(91,150,227)" stroke="rgb(72,119,181)" stroke-width="1" opacity="0.75" />
		</g>
	</g>
	<g>
		<polygon class="NoName" points="61,16 56,16 56,1 26,31 56,61 56,46 61,46" fill="rgb(255,255,255)" fill-opacity="1.0" stroke="rgb(50,50,50)" stroke-width="1" />
	</g>
	<g>
		<title>urdGT1a</title>
		<polygon class="urdGT1a" points="112,16 124,16 124,1 154,31 124,61 124,46 112,46" fill="rgb(253,186,184)" fill-opacity="1.0" stroke="rgb(101,74,73)" stroke-width="1" />
		<g>
			<title>PF06722</title>
			<polygon class="PF06722" points="133,18 138,18 142,22 142,40 138,44 133,44" stroke-linejoin="round" width="9" height="26" fill="rgb(200,129,88)" stroke="rgb(160,103,70)" stroke-width="1" opacity="0.75" />
		</g>
	</g>
	<g>
		<title>urdGT1b</title>
		<polygon class="urdGT1b" points="155,16 163,16 163,1 193,31 163,61 163,46 155,46" fill="rgb(215,252,199)" fill-opacity="1.0" stroke="rgb(86,100,79)" stroke-width="1" />
		<g>
			<title>PF06722</title>
			<polygon class="PF06722" points="172,18 177,18 181,22 181,40 177,44 172,44" stroke-linejoin="round" width="9" height="26" fill="rgb(200,129,88)" stroke="rgb(160,103,70)" stroke-width="1" opacity="0.75" />
		</g>
		<g>
			<title>PF04101</title>
			<polygon class="PF04101" points="182,23 190,31 182,39" stroke-linejoin="round" width="10" height="26" fill="rgb(211,90,140)" stroke="rgb(168,72,112)" stroke-width="1" opacity="0.75" />
		</g>
	</g>
	<g>
		<title>urd-Int</title>
		<polygon class="urd-Int" points="235,16 225,16 225,1 195,31 225,61 225,46 235,46" fill="rgb(253,196,227)" fill-opacity="1.0" stroke="rgb(101,78,90)" stroke-width="1" />
		<g>
			<title>PF02371</title>
			<polygon class="PF02371" points="199,29 207,21 207,40 199,32" stroke-linejoin="round" width="8" height="26" fill="rgb(104,204,65)" stroke="rgb(83,163,52)" stroke-width="1" opacity="0.75" />
		</g>
		<g>
			<title>PF01548</title>
			<rect class="PF01548" x="218" y="18" stroke-linejoin="round" width="15" height="26" fill="rgb(59,200,207)" stroke="rgb(47,160,165)" stroke-width="1" opacity="0.75" />
		</g>
	</g>
	<g>
		<title>urdGT1c</title>
		<polygon class="urdGT1c" points="243,16 252,16 252,1 282,31 252,61 252,46 243,46" fill="rgb(216,252,178)" fill-opacity="1.0" stroke="rgb(86,100,71)" stroke-width="1" />
		<g>
			<title>PF06722</title>
			<polygon class="PF06722" points="260,18 266,18 269,21 269,41 266,44 260,44" stroke-linejoin="round" width="9" height="26" fill="rgb(200,129,88)" stroke="rgb(160,103,70)" stroke-width="1" opacity="0.75" />
		</g>
	</g>
	<g>
		<title>urdK</title>
		<polygon class="urdK" points="304,16 304,16 304,1 286,31 304,61 304,46 304,46" fill="rgb(210,250,194)" fill-opacity="1.0" stroke="rgb(84,100,77)" stroke-width="1" />
		<g>
			<title>PF00440</title>
			<rect class="PF00440" x="299" y="18" stroke-linejoin="round" width="4" height="26" fill="rgb(73,212,190)" stroke="rgb(58,169,152)" stroke-width="1" opacity="0.75" />
		</g>
	</g>
	<g>
		<title>urdJ</title>
		<polygon class="urdJ" points="309,16 331,16 331,1 361,31 331,61 331,46 309,46" fill="rgb(205,252,186)" fill-opacity="1.0" stroke="rgb(82,100,74)" stroke-width="1" />
		<g>
			<title>PF07690</title>
			<polygon class="PF07690" points="311,18 345,18 350,23 350,39 345,44 311,44" stroke-linejoin="round" width="39" height="26" fill="rgb(193,224,74)" stroke="rgb(154,179,59)" stroke-width="1" opacity="0.75" />
		</g>
	</g>
	<g>
		<title>urdO</title>
		<polygon class="urdO" points="363,16 363,16 363,1 382,31 363,61 363,46 363,46" fill="rgb(193,243,253)" fill-opacity="1.0" stroke="rgb(77,97,101)" stroke-width="1" />
		<g>
			<title>PF03358</title>
			<polygon class="PF03358" points="363,18 371,18 377,27 377,35 371,44 363,44" stroke-linejoin="round" width="14" height="26" fill="rgb(90,228,61)" stroke="rgb(72,182,48)" stroke-width="1" opacity="0.75" />
		</g>
	</g>
</svg>
